<?xml version="1.0" encoding="utf-8"?>
<COLLADA xmlns="http://www.collada.org/2005/11/COLLADASchema" version="1.4.1">
  <asset><contributor><author></author><authoring_tool>FBX COLLADA exporter</authoring_tool><comments></comments></contributor><created>2014-11-27T15:00:29Z</created><keywords></keywords><modified>2014-11-27T15:00:29Z</modified><revision></revision><subject></subject><title></title><unit meter="1.000000" name="centimeter"></unit><up_axis>Y_UP</up_axis></asset>
  <library_images>
    <image id="Image0003-image" name="Image0003"><init_from>file://D:/work/svn_soma/redist/static_objects/station/details/railing_pplant/railing_pplant.dds</init_from></image>
    <image id="Image0002-image" name="Image0002"><init_from>file://D:/work/svn_soma/redist/static_objects/station/details/fencing_pplant/fencing_chainlink_pplant.dds</init_from></image>
  </library_images>
  <library_materials>
    <material id="railing_pplant" name="railing_pplant">
      <instance_effect url="#railing_pplant-fx"/>
    </material>
    <material id="chainlink_ncl1_1" name="chainlink_ncl1_1">
      <instance_effect url="#chainlink_ncl1_1-fx"/>
    </material>
  </library_materials>
  <library_effects>
    <effect id="railing_pplant-fx" name="railing_pplant">
      <profile_COMMON>
        <technique sid="standard">
          <phong>
            <emission>
              <color sid="emission">0.000000  0.000000 0.000000 1.000000</color>
            </emission>
            <ambient>
              <color sid="ambient">0.200000  0.200000 0.200000 1.000000</color>
            </ambient>
            <diffuse>
              <texture texture="Image0003-image" texcoord="CHANNEL0">
                <extra>
                  <technique profile="MAYA">
                    <wrapU sid="wrapU0">TRUE</wrapU>
                    <wrapV sid="wrapV0">TRUE</wrapV>
                    <blend_mode>NONE</blend_mode>
                  </technique>
                </extra>
              </texture>
            </diffuse>
            <specular>
              <color sid="specular">0.500000  0.500000 0.500000 1.000000</color>
            </specular>
            <shininess>
              <float sid="shininess">8.574190</float>
            </shininess>
            <reflective>
              <color sid="reflective">0.000000  0.000000 0.000000 1.000000</color>
            </reflective>
            <reflectivity>
              <float sid="reflectivity">1.000000</float>
            </reflectivity>
            <transparent opaque="RGB_ZERO">
              <color sid="transparent">0.000000  0.000000 0.000000 1.000000</color>
            </transparent>
            <transparency>
              <float sid="transparency">1.000000</float>
            </transparency>
          </phong>
        </technique>
      </profile_COMMON>
    </effect>
    <effect id="chainlink_ncl1_1-fx" name="chainlink_ncl1_1">
      <profile_COMMON>
        <technique sid="standard">
          <phong>
            <emission>
              <color sid="emission">0.000000  0.000000 0.000000 1.000000</color>
            </emission>
            <ambient>
              <color sid="ambient">0.200000  0.200000 0.200000 1.000000</color>
            </ambient>
            <diffuse>
              <texture texture="Image0002-image" texcoord="CHANNEL0">
                <extra>
                  <technique profile="MAYA">
                    <wrapU sid="wrapU0">TRUE</wrapU>
                    <wrapV sid="wrapV0">TRUE</wrapV>
                    <blend_mode>NONE</blend_mode>
                  </technique>
                </extra>
              </texture>
            </diffuse>
            <specular>
              <color sid="specular">0.345000  0.345000 0.345000 1.000000</color>
            </specular>
            <shininess>
              <float sid="shininess">256.000000</float>
            </shininess>
            <reflective>
              <color sid="reflective">0.000000  0.000000 0.000000 1.000000</color>
            </reflective>
            <reflectivity>
              <float sid="reflectivity">1.000000</float>
            </reflectivity>
            <transparent opaque="RGB_ZERO">
              <texture texture="Image0002-image" texcoord="CHANNEL0">
                <extra>
                  <technique profile="MAYA">
                    <wrapU sid="wrapU0">TRUE</wrapU>
                    <wrapV sid="wrapV0">TRUE</wrapV>
                    <blend_mode>NONE</blend_mode>
                  </technique>
                </extra>
              </texture>
            </transparent>
            <transparency>
              <float sid="transparency">1.000000</float>
            </transparency>
          </phong>
        </technique>
      </profile_COMMON>
    </effect>
  </library_effects>
  <library_geometries>
    <geometry id="polySurface29-lib" name="polySurface29Mesh">
      <mesh>
        <source id="polySurface29-POSITION">
          <float_array id="polySurface29-POSITION-array" count="1368">
-56.320366 25.875000 -0.000000
-57.406364 25.875000 2.621960
-60.028374 25.875000 3.708000
-62.650368 25.875000 2.621960
-63.736366 25.875000 -0.000000
-62.650368 25.875000 -2.621960
-60.028374 25.875000 -3.708000
-57.406364 25.875000 -2.621960
-19.661129 7.335999 -2.621960
-19.661129 6.250000 -0.000000
-19.661129 12.580002 2.621960
-19.661129 13.666000 -0.000000
-19.661129 9.957993 -3.708000
-19.661129 12.580002 -2.621960
-19.661129 9.957993 3.708000
-19.661129 7.335999 2.621960
-44.111870 7.335999 -2.621960
-44.111870 6.250000 -0.000000
-44.111870 12.580017 2.621960
-44.111870 13.666000 -0.000000
-44.111870 9.957993 -3.708000
-44.111870 12.580017 -2.621960
-44.111870 9.957993 3.708000
-44.111870 7.335999 2.621960
-50.175865 7.209991 -0.000000
-49.839882 8.243011 -2.621960
-55.645866 9.998016 -0.000000
-55.007881 10.876007 -2.621960
-59.987877 14.338989 -0.000000
-59.108864 14.977005 -2.621960
-62.774864 19.809998 -0.000000
-61.741875 20.145004 -2.621960
-47.883873 14.264008 -0.000000
-48.219872 13.231003 2.621960
-51.286873 15.996994 -0.000000
-51.925865 15.119003 2.621960
-53.987862 18.698013 -0.000000
-54.866859 18.059998 2.621960
-55.721886 22.100998 -0.000000
-56.754875 21.766006 2.621960
-49.029869 10.737015 -3.708000
-53.466881 12.998001 -3.708000
-56.987862 16.519012 -3.708000
-59.247871 20.955002 -3.708000
-48.219872 13.231003 -2.621960
-51.925865 15.119003 -2.621960
-54.866859 18.059998 -2.621960
-56.754875 21.766006 -2.621960
-49.029869 10.737015 3.708000
-53.466881 12.998001 3.708000
-56.987862 16.519012 3.708000
-59.247871 20.955002 3.708000
-49.839882 8.243011 2.621960
-55.007881 10.876007 2.621960
-59.108864 14.977005 2.621960
-61.741875 20.145004 2.621960
-56.302795 304.955841 -0.000000
-57.388805 304.955841 2.621960
-60.010803 304.955841 -3.708000
-57.388805 304.955841 -2.621960
-62.632797 304.955841 -2.621960
-63.718796 304.955841 -0.000000
-62.632797 304.955841 2.621960
-60.010803 304.955841 3.708000
16.998100 25.875000 -0.000000
18.084099 25.875000 -2.621960
20.706108 25.875000 -3.708000
23.328102 25.875000 -2.621960
24.414101 25.875000 -0.000000
23.328102 25.875000 2.621960
20.706108 25.875000 3.708000
18.084099 25.875000 2.621960
4.789604 7.335999 2.621960
4.789604 6.250000 -0.000000
4.789604 12.580017 -2.621960
4.789604 13.666000 -0.000000
4.789604 9.957993 3.708000
4.789604 12.580017 2.621960
4.789604 9.957993 -3.708000
4.789604 7.335999 -2.621960
10.853600 7.209991 -0.000000
10.517616 8.243011 2.621960
16.323601 9.998016 -0.000000
15.685616 10.876007 2.621960
20.665611 14.338989 -0.000000
19.786598 14.977005 2.621960
23.452599 19.809998 -0.000000
22.419609 20.145004 2.621960
8.561607 14.264008 -0.000000
8.897606 13.231003 -2.621960
11.964607 15.996994 -0.000000
12.603600 15.119003 -2.621960
14.665596 18.698013 -0.000000
15.544594 18.059998 -2.621960
16.399620 22.100998 -0.000000
17.432610 21.766006 -2.621960
9.707603 10.737015 3.708000
14.144615 12.998001 3.708000
17.665596 16.519012 3.708000
19.925606 20.955002 3.708000
8.897606 13.231003 2.621960
12.603600 15.119003 2.621960
15.544594 18.059998 2.621960
17.432610 21.766006 2.621960
9.707603 10.737015 -3.708000
14.144615 12.998001 -3.708000
17.665596 16.519012 -3.708000
19.925606 20.955002 -3.708000
10.517616 8.243011 -2.621960
15.685616 10.876007 -2.621960
19.786598 14.977005 -2.621960
22.419609 20.145004 -2.621960
16.997353 304.944794 -0.000000
18.083359 304.944794 -2.621960
20.705360 304.944794 3.708000
18.083359 304.944794 2.621960
23.327354 304.944794 2.621960
24.413353 304.944794 -0.000000
23.327354 304.944794 -2.621960
20.705360 304.944794 -3.708000
10.140954 319.852020 -0.000000
10.140951 318.766907 -2.621960
10.140950 312.437775 -0.000000
10.140950 313.523529 2.621960
10.140951 316.144806 -3.708000
10.140950 313.523529 -2.621960
10.140951 316.144806 3.708000
10.140951 318.766907 2.621960
19.806673 309.289948 -3.708000
22.111706 310.360870 -2.621960
23.066523 310.804077 -0.000000
22.111706 310.360870 2.621960
19.806673 309.289948 3.708000
17.502567 308.218475 2.621960
16.547745 307.775299 -0.000000
17.502567 308.218475 -2.621960
17.429182 312.841217 -3.708000
19.061794 314.753113 -2.621960
19.738457 315.544617 -0.000000
19.061794 314.753113 2.621960
17.429182 312.841217 3.708000
15.796935 310.929382 2.621960
15.120281 310.137909 -0.000000
15.796935 310.929382 -2.621960
14.048491 315.266327 -3.708000
14.847873 317.718750 -2.621960
15.179551 318.734070 -0.000000
14.847873 317.718750 2.621960
14.048491 315.266327 3.708000
13.248726 312.814728 2.621960
12.917065 311.799255 -0.000000
13.248726 312.814728 -2.621960
0.000145 326.460236 -0.000000
-1.085854 326.460236 2.621960
-3.707856 326.460236 3.708000
-6.329856 326.460236 2.621960
-7.415856 326.460236 -0.000000
-6.329856 326.460236 -2.621960
-3.707856 326.460236 -3.708000
-1.085854 326.460236 -2.621960
-2.810068 322.115082 -3.708000
-5.115101 321.044159 -2.621960
-6.069918 320.600952 -0.000000
-5.115101 321.044159 2.621960
-2.810068 322.115082 3.708000
-0.505962 323.186554 2.621960
0.448860 323.629730 -0.000000
-0.505962 323.186554 -2.621960
-0.432577 318.563812 -3.708000
-2.065189 316.651917 -2.621960
-2.741852 315.860413 -0.000000
-2.065189 316.651917 2.621960
-0.432577 318.563812 3.708000
1.199670 320.475647 2.621960
1.876324 321.267120 -0.000000
1.199670 320.475647 -2.621960
3.323676 316.587189 -3.708000
2.789941 314.063599 -2.621960
2.568247 313.018707 -0.000000
2.789941 314.063599 2.621960
3.323676 316.587189 3.708000
3.857879 319.109985 2.621960
4.079540 320.154999 -0.000000
3.857879 319.109985 -2.621960
-7.416000 380.375000 -0.000000
-6.330002 380.375000 2.621960
-3.707993 380.375000 3.708000
-1.085999 380.375000 2.621960
0.000000 380.375000 -0.000000
-1.085999 380.375000 -2.621960
-3.707993 380.375000 -3.708000
-6.330002 380.375000 -2.621960
-44.075237 398.914001 -2.621960
-44.075237 400.000000 -0.000000
-44.075237 393.669983 2.621960
-44.075237 392.583984 -0.000000
-44.075237 396.291992 -3.708000
-44.075237 393.669983 -2.621960
-44.075237 396.291992 3.708000
-44.075237 398.914001 2.621960
-19.624496 398.914001 -2.621960
-19.624496 400.000000 -0.000000
-19.624496 393.669983 2.621960
-19.624496 392.583984 -0.000000
-19.624496 396.291992 -3.708000
-19.624496 393.669983 -2.621960
-19.624496 396.291992 3.708000
-19.624496 398.914001 2.621960
-13.560501 399.040009 -0.000000
-13.896484 398.006989 -2.621960
-8.090500 396.251984 -0.000000
-8.728485 395.373993 -2.621960
-3.748489 391.911011 -0.000000
-4.627502 391.273010 -2.621960
-0.961502 386.440002 -0.000000
-1.994492 386.104980 -2.621960
-15.852493 391.985992 -0.000000
-15.516495 393.018982 2.621960
-12.449493 390.252991 -0.000000
-11.810501 391.130981 2.621960
-9.748505 387.552002 -0.000000
-8.869507 388.190002 2.621960
-8.014481 384.148987 -0.000000
-6.981491 384.484009 2.621960
-14.706497 395.513000 -3.708000
-10.269485 393.252014 -3.708000
-6.748505 389.730988 -3.708000
-4.488495 385.294983 -3.708000
-15.516495 393.018982 -2.621960
-11.810501 391.130981 -2.621960
-8.869507 388.190002 -2.621960
-6.981491 384.484009 -2.621960
-14.706497 395.513000 3.708000
-10.269485 393.252014 3.708000
-6.748505 389.730988 3.708000
-4.488495 385.294983 3.708000
-13.896484 398.006989 2.621960
-8.728485 395.373993 2.621960
-4.627502 391.273010 2.621960
-1.994492 386.104980 2.621960
-56.283733 380.375000 -0.000000
-57.369732 380.375000 -2.621960
-59.991741 380.375000 -3.708000
-62.613735 380.375000 -2.621960
-63.699734 380.375000 -0.000000
-62.613735 380.375000 2.621960
-59.991741 380.375000 3.708000
-57.369732 380.375000 2.621960
-50.139233 399.040009 -0.000000
-49.803249 398.006989 2.621960
-55.609234 396.251984 -0.000000
-54.971249 395.373993 2.621960
-59.951244 391.911011 -0.000000
-59.072231 391.273010 2.621960
-62.738232 386.440002 -0.000000
-61.705242 386.104980 2.621960
-47.847240 391.985992 -0.000000
-48.183239 393.018982 -2.621960
-51.250240 390.252991 -0.000000
-51.889233 391.130981 -2.621960
-53.951229 387.552002 -0.000000
-54.830227 388.190002 -2.621960
-55.685253 384.148987 -0.000000
-56.718243 384.484009 -2.621960
-48.993237 395.513000 3.708000
-53.430248 393.252014 3.708000
-56.951229 389.730988 3.708000
-59.211239 385.294983 3.708000
-48.183239 393.018982 2.621960
-51.889233 391.130981 2.621960
-54.830227 388.190002 2.621960
-56.718243 384.484009 2.621960
-48.993237 395.513000 -3.708000
-53.430248 393.252014 -3.708000
-56.951229 389.730988 -3.708000
-59.211239 385.294983 -3.708000
-49.803249 398.006989 -2.621960
-54.971249 395.373993 -2.621960
-59.072231 391.273010 -2.621960
-61.705242 386.104980 -2.621960
20.705582 139.351685 -3.708000
18.083578 139.351685 -2.621960
16.997574 139.351685 -0.000000
18.083578 139.351685 2.621960
20.705582 139.351685 3.708000
23.327576 139.351685 2.621960
24.413574 139.351685 -0.000000
23.327576 139.351685 -2.621960
18.083683 60.646790 -2.621960
20.705688 60.646790 -3.708000
23.327682 60.646790 -2.621960
24.413681 60.646790 -0.000000
23.327682 60.646790 2.621960
20.705688 60.646790 3.708000
18.083683 60.646790 2.621960
16.997681 60.646790 -0.000000
-13.138550 124.442566 -0.000000
-13.138550 125.528564 2.621960
-13.138550 128.150574 3.708000
-13.138550 130.772568 2.621960
-13.138550 131.858566 -0.000000
-13.138550 130.772568 -2.621960
-13.138550 128.150574 -3.708000
-13.138550 125.528564 -2.621960
-31.677551 87.783325 -2.621960
-32.763550 87.783325 -0.000000
-26.433533 87.783325 2.621960
-25.347534 87.783325 -0.000000
-29.055542 87.783325 -3.708000
-26.433533 87.783325 -2.621960
-29.055542 87.783325 3.708000
-31.677551 87.783325 2.621960
-31.677551 112.234070 -2.621960
-32.763550 112.234070 -0.000000
-26.433533 112.234070 2.621960
-25.347534 112.234070 -0.000000
-29.055542 112.234070 -3.708000
-26.433533 112.234070 -2.621960
-29.055542 112.234070 3.708000
-31.677551 112.234070 2.621960
-31.803558 118.298065 -0.000000
-30.770538 117.962082 -2.621960
-29.015533 123.768066 -0.000000
-28.137543 123.130081 -2.621960
-24.674561 128.110077 -0.000000
-24.036560 127.231064 -2.621960
-19.203552 130.897064 -0.000000
-18.868530 129.864075 -2.621960
-24.749542 116.006073 -0.000000
-25.782532 116.342072 2.621960
-23.016541 119.409073 -0.000000
-23.894531 120.048065 2.621960
-20.315552 122.110062 -0.000000
-20.953552 122.989059 2.621960
-16.912537 123.844086 -0.000000
-17.247559 124.877075 2.621960
-28.276550 117.152069 -3.708000
-26.015564 121.589081 -3.708000
-22.494537 125.110062 -3.708000
-18.058533 127.370071 -3.708000
-25.782532 116.342072 -2.621960
-23.894531 120.048065 -2.621960
-20.953552 122.989059 -2.621960
-17.247559 124.877075 -2.621960
-28.276550 117.152069 3.708000
-26.015564 121.589081 3.708000
-22.494537 125.110062 3.708000
-18.058533 127.370071 3.708000
-30.770538 117.962082 2.621960
-28.137543 123.130081 2.621960
-24.036560 127.231064 2.621960
-18.868530 129.864075 2.621960
-13.138550 75.574829 -0.000000
-13.138550 74.488831 -2.621960
-13.138550 71.866821 -3.708000
-13.138550 69.244827 -2.621960
-13.138550 68.158829 -0.000000
-13.138550 69.244827 2.621960
-13.138550 71.866821 3.708000
-13.138550 74.488831 2.621960
-31.803558 81.719330 -0.000000
-30.770538 82.055313 2.621960
-29.015533 76.249329 -0.000000
-28.137543 76.887314 2.621960
-24.674561 71.907318 -0.000000
-24.036560 72.786331 2.621960
-19.203552 69.120331 -0.000000
-18.868530 70.153320 2.621960
-24.749542 84.011322 -0.000000
-25.782532 83.675323 -2.621960
-23.016541 80.608322 -0.000000
-23.894531 79.969330 -2.621960
-20.315552 77.907333 -0.000000
-20.953552 77.028336 -2.621960
-16.912537 76.173309 -0.000000
-17.247559 75.140320 -2.621960
-28.276550 82.865326 3.708000
-26.015564 78.428314 3.708000
-22.494537 74.907333 3.708000
-18.058533 72.647324 3.708000
-25.782532 83.675323 2.621960
-23.894531 79.969330 2.621960
-20.953552 77.028336 2.621960
-17.247559 75.140320 2.621960
-28.276550 82.865326 -3.708000
-26.015564 78.428314 -3.708000
-22.494537 74.907333 -3.708000
-18.058533 72.647324 -3.708000
-30.770538 82.055313 -2.621960
-28.137543 76.887314 -2.621960
-24.036560 72.786331 -2.621960
-18.868530 70.153320 -2.621960
10.140956 71.852707 -3.708000
10.140956 74.474762 -2.621960
10.140957 75.560318 -0.000000
10.140956 74.474762 2.621960
10.140956 71.852707 3.708000
10.140955 69.231071 2.621960
10.140955 68.145195 -0.000000
10.140955 69.231071 -2.621960
10.140955 130.772797 -2.621960
10.140955 131.858673 -0.000000
10.140955 130.772797 2.621960
10.140956 128.151154 3.708000
10.140956 125.529099 2.621960
10.140957 124.443542 -0.000000
10.140956 125.529099 -2.621960
10.140956 128.151154 -3.708000
19.806673 64.991943 -3.708000
22.111706 66.062866 -2.621960
23.066523 66.506073 -0.000000
22.111706 66.062866 2.621960
19.806673 64.991943 3.708000
17.502567 63.920471 2.621960
16.547745 63.477295 -0.000000
17.502567 63.920471 -2.621960
17.429182 68.543213 -3.708000
19.061794 70.455109 -2.621960
19.738457 71.246613 -0.000000
19.061794 70.455109 2.621960
17.429182 68.543213 3.708000
15.796935 66.631378 2.621960
15.120281 65.839905 -0.000000
15.796935 66.631378 -2.621960
14.048491 70.968323 -3.708000
14.847873 73.420746 -2.621960
15.179551 74.436066 -0.000000
14.847873 73.420746 2.621960
14.048491 70.968323 3.708000
13.248726 68.516724 2.621960
12.917065 67.501251 -0.000000
13.248726 68.516724 -2.621960
19.806673 135.006531 3.708000
22.111706 133.935608 2.621960
23.066523 133.492401 -0.000000
22.111706 133.935608 -2.621960
19.806673 135.006531 -3.708000
17.502567 136.078003 -2.621960
16.547745 136.521179 -0.000000
17.502567 136.078003 2.621960
17.429182 131.455261 3.708000
19.061794 129.543365 2.621960
19.738457 128.751862 -0.000000
19.061794 129.543365 -2.621960
17.429182 131.455261 -3.708000
15.796935 133.367096 -2.621960
15.120281 134.158569 -0.000000
15.796935 133.367096 2.621960
14.048491 129.030151 3.708000
14.847873 126.577728 2.621960
15.179551 125.562408 -0.000000
14.847873 126.577728 -2.621960
14.048491 129.030151 -3.708000
13.248726 131.481750 -2.621960
12.917065 132.497223 -0.000000
13.248726 131.481750 2.621960
</float_array>
          <technique_common>
            <accessor source="#polySurface29-POSITION-array" count="456" stride="3">
              <param name="X" type="float"/>
              <param name="Y" type="float"/>
              <param name="Z" type="float"/>
            </accessor>
          </technique_common>
        </source>
        <source id="polySurface29-Normal0">
          <float_array id="polySurface29-Normal0-array" count="1368">
0.990602 0.000000 -0.136773
0.797176 0.000000 0.603747
0.136773 0.000000 0.990602
-0.701454 -0.111098 0.704003
-0.987689 -0.156433 -0.000000
-0.701454 -0.111098 -0.704003
0.000000 0.000000 -1.000000
0.603747 0.000000 -0.797176
0.000000 -0.797176 -0.603747
0.000000 -0.990602 0.136773
-0.000000 0.797176 0.603747
-0.000000 0.990602 -0.136773
0.000000 -0.136773 -0.990602
0.000000 0.603747 -0.797176
-0.000000 0.136773 0.990602
-0.000000 -0.603747 0.797176
0.000000 -0.603747 -0.797176
0.000000 -0.990602 -0.136773
-0.000000 0.603747 0.797176
0.156435 0.987688 0.000000
0.000000 0.000000 -1.000000
0.111098 0.701453 -0.704003
-0.000000 -0.136773 0.990602
-0.000000 -0.797176 0.603747
-0.309017 -0.951057 -0.000000
-0.218112 -0.671278 -0.708387
-0.587784 -0.809018 -0.000000
-0.414872 -0.571022 -0.708389
-0.794125 -0.604878 0.059054
-0.592514 -0.384459 -0.707897
-0.956132 -0.286922 -0.059055
-0.671278 -0.218111 -0.708388
0.309017 0.951056 0.000000
0.218112 0.671276 0.708389
0.587786 0.809017 0.000000
0.431134 0.609401 0.665397
0.809016 0.587786 0.000000
0.487421 0.354134 0.798129
0.966026 0.258445 0.000000
0.714582 0.265247 0.647314
0.000000 0.000001 -1.000000
0.059101 0.059101 -0.996501
-0.059101 -0.059101 -0.996501
0.000000 -0.000000 -1.000000
0.218112 0.671276 -0.708389
0.431134 0.609401 -0.665397
0.487421 0.354134 -0.798129
0.714582 0.265247 -0.647314
0.000000 0.000001 1.000000
0.059101 0.059101 0.996501
-0.059101 -0.059101 0.996501
0.000000 -0.000000 1.000000
-0.218112 -0.671278 0.708387
-0.414872 -0.571022 0.708389
-0.529477 -0.368473 0.764122
-0.714583 -0.265247 0.647314
0.990602 0.000000 0.136773
0.603747 0.000000 0.797176
0.136773 0.000000 -0.990602
0.797176 0.000000 -0.603747
-0.603747 -0.000000 -0.797176
-0.990602 -0.000000 -0.136773
-0.797176 -0.000000 0.603747
-0.136773 -0.000000 0.990602
-0.990602 0.000000 0.136773
-0.797176 0.000000 -0.603747
-0.136773 0.000000 -0.990602
0.701454 -0.111098 -0.704003
0.987689 -0.156433 0.000000
0.701454 -0.111098 0.704003
-0.000000 0.000000 1.000000
-0.603747 0.000000 0.797176
-0.000000 -0.603747 0.797176
-0.000000 -0.990602 0.136773
0.000000 0.603747 -0.797176
-0.156435 0.987688 -0.000000
-0.000000 0.000000 1.000000
-0.111098 0.701453 0.704003
0.000000 -0.136773 -0.990602
0.000000 -0.797176 -0.603747
0.309017 -0.951057 0.000000
0.218112 -0.671278 0.708387
0.587784 -0.809018 0.000000
0.414872 -0.571022 0.708389
0.794125 -0.604878 -0.059054
0.592514 -0.384459 0.707897
0.956132 -0.286922 0.059055
0.671278 -0.218111 0.708388
-0.309017 0.951056 -0.000000
-0.218112 0.671276 -0.708389
-0.587786 0.809017 -0.000000
-0.431134 0.609401 -0.665397
-0.809016 0.587786 -0.000000
-0.487421 0.354134 -0.798129
-0.966026 0.258445 -0.000000
-0.714582 0.265247 -0.647314
-0.000000 0.000001 1.000000
-0.059101 0.059101 0.996501
0.059101 -0.059101 0.996501
-0.000000 -0.000000 1.000000
-0.218112 0.671276 0.708389
-0.431134 0.609401 0.665397
-0.487421 0.354134 0.798129
-0.714582 0.265247 0.647314
-0.000000 0.000001 -1.000000
-0.059101 0.059101 -0.996501
0.059101 -0.059101 -0.996501
-0.000000 -0.000000 -1.000000
0.218112 -0.671278 -0.708387
0.414872 -0.571022 -0.708389
0.529477 -0.368473 -0.764122
0.714583 -0.265247 -0.647314
-0.990602 0.000000 -0.136773
-0.603747 0.000000 -0.797176
-0.136773 0.000000 0.990602
-0.797176 0.000000 0.603747
0.603747 -0.000000 0.797176
0.990602 -0.000000 0.136773
0.797176 -0.000000 -0.603747
0.136773 -0.000000 -0.990602
0.587784 0.809018 -0.000000
0.414872 0.571022 -0.708389
-0.587786 -0.809017 0.000000
-0.431134 -0.609401 0.665397
-0.059101 -0.059101 -0.996501
-0.431134 -0.609401 -0.665397
-0.059101 -0.059101 0.996501
0.414872 0.571022 0.708389
0.091461 0.040787 -0.994973
0.697663 0.303609 -0.648913
0.915662 0.401948 0.000001
0.697662 0.303608 0.648914
0.091460 0.040786 0.994973
-0.618379 -0.236452 0.749465
-0.938374 -0.345621 0.000001
-0.618380 -0.236453 -0.749464
0.070465 0.066454 -0.995298
0.542233 0.535308 -0.647633
0.707962 0.706250 0.000001
0.542233 0.535307 0.647634
0.070464 0.066454 0.995298
-0.490267 -0.453491 0.744301
-0.741555 -0.670892 0.000000
-0.490267 -0.453491 -0.744301
0.043474 0.084923 -0.995439
0.310268 0.689199 -0.654782
0.405434 0.914124 -0.000001
0.310268 0.689200 0.654781
0.043474 0.084922 0.995439
-0.275758 -0.600139 0.750860
-0.423196 -0.906038 -0.000000
-0.275758 -0.600138 -0.750861
0.990602 0.000000 -0.136773
0.797176 0.000000 0.603747
0.136773 0.000000 0.990602
-0.701454 -0.111098 0.704003
-0.987689 -0.156433 -0.000000
-0.701454 -0.111098 -0.704003
0.000000 0.000000 -1.000000
0.603747 0.000000 -0.797176
-0.091484 -0.040785 -0.994971
-0.697690 -0.303557 -0.648908
-0.915690 -0.401884 0.000000
-0.697690 -0.303557 0.648908
-0.091486 -0.040786 0.994971
0.618388 0.236364 0.749485
0.938426 0.345481 -0.000001
0.618387 0.236363 -0.749487
-0.078046 -0.088244 -0.993037
-0.507978 -0.575453 -0.640946
-0.659977 -0.751285 0.000000
-0.507979 -0.575453 0.640946
-0.078047 -0.088243 0.993037
0.441821 0.473311 0.762083
0.688398 0.725333 -0.000001
0.441821 0.473310 -0.762083
-0.027087 -0.076050 -0.996736
-0.186442 -0.725263 -0.662746
-0.248929 -0.968522 0.000000
-0.186442 -0.725263 0.662746
-0.027086 -0.076049 0.996736
0.126431 0.656381 0.743760
0.180614 0.983554 -0.000000
0.126431 0.656382 -0.743759
-0.990602 -0.000000 -0.136773
-0.797176 -0.000000 0.603747
-0.136773 -0.000000 0.990602
0.701454 0.111098 0.704003
0.987689 0.156433 -0.000000
0.701454 0.111098 -0.704003
-0.000000 -0.000000 -1.000000
-0.603747 -0.000000 -0.797176
-0.000000 0.797176 -0.603747
-0.000000 0.990602 0.136773
0.000000 -0.797176 0.603747
0.000000 -0.990602 -0.136773
-0.000000 0.136773 -0.990602
0.000000 -0.603747 -0.797176
0.000000 -0.136773 0.990602
-0.000000 0.603747 0.797176
-0.000000 0.603747 -0.797176
-0.000000 0.990602 -0.136773
0.000000 -0.603747 0.797176
-0.156435 -0.987688 0.000000
-0.000000 -0.000000 -1.000000
-0.111098 -0.701453 -0.704003
-0.000000 0.136773 0.990602
-0.000000 0.797176 0.603747
0.309017 0.951057 -0.000000
0.218112 0.671278 -0.708387
0.587784 0.809018 -0.000000
0.414872 0.571022 -0.708389
0.794125 0.604878 0.059054
0.592514 0.384459 -0.707897
0.956132 0.286922 -0.059055
0.671278 0.218111 -0.708388
-0.309017 -0.951056 0.000000
-0.218112 -0.671276 0.708389
-0.587786 -0.809017 0.000000
-0.431134 -0.609401 0.665397
-0.809016 -0.587786 0.000000
-0.487421 -0.354134 0.798129
-0.966026 -0.258445 0.000000
-0.714582 -0.265247 0.647314
-0.000000 -0.000001 -1.000000
-0.059101 -0.059101 -0.996501
0.059101 0.059101 -0.996501
-0.000000 0.000000 -1.000000
-0.218112 -0.671276 -0.708389
-0.431134 -0.609401 -0.665397
-0.487421 -0.354134 -0.798129
-0.714582 -0.265247 -0.647314
-0.000000 -0.000001 1.000000
-0.059101 -0.059101 0.996501
0.059101 0.059101 0.996501
-0.000000 0.000000 1.000000
0.218112 0.671278 0.708387
0.414872 0.571022 0.708389
0.529477 0.368473 0.764122
0.714583 0.265247 0.647314
0.990602 0.000000 0.136773
0.797176 0.000000 -0.603747
0.136773 0.000000 -0.990602
-0.701454 0.111098 -0.704003
-0.987689 0.156433 0.000000
-0.701454 0.111098 0.704003
0.000000 0.000000 1.000000
0.603747 0.000000 0.797176
-0.309017 0.951057 0.000000
-0.218112 0.671278 0.708387
-0.587784 0.809018 0.000000
-0.414872 0.571022 0.708389
-0.794125 0.604878 -0.059054
-0.592514 0.384459 0.707897
-0.956132 0.286922 0.059055
-0.671278 0.218111 0.708388
0.309017 -0.951056 -0.000000
0.218112 -0.671276 -0.708389
0.587786 -0.809017 -0.000000
0.431134 -0.609401 -0.665397
0.809016 -0.587786 -0.000000
0.487421 -0.354134 -0.798129
0.966026 -0.258445 -0.000000
0.714582 -0.265247 -0.647314
0.000000 -0.000001 1.000000
0.059101 -0.059101 0.996501
-0.059101 0.059101 0.996501
0.000000 0.000000 1.000000
0.218112 -0.671276 0.708389
0.431134 -0.609401 0.665397
0.487421 -0.354134 0.798129
0.714582 -0.265247 0.647314
0.000000 -0.000001 -1.000000
0.059101 -0.059101 -0.996501
-0.059101 0.059101 -0.996501
0.000000 0.000000 -1.000000
-0.218112 0.671278 -0.708387
-0.414872 0.571022 -0.708389
-0.529477 0.368473 -0.764122
-0.714583 0.265247 -0.647314
0.002575 -0.000649 -0.999996
-0.706171 0.002458 -0.708037
-0.999995 0.003170 0.000000
-0.706171 0.002458 0.708037
0.002575 -0.000649 0.999996
0.708700 -0.005071 0.705492
0.999975 -0.007086 0.000000
0.708700 -0.005071 -0.705492
-0.702935 -0.010868 -0.711171
0.011188 0.002822 -0.999933
0.713772 0.021735 -0.700041
0.999544 0.030208 -0.000000
0.713772 0.021735 0.700041
0.011188 0.002822 0.999933
-0.702935 -0.010868 0.711171
-0.999900 -0.014117 0.000000
0.000000 -0.990602 -0.136773
0.000000 -0.797176 0.603747
0.000000 -0.136773 0.990602
-0.111098 0.701454 0.704003
-0.156433 0.987689 -0.000000
-0.111098 0.701454 -0.704003
0.000000 -0.000000 -1.000000
0.000000 -0.603747 -0.797176
-0.797176 -0.000000 -0.603747
-0.990602 -0.000000 0.136773
0.797176 0.000000 0.603747
0.990602 0.000000 -0.136773
-0.136773 -0.000000 -0.990602
0.603747 0.000000 -0.797176
0.136773 0.000000 0.990602
-0.603747 -0.000000 0.797176
-0.603747 -0.000000 -0.797176
-0.990602 -0.000000 -0.136773
0.603747 0.000000 0.797176
0.987688 -0.156435 0.000000
0.000000 -0.000000 -1.000000
0.701453 -0.111098 -0.704003
-0.136773 -0.000000 0.990602
-0.797176 -0.000000 0.603747
-0.951057 0.309017 -0.000000
-0.671278 0.218112 -0.708387
-0.809018 0.587784 -0.000000
-0.571022 0.414872 -0.708389
-0.604878 0.794125 0.059054
-0.384459 0.592514 -0.707897
-0.286922 0.956132 -0.059055
-0.218111 0.671278 -0.708388
0.951056 -0.309017 0.000000
0.671276 -0.218112 0.708389
0.809017 -0.587786 0.000000
0.609401 -0.431134 0.665397
0.587786 -0.809016 0.000000
0.354134 -0.487421 0.798129
0.258445 -0.966026 0.000000
0.265247 -0.714582 0.647314
0.000001 -0.000000 -1.000000
0.059101 -0.059101 -0.996501
-0.059101 0.059101 -0.996501
-0.000000 -0.000000 -1.000000
0.671276 -0.218112 -0.708389
0.609401 -0.431134 -0.665397
0.354134 -0.487421 -0.798129
0.265247 -0.714582 -0.647314
0.000001 -0.000000 1.000000
0.059101 -0.059101 0.996501
-0.059101 0.059101 0.996501
-0.000000 -0.000000 1.000000
-0.671278 0.218112 0.708387
-0.571022 0.414872 0.708389
-0.368473 0.529477 0.764122
-0.265247 0.714583 0.647314
-0.000000 0.990602 0.136773
-0.000000 0.797176 -0.603747
-0.000000 0.136773 -0.990602
-0.111098 -0.701454 -0.704003
-0.156433 -0.987689 0.000000
-0.111098 -0.701454 0.704003
-0.000000 0.000000 1.000000
-0.000000 0.603747 0.797176
-0.951057 -0.309017 0.000000
-0.671278 -0.218112 0.708387
-0.809018 -0.587784 0.000000
-0.571022 -0.414872 0.708389
-0.604878 -0.794125 -0.059054
-0.384459 -0.592514 0.707897
-0.286922 -0.956132 0.059055
-0.218111 -0.671278 0.708388
0.951056 0.309017 -0.000000
0.671276 0.218112 -0.708389
0.809017 0.587786 -0.000000
0.609401 0.431134 -0.665397
0.587786 0.809016 -0.000000
0.354134 0.487421 -0.798129
0.258445 0.966026 -0.000000
0.265247 0.714582 -0.647314
0.000001 0.000000 1.000000
0.059101 0.059101 0.996501
-0.059101 -0.059101 0.996501
-0.000000 0.000000 1.000000
0.671276 0.218112 0.708389
0.609401 0.431134 0.665397
0.354134 0.487421 0.798129
0.265247 0.714582 0.647314
0.000001 0.000000 -1.000000
0.059101 0.059101 -0.996501
-0.059101 -0.059101 -0.996501
-0.000000 0.000000 -1.000000
-0.671278 -0.218112 -0.708387
-0.571022 -0.414872 -0.708389
-0.368473 -0.529477 -0.764122
-0.265247 -0.714583 -0.647314
0.003049 0.013717 -0.999901
0.027342 0.713967 -0.699646
0.037454 0.999298 -0.000000
0.027342 0.713967 0.699646
0.003049 0.013717 0.999901
-0.019437 -0.700368 0.713517
-0.027672 -0.999617 0.000000
-0.019437 -0.700368 -0.713517
-0.018934 0.700350 -0.713549
-0.026931 0.999637 0.000000
-0.018934 0.700350 0.713549
0.003029 -0.013793 0.999900
0.026861 -0.714024 0.699606
0.036800 -0.999323 0.000000
0.026861 -0.714024 -0.699606
0.003029 -0.013793 -0.999900
0.091451 0.040787 -0.994974
0.697653 0.303628 -0.648914
0.915652 0.401972 0.000000
0.697653 0.303628 0.648914
0.091451 0.040787 0.994974
-0.618376 -0.236485 0.749457
-0.938355 -0.345673 0.000000
-0.618376 -0.236485 -0.749457
0.070464 0.066454 -0.995298
0.542234 0.535308 -0.647633
0.707962 0.706250 -0.000000
0.542234 0.535308 0.647632
0.070464 0.066454 0.995298
-0.490267 -0.453490 0.744302
-0.741555 -0.670892 0.000000
-0.490267 -0.453491 -0.744301
0.043453 0.084746 -0.995455
0.310641 0.688995 -0.654819
0.405921 0.913908 -0.000000
0.310641 0.688996 0.654818
0.043453 0.084746 0.995455
-0.276320 -0.600077 0.750703
-0.423986 -0.905669 0.000000
-0.276320 -0.600077 -0.750703
0.091454 -0.040786 0.994974
0.697657 -0.303622 0.648914
0.915655 -0.401964 -0.000000
0.697657 -0.303622 -0.648914
0.091454 -0.040787 -0.994974
-0.618377 0.236474 -0.749460
-0.938361 0.345656 0.000000
-0.618377 0.236474 0.749460
0.070464 -0.066453 0.995298
0.542234 -0.535308 0.647632
0.707962 -0.706250 -0.000001
0.542233 -0.535308 -0.647633
0.070464 -0.066454 -0.995298
-0.490267 0.453491 -0.744301
-0.741555 0.670892 0.000000
-0.490267 0.453491 0.744302
0.043475 -0.084906 0.995440
0.310304 -0.689170 0.654794
0.405489 -0.914100 -0.000000
0.310304 -0.689170 -0.654795
0.043475 -0.084906 -0.995440
-0.275769 0.600125 -0.750867
-0.423209 0.906032 0.000000
-0.275769 0.600124 0.750868
</float_array>
          <technique_common>
            <accessor source="#polySurface29-Normal0-array" count="456" stride="3">
              <param name="X" type="float"/>
              <param name="Y" type="float"/>
              <param name="Z" type="float"/>
            </accessor>
          </technique_common>
        </source>
        <source id="polySurface29-UV0">
          <float_array id="polySurface29-UV0-array" count="1620">
0.562501 0.890198
0.437502 0.890198
0.562501 0.862750
0.437502 0.862750
0.512501 0.807853
0.487502 0.807853
0.512501 0.780405
0.487502 0.780405
0.437502 0.945094
0.462502 0.945094
0.437502 0.972542
0.462502 0.972542
0.512501 0.972542
0.537501 0.972542
0.512501 0.999990
0.537501 0.999990
0.462502 0.862750
0.462502 0.835302
0.487502 0.862750
0.487502 0.835302
0.537501 0.890198
0.537501 0.862750
0.999996 0.972542
0.000086 0.972542
0.999996 0.945094
0.000086 0.945094
0.562501 0.835302
0.437502 0.835302
0.462502 0.807853
0.462502 0.780405
0.537501 0.917646
0.562501 0.917646
0.537501 0.945094
0.562501 0.945094
0.487502 0.972542
0.487502 0.999990
0.512501 0.890198
0.512501 0.862750
0.999996 0.917646
0.000086 0.917646
0.562501 0.807853
0.437502 0.807853
0.437502 0.780405
0.512501 0.917646
0.512501 0.945094
0.462502 0.999990
0.537501 0.835302
0.537501 0.807853
0.487502 0.890198
0.999996 0.890198
0.000086 0.890198
0.562501 0.999990
0.437502 0.999990
0.562501 0.972542
0.487502 0.917646
0.487502 0.945094
0.512501 0.835302
0.462502 0.890198
0.999996 0.807853
0.000086 0.807853
0.999996 0.780405
0.000086 0.780405
0.462502 0.917646
0.999996 0.862750
0.000086 0.862750
0.437502 0.917646
0.999996 0.835302
0.000086 0.835302
0.562501 0.780405
0.537501 0.780405
0.999996 0.999990
0.000086 0.999990
0.562501 0.890198
0.562501 0.862750
0.437502 0.835302
0.437502 0.862750
0.437502 0.807853
0.562501 0.835302
0.562501 0.807853
0.437502 0.972542
0.562501 0.890198
0.437502 0.999990
0.562501 0.945094
0.437502 0.945094
0.437502 0.972542
0.562501 0.972542
0.437502 0.890198
0.437502 0.862750
0.562501 0.945094
0.562501 0.917646
0.437502 0.945094
0.437502 0.917646
0.562501 0.862750
0.562501 0.835302
0.437502 0.780405
0.562501 0.807853
0.562501 0.780405
0.437502 0.835302
0.437502 0.807853
0.562501 0.917646
0.437502 0.890198
0.437502 0.917646
0.562501 0.999990
0.562501 0.972542
0.562501 0.862750
0.562501 0.890198
0.437502 0.890198
0.437502 0.862750
0.512501 0.780405
0.512501 0.807853
0.487502 0.807853
0.487502 0.780405
0.437502 0.972542
0.437502 0.945094
0.462502 0.945094
0.462502 0.972542
0.512501 0.999990
0.512501 0.972542
0.537501 0.972542
0.537501 0.999990
0.487502 0.862750
0.462502 0.862750
0.462502 0.835302
0.487502 0.835302
0.562501 0.862750
0.562501 0.890198
0.537501 0.890198
0.537501 0.862750
0.999996 0.945094
0.999996 0.972542
0.000086 0.972542
0.000086 0.945094
0.562501 0.835302
0.437502 0.835302
0.462502 0.807853
0.462502 0.780405
0.537501 0.945094
0.537501 0.917646
0.562501 0.917646
0.562501 0.945094
0.487502 0.972542
0.487502 0.999990
0.437502 0.862750
0.437502 0.835302
0.512501 0.890198
0.512501 0.862750
0.999996 0.917646
0.000086 0.917646
0.562501 0.807853
0.437502 0.807853
0.437502 0.807853
0.437502 0.780405
0.512501 0.917646
0.512501 0.945094
0.462502 0.999990
0.562501 0.807853
0.562501 0.835302
0.537501 0.835302
0.537501 0.807853
0.487502 0.890198
0.999996 0.890198
0.000086 0.890198
0.562501 0.972542
0.562501 0.999990
0.437502 0.999990
0.437502 0.972542
0.562501 0.890198
0.487502 0.917646
0.487502 0.945094
0.437502 0.999990
0.512501 0.835302
0.462502 0.890198
0.999996 0.780405
0.999996 0.807853
0.000086 0.807853
0.000086 0.780405
0.562501 0.945094
0.437502 0.972542
0.437502 0.945094
0.462502 0.917646
0.562501 0.972542
0.437502 0.890198
0.437502 0.862750
0.999996 0.862750
0.000086 0.862750
0.562501 0.917646
0.562501 0.945094
0.437502 0.945094
0.437502 0.917646
0.437502 0.917646
0.562501 0.862750
0.562501 0.835302
0.999996 0.835302
0.000086 0.835302
0.562501 0.780405
0.437502 0.780405
0.562501 0.807853
0.537501 0.780405
0.562501 0.780405
0.437502 0.835302
0.437502 0.807853
0.562501 0.917646
0.437502 0.917646
0.437502 0.890198
0.562501 0.972542
0.562501 0.999990
0.999996 0.999990
0.000086 0.999990
0.543751 0.972542
0.543751 0.999990
0.525001 0.999990
0.525001 0.972542
0.562501 0.862750
0.562501 0.890198
0.543751 0.890198
0.543751 0.862750
0.562501 0.917646
0.562501 0.945094
0.543751 0.945094
0.543751 0.917646
0.562501 0.807853
0.562501 0.835302
0.543751 0.835302
0.543751 0.807853
0.562501 0.890198
0.543751 0.890198
0.562501 0.972542
0.543751 0.972542
0.562501 0.835302
0.562501 0.862750
0.543751 0.862750
0.543751 0.835302
0.562501 0.780405
0.562501 0.807853
0.543751 0.807853
0.543751 0.780405
0.562501 0.972542
0.562501 0.999990
0.525001 0.945094
0.525001 0.917646
0.525001 0.890198
0.525001 0.862750
0.525001 0.835302
0.525001 0.807853
0.525001 0.780405
0.506251 0.945094
0.506251 0.917646
0.506251 0.890198
0.506251 0.862750
0.506251 0.835302
0.506251 0.807853
0.506251 0.780405
0.506251 0.999990
0.506251 0.972542
0.487502 0.945094
0.487502 0.917646
0.487502 0.890198
0.487502 0.862750
0.487502 0.835302
0.487502 0.807853
0.487502 0.780405
0.487502 0.999990
0.487502 0.972542
0.543751 0.861852
0.543751 0.889299
0.525001 0.889300
0.525001 0.861852
0.562502 0.971644
0.562502 0.999092
0.543752 0.999093
0.543752 0.971644
0.562501 0.806956
0.562501 0.834404
0.543751 0.834404
0.543751 0.806956
0.562501 0.916747
0.562501 0.944196
0.543751 0.944197
0.543751 0.916748
0.562501 0.779508
0.543751 0.779508
0.562501 0.861852
0.543751 0.861852
0.562501 0.944196
0.562502 0.971644
0.543752 0.971644
0.543751 0.944197
0.562501 0.889299
0.562501 0.916747
0.543751 0.916748
0.562501 0.861852
0.525001 0.834404
0.525001 0.806956
0.525001 0.779508
0.525002 0.999093
0.525002 0.971645
0.525001 0.944197
0.525001 0.916748
0.506251 0.834404
0.506251 0.806956
0.506251 0.779508
0.506252 0.999093
0.506252 0.971645
0.506252 0.944197
0.506251 0.916748
0.506251 0.889300
0.506251 0.861852
0.474134 0.834404
0.474134 0.806956
0.474134 0.779508
0.474134 0.999093
0.474134 0.971645
0.474134 0.944197
0.474134 0.916748
0.474134 0.889300
0.474134 0.861852
0.562501 0.862750
0.562501 0.890198
0.437502 0.890198
0.437502 0.862750
0.512501 0.780405
0.512501 0.807853
0.487502 0.807853
0.487502 0.780405
0.437502 0.972542
0.437502 0.945094
0.462502 0.945094
0.462502 0.972542
0.512501 0.999990
0.512501 0.972542
0.537501 0.972542
0.537501 0.999990
0.487502 0.862750
0.462502 0.862750
0.462502 0.835302
0.487502 0.835302
0.562501 0.862750
0.562501 0.890198
0.537501 0.890198
0.537501 0.862750
0.562501 0.835302
0.437502 0.835302
0.462502 0.807853
0.462502 0.780405
0.537501 0.945094
0.537501 0.917646
0.562501 0.917646
0.562501 0.945094
0.487502 0.972542
0.487502 0.999990
0.437502 0.862750
0.437502 0.835302
0.512501 0.890198
0.512501 0.862750
0.562501 0.807853
0.437502 0.807853
0.437502 0.807853
0.437502 0.780405
0.512501 0.917646
0.512501 0.945094
0.462502 0.999990
0.562501 0.807853
0.562501 0.835302
0.537501 0.835302
0.537501 0.807853
0.487502 0.890198
0.562501 0.972542
0.562501 0.999990
0.437502 0.999990
0.437502 0.972542
0.562501 0.890198
0.487502 0.917646
0.487502 0.945094
0.437502 0.999990
0.512501 0.835302
0.462502 0.890198
0.562501 0.945094
0.437502 0.972542
0.437502 0.945094
0.462502 0.917646
0.562501 0.972542
0.437502 0.890198
0.437502 0.862750
0.562501 0.917646
0.562501 0.945094
0.437502 0.945094
0.437502 0.917646
0.437502 0.917646
0.562501 0.862750
0.562501 0.835302
0.562501 0.780405
0.437502 0.780405
0.562501 0.807853
0.537501 0.780405
0.562501 0.780405
0.437502 0.835302
0.437502 0.807853
0.562501 0.917646
0.437502 0.917646
0.437502 0.890198
0.562501 0.972542
0.562501 0.999990
0.512501 0.780405
0.512501 0.807853
0.487502 0.807853
0.487502 0.780405
0.437502 0.972542
0.437502 0.945094
0.462502 0.945094
0.462502 0.972542
0.512501 0.999990
0.512501 0.972542
0.537501 0.972542
0.537501 0.999990
0.487502 0.862750
0.462502 0.862750
0.462502 0.835302
0.487502 0.835302
0.562501 0.862750
0.562501 0.890198
0.537501 0.890198
0.537501 0.862750
0.462502 0.807853
0.462502 0.780405
0.537501 0.945094
0.537501 0.917646
0.562501 0.917646
0.562501 0.945094
0.487502 0.972542
0.487502 0.999990
0.437502 0.862750
0.437502 0.835302
0.512501 0.890198
0.512501 0.862750
0.437502 0.807853
0.437502 0.780405
0.512501 0.917646
0.512501 0.945094
0.462502 0.999990
0.562501 0.807853
0.562501 0.835302
0.537501 0.835302
0.537501 0.807853
0.487502 0.890198
0.562501 0.890198
0.487502 0.917646
0.487502 0.945094
0.437502 0.999990
0.512501 0.835302
0.462502 0.890198
0.462502 0.917646
0.562501 0.972542
0.437502 0.890198
0.437502 0.862750
0.437502 0.917646
0.562501 0.862750
0.562501 0.835302
0.562501 0.807853
0.537501 0.780405
0.562501 0.780405
0.437502 0.835302
0.437502 0.807853
0.437502 0.917646
0.437502 0.890198
0.562501 0.972542
0.562501 0.999990
0.999996 0.945094
0.999996 0.972542
0.729948 0.972542
0.729948 0.945094
0.999996 0.999990
0.729948 0.999990
0.999996 0.780405
0.999996 0.807853
0.729948 0.807853
0.729948 0.780405
0.999996 0.835302
0.729948 0.835302
0.999996 0.862750
0.729948 0.862750
0.999996 0.890198
0.729948 0.890198
0.999996 0.917646
0.729948 0.917646
0.999996 0.835302
0.999996 0.862750
0.806632 0.862750
0.806632 0.835302
0.999996 0.890198
0.806632 0.890198
0.999996 0.917646
0.806632 0.917646
0.999996 0.945094
0.806632 0.945094
0.999996 0.972542
0.806632 0.972542
0.999996 0.999990
0.806632 0.999990
0.999996 0.780405
0.999996 0.807853
0.806632 0.807853
0.806632 0.780405
0.593164 0.945094
0.593164 0.972542
0.593164 0.780405
0.593164 0.999990
0.593164 0.807853
0.593164 0.835302
0.593164 0.862750
0.593164 0.890198
0.593164 0.917646
0.875864 0.972542
0.875864 0.945094
0.875864 0.917646
0.875864 0.890198
0.875864 0.862750
0.875864 0.835302
0.875864 0.807853
0.875864 0.780405
0.875864 0.999990
0.562501 0.971359
0.562501 0.998807
0.437502 0.998807
0.437502 0.971359
0.512501 0.889125
0.512501 0.916573
0.487502 0.916573
0.487502 0.889125
0.437502 0.861677
0.437502 0.834229
0.462502 0.834229
0.462502 0.861677
0.512501 0.861677
0.537501 0.861677
0.537501 0.889125
0.487502 0.971470
0.462502 0.971470
0.462502 0.944022
0.487502 0.944022
0.562501 0.971470
0.562501 0.998918
0.537501 0.998918
0.537501 0.971470
0.562501 0.943911
0.437502 0.943911
0.462502 0.916573
0.462502 0.889125
0.537501 0.834229
0.537501 0.806781
0.562501 0.806781
0.562501 0.834229
0.487502 0.861677
0.437502 0.971470
0.437502 0.944022
0.512501 0.998918
0.512501 0.971470
0.562501 0.916462
0.437502 0.916462
0.437502 0.916573
0.437502 0.889125
0.512501 0.806781
0.512501 0.834229
0.562501 0.916573
0.562501 0.944022
0.537501 0.944022
0.537501 0.916573
0.487502 0.998918
0.562501 0.861566
0.562501 0.889014
0.437502 0.889014
0.437502 0.861566
0.537501 0.779333
0.562501 0.779333
0.487502 0.806781
0.487502 0.834229
0.512501 0.944022
0.462502 0.998918
0.562501 0.834118
0.437502 0.861566
0.437502 0.834118
0.512501 0.779333
0.462502 0.806781
0.562501 0.861677
0.437502 0.998918
0.437502 0.971470
0.562501 0.806670
0.437502 0.806670
0.487502 0.779333
0.437502 0.806781
0.562501 0.971470
0.562501 0.944022
0.462502 0.779333
0.562501 0.916573
0.562501 0.889125
0.437502 0.944022
0.437502 0.916573
0.562501 0.779222
0.562501 0.806670
0.437502 0.779222
0.437502 0.806781
0.437502 0.779333
0.562501 0.861677
0.512501 0.889125
0.512501 0.916573
0.487502 0.916573
0.487502 0.889125
0.437502 0.861677
0.437502 0.834229
0.462502 0.834229
0.462502 0.861677
0.512501 0.861677
0.537501 0.861677
0.537501 0.889125
0.487502 0.971470
0.462502 0.971470
0.462502 0.944022
0.487502 0.944022
0.562501 0.971470
0.562501 0.998918
0.537501 0.998918
0.537501 0.971470
0.462502 0.916573
0.462502 0.889125
0.537501 0.834229
0.537501 0.806781
0.562501 0.806781
0.562501 0.834229
0.487502 0.861677
0.437502 0.971470
0.437502 0.944022
0.512501 0.998918
0.512501 0.971470
0.437502 0.916573
0.437502 0.889125
0.512501 0.806781
0.512501 0.834229
0.562501 0.916573
0.562501 0.944022
0.537501 0.944022
0.537501 0.916573
0.487502 0.998918
0.537501 0.779333
0.562501 0.779333
0.487502 0.806781
0.487502 0.834229
0.512501 0.944022
0.462502 0.998918
0.512501 0.779333
0.462502 0.806781
0.562501 0.861677
0.437502 0.998918
0.437502 0.971470
0.487502 0.779333
0.437502 0.806781
0.562501 0.971470
0.562501 0.944022
0.462502 0.779333
0.562501 0.916573
0.562501 0.889125
0.437502 0.944022
0.437502 0.916573
0.437502 0.806781
0.437502 0.779333
0.562501 0.861677
0.999996 0.832081
0.999996 0.859529
0.883628 0.859529
0.883628 0.832081
0.999996 0.886977
0.883628 0.886977
0.999996 0.914425
0.883628 0.914425
0.999996 0.941874
0.883628 0.941874
0.999996 0.969322
0.883628 0.969322
0.999996 0.996770
0.883628 0.996770
0.999996 0.777185
0.999996 0.804633
0.883628 0.804633
0.883628 0.777185
0.999995 0.969323
0.999995 0.996771
0.916528 0.996770
0.916529 0.969322
0.999996 0.777185
0.999996 0.804633
0.916530 0.804633
0.916530 0.777185
0.999996 0.832081
0.916530 0.832081
0.999996 0.859529
0.916530 0.859529
0.999996 0.886978
0.916530 0.886977
0.999996 0.914426
0.916529 0.914425
0.999995 0.941875
0.916529 0.941874
0.543751 0.972542
0.543751 0.999990
0.525001 0.999990
0.525001 0.972542
0.562501 0.862750
0.562501 0.890198
0.543751 0.890198
0.543751 0.862750
0.562501 0.917646
0.562501 0.945094
0.543751 0.945094
0.543751 0.917646
0.562501 0.807853
0.562501 0.835302
0.543751 0.835302
0.543751 0.807853
0.562501 0.890198
0.543751 0.890198
0.562501 0.972542
0.543751 0.972542
0.562501 0.835302
0.562501 0.862750
0.543751 0.862750
0.543751 0.835302
0.562501 0.780405
0.562501 0.807853
0.543751 0.807853
0.543751 0.780405
0.562501 0.972542
0.562501 0.999990
0.525001 0.945094
0.525001 0.917646
0.525001 0.890198
0.525001 0.862750
0.525001 0.835302
0.525001 0.807853
0.525001 0.780405
0.506251 0.945094
0.506251 0.917646
0.506251 0.890198
0.506251 0.862750
0.506251 0.835302
0.506251 0.807853
0.506251 0.780405
0.506251 0.999990
0.506251 0.972542
0.487502 0.945094
0.487502 0.917646
0.487502 0.890198
0.487502 0.862750
0.487502 0.835302
0.487502 0.807853
0.487502 0.780405
0.487502 0.999990
0.487502 0.972542
0.543751 0.972542
0.543751 0.999990
0.525001 0.999990
0.525001 0.972542
0.562501 0.862750
0.562501 0.890198
0.543751 0.890198
0.543751 0.862750
0.562501 0.917646
0.562501 0.945094
0.543751 0.945094
0.543751 0.917646
0.562501 0.807853
0.562501 0.835302
0.543751 0.835302
0.543751 0.807853
0.562501 0.890198
0.543751 0.890198
0.562501 0.972542
0.543751 0.972542
0.562501 0.835302
0.562501 0.862750
0.543751 0.862750
0.543751 0.835302
0.562501 0.780405
0.562501 0.807853
0.543751 0.807853
0.543751 0.780405
0.562501 0.972542
0.562501 0.999990
0.525001 0.945094
0.525001 0.917646
0.525001 0.890198
0.525001 0.862750
0.525001 0.835302
0.525001 0.807853
0.525001 0.780405
0.506251 0.945094
0.506251 0.917646
0.506251 0.890198
0.506251 0.862750
0.506251 0.835302
0.506251 0.807853
0.506251 0.780405
0.506251 0.999990
0.506251 0.972542
0.487502 0.945094
0.487502 0.917646
0.487502 0.890198
0.487502 0.862750
0.487502 0.835302
0.487502 0.807853
0.487502 0.780405
0.487502 0.999990
0.487502 0.972542
</float_array>
          <technique_common>
            <accessor source="#polySurface29-UV0-array" count="810" stride="2">
              <param name="S" type="float"/>
              <param name="T" type="float"/>
            </accessor>
          </technique_common>
        </source>
        <vertices id="polySurface29-VERTEX">
          <input semantic="POSITION" source="#polySurface29-POSITION"/>
          <input semantic="NORMAL" source="#polySurface29-Normal0"/>
        </vertices>
        <triangles count="912" material="railing_pplant"><input semantic="VERTEX" offset="0" source="#polySurface29-VERTEX"/><input semantic="TEXCOORD" offset="1" set="0" source="#polySurface29-UV0"/><p> 17 0 15 3 23 2 15 3 17 0 9 1 34 7 37 4 35 5 37 4 34 7 36 6 40 9 21 10 20 8 21 10 40 9 44 11 38 15 36 14 47 13 36 14 46 12 47 13 48 17 53 18 52 16 53 18 48 17 49 19 4 72 55 21 3 73 55 21 4 72 30 20 63 25 1 22 57 23 1 22 63 25 2 24 23 2 15 3 22 26 14 27 22 26 15 3 33 28 34 7 35 5 34 7 33 28 32 29 31 30 6 33 43 32 6 33 31 30 5 31 34 35 46 12 36 14 46 12 34 35 45 34 22 74 52 16 23 75 52 16 22 74 48 17 30 20 54 37 55 21 54 37 30 20 28 36 62 39 2 24 63 25 2 24 62 39 3 38 22 26 10 41 18 40 10 41 22 26 14 27 18 76 32 29 33 28 32 29 18 76 19 42 42 44 31 30 43 32 31 30 42 44 29 43 44 11 34 35 32 45 34 35 44 11 45 34 2 77 51 46 1 78 1 78 51 46 39 47 54 37 26 48 53 18 26 48 54 37 28 36 3 38 61 50 4 49 61 50 3 38 62 39 11 52 21 53 19 51 21 53 11 52 13 79 4 80 31 30 30 20 31 30 4 80 5 31 41 55 29 43 42 44 29 43 41 55 27 54 32 45 19 81 21 10 32 45 21 10 44 11 51 46 50 56 37 4 51 46 37 4 39 47 26 48 24 57 53 18 52 16 53 18 24 57 7 58 59 59 0 60 56 61 0 60 59 59 21 53 13 84 20 82 12 83 20 82 13 84 30 20 29 43 28 36 29 43 30 20 31 30 41 55 40 9 27 54 27 54 40 9 25 62 7 85 47 13 43 32 43 32 6 33 7 85 49 19 37 4 50 56 37 4 49 19 35 5 52 16 17 86 23 87 17 86 52 16 24 57 4 49 60 64 5 63 60 64 4 49 61 50 20 88 12 90 16 89 8 65 16 89 12 90 29 43 26 48 28 36 26 48 29 43 27 54 25 62 20 8 16 91 20 8 25 62 40 9 42 44 43 32 46 12 46 12 43 32 47 13 33 28 49 19 48 17 49 19 33 28 35 5 55 21 2 93 3 92 2 93 55 21 51 46 5 63 60 64 6 66 6 66 60 64 58 67 10 41 19 68 18 40 19 68 10 41 11 94 24 57 26 48 27 54 24 57 27 54 25 62 39 47 38 69 1 95 1 95 38 69 0 96 41 55 46 12 45 34 46 12 41 55 42 44 48 17 18 98 33 28 18 98 48 17 22 97 55 21 50 56 51 46 50 56 55 21 54 37 6 66 58 67 7 58 7 58 58 67 59 59 16 99 9 1 17 0 9 1 16 99 8 65 17 100 25 62 16 101 25 62 17 100 24 57 37 4 36 6 39 47 39 47 36 6 38 69 41 55 44 11 40 9 44 11 41 55 45 34 0 102 38 15 7 103 38 15 47 13 7 103 54 37 49 19 50 56 49 19 54 37 53 18 0 70 56 71 1 22 57 23 1 22 56 71 9 106 79 104 73 105 79 104 9 106 8 107 93 109 90 111 92 108 90 111 93 109 91 110 76 113 96 114 77 112 77 112 96 114 100 115 103 118 92 116 102 117 92 116 103 118 94 119 104 122 105 123 109 120 109 120 108 121 104 122 68 125 111 127 67 124 111 127 68 125 86 126 281 503 119 131 280 502 119 131 281 503 113 130 8 107 78 132 79 104 78 132 8 107 12 133 90 111 89 134 88 135 89 134 90 111 91 110 70 139 87 137 69 138 87 137 70 139 99 136 102 117 90 141 101 140 90 141 102 117 92 116 108 121 78 143 104 122 78 143 108 121 79 142 86 126 110 145 111 127 110 145 86 126 84 144 280 502 118 147 287 510 118 147 280 502 119 131 78 132 13 149 74 148 13 149 78 132 12 133 75 151 88 135 74 150 88 135 89 134 74 150 87 137 98 153 85 152 98 153 87 137 99 136 100 115 90 141 88 154 90 141 100 115 101 140 95 158 65 155 107 157 65 155 66 156 107 157 82 159 110 145 84 144 110 145 82 159 109 120 287 510 118 147 286 509 117 161 286 509 118 147 75 163 10 165 77 162 10 165 75 163 11 164 87 137 68 166 69 138 68 166 87 137 86 126 85 152 97 168 83 167 97 168 85 152 98 153 100 115 88 154 77 112 77 112 88 154 75 169 107 157 93 109 95 158 93 109 107 157 106 170 80 171 109 120 82 159 109 120 80 171 108 121 283 506 112 175 282 504 112 175 283 506 115 174 10 177 76 176 77 162 76 176 10 177 14 178 84 144 86 126 85 152 87 137 85 152 86 126 81 179 83 167 96 114 96 114 83 167 97 168 71 180 99 136 70 139 99 136 71 180 103 118 106 170 105 123 93 109 93 109 105 123 91 110 73 181 108 121 80 171 108 121 73 181 79 182 286 509 117 161 285 508 116 184 285 508 117 161 14 187 72 185 76 186 72 185 14 187 15 188 82 159 85 152 83 167 85 152 82 159 84 144 76 113 81 179 96 114 81 179 76 113 72 189 99 136 102 117 98 153 102 117 99 136 103 118 105 123 89 134 91 110 89 134 105 123 104 122 66 191 111 127 107 157 111 127 66 191 67 190 114 193 284 507 116 184 116 184 284 507 285 508 74 148 11 195 75 194 11 195 74 148 13 149 83 167 81 179 80 171 80 171 82 159 83 167 94 197 64 198 65 196 94 197 65 196 95 158 97 168 98 153 102 117 97 168 102 117 101 140 104 122 78 199 74 200 104 122 74 200 89 134 111 127 106 170 107 157 106 170 111 127 110 145 115 174 283 506 114 193 114 193 283 506 284 507 15 188 73 105 72 201 73 105 15 188 9 106 73 203 81 179 72 202 81 179 73 203 80 171 92 108 94 197 95 158 95 158 93 109 92 108 100 115 97 168 101 140 97 168 100 115 96 114 71 204 94 119 103 118 94 119 71 204 64 205 110 145 105 123 106 170 105 123 110 145 109 120 282 505 113 130 281 503 113 130 282 505 112 207 142 210 135 208 134 209 135 208 142 210 143 211 117 213 131 215 116 212 131 215 117 213 130 214 128 218 118 216 119 217 129 219 118 216 128 218 133 223 114 221 132 222 114 221 133 223 115 220 118 216 129 219 117 224 130 225 117 224 129 219 119 217 135 227 128 218 135 227 119 217 113 226 132 231 116 229 131 230 116 229 132 231 114 228 115 233 134 235 112 232 134 235 115 233 133 234 134 209 113 236 112 237 113 236 134 209 135 208 137 239 129 219 136 238 129 219 128 218 136 238 138 240 130 225 137 239 130 225 129 219 137 239 130 214 139 241 131 215 139 241 130 214 138 240 131 230 140 242 132 231 140 242 131 230 139 241 132 222 141 243 133 223 141 243 132 222 140 242 142 244 133 234 141 243 133 234 142 244 134 235 128 218 143 211 136 238 143 211 128 218 135 227 145 246 137 239 144 245 144 245 137 239 136 238 138 240 137 239 146 247 146 247 137 239 145 246 147 248 139 241 146 247 139 241 138 240 146 247 139 241 148 249 140 242 148 249 139 241 147 248 140 242 149 250 141 243 149 250 140 242 148 249 149 250 142 244 141 243 142 244 149 250 150 251 151 253 142 210 150 252 142 210 151 253 143 211 151 253 136 238 143 211 136 238 151 253 144 245 145 246 124 254 121 255 124 254 145 246 144 245 120 256 146 247 145 246 120 256 145 246 121 255 146 247 120 256 147 248 127 257 147 248 120 256 147 248 127 257 126 258 147 248 126 258 148 249 148 249 126 258 123 259 148 249 123 259 149 250 123 259 150 251 149 250 150 251 123 259 122 260 150 252 125 262 151 253 125 262 150 252 122 261 125 262 144 245 151 253 144 245 125 262 124 254 174 265 167 263 166 264 167 263 174 265 175 266 156 268 163 270 155 267 163 270 156 268 162 269 157 271 160 273 161 274 160 273 157 271 158 272 154 276 165 278 153 275 165 278 154 276 164 277 157 271 161 274 156 279 162 280 156 279 161 274 167 282 158 272 159 281 158 272 167 282 160 273 155 284 164 286 154 283 164 286 155 284 163 285 153 288 166 264 152 287 166 264 153 288 165 289 166 264 159 290 152 287 159 290 166 264 167 263 168 291 161 274 160 273 161 274 168 291 169 292 170 293 162 280 169 292 162 280 161 274 169 292 162 269 171 295 163 270 171 295 162 269 170 294 163 285 172 296 164 286 172 296 163 285 171 295 164 277 173 297 165 278 173 297 164 277 172 296 174 265 165 289 173 297 165 289 174 265 166 264 175 266 160 273 167 282 160 273 175 266 168 291 176 298 169 292 168 291 169 292 176 298 177 299 170 293 169 292 178 300 178 300 169 292 177 299 170 294 178 301 171 295 179 302 171 295 178 301 171 295 179 302 180 303 180 303 172 296 171 295 181 304 172 296 180 303 172 296 181 304 173 297 181 304 174 265 173 297 174 265 181 304 182 305 183 306 174 265 182 305 174 265 183 306 175 266 168 291 183 306 176 298 183 306 168 291 175 266 176 298 125 308 177 299 125 308 176 298 124 307 122 309 178 300 177 299 122 309 177 299 125 308 178 301 122 310 179 302 123 311 179 302 122 310 180 303 123 311 126 312 123 311 180 303 179 302 181 304 126 312 127 313 126 312 181 304 180 303 127 313 182 305 181 304 182 305 127 313 120 314 182 305 121 315 183 306 121 315 182 305 120 314 183 306 124 307 176 298 124 307 183 306 121 315 201 317 193 318 207 316 199 319 207 316 193 318 219 322 220 320 221 321 220 320 219 322 218 323 204 325 224 326 205 324 205 324 224 326 228 327 222 331 220 328 231 330 220 328 230 329 231 330 232 334 233 335 237 332 237 332 236 333 232 334 188 337 239 339 187 336 239 339 188 337 214 338 199 319 206 340 207 316 206 340 199 319 198 341 217 342 218 323 219 322 218 323 217 342 216 343 190 347 215 345 189 346 215 345 190 347 227 344 220 328 218 349 229 348 229 348 230 329 220 328 236 333 206 351 232 334 206 351 236 333 207 350 214 338 238 353 239 339 238 353 214 338 212 352 198 341 202 354 206 340 202 354 198 341 194 355 202 356 216 343 217 342 216 343 202 356 203 357 215 345 226 359 213 358 226 359 215 345 227 344 228 327 218 349 216 360 218 349 228 327 229 348 223 364 185 361 235 363 185 361 186 362 235 363 238 353 210 365 237 332 210 365 238 353 212 352 203 367 197 369 205 366 197 369 203 367 195 368 188 370 215 345 214 338 215 345 188 370 189 346 213 358 225 372 211 371 225 372 213 358 226 359 216 360 203 373 205 324 216 360 205 324 228 327 235 363 221 321 223 364 221 321 235 363 234 374 210 365 208 375 237 332 236 333 237 332 208 375 197 377 204 376 205 366 204 376 197 377 196 378 214 338 213 358 212 352 213 358 214 338 215 345 209 379 211 371 224 326 224 326 211 371 225 372 191 380 227 344 190 347 227 344 191 380 231 330 234 374 219 322 221 321 219 322 234 374 233 335 236 333 201 381 207 382 201 381 236 333 208 375 196 385 200 383 204 384 200 383 196 385 192 386 213 358 210 365 212 352 210 365 213 358 211 371 204 325 209 379 224 326 209 379 204 325 200 387 227 344 230 329 226 359 230 329 227 344 231 330 233 335 217 342 219 322 217 342 233 335 232 334 186 389 239 339 235 363 239 339 186 389 187 388 202 354 195 391 203 390 195 391 202 354 194 355 208 375 210 365 211 371 208 375 211 371 209 379 223 364 222 393 185 392 185 392 222 393 184 394 226 359 229 348 225 372 229 348 226 359 230 329 232 334 206 395 202 396 232 334 202 396 217 342 239 339 234 374 235 363 234 374 239 339 238 353 200 397 192 386 201 317 193 318 201 317 192 386 201 399 209 379 200 398 209 379 201 399 208 375 221 321 220 320 223 364 223 364 220 320 222 393 228 327 225 372 229 348 225 372 228 327 224 326 184 401 222 331 191 400 222 331 231 330 191 400 238 353 233 335 234 374 233 335 238 353 237 332 258 405 260 402 259 404 260 402 261 403 259 404 264 408 194 406 198 407 194 406 264 408 268 409 271 412 260 410 270 411 260 410 271 412 262 413 272 416 277 414 276 415 277 414 272 416 273 417 244 419 279 421 243 418 279 421 244 419 254 420 258 405 257 422 256 423 257 422 258 405 259 404 255 425 246 427 267 424 246 427 255 425 245 426 270 411 260 410 269 428 269 428 260 410 258 429 196 431 276 415 192 430 276 415 196 431 272 416 254 420 278 433 279 421 278 433 254 420 252 432 195 435 256 423 197 434 256 423 257 422 197 434 266 437 255 425 267 424 255 425 266 437 253 436 268 409 258 429 256 438 258 429 268 409 269 428 242 440 275 441 241 439 241 439 275 441 263 442 250 443 278 433 252 432 278 433 250 443 277 414 255 425 244 444 245 426 244 444 255 425 254 420 265 446 253 436 266 437 253 436 265 446 251 445 268 409 256 438 194 406 194 406 256 438 195 447 275 441 274 448 261 403 275 441 261 403 263 442 248 449 277 414 250 443 277 414 248 449 276 415 252 432 254 420 253 436 255 425 253 436 254 420 265 446 264 408 251 445 251 445 264 408 249 450 247 451 271 412 267 424 267 424 246 427 247 451 274 448 259 404 261 403 259 404 274 448 273 417 193 452 276 415 248 449 276 415 193 452 192 453 250 443 253 436 251 445 253 436 250 443 252 432 249 450 198 407 199 454 198 407 249 450 264 408 266 437 267 424 270 411 270 411 267 424 271 412 257 422 273 417 272 416 273 417 257 422 259 404 279 421 242 456 243 455 242 456 279 421 275 441 251 445 249 450 248 449 248 449 250 443 251 445 262 458 240 459 241 457 262 458 241 457 263 442 269 428 266 437 270 411 266 437 269 428 265 446 272 416 197 461 257 422 197 461 272 416 196 460 279 421 274 448 275 441 274 448 279 421 278 433 193 463 249 450 199 462 249 450 193 463 248 449 260 402 262 458 263 442 263 442 261 403 260 402 265 446 268 409 264 408 268 409 265 446 269 428 247 464 262 413 271 412 262 413 247 464 240 465 278 433 273 417 274 448 273 417 278 433 277 414 58 469 242 466 59 468 59 468 242 466 241 467 56 471 241 467 240 470 241 467 56 471 59 468 57 474 240 472 247 473 240 472 57 474 56 475 246 476 57 474 247 473 57 474 246 476 63 477 245 478 63 477 246 476 63 477 245 478 62 479 244 480 62 479 245 478 62 479 244 480 61 481 243 482 61 481 244 480 61 481 243 482 60 483 60 483 243 482 58 469 58 469 243 482 242 466 158 487 189 485 159 486 189 485 158 487 190 484 188 488 159 486 189 485 159 486 188 488 152 489 187 490 152 489 188 488 152 489 187 490 153 491 186 492 154 493 187 490 187 490 154 493 153 491 185 494 155 495 186 492 186 492 155 495 154 493 184 496 155 495 185 494 155 495 184 496 156 497 191 499 156 501 184 498 156 501 191 499 157 500 157 500 190 484 158 487 190 484 157 500 191 499 65 129 289 512 66 128 289 512 65 129 288 511 295 519 65 129 64 206 65 129 295 519 288 511 294 517 64 172 71 173 64 172 294 517 295 518 294 517 71 173 293 516 293 516 71 173 70 192 293 516 70 192 292 515 292 515 70 192 69 183 68 160 292 515 69 183 292 515 68 160 291 514 67 146 291 514 68 160 291 514 67 146 290 513 66 128 290 513 67 146 290 513 66 128 289 512 313 521 305 522 319 520 311 523 319 520 305 522 331 526 332 524 333 525 332 524 331 526 330 527 316 529 336 530 317 528 317 528 336 530 340 531 334 534 332 524 343 533 332 524 342 532 343 533 344 537 345 538 349 535 349 535 348 536 344 537 300 540 351 542 299 539 351 542 300 540 326 541 319 520 311 523 318 543 318 543 311 523 310 544 329 545 330 527 331 526 330 527 329 545 328 546 302 550 327 548 301 549 327 548 302 550 339 547 332 524 330 527 341 551 341 551 342 532 332 524 348 536 318 553 344 537 318 553 348 536 319 552 326 541 350 555 351 542 350 555 326 541 324 554 318 543 310 544 314 556 314 556 310 544 306 557 314 558 328 546 329 545 328 546 314 558 315 559 327 548 338 561 325 560 338 561 327 548 339 547 340 531 330 527 328 546 330 527 340 531 341 551 347 564 297 562 298 563 297 562 347 564 335 565 350 555 322 566 349 535 322 566 350 555 324 554 315 568 309 570 317 567 309 570 315 568 307 569 300 572 327 548 326 571 327 548 300 572 301 549 325 560 337 574 323 573 337 574 325 560 338 561 328 546 315 559 317 528 328 546 317 528 340 531 333 525 347 564 346 575 347 564 333 525 335 565 322 566 320 576 349 535 348 536 349 535 320 576 308 579 316 577 309 578 309 578 316 577 317 567 326 571 325 560 324 580 325 560 326 571 327 548 323 573 336 530 321 581 336 530 323 573 337 574 339 547 303 582 343 533 303 582 339 547 302 550 331 526 346 575 345 538 346 575 331 526 333 525 348 536 313 583 319 584 313 583 348 536 320 576 304 586 312 585 308 579 308 579 312 585 316 577 325 560 322 587 324 580 322 587 325 560 323 573 321 581 316 529 312 588 316 529 321 581 336 530 343 533 342 532 339 547 339 547 342 532 338 561 345 538 329 545 331 526 329 545 345 538 344 537 351 542 298 590 299 589 298 590 351 542 347 564 314 556 307 569 315 568 307 569 314 556 306 557 320 591 322 587 323 573 320 591 323 573 321 581 335 565 334 534 297 592 297 592 334 534 296 593 338 561 341 551 337 574 341 551 338 561 342 532 314 595 329 545 344 537 344 537 318 594 314 595 346 575 351 542 350 555 351 542 346 575 347 564 312 597 304 586 313 596 305 598 313 596 304 586 313 600 321 581 312 599 321 581 313 600 320 591 333 525 332 524 335 565 335 565 332 524 334 534 337 574 340 531 336 530 340 531 337 574 341 551 296 593 334 534 303 601 334 534 343 533 303 601 345 538 350 555 349 535 350 555 345 538 346 575 370 605 372 602 371 604 372 602 373 603 371 604 310 607 376 608 306 606 306 606 376 608 380 609 383 611 372 602 382 610 372 602 383 611 374 612 384 615 385 616 389 613 389 613 388 614 384 615 356 618 391 620 355 617 391 620 356 618 366 619 370 605 369 621 368 622 369 621 370 605 371 604 358 626 367 624 357 625 367 624 358 626 379 623 382 610 372 602 381 627 381 627 372 602 370 605 388 614 308 629 384 615 308 629 388 614 304 628 366 619 390 631 391 620 390 631 366 619 364 630 307 633 368 622 309 632 368 622 369 621 309 632 367 624 378 635 365 634 378 635 367 624 379 623 380 609 370 605 368 622 370 605 380 609 381 627 387 638 353 636 354 637 353 636 387 638 375 639 362 640 390 631 364 630 390 631 362 640 389 613 367 624 356 642 357 625 356 642 367 624 366 641 365 634 377 644 363 643 377 644 365 634 378 635 380 609 368 622 306 606 306 606 368 622 307 633 373 603 387 638 386 645 387 638 373 603 375 639 360 646 389 613 362 640 389 613 360 646 388 614 364 647 366 641 365 634 367 624 365 634 366 641 363 643 376 608 361 648 376 608 363 643 377 644 379 623 359 649 383 611 359 649 379 623 358 626 371 604 386 645 385 616 386 645 371 604 373 603 305 650 388 614 360 646 388 614 305 650 304 651 362 652 365 634 363 643 365 634 362 652 364 647 361 648 310 607 311 653 310 607 361 648 376 608 383 611 382 610 379 623 379 623 382 610 378 635 385 616 369 621 371 604 369 621 385 616 384 615 391 620 354 655 355 654 354 655 391 620 387 638 363 643 361 648 360 656 360 656 362 652 363 643 374 612 352 658 353 657 374 612 353 657 375 639 378 635 381 627 377 644 381 627 378 635 382 610 309 660 369 621 384 615 384 615 308 659 309 660 386 645 391 620 390 631 391 620 386 645 387 638 305 662 361 648 311 661 361 648 305 662 360 656 372 602 374 612 375 639 375 639 373 603 372 602 377 644 380 609 376 608 380 609 377 644 381 627 359 663 374 612 383 611 374 612 359 663 352 658 385 616 390 631 389 613 390 631 385 616 386 645 353 665 393 666 354 664 392 667 354 664 393 666 352 668 393 666 353 665 393 666 352 668 394 669 395 671 352 668 359 670 352 668 395 671 394 669 358 672 395 671 359 670 395 671 358 672 396 673 357 674 396 673 358 672 396 673 357 674 397 675 356 676 397 675 357 674 397 675 356 676 398 677 355 679 398 681 356 678 398 681 355 679 399 680 354 664 392 667 355 679 399 680 355 679 392 667 401 684 301 682 300 683 301 682 401 684 400 685 402 688 300 686 299 687 300 686 402 688 401 689 298 690 403 691 299 687 402 688 299 687 403 691 297 692 404 693 298 690 403 691 298 690 404 693 296 694 404 693 297 692 404 693 296 694 405 695 303 696 406 697 296 694 405 695 296 694 406 697 302 698 406 697 303 696 406 697 302 698 407 699 301 682 407 699 302 698 407 699 301 682 400 685 422 702 415 700 414 701 415 700 422 702 423 703 291 705 411 707 292 704 411 707 291 705 410 706 408 710 290 708 289 709 409 711 290 708 408 710 413 715 293 713 412 714 293 713 413 715 294 712 290 708 409 711 291 716 410 717 291 716 409 711 289 709 415 719 408 710 415 719 289 709 288 718 412 723 292 721 411 722 292 721 412 723 293 720 294 725 414 727 295 724 414 727 294 725 413 726 414 701 288 728 295 729 288 728 414 701 415 700 417 731 409 711 416 730 409 711 408 710 416 730 418 732 410 717 417 731 410 717 409 711 417 731 410 706 419 733 411 707 419 733 410 706 418 732 411 722 420 734 412 723 420 734 411 722 419 733 412 714 421 735 413 715 421 735 412 714 420 734 422 736 413 726 421 735 413 726 422 736 414 727 408 710 423 703 416 730 423 703 408 710 415 719 425 738 417 731 424 737 424 737 417 731 416 730 418 732 417 731 426 739 426 739 417 731 425 738 427 740 419 733 426 739 419 733 418 732 426 739 419 733 428 741 420 734 428 741 419 733 427 740 420 734 429 742 421 735 429 742 420 734 428 741 429 742 422 736 421 735 422 736 429 742 430 743 431 745 422 702 430 744 422 702 431 745 423 703 431 745 416 730 423 703 416 730 431 745 424 737 425 738 392 746 393 747 392 746 425 738 424 737 394 748 426 739 425 738 394 748 425 738 393 747 426 739 394 748 427 740 395 749 427 740 394 748 427 740 395 749 396 750 427 740 396 750 428 741 428 741 396 750 397 751 428 741 397 751 429 742 397 751 430 743 429 742 430 743 397 751 398 752 430 744 399 754 431 745 399 754 430 744 398 753 399 754 424 737 431 745 424 737 399 754 392 746 447 758 439 755 446 757 439 755 438 756 446 757 286 760 435 762 287 759 435 762 286 760 434 761 432 765 285 763 284 764 433 766 285 763 432 765 437 770 280 768 436 769 280 768 437 770 281 767 433 766 286 771 285 763 286 771 433 766 434 772 284 764 439 774 432 765 439 774 284 764 283 773 436 778 287 776 435 777 287 776 436 778 280 775 281 780 438 782 282 779 438 782 281 780 437 781 439 755 283 783 438 756 283 783 282 784 438 756 441 786 433 766 440 785 433 766 432 765 440 785 441 786 434 772 433 766 434 772 441 786 442 787 434 761 443 788 435 762 443 788 434 761 442 787 435 777 444 789 436 778 444 789 435 777 443 788 436 769 445 790 437 770 445 790 436 769 444 789 437 781 446 791 438 782 446 791 437 781 445 790 432 765 447 758 440 785 447 758 432 765 439 774 449 793 441 786 448 792 448 792 441 786 440 785 441 786 449 793 450 794 450 794 442 787 441 786 450 794 443 788 442 787 443 788 450 794 451 795 443 788 452 796 444 789 452 796 443 788 451 795 444 789 453 797 445 790 453 797 444 789 452 796 446 791 453 797 454 798 453 797 446 791 445 790 455 800 446 757 454 799 446 757 455 800 447 758 455 800 440 785 447 758 440 785 455 800 448 792 449 793 403 801 404 802 403 801 449 793 448 792 449 793 404 802 405 803 449 793 405 803 450 794 405 803 451 795 450 794 451 795 405 803 406 804 451 795 406 804 407 805 451 795 407 805 452 796 452 796 407 805 400 806 452 796 400 806 453 797 401 807 454 798 400 806 454 798 453 797 400 806 402 809 454 799 401 808 454 799 402 809 455 800 402 809 448 792 455 800 448 792 402 809 403 801</p></triangles>
      </mesh>
    </geometry>
    <geometry id="polySurface31-lib" name="polySurface31Mesh">
      <mesh>
        <source id="polySurface31-POSITION">
          <float_array id="polySurface31-POSITION-array" count="60">
-56.918846 13.067993 0.100000
-56.918846 393.665253 0.100000
-6.471039 393.665283 0.100000
17.709839 13.067993 0.100000
17.709841 312.897736 0.100000
-6.471039 324.510956 0.100000
17.709839 132.637070 0.100000
-27.443527 123.087868 0.100000
-28.257643 77.581444 0.100000
17.709839 67.649208 0.100000
-56.918846 13.067993 -0.100000
-56.918846 393.665253 -0.100000
-6.471039 393.665283 -0.100000
17.709839 13.067993 -0.100000
17.709841 312.897736 -0.100000
-6.471039 324.510956 -0.100000
17.709839 132.637070 -0.100000
-27.443527 123.087868 -0.100000
-28.257643 77.581444 -0.100000
17.709839 67.649208 -0.100000
</float_array>
          <technique_common>
            <accessor source="#polySurface31-POSITION-array" count="20" stride="3">
              <param name="X" type="float"/>
              <param name="Y" type="float"/>
              <param name="Z" type="float"/>
            </accessor>
          </technique_common>
        </source>
        <source id="polySurface31-Normal0">
          <float_array id="polySurface31-Normal0-array" count="144">
-0.000000 0.000000 1.000000
-0.000000 0.000000 1.000000
-0.000000 0.000000 1.000000
0.000000 -0.000000 1.000000
0.000000 -0.000000 1.000000
0.000000 -0.000000 1.000000
0.000000 0.000000 1.000000
0.000000 0.000000 1.000000
0.000000 0.000000 1.000000
0.000000 0.000000 1.000000
0.000000 0.000000 1.000000
-0.000000 0.000000 -1.000000
0.000000 0.000000 1.000000
0.000000 0.000000 1.000000
0.000000 0.000000 1.000000
0.000000 0.000000 1.000000
-0.000000 0.000000 1.000000
-0.000000 0.000000 1.000000
-0.000000 0.000000 -1.000000
0.000000 0.000000 1.000000
0.000000 0.000000 1.000000
0.000000 0.000000 1.000000
-0.000000 0.000000 -1.000000
0.000000 0.000000 1.000000
-0.000000 0.000000 -1.000000
-0.000000 0.000000 -1.000000
-0.000000 0.000000 -1.000000
0.000000 0.000000 -1.000000
0.000000 0.000000 -1.000000
0.000000 0.000000 -1.000000
0.000000 0.000000 -1.000000
0.000000 0.000000 -1.000000
0.000000 0.000000 -1.000000
0.000000 0.000000 -1.000000
-0.000000 0.000000 -1.000000
0.000000 0.000000 -1.000000
-0.000000 -0.000000 -1.000000
-0.000000 -0.000000 -1.000000
-0.000000 -0.000000 -1.000000
0.000000 0.000000 -1.000000
-0.000000 0.000000 -1.000000
-0.000000 0.000000 -1.000000
-0.000000 0.000000 -1.000000
0.000000 0.000000 -1.000000
0.000000 0.000000 -1.000000
0.000000 0.000000 -1.000000
0.000000 0.000000 -1.000000
-0.000000 0.000000 -1.000000
</float_array>
          <technique_common>
            <accessor source="#polySurface31-Normal0-array" count="48" stride="3">
              <param name="X" type="float"/>
              <param name="Y" type="float"/>
              <param name="Z" type="float"/>
            </accessor>
          </technique_common>
        </source>
        <source id="polySurface31-UV0">
          <float_array id="polySurface31-UV0-array" count="40">
0.901221 -6.538950
0.901221 2.789154
-0.491943 2.789154
-1.159721 -6.538950
-1.159721 0.809613
-0.491943 1.094241
-1.159721 -3.608417
0.087232 -3.842460
0.109714 -4.957782
-1.159721 -5.201212
-0.491943 2.789154
-0.491943 1.094241
0.901221 2.789154
-1.159721 -3.608417
0.087232 -3.842460
-1.159721 0.809613
0.109714 -4.957782
0.901221 -6.538950
-1.159721 -5.201212
-1.159721 -6.538950
</float_array>
          <technique_common>
            <accessor source="#polySurface31-UV0-array" count="20" stride="2">
              <param name="S" type="float"/>
              <param name="T" type="float"/>
            </accessor>
          </technique_common>
        </source>
        <vertices id="polySurface31-VERTEX">
          <input semantic="POSITION" source="#polySurface31-POSITION"/>
        </vertices>
        <triangles count="16" material="chainlink_ncl1_1"><input semantic="VERTEX" offset="0" source="#polySurface31-VERTEX"/><input semantic="NORMAL" offset="1" source="#polySurface31-Normal0"/><input semantic="TEXCOORD" offset="2" set="0" source="#polySurface31-UV0"/><p> 2 0 2 1 1 1 5 2 5 6 3 6 4 4 4 7 5 7 7 6 7 4 7 4 5 8 5 8 9 8 7 10 7 0 11 0 8 12 8 3 13 3 9 14 9 7 15 7 5 16 5 1 17 1 0 18 0 7 19 7 1 20 1 8 21 8 0 22 0 3 23 3 12 24 10 15 25 11 11 26 12 16 27 13 17 28 14 14 29 15 17 30 14 15 31 11 14 32 15 18 33 16 10 34 17 17 35 14 18 36 16 19 37 18 13 38 19 17 39 14 11 40 12 15 41 11 10 42 17 11 43 12 17 44 14 18 45 16 13 46 19 10 47 17</p></triangles>
      </mesh>
    </geometry>
  </library_geometries>
  <library_visual_scenes>
    <visual_scene id="fencing_round_wall_pplant_ground_pipehole01" name="fencing_round_wall_pplant_ground_pipehole01">
      <node name="polySurface29" id="polySurface29" sid="polySurface29"><matrix sid="matrix">0.010000 0.000000 0.000000 0.000000 0.000000 0.010000 0.000000 0.000000 0.000000 0.000000 0.010000 0.000000 0.000000 0.000000 0.000000 1.000000</matrix><instance_geometry url="#polySurface29-lib"><bind_material><technique_common><instance_material symbol="railing_pplant" target="#railing_pplant"/></technique_common></bind_material></instance_geometry><extra><technique profile="FCOLLADA"><visibility>1.000000</visibility></technique></extra></node>
      <node name="polySurface31" id="polySurface31" sid="polySurface31"><matrix sid="matrix">0.010000 0.000000 0.000000 0.000000 0.000000 0.010000 0.000000 -0.000000 0.000000 0.000000 0.010000 0.000000 0.000000 0.000000 0.000000 1.000000</matrix><instance_geometry url="#polySurface31-lib"><bind_material><technique_common><instance_material symbol="chainlink_ncl1_1" target="#chainlink_ncl1_1"/></technique_common></bind_material></instance_geometry><extra><technique profile="FCOLLADA"><visibility>1.000000</visibility></technique></extra></node>
      <extra><technique profile="MAX3D"><frame_rate>24.000000</frame_rate></technique><technique profile="FCOLLADA"><start_time>0.041667</start_time><end_time>2.000000</end_time></technique></extra>
    </visual_scene>
  </library_visual_scenes>
  <scene>
    <instance_visual_scene url="#fencing_round_wall_pplant_ground_pipehole01"></instance_visual_scene>
  </scene>
</COLLADA>
