<?xml version="1.0" encoding="utf-8"?>
<COLLADA xmlns="http://www.collada.org/2005/11/COLLADASchema" version="1.4.1">
  <asset><contributor><author></author><authoring_tool>FBX COLLADA exporter</authoring_tool><comments></comments></contributor><created>2014-12-01T21:55:11Z</created><keywords></keywords><modified>2014-12-01T21:55:11Z</modified><revision></revision><subject></subject><title></title><unit meter="0.025400" name="centimeter"></unit><up_axis>Y_UP</up_axis></asset>
  <library_images>
    <image id="Map #2-image" name="Map #2"><init_from>file://F:\MaxScenes\scenes\ABP\Depth\package_paper\package_paper\station\package_paper\package_paper.dds</init_from></image>
  </library_images>
  <library_materials>
    <material id="_03 - Default" name="_03 - Default">
      <instance_effect url="#_03 - Default-fx"/>
    </material>
  </library_materials>
  <library_effects>
    <effect id="_03 - Default-fx" name="_03 - Default">
      <profile_COMMON>
        <technique sid="standard">
          <phong>
            <emission>
              <color sid="emission">0.000000  0.000000 0.000000 1.000000</color>
            </emission>
            <ambient>
              <color sid="ambient">0.588235  0.588235 0.588235 1.000000</color>
            </ambient>
            <diffuse>
              <texture texture="Map #2-image" texcoord="CHANNEL0">
                <extra>
                  <technique profile="MAYA">
                    <wrapU sid="wrapU0">TRUE</wrapU>
                    <wrapV sid="wrapV0">TRUE</wrapV>
                    <blend_mode>ADD</blend_mode>
                  </technique>
                </extra>
              </texture>
            </diffuse>
            <specular>
              <color sid="specular">0.000000  0.000000 0.000000 1.000000</color>
            </specular>
            <shininess>
              <float sid="shininess">2.000000</float>
            </shininess>
            <reflective>
              <color sid="reflective">0.000000  0.000000 0.000000 1.000000</color>
            </reflective>
            <reflectivity>
              <float sid="reflectivity">1.000000</float>
            </reflectivity>
            <transparent opaque="RGB_ZERO">
              <color sid="transparent">1.000000  1.000000 1.000000 1.000000</color>
            </transparent>
            <transparency>
              <float sid="transparency">0.000000</float>
            </transparency>
          </phong>
        </technique>
      </profile_COMMON>
    </effect>
  </library_effects>
  <library_geometries>
    <geometry id="package_paper-lib" name="package_paperMesh">
      <mesh>
        <source id="package_paper-POSITION">
          <float_array id="package_paper-POSITION-array" count="186">
5.910565 -4.326403 0.000000
5.910565 4.326403 0.000000
5.910565 -4.326403 2.010248
5.969601 4.326403 2.010248
5.910565 -4.457235 1.005124
5.910565 4.457235 1.005124
5.969601 -4.391004 1.915411
5.969601 4.384662 1.920095
5.910565 -4.391004 0.054312
5.910565 4.384662 0.080609
6.071743 -4.326403 2.010248
6.071743 -4.391004 1.915411
6.071743 4.384662 1.920095
6.071743 4.326403 2.010248
5.969601 -3.354040 0.159039
5.969601 3.354040 0.159039
6.071743 3.354040 0.159039
6.071743 -3.354040 0.159039
5.961843 4.326403 0.000000
5.961843 4.384661 0.080609
5.961843 -4.391004 0.054312
5.961843 -4.326404 0.000000
5.924862 -3.588490 1.494349
5.976139 -3.588490 1.494349
5.976139 3.588489 1.494349
5.924862 3.588490 1.494349
0.000000 -4.326404 -0.001661
0.000000 4.326403 2.010248
0.000000 -4.457235 1.005124
0.000000 4.457235 1.005124
0.000000 4.384662 0.134537
-5.961843 4.326403 0.000000
-5.961843 4.384661 0.080609
-5.961843 -4.391004 0.054312
-5.961843 -4.326404 0.000000
0.000000 4.326403 0.000000
-5.910565 4.384662 0.080609
-5.910565 4.326403 0.000000
-5.910565 -4.457235 1.005124
-5.969601 -4.391004 1.915411
0.000000 -4.391003 1.751812
-5.910565 4.457235 1.005124
-5.969601 4.384662 1.920095
-5.910565 -4.326403 2.010248
0.000000 -4.326403 2.010248
-6.071743 4.384662 1.920095
-6.071743 4.326403 2.010248
-6.071743 -4.326403 2.010248
-6.071743 -4.391004 1.915411
-5.910565 -4.391004 0.054312
0.000000 -4.391004 0.132875
-5.969601 -3.354040 0.159039
-5.969601 3.354040 0.159039
-6.071743 3.354040 0.159039
-6.071743 -3.354040 0.159039
-5.969601 4.326403 2.010248
-5.924862 3.588490 1.494349
-5.924862 -3.588490 1.494349
-5.976139 -3.588490 1.494349
-5.976139 3.588489 1.494349
-5.910565 -4.326403 0.000000
0.000000 4.384662 1.751812
</float_array>
          <technique_common>
            <accessor source="#package_paper-POSITION-array" count="62" stride="3">
              <param name="X" type="float"/>
              <param name="Y" type="float"/>
              <param name="Z" type="float"/>
            </accessor>
          </technique_common>
        </source>
        <source id="package_paper-Normal0">
          <float_array id="package_paper-Normal0-array" count="1080">
1.000000 0.000000 0.000000
1.000000 0.000000 0.000000
1.000000 0.000000 0.000000
1.000000 0.000000 0.000000
1.000000 0.000000 0.000000
1.000000 0.000000 0.000000
-0.001303 0.958351 -0.285591
0.000000 0.879326 -0.476220
0.000000 0.959000 -0.283406
0.000000 0.879326 -0.476220
-0.001303 0.958351 -0.285591
-0.002173 0.879324 -0.476219
0.000000 -0.977504 0.210917
-0.000798 -0.999986 0.005178
-0.002682 -0.980853 0.194732
-0.000798 -0.999986 0.005178
0.000000 -0.977504 0.210917
-0.000000 -0.999993 0.003640
0.997914 0.000017 -0.064552
0.999480 0.000009 -0.032261
0.999479 0.000009 -0.032286
0.999480 0.000009 -0.032261
0.997914 0.000017 -0.064552
0.997914 0.000017 -0.064552
0.000000 -0.977504 0.210917
-0.004720 -0.939406 0.342774
0.000000 -0.939416 0.342778
-0.004720 -0.939406 0.342774
0.000000 -0.977504 0.210917
-0.002682 -0.980853 0.194732
1.000000 0.000000 0.000000
1.000000 0.000000 0.000000
1.000000 0.000000 0.000000
1.000000 0.000000 0.000000
1.000000 0.000000 0.000000
1.000000 0.000000 0.000000
-0.000798 -0.999986 0.005178
0.000000 -0.944705 -0.327920
-0.002163 -0.943369 -0.331739
0.000000 -0.944705 -0.327920
-0.000798 -0.999986 0.005178
-0.000000 -0.999993 0.003640
0.999480 0.000009 -0.032261
1.000000 0.000000 0.000000
0.999479 0.000009 -0.032286
1.000000 0.000000 0.000000
0.999480 0.000009 -0.032261
1.000000 0.000000 0.000000
0.000000 -0.826475 0.562973
0.000000 -0.826475 0.562973
0.000000 -0.826475 0.562973
0.000000 -0.826475 0.562973
0.000000 -0.826475 0.562973
0.000000 -0.826475 0.562973
0.000000 0.000000 -1.000000
0.000000 0.000000 -1.000000
0.000000 0.000000 -1.000000
0.000000 0.000000 -1.000000
0.000000 0.000000 -1.000000
0.000000 0.000000 -1.000000
0.000000 0.839892 0.542754
0.000000 0.839892 0.542754
0.000000 0.839892 0.542754
0.000000 0.839892 0.542754
0.000000 0.839892 0.542754
0.000000 0.839892 0.542754
0.000000 0.000000 1.000000
0.000000 0.000000 1.000000
0.000000 0.000000 1.000000
0.000000 0.000000 1.000000
0.000000 0.000000 1.000000
0.000000 0.000000 1.000000
-1.000000 0.000000 0.000000
-1.000000 0.000000 0.000000
-1.000000 0.000000 0.000000
-1.000000 0.000000 0.000000
-1.000000 0.000000 0.000000
-1.000000 0.000000 0.000000
0.000000 0.863066 -0.505091
0.000000 0.863066 -0.505091
0.000000 0.863066 -0.505091
0.000000 0.863066 -0.505091
0.000000 0.863066 -0.505091
0.000000 0.863066 -0.505091
1.000000 0.000000 0.000000
1.000000 0.000000 0.000000
1.000000 0.000000 0.000000
1.000000 0.000000 0.000000
1.000000 0.000000 0.000000
1.000000 0.000000 0.000000
0.000000 -0.861118 -0.508405
0.000000 -0.861118 -0.508405
0.000000 -0.861118 -0.508405
0.000000 -0.861118 -0.508405
0.000000 -0.861118 -0.508405
0.000000 -0.861118 -0.508405
0.000008 0.810483 -0.585762
0.000008 0.810483 -0.585762
0.000008 0.810483 -0.585762
0.000008 0.810483 -0.585762
0.000008 0.810483 -0.585762
0.000008 0.810483 -0.585762
0.000000 0.000000 1.000000
0.000000 0.000000 1.000000
0.000000 0.000000 1.000000
0.000000 0.000000 1.000000
0.000000 0.000000 1.000000
0.000000 0.000000 1.000000
-0.000006 -0.643522 -0.765427
-0.000006 -0.643523 -0.765427
-0.000006 -0.643523 -0.765427
-0.000006 -0.643523 -0.765427
-0.000006 -0.643522 -0.765427
-0.000006 -0.643523 -0.765427
0.000000 0.000000 -1.000000
0.000000 0.000000 -1.000000
0.000000 0.000000 -1.000000
0.000000 0.000000 -1.000000
0.000000 0.000000 -1.000000
0.000000 0.000000 -1.000000
-0.000008 -0.873514 0.486798
-0.000008 -0.873514 0.486798
-0.000008 -0.873514 0.486798
-0.000008 -0.873514 0.486798
-0.000008 -0.873514 0.486798
-0.000008 -0.873514 0.486798
0.999950 0.000017 -0.010019
0.999950 0.000017 -0.010019
0.999950 0.000017 -0.010019
0.999950 0.000017 -0.010019
0.999950 0.000017 -0.010019
0.999950 0.000017 -0.010019
0.000008 0.871327 0.490703
0.000008 0.871327 0.490703
0.000008 0.871327 0.490703
0.000008 0.871327 0.490703
0.000008 0.871327 0.490703
0.000008 0.871327 0.490703
-0.999950 -0.000017 0.010019
-0.999950 -0.000017 0.010019
-0.999950 -0.000017 0.010019
-0.999950 -0.000017 0.010019
-0.999950 -0.000017 0.010019
-0.999950 -0.000017 0.010019
-0.002163 -0.943369 -0.331739
0.000000 -0.944705 -0.327920
-0.000000 -0.825331 -0.564649
-0.002163 -0.943369 -0.331739
-0.000000 -0.825331 -0.564649
-0.003673 -0.825325 -0.564645
0.000141 0.000096 -1.000000
0.000000 0.000096 -1.000000
0.000000 0.000096 -1.000000
0.000141 0.000096 -1.000000
0.000000 0.000096 -1.000000
0.000141 0.000096 -1.000000
0.000000 0.000000 1.000000
0.000000 0.000000 1.000000
0.000000 0.000000 1.000000
0.000000 0.000000 1.000000
0.000000 0.000000 1.000000
0.000000 0.000000 1.000000
0.000000 0.979509 0.201398
-0.002932 0.978164 0.207812
-0.000812 0.999988 0.004931
0.000000 0.979509 0.201398
-0.000812 0.999988 0.004931
0.000000 0.999995 0.003246
-0.002932 0.978164 0.207812
0.000000 0.948421 0.317013
-0.004468 0.948412 0.317010
0.000000 0.948421 0.317013
-0.002932 0.978164 0.207812
0.000000 0.979509 0.201398
-0.000812 0.999988 0.004931
0.000000 0.959000 -0.283406
0.000000 0.999995 0.003246
0.000000 0.959000 -0.283406
-0.000812 0.999988 0.004931
-0.001303 0.958351 -0.285591
-1.000000 0.000000 0.000000
-1.000000 0.000000 0.000000
-1.000000 0.000000 0.000000
-1.000000 0.000000 0.000000
-1.000000 0.000000 0.000000
-1.000000 0.000000 0.000000
0.001303 0.958351 -0.285591
0.000000 0.959000 -0.283406
0.000000 0.879326 -0.476220
0.001303 0.958351 -0.285591
0.000000 0.879326 -0.476220
0.002173 0.879324 -0.476219
0.000000 -0.977504 0.210917
0.002682 -0.980853 0.194732
0.000798 -0.999986 0.005178
0.000000 -0.977504 0.210917
0.000798 -0.999986 0.005178
-0.000000 -0.999993 0.003640
-0.997914 0.000017 -0.064552
-0.999480 0.000009 -0.032261
-0.997914 0.000017 -0.064552
-0.999480 0.000009 -0.032261
-0.997914 0.000017 -0.064552
-0.999479 0.000009 -0.032286
0.004720 -0.939406 0.342774
0.000000 -0.977504 0.210917
0.000000 -0.939416 0.342778
0.000000 -0.977504 0.210917
0.004720 -0.939406 0.342774
0.002682 -0.980853 0.194732
-1.000000 0.000000 0.000000
-1.000000 0.000000 0.000000
-1.000000 0.000000 0.000000
-1.000000 0.000000 0.000000
-1.000000 0.000000 0.000000
-1.000000 0.000000 0.000000
0.000798 -0.999986 0.005178
0.000000 -0.944705 -0.327920
-0.000000 -0.999993 0.003640
0.000000 -0.944705 -0.327920
0.000798 -0.999986 0.005178
0.002163 -0.943369 -0.331739
-0.999480 0.000009 -0.032261
-0.999479 0.000009 -0.032286
-1.000000 0.000000 0.000000
-0.999480 0.000009 -0.032261
-1.000000 0.000000 0.000000
-1.000000 0.000000 0.000000
0.000000 -0.826475 0.562973
0.000000 -0.826475 0.562973
0.000000 -0.826475 0.562973
0.000000 -0.826475 0.562973
0.000000 -0.826475 0.562973
0.000000 -0.826475 0.562973
0.000000 0.000000 -1.000000
0.000000 0.000000 -1.000000
0.000000 0.000000 -1.000000
0.000000 0.000000 -1.000000
0.000000 0.000000 -1.000000
0.000000 0.000000 -1.000000
0.000000 0.839892 0.542754
0.000000 0.839892 0.542754
0.000000 0.839892 0.542754
0.000000 0.839892 0.542754
0.000000 0.839892 0.542754
0.000000 0.839892 0.542754
0.000000 0.000000 1.000000
0.000000 0.000000 1.000000
0.000000 0.000000 1.000000
0.000000 0.000000 1.000000
0.000000 0.000000 1.000000
0.000000 0.000000 1.000000
1.000000 0.000000 0.000000
1.000000 0.000000 0.000000
1.000000 0.000000 0.000000
1.000000 0.000000 0.000000
1.000000 0.000000 0.000000
1.000000 0.000000 0.000000
0.000000 0.863066 -0.505091
0.000000 0.863066 -0.505091
0.000000 0.863066 -0.505091
0.000000 0.863066 -0.505091
0.000000 0.863066 -0.505091
0.000000 0.863066 -0.505091
-1.000000 0.000000 0.000000
-1.000000 0.000000 0.000000
-1.000000 0.000000 0.000000
-1.000000 0.000000 0.000000
-1.000000 0.000000 0.000000
-1.000000 0.000000 0.000000
0.000000 -0.861118 -0.508405
0.000000 -0.861118 -0.508405
0.000000 -0.861118 -0.508405
0.000000 -0.861118 -0.508405
0.000000 -0.861118 -0.508405
0.000000 -0.861118 -0.508405
-0.000008 0.810483 -0.585762
-0.000008 0.810483 -0.585762
-0.000008 0.810483 -0.585762
-0.000008 0.810483 -0.585762
-0.000008 0.810483 -0.585762
-0.000008 0.810483 -0.585762
0.000000 0.000000 1.000000
0.000000 0.000000 1.000000
0.000000 0.000000 1.000000
0.000000 0.000000 1.000000
0.000000 0.000000 1.000000
0.000000 0.000000 1.000000
0.000006 -0.643522 -0.765427
0.000006 -0.643523 -0.765427
0.000006 -0.643523 -0.765427
0.000006 -0.643523 -0.765427
0.000006 -0.643523 -0.765427
0.000006 -0.643522 -0.765427
0.000000 0.000000 -1.000000
0.000000 0.000000 -1.000000
0.000000 0.000000 -1.000000
0.000000 0.000000 -1.000000
0.000000 0.000000 -1.000000
0.000000 0.000000 -1.000000
0.000008 -0.873514 0.486798
0.000008 -0.873514 0.486798
0.000008 -0.873514 0.486798
0.000008 -0.873514 0.486798
0.000008 -0.873514 0.486798
0.000008 -0.873514 0.486798
-0.999950 0.000017 -0.010019
-0.999950 0.000017 -0.010019
-0.999950 0.000017 -0.010019
-0.999950 0.000017 -0.010019
-0.999950 0.000017 -0.010019
-0.999950 0.000017 -0.010019
-0.000008 0.871327 0.490703
-0.000008 0.871327 0.490703
-0.000008 0.871327 0.490703
-0.000008 0.871327 0.490703
-0.000008 0.871327 0.490703
-0.000008 0.871327 0.490703
0.999950 -0.000017 0.010019
0.999950 -0.000017 0.010019
0.999950 -0.000017 0.010019
0.999950 -0.000017 0.010019
0.999950 -0.000017 0.010019
0.999950 -0.000017 0.010019
0.002163 -0.943369 -0.331739
-0.000000 -0.825331 -0.564649
0.000000 -0.944705 -0.327920
-0.000000 -0.825331 -0.564649
0.002163 -0.943369 -0.331739
0.003673 -0.825325 -0.564645
-0.000141 0.000096 -1.000000
0.000000 0.000096 -1.000000
0.000000 0.000096 -1.000000
0.000000 0.000096 -1.000000
-0.000141 0.000096 -1.000000
-0.000141 0.000096 -1.000000
0.000000 0.000000 1.000000
0.000000 0.000000 1.000000
0.000000 0.000000 1.000000
0.000000 0.000000 1.000000
0.000000 0.000000 1.000000
0.000000 0.000000 1.000000
0.000000 0.999995 0.003246
0.000812 0.999988 0.004931
0.000000 0.979509 0.201398
0.002932 0.978164 0.207812
0.000000 0.979509 0.201398
0.000812 0.999988 0.004931
0.000000 0.979509 0.201398
0.002932 0.978164 0.207812
0.000000 0.948421 0.317013
0.004468 0.948412 0.317010
0.000000 0.948421 0.317013
0.002932 0.978164 0.207812
0.000000 0.959000 -0.283406
0.000812 0.999988 0.004931
0.000000 0.999995 0.003246
0.000812 0.999988 0.004931
0.000000 0.959000 -0.283406
0.001303 0.958351 -0.285591
</float_array>
          <technique_common>
            <accessor source="#package_paper-Normal0-array" count="360" stride="3">
              <param name="X" type="float"/>
              <param name="Y" type="float"/>
              <param name="Z" type="float"/>
            </accessor>
          </technique_common>
        </source>
        <source id="package_paper-UV0">
          <float_array id="package_paper-UV0-array" count="292">
0.965064 0.446831
0.983973 0.446831
0.484125 0.720423
0.473319 0.717886
0.981954 0.701328
0.473316 0.463387
0.965067 0.701330
0.490658 0.463387
0.484181 0.724815
0.473311 0.724829
0.090978 0.719521
0.100740 0.720428
0.100749 0.724829
0.090924 0.723913
0.100743 0.463387
0.084185 0.462487
0.981965 0.703534
0.965065 0.703538
0.581992 0.701331
0.592487 0.701330
0.592504 0.703538
0.581956 0.703538
0.592490 0.446832
0.579215 0.446832
0.532136 0.718671
0.106625 0.953779
0.109750 0.914300
0.078005 0.466293
0.102210 0.737739
0.104718 0.733857
0.477292 0.733857
0.480074 0.737941
0.435424 0.813567
0.146587 0.813567
0.439637 0.829881
0.151787 0.829882
0.150153 0.826707
0.441267 0.826699
0.967560 0.719964
0.970068 0.723435
0.938144 0.031226
0.629616 0.031227
0.628787 0.029649
0.938971 0.029644
0.592205 0.722303
0.594986 0.719964
0.935787 0.784311
0.626760 0.784311
0.492838 0.721206
0.499906 0.464167
0.484627 0.904851
0.532182 0.464173
0.573176 0.718678
0.107067 0.905052
0.569847 0.464180
0.085321 0.723330
0.103458 0.902443
0.045800 0.720803
0.045705 0.466305
0.488227 0.902228
0.594889 0.092910
0.005870 0.720818
0.008089 0.466320
0.593059 0.091637
0.487614 0.914502
0.490466 0.953779
0.974421 0.090496
0.109750 0.993587
0.487614 0.994720
0.972596 0.091778
0.966567 0.170597
0.969076 0.167126
0.591212 0.168258
0.593994 0.170597
0.981953 0.192335
0.965066 0.192333
0.532233 0.209676
0.492935 0.207125
0.608386 0.925836
0.611511 0.965315
0.989375 0.965113
0.992226 0.925836
0.484126 0.206352
0.473319 0.208888
0.097806 0.179088
0.100315 0.182969
0.472888 0.182969
0.475670 0.178886
0.573272 0.209684
0.611511 0.886028
0.989375 0.884896
0.484181 0.201960
0.473311 0.201945
0.429883 0.081434
0.142033 0.081434
0.140399 0.084609
0.431513 0.084617
0.090979 0.205452
0.100740 0.206345
0.100749 0.201945
0.090925 0.201060
0.474873 0.006465
0.097313 0.006263
0.093704 0.008872
0.431020 0.103260
0.142183 0.103260
0.478473 0.009087
0.981964 0.190128
0.965064 0.190125
0.946892 0.863495
0.638364 0.863494
0.637535 0.865072
0.947719 0.865077
0.581991 0.192333
0.592487 0.192334
0.592503 0.190126
0.581955 0.190126
0.603637 0.801811
0.601807 0.803084
0.934794 0.106250
0.625767 0.106250
0.983169 0.804225
0.981344 0.802943
0.085122 0.209250
0.045603 0.211808
0.005673 0.211823
0.479253 0.717886
0.479251 0.463387
0.479245 0.724829
0.095531 0.719528
0.095540 0.723929
0.095534 0.462487
0.479254 0.208888
0.479246 0.201945
0.095531 0.205445
0.095540 0.201044
0.977684 0.446831
0.977688 0.701330
0.977685 0.703538
0.585564 0.701330
0.585580 0.703538
0.585567 0.446832
0.977687 0.192333
0.977685 0.190125
0.585563 0.192334
0.585580 0.190126
</float_array>
          <technique_common>
            <accessor source="#package_paper-UV0-array" count="146" stride="2">
              <param name="S" type="float"/>
              <param name="T" type="float"/>
            </accessor>
          </technique_common>
        </source>
        <vertices id="package_paper-VERTEX">
          <input semantic="POSITION" source="#package_paper-POSITION"/>
        </vertices>
        <triangles count="120" material="_03 - Default"><input semantic="VERTEX" offset="0" source="#package_paper-VERTEX"/><input semantic="NORMAL" offset="1" source="#package_paper-Normal0"/><input semantic="TEXCOORD" offset="2" set="0" source="#package_paper-UV0"/><p> 19 0 39 21 1 45 18 2 38 21 3 45 19 4 39 20 5 44 9 6 4 35 7 136 30 8 1 35 9 136 9 10 4 1 11 137 40 12 49 4 13 24 6 14 48 4 15 24 40 16 49 28 17 51 7 18 26 4 19 65 5 20 25 4 21 65 7 22 26 6 23 64 40 24 7 2 25 126 44 26 127 2 27 126 40 28 7 6 29 2 12 30 28 10 31 30 11 32 31 10 33 30 12 34 28 13 35 29 4 36 24 50 37 54 8 38 52 50 39 54 4 40 24 28 41 51 4 42 65 9 43 67 5 44 25 9 45 67 4 46 65 8 47 68 6 48 2 10 49 128 2 50 126 10 51 128 6 52 2 11 53 8 16 54 36 17 55 37 14 56 34 14 57 34 15 58 35 16 59 36 13 60 130 7 61 10 3 62 129 7 63 10 13 64 130 12 65 13 10 66 9 13 67 12 3 68 11 3 69 11 2 70 3 10 71 9 7 72 53 14 73 34 6 74 50 14 75 34 7 76 53 15 77 35 12 78 56 16 79 36 7 80 53 7 81 53 16 82 36 15 83 35 17 84 32 12 85 28 11 86 31 12 87 28 17 88 32 16 89 33 6 90 50 14 91 34 11 92 59 11 93 59 14 94 34 17 95 37 19 96 16 1 97 137 9 98 4 1 99 137 19 100 16 18 101 138 24 102 43 22 103 41 23 104 42 22 105 41 24 106 43 25 107 40 20 108 21 8 109 18 21 110 140 8 111 18 0 112 139 21 113 140 18 114 17 21 115 20 0 116 19 0 117 19 1 118 6 18 119 17 22 120 41 20 121 63 23 122 42 20 123 63 22 124 41 8 125 60 20 126 44 24 127 46 23 128 47 24 129 46 20 130 44 19 131 39 24 132 43 19 133 66 25 134 40 25 135 40 19 136 66 9 137 69 25 138 40 8 139 60 22 140 41 8 141 60 25 142 40 9 143 69 8 144 18 50 145 23 26 146 141 8 147 18 26 148 141 0 149 139 0 150 19 26 151 22 35 152 0 0 153 19 35 154 0 1 155 6 27 156 14 2 157 3 3 158 11 2 159 3 27 160 14 44 161 5 61 162 27 7 163 55 5 164 57 61 165 27 5 166 57 29 167 58 7 168 10 27 169 131 3 170 129 27 171 131 7 172 10 61 173 15 5 174 57 30 175 62 29 176 58 30 177 62 5 178 57 9 179 61 32 180 71 34 181 73 33 182 72 34 183 73 32 184 71 31 185 70 36 186 74 30 187 1 35 188 136 36 189 74 35 190 136 37 191 142 40 192 49 39 193 77 38 194 76 40 195 49 38 196 76 28 197 51 42 198 79 38 199 81 39 200 80 38 201 81 42 202 79 41 203 78 43 204 132 40 205 7 44 206 127 40 207 7 43 208 132 39 209 82 45 210 84 48 211 87 47 212 86 45 213 84 47 214 86 46 215 85 38 216 76 50 217 54 28 218 51 50 219 54 38 220 76 49 221 88 38 222 81 41 223 78 36 224 89 38 225 81 36 226 89 49 227 90 47 228 133 39 229 82 43 230 132 39 231 82 47 232 133 48 233 91 54 234 96 53 235 95 51 236 93 51 237 93 53 238 95 52 239 94 46 240 135 55 241 134 42 242 97 46 243 135 42 244 97 45 245 100 46 246 99 47 247 92 55 248 98 55 249 98 47 250 92 43 251 83 51 252 93 42 253 102 39 254 101 42 255 102 51 256 93 52 257 94 53 258 95 45 259 103 42 260 102 42 261 102 52 262 94 53 263 95 54 264 104 45 265 84 53 266 105 48 267 87 45 268 84 54 269 104 51 270 93 39 271 101 48 272 106 48 273 106 54 274 96 51 275 93 32 276 107 36 277 74 37 278 142 32 279 107 37 280 142 31 281 143 59 282 112 57 283 110 56 284 109 57 285 110 59 286 112 58 287 111 33 288 116 34 289 145 49 290 113 49 291 113 34 292 145 60 293 144 34 294 115 31 295 108 60 296 114 60 297 114 31 298 108 37 299 75 57 300 110 33 301 118 49 302 117 33 303 118 57 304 110 58 305 111 32 306 71 33 307 72 59 308 119 59 309 119 33 310 72 58 311 120 32 312 121 59 313 112 56 314 109 56 315 109 36 316 122 32 317 121 49 318 117 56 319 109 57 320 110 56 321 109 49 322 117 36 323 122 49 324 113 26 325 141 50 326 23 26 327 141 49 328 113 60 329 144 60 330 114 35 331 0 26 332 22 35 333 0 60 334 114 37 335 75 27 336 14 43 337 83 44 338 5 43 339 83 27 340 14 55 341 98 29 342 58 41 343 124 61 344 27 42 345 123 61 346 27 41 347 124 61 348 15 42 349 97 27 350 131 55 351 134 27 352 131 42 353 97 30 354 62 41 355 124 29 356 58 41 357 124 30 358 62 36 359 125</p></triangles>
      </mesh>
    </geometry>
  </library_geometries>
  <library_visual_scenes>
    <visual_scene id="" name="">
      <node name="package_paper" id="package_paper" sid="package_paper"><matrix sid="matrix">0.000000 0.876784 -0.000000 0.000000 0.000000 0.000000 1.207267 0.000000 1.000000 -0.000000 0.000000 0.000000 0.000000 0.000000 0.000000 1.000000</matrix><instance_geometry url="#package_paper-lib"><bind_material><technique_common><instance_material symbol="_03 - Default" target="#_03 - Default"/></technique_common></bind_material></instance_geometry><extra><technique profile="FCOLLADA"><visibility>1.000000</visibility></technique></extra></node>
      <extra><technique profile="MAX3D"><frame_rate>30.000000</frame_rate></technique><technique profile="FCOLLADA"><start_time>0.000000</start_time><end_time>3.333333</end_time></technique></extra>
    </visual_scene>
  </library_visual_scenes>
  <scene>
    <instance_visual_scene url="#"></instance_visual_scene>
  </scene>
</COLLADA>
