<?xml version="1.0" encoding="utf-8"?>
<COLLADA xmlns="http://www.collada.org/2005/11/COLLADASchema" version="1.4.1">
  <asset>
    <contributor>
      <author>Harry</author>
      <authoring_tool>OpenCOLLADA for 3ds Max;  Version: 1.3.1;  Revision: 847M;  Platform: x64;  Configuration: Release_Max2010_static</authoring_tool>
      <source_data>file:///S:/work/frictional/exports/spare_parts_flesher/originals/spare_parts_flesher.max</source_data>
    </contributor>
    <created>2012-07-10T03:04:10</created>
    <modified>2012-07-10T03:04:10</modified>
    <unit name="centimeter" meter="0.01"/>
    <up_axis>Z_UP</up_axis>
  </asset>
  <library_effects>
    <effect id="_8_-_Default">
      <profile_COMMON>
        <newparam sid="spare_part_flesher_dds-surface">
          <surface type="2D">
            <init_from>spare_part_flesher_dds</init_from>
          </surface>
        </newparam>
        <newparam sid="spare_part_flesher_dds-sampler">
          <sampler2D>
            <source>spare_part_flesher_dds-surface</source>
          </sampler2D>
        </newparam>
        <newparam sid="spare_part_flesher_spec_dds-surface">
          <surface type="2D">
            <init_from>spare_part_flesher_spec_dds</init_from>
          </surface>
        </newparam>
        <newparam sid="spare_part_flesher_spec_dds-sampler">
          <sampler2D>
            <source>spare_part_flesher_spec_dds-surface</source>
          </sampler2D>
        </newparam>
        <newparam sid="spare_part_flesher_nrm_dds-surface">
          <surface type="2D">
            <init_from>spare_part_flesher_nrm_dds</init_from>
          </surface>
        </newparam>
        <newparam sid="spare_part_flesher_nrm_dds-sampler">
          <sampler2D>
            <source>spare_part_flesher_nrm_dds-surface</source>
          </sampler2D>
        </newparam>
        <technique sid="common">
          <blinn>
            <emission>
              <color>0 0 0 1</color>
            </emission>
            <ambient>
              <color>0.588 0.588 0.588 1</color>
            </ambient>
            <diffuse>
              <texture texture="spare_part_flesher_dds-sampler" texcoord="CHANNEL1"/>
            </diffuse>
            <specular>
              <color>0.9 0.9 0.9 1</color>
            </specular>
            <shininess>
              <float>10</float>
            </shininess>
            <reflective>
              <color>0 0 0 1</color>
            </reflective>
            <transparent opaque="A_ONE">
              <color>1 1 1 1</color>
            </transparent>
            <transparency>
              <float>1</float>
            </transparency>
          </blinn>
          <extra>
            <technique profile="OpenCOLLADA3dsMax">
              <specularLevel>
                <texture texture="spare_part_flesher_spec_dds-sampler" texcoord="CHANNEL1"/>
              </specularLevel>
              <bump bumptype="HEIGHTFIELD">
                <texture texture="spare_part_flesher_nrm_dds-sampler" texcoord="CHANNEL1"/>
              </bump>
            </technique>
          </extra>
        </technique>
      </profile_COMMON>
      <extra>
        <technique profile="OpenCOLLADA3dsMax">
          <extended_shader>
            <apply_reflection_dimming>0</apply_reflection_dimming>
            <dim_level>0</dim_level>
            <falloff_type>0</falloff_type>
            <index_of_refraction>1.5</index_of_refraction>
            <opacity_type>0</opacity_type>
            <reflection_level>3</reflection_level>
            <wire_size>1</wire_size>
            <wire_units>0</wire_units>
          </extended_shader>
          <shader>
            <ambient_diffuse_lock>1</ambient_diffuse_lock>
            <ambient_diffuse_texture_lock>1</ambient_diffuse_texture_lock>
            <diffuse_specular_lock>0</diffuse_specular_lock>
            <soften>0.1</soften>
            <use_self_illum_color>0</use_self_illum_color>
          </shader>
        </technique>
      </extra>
    </effect>
  </library_effects>
  <library_materials>
    <material id="_8_-_Default-material" name="_8_-_Default">
      <instance_effect url="#_8_-_Default"/>
    </material>
  </library_materials>
  <library_geometries>
    <geometry id="geom-spare_part_flesher_02" name="spare_part_flesher_02">
      <mesh>
        <source id="geom-spare_part_flesher_02-positions">
          <float_array id="geom-spare_part_flesher_02-positions-array" count="396">-165.284 -1275.432 847.0739 -119.8326 -1196.709 847.0738 -41.10827 -1151.257 847.0738 49.79467 -1151.257 847.0738 128.519 -1196.709 847.0737 173.9705 -1275.432 847.0737 173.9705 -1366.336 847.0738 128.519 -1445.06 847.0739 49.79475 -1490.512 847.0739 -41.1082 -1490.512 847.0739 -119.8326 -1445.06 847.0739 -165.284 -1366.336 847.0739 -165.284 -1275.432 655.945 -119.8326 -1196.709 655.9451 -41.10828 -1151.257 655.945 49.79466 -1151.257 655.945 128.519 -1196.709 655.945 173.9705 -1275.432 655.945 173.9705 -1366.336 655.945 128.519 -1445.06 655.9449 49.79474 -1490.512 655.945 -41.1082 -1490.512 655.9451 -119.8325 -1445.06 655.945 -165.284 -1366.336 655.9451 -114.1893 -1202.352 890.493 -157.5752 -1277.499 890.493 -157.5752 -1364.27 890.493 -114.1893 -1439.417 890.493 -39.04264 -1482.803 890.493 47.72918 -1482.803 890.493 122.8758 -1439.417 890.493 166.2616 -1364.27 890.493 166.2617 -1277.499 890.493 122.8758 -1202.352 890.493 47.7291 -1158.966 890.493 -39.04272 -1158.966 890.493 -65.99244 -1280.276 927.2528 -65.99242 -1361.493 927.2528 4.343231 -1402.101 927.2528 74.67885 -1361.493 927.2528 74.67885 -1280.276 927.2528 4.343199 -1239.667 927.2528 -20.20659 -1123.73 668.3422 -20.20658 -1123.73 840.6318 28.89298 -1123.73 840.6318 28.89297 -1123.73 668.3422 187.3583 -1398.2 668.3422 187.3583 -1398.2 840.6318 162.8085 -1440.722 840.6318 162.8086 -1440.722 668.3421 -154.122 -1440.722 668.3422 -154.122 -1440.722 840.6318 -178.6717 -1398.2 840.6318 -178.6717 -1398.2 668.3422 -165.284 -1275.433 366.1461 -119.8326 -1196.709 366.1461 -41.10827 -1151.257 366.1461 49.79467 -1151.257 366.1461 128.519 -1196.709 366.146 173.9704 -1275.433 366.146 173.9704 -1366.336 366.1461 128.519 -1445.06 366.146 49.79472 -1490.512 366.146 -41.10824 -1490.512 366.146 -119.8325 -1445.06 366.1461 -165.284 -1366.336 366.1462 -165.284 -1275.432 557.2749 -119.8325 -1196.709 557.2749 -41.10825 -1151.257 557.2749 49.79469 -1151.257 557.2749 128.519 -1196.709 557.2749 173.9705 -1275.432 557.2749 173.9705 -1366.336 557.2749 128.519 -1445.06 557.2749 49.79472 -1490.512 557.2749 -41.10821 -1490.512 557.2749 -119.8325 -1445.06 557.2749 -165.284 -1366.336 557.2749 -114.1893 -1202.352 322.7269 -157.5752 -1277.499 322.7269 -157.5752 -1364.27 322.7269 -114.1893 -1439.417 322.7269 -39.04268 -1482.803 322.7269 47.72913 -1482.803 322.7268 122.8756 -1439.417 322.7269 166.2616 -1364.27 322.7269 166.2616 -1277.499 322.7269 122.8757 -1202.352 322.7269 47.7291 -1158.966 322.7269 -39.04273 -1158.966 322.7269 -65.99245 -1280.276 285.9671 -65.99245 -1361.493 285.9671 4.343195 -1402.101 285.9671 74.67879 -1361.493 285.9671 74.6788 -1280.276 285.9671 4.343178 -1239.668 285.9671 -20.20656 -1123.73 544.8777 -20.20656 -1123.73 372.5881 28.89298 -1123.73 372.5881 28.89301 -1123.73 544.8777 187.3583 -1398.2 544.8777 187.3583 -1398.2 372.588 162.8084 -1440.722 372.588 162.8086 -1440.722 544.8778 -154.1219 -1440.722 544.8779 -154.122 -1440.722 372.5882 -178.6718 -1398.2 372.5883 -178.6717 -1398.2 544.8778 -221.7257 -1517.787 509.6395 -221.7257 -1473.382 778.9263 -221.7258 -1176.737 512.243 -221.7257 -1131.86 648.7896 -221.7257 -1473.382 439.8529 -221.7258 -1131.86 569.9897 -221.7258 -1176.737 706.5361 -221.7258 -1517.787 709.1398 -221.7257 -1399.164 802.1843 -221.7258 -1399.164 416.5949 230.412 -1517.787 709.1397 230.4121 -1517.787 509.6395 230.4121 -1131.86 569.9894 230.4121 -1131.86 648.7892 230.4121 -1399.164 416.595 230.4121 -1176.737 512.2429 230.412 -1176.737 706.536 230.4121 -1399.164 802.1843 230.4121 -1473.382 439.853 230.4121 -1473.382 778.9261 -221.7257 -1287.95 508.9851 -221.7258 -1287.95 709.7942 230.4121 -1287.95 508.9851 230.412 -1287.95 709.7941</float_array>
          <technique_common>
            <accessor source="#geom-spare_part_flesher_02-positions-array" count="132" stride="3">
              <param name="X" type="float"/>
              <param name="Y" type="float"/>
              <param name="Z" type="float"/>
            </accessor>
          </technique_common>
        </source>
        <source id="geom-spare_part_flesher_02-normals">
          <float_array id="geom-spare_part_flesher_02-normals-array" count="600">-0.9659255 0.2588202 0 -0.7071065 0.7071072 1.4823e-8 -0.9659255 0.2588202 -5.92919e-8 -0.642433 0.7663419 3.48897e-8 -0.7071064 0.7071072 0 0.6517734 0.7584139 -2.28169e-8 0.7071063 0.7071072 -5.21804e-9 0.6424331 0.7663417 -1.11136e-8 0.9659255 0.2588203 0 0.7071064 0.7071071 0 0.9659256 0.2588202 0 0.9826925 0.185244 0 0.3309143 -0.9436609 1.05745e-8 0.258821 -0.9659253 -1.03315e-8 0.258821 -0.9659253 -2.91995e-9 0.3424506 -0.9395359 0 -0.2588208 -0.9659254 -1.48231e-8 -0.2588208 -0.9659254 0 -0.3309143 -0.9436609 -2.64186e-8 -0.3424508 -0.9395357 -7.13657e-9 -0.982693 0.1852419 -3.41482e-8 -0.9848886 0.1731894 -1.57257e-7 -0.201453 -0.1163087 0.9725683 0.2014531 -0.1163086 0.9725682 -0.2014533 0.1163094 0.9725681 -0.4690082 0.8831938 3.11532e-8 0.4690082 0.8831938 -1.78428e-8 -0.4878877 0.8729064 3.82979e-8 0.530358 -0.8477738 5.47605e-8 0.5120089 -0.8589801 1.56865e-7 0.999903 -0.0139279 1.26904e-7 0.9993725 -0.03542182 0 -0.9993723 -0.0354237 0 -0.9999029 -0.01393018 -8.11835e-8 -0.5120087 -0.8589802 0 -0.5303581 -0.8477737 -5.27814e-9 -0.6954572 0.6954557 0.1807776 -0.9500097 0.2545574 0.1807819 -0.7784309 0.2026549 0.5941181 -0.5647211 0.572814 0.5941163 -0.8717107 -0.250235 0.421311 -0.7784311 -0.202655 0.5941177 -0.6525657 -0.629806 0.4213104 -0.564721 -0.5728151 0.5941154 -0.2545564 -0.9500108 0.180777 -0.2137116 -0.7754694 0.5941166 0.2545557 -0.9500113 0.1807761 0.213711 -0.7754693 0.594117 0.6525672 -0.6298039 0.4213111 0.564723 -0.5728134 0.5941152 0.871709 -0.2502356 0.4213141 0.7784312 -0.2026542 0.594118 0.9500104 0.2545564 0.1807797 0.7784311 0.202654 0.5941181 0.6954558 0.6954574 0.1807768 0.5647203 0.5728152 0.5941159 0.2191464 0.8800391 0.4213148 0.2137107 0.7754686 0.5941179 -0.2191455 0.8800396 0.421314 -0.2137102 0.7754685 0.5941182 -7.38119e-8 -0.2326172 0.9725684 0.2014532 0.1163093 0.9725681 -9.84159e-8 0.2326188 0.972568 -0.6517733 0.7584139 4.763e-8 0 0.2278686 0.9736919 0 0.2278686 0.9736919 -6.55311e-7 0.4106439 -0.9117958 -2.12053e-7 0.4106448 -0.9117954 -1.13344e-6 0.4106429 -0.9117963 0.9848882 0.173191 0 0.1973413 -0.1139345 0.9736916 0.1973432 -0.1139348 0.9736912 -0.1973435 -0.1139366 0.9736909 -0.1973412 -0.1139337 0.9736917 -0.9659255 0.2588201 1.43156e-7 -0.9659255 0.2588204 2.36066e-7 -0.7071065 0.7071071 4.67993e-8 -0.6424332 0.7663417 8.45757e-8 -0.6517733 0.7584139 3.31596e-8 0.6517735 0.7584137 9.17949e-7 0.6424338 0.7663413 1.67009e-7 0.7071064 0.7071071 2.2603e-7 0.9659255 0.2588204 -1.496e-7 0.9659255 0.2588198 -3.19533e-7 0.9826925 0.1852438 -1.56907e-7 0.3309152 -0.9436605 6.38922e-8 0.3424506 -0.9395358 5.45384e-7 0.2588208 -0.9659253 1.72827e-7 0.2588204 -0.9659255 -1.03315e-8 -0.2588209 -0.9659253 4.1326e-8 -0.2588205 -0.9659255 2.46719e-7 -0.3424506 -0.9395359 1.87771e-7 -0.3309155 -0.9436604 6.55535e-7 -0.9826929 0.1852422 2.59751e-7 -0.201453 -0.1163089 -0.9725682 -0.2014529 0.1163093 -0.9725681 0.201453 -0.1163086 -0.9725683 -0.4690082 0.8831939 1.03844e-8 -0.4878879 0.8729063 3.6746e-8 0.4690088 0.8831935 3.66038e-7 0.5303591 -0.8477731 -1.23213e-7 0.9993724 -0.03542272 -7.75504e-8 0.999903 -0.01392844 -2.85533e-7 0.5120095 -0.8589798 -1.45488e-8 -0.9993723 -0.0354235 1.77018e-7 -0.5303589 -0.8477733 4.26599e-7 -0.5120087 -0.8589803 9.06919e-8 -0.999903 -0.0139304 2.49419e-7 -0.6954574 0.6954558 -0.1807769 -0.564721 0.572814 -0.5941164 -0.7784313 0.2026552 -0.5941176 -0.9500102 0.2545567 -0.1807801 -0.7784315 -0.2026554 -0.5941172 -0.8717111 -0.2502352 -0.4213102 -0.5647211 -0.5728148 -0.5941156 -0.6525658 -0.6298058 -0.4213104 -0.2137118 -0.7754693 -0.5941167 -0.2545564 -0.9500109 -0.1807773 0.2137111 -0.7754692 -0.5941171 0.2545557 -0.9500111 -0.1807768 0.5647218 -0.5728132 -0.5941165 0.6525658 -0.6298043 -0.4213127 0.7784312 -0.2026546 -0.5941177 0.8717095 -0.2502352 -0.4213134 0.7784309 0.2026552 -0.594118 0.9500102 0.2545563 -0.1807807 0.5647197 0.5728132 -0.5941184 0.6954556 0.6954565 -0.1807813 0.2137109 0.7754679 -0.594119 0.2191461 0.880039 -0.421315 -0.2137099 0.7754682 -0.5941189 -0.2191456 0.8800398 -0.4213136 -2.65723e-7 -0.2326177 -0.9725683 0.2014529 0.1163098 -0.9725682 3.05089e-7 0.2326175 -0.9725683 -2.1046e-7 0.2278692 -0.9736918 4.64406e-7 0.4106432 0.9117961 8.94937e-7 0.4106442 0.9117957 1.1009e-6 0.4106445 0.9117955 0.9848883 0.1731907 -1.01368e-7 0.1973442 -0.1139343 -0.973691 0.1973405 -0.1139338 -0.9736918 -0.1973431 -0.1139334 -0.9736914 -0.1973458 -0.113937 -0.9736905 -0.9848885 0.17319 3.14515e-7 7.54784e-8 -0.9601266 0.2795655 7.54784e-8 -0.9601266 0.2795655 6.67838e-8 -0.9601268 -0.2795652 0 -0.9601266 -0.2795655 2.1892e-7 0.9459392 0.3243439 -9.6508e-8 0.9459388 -0.3243451 -1.75136e-7 0.945939 -0.3243445 1.00978e-7 0.9459389 0.3243448 -1.20803e-7 0.3534405 -0.935457 4.40958e-8 0.353441 -0.9354568 -1.96711e-7 0.4526389 -0.8916938 -2.40744e-7 0.452638 -0.8916944 2.08463e-7 0.3534415 0.9354566 2.52559e-7 0.3534414 0.9354566 2.45281e-7 0.1935345 0.9810934 1.3244e-7 0.1935342 0.9810935 3.6408e-7 0.4526398 0.8916934 2.40744e-7 0.452639 0.8916938 -1 -4.13409e-8 -3.3909e-8 -1 -3.15735e-7 0 -1 2.55968e-8 4.15878e-8 -1 -4.3891e-8 7.91453e-8 1.53159e-7 -0.6082844 0.7937192 2.14292e-7 -0.6082842 0.7937194 1.50354e-7 0.1935344 -0.9810934 1.46027e-7 -0.6082842 -0.7937193 1.53159e-7 -0.6082841 -0.7937194 1.3244e-7 0.1935349 -0.9810934 -1 3.19185e-8 -7.45119e-8 -1 2.89281e-7 -1.45103e-7 -1 2.9439e-8 -4.85445e-9 -1 4.6383e-7 -7.6485e-8 -1 -1.51633e-8 -2.2023e-8 -1 8.38365e-7 3.8728e-7 -1 1.9177e-8 1.18051e-7 -1 -4.19595e-7 7.85349e-8 1 2.41009e-8 5.47438e-8 1 1.68425e-7 0 1 -2.2986e-7 3.79037e-8 1 0 0 1 -1.1537e-7 2.2796e-7 1 1.13162e-7 7.36626e-8 1 -8.83174e-8 1.45634e-8 1 -1.39149e-6 2.29455e-7 1 -2.58387e-7 6.66159e-8 1 -9.44577e-8 1.50404e-7 1 -1.31642e-7 6.84834e-8 1 -3.40018e-7 0 -0.7071064 0.7071071 1.69356e-7 0.7071055 0.7071081 0 0.48789 0.8729051 -8.64197e-8 -1.21039e-6 0.2278716 -0.9736912 0 0.4106423 0.9117966 0.4878879 0.8729063 -1.08024e-8 0 0.4106452 -0.9117952</float_array>
          <technique_common>
            <accessor source="#geom-spare_part_flesher_02-normals-array" count="200" stride="3">
              <param name="X" type="float"/>
              <param name="Y" type="float"/>
              <param name="Z" type="float"/>
            </accessor>
          </technique_common>
        </source>
        <source id="geom-spare_part_flesher_02-map1">
          <float_array id="geom-spare_part_flesher_02-map1-array" count="618">0.6917526 0.3629492 0 0.6576515 0.3627781 0 0.692538 0.3252234 0 0.7245567 0.5436202 0 0.7245567 0.5921432 0 0.2488557 0.8196288 0 0.2874763 0.8196288 0 0.3067857 0.8933963 0 0.3318953 0.8196288 0 0.3512046 0.8196288 0 0.370514 0.8196288 0 0.3898233 0.893396 0 0.4149368 0.8196287 0 0.4342442 0.8196287 0 0.4535535 0.8196287 0 0.4728629 0.893396 0 0.2237461 0.8933963 0 0.268165 0.8196288 0 0.2237461 0.8196288 0 0.2874763 0.8933963 0 0.268165 0.8933963 0 0.7115714 0.2726426 0 0.3067857 0.8196288 0 0.724655 0.3192983 0 0.7156609 0.3237085 0 0.7050265 0.2859465 0 0.7235615 0.3732111 0 0.7149722 0.3667608 0 0.7105112 0.4157623 0 0.7037489 0.4031302 0 0.6874369 0.4421505 0 0.6850812 0.423801 0 0.6611368 0.4416862 0 0.6636829 0.4234467 0 0.6382768 0.4143085 0 0.6451959 0.4021284 0 0.6258394 0.3708531 0 0.634444 0.3652457 0 0.6263803 0.3168795 0 0.6353652 0.322157 0 0.6401069 0.271262 0 0.3512046 0.8933963 0 0.3318953 0.8933963 0 0.6464919 0.2849325 0 0.370514 0.8933963 0 0.6635861 0.2461319 0 0.3898233 0.8196287 0 0.6652595 0.2644817 0 0.6883036 0.246584 0 0.6864462 0.2648359 0 0.6746009 0.3812378 0 0.4342442 0.893396 0 0.6585486 0.3250159 0 0.6756399 0.306935 0 0.6698864 0.2320459 0 0.6821331 0.2322659 0 0.7318255 0.5547792 0 0.7318255 0.5809841 0 0.62905 0.410399 0 0.6229159 0.3889588 0 0.7262254 0.3914509 0 0.7197682 0.4124882 0 0.4149368 0.893396 0 0.4535535 0.893396 0 0.4728629 0.8196287 0 0.2488557 0.8933963 0 0.3141265 0.822113 0 0.3245544 0.822113 0 0.3245544 0.888615 0 0.3141265 0.888615 0 0.3971661 0.8221129 0 0.407596 0.8221129 0 0.407596 0.8886149 0 0.3971661 0.8886149 0 0.2310869 0.822113 0 0.2415148 0.822113 0 0.2415148 0.888615 0 0.2310869 0.888615 0 0.6917586 0.1458239 0 0.6576544 0.145659 0 0.692538 0.1081106 0 0.9658012 0.6429757 0 0.9658012 0.5985835 0 0.03262493 0.5708279 0 0.07124362 0.5708279 0 0.09054914 0.644595 0 0.1156606 0.5708279 0 0.1349739 0.5708279 0 0.1542794 0.5708279 0 0.1735926 0.644595 0 0.1987041 0.5708279 0 0.2180096 0.5708279 0 0.2373228 0.5708279 0 0.2566283 0.644595 0 0.007509554 0.644595 0 0.05193041 0.5708279 0 0.007509554 0.5708279 0 0.07124362 0.644595 0 0.05193041 0.644595 0 0.7115773 0.05551732 0 0.09054914 0.5708279 0 0.7246609 0.1021732 0 0.7156609 0.1065896 0 0.7050294 0.06882143 0 0.7235553 0.1560859 0 0.7149659 0.1496354 0 0.7105083 0.1986369 0 0.7037431 0.1860111 0 0.6874399 0.2250254 0 0.6850779 0.2066819 0 0.6611335 0.2245672 0 0.6636829 0.2063336 0 0.6382768 0.1971894 0 0.6451991 0.1850154 0 0.6258456 0.1537282 0 0.6344411 0.1481145 0 0.6263832 0.09975423 0 0.6353652 0.105038 0 0.640101 0.05413064 0 0.1349739 0.644595 0 0.1156606 0.644595 0 0.6464977 0.06781352 0 0.1542794 0.644595 0 0.6635861 0.0290189 0 0.1735926 0.5708279 0 0.6652534 0.04737489 0 0.6883036 0.0294527 0 0.6864491 0.04771677 0 0.6746038 0.1641126 0 0.2180096 0.644595 0 0.6585486 0.1078968 0 0.6756368 0.08980366 0 0.6698864 0.014933 0 0.6821303 0.01514692 0 0.9590858 0.6327654 0 0.9590858 0.6087939 0 0.6290471 0.193286 0 0.6229159 0.1718457 0 0.7262254 0.1743256 0 0.7197741 0.1953752 0 0.1987041 0.644595 0 0.2373228 0.644595 0 0.2566283 0.5708278 0 0.03262493 0.644595 0 0.09789382 0.5733144 0 0.1083236 0.5733141 0 0.1083236 0.6398106 0 0.09789382 0.6398106 0 0.1809295 0.5733141 0 0.1913594 0.5733141 0 0.1913594 0.6398106 0 0.1809295 0.6398106 0 0.01485428 0.5733144 0 0.02528019 0.5733144 0 0.02528019 0.6398106 0 0.01485428 0.6398106 0 0.6842631 0.8841658 0 0.6040267 0.8841658 0 0.6088665 0.9150779 0 0.6794232 0.9150779 0 0.6650378 0.8378451 0 0.623252 0.8378451 0 0.4125047 0.5708278 0 0.4450383 0.5708278 0 0.6233882 0.9335729 0 0.4589545 0.5708278 0 0.4728629 0.5708278 0 0.6649016 0.9335729 0 0.6643598 0.7915244 0 0.303966 0.5708278 0 0.3163803 0.5708278 0 0.6523435 0.7728332 0 0.6359463 0.7728332 0 0.3292325 0.5708278 0 0.62393 0.7915244 0 1.684263 0.8841658 0 0.2609327 0.5708278 0 1.679423 0.9150779 0 1.608866 0.9150779 0 1.604027 0.8841658 0 1.623252 0.8378451 0 0.3416468 0.5708278 0 1.665038 0.8378451 0 1.664902 0.9335729 0 1.623388 0.9335729 0 0.4450383 0.7346258 0 0.2609327 0.734626 0 0.4125047 0.7346258 0 0.3846801 0.5708278 0 0.3292325 0.734626 0 0.3163803 0.734626 0 0.3846801 0.7346258 0 0.3416468 0.734626 0 0.303966 0.734626 0 0.4728629 0.7346258 0 0.3985905 0.5708278 0 0.4589545 0.7346258 0 0.3985905 0.7346258 0 1.66436 0.7915244 0 0.3631635 0.7346259 0 1.62393 0.7915244 0 0.2824494 0.734626 0 1.635946 0.7728332 0 0.3631634 0.5708278 0 1.652344 0.7728332 0 0.2824494 0.5708278 0</float_array>
          <technique_common>
            <accessor source="#geom-spare_part_flesher_02-map1-array" count="206" stride="3">
              <param name="S" type="float"/>
              <param name="T" type="float"/>
              <param name="P" type="float"/>
            </accessor>
          </technique_common>
        </source>
        <vertices id="geom-spare_part_flesher_02-vertices">
          <input semantic="POSITION" source="#geom-spare_part_flesher_02-positions"/>
        </vertices>
        <triangles material="_8_-_Default_1" count="224">
          <input semantic="VERTEX" source="#geom-spare_part_flesher_02-vertices" offset="0"/>
          <input semantic="NORMAL" source="#geom-spare_part_flesher_02-normals" offset="1"/>
          <input semantic="TEXCOORD" source="#geom-spare_part_flesher_02-map1" offset="2" set="0"/>
          <p>0 0 17 1 1 6 12 2 20 1 1 6 14 3 7 13 4 19 3 5 8 4 6 9 15 7 42 4 6 9 17 8 44 16 9 41 5 10 10 6 11 46 17 8 44 7 12 12 8 13 13 20 14 51 20 14 51 19 15 62 7 12 12 8 13 13 9 16 14 21 17 63 21 17 63 20 14 51 8 13 13 9 16 14 10 18 64 22 19 15 22 19 15 21 17 63 9 16 14 11 20 5 12 2 20 23 21 65 37 22 0 39 23 1 36 24 2 43 25 66 44 26 67 42 27 69 48 28 71 49 29 72 46 30 73 46 30 73 47 31 70 48 28 71 52 32 75 53 33 76 50 34 77 50 34 77 51 35 74 52 32 75 1 36 21 0 37 23 25 38 24 25 38 24 24 39 25 1 36 21 0 37 23 11 40 26 26 41 27 26 41 27 25 38 24 0 37 23 11 40 26 10 42 28 27 43 29 27 43 29 26 41 27 11 40 26 10 42 28 9 44 30 28 45 31 28 45 31 27 43 29 10 42 28 9 44 30 8 46 32 29 47 33 29 47 33 28 45 31 9 44 30 8 46 32 7 48 34 30 49 35 30 49 35 29 47 33 8 46 32 7 48 34 6 50 36 31 51 37 31 51 37 30 49 35 7 48 34 6 50 36 5 52 38 32 53 39 32 53 39 31 51 37 6 50 36 5 52 38 4 54 40 33 55 43 33 55 43 32 53 39 5 52 38 4 54 40 3 56 45 34 57 47 34 57 47 33 55 43 4 54 40 3 56 45 2 58 48 35 59 49 35 59 49 34 57 47 3 56 45 2 58 48 1 36 21 24 39 25 24 39 25 35 59 49 2 58 48 24 39 25 25 38 24 36 24 2 25 38 24 26 41 27 37 22 0 37 22 0 36 24 2 25 38 24 26 41 27 27 43 29 37 22 0 27 43 29 28 45 31 38 60 50 38 60 50 37 22 0 27 43 29 28 45 31 29 47 33 38 60 50 29 47 33 30 49 35 39 23 1 39 23 1 38 60 50 29 47 33 30 49 35 31 51 37 39 23 1 31 51 37 40 61 52 39 23 1 32 53 39 33 55 43 40 61 52 33 55 43 34 57 47 41 62 53 41 62 53 40 61 52 33 55 43 34 57 47 35 59 49 41 62 53 35 59 49 24 39 25 36 24 2 36 24 2 41 62 53 35 59 49 40 61 52 41 62 53 36 24 2 37 22 0 38 60 50 39 23 1 39 23 1 40 61 52 36 24 2 31 51 37 32 53 39 40 61 52 14 3 7 2 63 22 42 27 69 2 58 48 44 64 54 43 65 55 3 5 8 15 7 42 44 26 67 15 66 4 42 67 56 45 68 57 18 69 11 6 11 46 47 31 70 47 31 70 46 30 73 18 69 11 6 50 36 7 48 34 48 70 58 48 70 58 47 71 59 6 50 36 7 12 12 19 15 62 49 29 72 49 29 72 48 28 71 7 12 12 22 19 16 10 18 18 51 35 74 51 35 74 50 34 77 22 19 16 10 42 28 11 40 26 52 72 60 52 72 60 51 73 61 10 42 28 11 20 5 23 21 65 53 33 76 53 33 76 52 32 75 11 20 5 54 74 95 66 75 98 55 76 84 55 76 84 68 77 85 56 78 100 57 79 86 69 80 120 58 81 87 58 81 87 71 82 122 59 83 88 59 83 88 71 82 122 60 84 124 61 85 90 73 86 140 74 87 129 74 87 129 62 88 91 61 85 90 62 88 91 74 87 129 75 89 141 75 89 141 63 90 92 62 88 91 63 90 92 75 89 141 76 91 93 76 91 93 64 92 142 63 90 92 65 93 83 66 75 98 54 74 95 91 94 78 90 95 80 93 96 79 97 97 144 96 98 147 98 99 145 102 100 149 101 101 148 100 102 151 100 102 151 103 103 150 102 100 149 106 104 153 105 105 152 104 106 155 104 106 155 107 107 154 106 104 153 55 108 99 78 109 103 79 110 102 79 110 102 54 111 101 55 108 99 54 111 101 79 110 102 80 112 105 80 112 105 65 113 104 54 111 101 65 113 104 80 112 105 81 114 107 81 114 107 64 115 106 65 113 104 64 115 106 81 114 107 82 116 109 82 116 109 63 117 108 64 115 106 63 117 108 82 116 109 83 118 111 83 118 111 62 119 110 63 117 108 62 119 110 83 118 111 84 120 113 84 120 113 61 121 112 62 119 110 61 121 112 84 120 113 85 122 115 85 122 115 60 123 114 61 121 112 60 123 114 85 122 115 86 124 117 86 124 117 59 125 116 60 123 114 59 125 116 86 124 117 87 126 121 87 126 121 58 127 118 59 125 116 58 127 118 87 126 121 88 128 125 88 128 125 57 129 123 58 127 118 57 129 123 88 128 125 89 130 127 89 130 127 56 131 126 57 129 123 56 131 126 89 130 127 78 109 103 78 109 103 55 108 99 56 131 126 78 109 103 90 95 80 79 110 102 79 110 102 90 95 80 91 94 78 91 94 78 80 112 105 79 110 102 80 112 105 91 94 78 81 114 107 81 114 107 91 94 78 92 132 128 92 132 128 82 116 109 81 114 107 82 116 109 92 132 128 83 118 111 83 118 111 92 132 128 93 96 79 93 96 79 84 120 113 83 118 111 84 120 113 93 96 79 85 122 115 85 122 115 93 96 79 94 133 130 86 124 117 94 133 130 87 126 121 87 126 121 94 133 130 95 134 131 95 134 131 88 128 125 87 126 121 88 128 125 95 134 131 89 130 127 89 130 127 95 134 131 90 95 80 90 95 80 78 109 103 89 130 127 94 133 130 90 95 80 95 134 131 91 94 78 93 96 79 92 132 128 93 96 79 90 95 80 94 133 130 85 122 115 94 133 130 86 124 117 68 77 85 96 98 147 56 78 100 56 131 126 98 135 132 57 129 123 57 79 86 98 99 145 69 80 120 69 136 82 96 137 134 68 138 81 72 139 89 100 102 151 101 101 148 101 101 148 60 84 124 72 139 89 60 123 114 101 140 137 102 141 136 102 141 136 61 121 112 60 123 114 61 85 90 102 100 149 103 103 150 103 103 150 73 86 140 61 85 90 76 91 94 104 106 155 105 105 152 105 105 152 64 92 96 76 91 94 64 115 106 105 142 139 106 143 138 106 143 138 65 113 104 64 115 106 65 93 83 106 104 153 107 107 154 107 107 154 77 144 143 65 93 83 118 145 163 115 146 185 108 147 187 108 147 187 119 148 162 118 145 163 121 149 170 120 150 173 113 151 189 113 151 189 111 152 190 121 149 170 130 153 203 128 154 199 110 155 192 110 155 192 123 156 181 130 153 203 131 157 205 129 158 201 116 159 186 116 159 186 125 160 176 131 157 205 124 161 169 121 149 170 111 152 190 111 152 190 114 162 193 124 161 169 120 150 173 123 156 181 110 155 192 110 155 192 113 151 189 120 150 173 117 163 157 112 164 158 109 165 159 109 165 159 116 166 156 117 163 157 118 145 163 127 167 165 109 168 196 109 168 196 115 146 185 118 145 163 122 169 188 126 170 195 112 171 197 112 171 197 117 172 191 122 169 188 129 173 160 128 174 161 117 163 157 117 163 157 116 166 156 129 173 160 108 175 164 115 176 167 109 165 159 109 165 159 112 164 158 108 175 164 114 177 168 111 178 171 113 179 172 113 179 172 110 180 174 114 177 168 122 181 179 125 182 175 127 183 177 127 183 177 126 184 178 122 181 179 108 147 187 112 171 197 126 170 195 126 170 195 119 148 162 108 147 187 127 167 165 125 160 166 116 159 194 116 159 194 109 168 196 127 167 165 122 181 179 130 185 180 131 186 182 131 186 182 125 182 175 122 181 179 119 187 184 126 184 178 127 183 177 127 183 177 118 188 183 119 187 184 124 189 198 123 190 200 120 191 202 120 191 202 121 192 204 124 189 198 122 169 188 117 172 191 128 154 199 128 154 199 130 153 203 122 169 188 124 161 169 114 162 193 129 158 201 129 158 201 131 157 205 124 161 169 114 177 168 110 180 174 128 174 161 128 174 161 129 173 160 114 177 168 123 190 200 124 189 198 131 186 182 131 186 182 130 185 180 123 190 200 1 1 6 13 4 19 12 2 20 1 1 6 2 63 22 14 3 7 11 20 5 0 0 17 12 2 20 66 75 98 67 193 97 55 76 84 55 76 84 67 193 97 68 77 85 65 93 83 77 144 143 66 75 98 4 6 9 16 9 41 15 7 42 4 6 9 5 10 10 17 8 44 6 11 46 18 69 11 17 8 44 69 80 120 70 194 119 58 81 87 58 81 87 70 194 119 71 82 122 71 82 122 72 139 89 60 84 124 96 98 147 99 195 146 98 99 145 96 98 147 97 97 144 56 78 100 56 131 126 97 196 133 98 135 132 98 99 145 99 195 146 69 80 120 69 136 82 99 197 135 96 137 134 44 26 67 45 198 68 42 27 69 2 63 22 43 25 66 42 27 69 2 58 48 3 56 45 44 64 54 15 7 42 45 198 68 44 26 67 15 66 4 14 199 3 42 67 56</p>
        </triangles>
      </mesh>
    </geometry>
  </library_geometries>
  <library_lights>
    <light id="EnvironmentAmbientLight" name="EnvironmentAmbientLight">
      <technique_common>
        <ambient>
          <color>0 0 0</color>
        </ambient>
      </technique_common>
    </light>
  </library_lights>
  <library_images>
    <image id="spare_part_flesher_dds">
      <init_from>file:///S:/work/frictional/exports/spare_parts_flesher/originals/spare_part_flesher.dds</init_from>
    </image>
    <image id="spare_part_flesher_nrm_dds">
      <init_from>file:///S:/work/frictional/exports/spare_parts_flesher/originals/spare_part_flesher_nrm.dds</init_from>
    </image>
    <image id="spare_part_flesher_spec_dds">
      <init_from>file:///S:/work/frictional/exports/spare_parts_flesher/originals/spare_part_flesher_spec.dds</init_from>
    </image>
  </library_images>
  <library_visual_scenes>
    <visual_scene id="MaxScene">
      <node name="EnvironmentAmbientLight">
        <instance_light url="#EnvironmentAmbientLight"/>
      </node>
      <node id="node-spare_part_flesher_02" name="spare_part_flesher_02">
        <rotate>0.5773502 0.5773502 0.5773504 -240</rotate>
        <scale>0.01897507 0.01897507 0.0180877</scale>
        <node>
          <matrix>1 0 0 -4.343151 0 1 0 1320.759 0 0 1 -606.6099 0 0 0 1</matrix>
          <instance_geometry url="#geom-spare_part_flesher_02">
            <bind_material>
              <technique_common>
                <instance_material symbol="_8_-_Default_1" target="#_8_-_Default-material">
                  <bind_vertex_input semantic="CHANNEL1" input_semantic="TEXCOORD" input_set="0"/>
                  <bind_vertex_input semantic="CHANNEL1" input_semantic="TEXCOORD" input_set="0"/>
                  <bind_vertex_input semantic="CHANNEL1" input_semantic="TEXCOORD" input_set="0"/>
                </instance_material>
              </technique_common>
            </bind_material>
          </instance_geometry>
        </node>
      </node>
    </visual_scene>
  </library_visual_scenes>
  <scene>
    <instance_visual_scene url="#MaxScene"/>
  </scene>
</COLLADA>