<?xml version="1.0" encoding="utf-8" ?>
<COLLADA xmlns="http://www.collada.org/2005/11/COLLADASchema" version="1.4.1">
    <asset>
        <contributor>
            <authoring_tool>modo 601 [Build 48460], Microsoft Windows 7 Service Pack 1 (6.1.7601 Service Pack 1)</authoring_tool>
            <comments>
                Plug-in: [Build 48460];
                Use Absolute Path: No;
                Merge Reference Items: No;
                Save Hidden Items: No;
                Save Cameras: No;
                Save Lights: No;
                Save Locators: Yes;
                Save Triangles as Triangles: No;
                Bake Matrices: Yes;
                Save Vertex Normals: Yes;
                Save UV Texture Coordinates: Yes;
                Save Vertex Colors: Yes;
                Save Vertex Weights: Yes;
                Save Animation: Yes;
                Sample Animation: No;
                Sample Animation Start: 0;
                Sample Animation End: 60;
                Save modo Profile: No;
                Save Maya Profile: Yes;
                Save 3ds Max Profile: No;
                Formatted Arrays: Yes;
            </comments>
            <source_data>file:///D:/Work/My%20Dropbox/Frictional%20Games%20-%20Team/Aaron/models/entities/station/furniture/shelving_unit_lab/shelving_unit_lab.lxo</source_data>
        </contributor>
        <created>2013-04-08T10:50:55Z</created>
        <modified>2013-04-08T10:50:55Z</modified>
        <unit name="game" meter="1" />
        <up_axis>Y_UP</up_axis>
    </asset>
    <library_images>
        <image id="Image0001" name="Image0001">
            <init_from>file:///D:/Work/My%20Dropbox/Frictional%20Games%20-%20Team/Aaron/models/entities/station/furniture/table_lab/table_lab.psd</init_from>
        </image>
    </library_images>
    <library_materials>
        <material id="Material-Default" name="Default">
            <instance_effect url="#Effect-Default" />
        </material>
    </library_materials>
    <library_effects>
        <effect id="Effect-Default" name="Default">
            <profile_COMMON>
                <newparam sid="Image0001-surface">
                    <surface type="2D">
                        <init_from>Image0001</init_from>
                        <format>A8R8G8B8</format>
                    </surface>
                </newparam>
                <newparam sid="Image0001-sampler">
                    <sampler2D>
                        <source>Image0001-surface</source>
                        <minfilter>LINEAR_MIPMAP_LINEAR</minfilter>
                        <magfilter>LINEAR</magfilter>
                    </sampler2D>
                </newparam>
                <technique sid="common">
                    <phong>
                        <diffuse>
                            <texture texture="Image0001-sampler" texcoord="Texture" />
                        </diffuse>
                        <specular>
                            <color sid="specular_effect_rgb">0.2 0.2 0.2 1</color>
                        </specular>
                        <shininess>
                            <float sid="specular_effect_rgb">256</float>
                        </shininess>
                    </phong>
                </technique>
            </profile_COMMON>
        </effect>
    </library_effects>
    <library_geometries>
        <geometry id="Geometry-Mesh" name="Mesh">
            <mesh>
                <source id="Geometry-Mesh-positions" name="positions">
                    <float_array id="Geometry-Mesh-positions-array" count="1206">
                        -0.82696 2.69945 0.47749
                        -0.82696 2.77557 0.47749
                        -0.709196 2.69945 0.35973
                        -0.709196 2.65912 0.35973
                        0.709196 2.69945 0.35973
                        0.709196 2.65912 0.35973
                        0.82696 2.69945 0.47749
                        0.82696 2.77557 0.47749
                        -0.82696 2.69945 -0.47749
                        -0.82696 2.77557 -0.47749
                        -0.709196 2.69945 -0.35972
                        -0.709196 2.65912 -0.35972
                        0.709196 2.69945 -0.35972
                        0.709196 2.65912 -0.35972
                        0.82696 2.69945 -0.47749
                        0.82696 2.77557 -0.47749
                        -0.82696 1.94945 0.47749
                        -0.82696 2.02557 0.47749
                        -0.709196 1.94945 0.35973
                        -0.709196 1.90912 0.35973
                        0.709196 1.94945 0.35973
                        0.709196 1.90912 0.35973
                        0.82696 1.94945 0.47749
                        0.82696 2.02557 0.47749
                        -0.82696 1.94945 -0.47749
                        -0.82696 2.02557 -0.47749
                        -0.709196 1.94945 -0.35972
                        -0.709196 1.90912 -0.35972
                        0.709196 1.94945 -0.35972
                        0.709196 1.90912 -0.35972
                        0.82696 1.94945 -0.47749
                        0.82696 2.02557 -0.47749
                        -0.82696 1.1682 0.47749
                        -0.82696 1.24432 0.47749
                        -0.709196 1.1682 0.35973
                        -0.709196 1.12787 0.35973
                        0.709196 1.1682 0.35973
                        0.709196 1.12787 0.35973
                        0.82696 1.1682 0.47749
                        0.82696 1.24432 0.47749
                        -0.73058 -0.00025773 0.448289
                        -0.783384 -0.00025773 0.448289
                        -0.73058 -0.00025773 0.393507
                        -0.783384 -0.00025773 0.393507
                        -0.73058 0.388898 0.448289
                        -0.783384 0.388898 0.448289
                        -0.73058 0.388898 0.393507
                        -0.783384 0.388898 0.393507
                        -0.73058 2.01513 0.448289
                        -0.783384 2.01513 0.448289
                        -0.73058 2.01513 0.393507
                        -0.783384 2.01513 0.393507
                        -0.73058 2.07595 0.448289
                        -0.783384 2.07595 0.448289
                        -0.73058 2.07595 0.393507
                        -0.783384 2.07595 0.393507
                        -0.73058 2.10734 0.448289
                        -0.783384 2.10734 0.448289
                        -0.73058 2.10734 0.393507
                        -0.783384 2.10734 0.393507
                        -0.73058 2.50902 0.448289
                        -0.783384 2.50902 0.448289
                        -0.73058 2.50902 0.393507
                        -0.783384 2.50902 0.393507
                        -0.73058 2.7263 0.448289
                        -0.783384 2.7263 0.448289
                        -0.73058 2.7263 0.393507
                        -0.783384 2.7263 0.393507
                        -0.82696 1.1682 -0.47749
                        -0.82696 1.24432 -0.47749
                        -0.709196 1.1682 -0.35972
                        -0.709196 1.12787 -0.35972
                        0.709196 1.1682 -0.35972
                        0.709196 1.12787 -0.35972
                        0.82696 1.1682 -0.47749
                        0.82696 1.24432 -0.47749
                        -0.82696 0.386945 0.47749
                        -0.82696 0.463073 0.47749
                        -0.709196 0.386945 0.35973
                        -0.709196 0.346615 0.35973
                        0.709196 0.386945 0.35973
                        0.709196 0.346615 0.35973
                        0.82696 0.386945 0.47749
                        0.82696 0.463073 0.47749
                        -0.82696 0.386945 -0.47749
                        -0.82696 0.463073 -0.47749
                        -0.709196 0.386945 -0.35972
                        -0.709196 0.346615 -0.35972
                        0.709196 0.386945 -0.35972
                        0.709196 0.346615 -0.35972
                        0.82696 0.386945 -0.47749
                        0.82696 0.463073 -0.47749
                        -0.73058 -0.00025773 -0.448289
                        -0.783384 -0.00025773 -0.448289
                        -0.73058 -0.00025773 -0.393507
                        -0.783384 -0.00025773 -0.393507
                        -0.73058 0.388898 -0.448289
                        -0.783384 0.388898 -0.448289
                        -0.73058 0.388898 -0.393507
                        -0.783384 0.388898 -0.393507
                        -0.73058 2.01513 -0.448289
                        -0.783384 2.01513 -0.448289
                        -0.73058 2.01513 -0.393507
                        -0.783384 2.01513 -0.393507
                        -0.73058 2.07595 -0.448289
                        -0.783384 2.07595 -0.448289
                        -0.73058 2.07595 -0.393507
                        -0.783384 2.07595 -0.393507
                        -0.73058 2.10734 -0.448289
                        -0.783384 2.10734 -0.448289
                        -0.73058 2.10734 -0.393507
                        -0.783384 2.10734 -0.393507
                        -0.73058 2.50902 -0.448289
                        -0.783384 2.50902 -0.448289
                        -0.73058 2.50902 -0.393507
                        -0.783384 2.50902 -0.393507
                        -0.73058 2.7263 -0.448289
                        -0.783384 2.7263 -0.448289
                        -0.73058 2.7263 -0.393507
                        -0.783384 2.7263 -0.393507
                        0.73058 -0.00025773 0.448289
                        0.783384 -0.00025773 0.448289
                        0.73058 -0.00025773 0.393507
                        0.783384 -0.00025773 0.393507
                        0.73058 0.388898 0.448289
                        0.783384 0.388898 0.448289
                        0.73058 0.388898 0.393507
                        0.783384 0.388898 0.393507
                        0.73058 2.01513 0.448289
                        0.783384 2.01513 0.448289
                        0.73058 2.01513 0.393507
                        0.783384 2.01513 0.393507
                        0.73058 2.07595 0.448289
                        0.783384 2.07595 0.448289
                        0.73058 2.07595 0.393507
                        0.783384 2.07595 0.393507
                        0.73058 2.10734 0.448289
                        0.783384 2.10734 0.448289
                        0.73058 2.10734 0.393507
                        0.783384 2.10734 0.393507
                        0.73058 2.50902 0.448289
                        0.783384 2.50902 0.448289
                        0.73058 2.50902 0.393507
                        0.783384 2.50902 0.393507
                        0.73058 2.7263 0.448289
                        0.783384 2.7263 0.448289
                        0.73058 2.7263 0.393507
                        0.783384 2.7263 0.393507
                        0.73058 -0.00025773 -0.448289
                        0.783384 -0.00025773 -0.448289
                        0.73058 -0.00025773 -0.393507
                        0.783384 -0.00025773 -0.393507
                        0.73058 0.388898 -0.448289
                        0.783384 0.388898 -0.448289
                        0.73058 0.388898 -0.393507
                        0.783384 0.388898 -0.393507
                        0.73058 2.01513 -0.448289
                        0.783384 2.01513 -0.448289
                        0.73058 2.01513 -0.393507
                        0.783384 2.01513 -0.393507
                        0.73058 2.07595 -0.448289
                        0.783384 2.07595 -0.448289
                        0.73058 2.07595 -0.393507
                        0.783384 2.07595 -0.393507
                        0.73058 2.10734 -0.448289
                        0.783384 2.10734 -0.448289
                        0.73058 2.10734 -0.393507
                        0.783384 2.10734 -0.393507
                        0.73058 2.50902 -0.448289
                        0.783384 2.50902 -0.448289
                        0.73058 2.50902 -0.393507
                        0.783384 2.50902 -0.393507
                        0.73058 2.7263 -0.448289
                        0.783384 2.7263 -0.448289
                        0.73058 2.7263 -0.393507
                        0.783384 2.7263 -0.393507
                        0.760933 2.70315 -0.401125
                        0.760933 2.70315 -0.399626
                        0.760933 2.70315 -0.414947
                        0.760933 2.67301 -0.399626
                        0.760933 2.70018 -0.414947
                        0.760933 2.67301 -0.414947
                        0.760933 2.67301 -0.401219
                        -0.760934 2.071 -0.399627
                        -0.760924 2.07101 -0.414947
                        -0.760934 2.04086 -0.399626
                        -0.760924 2.04087 -0.414947
                        -0.760933 2.70315 -0.428957
                        -0.760933 2.70315 -0.427458
                        -0.760933 2.70315 -0.442779
                        -0.760933 2.67301 -0.427458
                        -0.760933 2.70018 -0.442779
                        -0.760933 2.67301 -0.442779
                        -0.760933 2.67301 -0.429051
                        0.760934 2.071 -0.427459
                        0.760924 2.07101 -0.442779
                        0.760934 2.04086 -0.427458
                        0.760924 2.04087 -0.442779
                        0.760933 1.13674 -0.401125
                        0.760933 1.13674 -0.399626
                        0.760933 1.13674 -0.414947
                        0.760933 1.1066 -0.399626
                        0.760933 1.13377 -0.414947
                        0.760933 1.1066 -0.414947
                        0.760933 1.1066 -0.401219
                        -0.760934 0.504596 -0.399627
                        -0.760924 0.504601 -0.414947
                        -0.760934 0.474459 -0.399626
                        -0.760924 0.474463 -0.414947
                        -0.760933 1.13674 -0.428957
                        -0.760933 1.13674 -0.427458
                        -0.760933 1.13674 -0.442779
                        -0.760933 1.1066 -0.427458
                        -0.760933 1.13377 -0.442779
                        -0.760933 1.1066 -0.442779
                        -0.760933 1.1066 -0.429051
                        0.760934 0.504596 -0.427459
                        0.760924 0.504601 -0.442779
                        0.760934 0.474459 -0.427458
                        0.760924 0.474463 -0.442779
                        0.760933 1.9258 -0.401125
                        0.760933 1.9258 -0.399626
                        0.760933 1.9258 -0.414947
                        0.760933 1.89566 -0.399626
                        0.760933 1.92284 -0.414947
                        0.760933 1.89566 -0.414947
                        0.760933 1.89566 -0.401219
                        -0.760934 1.29366 -0.399627
                        -0.760924 1.29366 -0.414947
                        -0.760934 1.26352 -0.399626
                        -0.760924 1.26353 -0.414947
                        -0.760933 1.9258 -0.428957
                        -0.760933 1.9258 -0.427458
                        -0.760933 1.9258 -0.442779
                        -0.760933 1.89566 -0.427458
                        -0.760933 1.92284 -0.442779
                        -0.760933 1.89566 -0.442779
                        -0.760933 1.89566 -0.429051
                        0.760934 1.29366 -0.427459
                        0.760924 1.29366 -0.442779
                        0.760934 1.26352 -0.427458
                        0.760924 1.26353 -0.442779
                        -0.73058 0.458981 0.448289
                        -0.783384 0.458981 0.448289
                        -0.73058 0.458981 0.393507
                        -0.783384 0.458981 0.393507
                        -0.73058 0.519795 0.448289
                        -0.783384 0.519795 0.448289
                        -0.73058 0.519795 0.393507
                        -0.783384 0.519795 0.393507
                        -0.73058 0.551189 0.448289
                        -0.783384 0.551189 0.448289
                        -0.73058 0.551189 0.393507
                        -0.783384 0.551189 0.393507
                        -0.73058 0.952867 0.448289
                        -0.783384 0.952867 0.448289
                        -0.73058 0.952867 0.393507
                        -0.783384 0.952867 0.393507
                        -0.73058 1.17015 0.448289
                        -0.783384 1.17015 0.448289
                        -0.73058 1.17015 0.393507
                        -0.783384 1.17015 0.393507
                        -0.73058 0.458981 -0.448289
                        -0.783384 0.458981 -0.448289
                        -0.73058 0.458981 -0.393507
                        -0.783384 0.458981 -0.393507
                        -0.73058 0.519795 -0.448289
                        -0.783384 0.519795 -0.448289
                        -0.73058 0.519795 -0.393507
                        -0.783384 0.519795 -0.393507
                        -0.73058 0.551189 -0.448289
                        -0.783384 0.551189 -0.448289
                        -0.73058 0.551189 -0.393507
                        -0.783384 0.551189 -0.393507
                        -0.73058 0.952867 -0.448289
                        -0.783384 0.952867 -0.448289
                        -0.73058 0.952867 -0.393507
                        -0.783384 0.952867 -0.393507
                        -0.73058 1.17015 -0.448289
                        -0.783384 1.17015 -0.448289
                        -0.73058 1.17015 -0.393507
                        -0.783384 1.17015 -0.393507
                        0.73058 0.458981 0.448289
                        0.783384 0.458981 0.448289
                        0.73058 0.458981 0.393507
                        0.783384 0.458981 0.393507
                        0.73058 0.519795 0.448289
                        0.783384 0.519795 0.448289
                        0.73058 0.519795 0.393507
                        0.783384 0.519795 0.393507
                        0.73058 0.551189 0.448289
                        0.783384 0.551189 0.448289
                        0.73058 0.551189 0.393507
                        0.783384 0.551189 0.393507
                        0.73058 0.952867 0.448289
                        0.783384 0.952867 0.448289
                        0.73058 0.952867 0.393507
                        0.783384 0.952867 0.393507
                        0.73058 1.17015 0.448289
                        0.783384 1.17015 0.448289
                        0.73058 1.17015 0.393507
                        0.783384 1.17015 0.393507
                        0.73058 0.458981 -0.448289
                        0.783384 0.458981 -0.448289
                        0.73058 0.458981 -0.393507
                        0.783384 0.458981 -0.393507
                        0.73058 0.519795 -0.448289
                        0.783384 0.519795 -0.448289
                        0.73058 0.519795 -0.393507
                        0.783384 0.519795 -0.393507
                        0.73058 0.551189 -0.448289
                        0.783384 0.551189 -0.448289
                        0.73058 0.551189 -0.393507
                        0.783384 0.551189 -0.393507
                        0.73058 0.952867 -0.448289
                        0.783384 0.952867 -0.448289
                        0.73058 0.952867 -0.393507
                        0.783384 0.952867 -0.393507
                        0.73058 1.17015 -0.448289
                        0.783384 1.17015 -0.448289
                        0.73058 1.17015 -0.393507
                        0.783384 1.17015 -0.393507
                        -0.73058 1.24218 0.448289
                        -0.783384 1.24218 0.448289
                        -0.73058 1.24218 0.393507
                        -0.783384 1.24218 0.393507
                        -0.73058 1.303 0.448289
                        -0.783384 1.303 0.448289
                        -0.73058 1.303 0.393507
                        -0.783384 1.303 0.393507
                        -0.73058 1.33439 0.448289
                        -0.783384 1.33439 0.448289
                        -0.73058 1.33439 0.393507
                        -0.783384 1.33439 0.393507
                        -0.73058 1.73607 0.448289
                        -0.783384 1.73607 0.448289
                        -0.73058 1.73607 0.393507
                        -0.783384 1.73607 0.393507
                        -0.73058 1.95335 0.448289
                        -0.783384 1.95335 0.448289
                        -0.73058 1.95335 0.393507
                        -0.783384 1.95335 0.393507
                        -0.73058 1.24218 -0.448289
                        -0.783384 1.24218 -0.448289
                        -0.73058 1.24218 -0.393507
                        -0.783384 1.24218 -0.393507
                        -0.73058 1.303 -0.448289
                        -0.783384 1.303 -0.448289
                        -0.73058 1.303 -0.393507
                        -0.783384 1.303 -0.393507
                        -0.73058 1.33439 -0.448289
                        -0.783384 1.33439 -0.448289
                        -0.73058 1.33439 -0.393507
                        -0.783384 1.33439 -0.393507
                        -0.73058 1.73607 -0.448289
                        -0.783384 1.73607 -0.448289
                        -0.73058 1.73607 -0.393507
                        -0.783384 1.73607 -0.393507
                        -0.73058 1.95335 -0.448289
                        -0.783384 1.95335 -0.448289
                        -0.73058 1.95335 -0.393507
                        -0.783384 1.95335 -0.393507
                        0.73058 1.24218 0.448289
                        0.783384 1.24218 0.448289
                        0.73058 1.24218 0.393507
                        0.783384 1.24218 0.393507
                        0.73058 1.303 0.448289
                        0.783384 1.303 0.448289
                        0.73058 1.303 0.393507
                        0.783384 1.303 0.393507
                        0.73058 1.33439 0.448289
                        0.783384 1.33439 0.448289
                        0.73058 1.33439 0.393507
                        0.783384 1.33439 0.393507
                        0.73058 1.73607 0.448289
                        0.783384 1.73607 0.448289
                        0.73058 1.73607 0.393507
                        0.783384 1.73607 0.393507
                        0.73058 1.95335 0.448289
                        0.783384 1.95335 0.448289
                        0.73058 1.95335 0.393507
                        0.783384 1.95335 0.393507
                        0.73058 1.24218 -0.448289
                        0.783384 1.24218 -0.448289
                        0.73058 1.24218 -0.393507
                        0.783384 1.24218 -0.393507
                        0.73058 1.303 -0.448289
                        0.783384 1.303 -0.448289
                        0.73058 1.303 -0.393507
                        0.783384 1.303 -0.393507
                        0.73058 1.33439 -0.448289
                        0.783384 1.33439 -0.448289
                        0.73058 1.33439 -0.393507
                        0.783384 1.33439 -0.393507
                        0.73058 1.73607 -0.448289
                        0.783384 1.73607 -0.448289
                        0.73058 1.73607 -0.393507
                        0.783384 1.73607 -0.393507
                        0.73058 1.95335 -0.448289
                        0.783384 1.95335 -0.448289
                        0.73058 1.95335 -0.393507
                        0.783384 1.95335 -0.393507
                    </float_array>
                    <technique_common>
                        <accessor count="402" source="#Geometry-Mesh-positions-array" stride="3">
                            <param name="X" type="float" />
                            <param name="Y" type="float" />
                            <param name="Z" type="float" />
                        </accessor>
                    </technique_common>
                </source>
                <source id="Geometry-Mesh-normals" name="normals">
                    <float_array id="Geometry-Mesh-normals-array" count="252">
                        0 -1 0
                        0 0 1
                        0 0 -1
                        -1 0 0
                        1 0 0
                        0 1 0
                        0.383597 -0.9235 -1.53453e-005
                        0.383597 -0.9235 -7.59552e-006
                        0.383597 -0.9235 0
                        1.60597e-006 -3.46315e-006 -1
                        4.40874e-006 -1.00482e-005 -1
                        9.71302e-007 -1.73363e-006 -1
                        -0.383598 0.9235 2.25555e-005
                        -0.383598 0.9235 0
                        -0.383598 0.9235 1.81412e-005
                        -0.383597 -0.9235 -1.53698e-005
                        -0.383597 -0.9235 0
                        -0.383597 -0.9235 -8.02588e-006
                        -1.60597e-006 -3.46315e-006 -1
                        -9.71302e-007 -1.73363e-006 -1
                        -4.40874e-006 -1.00482e-005 -1
                        0.383598 0.9235 2.24278e-005
                        0.383598 0.9235 1.80561e-005
                        0.383598 0.9235 0
                        0.383597 -0.9235 -1.41649e-005
                        0.383597 -0.9235 -1.03215e-005
                        1.60596e-006 -3.46314e-006 -1
                        9.71296e-007 -1.73362e-006 -1
                        -0.383598 0.9235 1.89626e-005
                        -0.383598 0.9235 0
                        -0.383597 0.9235 1.5746e-005
                        -0.383597 -0.9235 -1.35734e-005
                        -0.383597 -0.9235 -9.50137e-006
                        -1.60596e-006 -3.46314e-006 -1
                        -9.71296e-007 -1.73362e-006 -1
                        0.383598 0.9235 1.88865e-005
                        0.383597 0.9235 1.56953e-005
                        0.383598 0.9235 0
                        0.383597 -0.9235 -1.02302e-005
                        1.60596e-006 -3.46314e-006 -1
                        -0.383597 -0.9235 -1.0699e-005
                        -1.60596e-006 -3.46314e-006 -1
                        2.87529e-006 -6.92219e-006 -1
                        2.04575e-007 -1.70628e-007 -1
                        -0.383597 -0.9235 -1.60485e-005
                        -0.383597 -0.9235 -1.3573e-006
                        -0.383597 0.9235 2.72119e-005
                        -0.383597 0.9235 9.31281e-006
                        -2.87529e-006 -6.92219e-006 -1
                        -2.04575e-007 -1.70628e-007 -1
                        1.83837e-006 -4.94442e-006 1
                        -3.13093e-007 4.94466e-007 1
                        -2.46456e-006 5.93336e-006 1
                        0.383597 0.9235 2.70842e-005
                        0.383597 0.9235 9.31281e-006
                        0.383597 -0.9235 -1.13933e-005
                        0.383597 -0.9235 7.90413e-006
                        -1.83837e-006 -4.94442e-006 1
                        3.13093e-007 4.94466e-007 1
                        2.46456e-006 5.93336e-006 1
                        -0.383597 0.9235 2.3619e-005
                        2.87529e-006 -6.92219e-006 -1
                        2.04581e-007 -1.70642e-007 -1
                        -0.383597 -0.9235 -1.20388e-005
                        -0.383597 -0.923501 6.662e-006
                        1.83837e-006 -4.94442e-006 1
                        -3.13088e-007 4.94454e-007 1
                        -2.46455e-006 5.93333e-006 1
                        0.383597 0.9235 2.35429e-005
                        -2.87529e-006 -6.92219e-006 -1
                        -2.04581e-007 -1.70642e-007 -1
                        0.383597 -0.9235 -1.54823e-005
                        0.383597 -0.9235 -2.63471e-006
                        -1.83837e-006 -4.94442e-006 1
                        3.13088e-007 4.94454e-007 1
                        2.46455e-006 5.93333e-006 1
                        2.87529e-006 -6.92218e-006 -1
                        2.04573e-007 -1.70621e-007 -1
                        -0.383597 -0.9235 -1.42521e-005
                        -0.383597 -0.9235 -1.3573e-006
                        -2.87529e-006 -6.92218e-006 -1
                        -2.04573e-007 -1.70621e-007 -1
                        0.383597 -0.9235 -1.53453e-005
                        0.383597 -0.9235 0
                    </float_array>
                    <technique_common>
                        <accessor count="84" source="#Geometry-Mesh-normals-array" stride="3">
                            <param name="X" type="float" />
                            <param name="Y" type="float" />
                            <param name="Z" type="float" />
                        </accessor>
                    </technique_common>
                </source>
                <source id="Geometry-Mesh-Texture" name="Texture">
                    <float_array id="Geometry-Mesh-Texture-array" count="280">
                        0.240818 0.993734
                        0.604269 0.993734
                        0.268813 0.979737
                        0.576274 0.979737
                        0.603211 0.0238658
                        0.603211 0.206619
                        0.591814 0.0238658
                        0.591814 0.206619
                        0.00618664 0.976473
                        0.662461 0.976473
                        0.00618664 0.960134
                        0.662461 0.960134
                        0.377105 0.206619
                        0.377105 0.0238658
                        0.388502 0.206619
                        0.388502 0.0238658
                        0.662887 0.956473
                        0.00661281 0.956473
                        0.662887 0.940134
                        0.00661281 0.940134
                        0.36641 0.022014
                        0.36641 0.204768
                        0.355013 0.022014
                        0.355013 0.204768
                        0.140302 0.204768
                        0.140302 0.022014
                        0.151699 0.204768
                        0.151699 0.022014
                        0.944847 0.541896
                        0.900628 0.541828
                        0.944847 0.614046
                        0.900628 0.614046
                        0.900628 0.361433
                        0.944847 0.361433
                        0.900628 0.343766
                        0.944847 0.343766
                        0.944847 0.541709
                        0.900628 0.541709
                        0.944847 0.613907
                        0.900628 0.613907
                        0.900628 0.370553
                        0.944847 0.370553
                        0.900628 0.370622
                        0.944847 0.370622
                        0.900628 0.3615
                        0.944847 0.3615
                        0.900628 0.343828
                        0.944847 0.343828
                        0.892357 0.343697
                        0.848138 0.343697
                        0.892357 0.549906
                        0.848138 0.549906
                        0.891991 0.541896
                        0.847772 0.541828
                        0.891991 0.614046
                        0.847772 0.614046
                        0.847772 0.361433
                        0.891991 0.361433
                        0.847772 0.343766
                        0.891991 0.343766
                        0.891991 0.541709
                        0.847772 0.541709
                        0.891991 0.613907
                        0.847772 0.613907
                        0.847772 0.370553
                        0.891991 0.370553
                        0.847772 0.370622
                        0.891991 0.370622
                        0.847772 0.3615
                        0.891991 0.3615
                        0.847772 0.343828
                        0.891991 0.343828
                        0.943138 0.343697
                        0.943138 0.549906
                        0.898919 0.343697
                        0.898919 0.549906
                        0.610394 0.995264
                        0.352547 0.995264
                        0.578525 0.97933
                        0.384272 0.97933
                        0.610462 0.995264
                        0.578739 0.97933
                        0.352616 0.995264
                        0.384486 0.97933
                        0.666779 0.782447
                        0.0124413 0.782447
                        0.666779 0.578094
                        0.0124413 0.578094
                        0.355013 0.0163155
                        0.151699 0.0163155
                        0.730206 0.0797242
                        0.729033 0.700926
                        0.730206 0.700927
                        0.675705 0.780657
                        0.675705 0.57693
                        0.708186 0.780657
                        0.708186 0.57693
                        0.591814 0.212317
                        0.388502 0.212317
                        0.675705 0.57693
                        0.708186 0.57693
                        0.738858 0.085218
                        0.738858 0.70705
                        0.740833 0.706575
                        0.591814 0.0181673
                        0.388502 0.0181673
                        0.355013 0.210466
                        0.151699 0.210467
                        0.730206 0.0844946
                        0.730206 0.705697
                        0.729102 0.705698
                        0.718917 0.0810647
                        0.718917 0.702268
                        0.720091 0.702267
                        0.758922 0.0845463
                        0.756947 0.705903
                        0.758922 0.706378
                        0.718917 0.0858352
                        0.720021 0.707039
                        0.718917 0.707038
                        0.758922 0.0803915
                        0.758922 0.702223
                        0.730206 0.0810603
                        0.730206 0.70226
                        0.718917 0.0845102
                        0.718917 0.705709
                        0.738858 0.0797198
                        0.738858 0.701551
                        0.738858 0.707006
                        0.738858 0.0851708
                        0.758922 0.702267
                        0.758922 0.0804318
                        0.730206 0.0858507
                        0.730206 0.70705
                        0.718917 0.0797199
                        0.718917 0.700919
                        0.758922 0.706334
                        0.738858 0.701595
                        0.758922 0.0844991
                        0.738858 0.0797602
                    </float_array>
                    <technique_common>
                        <accessor count="140" source="#Geometry-Mesh-Texture-array" stride="2">
                            <param name="S" type="float" />
                            <param name="T" type="float" />
                        </accessor>
                    </technique_common>
                </source>
                <vertices id="Geometry-Mesh-vertices">
                    <input semantic="POSITION" source="#Geometry-Mesh-positions" />
                </vertices>
                <polylist count="594" material="Material-Default">
                    <input semantic="VERTEX" source="#Geometry-Mesh-vertices" offset="0" />
                    <input semantic="NORMAL" source="#Geometry-Mesh-normals" offset="1" />
                    <input semantic="TEXCOORD" source="#Geometry-Mesh-Texture" offset="2" set="0" />
                    <vcount>3 3 3 3 3 3 3 3 3 3 3 3 3 3 3 3 3 3 3 3 3 3 3 3 3 3 3 3 3 3 3 3 3 3 3 3 3 3 3 3 3 3 3 3 3 3 3 3 3 3 3 3 3 3 3 3 3 3 3 3 3 3 3 3 3 3 3 3 3 3 3 3 3 3 3 3 3 3 3 3 3 3 3 3 3 3 3 3 3 3 3 3 3 3 3 3 3 3 3 3 3 3 3 3 3 3 3 3 3 3 3 3 3 3 3 3 3 3 3 3 3 3 3 3 3 3 3 3 3 3 3 3 3 3 3 3 3 3 3 3 3 3 3 3 3 3 3 3 3 3 3 3 3 3 3 3 3 3 3 3 3 3 3 3 3 3 3 3 3 3 3 3 3 3 3 3 3 3 3 3 3 3 3 3 3 3 3 3 3 3 3 3 3 3 3 3 3 3 3 3 3 3 3 3 3 3 3 3 3 3 3 3 3 3 3 3 3 3 3 3 3 3 3 3 3 3 3 3 3 3 3 3 3 3 3 3 3 3 3 3 3 3 3 3 3 3 3 3 3 3 3 3 3 3 3 3 3 3 3 3 3 3 3 3 3 3 3 3 3 3 3 3 3 3 3 3 3 3 3 3 3 3 3 3 3 3 3 3 3 3 3 3 3 3 3 3 3 3 3 3 3 3 3 3 3 3 3 3 3 3 3 3 3 3 3 3 3 3 3 3 3 3 3 3 3 3 3 3 3 3 3 3 3 3 3 3 3 3 3 3 3 3 3 3 3 3 3 3 3 3 3 3 3 3 3 3 3 3 3 3 3 3 3 3 3 3 3 3 3 3 3 3 3 3 3 3 3 3 3 3 3 3 3 3 3 3 3 3 3 3 3 3 3 3 3 3 3 3 3 3 3 3 3 3 3 3 3 3 3 3 3 3 3 3 3 3 3 3 3 3 3 3 3 3 3 3 3 3 3 3 3 3 3 3 3 3 3 3 3 3 3 3 3 3 3 3 3 3 3 3 3 3 3 3 3 3 3 3 3 3 3 3 3 3 3 3 3 3 3 3 3 3 3 3 3 3 3 3 3 3 3 3 3 3 3 3 3 3 3 3 3 3 3 3 3 3 3 3 3 3 3 3 3 3 3 3 3 3 3 3 3 3 3 3 3 3 3 3 3 3 3 3 3 3 3 3 3 3 3 3 3 3 3 3 3 3 3 3 3 3 3 3 3 3 3 3 3 3 3 3 3 3 3 3 3 3 3 3 3 3 3 3 3 3 3 3 3 3 3 3 3 3 3 3 3 3 3 3 3 3 3 3 3 3 3 3 3 3 3 3 3 3 3 3</vcount>
                    <p>6 0 0 0 0 1 4 0 2 2 0 3 4 0 2 0 0 1 4 1 4 2 1 5 5 1 6 3 1 7 5 1 6 2 1 5 7 1 8 1 1 9 6 1 10 0 1 11 6 1 10 1 1 9 8 0 1 14 0 0 10 0 3 12 0 2 10 0 3 14 0 0 10 2 12 12 2 13 11 2 14 13 2 15 11 2 14 12 2 13 9 2 16 15 2 17 8 2 18 14 2 19 8 2 18 15 2 17 22 0 0 16 0 1 20 0 2 18 0 3 20 0 2 16 0 1 20 1 20 18 1 21 21 1 22 19 1 23 21 1 22 18 1 21 23 1 8 17 1 9 22 1 10 16 1 11 22 1 10 17 1 9 24 0 1 30 0 0 26 0 3 28 0 2 26 0 3 30 0 0 26 2 24 28 2 25 27 2 26 29 2 27 27 2 26 28 2 25 25 2 16 31 2 17 24 2 18 30 2 19 24 2 18 31 2 17 38 0 0 32 0 1 36 0 2 34 0 3 36 0 2 32 0 1 36 1 4 34 1 5 37 1 6 35 1 7 37 1 6 34 1 5 39 1 8 33 1 9 38 1 10 32 1 11 38 1 10 33 1 9 63 3 28 61 3 29 67 3 30 65 3 31 67 3 30 61 3 29 54 4 32 52 4 33 50 4 34 48 4 35 50 4 34 52 4 33 60 4 36 62 4 37 64 4 38 66 4 39 64 4 38 62 4 37 58 4 40 56 4 41 54 4 32 52 4 33 54 4 32 56 4 41 61 3 29 63 3 28 57 3 42 59 3 43 57 3 42 63 3 28 53 3 44 55 3 45 49 3 46 51 3 47 49 3 46 55 3 45 62 4 37 60 4 36 58 4 40 56 4 41 58 4 40 60 4 36 57 3 42 59 3 43 53 3 44 55 3 45 53 3 44 59 3 43 43 3 48 41 3 49 47 3 50 45 3 51 47 3 50 41 3 49 40 4 48 42 4 49 44 4 50 46 4 51 44 4 50 42 4 49 62 2 52 63 2 53 66 2 54 67 2 55 66 2 54 63 2 53 52 1 56 53 1 57 48 1 58 49 1 59 48 1 58 53 1 57 61 1 60 60 1 61 65 1 62 64 1 63 65 1 62 60 1 61 56 1 64 57 1 65 52 1 56 53 1 57 52 1 56 57 1 65 63 2 53 62 2 52 59 2 66 58 2 67 59 2 66 62 2 52 55 2 68 54 2 69 51 2 70 50 2 71 51 2 70 54 2 69 60 1 61 61 1 60 56 1 64 57 1 65 56 1 64 61 1 60 59 2 66 58 2 67 55 2 68 54 2 69 55 2 68 58 2 67 42 2 48 43 2 49 46 2 50 47 2 51 46 2 50 43 2 49 41 1 48 40 1 49 45 1 50 44 1 51 45 1 50 40 1 49 68 0 1 74 0 0 70 0 3 72 0 2 70 0 3 74 0 0 70 2 12 72 2 13 71 2 14 73 2 15 71 2 14 72 2 13 69 2 16 75 2 17 68 2 18 74 2 19 68 2 18 75 2 17 82 0 0 76 0 1 80 0 2 78 0 3 80 0 2 76 0 1 80 1 20 78 1 21 81 1 22 79 1 23 81 1 22 78 1 21 83 1 8 77 1 9 82 1 10 76 1 11 82 1 10 77 1 9 84 0 1 90 0 0 86 0 3 88 0 2 86 0 3 90 0 0 86 2 24 88 2 25 87 2 26 89 2 27 87 2 26 88 2 25 85 2 16 91 2 17 84 2 18 90 2 19 84 2 18 91 2 17 115 3 28 119 3 30 113 3 29 117 3 31 113 3 29 119 3 30 106 4 32 102 4 34 104 4 33 100 4 35 104 4 33 102 4 34 112 4 36 116 4 38 114 4 37 118 4 39 114 4 37 116 4 38 110 4 40 106 4 32 108 4 41 104 4 33 108 4 41 106 4 32 113 3 29 109 3 42 115 3 28 111 3 43 115 3 28 109 3 42 105 3 44 101 3 46 107 3 45 103 3 47 107 3 45 101 3 46 114 4 37 110 4 40 112 4 36 108 4 41 112 4 36 110 4 40 109 3 42 105 3 44 111 3 43 107 3 45 111 3 43 105 3 44 95 3 48 99 3 50 93 3 49 97 3 51 93 3 49 99 3 50 92 4 48 96 4 50 94 4 49 98 4 51 94 4 49 96 4 50 114 1 52 118 1 54 115 1 53 119 1 55 115 1 53 118 1 54 104 2 56 100 2 58 105 2 57 101 2 59 105 2 57 100 2 58 113 2 60 117 2 62 112 2 61 116 2 63 112 2 61 117 2 62 108 2 64 104 2 56 109 2 65 105 2 57 109 2 65 104 2 56 115 1 53 111 1 66 114 1 52 110 1 67 114 1 52 111 1 66 107 1 68 103 1 70 106 1 69 102 1 71 106 1 69 103 1 70 112 2 61 108 2 64 113 2 60 109 2 65 113 2 60 108 2 64 111 1 66 107 1 68 110 1 67 106 1 69 110 1 67 107 1 68 94 1 48 98 1 50 95 1 49 99 1 51 95 1 49 98 1 50 93 2 48 97 2 50 92 2 49 96 2 51 92 2 49 97 2 50 143 4 28 147 4 30 141 4 29 145 4 31 141 4 29 147 4 30 134 3 32 130 3 34 132 3 33 128 3 35 132 3 33 130 3 34 140 3 36 144 3 38 142 3 37 146 3 39 142 3 37 144 3 38 138 3 40 134 3 32 136 3 41 132 3 33 136 3 41 134 3 32 141 4 29 137 4 42 143 4 28 139 4 43 143 4 28 137 4 42 133 4 44 129 4 46 135 4 45 131 4 47 135 4 45 129 4 46 142 3 37 138 3 40 140 3 36 136 3 41 140 3 36 138 3 40 137 4 42 133 4 44 139 4 43 135 4 45 139 4 43 133 4 44 123 4 72 127 4 73 121 4 74 125 4 75 121 4 74 127 4 73 120 3 72 124 3 73 122 3 74 126 3 75 122 3 74 124 3 73 142 2 52 146 2 54 143 2 53 147 2 55 143 2 53 146 2 54 132 1 56 128 1 58 133 1 57 129 1 59 133 1 57 128 1 58 141 1 60 145 1 62 140 1 61 144 1 63 140 1 61 145 1 62 136 1 64 132 1 56 137 1 65 133 1 57 137 1 65 132 1 56 143 2 53 139 2 66 142 2 52 138 2 67 142 2 52 139 2 66 135 2 68 131 2 70 134 2 69 130 2 71 134 2 69 131 2 70 140 1 61 136 1 64 141 1 60 137 1 65 141 1 60 136 1 64 139 2 66 135 2 68 138 2 67 134 2 69 138 2 67 135 2 68 122 2 72 126 2 73 123 2 74 127 2 75 123 2 74 126 2 73 121 1 72 125 1 73 120 1 74 124 1 75 120 1 74 125 1 73 171 4 28 169 4 29 175 4 30 173 4 31 175 4 30 169 4 29 162 3 32 160 3 33 158 3 34 156 3 35 158 3 34 160 3 33 168 3 36 170 3 37 172 3 38 174 3 39 172 3 38 170 3 37 166 3 40 164 3 41 162 3 32 160 3 33 162 3 32 164 3 41 169 4 29 171 4 28 165 4 42 167 4 43 165 4 42 171 4 28 161 4 44 163 4 45 157 4 46 159 4 47 157 4 46 163 4 45 170 3 37 168 3 36 166 3 40 164 3 41 166 3 40 168 3 36 165 4 42 167 4 43 161 4 44 163 4 45 161 4 44 167 4 43 151 4 72 149 4 74 155 4 73 153 4 75 155 4 73 149 4 74 148 3 72 150 3 74 152 3 73 154 3 75 152 3 73 150 3 74 170 1 52 171 1 53 174 1 54 175 1 55 174 1 54 171 1 53 160 2 56 161 2 57 156 2 58 157 2 59 156 2 58 161 2 57 169 2 60 168 2 61 173 2 62 172 2 63 173 2 62 168 2 61 164 2 64 165 2 65 160 2 56 161 2 57 160 2 56 165 2 65 171 1 53 170 1 52 167 1 66 166 1 67 167 1 66 170 1 52 163 1 68 162 1 69 159 1 70 158 1 71 159 1 70 162 1 69 168 2 61 169 2 60 164 2 64 165 2 65 164 2 64 169 2 60 167 1 66 166 1 67 163 1 68 162 1 69 163 1 68 166 1 67 150 1 72 151 1 74 154 1 73 155 1 75 154 1 73 151 1 74 149 2 72 148 2 74 153 2 73 152 2 75 153 2 73 148 2 74 0 0 76 8 0 77 2 0 78 10 0 79 2 0 78 8 0 77 22 0 80 20 0 81 30 0 82 28 0 83 30 0 82 20 0 81 32 0 76 68 0 77 34 0 78 70 0 79 34 0 78 68 0 77 82 0 80 80 0 81 90 0 82 88 0 83 90 0 82 80 0 81 1 5 84 7 5 85 9 5 86 15 5 87 9 5 86 7 5 85 20 4 88 21 4 22 28 4 89 29 4 27 28 4 89 21 4 22 33 5 84 39 5 85 69 5 86 75 5 87 69 5 86 39 5 85 80 4 88 81 4 22 88 4 89 89 4 27 88 4 89 81 4 22 185 6 90 182 7 91 179 8 92 1 3 93 9 3 94 0 3 95 8 3 96 0 3 95 9 3 94 19 0 23 27 0 26 21 0 22 29 0 27 21 0 22 27 0 26 33 3 93 69 3 94 32 3 95 68 3 96 32 3 95 69 3 94 79 0 23 87 0 26 81 0 22 89 0 27 81 0 22 87 0 26 2 3 97 10 3 98 3 3 7 11 3 14 3 3 7 10 3 98 23 4 93 22 4 95 31 4 99 30 4 100 31 4 99 22 4 95 34 3 97 70 3 98 35 3 7 71 3 14 35 3 7 70 3 98 83 4 93 82 4 95 91 4 99 90 4 100 91 4 99 82 4 95 184 9 101 178 10 102 180 11 103 6 0 80 4 0 81 14 0 82 12 0 83 14 0 82 4 0 81 16 0 76 24 0 77 18 0 78 26 0 79 18 0 78 24 0 77 38 0 80 36 0 81 74 0 82 72 0 83 74 0 82 36 0 81 76 0 76 84 0 77 78 0 78 86 0 79 78 0 78 84 0 77 4 4 104 5 4 6 12 4 105 13 4 15 12 4 105 5 4 6 17 5 84 23 5 85 25 5 86 31 5 87 25 5 86 23 5 85 36 4 104 37 4 6 72 4 105 73 4 15 72 4 105 37 4 6 77 5 84 83 5 85 85 5 86 91 5 87 85 5 86 83 5 85 3 0 7 11 0 14 5 0 6 13 0 15 5 0 6 11 0 14 17 3 93 25 3 94 16 3 95 24 3 96 16 3 95 25 3 94 35 0 7 71 0 14 37 0 6 73 0 15 37 0 6 71 0 14 77 3 93 85 3 94 76 3 95 84 3 96 76 3 95 85 3 94 7 4 93 6 4 95 15 4 99 14 4 100 15 4 99 6 4 95 18 3 106 26 3 107 19 3 23 27 3 26 19 3 23 26 3 107 39 4 93 38 4 95 75 4 99 74 4 100 75 4 99 38 4 95 78 3 106 86 3 107 79 3 23 87 3 26 79 3 23 86 3 107 183 12 108 177 13 109 176 14 110 196 15 111 190 16 112 193 17 113 195 18 114 191 19 115 189 20 116 194 21 117 187 22 118 188 23 119 207 24 90 204 25 91 201 8 92 206 26 101 200 10 102 202 27 103 205 28 108 199 29 109 198 30 110 218 31 111 212 16 112 215 32 113 217 33 114 213 34 115 211 20 116 216 35 117 209 36 118 210 37 119 229 6 90 226 38 91 223 8 92 228 39 101 222 10 102 224 27 103 227 28 108 221 29 109 220 30 110 240 15 111 234 16 112 237 40 113 239 41 114 235 34 115 233 20 116 238 35 117 231 36 118 232 37 119 257 3 28 255 3 29 261 3 30 259 3 31 261 3 30 255 3 29 248 4 32 246 4 33 244 4 34 242 4 35 244 4 34 246 4 33 254 4 36 256 4 37 258 4 38 260 4 39 258 4 38 256 4 37 252 4 40 250 4 41 248 4 32 246 4 33 248 4 32 250 4 41 255 3 29 257 3 28 251 3 42 253 3 43 251 3 42 257 3 28 247 3 44 249 3 45 243 3 46 245 3 47 243 3 46 249 3 45 256 4 37 254 4 36 252 4 40 250 4 41 252 4 40 254 4 36 251 3 42 253 3 43 247 3 44 249 3 45 247 3 44 253 3 43 256 2 52 257 2 53 260 2 54 261 2 55 260 2 54 257 2 53 246 1 56 247 1 57 242 1 58 243 1 59 242 1 58 247 1 57 255 1 60 254 1 61 259 1 62 258 1 63 259 1 62 254 1 61 250 1 64 251 1 65 246 1 56 247 1 57 246 1 56 251 1 65 257 2 53 256 2 52 253 2 66 252 2 67 253 2 66 256 2 52 249 2 68 248 2 69 245 2 70 244 2 71 245 2 70 248 2 69 254 1 61 255 1 60 250 1 64 251 1 65 250 1 64 255 1 60 253 2 66 252 2 67 249 2 68 248 2 69 249 2 68 252 2 67 277 3 28 281 3 30 275 3 29 279 3 31 275 3 29 281 3 30 268 4 32 264 4 34 266 4 33 262 4 35 266 4 33 264 4 34 274 4 36 278 4 38 276 4 37 280 4 39 276 4 37 278 4 38 272 4 40 268 4 32 270 4 41 266 4 33 270 4 41 268 4 32 275 3 29 271 3 42 277 3 28 273 3 43 277 3 28 271 3 42 267 3 44 263 3 46 269 3 45 265 3 47 269 3 45 263 3 46 276 4 37 272 4 40 274 4 36 270 4 41 274 4 36 272 4 40 271 3 42 267 3 44 273 3 43 269 3 45 273 3 43 267 3 44 276 1 52 280 1 54 277 1 53 281 1 55 277 1 53 280 1 54 266 2 56 262 2 58 267 2 57 263 2 59 267 2 57 262 2 58 275 2 60 279 2 62 274 2 61 278 2 63 274 2 61 279 2 62 270 2 64 266 2 56 271 2 65 267 2 57 271 2 65 266 2 56 277 1 53 273 1 66 276 1 52 272 1 67 276 1 52 273 1 66 269 1 68 265 1 70 268 1 69 264 1 71 268 1 69 265 1 70 274 2 61 270 2 64 275 2 60 271 2 65 275 2 60 270 2 64 273 1 66 269 1 68 272 1 67 268 1 69 272 1 67 269 1 68 297 4 28 301 4 30 295 4 29 299 4 31 295 4 29 301 4 30 288 3 32 284 3 34 286 3 33 282 3 35 286 3 33 284 3 34 294 3 36 298 3 38 296 3 37 300 3 39 296 3 37 298 3 38 292 3 40 288 3 32 290 3 41 286 3 33 290 3 41 288 3 32 295 4 29 291 4 42 297 4 28 293 4 43 297 4 28 291 4 42 287 4 44 283 4 46 289 4 45 285 4 47 289 4 45 283 4 46 296 3 37 292 3 40 294 3 36 290 3 41 294 3 36 292 3 40 291 4 42 287 4 44 293 4 43 289 4 45 293 4 43 287 4 44 296 2 52 300 2 54 297 2 53 301 2 55 297 2 53 300 2 54 286 1 56 282 1 58 287 1 57 283 1 59 287 1 57 282 1 58 295 1 60 299 1 62 294 1 61 298 1 63 294 1 61 299 1 62 290 1 64 286 1 56 291 1 65 287 1 57 291 1 65 286 1 56 297 2 53 293 2 66 296 2 52 292 2 67 296 2 52 293 2 66 289 2 68 285 2 70 288 2 69 284 2 71 288 2 69 285 2 70 294 1 61 290 1 64 295 1 60 291 1 65 295 1 60 290 1 64 293 2 66 289 2 68 292 2 67 288 2 69 292 2 67 289 2 68 317 4 28 315 4 29 321 4 30 319 4 31 321 4 30 315 4 29 308 3 32 306 3 33 304 3 34 302 3 35 304 3 34 306 3 33 314 3 36 316 3 37 318 3 38 320 3 39 318 3 38 316 3 37 312 3 40 310 3 41 308 3 32 306 3 33 308 3 32 310 3 41 315 4 29 317 4 28 311 4 42 313 4 43 311 4 42 317 4 28 307 4 44 309 4 45 303 4 46 305 4 47 303 4 46 309 4 45 316 3 37 314 3 36 312 3 40 310 3 41 312 3 40 314 3 36 311 4 42 313 4 43 307 4 44 309 4 45 307 4 44 313 4 43 316 1 52 317 1 53 320 1 54 321 1 55 320 1 54 317 1 53 306 2 56 307 2 57 302 2 58 303 2 59 302 2 58 307 2 57 315 2 60 314 2 61 319 2 62 318 2 63 319 2 62 314 2 61 310 2 64 311 2 65 306 2 56 307 2 57 306 2 56 311 2 65 317 1 53 316 1 52 313 1 66 312 1 67 313 1 66 316 1 52 309 1 68 308 1 69 305 1 70 304 1 71 305 1 70 308 1 69 314 2 61 315 2 60 310 2 64 311 2 65 310 2 64 315 2 60 313 1 66 312 1 67 309 1 68 308 1 69 309 1 68 312 1 67 337 3 28 335 3 29 341 3 30 339 3 31 341 3 30 335 3 29 328 4 32 326 4 33 324 4 34 322 4 35 324 4 34 326 4 33 334 4 36 336 4 37 338 4 38 340 4 39 338 4 38 336 4 37 332 4 40 330 4 41 328 4 32 326 4 33 328 4 32 330 4 41 335 3 29 337 3 28 331 3 42 333 3 43 331 3 42 337 3 28 327 3 44 329 3 45 323 3 46 325 3 47 323 3 46 329 3 45 336 4 37 334 4 36 332 4 40 330 4 41 332 4 40 334 4 36 331 3 42 333 3 43 327 3 44 329 3 45 327 3 44 333 3 43 336 2 52 337 2 53 340 2 54 341 2 55 340 2 54 337 2 53 326 1 56 327 1 57 322 1 58 323 1 59 322 1 58 327 1 57 335 1 60 334 1 61 339 1 62 338 1 63 339 1 62 334 1 61 330 1 64 331 1 65 326 1 56 327 1 57 326 1 56 331 1 65 337 2 53 336 2 52 333 2 66 332 2 67 333 2 66 336 2 52 329 2 68 328 2 69 325 2 70 324 2 71 325 2 70 328 2 69 334 1 61 335 1 60 330 1 64 331 1 65 330 1 64 335 1 60 333 2 66 332 2 67 329 2 68 328 2 69 329 2 68 332 2 67 357 3 28 361 3 30 355 3 29 359 3 31 355 3 29 361 3 30 348 4 32 344 4 34 346 4 33 342 4 35 346 4 33 344 4 34 354 4 36 358 4 38 356 4 37 360 4 39 356 4 37 358 4 38 352 4 40 348 4 32 350 4 41 346 4 33 350 4 41 348 4 32 355 3 29 351 3 42 357 3 28 353 3 43 357 3 28 351 3 42 347 3 44 343 3 46 349 3 45 345 3 47 349 3 45 343 3 46 356 4 37 352 4 40 354 4 36 350 4 41 354 4 36 352 4 40 351 3 42 347 3 44 353 3 43 349 3 45 353 3 43 347 3 44 356 1 52 360 1 54 357 1 53 361 1 55 357 1 53 360 1 54 346 2 56 342 2 58 347 2 57 343 2 59 347 2 57 342 2 58 355 2 60 359 2 62 354 2 61 358 2 63 354 2 61 359 2 62 350 2 64 346 2 56 351 2 65 347 2 57 351 2 65 346 2 56 357 1 53 353 1 66 356 1 52 352 1 67 356 1 52 353 1 66 349 1 68 345 1 70 348 1 69 344 1 71 348 1 69 345 1 70 354 2 61 350 2 64 355 2 60 351 2 65 355 2 60 350 2 64 353 1 66 349 1 68 352 1 67 348 1 69 352 1 67 349 1 68 377 4 28 381 4 30 375 4 29 379 4 31 375 4 29 381 4 30 368 3 32 364 3 34 366 3 33 362 3 35 366 3 33 364 3 34 374 3 36 378 3 38 376 3 37 380 3 39 376 3 37 378 3 38 372 3 40 368 3 32 370 3 41 366 3 33 370 3 41 368 3 32 375 4 29 371 4 42 377 4 28 373 4 43 377 4 28 371 4 42 367 4 44 363 4 46 369 4 45 365 4 47 369 4 45 363 4 46 376 3 37 372 3 40 374 3 36 370 3 41 374 3 36 372 3 40 371 4 42 367 4 44 373 4 43 369 4 45 373 4 43 367 4 44 376 2 52 380 2 54 377 2 53 381 2 55 377 2 53 380 2 54 366 1 56 362 1 58 367 1 57 363 1 59 367 1 57 362 1 58 375 1 60 379 1 62 374 1 61 378 1 63 374 1 61 379 1 62 370 1 64 366 1 56 371 1 65 367 1 57 371 1 65 366 1 56 377 2 53 373 2 66 376 2 52 372 2 67 376 2 52 373 2 66 369 2 68 365 2 70 368 2 69 364 2 71 368 2 69 365 2 70 374 1 61 370 1 64 375 1 60 371 1 65 375 1 60 370 1 64 373 2 66 369 2 68 372 2 67 368 2 69 372 2 67 369 2 68 397 4 28 395 4 29 401 4 30 399 4 31 401 4 30 395 4 29 388 3 32 386 3 33 384 3 34 382 3 35 384 3 34 386 3 33 394 3 36 396 3 37 398 3 38 400 3 39 398 3 38 396 3 37 392 3 40 390 3 41 388 3 32 386 3 33 388 3 32 390 3 41 395 4 29 397 4 28 391 4 42 393 4 43 391 4 42 397 4 28 387 4 44 389 4 45 383 4 46 385 4 47 383 4 46 389 4 45 396 3 37 394 3 36 392 3 40 390 3 41 392 3 40 394 3 36 391 4 42 393 4 43 387 4 44 389 4 45 387 4 44 393 4 43 396 1 52 397 1 53 400 1 54 401 1 55 400 1 54 397 1 53 386 2 56 387 2 57 382 2 58 383 2 59 382 2 58 387 2 57 395 2 60 394 2 61 399 2 62 398 2 63 399 2 62 394 2 61 390 2 64 391 2 65 386 2 56 387 2 57 386 2 56 391 2 65 397 1 53 396 1 52 393 1 66 392 1 67 393 1 66 396 1 52 389 1 68 388 1 69 385 1 70 384 1 71 385 1 70 388 1 69 394 2 61 395 2 60 390 2 64 391 2 65 390 2 64 395 2 60 393 1 66 392 1 67 389 1 68 388 1 69 389 1 68 392 1 67 230 42 120 228 39 101 225 43 121 224 27 103 225 43 121 228 39 101 241 44 122 240 15 111 237 40 113 237 40 113 236 45 123 241 44 122 184 46 124 183 12 108 176 14 110 176 14 110 178 47 125 184 46 124 241 48 126 236 49 127 239 41 114 235 34 115 239 41 114 236 49 127 177 50 128 183 51 129 179 51 130 185 52 131 179 51 130 183 51 129 187 22 118 194 21 117 195 53 132 187 22 118 195 53 132 189 54 133 182 7 91 185 6 90 186 55 134 186 55 134 181 56 135 182 7 91 188 57 136 190 58 137 194 58 138 196 59 139 194 58 138 190 58 137 206 60 124 205 28 108 198 30 110 198 30 110 200 47 125 206 60 124 186 61 120 184 9 101 181 62 121 180 11 103 181 62 121 184 9 101 197 63 122 196 15 111 193 17 113 193 17 113 192 64 123 197 63 122 199 65 128 205 66 129 201 66 130 207 67 131 201 66 130 205 66 129 209 36 118 216 35 117 217 68 132 209 36 118 217 68 132 211 54 133 197 69 126 192 70 127 195 18 114 191 19 115 195 18 114 192 70 127 204 25 91 207 24 90 208 71 134 208 71 134 203 72 135 204 25 91 210 73 136 212 74 137 216 74 138 218 75 139 216 74 138 212 74 137 228 60 124 227 28 108 220 30 110 220 30 110 222 47 125 228 60 124 208 76 120 206 26 101 203 77 121 202 27 103 203 77 121 206 26 101 219 78 122 218 31 111 215 32 113 215 32 113 214 79 123 219 78 122 221 65 128 227 66 129 223 66 130 229 67 131 223 66 130 227 66 129 231 36 118 238 35 117 239 68 132 231 36 118 239 68 132 233 54 133 219 80 126 214 81 127 217 33 114 213 34 115 217 33 114 214 81 127 226 38 91 229 6 90 230 82 134 230 82 134 225 83 135 226 38 91 232 73 136 234 74 137 238 74 138 240 75 139 238 74 138 234 74 137</p>
                </polylist>
            </mesh>
        </geometry>
    </library_geometries>
    <library_visual_scenes>
        <visual_scene id="DefaultScene">
            <node id="Geometry-MeshNode" name="Mesh" type="NODE">
                <matrix sid="transform">
        1 0 0 0
        0 1 0 0
        0 0 1 0
        0 0 0 1
    </matrix>
                <instance_geometry url="#Geometry-Mesh">
                    <bind_material>
                        <technique_common>
                            <instance_material symbol="Material-Default" target="#Material-Default">
                                <bind_vertex_input semantic="Texture" input_semantic="TEXCOORD" input_set="0" />
                            </instance_material>
                        </technique_common>
                    </bind_material>
                </instance_geometry>
            </node>
            <extra>
                <technique profile="MAYA">
                    <start_time>0</start_time>
                    <end_time>5</end_time>
                </technique>
            </extra>
        </visual_scene>
    </library_visual_scenes>
    <scene>
        <instance_visual_scene url="#DefaultScene" />
    </scene>
</COLLADA>
