<?xml version="1.0" encoding="utf-8"?>
<COLLADA xmlns="http://www.collada.org/2005/11/COLLADASchema" version="1.4.1" xmlns:xsi="http://www.w3.org/2001/XMLSchema-instance">
  <asset>
    <contributor>
      <author>Blender User</author>
      <authoring_tool>Blender 4.5.9 LTS commit date:2026-04-20, commit time:14:24, hash:8bf95cbd38d1</authoring_tool>
    </contributor>
    <created>2026-05-07T02:17:33</created>
    <modified>2026-05-07T02:17:33</modified>
    <unit name="meter" meter="1"/>
    <up_axis>Z_UP</up_axis>
  </asset>
  <library_effects>
    <effect id="hpl3export_M_ZipLineBase_01-effect">
      <profile_COMMON>
        <newparam sid="hpl3export_M_ZipLineBase_01_DIFFUSE-surface">
          <surface type="2D">
            <init_from>hpl3export_M_ZipLineBase_01_DIFFUSE</init_from>
          </surface>
        </newparam>
        <newparam sid="hpl3export_M_ZipLineBase_01_DIFFUSE-sampler">
          <sampler2D>
            <source>hpl3export_M_ZipLineBase_01_DIFFUSE-surface</source>
          </sampler2D>
        </newparam>
        <technique sid="common">
          <lambert>
            <emission>
              <color sid="emission">0 0 0 1</color>
            </emission>
            <diffuse>
              <texture texture="hpl3export_M_ZipLineBase_01_DIFFUSE-sampler" texcoord="UVMap.001"/>
            </diffuse>
            <index_of_refraction>
              <float sid="ior">1.5</float>
            </index_of_refraction>
          </lambert>
        </technique>
      </profile_COMMON>
    </effect>
  </library_effects>
  <library_images>
    <image id="hpl3export_M_ZipLineBase_01_DIFFUSE" name="hpl3export_M_ZipLineBase_01_DIFFUSE">
      <init_from>/C:/Program%20Files%20(x86)/Steam/steamapps/common/Amnesia%20The%20Bunker/mods/BunkersEdge/static_objects/city/runner_objects/S_ZipLineBase_01/M_ZipLineBase_01.dds</init_from>
    </image>
  </library_images>
  <library_materials>
    <material id="hpl3export_M_ZipLineBase_01-material" name="hpl3export_M_ZipLineBase_01">
      <instance_effect url="#hpl3export_M_ZipLineBase_01-effect"/>
    </material>
  </library_materials>
  <library_geometries>
    <geometry id="S_ZipLineBase_01_003-mesh" name="S_ZipLineBase_01.003">
      <mesh>
        <source id="S_ZipLineBase_01_003-mesh-positions">
          <float_array id="S_ZipLineBase_01_003-mesh-positions-array" count="2355">-0.9753881 -0.2749375 1.778275 -1.028235 -0.2749375 1.778275 -1.00552 -0.3287117 1.778275 -0.371633 -0.05162143 1.287176 -0.3616449 -0.05162143 1.311289 -0.3650329 -0.03756552 1.287176 -0.356978 -0.03756552 1.306622 -0.3375316 -0.05162143 1.321277 -0.3375316 -0.03756552 1.314677 -0.3134183 -0.05162143 1.311289 -0.3180851 -0.03756552 1.306622 -0.3034301 -0.05162143 1.287176 -0.3100302 -0.03756552 1.287176 -0.3134182 -0.05162143 1.263063 -0.3180853 -0.03756552 1.267729 -0.3375315 -0.05162143 1.253075 -0.3375316 -0.03756552 1.259675 -0.3616449 -0.05162143 1.263063 -0.356978 -0.03756552 1.267729 -0.1899999 -1.09 0.1552557 -0.1899999 -0.1899999 0.1552557 -0.1899999 -1.09 0.2052557 -0.1899999 -0.1899999 0.2052557 -1.09 -0.1899999 0.1552557 -1.09 -1.09 0.1552557 -1.09 -0.1899999 0.2052557 -1.09 -1.09 0.2052557 -0.1899999 -1.09 0.2052557 -1.09 -1.09 0.2052557 -0.1899999 -1.09 0.1552557 -1.09 -1.09 0.1552557 -0.1899999 -0.1899999 0.2052557 -1.09 -0.1899999 0.2052557 -0.1899999 -1.09 0.2052557 -1.09 -1.09 0.2052557 -0.1899999 -0.1899999 0.1552557 -1.09 -0.1899999 0.1552557 -0.1899999 -0.1899999 0.2052557 -1.09 -0.1899999 0.2052557 0 -1.28 0 0 0 0 0 -1.28 0.1515262 0 0 0.1515262 -1.28 0 0 -1.28 -1.28 0 -1.28 0 0.1515262 -1.28 -1.28 0.1515262 0 -1.28 0.1515262 -1.28 -1.28 0.1515262 0 -1.28 0 -1.28 -1.28 0 0 0 0.1515262 -1.28 0 0.1515262 0 -1.28 0.1515262 -1.28 -1.28 0.1515262 0 0 0 -1.28 0 0 0 0 0.1515262 -1.28 0 0.1515262 -0.356978 -0.03756552 1.306622 -0.356978 -0.03756552 1.267729 -0.3650329 -0.03756552 1.287176 -0.3375316 -0.03756552 1.314677 -0.3375316 -0.03756552 1.259675 -0.3180851 -0.03756552 1.306622 -0.3180853 -0.03756552 1.267729 -0.3100302 -0.03756552 1.287176 -0.309904 -0.1577871 1.878314 -0.34773 -0.20985 1.878314 -0.309904 -0.1975597 1.878314 -0.3711077 -0.1776734 1.878314 -0.34773 -0.1454967 1.878314 -0.2385974 -0.215003 0.2404623 -0.2321824 -0.2790358 0.2404623 -0.2121286 -0.244689 0.2404623 -0.2710451 -0.2705773 0.2404623 -0.2750098 -0.2310028 0.2404623 -0.2121391 -1.027107 0.2404623 -0.2709764 -1.053175 0.2404623 -0.232088 -1.061515 0.2404623 -0.2750617 -1.013612 0.2404623 -0.2386981 -0.9975018 0.2404623 -1.005547 -1.010696 0.2404623 -1.043373 -1.062759 0.2404623 -1.005547 -1.050468 0.2404623 -1.066751 -1.030582 0.2404623 -1.043373 -0.9984055 0.2404623 -0.3702947 -0.1946175 2.207654 -0.3297861 -0.2436522 2.377129 -0.3487397 -0.2208371 2.200732 -0.3657052 -0.1719176 2.022333 -0.3431337 -0.1981372 2.020583 -0.3212097 -0.249485 2.460738 -0.3457046 -0.22499 2.460738 -0.3509814 -0.2174326 2.385085 -0.3638918 -0.2491299 2.379737 -0.3829315 -0.2263148 2.201688 -0.3766198 -0.2036149 2.013606 -0.3547884 -0.1909213 1.876476 -0.341878 -0.159224 1.876476 -0.3206827 -0.1854436 1.876476 -0.3547884 -0.1909213 1.876476 -0.3766198 -0.2036149 2.013606 -0.3829315 -0.2263148 2.201688 -0.3638918 -0.2491299 2.379737 -0.3546704 -0.2584507 2.460738 -0.3546704 -0.2584507 5.209852 -0.4926847 -0.2437605 5.408624 -0.5231465 -0.2962104 5.457043 -0.5319212 -0.2952699 5.423545 -0.474036 -0.2358289 5.436718 -0.4355739 -0.2233077 5.372343 -0.4087557 -0.2143468 5.392354 -0.3822467 -0.2328841 5.306055 -0.3518295 -0.2209682 5.317579 -0.3212097 -0.249485 5.209852 -0.3546704 -0.2584507 2.460738 -0.3457046 -0.22499 5.209852 -0.3719592 -0.2008429 5.297836 -0.4289849 -0.1898646 5.37852 -0.5027917 -0.2179517 5.429404 -0.3546704 -0.2584507 5.209852 -0.3822467 -0.2328841 5.306055 -0.4355739 -0.2233077 5.372343 -0.4926847 -0.2437605 5.408624 -0.5319212 -0.2952699 5.423545 -0.5553452 -0.2873745 5.447814 -0.5598981 -0.4510848 5.445399 -0.5932607 -0.4524167 5.436171 -0.5685455 -0.4528463 5.4119 -0.575995 -0.6490157 5.4119 -0.6007102 -0.648586 5.436171 -0.5673477 -0.6472542 5.445399 -0.5685455 -0.4528463 5.4119 -0.575995 -0.6490157 5.4119 -1.013326 -0.2756439 0.2404623 -1.064981 -0.2372632 0.2404623 -1.053096 -0.2752184 0.2404623 -1.032556 -0.2142309 0.2404623 -1.000632 -0.2379515 0.2404623 -0.892664 -0.94 3.827059 -0.9280195 -0.94 3.791704 -0.892664 -0.34 3.827059 -0.9280195 -0.34 3.791704 -0.9763157 -0.94 3.804644 -0.9763157 -0.34 3.804644 -0.9892569 -0.94 3.852941 -0.9892569 -0.34 3.852941 -0.9539015 -0.94 3.888296 -0.9539015 -0.34 3.888296 -0.9056051 -0.94 3.875355 -0.9056051 -0.34 3.875355 -0.892664 -0.94 3.827059 -0.892664 -0.34 3.827059 -0.3769361 -0.4039751 0.2052557 -0.3030639 -0.4039751 0.2052557 -0.3769361 -0.4039751 5.495198 -0.3030639 -0.4039751 5.495198 -0.2661278 -0.34 0.2052557 -0.2661278 -0.34 5.495198 -0.3030639 -0.2760248 0.2052557 -0.3030639 -0.2760248 5.495198 -0.3769361 -0.2760248 0.2052557 -0.3769361 -0.2760248 5.495198 -0.4138721 -0.34 0.2052557 -0.4138721 -0.34 5.495198 -0.3769361 -0.4039751 0.2052557 -0.3769361 -0.4039751 5.495198 -0.892664 -0.94 5.107059 -0.9280193 -0.94 5.071703 -0.892664 -0.34 5.107059 -0.9280193 -0.34 5.071703 -0.9763157 -0.94 5.084644 -0.9763157 -0.34 5.084644 -0.9892569 -0.94 5.132941 -0.9892569 -0.34 5.132941 -0.9539015 -0.94 5.168296 -0.9539015 -0.34 5.168296 -0.9056051 -0.94 5.155355 -0.9056051 -0.34 5.155355 -0.892664 -0.94 5.107059 -0.892664 -0.34 5.107059 -0.559017 -0.6772473 5.469251 -0.559017 -0.6772473 5.387692 -0.4774582 -0.6772473 5.386456 -0.3529412 -0.94 5.071703 -0.3882964 -0.94 5.107059 -0.3529412 -0.34 5.071703 -0.3882964 -0.34 5.107059 -0.3753553 -0.94 5.155355 -0.3753553 -0.34 5.155355 -0.327059 -0.94 5.168296 -0.327059 -0.34 5.168296 -0.2917035 -0.94 5.132941 -0.2917035 -0.34 5.132941 -0.3046447 -0.94 5.084644 -0.3046447 -0.34 5.084644 -0.3529412 -0.94 5.071703 -0.3529412 -0.34 5.071703 -0.559017 -0.6577675 5.469251 -0.559017 -0.6772473 5.469251 -0.4774582 -0.6577675 5.386456 -0.4774582 -0.6772473 5.386456 -0.559017 -0.6577675 5.387692 -0.559017 -0.6577675 5.469251 -0.4774582 -0.6577675 5.386456 -0.352941 -0.94 3.791703 -0.3882964 -0.94 3.827059 -0.352941 -0.34 3.791703 -0.3882964 -0.34 3.827059 -0.3753553 -0.94 3.875355 -0.3753553 -0.34 3.875355 -0.327059 -0.94 3.888296 -0.327059 -0.34 3.888296 -0.2917035 -0.94 3.852941 -0.2917035 -0.34 3.852941 -0.3046447 -0.94 3.804644 -0.3046447 -0.34 3.804644 -0.352941 -0.94 3.791703 -0.352941 -0.34 3.791703 -0.7201572 -0.6772473 5.469251 -0.8017159 -0.6772473 5.386456 -0.7201572 -0.6772473 5.387692 -0.3529409 -0.94 2.511704 -0.3882963 -0.94 2.547059 -0.3529409 -0.34 2.511704 -0.3882963 -0.34 2.547059 -0.3753551 -0.94 2.595355 -0.3753551 -0.34 2.595355 -0.3270589 -0.94 2.608296 -0.3270589 -0.34 2.608296 -0.2917037 -0.94 2.572941 -0.2917037 -0.34 2.572941 -0.3046446 -0.94 2.524645 -0.3046446 -0.34 2.524645 -0.3529409 -0.94 2.511704 -0.3529409 -0.34 2.511704 -0.7201572 -0.6577675 5.387692 -0.8017159 -0.6577675 5.386456 -0.7201572 -0.6577675 5.469251 -0.352941 -0.94 1.231704 -0.3882963 -0.94 1.267059 -0.352941 -0.34 1.231704 -0.3882963 -0.34 1.267059 -0.3753554 -0.94 1.315355 -0.3753554 -0.34 1.315355 -0.3270591 -0.94 1.328296 -0.3270591 -0.34 1.328296 -0.2917037 -0.94 1.292941 -0.2917037 -0.34 1.292941 -0.3046446 -0.94 1.244645 -0.3046446 -0.34 1.244645 -0.352941 -0.94 1.231704 -0.352941 -0.34 1.231704 -0.559017 -0.9578439 5.469251 -0.559017 -0.9578439 5.387692 -0.4774582 -0.9578439 5.386456 -0.94 -0.3882963 1.267059 -0.94 -0.352941 1.231704 -0.34 -0.3882963 1.267059 -0.34 -0.352941 1.231704 -0.94 -0.3046446 1.244645 -0.34 -0.3046446 1.244645 -0.94 -0.2917037 1.292941 -0.34 -0.2917037 1.292941 -0.94 -0.3270591 1.328296 -0.34 -0.3270591 1.328296 -0.94 -0.3753554 1.315355 -0.34 -0.3753554 1.315355 -0.94 -0.3882963 1.267059 -0.34 -0.3882963 1.267059 -0.559017 -0.9383642 5.469251 -0.559017 -0.9578439 5.469251 -0.4774582 -0.9383642 5.386456 -0.4774582 -0.9578439 5.386456 -0.559017 -0.9383642 5.387692 -0.559017 -0.9383642 5.469251 -0.4774582 -0.9383642 5.386456 -0.94 -0.3882963 2.547059 -0.94 -0.352941 2.511704 -0.34 -0.3882963 2.547059 -0.34 -0.352941 2.511704 -0.94 -0.3046446 2.524645 -0.34 -0.3046446 2.524645 -0.94 -0.2917037 2.572941 -0.34 -0.2917037 2.572941 -0.94 -0.3270589 2.608296 -0.34 -0.3270589 2.608296 -0.94 -0.3753551 2.595355 -0.34 -0.3753551 2.595355 -0.94 -0.3882963 2.547059 -0.34 -0.3882963 2.547059 -0.7201572 -0.9578439 5.469251 -0.8017159 -0.9578439 5.386456 -0.7201572 -0.9578439 5.387692 -0.94 -0.2966985 3.815 -0.94 -0.2966987 3.865 -0.34 -0.2966985 3.815 -0.34 -0.2966987 3.865 -0.94 -0.3399999 3.89 -0.34 -0.3399999 3.89 -0.94 -0.3833014 3.865 -0.34 -0.3833014 3.865 -0.94 -0.3833013 3.815 -0.34 -0.3833013 3.815 -0.94 -0.3400002 3.79 -0.34 -0.3400002 3.79 -0.94 -0.2966985 3.815 -0.34 -0.2966985 3.815 -0.7201572 -0.9383642 5.469251 -0.8017159 -0.9383642 5.386456 -0.7201572 -0.9578439 5.469251 -0.8017159 -0.9578439 5.386456 -0.7201572 -0.9383642 5.387692 -0.8017159 -0.9383642 5.386456 -0.7201572 -0.9383642 5.469251 -0.94 -0.3882964 5.107059 -0.94 -0.3529412 5.071703 -0.34 -0.3882964 5.107059 -0.34 -0.3529412 5.071703 -0.94 -0.3046447 5.084644 -0.34 -0.3046447 5.084644 -0.94 -0.2917035 5.132941 -0.34 -0.2917035 5.132941 -0.94 -0.327059 5.168296 -0.34 -0.327059 5.168296 -0.94 -0.3753553 5.155355 -0.34 -0.3753553 5.155355 -0.94 -0.3882964 5.107059 -0.34 -0.3882964 5.107059 -0.3022292 -0.2788593 5.042125 -0.3237754 -0.2118376 5.042125 -0.3022292 -0.2788593 5.193207 -0.3237754 -0.2118376 5.193207 -0.3562245 -0.2118376 5.042125 -0.3777707 -0.2788593 5.042125 -0.3562245 -0.2118376 5.193207 -0.3777707 -0.2788593 5.193207 -0.3022292 -0.2788593 5.042125 -0.3777707 -0.2788593 5.042125 -0.3237754 -0.2118376 5.042125 -0.3562245 -0.2118376 5.042125 -0.3237754 -0.2118376 5.193207 -0.3562245 -0.2118376 5.193207 -0.3022292 -0.2788593 5.193207 -0.3777707 -0.2788593 5.193207 -0.3237754 -0.2118376 5.042125 -0.3562245 -0.2118376 5.042125 -0.3237754 -0.2118376 5.193207 -0.3562245 -0.2118376 5.193207 -0.3022292 -0.2788593 3.766449 -0.3237754 -0.2118376 3.766449 -0.3022292 -0.2788593 3.917532 -0.3237754 -0.2118376 3.917532 -0.3562245 -0.2118376 3.766449 -0.3777707 -0.2788593 3.766449 -0.3562245 -0.2118376 3.917532 -0.3777707 -0.2788593 3.917532 -0.3022292 -0.2788593 3.766449 -0.3777707 -0.2788593 3.766449 -0.3237754 -0.2118376 3.766449 -0.3562245 -0.2118376 3.766449 -0.3237754 -0.2118376 3.917532 -0.3562245 -0.2118376 3.917532 -0.3022292 -0.2788593 3.917532 -0.3777707 -0.2788593 3.917532 -0.3237754 -0.2118376 3.766449 -0.3562245 -0.2118376 3.766449 -0.3237754 -0.2118376 3.917532 -0.3562245 -0.2118376 3.917532 -0.2534651 -0.2749375 1.756024 -0.2534651 -0.2749375 1.778275 -0.2761801 -0.3287117 1.756024 -0.2761801 -0.3287117 1.778275 -0.2761801 -0.3287117 1.756024 -0.3063122 -0.2749375 1.756024 -0.2534651 -0.2749375 1.756024 -0.94 -0.9270589 5.071703 -0.94 -0.8917036 5.107059 -0.34 -0.9270589 5.071703 -0.34 -0.8917036 5.107059 -0.94 -0.9046447 5.155355 -0.34 -0.9046447 5.155355 -0.94 -0.952941 5.168296 -0.34 -0.952941 5.168296 -0.94 -0.9882964 5.132941 -0.34 -0.9882964 5.132941 -0.94 -0.9753553 5.084644 -0.34 -0.9753553 5.084644 -0.94 -0.9270589 5.071703 -0.34 -0.9270589 5.071703 -0.3063122 -0.2749375 1.778275 -0.2761801 -0.3287117 1.778275 -0.2534651 -0.2749375 1.778275 -0.94 -0.9882964 3.827059 -0.94 -0.952941 3.791704 -0.34 -0.9882964 3.827059 -0.34 -0.952941 3.791704 -0.94 -0.9046447 3.804644 -0.34 -0.9046447 3.804644 -0.94 -0.8917036 3.852941 -0.34 -0.8917036 3.852941 -0.94 -0.927059 3.888296 -0.34 -0.927059 3.888296 -0.94 -0.9753553 3.875355 -0.34 -0.9753553 3.875355 -0.94 -0.9882964 3.827059 -0.34 -0.9882964 3.827059 -0.2534651 -0.2749375 1.07963 -0.2534651 -0.2749375 1.101881 -0.2761801 -0.3287117 1.07963 -0.2761801 -0.3287117 1.101881 -0.2761801 -0.3287117 1.07963 -0.3063122 -0.2749375 1.07963 -0.2534651 -0.2749375 1.07963 -0.94 -0.9270591 2.511704 -0.94 -0.8917036 2.547059 -0.34 -0.9270591 2.511704 -0.34 -0.8917036 2.547059 -0.94 -0.9046449 2.595355 -0.34 -0.9046449 2.595355 -0.94 -0.9529411 2.608296 -0.34 -0.9529411 2.608296 -0.94 -0.9882963 2.572941 -0.34 -0.9882963 2.572941 -0.94 -0.9753553 2.524645 -0.34 -0.9753553 2.524645 -0.94 -0.9270591 2.511704 -0.34 -0.9270591 2.511704 -0.3063122 -0.2749375 1.101881 -0.2761801 -0.3287117 1.101881 -0.2534651 -0.2749375 1.101881 -0.94 -0.927059 1.231704 -0.94 -0.8917038 1.267059 -0.34 -0.927059 1.231704 -0.34 -0.8917038 1.267059 -0.94 -0.9046446 1.315355 -0.34 -0.9046446 1.315355 -0.94 -0.9529409 1.328296 -0.34 -0.9529409 1.328296 -0.94 -0.9882963 1.292941 -0.34 -0.9882963 1.292941 -0.94 -0.9753553 1.244645 -0.34 -0.9753553 1.244645 -0.94 -0.927059 1.231704 -0.34 -0.927059 1.231704 -1.028235 -0.2749375 1.07963 -1.00552 -0.3287117 1.07963 -1.028235 -0.2749375 1.101881 -1.00552 -0.3287117 1.101881 -1.00552 -0.3287117 1.07963 -1.028235 -0.2749375 1.07963 -0.9753881 -0.2749375 1.07963 -0.4138721 -0.34 5.495198 -0.3769361 -0.4039751 5.495198 -0.3769361 -0.2760248 5.495198 -0.3030639 -0.4039751 5.495198 -0.3030639 -0.2760248 5.495198 -0.2661278 -0.34 5.495198 -0.9753881 -0.2749375 1.101881 -1.028235 -0.2749375 1.101881 -1.00552 -0.3287117 1.101881 -0.9769361 -0.4039751 0.2052557 -0.903064 -0.4039751 0.2052557 -0.9769361 -0.4039751 5.495198 -0.903064 -0.4039751 5.495198 -0.8661277 -0.34 0.2052557 -0.8661277 -0.34 5.495198 -0.9030639 -0.2760248 0.2052557 -0.9030639 -0.2760248 5.495198 -0.9769361 -0.2760248 0.2052557 -0.9769361 -0.2760248 5.495198 -1.013872 -0.34 0.2052557 -1.013872 -0.34 5.495198 -0.9769361 -0.4039751 0.2052557 -0.9769361 -0.4039751 5.495198 -1.028235 -0.2749375 1.756024 -1.00552 -0.3287117 1.756024 -1.028235 -0.2749375 1.778275 -1.00552 -0.3287117 1.778275 -1.00552 -0.3287117 1.756024 -1.028235 -0.2749375 1.756024 -0.9753881 -0.2749375 1.756024 -1.013872 -0.34 5.495198 -0.9769361 -0.4039751 5.495198 -0.9769361 -0.2760248 5.495198 -0.903064 -0.4039751 5.495198 -0.9030639 -0.2760248 5.495198 -0.8661277 -0.34 5.495198 -0.5582409 -0.9732522 5.569446 -0.721759 -0.9732522 5.569446 -0.5582409 -0.9732522 5.387666 -0.721759 -0.9732522 5.387666 -0.5582409 -0.6394444 5.569446 -0.721759 -0.6394444 5.569446 -0.5582409 -0.9732522 5.569446 -0.721759 -0.9732522 5.569446 -0.5582409 -0.6394444 5.387666 -0.721759 -0.6394444 5.387666 -0.5582409 -0.6394444 5.569446 -0.721759 -0.6394444 5.569446 -0.3711077 -0.1776734 1.843107 -0.34773 -0.20985 1.843107 -0.3711077 -0.1776734 1.878314 -0.34773 -0.20985 1.878314 -0.34773 -0.1454967 1.843107 -0.3711077 -0.1776734 1.843107 -0.34773 -0.1454967 1.878314 -0.3711077 -0.1776734 1.878314 -0.309904 -0.1577871 1.843107 -0.34773 -0.1454967 1.843107 -0.309904 -0.1577871 1.878314 -0.34773 -0.1454967 1.878314 -0.309904 -0.1975597 1.843107 -0.309904 -0.1577871 1.843107 -0.309904 -0.1975597 1.878314 -0.309904 -0.1577871 1.878314 -0.34773 -0.20985 1.843107 -0.309904 -0.1975597 1.843107 -0.34773 -0.20985 1.878314 -0.309904 -0.1975597 1.878314 -0.7201572 -0.6577675 5.469251 -0.8017159 -0.6577675 5.386456 -0.7201572 -0.6772473 5.469251 -0.8017159 -0.6772473 5.386456 -0.2710451 -0.2705773 0.2052557 -0.2321824 -0.2790358 0.2052557 -0.2710451 -0.2705773 0.2404623 -0.2321824 -0.2790358 0.2404623 -0.2750098 -0.2310028 0.2052557 -0.2710451 -0.2705773 0.2052557 -0.2750098 -0.2310028 0.2404623 -0.2710451 -0.2705773 0.2404623 -0.2385974 -0.215003 0.2052557 -0.2750098 -0.2310028 0.2052557 -0.2385974 -0.215003 0.2404623 -0.2750098 -0.2310028 0.2404623 -0.2121286 -0.244689 0.2052557 -0.2385974 -0.215003 0.2052557 -0.2121286 -0.244689 0.2404623 -0.2385974 -0.215003 0.2404623 -0.2321824 -0.2790358 0.2052557 -0.2121286 -0.244689 0.2052557 -0.2321824 -0.2790358 0.2404623 -0.2121286 -0.244689 0.2404623 -0.2750617 -1.013612 0.2052557 -0.2709764 -1.053175 0.2052557 -0.2750617 -1.013612 0.2404623 -0.2709764 -1.053175 0.2404623 -0.2386981 -0.9975018 0.2052557 -0.2750617 -1.013612 0.2052557 -0.2386981 -0.9975018 0.2404623 -0.2750617 -1.013612 0.2404623 -0.2121391 -1.027107 0.2052557 -0.2386981 -0.9975018 0.2052557 -0.2121391 -1.027107 0.2404623 -0.2386981 -0.9975018 0.2404623 -0.232088 -1.061515 0.2052557 -0.2121391 -1.027107 0.2052557 -0.232088 -1.061515 0.2404623 -0.2121391 -1.027107 0.2404623 -0.2709764 -1.053175 0.2052557 -0.232088 -1.061515 0.2052557 -0.2709764 -1.053175 0.2404623 -0.232088 -1.061515 0.2404623 -1.066751 -1.030582 0.2052557 -1.043373 -1.062759 0.2052557 -1.066751 -1.030582 0.2404623 -1.043373 -1.062759 0.2404623 -1.043373 -0.9984055 0.2052557 -1.066751 -1.030582 0.2052557 -1.043373 -0.9984055 0.2404623 -1.066751 -1.030582 0.2404623 -1.005547 -1.010696 0.2052557 -1.043373 -0.9984055 0.2052557 -1.005547 -1.010696 0.2404623 -1.043373 -0.9984055 0.2404623 -1.005547 -1.050468 0.2052557 -1.005547 -1.010696 0.2052557 -1.005547 -1.050468 0.2404623 -1.005547 -1.010696 0.2404623 -1.043373 -1.062759 0.2052557 -1.005547 -1.050468 0.2052557 -1.043373 -1.062759 0.2404623 -1.005547 -1.050468 0.2404623 -0.7381579 -0.8312667 5.425302 -0.7381579 -0.874568 5.450301 -0.7381579 -0.7879654 5.450301 -0.7381579 -0.874568 5.500301 -0.7381579 -0.7879655 5.500301 -0.7381579 -0.8312667 5.525301 -0.9769361 -1.003975 0.2052557 -0.903064 -1.003975 0.2052557 -0.9769361 -1.003975 5.495198 -0.903064 -1.003975 5.495198 -0.8661277 -0.94 0.2052557 -0.8661277 -0.94 5.495198 -0.9030639 -0.8760248 0.2052557 -0.9030639 -0.8760248 5.495198 -0.9769361 -0.8760248 0.2052557 -0.9769361 -0.8760248 5.495198 -1.013872 -0.94 0.2052557 -1.013872 -0.94 5.495198 -0.9769361 -1.003975 0.2052557 -0.9769361 -1.003975 5.495198 -0.5381579 -0.7879654 5.450301 -0.5381579 -0.874568 5.450301 -0.5381579 -0.8312667 5.425302 -0.5381579 -0.7879655 5.500301 -0.5381579 -0.874568 5.500301 -0.5381579 -0.8312667 5.525301 -1.013872 -0.94 5.495198 -0.9769361 -1.003975 5.495198 -0.9769361 -0.8760248 5.495198 -0.903064 -1.003975 5.495198 -0.9030639 -0.8760248 5.495198 -0.8661277 -0.94 5.495198 -0.5381579 -0.8312667 5.425302 -0.5381579 -0.874568 5.450301 -0.7381579 -0.8312667 5.425302 -0.7381579 -0.874568 5.450301 -0.5381579 -0.7879654 5.450301 -0.5381579 -0.8312667 5.425302 -0.7381579 -0.7879654 5.450301 -0.7381579 -0.8312667 5.425302 -0.5381579 -0.7879655 5.500301 -0.5381579 -0.7879654 5.450301 -0.7381579 -0.7879655 5.500301 -0.7381579 -0.7879654 5.450301 -0.5381579 -0.8312667 5.525301 -0.5381579 -0.7879655 5.500301 -0.7381579 -0.8312667 5.525301 -0.7381579 -0.7879655 5.500301 -0.5381579 -0.874568 5.500301 -0.5381579 -0.8312667 5.525301 -0.7381579 -0.874568 5.500301 -0.7381579 -0.8312667 5.525301 -0.5381579 -0.874568 5.450301 -0.5381579 -0.874568 5.500301 -0.7381579 -0.874568 5.450301 -0.7381579 -0.874568 5.500301 -0.5582409 -0.9732522 5.387666 -0.5582409 -0.6394444 5.387666 -0.5582409 -0.9732522 5.569446 -0.5582409 -0.6394444 5.569446 -0.721759 -0.6394444 5.387666 -0.721759 -0.9732522 5.387666 -0.721759 -0.6394444 5.569446 -0.721759 -0.9732522 5.569446 -0.3022292 -0.2788593 2.476097 -0.3237754 -0.2118376 2.476097 -0.3022292 -0.2788593 2.62718 -0.3237754 -0.2118376 2.62718 -0.3562245 -0.2118376 2.476097 -0.3777707 -0.2788593 2.476097 -0.3562245 -0.2118376 2.62718 -0.3777707 -0.2788593 2.62718 -0.3022292 -0.2788593 2.476097 -0.3777707 -0.2788593 2.476097 -0.3237754 -0.2118376 2.476097 -0.3562245 -0.2118376 2.476097 -0.3237754 -0.2118376 2.62718 -0.3562245 -0.2118376 2.62718 -0.3022292 -0.2788593 2.62718 -0.3777707 -0.2788593 2.62718 -0.3237754 -0.2118376 2.476097 -0.3562245 -0.2118376 2.476097 -0.3237754 -0.2118376 2.62718 -0.3562245 -0.2118376 2.62718 -1.042196 -0.2378041 5.343522 -0.2378041 -0.2378041 5.343522 -1.042196 -1.042196 5.343522 -0.2378041 -1.042196 5.343522 -0.2378041 -1.042196 5.343522 -0.2378041 -0.2378041 5.343522 -0.2378041 -1.042196 5.38821 -0.2378041 -0.2378041 5.38821 -1.042196 -0.2378041 5.343522 -1.042196 -1.042196 5.343522 -1.042196 -0.2378041 5.38821 -1.042196 -1.042196 5.38821 -0.2378041 -1.042196 5.38821 -1.042196 -1.042196 5.38821 -0.2378041 -1.042196 5.343522 -1.042196 -1.042196 5.343522 -0.2378041 -0.2378041 5.38821 -1.042196 -0.2378041 5.38821 -0.2378041 -1.042196 5.38821 -1.042196 -1.042196 5.38821 -0.2378041 -0.2378041 5.343522 -1.042196 -0.2378041 5.343522 -0.2378041 -0.2378041 5.38821 -1.042196 -0.2378041 5.38821 -0.8926642 -0.94 2.547059 -0.9280195 -0.94 2.511704 -0.8926642 -0.34 2.547059 -0.9280195 -0.34 2.511704 -0.9763158 -0.94 2.524645 -0.9763158 -0.34 2.524645 -0.9892568 -0.94 2.572941 -0.9892568 -0.34 2.572941 -0.9539015 -0.94 2.608296 -0.9539015 -0.34 2.608296 -0.9056053 -0.94 2.595355 -0.9056053 -0.34 2.595355 -0.8926642 -0.94 2.547059 -0.8926642 -0.34 2.547059 -0.3769361 -1.003975 0.2052557 -0.3030639 -1.003975 0.2052557 -0.3769361 -1.003975 5.495198 -0.3030639 -1.003975 5.495198 -0.2661278 -0.94 0.2052557 -0.2661278 -0.94 5.495198 -0.3030639 -0.8760248 0.2052557 -0.3030639 -0.8760248 5.495198 -0.3769361 -0.8760248 0.2052557 -0.3769361 -0.8760248 5.495198 -0.4138721 -0.94 0.2052557 -0.4138721 -0.94 5.495198 -0.3769361 -1.003975 0.2052557 -0.3769361 -1.003975 5.495198 -0.8926642 -0.94 1.267059 -0.9280195 -0.94 1.231704 -0.8926642 -0.34 1.267059 -0.9280195 -0.34 1.231704 -0.9763157 -0.94 1.244645 -0.9763157 -0.34 1.244645 -0.9892567 -0.94 1.292941 -0.9892567 -0.34 1.292941 -0.9539014 -0.94 1.328296 -0.9539014 -0.34 1.328296 -0.9056051 -0.94 1.315355 -0.9056051 -0.34 1.315355 -0.8926642 -0.94 1.267059 -0.8926642 -0.34 1.267059 -0.4138721 -0.94 5.495198 -0.3769361 -1.003975 5.495198 -0.3769361 -0.8760248 5.495198 -0.3030639 -1.003975 5.495198 -0.3030639 -0.8760248 5.495198 -0.2661278 -0.94 5.495198 -0.235925 -0.2769505 1.018077 -0.235925 -0.05162143 1.018077 -0.235925 -0.2769505 1.846707 -0.235925 -0.05162143 1.846707 -1.03548 -0.05162143 1.018077 -1.03548 -0.2769505 1.018077 -1.03548 -0.05162143 1.846707 -1.03548 -0.2769505 1.846707 -0.235925 -0.2769505 1.018077 -1.03548 -0.2769505 1.018077 -0.235925 -0.05162143 1.018077 -1.03548 -0.05162143 1.018077 -0.235925 -0.2769505 1.846707 -1.03548 -0.2769505 1.846707 -0.235925 -0.2769505 1.018077 -1.03548 -0.2769505 1.018077 -0.235925 -0.05162143 1.846707 -1.03548 -0.05162143 1.846707 -0.235925 -0.2769505 1.846707 -1.03548 -0.2769505 1.846707 -0.235925 -0.05162143 1.018077 -1.03548 -0.05162143 1.018077 -0.235925 -0.05162143 1.846707 -1.03548 -0.05162143 1.846707 -1.032556 -0.2142309 0.2052557 -1.064981 -0.2372632 0.2052557 -1.032556 -0.2142309 0.2404623 -1.064981 -0.2372632 0.2404623 -1.000632 -0.2379515 0.2052557 -1.032556 -0.2142309 0.2052557 -1.000632 -0.2379515 0.2404623 -1.032556 -0.2142309 0.2404623 -1.013326 -0.2756439 0.2052557 -1.000632 -0.2379515 0.2052557 -1.013326 -0.2756439 0.2404623 -1.000632 -0.2379515 0.2404623 -1.053096 -0.2752184 0.2052557 -1.013326 -0.2756439 0.2052557 -1.053096 -0.2752184 0.2404623 -1.013326 -0.2756439 0.2404623 -1.064981 -0.2372632 0.2052557 -1.053096 -0.2752184 0.2052557 -1.064981 -0.2372632 0.2404623 -1.053096 -0.2752184 0.2404623</float_array>
          <technique_common>
            <accessor source="#S_ZipLineBase_01_003-mesh-positions-array" count="785" stride="3">
              <param name="X" type="float"/>
              <param name="Y" type="float"/>
              <param name="Z" type="float"/>
            </accessor>
          </technique_common>
        </source>
        <source id="S_ZipLineBase_01_003-mesh-normals">
          <float_array id="S_ZipLineBase_01_003-mesh-normals-array" count="1533">0 0 1 -0.8980902 0.4217013 -0.1249089 -0.727841 0.4226227 0.5400348 -0.8989403 0.4221007 0.1172069 -0.5486289 0.4232221 0.7210336 -0.1257932 0.4246824 0.8965606 0.1180411 0.425093 0.8974198 0.5431301 0.4250323 0.7241252 0.7241371 0.4250346 0.5431124 0.8974223 0.4250857 0.1180477 0.8965563 0.4246853 -0.1258149 0.7210196 0.4232153 -0.5486525 0.5400603 0.4226273 -0.7278194 0.1172215 0.4221093 -0.8989344 -0.1249154 0.4217111 -0.8980846 -0.5455508 0.4208326 -0.7247581 -0.7247703 0.4208316 -0.5455355 1 0 0 -1 0 0 0 -1 0 0 1 0 0 1 0 0 1 1.28099e-7 -4.95241e-6 0 1 -2.4762e-6 0 1 -3.09525e-7 0 1 9.28576e-7 0 1 -7.65188e-7 0 1 3.09527e-7 0 1 -0.1565791 0.9786559 0.1331008 0.990157 -0.08651536 -0.1100196 0.9355788 -0.3459532 -0.07077205 -0.3991146 0.9156969 0.04697847 0.8219833 -0.5690189 0.02368855 0.8274925 -0.5594819 -0.04729068 0.2808487 0.9596244 0.01565158 -0.4914842 0.8581831 0.148206 -0.780887 -0.6246724 -5.02542e-6 -0.7758808 -0.6269314 -0.07046955 -0.7599233 -0.6345342 -0.1410068 -0.7658613 -0.6173772 -0.1797273 0.3367743 0.932125 0.1331391 0.924941 -0.3636401 0.1106805 -0.765829 -0.6174072 -0.1797617 -0.7598887 -0.6345641 -0.141059 -0.7758318 -0.6269789 -0.07058638 -0.7808631 -0.6247023 -3.06219e-6 -0.8748869 -0.4843274 3.93838e-5 -0.2601432 -0.9616672 0.08672845 0.2196899 -0.6198627 -0.7533305 0.6532007 -0.267556 0.7083379 -0.007812559 -0.007806003 -0.9999391 0.6251941 -0.3007079 0.7202134 -0.3916711 -0.6736947 -0.6266811 0.726653 -0.2290148 0.6477095 -0.7757655 -0.556352 -0.2977587 0.8916121 -0.1735675 0.4182131 0.9885864 0.09409308 0.117658 -0.8748683 -0.4843608 -3.76999e-6 -0.4616411 0.8686203 -0.1799625 0.02986907 0.9945245 -0.1001446 -0.3596231 0.9304401 -0.07037401 -0.6843206 0.7231912 -0.09327316 -0.2601233 -0.9616689 0.08676928 -0.7757228 -0.556383 -0.2978125 -0.3916837 -0.6736618 -0.6267086 0.2197193 -0.6199041 -0.7532878 -0.007759213 -0.007812023 -0.9999395 -0.7748312 0.3287484 0.5399639 0.6833128 -0.1492383 0.7147108 -0.9900768 0.1403084 0.00784564 0.5708281 -0.007820606 -0.8210324 -0.2498281 0.01562213 -0.9681642 -0.9694061 0.03908866 0.2423304 0.6989905 -0.02357482 0.7147423 0.5707886 -0.007785916 -0.8210602 -0.2497742 0.0156629 -0.9681774 1.2381e-6 0 1 0.9969163 3.10246e-5 -0.07847207 0.4314174 0 -0.9021524 0.8975433 -1.54971e-5 -0.4409265 0.07017403 -6.57154e-5 -0.9975348 -0.5619066 0 -0.8272007 -0.8271975 0 -0.5619114 -0.9975352 0 0.07016968 -0.9021494 -7.02255e-5 0.431424 -0.440882 0 0.8975652 -0.07852077 0 0.9969125 0.5601822 -7.26236e-6 0.8283694 0.8283637 -7.26824e-5 0.5601906 0.9969158 1.6023e-5 -0.0784797 0.8975346 -3.14439e-5 -0.4409442 -0.658545 -0.7525414 3.14594e-5 0.3233652 -0.9462742 0 -0.3303017 -0.9438754 -1.58537e-5 0.6540113 -0.7564848 0 0.9820668 -0.1885336 0 0.9805921 0.1960591 0 0.6501066 0.7598431 8.77658e-5 0.320981 0.9470857 0 -0.3279709 0.9446879 0 -0.6546041 0.7559719 0 -0.9808874 0.1945765 0 -0.982351 -0.1870476 0 -0.6585328 -0.752552 1.54774e-5 -0.3302881 -0.9438802 -3.11602e-5 0.9969165 3.10246e-5 -0.07847017 0.4314193 0 -0.9021515 0.8975443 -1.54971e-5 -0.4409245 0.07016825 -7.29787e-5 -0.9975352 -0.5619067 0 -0.8272006 -0.8272004 -6.47433e-5 -0.5619071 -0.9975352 0 0.07016968 -0.9021525 -7.02255e-5 0.4314172 -0.4408756 7.41846e-5 0.8975682 -0.07851833 6.97663e-6 0.9969127 0.5601873 7.26822e-5 0.8283661 0.8283677 0 0.5601847 0.9969161 1.6023e-5 -0.07847571 0.8975343 -3.1444e-5 -0.4409447 -0.07785624 3.1151e-4 -0.9969646 -0.8990751 7.2894e-5 -0.4377944 -0.4378627 -1.56516e-5 -0.8990419 -0.9969602 0 -0.07791304 -0.8308174 0 0.5565451 -0.5655816 0 0.8246924 0.0707215 0 0.9974961 0.4345033 0 0.9006703 0.9006671 0 0.4345101 0.9974955 0 0.0707308 0.8246952 8.78295e-5 -0.5655774 0.5565443 0 -0.8308181 -0.07785397 1.59948e-5 -0.9969648 -0.4378547 -3.13197e-5 -0.8990458 0.7110227 0 0.7031691 0.7110234 0 0.7031683 0.711096 0 0.703095 0.7110967 0 0.7030943 -0.07784032 3.10472e-5 -0.9969659 -0.8990972 0 -0.4377494 -0.4378274 -1.56537e-5 -0.8990592 -0.9969605 0 -0.0779103 -0.8308135 0 0.5565509 -0.5655766 0 0.8246958 0.07073509 6.55248e-5 0.9974952 0.4345103 0 0.900667 0.9006693 0 0.4345054 0.9974957 0 0.07072901 0.8246911 0 -0.5655835 0.5565426 0 -0.8308191 -0.07786899 1.59948e-5 -0.9969637 -0.437854 -3.13197e-5 -0.8990461 -0.07783949 3.10473e-5 -0.996966 -0.8990973 0 -0.4377489 -0.4378376 -1.56537e-5 -0.8990542 -0.996961 0 -0.07790267 -0.8308133 -7.42725e-6 0.5565513 -0.5655781 -1.58859e-6 0.8246948 0.07073253 0 0.9974954 0.43451 7.146e-6 0.900667 0.9006685 0 0.434507 0.9974958 7.27081e-6 0.07072705 0.8246938 0 -0.5655796 0.5565473 0 -0.8308159 -0.07786047 1.59948e-5 -0.9969643 -0.4378452 -2.19988e-4 -0.8990504 -0.07784479 3.10473e-5 -0.9969655 -0.8990978 0 -0.4377481 -0.4378368 -1.56537e-5 -0.8990546 -0.9969609 0 -0.07790476 -0.8308172 0 0.5565454 -0.5655794 0 0.8246939 0.07072407 0 0.997496 0.4345082 0 0.9006679 0.9006665 0 0.4345113 0.9974955 -6.55249e-5 0.07072949 0.8246942 8.07966e-5 -0.565579 0.5565491 0 -0.8308148 -0.07786095 1.59948e-5 -0.9969642 -0.437842 -3.13196e-5 -0.899052 3.10246e-5 -0.996917 -0.07846391 0 -0.4314172 -0.9021526 -1.5497e-5 -0.8975415 -0.4409302 7.29197e-6 -0.07016783 -0.9975352 0 0.5619096 -0.8271987 0 0.8271996 -0.5619083 0 0.9975352 0.07016831 -8.07966e-5 0.902152 0.4314185 0 0.4408794 0.8975664 6.97663e-6 0.07852262 0.9969124 0 -0.5601873 0.8283659 0 -0.8283667 0.5601863 1.60208e-5 -0.9969193 -0.07843506 -3.14439e-5 -0.8975337 -0.4409461 0.7110918 0 0.7030993 0.7110918 0 0.7030993 0.7110918 0 0.7030993 0.7110918 0 0.7030993 3.10246e-5 -0.9969169 -0.07846617 0 -0.4314169 -0.9021527 -1.5497e-5 -0.8975405 -0.4409322 7.29196e-6 -0.07016789 -0.9975353 0 0.5619084 -0.8271996 -1.62645e-6 0.827198 -0.5619106 0 0.9975355 0.07016509 7.01686e-6 0.9021542 0.4314138 0 0.4408829 0.8975647 -8.73259e-5 0.07852655 0.9969121 0 -0.5601845 0.828368 0 -0.8283656 0.5601879 1.6023e-5 -0.9969158 -0.07847803 -3.14439e-5 -0.8975344 -0.4409446 3.12746e-5 0.7559127 -0.6546726 0 0.9470935 0.3209579 -1.57385e-5 0.9447132 -0.3278978 0 0.7598253 0.6501275 0 0.1960921 0.9805855 0 -0.1885229 0.9820688 0 -0.7564869 0.6540089 0 -0.9462783 0.3233532 0 -0.9438523 -0.330368 -9.29663e-5 -0.7526127 -0.6584634 0 -0.1870932 -0.9823422 0 0.1945967 -0.9808834 1.57103e-5 0.7559157 -0.6546692 -3.12521e-5 0.9447146 -0.3278941 -0.7149236 0 0.6992027 -0.7149236 -1.72569e-7 0.6992027 -0.7149236 0 0.6992026 -0.7149236 1.71755e-7 0.6992027 3.10246e-5 -0.9969165 -0.07846921 8.07966e-5 -0.4314159 -0.9021532 -1.5497e-5 -0.8975396 -0.440934 0 -0.0701673 -0.9975353 0 0.5619084 -0.8271995 0 0.8271982 -0.5619104 0 0.9975352 0.07016932 -7.02255e-5 0.9021521 0.4314184 0 0.4408753 0.8975684 6.97663e-6 0.07851791 0.9969128 0 -0.5601888 0.828365 7.26235e-6 -0.828368 0.5601845 1.6023e-5 -0.9969158 -0.07847893 -3.14439e-5 -0.8975344 -0.4409444 0.949459 0.3138912 0 0.9494737 0.3138468 3.93454e-7 0.9494731 0.3138485 0 0.9494728 0.3138496 -2.75057e-6 -0.9502387 0.3115229 2.74807e-7 -0.9502383 0.311524 0 -0.9502377 0.3115261 -2.7611e-7 -0.9502373 0.3115274 0 0 0 -1 0.9494733 0.313848 0 0.9494735 0.3138476 3.93454e-7 0.9494736 0.3138468 0 0.9494738 0.3138464 -3.91597e-7 -0.950238 0.3115251 2.74807e-7 -0.9502381 0.3115248 0 -0.9502382 0.3115243 -2.7611e-7 -0.9502384 0.3115241 0 0.9223757 -0.3862941 1.47259e-7 0.9223756 -0.3862941 -1.46564e-7 0.9223755 -0.3862946 0 0.9223755 -0.3862947 0 3.10473e-5 0.07783871 -0.996966 0 0.899097 -0.4377495 -1.56537e-5 0.437829 -0.8990584 -7.00559e-5 0.9969607 -0.07790726 1.6815e-6 0.8308174 0.5565452 0 0.5655813 0.8246925 0 -0.07072108 0.9974962 0 -0.434503 0.9006705 -7.146e-6 -0.9006664 0.4345113 0 -0.9974955 0.07073026 7.02255e-5 -0.8246933 -0.5655803 0 -0.5565463 -0.8308168 1.59948e-5 0.07786297 -0.9969642 -3.13196e-5 0.4378467 -0.8990496 3.10246e-5 -0.9969166 -0.07846838 0 -0.4314179 -0.9021523 -1.5497e-5 -0.8975394 -0.4409341 0 -0.07016891 -0.9975352 6.47433e-5 0.5619063 -0.8272009 0 0.8271972 -0.5619118 -7.29197e-6 0.9975351 0.07017087 -6.32363e-5 0.9021512 0.4314202 0 0.4408791 0.8975666 0 0.07852303 0.9969124 7.43883e-5 -0.5601827 0.8283691 0 -0.828364 0.5601902 1.6023e-5 -0.9969158 -0.07847893 -3.14439e-5 -0.897535 -0.4409434 0.9223749 -0.3862959 1.47259e-7 0.9223753 -0.3862949 -1.46564e-7 0.9223763 -0.3862928 0 0.9223766 -0.3862918 0 3.10472e-5 0.07784616 -0.9969654 7.28729e-5 0.8990984 -0.4377468 -1.56537e-5 0.4378296 -0.8990581 -7.00559e-5 0.9969608 -0.07790517 0 0.8308152 0.5565486 -7.02254e-5 0.5655759 0.8246963 7.2767e-5 -0.07073003 0.9974955 -7.15178e-5 -0.4345113 0.9006664 0 -0.9006685 0.4345069 0 -0.9974958 0.07072591 8.78295e-5 -0.8246933 -0.5655803 0 -0.5565463 -0.8308166 1.59948e-5 0.07786303 -0.9969641 -3.13196e-5 0.4378469 -0.8990495 2.18075e-4 0.07784718 -0.9969653 -7.28138e-6 0.8990976 -0.4377483 -1.56537e-5 0.437836 -0.8990549 0 0.9969607 -0.07790654 0 0.8308172 0.5565455 0 0.5655807 0.824693 0 -0.07072556 0.9974959 0 -0.434508 0.9006681 0 -0.9006658 0.4345126 0 -0.9974957 0.07072865 0 -0.8246951 -0.5655776 0 -0.5565475 -0.8308159 1.59948e-5 0.07786077 -0.9969642 -3.13196e-5 0.4378449 -0.8990507 -0.9235359 -0.3835121 2.90837e-7 -0.923538 -0.383507 0 -0.9235365 -0.3835105 -2.92216e-7 -0.9235386 -0.3835055 0 -0.6585451 -0.7525414 3.14595e-5 0.3233648 -0.9462744 6.66441e-5 0.6540105 -0.7564855 0 0.9820669 -0.1885331 0 0.9805924 0.1960582 0 0.6501057 0.7598438 8.77658e-5 0.320981 0.9470857 -7.67165e-5 -0.3279706 0.9446879 0 -0.6546041 0.7559719 0 -0.9808873 0.1945767 0 -0.9823507 -0.1870484 0 -0.3303316 -0.9438651 -3.11585e-5 -0.923537 -0.3835097 2.90837e-7 -0.9235377 -0.3835078 0 -0.9235371 -0.3835091 -2.92216e-7 -0.9235379 -0.3835072 0 -0.8147824 -0.5797669 4.71747e-7 -0.8147824 -0.5797669 0 -0.8147824 -0.5797669 -4.73984e-7 -0.8147824 -0.5797669 0 -0.8110694 0.58495 0 -0.8110684 0.5849514 1.67967e-7 -0.8110686 0.5849512 0 -0.8110675 0.5849525 -1.67175e-7 0.3044976 0.9525131 0 0.3044993 0.9525126 2.27791e-7 0.3044991 0.9525126 0 0.3045008 0.9525122 -2.26716e-7 0.3068287 -0.9517648 0 0.3067813 -0.95178 0 0.3067816 -0.95178 0 0.3067799 -0.9517805 0 -0.7149555 0 0.6991701 -0.7149263 -1.72569e-7 0.6991999 -0.7149224 0 0.6992038 -0.7149268 1.71755e-7 0.6991993 -0.2202541 -0.9754425 3.70988e-7 -0.2202543 -0.9754425 0 -0.2202543 -0.9754425 -3.72747e-7 -0.2202544 -0.9754425 0 -0.9955625 -0.09410279 2.67937e-7 -0.9955672 -0.0940544 0 -0.9955672 -0.09405446 -2.71508e-7 -0.9955626 -0.09410148 0 -0.406098 0.9138296 0 -0.4060978 0.9138296 2.0018e-7 -0.4060978 0.9138296 0 -0.4060978 0.9138297 -1.99236e-7 0.7453079 0.6667205 0 0.7452763 0.6667557 0 0.7452762 0.6667559 0 0.7452768 0.6667553 0 0.864353 -0.5028856 0 0.8643288 -0.5029273 0 0.8643529 -0.5028858 0 0.8643286 -0.5029276 -4.98646e-7 -0.9947893 -0.1019523 2.57366e-7 -0.9947893 -0.1019523 0 -0.9947893 -0.1019523 0 -0.9947893 -0.1019523 0 -0.4060788 0.9138381 0 -0.4060789 0.913838 0 -0.4060789 0.913838 0 -0.4060352 0.9138574 0 0.7377972 0.6750224 0 0.7377974 0.6750223 4.69382e-7 0.7377973 0.6750224 0 0.7377975 0.6750222 -4.67167e-7 0.8677455 -0.4970089 0 0.8677458 -0.4970085 2.53101e-7 0.8677457 -0.4970085 0 0.867746 -0.4970081 -1.76938e-6 -0.2127382 -0.9771093 1.48854e-7 -0.2127379 -0.9771093 0 -0.212738 -0.9771093 -1.4956e-7 -0.2127847 -0.9770992 0 -0.8147847 -0.5797637 4.71747e-7 -0.8147835 -0.5797656 0 -0.8147836 -0.5797653 -4.73984e-7 -0.8147822 -0.5797672 0 -0.8110959 0.5849133 0 -0.8110694 0.5849499 1.67967e-7 -0.8110692 0.5849502 0 -0.8110708 0.584948 -1.67175e-7 0.3044986 0.9525129 0 0.3044994 0.9525126 2.27791e-7 0.3044993 0.9525126 0 0.3045001 0.9525123 -1.59244e-6 0.3067823 -0.9517797 0 0.3067815 -0.95178 0 0.3068273 -0.9517653 0 0.3067808 -0.9517803 0 0.9820668 -0.1885332 0 0.9805923 0.196058 0 0.6501059 0.7598437 0 0.320981 0.9470857 0 -0.3279708 0.944688 0 -0.6546042 0.7559719 0 -0.9808873 0.1945767 0 -0.9823508 -0.1870486 0 1.26121e-5 0 1 -3.52668e-7 -0.4935873 -0.8696963 0 -0.493629 -0.8696727 3.52039e-7 -0.4936286 -0.8696728 0 -0.4936286 -0.8696728 0 0.4994948 -0.866317 0 0.4997026 -0.8661971 0 0.4994955 -0.8663166 0 0.4995787 -0.8662685 0 1 2.98022e-6 0 1 2.98022e-6 0 0.5028647 0.8643652 -1.61065e-7 0.5029059 0.8643413 0 0.5029048 0.8643419 1.58015e-7 0.5028631 0.8643661 0 -0.4970093 0.8677452 -1.65667e-7 -0.4970093 0.8677453 0 -0.4970092 0.8677453 1.64885e-7 -0.4970091 0.8677453 0.9494733 0.3138478 0 0.9494733 0.313848 3.93454e-7 0.9494581 0.3138939 0 0.949458 0.3138941 -3.93888e-7 -0.9502382 0.3115243 2.74807e-7 -0.950238 0.3115248 0 -0.9502378 0.3115258 -2.7611e-7 -0.9502227 0.3115719 0 0.9969176 3.11284e-4 -0.07845574 0.4314201 0 -0.9021512 0.8975396 -1.5497e-5 -0.440934 0.07016575 -7.29787e-5 -0.9975354 -0.5619091 0 -0.8271991 -0.8271985 0 -0.56191 -0.9975354 0 0.07016581 -0.902154 0 0.4314143 -0.4408817 0 0.8975654 -0.07852864 -6.98228e-5 0.9969119 0.5601859 0 0.8283671 0.8283639 0 0.5601904 0.9820668 -0.1885336 0 0.9805921 0.196059 0 0.6501067 0.7598429 7.01745e-5 0.320981 0.9470857 7.48966e-6 -0.3279711 0.9446879 7.21775e-5 -0.6546042 0.7559719 0 -0.9808874 0.1945763 0 -0.9823508 -0.1870477 0 0.996917 3.10246e-5 -0.07846367 0.4314153 6.32363e-5 -0.9021534 0.8975404 -1.5497e-5 -0.4409323 0.07016634 0 -0.9975354 -0.5619109 0 -0.8271978 -0.8271988 7.18408e-6 -0.5619094 -0.9975352 7.29787e-5 0.0701676 -0.9021523 0 0.4314178 -0.4408801 0 0.8975661 -0.07852011 0 0.9969125 0.5601865 0 0.8283666 0.8283677 7.26235e-6 0.5601847 0.9969194 1.60208e-5 -0.07843333 0.8975334 -3.14439e-5 -0.4409465 1.26121e-5 0 1 -0.5798008 0.8147584 0 -0.579801 0.8147581 0 -0.5796447 0.8148694 0 -0.5797231 0.8148137 0 0.5937104 0.8046789 0 0.5937476 0.8046514 1.58764e-7 0.5937477 0.8046513 0 0.5937464 0.8046523 -1.58015e-7 0.9486715 -0.3162633 0 0.9486715 -0.3162633 1.47259e-7 0.9486715 -0.3162633 0 0.9486715 -0.3162635 -1.46564e-7 -0.01573038 -0.9998764 2.40456e-7 -0.01573032 -0.9998764 0 -0.01573032 -0.9998764 -2.41596e-7 -0.01573032 -0.9998764 0 -0.9547508 -0.2974072 0 -0.9547508 -0.2974071 0 -0.9547508 -0.2974072 0 -0.9547508 -0.297407 0</float_array>
          <technique_common>
            <accessor source="#S_ZipLineBase_01_003-mesh-normals-array" count="511" stride="3">
              <param name="X" type="float"/>
              <param name="Y" type="float"/>
              <param name="Z" type="float"/>
            </accessor>
          </technique_common>
        </source>
        <source id="S_ZipLineBase_01_003-mesh-map">
          <float_array id="S_ZipLineBase_01_003-mesh-map-array" count="3270">0.7695313 0.5356445 0.7543945 0.5417481 0.7543945 0.5241699 0.7509766 0.1689453 0.7573242 0.1713867 0.7509766 0.1708984 0.7509766 0.1708984 0.7573242 0.1713867 0.7558594 0.1728515 0.7573242 0.1713867 0.7597656 0.177246 0.7558594 0.1728515 0.7558594 0.1728515 0.7597656 0.177246 0.7573242 0.177246 0.7597656 0.177246 0.7573242 0.1831054 0.7573242 0.177246 0.7573242 0.177246 0.7573242 0.1831054 0.7558594 0.1816406 0.7573242 0.1831054 0.7509766 0.1855468 0.7558594 0.1816406 0.7558594 0.1816406 0.7509766 0.1855468 0.7509766 0.1835937 0.7509766 0.1855468 0.7451172 0.1831054 0.7509766 0.1835937 0.7509766 0.1835937 0.7451172 0.1831054 0.746582 0.1816406 0.7451172 0.1831054 0.7426758 0.177246 0.746582 0.1816406 0.746582 0.1816406 0.7426758 0.177246 0.7446289 0.177246 0.7426758 0.177246 0.7451172 0.1713867 0.7446289 0.177246 0.7446289 0.177246 0.7451172 0.1713867 0.746582 0.1728515 0.7451172 0.1713867 0.7509766 0.1689453 0.746582 0.1728515 0.746582 0.1728515 0.7509766 0.1689453 0.7509766 0.1708984 0.5395508 0.7573242 0.3845215 0.7573242 0.5395508 0.7487793 0.5395508 0.7487793 0.3845215 0.7573242 0.3845215 0.7487793 0.3845215 0.5852051 0.5395508 0.5852051 0.3845215 0.59375 0.3845215 0.59375 0.5395508 0.5852051 0.5395508 0.59375 0.5395508 0.7487793 0.5395508 0.59375 0.5478516 0.7487793 0.5478516 0.7487793 0.5395508 0.59375 0.5478516 0.59375 0.3845215 0.7487793 0.3845215 0.59375 0.5395508 0.7487793 0.5395508 0.7487793 0.3845215 0.59375 0.5395508 0.59375 0.3759766 0.7487793 0.3759766 0.59375 0.3845215 0.7487793 0.3845215 0.7487793 0.3759766 0.59375 0.3845215 0.59375 0.6235352 0.2797852 0.4008789 0.2797852 0.6235352 0.253418 0.6235352 0.253418 0.4008789 0.2797852 0.4008789 0.253418 0.4008789 0.004394531 0.6235352 0.004394531 0.4008789 0.03076171 0.4008789 0.03076171 0.6235352 0.004394531 0.6235352 0.03076171 0.6235352 0.253418 0.6235352 0.03076171 0.6499024 0.253418 0.6499024 0.253418 0.6235352 0.03076171 0.6499024 0.03076171 0.4008789 0.253418 0.4008789 0.03076171 0.6235352 0.253418 0.6235352 0.253418 0.4008789 0.03076171 0.6235352 0.03076171 0.3745117 0.253418 0.3745117 0.03076171 0.4008789 0.253418 0.4008789 0.253418 0.3745117 0.03076171 0.4008789 0.03076171 0.7558594 0.1728515 0.746582 0.1728515 0.7509766 0.1708984 0.7573242 0.177246 0.746582 0.1728515 0.7558594 0.1728515 0.7573242 0.177246 0.7446289 0.177246 0.746582 0.1728515 0.7573242 0.177246 0.7558594 0.1816406 0.7446289 0.177246 0.7446289 0.177246 0.7558594 0.1816406 0.746582 0.1816406 0.746582 0.1816406 0.7558594 0.1816406 0.7509766 0.1835937 0.5664063 0.2900391 0.5766602 0.3041992 0.5664063 0.3007813 0.5830078 0.2954102 0.5766602 0.3041992 0.5664063 0.2900391 0.5830078 0.2954102 0.5664063 0.2900391 0.5766602 0.2866211 0.5527344 0.3120117 0.5634766 0.3271484 0.5527344 0.3232422 0.5703125 0.3178711 0.5634766 0.3271484 0.5527344 0.3120117 0.5703125 0.3178711 0.5527344 0.3120117 0.5634766 0.3085938 0.5439453 0.2885742 0.5546875 0.3037109 0.5439453 0.300293 0.5610352 0.2944336 0.5546875 0.3037109 0.5439453 0.2885742 0.5610352 0.2944336 0.5439453 0.2885742 0.5546875 0.2851563 0.5883789 0.2895508 0.5991211 0.3041992 0.5883789 0.3007813 0.605957 0.2954102 0.5991211 0.3041992 0.5883789 0.2895508 0.605957 0.2954102 0.5883789 0.2895508 0.5991211 0.2861328 0.02377319 0.1000976 0.01378631 0.1499023 0.01383972 0.09912109 0.02377319 0.1000976 0.01383972 0.09912109 0.02380371 0.046875 0.02380371 0.046875 0.01383972 0.09912109 0.01383972 0.04638671 0.01381683 0.1723632 0.01378631 0.1499023 0.02369689 0.1723632 0.02369689 0.1723632 0.01378631 0.1499023 0.02368164 0.1508789 0.02368164 0.1508789 0.01378631 0.1499023 0.02377319 0.1000976 0.02368164 0.1508789 0.02377319 0.1000976 0.03359985 0.1499023 0.03359985 0.1499023 0.02377319 0.1000976 0.03359985 0.09960937 0.02377319 0.1000976 0.02380371 0.046875 0.03359985 0.09960937 0.03359985 0.09960937 0.02380371 0.046875 0.03359985 0.04541015 0.03359985 0.04541015 0.02380371 0.046875 0.03359985 0.004394531 0.03359985 0.004394531 0.02380371 0.046875 0.02325439 0.004394531 0.02380371 0.046875 0.01383972 0.04638671 0.02325439 0.004394531 0.02325439 0.004394531 0.01383972 0.04638671 0.01363372 0.004394531 0.01383972 0.04638671 0.003932952 0.004394531 0.01363372 0.004394531 0.003932952 0.04541015 0.003932952 0.004394531 0.01383972 0.04638671 0.01383972 0.04638671 0.003932952 0.09960937 0.003932952 0.04541015 0.01383972 0.09912109 0.003932952 0.09960937 0.01383972 0.04638671 0.01383972 0.09912109 0.003932952 0.1499023 0.003932952 0.09960937 0.01378631 0.1499023 0.003932952 0.1499023 0.01383972 0.09912109 0.01378631 0.1499023 0.003932952 0.1723632 0.003932952 0.1499023 0.01381683 0.1723632 0.003932952 0.1723632 0.01378631 0.1499023 0.003932952 0.1723632 0.01381683 0.1723632 0.003932952 0.9049683 0.003932952 0.9368286 0.014122 0.9436646 0.003932952 0.9438477 0.01401519 0.9359131 0.014122 0.9436646 0.003932952 0.9368286 0.003932952 0.9281616 0.01401519 0.9359131 0.003932952 0.9368286 0.01360321 0.927124 0.01401519 0.9359131 0.003932952 0.9281616 0.003932952 0.9154663 0.01360321 0.927124 0.003932952 0.9281616 0.01364898 0.914978 0.01360321 0.927124 0.003932952 0.9154663 0.003932952 0.9049683 0.01364898 0.914978 0.003932952 0.9154663 0.01385498 0.9049072 0.01364898 0.914978 0.003932952 0.9049683 0.003932952 0.9049683 0.01381683 0.1723632 0.01385498 0.9049072 0.01381683 0.1723632 0.02369689 0.1723632 0.01385498 0.9049072 0.03359985 0.1723632 0.02368164 0.1508789 0.03359985 0.1499023 0.02369689 0.1723632 0.02368164 0.1508789 0.03359985 0.1723632 0.02369689 0.1723632 0.03359985 0.1723632 0.02371215 0.9050903 0.01385498 0.9049072 0.02369689 0.1723632 0.02371215 0.9050903 0.01385498 0.9049072 0.02371215 0.9050903 0.01364898 0.914978 0.01364898 0.914978 0.02371215 0.9050903 0.02323913 0.9141235 0.01364898 0.914978 0.02323913 0.9141235 0.01360321 0.927124 0.01360321 0.927124 0.02323913 0.9141235 0.02316284 0.9274292 0.01360321 0.927124 0.02316284 0.9274292 0.01401519 0.9359131 0.01401519 0.9359131 0.02316284 0.9274292 0.02331542 0.9367066 0.02371215 0.9050903 0.03359985 0.1723632 0.03359985 0.9050903 0.03359985 0.9050903 0.03359985 0.9156494 0.02371215 0.9050903 0.02371215 0.9050903 0.03359985 0.9156494 0.02323913 0.9141235 0.02323913 0.9141235 0.03359985 0.9156494 0.02316284 0.9274292 0.02316284 0.9274292 0.03359985 0.9156494 0.03359985 0.9281006 0.02316284 0.9274292 0.03359985 0.9281006 0.02331542 0.9367066 0.02331542 0.9367066 0.03359985 0.9281006 0.03359985 0.9366455 0.03359985 0.9366455 0.03359985 0.9436646 0.02331542 0.9367066 0.01401519 0.9359131 0.02331542 0.9367066 0.014122 0.9436646 0.014122 0.9436646 0.02331542 0.9367066 0.02369689 0.9439087 0.014122 0.9436646 0.02369689 0.9439087 0.0138626 0.9512024 0.0138626 0.9512024 0.02369689 0.9439087 0.0236206 0.9516602 0.02331542 0.9367066 0.03359985 0.9436646 0.02369689 0.9439087 0.02369689 0.9439087 0.03359985 0.9436646 0.0236206 0.9516602 0.0236206 0.9516602 0.03359985 0.9436646 0.03359985 0.951416 0.03359985 0.951416 0.03359985 0.9960327 0.0236206 0.9516602 0.0236206 0.9516602 0.03359985 0.9960327 0.02349853 0.9960327 0.01416778 0.9960327 0.0236206 0.9516602 0.02349853 0.9960327 0.0138626 0.9512024 0.0236206 0.9516602 0.01416778 0.9960327 0.0138626 0.9512024 0.01416778 0.9960327 0.003932952 0.9516296 0.003932952 0.9438477 0.0138626 0.9512024 0.003932952 0.9516296 0.014122 0.9436646 0.0138626 0.9512024 0.003932952 0.9438477 0.003932952 0.9516296 0.01416778 0.9960327 0.003932952 0.9960327 0.6103516 0.2900391 0.6210938 0.3046875 0.6103516 0.3012695 0.6274414 0.2954102 0.6210938 0.3046875 0.6103516 0.2900391 0.6274414 0.2954102 0.6103516 0.2900391 0.6210938 0.2866211 0.3747559 0.7679443 0.3864746 0.7679443 0.3747559 0.8771973 0.3747559 0.8771973 0.3864746 0.7679443 0.3864746 0.8771973 0.3864746 0.7679443 0.3979492 0.7679443 0.3864746 0.8771973 0.3864746 0.8771973 0.3979492 0.7679443 0.3979492 0.8771973 0.3979492 0.7679443 0.409668 0.7679443 0.3979492 0.8771973 0.3979492 0.8771973 0.409668 0.7679443 0.409668 0.8771973 0.409668 0.7679443 0.4211426 0.7679443 0.409668 0.8771973 0.409668 0.8771973 0.4211426 0.7679443 0.4211426 0.8771973 0.4211426 0.7679443 0.4328613 0.7679443 0.4211426 0.8771973 0.4211426 0.8771973 0.4328613 0.7679443 0.4328613 0.8771973 0.4328613 0.7679443 0.4443359 0.7679443 0.4328613 0.8771973 0.4328613 0.8771973 0.4443359 0.7679443 0.4443359 0.8771973 0.04467773 0.004394531 0.05664062 0.004394531 0.04467773 0.9940147 0.04467773 0.9940147 0.05664062 0.004394531 0.05664062 0.9940147 0.05664062 0.004394531 0.06860351 0.004394531 0.05664062 0.9940147 0.05664062 0.9940147 0.06860351 0.004394531 0.06860351 0.9940147 0.06860351 0.004394531 0.0805664 0.004394531 0.06860351 0.9940147 0.06860351 0.9940147 0.0805664 0.004394531 0.0805664 0.9940147 0.0805664 0.004394531 0.09252929 0.004394531 0.0805664 0.9940147 0.0805664 0.9940147 0.09252929 0.004394531 0.09252929 0.9940147 0.09252929 0.004394531 0.1044921 0.004394531 0.09252929 0.9940147 0.09252929 0.9940147 0.1044921 0.004394531 0.1044921 0.9940147 0.1044921 0.004394531 0.116455 0.004394531 0.1044921 0.9940147 0.1044921 0.9940147 0.116455 0.004394531 0.116455 0.9940147 0.7666016 0.8846436 0.7783203 0.8846436 0.7666016 0.9946861 0.7666016 0.9946861 0.7783203 0.8846436 0.7783203 0.9946861 0.7783203 0.8846436 0.7900391 0.8846436 0.7783203 0.9946861 0.7783203 0.9946861 0.7900391 0.8846436 0.7900391 0.9946861 0.7900391 0.8846436 0.8012695 0.8846436 0.7900391 0.9946861 0.7900391 0.9946861 0.8012695 0.8846436 0.8012695 0.9946861 0.8012695 0.8846436 0.8129883 0.8846436 0.8012695 0.9946861 0.8012695 0.9946861 0.8129883 0.8846436 0.8129883 0.9946861 0.8129883 0.8846436 0.824707 0.8846436 0.8129883 0.9946861 0.8129883 0.9946861 0.824707 0.8846436 0.824707 0.9946861 0.824707 0.8846436 0.8364258 0.8846436 0.824707 0.9946861 0.824707 0.9946861 0.8364258 0.8846436 0.8364258 0.9946861 0.7524414 0.4243164 0.7661133 0.4365234 0.7524414 0.4482422 0.925293 0.8843384 0.9370117 0.8843384 0.925293 0.9943848 0.925293 0.9943848 0.9370117 0.8843384 0.9370117 0.9943848 0.9370117 0.8843384 0.9487305 0.8843384 0.9370117 0.9943848 0.9370117 0.9943848 0.9487305 0.8843384 0.9487305 0.9943848 0.9487305 0.8843384 0.9604492 0.8843384 0.9487305 0.9943848 0.9487305 0.9943848 0.9604492 0.8843384 0.9604492 0.9943848 0.9604492 0.8843384 0.9716797 0.8843384 0.9604492 0.9943848 0.9604492 0.9943848 0.9716797 0.8843384 0.9716797 0.9943848 0.9716797 0.8843384 0.9833984 0.8843384 0.9716797 0.9943848 0.9716797 0.9943848 0.9833984 0.8843384 0.9833984 0.9943848 0.9833984 0.8843384 0.9951172 0.8843384 0.9833984 0.9943848 0.9833984 0.9943848 0.9951172 0.8843384 0.9951172 0.9943848 0.7475586 0.4243164 0.7524414 0.4243164 0.7480469 0.4482422 0.7480469 0.4482422 0.7524414 0.4243164 0.7524414 0.4482422 0.734375 0.4365234 0.7475586 0.4243164 0.7480469 0.4482422 0.453125 0.8846436 0.4648438 0.8846436 0.453125 0.9946861 0.453125 0.9946861 0.4648438 0.8846436 0.4648438 0.9946861 0.4648438 0.8846436 0.4763184 0.8846436 0.4648438 0.9946861 0.4648438 0.9946861 0.4763184 0.8846436 0.4763184 0.9946861 0.4763184 0.8846436 0.4880371 0.8846436 0.4763184 0.9946861 0.4763184 0.9946861 0.4880371 0.8846436 0.4880371 0.9946861 0.4880371 0.8846436 0.4995117 0.8846436 0.4880371 0.9946861 0.4880371 0.9946861 0.4995117 0.8846436 0.4995117 0.9946861 0.4995117 0.8846436 0.5112305 0.8846436 0.4995117 0.9946861 0.4995117 0.9946861 0.5112305 0.8846436 0.5112305 0.9946861 0.5112305 0.8846436 0.5224609 0.8846436 0.5112305 0.9946861 0.5112305 0.9946861 0.5224609 0.8846436 0.5224609 0.9946861 0.7529297 0.4199219 0.7529297 0.3959961 0.7666016 0.4077149 0.9257813 0.7677002 0.9375 0.7677002 0.9257813 0.8770142 0.9257813 0.8770142 0.9375 0.7677002 0.9375 0.8770142 0.9375 0.7677002 0.9492188 0.7677002 0.9375 0.8770142 0.9375 0.8770142 0.9492188 0.7677002 0.9492188 0.8770142 0.9492188 0.7677002 0.9609375 0.7677002 0.9492188 0.8770142 0.9492188 0.8770142 0.9609375 0.7677002 0.9609375 0.8770142 0.9609375 0.7677002 0.9726563 0.7677002 0.9609375 0.8770142 0.9609375 0.8770142 0.9726563 0.7677002 0.9726563 0.8770142 0.9726563 0.7677002 0.984375 0.7677002 0.9726563 0.8770142 0.9726563 0.8770142 0.984375 0.7677002 0.984375 0.8770142 0.984375 0.7677002 0.9960938 0.7677002 0.984375 0.8770142 0.984375 0.8770142 0.9960938 0.7677002 0.9960938 0.8770142 0.734375 0.4077149 0.7480469 0.3959961 0.7480469 0.4199219 0.6875 0.7679443 0.6992188 0.7679443 0.6875 0.8771973 0.6875 0.8771973 0.6992188 0.7679443 0.6992188 0.8771973 0.6992188 0.7679443 0.7109375 0.7679443 0.6992188 0.8771973 0.6992188 0.8771973 0.7109375 0.7679443 0.7109375 0.8771973 0.7109375 0.7679443 0.7226563 0.7679443 0.7109375 0.8771973 0.7109375 0.8771973 0.7226563 0.7679443 0.7226563 0.8771973 0.7226563 0.7679443 0.7348633 0.7679443 0.7226563 0.8771973 0.7226563 0.8771973 0.7348633 0.7679443 0.7348633 0.8771973 0.7348633 0.7679443 0.746582 0.7679443 0.7348633 0.8771973 0.7348633 0.8771973 0.746582 0.7679443 0.746582 0.8771973 0.746582 0.7679443 0.7583008 0.7679443 0.746582 0.8771973 0.746582 0.8771973 0.7583008 0.7679443 0.7583008 0.8771973 0.7524414 0.4526367 0.7661133 0.4648438 0.7524414 0.4765625 0.7661133 0.7679443 0.777832 0.7679443 0.7661133 0.8771973 0.7661133 0.8771973 0.777832 0.7679443 0.777832 0.8771973 0.777832 0.7679443 0.7900391 0.7679443 0.777832 0.8771973 0.777832 0.8771973 0.7900391 0.7679443 0.7900391 0.8771973 0.7900391 0.7679443 0.8017578 0.7679443 0.7900391 0.8771973 0.7900391 0.8771973 0.8017578 0.7679443 0.8017578 0.8771973 0.8017578 0.7679443 0.8134766 0.7679443 0.8017578 0.8771973 0.8017578 0.8771973 0.8134766 0.7679443 0.8134766 0.8771973 0.8134766 0.7679443 0.8251953 0.7679443 0.8134766 0.8771973 0.8134766 0.8771973 0.8251953 0.7679443 0.8251953 0.8771973 0.8251953 0.7679443 0.8369141 0.7679443 0.8251953 0.8771973 0.8251953 0.8771973 0.8369141 0.7679443 0.8369141 0.8771973 0.7480469 0.4526367 0.7524414 0.4526367 0.7480469 0.4765625 0.7480469 0.4765625 0.7524414 0.4526367 0.7524414 0.4765625 0.734375 0.4648438 0.7480469 0.4526367 0.7480469 0.4765625 0.4523926 0.7679443 0.4641113 0.7679443 0.4523926 0.8771973 0.4523926 0.8771973 0.4641113 0.7679443 0.4641113 0.8771973 0.4641113 0.7679443 0.4758301 0.7679443 0.4641113 0.8771973 0.4641113 0.8771973 0.4758301 0.7679443 0.4758301 0.8771973 0.4758301 0.7679443 0.487793 0.7679443 0.4758301 0.8771973 0.4758301 0.8771973 0.487793 0.7679443 0.487793 0.8771973 0.487793 0.7679443 0.4995117 0.7679443 0.487793 0.8771973 0.487793 0.8771973 0.4995117 0.7679443 0.4995117 0.8771973 0.4995117 0.7679443 0.5112305 0.7679443 0.4995117 0.8771973 0.4995117 0.8771973 0.5112305 0.7679443 0.5112305 0.8771973 0.5112305 0.7679443 0.5229492 0.7679443 0.5112305 0.8771973 0.5112305 0.8771973 0.5229492 0.7679443 0.5229492 0.8771973 0.7529297 0.3911133 0.7529297 0.3671875 0.7666016 0.3789063 0.53125 0.8846436 0.5429688 0.8846436 0.53125 0.9946861 0.53125 0.9946861 0.5429688 0.8846436 0.5429688 0.9946861 0.5429688 0.8846436 0.5546875 0.8846436 0.5429688 0.9946861 0.5429688 0.9946861 0.5546875 0.8846436 0.5546875 0.9946861 0.5546875 0.8846436 0.5664063 0.8846436 0.5546875 0.9946861 0.5546875 0.9946861 0.5664063 0.8846436 0.5664063 0.9946861 0.5664063 0.8846436 0.5776367 0.8846436 0.5664063 0.9946861 0.5664063 0.9946861 0.5776367 0.8846436 0.5776367 0.9946861 0.5776367 0.8846436 0.5893555 0.8846436 0.5776367 0.9946861 0.5776367 0.9946861 0.5893555 0.8846436 0.5893555 0.9946861 0.5893555 0.8846436 0.6010742 0.8846436 0.5893555 0.9946861 0.5893555 0.9946861 0.6010742 0.8846436 0.6010742 0.9946861 0.7480469 0.3911133 0.7480469 0.3671875 0.7529297 0.3911133 0.7529297 0.3911133 0.7480469 0.3671875 0.7529297 0.3671875 0.734375 0.3789063 0.7480469 0.3671875 0.7480469 0.3911133 0.6098633 0.8846436 0.621582 0.8846436 0.6098633 0.9946861 0.6098633 0.9946861 0.621582 0.8846436 0.621582 0.9946861 0.621582 0.8846436 0.6328125 0.8846436 0.621582 0.9946861 0.621582 0.9946861 0.6328125 0.8846436 0.6328125 0.9946861 0.6328125 0.8846436 0.6445313 0.8846436 0.6328125 0.9946861 0.6328125 0.9946861 0.6445313 0.8846436 0.6445313 0.9946861 0.6445313 0.8846436 0.65625 0.8846436 0.6445313 0.9946861 0.6445313 0.9946861 0.65625 0.8846436 0.65625 0.9946861 0.65625 0.8846436 0.6679688 0.8846436 0.65625 0.9946861 0.65625 0.9946861 0.6679688 0.8846436 0.6679688 0.9946861 0.6679688 0.8846436 0.6791992 0.8846436 0.6679688 0.9946861 0.6679688 0.9946861 0.6791992 0.8846436 0.6791992 0.9946861 0.4118652 0.3466797 0.4250488 0.3466797 0.4118652 0.3764649 0.4118652 0.3764649 0.4250488 0.3466797 0.4250488 0.3764649 0.4313965 0.3466797 0.4445801 0.3466797 0.4313965 0.3764649 0.4313965 0.3764649 0.4445801 0.3466797 0.4445801 0.3764649 0.4208984 0.3334961 0.435791 0.3334961 0.4250488 0.3466797 0.4250488 0.3466797 0.435791 0.3334961 0.4313965 0.3466797 0.4250488 0.3764649 0.4313965 0.3764649 0.4208984 0.3896484 0.4208984 0.3896484 0.4313965 0.3764649 0.435791 0.3896484 0.4250488 0.3466797 0.4313965 0.3466797 0.4250488 0.3764649 0.4250488 0.3764649 0.4313965 0.3466797 0.4313965 0.3764649 0.3720703 0.347168 0.3852539 0.347168 0.3720703 0.3769531 0.3720703 0.3769531 0.3852539 0.347168 0.3852539 0.3769531 0.3916016 0.347168 0.4047852 0.347168 0.3916016 0.3769531 0.3916016 0.3769531 0.4047852 0.347168 0.4047852 0.3769531 0.3808594 0.3339844 0.395752 0.3339844 0.3852539 0.347168 0.3852539 0.347168 0.395752 0.3339844 0.3916016 0.347168 0.3852539 0.3769531 0.3916016 0.3769531 0.3808594 0.3901367 0.3808594 0.3901367 0.3916016 0.3769531 0.395752 0.3901367 0.3852539 0.347168 0.3916016 0.347168 0.3852539 0.3769531 0.3852539 0.3769531 0.3916016 0.347168 0.3916016 0.3769531 0.7543945 0.520752 0.7475586 0.520752 0.7543945 0.5031738 0.7543945 0.5031738 0.7475586 0.520752 0.7475586 0.5031738 0.7543945 0.5031738 0.7695313 0.5144043 0.7543945 0.520752 0.3747559 0.8846436 0.3864746 0.8846436 0.3747559 0.9946861 0.3747559 0.9946861 0.3864746 0.8846436 0.3864746 0.9946861 0.3864746 0.8846436 0.3979492 0.8846436 0.3864746 0.9946861 0.3864746 0.9946861 0.3979492 0.8846436 0.3979492 0.9946861 0.3979492 0.8846436 0.409668 0.8846436 0.3979492 0.9946861 0.3979492 0.9946861 0.409668 0.8846436 0.409668 0.9946861 0.409668 0.8846436 0.4211426 0.8846436 0.409668 0.9946861 0.409668 0.9946861 0.4211426 0.8846436 0.4211426 0.9946861 0.4211426 0.8846436 0.4328613 0.8846436 0.4211426 0.9946861 0.4211426 0.9946861 0.4328613 0.8846436 0.4328613 0.9946861 0.4328613 0.8846436 0.4443359 0.8846436 0.4328613 0.9946861 0.4328613 0.9946861 0.4443359 0.8846436 0.4443359 0.9946861 0.7324219 0.5146484 0.7475586 0.5031738 0.7475586 0.520752 0.6879883 0.8846436 0.699707 0.8846436 0.6879883 0.9946861 0.6879883 0.9946861 0.699707 0.8846436 0.699707 0.9946861 0.699707 0.8846436 0.7114258 0.8846436 0.699707 0.9946861 0.699707 0.9946861 0.7114258 0.8846436 0.7114258 0.9946861 0.7114258 0.8846436 0.7231445 0.8846436 0.7114258 0.9946861 0.7114258 0.9946861 0.7231445 0.8846436 0.7231445 0.9946861 0.7231445 0.8846436 0.734375 0.8846436 0.7231445 0.9946861 0.7231445 0.9946861 0.734375 0.8846436 0.734375 0.9946861 0.734375 0.8846436 0.7460938 0.8846436 0.734375 0.9946861 0.734375 0.9946861 0.7460938 0.8846436 0.7460938 0.9946861 0.7460938 0.8846436 0.7578125 0.8846436 0.7460938 0.9946861 0.7460938 0.9946861 0.7578125 0.8846436 0.7578125 0.9946861 0.7543945 0.5651856 0.7475586 0.5651856 0.7543945 0.5478516 0.7543945 0.5478516 0.7475586 0.5651856 0.7475586 0.5478516 0.7543945 0.5478516 0.7695313 0.559082 0.7543945 0.5651856 0.5307617 0.7679443 0.5424805 0.7679443 0.5307617 0.8771973 0.5307617 0.8771973 0.5424805 0.7679443 0.5424805 0.8771973 0.5424805 0.7679443 0.5541992 0.7679443 0.5424805 0.8771973 0.5424805 0.8771973 0.5541992 0.7679443 0.5541992 0.8771973 0.5541992 0.7679443 0.565918 0.7679443 0.5541992 0.8771973 0.5541992 0.8771973 0.565918 0.7679443 0.565918 0.8771973 0.565918 0.7679443 0.578125 0.7679443 0.565918 0.8771973 0.565918 0.8771973 0.578125 0.7679443 0.578125 0.8771973 0.578125 0.7679443 0.5898438 0.7679443 0.578125 0.8771973 0.578125 0.8771973 0.5898438 0.7679443 0.5898438 0.8771973 0.5898438 0.7679443 0.6015625 0.7679443 0.5898438 0.8771973 0.5898438 0.8771973 0.6015625 0.7679443 0.6015625 0.8771973 0.7324219 0.559082 0.7475586 0.5478516 0.7475586 0.5651856 0.609375 0.7679443 0.6210938 0.7679443 0.609375 0.8771973 0.609375 0.8771973 0.6210938 0.7679443 0.6210938 0.8771973 0.6210938 0.7679443 0.6328125 0.7679443 0.6210938 0.8771973 0.6210938 0.8771973 0.6328125 0.7679443 0.6328125 0.8771973 0.6328125 0.7679443 0.6445313 0.7679443 0.6328125 0.8771973 0.6328125 0.8771973 0.6445313 0.7679443 0.6445313 0.8771973 0.6445313 0.7679443 0.65625 0.7679443 0.6445313 0.8771973 0.6445313 0.8771973 0.65625 0.7679443 0.65625 0.8771973 0.65625 0.7679443 0.668457 0.7679443 0.65625 0.8771973 0.65625 0.8771973 0.668457 0.7679443 0.668457 0.8771973 0.668457 0.7679443 0.6801758 0.7679443 0.668457 0.8771973 0.668457 0.8771973 0.6801758 0.7679443 0.6801758 0.8771973 0.7475586 0.4995117 0.7475586 0.4824219 0.7543945 0.4995117 0.7543945 0.4995117 0.7475586 0.4824219 0.7543945 0.4824219 0.7475586 0.4824219 0.7475586 0.4995117 0.7324219 0.4936524 0.4848633 0.3105469 0.4719238 0.3330078 0.4719238 0.2885742 0.4719238 0.2885742 0.4719238 0.3330078 0.4460449 0.3330078 0.4719238 0.2885742 0.4460449 0.3330078 0.4460449 0.2885742 0.4460449 0.2885742 0.4460449 0.3330078 0.4331055 0.3105469 0.7695313 0.4936524 0.7543945 0.4995117 0.7543945 0.4824219 0.1260986 0.004394531 0.1380615 0.004394531 0.1260986 0.9940147 0.1260986 0.9940147 0.1380615 0.004394531 0.1380615 0.9940147 0.1380615 0.004394531 0.1500244 0.004394531 0.1380615 0.9940147 0.1380615 0.9940147 0.1500244 0.004394531 0.1500244 0.9940147 0.1500244 0.004394531 0.1619873 0.004394531 0.1500244 0.9940147 0.1500244 0.9940147 0.1619873 0.004394531 0.1619873 0.9940147 0.1619873 0.004394531 0.1739501 0.004394531 0.1619873 0.9940147 0.1619873 0.9940147 0.1739501 0.004394531 0.1739501 0.9940147 0.1739501 0.004394531 0.185913 0.004394531 0.1739501 0.9940147 0.1739501 0.9940147 0.185913 0.004394531 0.185913 0.9940147 0.185913 0.004394531 0.1978759 0.004394531 0.185913 0.9940147 0.185913 0.9940147 0.1978759 0.004394531 0.1978759 0.9940147 0.7475586 0.5417481 0.7475586 0.5241699 0.7543945 0.5417481 0.7543945 0.5417481 0.7475586 0.5241699 0.7543945 0.5241699 0.7475586 0.5241699 0.7475586 0.5417481 0.7324219 0.5356445 0.5664063 0.3632813 0.5537109 0.3857422 0.5537109 0.3413086 0.5537109 0.3413086 0.5537109 0.3857422 0.527832 0.3857422 0.5537109 0.3413086 0.527832 0.3857422 0.527832 0.3413086 0.527832 0.3413086 0.527832 0.3857422 0.5146484 0.3632813 0.6420899 0.3203125 0.6420899 0.355957 0.6025391 0.3203125 0.6025391 0.3203125 0.6420899 0.355957 0.6025391 0.355957 0.715332 0.3203125 0.715332 0.355957 0.6420899 0.3203125 0.6420899 0.3203125 0.715332 0.355957 0.6420899 0.355957 0.7548828 0.3203125 0.7548828 0.355957 0.715332 0.3203125 0.715332 0.3203125 0.7548828 0.355957 0.715332 0.355957 0.6870117 0.2480468 0.6943359 0.2480468 0.6870117 0.2548828 0.6870117 0.2548828 0.6943359 0.2480468 0.6943359 0.2548828 0.6796875 0.2480468 0.6870117 0.2480468 0.6796875 0.2548828 0.6796875 0.2548828 0.6870117 0.2480468 0.6870117 0.2548828 0.6723633 0.2480468 0.6796875 0.2480468 0.6723633 0.2548828 0.6723633 0.2548828 0.6796875 0.2480468 0.6796875 0.2548828 0.6650391 0.2480468 0.6723633 0.2480468 0.6650391 0.2548828 0.6650391 0.2548828 0.6723633 0.2480468 0.6723633 0.2548828 0.6577149 0.2480468 0.6650391 0.2480468 0.6577149 0.2548828 0.6577149 0.2548828 0.6650391 0.2480468 0.6650391 0.2548828 0.7480469 0.4199219 0.7480469 0.3959961 0.7529297 0.4199219 0.7529297 0.4199219 0.7480469 0.3959961 0.7529297 0.3959961 0.6870117 0.2148437 0.6943359 0.2148437 0.6870117 0.2226562 0.6870117 0.2226562 0.6943359 0.2148437 0.6943359 0.2226562 0.6796875 0.2148437 0.6870117 0.2148437 0.6796875 0.2226562 0.6796875 0.2226562 0.6870117 0.2148437 0.6870117 0.2226562 0.6723633 0.2148437 0.6796875 0.2148437 0.6723633 0.2226562 0.6723633 0.2226562 0.6796875 0.2148437 0.6796875 0.2226562 0.6650391 0.2148437 0.6723633 0.2148437 0.6650391 0.2226562 0.6650391 0.2226562 0.6723633 0.2148437 0.6723633 0.2226562 0.6577149 0.2148437 0.6650391 0.2148437 0.6577149 0.2226562 0.6577149 0.2226562 0.6650391 0.2148437 0.6650391 0.2226562 0.6870117 0.2260742 0.6943359 0.2260742 0.6870117 0.2338867 0.6870117 0.2338867 0.6943359 0.2260742 0.6943359 0.2338867 0.6796875 0.2260742 0.6870117 0.2260742 0.6796875 0.2338867 0.6796875 0.2338867 0.6870117 0.2260742 0.6870117 0.2338867 0.6723633 0.2260742 0.6796875 0.2260742 0.6723633 0.2338867 0.6723633 0.2338867 0.6796875 0.2260742 0.6796875 0.2338867 0.6650391 0.2260742 0.6723633 0.2260742 0.6650391 0.2338867 0.6650391 0.2338867 0.6723633 0.2260742 0.6723633 0.2338867 0.6577149 0.2260742 0.6650391 0.2260742 0.6577149 0.2338867 0.6577149 0.2338867 0.6650391 0.2260742 0.6650391 0.2338867 0.6870117 0.2373046 0.6943359 0.2373046 0.6870117 0.2451171 0.6870117 0.2451171 0.6943359 0.2373046 0.6943359 0.2451171 0.6796875 0.2373046 0.6870117 0.2373046 0.6796875 0.2451171 0.6796875 0.2451171 0.6870117 0.2373046 0.6870117 0.2451171 0.6723633 0.2373046 0.6796875 0.2373046 0.6723633 0.2451171 0.6723633 0.2451171 0.6796875 0.2373046 0.6796875 0.2451171 0.6650391 0.2373046 0.6723633 0.2373046 0.6650391 0.2451171 0.6650391 0.2451171 0.6723633 0.2373046 0.6723633 0.2451171 0.6572266 0.2373046 0.6650391 0.2373046 0.6572266 0.2451171 0.6572266 0.2451171 0.6650391 0.2373046 0.6650391 0.2451171 0.6162109 0.362793 0.6308594 0.371582 0.6015625 0.371582 0.6015625 0.371582 0.6308594 0.371582 0.6308594 0.3881836 0.6015625 0.371582 0.6308594 0.3881836 0.6015625 0.3881836 0.6015625 0.3881836 0.6308594 0.3881836 0.6162109 0.3969727 0.2095947 0.004394531 0.2215576 0.004394531 0.2095947 0.9940147 0.2095947 0.9940147 0.2215576 0.004394531 0.2215576 0.9940147 0.2215576 0.004394531 0.2335205 0.004394531 0.2215576 0.9940147 0.2215576 0.9940147 0.2335205 0.004394531 0.2335205 0.9940147 0.2335205 0.004394531 0.2454833 0.004394531 0.2335205 0.9940147 0.2335205 0.9940147 0.2454833 0.004394531 0.2454833 0.9940147 0.2454833 0.004394531 0.2573242 0.004394531 0.2454833 0.9940147 0.2454833 0.9940147 0.2573242 0.004394531 0.2573242 0.9940147 0.2573242 0.004394531 0.2692871 0.004394531 0.2573242 0.9940147 0.2573242 0.9940147 0.2692871 0.004394531 0.2692871 0.9940147 0.2692871 0.004394531 0.28125 0.004394531 0.2692871 0.9940147 0.2692871 0.9940147 0.28125 0.004394531 0.28125 0.9940147 0.6005859 0.394043 0.5712891 0.394043 0.5859375 0.3852539 0.6005859 0.394043 0.6005859 0.4106445 0.5712891 0.394043 0.5712891 0.394043 0.6005859 0.4106445 0.5712891 0.4106445 0.5712891 0.4106445 0.6005859 0.4106445 0.5859375 0.4194336 0.5429688 0.3105469 0.5302734 0.3330078 0.5302734 0.2880859 0.5302734 0.2880859 0.5302734 0.3330078 0.5043945 0.3330078 0.5302734 0.2880859 0.5043945 0.3330078 0.5043945 0.2880859 0.5043945 0.2880859 0.5043945 0.3330078 0.4916992 0.3105469 0.8081055 0.3085938 0.7939453 0.3085938 0.8081055 0.2441406 0.8081055 0.2441406 0.7939453 0.3085938 0.7939453 0.2441406 0.8217774 0.3085938 0.8081055 0.3085938 0.8217774 0.2441406 0.8217774 0.2441406 0.8081055 0.3085938 0.8081055 0.2441406 0.7485352 0.3085938 0.7324219 0.3085938 0.7485352 0.2441406 0.7485352 0.2441406 0.7324219 0.3085938 0.7324219 0.2441406 0.7626953 0.3085938 0.7485352 0.3085938 0.7626953 0.2441406 0.7626953 0.2441406 0.7485352 0.3085938 0.7485352 0.2441406 0.777832 0.3085938 0.7626953 0.3085938 0.777832 0.2441406 0.777832 0.2441406 0.7626953 0.3085938 0.7626953 0.2441406 0.7939453 0.3085938 0.777832 0.3085938 0.7939453 0.2441406 0.7939453 0.2441406 0.777832 0.3085938 0.777832 0.2441406 0.6420899 0.2802734 0.715332 0.2802734 0.6420899 0.3203125 0.6420899 0.3203125 0.715332 0.2802734 0.715332 0.3203125 0.715332 0.3955078 0.6420899 0.3955078 0.715332 0.355957 0.715332 0.355957 0.6420899 0.3955078 0.6420899 0.355957 0.3720703 0.2856445 0.3852539 0.2856445 0.3720703 0.3154297 0.3720703 0.3154297 0.3852539 0.2856445 0.3852539 0.3154297 0.3916016 0.2856445 0.4047852 0.2856445 0.3916016 0.3154297 0.3916016 0.3154297 0.4047852 0.2856445 0.4047852 0.3154297 0.3808594 0.2724609 0.395752 0.2724609 0.3852539 0.2856445 0.3852539 0.2856445 0.395752 0.2724609 0.3916016 0.2856445 0.3852539 0.3154297 0.3916016 0.3154297 0.3808594 0.3286133 0.3808594 0.3286133 0.3916016 0.3154297 0.395752 0.3286133 0.3852539 0.2856445 0.3916016 0.2856445 0.3852539 0.3154297 0.3852539 0.3154297 0.3916016 0.2856445 0.3916016 0.3154297 0.722168 0.7570801 0.5581055 0.7570801 0.722168 0.5930176 0.722168 0.5930176 0.5581055 0.7570801 0.5581055 0.5930176 0.5493164 0.5778809 0.3850098 0.5778809 0.5493164 0.5688477 0.5493164 0.5688477 0.3850098 0.5778809 0.3850098 0.5688477 0.3850098 0.3955078 0.5493164 0.3955078 0.3850098 0.4047852 0.3850098 0.4047852 0.5493164 0.3955078 0.5493164 0.4047852 0.5493164 0.5688477 0.5493164 0.4047852 0.5585938 0.5688477 0.5585938 0.5688477 0.5493164 0.4047852 0.5585938 0.4047852 0.3850098 0.5688477 0.3850098 0.4047852 0.5493164 0.5688477 0.5493164 0.5688477 0.3850098 0.4047852 0.5493164 0.4047852 0.3759766 0.5688477 0.3759766 0.4047852 0.3850098 0.5688477 0.3850098 0.5688477 0.3759766 0.4047852 0.3850098 0.4047852 0.8452149 0.7667236 0.8569336 0.7667236 0.8452149 0.8776856 0.8452149 0.8776856 0.8569336 0.7667236 0.8569336 0.8776856 0.8569336 0.7667236 0.8686524 0.7667236 0.8569336 0.8776856 0.8569336 0.8776856 0.8686524 0.7667236 0.8686524 0.8776856 0.8686524 0.7667236 0.8803711 0.7667236 0.8686524 0.8776856 0.8686524 0.8776856 0.8803711 0.7667236 0.8803711 0.8776856 0.8803711 0.7667236 0.8920899 0.7667236 0.8803711 0.8776856 0.8803711 0.8776856 0.8920899 0.7667236 0.8920899 0.8776856 0.8920899 0.7667236 0.9038086 0.7667236 0.8920899 0.8776856 0.8920899 0.8776856 0.9038086 0.7667236 0.9038086 0.8776856 0.9038086 0.7667236 0.9160156 0.7667236 0.9038086 0.8776856 0.9038086 0.8776856 0.9160156 0.7667236 0.9160156 0.8776856 0.2929688 0.004394531 0.3049317 0.004394531 0.2929688 0.9940147 0.2929688 0.9940147 0.3049317 0.004394531 0.3049317 0.9940147 0.3049317 0.004394531 0.3168945 0.004394531 0.3049317 0.9940147 0.3049317 0.9940147 0.3168945 0.004394531 0.3168945 0.9940147 0.3168945 0.004394531 0.3288574 0.004394531 0.3168945 0.9940147 0.3168945 0.9940147 0.3288574 0.004394531 0.3288574 0.9940147 0.3288574 0.004394531 0.3408203 0.004394531 0.3288574 0.9940147 0.3288574 0.9940147 0.3408203 0.004394531 0.3408203 0.9940147 0.3408203 0.004394531 0.3527832 0.004394531 0.3408203 0.9940147 0.3408203 0.9940147 0.3527832 0.004394531 0.3527832 0.9940147 0.3527832 0.004394531 0.3647461 0.004394531 0.3527832 0.9940147 0.3527832 0.9940147 0.3647461 0.004394531 0.3647461 0.9940147 0.8442383 0.8840332 0.8564453 0.8840332 0.8442383 0.9949799 0.8442383 0.9949799 0.8564453 0.8840332 0.8564453 0.9949799 0.8564453 0.8840332 0.8681641 0.8840332 0.8564453 0.9949799 0.8564453 0.9949799 0.8681641 0.8840332 0.8681641 0.9949799 0.8681641 0.8840332 0.8798828 0.8840332 0.8681641 0.9949799 0.8681641 0.9949799 0.8798828 0.8840332 0.8798828 0.9949799 0.8798828 0.8840332 0.8916016 0.8840332 0.8798828 0.9949799 0.8798828 0.9949799 0.8916016 0.8840332 0.8916016 0.9949799 0.8916016 0.8840332 0.9033203 0.8840332 0.8916016 0.9949799 0.8916016 0.9949799 0.9033203 0.8840332 0.9033203 0.9949799 0.9033203 0.8840332 0.9150391 0.8840332 0.9033203 0.9949799 0.9033203 0.9949799 0.9150391 0.8840332 0.9150391 0.9949799 0.5078125 0.3632813 0.4951172 0.3857422 0.4951172 0.3413086 0.4951172 0.3413086 0.4951172 0.3857422 0.4692383 0.3857422 0.4951172 0.3413086 0.4692383 0.3857422 0.4692383 0.3413086 0.4692383 0.3413086 0.4692383 0.3857422 0.4562988 0.3632813 0.7006836 0.2387695 0.7006836 0.196289 0.855957 0.2387695 0.855957 0.2387695 0.7006836 0.196289 0.855957 0.196289 0.7006836 0.046875 0.7006836 0.004882812 0.855957 0.046875 0.855957 0.046875 0.7006836 0.004882812 0.855957 0.004882812 0.6582031 0.196289 0.6582031 0.046875 0.7006836 0.196289 0.7006836 0.196289 0.6582031 0.046875 0.7006836 0.046875 0.5688477 0.4282227 0.71875 0.4282227 0.5688477 0.5830078 0.5688477 0.5830078 0.71875 0.4282227 0.71875 0.5830078 0.855957 0.196289 0.855957 0.046875 0.8979492 0.196289 0.8979492 0.196289 0.855957 0.046875 0.8979492 0.046875 0.7006836 0.196289 0.7006836 0.046875 0.855957 0.196289 0.855957 0.196289 0.7006836 0.046875 0.855957 0.046875 0.6870117 0.203125 0.6943359 0.203125 0.6870117 0.2109375 0.6870117 0.2109375 0.6943359 0.203125 0.6943359 0.2109375 0.6796875 0.203125 0.6870117 0.203125 0.6796875 0.2109375 0.6796875 0.2109375 0.6870117 0.203125 0.6870117 0.2109375 0.6723633 0.203125 0.6796875 0.203125 0.6723633 0.2109375 0.6723633 0.2109375 0.6796875 0.203125 0.6796875 0.2109375 0.6650391 0.203125 0.6723633 0.203125 0.6650391 0.2109375 0.6650391 0.2109375 0.6723633 0.203125 0.6723633 0.2109375 0.6577149 0.203125 0.6650391 0.203125 0.6577149 0.2109375 0.6577149 0.2109375 0.6650391 0.203125 0.6650391 0.2109375</float_array>
          <technique_common>
            <accessor source="#S_ZipLineBase_01_003-mesh-map-array" count="1635" stride="2">
              <param name="S" type="float"/>
              <param name="T" type="float"/>
            </accessor>
          </technique_common>
        </source>
        <vertices id="S_ZipLineBase_01_003-mesh-vertices">
          <input semantic="POSITION" source="#S_ZipLineBase_01_003-mesh-positions"/>
        </vertices>
        <triangles material="hpl3export_M_ZipLineBase_01-material" count="545">
          <input semantic="VERTEX" source="#S_ZipLineBase_01_003-mesh-vertices" offset="0"/>
          <input semantic="NORMAL" source="#S_ZipLineBase_01_003-mesh-normals" offset="1"/>
          <input semantic="TEXCOORD" source="#S_ZipLineBase_01_003-mesh-map" offset="2" set="0"/>
          <p>0 0 0 1 0 1 2 0 2 3 1 3 4 2 4 5 3 5 5 3 6 4 2 7 6 4 8 4 2 9 7 5 10 6 4 11 6 4 12 7 5 13 8 6 14 7 5 15 9 7 16 8 6 17 8 6 18 9 7 19 10 8 20 9 7 21 11 9 22 10 8 23 10 8 24 11 9 25 12 10 26 11 9 27 13 11 28 12 10 29 12 10 30 13 11 31 14 12 32 13 11 33 15 13 34 14 12 35 14 12 36 15 13 37 16 14 38 15 13 39 17 15 40 16 14 41 16 14 42 17 15 43 18 16 44 17 15 45 3 1 46 18 16 47 18 16 48 3 1 49 5 3 50 19 17 51 20 17 52 21 17 53 21 17 54 20 17 55 22 17 56 23 18 57 24 18 58 25 18 59 25 18 60 24 18 61 26 18 62 27 19 63 28 19 64 29 19 65 29 19 66 28 19 67 30 19 68 31 0 69 32 0 70 33 0 71 33 0 72 32 0 73 34 0 74 35 20 75 36 20 76 37 20 77 37 20 78 36 20 79 38 20 80 39 17 81 40 17 82 41 17 83 41 17 84 40 17 85 42 17 86 43 18 87 44 18 88 45 18 89 45 18 90 44 18 91 46 18 92 47 19 93 48 19 94 49 19 95 49 19 96 48 19 97 50 19 98 51 0 99 52 0 100 53 0 101 53 0 102 52 0 103 54 0 104 55 20 105 56 20 106 57 20 107 57 20 108 56 20 109 58 20 110 59 20 111 60 20 112 61 20 113 62 21 114 60 21 115 59 21 116 62 20 117 63 20 118 60 20 119 62 20 120 64 20 121 63 20 122 63 22 123 64 22 124 65 22 125 65 20 126 64 20 127 66 20 128 67 23 129 68 23 130 69 23 131 70 0 132 68 0 133 67 0 134 70 24 135 67 24 136 71 24 137 72 0 138 73 0 139 74 0 140 75 0 141 73 0 142 72 0 143 75 25 144 72 25 145 76 25 146 77 0 147 78 0 148 79 0 149 80 0 150 78 0 151 77 0 152 80 0 153 77 0 154 81 0 155 82 26 156 83 26 157 84 26 158 85 27 159 83 27 160 82 27 161 85 28 162 82 28 163 86 28 164 87 29 165 88 30 166 89 31 167 87 29 168 89 31 169 90 32 170 90 32 171 89 31 172 91 33 173 92 34 174 88 30 175 93 35 176 93 35 177 88 30 178 94 36 179 94 36 180 88 30 181 87 29 182 94 36 183 87 29 184 95 37 185 95 37 186 87 29 187 96 38 188 87 29 189 90 32 190 96 38 191 96 38 192 90 32 193 97 39 194 97 39 195 90 32 196 98 40 197 98 40 198 90 32 199 99 41 200 90 32 201 91 33 202 99 41 203 99 41 204 91 33 205 100 42 206 91 33 207 101 43 208 100 42 209 102 44 210 101 43 211 91 33 212 91 33 213 103 45 214 102 44 215 89 31 216 103 45 217 91 33 218 89 31 219 104 46 220 103 45 221 88 30 222 104 46 223 89 31 224 88 30 225 105 47 226 104 46 227 92 34 228 105 47 229 88 30 230 105 47 231 92 34 232 106 48 233 107 49 234 108 50 235 109 51 236 110 52 237 108 50 238 107 49 239 111 53 240 110 52 241 107 49 242 112 54 243 110 52 244 111 53 245 113 55 246 112 54 247 111 53 248 114 56 249 112 54 250 113 55 251 106 48 252 114 56 253 113 55 254 115 57 255 114 56 256 106 48 257 106 48 258 92 34 259 115 57 260 92 34 261 93 35 262 115 57 263 116 58 264 94 36 265 95 37 266 93 35 267 94 36 268 116 58 269 93 35 270 116 58 271 117 59 272 115 57 273 93 35 274 117 59 275 115 57 276 117 59 277 114 56 278 114 56 279 117 59 280 118 60 281 114 56 282 118 60 283 112 54 284 112 54 285 118 60 286 119 61 287 112 54 288 119 61 289 110 52 290 110 52 291 119 61 292 120 62 293 117 59 294 116 58 295 121 63 296 121 63 297 122 64 298 117 59 299 117 59 300 122 64 301 118 60 302 118 60 303 122 64 304 119 61 305 119 61 306 122 64 307 123 65 308 119 61 309 123 65 310 120 62 311 120 62 312 123 65 313 124 66 314 124 66 315 125 67 316 120 62 317 110 52 318 120 62 319 108 50 320 108 50 321 120 62 322 126 68 323 108 50 324 126 68 325 127 69 326 127 69 327 126 68 328 128 70 329 120 62 330 125 67 331 126 68 332 126 68 333 125 67 334 128 70 335 128 70 336 125 67 337 129 71 338 129 71 339 130 72 340 128 70 341 128 70 342 130 72 343 131 73 344 132 74 345 128 70 346 131 73 347 127 69 348 128 70 349 132 74 350 127 69 351 132 74 352 133 75 353 109 51 354 127 69 355 133 75 356 108 50 357 127 69 358 109 51 359 133 75 360 132 74 361 134 76 362 135 0 363 136 0 364 137 0 365 138 0 366 136 0 367 135 0 368 138 77 369 135 77 370 139 77 371 140 78 372 141 79 373 142 80 374 142 80 375 141 79 376 143 81 377 141 79 378 144 82 379 143 81 380 143 81 381 144 82 382 145 83 383 144 82 384 146 84 385 145 83 386 145 83 387 146 84 388 147 85 389 146 84 390 148 86 391 147 85 392 147 85 393 148 86 394 149 87 395 148 86 396 150 88 397 149 87 398 149 87 399 150 88 400 151 89 401 150 88 402 152 90 403 151 89 404 151 89 405 152 90 406 153 91 407 154 92 408 155 93 409 156 94 410 156 94 411 155 93 412 157 95 413 155 93 414 158 96 415 157 95 416 157 95 417 158 96 418 159 97 419 158 96 420 160 98 421 159 97 422 159 97 423 160 98 424 161 99 425 160 98 426 162 100 427 161 99 428 161 99 429 162 100 430 163 101 431 162 100 432 164 102 433 163 101 434 163 101 435 164 102 436 165 103 437 164 102 438 166 104 439 165 103 440 165 103 441 166 104 442 167 105 443 168 106 444 169 107 445 170 108 446 170 108 447 169 107 448 171 109 449 169 107 450 172 110 451 171 109 452 171 109 453 172 110 454 173 111 455 172 110 456 174 112 457 173 111 458 173 111 459 174 112 460 175 113 461 174 112 462 176 114 463 175 113 464 175 113 465 176 114 466 177 115 467 176 114 468 178 116 469 177 115 470 177 115 471 178 116 472 179 117 473 178 116 474 180 118 475 179 117 476 179 117 477 180 118 478 181 119 479 182 19 480 183 19 481 184 19 482 185 120 483 186 121 484 187 122 485 187 122 486 186 121 487 188 123 488 186 121 489 189 124 490 188 123 491 188 123 492 189 124 493 190 125 494 189 124 495 191 126 496 190 125 497 190 125 498 191 126 499 192 127 500 191 126 501 193 128 502 192 127 503 192 127 504 193 128 505 194 129 506 193 128 507 195 130 508 194 129 509 194 129 510 195 130 511 196 131 512 195 130 513 197 132 514 196 131 515 196 131 516 197 132 517 198 133 518 199 134 519 200 135 520 201 136 521 201 136 522 200 135 523 202 137 524 203 20 525 204 20 526 205 20 527 206 138 528 207 139 529 208 140 530 208 140 531 207 139 532 209 141 533 207 139 534 210 142 535 209 141 536 209 141 537 210 142 538 211 143 539 210 142 540 212 144 541 211 143 542 211 143 543 212 144 544 213 145 545 212 144 546 214 146 547 213 145 548 213 145 549 214 146 550 215 147 551 214 146 552 216 148 553 215 147 554 215 147 555 216 148 556 217 149 557 216 148 558 218 150 559 217 149 560 217 149 561 218 150 562 219 151 563 220 19 564 221 19 565 222 19 566 223 152 567 224 153 568 225 154 569 225 154 570 224 153 571 226 155 572 224 153 573 227 156 574 226 155 575 226 155 576 227 156 577 228 157 578 227 156 579 229 158 580 228 157 581 228 157 582 229 158 583 230 159 584 229 158 585 231 160 586 230 159 587 230 159 588 231 160 589 232 161 590 231 160 591 233 162 592 232 161 593 232 161 594 233 162 595 234 163 596 233 162 597 235 164 598 234 163 599 234 163 600 235 164 601 236 165 602 237 20 603 238 20 604 239 20 605 240 166 606 241 167 607 242 168 608 242 168 609 241 167 610 243 169 611 241 167 612 244 170 613 243 169 614 243 169 615 244 170 616 245 171 617 244 170 618 246 172 619 245 171 620 245 171 621 246 172 622 247 173 623 246 172 624 248 174 625 247 173 626 247 173 627 248 174 628 249 175 629 248 174 630 250 176 631 249 175 632 249 175 633 250 176 634 251 177 635 250 176 636 252 178 637 251 177 638 251 177 639 252 178 640 253 179 641 254 19 642 255 19 643 256 19 644 257 180 645 258 181 646 259 182 647 259 182 648 258 181 649 260 183 650 258 181 651 261 184 652 260 183 653 260 183 654 261 184 655 262 185 656 261 184 657 263 186 658 262 185 659 262 185 660 263 186 661 264 187 662 263 186 663 265 188 664 264 187 665 264 187 666 265 188 667 266 189 668 265 188 669 267 190 670 266 189 671 266 189 672 267 190 673 268 191 674 267 190 675 269 192 676 268 191 677 268 191 678 269 192 679 270 193 680 271 194 681 272 195 682 273 196 683 273 196 684 272 195 685 274 197 686 275 20 687 276 20 688 277 20 689 278 198 690 279 199 691 280 200 692 280 200 693 279 199 694 281 201 695 279 199 696 282 202 697 281 201 698 281 201 699 282 202 700 283 203 701 282 202 702 284 204 703 283 203 704 283 203 705 284 204 706 285 205 707 284 204 708 286 206 709 285 205 710 285 205 711 286 206 712 287 207 713 286 206 714 288 208 715 287 207 716 287 207 717 288 208 718 289 209 719 288 208 720 290 210 721 289 209 722 289 209 723 290 210 724 291 211 725 292 19 726 293 19 727 294 19 728 295 212 729 296 213 730 297 214 731 297 214 732 296 213 733 298 215 734 296 213 735 299 216 736 298 215 737 298 215 738 299 216 739 300 217 740 299 216 741 301 218 742 300 217 743 300 217 744 301 218 745 302 219 746 301 218 747 303 220 748 302 219 749 302 219 750 303 220 751 304 221 752 303 220 753 305 222 754 304 221 755 304 221 756 305 222 757 306 223 758 305 222 759 307 224 760 306 223 761 306 223 762 307 224 763 308 225 764 309 226 765 310 227 766 311 228 767 311 228 768 310 227 769 312 229 770 313 20 771 314 20 772 315 20 773 316 230 774 317 231 775 318 232 776 318 232 777 317 231 778 319 233 779 317 231 780 320 234 781 319 233 782 319 233 783 320 234 784 321 235 785 320 234 786 322 236 787 321 235 788 321 235 789 322 236 790 323 237 791 322 236 792 324 238 793 323 237 794 323 237 795 324 238 796 325 239 797 324 238 798 326 240 799 325 239 800 325 239 801 326 240 802 327 241 803 326 240 804 328 242 805 327 241 806 327 241 807 328 242 808 329 243 809 330 244 810 331 245 811 332 246 812 332 246 813 331 245 814 333 247 815 334 248 816 335 249 817 336 250 818 336 250 819 335 249 820 337 251 821 338 252 822 339 252 823 340 252 824 340 252 825 339 252 826 341 252 827 342 0 828 343 0 829 344 0 830 344 0 831 343 0 832 345 0 833 346 20 834 347 20 835 348 20 836 348 20 837 347 20 838 349 20 839 350 253 840 351 254 841 352 255 842 352 255 843 351 254 844 353 256 845 354 257 846 355 258 847 356 259 848 356 259 849 355 258 850 357 260 851 358 252 852 359 252 853 360 252 854 360 252 855 359 252 856 361 252 857 362 0 858 363 0 859 364 0 860 364 0 861 363 0 862 365 0 863 366 20 864 367 20 865 368 20 866 368 20 867 367 20 868 369 20 869 370 261 870 371 262 871 372 263 872 372 263 873 371 262 874 373 264 875 374 252 876 375 252 877 376 252 878 377 265 879 378 266 880 379 267 881 379 267 882 378 266 883 380 268 884 378 266 885 381 269 886 380 268 887 380 268 888 381 269 889 382 270 890 381 269 891 383 271 892 382 270 893 382 270 894 383 271 895 384 272 896 383 271 897 385 273 898 384 272 899 384 272 900 385 273 901 386 274 902 385 273 903 387 275 904 386 274 905 386 274 906 387 275 907 388 276 908 387 275 909 389 277 910 388 276 911 388 276 912 389 277 913 390 278 914 391 0 915 392 0 916 393 0 917 394 279 918 395 280 919 396 281 920 396 281 921 395 280 922 397 282 923 395 280 924 398 283 925 397 282 926 397 282 927 398 283 928 399 284 929 398 283 930 400 285 931 399 284 932 399 284 933 400 285 934 401 286 935 400 285 936 402 287 937 401 286 938 401 286 939 402 287 940 403 288 941 402 287 942 404 289 943 403 288 944 403 288 945 404 289 946 405 290 947 404 289 948 406 291 949 405 290 950 405 290 951 406 291 952 407 292 953 408 293 954 409 294 955 410 295 956 410 295 957 409 294 958 411 296 959 412 252 960 413 252 961 414 252 962 415 297 963 416 298 964 417 299 965 417 299 966 416 298 967 418 300 968 416 298 969 419 301 970 418 300 971 418 300 972 419 301 973 420 302 974 419 301 975 421 303 976 420 302 977 420 302 978 421 303 979 422 304 980 421 303 981 423 305 982 422 304 983 422 304 984 423 305 985 424 306 986 423 305 987 425 307 988 424 306 989 424 306 990 425 307 991 426 308 992 425 307 993 427 309 994 426 308 995 426 308 996 427 309 997 428 310 998 429 0 999 430 0 1000 431 0 1001 432 311 1002 433 312 1003 434 313 1004 434 313 1005 433 312 1006 435 314 1007 433 312 1008 436 315 1009 435 314 1010 435 314 1011 436 315 1012 437 316 1013 436 315 1014 438 317 1015 437 316 1016 437 316 1017 438 317 1018 439 318 1019 438 317 1020 440 319 1021 439 318 1022 439 318 1023 440 319 1024 441 320 1025 440 319 1026 442 321 1027 441 320 1028 441 320 1029 442 321 1030 443 322 1031 442 321 1032 444 323 1033 443 322 1034 443 322 1035 444 323 1036 445 324 1037 446 325 1038 447 326 1039 448 327 1040 448 327 1041 447 326 1042 449 328 1043 450 252 1044 451 252 1045 452 252 1046 453 0 1047 454 0 1048 455 0 1049 455 0 1050 454 0 1051 456 0 1052 455 0 1053 456 0 1054 457 0 1055 457 0 1056 456 0 1057 458 0 1058 459 0 1059 460 0 1060 461 0 1061 462 329 1062 463 330 1063 464 94 1064 464 94 1065 463 330 1066 465 331 1067 463 330 1068 466 332 1069 465 331 1070 465 331 1071 466 332 1072 467 333 1073 466 332 1074 468 334 1075 467 333 1076 467 333 1077 468 334 1078 469 335 1079 468 334 1080 470 336 1081 469 335 1082 469 335 1083 470 336 1084 471 337 1085 470 336 1086 472 338 1087 471 337 1088 471 337 1089 472 338 1090 473 339 1091 472 338 1092 474 104 1093 473 339 1094 473 339 1095 474 104 1096 475 340 1097 476 341 1098 477 342 1099 478 343 1100 478 343 1101 477 342 1102 479 344 1103 480 252 1104 481 252 1105 482 252 1106 483 0 1107 484 0 1108 485 0 1109 485 0 1110 484 0 1111 486 0 1112 485 0 1113 486 0 1114 487 0 1115 487 0 1116 486 0 1117 488 0 1118 489 19 1119 490 19 1120 491 19 1121 491 19 1122 490 19 1123 492 19 1124 493 0 1125 494 0 1126 495 0 1127 495 0 1128 494 0 1129 496 0 1130 497 20 1131 498 20 1132 499 20 1133 499 20 1134 498 20 1135 500 20 1136 501 345 1137 502 346 1138 503 347 1139 503 347 1140 502 346 1141 504 348 1142 505 349 1143 506 350 1144 507 351 1145 507 351 1146 506 350 1147 508 352 1148 509 353 1149 510 354 1150 511 355 1151 511 355 1152 510 354 1153 512 356 1154 513 17 1155 514 17 1156 515 17 1157 515 17 1158 514 17 1159 516 17 1160 517 357 1161 518 358 1162 519 359 1163 519 359 1164 518 358 1165 520 360 1166 521 361 1167 522 362 1168 523 363 1169 523 363 1170 522 362 1171 524 364 1172 525 365 1173 526 366 1174 527 367 1175 527 367 1176 526 366 1177 528 368 1178 529 369 1179 530 370 1180 531 371 1181 531 371 1182 530 370 1183 532 372 1184 533 373 1185 534 374 1186 535 375 1187 535 375 1188 534 374 1189 536 376 1190 537 377 1191 538 378 1192 539 379 1193 539 379 1194 538 378 1195 540 380 1196 541 381 1197 542 382 1198 543 383 1199 543 383 1200 542 382 1201 544 384 1202 545 385 1203 546 386 1204 547 387 1205 547 387 1206 546 386 1207 548 388 1208 549 389 1209 550 390 1210 551 391 1211 551 391 1212 550 390 1213 552 392 1214 553 393 1215 554 394 1216 555 395 1217 555 395 1218 554 394 1219 556 396 1220 557 397 1221 558 398 1222 559 399 1223 559 399 1224 558 398 1225 560 400 1226 561 401 1227 562 402 1228 563 403 1229 563 403 1230 562 402 1231 564 404 1232 565 405 1233 566 406 1234 567 407 1235 567 407 1236 566 406 1237 568 408 1238 569 409 1239 570 410 1240 571 411 1241 571 411 1242 570 410 1243 572 412 1244 573 413 1245 574 414 1246 575 415 1247 575 415 1248 574 414 1249 576 416 1250 577 17 1251 578 17 1252 579 17 1253 579 17 1254 578 17 1255 580 17 1256 581 417 1257 582 418 1258 583 419 1259 583 419 1260 582 418 1261 584 420 1262 585 18 1263 586 18 1264 587 18 1265 587 18 1266 586 18 1267 588 18 1268 587 18 1269 588 18 1270 589 18 1271 589 18 1272 588 18 1273 590 18 1274 591 329 1275 592 330 1276 593 94 1277 593 94 1278 592 330 1279 594 331 1280 592 330 1281 595 421 1282 594 331 1283 594 331 1284 595 421 1285 596 422 1286 595 421 1287 597 423 1288 596 422 1289 596 422 1290 597 423 1291 598 424 1292 597 423 1293 599 425 1294 598 424 1295 598 424 1296 599 425 1297 600 426 1298 599 425 1299 601 427 1300 600 426 1301 600 426 1302 601 427 1303 602 428 1304 601 427 1305 603 104 1306 602 428 1307 602 428 1308 603 104 1309 604 340 1310 605 17 1311 606 17 1312 607 17 1313 605 17 1314 608 17 1315 606 17 1316 606 17 1317 608 17 1318 609 17 1319 609 17 1320 608 17 1321 610 17 1322 611 0 1323 612 0 1324 613 0 1325 613 0 1326 612 0 1327 614 0 1328 613 0 1329 614 0 1330 615 0 1331 615 429 1332 614 429 1333 616 429 1334 617 430 1335 618 431 1336 619 432 1337 619 432 1338 618 431 1339 620 433 1340 621 434 1341 622 435 1342 623 436 1343 623 436 1344 622 435 1345 624 437 1346 625 438 1347 626 438 1348 627 438 1349 627 439 1350 626 439 1351 628 439 1352 629 440 1353 630 441 1354 631 442 1355 631 442 1356 630 441 1357 632 443 1358 633 444 1359 634 445 1360 635 446 1361 635 446 1362 634 445 1363 636 447 1364 637 19 1365 638 19 1366 639 19 1367 639 19 1368 638 19 1369 640 19 1370 641 17 1371 642 17 1372 643 17 1373 643 17 1374 642 17 1375 644 17 1376 645 18 1377 646 18 1378 647 18 1379 647 18 1380 646 18 1381 648 18 1382 649 448 1383 650 449 1384 651 450 1385 651 450 1386 650 449 1387 652 451 1388 653 452 1389 654 453 1390 655 454 1391 655 454 1392 654 453 1393 656 455 1394 657 252 1395 658 252 1396 659 252 1397 659 252 1398 658 252 1399 660 252 1400 661 0 1401 662 0 1402 663 0 1403 663 0 1404 662 0 1405 664 0 1406 665 20 1407 666 20 1408 667 20 1409 667 20 1410 666 20 1411 668 20 1412 669 252 1413 670 252 1414 671 252 1415 671 252 1416 670 252 1417 672 252 1418 673 17 1419 674 17 1420 675 17 1421 675 17 1422 674 17 1423 676 17 1424 677 18 1425 678 18 1426 679 18 1427 679 18 1428 678 18 1429 680 18 1430 681 19 1431 682 19 1432 683 19 1433 683 19 1434 682 19 1435 684 19 1436 685 0 1437 686 0 1438 687 0 1439 687 0 1440 686 0 1441 688 0 1442 689 20 1443 690 20 1444 691 20 1445 691 20 1446 690 20 1447 692 20 1448 693 456 1449 694 457 1450 695 458 1451 695 458 1452 694 457 1453 696 459 1454 694 457 1455 697 460 1456 696 459 1457 696 459 1458 697 460 1459 698 461 1460 697 460 1461 699 462 1462 698 461 1463 698 461 1464 699 462 1465 700 463 1466 699 462 1467 701 464 1468 700 463 1469 700 463 1470 701 464 1471 702 465 1472 701 464 1473 703 466 1474 702 465 1475 702 465 1476 703 466 1477 704 467 1478 703 466 1479 705 90 1480 704 467 1481 704 467 1482 705 90 1483 706 91 1484 707 92 1485 708 93 1486 709 94 1487 709 94 1488 708 93 1489 710 95 1490 708 93 1491 711 468 1492 710 95 1493 710 95 1494 711 468 1495 712 469 1496 711 468 1497 713 470 1498 712 469 1499 712 469 1500 713 470 1501 714 471 1502 713 470 1503 715 472 1504 714 471 1505 714 471 1506 715 472 1507 716 473 1508 715 472 1509 717 474 1510 716 473 1511 716 473 1512 717 474 1513 718 475 1514 717 474 1515 719 104 1516 718 475 1517 718 475 1518 719 104 1519 720 105 1520 721 476 1521 722 477 1522 723 478 1523 723 478 1524 722 477 1525 724 479 1526 722 477 1527 725 480 1528 724 479 1529 724 479 1530 725 480 1531 726 481 1532 725 480 1533 727 482 1534 726 481 1535 726 481 1536 727 482 1537 728 483 1538 727 482 1539 729 484 1540 728 483 1541 728 483 1542 729 484 1543 730 485 1544 729 484 1545 731 486 1546 730 485 1547 730 485 1548 731 486 1549 732 487 1550 731 486 1551 733 488 1552 732 487 1553 732 487 1554 733 488 1555 734 489 1556 735 0 1557 736 0 1558 737 0 1559 737 0 1560 736 0 1561 738 0 1562 737 0 1563 738 0 1564 739 0 1565 739 490 1566 738 490 1567 740 490 1568 741 17 1569 742 17 1570 743 17 1571 743 17 1572 742 17 1573 744 17 1574 745 18 1575 746 18 1576 747 18 1577 747 18 1578 746 18 1579 748 18 1580 749 252 1581 750 252 1582 751 252 1583 751 252 1584 750 252 1585 752 252 1586 753 19 1587 754 19 1588 755 19 1589 755 19 1590 754 19 1591 756 19 1592 757 0 1593 758 0 1594 759 0 1595 759 0 1596 758 0 1597 760 0 1598 761 20 1599 762 20 1600 763 20 1601 763 20 1602 762 20 1603 764 20 1604 765 491 1605 766 492 1606 767 493 1607 767 493 1608 766 492 1609 768 494 1610 769 495 1611 770 496 1612 771 497 1613 771 497 1614 770 496 1615 772 498 1616 773 499 1617 774 500 1618 775 501 1619 775 501 1620 774 500 1621 776 502 1622 777 503 1623 778 504 1624 779 505 1625 779 505 1626 778 504 1627 780 506 1628 781 507 1629 782 508 1630 783 509 1631 783 509 1632 782 508 1633 784 510 1634</p>
        </triangles>
      </mesh>
    </geometry>
  </library_geometries>
  <library_visual_scenes>
    <visual_scene id="Scene" name="Scene">
      <node id="S_ZipLineBase_01_001" name="S_ZipLineBase_01.001" type="NODE">
        <matrix sid="transform">0 0 1 0 0 1 0 0 -1 0 0 0 0 0 0 1</matrix>
        <instance_geometry url="#S_ZipLineBase_01_003-mesh" name="S_ZipLineBase_01.001">
          <bind_material>
            <technique_common>
              <instance_material symbol="hpl3export_M_ZipLineBase_01-material" target="#hpl3export_M_ZipLineBase_01-material"/>
            </technique_common>
          </bind_material>
        </instance_geometry>
      </node>
    </visual_scene>
  </library_visual_scenes>
  <scene>
    <instance_visual_scene url="#Scene"/>
  </scene>
</COLLADA>