<?xml version="1.0" encoding="utf-8"?>
<COLLADA xmlns="http://www.collada.org/2005/11/COLLADASchema" version="1.4.1">
  <asset>
    <contributor>
      <author>Marc</author>
      <authoring_tool>OpenCOLLADA2008</authoring_tool>
      <comments>
			ColladaMaya export options: 
			bakeTransforms=1;relativePaths=1;copyTextures=0;exportTriangles=1;exportCgfxFileReferences=0;
			isSampling=0;curveConstrainSampling=0;removeStaticCurves=0;exportPolygonMeshes=1;exportLights=0;
			exportCameras=0;exportJointsAndSkin=1;exportAnimations=1;exportInvisibleNodes=0;exportDefaultCameras=0;
			exportTexCoords=1;exportNormals=1;exportNormalsPerVertex=0;exportVertexColors=0;exportVertexColorsPerVertex=0;
			exportTexTangents=0;exportTangents=0;exportReferencedMaterials=0;exportMaterialsOnly=0;
			exportXRefs=0;dereferenceXRefs=0;exportCameraAsLookat=0;cameraXFov=0;cameraYFov=1;doublePrecision=0
		</comments>
      <source_data>file:///E:/depth/redist/untitled</source_data>
    </contributor>
    <created>2014-12-23T08:57:18</created>
    <modified>2014-12-23T08:57:18</modified>
    <unit name="meter" meter="1"/>
    <up_axis>Y_UP</up_axis>
  </asset>
  <library_materials>
    <material id="lambert3" name="omnislot_inside_left_light_lambert3">
      <instance_effect url="#lambert3-fx"/>
    </material>
  </library_materials>
  <library_effects>
    <effect id="lambert3-fx">
      <profile_COMMON>
        <newparam sid="file2-surface">
          <surface type="2D">
            <init_from>file2</init_from>
          </surface>
        </newparam>
        <newparam sid="file2-sampler">
          <sampler2D>
            <source>file2-surface</source>
          </sampler2D>
        </newparam>
        <technique sid="common">
          <lambert>
            <emission>
              <color>0 0 0 1</color>
            </emission>
            <ambient>
              <color>0 0 0 1</color>
            </ambient>
            <diffuse>
              <texture texture="file2-sampler" texcoord="TEX0">
                <extra>
                  <technique profile="OpenCOLLADAMaya">
                    <blend_mode>NONE</blend_mode>
                    <coverageU>1</coverageU>
                    <coverageV>1</coverageV>
                    <fast>0</fast>
                    <mirrorU>0</mirrorU>
                    <mirrorV>0</mirrorV>
                    <noiseU>0</noiseU>
                    <noiseV>0</noiseV>
                    <offsetU>0</offsetU>
                    <offsetV>0</offsetV>
                    <repeatU>1</repeatU>
                    <repeatV>1</repeatV>
                    <rotateFrame>0</rotateFrame>
                    <rotateUV>0</rotateUV>
                    <stagger>0</stagger>
                    <translateFrameU>0</translateFrameU>
                    <translateFrameV>0</translateFrameV>
                    <wrapU>1</wrapU>
                    <wrapV>1</wrapV>
                  </technique>
                </extra>
              </texture>
            </diffuse>
            <transparent opaque="RGB_ZERO">
              <color>0 0 0 1</color>
            </transparent>
            <transparency>
              <float>1</float>
            </transparency>
          </lambert>
        </technique>
      </profile_COMMON>
    </effect>
  </library_effects>
  <library_images>
    <image id="file2" name="omnislot_inside_left_light_file2">
      <init_from>file://.//entities/station/panels/omnislot_inside/omnislot_inside_top.dds</init_from>
      <extra>
        <technique profile="OpenCOLLADAMaya">
          <dgnode_type>kFile</dgnode_type>
          <image_sequence>0</image_sequence>
          <originalMayaNodeId>omnislot_inside_left_light_file2</originalMayaNodeId>
        </technique>
      </extra>
    </image>
  </library_images>
  <library_geometries>
    <geometry id="polySurfaceShape113" name="polySurfaceShape37">
      <mesh>
        <source id="polySurfaceShape113-positions" name="polySurfaceShape113-positions">
          <float_array id="polySurfaceShape113-positions-array" count="120">0.1313945 0.251405 0.02339153 0.1313945 0.2301497 0.02339153 0.07446335 0.2460918 0.02339153 0.07517521 0.2487485 0.02339153 0.07711994 0.2506932 0.02339153 0.07977665 0.251405 0.02339153 0.07711994 0.2308615 0.02339153 0.07517521 0.2328064 0.02339153 0.07446335 0.2354631 0.02339153 0.07977665 0.2301497 0.02339153 0.1288287 0.2327156 0.03073936 0.1304527 0.2310916 0.03011892 0.1313945 0.2301497 0.02817352 0.1304527 0.2504631 0.03011892 0.1288287 0.2488391 0.03073936 0.1313945 0.251405 0.02817352 0.07988426 0.2505879 0.0299299 0.08011448 0.2488393 0.03073936 0.07977665 0.251405 0.02817352 0.08011448 0.2327156 0.03073936 0.07988426 0.2309669 0.0299299 0.07977665 0.2301497 0.02817352 0.07702908 0.2457539 0.03073936 0.07527912 0.245984 0.02992889 0.07446335 0.2460918 0.02817352 0.07528057 0.2355705 0.0299299 0.07702908 0.2358008 0.03073936 0.07446335 0.2354631 0.02817352 0.07747559 0.2474202 0.03073936 0.07591812 0.2483195 0.02994194 0.07517521 0.2487485 0.02817352 0.07844818 0.2483928 0.03073936 0.07754887 0.2499503 0.02994194 0.07711994 0.2506932 0.02817352 0.07844818 0.2331621 0.03073936 0.07754887 0.2316045 0.02994194 0.07711994 0.2308615 0.02817352 0.0774757 0.2341347 0.03073936 0.07591812 0.2332353 0.02994194 0.07517521 0.2328064 0.02817352</float_array>
          <technique_common>
            <accessor source="#polySurfaceShape113-positions-array" count="40" stride="3">
              <param name="X" type="float"/>
              <param name="Y" type="float"/>
              <param name="Z" type="float"/>
            </accessor>
          </technique_common>
        </source>
        <source id="polySurfaceShape113-normals" name="polySurfaceShape113-normals">
          <float_array id="polySurfaceShape113-normals-array" count="612">-0.130531 0.9914443 0 -0.127608 0.9670817 0.2201569 0.7071068 0.7071068 0 0.7071068 0.7071068 0 -0.127608 0.9670817 0.2201569 0.672653 0.673648 0.306164 0.6726526 -0.6736466 0.3061678 -0.1275939 -0.9670826 0.2201609 0.7071068 -0.7071068 0 0.7071068 -0.7071068 0 -0.1275939 -0.9670826 0.2201609 -0.130519 -0.9914457 0 0.672653 0.673648 0.306164 0.6726526 -0.6736466 0.3061678 0.7071068 0.7071068 0 0.7071068 0.7071068 0 0.6726526 -0.6736466 0.3061678 0.7071068 -0.7071068 0 -0.9914441 -0.130532 0 -0.9675451 -0.127633 0.218097 -0.9914441 0.130532 0 -0.9914441 0.130532 0 -0.9675451 -0.127633 0.218097 -0.9675525 0.127657 0.2180501 -0.9675525 0.127657 0.2180501 -0.8438426 0.4874928 0.2242329 -0.9914441 0.130532 0 -0.9914441 0.130532 0 -0.8438426 0.4874928 0.2242329 -0.8660226 0.5000048 0 -0.8438426 0.4874928 0.2242329 -0.4874601 0.8438482 0.2242831 -0.8660226 0.5000048 0 -0.8660226 0.5000048 0 -0.4874601 0.8438482 0.2242831 -0.5000048 0.8660226 0 -0.4874601 0.8438482 0.2242831 -0.127608 0.9670817 0.2201569 -0.5000048 0.8660226 0 -0.5000048 0.8660226 0 -0.127608 0.9670817 0.2201569 -0.130531 0.9914443 0 -0.1275939 -0.9670826 0.2201609 -0.4874561 -0.8438502 0.2242841 -0.130519 -0.9914457 0 -0.130519 -0.9914457 0 -0.4874561 -0.8438502 0.2242841 -0.5000021 -0.8660241 0 -0.4874561 -0.8438502 0.2242841 -0.8438544 -0.4874503 0.2242811 -0.5000021 -0.8660241 0 -0.5000021 -0.8660241 0 -0.8438544 -0.4874503 0.2242811 -0.8660271 -0.499997 0 -0.8438544 -0.4874503 0.2242811 -0.9675451 -0.127633 0.218097 -0.8660271 -0.499997 0 -0.8660271 -0.499997 0 -0.9675451 -0.127633 0.218097 -0.9914441 -0.130532 0 0.122482 0.134596 0.9833016 -0.036801 0.270569 0.9619969 0.122482 -0.134596 0.9833016 0.122482 -0.134596 0.9833016 -0.036801 0.270569 0.9619969 -0.03679501 -0.2705721 0.9619963 -0.036801 0.270569 0.9619969 -0.137163 0.238819 0.9613281 -0.03679501 -0.2705721 0.9619963 -0.137163 0.238819 0.9613281 -0.238855 0.137144 0.9613219 -0.03679501 -0.2705721 0.9619963 -0.238855 0.137144 0.9613219 -0.281031 0.03640999 0.9590078 -0.03679501 -0.2705721 0.9619963 -0.03679501 -0.2705721 0.9619963 -0.281031 0.03640999 0.9590078 -0.1371581 -0.2388171 0.9613293 -0.1371581 -0.2388171 0.9613293 -0.281031 0.03640999 0.9590078 -0.23882 -0.137156 0.9613289 -0.281031 0.03640999 0.9590078 -0.2809969 -0.03641798 0.9590175 -0.23882 -0.137156 0.9613289 0.6726526 -0.6736466 0.3061678 0.3848921 -0.3965291 0.8334402 -0.1275939 -0.9670826 0.2201609 -0.1275939 -0.9670826 0.2201609 0.3848921 -0.3965291 0.8334402 -0.09200096 -0.6895918 0.7183307 0.3848921 -0.3965291 0.8334402 0.122482 -0.134596 0.9833016 -0.09200096 -0.6895918 0.7183307 -0.09200096 -0.6895918 0.7183307 0.122482 -0.134596 0.9833016 -0.03679501 -0.2705721 0.9619963 0.122482 -0.134596 0.9833016 0.3848921 -0.3965291 0.8334402 0.122482 0.134596 0.9833016 0.122482 0.134596 0.9833016 0.3848921 -0.3965291 0.8334402 0.3848929 0.3965319 0.8334386 0.3848921 -0.3965291 0.8334402 0.6726526 -0.6736466 0.3061678 0.3848929 0.3965319 0.8334386 0.3848929 0.3965319 0.8334386 0.6726526 -0.6736466 0.3061678 0.672653 0.673648 0.306164 0.3848929 0.3965319 0.8334386 -0.09201299 0.6895919 0.718329 0.122482 0.134596 0.9833016 0.122482 0.134596 0.9833016 -0.09201299 0.6895919 0.718329 -0.036801 0.270569 0.9619969 0.672653 0.673648 0.306164 -0.127608 0.9670817 0.2201569 0.3848929 0.3965319 0.8334386 0.3848929 0.3965319 0.8334386 -0.127608 0.9670817 0.2201569 -0.09201299 0.6895919 0.718329 -0.036801 0.270569 0.9619969 -0.09201299 0.6895919 0.718329 -0.137163 0.238819 0.9613281 -0.137163 0.238819 0.9613281 -0.09201299 0.6895919 0.718329 -0.3459952 0.5998053 0.7214714 -0.09201299 0.6895919 0.718329 -0.127608 0.9670817 0.2201569 -0.3459952 0.5998053 0.7214714 -0.3459952 0.5998053 0.7214714 -0.127608 0.9670817 0.2201569 -0.4874601 0.8438482 0.2242831 -0.09200096 -0.6895918 0.7183307 -0.3459878 -0.5998057 0.7214746 -0.1275939 -0.9670826 0.2201609 -0.1275939 -0.9670826 0.2201609 -0.3459878 -0.5998057 0.7214746 -0.4874561 -0.8438502 0.2242841 -0.03679501 -0.2705721 0.9619963 -0.1371581 -0.2388171 0.9613293 -0.09200096 -0.6895918 0.7183307 -0.09200096 -0.6895918 0.7183307 -0.1371581 -0.2388171 0.9613293 -0.3459878 -0.5998057 0.7214746 -0.6969727 0.09157997 0.7112257 -0.5998499 0.346025 0.7214199 -0.9675525 0.127657 0.2180501 -0.9675525 0.127657 0.2180501 -0.5998499 0.346025 0.7214199 -0.8438426 0.4874928 0.2242329 -0.281031 0.03640999 0.9590078 -0.238855 0.137144 0.9613219 -0.6969727 0.09157997 0.7112257 -0.6969727 0.09157997 0.7112257 -0.238855 0.137144 0.9613219 -0.5998499 0.346025 0.7214199 -0.281031 0.03640999 0.9590078 -0.6969727 0.09157997 0.7112257 -0.2809969 -0.03641798 0.9590175 -0.2809969 -0.03641798 0.9590175 -0.6969727 0.09157997 0.7112257 -0.6969266 -0.09155994 0.7112736 -0.6969727 0.09157997 0.7112257 -0.9675525 0.127657 0.2180501 -0.6969266 -0.09155994 0.7112736 -0.6969266 -0.09155994 0.7112736 -0.9675525 0.127657 0.2180501 -0.9675451 -0.127633 0.218097 -0.2809969 -0.03641798 0.9590175 -0.6969266 -0.09155994 0.7112736 -0.23882 -0.137156 0.9613289 -0.23882 -0.137156 0.9613289 -0.6969266 -0.09155994 0.7112736 -0.599812 -0.345984 0.7214711 -0.6969266 -0.09155994 0.7112736 -0.9675451 -0.127633 0.218097 -0.599812 -0.345984 0.7214711 -0.599812 -0.345984 0.7214711 -0.9675451 -0.127633 0.218097 -0.8438544 -0.4874503 0.2242811 -0.8438426 0.4874928 0.2242329 -0.5998499 0.346025 0.7214199 -0.4874601 0.8438482 0.2242831 -0.4874601 0.8438482 0.2242831 -0.5998499 0.346025 0.7214199 -0.3459952 0.5998053 0.7214714 -0.5998499 0.346025 0.7214199 -0.238855 0.137144 0.9613219 -0.3459952 0.5998053 0.7214714 -0.3459952 0.5998053 0.7214714 -0.238855 0.137144 0.9613219 -0.137163 0.238819 0.9613281 -0.4874561 -0.8438502 0.2242841 -0.3459878 -0.5998057 0.7214746 -0.8438544 -0.4874503 0.2242811 -0.8438544 -0.4874503 0.2242811 -0.3459878 -0.5998057 0.7214746 -0.599812 -0.345984 0.7214711 -0.3459878 -0.5998057 0.7214746 -0.1371581 -0.2388171 0.9613293 -0.599812 -0.345984 0.7214711 -0.599812 -0.345984 0.7214711 -0.1371581 -0.2388171 0.9613293 -0.23882 -0.137156 0.9613289</float_array>
          <technique_common>
            <accessor source="#polySurfaceShape113-normals-array" count="204" stride="3">
              <param name="X" type="float"/>
              <param name="Y" type="float"/>
              <param name="Z" type="float"/>
            </accessor>
          </technique_common>
        </source>
        <source id="polySurfaceShape113-polySurfaceShape113-map1" name="polySurfaceShape113-polySurfaceShape113-map1">
          <float_array id="polySurfaceShape113-polySurfaceShape113-map1-array" count="104">0.806621 0.721971 0.801902 0.722018 0.801396 0.671114 0.806109 0.671067 0.778002 0.671228 0.778072 0.722133 0.773357 0.72214 0.773284 0.671235 0.800177 0.669884 0.779215 0.669984 0.779193 0.665267 0.800155 0.665169 0.784796 0.733402 0.784768 0.728686 0.795249 0.728623 0.795278 0.733339 0.796299 0.728659 0.798475 0.727114 0.801647 0.730495 0.799518 0.732312 0.800353 0.725257 0.803696 0.728469 0.801924 0.723099 0.805539 0.726361 0.778048 0.723197 0.779628 0.725347 0.776298 0.728573 0.774446 0.726472 0.781516 0.727194 0.778358 0.730589 0.783699 0.728729 0.780496 0.732397 0.797649 0.673633 0.797996 0.721616 0.797439 0.72319 0.796457 0.724171 0.794867 0.724729 0.785114 0.724784 0.783522 0.72424 0.782532 0.723268 0.781961 0.721698 0.781782 0.673714 0.780137 0.672111 0.779978 0.722069 0.799277 0.672018 0.799987 0.721974 0.798973 0.724149 0.781004 0.724235 0.795198 0.726715 0.797387 0.725719 0.784796 0.726774 0.782599 0.725794</float_array>
          <technique_common>
            <accessor source="#polySurfaceShape113-polySurfaceShape113-map1-array" count="52" stride="2">
              <param name="S" type="float"/>
              <param name="T" type="float"/>
            </accessor>
          </technique_common>
        </source>
        <vertices id="polySurfaceShape113-vertices" name="polySurfaceShape113-vertices">
          <input semantic="POSITION" source="#polySurfaceShape113-positions"/>
        </vertices>
        <triangles material="omnislot_inside_left_light_lambert3SG" count="68">
          <input semantic="VERTEX" source="#polySurfaceShape113-vertices" offset="0"/>
          <input semantic="NORMAL" source="#polySurfaceShape113-normals" offset="1"/>
          <input semantic="TEXCOORD" source="#polySurfaceShape113-polySurfaceShape113-map1" offset="2" set="0"/>
          <p>5 0 0 18 1 1 0 2 3 0 3 3 18 4 1 15 5 2 12 6 4 21 7 5 1 8 7 1 9 7 21 10 5 9 11 6 15 12 8 12 13 9 0 14 11 0 15 11 12 16 9 1 17 10 8 18 12 27 19 13 2 20 15 2 21 15 27 22 13 24 23 14 24 24 16 30 25 17 2 26 19 2 27 19 30 28 17 3 29 18 30 30 17 33 31 20 3 32 18 3 33 18 33 34 20 4 35 21 33 36 20 18 37 22 4 38 21 4 39 21 18 40 22 5 41 23 21 42 24 36 43 25 9 44 27 9 45 27 36 46 25 6 47 26 36 48 25 39 49 28 6 50 26 6 51 26 39 52 28 7 53 29 39 54 28 27 55 30 7 56 29 7 57 29 27 58 30 8 59 31 14 60 32 17 61 33 10 62 41 10 63 41 17 64 33 19 65 40 17 66 33 31 67 34 19 68 40 31 69 34 28 70 35 19 71 40 28 72 35 22 73 36 19 74 40 19 75 40 22 76 36 34 77 39 34 78 39 22 79 36 37 80 38 22 81 36 26 82 37 37 83 38 12 84 4 11 85 42 21 86 5 21 87 5 11 88 42 20 89 43 11 90 42 10 91 41 20 92 43 20 93 43 10 94 41 19 95 40 10 96 41 11 97 42 14 98 32 14 99 32 11 100 42 13 101 44 11 102 42 12 103 9 13 104 44 13 105 44 12 106 9 15 107 8 13 108 44 16 109 45 14 110 32 14 111 32 16 112 45 17 113 33 15 114 2 18 115 1 13 116 44 13 117 44 18 118 1 16 119 45 17 120 33 16 121 45 31 122 34 31 123 34 16 124 45 32 125 46 16 126 45 18 127 22 32 128 46 32 129 46 18 130 22 33 131 20 20 132 43 35 133 47 21 134 24 21 135 24 35 136 47 36 137 25 19 138 40 34 139 39 20 140 43 20 141 43 34 142 39 35 143 47 23 144 48 29 145 49 24 146 16 24 147 16 29 148 49 30 149 17 22 150 36 28 151 35 23 152 48 23 153 48 28 154 35 29 155 49 22 156 36 23 157 48 26 158 37 26 159 37 23 160 48 25 161 50 23 162 48 24 163 14 25 164 50 25 165 50 24 166 14 27 167 13 26 168 37 25 169 50 37 170 38 37 171 38 25 172 50 38 173 51 25 174 50 27 175 30 38 176 51 38 177 51 27 178 30 39 179 28 30 180 17 29 181 49 33 182 20 33 183 20 29 184 49 32 185 46 29 186 49 28 187 35 32 188 46 32 189 46 28 190 35 31 191 34 36 192 25 35 193 47 39 194 28 39 195 28 35 196 47 38 197 51 35 198 47 34 199 39 38 200 51 38 201 51 34 202 39 37 203 38</p>
        </triangles>
      </mesh>
      <extra>
        <technique profile="OpenCOLLADAMaya">
          <originalMayaNodeId>polySurfaceShape37</originalMayaNodeId>
          <double_sided>1</double_sided>
        </technique>
      </extra>
    </geometry>
  </library_geometries>
  <library_visual_scenes>
    <visual_scene id="VisualSceneNode" name="untitled">
      <node id="polySurface37" name="polySurface37" type="NODE">
        <matrix sid="transform">1 0 0 0 0 1 0 0 0 0 1 0 0 0 0 1</matrix>
        <instance_geometry url="#polySurfaceShape113">
          <bind_material>
            <technique_common>
              <instance_material symbol="omnislot_inside_left_light_lambert3SG" target="#lambert3">
                <bind_vertex_input semantic="TEX0" input_semantic="TEXCOORD" input_set="0"/>
              </instance_material>
            </technique_common>
          </bind_material>
        </instance_geometry>
        <extra>
          <technique profile="OpenCOLLADAMaya">
            <originalMayaNodeId>polySurface37</originalMayaNodeId>
          </technique>
        </extra>
      </node>
    </visual_scene>
  </library_visual_scenes>
  <scene>
    <instance_visual_scene url="#VisualSceneNode"/>
  </scene>
</COLLADA>