<?xml version="1.0" encoding="utf-8"?>
<COLLADA xmlns="http://www.collada.org/2005/11/COLLADASchema" version="1.4.1">
  <asset>
    <contributor>
      <author>Marc</author>
      <authoring_tool>OpenCOLLADA2008</authoring_tool>
      <comments>
			ColladaMaya export options: 
			bakeTransforms=1;relativePaths=1;copyTextures=0;exportTriangles=1;exportCgfxFileReferences=0;
			isSampling=0;curveConstrainSampling=0;removeStaticCurves=0;exportPolygonMeshes=1;exportLights=0;
			exportCameras=0;exportJointsAndSkin=1;exportAnimations=1;exportInvisibleNodes=0;exportDefaultCameras=0;
			exportTexCoords=1;exportNormals=1;exportNormalsPerVertex=0;exportVertexColors=0;exportVertexColorsPerVertex=0;
			exportTexTangents=0;exportTangents=0;exportReferencedMaterials=0;exportMaterialsOnly=0;
			exportXRefs=0;dereferenceXRefs=0;exportCameraAsLookat=0;cameraXFov=0;cameraYFov=1;doublePrecision=0
		</comments>
      <source_data>file:///E:/depth/redist/entities/station/kitchen/portableoven/portableoven.DAE</source_data>
    </contributor>
    <created>2015-02-02T10:41:09</created>
    <modified>2015-02-02T10:41:09</modified>
    <unit name="meter" meter="1"/>
    <up_axis>Y_UP</up_axis>
  </asset>
  <library_materials>
    <material id="glass_door_ncl1_1" name="glass_door_ncl1_1">
      <instance_effect url="#glass_door_ncl1_1-fx"/>
    </material>
    <material id="portableoven_ncl1_1" name="portableoven_ncl1_1">
      <instance_effect url="#portableoven_ncl1_1-fx"/>
    </material>
    <material id="lambert1" name="lambert1">
      <instance_effect url="#lambert1-fx"/>
    </material>
  </library_materials>
  <library_effects>
    <effect id="glass_door_ncl1_1-fx">
      <profile_COMMON>
        <newparam sid="Map__2_image-surface">
          <surface type="2D">
            <init_from>Map__2_image</init_from>
          </surface>
        </newparam>
        <newparam sid="Map__2_image-sampler">
          <sampler2D>
            <source>Map__2_image-surface</source>
          </sampler2D>
        </newparam>
        <newparam sid="Map__3_image-surface">
          <surface type="2D">
            <init_from>Map__3_image</init_from>
          </surface>
        </newparam>
        <newparam sid="Map__3_image-sampler">
          <sampler2D>
            <source>Map__3_image-surface</source>
          </sampler2D>
        </newparam>
        <technique sid="common">
          <phong>
            <emission>
              <color>0 0 0 1</color>
            </emission>
            <ambient>
              <color>0.588235 0.588235 0.588235 1</color>
            </ambient>
            <diffuse>
              <texture texture="Map__2_image-sampler" texcoord="TEX0">
                <extra>
                  <technique profile="OpenCOLLADAMaya">
                    <blend_mode>NONE</blend_mode>
                    <coverageU>1</coverageU>
                    <coverageV>1</coverageV>
                    <fast>0</fast>
                    <mirrorU>0</mirrorU>
                    <mirrorV>0</mirrorV>
                    <noiseU>0</noiseU>
                    <noiseV>0</noiseV>
                    <offsetU>0</offsetU>
                    <offsetV>0</offsetV>
                    <repeatU>1</repeatU>
                    <repeatV>1</repeatV>
                    <rotateFrame>0</rotateFrame>
                    <rotateUV>0</rotateUV>
                    <stagger>0</stagger>
                    <translateFrameU>0</translateFrameU>
                    <translateFrameV>0</translateFrameV>
                    <wrapU>1</wrapU>
                    <wrapV>1</wrapV>
                  </technique>
                </extra>
              </texture>
            </diffuse>
            <specular>
              <color>0 0 0 1</color>
            </specular>
            <shininess>
              <float>2</float>
            </shininess>
            <reflective>
              <color>0 0 0 1</color>
            </reflective>
            <reflectivity>
              <float>0.5</float>
            </reflectivity>
            <transparent opaque="A_ONE">
              <texture texture="Map__3_image-sampler" texcoord="TEX1">
                <extra>
                  <technique profile="OpenCOLLADAMaya">
                    <blend_mode>NONE</blend_mode>
                    <coverageU>1</coverageU>
                    <coverageV>1</coverageV>
                    <fast>0</fast>
                    <mirrorU>0</mirrorU>
                    <mirrorV>0</mirrorV>
                    <noiseU>0</noiseU>
                    <noiseV>0</noiseV>
                    <offsetU>0</offsetU>
                    <offsetV>0</offsetV>
                    <repeatU>1</repeatU>
                    <repeatV>1</repeatV>
                    <rotateFrame>0</rotateFrame>
                    <rotateUV>0</rotateUV>
                    <stagger>0</stagger>
                    <translateFrameU>0</translateFrameU>
                    <translateFrameV>0</translateFrameV>
                    <wrapU>1</wrapU>
                    <wrapV>1</wrapV>
                  </technique>
                </extra>
              </texture>
            </transparent>
            <transparency>
              <float>1</float>
            </transparency>
          </phong>
        </technique>
      </profile_COMMON>
    </effect>
    <effect id="lambert1-fx">
      <profile_COMMON>
        <technique sid="common">
          <lambert>
            <emission>
              <color>0 0 0 1</color>
            </emission>
            <ambient>
              <color>0 0 0 1</color>
            </ambient>
            <diffuse>
              <color>0.4 0.4 0.4 1</color>
            </diffuse>
            <transparent opaque="RGB_ZERO">
              <color>0 0 0 1</color>
            </transparent>
            <transparency>
              <float>1</float>
            </transparency>
          </lambert>
        </technique>
      </profile_COMMON>
    </effect>
    <effect id="portableoven_ncl1_1-fx">
      <profile_COMMON>
        <newparam sid="Map__8_image-surface">
          <surface type="2D">
            <init_from>Map__8_image</init_from>
          </surface>
        </newparam>
        <newparam sid="Map__8_image-sampler">
          <sampler2D>
            <source>Map__8_image-surface</source>
          </sampler2D>
        </newparam>
        <technique sid="common">
          <phong>
            <emission>
              <color>0 0 0 1</color>
            </emission>
            <ambient>
              <color>0.588235 0.588235 0.588235 1</color>
            </ambient>
            <diffuse>
              <texture texture="Map__8_image-sampler" texcoord="TEX0">
                <extra>
                  <technique profile="OpenCOLLADAMaya">
                    <blend_mode>NONE</blend_mode>
                    <coverageU>1</coverageU>
                    <coverageV>1</coverageV>
                    <fast>0</fast>
                    <mirrorU>0</mirrorU>
                    <mirrorV>0</mirrorV>
                    <noiseU>0</noiseU>
                    <noiseV>0</noiseV>
                    <offsetU>0</offsetU>
                    <offsetV>0</offsetV>
                    <repeatU>1</repeatU>
                    <repeatV>1</repeatV>
                    <rotateFrame>0</rotateFrame>
                    <rotateUV>0</rotateUV>
                    <stagger>0</stagger>
                    <translateFrameU>0</translateFrameU>
                    <translateFrameV>0</translateFrameV>
                    <wrapU>1</wrapU>
                    <wrapV>1</wrapV>
                  </technique>
                </extra>
              </texture>
            </diffuse>
            <specular>
              <color>0 0 0 1</color>
            </specular>
            <shininess>
              <float>2</float>
            </shininess>
            <reflective>
              <color>0 0 0 1</color>
            </reflective>
            <reflectivity>
              <float>0.5</float>
            </reflectivity>
            <transparent opaque="RGB_ZERO">
              <color>0 0 0 1</color>
            </transparent>
            <transparency>
              <float>1</float>
            </transparency>
          </phong>
        </technique>
      </profile_COMMON>
    </effect>
  </library_effects>
  <library_images>
    <image id="Map__2_image" name="Map__2_image">
      <init_from>../../../../../../../F:/MaxScenes/scenes/ABP/Depth/portableoven/portableoven/kitchen/portableoven/glass_door.dds</init_from>
      <extra>
        <technique profile="OpenCOLLADAMaya">
          <dgnode_type>kFile</dgnode_type>
          <image_sequence>0</image_sequence>
          <originalMayaNodeId>Map__2_image</originalMayaNodeId>
        </technique>
      </extra>
    </image>
    <image id="Map__3_image" name="Map__3_image">
      <init_from>../../../../../../../F:/MaxScenes/scenes/ABP/Depth/portableoven/portableoven/kitchen/portableoven/glass_door_opac.dds</init_from>
      <extra>
        <technique profile="OpenCOLLADAMaya">
          <dgnode_type>kFile</dgnode_type>
          <image_sequence>0</image_sequence>
          <originalMayaNodeId>Map__3_image</originalMayaNodeId>
        </technique>
      </extra>
    </image>
    <image id="Map__8_image" name="Map__8_image">
      <init_from>../../../../../../../F:/MaxScenes/scenes/ABP/Depth/portableoven/portableoven/kitchen/portableoven/portableoven.dds</init_from>
      <extra>
        <technique profile="OpenCOLLADAMaya">
          <dgnode_type>kFile</dgnode_type>
          <image_sequence>0</image_sequence>
          <originalMayaNodeId>Map__8_image</originalMayaNodeId>
        </technique>
      </extra>
    </image>
  </library_images>
  <library_geometries>
    <geometry id="glass_doorShape" name="glass_doorShape">
      <mesh>
        <source id="glass_doorShape-positions" name="glass_doorShape-positions">
          <float_array id="glass_doorShape-positions-array" count="60">-0.3015857 0.3522844 0.2727716 -0.3221596 0.3306993 0.2727709 -0.322203 0.0530051 0.2727697 -0.3211839 0.05300455 0.2727729 -0.3164483 0.05300345 0.2727728 -0.3111079 0.05300273 0.2727729 -0.3041608 0.05300243 0.2727729 0.2357401 0.05300257 0.2727722 0.2357401 0.3230225 0.2727735 0.207584 0.3522845 0.2727727 -0.3015857 0.3522844 0.2661272 -0.3221596 0.3306993 0.2661267 -0.322203 0.0530051 0.2661253 -0.3211839 0.05300455 0.2661285 -0.3164483 0.05300345 0.2661285 -0.3111079 0.05300273 0.2661285 -0.3041608 0.05300243 0.2661285 0.2357402 0.05300257 0.2661279 0.2357401 0.3230225 0.2661293 0.207584 0.3522845 0.2661284</float_array>
          <technique_common>
            <accessor source="#glass_doorShape-positions-array" count="20" stride="3">
              <param name="X" type="float"/>
              <param name="Y" type="float"/>
              <param name="Z" type="float"/>
            </accessor>
          </technique_common>
        </source>
        <source id="glass_doorShape-normals" name="glass_doorShape-normals">
          <float_array id="glass_doorShape-normals-array" count="186">0 0 1 0 0 1 0 0 1 0 0.7137401 0.7004107 2.33199e-4 0.9952449 0.09740361 1.84114e-4 0.9835202 0.1807984 0 0.9184736 0.3954821 0 0.8144458 0.5802397 0 0.2804947 0.9598556 0 0 1 -0.7238601 0.6899467 0 -0.7238594 0.6899474 0 -0.7238601 0.6899467 0 -0.7238609 0.6899459 0 -0.9999999 1.56303e-4 0 -0.9999999 1.56094e-4 0 -0.9999999 1.56303e-4 0 -0.9999999 1.56512e-4 0 -5.38116e-4 -0.9999999 0 -3.34432e-4 -0.9999998 0 -4.36276e-4 -0.9999998 0 -5.3813e-4 -0.9999998 0 -1.67119e-4 -0.9999999 0 -2.00007e-4 -0.9999999 0 0 -0.9999999 0 -1.03772e-4 -0.9999999 0 0 -0.9999999 0 0 -0.9999999 0 0 -0.9999999 0 0 -0.9999999 0 0.9999999 0 0 0.9999999 0 0 0.9999999 0 0 0.9999999 0 0 0.720593 0.6933582 0 0.7205926 0.6933587 0 0.720593 0.6933582 0 0.7205935 0.6933578 0 0 0.9999999 0 0 0.9999999 0 0 0.9999999 0 0 0.9999999 0 0 0 -0.9999999 0 0 -0.9999999 0 0 -0.9999999 0 0 -0.9999999 0 0 -0.9999999 0 0 -0.9999999 0 0 -1 0 0 -1 0 0 -1 0 0 -0.9999999 0 0 -0.9999999 0 0 -0.9999999 0 0 -0.9999999 0 0 -0.9999999 0.003121717 -2.08874e-4 -0.9999951 0.003121717 -2.08874e-4 -0.9999951 0.003121717 -2.08874e-4 -0.9999951 0 0 -0.9999999 0 0 -0.9999999 0 0 -0.9999999</float_array>
          <technique_common>
            <accessor source="#glass_doorShape-normals-array" count="62" stride="3">
              <param name="X" type="float"/>
              <param name="Y" type="float"/>
              <param name="Z" type="float"/>
            </accessor>
          </technique_common>
        </source>
        <source id="glass_doorShape-UVSet0" name="glass_doorShape-UVSet0">
          <float_array id="glass_doorShape-UVSet0-array" count="88">0.938176 0.975928 0.972468 0.975926 0.015242 0.002407 0.017031 0.002416 0.017031 0.021262 0.015242 0.021253 0.025346 0.002416 0.025346 0.021262 0.034721 0.002416 0.972468 0.993799 0.938176 0.993801 0.043507 0.975923 0.090344 0.975922 0.090344 0.993794 0.034721 0.021261 0.046918 0.002416 0.046918 0.021261 0.994818 0.002404 0.994818 0.021249 0.043507 0.993797 0.974926 0.863337 0.92674 0.951466 0.055353 0.951466 0.020143 0.886458 0.020069 0.050118 0.021813 0.050117 0.029917 0.050114 0.039057 0.050111 0.050946 0.05011 0.974926 0.050111 0.010194 0.88646 0.01012 0.050121 0.984875 0.050111 0.984875 0.863337 0.940236 0.938909 0.068899 0.938909 0.020716 0.852249 0.020716 0.052582 0.944642 0.052582 0.956531 0.052583 0.96567 0.052585 0.973774 0.052588 0.975518 0.05259 0.975444 0.874984</float_array>
          <technique_common>
            <accessor source="#glass_doorShape-UVSet0-array" count="44" stride="2">
              <param name="S" type="float"/>
              <param name="T" type="float"/>
            </accessor>
          </technique_common>
        </source>
        <vertices id="glass_doorShape-vertices" name="glass_doorShape-vertices">
          <input semantic="POSITION" source="#glass_doorShape-positions"/>
        </vertices>
        <triangles material="glass_doorSG" count="36">
          <input semantic="VERTEX" source="#glass_doorShape-vertices" offset="0"/>
          <input semantic="NORMAL" source="#glass_doorShape-normals" offset="1"/>
          <input semantic="TEXCOORD" source="#glass_doorShape-UVSet0" offset="2" set="0"/>
          <p>9 0 21 0 1 22 1 2 23 9 0 21 1 2 23 2 3 24 2 3 24 3 4 25 4 5 26 2 3 24 4 5 26 5 6 27 2 3 24 5 6 27 6 7 28 2 3 24 6 7 28 7 8 29 9 0 21 2 3 24 7 8 29 8 9 20 9 0 21 7 8 29 10 10 0 11 11 1 1 12 9 1 12 9 0 13 10 10 10 0 11 14 30 12 15 31 2 16 24 2 16 24 1 17 23 11 14 30 12 18 2 13 19 3 3 20 4 3 20 4 2 21 5 12 18 2 13 19 3 14 22 6 4 23 7 4 23 7 3 20 4 13 19 3 14 22 6 15 24 8 5 25 14 5 25 14 4 23 7 14 22 6 15 24 8 16 26 15 6 27 16 6 27 16 5 25 14 15 24 8 16 26 15 17 28 17 7 29 18 7 29 18 6 27 16 16 26 15 17 30 32 18 31 33 8 32 20 8 32 20 7 33 29 17 30 32 18 34 11 19 35 12 9 36 13 9 36 13 8 37 19 18 34 11 10 38 0 0 39 10 9 40 13 9 40 13 19 41 12 10 38 0 10 42 34 19 43 35 18 44 36 18 45 36 17 46 37 16 47 38 10 48 34 18 49 36 16 50 38 10 51 34 16 52 38 15 53 39 10 51 34 15 53 39 14 54 40 10 51 34 14 54 40 13 55 41 10 56 34 13 57 41 12 58 42 10 59 34 12 60 42 11 61 43</p>
        </triangles>
      </mesh>
      <extra>
        <technique profile="OpenCOLLADAMaya">
          <originalMayaNodeId>glass_doorShape</originalMayaNodeId>
          <double_sided>1</double_sided>
        </technique>
      </extra>
    </geometry>
    <geometry id="polySurfaceShape3" name="polySurfaceShape3">
      <mesh>
        <source id="polySurfaceShape3-positions" name="polySurfaceShape3-positions">
          <float_array id="polySurfaceShape3-positions-array" count="24">-0.1938447 0.3276809 0.2835155 0.08689787 0.3276809 0.2835155 -0.1938447 0.3276809 0.2560815 0.08689787 0.3276809 0.2560814 -0.2077737 0.3539621 0.2835155 0.1008269 0.3539621 0.2835155 -0.2077737 0.3539621 0.2560814 0.1008269 0.3539621 0.2560815</float_array>
          <technique_common>
            <accessor source="#polySurfaceShape3-positions-array" count="8" stride="3">
              <param name="X" type="float"/>
              <param name="Y" type="float"/>
              <param name="Z" type="float"/>
            </accessor>
          </technique_common>
        </source>
        <source id="polySurfaceShape3-normals" name="polySurfaceShape3-normals">
          <float_array id="polySurfaceShape3-normals-array" count="72">0 -0.9999999 0 0 -0.9999999 0 0 -0.9999999 0 0 -0.9999999 0 0 0.9999999 0 0 0.9999999 0 0 0.9999999 0 0 0.9999999 0 0 0 0.9999999 0 0 0.9999999 0 0 0.9999999 0 0 0.9999999 0.8835725 -0.4682943 0 0.8835724 -0.4682944 0 0.8835725 -0.4682943 0 0.8835727 -0.4682941 0 0 0 -0.9999999 0 0 -0.9999999 0 0 -0.9999999 0 0 -0.9999999 -0.8835726 -0.4682941 0 -0.8835719 -0.4682952 0 -0.8835726 -0.4682941 0 -0.8835732 -0.468293 0</float_array>
          <technique_common>
            <accessor source="#polySurfaceShape3-normals-array" count="24" stride="3">
              <param name="X" type="float"/>
              <param name="Y" type="float"/>
              <param name="Z" type="float"/>
            </accessor>
          </technique_common>
        </source>
        <source id="polySurfaceShape3-UVSet0" name="polySurfaceShape3-UVSet0">
          <float_array id="polySurfaceShape3-UVSet0-array" count="48">0.142075 0.087654 0.268619 0.087654 0.268619 0.098474 0.142075 0.098474 0.270631 0.128233 0.131531 0.128233 0.131531 0.117413 0.270631 0.117413 0.135797 0.113819 0.142075 0.102528 0.268619 0.102528 0.274897 0.113819 0.117144 0.129681 0.127964 0.129681 0.127964 0.142601 0.117144 0.142601 0.131531 0.142068 0.13781 0.130777 0.264353 0.130777 0.270631 0.142068 0.117626 0.114083 0.128446 0.114083 0.128446 0.127002 0.117626 0.127002</float_array>
          <technique_common>
            <accessor source="#polySurfaceShape3-UVSet0-array" count="24" stride="2">
              <param name="S" type="float"/>
              <param name="T" type="float"/>
            </accessor>
          </technique_common>
        </source>
        <vertices id="polySurfaceShape3-vertices" name="polySurfaceShape3-vertices">
          <input semantic="POSITION" source="#polySurfaceShape3-positions"/>
        </vertices>
        <triangles material="portableovenSG" count="12">
          <input semantic="VERTEX" source="#polySurfaceShape3-vertices" offset="0"/>
          <input semantic="NORMAL" source="#polySurfaceShape3-normals" offset="1"/>
          <input semantic="TEXCOORD" source="#polySurfaceShape3-UVSet0" offset="2" set="1"/>
          <p>1 0 0 0 1 1 2 2 2 2 2 2 3 3 3 1 0 0 7 4 4 6 5 5 4 6 6 4 6 6 5 7 7 7 4 4 4 8 8 0 9 9 1 10 10 1 10 10 5 11 11 4 8 8 1 12 12 3 13 13 7 14 14 7 14 14 5 15 15 1 12 12 7 16 16 3 17 17 2 18 18 2 18 18 6 19 19 7 16 16 2 20 20 0 21 21 4 22 22 4 22 22 6 23 23 2 20 20</p>
        </triangles>
      </mesh>
      <extra>
        <technique profile="OpenCOLLADAMaya">
          <originalMayaNodeId>polySurfaceShape3</originalMayaNodeId>
          <double_sided>1</double_sided>
        </technique>
      </extra>
    </geometry>
    <geometry id="polySurfaceShape1" name="polySurfaceShape1">
      <mesh>
        <source id="polySurfaceShape1-positions" name="polySurfaceShape1-positions">
          <float_array id="polySurfaceShape1-positions-array" count="60">-0.3225973 0.04735841 0.2657783 -0.3225973 0.0490956 0.2635231 -0.3225973 0.05175715 0.2630119 -0.3225973 0.05409767 0.2644839 -0.3225973 0.05502203 0.2672503 -0.3225973 0.05409767 0.2700168 -0.3225973 0.05175715 0.2714889 -0.3225973 0.0490956 0.2709776 -0.3225973 0.04735841 0.2687224 0.2371607 0.04735844 0.2657784 0.2371607 0.04909566 0.2635231 0.2371607 0.05175721 0.2630119 0.2371607 0.05409772 0.2644839 0.2371607 0.05502207 0.2672504 0.2371607 0.05409772 0.2700168 0.2371607 0.05175721 0.2714889 0.2371607 0.04909566 0.2709776 0.2371607 0.04735847 0.2687224 -0.3225973 0.05107108 0.2672504 0.2371607 0.05107113 0.2672504</float_array>
          <technique_common>
            <accessor source="#polySurfaceShape1-positions-array" count="20" stride="3">
              <param name="X" type="float"/>
              <param name="Y" type="float"/>
              <param name="Z" type="float"/>
            </accessor>
          </technique_common>
        </source>
        <source id="polySurfaceShape1-normals" name="polySurfaceShape1-normals">
          <float_array id="polySurfaceShape1-normals-array" count="168">0 -0.9999999 0 0 -0.9999999 0 0 -0.9999999 0 0 -0.9999999 0 0 -0.7922114 -0.6102465 0 -0.7922117 -0.6102462 0 -0.7922114 -0.6102465 0 -0.7922112 -0.610247 0 -0.1886302 -0.9820482 0 -0.1886302 -0.9820482 0 -0.1886302 -0.9820482 0 -0.1886302 -0.9820482 0 0.5323861 -0.8465016 0 0.5323836 -0.8465032 0 0.5323861 -0.8465016 0 0.5323885 -0.8465001 0 0.9484559 -0.316909 0 0.948455 -0.3169117 0 0.9484559 -0.316909 0 0.9484568 -0.3169064 0 0.9484569 0.3169061 0 0.9484562 0.3169077 0 0.9484569 0.3169061 0 0.9484574 0.3169044 0 0.532391 0.8464986 0 0.5323935 0.8464969 0 0.532391 0.8464986 0 0.5323885 0.8465001 0 -0.1886268 0.9820488 0 -0.1886234 0.9820494 0 -0.1886268 0.9820488 0 -0.1886302 0.9820482 0 -0.7922158 0.610241 0 -0.7922173 0.6102389 0 -0.7922158 0.610241 0 -0.7922142 0.610243 -0.9999999 0 0 -0.9999999 0 0 -0.9999999 0 0 -0.9999999 0 0 -0.9999999 0 0 -0.9999999 0 0 -0.9999999 0 0 -0.9999999 0 0 -0.9999999 0 0 -0.9999999 0 0 0.9999999 0 0 0.9999999 0 0 0.9999999 0 0 0.9999999 0 0 1 0 0 0.9999999 0 0 0.9999999 0 0 0.9999999 0 0 0.9999999 0 0 0.9999999 0 0</float_array>
          <technique_common>
            <accessor source="#polySurfaceShape1-normals-array" count="56" stride="3">
              <param name="X" type="float"/>
              <param name="Y" type="float"/>
              <param name="Z" type="float"/>
            </accessor>
          </technique_common>
        </source>
        <source id="polySurfaceShape1-UVSet0" name="polySurfaceShape1-UVSet0">
          <float_array id="polySurfaceShape1-UVSet0-array" count="116">0.013963 0.67038 0.012529 0.67038 0.012529 0.358688 0.013963 0.358688 0.015398 0.358688 0.015398 0.67038 0.016832 0.358688 0.016832 0.67038 0.003923 0.358688 0.005357 0.358688 0.005357 0.67038 0.003923 0.67038 0.006791 0.358688 0.006791 0.67038 0.008226 0.358688 0.008226 0.67038 0.00966 0.358688 0.00966 0.67038 0.011095 0.358688 0.011095 0.67038 0.012932 0.355018 0.011498 0.355018 0.012215 0.353048 0.010399 0.354096 0.011498 0.355018 0.01015 0.352684 0.010399 0.354096 0.010867 0.351441 0.01015 0.352684 0.012215 0.350951 0.010867 0.351442 0.013563 0.351442 0.012215 0.350951 0.01428 0.352684 0.013563 0.351442 0.014031 0.354096 0.01428 0.352684 0.012932 0.355018 0.014031 0.354096 0.011498 0.355018 0.012215 0.353048 0.012932 0.355018 0.011498 0.355018 0.010399 0.354096 0.010399 0.354096 0.01015 0.352684 0.01015 0.352684 0.010867 0.351441 0.010867 0.351441 0.012215 0.350951 0.012215 0.350951 0.013563 0.351442 0.013563 0.351442 0.01428 0.352684 0.01428 0.352684 0.014031 0.354096 0.014031 0.354096 0.012932 0.355018</float_array>
          <technique_common>
            <accessor source="#polySurfaceShape1-UVSet0-array" count="58" stride="2">
              <param name="S" type="float"/>
              <param name="T" type="float"/>
            </accessor>
          </technique_common>
        </source>
        <vertices id="polySurfaceShape1-vertices" name="polySurfaceShape1-vertices">
          <input semantic="POSITION" source="#polySurfaceShape1-positions"/>
        </vertices>
        <triangles material="portableovenSG" count="36">
          <input semantic="VERTEX" source="#polySurfaceShape1-vertices" offset="0"/>
          <input semantic="NORMAL" source="#polySurfaceShape1-normals" offset="1"/>
          <input semantic="TEXCOORD" source="#polySurfaceShape1-UVSet0" offset="2" set="1"/>
          <p>9 0 0 17 1 1 8 2 2 8 2 2 0 3 3 9 0 0 0 4 3 1 5 4 10 6 5 10 6 5 9 7 0 0 4 3 1 8 4 2 9 6 11 10 7 11 10 7 10 11 5 1 8 4 2 12 8 3 13 9 12 14 10 12 14 10 11 15 11 2 12 8 3 16 9 4 17 12 13 18 13 13 18 13 12 19 10 3 16 9 4 20 12 5 21 14 14 22 15 14 22 15 13 23 13 4 20 12 5 24 14 6 25 16 15 26 17 15 26 17 14 27 15 5 24 14 6 28 16 7 29 18 16 30 19 16 30 19 15 31 17 6 28 16 7 32 18 8 33 2 17 34 1 17 34 1 16 35 19 7 32 18 0 36 20 8 37 21 18 38 22 0 36 23 18 38 22 1 39 24 1 39 25 18 38 22 2 40 26 2 40 27 18 38 22 3 41 28 3 41 29 18 38 22 4 42 30 4 42 31 18 38 22 5 43 32 5 43 33 18 38 22 6 44 34 6 44 35 18 38 22 7 45 36 7 45 37 18 38 22 8 37 38 9 46 39 19 47 40 17 48 41 9 46 42 10 49 43 19 47 40 10 49 44 11 50 45 19 47 40 11 50 46 12 51 47 19 47 40 12 51 48 13 52 49 19 47 40 13 52 50 14 53 51 19 47 40 14 53 52 15 54 53 19 47 40 15 54 54 16 55 55 19 47 40 16 55 56 17 48 57 19 47 40</p>
        </triangles>
      </mesh>
      <extra>
        <technique profile="OpenCOLLADAMaya">
          <originalMayaNodeId>polySurfaceShape1</originalMayaNodeId>
          <double_sided>1</double_sided>
        </technique>
      </extra>
    </geometry>
  </library_geometries>
  <library_visual_scenes>
    <visual_scene id="VisualSceneNode" name="portableoven">
      <node id="glass_door" name="glass_door" type="NODE">
        <matrix sid="transform">1 0 0 0 0 1 0 0 0 0 1 0 0 0 0 1</matrix>
        <instance_geometry url="#glass_doorShape">
          <bind_material>
            <technique_common>
              <instance_material symbol="glass_doorSG" target="#glass_door_ncl1_1">
                <bind_vertex_input semantic="TEX0" input_semantic="TEXCOORD" input_set="0"/>
                <bind_vertex_input semantic="TEX1" input_semantic="TEXCOORD" input_set="0"/>
              </instance_material>
            </technique_common>
          </bind_material>
        </instance_geometry>
        <node id="polySurface3" name="polySurface3" type="NODE">
          <matrix sid="transform">1 0 0 0 0 1 0 0 0 0 1 0 0 0 0 1</matrix>
          <instance_geometry url="#polySurfaceShape3">
            <bind_material>
              <technique_common>
                <instance_material symbol="portableovenSG" target="#portableoven_ncl1_1">
                  <bind_vertex_input semantic="TEX0" input_semantic="TEXCOORD" input_set="1"/>
                </instance_material>
              </technique_common>
            </bind_material>
          </instance_geometry>
          <extra>
            <technique profile="OpenCOLLADAMaya">
              <originalMayaNodeId>polySurface3</originalMayaNodeId>
            </technique>
          </extra>
        </node>
        <node id="polySurface1" name="polySurface1" type="NODE">
          <matrix sid="transform">1 0 0 0 0 1 0 0 0 0 1 0 0 0 0 1</matrix>
          <instance_geometry url="#polySurfaceShape1">
            <bind_material>
              <technique_common>
                <instance_material symbol="portableovenSG" target="#portableoven_ncl1_1">
                  <bind_vertex_input semantic="TEX0" input_semantic="TEXCOORD" input_set="1"/>
                </instance_material>
              </technique_common>
            </bind_material>
          </instance_geometry>
          <extra>
            <technique profile="OpenCOLLADAMaya">
              <originalMayaNodeId>polySurface1</originalMayaNodeId>
            </technique>
          </extra>
        </node>
        <extra>
          <technique profile="OpenCOLLADAMaya">
            <originalMayaNodeId>glass_door</originalMayaNodeId>
          </technique>
        </extra>
      </node>
    </visual_scene>
  </library_visual_scenes>
  <scene>
    <instance_visual_scene url="#VisualSceneNode"/>
  </scene>
</COLLADA>