<?xml version="1.0" encoding="utf-8"?>
<COLLADA xmlns="http://www.collada.org/2005/11/COLLADASchema" version="1.4.1">
  <asset>
    <contributor>
      <author>Marc</author>
      <authoring_tool>OpenCOLLADA2008</authoring_tool>
      <comments>
			ColladaMaya export options: 
			bakeTransforms=0;relativePaths=0;copyTextures=0;exportTriangles=1;exportCgfxFileReferences=0;
			isSampling=0;curveConstrainSampling=0;removeStaticCurves=1;exportPolygonMeshes=1;exportLights=0;
			exportCameras=0;exportJointsAndSkin=1;exportAnimations=1;exportInvisibleNodes=0;exportDefaultCameras=0;
			exportTexCoords=1;exportNormals=1;exportNormalsPerVertex=1;exportVertexColors=1;exportVertexColorsPerVertex=1;
			exportTexTangents=0;exportTangents=0;exportReferencedMaterials=0;exportMaterialsOnly=0;
			exportXRefs=0;dereferenceXRefs=1;exportCameraAsLookat=0;cameraXFov=0;cameraYFov=1;doublePrecision=0
		</comments>
      <source_data>file:///H:/Dropbox%20(Frictional%20Games)/Team/depth_marc/models/station/entities/03_02_sample_specimen_jars/sample_specimen_jars.mb</source_data>
    </contributor>
    <created>2014-06-10T13:56:16</created>
    <modified>2014-06-10T13:56:16</modified>
    <unit name="meter" meter="1"/>
    <up_axis>Y_UP</up_axis>
  </asset>
  <library_materials>
    <material id="lambert2" name="lambert2">
      <instance_effect url="#lambert2-fx"/>
    </material>
    <material id="lambert1" name="lambert1">
      <instance_effect url="#lambert1-fx"/>
    </material>
  </library_materials>
  <library_effects>
    <effect id="lambert1-fx">
      <profile_COMMON>
        <newparam sid="file1-surface">
          <surface type="2D">
            <init_from>file1</init_from>
          </surface>
        </newparam>
        <newparam sid="file1-sampler">
          <sampler2D>
            <source>file1-surface</source>
          </sampler2D>
        </newparam>
        <technique sid="common">
          <lambert>
            <emission>
              <color>0 0 0 1</color>
            </emission>
            <ambient>
              <color>0 0 0 1</color>
            </ambient>
            <diffuse>
              <texture texture="file1-sampler" texcoord="TEX0">
                <extra>
                  <technique profile="OpenCOLLADAMaya">
                    <blend_mode>NONE</blend_mode>
                    <coverageU>1</coverageU>
                    <coverageV>1</coverageV>
                    <fast>0</fast>
                    <mirrorU>0</mirrorU>
                    <mirrorV>0</mirrorV>
                    <noiseU>0</noiseU>
                    <noiseV>0</noiseV>
                    <offsetU>0</offsetU>
                    <offsetV>0</offsetV>
                    <repeatU>1</repeatU>
                    <repeatV>1</repeatV>
                    <rotateFrame>0</rotateFrame>
                    <rotateUV>0</rotateUV>
                    <stagger>0</stagger>
                    <translateFrameU>0</translateFrameU>
                    <translateFrameV>0</translateFrameV>
                    <wrapU>1</wrapU>
                    <wrapV>1</wrapV>
                  </technique>
                </extra>
              </texture>
            </diffuse>
            <transparent opaque="RGB_ZERO">
              <color>0 0 0 1</color>
            </transparent>
            <transparency>
              <float>1</float>
            </transparency>
          </lambert>
        </technique>
      </profile_COMMON>
    </effect>
    <effect id="lambert2-fx">
      <profile_COMMON>
        <newparam sid="file2-surface">
          <surface type="2D">
            <init_from>file2</init_from>
          </surface>
        </newparam>
        <newparam sid="file2-sampler">
          <sampler2D>
            <source>file2-surface</source>
          </sampler2D>
        </newparam>
        <technique sid="common">
          <lambert>
            <emission>
              <color>0 0 0 1</color>
            </emission>
            <ambient>
              <color>0 0 0 1</color>
            </ambient>
            <diffuse>
              <texture texture="file2-sampler" texcoord="TEX0">
                <extra>
                  <technique profile="OpenCOLLADAMaya">
                    <blend_mode>NONE</blend_mode>
                    <coverageU>1</coverageU>
                    <coverageV>1</coverageV>
                    <fast>0</fast>
                    <mirrorU>0</mirrorU>
                    <mirrorV>0</mirrorV>
                    <noiseU>0</noiseU>
                    <noiseV>0</noiseV>
                    <offsetU>0</offsetU>
                    <offsetV>0</offsetV>
                    <repeatU>1</repeatU>
                    <repeatV>1</repeatV>
                    <rotateFrame>0</rotateFrame>
                    <rotateUV>0</rotateUV>
                    <stagger>0</stagger>
                    <translateFrameU>0</translateFrameU>
                    <translateFrameV>0</translateFrameV>
                    <wrapU>1</wrapU>
                    <wrapV>1</wrapV>
                  </technique>
                </extra>
              </texture>
            </diffuse>
            <transparent opaque="RGB_ZERO">
              <color>0 0 0 1</color>
            </transparent>
            <transparency>
              <float>1</float>
            </transparency>
          </lambert>
        </technique>
      </profile_COMMON>
    </effect>
  </library_effects>
  <library_images>
    <image id="file1" name="file1">
      <init_from>file:///E:/depth/redist/entities/station/special/03_02_preserved_sample_jars/03_02_preserved_sample_jars.dds</init_from>
      <extra>
        <technique profile="OpenCOLLADAMaya">
          <dgnode_type>kFile</dgnode_type>
          <image_sequence>0</image_sequence>
          <originalMayaNodeId>file1</originalMayaNodeId>
        </technique>
      </extra>
    </image>
    <image id="file2" name="file2">
      <init_from>file://entities/station/special/03_02_preserved_sample_jars/03_02_preserved_sample_jars_glass.dds</init_from>
      <extra>
        <technique profile="OpenCOLLADAMaya">
          <dgnode_type>kFile</dgnode_type>
          <image_sequence>0</image_sequence>
          <originalMayaNodeId>file2</originalMayaNodeId>
        </technique>
      </extra>
    </image>
  </library_images>
  <library_geometries>
    <geometry id="pCylinderShape5" name="pCylinderShape5">
      <mesh>
        <source id="pCylinderShape5-positions" name="pCylinderShape5-positions">
          <float_array id="pCylinderShape5-positions-array" count="96">0.2599642 0.01260559 -0.1076805 0.1989681 0.01260559 -0.1989679 0.1076808 0.01260559 -0.2599641 0 0.01260559 -0.2813832 -0.1076806 0.01260559 -0.2599642 -0.1989679 0.01260559 -0.198968 -0.2599642 0.01260559 -0.1076808 -0.2813833 0.01260559 0 -0.2599642 0.01260559 0.1076806 -0.198968 0.01260559 0.198968 -0.1076808 0.01260559 0.2599642 0 0.01260559 0.2813833 0.1076807 0.01260559 0.2599643 0.198968 0.01260559 0.198968 0.2599642 0.01260559 0.1076807 0.2813833 0.01260559 0 0.2599642 0.9810831 -0.1076805 0.1989681 0.9810831 -0.1989679 0.1076808 0.9810831 -0.2599641 0 0.9810831 -0.2813832 -0.1076806 0.9810831 -0.2599642 -0.1989679 0.9810831 -0.198968 -0.2599642 0.9810831 -0.1076808 -0.2813833 0.9810831 0 -0.2599642 0.9810831 0.1076806 -0.198968 0.9810831 0.198968 -0.1076808 0.9810831 0.2599642 0 0.9810831 0.2813833 0.1076807 0.9810831 0.2599643 0.198968 0.9810831 0.198968 0.2599642 0.9810831 0.1076807 0.2813833 0.9810831 0</float_array>
          <technique_common>
            <accessor source="#pCylinderShape5-positions-array" count="32" stride="3">
              <param name="X" type="float"/>
              <param name="Y" type="float"/>
              <param name="Z" type="float"/>
            </accessor>
          </technique_common>
        </source>
        <source id="pCylinderShape5-normals" name="pCylinderShape5-normals">
          <float_array id="pCylinderShape5-normals-array" count="192">0.9238796 0 -0.3826833 0.7071072 0 -0.7071064 0.7071072 0 -0.7071064 0.9238796 0 -0.3826833 0.3826838 0 -0.9238794 0.3826838 0 -0.9238794 0 0 -1 0 0 -1 -0.3826831 0 -0.9238797 -0.3826831 0 -0.9238797 -0.7071063 0 -0.7071073 -0.7071063 0 -0.7071073 -0.9238793 0 -0.3826841 -0.9238793 0 -0.3826841 -1 0 0 -1 0 0 -0.9238796 0 0.3826834 -0.9238796 0 0.3826834 -0.7071071 0 0.7071066 -0.7071071 0 0.7071066 -0.3826838 0 0.9238795 -0.3826838 0 0.9238795 0 0 1 0 0 1 0.3826834 0 0.9238796 0.3826834 0 0.9238796 0.7071068 0 0.7071067 0.7071068 0 0.7071067 0.9238795 0 0.3826835 0.9238795 0 0.3826835 1 0 0 1 0 0 0 -0.9999999 0 0 -0.9999999 0 0 -0.9999999 0 0 -0.9999999 0 0 -0.9999999 0 0 -0.9999999 0 0 -0.9999999 0 0 -0.9999999 0 0 -0.9999999 0 0 -0.9999999 0 0 -0.9999999 0 0 -0.9999999 0 0 -0.9999999 0 0 -0.9999999 0 0 -0.9999999 0 0 -0.9999999 0 0 0.9999999 0 0 0.9999999 0 0 0.9999999 0 0 0.9999999 0 0 0.9999999 0 0 0.9999999 0 0 0.9999999 0 0 0.9999999 0 0 0.9999999 0 0 0.9999999 0 0 0.9999999 0 0 0.9999999 0 0 0.9999999 0 0 0.9999999 0 0 0.9999999 0 0 0.9999999 0</float_array>
          <technique_common>
            <accessor source="#pCylinderShape5-normals-array" count="64" stride="3">
              <param name="X" type="float"/>
              <param name="Y" type="float"/>
              <param name="Z" type="float"/>
            </accessor>
          </technique_common>
        </source>
        <source id="pCylinderShape5-map1" name="pCylinderShape5-map1">
          <float_array id="pCylinderShape5-map1-array" count="132">0.375 0.3125 0.390625 0.3125 0.40625 0.3125 0.421875 0.3125 0.4375 0.3125 0.453125 0.3125 0.46875 0.3125 0.484375 0.3125 0.5 0.3125 0.515625 0.3125 0.53125 0.3125 0.546875 0.3125 0.5625 0.3125 0.578125 0.3125 0.59375 0.3125 0.609375 0.3125 0.625 0.3125 0.375 0.6884398 0.390625 0.6884398 0.40625 0.6884398 0.421875 0.6884398 0.4375 0.6884398 0.453125 0.6884398 0.46875 0.6884398 0.484375 0.6884398 0.5 0.6884398 0.515625 0.6884398 0.53125 0.6884398 0.546875 0.6884398 0.5625 0.6884398 0.578125 0.6884398 0.59375 0.6884398 0.609375 0.6884398 0.625 0.6884398 0.4005438 0 0.5994562 0 0.7832273 0.07612049 0.9238795 0.2167728 0.9999999 0.4005439 0.9999999 0.5994563 0.9238794 0.7832273 0.7832271 0.9238795 0.599456 0.9999999 0.4005437 0.9999998 0.2167727 0.9238793 0.07612047 0.783227 0 0.5994563 0 0.4005439 0.07612044 0.2167728 0.2167727 0.07612046 0.4005438 0 0.5994561 0 0.7832272 0.07612046 0.9238795 0.2167728 0.9999999 0.4005439 0.9999999 0.5994563 0.9238795 0.783227 0.7832273 0.9238793 0.5994563 0.9999998 0.4005439 0.9999999 0.2167729 0.9238795 0.07612058 0.7832273 0 0.5994563 0 0.4005439 0.07612046 0.2167728 0.2167727 0.07612049</float_array>
          <technique_common>
            <accessor source="#pCylinderShape5-map1-array" count="66" stride="2">
              <param name="S" type="float"/>
              <param name="T" type="float"/>
            </accessor>
          </technique_common>
        </source>
        <vertices id="pCylinderShape5-vertices" name="pCylinderShape5-vertices">
          <input semantic="POSITION" source="#pCylinderShape5-positions"/>
        </vertices>
        <triangles material="lambert2SG" count="60">
          <input semantic="VERTEX" source="#pCylinderShape5-vertices" offset="0"/>
          <input semantic="NORMAL" source="#pCylinderShape5-normals" offset="1"/>
          <input semantic="TEXCOORD" source="#pCylinderShape5-map1" offset="2" set="0"/>
          <p>0 0 0 1 1 1 16 3 17 16 3 17 1 1 1 17 2 18 1 1 1 2 4 2 17 2 18 17 2 18 2 4 2 18 5 19 2 4 2 3 6 3 18 5 19 18 5 19 3 6 3 19 7 20 3 6 3 4 8 4 19 7 20 19 7 20 4 8 4 20 9 21 4 8 4 5 10 5 20 9 21 20 9 21 5 10 5 21 11 22 5 10 5 6 12 6 21 11 22 21 11 22 6 12 6 22 13 23 6 12 6 7 14 7 22 13 23 22 13 23 7 14 7 23 15 24 7 14 7 8 16 8 23 15 24 23 15 24 8 16 8 24 17 25 8 16 8 9 18 9 24 17 25 24 17 25 9 18 9 25 19 26 9 18 9 10 20 10 25 19 26 25 19 26 10 20 10 26 21 27 10 20 10 11 22 11 26 21 27 26 21 27 11 22 11 27 23 28 11 22 11 12 24 12 27 23 28 27 23 28 12 24 12 28 25 29 12 24 12 13 26 13 28 25 29 28 25 29 13 26 13 29 27 30 13 26 13 14 28 14 29 27 30 29 27 30 14 28 14 30 29 31 14 28 14 15 30 15 30 29 31 30 29 31 15 30 15 31 31 32 15 30 15 0 0 16 31 31 32 31 31 32 0 0 16 16 3 33 11 32 34 10 33 35 12 47 49 10 33 35 9 34 36 12 47 49 9 34 36 8 35 37 12 47 49 8 35 37 7 36 38 12 47 49 7 36 38 6 37 39 12 47 49 6 37 39 5 38 40 12 47 49 5 38 40 4 39 41 12 47 49 4 39 41 3 40 42 12 47 49 3 40 42 2 41 43 12 47 49 2 41 43 1 42 44 12 47 49 1 42 44 0 43 45 12 47 49 0 43 45 15 44 46 12 47 49 15 44 46 14 45 47 12 47 49 14 45 47 13 46 48 12 47 49 26 48 50 27 49 51 25 63 65 27 49 51 28 50 52 25 63 65 28 50 52 29 51 53 25 63 65 29 51 53 30 52 54 25 63 65 30 52 54 31 53 55 25 63 65 31 53 55 16 54 56 25 63 65 16 54 56 17 55 57 25 63 65 17 55 57 18 56 58 25 63 65 18 56 58 19 57 59 25 63 65 19 57 59 20 58 60 25 63 65 20 58 60 21 59 61 25 63 65 21 59 61 22 60 62 25 63 65 22 60 62 23 61 63 25 63 65 23 61 63 24 62 64 25 63 65</p>
        </triangles>
      </mesh>
      <extra>
        <technique profile="OpenCOLLADAMaya">
          <originalMayaNodeId>pCylinderShape5</originalMayaNodeId>
          <double_sided>1</double_sided>
        </technique>
      </extra>
    </geometry>
    <geometry id="polySurfaceShape2" name="polySurfaceShape2">
      <mesh>
        <source id="polySurfaceShape2-positions" name="polySurfaceShape2-positions">
          <float_array id="polySurfaceShape2-positions-array" count="672">0.28 0.9122404 0 0.2586863 0.9122404 0.1071512 0.1979899 0.9122404 0.1979898 0.1071515 0.9122404 0.2586862 0 0.9122404 0.2799999 -0.1071512 0.9122404 0.2586863 -0.1979898 0.9122404 0.1979899 -0.2586862 0.9122404 0.1071514 -0.28 0.9122404 0 -0.2586863 0.9122404 -0.1071513 -0.1979899 0.9122404 -0.1979899 -0.1071514 0.9122404 -0.2586862 0 0.9122404 -0.28 0.1071513 0.9122404 -0.2586863 0.1979899 0.9122404 -0.1979899 0.2586863 0.9122404 -0.1071514 0.28 0.9873943 0 0.2586863 0.9873943 0.1071512 0.1979899 0.9873943 0.1979898 0.1071515 0.9873943 0.2586862 0 0.9873943 0.2799999 -0.1071512 0.9873943 0.2586863 -0.1979898 0.9873943 0.1979899 -0.2586862 0.9873943 0.1071514 -0.28 0.9873943 0 -0.2586863 0.9873943 -0.1071513 -0.1979899 0.9873943 -0.1979899 -0.1071514 0.9873943 -0.2586862 0 0.9873943 -0.28 0.1071513 0.9873943 -0.2586863 0.1979899 0.9873943 -0.1979899 0.2586863 0.9873943 -0.1071514 0.2771638 0.990001 0.1148049 0.267745 1 0.1109035 0.2121321 0.990001 0.2121319 0.2049232 1 0.204923 0.1148051 0.990001 0.2771637 0.1109037 1 0.2677449 0 0.990001 0.2999999 0 1 0.2898051 -0.1148049 0.990001 0.2771638 -0.1109035 1 0.267745 -0.2121319 0.990001 0.2121321 -0.204923 1 0.2049232 -0.2771638 0.990001 0.1148051 -0.267745 1 0.1109037 -0.3 0.990001 0 -0.2898051 1 0 -0.2771638 0.990001 -0.1148049 -0.267745 1 -0.1109035 -0.2121321 0.990001 -0.212132 -0.2049232 1 -0.2049231 -0.1148051 0.990001 -0.2771638 -0.1109037 1 -0.267745 0 0.990001 -0.3 0 1 -0.2898051 0.114805 0.990001 -0.2771639 0.1109036 1 -0.267745 0.212132 0.990001 -0.2121321 0.2049232 1 -0.2049232 0.2771638 0.990001 -0.114805 0.267745 1 -0.1109036 0.3 0.990001 0 0.2898052 1 0 0.267926 0.9122404 0.1109784 0.2771638 0.9222394 0.1148049 0.2050617 0.9122404 0.2050616 0.2121321 0.9222394 0.2121319 0.1109787 0.9122404 0.2679259 0.1148051 0.9222394 0.2771637 0 0.9122404 0.2900009 0 0.9222394 0.2999999 -0.1109784 0.9122404 0.267926 -0.1148049 0.9222394 0.2771638 -0.2050616 0.9122404 0.2050617 -0.2121319 0.9222394 0.2121321 -0.2679259 0.9122404 0.1109787 -0.2771638 0.9222394 0.1148051 -0.290001 0.9122404 0 -0.3 0.9222394 0 -0.267926 0.9122404 -0.1109785 -0.2771638 0.9222394 -0.1148049 -0.2050617 0.9122404 -0.2050616 -0.2121321 0.9222394 -0.212132 -0.1109786 0.9122404 -0.267926 -0.1148051 0.9222394 -0.2771638 0 0.9122404 -0.290001 0 0.9222394 -0.3 0.1109785 0.9122404 -0.267926 0.114805 0.9222394 -0.2771639 0.2050617 0.9122404 -0.2050617 0.212132 0.9222394 -0.2121321 0.267926 0.9122404 -0.1109786 0.2771638 0.9222394 -0.114805 0.290001 0.9122404 0 0.3 0.9222394 0 0.28 0.08775961 0 0.2586863 0.08775961 -0.1071512 0.1979899 0.08775961 -0.1979898 0.1071515 0.08775961 -0.2586862 0 0.08775961 -0.2799999 -0.1071512 0.08775961 -0.2586863 -0.1979898 0.08775961 -0.1979899 -0.2586862 0.08775961 -0.1071514 -0.28 0.08775961 0 -0.2586863 0.08775961 0.1071513 -0.1979899 0.08775961 0.1979899 -0.1071514 0.08775961 0.2586862 0 0.08775961 0.28 0.1071513 0.08775961 0.2586863 0.1979899 0.08775961 0.1979899 0.2586863 0.08775961 0.1071514 0.28 0.01260571 0 0.2586863 0.01260571 -0.1071512 0.1979899 0.01260571 -0.1979898 0.1071515 0.01260571 -0.2586862 0 0.01260571 -0.2799999 -0.1071512 0.01260571 -0.2586863 -0.1979898 0.01260571 -0.1979899 -0.2586862 0.01260571 -0.1071514 -0.28 0.01260571 0 -0.2586863 0.01260571 0.1071513 -0.1979899 0.01260571 0.1979899 -0.1071514 0.01260571 0.2586862 0 0.01260571 0.28 0.1071513 0.01260571 0.2586863 0.1979899 0.01260571 0.1979899 0.2586863 0.01260571 0.1071514 0.2771638 0.009998981 -0.1148049 0.267745 0 -0.1109035 0.2121321 0.009998981 -0.2121319 0.2049232 0 -0.204923 0.1148051 0.009998981 -0.2771637 0.1109037 0 -0.2677449 0 0.009998981 -0.2999999 0 0 -0.2898051 -0.1148049 0.009998981 -0.2771638 -0.1109035 0 -0.267745 -0.2121319 0.009998981 -0.2121321 -0.204923 0 -0.2049232 -0.2771638 0.009998981 -0.1148051 -0.267745 0 -0.1109037 -0.3 0.009998981 0 -0.2898051 0 0 -0.2771638 0.009998981 0.1148049 -0.267745 0 0.1109035 -0.2121321 0.009998981 0.212132 -0.2049232 0 0.2049231 -0.1148051 0.009998981 0.2771638 -0.1109037 0 0.267745 0 0.009998981 0.3 0 0 0.2898051 0.114805 0.009998981 0.2771639 0.1109036 0 0.267745 0.212132 0.009998981 0.2121321 0.2049232 0 0.2049232 0.2771638 0.009998981 0.114805 0.267745 0 0.1109036 0.3 0.009998981 0 0.2898052 0 0 0.267926 0.08775961 -0.1109784 0.2771638 0.07776064 -0.1148049 0.2050617 0.08775961 -0.2050616 0.2121321 0.07776064 -0.2121319 0.1109787 0.08775961 -0.2679259 0.1148051 0.07776064 -0.2771637 0 0.08775961 -0.2900009 0 0.07776064 -0.2999999 -0.1109784 0.08775961 -0.267926 -0.1148049 0.07776064 -0.2771638 -0.2050616 0.08775961 -0.2050617 -0.2121319 0.07776064 -0.2121321 -0.2679259 0.08775961 -0.1109787 -0.2771638 0.07776064 -0.1148051 -0.290001 0.08775961 0 -0.3 0.07776064 0 -0.267926 0.08775961 0.1109785 -0.2771638 0.07776064 0.1148049 -0.2050617 0.08775961 0.2050616 -0.2121321 0.07776064 0.212132 -0.1109786 0.08775961 0.267926 -0.1148051 0.07776064 0.2771638 0 0.08775961 0.290001 0 0.07776064 0.3 0.1109785 0.08775961 0.267926 0.114805 0.07776064 0.2771639 0.2050617 0.08775961 0.2050617 0.212132 0.07776064 0.2121321 0.267926 0.08775961 0.1109786 0.2771638 0.07776064 0.114805 0.290001 0.08775961 0 0.3 0.07776064 0 -0.07948083 0 -0.1918839 0 0 -0.2076936 0.079481 0 -0.1918839 0.1468617 0 -0.1468615 0.191884 0 -0.0794808 0.2076937 0 0 0.191884 0 0.07948094 0.1468616 0 0.1468616 0.07948092 0 0.1918839 0 0 0.2076937 -0.07948094 0 0.1918839 -0.1468616 0 0.1468616 -0.1918839 0 0.07948089 -0.2076937 0 0 -0.1918839 0 -0.07948098 -0.1468615 0 -0.1468616 -0.07948083 0.01260571 -0.1918839 0 0.01260571 -0.2076936 0.079481 0.01260571 -0.1918839 0.1468617 0.01260571 -0.1468615 0.191884 0.01260571 -0.0794808 0.2076937 0.01260571 0 0.191884 0.01260571 0.07948094 0.1468616 0.01260571 0.1468616 0.07948092 0.01260571 0.1918839 0 0.01260571 0.2076937 -0.07948094 0.01260571 0.1918839 -0.1468616 0.01260571 0.1468616 -0.1918839 0.01260571 0.07948089 -0.2076937 0.01260571 0 -0.1918839 0.01260571 -0.07948098 -0.1468615 0.01260571 -0.1468616</float_array>
          <technique_common>
            <accessor source="#polySurfaceShape2-positions-array" count="224" stride="3">
              <param name="X" type="float"/>
              <param name="Y" type="float"/>
              <param name="Z" type="float"/>
            </accessor>
          </technique_common>
        </source>
        <source id="polySurfaceShape2-normals" name="polySurfaceShape2-normals">
          <float_array id="polySurfaceShape2-normals-array" count="1212">0.9238795 0 0.3826837 0.707107 0 0.7071066 0.707107 0 0.7071066 0.9238795 0 0.3826837 0.3826839 0 0.9238793 0.3826839 0 0.9238793 0 0 1 0 0 1 -0.382683 0 0.9238797 -0.382683 0 0.9238797 -0.7071064 0 0.7071072 -0.7071064 0 0.7071072 -0.9238794 0 0.3826838 -0.9238794 0 0.3826838 -1 0 0 -1 0 0 -0.9238797 0 -0.3826832 -0.9238797 0 -0.3826832 -0.7071069 0 -0.7071066 -0.7071069 0 -0.7071066 -0.3826835 0 -0.9238796 -0.3826835 0 -0.9238796 0 0 -1 0 0 -1 0.3826832 0 -0.9238797 0.3826832 0 -0.9238797 0.7071068 0 -0.7071069 0.7071068 0 -0.7071069 0.9238795 0 -0.3826835 0.9238795 0 -0.3826835 1 0 0 1 0 0 0 -0.9999999 0 0 -0.9999999 0 0 -0.9999999 0 0 -0.9999999 0 0 -0.9999999 0 0 -0.9999999 0 0 -0.9999999 0 0 -0.9999999 0 0 -0.9999999 0 0 -0.9999999 0 0 -0.9999999 0 0 -0.9999999 0 0 -0.9999999 0 0 -0.9999999 0 0 -0.9999999 0 0 -0.9999999 0 0 -0.9999999 0 0 -0.9999999 0 0 -0.9999999 0 0 -0.9999999 0 0 -0.9999999 0 0 -0.9999999 0 0 -0.9999999 0 0 -0.9999999 0 0 -0.9999999 0 0 -0.9999999 0 0 -0.9999999 0 0 -0.9999999 0 0 -0.9999999 0 0 -0.9999999 0 0 -0.9999999 0 0 -0.9999999 0 0 -0.9999999 0 0 -0.9999999 0 0 -0.9999999 0 -1 0 0 -0.9238796 0 -0.3826833 -0.9238796 0 -0.3826833 -1 0 0 -0.7071071 0 -0.7071065 -0.7071071 0 -0.7071065 -0.3826837 0 -0.9238795 -0.3826837 0 -0.9238795 0 0 -1 0 0 -1 0.3826828 0 -0.9238799 0.3826828 0 -0.9238799 0.7071066 0 -0.7071069 0.7071066 0 -0.7071069 0.9238794 0 -0.3826838 0.9238794 0 -0.3826838 1 0 0 1 0 0 0.9238797 0 0.3826832 0.9238797 0 0.3826832 0.7071069 0 0.7071066 0.7071069 0 0.7071066 0.3826837 0 0.9238795 0.3826837 0 0.9238795 0 0 1 0 0 1 -0.3826835 0 0.9238796 -0.3826835 0 0.9238796 -0.7071067 0 0.7071069 -0.7071067 0 0.7071069 -0.9238796 0 0.3826835 -0.9238796 0 0.3826835 0 0.9999999 0 0 0.9999999 0 0 0.9999999 0 0.6469145 0.7139318 0.2679605 0.6469145 0.7139318 0.2679605 0.7002156 0.7139313 0 0.7002156 0.7139313 0 0.4951271 0.7139314 0.4951271 0.4951271 0.7139314 0.4951271 0.2679608 0.7139291 0.6469175 0.2679608 0.7139291 0.6469175 0 0.7139315 0.7002155 0 0.7139315 0.7002155 -0.2679609 0.7139327 0.6469135 -0.2679609 0.7139327 0.6469135 -0.4951262 0.7139309 0.4951288 -0.4951262 0.7139309 0.4951288 -0.646915 0.7139309 0.2679618 -0.646915 0.7139309 0.2679618 -0.7002159 0.7139311 0 -0.7002159 0.7139311 0 -0.6469148 0.7139317 -0.2679601 -0.6469148 0.7139317 -0.2679601 -0.4951278 0.7139319 -0.4951259 -0.4951278 0.7139319 -0.4951259 -0.2679612 0.7139321 -0.6469138 -0.2679612 0.7139321 -0.6469138 0 0.7139319 -0.7002151 0 0.7139319 -0.7002151 0.2679605 0.7139314 -0.6469151 0.2679605 0.7139314 -0.6469151 0.4951268 0.7139317 -0.495127 0.4951268 0.7139317 -0.495127 0.6469149 0.7139317 -0.26796 0.6469149 0.7139317 -0.26796 0.6532829 -0.7071055 0.2705983 0.6532829 -0.7071055 0.2705983 0.7071081 -0.7071054 0 0.7071081 -0.7071054 0 0.5000011 -0.7071049 0.5000014 0.5000011 -0.7071049 0.5000014 0.2705985 -0.7071033 0.6532849 0.2705985 -0.7071033 0.6532849 0 -0.7071046 0.7071089 0 -0.7071046 0.7071089 -0.2705981 -0.7071057 0.6532825 -0.2705981 -0.7071057 0.6532825 -0.4999998 -0.7071051 0.5000025 -0.4999998 -0.7071051 0.5000025 -0.6532825 -0.7071053 0.2705994 -0.6532825 -0.7071053 0.2705994 -0.7071078 -0.7071056 0 -0.7071078 -0.7071056 0 -0.6532823 -0.7071059 -0.2705977 -0.6532823 -0.7071059 -0.2705977 -0.500001 -0.7071051 -0.5000011 -0.500001 -0.7071051 -0.5000011 -0.2705985 -0.707106 -0.653282 -0.2705985 -0.707106 -0.653282 0 -0.7071061 -0.7071074 0 -0.7071061 -0.7071074 0.2705975 -0.7071043 -0.6532844 0.2705975 -0.7071043 -0.6532844 0.4999997 -0.7071041 -0.5000038 0.4999997 -0.7071041 -0.5000038 0.6532824 -0.7071053 -0.2705993 0.6532824 -0.7071053 -0.2705993 0 0.9999999 0 0 0.9999999 0 0 0.9999999 0 0 0.9999999 0 0 0.9999999 0 0 0.9999999 0 0 0.9999999 0 0 0.9999999 0 0 0.9999999 0 0 0.9999999 0 0 0.9999999 0 0 0.9999999 0 0 0.9999999 0 0 0.9999999 0 0 0.9999999 0 0 0.9999999 0 0 0.9999999 0 0 0.9999999 0 0 0.9999999 0 0 0.9999999 0 0 0.9999999 0 0 0.9999999 0 0 0.9999999 0 0 0.9999999 0 0 0.9999999 0 0 0.9999999 0 0 0.9999999 0 0 0.9999999 0 0 0.9999999 0 0 0.9999999 0 0 0.9999999 0 0 0.9999999 0 0 0.9999999 0 0 0.9999999 0 0 0.9999999 0 0 0.9999999 0 0 0.9999999 0 0 0.9999999 0 0 0.9999999 0 0 -0.9999999 0 0 -0.9999999 0 0 -0.9999999 0 0 -0.9999999 0 0 -0.9999999 0 0 -0.9999999 0 0 -0.9999999 0 0 -0.9999999 0 0 -0.9999999 0 0 -0.9999999 0 0 -0.9999999 0 0 -0.9999999 0 0 -0.9999999 0 0 -0.9999999 0 0 -0.9999999 0 0 -0.9999999 0 0 -0.9999999 0 0 -0.9999999 0 0 -0.9999999 0 0 -0.9999999 0 0 -0.9999999 0 0 -0.9999999 0 0 -0.9999999 0 0 -0.9999999 0 0 -0.9999999 0 0 -0.9999999 0 0 -0.9999999 0 0 -1 0 0 -1 0 0 -1 0 0 -1 0 0 -1 0 0 -1 0 0 -0.9999999 0 0 -0.9999999 0 0 -0.9999999 0 0 -0.9999999 0 0 -0.9999999 0 0 -0.9999999 0 0.8510911 -0.3890553 -0.3525335 0.6513972 -0.3890552 -0.6513967 0.6527421 0.3845207 -0.6527416 0.8528482 0.3845208 -0.3532614 0.352534 -0.389055 -0.8510911 0.3532617 0.3845206 -0.8528482 0 -0.3890549 -0.9212146 0 0.3845208 -0.9231163 -0.3525331 -0.3890548 -0.8510914 -0.3532608 0.3845209 -0.8528484 -0.6513965 -0.3890551 -0.6513973 -0.6527413 0.3845211 -0.6527422 -0.8510911 -0.3890548 -0.3525338 -0.8528482 0.3845209 -0.3532616 -0.9212146 -0.3890548 0 -0.9231163 0.384521 0 -0.8510913 -0.3890551 0.3525333 -0.8528482 0.3845211 0.353261 -0.6513972 -0.389055 0.6513969 -0.6527419 0.3845207 0.6527417 -0.3525337 -0.3890551 0.8510911 -0.3532614 0.3845211 0.8528482 0 -0.3890551 0.9212145 0 0.3845212 0.9231161 0.3525333 -0.3890551 0.8510913 0.3532611 0.3845211 0.8528483 0.6513969 -0.3890553 0.651397 0.6527417 0.384521 0.6527419 0.8510912 -0.3890551 0.3525336 0.8528482 0.3845209 0.3532614 0.9212145 -0.389055 0 0.9231163 0.3845209 0 0.3808084 0.9246539 0 0.3518212 0.9246539 -0.1457291 -0.6469138 0.7139325 0.2679604 -0.7002145 0.7139325 0 0.2692724 0.9246538 -0.2692725 -0.4951267 0.7139326 0.495126 0.1457293 0.9246537 -0.3518216 -0.2679608 0.7139327 0.6469135 0 0.9246539 -0.3808085 0 0.7139325 0.7002145 -0.1457288 0.9246539 -0.3518212 0.2679601 0.7139326 0.6469139 -0.2692719 0.9246539 -0.2692725 0.4951263 0.7139326 0.4951264 -0.3518211 0.9246539 -0.1457293 0.6469137 0.7139325 0.2679607 -0.3808083 0.9246539 0 0.7002145 0.7139325 0 -0.3518209 0.924654 0.1457289 0.6469138 0.7139325 -0.2679604 -0.2692724 0.9246539 0.2692722 0.4951265 0.7139325 -0.4951264 -0.145729 0.9246539 0.351821 0.2679607 0.7139325 -0.6469137 0 0.924654 0.3808083 0 0.7139326 -0.7002144 0.1457289 0.9246541 0.351821 -0.2679604 0.7139325 -0.6469138 0.2692721 0.924654 0.2692721 -0.4951264 0.7139324 -0.4951267 0.3518211 0.9246539 0.145729 -0.6469138 0.7139325 -0.2679607 -0.6469138 0.7139325 0.2679605 -0.7002145 0.7139325 0 -0.4951266 0.7139325 0.4951262 -0.2679607 0.7139325 0.6469137 0 0.7139325 0.7002145 0.2679601 0.7139325 0.6469139 0.4951262 0.7139325 0.4951265 0.6469137 0.7139325 0.2679608 0.7002145 0.7139325 0 0.6469138 0.7139325 -0.2679604 0.4951265 0.7139325 -0.4951264 0.2679607 0.7139325 -0.6469138 0 0.7139325 -0.7002145 -0.2679604 0.7139325 -0.6469138 -0.4951264 0.7139325 -0.4951265 -0.6469138 0.7139325 -0.2679606 0.3477302 -0.9264652 -0.1440346 0.3763808 -0.926465 0 0.2661414 -0.9264652 -0.2661412 0.1440349 -0.926465 -0.3477305 0 -0.926465 -0.376381 -0.1440346 -0.926465 -0.3477307 -0.2661411 -0.9264652 -0.2661415 -0.3477306 -0.926465 -0.1440348 -0.376381 -0.926465 0 -0.3477304 -0.9264651 0.1440346 -0.2661415 -0.9264651 0.2661413 -0.1440347 -0.9264651 0.3477304 0 -0.9264651 0.3763807 0.1440345 -0.9264651 0.3477304 0.2661411 -0.9264652 0.2661412 0.3477304 -0.9264651 0.1440347 0 -0.9999999 0 0 -0.9999999 0 0 -0.9999999 0 0 -0.9999999 0 0 -0.9999999 0 0 -0.9999999 0 0 -0.9999999 0 0 -0.9999999 0 0 -0.9999999 0 0 -0.9999999 0 0 -0.9999999 0 0 -0.9999999 0 0 -0.9999999 0 0 -0.9999999 0 0 -0.9999999 0 0 -0.9999999 0 0.382683 0 0.9238797 0 0 1 0 0 1 0.382683 0 0.9238797 -0.3826839 0 0.9238794 -0.3826839 0 0.9238794 -0.7071071 0 0.7071065 -0.7071071 0 0.7071065 -0.9238795 0 0.3826836 -0.9238795 0 0.3826836 -1 0 0 -1 0 0 -0.9238794 0 -0.3826838 -0.9238794 0 -0.3826838 -0.7071066 0 -0.7071069 -0.7071066 0 -0.7071069 -0.3826832 0 -0.9238797 -0.3826832 0 -0.9238797 0 0 -1 0 0 -1 0.3826834 0 -0.9238796 0.3826834 0 -0.9238796 0.7071071 0 -0.7071065 0.7071071 0 -0.7071065 0.9238797 0 -0.382683 0.9238797 0 -0.382683 1 0 0 1 0 0 0.9238794 0 0.3826838 0.9238794 0 0.3826838 0.7071064 0 0.7071072 0.7071064 0 0.7071072 0 0.9999999 0 0 0.9999999 0 0 0.9999999 0 0 0.9999999 0 0 1 0 0 1 0 0 1 0 0 0.9999999 0 0 0.9999999 0 0 0.9999999 0 0 0.9999999 0 0 0.9999999 0 0 1 0 0 0.9999999 0 0 0.9999999 0 0 0.9999999 0</float_array>
          <technique_common>
            <accessor source="#polySurfaceShape2-normals-array" count="404" stride="3">
              <param name="X" type="float"/>
              <param name="Y" type="float"/>
              <param name="Z" type="float"/>
            </accessor>
          </technique_common>
        </source>
        <source id="polySurfaceShape2-map1" name="polySurfaceShape2-map1">
          <float_array id="polySurfaceShape2-map1-array" count="800">0.3141194 0.8790722 0.3750879 0.8790722 0.3750879 0.9530371 0.3141194 0.9530371 0.4369333 0.8790722 0.4369333 0.9530371 0.498211 0.8790722 0.498211 0.9530371 0.2561651 0.767046 0.5609291 0.8790722 0.5612282 0.9530371 0.05728381 0.6090339 0.6234126 0.8790722 0.6234126 0.9530371 0.6856436 0.8790722 0.6856436 0.9530371 0.7480618 0.8790722 0.7480618 0.9530371 0.8104739 0.8790722 0.8104739 0.9530371 0.8714423 0.8790722 0.8714423 0.9530371 0.9332877 0.8790722 0.9332877 0.9530371 0.9945655 0.8790722 0.9945655 0.9530371 0.001856401 0.8790722 0.0645745 0.8790722 0.06487352 0.9530371 0.00185639 0.9530371 0.1270581 0.8790722 0.1270581 0.9530371 0.1892891 0.8790722 0.1892891 0.9530371 0.2517072 0.8790722 0.2517072 0.9530371 0.02636817 0.322929 0.377526 0.5996858 0.02750587 0.4728038 0.2517072 0.9683308 0.3141194 0.9683308 0.3114032 0.9788833 0.2526301 0.9788833 0.3750879 0.9683308 0.3733714 0.9788833 0.3146061 0.9788833 0.4369333 0.9683308 0.435252 0.9788833 0.376497 0.9788833 0.498211 0.9683308 0.4967544 0.9788833 0.4380209 0.9788833 0.3251683 0.7082322 0.5615418 0.9683308 0.5603262 0.9788833 0.5015531 0.9788835 0.6234126 0.9683308 0.6218754 0.9788833 0.563096 0.9788833 0.6856436 0.9683308 0.6837829 0.9788833 0.6250031 0.9788833 0.7480618 0.9683308 0.7457649 0.9788833 0.6869867 0.9788833 0.8104739 0.9683308 0.8077577 0.9788833 0.7489847 0.9788833 0.8714423 0.9683308 0.8697259 0.9788833 0.8109605 0.9788833 0.9332877 0.9683308 0.9316065 0.9788833 0.8728515 0.9788833 0.9945655 0.9683308 0.9931089 0.9788833 0.9343754 0.9788833 0.00185639 0.9683308 0.06518722 0.9683308 0.06397156 0.9788833 0.005198472 0.9788835 0.1270581 0.9683308 0.125521 0.9788833 0.06674146 0.9788833 0.1892891 0.9683308 0.1874284 0.9788833 0.1286486 0.9788833 0.2494102 0.9788833 0.1906322 0.9788833 0.4981059 0.8568653 0.4368282 0.8568653 0.4368282 0.7751954 0.4981059 0.7751954 0.3749828 0.8568653 0.3749828 0.7751954 0.3140144 0.8568653 0.3140144 0.7751954 0.251602 0.8568653 0.251602 0.7751954 0.189184 0.8568653 0.189184 0.7751954 0.126953 0.8568653 0.126953 0.7751954 0.0644694 0.8568653 0.0644694 0.7751954 0.001751278 0.8568653 0.001751278 0.7751954 0.9944606 0.8568653 0.9317424 0.8568653 0.9317424 0.7751954 0.9944606 0.7751954 0.8692588 0.8568653 0.8692589 0.7751954 0.8070278 0.8568653 0.8070278 0.7751954 0.7446098 0.8568653 0.7446098 0.7751954 0.6821973 0.8568653 0.6821973 0.7751954 0.6212289 0.8568653 0.6212289 0.7751954 0.5593836 0.8568653 0.5593836 0.7751952 0.1810278 0.7692075 0.1111887 0.7144099 0.6535344 0.07017314 0.7220094 0.762216 0.6006707 0.1750873 0.3141194 0.8634618 0.2517072 0.8634618 0.3750879 0.8634618 0.4369333 0.8634618 0.498211 0.8634618 0.2504517 0.01419225 0.5609291 0.8634618 0.6234126 0.8634618 0.6856436 0.8634618 0.7480618 0.8634618 0.8104739 0.8634618 0.8714423 0.8634618 0.9332877 0.8634618 0.9945655 0.8634619 0.00185639 0.8634618 0.0645745 0.8634618 0.1270581 0.8634618 0.1892891 0.8634618 0.7967399 0.7624059 0.7971709 0.01411206 0.8658196 0.70609 0.7225294 0.01392379 0.8661089 0.07070187 0.9186991 0.6006755 0.9188651 0.1758807 0.9473358 0.4620836 0.947395 0.3145605 0.6530411 0.7055461 0.5719815 0.3136264 0.6003163 0.5998808 0.5718531 0.4611444 0.4052503 0.4616163 0.05405325 0.1834778 0.4041113 0.3115626 0.1102698 0.07207122 0.3742877 0.1736962 0.1753161 0.01652476 0.3203237 0.0688315 0.3141194 0.8790722 0.3750879 0.8790722 0.3750879 0.9530371 0.3141194 0.9530371 0.4369333 0.8790722 0.4369333 0.9530371 0.498211 0.8790722 0.498211 0.9530371 0.5609291 0.8790722 0.5612282 0.9530371 0.6234126 0.8790722 0.6234126 0.9530371 0.6856436 0.8790722 0.6856436 0.9530371 0.7480618 0.8790722 0.7480618 0.9530371 0.8104739 0.8790722 0.8104739 0.9530371 0.8714423 0.8790722 0.8714423 0.9530371 0.9332877 0.8790722 0.9332877 0.9530371 0.9945655 0.8790722 0.9945655 0.9530371 0.001856401 0.8790722 0.0645745 0.8790722 0.06487352 0.9530371 0.00185639 0.9530371 0.1270581 0.8790722 0.1270581 0.9530371 0.1892891 0.8790722 0.1892891 0.9530371 0.2517072 0.8790722 0.2517072 0.9530371 0.2517072 0.9683308 0.3141194 0.9683308 0.3114032 0.9788833 0.2526301 0.9788833 0.3750879 0.9683308 0.3733714 0.9788833 0.3146061 0.9788833 0.4369333 0.9683308 0.435252 0.9788833 0.376497 0.9788833 0.498211 0.9683308 0.4967544 0.9788833 0.4380209 0.9788833 0.5615418 0.9683308 0.5603262 0.9788833 0.5015531 0.9788835 0.6234126 0.9683308 0.6218754 0.9788833 0.563096 0.9788833 0.6856436 0.9683308 0.6837829 0.9788833 0.6250031 0.9788833 0.7480618 0.9683308 0.7457649 0.9788833 0.6869867 0.9788833 0.8104739 0.9683308 0.8077577 0.9788833 0.7489847 0.9788833 0.8714423 0.9683308 0.8697259 0.9788833 0.8109605 0.9788833 0.9332877 0.9683308 0.9316065 0.9788833 0.8728515 0.9788833 0.9945655 0.9683308 0.9931089 0.9788833 0.9343754 0.9788833 0.00185639 0.9683308 0.06518722 0.9683308 0.06397156 0.9788833 0.005198472 0.9788835 0.1270581 0.9683308 0.125521 0.9788833 0.06674146 0.9788833 0.1892891 0.9683308 0.1874284 0.9788833 0.1286486 0.9788833 0.2494102 0.9788833 0.1906322 0.9788833 0.4981059 0.8568653 0.4368282 0.8568653 0.4368282 0.7751954 0.4981059 0.7751954 0.3749828 0.8568653 0.3749828 0.7751954 0.3140144 0.8568653 0.3140144 0.7751954 0.251602 0.8568653 0.251602 0.7751954 0.189184 0.8568653 0.189184 0.7751954 0.126953 0.8568653 0.126953 0.7751954 0.0644694 0.8568653 0.0644694 0.7751954 0.001751278 0.8568653 0.001751278 0.7751954 0.9944606 0.8568653 0.9317424 0.8568653 0.9317424 0.7751954 0.9944606 0.7751954 0.8692588 0.8568653 0.8692589 0.7751954 0.8070278 0.8568653 0.8070278 0.7751954 0.7446098 0.8568653 0.7446098 0.7751954 0.6821973 0.8568653 0.6821973 0.7751954 0.6212289 0.8568653 0.6212289 0.7751954 0.5593836 0.8568653 0.5593836 0.7751952 0.3141194 0.8634618 0.2517072 0.8634618 0.3750879 0.8634618 0.4369333 0.8634618 0.498211 0.8634618 0.5609291 0.8634618 0.6234126 0.8634618 0.6856436 0.8634618 0.7480618 0.8634618 0.8104739 0.8634618 0.8714423 0.8634618 0.9332877 0.8634618 0.9945655 0.8634619 0.00185639 0.8634618 0.0645745 0.8634618 0.1270581 0.8634618 0.1892891 0.8634618 0.571853 0.4611444 0.5719814 0.3136264 0.6199215 0.3332051 0.6201721 0.442882 0.6006707 0.1750873 0.6409391 0.2293404 0.6535344 0.07017314 0.6800256 0.1514367 0.7225294 0.01392379 0.7312298 0.1090072 0.7971709 0.01411206 0.7867569 0.1085124 0.8661089 0.07070187 0.8381531 0.1500261 0.9188651 0.1758807 0.8775939 0.2272297 0.947395 0.3145605 0.8990752 0.3307147 0.9473358 0.4620836 0.8993257 0.440392 0.918699 0.6006755 0.8783083 0.5442566 0.8658196 0.70609 0.839222 0.6233391 0.7967399 0.7624059 0.7880176 0.6657685 0.7220094 0.762216 0.7324905 0.6662639 0.6530411 0.7055461 0.6810942 0.6247495 0.6003163 0.5998808 0.6416532 0.5463676 0.9653926 0.4801486 0.9653926 0.3856706 0.9782953 0.3856706 0.9782953 0.4801486 0.9653926 0.2952342 0.9782953 0.2952342 0.9653926 0.2070021 0.9782953 0.2070021 0.9653926 0.1152946 0.9782953 0.1152946 0.9653926 0.02069724 0.9782953 0.02069724 0.9653927 0.7472091 0.9653925 0.6588534 0.9782953 0.6588532 0.9782953 0.7472092 0.9653926 0.5674003 0.9782953 0.5674003 0.9653926 0.4801486 0.9782953 0.4801486 0.9653926 0.3856703 0.9782953 0.3856703 0.9653927 0.2952341 0.9782953 0.2952341 0.9653927 0.2070021 0.9782953 0.207002 0.9653925 0.1152946 0.9782953 0.1152945 0.9653926 0.02069712 0.9782953 0.02069712 0.9653926 0.7472092 0.9653926 0.6588533 0.9782953 0.6588533 0.9782953 0.7472092 0.9653926 0.5674002 0.9782953 0.5674002 0.02750587 0.4728038 0.02636814 0.322929 0.08024213 0.341027 0.08048467 0.4460108 0.05405325 0.1834778 0.1005818 0.2411669 0.1395429 0.1656363 0.1102698 0.07207122 0.1753161 0.01652476 0.1890955 0.1254777 0.2504517 0.01419225 0.2428316 0.1249829 0.29257 0.1653612 0.3203237 0.0688315 0.3742877 0.1736962 0.3307386 0.2414294 0.3503916 0.3416653 0.4041113 0.3115626 0.350634 0.4466494 0.4052503 0.4616163 0.377526 0.5996858 0.3302946 0.5473853 0.292469 0.6221601 0.3251683 0.7082322 0.2430499 0.6628269 0.2561651 0.767046 0.1875228 0.6633223 0.1810278 0.7692075 0.1394416 0.6235707 0.1111887 0.7144099 0.05728382 0.6090339 0.1012728 0.5471498</float_array>
          <technique_common>
            <accessor source="#polySurfaceShape2-map1-array" count="400" stride="2">
              <param name="S" type="float"/>
              <param name="T" type="float"/>
            </accessor>
          </technique_common>
        </source>
        <vertices id="polySurfaceShape2-vertices" name="polySurfaceShape2-vertices">
          <input semantic="POSITION" source="#polySurfaceShape2-positions"/>
        </vertices>
        <triangles material="initialShadingGroup" count="444">
          <input semantic="VERTEX" source="#polySurfaceShape2-vertices" offset="0"/>
          <input semantic="NORMAL" source="#polySurfaceShape2-normals" offset="1"/>
          <input semantic="TEXCOORD" source="#polySurfaceShape2-map1" offset="2" set="0"/>
          <p>32 0 0 34 1 1 65 3 3 65 3 3 34 1 1 67 2 2 34 1 1 36 4 4 67 2 2 67 2 2 36 4 4 69 5 5 36 4 4 38 6 6 69 5 5 69 5 5 38 6 6 71 7 7 38 6 6 40 8 9 71 7 7 71 7 7 40 8 9 73 9 10 40 8 9 42 10 12 73 9 10 73 9 10 42 10 12 75 11 13 42 10 12 44 12 14 75 11 13 75 11 13 44 12 14 77 13 15 44 12 14 46 14 16 77 13 15 77 13 15 46 14 16 79 15 17 46 14 16 48 16 18 79 15 17 79 15 17 48 16 18 81 17 19 48 16 18 50 18 20 81 17 19 81 17 19 50 18 20 83 19 21 50 18 20 52 20 22 83 19 21 83 19 21 52 20 22 85 21 23 52 20 22 54 22 24 85 21 23 85 21 23 54 22 24 87 23 25 54 22 26 56 24 27 87 23 29 87 23 29 56 24 27 89 25 28 56 24 27 58 26 30 89 25 28 89 25 28 58 26 30 91 27 31 58 26 30 60 28 32 91 27 31 91 27 31 60 28 32 93 29 33 60 28 32 62 30 34 93 29 33 93 29 33 62 30 34 95 31 35 62 30 34 32 0 0 95 31 35 95 31 35 32 0 0 65 3 3 24 32 36 17 33 37 23 34 38 94 35 39 64 36 40 0 38 42 0 38 42 64 36 40 1 37 41 64 36 40 66 39 43 1 37 45 1 37 45 66 39 43 2 40 44 66 39 43 68 41 46 2 40 48 2 40 48 68 41 46 3 42 47 68 41 46 70 43 49 3 42 51 3 42 51 70 43 49 4 44 50 70 43 49 72 45 53 4 44 55 4 44 55 72 45 53 5 46 54 72 45 53 74 47 56 5 46 58 5 46 58 74 47 56 6 48 57 74 47 56 76 49 59 6 48 61 6 48 61 76 49 59 7 50 60 76 49 59 78 51 62 7 50 64 7 50 64 78 51 62 8 52 63 78 51 62 80 53 65 8 52 67 8 52 67 80 53 65 9 54 66 80 53 65 82 55 68 9 54 70 9 54 70 82 55 68 10 56 69 82 55 68 84 57 71 10 56 73 10 56 73 84 57 71 11 58 72 84 57 71 86 59 74 11 58 76 11 58 76 86 59 74 12 60 75 86 59 77 88 61 78 12 60 80 12 60 80 88 61 78 13 62 79 88 61 78 90 63 81 13 62 83 13 62 83 90 63 81 14 64 82 90 63 81 92 65 84 14 64 86 14 64 86 92 65 84 15 66 85 92 65 84 94 35 39 15 66 88 15 66 88 94 35 39 0 38 87 0 67 89 1 68 90 16 70 92 16 70 92 1 68 90 17 69 91 1 68 90 2 71 93 17 69 91 17 69 91 2 71 93 18 72 94 2 71 93 3 73 95 18 72 94 18 72 94 3 73 95 19 74 96 3 73 95 4 75 97 19 74 96 19 74 96 4 75 97 20 76 98 4 75 97 5 77 99 20 76 98 20 76 98 5 77 99 21 78 100 5 77 99 6 79 101 21 78 100 21 78 100 6 79 101 22 80 102 6 79 101 7 81 103 22 80 102 22 80 102 7 81 103 23 82 104 7 81 103 8 83 105 23 82 104 23 82 104 8 83 105 24 84 106 8 83 107 9 85 108 24 84 110 24 84 110 9 85 108 25 86 109 9 85 108 10 87 111 25 86 109 25 86 109 10 87 111 26 88 112 10 87 111 11 89 113 26 88 112 26 88 112 11 89 113 27 90 114 11 89 113 12 91 115 27 90 114 27 90 114 12 91 115 28 92 116 12 91 115 13 93 117 28 92 116 28 92 116 13 93 117 29 94 118 13 93 117 14 95 119 29 94 118 29 94 118 14 95 119 30 96 120 14 95 119 15 97 121 30 96 120 30 96 120 15 97 121 31 98 122 15 97 121 0 67 89 31 98 122 31 98 122 0 67 89 16 70 92 33 99 125 45 100 126 35 101 127 33 102 128 32 103 0 63 105 129 63 105 129 32 103 0 62 104 34 32 103 0 33 102 128 34 107 1 34 107 1 33 102 128 35 106 130 34 107 1 35 106 130 36 109 4 36 109 4 35 106 130 37 108 131 36 109 4 37 108 131 38 111 6 38 111 6 37 108 131 39 110 132 38 111 6 39 110 132 40 113 9 40 113 9 39 110 132 41 112 134 40 113 9 41 112 134 42 115 12 42 115 12 41 112 134 43 114 135 42 115 12 43 114 135 44 117 14 44 117 14 43 114 135 45 116 136 44 117 14 45 116 136 46 119 16 46 119 16 45 116 136 47 118 137 46 119 16 47 118 137 48 121 18 48 121 18 47 118 137 49 120 138 48 121 18 49 120 138 50 123 20 50 123 20 49 120 138 51 122 139 50 123 20 51 122 139 52 125 22 52 125 22 51 122 139 53 124 140 52 125 22 53 124 140 54 127 24 54 127 24 53 124 140 55 126 141 54 127 26 55 126 142 56 129 27 56 129 27 55 126 142 57 128 143 56 129 27 57 128 143 58 131 30 58 131 30 57 128 143 59 130 144 58 131 30 59 130 144 60 133 32 60 133 32 59 130 144 61 132 145 60 133 32 61 132 145 62 104 34 62 104 34 61 132 145 63 105 129 65 134 3 64 135 40 95 137 35 95 137 35 64 135 40 94 136 39 64 135 40 65 134 3 66 139 43 66 139 43 65 134 3 67 138 2 66 139 43 67 138 2 68 141 46 68 141 46 67 138 2 69 140 5 68 141 46 69 140 5 70 143 49 70 143 49 69 140 5 71 142 7 70 143 49 71 142 7 72 145 53 72 145 53 71 142 7 73 144 10 72 145 53 73 144 10 74 147 56 74 147 56 73 144 10 75 146 13 74 147 56 75 146 13 76 149 59 76 149 59 75 146 13 77 148 15 76 149 59 77 148 15 78 151 62 78 151 62 77 148 15 79 150 17 78 151 62 79 150 17 80 153 65 80 153 65 79 150 17 81 152 19 80 153 65 81 152 19 82 155 68 82 155 68 81 152 19 83 154 21 82 155 68 83 154 21 84 157 71 84 157 71 83 154 21 85 156 23 84 157 71 85 156 23 86 159 74 86 159 74 85 156 23 87 158 25 86 159 77 87 158 29 88 161 78 88 161 78 87 158 29 89 160 28 88 161 78 89 160 28 90 163 81 90 163 81 89 160 28 91 162 31 90 163 81 91 162 31 92 165 84 92 165 84 91 162 31 93 164 33 92 165 84 93 164 33 94 136 39 94 136 39 93 164 33 95 137 35 47 166 146 61 167 147 49 168 148 63 169 149 61 170 147 47 171 146 49 172 148 59 173 150 51 174 151 49 175 148 61 176 147 59 177 150 51 178 151 57 179 152 53 180 153 51 181 151 59 182 150 57 183 152 53 184 153 57 185 152 55 186 154 63 187 149 47 188 146 33 189 125 33 190 125 47 191 146 45 192 126 35 193 127 43 194 155 37 195 156 35 196 127 45 197 126 43 198 155 37 199 156 41 200 157 39 201 158 37 202 156 43 203 155 41 204 157 16 205 159 25 206 160 31 207 161 16 208 159 24 209 36 25 210 160 31 211 161 26 212 162 30 213 163 31 214 161 25 215 160 26 216 162 30 217 163 27 218 164 29 219 165 30 220 163 26 221 162 27 222 164 29 223 165 27 224 164 28 225 133 16 226 159 17 227 37 24 228 36 23 229 38 18 230 52 22 231 11 23 232 38 17 233 37 18 234 52 22 235 11 19 236 8 21 237 124 22 238 11 18 239 52 19 240 8 21 241 124 19 242 8 20 243 123 128 244 166 130 245 167 161 247 169 161 247 169 130 245 167 163 246 168 130 245 167 132 248 170 163 246 168 163 246 168 132 248 170 165 249 171 132 248 170 134 250 172 165 249 171 165 249 171 134 250 172 167 251 173 134 250 172 136 252 174 167 251 173 167 251 173 136 252 174 169 253 175 136 252 174 138 254 176 169 253 175 169 253 175 138 254 176 171 255 177 138 254 176 140 256 178 171 255 177 171 255 177 140 256 178 173 257 179 140 256 178 142 258 180 173 257 179 173 257 179 142 258 180 175 259 181 142 258 180 144 260 182 175 259 181 175 259 181 144 260 182 177 261 183 144 260 182 146 262 184 177 261 183 177 261 183 146 262 184 179 263 185 146 262 184 148 264 186 179 263 185 179 263 185 148 264 186 181 265 187 148 264 186 150 266 188 181 265 187 181 265 187 150 266 188 183 267 189 150 266 190 152 268 191 183 267 193 183 267 193 152 268 191 185 269 192 152 268 191 154 270 194 185 269 192 185 269 192 154 270 194 187 271 195 154 270 194 156 272 196 187 271 195 187 271 195 156 272 196 189 273 197 156 272 196 158 274 198 189 273 197 189 273 197 158 274 198 191 275 199 158 274 198 128 244 166 191 275 199 191 275 199 128 244 166 161 247 169 190 276 200 160 277 201 96 279 203 96 279 203 160 277 201 97 278 202 160 277 201 162 280 204 97 278 206 97 278 206 162 280 204 98 281 205 162 280 204 164 282 207 98 281 209 98 281 209 164 282 207 99 283 208 164 282 207 166 284 210 99 283 212 99 283 212 166 284 210 100 285 211 166 284 210 168 286 213 100 285 215 100 285 215 168 286 213 101 287 214 168 286 213 170 288 216 101 287 218 101 287 218 170 288 216 102 289 217 170 288 216 172 290 219 102 289 221 102 289 221 172 290 219 103 291 220 172 290 219 174 292 222 103 291 224 103 291 224 174 292 222 104 293 223 174 292 222 176 294 225 104 293 227 104 293 227 176 294 225 105 295 226 176 294 225 178 296 228 105 295 230 105 295 230 178 296 228 106 297 229 178 296 228 180 298 231 106 297 233 106 297 233 180 298 231 107 299 232 180 298 231 182 300 234 107 299 236 107 299 236 182 300 234 108 301 235 182 300 237 184 302 238 108 301 240 108 301 240 184 302 238 109 303 239 184 302 238 186 304 241 109 303 243 109 303 243 186 304 241 110 305 242 186 304 241 188 306 244 110 305 246 110 305 246 188 306 244 111 307 245 188 306 244 190 276 200 111 307 248 111 307 248 190 276 200 96 279 247 96 279 249 97 278 250 112 309 252 112 309 252 97 278 250 113 308 251 97 278 250 98 281 253 113 308 251 113 308 251 98 281 253 114 310 254 98 281 253 99 283 255 114 310 254 114 310 254 99 283 255 115 311 256 99 283 255 100 285 257 115 311 256 115 311 256 100 285 257 116 312 258 100 285 257 101 287 259 116 312 258 116 312 258 101 287 259 117 313 260 101 287 259 102 289 261 117 313 260 117 313 260 102 289 261 118 314 262 102 289 261 103 291 263 118 314 262 118 314 262 103 291 263 119 315 264 103 291 263 104 293 265 119 315 264 119 315 264 104 293 265 120 316 266 104 293 267 105 295 268 120 316 270 120 316 270 105 295 268 121 317 269 105 295 268 106 297 271 121 317 269 121 317 269 106 297 271 122 318 272 106 297 271 107 299 273 122 318 272 122 318 272 107 299 273 123 319 274 107 299 273 108 301 275 123 319 274 123 319 274 108 301 275 124 320 276 108 301 275 109 303 277 124 320 276 124 320 276 109 303 277 125 321 278 109 303 277 110 305 279 125 321 278 125 321 278 110 305 279 126 322 280 110 305 279 111 307 281 126 322 280 126 322 280 111 307 281 127 323 282 111 307 281 96 279 249 127 323 282 127 323 282 96 279 249 112 309 252 129 324 283 128 244 166 159 325 284 159 325 284 128 244 166 158 274 198 128 244 166 129 324 283 130 245 167 130 245 167 129 324 283 131 326 285 130 245 167 131 326 285 132 248 170 132 248 170 131 326 285 133 327 286 132 248 170 133 327 286 134 250 172 134 250 172 133 327 286 135 328 287 134 250 172 135 328 287 136 252 174 136 252 174 135 328 287 137 329 288 136 252 174 137 329 288 138 254 176 138 254 176 137 329 288 139 330 289 138 254 176 139 330 289 140 256 178 140 256 178 139 330 289 141 331 290 140 256 178 141 331 290 142 258 180 142 258 180 141 331 290 143 332 291 142 258 180 143 332 291 144 260 182 144 260 182 143 332 291 145 333 292 144 260 182 145 333 292 146 262 184 146 262 184 145 333 292 147 334 293 146 262 184 147 334 293 148 264 186 148 264 186 147 334 293 149 335 294 148 264 186 149 335 294 150 266 188 150 266 188 149 335 294 151 336 295 150 266 190 151 336 296 152 268 191 152 268 191 151 336 296 153 337 297 152 268 191 153 337 297 154 270 194 154 270 194 153 337 297 155 338 298 154 270 194 155 338 298 156 272 196 156 272 196 155 338 298 157 339 299 156 272 196 157 339 299 158 274 198 158 274 198 157 339 299 159 325 284 161 247 169 160 277 201 191 275 199 191 275 199 160 277 201 190 276 200 160 277 201 161 247 169 162 280 204 162 280 204 161 247 169 163 246 168 162 280 204 163 246 168 164 282 207 164 282 207 163 246 168 165 249 171 164 282 207 165 249 171 166 284 210 166 284 210 165 249 171 167 251 173 166 284 210 167 251 173 168 286 213 168 286 213 167 251 173 169 253 175 168 286 213 169 253 175 170 288 216 170 288 216 169 253 175 171 255 177 170 288 216 171 255 177 172 290 219 172 290 219 171 255 177 173 257 179 172 290 219 173 257 179 174 292 222 174 292 222 173 257 179 175 259 181 174 292 222 175 259 181 176 294 225 176 294 225 175 259 181 177 261 183 176 294 225 177 261 183 178 296 228 178 296 228 177 261 183 179 263 185 178 296 228 179 263 185 180 298 231 180 298 231 179 263 185 181 265 187 180 298 231 181 265 187 182 300 234 182 300 234 181 265 187 183 267 189 182 300 237 183 267 193 184 302 238 184 302 238 183 267 193 185 269 192 184 302 238 185 269 192 186 304 241 186 304 241 185 269 192 187 271 195 186 304 241 187 271 195 188 306 244 188 306 244 187 271 195 189 273 197 188 306 244 189 273 197 190 276 200 190 276 200 189 273 197 191 275 199 137 329 300 135 328 301 192 341 303 192 341 303 135 328 301 193 340 302 135 328 301 133 327 304 193 340 302 193 340 302 133 327 304 194 342 305 133 327 304 131 326 306 194 342 305 194 342 305 131 326 306 195 343 307 131 326 306 129 324 308 195 343 307 195 343 307 129 324 308 196 344 309 129 324 308 159 325 310 196 344 309 196 344 309 159 325 310 197 345 311 159 325 310 157 339 312 197 345 311 197 345 311 157 339 312 198 346 313 157 339 312 155 338 314 198 346 313 198 346 313 155 338 314 199 347 315 155 338 314 153 337 316 199 347 315 199 347 315 153 337 316 200 348 317 153 337 316 151 336 318 200 348 317 200 348 317 151 336 318 201 349 319 151 336 318 149 335 320 201 349 319 201 349 319 149 335 320 202 350 321 149 335 320 147 334 322 202 350 321 202 350 321 147 334 322 203 351 323 147 334 322 145 333 324 203 351 323 203 351 323 145 333 324 204 352 325 145 333 324 143 332 326 204 352 325 204 352 325 143 332 326 205 353 327 143 332 326 141 331 328 205 353 327 205 353 327 141 331 328 206 354 329 141 331 328 139 330 330 206 354 329 206 354 329 139 330 330 207 355 331 139 330 330 137 329 300 207 355 331 207 355 331 137 329 300 192 341 303 192 356 332 193 357 333 208 359 335 208 359 335 193 357 333 209 358 334 193 357 333 194 360 336 209 358 334 209 358 334 194 360 336 210 361 337 194 360 336 195 362 338 210 361 337 210 361 337 195 362 338 211 363 339 195 362 338 196 364 340 211 363 339 211 363 339 196 364 340 212 365 341 196 364 340 197 366 342 212 365 341 212 365 341 197 366 342 213 367 343 197 366 344 198 368 345 213 367 347 213 367 347 198 368 345 214 369 346 198 368 345 199 370 348 214 369 346 214 369 346 199 370 348 215 371 349 199 370 348 200 372 350 215 371 349 215 371 349 200 372 350 216 373 351 200 372 350 201 374 352 216 373 351 216 373 351 201 374 352 217 375 353 201 374 352 202 376 354 217 375 353 217 375 353 202 376 354 218 377 355 202 376 354 203 378 356 218 377 355 218 377 355 203 378 356 219 379 357 203 378 356 204 380 358 219 379 357 219 379 357 204 380 358 220 381 359 204 380 358 205 382 360 220 381 359 220 381 359 205 382 360 221 383 361 205 382 362 206 384 363 221 383 365 221 383 365 206 384 363 222 385 364 206 384 363 207 386 366 222 385 364 222 385 364 207 386 366 223 387 367 207 386 366 192 356 332 223 387 367 223 387 367 192 356 332 208 359 335 123 319 368 124 320 369 218 389 371 218 389 371 124 320 369 217 388 370 124 320 369 125 321 372 217 388 370 217 388 370 125 321 372 216 390 373 215 391 374 216 390 373 126 322 375 126 322 375 216 390 373 125 321 372 126 322 375 127 323 376 215 391 374 215 391 374 127 323 376 214 392 377 127 323 376 112 309 378 214 392 377 214 392 377 112 309 378 213 393 379 212 394 380 213 393 379 113 308 381 113 308 381 213 393 379 112 309 378 113 308 381 114 310 382 212 394 380 212 394 380 114 310 382 211 395 383 210 396 384 211 395 383 115 311 385 115 311 385 211 395 383 114 310 382 209 397 386 210 396 384 116 312 387 116 312 387 210 396 384 115 311 385 116 312 387 117 313 388 209 397 386 209 397 386 117 313 388 208 398 389 223 399 390 208 398 389 118 314 391 118 314 391 208 398 389 117 313 388 222 400 392 223 399 390 119 315 393 119 315 393 223 399 390 118 314 391 221 401 394 222 400 392 120 316 395 120 316 395 222 400 392 119 315 393 220 402 396 221 401 394 121 317 397 121 317 397 221 401 394 120 316 395 121 317 397 122 318 398 220 402 396 220 402 396 122 318 398 219 403 399 218 389 371 219 403 399 123 319 368 123 319 368 219 403 399 122 318 398</p>
        </triangles>
      </mesh>
      <extra>
        <technique profile="OpenCOLLADAMaya">
          <originalMayaNodeId>polySurfaceShape2</originalMayaNodeId>
          <double_sided>1</double_sided>
        </technique>
      </extra>
    </geometry>
  </library_geometries>
  <library_visual_scenes>
    <visual_scene id="VisualSceneNode" name="sample_specimen_jars">
      <node id="pCylinder5" name="pCylinder5" type="NODE">
        <translate sid="translate">0 0 0</translate>
        <rotate sid="rotateZ">0 0 1 0</rotate>
        <rotate sid="rotateY">0 1 0 0</rotate>
        <rotate sid="rotateX">1 0 0 0</rotate>
        <scale sid="scale">1 1 1</scale>
        <instance_geometry url="#pCylinderShape5">
          <bind_material>
            <technique_common>
              <instance_material symbol="lambert2SG" target="#lambert2">
                <bind_vertex_input semantic="TEX0" input_semantic="TEXCOORD" input_set="0"/>
              </instance_material>
            </technique_common>
          </bind_material>
        </instance_geometry>
        <extra>
          <technique profile="OpenCOLLADAMaya">
            <originalMayaNodeId>pCylinder5</originalMayaNodeId>
          </technique>
        </extra>
      </node>
      <node id="polySurface1" name="polySurface1" type="NODE">
        <translate sid="translate">0 0 0</translate>
        <scale sid="scale">1 1 1</scale>
        <instance_geometry url="#polySurfaceShape2">
          <bind_material>
            <technique_common>
              <instance_material symbol="initialShadingGroup" target="#lambert1">
                <bind_vertex_input semantic="TEX0" input_semantic="TEXCOORD" input_set="0"/>
              </instance_material>
            </technique_common>
          </bind_material>
        </instance_geometry>
        <extra>
          <technique profile="OpenCOLLADAMaya">
            <originalMayaNodeId>polySurface1</originalMayaNodeId>
          </technique>
        </extra>
      </node>
    </visual_scene>
  </library_visual_scenes>
  <scene>
    <instance_visual_scene url="#VisualSceneNode"/>
  </scene>
</COLLADA>