<?xml version="1.0" encoding="utf-8" ?>
<COLLADA xmlns="http://www.collada.org/2005/11/COLLADASchema" version="1.4.1">
    <asset>
        <contributor>
            <author>Marc</author>
            <authoring_tool>modo 701 [Build 58358], Microsoft Windows 7 Service Pack 1 (6.1.7601 Service Pack 1)</authoring_tool>
            <comments>Plug-in: [Build 58358]; Use Absolute Path: No; Merge Reference Items: No; Save Hidden Items: No; Save Cameras: No; Save Lights: No; Save Locators: Yes; Save Triangles as Triangles: No; Order Vertex Maps Alphabetically: Yes; Bake Matrices: Yes; Save Vertex Normals: Yes; Save UV Texture Coordinates: Yes; Save Vertex Colors: Yes; Save Vertex Weights: Yes; Save Animation: No; Sample Animation: No; Sample Animation Start: 0; Sample Animation End: 1; Save modo Profile: No; Save Maya Profile: No; Save 3ds Max Profile: No; Formatted Arrays: No;</comments>
            <source_data>file:///D:/Work/Dropbox/Frictional%20Games%20-%20Team/Aaron/models/entities/station/door/slidedoor_theta_tunnels/slidedoor_theta_tunnels.lxo</source_data>
        </contributor>
        <created>2013-12-12T16:24:19Z</created>
        <modified>2013-12-12T16:24:19Z</modified>
        <unit name="game" meter="1" />
        <up_axis>Y_UP</up_axis>
    </asset>
    <library_images>
        <image id="Image0001" name="Image0001">
            <init_from>file:///D:/Work/Dropbox/Frictional%20Games%20-%20Team/Aaron/models/entities/station/door/slidedoor_medium_vertical/slidedoor_medium_vertical.psd</init_from>
        </image>
        <image id="Image0002" name="Image0002">
            <init_from>file:///D:/Work/Dropbox/Frictional%20Games%20-%20Team/Aaron/models/entities/station/door/slidedoor_medium_vertical/slidedoor_medium_vertical_nrm.tga</init_from>
        </image>
        <image id="Image0003" name="Image0003">
            <init_from>file:///D:/Work/Dropbox/Frictional%20Games%20-%20Team/Aaron/models/entities/station/door/slidedoor_medium_vertical/slidedoor_medium_vertical_spec.tga</init_from>
        </image>
        <image id="Image0004" name="Image0004">
            <init_from>file:///D:/Work/Dropbox/Frictional%20Games%20-%20Team/Aaron/models/static_objects/station/walls/theta_tunnels_doorframe_rusty.psd</init_from>
        </image>
    </library_images>
    <library_materials>
        <material id="Material-frame_1" name="frame_1">
            <instance_effect url="#Effect-frame_1" />
        </material>
        <material id="Material-slidedoor_medium_vertical" name="slidedoor_medium_vertical">
            <instance_effect url="#Effect-slidedoor_medium_vertical" />
        </material>
    </library_materials>
    <library_effects>
        <effect id="Effect-frame_1" name="frame_1">
            <profile_COMMON>
                <newparam sid="Image0004-surface">
                    <surface type="2D">
                        <init_from>Image0004</init_from>
                        <format>A8R8G8B8</format>
                    </surface>
                </newparam>
                <newparam sid="Image0004-sampler">
                    <sampler2D>
                        <source>Image0004-surface</source>
                        <minfilter>LINEAR_MIPMAP_LINEAR</minfilter>
                        <magfilter>LINEAR</magfilter>
                    </sampler2D>
                </newparam>
                <technique sid="common">
                    <phong>
                        <diffuse>
                            <texture texture="Image0004-sampler" texcoord="polySurfaceShape125-Geometry-frame-Texture" />
                        </diffuse>
                        <specular>
                            <color sid="specular_effect_rgb">0.2 0.2 0.2 1</color>
                        </specular>
                        <shininess>
                            <float sid="specular_effect_rgb">256</float>
                        </shininess>
                        <transparent opaque="RGB_ZERO">
                            <color sid="transparent_effect_rgb">0 0 0 1</color>
                        </transparent>
                        <transparency>
                            <float sid="transparency_effect_float">1</float>
                        </transparency>
                    </phong>
                </technique>
            </profile_COMMON>
        </effect>
        <effect id="Effect-slidedoor_medium_vertical" name="slidedoor_medium_vertical">
            <profile_COMMON>
                <newparam sid="Image0001-surface">
                    <surface type="2D">
                        <init_from>Image0001</init_from>
                        <format>A8R8G8B8</format>
                    </surface>
                </newparam>
                <newparam sid="Image0001-sampler">
                    <sampler2D>
                        <source>Image0001-surface</source>
                        <minfilter>LINEAR_MIPMAP_LINEAR</minfilter>
                        <magfilter>LINEAR</magfilter>
                    </sampler2D>
                </newparam>
                <newparam sid="Image0003-surface">
                    <surface type="2D">
                        <init_from>Image0003</init_from>
                        <format>A8R8G8B8</format>
                    </surface>
                </newparam>
                <newparam sid="Image0003-sampler">
                    <sampler2D>
                        <source>Image0003-surface</source>
                        <minfilter>LINEAR_MIPMAP_LINEAR</minfilter>
                        <magfilter>LINEAR</magfilter>
                    </sampler2D>
                </newparam>
                <technique sid="common">
                    <phong>
                        <diffuse>
                            <texture texture="Image0001-sampler" texcoord="uvSet1" />
                        </diffuse>
                        <specular>
                            <texture texture="Image0003-sampler" texcoord="uvSet1" />
                        </specular>
                        <shininess>
                            <float sid="specular_effect_rgb">16</float>
                        </shininess>
                    </phong>
                </technique>
            </profile_COMMON>
        </effect>
    </library_effects>
    <library_geometries>
        <geometry id="Geometry-polySurface125" name="frame">
            <mesh>
                <source id="Geometry-polySurface125-positions" name="positions">
                    <float_array id="Geometry-polySurface125-positions-array" count="1296">-1.11811 2.58564 -0.325437 -0.712075 2.97833 -0.325437 0.712077 2.97833 -0.325437 1.11811 2.58564 -0.325437 -0.817164 2.96494 -0.325437 -0.915092 2.92571 -0.325437 -0.999186 2.86331 -0.325437 -1.06371 2.78199 -0.325437 -1.10428 2.68727 -0.325437 0.817165 2.96494 -0.325437 0.915092 2.92571 -0.325437 0.999186 2.86331 -0.325437 1.06371 2.78199 -0.325437 1.10428 2.68727 -0.325437 -0.879375 2.57441 -0.325437 -0.654639 2.80698 -0.325437 0.654638 2.80698 -0.325437 0.879375 2.57441 -0.325437 -0.720479 2.798 -0.325437 -0.771718 2.77604 -0.325437 -0.815718 2.7411 -0.325437 -0.849483 2.69557 -0.325437 -0.870706 2.64254 -0.325437 0.720479 2.798 -0.325437 0.771718 2.77604 -0.325437 0.81572 2.7411 -0.325437 0.849483 2.69557 -0.325437 0.870706 2.64254 -0.325437 -0.77296 3.12205 -0.196716 -0.898148 3.10648 -0.196716 -1.01846 3.0594 -0.196716 -1.12177 2.9845 -0.196716 -1.20104 2.88691 -0.196716 -1.25087 2.77324 -0.196716 -1.26735 2.65497 -0.196716 0.898148 3.10648 -0.196716 0.772961 3.12205 -0.196716 1.01846 3.0594 -0.196716 1.12177 2.9845 -0.196716 1.20104 2.88691 -0.196716 1.25087 2.77324 -0.196716 1.26735 2.65497 -0.196716 -0.77296 3.12205 -0.0551209 -0.898148 3.10648 -0.0551209 -1.01846 3.0594 -0.0551209 -1.12177 2.9845 -0.0551209 -1.20104 2.88691 -0.0551209 -1.25087 2.77324 -0.0551209 -1.26735 2.65497 -0.0551209 0.898148 3.10648 -0.0551209 0.772961 3.12205 -0.0551209 1.01846 3.0594 -0.0551209 1.12177 2.9845 -0.0551209 1.20104 2.88691 -0.0551209 1.25087 2.77324 -0.0551209 1.26735 2.65497 -0.0551209 -0.769041 3.06555 -0.19693 -0.882537 3.05143 -0.19693 -0.9883 3.01005 -0.19693 -1.07912 2.94422 -0.19693 -1.14881 2.85841 -0.19693 -1.19262 2.75849 -0.19693 -1.20756 2.65127 -0.19693 0.882538 3.05143 -0.19693 0.769043 3.06555 -0.19693 0.9883 3.01005 -0.19693 1.07912 2.94422 -0.19693 1.14881 2.85841 -0.19693 1.19262 2.75849 -0.19693 1.20755 2.65127 -0.19693 -1.07438 2.41293 -0.196716 -1.04487 2.41293 -0.196716 -1.07438 2.42445 -0.196716 -1.04487 2.42445 -0.196716 -1.04487 2.41293 -0.226073 -1.04487 2.42445 -0.226073 -1.07438 2.24856 -0.196716 -1.04487 2.24856 -0.196716 -1.07438 2.26007 -0.196716 -1.04487 2.26007 -0.196716 -1.04487 2.24856 -0.226073 -1.04487 2.26007 -0.226073 1.07388 2.42492 -0.196716 1.04438 2.42492 -0.196716 1.07388 2.4134 -0.196716 1.04438 2.4134 -0.196716 1.04438 2.42492 -0.226073 1.04438 2.4134 -0.226073 1.07388 2.25981 -0.196716 1.04438 2.25981 -0.196716 1.07388 2.2483 -0.196716 1.04438 2.2483 -0.196716 1.04438 2.25981 -0.226073 1.04438 2.2483 -0.226073 1.11811 2.58564 0.325438 0.712077 2.97833 0.325438 -0.712075 2.97833 0.325438 -1.11811 2.58564 0.325438 0.817165 2.96494 0.325438 0.915092 2.92571 0.325438 0.999186 2.86331 0.325438 1.06371 2.78199 0.325438 1.10428 2.68727 0.325438 -0.817164 2.96494 0.325438 -0.915092 2.92571 0.325438 -0.999186 2.86331 0.325438 -1.06371 2.78199 0.325438 -1.10428 2.68727 0.325438 0.879375 2.57441 0.325438 0.654639 2.80698 0.325438 -0.654639 2.80698 0.325438 -0.879375 2.57441 0.325438 0.720479 2.798 0.325438 0.771718 2.77604 0.325438 0.81572 2.7411 0.325438 0.849483 2.69557 0.325438 0.870706 2.64254 0.325438 -0.720479 2.798 0.325438 -0.771718 2.77604 0.325438 -0.815718 2.7411 0.325438 -0.849483 2.69557 0.325438 -0.870706 2.64254 0.325438 0.772961 3.12205 0.196717 0.898148 3.10648 0.196717 1.01846 3.0594 0.196717 1.12177 2.9845 0.196717 1.20104 2.88691 0.196717 1.25087 2.77324 0.196717 1.26735 2.65497 0.196717 -0.898148 3.10648 0.196717 -0.77296 3.12205 0.196717 -1.01846 3.0594 0.196717 -1.12177 2.9845 0.196717 -1.20104 2.88691 0.196717 -1.25087 2.77324 0.196717 -1.26735 2.65497 0.196717 0.772961 3.12205 0.055122 0.898148 3.10648 0.055122 1.01846 3.0594 0.055122 1.12177 2.9845 0.055122 1.20104 2.88691 0.055122 1.25087 2.77324 0.055122 1.26735 2.65497 0.055122 -0.898148 3.10648 0.055122 -0.77296 3.12205 0.055122 -1.01846 3.0594 0.055122 -1.12177 2.9845 0.055122 -1.20104 2.88691 0.055122 -1.25087 2.77324 0.055122 -1.26735 2.65497 0.055122 0.879375 2.57441 0.124884 0.870706 2.64254 0.124884 0.849483 2.69557 0.124884 0.81572 2.7411 0.124884 0.771718 2.77604 0.124884 0.720479 2.798 0.124884 0.654639 2.80698 0.124884 0.769043 3.06555 0.196932 0.882538 3.05143 0.196932 0.9883 3.01005 0.196932 1.07912 2.94422 0.196932 1.14881 2.85841 0.196932 1.19262 2.75849 0.196932 1.20755 2.65127 0.196932 -0.882537 3.05143 0.196932 -0.769041 3.06555 0.196932 -0.9883 3.01005 0.196932 -1.07912 2.94422 0.196932 -1.14881 2.85841 0.196932 -1.19262 2.75849 0.196932 -1.20756 2.65127 0.196932 -1.07438 2.41293 0.196626 -1.04487 2.41293 0.196626 -1.07438 2.42445 0.196626 -1.04487 2.42445 0.196626 -1.04487 2.41293 0.225984 -1.04487 2.42445 0.225984 -1.07438 2.24783 0.196626 -1.04487 2.24783 0.196626 -1.07438 2.25934 0.196626 -1.04487 2.25934 0.196626 -1.04487 2.24783 0.225984 -1.04487 2.25934 0.225984 1.07388 2.42544 0.196626 1.04438 2.42544 0.196626 1.07388 2.41392 0.196626 1.04438 2.41392 0.196626 1.04438 2.42544 0.225984 1.04438 2.41392 0.225984 1.07388 2.26033 0.196626 1.04438 2.26033 0.196626 1.07388 2.24882 0.196626 1.04438 2.24882 0.196626 1.04438 2.26033 0.225984 1.04438 2.24882 0.225984 0.879375 2.57441 -0.138866 0.654638 2.80698 -0.138866 0.720479 2.798 -0.138866 0.771718 2.77604 -0.138866 0.81572 2.7411 -0.138866 0.849483 2.69557 -0.138866 0.870706 2.64254 -0.138866 -0.712076 -0.19355 -0.325438 0.712076 -0.19355 -0.325437 -0.817164 -0.180166 -0.325438 -0.915093 -0.140937 -0.325438 -0.999186 -0.0785369 -0.325438 -1.06371 0.00279119 -0.325438 -1.10428 0.0975039 -0.325438 0.817164 -0.180165 -0.325437 0.915092 -0.140937 -0.325437 0.999185 -0.0785366 -0.325437 1.06371 0.00279156 -0.325437 1.10428 0.0975043 -0.325437 -0.654639 -0.0221999 -0.325438 0.654637 -0.0221997 -0.325437 -0.720479 -0.0132249 -0.325438 -0.771718 0.00873993 -0.325438 -0.815719 0.0436736 -0.325438 -0.849483 0.0892046 -0.325438 -0.870707 0.142234 -0.325438 0.720479 -0.0132247 -0.325437 0.771717 0.00874021 -0.325437 0.815719 0.0436739 -0.325437 0.849482 0.089205 -0.325437 0.870706 0.142235 -0.325437 -0.77296 -0.337272 -0.196717 -0.898149 -0.321703 -0.196717 -1.01846 -0.274622 -0.196717 -1.12177 -0.199727 -0.196717 -1.20104 -0.102131 -0.196717 -1.25088 0.011539 -0.196717 0.898148 -0.321702 -0.196716 0.772961 -0.337272 -0.196716 1.01846 -0.274622 -0.196716 1.12177 -0.199727 -0.196716 1.20104 -0.102131 -0.196716 1.25087 0.0115394 -0.196716 -0.77296 -0.337272 -0.0551211 -0.898149 -0.321703 -0.0551211 -1.01846 -0.274622 -0.0551211 -1.12177 -0.199727 -0.0551211 -1.20104 -0.102131 -0.0551211 -1.25088 0.011539 -0.0551211 0.898148 -0.321702 -0.0551209 0.772961 -0.337272 -0.0551209 1.01846 -0.274622 -0.0551209 1.12177 -0.199727 -0.0551209 1.20104 -0.102131 -0.0551208 1.25087 0.0115394 -0.0551208 -0.769042 -0.280777 -0.196931 -0.882537 -0.266656 -0.196931 -0.9883 -0.22527 -0.196931 -1.07912 -0.159438 -0.196931 -1.14881 -0.0736367 -0.196931 -1.19262 0.0262853 -0.196931 0.882538 -0.266656 -0.19693 0.769042 -0.280777 -0.19693 0.988299 -0.225269 -0.19693 1.07912 -0.159437 -0.19693 1.14881 -0.0736363 -0.19693 1.19262 0.0262857 -0.19693 -1.07438 0.371845 -0.196717 -1.04487 0.371845 -0.196717 -1.07438 0.360322 -0.196717 -1.04487 0.360322 -0.196717 -1.04487 0.371845 -0.226074 -1.04487 0.360322 -0.226074 -1.07438 0.536218 -0.196717 -1.04487 0.536218 -0.196717 -1.07438 0.524705 -0.196717 -1.04487 0.524705 -0.196717 -1.04487 0.536218 -0.226074 -1.04487 0.524705 -0.226074 1.07388 0.359855 -0.196716 1.04438 0.359855 -0.196716 1.07388 0.371378 -0.196716 1.04438 0.371378 -0.196716 1.04438 0.359855 -0.226073 1.04438 0.371378 -0.226073 1.07388 0.524965 -0.196716 1.04438 0.524965 -0.196716 1.07388 0.536478 -0.196716 1.04438 0.536478 -0.196716 1.04438 0.524965 -0.226073 1.04438 0.536478 -0.226073 0.712076 -0.19355 0.325438 -0.712076 -0.19355 0.325437 0.817165 -0.180165 0.325438 0.915092 -0.140936 0.325438 0.999185 -0.0785365 0.325438 1.06371 0.00279161 0.325438 1.10428 0.0975044 0.325438 -0.817164 -0.180166 0.325437 -0.915093 -0.140937 0.325437 -0.999186 -0.0785369 0.325437 -1.06371 0.00279125 0.325437 -1.10428 0.097504 0.325437 0.654638 -0.0221996 0.325438 -0.654639 -0.0221999 0.325437 0.720479 -0.0132246 0.325438 0.771718 0.00874027 0.325438 0.815719 0.043674 0.325438 0.849482 0.089205 0.325438 0.870706 0.142235 0.325438 -0.720479 -0.0132249 0.325437 -0.771718 0.00873999 0.325437 -0.815719 0.0436737 0.325437 -0.849483 0.0892047 0.325437 -0.870707 0.142234 0.325437 0.772961 -0.337272 0.196717 0.898148 -0.321702 0.196717 1.01846 -0.274621 0.196717 1.12177 -0.199727 0.196717 1.20104 -0.10213 0.196717 1.25087 0.0115395 0.196717 -0.898149 -0.321703 0.196716 -0.77296 -0.337272 0.196716 -1.01846 -0.274622 0.196716 -1.12177 -0.199727 0.196716 -1.20104 -0.102131 0.196716 -1.25088 0.0115391 0.196716 0.772961 -0.337272 0.055122 0.898148 -0.321702 0.055122 1.01846 -0.274621 0.055122 1.12177 -0.199727 0.055122 1.20104 -0.10213 0.0551221 1.25087 0.0115395 0.0551221 -0.898149 -0.321703 0.0551218 -0.77296 -0.337272 0.0551218 -1.01846 -0.274622 0.0551218 -1.12177 -0.199727 0.0551218 -1.20104 -0.102131 0.0551218 -1.25088 0.0115391 0.0551218 0.870706 0.142235 0.124884 0.849482 0.089205 0.124884 0.815719 0.0436739 0.124884 0.771717 0.00874025 0.124884 0.720479 -0.0132246 0.124884 0.654638 -0.0221996 0.124884 0.769042 -0.280777 0.196932 0.882538 -0.266656 0.196932 0.988299 -0.225269 0.196932 1.07912 -0.159437 0.196932 1.14881 -0.0736362 0.196932 1.19262 0.0262857 0.196932 -0.882537 -0.266656 0.196931 -0.769042 -0.280777 0.196931 -0.9883 -0.22527 0.196931 -1.07912 -0.159438 0.196931 -1.14881 -0.0736366 0.196931 -1.19262 0.0262853 0.196931 -1.07438 0.371845 0.196625 -1.04487 0.371845 0.196625 -1.07438 0.360323 0.196625 -1.04487 0.360323 0.196625 -1.04487 0.371846 0.225983 -1.04487 0.360323 0.225983 -1.07438 0.536946 0.196625 -1.04487 0.536946 0.196625 -1.07438 0.525433 0.196625 -1.04487 0.525433 0.196625 -1.04487 0.536946 0.225983 -1.04487 0.525433 0.225983 1.07388 0.359335 0.196626 1.04438 0.359335 0.196626 1.07388 0.370858 0.196626 1.04438 0.370858 0.196626 1.04438 0.359335 0.225984 1.04438 0.370858 0.225984 1.07388 0.524445 0.196626 1.04438 0.524445 0.196626 1.07388 0.535958 0.196626 1.04438 0.535958 0.196626 1.04438 0.524445 0.225984 1.04438 0.535958 0.225984 0.654637 -0.0221997 -0.138866 0.720479 -0.0132247 -0.138866 0.771717 0.00874023 -0.138866 0.815719 0.0436739 -0.138866 0.849482 0.089205 -0.138866 0.870706 0.142235 -0.138866 -1.11811 0.208107 -0.325437 -0.879375 0.219339 -0.325437 -1.20756 0.142971 -0.19693 1.11811 0.208107 -0.325437 0.879375 0.219339 -0.325437 1.20755 0.142971 -0.19693 0.879375 0.219339 -0.138866 -0.879375 0.219339 0.325438 1.11811 0.208107 0.325438 0.879375 0.219339 0.325438 1.20755 0.142971 0.196932 -1.26735 0.139269 -0.196716 -1.26735 0.139269 -0.0551209 1.26735 0.139269 -0.196716 1.26735 0.139269 -0.0551209 -1.11811 0.208107 0.325438 -1.26735 0.139269 0.196717 -1.26735 0.139269 0.055122 -1.20756 0.142971 0.196932 1.26735 0.139269 0.196717 1.26735 0.139269 0.055122 0.879375 0.219339 0.124884 -0.870707 0.142234 -0.138867 -0.849483 0.0892047 -0.138867 -0.815719 0.0436736 -0.138867 -0.771718 0.00873995 -0.138867 -0.720479 -0.0132249 -0.138867 -0.654639 -0.0221999 -0.138867 -0.879375 0.219339 -0.138866 -0.879375 2.57441 -0.138866 -0.870706 2.64254 -0.138866 -0.849483 2.69557 -0.138866 -0.815718 2.7411 -0.138866 -0.771718 2.77604 -0.138866 -0.720479 2.798 -0.138866 -0.654639 2.80698 -0.138866 -0.654639 -0.0221999 0.124883 -0.720479 -0.0132249 0.124883 -0.771718 0.00873997 0.124883 -0.815719 0.0436736 0.124883 -0.849483 0.0892047 0.124883 -0.870707 0.142234 0.124883 -0.879375 0.219339 0.124884 -0.879375 2.57441 0.124884 -0.654639 2.80698 0.124884 -0.720479 2.798 0.124884 -0.771718 2.77604 0.124884 -0.815718 2.7411 0.124884 -0.849483 2.69557 0.124884 -0.870706 2.64254 0.124884</float_array>
                    <technique_common>
                        <accessor count="432" source="#Geometry-polySurface125-positions-array" stride="3">
                            <param name="X" type="float" />
                            <param name="Y" type="float" />
                            <param name="Z" type="float" />
                        </accessor>
                    </technique_common>
                </source>
                <source id="Geometry-polySurface125-normals" name="normals">
                    <float_array id="Geometry-polySurface125-normals-array" count="1515">0 -1 0 0 1 0 0 0 -1 -0.205167 0.978727 0 -0.286058 0.958212 0 -0.441762 0.897132 0 -0.516471 0.856305 0 -0.948647 0.316335 0 -0.973719 0.227751 0 -0.995741 0.0921975 0 -0.998937 0.0460987 0 0.876332 0.481708 0 0.829411 0.558639 0 0.718566 0.695459 0 0.654994 0.755634 0 -0.493602 0.565496 -0.660735 -0.541096 0.516118 -0.663956 -0.625416 0.416746 -0.65968 -0.664738 0.358666 -0.655349 0.393107 0.648524 -0.651831 0.341788 0.685577 -0.642779 0.224422 0.750824 -0.621207 0.164188 0.77799 -0.606444 0.811318 0.0366723 -0.583454 0.801171 0.0725767 -0.594018 0.762905 0.175308 -0.622289 0.734097 0.239371 -0.635456 -0.00307119 0.00187688 -0.999994 -0.00250759 0.00265431 -0.999993 -0.00307124 0.0018769 -0.999994 -0.00250765 0.00265445 -0.999993 -0.000917729 0.00362536 -0.999993 -0.000917784 0.00362548 -0.999993 -0.00163822 0.00333284 -0.999993 -0.00190782 0.00316834 -0.999993 0.00307119 0.00187688 -0.999994 0.00307127 0.00187693 -0.999994 0.00250759 0.00265431 -0.999993 0.00250765 0.00265445 -0.999993 0.705305 0 -0.708904 -0.0412098 0.999151 0 -0.0824196 0.996598 0 -0.829411 0.558639 0 -0.876332 0.481708 0 0.516471 0.856305 0 0.441762 0.897132 0 0.0824205 0.996598 0 0.0412102 0.999151 0 -0.33941 0.687018 -0.6425 -0.39476 0.64725 -0.652098 0.0673447 0.811085 -0.581038 0.0340725 0.819836 -0.571583 0.663195 0.361016 -0.655622 0.626818 0.415027 -0.659433 -0.000311271 0.00376428 -0.999993 0.000233455 0.00376971 -0.999993 -0.000155674 0.0037752 -0.999993 0.000233511 0.0037698 -0.999993 -0.00338528 0.00113064 -0.999994 -0.00346582 0.000812375 -0.999994 0.00338536 0.00113069 -0.999994 0.00346589 0.000812382 -0.999994 0.000917738 0.00362538 -0.999993 0.000917793 0.00362549 -0.999993 -0.705293 0 -0.708916 -0.654994 0.755634 0 -0.718566 0.695459 0 0.286059 0.958212 0 0.205168 0.978727 0 0.998937 0.0460987 0 0.995741 0.0921975 0 0.973719 0.227751 0 0.948647 0.316335 0 -0.162284 0.77872 -0.606019 -0.225124 0.750431 -0.621428 -0.733652 0.240138 -0.63568 -0.763734 0.173361 -0.621817 -0.801148 0.0725911 -0.594047 -0.811539 0.0358666 -0.583197 0.539202 0.518155 -0.66391 0.495759 0.563615 -0.660728 0.00355654 0.00032937 -0.999994 0.00356662 0.00016465 -0.999994 0.00163823 0.00333285 -0.999993 0.00190782 0.00316834 -0.999993 -0.705293 0 -0.708916 -0.0333099 0.820018 -0.571368 -0.0673408 0.811062 -0.581071 -0.00356162 0.000247053 -0.999994 -0.00356159 0.000247036 -0.999994 0.705305 0 -0.708904 0 0 1 0.205168 0.978727 0 0.286059 0.958212 0 0.441762 0.897132 0 0.516471 0.856305 0 0.973719 0.227751 0 0.995741 0.0921975 0 0.998937 0.0460987 0 0.4936 0.565494 0.660738 0.541094 0.516116 0.663958 0.625411 0.416749 0.659683 0.66473 0.358673 0.655353 -0.393105 0.648522 0.651834 -0.341785 0.685576 0.642782 -0.224419 0.750823 0.621209 -0.164186 0.777988 0.606447 -0.811313 0.0366803 0.58346 -0.801164 0.0725924 0.594026 -0.762898 0.175319 0.622294 -0.734096 0.239369 0.635458 -0.090228 -0.995921 0 0.045114 -0.998982 0 -0.0676879 -0.997707 1.01977e-007 -0.266955 -0.963709 0 -0.512419 -0.858735 0 -0.310189 -0.950675 0 -0.550174 -0.83505 0 0.00308489 0.00188524 0.999993 0.00251877 0.00266614 0.999993 0.00308496 0.0018853 0.999993 0.00251883 0.00266628 0.999993 0.00092183 0.00364154 0.999993 0.000921885 0.00364165 0.999993 0.00164554 0.00334771 0.999993 0.00191633 0.00318247 0.999993 -0.00308489 0.00188524 0.999993 -0.00308494 0.00188526 0.999993 -0.00251877 0.00266614 0.999993 -0.00251883 0.00266628 0.999993 0.0412102 0.999151 0 0.0824205 0.996598 0 -0.516471 0.856305 0 -0.441762 0.897132 0 -0.0824196 0.996598 0 -0.0412098 0.999151 0 0.339411 0.687015 0.642504 0.394759 0.647248 0.652101 -0.0673446 0.811083 0.581041 -0.0340724 0.819834 0.571586 -0.663199 0.361007 0.655623 -0.626818 0.415021 0.659436 0.000312661 0.00378107 0.999993 -0.000234494 0.00378652 0.999993 0.000156368 0.00379203 0.999993 -0.000234552 0.00378661 0.999993 0.00340046 0.00113573 0.999994 0.00348134 0.000816004 0.999994 -0.00340037 0.00113568 0.999994 -0.00348128 0.000815997 0.999994 -0.00092182 0.00364152 0.999993 -0.000921876 0.00364165 0.999993 -0.286059 0.958212 0 -0.205167 0.978727 0 -0.998937 0.0460987 0 -0.995741 0.0921975 0 -0.973719 0.227751 0 0.162284 0.778718 0.606022 0.225125 0.750428 0.621431 0.733649 0.240138 0.635683 0.763736 0.173349 0.621818 0.801151 0.0725751 0.594045 0.811539 0.0358588 0.583197 -0.5392 0.518153 0.663913 -0.495757 0.563613 0.660731 -0.700116 -0.71403 0 -0.748447 -0.663194 0 -0.851223 -0.524805 0 -0.893249 -0.449562 0 -0.00357239 0.000330873 0.999994 -0.00358259 0.000165425 0.999994 -0.00164553 0.0033477 0.999993 -0.00191633 0.00318247 0.999993 0.0333098 0.820015 0.571371 0.0673406 0.81106 0.581074 -0.977808 -0.209503 0 -0.956456 -0.291877 0 -0.996441 -0.0842951 0 -0.999111 -0.0421475 0 0.00357748 0.000248129 0.999994 0.00357741 0.000248077 0.999994 0.705316 0 0.708893 -0.705305 0 0.708904 0.705316 0 0.708893 -0.977808 -0.209503 0 -0.731606 -0.681728 0 -0.512419 -0.858735 0 -0.687494 -0.72619 0 -0.473647 -0.880715 0 -0.893249 -0.449562 0 -0.851223 -0.524805 0 -0.266954 -0.963709 1.02674e-007 -0.0676871 -0.997707 1.01977e-007 -0.223174 -0.974779 0 -0.0451132 -0.998982 0 2.01997e-006 -1 0 3.35984e-007 1.43182e-007 -1 1.08682e-007 9.69941e-008 -1 2.27247e-007 4.78756e-008 -1 1.15743e-007 -1.60202e-007 -1 2.6705e-007 -2.38332e-007 -1 2.87634e-007 -6.49283e-008 -1 4.88905e-007 -2.46242e-007 -1 9.76564e-008 -3.27345e-008 -1 2.03881e-007 2.87356e-009 -1 1.52911e-007 2.15517e-009 -1 1.59337e-007 5.34121e-008 -1 -0.205166 -0.978727 0 -0.441763 -0.897132 0 -0.286059 -0.958212 0 -0.516471 -0.856305 0 0.876332 -0.481708 1.82473e-008 0.718565 -0.69546 6.20458e-008 0.82941 -0.55864 4.05426e-008 0.654993 -0.755635 5.09032e-008 -0.493602 -0.565496 -0.660735 -0.625416 -0.416746 -0.65968 -0.541096 -0.516118 -0.663956 -0.664738 -0.358666 -0.655349 0.393107 -0.648523 -0.651831 0.224422 -0.750824 -0.621207 0.341789 -0.685577 -0.642779 0.164188 -0.77799 -0.606444 -0.00307113 -0.00187698 -0.999994 -0.00307109 -0.0018769 -0.999994 -0.00250749 -0.00265439 -0.999993 -0.00250756 -0.00265455 -0.999993 -0.000917498 -0.00362541 -0.999993 -0.00163801 -0.00333295 -0.999993 -0.000917547 -0.00362555 -0.999993 -0.00190761 -0.0031685 -0.999993 0.00307131 -0.00187666 -0.999994 0.00250776 -0.00265413 -0.999993 0.00307148 -0.00187682 -0.999994 0.00250783 -0.00265425 -0.999993 2.19936e-007 2.10675e-007 -1 3.42944e-007 2.40269e-007 -1 -1.55335e-007 2.14365e-006 -1 -1.50025e-007 2.60977e-006 -1 1.85051e-007 -4.45186e-008 -1 -0.0412091 -0.999151 0 -0.0824183 -0.996598 0 -0.82941 -0.55864 1.82473e-008 -0.949702 -0.313154 2.70203e-008 -0.876331 -0.481709 3.3334e-008 -0.975244 -0.221131 1.99137e-008 0.516471 -0.856304 2.86063e-008 0.441763 -0.897132 6.58057e-008 0.0824196 -0.996598 6.97406e-008 0.0412098 -0.999151 0 -0.33941 -0.687019 -0.6425 -0.39476 -0.64725 -0.652098 0.0673446 -0.811086 -0.581038 0.0340722 -0.819836 -0.571583 0.76532 -0.169739 -0.620866 0.663195 -0.361016 -0.655621 0.735451 -0.236684 -0.634896 0.626818 -0.415027 -0.659433 -0.000311015 -0.00376432 -0.999993 -0.000155407 -0.00377521 -0.999993 0.000233712 -0.00376969 -0.999993 0.000233778 -0.00376979 -0.999993 -0.00338826 -0.00111736 -0.999994 -0.00346975 -0.000784244 -0.999994 0.00338863 -0.00111919 -0.999994 0.0034699 -0.000787959 -0.999994 0.000917962 -0.0036253 -0.999993 0.000918027 -0.00362541 -0.999993 -0.705293 0 -0.708916 3.63938e-007 4.96074e-008 -1 2.26134e-007 8.04317e-008 -1 4.57259e-007 3.20358e-007 -1 3.10635e-007 1.79908e-007 -1 -0.654993 -0.755635 0 -0.718565 -0.695459 1.11426e-008 0.286059 -0.958212 1.35892e-007 0.205168 -0.978727 1.35892e-007 -0.162283 -0.778721 -0.606018 -0.225124 -0.750432 -0.621427 0.539201 -0.518155 -0.66391 0.495759 -0.563615 -0.660728 0.00163845 -0.00333274 -0.999993 0.00190803 -0.00316819 -0.999993 1.73967e-007 -4.2675e-007 -1 8.2827e-008 -6.49204e-007 -1 0.975243 -0.221136 0 0.949702 -0.313156 7.10661e-009 -0.0333096 -0.820017 -0.571368 -0.0673402 -0.811062 -0.581071 -0.735039 -0.237389 -0.635109 -0.766141 -0.167783 -0.620384 0.705305 1.83508e-006 -0.708904 0.705305 9.17542e-007 -0.708904 0.705305 0 -0.708904 -2.24008e-007 -1.34418e-007 1 -2.548e-007 -3.85346e-008 1 -2.25625e-007 -1.3124e-007 1 -1.9706e-007 -1.91886e-007 1 -2.09558e-007 -1.11948e-007 1 -2.45908e-007 -1.67852e-007 1 -3.27199e-007 -2.46543e-007 1 -3.98959e-007 -3.55068e-007 1 -3.29982e-007 -1.3209e-007 1 -3.40582e-007 -1.06014e-007 1 -3.32427e-007 -5.18664e-008 1 -3.75726e-007 -4.79827e-008 1 0.205168 -0.978727 -8.63657e-008 0.441762 -0.897132 -5.1504e-008 0.286059 -0.958212 -6.89277e-008 0.516471 -0.856305 0 -0.876331 -0.481709 0 -0.718566 -0.695459 0 -0.829411 -0.558639 0 -0.654993 -0.755635 0 0.4936 -0.565495 0.660738 0.62541 -0.416749 0.659683 0.541094 -0.516117 0.663958 0.66473 -0.358673 0.655353 -0.393105 -0.648522 0.651834 -0.224419 -0.750823 0.621209 -0.341785 -0.685576 0.642782 -0.164186 -0.777988 0.606447 -0.0902278 0.995921 -4.87181e-008 -0.0676878 0.997707 3.89525e-008 0.0451136 0.998982 -8.76321e-008 -0.266953 0.963709 -4.74237e-009 -0.310187 0.950675 1.14008e-008 -0.512419 0.858736 6.01807e-008 -0.550174 0.83505 8.81882e-008 0.00308458 -0.00188527 0.999993 0.00308469 -0.00188538 0.999993 0.00251842 -0.00266614 0.999993 0.00251846 -0.00266629 0.999993 0.000921545 -0.00364161 0.999993 0.0016452 -0.00334767 0.999993 0.000921597 -0.00364167 0.999993 0.00191599 -0.0031824 0.999993 -0.00308513 -0.00188532 0.999993 -0.00251909 -0.00266627 0.999993 -0.00308519 -0.00188534 0.999993 -0.00251915 -0.00266632 0.999993 -2.07154e-007 1.98432e-007 1 -2.79557e-007 7.52991e-008 1 -2.19982e-007 1.83837e-007 1 -1.39935e-007 1.03903e-007 1 -1.80563e-007 -7.32479e-008 1 -2.32326e-007 -9.93545e-008 1 0.0412099 -0.999151 -1.73474e-008 0.0824196 -0.996598 -3.46947e-008 0.829411 -0.558639 -4.7869e-007 0.949702 -0.313156 -2.59351e-007 0.876332 -0.481708 -4.7869e-007 0.975243 -0.221136 0 -0.516471 -0.856305 0 -0.441763 -0.897132 1.03008e-007 -0.0824183 -0.996598 5.20414e-008 -0.0412091 -0.999151 1.73471e-008 0.339411 -0.687015 0.642503 0.39476 -0.647248 0.652101 -0.0673442 -0.811083 0.581041 -0.034072 -0.819834 0.571586 -0.765315 -0.169746 0.62087 -0.663199 -0.361006 0.655623 -0.73545 -0.23668 0.634898 -0.626818 -0.415021 0.659436 0.000312406 -0.0037811 0.999993 0.000156105 -0.00379213 0.999993 -0.000234764 -0.00378669 0.999993 -0.000234829 -0.00378686 0.999993 0.00340337 -0.0011238 0.999994 0.00348517 -0.000790593 0.999994 -0.00340323 -0.00112539 0.999994 -0.00348476 -0.000793998 0.999994 -0.000922107 -0.0036417 0.999993 -0.000922169 -0.0036419 0.999993 -2.85547e-007 -7.44131e-008 1 -2.42108e-007 -1.25365e-007 1 -2.70849e-007 3.78501e-008 1 -4.22696e-007 3.07738e-008 1 0.654993 -0.755635 0 0.718566 -0.695459 -2.19495e-007 -0.286059 -0.958212 1.37855e-007 -0.205166 -0.978727 1.55293e-007 0.162284 -0.778718 0.606021 0.225125 -0.750428 0.621431 -0.539199 -0.518153 0.663914 -0.495757 -0.563613 0.660731 -0.700116 0.714029 1.27987e-007 -0.748448 0.663194 1.73163e-007 -0.851223 0.524805 1.85529e-007 -0.893249 0.449562 2.32071e-007 -0.00164587 -0.00334802 0.999993 -0.00191667 -0.00318274 0.999993 9.48085e-008 -1.83022e-006 1 2.82426e-007 -4.10327e-006 1 -0.975244 -0.221133 0 -0.949702 -0.313155 0 0.0333098 -0.820015 0.571371 0.0673402 -0.81106 0.581074 0.735035 -0.237393 0.635113 0.766141 -0.167778 0.620386 -0.979808 0.199943 1.79891e-007 -0.957854 0.287256 2.31783e-007 5.12636e-013 1 -1.01514e-006 -5.12636e-013 -1 1.01514e-006 -0.705305 0 0.708904 -0.705303 0 0.708906 0.705317 0 0.708892 -0.731607 0.681727 1.38612e-007 -0.687495 0.726189 1.51077e-007 -0.512419 0.858736 7.14184e-008 -0.473646 0.880715 7.81213e-008 -0.893249 0.449562 2.12965e-007 -0.851223 0.524805 2.26035e-007 -0.266953 0.96371 9.96204e-008 -0.223173 0.974779 -6.55605e-009 -0.067687 0.997707 3.58413e-008 -0.0451132 0.998982 -6.53748e-008 -0.979807 0.199943 1.65081e-007 -0.957854 0.287257 2.83067e-007 -0.807844 -0.0502142 -0.587253 -0.80777 -0.0496179 -0.587406 2.86487e-009 -4.63187e-007 -1 -1.80895e-008 -3.84488e-007 -1 0.807449 -0.0507426 -0.587752 0.807859 -0.0502087 -0.587233 -3.15777e-007 3.63989e-006 -1 -9.64768e-008 2.05059e-006 -1 -0.00356759 -0.000149908 -0.999994 0.807844 -0.0502066 0.587254 0.80777 -0.0496105 0.587406 -4.94765e-008 1.85822e-007 1 0.00358335 -0.000151904 0.999994 -0.998433 0.0559517 0 -0.998433 0.0559519 7.72586e-008 0.00356451 -0.000228661 -0.999994 -0.997943 -0.0641051 3.58395e-009 -0.997943 -0.0641051 0 0.997943 -0.0641094 0 2.71075e-007 -3.05374e-006 1 -0.807443 -0.0507524 0.587758 -0.807854 -0.0502183 0.587239 -0.00358006 -0.000231632 0.999994 -0.00357854 -0.000230627 0.999994 0.997943 -0.064109 0 -0.998433 0.0559514 6.32615e-008 -0.997943 -0.0641065 0 -0.997943 -0.0641065 0 -0.00356062 -0.000301344 -0.999994 0.00357626 -0.00030534 0.999994 0.00356272 -0.000227479 -0.999994 1.62805e-007 -3.46038e-006 1 -0.998434 0.055951 0 0.0773544 -0.997004 0 0.956456 -0.291877 0 0.996441 -0.0842951 0 0.968009 -0.250917 0 0.997999 -0.0632354 0 0.736706 -0.676213 0 0.550182 -0.835045 0 0.687497 -0.726187 0 0.473651 -0.880713 0 0.873042 -0.487644 0 0.851216 -0.524815 0 0.310189 -0.950675 0 0.223176 -0.974778 0 0.0541457 -0.998533 0 0.090228 -0.995921 0 0.473651 -0.880713 0 0.310189 -0.950675 0 0.550182 -0.835045 0 0.705463 -0.708747 0 0.748443 -0.6632 0 0.873042 -0.487644 0 0.893246 -0.449567 0 0.977808 -0.209503 0 0.968009 -0.250917 0 0.999111 -0.0421475 0 0.0773539 0.997004 -1.08822e-007 0.736707 0.676212 -2.43778e-007 0.687498 0.726187 -2.64388e-007 0.550182 0.835045 -2.10224e-007 0.47365 0.880713 -2.20919e-007 0.873042 0.487644 -3.16242e-007 0.851216 0.524815 -2.91975e-007 0.310187 0.950676 -1.81406e-007 0.223175 0.974778 -1.41734e-007 0.969815 0.243843 -3.22779e-007 0.957854 0.287254 -4.97975e-007 0.0541452 0.998533 -9.9283e-008 0.0902274 0.995921 -1.0176e-007 0.223175 0.974778 -1.57088e-007 0.310187 0.950675 -1.62211e-007 0.47365 0.880713 -2.11059e-007 0.550182 0.835045 -2.47717e-007 0.705464 0.708746 -2.45121e-007 0.748443 0.663199 -3.09314e-007 0.873042 0.487644 -2.92014e-007 0.893246 0.449568 -3.34246e-007 0.979809 0.199937 -2.19315e-007 0.969815 0.243843 -2.49379e-007 0.998434 0.0559477 -1.4998e-007 0.998434 0.0559468 -5.44849e-008 0.998434 0.0559465 0 0.998434 0.0559472 -3.9595e-008</float_array>
                    <technique_common>
                        <accessor count="505" source="#Geometry-polySurface125-normals-array" stride="3">
                            <param name="X" type="float" />
                            <param name="Y" type="float" />
                            <param name="Z" type="float" />
                        </accessor>
                    </technique_common>
                </source>
                <source id="Geometry-polySurface125-polySurfaceShape125-Geometry-frame-Texture" name="polySurfaceShape125-Geometry-frame-Texture">
                    <float_array id="Geometry-polySurface125-polySurfaceShape125-Geometry-frame-Texture-array" count="450">0.18934 0.947384 0.170849 0.947384 0.170849 0.952007 0.189443 0.947384 0.170849 0.952018 0.06634 0.961265 0.137949 0.950848 0.096421 0.970981 0.154805 0.956281 0.872292 0.961162 0.842219 0.970874 0.80067 0.950742 0.783814 0.956178 0.70906 0.984574 0.229656 0.984656 0.703666 0.964036 0.234947 0.964118 0.881931 0.505322 0.913636 0.505322 0.881931 0.493587 0.913636 0.493587 0.881931 0.458361 0.913636 0.458361 0.881931 0.447074 0.913636 0.447074 0.881931 0.470469 0.913636 0.470469 0.881931 0.482354 0.913636 0.482354 0.370804 0.480584 0.313052 0.480584 0.370804 0.469516 0.313052 0.469516 0.388309 0.491717 0.446118 0.491717 0.388309 0.502752 0.446118 0.502752 0.388309 0.447558 0.446118 0.447558 0.388309 0.458602 0.446118 0.458602 0.789249 0.470469 0.789249 0.482354 0.812741 0.470469 0.812741 0.482354 0.789249 0.505322 0.812741 0.505322 0.789249 0.493587 0.812741 0.493587 0.835241 0.470469 0.858501 0.470469 0.835241 0.482354 0.858501 0.482354 0.190111 0.946739 0.190111 0.945478 0.171204 0.946739 0.171204 0.945478 0.135511 0.978421 0.176733 0.960445 0.891279 0.94983 0.811318 0.944407 0.757743 0.982987 0.736398 0.962964 0.881931 0.517587 0.913636 0.517587 0.189837 0.634406 0.223422 0.634406 0.189837 0.790843 0.223422 0.790843 0.370804 0.491656 0.313052 0.491656 0.388309 0.513786 0.446118 0.513786 0.388309 0.469643 0.446118 0.469643 0.144564 0.83201 0.139847 0.651825 0.172431 0.831508 0.167738 0.652235 0.789249 0.458361 0.812741 0.458361 0.835241 0.458361 0.858501 0.458361 0.835241 0.505322 0.858501 0.505322 0.835241 0.517587 0.858501 0.517587 0.047353 0.949929 0.040778 0.937746 0.127314 0.94451 0.122921 0.93636 0.897871 0.937652 0.815728 0.936257 0.803157 0.978316 0.761881 0.960344 0.180954 0.983082 0.20222 0.963058 0.370804 0.502728 0.313052 0.502728 0.370804 0.458453 0.313052 0.458453 0.370804 0.447396 0.313052 0.447396 0.388309 0.480681 0.446118 0.480681 0.835241 0.447074 0.858501 0.447074 0.835241 0.493587 0.858501 0.493587 0.370804 0.513801 0.313052 0.513872 0.722825 0.819473 0.771811 0.819473 0.722825 0.917444 0.771811 0.917444 0.789249 0.447074 0.812741 0.447074 0.789249 0.517587 0.812741 0.517587 0.723475 0.570838 0.026891 0.570838 0.723475 0.533866 0.47511 0.505767 0.47511 0.499194 0.608019 0.505767 0.608019 0.499194 0.47511 0.513715 0.608019 0.513715 0.47511 0.492621 0.608019 0.492621 0.47511 0.486047 0.608019 0.486047 0.608019 0.479474 0.47511 0.479474 0.47511 0.471603 0.608019 0.471603 0.607629 0.479474 0.607629 0.471603 0.475191 0.479474 0.475191 0.471603 0.475191 0.492621 0.475191 0.499194 0.607629 0.492621 0.607629 0.499194 0.475191 0.486047 0.607629 0.486047 0.475191 0.505767 0.475191 0.513715 0.607629 0.505767 0.607629 0.513715 0.142032 0.486616 0.015644 0.486616 0.142032 0.480006 0.015644 0.480006 0.142032 0.47209 0.015644 0.47209 0.142032 0.493226 0.015644 0.493226 0.015644 0.514355 0.015644 0.506443 0.142032 0.514355 0.142032 0.506443 0.015644 0.499835 0.142032 0.499835 0.370804 0.191113 0.313052 0.191113 0.038775 0.653099 0.120933 0.654424 0.388309 0.191353 0.446118 0.191353 0.900489 0.653089 0.818317 0.654402 0.812741 0.188462 0.475191 0.201886 0.607629 0.201886 0.835241 0.188462 0.881931 0.188462 0.913636 0.188462 0.858501 0.188462 0.47511 0.201886 0.142032 0.200801 0.789249 0.188462 0.608019 0.201886 0.015644 0.200801 0.026891 0.533866 0.628494 0.479474 0.628494 0.471603 0.760932 0.479474 0.760932 0.471603 0.760932 0.492621 0.760932 0.499194 0.628494 0.492621 0.628494 0.499194 0.760932 0.486047 0.628494 0.486047 0.760932 0.505767 0.760932 0.513715 0.628494 0.505767 0.628494 0.513715 0.026891 0.061866 0.723475 0.061866 0.026891 0.098838 0.723475 0.098838 0.761278 0.505767 0.761278 0.499194 0.62837 0.505767 0.62837 0.499194 0.761278 0.513715 0.62837 0.513715 0.761278 0.492621 0.62837 0.492621 0.761278 0.486047 0.62837 0.486047 0.62837 0.479474 0.761278 0.479474 0.761278 0.471603 0.62837 0.471603 0.026891 0.576914 0.723475 0.576914 0.026891 0.612089 0.723475 0.612089 0.628494 0.201886 0.761278 0.201886 0.62837 0.201886 0.760932 0.201886</float_array>
                    <technique_common>
                        <accessor count="225" source="#Geometry-polySurface125-polySurfaceShape125-Geometry-frame-Texture-array" stride="2">
                            <param name="S" type="float" />
                            <param name="T" type="float" />
                        </accessor>
                    </technique_common>
                </source>
                <vertices id="Geometry-polySurface125-vertices">
                    <input semantic="POSITION" source="#Geometry-polySurface125-positions" />
                </vertices>
                <polylist count="680" material="Material-frame_1">
                    <input semantic="VERTEX" source="#Geometry-polySurface125-vertices" offset="0" />
                    <input semantic="NORMAL" source="#Geometry-polySurface125-normals" offset="1" />
                    <input semantic="TEXCOORD" source="#Geometry-polySurface125-polySurfaceShape125-Geometry-frame-Texture" offset="2" set="0" />
                    <vcount>3 3 3 3 3 3 3 3 3 3 3 3 3 3 3 3 3 3 3 3 3 3 3 3 3 3 3 3 3 3 3 3 3 3 3 3 3 3 3 3 3 3 3 3 3 3 3 3 3 3 3 3 3 3 3 3 3 3 3 3 3 3 3 3 3 3 3 3 3 3 3 3 3 3 3 3 3 3 3 3 3 3 3 3 3 3 3 3 3 3 3 3 3 3 3 3 3 3 3 3 3 3 3 3 3 3 3 3 3 3 3 3 3 3 3 3 3 3 3 3 3 3 3 3 3 3 3 3 3 3 3 3 3 3 3 3 3 3 3 3 3 3 3 3 3 3 3 3 3 3 3 3 3 3 3 3 3 3 3 3 3 3 3 3 3 3 3 3 3 3 3 3 3 3 3 3 3 3 3 3 3 3 3 3 3 3 3 3 3 3 3 3 3 3 3 3 3 3 3 3 3 3 3 3 3 3 3 3 3 3 3 3 3 3 3 3 3 3 3 3 3 3 3 3 3 3 3 3 3 3 3 3 3 3 3 3 3 3 3 3 3 3 3 3 3 3 3 3 3 3 3 3 3 3 3 3 3 3 3 3 3 3 3 3 3 3 3 3 3 3 3 3 3 3 3 3 3 3 3 3 3 3 3 3 3 3 3 3 3 3 3 3 3 3 3 3 3 3 3 3 3 3 3 3 3 3 3 3 3 3 3 3 3 3 3 3 3 3 3 3 3 3 3 3 3 3 3 3 3 3 3 3 3 3 3 3 3 3 3 3 3 3 3 3 3 3 3 3 3 3 3 3 3 3 3 3 3 3 3 3 3 3 3 3 3 3 3 3 3 3 3 3 3 3 3 3 3 3 3 3 3 3 3 3 3 3 3 3 3 3 3 3 3 3 3 3 3 3 3 3 3 3 3 3 3 3 3 3 3 3 3 3 3 3 3 3 3 3 3 3 3 3 3 3 3 3 3 3 3 3 3 3 3 3 3 3 3 3 3 3 3 3 3 3 3 3 3 3 3 3 3 3 3 3 3 3 3 3 3 3 3 3 3 3 3 3 3 3 3 3 3 3 3 3 3 3 3 3 3 3 3 3 3 3 3 3 3 3 3 3 3 3 3 3 3 3 3 3 3 3 3 3 3 3 3 3 3 3 3 3 3 3 3 3 3 3 3 3 3 3 3 3 3 3 3 3 3 3 3 3 3 3 3 3 3 3 3 3 3 3 3 3 3 3 3 3 3 3 3 3 3 3 3 3 3 3 3 3 3 3 3 3 3 3 3 3 3 3 3 3 3 3 3 3 3 3 3 3 3 3 3 3 3 3 3 3 3 3 3 3 3 3 3 3 3 3 3 3 3 3 3 3 3 3 3 3 3 3 3 3 3 3 3 3 3 3 3 3 3 3 3 3 3 3 3 3 3 3 3 3 3 3 3 3 3 3 3 3 3 3 3 3 3 3 3 3 3 3 3 3 3 3 3 3 3 3 3 3 3 3 3 3 3 3 3 3 3 3 3 3 3 3 3 3 3 3 3 3 3 3</vcount>
                    <p>74 0 0 71 0 1 70 0 2 73 1 1 75 1 0 72 1 2 80 0 0 77 0 1 76 0 2 79 1 1 81 1 0 78 1 2 86 1 3 83 1 1 82 1 4 85 0 1 87 0 3 84 0 4 12 2 5 26 2 6 11 2 7 25 2 8 11 2 7 26 2 6 7 2 9 6 2 10 21 2 11 20 2 12 21 2 11 6 2 10 1 2 13 2 2 14 15 2 15 16 2 16 15 2 15 2 2 14 43 3 17 29 4 18 44 5 19 30 6 20 44 5 19 29 4 18 47 7 21 33 8 22 48 9 23 34 10 24 48 9 23 33 8 22 53 11 25 39 12 26 52 13 27 38 14 28 52 13 27 39 12 26 59 15 29 6 16 30 60 17 31 7 18 32 60 17 31 6 16 30 65 19 33 10 20 34 63 21 35 9 22 36 63 21 35 10 20 34 69 23 37 3 24 38 68 25 39 13 26 40 68 25 39 3 24 38 32 27 41 31 28 42 60 29 43 59 30 44 60 29 43 31 28 42 29 31 45 57 32 46 30 33 47 58 34 48 30 33 47 57 32 46 39 35 49 67 36 50 38 37 51 66 38 52 38 37 51 67 36 50 87 39 53 86 39 54 84 39 55 82 39 56 84 39 55 86 39 54 10 2 57 11 2 7 24 2 58 25 2 8 24 2 58 11 2 7 8 2 59 7 2 9 22 2 60 21 2 11 22 2 60 7 2 9 4 2 61 1 2 13 18 2 62 15 2 15 18 2 62 1 2 13 42 40 63 28 41 64 43 3 17 29 4 18 43 3 17 28 41 64 46 42 25 32 43 26 47 7 21 33 8 22 47 7 21 32 43 26 52 13 27 38 14 28 51 44 19 37 45 20 51 44 19 38 14 28 50 46 65 36 47 66 42 40 67 28 41 68 42 40 67 36 47 66 58 48 69 5 49 70 59 15 29 6 16 30 59 15 29 5 49 70 63 21 35 9 22 36 64 50 71 2 51 72 64 50 71 9 22 36 68 25 39 13 26 40 67 52 73 12 53 74 67 52 73 13 26 40 28 54 75 36 55 76 56 56 77 64 57 78 56 56 77 36 55 76 32 27 41 60 29 43 33 58 79 61 59 80 33 58 79 60 29 43 39 35 49 40 60 81 67 36 50 68 61 82 67 36 50 40 60 81 35 62 83 63 63 84 36 55 85 64 57 86 36 55 85 63 63 84 75 64 53 74 64 54 72 64 55 70 64 56 72 64 55 74 64 54 13 2 87 3 2 88 27 2 89 17 2 90 27 2 89 3 2 88 8 2 59 22 2 60 0 2 91 14 2 92 0 2 91 22 2 60 5 2 93 4 2 61 19 2 94 18 2 62 19 2 94 4 2 61 10 2 57 24 2 58 9 2 95 23 2 96 9 2 95 24 2 58 45 65 27 31 66 28 46 42 25 32 43 26 46 42 25 31 66 28 51 44 19 37 45 20 49 67 17 35 68 18 49 67 17 37 45 20 55 69 23 41 70 24 54 71 21 40 72 22 54 71 21 41 70 24 57 73 97 4 74 98 58 48 69 5 49 70 58 48 69 4 74 98 61 75 99 8 76 100 62 77 101 0 78 102 62 77 101 8 76 100 67 52 73 12 53 74 66 79 103 11 80 104 66 79 103 12 53 74 30 33 47 58 34 48 31 28 42 59 30 44 31 28 42 58 34 48 40 60 81 41 81 105 68 61 82 69 82 106 68 61 82 41 81 105 35 62 83 37 83 107 63 63 84 65 84 108 63 63 84 37 83 107 81 85 53 80 85 54 78 85 55 76 85 56 78 85 55 80 85 54 12 2 5 13 2 87 26 2 6 27 2 89 26 2 6 13 2 87 5 2 93 19 2 94 6 2 10 20 2 12 6 2 10 19 2 94 9 2 95 23 2 96 2 2 14 16 2 16 2 2 14 23 2 96 44 5 19 30 6 20 45 65 27 31 66 28 45 65 27 30 6 20 49 67 17 35 68 18 50 46 63 36 47 64 50 46 63 35 68 18 54 71 21 40 72 22 53 11 25 39 12 26 53 11 25 40 72 22 56 86 109 1 87 110 57 73 97 4 74 98 57 73 97 1 87 110 60 17 31 7 18 32 61 75 99 8 76 100 61 75 99 7 18 32 66 79 103 11 80 104 65 19 33 10 20 34 65 19 33 11 80 104 64 50 111 2 51 112 56 86 113 1 87 114 56 86 113 2 51 112 33 58 79 61 59 80 34 88 115 62 89 116 34 88 115 61 59 80 29 31 45 28 54 117 57 32 46 56 56 118 57 32 46 28 54 117 37 83 107 38 37 51 65 84 108 66 38 52 65 84 108 38 37 51 92 1 3 89 1 1 88 1 4 91 0 1 93 0 3 90 0 4 93 90 53 92 90 54 90 90 55 88 90 56 90 90 55 92 90 54 106 91 5 120 91 6 105 91 7 119 91 8 105 91 7 120 91 6 101 91 9 100 91 10 115 91 11 114 91 12 115 91 11 100 91 10 95 91 13 96 91 14 109 91 15 110 91 16 109 91 15 96 91 14 137 92 17 123 93 18 138 94 19 124 95 20 138 94 19 123 93 18 141 72 21 127 96 22 142 97 23 128 98 24 142 97 23 127 96 22 147 43 25 133 42 26 146 66 27 132 65 28 146 66 27 133 42 26 160 99 29 100 100 30 161 101 31 101 102 32 161 101 31 100 100 30 166 103 33 104 104 34 164 105 35 103 106 36 164 105 35 104 104 34 170 107 37 97 108 38 169 109 39 107 110 40 169 109 39 97 108 38 109 111 119 110 112 120 156 113 121 155 114 122 154 115 123 112 116 124 113 117 125 112 116 124 154 115 123 156 113 126 155 114 122 109 111 127 112 116 124 109 111 127 155 114 122 126 118 41 125 119 42 161 120 43 160 121 44 161 120 43 125 119 42 123 122 45 158 123 46 124 124 47 159 125 48 124 124 47 158 123 46 133 126 49 168 127 50 132 128 51 167 129 52 132 128 51 168 127 50 104 91 57 105 91 7 118 91 58 119 91 8 118 91 58 105 91 7 102 91 59 101 91 9 116 91 60 115 91 11 116 91 60 101 91 9 98 91 61 95 91 13 112 91 62 109 91 15 112 91 62 95 91 13 136 130 63 122 131 64 137 92 17 123 93 18 137 92 17 122 131 64 140 12 25 126 11 26 141 72 21 127 96 22 141 72 21 126 11 26 146 66 27 132 65 28 145 132 19 131 133 20 145 132 19 132 65 28 144 134 65 130 135 66 136 130 67 122 131 68 136 130 67 130 135 66 159 136 69 99 137 70 160 99 29 100 100 30 160 99 29 99 137 70 164 105 35 103 106 36 165 138 71 96 139 72 165 138 71 103 106 36 169 109 39 107 110 40 168 140 73 106 141 74 168 140 73 107 110 40 122 142 75 130 143 76 157 144 77 165 145 78 157 144 77 130 143 76 126 118 41 161 120 43 127 146 79 162 147 80 127 146 79 161 120 43 133 126 49 134 148 81 168 127 50 169 149 82 168 127 50 134 148 81 129 150 83 164 151 84 130 143 85 165 145 86 130 143 85 164 151 84 107 91 87 97 91 88 121 91 89 111 91 90 121 91 89 97 91 88 102 91 59 116 91 60 94 91 91 108 91 92 94 91 91 116 91 60 99 91 93 98 91 61 113 91 94 112 91 62 113 91 94 98 91 61 104 91 57 118 91 58 103 91 95 117 91 96 103 91 95 118 91 58 139 14 27 125 13 28 140 12 25 126 11 26 140 12 25 125 13 28 145 132 19 131 133 20 143 152 17 129 153 18 143 152 17 131 133 20 149 154 23 135 155 24 148 156 21 134 7 22 148 156 21 135 155 24 158 157 97 98 158 98 159 136 69 99 137 70 159 136 69 98 158 98 162 159 99 102 160 100 163 161 101 94 162 102 163 161 101 102 160 100 168 140 73 106 141 74 167 163 103 105 164 104 167 163 103 106 141 74 154 115 123 153 165 128 113 117 125 114 166 129 113 117 125 153 165 128 153 165 128 152 167 130 114 166 129 115 168 131 114 166 129 152 167 130 124 124 47 159 125 48 125 119 42 160 121 44 125 119 42 159 125 48 134 148 81 135 169 105 169 149 82 170 170 106 169 149 82 135 169 105 129 150 83 131 171 107 164 151 84 166 172 108 164 151 84 131 171 107 106 91 5 107 91 87 120 91 6 121 91 89 120 91 6 107 91 87 99 91 93 113 91 94 100 91 10 114 91 12 100 91 10 113 91 94 103 91 95 117 91 96 96 91 14 110 91 16 96 91 14 117 91 96 138 94 19 124 95 20 139 14 27 125 13 28 139 14 27 124 95 20 143 152 17 129 153 18 144 134 63 130 135 64 144 134 63 129 153 18 148 156 21 134 7 22 147 43 25 133 42 26 147 43 25 134 7 22 157 173 109 95 174 110 158 157 97 98 158 98 158 157 97 95 174 110 161 101 31 101 102 32 162 159 99 102 160 100 162 159 99 101 102 32 167 163 103 105 164 104 166 103 33 104 104 34 166 103 33 105 164 104 165 138 111 96 139 112 157 173 113 95 174 114 157 173 113 96 139 112 116 175 132 115 168 131 151 176 133 152 167 130 151 176 133 115 168 131 151 176 133 150 177 134 116 175 132 108 178 135 116 175 132 150 177 134 127 146 79 162 147 80 128 179 115 163 180 116 128 179 115 162 147 80 123 122 45 122 142 117 158 123 46 157 144 118 158 123 46 122 142 117 131 171 107 132 128 51 166 172 108 167 129 52 166 172 108 132 128 51 175 0 0 171 0 2 172 0 1 174 1 1 173 1 2 176 1 0 181 0 0 177 0 2 178 0 1 180 1 1 179 1 2 182 1 0 187 1 3 183 1 4 184 1 1 186 0 1 185 0 4 188 0 3 188 181 53 185 181 55 187 181 54 183 181 56 187 181 54 185 181 55 176 182 53 173 182 55 175 182 54 171 182 56 175 182 54 173 182 55 182 182 53 179 182 55 181 182 54 177 182 56 181 182 54 179 182 55 193 1 3 189 1 4 190 1 1 192 0 1 191 0 4 194 0 3 194 183 53 191 183 55 193 183 54 189 183 56 193 183 54 191 183 55 27 176 136 17 177 137 201 184 138 195 178 139 201 184 138 17 177 137 199 185 140 198 186 141 25 187 142 24 188 143 25 187 142 198 186 141 200 189 144 199 185 140 26 190 145 25 187 142 26 190 145 199 185 140 197 191 146 196 192 147 23 193 148 16 194 149 23 193 148 196 192 147 201 184 138 200 189 144 27 176 136 26 190 145 27 176 136 200 189 144 198 186 141 197 191 146 24 188 143 23 193 148 24 188 143 197 191 146 152 167 150 200 189 151 151 176 152 201 184 153 151 176 152 200 189 151 151 176 152 201 184 153 150 177 154 195 178 155 150 177 154 201 184 153 153 165 156 199 185 157 152 167 150 200 189 151 152 167 150 199 185 157 196 192 158 197 191 159 156 113 160 155 114 161 156 113 160 197 191 159 197 191 159 198 186 162 155 114 161 154 115 163 155 114 161 198 186 162 198 186 162 199 185 157 154 115 163 153 165 156 154 115 163 199 185 157 266 1 0 262 1 2 263 1 1 265 0 1 264 0 2 267 0 0 272 1 0 268 1 2 269 1 1 271 195 1 270 195 2 273 195 0 278 0 3 274 0 4 275 0 1 277 1 1 276 1 4 279 1 3 212 196 5 211 197 7 224 198 6 223 2 8 224 198 6 211 197 7 207 199 9 219 200 11 206 201 10 218 202 12 206 201 10 219 200 11 202 203 13 214 204 15 203 205 14 215 206 16 203 205 14 214 204 15 239 207 17 240 208 19 227 209 18 228 210 20 227 209 18 240 208 19 248 211 25 247 212 27 236 213 26 235 214 28 236 213 26 247 212 27 253 215 29 254 216 31 206 217 30 207 218 32 206 217 30 254 216 31 258 219 33 256 220 35 210 221 34 209 222 36 210 221 34 256 220 35 230 223 41 254 224 43 229 225 42 253 226 44 229 225 42 254 224 43 227 227 45 228 228 47 251 229 46 252 230 48 251 229 46 228 228 47 236 231 49 235 232 51 260 233 50 259 234 52 260 233 50 235 232 51 279 39 53 276 39 55 278 39 54 274 39 56 278 39 54 276 39 55 210 235 57 222 236 58 211 197 7 223 2 8 211 197 7 222 236 58 208 237 59 220 238 60 207 199 9 219 200 11 207 199 9 220 238 60 204 239 61 216 2 62 202 203 13 214 204 15 202 203 13 216 2 62 238 240 63 239 207 17 226 241 64 227 209 18 226 241 64 239 207 17 242 242 25 243 243 21 230 244 26 231 245 22 230 244 26 243 243 21 247 212 27 246 246 19 235 214 28 234 247 20 235 214 28 246 246 19 245 248 65 238 240 67 233 249 66 226 241 68 233 249 66 238 240 67 252 250 69 253 215 29 205 251 70 206 217 30 205 251 70 253 215 29 256 220 35 257 252 71 209 222 36 203 253 72 209 222 36 257 252 71 261 254 39 260 255 73 213 256 40 212 257 74 213 256 40 260 255 73 226 258 75 250 259 77 233 260 76 257 261 78 233 260 76 250 259 77 230 223 41 231 262 79 254 224 43 255 263 80 254 224 43 231 262 79 236 231 49 260 233 50 237 264 81 261 265 82 237 264 81 260 233 50 232 266 83 233 260 85 256 267 84 257 261 86 256 267 84 233 260 85 267 268 53 264 268 55 266 268 54 262 268 56 266 268 54 264 268 55 205 269 93 217 270 94 204 239 61 216 2 62 204 239 61 217 270 94 210 235 57 209 271 95 222 236 58 221 272 96 222 236 58 209 271 95 241 273 27 242 242 25 229 274 28 230 244 26 229 274 28 242 242 25 246 246 19 244 275 17 234 247 20 232 276 18 234 247 20 244 275 17 251 277 97 252 250 69 204 278 98 205 251 70 204 278 98 252 250 69 260 255 73 259 279 103 212 257 74 211 280 104 212 257 74 259 279 103 228 228 47 229 225 42 252 230 48 253 226 44 252 230 48 229 225 42 232 266 83 256 267 84 234 281 107 258 282 108 234 281 107 256 267 84 273 85 53 270 85 55 272 85 54 268 85 56 272 85 54 270 85 55 212 196 5 224 198 6 213 283 87 225 284 89 213 283 87 224 198 6 205 269 93 206 201 10 217 270 94 218 202 12 217 270 94 206 201 10 209 271 95 203 205 14 221 272 96 215 206 16 221 272 96 203 205 14 240 208 19 241 273 27 228 210 20 229 274 28 228 210 20 241 273 27 244 275 17 245 248 63 232 276 18 233 249 64 232 276 18 245 248 63 249 285 21 248 211 25 237 286 22 236 213 26 237 286 22 248 211 25 250 287 109 251 277 97 202 288 110 204 278 98 202 288 110 251 277 97 254 216 31 255 289 99 207 218 32 208 290 100 207 218 32 255 289 99 259 279 103 258 219 33 211 280 104 210 221 34 211 280 104 258 219 33 257 252 111 250 287 113 203 253 112 202 288 114 203 253 112 250 287 113 227 227 45 251 229 46 226 258 117 250 259 118 226 258 117 251 229 46 234 281 107 258 282 108 235 232 51 259 234 52 235 232 51 258 282 108 284 0 3 280 0 4 281 0 1 283 1 1 282 1 4 285 1 3 285 291 53 282 292 55 284 292 54 280 293 56 284 292 54 282 292 55 296 294 5 295 295 7 308 296 6 307 297 8 308 296 6 295 295 7 291 298 9 303 299 11 290 300 10 302 301 12 290 300 10 303 299 11 286 302 13 298 303 15 287 304 14 299 305 16 287 304 14 298 303 15 323 306 17 324 307 19 311 308 18 312 309 20 311 308 18 324 307 19 332 310 25 331 311 27 320 312 26 319 313 28 320 312 26 331 311 27 343 314 29 344 315 31 290 316 30 291 317 32 290 316 30 344 315 31 348 318 33 346 319 35 294 320 34 293 321 36 294 320 34 346 319 35 298 322 119 339 323 121 299 324 120 338 325 122 300 326 124 337 327 123 301 328 125 337 327 123 300 326 124 339 323 126 298 322 127 338 325 122 300 326 124 338 325 122 298 322 127 314 329 41 344 330 43 313 331 42 343 332 44 313 331 42 344 330 43 311 333 45 312 334 47 341 335 46 342 336 48 341 335 46 312 334 47 320 337 49 319 338 51 350 339 50 349 340 52 350 339 50 319 338 51 294 341 57 306 342 58 295 295 7 307 297 8 295 295 7 306 342 58 292 343 59 304 344 60 291 298 9 303 299 11 291 298 9 304 344 60 288 345 61 300 346 62 286 302 13 298 303 15 286 302 13 300 346 62 322 347 63 323 306 17 310 348 64 311 308 18 310 348 64 323 306 17 326 349 25 327 350 21 314 351 26 315 352 22 314 351 26 327 350 21 331 311 27 330 353 19 319 313 28 318 354 20 319 313 28 330 353 19 329 355 65 322 347 67 317 356 66 310 348 68 317 356 66 322 347 67 342 357 69 343 314 29 289 358 70 290 316 30 289 358 70 343 314 29 346 319 35 347 359 71 293 321 36 287 360 72 293 321 36 347 359 71 351 361 39 350 362 73 297 363 40 296 364 74 297 363 40 350 362 73 310 365 75 340 366 77 317 367 76 347 368 78 317 367 76 340 366 77 314 329 41 315 369 79 344 330 43 345 370 80 344 330 43 315 369 79 320 337 49 350 339 50 321 371 81 351 372 82 321 371 81 350 339 50 316 373 83 317 367 85 346 374 84 347 368 86 346 374 84 317 367 85 289 375 93 301 376 94 288 345 61 300 346 62 288 345 61 301 376 94 294 341 57 293 377 95 306 342 58 305 378 96 306 342 58 293 377 95 325 379 27 326 349 25 313 380 28 314 351 26 313 380 28 326 349 25 330 353 19 328 381 17 318 354 20 316 382 18 318 354 20 328 381 17 341 383 97 342 357 69 288 384 98 289 358 70 288 384 98 342 357 69 350 362 73 349 385 103 296 364 74 295 386 104 296 364 74 349 385 103 337 327 123 301 328 125 336 387 128 302 388 129 336 387 128 301 328 125 336 387 128 302 388 129 335 389 130 303 390 131 335 389 130 302 388 129 312 334 47 313 331 42 342 336 48 343 332 44 342 336 48 313 331 42 316 373 83 346 374 84 318 391 107 348 392 108 318 391 107 346 374 84 296 294 5 308 296 6 297 393 87 309 394 89 297 393 87 308 296 6 289 375 93 290 300 10 301 376 94 302 301 12 301 376 94 290 300 10 293 377 95 287 304 14 305 378 96 299 305 16 305 378 96 287 304 14 324 307 19 325 379 27 312 309 20 313 380 28 312 309 20 325 379 27 328 381 17 329 355 63 316 382 18 317 356 64 316 382 18 329 355 63 333 395 21 332 310 25 321 396 22 320 312 26 321 396 22 332 310 25 340 397 109 341 383 97 286 398 110 288 384 98 286 398 110 341 383 97 344 315 31 345 399 99 291 317 32 292 400 100 291 317 32 345 399 99 349 385 103 348 318 33 295 386 104 294 320 34 295 386 104 348 318 33 347 359 111 340 397 113 287 360 112 286 398 114 287 360 112 340 397 113 304 401 132 334 402 133 303 390 131 335 389 130 303 390 131 334 402 133 311 333 45 341 335 46 310 365 117 340 366 118 310 365 117 341 335 46 318 391 107 348 392 108 319 338 51 349 340 52 319 338 51 348 392 108 356 403 0 353 403 1 352 403 2 355 404 1 357 404 0 354 404 2 362 1 0 359 1 1 358 1 2 361 0 1 363 0 0 360 0 2 368 0 3 365 0 1 364 0 4 367 1 1 369 1 3 366 1 4 369 181 53 368 181 54 366 181 55 364 181 56 366 181 55 368 181 54 357 405 53 356 405 54 354 405 55 352 405 56 354 405 55 356 405 54 363 406 53 362 406 54 360 406 55 358 406 56 360 406 55 362 406 54 374 0 3 371 0 1 370 0 4 373 1 1 375 1 3 372 1 4 375 407 53 374 407 54 372 407 55 370 407 56 372 407 55 374 407 54 379 408 140 223 409 142 378 410 141 222 411 143 378 410 141 223 409 142 380 412 144 224 413 145 379 408 140 223 409 142 379 408 140 224 413 145 377 414 146 221 415 148 376 416 147 215 417 149 376 416 147 221 415 148 381 418 138 225 419 136 380 412 144 224 413 145 380 412 144 225 419 136 378 410 141 222 411 143 377 414 146 221 415 148 377 414 146 222 411 143 335 389 150 334 402 152 380 412 151 381 418 153 380 412 151 334 402 152 336 387 156 335 389 150 379 408 157 380 412 151 379 408 157 335 389 150 376 416 158 339 323 160 377 414 159 338 325 161 377 414 159 339 323 160 377 414 159 338 325 161 378 410 162 337 327 163 378 410 162 338 325 161 378 410 162 337 327 163 379 408 157 336 387 156 379 408 157 337 327 163 62 77 101 0 78 102 384 420 164 382 421 165 384 420 164 0 78 102 3 2 88 385 422 166 17 2 90 386 423 167 17 2 90 385 422 166 387 424 168 385 425 169 69 23 37 3 24 38 69 23 37 385 425 169 382 426 170 0 2 91 383 427 171 14 2 92 383 427 171 0 2 91 62 89 116 384 428 172 34 88 115 163 161 101 94 162 102 392 429 164 390 430 165 392 429 164 94 162 102 390 431 170 94 91 91 391 91 171 108 91 92 391 91 171 94 91 91 163 180 116 392 432 172 128 179 115 388 433 173 195 178 139 386 434 174 17 177 137 386 434 174 195 178 139 387 424 37 261 254 39 385 425 38 213 256 40 385 425 38 261 254 39 213 283 87 225 284 89 385 422 88 386 423 90 385 422 88 225 284 89 208 237 59 382 426 91 220 238 60 383 427 92 220 238 60 382 426 91 255 289 99 384 420 101 208 290 100 382 421 102 208 290 100 384 420 101 292 343 59 390 431 91 304 344 60 391 91 92 304 344 60 390 431 91 345 399 99 392 429 101 292 400 100 390 430 102 292 400 100 392 429 101 225 419 136 381 418 138 386 434 137 388 433 139 386 434 137 381 418 138 41 81 105 395 435 175 69 82 106 48 9 23 34 10 24 394 436 176 393 437 177 394 436 176 34 10 24 396 438 176 395 438 177 55 69 23 41 70 24 55 69 23 395 438 177 97 91 88 397 439 166 111 91 90 400 440 168 397 441 169 170 107 37 97 108 38 170 107 37 397 441 169 135 169 105 398 442 175 170 170 106 400 443 178 170 170 106 398 442 175 142 97 23 128 98 24 402 444 176 401 444 177 402 444 176 128 98 24 150 177 134 403 445 179 108 178 135 399 446 176 398 447 177 149 154 23 135 155 24 149 154 23 398 447 177 150 177 154 195 178 155 403 445 180 243 243 21 394 436 23 231 245 22 393 437 24 231 245 22 394 436 23 396 438 23 249 285 21 395 438 24 237 286 22 395 438 24 249 285 21 237 264 81 261 265 82 395 435 105 231 262 79 393 448 115 255 263 80 327 350 21 402 444 23 315 352 22 401 444 24 315 352 22 402 444 23 400 440 37 351 361 39 397 441 38 297 363 40 397 441 38 351 361 39 297 393 87 309 394 89 397 439 88 399 446 23 333 395 21 398 447 24 321 396 22 398 447 24 333 395 21 321 371 81 351 372 82 398 442 105 400 443 106 398 442 105 351 372 82 334 402 133 304 401 132 403 445 134 315 369 79 401 449 115 345 370 80 334 402 152 403 445 154 381 418 153 387 450 178 69 82 106 395 435 175 393 448 181 34 88 115 384 428 172 389 451 167 111 91 90 397 439 166 391 452 182 108 178 135 403 445 179 401 449 181 128 179 115 392 432 172 388 433 183 403 445 180 195 178 155 387 450 106 395 435 105 261 265 82 384 428 116 255 263 80 393 448 115 389 451 90 397 439 88 309 394 89 391 452 135 403 445 134 304 401 132 392 432 116 345 370 80 401 449 115 388 433 155 381 418 153 403 445 154 426 453 184 156 113 121 110 112 120 121 454 185 111 455 186 431 456 187 425 457 188 431 456 187 111 455 186 429 458 189 428 459 190 119 460 191 118 461 192 119 460 191 428 459 190 430 462 193 429 458 189 120 463 194 119 460 191 120 463 194 429 458 189 427 464 195 426 453 196 117 465 197 110 112 198 117 465 197 426 453 196 431 456 187 430 462 193 121 454 185 120 463 194 121 454 185 430 462 193 428 459 190 427 464 195 118 461 192 117 465 197 118 461 192 427 464 195 196 192 199 417 466 200 16 194 201 15 467 202 16 194 201 417 466 200 416 465 203 415 468 204 18 469 205 19 470 206 18 469 205 415 468 204 417 466 207 416 465 203 15 467 208 18 469 205 15 467 208 416 465 203 415 468 204 414 471 209 19 470 206 20 472 210 19 470 206 414 471 209 414 471 209 413 473 211 20 472 210 21 474 212 20 472 210 413 473 211 22 475 213 21 474 212 412 476 214 413 473 211 412 476 214 21 474 212 412 476 214 411 457 215 22 475 213 14 477 216 22 475 213 411 457 215 417 466 217 196 192 218 426 453 219 156 113 220 426 453 219 196 192 218 418 478 184 299 324 120 339 323 121 421 479 189 307 480 191 420 481 190 306 482 192 420 481 190 307 480 191 422 483 193 308 484 194 421 479 189 307 480 191 421 479 189 308 484 194 419 485 195 305 486 197 418 478 196 299 324 198 418 478 196 305 486 197 423 487 187 309 488 185 422 483 193 308 484 194 422 483 193 309 488 185 420 481 190 306 482 192 419 485 195 305 486 197 419 485 195 306 482 192 376 416 199 215 417 201 409 489 200 214 490 202 409 489 200 215 417 201 408 491 203 216 492 205 407 493 204 217 494 206 407 493 204 216 492 205 409 489 207 214 490 208 408 491 203 216 492 205 408 491 203 214 490 208 407 493 204 217 494 206 406 495 209 218 496 210 406 495 209 217 494 206 406 495 209 218 496 210 405 497 211 219 498 212 405 497 211 218 496 210 220 499 213 404 500 214 219 498 212 405 497 211 219 498 212 404 500 214 409 489 217 418 478 219 376 416 218 339 323 220 376 416 218 418 478 219 111 455 186 389 501 221 425 457 188 411 457 215 410 502 222 14 477 216 383 503 223 14 477 216 410 502 222 309 488 185 423 487 187 389 501 186 404 500 214 220 499 213 410 502 215 383 503 216 410 502 215 220 499 213 424 504 224 425 457 188 389 501 221 424 504 188 389 501 186 423 487 187 430 462 150 431 456 152 413 473 151 412 476 153 413 473 151 431 456 152 431 456 152 425 457 154 412 476 153 411 457 155 412 476 153 425 457 154 429 458 156 430 462 150 414 471 157 413 473 151 414 471 157 430 462 150 417 466 158 426 453 160 416 465 159 427 464 161 416 465 159 426 453 160 416 465 159 427 464 161 415 468 162 428 459 163 415 468 162 427 464 161 415 468 162 428 459 163 414 471 157 429 458 156 414 471 157 428 459 163 422 483 150 405 497 151 423 487 152 404 500 153 423 487 152 405 497 151 421 479 156 406 495 157 422 483 150 405 497 151 422 483 150 406 495 157 409 489 158 408 491 159 418 478 160 419 485 161 418 478 160 408 491 159 408 491 159 407 493 162 419 485 161 420 481 163 419 485 161 407 493 162 407 493 162 406 495 157 420 481 163 421 479 156 420 481 163 406 495 157 425 457 154 424 504 180 411 457 155 423 487 152 404 500 153 424 504 154 410 502 183 411 457 155 424 504 180 410 502 155 424 504 154 404 500 153</p>
                </polylist>
            </mesh>
        </geometry>
        <geometry id="Geometry-mesh004" name="Mesh">
            <mesh>
                <source id="Geometry-mesh004-positions" name="positions">
                    <float_array id="Geometry-mesh004-positions-array" count="648">-0.75 -0.0222168 0.098999 -0.758423 -0.0222168 0.107422 -0.994629 -0.0222168 0.107422 -0.994629 2.85254 0.107422 -0.758423 2.85254 0.107422 -0.75 2.85254 0.098999 -0.75 -0.0222168 -0.098999 -0.758423 -0.0222168 -0.107422 -0.994629 -0.0222168 -0.107422 -0.994629 2.85254 -0.107422 -0.758423 2.85254 -0.107422 -0.75 2.85254 -0.098999 0.75 -0.0222168 0.098999 0.758423 -0.0222168 0.107422 0.994629 -0.0222168 0.107422 0.994629 2.85254 0.107422 0.758423 2.85254 0.107422 0.75 2.85254 0.098999 0.75 -0.0222168 -0.098999 0.758423 -0.0222168 -0.107422 0.994629 -0.0222168 -0.107422 0.994629 2.85254 -0.107422 0.758423 2.85254 -0.107422 0.75 2.85254 -0.098999 0.75 2.22754 -0.0839844 -0.75 2.22754 -0.0839844 0.625 2.35254 -0.0839844 -0.625 2.35254 -0.0839844 0.75 0.602539 -0.0839844 -0.75 0.602539 -0.0839844 0.625 0.477539 -0.0839844 -0.625 0.477539 -0.0839844 -0.75 2.85254 -0.0839844 0.75 2.85254 -0.0839844 0.75 1.53881 -0.0371094 0.12463 1.53881 -0.0371094 0.265837 1.53881 -0.0371094 -0.75 1.53881 -0.0371094 -0.12463 1.53881 -0.0371094 -0.265837 1.53881 -0.0371094 0.75 1.29127 -0.0371094 0.12463 1.29127 -0.0371094 0.265837 1.29127 -0.0371094 -0.75 1.29127 -0.0371094 -0.12463 1.29127 -0.0371094 -0.265837 1.29127 -0.0371094 0.75 1.51122 -0.0744336 0.75 1.52301 -0.0672953 0.143321 1.51928 -0.0744336 0.135264 1.51122 -0.0744336 0.133292 1.5229 -0.0675124 0.235156 1.52212 -0.069001 0.22993 1.51122 -0.0744336 0.221873 1.51928 -0.0744336 -0.75 1.52301 -0.0672953 -0.75 1.51122 -0.0744336 -0.133292 1.5229 -0.0675124 -0.135264 1.51122 -0.0744336 -0.143321 1.51928 -0.0744336 -0.221873 1.51928 -0.0744336 -0.22993 1.51122 -0.0744336 -0.235156 1.52212 -0.069001 0.75 1.30707 -0.0672952 0.75 1.31886 -0.0744336 0.133292 1.30718 -0.0675124 0.135264 1.31886 -0.0744336 0.143321 1.3108 -0.0744336 0.221873 1.3108 -0.0744336 0.22993 1.31886 -0.0744336 0.235156 1.30796 -0.069001 -0.75 1.31886 -0.0744336 -0.75 1.30707 -0.0672952 -0.143321 1.3108 -0.0744336 -0.135264 1.31886 -0.0744336 -0.133292 1.30718 -0.0675124 -0.235156 1.30796 -0.069001 -0.22993 1.31886 -0.0744336 -0.221873 1.3108 -0.0744336 -0.75 1.49391 -0.0744336 -0.75 1.33617 -0.0744336 0.75 1.33617 -0.0744336 0.75 1.49391 -0.0744336 -0.182597 1.49391 -0.0744336 -0.182597 1.33617 -0.0744336 0.182597 1.49391 -0.0744336 0.182597 1.33617 -0.0744336 0.75 0.602539 -0.0371704 0.625 0.477539 -0.0371704 -0.75 0.602539 -0.0371704 -0.625 0.477539 -0.0371704 0.75 2.22754 -0.0371704 0.625 2.35254 -0.0371704 -0.75 2.22754 -0.0371704 -0.625 2.35254 -0.0371704 0.715266 0.567804 -0.0673538 0.70679 0.559329 -0.0744336 0.651868 0.504407 -0.0672996 0.660383 0.512922 -0.0744336 0.726711 0.579249 -0.0371094 0.64043 0.49297 -0.0371094 -0.651868 0.504407 -0.0672996 -0.660383 0.512922 -0.0744336 -0.70679 0.559329 -0.0744336 -0.715266 0.567804 -0.0673538 -0.64043 0.49297 -0.0371094 -0.726711 0.579249 -0.0371094 -0.660383 2.31716 -0.0744336 -0.651868 2.32567 -0.0672996 -0.70679 2.27075 -0.0744336 -0.715266 2.26227 -0.0673538 -0.64043 2.33711 -0.0371094 -0.726711 2.25083 -0.0371094 0.651868 2.32567 -0.0672996 0.660383 2.31716 -0.0744336 0.715266 2.26227 -0.0673538 0.70679 2.27075 -0.0744336 0.64043 2.33711 -0.0371094 0.726711 2.25083 -0.0371094 -0.75 2.22754 0.0839844 0.75 2.22754 0.0839844 -0.625 2.35254 0.0839844 0.625 2.35254 0.0839844 -0.75 0.602539 0.0839844 0.75 0.602539 0.0839844 -0.625 0.477539 0.0839844 0.625 0.477539 0.0839844 0.75 2.85254 0.0839844 -0.75 2.85254 0.0839844 -0.75 1.53881 0.0371094 -0.12463 1.53881 0.0371094 -0.265837 1.53881 0.0371094 0.75 1.53881 0.0371094 0.12463 1.53881 0.0371094 0.265837 1.53881 0.0371094 -0.75 1.29127 0.0371094 -0.12463 1.29127 0.0371094 -0.265837 1.29127 0.0371094 0.75 1.29127 0.0371094 0.12463 1.29127 0.0371094 0.265837 1.29127 0.0371094 -0.75 1.51122 0.0744336 -0.75 1.52301 0.0672953 -0.143321 1.51928 0.0744336 -0.135264 1.51122 0.0744336 -0.133292 1.5229 0.0675124 -0.235156 1.52212 0.069001 -0.22993 1.51122 0.0744336 -0.221873 1.51928 0.0744336 0.75 1.52301 0.0672953 0.75 1.51122 0.0744336 0.133292 1.5229 0.0675124 0.135264 1.51122 0.0744336 0.143321 1.51928 0.0744336 0.221873 1.51928 0.0744336 0.22993 1.51122 0.0744336 0.235156 1.52212 0.069001 -0.75 1.30707 0.0672952 -0.75 1.31886 0.0744336 -0.133292 1.30718 0.0675124 -0.135264 1.31886 0.0744336 -0.143321 1.3108 0.0744336 -0.221873 1.3108 0.0744336 -0.22993 1.31886 0.0744336 -0.235156 1.30796 0.069001 0.75 1.31886 0.0744336 0.75 1.30707 0.0672952 0.143321 1.3108 0.0744336 0.135264 1.31886 0.0744336 0.133292 1.30718 0.0675124 0.235156 1.30796 0.069001 0.22993 1.31886 0.0744336 0.221873 1.3108 0.0744336 0.75 1.49391 0.0744336 0.75 1.33617 0.0744336 -0.75 1.33617 0.0744336 -0.75 1.49391 0.0744336 0.182597 1.49391 0.0744336 0.182597 1.33617 0.0744336 -0.182597 1.49391 0.0744336 -0.182597 1.33617 0.0744336 -0.75 0.602539 0.0371704 -0.625 0.477539 0.0371704 0.75 0.602539 0.0371704 0.625 0.477539 0.0371704 -0.75 2.22754 0.0371704 -0.625 2.35254 0.0371704 0.75 2.22754 0.0371704 0.625 2.35254 0.0371704 -0.715266 0.567804 0.0673538 -0.70679 0.559329 0.0744336 -0.651868 0.504407 0.0672996 -0.660383 0.512922 0.0744336 -0.726711 0.579249 0.0371094 -0.64043 0.49297 0.0371094 0.651868 0.504407 0.0672996 0.660383 0.512922 0.0744336 0.70679 0.559329 0.0744336 0.715266 0.567804 0.0673538 0.64043 0.49297 0.0371094 0.726711 0.579249 0.0371094 0.660383 2.31716 0.0744336 0.651868 2.32567 0.0672996 0.70679 2.27075 0.0744336 0.715266 2.26227 0.0673538 0.64043 2.33711 0.0371094 0.726711 2.25083 0.0371094 -0.651868 2.32567 0.0672996 -0.660383 2.31716 0.0744336 -0.715266 2.26227 0.0673538 -0.70679 2.27075 0.0744336 -0.64043 2.33711 0.0371094 -0.726711 2.25083 0.0371094 -0.75 -0.0222168 0.0839844 -0.75 -0.0222168 -0.0839844 0.75 -0.0222168 0.0839844 0.75 -0.0222168 -0.0839844</float_array>
                    <technique_common>
                        <accessor count="216" source="#Geometry-mesh004-positions-array" stride="3">
                            <param name="X" type="float" />
                            <param name="Y" type="float" />
                            <param name="Z" type="float" />
                        </accessor>
                    </technique_common>
                </source>
                <source id="Geometry-mesh004-normals" name="normals">
                    <float_array id="Geometry-mesh004-normals-array" count="525">0 0 -1 -0.0610538 0.136596 -0.988744 -0.316745 0.520752 -0.792774 -0.229918 0.186999 -0.955076 0.0519552 0.128162 -0.990391 0.123291 0.00645113 -0.99235 0.330195 0.195904 -0.92336 0.0719069 0.24985 -0.965611 0.183542 0.149279 -0.971611 0.32151 0.587391 -0.7427 -0.0444282 0.109594 -0.992983 -0.330195 0.195904 -0.92336 -0.148596 0.00777519 -0.988867 -0.0614909 -0.213658 -0.974971 -0.183542 -0.149279 -0.971611 -0.32151 -0.587391 -0.7427 0.0444282 -0.109594 -0.992983 0.330198 -0.195903 -0.923359 0.148596 -0.00777519 -0.988867 0.0715096 -0.15999 -0.984525 0.316745 -0.520752 -0.792774 0.229918 -0.186999 -0.955076 -0.0519552 -0.128162 -0.990391 -0.123291 -0.00645113 -0.99235 -0.330198 -0.195903 -0.923359 3.75172e-009 5.12848e-009 -1 1.87586e-009 -6.74771e-009 -1 -4.37701e-009 -1.8891e-009 -1 0 0 1 0.0610538 0.136596 0.988744 0.316745 0.520752 0.792774 0.229918 0.186999 0.955076 -0.0519552 0.128162 0.990391 -0.123291 0.00645113 0.99235 -0.330195 0.195904 0.92336 -0.0719069 0.24985 0.965611 -0.183542 0.149279 0.971611 -0.32151 0.587391 0.7427 0.0444282 0.109594 0.992983 0.330195 0.195904 0.92336 0.148596 0.00777519 0.988867 0.0614909 -0.213658 0.974971 0.183542 -0.149279 0.971611 0.32151 -0.587391 0.7427 -0.0444282 -0.109594 0.992983 -0.330198 -0.195903 0.923359 -0.148596 -0.00777519 0.988867 -0.0715096 -0.15999 0.984525 -0.316745 -0.520752 0.792774 -0.229918 -0.186999 0.955076 0.0519552 -0.128162 0.990391 0.123291 -0.00645113 0.99235 0.330198 -0.195903 0.923359 -3.75172e-009 5.12848e-009 1 -1.87586e-009 -6.74771e-009 1 4.37701e-009 -1.8891e-009 1 -0.382683 0 -0.92388 0 -0.886012 -0.463662 -0.000667265 -0.789063 -0.614312 -0.592338 -0.322181 -0.738468 0.505449 -0.862856 0 0.252725 -0.967538 0 -0.252725 -0.967538 0 -0.505449 -0.862856 0 0.662491 0.428365 -0.614499 0.291664 0.188057 -0.937852 0.410736 -0.754461 -0.511943 0.662725 -0.428265 -0.614316 0.744036 -0.480739 -0.464006 0.66249 -0.428365 -0.614501 0.291659 -0.188054 -0.937854 0.000667265 -0.789063 0.614312 0.000664407 -0.330763 0.943714 -0.000667255 0.789063 0.614312 -0.000664394 0.330763 0.943714 -0.505449 0.862856 0 0.252725 0.967538 0 -0.252725 0.967538 0 0.505449 0.862856 0 -0.592338 -0.322181 0.738468 -0.662491 0.428365 0.614499 -0.743803 0.481445 0.463647 0.66249 -0.428365 0.614501 0.291659 -0.188054 0.937854 -0.66249 -0.428365 0.614501 -0.592342 0.32218 0.738465 -0.743808 -0.481449 0.463635 0.862856 0 0.505449 0.967538 0 0.252725 0.92388 0 -0.382683 0 -1 0 0.592338 -0.322181 -0.738468 0.000667265 -0.789063 -0.614312 1.0147e-008 -2.83366e-009 -1 0 -1.57447e-008 -1 -0.662491 0.428365 -0.614499 -0.291664 0.188057 -0.937852 -0.592342 0.32218 -0.738465 -0.66249 -0.428365 -0.614501 -0.743808 -0.481449 -0.463635 1.07027e-008 0.886012 0.463662 -0.707107 -0.707107 0 0.662725 -0.428265 0.614316 0.234504 -0.151795 0.960191 0.662491 0.428365 0.614499 0.592338 -0.322181 0.738468 0.743803 0.481445 0.463647 0.234504 0.151795 0.960191 -0.291659 -0.188054 0.937854 -0.541112 -0.671786 -0.505867 0.000664394 0.330763 -0.943714 -1.35294e-008 -3.77821e-009 -1 0.234504 -0.151795 -0.960191 -0.662725 0.428265 -0.614317 -0.234504 0.151795 -0.960191 -1.07027e-008 0.886012 0.463662 0.592342 0.32218 0.738465 0.000667255 0.789063 0.614312 0.000664394 0.330763 0.943714 -1.0147e-008 -2.83366e-009 1 -0.000664407 -0.330763 0.943714 3.28275e-009 -1.18085e-008 1 0.707107 0.707107 0 -0.291664 0.188057 0.937852 -0.662725 0.428265 0.614317 -0.234504 0.151795 0.960191 0.410736 0.75446 0.511943 0.662725 0.428265 0.614317 0.744035 0.480738 0.464007 -0.862856 0 0.505449 -0.92388 0 -0.382683 -0.967538 0 0.252725 -0.410736 0.75446 -0.511943 0.541111 0.671786 -0.505868 -3.28275e-009 -1.18085e-008 -1 0.662725 0.428265 -0.614317 0.744035 0.480738 -0.464007 0 -0.886012 0.463662 -0.410736 -0.754461 0.511943 -0.662725 -0.428265 0.614316 -0.744036 -0.480739 0.464006 0.505449 0 0.862856 0.252725 0 0.967538 0.000664407 -0.330763 -0.943714 -0.000667255 0.789063 -0.614312 -0.000664394 0.330763 -0.943714 -0.000664407 -0.330763 -0.943714 -0.662725 -0.428265 -0.614316 -0.744036 -0.480739 -0.464006 0.234504 0.151795 -0.960191 -0.291659 -0.188054 -0.937854 0.541112 -0.671786 0.505867 1.35294e-008 -3.77821e-009 1 0.707107 -0.707107 0 -0.234504 -0.151795 0.960191 0.291664 0.188057 0.937852 0.382683 0 -0.92388 -0.505449 0 0.862856 -0.252725 0 0.967538 0.000667255 0.789063 -0.614312 0.743803 0.481445 -0.463647 0.592342 0.32218 -0.738465 0.743808 -0.481449 -0.463635 -0.000667265 -0.789063 0.614312 0 -1.57447e-008 1 0.743808 -0.481449 0.463635 1.07027e-008 0.886012 -0.463662 -0.707107 0.707107 0 -0.234504 -0.151795 -0.960191 -0.744035 0.480738 -0.464007 -0.541111 0.671786 0.505868 -0.744035 0.480738 0.464007 -1.07027e-008 0.886012 -0.463662 -0.743803 0.481445 -0.463647 0.744036 -0.480739 0.464006</float_array>
                    <technique_common>
                        <accessor count="175" source="#Geometry-mesh004-normals-array" stride="3">
                            <param name="X" type="float" />
                            <param name="Y" type="float" />
                            <param name="Z" type="float" />
                        </accessor>
                    </technique_common>
                </source>
                <source id="Geometry-mesh004-uvSet1" name="uvSet1">
                    <float_array id="Geometry-mesh004-uvSet1-array" count="304">0.851883 0.881003 0.833262 0.733706 0.851639 0.696759 0.630527 0.697961 0.649002 0.734709 0.630779 0.882202 0.712298 0.462956 0.712574 0.466345 0.711167 0.465294 0.699011 0.462956 0.700142 0.465294 0.698277 0.466119 0.750267 0.462956 0.751398 0.465294 0.74999 0.466345 0.763554 0.462956 0.764287 0.466119 0.762423 0.465294 0.712298 0.407145 0.711167 0.404807 0.712574 0.403756 0.699011 0.407145 0.698277 0.403982 0.700142 0.404807 0.750267 0.407145 0.74999 0.403756 0.751398 0.404807 0.763554 0.407145 0.762423 0.404807 0.764287 0.403982 0.756911 0.457933 0.756911 0.412168 0.705654 0.457933 0.705654 0.412168 0.8473 0.191133 0.828817 0.154085 0.847181 0.00640364 0.625564 0.191036 0.625532 0.00629872 0.644036 0.154062 1.9985 0.0815875 1.96477 0.0816174 1.9985 0.900414 1.96476 0.900391 0.836548 0.39914 0.836548 0.403723 0.768594 0.39914 0.854551 0.629209 0.847387 0.629209 0.854551 0.265838 0.847387 0.265838 0.630892 0.189236 0.632082 0.186777 0.748775 0.39914 0.822775 0.170842 0.821169 0.167524 0.630892 0.680864 0.632082 0.683324 0.836548 0.407145 0.626017 0.466378 0.626017 0.462956 0.845788 0.266152 0.845788 0.630373 0.838976 0.266152 0.838976 0.630373 0.693971 0.39914 0.629286 0.192557 0.831673 0.680864 0.830483 0.683324 0.693971 0.470961 0.629286 0.677544 0.934789 0.900409 0.93479 0.0816095 0.963064 0.900393 0.963064 0.0816157 1.93334 0.0755739 1.93456 0.0780288 1.96465 0.0755775 1.96342 0.0780321 0.626017 0.39914 0.626017 0.403723 0.836548 0.457933 0.836548 0.412168 0.819004 0.707054 0.643561 0.707054 0.819004 0.163047 0.643561 0.163047 0.831673 0.189236 0.830483 0.186777 0.768594 0.470961 0.833279 0.677544 0.626017 0.470961 0.854551 0.680504 0.847387 0.680504 0.63979 0.170842 0.638595 0.173313 0.833279 0.192557 0.638595 0.696788 0.933336 0.0755739 0.964648 0.0755775 0.934564 0.0780288 0.963421 0.0780321 0.71379 0.39914 0.626017 0.457933 0.854551 0.214514 0.847387 0.214514 0.836548 0.670787 0.836548 0.199314 0.82397 0.173313 0.63979 0.699259 0.836548 0.470961 0.836548 0.466378 0.836548 0.462956 0.626017 0.407145 0.626017 0.412168 0.845788 0.681822 0.838976 0.681822 0.822775 0.699259 0.82397 0.696788 0.71379 0.470961 0.641396 0.702577 0.964647 0.00673531 0.933339 0.00673531 1.93479 0.900409 1.96306 0.900393 1.93479 0.0816095 1.96306 0.0816157 0.748775 0.470961 0.626017 0.670787 0.626017 0.199314 0.821169 0.702577 0.933089 0.0816064 0.933088 0.900412 0.899358 0.0815759 0.899358 0.900441 1.96465 0.00673531 1.93334 0.00673531 0.845788 0.2147 0.838976 0.2147 0.641396 0.167524 0.964766 0.0816174 0.964765 0.900391 1.93309 0.0816064 1.89936 0.0815759 1.93309 0.900412 1.89936 0.900441 0.998495 0.0815875 0.998496 0.900414 0.13894 0.00791556 0.375043 0.00821484 0.138943 0.0609753 0.375005 0.0612795</float_array>
                    <technique_common>
                        <accessor count="152" source="#Geometry-mesh004-uvSet1-array" stride="2">
                            <param name="S" type="float" />
                            <param name="T" type="float" />
                        </accessor>
                    </technique_common>
                </source>
                <vertices id="Geometry-mesh004-vertices">
                    <input semantic="POSITION" source="#Geometry-mesh004-positions" />
                </vertices>
                <polylist count="286" material="Material-slidedoor_medium_vertical">
                    <input semantic="VERTEX" source="#Geometry-mesh004-vertices" offset="0" />
                    <input semantic="NORMAL" source="#Geometry-mesh004-normals" offset="1" />
                    <input semantic="TEXCOORD" source="#Geometry-mesh004-uvSet1" offset="2" set="0" />
                    <vcount>3 3 3 3 3 3 3 3 3 3 3 3 3 3 3 3 3 3 3 3 3 3 3 3 3 3 3 3 3 3 3 3 3 3 3 3 3 3 3 3 3 3 3 3 3 3 3 3 3 3 3 3 3 3 3 3 3 3 3 3 3 3 3 3 3 3 3 3 3 3 3 3 3 3 3 3 3 3 3 3 3 3 3 3 3 3 3 3 3 3 3 3 3 3 3 3 3 3 3 3 3 3 3 3 3 3 3 3 3 3 3 3 3 3 3 3 3 3 3 3 3 3 3 3 3 3 3 3 3 3 3 3 3 3 3 3 3 3 3 3 3 3 3 3 3 3 3 3 3 3 3 3 3 3 3 3 3 3 3 3 3 3 3 3 3 3 3 3 3 3 3 3 3 3 3 3 3 3 3 3 3 3 3 3 3 3 3 3 3 3 3 3 3 3 3 3 3 3 3 3 3 3 3 3 3 3 3 3 3 3 3 3 3 3 3 3 3 3 3 3 3 3 3 3 3 3 3 3 3 3 3 3 3 3 3 3 3 3 3 3 3 3 3 3 3 3 3 3 3 3 3 3 3 3 3 3 3 3 3 3 3 3 3 3 3 3 3 3 3 3 3 3 3 3 3 3 3 3 3 3 3 3 3 3 3 3</vcount>
                    <p>32 0 0 27 0 1 25 0 2 24 0 3 26 0 4 33 0 5 49 1 6 50 2 7 48 3 8 52 4 9 53 5 10 51 6 11 57 7 12 58 8 13 56 9 14 60 10 15 61 11 16 59 12 17 65 13 18 66 14 19 64 15 20 68 16 21 69 17 22 67 18 23 73 19 24 74 20 25 72 21 26 76 22 27 77 23 28 75 24 29 57 7 12 82 25 30 60 10 15 83 26 31 73 19 24 76 22 27 84 27 32 49 1 6 52 4 9 65 13 18 85 0 33 68 16 21 126 28 0 121 28 1 119 28 2 118 28 3 120 28 4 127 28 5 143 29 6 144 30 7 142 31 8 146 32 9 147 33 10 145 34 11 151 35 12 152 36 13 150 37 14 154 38 15 155 39 16 153 40 17 159 41 18 160 42 19 158 43 20 162 44 21 163 45 22 161 46 23 167 47 24 168 48 25 166 49 26 170 50 27 171 51 28 169 52 29 151 35 12 176 53 30 154 38 15 177 54 31 167 47 24 170 50 27 178 55 32 143 29 6 146 32 9 159 41 18 179 28 33 162 44 21 29 0 34 31 0 35 213 0 36 28 0 37 215 0 38 30 0 39 123 28 34 125 28 35 214 28 36 122 28 37 212 28 38 124 28 39 20 0 40 19 56 41 21 0 42 22 56 43 21 0 42 19 56 41 43 57 44 71 58 45 45 59 46 75 24 29 45 59 46 71 58 45 65 13 18 68 16 21 66 14 19 67 18 23 66 14 19 68 16 21 93 60 47 27 61 48 91 62 49 26 63 50 91 62 49 27 61 48 94 64 51 95 65 52 69 17 22 67 18 23 69 17 22 95 65 52 74 20 25 44 66 53 100 67 54 104 68 55 100 67 54 44 66 53 114 69 56 51 6 11 115 70 57 53 5 10 115 70 57 51 6 11 165 71 45 164 72 58 169 52 29 170 50 27 169 52 29 164 72 58 141 73 59 140 74 60 145 34 11 146 32 9 145 34 11 140 74 60 167 47 24 159 41 18 168 48 25 158 43 20 168 48 25 159 41 18 183 75 61 181 76 62 125 77 63 124 78 64 125 77 63 181 76 62 163 45 22 136 79 65 188 80 51 192 81 66 188 80 51 136 79 65 203 82 67 202 83 68 155 39 16 153 40 17 155 39 16 202 83 68 145 34 11 208 84 56 130 85 69 211 86 70 130 85 69 208 84 56 5 87 71 0 88 72 11 89 73 6 89 74 11 89 73 0 88 72 13 90 75 12 90 76 19 90 77 18 90 78 19 90 77 12 90 76 40 57 79 42 91 65 62 92 80 69 17 22 62 92 80 42 91 65 82 25 30 83 26 31 78 93 81 79 94 82 78 93 81 83 26 31 84 27 32 85 0 33 82 25 30 83 26 31 82 25 30 85 0 33 93 0 83 91 0 84 89 0 85 87 0 86 89 0 85 91 0 84 103 95 87 75 24 29 102 96 88 77 23 28 102 96 88 75 24 29 61 11 16 39 97 89 109 98 67 111 99 90 109 98 67 39 97 89 126 28 0 127 28 5 121 28 1 120 28 4 121 28 1 127 28 5 128 100 91 141 73 59 130 85 69 145 34 11 130 85 69 141 73 59 146 32 9 143 29 6 147 33 10 142 31 8 147 33 10 143 29 6 170 50 27 167 47 24 171 51 28 166 49 26 171 51 28 167 47 24 178 55 32 176 53 30 143 29 6 151 35 12 143 29 6 176 53 30 186 101 92 119 101 93 187 63 47 121 62 48 187 63 47 119 101 93 190 102 94 158 43 20 191 103 95 160 42 19 191 103 95 158 43 20 169 52 29 197 104 87 139 105 46 199 106 96 139 105 46 197 104 87 142 31 8 207 107 97 147 33 10 209 108 57 147 33 10 207 107 97 1 90 98 7 90 99 0 90 100 6 90 101 0 90 100 7 90 99 74 20 25 64 15 20 44 66 53 41 109 102 44 66 53 64 15 20 46 110 60 81 111 103 52 4 9 84 27 32 52 4 9 81 111 103 91 62 49 26 63 50 90 101 104 24 101 105 90 101 104 26 63 50 93 0 83 89 0 85 92 0 106 88 0 107 92 0 106 89 0 85 72 21 26 101 112 108 77 23 28 102 96 88 77 23 28 101 112 108 112 113 109 113 114 97 50 2 7 48 3 8 50 2 7 113 114 97 143 29 6 151 35 12 144 30 7 150 37 14 144 30 7 151 35 12 131 115 110 133 116 89 148 117 111 155 39 16 148 117 111 133 116 89 151 35 12 154 38 15 152 36 13 153 40 17 152 36 13 154 38 15 149 118 112 154 38 15 172 119 81 176 53 30 172 119 81 154 38 15 157 120 113 162 44 21 174 121 114 179 28 33 174 121 114 162 44 21 181 76 62 180 122 115 124 78 64 122 122 116 124 78 64 180 122 115 160 42 19 161 46 23 191 103 95 189 123 52 191 103 95 161 46 23 201 124 117 150 37 14 200 125 118 152 36 13 200 125 118 150 37 14 144 30 7 129 126 119 206 127 109 210 128 120 206 127 109 129 126 119 212 28 38 214 28 36 124 28 39 125 28 35 124 28 39 214 28 36 8 90 121 7 90 99 2 90 122 1 90 98 2 90 122 7 90 99 17 129 123 23 130 124 12 131 125 18 130 126 12 131 125 23 130 124 50 2 7 56 9 14 35 132 119 38 133 127 35 132 119 56 9 14 85 0 33 84 27 32 80 134 114 81 111 103 80 134 114 84 27 32 91 0 84 90 0 128 87 0 86 86 0 129 87 0 86 90 0 128 100 67 54 101 112 108 74 20 25 72 21 26 74 20 25 101 112 108 56 9 14 107 135 117 38 133 127 110 136 130 38 133 127 107 135 117 137 137 44 165 71 45 139 105 46 169 52 29 139 105 46 165 71 45 159 41 18 162 44 21 160 42 19 161 46 23 160 42 19 162 44 21 187 63 47 121 62 48 185 61 49 120 60 50 185 61 49 121 62 48 188 80 51 189 123 52 163 45 22 161 46 23 163 45 22 189 123 52 168 48 25 138 138 53 194 139 54 198 140 55 194 139 54 138 138 53 208 84 56 145 34 11 209 108 57 147 33 10 209 108 57 145 34 11 1 141 131 4 142 132 2 28 133 3 28 134 2 28 133 4 142 132 20 90 135 14 90 136 19 90 77 13 90 75 19 90 77 14 90 136 62 92 80 69 17 22 63 143 113 68 16 21 63 143 113 69 17 22 54 144 111 61 11 16 55 145 112 60 10 15 55 145 112 61 11 16 70 146 58 79 94 82 76 22 27 83 26 31 76 22 27 79 94 82 85 0 33 65 13 18 83 26 31 73 19 24 83 26 31 65 13 18 88 122 137 89 78 61 29 122 138 31 76 63 29 122 138 89 78 61 64 15 20 96 147 94 41 109 102 99 148 139 41 109 102 96 147 94 58 8 13 59 12 17 106 149 118 108 150 68 106 149 118 59 12 17 168 48 25 158 43 20 138 138 53 135 151 102 138 138 53 158 43 20 140 74 60 175 152 103 146 32 9 178 55 32 146 32 9 175 152 103 185 61 49 120 60 50 184 153 104 118 153 105 184 153 104 120 60 50 187 28 83 183 28 85 186 28 106 182 28 107 186 28 106 183 28 85 166 49 26 195 154 108 171 51 28 196 155 88 171 51 28 195 154 108 206 127 109 207 107 97 144 30 7 142 31 8 144 30 7 207 107 97 215 0 38 213 0 36 30 0 39 31 0 35 30 0 39 213 0 36 11 89 73 6 89 74 7 156 140 7 156 140 10 156 141 11 89 73 13 157 142 14 28 143 16 158 144 15 28 145 16 158 144 14 28 143 71 58 45 70 146 58 75 24 29 76 22 27 75 24 29 70 146 58 47 159 59 46 110 60 51 6 11 52 4 9 51 6 11 46 110 60 73 19 24 65 13 18 74 20 25 64 15 20 74 20 25 65 13 18 89 78 61 87 77 62 31 76 63 30 75 64 31 76 63 87 77 62 69 17 22 42 91 65 94 64 51 98 160 66 94 64 51 42 91 65 109 98 67 108 150 68 61 11 16 59 12 17 61 11 16 108 150 68 51 6 11 114 69 56 36 161 69 117 162 70 36 161 69 114 69 56 134 137 79 136 79 65 156 163 80 163 45 22 156 163 80 136 79 65 176 53 30 177 54 31 172 119 81 173 164 82 172 119 81 177 54 31 178 55 32 179 28 33 176 53 30 177 54 31 176 53 30 179 28 33 187 28 83 185 28 84 183 28 85 181 28 86 183 28 85 185 28 84 197 104 87 169 52 29 196 155 88 171 51 28 196 155 88 169 52 29 155 39 16 133 116 89 203 82 67 205 165 90 203 82 67 133 116 89 1 141 131 0 88 72 5 87 71 5 87 71 4 142 132 1 141 131 19 56 41 18 130 126 23 130 124 23 130 124 22 56 43 19 56 41 49 1 6 57 7 12 50 2 7 56 9 14 50 2 7 57 7 12 37 166 110 39 97 89 54 144 111 61 11 16 54 144 111 39 97 89 57 7 12 60 10 15 58 8 13 59 12 17 58 8 13 60 10 15 55 145 112 60 10 15 78 93 81 82 25 30 78 93 81 60 10 15 63 143 113 68 16 21 80 134 114 85 0 33 80 134 114 68 16 21 87 77 62 86 167 115 30 75 64 28 167 116 30 75 64 86 167 115 66 14 19 67 18 23 97 168 95 95 65 52 97 168 95 67 18 23 107 135 117 56 9 14 106 149 118 58 8 13 106 149 118 56 9 14 50 2 7 35 132 119 112 113 109 116 169 120 112 113 109 35 132 119 144 30 7 150 37 14 129 126 119 132 170 127 129 126 119 150 37 14 179 28 33 178 55 32 174 121 114 175 152 103 174 121 114 178 55 32 185 28 84 184 28 128 181 28 86 180 28 129 181 28 86 184 28 128 194 139 54 195 154 108 168 48 25 166 49 26 168 48 25 195 154 108 150 37 14 201 124 117 132 170 127 204 171 130 132 170 127 201 124 117 8 0 146 9 0 147 7 156 140 10 156 141 7 156 140 9 0 147 17 129 123 12 131 125 13 157 142 13 157 142 16 158 144 17 129 123 32 0 0 33 0 5 27 0 1 26 0 4 27 0 1 33 0 5 34 172 91 47 159 59 36 161 69 51 6 11 36 161 69 47 159 59 52 4 9 49 1 6 53 5 10 48 3 8 53 5 10 49 1 6 76 22 27 73 19 24 77 23 28 72 21 26 77 23 28 73 19 24 84 27 32 82 25 30 49 1 6 57 7 12 49 1 6 82 25 30 92 153 92 25 153 93 93 60 47 27 61 48 93 60 47 25 153 93 96 147 94 64 15 20 97 168 95 66 14 19 97 168 95 64 15 20 75 24 29 103 95 87 45 59 46 105 173 96 45 59 46 103 95 87 48 3 8 113 114 97 53 5 10 115 70 57 53 5 10 113 114 97 156 163 80 163 45 22 157 120 113 162 44 21 157 120 113 163 45 22 148 117 111 155 39 16 149 118 112 154 38 15 149 118 112 155 39 16 164 72 58 173 164 82 170 50 27 177 54 31 170 50 27 173 164 82 179 28 33 159 41 18 177 54 31 167 47 24 177 54 31 159 41 18 182 167 137 183 75 61 123 167 138 125 77 63 123 167 138 183 75 61 158 43 20 190 102 94 135 151 102 193 174 139 135 151 102 190 102 94 152 36 13 153 40 17 200 125 118 202 83 68 200 125 118 153 40 17 213 90 148 215 90 149 212 90 150 214 90 151 212 90 150 215 90 149</p>
                </polylist>
            </mesh>
        </geometry>
    </library_geometries>
    <library_visual_scenes>
        <visual_scene id="DefaultScene">
            <node id="Geometry-polySurface125Node" name="frame" type="NODE">
                <matrix sid="transform">1 0 0 0 0 1 0 0 0 0 1 0 0 0 0 1</matrix>
                <instance_geometry url="#Geometry-polySurface125">
                    <bind_material>
                        <technique_common>
                            <instance_material symbol="Material-frame_1" target="#Material-frame_1">
                                <bind_vertex_input semantic="polySurfaceShape125-Geometry-frame-Texture" input_semantic="TEXCOORD" input_set="0" />
                            </instance_material>
                        </technique_common>
                    </bind_material>
                </instance_geometry>
            </node>
            <node id="Geometry-mesh004Node" name="Mesh" type="NODE">
                <matrix sid="transform">1 0 0 0 0 1 0 0 0 0 1 0 0 0 0 1</matrix>
                <instance_geometry url="#Geometry-mesh004">
                    <bind_material>
                        <technique_common>
                            <instance_material symbol="Material-slidedoor_medium_vertical" target="#Material-slidedoor_medium_vertical">
                                <bind_vertex_input semantic="uvSet1" input_semantic="TEXCOORD" input_set="0" />
                            </instance_material>
                        </technique_common>
                    </bind_material>
                </instance_geometry>
            </node>
            <node id="groupLocator025Node" name="Texture_Group" type="NODE">
                <matrix sid="transform">1 0 0 0 0 1 0 0 0 0 1 0 0 0 0 1</matrix>
                <node id="txtrLocator032Node" name="theta_tunnels_doorframe_rusty__Image___Texture_" type="NODE">
                    <matrix sid="transform">1 0 0 0 0 1 0 0 0 0 1 0 0 0 0 1</matrix>
                </node>
                <node id="txtrLocator005Node" name="_none___Image___Texture_" type="NODE">
                    <matrix sid="transform">1 0 0 0 0 1 0 0 0 0 1 0 0 0 0 1</matrix>
                </node>
                <node id="txtrLocator009Node" name="slidedoor_medium_vertical_nrm__Image___Texture_" type="NODE">
                    <matrix sid="transform">1 0 0 0 0 1 0 0 0 0 1 0 0 0 0 1</matrix>
                </node>
                <node id="txtrLocator013Node" name="slidedoor_medium_vertical__Image___Texture_" type="NODE">
                    <matrix sid="transform">1 0 0 0 0 1 0 0 0 0 1 0 0 0 0 1</matrix>
                </node>
                <node id="txtrLocator018Node" name="slidedoor_medium_vertical_spec__Image___Texture_" type="NODE">
                    <matrix sid="transform">1 0 0 0 0 1 0 0 0 0 1 0 0 0 0 1</matrix>
                </node>
            </node>
        </visual_scene>
    </library_visual_scenes>
    <scene>
        <instance_visual_scene url="#DefaultScene" />
    </scene>
</COLLADA>
