<?xml version="1.0" encoding="utf-8" ?>
<COLLADA xmlns="http://www.collada.org/2005/11/COLLADASchema" version="1.4.1">
    <asset>
        <contributor>
            <authoring_tool>modo 601 [Build 48460], Microsoft Windows 7 Service Pack 1 (6.1.7601 Service Pack 1)</authoring_tool>
            <comments>
                Plug-in: [Build 48460];
                Use Absolute Path: No;
                Merge Reference Items: No;
                Save Hidden Items: No;
                Save Cameras: Yes;
                Save Lights: Yes;
                Save Locators: Yes;
                Save Triangles as Triangles: No;
                Bake Matrices: No;
                Save Vertex Normals: Yes;
                Save UV Texture Coordinates: Yes;
                Save Vertex Colors: Yes;
                Save Vertex Weights: Yes;
                Save Animation: Yes;
                Sample Animation: No;
                Sample Animation Start: 0;
                Sample Animation End: 120;
                Save modo Profile: Yes;
                Save Maya Profile: Yes;
                Save 3ds Max Profile: Yes;
                Formatted Arrays: Yes;
            </comments>
            <source_data>file:///D:/Work/My%20Dropbox/Frictional%20Games%20-%20Team/Aaron/models/entities/station/special/01_02_pipe_medium2_break/01_02_pipe_medium2_broken.lxo</source_data>
        </contributor>
        <created>2012-12-12T15:40:58Z</created>
        <modified>2012-12-12T15:40:58Z</modified>
        <unit name="game" meter="1" />
        <up_axis>Y_UP</up_axis>
    </asset>
    <library_cameras>
        <camera id="Camera-camera004" name="Camera">
            <optics>
                <technique_common>
                    <perspective>
                        <xfov sid="HFOV">39.5978</xfov>
                        <yfov sid="YFOV">26.9915</yfov>
                        <znear sid="near_clip">0.01</znear>
                        <zfar sid="far_clip">10000</zfar>
                    </perspective>
                </technique_common>
                <technique profile="modo401">
                    <param sid="projType" name="Projection_Type" type="Name">persp</param>
                    <param sid="focalLen" name="Focal_Length" type="float">0.05</param>
                    <param sid="distort" name="Lens_Distortion" type="float">0</param>
                    <param sid="squeeze" name="Lens_Squeeze" type="float">1</param>
                    <param sid="focusDist" name="Focus_Distance" type="float">4</param>
                    <param sid="fStop" name="F-Stop" type="float">4</param>
                    <param sid="blurLen" name="Blur_Length" type="float">0.5</param>
                    <param sid="blurOff" name="Blur_Offset" type="float">0</param>
                    <param sid="ioDist" name="Interocular_Distance" type="float">0.065</param>
                    <param sid="convDist" name="Convergence_Distance" type="float">2</param>
                </technique>
            </optics>
            <imager>
                <technique profile="modo401">
                    <param sid="apertureX" name="Film_Width" type="float">0.036</param>
                    <param sid="apertureY" name="Film_Height" type="float">0.024</param>
                    <param sid="offsetX" name="Film_Offset_X" type="float">0</param>
                    <param sid="offsetY" name="Film_Offset_Y" type="float">0</param>
                    <param sid="filmFit" name="Film_Fit" type="Name">fill</param>
                </technique>
            </imager>
        </camera>
    </library_cameras>
    <library_images>
        <image id="Image0001" name="Image0001">
            <init_from>file:///D:/Work/My%20Dropbox/Frictional%20Games%20-%20Team/Aaron/models/static_objects/station/pipes/pipe_turn_broken_slim.tga</init_from>
        </image>
    </library_images>
    <library_materials>
        <material id="Material-pipe_turn_broken_slim" name="pipe_turn_broken_slim">
            <instance_effect url="#Effect-pipe_turn_broken_slim" />
        </material>
    </library_materials>
    <library_effects>
        <effect id="Effect-pipe_turn_broken_slim" name="pipe_turn_broken_slim">
            <profile_COMMON>
                <newparam sid="Image0001-surface">
                    <surface type="2D">
                        <init_from>Image0001</init_from>
                        <format>A8R8G8B8</format>
                    </surface>
                </newparam>
                <newparam sid="Image0001-sampler">
                    <sampler2D>
                        <source>Image0001-surface</source>
                        <minfilter>LINEAR_MIPMAP_LINEAR</minfilter>
                        <magfilter>LINEAR</magfilter>
                    </sampler2D>
                </newparam>
                <technique sid="common">
                    <phong>
                        <diffuse>
                            <texture texture="Image0001-sampler" texcoord="uvSet1" />
                        </diffuse>
                        <specular>
                            <color sid="specular_effect_rgb">0.2 0.2 0.2 1</color>
                        </specular>
                        <shininess>
                            <float sid="specular_effect_rgb">256</float>
                        </shininess>
                    </phong>
                </technique>
            </profile_COMMON>
        </effect>
    </library_effects>
    <library_geometries>
        <geometry id="Geometry-mesh016" name="Mesh">
            <mesh>
                <source id="Geometry-mesh016-positions" name="positions">
                    <float_array id="Geometry-mesh016-positions-array" count="582">
                        -0.0621184 -0.107737 2
                        -0.109095 -0.063089 2
                        -0.124237 2.98023e-008 2
                        -0.109095 0.063089 2
                        -0.0621184 0.107542 2
                        0 0.126178 2
                        0.0621184 0.107542 2
                        0.109095 0.063089 2
                        0.124237 2.98023e-008 2
                        0.109095 -0.063089 2
                        0.0621184 -0.107737 2
                        0 -0.126178 2
                        -0.0621184 -0.107737 1.90663
                        -0.109095 -0.063089 1.90663
                        -0.124237 2.98023e-008 1.90663
                        -0.109095 0.063089 1.90663
                        -0.0621184 0.107542 1.90663
                        0 0.126178 1.90663
                        0.0621184 0.107542 1.90663
                        0.109095 0.063089 1.90663
                        0.124237 2.98023e-008 1.90663
                        0.109095 -0.063089 1.90663
                        0.0621184 -0.107737 1.90663
                        0 -0.126178 1.90663
                        -0.0537713 -0.0933717 1.90663
                        -0.0947306 -0.0547418 1.90663
                        -0.107542 2.98023e-008 1.90663
                        -0.0947306 0.0545478 1.90663
                        -0.0537713 0.0931776 1.90663
                        0 0.10929 1.90663
                        0.0537713 0.0931776 1.90663
                        0.0947306 0.0545478 1.90663
                        0.107542 2.98023e-008 1.90663
                        0.0947306 -0.0547418 1.90663
                        0.0537713 -0.0933717 1.90663
                        0 -0.109484 1.90663
                        -0.0621184 -0.107737 0
                        -0.109095 -0.063089 0
                        -0.124237 -2.98023e-008 0
                        -0.109095 0.063089 0
                        -0.0621184 0.107542 0
                        0 0.126178 0
                        0.0621184 0.107542 0
                        0.109095 0.063089 0
                        0.124237 -2.98023e-008 0
                        0.109095 -0.063089 0
                        0.0621184 -0.107737 0
                        0 -0.126178 0
                        -0.0621184 -0.107737 0.0933719
                        -0.109095 -0.063089 0.0933719
                        -0.124237 -2.98023e-008 0.0933719
                        -0.109095 0.063089 0.0933719
                        -0.0621184 0.107542 0.0933719
                        0 0.126178 0.0933719
                        0.0621184 0.107542 0.0933719
                        0.109095 0.063089 0.0933719
                        0.124237 -2.98023e-008 0.0933719
                        0.109095 -0.063089 0.0933719
                        0.0621184 -0.107737 0.0933719
                        0 -0.126178 0.0933719
                        -0.0947306 -0.0553242 0.0942745
                        -0.107542 -0.000582367 0.0938864
                        -0.0947306 0.0541595 0.0934982
                        -0.0537712 0.0927894 0.0933042
                        0 0.108901 0.0933042
                        0.0537713 0.0927894 0.0933042
                        0.0947306 0.0541595 0.0934982
                        0.107542 -0.000582367 0.0938864
                        0.0947306 -0.0553242 0.0942745
                        -0.0537712 -0.0939541 0.0944686
                        0.0537713 -0.0939541 0.0944686
                        0 -0.110066 0.0944686
                        0.195366 -0.150413 0.629175
                        0.139031 -0.168438 0.629451
                        0.202801 0.011029 0.592441
                        0.214158 -0.0400437 0.572
                        0.222102 -0.103765 0.604081
                        0.185854 0.0331713 0.663582
                        0.0757189 0.0264439 0.68168
                        0.138657 0.0405016 0.694745
                        0.0558345 -0.130036 0.687185
                        0.0444663 -0.0803962 0.710979
                        0.0398345 -0.0168569 0.688772
                        0.0657072 -0.146397 0.606632
                        0.075437 -0.207709 0.99321
                        0.0867498 -0.159124 0.967441
                        -0.0148021 -0.1104 1.16719
                        -0.00267969 -0.058715 1.14901
                        -0.0819617 -0.0315303 1.40541
                        -0.0693356 0.0222319 1.39563
                        -0.107339 -0.00033116 1.66201
                        -0.0945274 0.0542349 1.66108
                        0.269168 -0.220842 1.07105
                        0.248356 -0.277393 1.04726
                        0.175655 -0.13561 1.24966
                        0.137052 -0.176291 1.25159
                        0.117048 -0.0778007 1.45133
                        0.0767368 -0.117022 1.45216
                        0.0949078 -0.0550038 1.66624
                        0.0539533 -0.0936381 1.66632
                        0.0865352 -0.24937 1.02927
                        -0.00279123 -0.15872 1.19329
                        -0.0693751 -0.0844328 1.41967
                        -0.0945292 -0.0550573 1.66334
                        0.280468 -0.170468 1.04883
                        0.187771 -0.0829818 1.23406
                        0.129672 -0.02366 1.44296
                        0.107719 -0.000267463 1.66544
                        0.24291 -0.100146 1.07085
                        0.175753 -0.0335205 1.21043
                        0.117083 0.0294651 1.43013
                        0.0949094 0.0542937 1.66424
                        0.139537 -0.133634 0.930726
                        0.186561 -0.104865 0.945665
                        0.0359227 -0.0175128 1.14694
                        0.0865631 0.00487928 1.15872
                        -0.0290244 0.061608 1.3948
                        0.023883 0.0795276 1.40156
                        -0.0535729 0.0928704 1.66099
                        0.000191413 0.108997 1.66162
                        0.139224 -0.289283 1.03375
                        0.0357597 -0.188993 1.2206
                        -0.0290821 -0.120667 1.43475
                        -0.0535755 -0.0936675 1.66473
                        0.201321 -0.303681 1.03525
                        0.0864058 -0.197441 1.24216
                        0.0238273 -0.134582 1.44675
                        0.000188918 -0.109762 1.66582
                        0.233585 -0.103851 0.978067
                        0.137204 -0.00279376 1.18282
                        0.0767905 0.0658339 1.41496
                        0.0539557 0.0929048 1.66284
                        0.0597098 -0.093906 0.238124
                        0.00623414 -0.110018 0.243754
                        0.0838994 -0.0994615 0.369385
                        0.0316276 -0.116642 0.379416
                        0.126312 -0.117494 0.494572
                        0.0761506 -0.136849 0.508939
                        0.100359 0.0541915 0.233024
                        0.113135 -0.000534319 0.232013
                        0.123543 0.0489343 0.372563
                        0.136068 -0.00534141 0.36515
                        0.16428 0.0308 0.507273
                        0.17633 -0.0222105 0.493093
                        0.100427 -0.0552761 0.233673
                        0.123682 -0.0601583 0.363686
                        0.164473 -0.0769181 0.487955
                        0.0596038 0.0928214 0.237111
                        0.0836826 0.0865187 0.385917
                        0.126011 0.0658917 0.529578
                        -0.0473582 0.0928214 0.248271
                        0.00612278 0.108933 0.242691
                        -0.0208826 0.0837776 0.412611
                        0.0314 0.101237 0.400916
                        0.0256594 0.0574209 0.569987
                        0.0758353 0.0775682 0.553118
                        -0.0879959 -0.0552804 0.25334
                        -0.100778 -0.000541494 0.254431
                        -0.0605025 -0.0645353 0.40607
                        -0.0730407 -0.0104998 0.415214
                        -0.0122766 -0.0903825 0.552026
                        -0.024344 -0.0381069 0.568813
                        -0.0880763 0.0541887 0.25282
                        -0.0606669 0.0442248 0.418373
                        -0.0125044 0.0162607 0.576597
                        -0.0472415 -0.093906 0.249384
                        -0.0206442 -0.101877 0.39275
                        0.0259897 -0.124918 0.529884
                        0.0908009 -0.204858 0.999041
                        0.100803 -0.165086 0.976309
                        0.252494 -0.216568 1.06169
                        0.237336 -0.26542 1.03729
                        0.0992351 -0.238734 1.03067
                        0.262244 -0.175094 1.04242
                        0.227237 -0.113259 1.06911
                        0.147446 -0.146488 0.939633
                        0.186174 -0.122336 0.952694
                        0.144993 -0.273693 1.02995
                        0.198376 -0.28731 1.02715
                        0.224563 -0.120916 0.98099
                        0.187866 -0.137743 0.63622
                        0.138804 -0.152163 0.633301
                        0.18958 -0.000255028 0.597163
                        0.19896 -0.0430893 0.579701
                        0.208957 -0.0979923 0.612665
                        0.179038 0.0168147 0.663604
                        0.0838406 0.0122755 0.67395
                        0.139614 0.0228803 0.690182
                        0.0691129 -0.119986 0.682148
                        0.0599641 -0.0784544 0.70286
                        0.0535138 -0.024021 0.679574
                        0.0727599 -0.131805 0.606076
                        0.124675 -0.143595 1.13995
                        0.0813756 -0.0467594 0.534008
                    </float_array>
                    <technique_common>
                        <accessor count="194" source="#Geometry-mesh016-positions-array" stride="3">
                            <param name="X" type="float" />
                            <param name="Y" type="float" />
                            <param name="Z" type="float" />
                        </accessor>
                    </technique_common>
                </source>
                <source id="Geometry-mesh016-normals" name="normals">
                    <float_array id="Geometry-mesh016-normals-array" count="969">
                        -0.429917 -0.902868 0
                        -0.81302 -0.582236 0
                        -0.568076 -0.822976 0
                        -0.911086 -0.412216 0
                        -0.996815 -0.0797453 0
                        -0.996815 0.0797453 0
                        -0.910798 0.412851 0
                        -0.812158 0.583438 0
                        -0.567635 0.823281 0
                        -0.431027 0.902339 0
                        -0.0995037 0.995037 0
                        0.0995037 0.995037 0
                        0.431027 0.902339 0
                        0.567635 0.823281 0
                        0.812158 0.583438 0
                        0.910798 0.412851 0
                        0.996815 0.0797453 0
                        0.996815 -0.0797453 0
                        0.911086 -0.412216 0
                        0.81302 -0.582236 0
                        0.568076 -0.822976 0
                        0.429917 -0.902868 0
                        0.0984775 -0.995139 0
                        -0.0984775 -0.995139 0
                        0 0 -1
                        0 0 1
                        -0.429917 -0.902869 0
                        -0.568077 -0.822976 0
                        -0.81302 -0.582236 0
                        -0.911086 -0.412216 0
                        -0.996815 -0.0797454 0
                        -0.996815 0.0797452 0
                        -0.910798 0.412851 0
                        -0.812158 0.583437 0
                        -0.567635 0.82328 0
                        -0.431027 0.902339 0
                        -0.0995036 0.995037 0
                        0.0995036 0.995037 0
                        0.431027 0.902339 0
                        0.567635 0.82328 0
                        0.812158 0.583437 0
                        0.910798 0.412851 0
                        0.996815 0.0797452 0
                        0.996815 -0.0797454 0
                        0.911086 -0.412216 0
                        0.81302 -0.582236 0
                        0.568077 -0.822976 0
                        0.429917 -0.902869 0
                        0.0984772 -0.995139 0
                        -0.0984772 -0.995139 0
                        -0.0477661 -0.0277048 0.998474
                        -0.032738 -0.0564726 0.997867
                        -0.0442568 -0.0260624 0.99868
                        -0.0310814 0.000641579 0.999517
                        -0.030559 0.00702829 0.999508
                        -0.00648164 0.00372366 0.999972
                        -0.00934066 0.00509613 0.999943
                        0.000738675 -0.000869464 0.999999
                        0.0035439 -0.00258445 0.99999
                        0 -0.00391918 0.999992
                        0 -0.00392173 0.999992
                        -0.00073868 -0.000869468 0.999999
                        -0.00354391 -0.00258445 0.99999
                        0.00648163 0.00372366 0.999972
                        0.00934064 0.00509613 0.999943
                        0.0310813 0.000641584 0.999517
                        0.030559 0.00702829 0.999508
                        0.047766 -0.0277047 0.998474
                        0.0442568 -0.0260624 0.99868
                        0.032738 -0.0564726 0.997867
                        0 -0.0679118 0.997691
                        9.31512e-010 -0.0675554 0.997716
                        0.0353989 -0.057951 0.997692
                        -0.0353989 -0.057951 0.997692
                        0.970466 0.0169022 -0.240644
                        0.974732 -0.141613 -0.172753
                        0.949995 -0.295915 -0.0997226
                        0.409901 -0.910172 0.0597354
                        0.461024 -0.884991 0.0651829
                        0.341436 -0.939403 0.0307288
                        0.31192 -0.950093 -0.0054234
                        0.214457 -0.976723 -0.00459063
                        0.494765 -0.868814 0.0192115
                        -0.350248 0.143534 -0.925594
                        -0.590179 -0.0956441 -0.801587
                        -0.497548 0.106865 -0.860829
                        -0.597168 -0.218115 -0.771891
                        -0.233282 0.491373 -0.839126
                        -0.173886 0.535571 -0.826394
                        -0.211915 0.466993 -0.858493
                        0.00689115 0.61958 -0.784903
                        0.0624088 0.608182 -0.791341
                        0.224434 0.478635 -0.848845
                        0.297774 0.643071 -0.705542
                        0.459157 0.614307 -0.641717
                        0.162632 0.633915 -0.75611
                        0.173847 -0.929595 0.325009
                        0.0104063 -0.831043 0.556111
                        0.13683 -0.928073 0.346349
                        -0.0412527 -0.765652 0.641931
                        0.762962 -0.600318 0.239808
                        0.764502 -0.60622 0.219166
                        0.85031 0.253198 0.461372
                        0.974804 0.161453 0.153918
                        0.988398 0.0903708 0.122073
                        0.987101 -0.117561 0.108682
                        0.965557 -0.246082 0.0845237
                        0.983207 -0.0877272 0.160022
                        -0.224786 0.436075 0.871384
                        -0.224957 0.494733 0.839425
                        -0.229414 0.572801 0.786936
                        -0.231913 0.593963 0.77034
                        -0.290609 0.514702 0.806615
                        -0.00529517 0.474928 0.880009
                        -0.31792 -0.416782 0.851599
                        0.474613 -0.815644 0.330857
                        0.309034 -0.889655 0.336172
                        -0.844834 0.528866 -0.0809681
                        -0.998135 0.0462641 -0.0398263
                        -0.91195 0.410299 -0.00128571
                        -0.99699 -0.0775327 -0.000728638
                        -0.884348 -0.466559 -0.0158886
                        -0.812516 -0.582939 6.90473e-005
                        0.841248 0.540417 0.0158494
                        0.911948 0.410306 0.000235728
                        0.998536 0.00447932 0.0539019
                        0.996991 -0.0775197 0.000815694
                        -0.540656 -0.841016 0.0195944
                        -0.430261 -0.902704 0.000735764
                        -0.0971874 -0.993888 0.0523596
                        0.47161 -0.879549 0.0630672
                        0.0994602 -0.995041 0.00120915
                        0.500028 -0.866008 0.00133901
                        -0.00239913 0.998641 -0.0520551
                        0.0992904 0.995058 -0.00108794
                        0.45872 0.888362 -0.0197262
                        0.566574 0.824011 -0.000480241
                        0.00213656 -0.980269 -0.197655
                        0.494773 -0.786718 -0.369155
                        0.0950491 -0.951456 -0.29274
                        0.46839 -0.772288 -0.429165
                        0.934263 0.0664201 -0.350345
                        0.901324 0.0210011 -0.432637
                        0.828575 -0.369883 -0.420298
                        0.733 -0.480613 -0.481375
                        -0.506682 0.789511 0.346332
                        -0.45487 0.783637 0.423091
                        -0.0435842 0.973567 0.224204
                        -0.0155993 0.965581 0.259633
                        -0.931533 -0.0831381 0.354025
                        -0.778093 -0.597985 0.192317
                        -0.901917 -0.197015 0.384359
                        -0.775288 -0.593295 0.216633
                        -0.83068 0.286291 0.477503
                        -0.812144 0.417241 0.407837
                        -0.42817 -0.903642 -0.0101126
                        -0.456661 -0.889548 -0.0128469
                        0.524556 -0.40554 -0.748584
                        0.548068 -0.361942 -0.754068
                        0.52162 -0.354704 -0.77595
                        0.501542 -0.317135 -0.804911
                        0.356934 -0.525126 -0.772555
                        0.426972 -0.530892 -0.732017
                        0.287325 -0.446437 -0.847431
                        0.508795 -0.516487 -0.688744
                        0.447554 -0.531353 -0.719277
                        -0.139158 -0.229831 0.96323
                        0.259025 -0.201848 0.944544
                        -0.135775 -0.185706 0.97318
                        0.0788226 -0.448364 0.890369
                        -0.066086 -0.30732 0.949309
                        0.078881 -0.340776 0.936829
                        -0.845076 0.272025 -0.460271
                        -0.94737 -0.0748212 -0.311276
                        -0.854201 0.432504 -0.288583
                        -0.985667 -0.070287 -0.153363
                        -0.833461 -0.543299 -0.100843
                        -0.851365 -0.522092 -0.0509605
                        0.792845 0.606421 0.0604191
                        0.874856 0.478221 0.0770188
                        0.936542 0.16497 0.309313
                        0.982502 0.0408568 0.181715
                        -0.516925 -0.85294 0.072673
                        -0.464603 -0.870352 0.163193
                        0.00567304 -0.980367 0.197098
                        0.00756295 -0.928519 0.371209
                        0.495835 -0.827605 0.263092
                        0.503054 -0.706056 0.498419
                        -0.00690991 0.92886 -0.370367
                        -0.00597957 0.980566 -0.1961
                        0.468172 0.86889 -0.160763
                        0.517984 0.852487 -0.0704201
                        -0.0984465 -0.995042 -0.014125
                        0.427864 -0.901269 -0.0681581
                        0.0037269 -0.995387 -0.0958707
                        0.488017 -0.848865 -0.203142
                        0.969723 0.0998988 -0.222839
                        0.861398 -0.43312 -0.26533
                        0.991351 -0.0752631 -0.107511
                        0.807883 -0.580727 -0.100407
                        -0.489329 0.848453 0.201704
                        -0.00374332 0.9955 0.0946911
                        -0.497863 0.86444 0.0698336
                        -0.00101387 0.999849 0.0173257
                        -0.994217 -0.00365805 0.107326
                        -0.8879 -0.450015 0.095496
                        -0.971318 -0.0306411 0.2358
                        -0.837729 -0.522804 0.157756
                        -0.844811 0.471306 0.253307
                        -0.862225 0.496093 0.102273
                        -0.562625 -0.825761 0.0396328
                        -0.481404 -0.87583 0.0342463
                        0.158108 -0.685047 -0.711135
                        -0.14198 -0.754244 -0.641059
                        0.106648 -0.660343 -0.743353
                        -0.285285 -0.658282 -0.696619
                        0.00723165 -0.691441 -0.722396
                        0.251749 -0.388688 -0.886309
                        -0.0878604 -0.28991 -0.953013
                        0.0783896 -0.344551 -0.935489
                        -0.0449869 -0.1114 -0.992757
                        0.641064 -0.733006 0.22746
                        0.785844 -0.59394 0.172292
                        0.945929 -0.289463 0.146388
                        0.465886 -0.316154 -0.826436
                        0.464621 -0.293177 -0.835568
                        0.124962 -0.239011 -0.962942
                        0.0443045 0.0786741 -0.995915
                        -0.00169751 0.0867133 -0.996232
                        -0.0159575 -0.0662094 -0.997678
                        -0.34373 -0.0147367 0.938953
                        -0.20446 0.21896 0.954072
                        -0.749278 0.354569 -0.559342
                        -0.910836 -0.200194 -0.36097
                        -0.730034 -0.682901 -0.0263936
                        0.796875 0.595995 0.0988954
                        0.910764 0.199196 0.361705
                        -0.380085 -0.888008 0.2588
                        0.107586 -0.86161 0.496037
                        0.483251 -0.651015 0.585362
                        -0.105304 0.860009 -0.499295
                        0.386842 0.88439 -0.261165
                        0.0995006 -0.99503 -0.00378893
                        0.566618 -0.823659 -0.0230343
                        0.911548 -0.409528 -0.0369815
                        0.996171 0.0775871 -0.0403016
                        -0.430309 0.90251 0.0175797
                        0.0994834 0.99503 -0.00425092
                        -0.996101 0.0776672 0.0418324
                        -0.866126 -0.498475 0.0367272
                        -0.812118 0.582519 0.0337152
                        -0.430342 -0.902479 0.0183844
                        0.237539 -0.637508 -0.732911
                        0.571639 -0.020969 -0.820237
                        0.536017 -0.196862 -0.820933
                        0.582262 0.00265782 0.812997
                        0.497073 -0.288491 0.818347
                        0.521424 -0.286057 0.803921
                        0.866321 -0.494 0.0738352
                        0.812574 -0.582857 0.001244
                        -0.460062 0.883636 -0.0867758
                        -0.500116 0.865957 -0.00147878
                        0.819786 0.537489 -0.197627
                        0.792327 0.564829 -0.23062
                        0.466701 0.884381 -0.00771227
                        0.391302 0.918584 0.0555512
                        0.437501 -0.258508 -0.861259
                        0.56083 -0.0656859 -0.825321
                        0.628426 0.138814 -0.765383
                        0.528729 -0.0588284 0.846749
                        0.526215 0.143248 0.838199
                        0.678993 0.176945 0.712502
                        0.385108 0.401179 0.831112
                        0.515114 0.158983 0.842248
                        0.515631 0.352327 0.781019
                        0.619672 -0.459859 0.636031
                        0.700515 -0.379903 0.604113
                        0.620115 -0.537892 0.571078
                        0.896606 -0.373323 0.238177
                        0.80031 -0.516358 0.30476
                        0.853735 -0.452755 0.257196
                        -0.497167 0.827172 -0.261937
                        0.815151 0.562484 -0.138351
                        0.48342 0.874656 -0.035819
                        0.395234 -0.443577 -0.804381
                        0.368757 -0.452367 -0.812024
                        0.452919 -0.156585 -0.877693
                        0.0554359 -0.355348 0.933089
                        0.263022 -0.350978 0.898685
                        0.57754 -0.388844 0.717808
                        0.484965 -0.233426 0.842806
                        0.476606 -0.240368 0.845618
                        0.844057 -0.319751 0.430496
                        -0.503695 0.704933 -0.499361
                        0.882742 0.463216 -0.0787233
                        0.49639 0.867276 -0.0377921
                        -0.100543 0.247995 -0.96353
                        0.041516 0.367914 -0.928933
                        -0.176334 0.269036 -0.946851
                        0.18209 0.474677 -0.861119
                        0.201554 -0.235221 0.950814
                        0.204263 -0.320521 0.924956
                        0.224856 -0.531752 0.816505
                        -0.0304881 -0.718331 0.695033
                        0.327374 0.457143 0.82695
                        0.222247 0.505007 0.834011
                        0.521441 0.359225 0.773988
                        0.652024 0.213648 0.727474
                        0.480145 0.478532 0.735165
                        0.786396 -0.284925 0.548087
                        -0.482288 0.654284 -0.582504
                        0.866213 0.498443 -0.0350567
                        0.566595 0.823672 -0.0231137
                        0.64356 -0.764634 -0.0341472
                        0.649688 -0.759989 0.0179625
                        0.779004 -0.626931 -0.0104715
                        0.88495 -0.465488 0.0136007
                        0.317269 -0.231935 0.919536
                        0.603397 -0.366847 0.708051
                        0.522583 -0.216652 0.824602
                        0.482961 -0.030985 0.875094
                        0.714713 0.0347163 0.698556
                        0.648309 0.070683 0.75809
                    </float_array>
                    <technique_common>
                        <accessor count="323" source="#Geometry-mesh016-normals-array" stride="3">
                            <param name="X" type="float" />
                            <param name="Y" type="float" />
                            <param name="Z" type="float" />
                        </accessor>
                    </technique_common>
                </source>
                <source id="Geometry-mesh016-uvSet1" name="uvSet1">
                    <float_array id="Geometry-mesh016-uvSet1-array" count="436">
                        0.883155 0.098767
                        0.883092 0.180223
                        0.828611 0.098767
                        0.828547 0.180222
                        0.883017 0.261566
                        0.828473 0.261566
                        0.882943 0.343013
                        0.828398 0.343013
                        0.883213 0.424541
                        0.828668 0.424541
                        0.883475 0.506947
                        0.828932 0.506947
                        0.883398 0.578348
                        0.828853 0.578349
                        0.883326 0.651882
                        0.828781 0.651882
                        0.883247 0.734623
                        0.828703 0.734623
                        0.883169 0.817298
                        0.828624 0.817298
                        0.883105 0.89994
                        0.828561 0.89994
                        0.883029 0.982366
                        0.828485 0.982366
                        0.883234 0.016374
                        0.82869 0.016374
                        0.819358 0.180223
                        0.81939 0.098767
                        0.819046 0.261566
                        0.818797 0.343012
                        0.819119 0.424541
                        0.819448 0.506948
                        0.819408 0.578349
                        0.819372 0.651882
                        0.819333 0.734623
                        0.819294 0.817298
                        0.819263 0.89994
                        0.819224 0.982366
                        0.81943 0.016374
                        0.896609 0.067148
                        0.916223 0.030099
                        0.942073 0.014651
                        0.890374 0.119645
                        0.896609 0.172142
                        0.916223 0.209191
                        0.942073 0.224639
                        0.967923 0.209191
                        0.987537 0.172142
                        0.993772 0.119645
                        0.987537 0.067148
                        0.967923 0.030099
                        0.909588 0.386155
                        0.908741 0.355642
                        0.939878 0.365623
                        0.913903 0.328284
                        0.930398 0.307449
                        0.941318 0.304099
                        0.959101 0.310795
                        0.975071 0.341902
                        0.981367 0.383748
                        0.969524 0.41911
                        0.953742 0.441791
                        0.935195 0.442761
                        0.916843 0.424897
                        0.950378 0.447549
                        0.932825 0.449005
                        0.940594 0.379806
                        0.920068 0.439459
                        0.912606 0.412027
                        0.907068 0.384084
                        0.912326 0.340486
                        0.925584 0.313366
                        0.950376 0.311229
                        0.973121 0.327702
                        0.978485 0.355792
                        0.978563 0.399624
                        0.968882 0.430295
                        0.718372 0.343012
                        0.718587 0.261566
                        0.718857 0.180223
                        0.718842 0.651882
                        0.718808 0.734623
                        0.718885 0.098767
                        0.718714 0.982366
                        0.718748 0.89994
                        0.718908 0.506948
                        0.718873 0.578349
                        0.254792 0.982366
                        0.254802 0.89994
                        0.316673 0.982366
                        0.326135 0.89994
                        0.254819 0.734623
                        0.295635 0.73452
                        0.254809 0.817298
                        0.316696 0.817298
                        0.254844 0.424541
                        0.302109 0.424169
                        0.254847 0.506947
                        0.316747 0.506947
                        0.254903 0.261565
                        0.25498 0.180223
                        0.316753 0.261565
                        0.316855 0.180223
                        0.302191 0.342673
                        0.254841 0.343013
                        0.254987 0.098767
                        0.292308 0.098767
                        0.964226 0.301643
                        0.940651 0.287231
                        0.897663 0.352771
                        0.898019 0.395469
                        0.951603 0.29764
                        0.979654 0.315925
                        0.517521 0.343012
                        0.51767 0.261566
                        0.617946 0.343012
                        0.618129 0.261566
                        0.517856 0.180223
                        0.618357 0.180223
                        0.517782 0.651882
                        0.618312 0.651882
                        0.517759 0.734623
                        0.618284 0.734623
                        0.61838 0.098767
                        0.517875 0.098767
                        0.618204 0.982366
                        0.517694 0.982366
                        0.618232 0.89994
                        0.517717 0.89994
                        0.517828 0.506948
                        0.618368 0.506948
                        0.517804 0.578349
                        0.618338 0.578349
                        0.131029 0.982366
                        0.131033 0.89994
                        0.192911 0.982366
                        0.192917 0.89994
                        0.192929 0.734623
                        0.192922 0.817298
                        0.131038 0.734623
                        0.131035 0.817298
                        0.192979 0.424541
                        0.192948 0.506947
                        0.131115 0.424541
                        0.131048 0.506947
                        0.131204 0.261565
                        0.13123 0.180223
                        0.193053 0.261565
                        0.193105 0.180223
                        0.193012 0.343013
                        0.131183 0.343013
                        0.131231 0.098767
                        0.193109 0.098767
                        0.905894 0.317522
                        0.925979 0.296399
                        0.93349 0.456183
                        0.912319 0.43392
                        0.901868 0.330653
                        0.920275 0.302658
                        0.43242 0.343238
                        0.433069 0.261565
                        0.433785 0.179193
                        0.445657 0.651882
                        0.417234 0.734623
                        0.41737 0.098767
                        0.401868 0.982634
                        0.401625 0.90051
                        0.417287 0.506947
                        0.417269 0.578349
                        0.0691482 0.982366
                        0.0691482 0.89994
                        0.0691482 0.817298
                        0.0691482 0.734623
                        0.0692512 0.424541
                        0.0691482 0.506947
                        0.0693542 0.261565
                        0.0693542 0.180223
                        0.0693542 0.343013
                        0.0693532 0.098767
                        0.956191 0.45478
                        0.894629 0.383151
                        0.718774 0.817298
                        0.718637 0.424541
                        0.71892 0.016374
                        0.254829 0.651882
                        0.296575 0.651231
                        0.254838 0.578349
                        0.316734 0.578349
                        0.254998 0.016374
                        0.316879 0.016374
                        0.977193 0.433677
                        0.900825 0.42268
                        0.976153 0.438498
                        0.955565 0.460991
                        0.618255 0.817298
                        0.618154 0.424541
                        0.61841 0.016374
                        0.192935 0.651882
                        0.192941 0.578349
                        0.193117 0.016374
                        0.995803 0.385983
                        0.911842 0.454442
                        0.987605 0.406454
                        0.517735 0.817298
                        0.517672 0.424541
                        0.5179 0.016374
                        0.131042 0.651882
                        0.131045 0.578349
                        0.131235 0.016374
                        0.983685 0.334006
                        0.930526 0.465376
                        0.990625 0.35247
                        0.417216 0.817298
                        0.41719 0.424541
                        0.402097 0.016602
                        0.0691482 0.651882
                        0.0691482 0.578349
                        0.0693542 0.016374
                    </float_array>
                    <technique_common>
                        <accessor count="218" source="#Geometry-mesh016-uvSet1-array" stride="2">
                            <param name="S" type="float" />
                            <param name="T" type="float" />
                        </accessor>
                    </technique_common>
                </source>
                <source id="Geometry-mesh016-Falloff" name="Falloff">
                    <float_array id="Geometry-mesh016-Falloff-array" count="2">
                        0
                        1
                    </float_array>
                    <technique_common>
                        <accessor count="2" source="#Geometry-mesh016-Falloff-array" stride="1">
                            <param name="WEIGHT" type="float" />
                        </accessor>
                    </technique_common>
                </source>
                <vertices id="Geometry-mesh016-vertices">
                    <input semantic="POSITION" source="#Geometry-mesh016-positions" />
                </vertices>
                <polylist count="380" material="Material-pipe_turn_broken_slim">
                    <input semantic="VERTEX" source="#Geometry-mesh016-vertices" offset="0" />
                    <input semantic="NORMAL" source="#Geometry-mesh016-normals" offset="1" />
                    <input semantic="TEXCOORD" source="#Geometry-mesh016-uvSet1" offset="2" set="0" />
                    <input semantic="WEIGHT" source="#Geometry-mesh016-Falloff" offset="3" set="0" />
                    <vcount>3 3 3 3 3 3 3 3 3 3 3 3 3 3 3 3 3 3 3 3 3 3 3 3 3 3 3 3 3 3 3 3 3 3 3 3 3 3 3 3 3 3 3 3 3 3 3 3 3 3 3 3 3 3 3 3 3 3 3 3 3 3 3 3 3 3 3 3 3 3 3 3 3 3 3 3 3 3 3 3 3 3 3 3 3 3 3 3 3 3 3 3 3 3 3 3 3 3 3 3 3 3 3 3 3 3 3 3 3 3 3 3 3 3 3 3 3 3 3 3 3 3 3 3 3 3 3 3 3 3 3 3 3 3 3 3 3 3 3 3 3 3 3 3 3 3 3 3 3 3 3 3 3 3 3 3 3 3 3 3 3 3 3 3 3 3 3 3 3 3 3 3 3 3 3 3 3 3 3 3 3 3 3 3 3 3 3 3 3 3 3 3 3 3 3 3 3 3 3 3 3 3 3 3 3 3 3 3 3 3 3 3 3 3 3 3 3 3 3 3 3 3 3 3 3 3 3 3 3 3 3 3 3 3 3 3 3 3 3 3 3 3 3 3 3 3 3 3 3 3 3 3 3 3 3 3 3 3 3 3 3 3 3 3 3 3 3 3 3 3 3 3 3 3 3 3 3 3 3 3 3 3 3 3 3 3 3 3 3 3 3 3 3 3 3 3 3 3 3 3 3 3 3 3 3 3 3 3 3 3 3 3 3 3 3 3 3 3 3 3 3 3 3 3 3 3 3 3 3 3 3 3 3 3 3 3 3 3 3 3 3 3 3 3 3 3 3 3 3 3 3 3 3 3 3 3 3 3 3 3 3 3 3 3 3 3 3 3 3 3 3 3 3 3 3 3 3 3 3 3</vcount>
                    <p>0 0 0 0 1 1 1 0 12 2 2 0 12 2 2 0 1 1 1 0 13 3 3 0 1 1 1 0 2 4 4 0 13 3 3 0 13 3 3 0 2 4 4 0 14 5 5 0 2 4 4 0 3 6 6 0 14 5 5 0 14 5 5 0 3 6 6 0 15 7 7 0 3 6 6 0 4 8 8 0 15 7 7 0 15 7 7 0 4 8 8 0 16 9 9 0 4 8 8 0 5 10 10 0 16 9 9 0 16 9 9 0 5 10 10 0 17 11 11 0 5 10 10 0 6 12 12 0 17 11 11 0 17 11 11 0 6 12 12 0 18 13 13 0 6 12 12 0 7 14 14 0 18 13 13 0 18 13 13 0 7 14 14 0 19 15 15 0 7 14 14 0 8 16 16 0 19 15 15 0 19 15 15 0 8 16 16 0 20 17 17 0 8 16 16 0 9 18 18 0 20 17 17 0 20 17 17 0 9 18 18 0 21 19 19 0 9 18 18 0 10 20 20 0 21 19 19 0 21 19 19 0 10 20 20 0 22 21 21 0 10 20 20 0 11 22 22 0 22 21 21 0 22 21 21 0 11 22 22 0 23 23 23 0 11 22 24 0 0 0 0 0 23 23 25 0 23 23 25 0 0 0 0 0 12 2 2 0 13 24 3 0 25 24 26 0 12 24 2 0 12 24 2 0 25 24 26 0 24 24 27 0 13 24 3 0 14 24 5 0 25 24 26 0 25 24 26 0 14 24 5 0 26 24 28 0 15 24 7 0 27 24 29 0 14 24 5 0 14 24 5 0 27 24 29 0 26 24 28 0 15 24 7 0 16 24 9 0 27 24 29 0 27 24 29 0 16 24 9 0 28 24 30 0 17 24 11 0 29 24 31 0 16 24 9 0 16 24 9 0 29 24 31 0 28 24 30 0 17 24 11 0 18 24 13 0 29 24 31 0 29 24 31 0 18 24 13 0 30 24 32 0 19 24 15 0 31 24 33 0 18 24 13 0 18 24 13 0 31 24 33 0 30 24 32 0 19 24 15 0 20 24 17 0 31 24 33 0 31 24 33 0 20 24 17 0 32 24 34 0 21 24 19 0 33 24 35 0 20 24 17 0 20 24 17 0 33 24 35 0 32 24 34 0 21 24 19 0 22 24 21 0 33 24 35 0 33 24 35 0 22 24 21 0 34 24 36 0 23 24 23 0 35 24 37 0 22 24 21 0 22 24 21 0 35 24 37 0 34 24 36 0 23 24 25 0 12 24 2 0 35 24 38 0 35 24 38 0 12 24 2 0 24 24 27 0 1 25 39 0 0 25 40 0 11 25 41 0 2 25 42 0 1 25 39 0 11 25 41 0 3 25 43 0 2 25 42 0 11 25 41 0 4 25 44 0 3 25 43 0 11 25 41 0 5 25 45 0 4 25 44 0 11 25 41 0 6 25 46 0 5 25 45 0 11 25 41 0 7 25 47 0 6 25 46 0 11 25 41 0 8 25 48 0 7 25 47 0 11 25 41 0 9 25 49 0 8 25 48 0 11 25 41 0 10 25 50 0 9 25 49 0 11 25 41 0 36 26 0 0 48 27 2 0 37 28 1 0 48 27 2 0 49 29 3 0 37 28 1 0 37 28 1 0 49 29 3 0 38 30 4 0 49 29 3 0 50 31 5 0 38 30 4 0 38 30 4 0 50 31 5 0 39 32 6 0 50 31 5 0 51 33 7 0 39 32 6 0 39 32 6 0 51 33 7 0 40 34 8 0 51 33 7 0 52 35 9 0 40 34 8 0 40 34 8 0 52 35 9 0 41 36 10 0 52 35 9 0 53 37 11 0 41 36 10 0 41 36 10 0 53 37 11 0 42 38 12 0 53 37 11 0 54 39 13 0 42 38 12 0 42 38 12 0 54 39 13 0 43 40 14 0 54 39 13 0 55 41 15 0 43 40 14 0 43 40 14 0 55 41 15 0 44 42 16 0 55 41 15 0 56 43 17 0 44 42 16 0 44 42 16 0 56 43 17 0 45 44 18 0 56 43 17 0 57 45 19 0 45 44 18 0 45 44 18 0 57 45 19 0 46 46 20 0 57 45 19 0 58 47 21 0 46 46 20 0 46 46 20 0 58 47 21 0 47 48 22 0 58 47 21 0 59 49 23 0 47 48 22 0 47 48 24 0 59 49 25 0 36 26 0 0 59 49 25 0 48 27 2 0 36 26 0 0 37 24 39 0 47 24 41 0 36 24 40 0 38 24 42 0 47 24 41 0 37 24 39 0 39 24 43 0 47 24 41 0 38 24 42 0 40 24 44 0 47 24 41 0 39 24 43 0 41 24 45 0 47 24 41 0 40 24 44 0 42 24 46 0 47 24 41 0 41 24 45 0 43 24 47 0 47 24 41 0 42 24 46 0 44 24 48 0 47 24 41 0 43 24 47 0 45 24 49 0 47 24 41 0 44 24 48 0 46 24 50 0 47 24 41 0 45 24 49 0 49 50 3 0 48 51 2 0 60 52 26 0 49 50 3 0 60 52 26 0 50 53 5 0 60 52 26 0 61 54 28 0 50 53 5 0 51 55 7 0 50 53 5 0 62 56 29 0 50 53 5 0 61 54 28 0 62 56 29 0 51 55 7 0 62 56 29 0 52 57 9 0 62 56 29 0 63 58 30 0 52 57 9 0 53 59 11 0 52 57 9 0 64 60 31 0 52 57 9 0 63 58 30 0 64 60 31 0 53 59 11 0 64 60 31 0 54 61 13 0 64 60 31 0 65 62 32 0 54 61 13 0 55 63 15 0 54 61 13 0 66 64 33 0 54 61 13 0 65 62 32 0 66 64 33 0 55 63 15 0 66 64 33 0 56 65 17 0 66 64 33 0 67 66 34 0 56 65 17 0 57 67 19 0 56 65 17 0 68 68 35 0 56 65 17 0 67 66 34 0 68 68 35 0 57 67 19 0 68 68 35 0 58 69 21 0 59 70 23 0 58 69 21 0 71 71 37 0 58 69 21 0 70 72 36 0 71 71 37 0 59 70 25 0 71 71 38 0 48 51 2 0 71 71 38 0 69 73 27 0 48 51 2 0 48 51 2 0 69 73 27 0 60 52 26 0 68 68 35 0 70 72 36 0 58 69 21 0 172 74 51 0 168 75 52 0 192 75 53 0 168 75 52 0 169 76 54 0 192 75 53 0 169 77 54 0 175 78 55 0 192 79 53 0 175 78 55 0 176 80 56 0 192 79 53 0 176 80 56 0 179 81 57 0 192 79 53 0 179 81 57 0 174 82 58 0 192 79 53 0 174 83 58 0 173 84 59 0 192 85 53 0 173 84 59 0 170 86 60 0 192 84 53 0 170 87 60 0 171 88 61 0 192 89 53 0 171 88 61 0 178 90 62 0 192 91 53 0 178 90 62 0 177 92 63 0 192 91 53 0 177 93 63 0 172 94 51 0 192 95 53 0 185 96 64 0 187 97 65 0 193 98 66 1 187 97 65 0 186 99 67 0 193 98 66 1 186 100 67 0 190 100 68 0 193 101 66 1 190 102 68 0 189 103 69 0 193 104 66 1 189 103 69 0 188 105 70 0 193 104 66 1 188 105 70 0 191 106 71 0 193 107 66 1 191 108 71 0 181 109 72 0 193 110 66 1 181 109 72 0 180 111 73 0 193 110 66 1 180 111 73 0 184 112 74 0 193 110 66 1 184 112 74 0 183 113 75 0 193 110 66 1 183 114 75 0 182 114 76 0 193 114 66 1 182 115 76 0 185 96 64 0 193 116 66 1 91 117 77 0 90 118 78 0 27 119 29 0 26 120 28 0 27 119 29 0 90 118 78 0 90 118 78 0 103 121 79 0 26 120 28 0 25 122 26 0 26 120 28 0 103 121 79 0 111 123 80 0 31 124 33 0 107 125 81 0 32 126 34 0 107 125 81 0 31 124 33 0 103 121 79 0 123 127 82 0 25 122 26 0 24 128 27 0 25 122 26 0 123 127 82 0 127 129 83 0 99 130 84 0 35 131 37 0 34 132 36 0 35 131 37 0 99 130 84 0 119 133 85 0 29 134 31 0 131 135 86 0 30 136 32 0 131 135 86 0 29 134 31 0 137 137 87 0 136 138 88 0 73 139 89 0 72 140 90 0 73 139 89 0 136 138 88 0 143 141 91 0 75 142 92 0 146 143 93 0 76 144 94 0 146 143 93 0 75 142 92 0 154 145 95 0 78 146 96 0 155 147 97 0 79 148 98 0 155 147 97 0 78 146 96 0 161 149 99 0 160 150 100 0 81 151 101 0 80 152 102 0 81 151 101 0 160 150 100 0 82 153 103 0 78 146 96 0 164 154 104 0 154 145 95 0 164 154 104 0 78 146 96 0 167 155 105 0 83 156 106 0 160 150 100 0 80 152 102 0 160 150 100 0 83 156 106 0 128 157 107 0 179 158 57 0 113 159 108 0 176 160 56 0 113 159 108 0 179 158 57 0 84 161 109 0 168 162 52 0 100 163 110 0 172 164 51 0 100 165 110 0 168 162 52 0 73 166 111 0 72 167 112 0 181 168 72 0 180 169 73 0 181 170 72 0 72 171 112 0 87 172 113 0 86 173 114 0 89 174 115 0 88 175 116 0 89 174 115 0 86 173 114 0 86 173 114 0 101 176 117 0 88 175 116 0 102 177 118 0 88 175 116 0 101 176 117 0 109 178 119 0 110 179 120 0 105 180 121 0 106 181 122 0 105 180 121 0 110 179 120 0 102 177 118 0 101 176 117 0 122 182 123 0 121 183 124 0 122 182 123 0 101 176 117 0 126 184 125 0 125 185 126 0 97 186 127 0 95 187 128 0 97 186 127 0 125 185 126 0 115 188 129 0 117 189 130 0 129 190 131 0 130 191 132 0 129 190 131 0 117 189 130 0 133 192 133 0 132 193 134 0 135 194 135 0 134 195 136 0 135 194 135 0 132 193 134 0 141 196 137 0 145 197 138 0 139 198 139 0 144 199 140 0 139 198 139 0 145 197 138 0 152 200 141 0 153 201 142 0 150 202 143 0 151 203 144 0 150 202 143 0 153 201 142 0 157 204 145 0 156 205 146 0 159 206 147 0 158 207 148 0 159 206 147 0 156 205 146 0 163 208 149 0 152 200 141 0 162 209 150 0 150 202 143 0 162 209 150 0 152 200 141 0 156 205 146 0 165 210 151 0 158 207 148 0 166 211 152 0 158 207 148 0 165 210 151 0 85 212 153 0 112 213 154 0 169 214 54 0 175 215 55 0 169 216 54 0 112 213 154 0 124 217 155 0 120 218 156 0 178 219 62 0 177 220 63 0 178 219 62 0 120 218 156 0 80 221 157 0 83 222 158 0 188 222 70 0 191 106 71 0 188 223 70 0 83 222 158 0 89 174 115 0 88 175 116 0 91 117 77 0 90 118 78 0 91 117 77 0 88 175 116 0 90 118 78 0 88 175 116 0 103 121 79 0 102 177 118 0 103 121 79 0 88 175 116 0 110 179 120 0 111 123 80 0 106 181 122 0 107 125 81 0 106 181 122 0 111 123 80 0 102 177 118 0 122 182 123 0 103 121 79 0 123 127 82 0 103 121 79 0 122 182 123 0 127 129 83 0 126 184 125 0 99 130 84 0 97 186 127 0 99 130 84 0 126 184 125 0 117 189 130 0 119 133 85 0 130 191 132 0 131 135 86 0 130 191 132 0 119 133 85 0 135 194 135 0 134 195 136 0 137 137 87 0 136 138 88 0 137 137 87 0 134 195 136 0 141 196 137 0 143 141 91 0 145 197 138 0 146 143 93 0 145 197 138 0 143 141 91 0 154 145 95 0 155 147 97 0 152 200 141 0 153 201 142 0 152 200 141 0 155 147 97 0 159 206 147 0 158 207 148 0 161 149 99 0 160 150 100 0 161 149 99 0 158 207 148 0 164 154 104 0 154 145 95 0 163 208 149 0 152 200 141 0 163 208 149 0 154 145 95 0 158 207 148 0 166 211 152 0 160 150 100 0 167 155 105 0 160 150 100 0 166 211 152 0 113 159 108 0 176 160 56 0 112 224 154 0 175 225 55 0 112 224 154 0 176 160 56 0 120 218 156 0 100 226 110 0 177 220 63 0 172 227 51 0 177 228 63 0 100 229 110 0 73 166 111 0 181 168 72 0 83 230 158 0 191 108 71 0 83 230 158 0 181 231 72 0 85 232 159 0 84 233 160 0 87 172 113 0 86 173 114 0 87 172 113 0 84 233 160 0 86 173 114 0 84 233 160 0 101 176 117 0 100 234 161 0 101 176 117 0 84 233 160 0 109 178 119 0 105 180 121 0 108 235 162 0 104 236 163 0 108 235 162 0 105 180 121 0 101 176 117 0 100 234 161 0 121 183 124 0 120 237 164 0 121 183 124 0 100 234 161 0 125 185 126 0 124 238 165 0 95 187 128 0 93 239 166 0 95 187 128 0 124 238 165 0 113 240 167 0 115 188 129 0 128 241 168 0 129 190 131 0 128 241 168 0 115 188 129 0 133 192 133 0 71 242 169 0 132 193 134 0 70 243 170 0 132 193 134 0 71 242 169 0 144 199 140 0 68 244 171 0 139 198 139 0 67 245 172 0 139 198 139 0 68 244 171 0 150 202 143 0 151 203 144 0 63 246 173 0 64 247 174 0 63 246 173 0 151 203 144 0 61 248 175 0 60 249 176 0 157 204 145 0 156 205 146 0 157 204 145 0 60 249 176 0 162 209 150 0 150 202 143 0 62 250 177 0 63 246 173 0 62 250 177 0 150 202 143 0 156 205 146 0 60 249 176 0 165 210 151 0 69 251 178 0 165 210 151 0 60 249 176 0 85 212 153 0 169 214 54 0 84 161 109 0 168 162 52 0 84 161 109 0 169 252 54 0 93 253 179 0 124 217 155 0 171 254 61 0 178 219 62 0 171 254 61 0 124 217 155 0 81 255 180 0 80 256 157 0 189 256 69 0 188 257 70 0 189 256 69 0 80 256 157 0 98 258 181 0 33 259 35 0 99 130 84 0 34 132 36 0 99 130 84 0 33 259 35 0 107 125 81 0 32 126 34 0 98 258 181 0 33 259 35 0 98 258 181 0 32 126 34 0 118 260 182 0 28 261 30 0 119 133 85 0 29 134 31 0 119 133 85 0 28 261 30 0 123 127 82 0 127 129 183 0 24 128 27 0 35 131 38 0 24 128 27 0 127 129 183 0 118 260 182 0 91 117 77 0 28 261 30 0 27 119 29 0 28 261 30 0 91 117 77 0 131 135 86 0 30 136 32 0 111 123 80 0 31 124 33 0 111 123 80 0 30 136 32 0 142 262 184 0 74 263 185 0 143 141 91 0 75 142 92 0 143 141 91 0 74 263 185 0 142 262 184 0 149 264 186 0 74 263 185 0 77 265 187 0 74 263 185 0 149 264 186 0 79 148 98 0 77 265 187 0 155 147 97 0 149 264 186 0 155 147 97 0 77 265 187 0 164 154 104 0 161 149 99 0 82 153 103 0 81 151 101 0 82 153 103 0 161 149 99 0 72 140 90 0 136 138 88 0 76 144 94 0 146 143 93 0 76 144 94 0 136 138 88 0 167 155 105 0 137 137 188 0 83 156 106 0 73 139 189 0 83 156 106 0 137 137 188 0 92 266 190 0 93 253 179 0 170 267 60 0 171 254 61 0 170 268 60 0 93 253 179 0 82 269 191 0 81 270 180 0 190 271 68 0 189 272 69 0 190 273 68 0 81 274 180 0 74 275 192 0 77 276 193 0 182 277 76 0 185 278 64 0 182 279 76 0 77 279 193 0 96 280 194 0 98 258 181 0 97 186 127 0 99 130 84 0 97 186 127 0 98 258 181 0 106 181 122 0 107 125 81 0 96 280 194 0 98 258 181 0 96 280 194 0 107 125 81 0 116 281 195 0 118 260 182 0 117 189 130 0 119 133 85 0 117 189 130 0 118 260 182 0 123 127 82 0 122 182 123 0 127 129 183 0 126 184 196 0 127 129 183 0 122 182 123 0 118 260 182 0 116 281 195 0 91 117 77 0 89 174 115 0 91 117 77 0 116 281 195 0 131 135 86 0 111 123 80 0 130 191 132 0 110 179 120 0 130 191 132 0 111 123 80 0 140 282 197 0 142 262 184 0 141 196 137 0 143 141 91 0 141 196 137 0 142 262 184 0 149 264 186 0 142 262 184 0 148 283 198 0 140 282 197 0 148 283 198 0 142 262 184 0 155 147 97 0 149 264 186 0 153 201 142 0 148 283 198 0 153 201 142 0 149 264 186 0 163 208 149 0 159 206 147 0 164 154 104 0 161 149 99 0 164 154 104 0 159 206 147 0 134 195 136 0 145 197 138 0 136 138 88 0 146 143 93 0 136 138 88 0 145 197 138 0 166 211 152 0 135 194 199 0 167 155 105 0 137 137 188 0 167 155 105 0 135 194 199 0 104 284 200 0 92 266 190 0 173 285 59 0 170 286 60 0 173 285 59 0 92 266 190 0 78 287 201 0 82 269 191 0 186 288 67 0 190 273 68 0 186 288 67 0 82 269 191 0 74 275 192 0 182 289 76 0 75 290 202 0 183 291 75 0 75 290 202 0 182 289 76 0 97 186 127 0 95 187 128 0 96 280 194 0 94 292 203 0 96 280 194 0 95 187 128 0 105 180 121 0 106 181 122 0 94 292 203 0 96 280 194 0 94 292 203 0 106 181 122 0 114 293 204 0 116 281 195 0 115 188 129 0 117 189 130 0 115 188 129 0 116 281 195 0 122 182 123 0 121 183 124 0 126 184 196 0 125 185 205 0 126 184 196 0 121 183 124 0 87 172 113 0 89 174 115 0 114 293 204 0 116 281 195 0 114 293 204 0 89 174 115 0 129 190 131 0 130 191 132 0 109 178 119 0 110 179 120 0 109 178 119 0 130 191 132 0 140 282 197 0 141 196 137 0 138 294 206 0 139 198 139 0 138 294 206 0 141 196 137 0 148 283 198 0 140 282 197 0 147 295 207 0 138 294 206 0 147 295 207 0 140 282 197 0 153 201 142 0 148 283 198 0 151 203 144 0 147 295 207 0 151 203 144 0 148 283 198 0 162 209 150 0 157 204 145 0 163 208 149 0 159 206 147 0 163 208 149 0 157 204 145 0 132 193 134 0 144 199 140 0 134 195 136 0 145 197 138 0 134 195 136 0 144 199 140 0 165 210 151 0 133 192 208 0 166 211 152 0 135 194 199 0 166 211 152 0 133 192 208 0 108 296 209 0 104 297 200 0 174 298 58 0 173 299 59 0 174 297 58 0 104 297 200 0 79 300 210 0 78 287 201 0 187 301 65 0 186 302 67 0 187 303 65 0 78 287 201 0 75 304 202 0 183 305 75 0 76 306 211 0 184 307 74 0 76 306 211 0 183 308 75 0 94 292 203 0 95 187 128 0 92 309 212 0 93 239 166 0 92 309 212 0 95 187 128 0 104 236 163 0 105 180 121 0 92 309 212 0 94 292 203 0 92 309 212 0 105 180 121 0 112 310 213 0 114 293 204 0 113 240 167 0 115 188 129 0 113 240 167 0 114 293 204 0 121 183 124 0 120 237 164 0 125 185 205 0 124 238 214 0 125 185 205 0 120 237 164 0 87 172 113 0 114 293 204 0 85 232 159 0 112 310 213 0 85 232 159 0 114 293 204 0 109 178 119 0 108 235 162 0 129 190 131 0 128 241 168 0 129 190 131 0 108 235 162 0 66 311 215 0 138 294 206 0 67 245 172 0 139 198 139 0 67 245 172 0 138 294 206 0 147 295 207 0 138 294 206 0 65 312 216 0 66 311 215 0 65 312 216 0 138 294 206 0 151 203 144 0 147 295 207 0 64 247 174 0 65 312 216 0 64 247 174 0 147 295 207 0 157 204 145 0 162 209 150 0 61 248 175 0 62 250 177 0 61 248 175 0 162 209 150 0 132 193 134 0 70 243 170 0 144 199 140 0 68 244 171 0 144 199 140 0 70 243 170 0 165 210 151 0 69 251 178 0 133 192 208 0 71 242 217 0 133 192 208 0 69 251 178 0 108 313 209 0 174 314 58 0 128 315 107 0 179 316 57 0 128 315 107 0 174 315 58 0 79 300 210 0 187 317 65 0 77 318 193 0 185 319 64 0 77 318 193 0 187 317 65 0 76 306 211 0 184 307 74 0 72 320 112 0 180 321 73 0 72 322 112 0 184 307 74 0</p>
                </polylist>
                <extra>
                    <technique profile="modo401">
                        <param sid="render" name="Render" type="Name">default</param>
                        <param sid="dissolve" name="Dissolve" type="float">0</param>
                        <param sid="curves" name="Render_Curves" type="bool">false</param>
                        <param sid="radius" name="Curve_Radius" type="float">0.05</param>
                    </technique>
                </extra>
            </mesh>
        </geometry>
    </library_geometries>
    <library_lights>
        <light id="Light-polyRender007" name="Render">
            <technique_common>
                <ambient>
                    <color sid="ambient_light_rgb">0.05 0.05 0.05</color>
                </ambient>
            </technique_common>
        </light>
        <light id="Light-sunLight008" name="Directional_Light">
            <technique_common>
                <directional>
                    <color sid="directional_light_rgb">1 1 1</color>
                </directional>
            </technique_common>
            <extra>
                <technique profile="modo401">
                    <param sid="lightType" name="Light_Type" type="Name">sun_light</param>
                    <param sid="render" name="Render" type="Name">default</param>
                    <param sid="visible" name="Display_Visible" type="Name">default</param>
                    <param sid="size" name="Display_Size" type="float">1</param>
                    <param sid="dissolve" name="Dissolve" type="float">0</param>
                    <param sid="radiance" name="Radiant_Intensity" type="float">3</param>
                    <param sid="samples" name="Samples" type="int">64</param>
                    <param sid="shadType" name="Shadow_Type" type="Name">raytrace</param>
                    <param sid="shadRes" name="Shadow_Resolution" type="int">1024</param>
                    <param sid="fast" name="Simple_Shading" type="bool">true</param>
                    <param sid="azimuth" name="Azimuth" type="float">0</param>
                    <param sid="clamp" name="Clamp_Intensity" type="bool">true</param>
                    <param sid="day" name="Day" type="int">2012173</param>
                    <param sid="elevation" name="Elevation" type="float">0</param>
                    <param sid="haze" name="Haze" type="float">2</param>
                    <param sid="height" name="Height" type="float">10</param>
                    <param sid="lat" name="Latitude" type="float">0.655057</param>
                    <param sid="lon" name="Longitude" type="float">-2.13456</param>
                    <param sid="mapSize" name="Map_Size" type="float">2</param>
                    <param sid="north" name="North" type="float">0</param>
                    <param sid="radius" name="Radius" type="float">0.5</param>
                    <param sid="spread" name="Spread" type="float">0</param>
                    <param sid="sunPos" name="Sun_Position" type="bool">false</param>
                    <param sid="time" name="Time" type="float">12</param>
                    <param sid="timeZone" name="Time_Zone" type="float">-8</param>
                    <param sid="volumetrics" name="Volumetrics" type="bool">false</param>
                    <param sid="vdissolve" name="Volumetrics_Dissolve" type="float">0</param>
                    <param sid="vsamples" name="Volumetric_Samples" type="int">40</param>
                </technique>
            </extra>
        </light>
    </library_lights>
    <library_nodes id="shader_tree" name="Shader_Tree">
        <node sid="shader_tree_render" name="Render">
            <extra>
                <technique profile="modo401">
                    <param sid="first" name="Frame_Range_First" type="int">1</param>
                    <param sid="last" name="Frame_Range_Last" type="int">120</param>
                    <param sid="dpi" name="Frame_DPI" type="float">300</param>
                    <param sid="resUnit" name="Resolution_Unit" type="Name">pixels</param>
                    <param sid="pAspect" name="Frame_Pixel_Aspect_Ratio" type="float">1</param>
                    <param sid="bucketX" name="Bucket_Width" type="int">32</param>
                    <param sid="bucketY" name="Bucket_Height" type="int">32</param>
                    <param sid="bktOrder" name="Bucket_Order" type="Name">hilbert</param>
                    <param sid="bktSkip" name="Skip_Existing_Buckets" type="bool">false</param>
                    <param sid="region" name="Render_Region" type="bool">false</param>
                    <param sid="regX0" name="Render_Region_Left" type="float">0</param>
                    <param sid="regX1" name="Render_Region_Right" type="float">1</param>
                    <param sid="regY0" name="Render_Region_Top" type="float">0</param>
                    <param sid="regY1" name="Render_Region_Bottom" type="float">1</param>
                    <param sid="aa" name="Render_Antialiasing" type="Name">s8</param>
                    <param sid="aaFilter" name="Render_Antialiasing_Filter" type="Name">gaussian</param>
                    <param sid="fineRate" name="Refinement_Shading_Rate" type="float">0.25</param>
                    <param sid="fineThresh" name="Refinement_Threshold" type="float">0.1</param>
                    <param sid="bktRefine" name="Refine_Bucket_Borders" type="bool">false</param>
                    <param sid="dof" name="Render_Depth_of_Field" type="bool">false</param>
                    <param sid="mBlur" name="Render_Motion_Blur" type="bool">false</param>
                    <param sid="stereo" name="Render_Stereoscopic" type="bool">false</param>
                    <param sid="rayShadow" name="Ray_Tracing_Shadows" type="bool">true</param>
                    <param sid="reflDepth" name="Reflection_Depth" type="int">8</param>
                    <param sid="refrDepth" name="Refraction_Depth" type="int">8</param>
                    <param sid="rayThresh" name="Ray_Threshold" type="float">0.001</param>
                    <param sid="subdAdapt" name="Adaptive_Subdivision" type="bool">false</param>
                    <param sid="subdRate" name="Subdivision_Rate" type="float">10</param>
                    <param sid="dispEnable" name="Micropoly_Displacement" type="bool">true</param>
                    <param sid="dispRate" name="Displacement_Rate" type="float">1</param>
                    <param sid="dispRatio" name="Displacement_Ratio" type="float">4</param>
                    <param sid="edgeMin" name="Minimum_Edge_Length" type="float">0.0001</param>
                    <param sid="dispSmooth" name="Smooth_Positions" type="bool">true</param>
                    <param sid="ambRad" name="Ambient_Intensity" type="float">0.05</param>
                    <param sid="ambColor" name="Ambient_Color" type="color">1 1 1</param>
                    <param sid="globEnable" name="Enable_Indirect_Illumination" type="bool">false</param>
                    <param sid="globScope" name="Indirect_Illumination_Scope" type="Name">all</param>
                    <param sid="globRays" name="Indirect_Rays" type="int">64</param>
                    <param sid="globLimit" name="Indirect_Bounces" type="int">1</param>
                    <param sid="globRange" name="Indirect_Range" type="float">0</param>
                    <param sid="globSubs" name="Subsurface_Scattering" type="int">0</param>
                    <param sid="globVols" name="Volumetrics_Affect_Indirect" type="bool">false</param>
                    <param sid="irrCache" name="Enable_Irradiance_Caching" type="bool">true</param>
                    <param sid="irrRays" name="Irradiance_Rays" type="int">256</param>
                    <param sid="globSuper" name="Indirect_Supersampling" type="bool">true</param>
                    <param sid="irrRate" name="Irradiance_Rate" type="float">2.5</param>
                    <param sid="irrRatio" name="Irradiance_Ratio" type="float">6</param>
                    <param sid="irrVals" name="Interpolation_Values" type="int">1</param>
                    <param sid="irrGrads" name="Irradiance_Gradients" type="Name">both</param>
                    <param sid="irrWalk" name="Walkthrough_Mode" type="bool">false</param>
                    <param sid="irrLEnable" name="Load_Irradiance_before_Render" type="bool">false</param>
                    <param sid="irrLName" name="Load_Irradiance_File" type="Name"></param>
                    <param sid="irrSEnable" name="Save_Irradiance_after_Render" type="bool">false</param>
                    <param sid="irrSName" name="Save_Irradiance_File" type="Name"></param>
                    <param sid="causEnable" name="Enable_Direct_Caustics" type="bool">false</param>
                    <param sid="causTotal" name="Caustics_Total_Photons" type="int">100000</param>
                    <param sid="causLocal" name="Caustics_Local_Photons" type="int">32</param>
                    <param sid="globCaus" name="Indirect_Caustics" type="Name">refraction</param>
                </technique>
            </extra>
        </node>
        <node sid="shader_tree_environment" name="Environment">
            <extra>
                <technique profile="modo401">
                    <param sid="radiance" name="Environment_Intensity" type="float">1</param>
                    <param sid="visCam" name="Environment_Visible_to_Camera" type="bool">true</param>
                    <param sid="visInd" name="Environment_Visible_to_Indirect_Rays" type="bool">true</param>
                    <param sid="visRefl" name="Environment_Visible_to_Reflection_Rays" type="bool">true</param>
                    <param sid="visRefr" name="Environment_Visible_to_Refraction_Rays" type="bool">true</param>
                </technique>
            </extra>
        </node>
    </library_nodes>
    <library_visual_scenes>
        <visual_scene id="DefaultScene">
            <node id="polyRender007" name="Render" type="NODE">
                <instance_light url="#Light-polyRender007" />
            </node>
            <node id="Geometry-mesh016Node" name="Mesh" type="NODE">
                <instance_geometry url="#Geometry-mesh016">
                    <bind_material>
                        <technique_common>
                            <instance_material symbol="Material-pipe_turn_broken_slim" target="#Material-pipe_turn_broken_slim">
                                <bind_vertex_input semantic="uvSet1" input_semantic="TEXCOORD" input_set="0" />
                            </instance_material>
                        </technique_common>
                    </bind_material>
                </instance_geometry>
            </node>
            <node id="Camera-camera004Node" name="Camera" type="NODE">
                <translate sid="translation005">0 0.75 4</translate>
                <rotate sid="rotation006Y">0 1 0 0</rotate>
                <rotate sid="rotation006X">1 0 0 -5</rotate>
                <rotate sid="rotation006Z">0 0 1 0</rotate>
                <instance_camera url="#Camera-camera004" />
            </node>
            <node id="groupLocator022Node" name="Texture_Group" type="NODE">
                <node id="txtrLocator017Node" name="pipe_turn_broken_slim__Image___Texture_" type="NODE">
                    <translate sid="translation020">0 0 0</translate>
                    <rotate sid="rotation019Y">0 1 0 0</rotate>
                    <rotate sid="rotation019X">1 0 0 0</rotate>
                    <rotate sid="rotation019Z">0 0 1 0</rotate>
                    <scale sid="scale018">1 1 1</scale>
                </node>
            </node>
            <node id="Light-sunLight008Node" name="Directional_Light" type="NODE">
                <translate sid="translation009">-2 2 2</translate>
                <rotate sid="rotation010Y">0 1 0 -45</rotate>
                <rotate sid="rotation010X">1 0 0 -30</rotate>
                <rotate sid="rotation010Z">0 0 1 0</rotate>
                <instance_light url="#Light-sunLight008" />
            </node>
            <extra>
                <technique profile="modo401">
                    <param sid="fps" name="Scene_FPS" type="float">24</param>
                    <param sid="sceneS" name="Scene_Start_Time" type="float">0</param>
                    <param sid="sceneE" name="Scene_End_Time" type="float">5</param>
                    <param sid="currentS" name="Scene_Current_Start_Time" type="float">0</param>
                    <param sid="currentE" name="Scene_Current_End_Time" type="float">5</param>
                    <param sid="timeSys" name="Scene_Time_System" type="Name">frames</param>
                </technique>
            </extra>
            <extra>
                <technique profile="MAX3D">
                    <frame_rate>24</frame_rate>
                </technique>
            </extra>
            <extra>
                <technique profile="MAYA">
                    <start_time>0</start_time>
                    <end_time>5</end_time>
                </technique>
            </extra>
            <extra>
                <technique profile="OKINO" />
            </extra>
            <extra>
                <technique profile="XSI">
                    <SI_Scene>
                        <frame_rate>24</frame_rate>
                    </SI_Scene>
                </technique>
            </extra>
        </visual_scene>
    </library_visual_scenes>
    <scene>
        <instance_visual_scene url="#DefaultScene" />
    </scene>
</COLLADA>
