<?xml version="1.0" encoding="utf-8" ?>
<COLLADA xmlns="http://www.collada.org/2005/11/COLLADASchema" version="1.4.1">
    <asset>
        <contributor>
            <authoring_tool>modo 701 [Build 68192], Microsoft Windows 7 Service Pack 1 (6.1.7601 Service Pack 1)</authoring_tool>
            <comments>Plug-in: [Build 68192]; Use Absolute Path: No; Merge Reference Items: No; Save Hidden Items: No; Save Cameras: No; Save Lights: No; Save Locators: Yes; Save Triangles as Triangles: Yes; Order Vertex Maps Alphabetically: Yes; Bake Matrices: No; Save Vertex Normals: Yes; Save UV Texture Coordinates: Yes; Save Vertex Colors: Yes; Save Vertex Weights: Yes; Save Animation: No; Sample Animation: No; Sample Animation Start: 0; Sample Animation End: 1; Save modo Profile: No; Save Maya Profile: No; Save 3ds Max Profile: No; Formatted Arrays: No;</comments>
            <source_data>file:///D:/Work/Dropbox/Frictional%20Games%20-%20Team/Aaron/models/entities/station/door/slidedoor_hatch_maintenance_tunnels/slidedoor_hatch_maintenance_tunnels.lxo</source_data>
        </contributor>
        <created>2014-09-05T17:09:09Z</created>
        <modified>2014-09-05T17:09:09Z</modified>
        <unit name="game" meter="1" />
        <up_axis>Y_UP</up_axis>
    </asset>
    <library_images>
        <image id="Image0001" name="Image0001">
            <init_from>file:///D:/Work/Dropbox/Frictional%20Games%20-%20Team/Aaron/models/entities/station/door/slidedoor_hatch_maintenance_tunnels/slidedoor_hatch_maintenance_tunnels.tga</init_from>
        </image>
        <image id="Image0002" name="Image0002">
            <init_from>file:///D:/Work/Dropbox/Frictional%20Games%20-%20Team/Aaron/models/entities/station/door/slidedoor_hatch_maintenance_tunnels/slidedoor_hatch_maintenance_tunnels_nrm.psd</init_from>
        </image>
        <image id="Image0003" name="Image0003">
            <init_from>file:///D:/Work/other/texture%20bases%20and%20stuff/checker_512.gif</init_from>
        </image>
    </library_images>
    <library_materials>
        <material id="Material-Default" name="Default">
            <instance_effect url="#Effect-Default" />
        </material>
        <material id="Material-maintenance_hatch" name="maintenance_hatch">
            <instance_effect url="#Effect-maintenance_hatch" />
        </material>
        <material id="Material-maintenance_tunnels" name="maintenance_tunnels">
            <instance_effect url="#Effect-maintenance_tunnels" />
        </material>
    </library_materials>
    <library_effects>
        <effect id="Effect-Default" name="Default">
            <profile_COMMON>
                <technique sid="common">
                    <phong>
                        <diffuse>
                            <color sid="diffuse_effect_rgb">0.8 0.8 0.8 1</color>
                        </diffuse>
                        <specular>
                            <color sid="specular_effect_rgb">0.2 0.2 0.2 1</color>
                        </specular>
                        <shininess>
                            <float sid="specular_effect_rgb">256</float>
                        </shininess>
                    </phong>
                </technique>
            </profile_COMMON>
        </effect>
        <effect id="Effect-maintenance_hatch" name="maintenance_hatch">
            <profile_COMMON>
                <newparam sid="Image0001-surface">
                    <surface type="2D">
                        <init_from>Image0001</init_from>
                        <format>A8R8G8B8</format>
                    </surface>
                </newparam>
                <newparam sid="Image0001-sampler">
                    <sampler2D>
                        <source>Image0001-surface</source>
                        <minfilter>LINEAR_MIPMAP_LINEAR</minfilter>
                        <magfilter>LINEAR</magfilter>
                    </sampler2D>
                </newparam>
                <technique sid="common">
                    <phong>
                        <diffuse>
                            <texture texture="Image0001-sampler" texcoord="uvSet1" />
                        </diffuse>
                        <specular>
                            <color sid="specular_effect_rgb">0.2 0.2 0.2 1</color>
                        </specular>
                        <shininess>
                            <float sid="specular_effect_rgb">256</float>
                        </shininess>
                    </phong>
                </technique>
            </profile_COMMON>
        </effect>
        <effect id="Effect-maintenance_tunnels" name="maintenance_tunnels">
            <profile_COMMON>
                <technique sid="common">
                    <phong>
                        <diffuse>
                            <color sid="diffuse_effect_rgb">0.8 0.8 0.8 1</color>
                        </diffuse>
                        <specular>
                            <color sid="specular_effect_rgb">0.2 0.2 0.2 1</color>
                        </specular>
                        <shininess>
                            <float sid="specular_effect_rgb">256</float>
                        </shininess>
                    </phong>
                </technique>
            </profile_COMMON>
        </effect>
    </library_effects>
    <library_geometries>
        <geometry id="Geometry-mesh056" name="hatch_frame">
            <mesh>
                <source id="Geometry-mesh056-positions" name="positions">
                    <float_array id="Geometry-mesh056-positions-array" count="276">-1 1.5 0.5 -0.494537 1.87059 0.5 -0.544487 1.75 0.5 -0.623947 1.64645 0.5 -0.7275 1.56699 0.5 -0.84809 1.51704 0.5 -0.4775 2 0.5 -0.93605 0.06395 0.557617 -0.93605 1.46802 0.557617 0.93605 1.46802 0.557617 0.93605 0.06395 0.557617 -0.462911 1.81492 0.557617 -0.509667 1.70204 0.557617 -0.584045 1.60511 0.557617 -0.680976 1.53073 0.557617 -0.793855 1.48397 0.557617 0.793855 1.48397 0.557617 0.680976 1.53073 0.557617 0.584045 1.60511 0.557617 0.509667 1.70204 0.557617 0.462911 1.81492 0.557617 -0.446964 1.93605 0.557617 0.446964 1.93605 0.557617 0.865626 1.4127 0.557617 0.865626 0.134374 0.557617 -1 -0.140625 0 -1 1.57617 0 1 1.57617 0 1 -0.140625 0 -0.93605 -0.076675 -0.0576172 -0.93605 1.5442 -0.0576172 0.93605 1.5442 -0.0576172 0.93605 -0.076675 -0.0576172 0.865626 1.4127 0.381137 0.865626 0.134374 0.381137 0.889307 0.110693 0.353061 0.888819 2.50275 0.352573 0.889307 1.43638 0.353061 -1 -0.140625 0.0625 -1 1.57617 0.0625 1 1.57617 0.0625 1 -0.140625 0.0625 -0.5 -0.076675 -0.0576172 0.5 -0.076675 -0.0576172 0.5 -0.140625 0 -0.5 -0.140625 0 -0.5 -0.140625 0.0625 0.5 -0.140625 0.0625 -0.36 -0.046875 0 0.36 -0.046875 0 -0.36 -0.046875 0.0625 0.36 -0.046875 0.0625 -0.36 0.017075 -0.0576172 0.36 0.017075 -0.0576172 0.888819 -0.955677 0.352573 -1 0 0.5 1 0 0.5 1 1.5 0.5 0.84809 1.51704 0.5 0.7275 1.56699 0.5 -1.125 2.125 0.5 0.544487 1.75 0.5 0.494537 1.87059 0.5 0.4775 2 0.5 0.623947 1.64645 0.5 1.125 2.125 0.5 -1.125 -0.5 0.5 1.125 -0.5 0.5 -0.888819 -0.955677 0.147427 -0.888819 -0.955677 0.352573 0.888819 -0.955677 0.147427 -0.865626 0.134374 0.557617 -0.865626 0.134374 0.381137 -0.889307 0.110693 0.353061 -0.865626 0.134374 -0.0576172 -0.889307 0.110693 0.146939 -0.865626 0.134374 0.118863 0.889307 0.110693 0.146939 0.865626 0.134374 -0.0576172 0.865626 0.134374 0.118863 -0.865626 1.4127 0.557617 -0.865626 1.4127 -0.0576172 -0.865626 1.4127 0.381137 -0.889307 1.43638 0.353061 -0.865626 1.4127 0.118863 -0.889307 1.43638 0.146939 0.865626 1.4127 -0.0576172 0.865626 1.4127 0.118863 0.889307 1.43638 0.146939 -0.888819 2.50275 0.147427 -0.888819 2.50275 0.352573 0.888819 2.50275 0.147427</float_array>
                    <technique_common>
                        <accessor count="92" source="#Geometry-mesh056-positions-array" stride="3">
                            <param name="X" type="float" />
                            <param name="Y" type="float" />
                            <param name="Z" type="float" />
                        </accessor>
                    </technique_common>
                </source>
                <source id="Geometry-mesh056-normals" name="normals">
                    <float_array id="Geometry-mesh056-normals-array" count="318">-0.218804 0.423542 0.879055 0 0 1 -0.105207 0.522565 0.846084 -0.269572 0.155141 0.950401 -0.357609 0.3575 0.862734 -0.426396 0.220142 0.877339 -0.523977 0.112902 0.844216 -0.188361 0.330993 0.924643 0.218804 0.423542 0.879055 0.105207 0.522565 0.846084 0.269572 0.155141 0.950401 0.357609 0.3575 0.862734 0.426396 0.220142 0.877339 0.523977 0.112902 0.844216 0.185213 0.174923 0.967005 0.0914095 0.303367 0.948479 0.16412 0.316521 0.93428 0.17832 -0.412201 -0.893472 0 0 -1 0.0739018 -0.352239 -0.932988 -0.25164 -0.25164 -0.934535 -0.17832 -0.412201 -0.893472 0.25164 -0.25164 -0.934535 -0.111287 -0.348309 -0.93075 -0.122865 0.407761 0.904784 -0.16412 0.316521 0.93428 -0.331419 0.209748 0.919874 -0.215579 0.215514 0.952407 0.257052 -0.883091 -0.392524 -0.308891 -0.835414 -0.45461 -0.385718 -0.922617 0 -0.180948 -0.895981 -0.405556 0.447214 -0.894427 0 0.766752 -0.47951 -0.426803 -0.192859 -0.981227 0 0.385718 -0.922617 0 0.286262 -0.867404 -0.407018 0.192859 -0.981227 0 -0.447214 0.894427 0 -0.775282 0.435247 -0.457709 -0.894427 -0.447214 0 -0.47951 -0.766752 -0.426803 0.409964 0.126701 0.903259 0.331419 0.209748 0.919874 -0.298432 -0.149216 0.942694 -0.123072 -0.246144 0.961388 0.185311 -0.185311 0.965049 0.215579 0.215514 0.952407 -0.131979 0.344805 -0.92935 0.125281 0.163653 -0.978531 0 1 0 0 0.890862 -0.454275 0 0.973863 -0.227138 -0.939253 0 0.343225 -1 0 0 0.961773 -0.000194483 -0.273849 0.990967 0.000190478 -0.134104 0.985647 -0.000119892 0.168818 0.939253 0.000121876 0.343225 0.939253 0 0.343225 2.82615e-008 -0.421664 0.906752 2.86393e-008 -0.421664 0.906752 1.53448e-011 -0.000457891 1 0 -0.000457891 1 0.462625 0.741544 -0.485893 -0.985647 -0.000239783 -0.168818 -0.961773 9.72417e-005 -0.273849 -0.939253 0 -0.343225 0.321246 0.303398 0.897079 0.213695 -0.213695 0.953241 -0.409964 0.126701 0.903259 0.249839 0.394538 0.884263 0 -1 0 0 -0.939253 -0.343225 -0.985647 0.000239783 0.168818 -1 0.000457891 0 -1 0.000457891 0 -0.961773 -9.72417e-005 0.273849 1 0 0 0.973863 0 -0.227138 0.890862 0 -0.454275 1 -0.000457891 1.32409e-010 1 -0.000457891 0 4.59737e-008 -0.939253 0.343224 6.46745e-008 -0.939253 0.343224 -1.88681e-008 0.555432 0.831562 -9.30957e-009 0.277966 0.960591 -7.67239e-012 0.000457891 1 0 0.000457891 1 -0.178614 0.282062 0.942623 -0.482394 0.259551 0.836618 -1 -0.000457891 0 0 0.421664 -0.906752 0 0.000457891 -1 1 0.000457891 -6.62044e-011 1 0.000457891 0 0 -1 -6.75484e-007 3.44287e-008 -1 -3.37742e-007 -3.04243e-008 0.890861 0.454275 -2.14e-008 0.973863 0.227138 0.894427 0.447214 0 0 -0.277966 -0.960591 0 -0.555432 -0.831562 0 -0.000457891 -1 0 -0.000457891 -1 -1.72143e-008 1 1.68871e-007</float_array>
                    <technique_common>
                        <accessor count="106" source="#Geometry-mesh056-normals-array" stride="3">
                            <param name="X" type="float" />
                            <param name="Y" type="float" />
                            <param name="Z" type="float" />
                        </accessor>
                    </technique_common>
                </source>
                <source id="Geometry-mesh056-uvSet1" name="uvSet1">
                    <float_array id="Geometry-mesh056-uvSet1-array" count="240">0.552744 0.881857 0.469737 0.99712 0.528124 0.871494 0.495788 0.865569 0.573744 0.897836 0.589936 0.918662 0.600587 0.943123 0.60629 0.970394 0.860078 0.880896 0.884559 0.870365 0.944364 0.995442 0.916769 0.86418 0.839263 0.896999 0.823303 0.917909 0.812924 0.942414 0.807521 0.969694 0.870664 0.859714 0.885138 0.845055 0.899443 0.856578 0.338429 0.621327 0.413651 0.663869 0.308063 0.6385 0.428466 0.619072 0.126894 0.620396 0.0511892 0.66209 0.037497 0.617081 0.157027 0.637781 0.541948 0.860691 0.513094 0.857781 0.527323 0.846098 0.601054 0.905798 0.585465 0.885746 0.307727 0.619726 0.157531 0.619038 0.128937 0.592256 0.127201 0.60422 0.0263632 0.585822 0.0255589 0.598644 0.158685 0.606175 0.306681 0.60684 0.338301 0.605069 0.336681 0.593018 0.460099 0.970497 0.446808 0.970497 0.460099 0.605436 0.446791 0.605451 0.80242 0.928338 0.812048 0.905134 0.510917 0.566332 0.495533 0.550405 0.469022 0.445457 0.938377 0.443909 0.913075 0.54909 0.827419 0.885005 0.428505 0.963698 0.0352656 0.962791 0.413593 0.935654 0.0507431 0.93511 0.956403 0.282059 0.993375 0.282059 0.956403 0.633495 0.993375 0.633495 0.538379 0.621216 0.538379 0.587154 0.874672 0.621216 0.874672 0.587154 0.954381 0.0955582 0.954336 0.130672 0.681427 0.0956355 0.681382 0.130749 0.959498 0.0472368 0.676431 0.0473168 0.959446 0.0882486 0.676379 0.0883287 0.058944 0.88328 0.404438 0.88328 0.0590389 0.677467 0.404343 0.677467 0.440699 0.600647 0.0168243 0.969131 0.0195911 0.603063 0.954451 0.0399301 0.681497 0.0400071 0.799601 0.952587 0.897836 0.565156 0.610936 0.928963 0.847407 0.869486 0.0635442 0.92443 0.0635442 0.890369 0.399837 0.92443 0.399837 0.890369 0.670572 0.00630116 0.67052 0.0473131 0.442874 0.00646222 0.442822 0.0472803 0.525563 0.580848 0.883325 0.579802 0.954495 0.00481606 0.681541 0.0048933 0.441868 0.094108 0.669564 0.0939462 0.44192 0.0530962 0.669615 0.0531288 0.879272 0.628305 0.533779 0.628305 0.879177 0.834118 0.533874 0.834118 0.565309 0.870334 0.44205 0.977868 0.0215067 0.976754 0.614022 0.953216 0.992555 0.642655 0.992555 0.994091 0.955584 0.642655 0.955584 0.994091 0.441948 0.991211 0.021405 0.990097 0.440037 0.587727 0.00634155 0.602729 0.00355776 0.968811</float_array>
                    <technique_common>
                        <accessor count="120" source="#Geometry-mesh056-uvSet1-array" stride="2">
                            <param name="S" type="float" />
                            <param name="T" type="float" />
                        </accessor>
                    </technique_common>
                </source>
                <source id="Geometry-mesh056-UV_Distortion" name="UV_Distortion">
                    <float_array id="Geometry-mesh056-UV_Distortion-array" count="249">0.486879 0.532524 0.516925 0.470645 0.514768 0.533032 0.48982 0.535741 0.514006 0.489553 0.535448 0.514272 0.486206 0.531788 0.517593 0.472188 0.516455 0.531501 0.487279 0.532961 0.516528 0.471162 0.515334 0.532519 0.490173 0.536127 0.513656 0.489871 0.535797 0.513956 0.486493 0.532102 0.517308 0.472447 0.516738 0.531245 0.490086 0.536032 0.513743 0.498492 0.545226 0.505402 0.481067 0.526167 0.522691 0.482378 0.527601 0.52139 0.499566 0.546401 0.504337 0.488764 0.534586 0.515054 0.48812 0.533881 0.515694 0.469731 0.513768 0.533939 0.496917 0.543503 0.506966 0.518613 0.530663 0.485178 0.516688 0.532785 0.487117 0.471512 0.515716 0.532172 0.497305 0.543928 0.50658 0.503829 0.54696 0.500078 0.478946 0.523848 0.524796 0.484108 0.529493 0.519674 0.542596 0.504225 0.461006 0.475641 0.520232 0.528075 0.531109 0.516887 0.472583 0.517856 0.531498 0.485941 0.47645 0.521117 0.527272 0.486586 0.532204 0.517215 0.486587 0.532204 0.517215 0.486585 0.532203 0.517216 0.517856 0.531497 0.48594 0.540993 0.505992 0.462621 0.495826 0.54231 0.508048 0.47231 0.516589 0.53138 0.497175 0.543785 0.50671 0.486584 0.532202 0.517217 0.471534 0.515741 0.53215 0.540505 0.50653 0.463113 0.51035 0.539772 0.493506 0.477008 0.521728 0.526719 0.48651 0.53212 0.517291 0.496262 0.542787 0.507615 0.517857 0.531497 0.48594 0.486583 0.5322 0.517219 0.48485 0.530304 0.518938 0.486401 0.532002 0.517399 0.486587 0.532204 0.517215 0.486588 0.532206 0.517213 0.517857 0.531496 0.485939 0.517856 0.531497 0.48594 0.496998 0.543591 0.506885 0.48763 0.533346 0.516179 0.4986 0.545343 0.505296 0.486578 0.532194 0.517224 0.473497 0.517887 0.530202 0.491356 0.53742 0.512483 0.504008 0.546763 0.499897 0.47701 0.52173 0.526716 0.483273 0.52858 0.520503 0.495234 0.541663 0.508635 0.531108 0.516889 0.472584 0.517856 0.531497 0.48594 0.473463 0.51785 0.530236 0.476184 0.520826 0.527536 0.486781 0.532417 0.517022 0.517856 0.531497 0.48594 0.473376 0.517755 0.530323 0.540209 0.506857 0.463412 0.493641 0.53992 0.510216 0.499037 0.545822 0.504862 0.485608 0.531134 0.518186 0.471531 0.515737 0.532153 0.488194 0.533962 0.51562 0.488497 0.534294 0.515319 0.476714 0.521406 0.527011 0.492419 0.538583 0.511428 0.483687 0.529033 0.520092</float_array>
                    <technique_common>
                        <accessor count="83" source="#Geometry-mesh056-UV_Distortion-array" stride="3">
                            <param name="R" type="float" />
                            <param name="G" type="float" />
                            <param name="B" type="float" />
                        </accessor>
                    </technique_common>
                </source>
                <vertices id="Geometry-mesh056-vertices">
                    <input semantic="POSITION" source="#Geometry-mesh056-positions" />
                </vertices>
                <triangles count="172" material="Material-maintenance_hatch">
                    <input semantic="VERTEX" source="#Geometry-mesh056-vertices" offset="0" />
                    <input semantic="NORMAL" source="#Geometry-mesh056-normals" offset="1" />
                    <input semantic="TEXCOORD" source="#Geometry-mesh056-uvSet1" offset="2" set="0" />
                    <input semantic="COLOR" source="#Geometry-mesh056-UV_Distortion" offset="3" set="0" />
                    <p>4 0 0 0 60 1 1 0 5 2 2 0 5 2 2 1 60 1 1 1 0 3 3 1 3 4 4 2 60 1 1 2 4 0 0 2 2 5 5 3 60 1 1 3 3 4 4 3 1 6 6 4 60 1 1 4 2 5 5 4 6 7 7 5 60 1 1 5 1 6 6 5 59 8 8 6 58 9 9 6 65 1 10 6 58 9 9 7 57 10 11 7 65 1 10 7 64 11 12 8 59 8 8 8 65 1 10 8 61 12 13 9 64 11 12 9 65 1 10 9 62 13 14 10 61 12 13 10 65 1 10 10 63 14 15 11 62 13 14 11 65 1 10 11 16 15 16 12 23 1 17 12 9 16 18 12 42 17 19 13 74 18 20 13 52 19 21 13 42 17 19 14 29 20 22 14 74 18 20 14 43 21 23 15 78 18 24 15 32 22 25 15 43 21 23 16 53 23 26 16 78 18 24 16 15 24 27 17 8 25 28 17 80 1 29 17 2 5 5 18 3 4 4 18 12 26 30 18 13 27 31 18 12 26 30 18 3 4 4 18 48 28 32 19 52 19 21 19 49 29 33 19 53 23 26 19 49 29 33 19 52 19 21 19 47 30 34 20 44 31 35 20 41 32 36 20 28 33 37 20 41 32 36 20 44 31 35 20 44 31 35 21 47 30 34 21 49 29 33 21 51 34 38 21 49 29 33 21 47 30 34 21 48 28 32 22 50 35 39 22 45 36 40 22 46 37 41 22 45 36 40 22 50 35 39 22 39 38 42 23 26 39 43 23 38 40 44 23 25 41 45 23 38 40 44 23 26 39 43 23 62 13 14 24 20 42 46 24 61 12 13 24 19 43 47 24 61 12 13 24 20 42 46 24 8 25 28 25 0 3 3 25 7 44 48 25 55 45 49 25 7 44 48 25 0 3 3 25 66 1 50 26 67 1 51 26 55 45 49 26 56 46 52 26 55 45 49 26 67 1 51 26 18 47 53 27 19 43 47 27 13 27 31 27 12 26 30 27 13 27 31 27 19 43 47 27 16 15 16 28 9 16 18 28 58 9 9 28 57 10 11 28 58 9 9 28 9 16 18 28 30 48 54 29 31 49 55 29 81 18 56 29 86 18 57 29 81 18 56 29 31 49 55 29 68 50 58 30 69 50 59 30 70 50 60 30 54 50 61 30 70 50 60 30 69 50 59 30 72 51 62 31 71 50 63 31 34 52 64 31 24 50 65 31 34 52 64 31 71 50 63 31 86 18 57 32 31 49 55 32 78 18 24 32 32 22 25 32 78 18 24 32 31 49 55 32 87 53 66 33 86 54 67 33 79 53 68 33 78 54 69 33 79 53 68 33 86 54 67 33 83 55 70 34 73 56 71 34 85 57 72 34 75 58 73 34 85 57 72 34 73 56 71 34 85 57 72 35 75 58 73 35 84 59 66 35 76 59 68 35 84 59 66 35 75 58 73 35 85 60 74 36 88 61 75 36 89 62 76 36 91 63 77 36 89 62 76 36 88 61 75 36 15 24 27 37 5 2 2 37 8 25 28 37 0 3 3 37 8 25 28 37 5 2 2 37 42 17 19 38 45 36 40 38 29 20 22 38 25 41 78 38 29 20 22 38 45 36 40 38 31 49 55 39 27 64 79 39 32 22 25 39 28 33 80 39 32 22 25 39 27 64 79 39 45 36 40 40 42 17 19 40 48 28 32 40 52 19 21 40 48 28 32 40 42 17 19 40 37 65 70 41 35 66 71 41 33 67 81 41 34 67 82 41 33 67 81 41 35 66 71 41 30 48 54 42 29 20 22 42 26 39 43 42 25 41 45 42 26 39 43 42 29 20 22 42 63 14 15 43 22 68 83 43 62 13 14 43 20 42 46 43 62 13 14 43 22 68 83 43 56 46 52 44 10 69 84 44 55 45 49 44 7 44 48 44 55 45 49 44 10 69 84 44 65 1 10 45 57 10 11 45 67 1 51 45 56 46 52 45 67 1 51 45 57 10 11 45 19 43 47 46 20 42 46 46 12 26 30 46 11 70 85 46 12 26 30 46 20 42 46 46 17 71 86 47 16 15 16 47 59 8 8 47 58 9 9 47 59 8 8 47 16 15 16 47 80 72 87 48 82 73 88 48 23 72 89 48 33 73 90 48 23 72 89 48 82 73 88 48 35 66 91 49 77 74 92 49 54 75 93 49 70 76 94 49 54 75 93 49 77 74 92 49 7 44 48 50 10 69 84 50 71 1 95 50 24 1 96 50 71 1 95 50 10 69 84 50 80 1 29 51 8 25 28 51 71 1 95 51 7 44 48 51 71 1 95 51 8 25 28 51 77 74 73 35 88 77 72 35 79 53 68 35 87 53 66 35 79 53 68 35 88 77 72 35 80 78 97 52 71 78 98 52 82 79 81 52 72 80 82 52 82 79 81 52 71 78 98 52 85 57 99 53 89 81 100 53 83 55 101 53 90 82 102 53 83 55 101 53 89 81 100 53 85 60 74 54 84 83 88 54 88 61 75 54 87 84 90 54 88 61 75 54 84 83 88 54 77 85 103 55 75 86 104 55 70 87 105 55 68 88 106 55 70 87 105 55 75 86 104 55 1 6 6 56 2 5 5 56 11 70 85 56 12 26 30 56 11 70 85 56 2 5 5 56 4 0 0 57 14 89 107 57 3 4 4 57 13 27 31 57 3 4 4 57 14 89 107 57 44 31 35 58 49 29 33 58 43 21 23 58 53 23 26 58 43 21 23 58 49 29 33 58 23 1 17 59 24 1 96 59 9 16 18 59 10 69 84 59 9 16 18 59 24 1 96 59 23 54 97 52 33 67 81 52 24 54 98 52 34 67 82 52 24 54 98 52 33 67 81 52 26 39 108 60 27 64 109 60 30 48 54 60 31 49 55 60 30 48 54 60 27 64 109 60 63 14 15 61 6 7 7 61 22 68 83 61 21 90 110 61 22 68 83 61 6 7 7 61 9 16 18 62 10 69 84 62 57 10 11 62 56 46 52 62 57 10 11 62 10 69 84 62 60 1 1 63 66 1 50 63 0 3 3 63 55 45 49 63 0 3 3 63 66 1 50 63 17 71 86 64 18 47 53 64 14 89 107 64 13 27 31 64 14 89 107 64 18 47 53 64 5 2 2 65 15 24 27 65 4 0 0 65 14 89 107 65 4 0 0 65 15 24 27 65 89 72 111 66 91 72 112 66 90 72 113 66 36 72 114 66 90 72 113 66 91 72 112 66 37 65 70 34 88 77 72 34 35 66 71 34 77 74 73 34 35 66 71 34 88 77 72 34 88 77 99 53 37 65 101 53 91 91 100 53 36 91 102 53 91 91 100 53 37 65 101 53 73 92 104 67 35 92 103 67 69 93 106 67 54 93 105 67 69 93 106 67 35 92 103 67 81 18 56 68 74 18 20 68 30 48 54 68 29 20 22 68 30 48 54 68 74 18 20 68 74 18 20 69 78 18 24 69 52 19 21 69 53 23 26 69 52 19 21 69 78 18 24 69 23 1 17 70 16 15 16 70 80 1 29 70 15 24 27 70 80 1 29 70 16 15 16 70 75 58 92 49 73 56 91 49 68 94 94 49 69 95 93 49 68 94 94 49 73 56 91 49 81 96 87 48 86 97 89 48 84 83 88 48 87 84 90 48 84 83 88 48 86 97 89 48 75 86 104 71 77 85 103 71 76 98 62 71 79 99 64 71 76 98 62 71 77 85 103 71 26 39 108 72 39 38 115 72 27 64 109 72 40 100 116 72 27 64 109 72 39 38 115 72 6 7 7 73 1 6 6 73 21 90 110 73 11 70 85 73 21 90 110 73 1 6 6 73 45 36 40 74 46 37 41 74 25 41 78 74 38 40 117 74 25 41 78 74 46 37 41 74 43 21 23 75 32 22 25 75 44 31 35 75 28 33 37 75 44 31 35 75 32 22 25 75 49 29 33 76 51 34 38 76 48 28 32 76 50 35 39 76 48 28 32 76 51 34 38 76 41 32 118 77 28 33 80 77 40 100 119 77 27 64 79 77 40 100 119 77 28 33 80 77 59 8 8 78 64 11 12 78 17 71 86 78 18 47 53 78 17 71 86 78 64 11 12 78 61 12 13 79 19 43 47 79 64 11 12 79 18 47 53 79 64 11 12 79 19 43 47 79 65 1 10 80 60 1 1 80 63 14 15 80 6 7 7 80 63 14 15 80 60 1 1 80 20 42 46 81 22 68 83 81 11 70 85 81 21 90 110 81 11 70 85 81 22 68 83 81 15 24 27 82 16 15 16 82 14 89 107 82 17 71 86 82 14 89 107 82 16 15 16 82 83 101 74 54 37 102 75 54 82 73 88 54 33 73 90 54 82 73 88 54 37 102 75 54 37 102 75 36 83 101 74 36 36 103 77 36 90 104 76 36 36 103 77 36 83 101 74 36 73 92 104 71 72 51 62 71 35 92 103 71 34 52 64 71 35 92 103 71 72 51 62 71 73 56 71 41 83 55 70 41 72 80 82 41 82 79 81 41 72 80 82 41 83 55 70 41 81 78 67 33 84 59 66 33 74 78 69 33 76 59 68 33 74 78 69 33 84 59 66 33 76 98 62 31 79 99 64 31 74 105 63 31 78 50 65 31 74 105 63 31 79 99 64 31</p>
                </triangles>
            </mesh>
        </geometry>
    </library_geometries>
    <library_visual_scenes>
        <visual_scene id="DefaultScene">
            <node id="Geometry-mesh056Node" name="hatch_frame" type="NODE">
                <instance_geometry url="#Geometry-mesh056">
                    <bind_material>
                        <technique_common>
                            <instance_material symbol="Material-maintenance_hatch" target="#Material-maintenance_hatch">
                                <bind_vertex_input semantic="uvSet1" input_semantic="TEXCOORD" input_set="0" />
                            </instance_material>
                        </technique_common>
                    </bind_material>
                </instance_geometry>
            </node>
        </visual_scene>
    </library_visual_scenes>
    <scene>
        <instance_visual_scene url="#DefaultScene" />
    </scene>
</COLLADA>
