<?xml version="1.0" encoding="utf-8" ?>
<COLLADA xmlns="http://www.collada.org/2005/11/COLLADASchema" version="1.4.1">
    <asset>
        <contributor>
            <authoring_tool>modo 701 [Build 66614], Microsoft Windows 7 Service Pack 1 (6.1.7601 Service Pack 1)</authoring_tool>
            <comments>Plug-in: [Build 66614]; Use Absolute Path: No; Merge Reference Items: No; Save Hidden Items: No; Save Cameras: No; Save Lights: No; Save Locators: Yes; Save Triangles as Triangles: Yes; Order Vertex Maps Alphabetically: Yes; Bake Matrices: No; Save Vertex Normals: Yes; Save UV Texture Coordinates: Yes; Save Vertex Colors: Yes; Save Vertex Weights: Yes; Save Animation: No; Sample Animation: No; Sample Animation Start: 0; Sample Animation End: 276; Save modo Profile: No; Save Maya Profile: No; Save 3ds Max Profile: No; Formatted Arrays: No;</comments>
            <source_data>file:///D:/Work/Dropbox/Frictional%20Games%20-%20Team/Aaron/models/entities/station/storage/box_spare_fuses/box_spare_fuses.lxo</source_data>
        </contributor>
        <created>2014-02-06T13:48:25Z</created>
        <modified>2014-02-06T13:48:25Z</modified>
        <unit name="game" meter="1" />
        <up_axis>Y_UP</up_axis>
    </asset>
    <library_images>
        <image id="Image0001" name="Image0001">
            <init_from>file:///D:/Work/Dropbox/Frictional%20Games%20-%20Team/Aaron/models/entities/station/lab/algea_crate/algea.tga</init_from>
        </image>
        <image id="Image0002" name="Image0002">
            <init_from>file:///D:/Work/Dropbox/Frictional%20Games%20-%20Team/Aaron/models/entities/station/lab/algea_crate/algea_crate.psd</init_from>
        </image>
        <image id="Image0003" name="Image0003">
            <init_from>file:///D:/Work/Dropbox/Frictional%20Games%20-%20Team/Aaron/models/entities/station/lab/algea_crate/algea_crate_nrm.tga</init_from>
        </image>
        <image id="Image0004" name="Image0004">
            <init_from>file:///D:/Work/Dropbox/Frictional%20Games%20-%20Team/Aaron/models/entities/station/lab/algea_crate/algea_trans.tga</init_from>
        </image>
        <image id="Image0005" name="Image0005">
            <init_from>file:///D:/Work/Dropbox/Frictional%20Games%20-%20Team/Aaron/models/entities/station/storage/box_spare_fuses/box_spare_fuses_label.psd</init_from>
        </image>
        <image id="Image0006" name="Image0006">
            <init_from>file:///D:/Work/Google%20Drive/Work%20-%20Studio/Frictional%20Games/Station_batch10/assets/junk_chip_basket/junk_chip_basket.psd</init_from>
        </image>
        <image id="Image0007" name="Image0007">
            <init_from>file:///D:/Work/Google%20Drive/Work%20-%20Studio/Frictional%20Games/Station_batch10/assets/junk_chip_basket/junk_chip_basket_nrm.tga</init_from>
        </image>
        <image id="Image0008" name="Image0008">
            <init_from>file:///D:/Work/Google%20Drive/Work%20-%20Studio/Frictional%20Games/Station_batch10/assets/junk_chip_basket/junk_chip_basket_spec.tga</init_from>
        </image>
    </library_images>
    <library_materials>
        <material id="Material-algea_crate" name="algea_crate">
            <instance_effect url="#Effect-algea_crate" />
        </material>
        <material id="Material-fuse_sticker" name="fuse_sticker">
            <instance_effect url="#Effect-fuse_sticker" />
        </material>
    </library_materials>
    <library_effects>
        <effect id="Effect-algea_crate" name="algea_crate">
            <profile_COMMON>
                <newparam sid="Image0002-surface">
                    <surface type="2D">
                        <init_from>Image0002</init_from>
                        <format>A8R8G8B8</format>
                    </surface>
                </newparam>
                <newparam sid="Image0002-sampler">
                    <sampler2D>
                        <source>Image0002-surface</source>
                        <minfilter>LINEAR_MIPMAP_LINEAR</minfilter>
                        <magfilter>LINEAR</magfilter>
                    </sampler2D>
                </newparam>
                <technique sid="common">
                    <phong>
                        <diffuse>
                            <texture texture="Image0002-sampler" texcoord="uvSet1" />
                        </diffuse>
                        <specular>
                            <color sid="specular_effect_rgb">0.2 0.2 0.2 1</color>
                        </specular>
                        <shininess>
                            <float sid="specular_effect_rgb">256</float>
                        </shininess>
                    </phong>
                </technique>
            </profile_COMMON>
        </effect>
        <effect id="Effect-fuse_sticker" name="fuse_sticker">
            <profile_COMMON>
                <newparam sid="Image0005-surface">
                    <surface type="2D">
                        <init_from>Image0005</init_from>
                        <format>A8R8G8B8</format>
                    </surface>
                </newparam>
                <newparam sid="Image0005-sampler">
                    <sampler2D>
                        <source>Image0005-surface</source>
                        <minfilter>LINEAR_MIPMAP_LINEAR</minfilter>
                        <magfilter>LINEAR</magfilter>
                    </sampler2D>
                </newparam>
                <technique sid="common">
                    <phong>
                        <diffuse>
                            <texture texture="Image0005-sampler" texcoord="uvSet1" />
                        </diffuse>
                        <specular>
                            <color sid="specular_effect_rgb">0.2 0.2 0.2 1</color>
                        </specular>
                        <shininess>
                            <float sid="specular_effect_rgb">256</float>
                        </shininess>
                    </phong>
                </technique>
            </profile_COMMON>
        </effect>
    </library_effects>
    <library_geometries>
        <geometry id="Geometry-mesh019" name="algea_crate">
            <mesh>
                <source id="Geometry-mesh019-positions" name="positions">
                    <float_array id="Geometry-mesh019-positions-array" count="276">-0.0646445 0.360624 0.501484 -0.0638049 0.360624 0.48228 0.0646445 0.360624 0.501484 0.0638049 0.360624 0.48228 -0.0646445 0.317527 0.501484 -0.0638049 0.317527 0.48228 0.0646445 0.317527 0.501484 0.0638049 0.317527 0.48228 -0.0626855 0.358665 0.497964 -0.0626855 0.358665 0.486639 0.0626855 0.358665 0.497964 0.0626855 0.358665 0.486639 -0.0626855 0.319486 0.497964 -0.0626855 0.319486 0.486639 0.0626855 0.319486 0.497964 0.0626855 0.319486 0.486639 -0.257459 0.00789496 0.49573 -0.251704 0.00214062 0.49573 -0.257459 0.403328 0.49573 0.257459 0.00789496 0.49573 0.251704 0.00214062 0.49573 0.257459 0.403328 0.49573 -0.0646445 0.360624 -0.501484 -0.0638049 0.360624 -0.48228 0.0646445 0.360624 -0.501484 0.0638049 0.360624 -0.48228 -0.0646445 0.317527 -0.501484 -0.0638049 0.317527 -0.48228 0.0646445 0.317527 -0.501484 0.0638049 0.317527 -0.48228 -0.0626855 0.358665 -0.497964 -0.0626855 0.358665 -0.486639 0.0626855 0.358665 -0.497964 0.0626855 0.358665 -0.486639 -0.0626855 0.319486 -0.497964 -0.0626855 0.319486 -0.486639 0.0626855 0.319486 -0.497964 0.0626855 0.319486 -0.486639 -0.251704 0.00214062 -0.49573 -0.257459 0.00789496 -0.49573 0.257459 0.00789496 -0.49573 0.251704 0.00214062 -0.49573 -0.257459 0.403328 -0.49573 0.257459 0.403328 -0.49573 0.0720604 0.347048 0.501484 0.0720604 0.331103 0.501484 0.0712209 0.347048 0.48228 0.0712209 0.331103 0.48228 0.0694019 0.346323 0.486639 0.0694019 0.346323 0.497964 0.0694019 0.331827 0.486639 0.0694019 0.331827 0.497964 0.0720604 0.347048 -0.501484 0.0720604 0.331103 -0.501484 0.0712209 0.347048 -0.48228 0.0712209 0.331103 -0.48228 0.0694019 0.346323 -0.497964 0.0694019 0.346323 -0.486639 0.0694019 0.331827 -0.497964 0.0694019 0.331827 -0.486639 -0.0720604 0.347048 0.501484 -0.0720604 0.331103 0.501484 -0.0712209 0.347048 0.48228 -0.0712209 0.331103 0.48228 -0.0720604 0.347048 -0.501484 -0.0720604 0.331103 -0.501484 -0.0712209 0.347048 -0.48228 -0.0712209 0.331103 -0.48228 -0.0694019 0.346323 -0.486639 -0.0694019 0.346323 -0.497964 -0.0694019 0.331827 -0.486639 -0.0694019 0.331827 -0.497964 -0.0694019 0.346323 0.497964 -0.0694019 0.346323 0.486639 -0.0694019 0.331827 0.497964 -0.0694019 0.331827 0.486639 0.251704 0.403328 -0.501484 -0.251704 0.403328 -0.501484 0.251704 0.403328 0.501484 -0.251704 0.403328 0.501484 0.251704 0.00789496 0.501484 -0.251704 0.00789496 0.501484 0.251704 0.00789496 -0.501484 -0.251704 0.00789496 -0.501484 0.238254 0.403328 -0.48228 -0.238254 0.403328 -0.48228 0.238254 0.0374992 -0.48228 -0.238254 0.0374992 -0.48228 0.238254 0.0374992 0.48228 -0.238254 0.0374992 0.48228 0.238254 0.403328 0.48228 -0.238254 0.403328 0.48228</float_array>
                    <technique_common>
                        <accessor count="92" source="#Geometry-mesh019-positions-array" stride="3">
                            <param name="X" type="float" />
                            <param name="Y" type="float" />
                            <param name="Z" type="float" />
                        </accessor>
                    </technique_common>
                </source>
                <source id="Geometry-mesh019-normals" name="normals">
                    <float_array id="Geometry-mesh019-normals-array" count="336">0.280137 0.396173 -0.874397 0 0 -1 -0.109017 0.462519 -0.879882 0 0 1 0.222735 0.472492 0.852725 -0.136956 0.38737 0.911695 0.180769 -0.280285 0.942742 0.302905 -0.673888 0.673887 0.692703 -0.200813 0.692703 -0.200813 -0.692704 0.692702 -0.280284 -0.180769 0.942742 -0.673887 -0.302906 0.673887 0.159458 -0.247241 -0.955743 0.692703 -0.200813 -0.692703 0.302905 -0.673888 -0.673887 -0.200813 -0.692704 -0.692702 -0.673887 -0.302906 -0.673887 -0.322688 -0.208118 -0.923341 0 1 0 0.5 0.707107 -0.5 -0.632456 0.447214 -0.632456 0.5 0.707107 0.5 -0.632456 0.447214 0.632456 0 -0.873798 -0.486289 0 -0.873798 -0.486289 0 -0.942684 -0.333686 0 -0.985983 -0.166843 -0.844121 -0.459947 -0.275513 -0.947515 -0.244142 -0.206423 -0.858674 -0.467305 0.210488 -0.917821 -0.224401 0.32749 -0.298001 0.839763 -0.453865 -0.565914 0.798457 -0.205445 -0.885913 0.224687 -0.405801 -0.967144 0.192146 -0.166471 -0.862727 0.298682 0.408033 -0.885913 -0.224687 0.405801 -0.947515 0.244142 0.206423 -0.967144 -0.192146 0.166471 0.832847 -0.453249 0.317695 0.888965 -0.265667 0.373044 0.859123 -0.467972 -0.207149 0.967144 -0.192146 -0.166471 0.778271 0.129389 0.614453 0.387825 0.69584 0.604482 0.917821 0.224401 0.32749 0.49193 0.842921 0.217921 1 0 0 0.923879 -0.382684 0 0.894427 0.447214 0 0.447214 0.894427 0 0 -0.99024 0.139372 0 -0.960365 0.278744 -0.862727 -0.298682 -0.408033 -0.803047 -0.438687 0.403322 -0.859123 -0.467972 0.207149 0.763053 0.194519 -0.61637 0.888965 0.265667 -0.373044 0.387825 0.69584 -0.604482 0.376286 0.889452 -0.259393 0.763053 -0.194519 0.61637 0 -0.912143 -0.409872 0 -0.960365 -0.278744 0 -0.99024 -0.139372 0.453843 0.763423 0.459578 -0.298001 0.839763 0.453865 0.563186 0.779891 0.273115 -0.488469 0.838914 0.240045 -0.803047 -0.438687 -0.403322 -0.778271 0.129389 -0.614453 -0.51064 0.59731 -0.618439 -0.917821 0.224401 -0.32749 -0.489501 0.813623 -0.313697 0.778271 -0.129389 -0.614453 0.917821 -0.224401 -0.32749 0.699619 -0.381464 0.604167 -0.894427 0.447214 0 -0.447214 0.894427 0 0 -0.873798 0.486289 0 -0.942684 0.333686 0 -0.873798 0.486289 0 -0.985983 0.166843 0.707106 -0.707108 0 -0.763053 0.194519 0.61637 -0.888965 0.265667 0.373044 -0.51064 0.59731 0.618439 -0.372406 0.850524 0.37138 -0.763053 -0.194519 -0.61637 -0.888965 -0.265667 -0.373044 0.699619 -0.381464 -0.604167 0.858674 -0.467305 -0.210488 0.885913 0.224687 0.405801 0.967144 0.192146 0.166471 -0.778271 -0.129389 0.614453 -0.699619 -0.381464 -0.604167 -0.832847 -0.453249 -0.317695 0.862727 -0.298682 0.408033 0.947515 -0.244142 0.206423 -0.923879 -0.382684 0 -0.699619 -0.381464 0.604167 0.803047 -0.438687 0.403322 0.844121 -0.459947 0.275513 0.453843 0.763423 -0.459578 0.862727 0.298682 -0.408033 0.484487 0.814936 -0.318043 0.947515 0.244142 -0.206423 -1 0 0 0 -0.912143 0.409872 0 -1 0 0.885913 -0.224687 -0.405801 -0.707106 -0.707108 0 0.803047 -0.438687 -0.403322</float_array>
                    <technique_common>
                        <accessor count="112" source="#Geometry-mesh019-normals-array" stride="3">
                            <param name="X" type="float" />
                            <param name="Y" type="float" />
                            <param name="Z" type="float" />
                        </accessor>
                    </technique_common>
                </source>
                <source id="Geometry-mesh019-uvSet1" name="uvSet1">
                    <float_array id="Geometry-mesh019-uvSet1-array" count="352">0.282596 0.0153775 0.185817 0.0452512 0.181772 0.0380669 0.112091 0.0380609 0.108044 0.0452485 0.0112685 0.015347 0.180908 0.965178 0.184954 0.957991 0.281721 0.987868 0.0104258 0.987894 0.10719 0.958003 0.111236 0.965186 0.281975 0.777811 0.282019 0.773491 0.286353 0.777768 0.184954 0.949537 0.180937 0.94234 0.0100745 0.773521 0.0101197 0.777841 0.00574182 0.777799 0.111195 0.942342 0.10718 0.949538 0.28285 0.225432 0.287228 0.225475 0.282894 0.229752 0.181807 0.0609119 0.185825 0.0537164 0.0109413 0.229759 0.00660673 0.225481 0.0109854 0.225438 0.108043 0.0537038 0.11206 0.0609024 0.391412 0.0287871 0.3869 0.0361589 0.292406 0.00478477 0.275464 0.0051479 0.286913 0.0152016 0.463745 0.028757 0.562755 0.0047778 0.468253 0.0360685 0.00695071 0.0151701 0.0184029 0.00511878 0.386946 0.0447556 0.391344 0.0522117 0.29214 0.208945 0.563074 0.208906 0.463856 0.0522881 0.46825 0.044861 0.295397 0.792674 0.394609 0.94929 0.390215 0.956717 0.471518 0.956824 0.46712 0.949369 0.566328 0.792638 0.295711 0.996798 0.390211 0.96551 0.39472 0.972821 0.286038 0.988044 0.274589 0.998097 0.467051 0.972793 0.471565 0.965421 0.566055 0.996798 0.00610936 0.988071 0.0175597 0.998121 0.332322 0.227235 0.410869 0.227235 0.333512 0.229675 0.409679 0.229675 0.435354 0.769879 0.426783 0.769596 0.435586 0.763159 0.427029 0.762711 0.40953 0.772185 0.409033 0.769255 0.417782 0.772018 0.417924 0.769267 0.419264 0.211799 0.428409 0.211406 0.41942 0.214599 0.428329 0.214263 0.306601 0.763172 0.3152 0.762744 0.306862 0.769878 0.315402 0.769624 0.324046 0.759917 0.332156 0.759889 0.324131 0.76261 0.333163 0.762366 0.00552761 0.243618 0.221145 0.243689 0.00531953 0.756233 0.221043 0.756147 0.711387 0.777952 0.467518 0.778016 0.711253 0.226681 0.467331 0.226683 0.333515 0.236536 0.409676 0.236537 0.426851 0.772505 0.437522 0.211109 0.436867 0.214007 0.325607 0.224067 0.325679 0.221316 0.333672 0.224021 0.334678 0.221544 0.315036 0.760006 0.411132 0.775974 0.410444 0.7789 0.33281 0.775975 0.333498 0.7789 0.334189 0.211708 0.411055 0.211683 0.334688 0.214644 0.410563 0.214614 0.436011 0.772777 0.419686 0.223969 0.411579 0.223999 0.419602 0.221276 0.41057 0.221519 0.316544 0.22386 0.316693 0.221179 0.305953 0.760589 0.574181 0.793969 0.992609 0.79404 0.574209 0.9963 0.992639 0.996373 0.978422 0.777957 0.978237 0.226582 0.990267 0.770477 0.990084 0.234059 0.332294 0.788297 0.333496 0.785832 0.41165 0.788297 0.410447 0.785832 0.716273 0.226682 0.716406 0.77795 0.418115 0.759827 0.418043 0.762578 0.41005 0.759874 0.409044 0.762356 0.428695 0.22388 0.428531 0.221142 0.307478 0.223308 0.308137 0.220727 0.325943 0.211877 0.3258 0.214628 0.427176 0.76003 0.437778 0.223295 0.437129 0.220713 0.316876 0.211386 0.316942 0.214294 0.734495 0.777944 0.734353 0.226649 0.436243 0.760577 0.307716 0.211109 0.308371 0.214007 0.332679 0.772208 0.324468 0.772087 0.333172 0.769271 0.324312 0.769288 0.446528 0.756179 0.230911 0.75611 0.446729 0.243566 0.23101 0.243655 0.410356 0.239432 0.332835 0.239432 0.985443 0.211781 0.570817 0.21187 0.985438 0.00445401 0.570794 0.00454883 0.315321 0.772481 0.729476 0.777943 0.729334 0.226651 0.306208 0.772777 0.455671 0.77054 0.455486 0.234163</float_array>
                    <technique_common>
                        <accessor count="176" source="#Geometry-mesh019-uvSet1-array" stride="2">
                            <param name="S" type="float" />
                            <param name="T" type="float" />
                        </accessor>
                    </technique_common>
                </source>
                <source id="Geometry-mesh019-Falloff" name="Falloff">
                    <float_array id="Geometry-mesh019-Falloff-array" count="1">0</float_array>
                    <technique_common>
                        <accessor count="1" source="#Geometry-mesh019-Falloff-array" stride="1">
                            <param name="WEIGHT" type="float" />
                        </accessor>
                    </technique_common>
                </source>
                <vertices id="Geometry-mesh019-vertices">
                    <input semantic="POSITION" source="#Geometry-mesh019-positions" />
                </vertices>
                <triangles count="188" material="Material-algea_crate">
                    <input semantic="VERTEX" source="#Geometry-mesh019-vertices" offset="0" />
                    <input semantic="NORMAL" source="#Geometry-mesh019-normals" offset="1" />
                    <input semantic="TEXCOORD" source="#Geometry-mesh019-uvSet1" offset="2" set="0" />
                    <input semantic="WEIGHT" source="#Geometry-mesh019-Falloff" offset="3" set="0" />
                    <p>76 0 0 0 52 1 1 0 24 1 2 0 22 1 3 0 64 1 4 0 77 2 5 0 2 3 6 0 44 3 7 0 78 4 8 0 79 5 9 0 60 3 10 0 0 3 11 0 80 6 12 0 20 7 13 0 19 8 14 0 45 3 15 0 6 3 16 0 80 6 12 0 17 9 17 0 81 10 18 0 16 11 19 0 81 10 18 0 4 3 20 0 61 3 21 0 82 12 22 0 40 13 23 0 41 14 24 0 82 12 22 0 28 1 25 0 53 1 26 0 38 15 27 0 39 16 28 0 83 17 29 0 65 1 30 0 26 1 31 0 83 17 29 0 25 3 32 0 54 3 33 0 84 3 34 0 76 0 0 0 84 18 35 0 43 19 36 0 23 3 37 0 25 3 32 0 85 3 38 0 85 3 38 0 66 3 39 0 23 3 37 0 42 20 40 0 85 18 41 0 77 2 5 0 84 3 34 0 85 3 38 0 25 3 32 0 55 3 42 0 29 3 43 0 86 3 44 0 87 3 45 0 27 3 46 0 67 3 47 0 88 1 48 0 7 1 49 0 47 1 50 0 63 1 51 0 5 1 52 0 89 1 53 0 90 1 54 0 46 1 55 0 3 1 56 0 78 4 8 0 21 21 57 0 90 18 58 0 1 1 59 0 62 1 60 0 91 1 61 0 18 22 62 0 79 5 9 0 91 18 63 0 22 23 64 0 24 24 65 0 30 25 66 0 32 26 67 0 30 25 66 0 24 24 65 0 11 27 68 0 48 28 69 0 10 29 70 0 49 30 71 0 10 29 70 0 48 28 69 0 7 31 72 0 15 32 73 0 47 33 74 0 50 34 75 0 47 33 74 0 15 32 73 0 55 35 76 0 54 36 77 0 59 37 78 0 57 38 79 0 59 37 78 0 54 36 77 0 8 39 80 0 72 40 81 0 9 41 82 0 73 42 83 0 9 41 82 0 72 40 81 0 61 43 84 0 4 44 85 0 74 45 86 0 12 46 87 0 74 45 86 0 4 44 85 0 79 5 9 0 81 10 18 0 60 3 10 0 61 3 21 0 60 3 10 0 81 10 18 0 43 19 36 0 40 13 23 0 76 0 0 0 82 12 22 0 76 0 0 0 40 13 23 0 91 47 88 0 89 47 89 0 85 47 90 0 87 47 91 0 85 47 90 0 89 47 89 0 40 48 92 0 43 49 93 0 19 48 94 0 21 50 95 0 19 48 94 0 43 49 93 0 30 25 66 0 32 26 67 0 31 51 96 0 33 52 97 0 31 51 96 0 32 26 67 0 46 53 98 0 47 33 74 0 48 28 69 0 50 34 75 0 48 28 69 0 47 33 74 0 25 54 99 0 33 55 100 0 54 36 77 0 57 38 79 0 54 36 77 0 33 55 100 0 65 56 101 0 71 57 102 0 26 58 103 0 34 59 104 0 26 58 103 0 71 57 102 0 60 60 105 0 61 43 84 0 72 40 81 0 74 45 86 0 72 40 81 0 61 43 84 0 76 0 0 0 24 1 2 0 77 2 5 0 22 1 3 0 77 2 5 0 24 1 2 0 76 0 0 0 82 12 22 0 52 1 1 0 53 1 26 0 52 1 1 0 82 12 22 0 86 3 44 0 84 3 34 0 55 3 42 0 54 3 33 0 55 3 42 0 84 3 34 0 89 1 53 0 91 1 61 0 63 1 51 0 62 1 60 0 63 1 51 0 91 1 61 0 3 61 106 0 11 62 107 0 1 61 108 0 9 63 109 0 1 61 108 0 11 62 107 0 27 64 110 0 29 65 111 0 35 66 112 0 37 67 113 0 35 66 112 0 29 65 111 0 3 68 114 0 46 53 98 0 11 27 68 0 48 28 69 0 11 27 68 0 46 53 98 0 53 69 115 0 28 70 116 0 58 71 117 0 36 72 118 0 58 71 117 0 28 70 116 0 65 56 101 0 64 73 119 0 71 57 102 0 69 74 120 0 71 57 102 0 64 73 119 0 60 60 105 0 72 40 81 0 0 75 121 0 8 39 80 0 0 75 121 0 72 40 81 0 83 17 29 0 82 12 22 0 38 15 27 0 41 14 24 0 38 15 27 0 82 12 22 0 88 18 122 0 86 18 123 0 89 18 124 0 87 18 125 0 89 18 124 0 86 18 123 0 42 76 126 0 18 77 127 0 85 18 128 0 91 18 129 0 85 18 128 0 18 77 127 0 0 78 130 0 8 79 131 0 2 80 132 0 10 81 133 0 2 80 132 0 8 79 131 0 19 48 94 0 20 82 134 0 41 82 135 0 41 82 135 0 40 48 92 0 19 48 94 0 45 83 136 0 51 84 137 0 6 85 138 0 14 86 139 0 6 85 138 0 51 84 137 0 52 87 140 0 53 69 115 0 56 88 141 0 58 71 117 0 56 88 141 0 53 69 115 0 64 73 119 0 22 89 142 0 69 74 120 0 30 90 143 0 69 74 120 0 22 89 142 0 27 64 110 0 35 66 112 0 67 91 144 0 70 92 145 0 67 91 144 0 35 66 112 0 80 6 12 0 78 4 8 0 45 3 15 0 44 3 7 0 45 3 15 0 78 4 8 0 83 17 29 0 26 1 31 0 82 12 22 0 28 1 25 0 82 12 22 0 26 1 31 0 76 0 0 0 77 2 5 0 84 18 35 0 85 18 41 0 84 18 35 0 77 2 5 0 88 1 48 0 89 1 53 0 7 1 49 0 5 1 52 0 7 1 49 0 89 1 53 0 8 79 131 0 9 63 109 0 10 81 133 0 11 62 107 0 10 81 133 0 9 63 109 0 28 70 116 0 26 58 103 0 36 72 118 0 34 59 104 0 36 72 118 0 26 58 103 0 45 83 136 0 44 93 146 0 51 84 137 0 49 30 71 0 51 84 137 0 44 93 146 0 52 87 140 0 56 88 141 0 24 94 147 0 32 95 148 0 24 94 147 0 56 88 141 0 70 92 145 0 35 66 112 0 71 57 102 0 34 59 104 0 71 57 102 0 35 66 112 0 66 96 149 0 67 91 144 0 68 97 150 0 70 92 145 0 68 97 150 0 67 91 144 0 39 98 151 0 16 98 152 0 42 76 126 0 18 77 127 0 42 76 126 0 16 98 152 0 21 21 57 0 78 4 8 0 19 8 14 0 80 6 12 0 19 8 14 0 78 4 8 0 39 16 28 0 42 20 40 0 83 17 29 0 77 2 5 0 83 17 29 0 42 20 40 0 6 85 138 0 14 86 139 0 4 44 85 0 12 46 87 0 4 44 85 0 14 86 139 0 36 72 118 0 34 59 104 0 37 67 113 0 35 66 112 0 37 67 113 0 34 59 104 0 44 93 146 0 2 99 153 0 49 30 71 0 10 29 70 0 49 30 71 0 2 99 153 0 58 71 117 0 36 72 118 0 59 37 78 0 37 67 113 0 59 37 78 0 36 72 118 0 68 97 150 0 70 92 145 0 69 74 120 0 71 57 102 0 69 74 120 0 70 92 145 0 23 100 154 0 66 96 149 0 31 101 155 0 68 97 150 0 31 101 155 0 66 96 149 0 5 102 156 0 63 103 157 0 13 104 158 0 75 105 159 0 13 104 158 0 63 103 157 0 81 10 18 0 17 9 17 0 80 6 12 0 20 7 13 0 80 6 12 0 17 9 17 0 83 17 29 0 77 2 5 0 65 1 30 0 64 1 4 0 65 1 30 0 77 2 5 0 84 106 160 0 86 106 161 0 90 106 162 0 88 106 163 0 90 106 162 0 86 106 161 0 25 107 164 0 23 107 165 0 33 52 97 0 31 51 96 0 33 52 97 0 23 107 165 0 14 86 139 0 15 32 73 0 12 46 87 0 13 104 158 0 12 46 87 0 15 32 73 0 41 108 166 0 20 108 167 0 38 108 168 0 17 108 169 0 38 108 168 0 20 108 167 0 50 34 75 0 15 32 73 0 51 84 137 0 14 86 139 0 51 84 137 0 15 32 73 0 56 88 141 0 58 71 117 0 57 38 79 0 59 37 78 0 57 38 79 0 58 71 117 0 31 101 155 0 68 97 150 0 30 90 143 0 69 74 120 0 30 90 143 0 68 97 150 0 74 45 86 0 12 46 87 0 75 105 159 0 13 104 158 0 75 105 159 0 12 46 87 0 63 103 157 0 62 109 170 0 75 105 159 0 73 42 83 0 75 105 159 0 62 109 170 0 78 4 8 0 79 5 9 0 2 3 6 0 0 3 11 0 2 3 6 0 79 5 9 0 81 10 18 0 80 6 12 0 4 3 20 0 6 3 16 0 4 3 20 0 80 6 12 0 86 3 44 0 29 3 43 0 87 3 45 0 27 3 46 0 87 3 45 0 29 3 43 0 90 1 54 0 88 1 48 0 46 1 55 0 47 1 50 0 46 1 55 0 88 1 48 0 79 5 9 0 78 4 8 0 91 18 63 0 90 18 58 0 91 18 63 0 78 4 8 0 5 102 156 0 13 104 158 0 7 31 72 0 15 32 73 0 7 31 72 0 13 104 158 0 16 98 152 0 39 98 151 0 38 110 171 0 38 110 171 0 17 110 172 0 16 98 152 0 48 28 69 0 50 34 75 0 49 30 71 0 51 84 137 0 49 30 71 0 50 34 75 0 32 95 148 0 56 88 141 0 33 55 100 0 57 38 79 0 33 55 100 0 56 88 141 0 29 65 111 0 55 35 76 0 37 67 113 0 59 37 78 0 37 67 113 0 55 35 76 0 72 40 81 0 74 45 86 0 73 42 83 0 75 105 159 0 73 42 83 0 74 45 86 0 1 111 173 0 9 41 82 0 62 109 170 0 73 42 83 0 62 109 170 0 9 41 82 0 16 11 19 0 81 10 18 0 18 22 62 0 79 5 9 0 18 22 62 0 81 10 18 0 85 3 38 0 87 3 45 0 66 3 39 0 67 3 47 0 66 3 39 0 87 3 45 0 43 49 93 0 84 18 174 0 21 50 95 0 90 18 175 0 21 50 95 0 84 18 174 0 90 1 54 0 3 1 56 0 91 1 61 0 1 1 59 0 91 1 61 0 3 1 56 0</p>
                </triangles>
            </mesh>
        </geometry>
        <geometry id="Geometry-mesh004" name="Mesh__2_">
            <mesh>
                <source id="Geometry-mesh004-positions" name="positions">
                    <float_array id="Geometry-mesh004-positions-array" count="24">-0.259766 0.0821598 -0.0826172 -0.259766 0.0821598 -0.339258 -0.259766 0.326043 -0.339258 -0.259766 0.326043 -0.0826172 0.258911 0.0867124 0.14094 0.258911 0.0777558 0.397424 0.258911 0.321491 0.405935 0.258911 0.330447 0.149451</float_array>
                    <technique_common>
                        <accessor count="8" source="#Geometry-mesh004-positions-array" stride="3">
                            <param name="X" type="float" />
                            <param name="Y" type="float" />
                            <param name="Z" type="float" />
                        </accessor>
                    </technique_common>
                </source>
                <source id="Geometry-mesh004-normals" name="normals">
                    <float_array id="Geometry-mesh004-normals-array" count="6">-1 0 0 1 0 0</float_array>
                    <technique_common>
                        <accessor count="2" source="#Geometry-mesh004-normals-array" stride="3">
                            <param name="X" type="float" />
                            <param name="Y" type="float" />
                            <param name="Z" type="float" />
                        </accessor>
                    </technique_common>
                </source>
                <source id="Geometry-mesh004-uvSet1" name="uvSet1">
                    <float_array id="Geometry-mesh004-uvSet1-array" count="8">1 0 1 1 0.00291991 0 0.00291991 1</float_array>
                    <technique_common>
                        <accessor count="4" source="#Geometry-mesh004-uvSet1-array" stride="2">
                            <param name="S" type="float" />
                            <param name="T" type="float" />
                        </accessor>
                    </technique_common>
                </source>
                <vertices id="Geometry-mesh004-vertices">
                    <input semantic="POSITION" source="#Geometry-mesh004-positions" />
                </vertices>
                <triangles count="4" material="Material-fuse_sticker">
                    <input semantic="VERTEX" source="#Geometry-mesh004-vertices" offset="0" />
                    <input semantic="NORMAL" source="#Geometry-mesh004-normals" offset="1" />
                    <input semantic="TEXCOORD" source="#Geometry-mesh004-uvSet1" offset="2" set="0" />
                    <p>0 0 0 3 0 1 1 0 2 2 0 3 1 0 2 3 0 1 4 1 0 7 1 1 5 1 2 6 1 3 5 1 2 7 1 1</p>
                </triangles>
            </mesh>
        </geometry>
    </library_geometries>
    <library_visual_scenes>
        <visual_scene id="DefaultScene">
            <node id="Geometry-mesh019Node" name="algea_crate" type="NODE">
                <instance_geometry url="#Geometry-mesh019">
                    <bind_material>
                        <technique_common>
                            <instance_material symbol="Material-algea_crate" target="#Material-algea_crate">
                                <bind_vertex_input semantic="uvSet1" input_semantic="TEXCOORD" input_set="0" />
                            </instance_material>
                        </technique_common>
                    </bind_material>
                </instance_geometry>
            </node>
            <node id="Geometry-mesh004Node" name="Mesh__2_" type="NODE">
                <instance_geometry url="#Geometry-mesh004">
                    <bind_material>
                        <technique_common>
                            <instance_material symbol="Material-fuse_sticker" target="#Material-fuse_sticker">
                                <bind_vertex_input semantic="uvSet1" input_semantic="TEXCOORD" input_set="0" />
                            </instance_material>
                        </technique_common>
                    </bind_material>
                </instance_geometry>
            </node>
            <node id="groupLocator033Node" name="Texture_Group" type="NODE">
                <node id="txtrLocator018Node" name="algea_trans__Image___Texture_" type="NODE">
                    <translate sid="translation021">0 0 0</translate>
                    <rotate sid="rotation020Y">0 1 0 0</rotate>
                    <rotate sid="rotation020X">1 0 0 0</rotate>
                    <rotate sid="rotation020Z">0 0 1 0</rotate>
                    <scale sid="scale019">1 1 1</scale>
                </node>
                <node id="txtrLocator005Node" name="algea__2___Image___Texture_" type="NODE">
                    <translate sid="translation008">0 0 0</translate>
                    <rotate sid="rotation007Y">0 1 0 0</rotate>
                    <rotate sid="rotation007X">1 0 0 0</rotate>
                    <rotate sid="rotation007Z">0 0 1 0</rotate>
                    <scale sid="scale006">1 1 1</scale>
                </node>
                <node id="txtrLocator069Node" name="algea_crate__2___Image___Texture_" type="NODE">
                    <translate sid="translation072">0 0 0</translate>
                    <rotate sid="rotation071Y">0 1 0 0</rotate>
                    <rotate sid="rotation071X">1 0 0 0</rotate>
                    <rotate sid="rotation071Z">0 0 1 0</rotate>
                    <scale sid="scale070">1 1 1</scale>
                </node>
                <node id="txtrLocator064Node" name="algea_crate_nrm__Image___Texture_" type="NODE">
                    <translate sid="translation067">0 0 0</translate>
                    <rotate sid="rotation066Y">0 1 0 0</rotate>
                    <rotate sid="rotation066X">1 0 0 0</rotate>
                    <rotate sid="rotation066Z">0 0 1 0</rotate>
                    <scale sid="scale065">1 1 1</scale>
                </node>
                <node id="txtrLocator053Node" name="_none___Image___Texture_" type="NODE">
                    <translate sid="translation056">0 0 0</translate>
                    <rotate sid="rotation055Y">0 1 0 0</rotate>
                    <rotate sid="rotation055X">1 0 0 0</rotate>
                    <rotate sid="rotation055Z">0 0 1 0</rotate>
                    <scale sid="scale054">1 1 1</scale>
                </node>
                <node id="txtrLocator006Node" name="box_spare_fuses_label__Image___Texture_" type="NODE">
                    <translate sid="translation010">0 0 0</translate>
                    <rotate sid="rotation008Y">0 1 0 0</rotate>
                    <rotate sid="rotation008X">1 0 0 0</rotate>
                    <rotate sid="rotation008Z">0 0 1 0</rotate>
                    <scale sid="scale007">1 1 1</scale>
                </node>
                <node id="txtrLocator049Node" name="junk_chip_basket_nrm__Image___Texture_" type="NODE">
                    <translate sid="translation052">0 0 0</translate>
                    <rotate sid="rotation051Y">0 1 0 0</rotate>
                    <rotate sid="rotation051X">1 0 0 0</rotate>
                    <rotate sid="rotation051Z">0 0 1 0</rotate>
                    <scale sid="scale050">1 1 1</scale>
                </node>
                <node id="txtrLocator054Node" name="junk_chip_basket__Image___Texture_" type="NODE">
                    <translate sid="translation057">0 0 0</translate>
                    <rotate sid="rotation056Y">0 1 0 0</rotate>
                    <rotate sid="rotation056X">1 0 0 0</rotate>
                    <rotate sid="rotation056Z">0 0 1 0</rotate>
                    <scale sid="scale055">1 1 1</scale>
                </node>
                <node id="txtrLocator058Node" name="junk_chip_basket_spec__Image___Texture_" type="NODE">
                    <translate sid="translation061">0 0 0</translate>
                    <rotate sid="rotation060Y">0 1 0 0</rotate>
                    <rotate sid="rotation060X">1 0 0 0</rotate>
                    <rotate sid="rotation060Z">0 0 1 0</rotate>
                    <scale sid="scale059">1 1 1</scale>
                </node>
            </node>
        </visual_scene>
    </library_visual_scenes>
    <scene>
        <instance_visual_scene url="#DefaultScene" />
    </scene>
</COLLADA>
