<?xml version="1.0" encoding="utf-8"?>
<COLLADA xmlns="http://www.collada.org/2005/11/COLLADASchema" version="1.4.0">
  <asset>
    <contributor>
      <author></author>
      <authoring_tool>FBX COLLADA exporter</authoring_tool>
      <comments></comments>
    </contributor>
    <created>2012-06-21T02:00:55Z</created>
    <modified>2012-06-21T02:00:55Z</modified>
    <revision></revision>
    <title></title>
    <subject></subject>
    <keywords></keywords>
    <unit meter="0.010000"/>
    <up_axis>Z_UP</up_axis>
  </asset>
  <library_images>
    <image id="Map__2-image" name="Map__2">
      <init_from>file://S:\work\frictional\logger\audio_logger_flesher.dds</init_from>
    </image>
    <image id="Map__3-image" name="Map__3">
      <init_from>file://S:\work\frictional\logger\audio_logger_flesher_illum.dds</init_from>
    </image>
  </library_images>
  <library_materials>
    <material id="_14___Default" name="_14___Default">
      <instance_effect url="#_14___Default-fx"/>
    </material>
  </library_materials>
  <library_effects>
    <effect id="_14___Default-fx" name="_14___Default">
      <profile_COMMON>
        <technique sid="standard">
          <phong>
            <emission>
              <texture texture="Map__3-image" texcoord="CHANNEL0">
                <extra>
                  <technique profile="MAYA">
                    <wrapU sid="wrapU0">TRUE</wrapU>
                    <wrapV sid="wrapV0">TRUE</wrapV>
                    <blend_mode>ADD</blend_mode>
                  </technique>
                </extra>
              </texture>
            </emission>
            <ambient>
              <color sid="ambient">0.588235  0.588235 0.588235 1.000000</color>
            </ambient>
            <diffuse>
              <texture texture="Map__2-image" texcoord="CHANNEL0">
                <extra>
                  <technique profile="MAYA">
                    <wrapU sid="wrapU0">TRUE</wrapU>
                    <wrapV sid="wrapV0">TRUE</wrapV>
                    <blend_mode>ADD</blend_mode>
                  </technique>
                </extra>
              </texture>
            </diffuse>
            <specular>
              <color sid="specular">0.000000  0.000000 0.000000 1.000000</color>
            </specular>
            <shininess>
              <float sid="shininess">2.000000</float>
            </shininess>
            <reflective>
              <color sid="reflective">0.000000  0.000000 0.000000 1.000000</color>
            </reflective>
            <reflectivity>
              <float sid="reflectivity">1.000000</float>
            </reflectivity>
            <transparent>
              <color sid="transparent">1.000000  1.000000 1.000000 1.000000</color>
            </transparent>
            <transparency>
              <float sid="transparency">0.000000</float>
            </transparency>
          </phong>
        </technique>
      </profile_COMMON>
    </effect>
  </library_effects>
  <library_geometries>
    <geometry id="logger_-lib" name="logger_Mesh">
      <mesh>
        <source id="logger_-lib-Position">
          <float_array id="logger_-lib-Position-array" count="324">
-11.231033 -3.275609 -15.617537
-5.968507 -3.275609 -15.617537
-12.470967 -1.987418 -15.617537
-12.470967 1.987422 -15.617537
-12.470967 1.987423 16.640478
-7.668954 3.275611 -13.553712
-11.231031 3.275611 -15.617537
-11.231032 1.987422 18.026442
-11.231032 -1.987418 18.026442
-7.668954 3.275610 -16.676687
-11.231031 3.275611 -16.676689
-11.231032 1.935335 -18.026442
-7.668954 1.935335 -18.026442
-7.668954 1.970895 -17.137690
-11.231032 1.987421 -17.018362
-7.668954 0.739997 -17.137690
-7.668954 0.739997 -18.026442
-9.994391 0.665634 -18.026442
-11.231032 0.665635 -18.026442
-5.968507 -2.517235 -18.026442
-9.994391 -2.517235 -18.026442
-11.231032 0.665634 -17.018362
-5.968507 -3.677762 -16.988224
-5.968507 -2.517235 -16.367767
-11.032263 -2.517235 -16.367767
-11.032263 -2.517235 -17.018362
-11.131648 -1.753068 -17.018362
-5.968507 -3.275610 2.376943
12.470968 -1.987421 16.640478
12.470968 1.987418 -15.617537
12.470968 -1.987422 -15.617537
7.668954 3.275608 -13.553712
11.231034 3.275608 -15.617537
11.231032 -3.275612 -15.617537
11.231033 -1.987421 18.026442
11.231033 1.987419 18.026442
7.668954 3.275608 -16.676687
7.668954 1.935332 -18.026442
11.231033 1.935332 -18.026442
11.231034 3.275608 -16.676689
7.668954 1.970892 -17.137690
11.231033 1.987418 -17.018362
7.668954 0.739995 -17.137690
7.668954 0.739995 -18.026442
9.994392 0.665631 -18.026442
11.231033 0.665631 -18.026442
5.968505 -2.517237 -18.026442
9.994392 -2.517238 -18.026442
11.231033 0.665631 -17.018362
5.968505 -3.677763 -16.988224
5.968505 -2.517237 -16.367767
11.032264 -2.517238 -16.367767
5.968505 -3.275611 -15.617537
11.032264 -2.517238 -17.018362
11.131648 -1.753071 -17.018362
-5.968507 -3.677762 2.219887
5.968505 -3.677763 2.219887
-12.470967 1.987422 -5.030591
-11.231031 3.275611 -5.030591
-10.087382 3.275611 -0.879644
-11.231033 -3.275608 -5.030591
12.470968 -1.987422 -5.030591
10.087383 3.275609 -0.879643
5.968505 -3.275611 -5.030592
5.968505 -3.677763 -5.030592
-12.470967 -1.987418 -5.030592
-10.087382 3.275611 -9.181540
-5.968507 -3.275610 -5.030591
12.470968 1.987418 -5.030592
11.231034 3.275608 -5.030592
11.231032 -3.275612 -5.030592
-5.968507 -3.677761 -5.030591
10.087383 3.275608 -9.181540
9.486450 2.634614 -1.480576
9.486450 2.634614 -8.580607
-9.486450 2.634616 -8.580607
-9.486450 2.634616 -1.480577
9.422857 0.112080 -18.026442
9.422857 -1.945702 -18.026442
-9.422856 -1.945699 -18.026442
-9.422856 0.112083 -18.026442
9.422857 0.112081 -10.863118
9.422857 -1.945702 -10.863118
-9.422856 -1.945699 -10.863118
-9.422856 0.112083 -10.863118
-11.231031 3.275612 16.640478
-11.231033 -3.275607 16.640478
11.231034 3.275609 16.640478
-12.470967 -1.987417 16.640478
12.470968 1.987419 16.640478
11.231032 -3.275611 16.640478
-12.470967 -1.987418 3.220441
12.470968 1.987418 3.220441
11.231032 -3.275612 3.220441
-12.470967 1.987422 3.220442
-11.231031 3.275612 3.220442
-11.231033 -3.275608 3.220442
12.470968 -1.987422 3.220442
11.231034 3.275608 3.220441
5.968505 -3.275612 2.376943
-10.046952 3.275612 15.689805
-10.046952 3.275611 3.220442
10.046954 3.275609 15.689805
10.046954 3.275609 3.220441
-9.707014 2.822360 3.560381
-9.707014 2.822360 15.349865
9.707014 2.822357 15.349865
9.707014 2.822357 3.560380
</float_array>
          <technique_common>
            <accessor source="#logger_-lib-Position-array" count="108" stride="3">
              <param name="X" type="float"/>
              <param name="Y" type="float"/>
              <param name="Z" type="float"/>
            </accessor>
          </technique_common>
        </source>
        <source id="logger_-lib-Normal0">
          <float_array id="logger_-lib-Normal0-array" count="1908">
0.000000 0.996252 -0.086504
0.000000 1.000000 -0.000000
0.000000 1.000000 -0.000000
0.000000 1.000000 -0.000000
0.000000 0.996252 -0.086504
0.000000 0.996252 -0.086504
-0.701916 0.675624 -0.225491
-0.886187 0.337192 -0.317763
-0.927489 0.373850 -0.000000
-0.927489 0.373850 -0.000000
-0.720472 0.693484 -0.000000
-0.701916 0.675624 -0.225491
-0.885514 -0.336900 0.319942
-0.724121 -0.236580 0.647826
-0.724121 0.236580 0.647826
-0.724121 0.236580 0.647826
-0.885514 0.336900 0.319942
-0.885514 -0.336900 0.319942
-0.885514 0.336900 0.319942
-0.724121 0.236580 0.647826
-0.701674 0.675391 0.226938
-0.701675 -0.675390 0.226938
-0.724121 -0.236580 0.647826
-0.885514 -0.336900 0.319942
0.000000 0.399501 0.916733
0.000000 0.399501 0.916733
0.000000 0.930718 0.365738
0.000000 0.930718 0.365738
0.000000 0.930718 0.365738
0.000000 0.399501 0.916733
-0.000000 -0.930718 0.365738
-0.000000 -0.930718 0.365738
-0.000000 -0.399501 0.916733
-0.000000 -0.399501 0.916733
-0.000000 -0.399501 0.916733
-0.000000 -0.930718 0.365738
0.000000 0.924552 -0.381055
0.000000 0.709594 -0.704611
0.000000 0.709594 -0.704611
0.000000 0.709594 -0.704611
0.000000 0.924552 -0.381056
0.000000 0.924552 -0.381055
1.000000 -0.000000 0.000000
1.000000 -0.000000 0.000000
1.000000 0.000000 0.000000
-0.701916 0.675624 -0.225491
-0.727565 0.236453 -0.644002
-0.886187 0.337192 -0.317763
-1.000000 0.000001 -0.000000
-1.000000 0.000001 -0.000000
-1.000000 0.000000 -0.000000
-0.000000 -0.399501 0.916733
0.000000 0.399501 0.916733
0.000000 0.399501 0.916733
0.000000 0.399501 0.916733
-0.000000 -0.399501 0.916733
-0.000000 -0.399501 0.916733
1.000000 -0.000000 0.000000
1.000000 0.000000 0.000000
1.000000 0.000000 0.000000
-1.000000 0.000000 -0.000000
-1.000000 0.000001 -0.000000
-1.000000 0.000000 -0.000000
0.000000 0.573551 -0.819170
0.000000 0.707107 -0.707107
0.000000 0.707107 -0.707107
0.000000 0.707107 -0.707107
0.000000 0.573551 -0.819170
0.000000 0.573551 -0.819170
1.000000 -0.000000 0.000000
1.000000 -0.000000 0.000000
1.000000 -0.000000 0.000000
1.000000 -0.000000 0.000000
1.000000 -0.000000 0.000000
1.000000 -0.000000 0.000000
0.000000 0.000000 -1.000000
-0.170191 -0.003020 -0.985407
0.000000 0.000000 -1.000000
0.000000 0.000000 -1.000000
-0.170191 -0.003020 -0.985407
0.000000 0.000000 -1.000000
0.000000 0.000000 -1.000000
0.000000 0.000000 -1.000000
0.000000 0.000000 -1.000000
0.000000 0.000000 -1.000000
0.000000 0.000000 -1.000000
0.000000 0.000000 -1.000000
-0.000000 -1.000000 -0.000000
-0.000000 -1.000000 -0.000000
-0.000000 -1.000000 -0.000000
-1.000000 0.000000 0.000000
-1.000000 0.000000 -0.000000
-1.000000 0.000000 -0.000000
-1.000000 0.000000 -0.000000
-1.000000 0.000000 0.000000
-1.000000 0.000000 0.000000
-0.727565 0.236453 -0.644002
-0.743124 -0.005994 -0.669126
-0.871534 -0.348907 -0.344518
-0.871534 -0.348907 -0.344518
-0.886187 0.337192 -0.317763
-0.727565 0.236453 -0.644002
0.000000 1.000000 -0.000000
0.000000 0.996252 -0.086504
0.000000 0.924552 -0.381055
0.000000 1.000000 -0.000000
0.000000 0.924552 -0.381055
0.000000 0.924552 -0.381056
0.000000 0.996252 -0.086504
0.000000 1.000000 -0.000000
0.000000 1.000000 -0.000000
0.000000 0.000000 -1.000000
0.000000 0.000000 -1.000000
-0.170191 -0.003020 -0.985407
-0.000000 -0.236007 -0.971751
-0.000000 -0.236007 -0.971751
-0.000000 -0.912892 -0.408202
-0.000000 -0.912892 -0.408202
-0.000000 -0.912892 -0.408202
-0.000000 -0.236007 -0.971751
-0.000000 -1.000000 0.000000
-0.000000 -1.000000 0.000000
-0.000000 -1.000000 0.000000
-0.000000 -1.000000 0.000000
-0.000000 -1.000000 0.000000
-0.000000 -1.000000 0.000000
-0.000000 -0.703279 -0.710914
-0.000000 -0.703279 -0.710914
-0.000000 -0.703279 -0.710914
-0.000000 -0.703279 -0.710914
-0.000000 -0.703279 -0.710914
-0.000000 -0.703279 -0.710914
-0.000000 -1.000000 0.000000
-0.000000 -1.000000 0.000000
-0.000000 -1.000000 0.000000
-0.354894 -0.018715 -0.934719
-0.693893 -0.090246 -0.714400
-0.664792 -0.037406 -0.746091
-0.664792 -0.037406 -0.746091
-0.649449 -0.011523 -0.760318
-0.170191 -0.003020 -0.985407
-0.170191 -0.003020 -0.985407
-0.354894 -0.018715 -0.934719
-0.664792 -0.037406 -0.746091
-0.743124 -0.005994 -0.669126
-0.676342 -0.258218 -0.689844
-0.871534 -0.348907 -0.344518
-0.871534 -0.348907 -0.344518
-0.536040 -0.555595 -0.635591
-0.685951 -0.660254 -0.305836
-0.991648 -0.128971 0.000000
-0.991648 -0.128971 0.000000
-0.991648 -0.128971 0.000000
-0.871534 -0.348907 -0.344518
-0.676342 -0.258218 -0.689844
-0.536040 -0.555595 -0.635591
-1.000000 0.000000 0.000000
-1.000000 0.000000 0.000000
-1.000000 0.000000 0.000000
-1.000000 0.000000 0.000000
-1.000000 0.000000 0.000000
-1.000000 0.000000 0.000000
-0.000000 -1.000000 0.000000
-0.000000 -1.000000 0.000000
-0.000000 -1.000000 0.000000
-0.000000 -1.000000 0.000000
-0.000000 -1.000000 0.000000
-0.000000 -1.000000 0.000000
0.701917 0.675623 -0.225491
0.720473 0.693483 -0.000000
0.927489 0.373850 -0.000000
0.927489 0.373850 -0.000000
0.886187 0.337192 -0.317763
0.701917 0.675623 -0.225491
0.885514 -0.336900 0.319942
0.885514 0.336900 0.319942
0.724121 0.236580 0.647826
0.724121 0.236580 0.647826
0.724121 -0.236580 0.647826
0.885514 -0.336900 0.319942
0.885514 0.336900 0.319942
0.701675 0.675390 0.226938
0.724121 0.236580 0.647826
0.701674 -0.675390 0.226938
0.885514 -0.336900 0.319942
0.724121 -0.236580 0.647826
0.000000 0.924552 -0.381055
0.000000 0.924552 -0.381056
-0.000000 0.709594 -0.704611
-0.000000 0.709594 -0.704611
-0.000000 0.709594 -0.704611
0.000000 0.924552 -0.381055
-1.000000 0.000000 -0.000000
-1.000000 0.000000 0.000000
-1.000000 0.000000 -0.000000
0.701917 0.675623 -0.225491
0.886187 0.337192 -0.317763
0.727566 0.236453 -0.644002
1.000000 -0.000001 0.000000
1.000000 -0.000000 0.000000
1.000000 -0.000001 0.000000
0.000000 0.996252 -0.086504
0.000000 0.573551 -0.819170
0.000000 0.573551 -0.819170
0.000000 0.573551 -0.819170
0.000000 0.996252 -0.086504
0.000000 0.996252 -0.086504
-1.000000 0.000000 -0.000000
-1.000000 0.000000 0.000000
-1.000000 0.000000 0.000000
1.000000 -0.000000 0.000000
1.000000 -0.000000 0.000000
1.000000 -0.000001 0.000000
-1.000000 0.000000 -0.000000
-1.000000 0.000000 -0.000000
-1.000000 0.000000 -0.000000
-1.000000 0.000000 -0.000000
-1.000000 0.000000 -0.000000
-1.000000 0.000000 -0.000000
0.000000 1.000000 0.000000
0.000000 0.707107 -0.707107
0.000000 0.707107 -0.707107
0.000000 0.707107 -0.707107
0.000000 1.000000 0.000000
0.000000 1.000000 0.000000
0.000000 0.000000 -1.000000
0.000000 0.000000 -1.000000
0.170191 -0.003020 -0.985406
0.000000 0.000000 -1.000000
0.000000 0.000000 -1.000000
0.170191 -0.003020 -0.985406
-0.000000 -1.000000 -0.000000
-0.000000 -1.000000 -0.000000
-0.000000 -1.000000 -0.000000
1.000000 0.000000 0.000000
1.000000 0.000000 0.000000
1.000000 -0.000000 0.000000
1.000000 -0.000000 0.000000
1.000000 -0.000000 0.000000
1.000000 0.000000 0.000000
0.727566 0.236453 -0.644002
0.886187 0.337192 -0.317763
0.871534 -0.348907 -0.344518
0.871534 -0.348907 -0.344518
0.743124 -0.005994 -0.669127
0.727566 0.236453 -0.644002
0.000000 1.000000 -0.000000
0.000000 0.924552 -0.381055
0.000000 0.996252 -0.086504
0.000000 1.000000 -0.000000
0.000000 0.924552 -0.381056
0.000000 0.924552 -0.381055
0.000000 0.996252 -0.086504
0.000000 1.000000 -0.000000
0.000000 1.000000 -0.000000
0.000000 0.000000 -1.000000
0.170191 -0.003020 -0.985406
0.000000 0.000000 -1.000000
-0.000000 -1.000000 -0.000000
-0.000000 -1.000000 -0.000000
-0.000000 -1.000000 -0.000000
-0.000000 -1.000000 -0.000000
-0.000000 -1.000000 -0.000000
-0.000000 -1.000000 -0.000000
-0.000000 -0.703279 -0.710914
-0.000000 -0.703279 -0.710914
-0.000000 -0.703279 -0.710914
-0.000000 -0.703279 -0.710914
-0.000000 -0.703279 -0.710914
-0.000000 -0.703279 -0.710914
-0.000000 -1.000000 -0.000000
-0.000000 -1.000000 0.000000
-0.000000 -1.000000 -0.000000
0.354894 -0.018715 -0.934719
0.664792 -0.037406 -0.746091
0.693893 -0.090245 -0.714400
0.664792 -0.037406 -0.746091
0.354894 -0.018715 -0.934719
0.170191 -0.003020 -0.985406
0.170191 -0.003020 -0.985406
0.649450 -0.011523 -0.760317
0.664792 -0.037406 -0.746091
0.743124 -0.005994 -0.669127
0.871534 -0.348907 -0.344518
0.676341 -0.258218 -0.689845
0.871534 -0.348907 -0.344518
0.685950 -0.660255 -0.305836
0.536039 -0.555595 -0.635591
0.991648 -0.128970 0.000000
0.991649 -0.128970 0.000000
0.991648 -0.128970 0.000000
0.871534 -0.348907 -0.344518
0.536039 -0.555595 -0.635591
0.676341 -0.258218 -0.689845
1.000000 0.000000 0.000000
1.000000 0.000000 0.000000
1.000000 0.000000 0.000000
1.000000 0.000000 0.000000
1.000000 0.000000 0.000000
1.000000 0.000000 0.000000
-0.000000 -1.000000 0.000000
-0.000000 -1.000000 -0.000000
-0.000000 -1.000000 -0.000000
-0.000000 -1.000000 -0.000000
-0.000000 -1.000000 0.000000
-0.000000 -1.000000 0.000000
-1.000000 0.000000 0.000000
-1.000000 0.000000 0.000000
-1.000000 0.000000 0.000000
-1.000000 0.000000 0.000000
-1.000000 0.000000 0.000000
-1.000000 0.000000 0.000000
1.000000 0.000000 0.000000
1.000000 0.000000 0.000000
1.000000 0.000000 0.000000
1.000000 0.000000 0.000000
1.000000 0.000000 0.000000
1.000000 0.000000 0.000000
-0.000000 -0.363782 0.931484
-0.000000 -0.363782 0.931484
-0.000000 -0.363782 0.931484
-0.000000 -0.363782 0.931484
-0.000000 -0.363782 0.931484
-0.000000 -0.363782 0.931484
-0.000000 -0.912892 -0.408202
-0.000000 -1.000000 -0.000000
-0.000000 -1.000000 -0.000000
-0.000000 -1.000000 -0.000000
-0.000000 -0.912892 -0.408202
-0.000000 -0.912892 -0.408202
0.000000 1.000000 -0.000000
0.000000 1.000000 -0.000000
0.000000 1.000000 -0.000000
-0.927489 0.373850 -0.000000
-0.927489 0.373850 -0.000000
-0.720472 0.693484 -0.000000
-0.720472 0.693484 -0.000000
-0.720472 0.693484 -0.000000
-0.927489 0.373850 -0.000000
0.000000 1.000000 -0.000000
0.000000 1.000000 -0.000000
0.000000 1.000000 -0.000000
-0.000000 -1.000000 0.000000
-0.000000 -1.000000 0.000000
-0.000000 -1.000000 0.000000
-0.000000 -1.000000 0.000000
-0.000000 -1.000000 0.000000
-0.000000 -1.000000 0.000000
0.720473 0.693483 -0.000000
0.720473 0.693483 -0.000000
0.927489 0.373850 -0.000000
0.927489 0.373850 -0.000000
0.927489 0.373850 -0.000000
0.720473 0.693483 -0.000000
0.000000 1.000000 -0.000000
0.000000 1.000000 -0.000000
0.000000 1.000000 -0.000000
-0.000000 -1.000000 -0.000000
0.000000 -1.000000 0.000000
-0.000000 -1.000000 0.000000
-0.000000 -1.000000 0.000000
-0.000000 -1.000000 -0.000000
-0.000000 -1.000000 -0.000000
1.000000 0.000000 0.000000
1.000000 0.000000 0.000000
1.000000 0.000000 0.000000
1.000000 0.000000 0.000000
1.000000 0.000000 0.000000
1.000000 0.000000 0.000000
-0.000000 -1.000000 -0.000000
-0.000000 -1.000000 -0.000000
-0.000000 -1.000000 -0.000000
-0.000000 -1.000000 -0.000000
-0.000000 -1.000000 -0.000000
-0.000000 -1.000000 -0.000000
0.000000 0.887838 0.460156
0.000000 0.887838 -0.460156
0.000000 0.887838 -0.460156
0.000000 0.887838 -0.460156
0.000000 0.887838 0.460156
0.000000 0.887838 0.460156
0.000000 1.000000 -0.000000
0.000000 1.000000 -0.000000
0.000000 1.000000 -0.000000
0.000000 1.000000 -0.000000
0.000000 1.000000 -0.000000
0.000000 1.000000 -0.000000
-0.927489 0.373850 -0.000000
-0.886187 0.337192 -0.317763
-0.871534 -0.348907 -0.344518
-0.871534 -0.348907 -0.344518
-0.927489 -0.373850 0.000000
-0.927489 0.373850 -0.000000
-0.927489 -0.373850 0.000000
-0.871534 -0.348907 -0.344518
-0.685951 -0.660254 -0.305836
-0.685951 -0.660254 -0.305836
-0.720473 -0.693483 0.000000
-0.927489 -0.373850 0.000000
0.927489 -0.373850 0.000000
0.871534 -0.348907 -0.344518
0.886187 0.337192 -0.317763
0.886187 0.337192 -0.317763
0.927489 0.373850 -0.000000
0.927489 -0.373850 0.000000
0.720472 -0.693484 0.000000
0.685950 -0.660255 -0.305836
0.871534 -0.348907 -0.344518
0.871534 -0.348907 -0.344518
0.927489 -0.373850 0.000000
0.720472 -0.693484 0.000000
-1.000000 0.000000 0.000000
-1.000000 0.000000 0.000000
-1.000000 0.000000 0.000000
-1.000000 0.000000 0.000000
-1.000000 0.000000 0.000000
-1.000000 0.000000 0.000000
-0.729537 0.683941 -0.000000
-0.729537 0.683941 -0.000000
-0.729537 0.683941 -0.000000
-0.729537 0.683941 -0.000000
-0.729537 0.683941 -0.000000
-0.729537 0.683941 -0.000000
0.000000 0.683941 0.729537
0.000000 0.683941 0.729537
0.000000 0.887838 0.460156
0.000000 0.887838 0.460156
0.000000 0.887838 0.460156
0.000000 0.683941 0.729537
0.729537 0.683941 -0.000000
0.729537 0.683941 -0.000000
0.729537 0.683941 -0.000000
0.729537 0.683941 -0.000000
0.729537 0.683941 -0.000000
0.729537 0.683941 -0.000000
0.000000 0.683941 -0.729537
0.000000 0.683941 -0.729537
0.000000 0.887838 -0.460156
0.000000 0.887838 -0.460156
0.000000 0.887838 -0.460156
0.000000 0.683941 -0.729537
0.000000 0.000000 -1.000000
0.000000 0.000000 -1.000000
0.000000 0.000000 -1.000000
0.000000 0.000000 -1.000000
0.000000 0.000000 -1.000000
0.000000 0.000000 -1.000000
0.000000 0.000000 -1.000000
0.170191 -0.003020 -0.985406
0.000000 0.000000 -1.000000
0.170191 -0.003020 -0.985406
0.354894 -0.018715 -0.934719
0.000000 0.000000 -1.000000
0.000000 0.000000 -1.000000
0.000000 0.000000 -1.000000
0.170191 -0.003020 -0.985406
0.354894 -0.018715 -0.934719
-0.000000 -0.236007 -0.971751
0.000000 0.000000 -1.000000
-0.000000 -0.236007 -0.971751
-0.000000 -0.236007 -0.971751
0.000000 0.000000 -1.000000
0.000000 0.000000 -1.000000
0.000000 0.000000 -1.000000
-0.000000 -0.236007 -0.971751
-0.000000 -0.236007 -0.971751
-0.354894 -0.018715 -0.934719
0.000000 0.000000 -1.000000
-0.354894 -0.018715 -0.934719
-0.170191 -0.003020 -0.985407
0.000000 0.000000 -1.000000
0.000000 0.000000 -1.000000
0.000000 0.000000 -1.000000
-0.354894 -0.018715 -0.934719
-0.170191 -0.003020 -0.985407
0.000000 0.000000 -1.000000
0.000000 0.000000 -1.000000
-0.000000 -1.000000 0.000000
-0.000000 -1.000000 0.000000
-0.000000 -1.000000 0.000000
-0.000000 -1.000000 0.000000
-0.000000 -1.000000 0.000000
-0.000000 -1.000000 0.000000
-1.000000 0.000000 0.000000
-1.000000 0.000000 0.000000
-1.000000 0.000000 0.000000
-1.000000 0.000000 0.000000
-1.000000 0.000000 0.000000
-1.000000 0.000000 0.000000
0.000000 1.000000 -0.000000
0.000000 1.000000 -0.000000
0.000000 1.000000 -0.000000
0.000000 1.000000 -0.000000
0.000000 1.000000 -0.000000
0.000000 1.000000 -0.000000
1.000000 0.000000 0.000000
1.000000 0.000000 0.000000
1.000000 0.000000 0.000000
1.000000 0.000000 0.000000
1.000000 0.000000 0.000000
1.000000 0.000000 0.000000
0.000000 1.000000 -0.000000
0.000000 1.000000 -0.000000
0.000000 1.000000 -0.000000
0.000000 1.000000 -0.000000
0.000000 1.000000 -0.000000
0.000000 1.000000 -0.000000
-0.885514 0.336900 0.319942
-0.927489 0.373850 -0.000000
-0.927489 -0.373850 0.000000
-0.927489 -0.373850 0.000000
-0.885514 -0.336900 0.319942
-0.885514 0.336900 0.319942
-0.885514 -0.336900 0.319942
-0.927489 -0.373850 0.000000
-0.720473 -0.693483 0.000000
-0.720473 -0.693483 0.000000
-0.701675 -0.675390 0.226938
-0.885514 -0.336900 0.319942
0.885514 -0.336900 0.319942
0.927489 -0.373850 0.000000
0.927489 0.373850 -0.000000
0.927489 0.373850 -0.000000
0.885514 0.336900 0.319942
0.885514 -0.336900 0.319942
0.701674 -0.675390 0.226938
0.720472 -0.693484 0.000000
0.927489 -0.373850 0.000000
0.927489 -0.373850 0.000000
0.885514 -0.336900 0.319942
0.701674 -0.675390 0.226938
-0.000000 -0.930718 0.365738
-0.000000 -1.000000 0.000000
-0.000000 -1.000000 0.000000
-0.000000 -1.000000 0.000000
-0.000000 -0.930718 0.365738
-0.000000 -0.930718 0.365738
0.000000 0.930718 0.365738
0.000000 0.930718 0.365738
0.000000 1.000000 -0.000000
0.000000 1.000000 -0.000000
0.000000 1.000000 -0.000000
0.000000 0.930718 0.365738
0.000000 1.000000 -0.000000
0.000000 0.930718 0.365738
0.000000 1.000000 -0.000000
0.000000 1.000000 -0.000000
0.000000 1.000000 -0.000000
0.000000 1.000000 -0.000000
-0.927489 0.373850 -0.000000
-0.885514 0.336900 0.319942
-0.701674 0.675391 0.226938
-0.701674 0.675391 0.226938
-0.720472 0.693484 -0.000000
-0.927489 0.373850 -0.000000
-0.000000 -1.000000 0.000000
-0.000000 -0.930718 0.365738
-0.000000 -1.000000 0.000000
0.720473 0.693483 -0.000000
0.701675 0.675390 0.226938
0.885514 0.336900 0.319942
0.885514 0.336900 0.319942
0.927489 0.373850 -0.000000
0.720473 0.693483 -0.000000
0.000000 -1.000000 0.000000
-0.000000 -0.930718 0.365738
-0.000000 -1.000000 0.000000
-0.927489 0.373850 -0.000000
-0.927489 0.373850 -0.000000
-0.927489 -0.373850 0.000000
-0.927489 -0.373850 0.000000
-0.927489 -0.373850 0.000000
-0.927489 0.373850 -0.000000
-0.927489 -0.373850 0.000000
-0.927489 -0.373850 0.000000
-0.720473 -0.693483 0.000000
-0.720473 -0.693483 0.000000
-0.720473 -0.693483 0.000000
-0.927489 -0.373850 0.000000
0.927489 -0.373850 0.000000
0.927489 -0.373850 0.000000
0.927489 0.373850 -0.000000
0.927489 0.373850 -0.000000
0.927489 0.373850 -0.000000
0.927489 -0.373850 0.000000
0.720472 -0.693484 0.000000
0.720472 -0.693484 0.000000
0.927489 -0.373850 0.000000
0.927489 -0.373850 0.000000
0.927489 -0.373850 0.000000
0.720472 -0.693484 0.000000
0.000000 1.000000 -0.000000
0.000000 0.930718 0.365738
0.000000 1.000000 -0.000000
0.000000 1.000000 -0.000000
0.000000 1.000000 -0.000000
0.000000 1.000000 -0.000000
0.000000 0.859298 -0.511476
0.000000 0.859297 -0.511476
0.000000 0.859297 0.511477
0.000000 0.859297 0.511477
0.000000 0.859297 0.511477
0.000000 0.859298 -0.511476
0.800001 0.599999 -0.000000
0.800001 0.599999 -0.000000
0.800001 0.599999 -0.000000
0.800001 0.599999 -0.000000
0.800001 0.599999 -0.000000
0.800001 0.599999 -0.000000
0.000000 0.600001 -0.799999
0.000000 0.600001 -0.799999
0.000000 0.859297 -0.511476
0.000000 0.859297 -0.511476
0.000000 0.859298 -0.511476
0.000000 0.600001 -0.799999
-0.799999 0.600001 -0.000000
-0.799999 0.600001 -0.000000
-0.799999 0.600001 -0.000000
-0.799999 0.600001 -0.000000
-0.799999 0.600001 -0.000000
-0.799999 0.600001 -0.000000
0.000000 0.600000 0.800000
0.000000 0.600000 0.800000
0.000000 0.859297 0.511477
0.000000 0.859297 0.511477
0.000000 0.859297 0.511477
0.000000 0.600000 0.800000
0.000000 1.000000 -0.000000
0.000000 1.000000 -0.000000
0.000000 1.000000 -0.000000
0.000000 1.000000 -0.000000
0.000000 1.000000 -0.000000
0.000000 1.000000 -0.000000
0.000000 1.000000 -0.000000
0.000000 1.000000 -0.000000
0.000000 1.000000 -0.000000
</float_array>
          <technique_common>
            <accessor source="#logger_-lib-Normal0-array" count="636" stride="3">
              <param name="X" type="float"/>
              <param name="Y" type="float"/>
              <param name="Z" type="float"/>
            </accessor>
          </technique_common>
        </source>
        <source id="logger_-lib-UV0">
          <float_array id="logger_-lib-UV0-array" count="484">
0.606589 0.870580
0.624757 0.311450
0.651947 0.311450
0.651947 0.424112
0.624757 0.424112
0.735844 0.654726
0.918479 0.904830
0.541518 0.387696
0.735844 0.669475
0.651947 0.669475
0.651947 0.654726
0.624757 0.654726
0.086818 0.387696
0.106820 0.063649
0.086818 0.265196
0.541518 0.265196
0.763034 0.654726
0.651947 0.296543
0.679846 0.296543
0.735844 0.311450
0.606589 0.432414
0.730897 0.296543
0.747027 0.303467
0.012628 0.478096
0.763034 0.311450
0.512398 0.027757
0.115663 0.938712
0.115663 0.927441
0.142853 0.923806
0.915099 0.996409
0.073048 0.946053
0.771417 0.308876
0.012628 0.432414
0.549480 0.261664
0.106820 0.152442
0.549480 0.391228
0.073798 0.936595
0.965134 0.980551
0.078856 0.391228
0.045509 0.950958
0.045509 0.984192
0.078856 0.261664
0.143952 0.913078
0.512398 0.128080
0.991741 0.996409
0.991741 0.980551
0.915099 0.981479
0.585088 0.996409
0.878513 0.940799
0.409003 0.901275
0.508447 0.996409
0.535054 0.980551
0.885818 0.895248
0.170752 0.923806
0.755409 0.300892
0.779905 0.294290
0.219690 0.901275
0.621675 0.940799
0.573889 0.901904
0.930887 0.894496
0.467433 0.901904
0.919988 0.935046
0.755409 0.283242
0.621675 0.921351
0.219690 0.685025
0.409003 0.685025
0.971441 0.304825
0.203667 0.678176
0.971441 0.417487
0.944251 0.417487
0.512398 0.152442
0.944251 0.304825
0.425026 0.678176
0.425026 0.908123
0.860354 0.648101
0.944251 0.648101
0.944251 0.662850
0.860354 0.662850
0.971441 0.648101
0.508447 0.980551
0.833164 0.648101
0.944251 0.289918
0.203667 0.908123
0.860354 0.304825
0.585088 0.981479
0.106820 0.027757
0.547352 0.973637
0.170752 0.913078
0.203768 0.947919
0.099028 0.946053
0.230958 0.933012
0.916352 0.289918
0.549703 0.387696
0.606589 0.478096
0.549703 0.265196
0.512398 0.063649
0.099028 0.936595
0.557665 0.261664
0.106820 0.138296
0.167102 0.955259
0.139563 0.960163
0.557665 0.391228
0.952836 0.973637
0.512398 0.138296
0.203768 0.936647
0.535054 0.940799
0.547352 0.947937
0.409003 0.905258
0.916949 0.895248
0.915700 0.968487
0.885669 0.934998
0.952836 0.947937
0.525556 0.938749
0.232057 0.922284
0.865300 0.289918
0.833164 0.304825
0.219690 0.905258
0.878513 0.921350
0.045329 0.901904
0.480487 0.937998
0.849171 0.296842
0.017885 0.882841
0.965134 0.940799
0.492896 0.948332
0.942308 0.968487
0.824312 0.301479
0.815824 0.286892
0.840319 0.293495
0.425026 0.912107
0.203667 0.912107
0.079971 0.387696
0.079971 0.265196
0.840319 0.275844
0.771417 0.500365
0.072009 0.391228
0.771417 0.421537
0.779905 0.421537
0.072009 0.261664
0.219690 0.681693
0.779905 0.498694
0.824312 0.414141
0.582671 0.966587
0.467433 0.870580
0.815824 0.414141
0.409003 0.681693
0.203667 0.674844
0.651947 0.511916
0.576349 0.113898
0.425026 0.674844
0.042870 0.113898
0.942308 0.955896
0.624757 0.511916
0.606589 0.039929
0.494426 0.938749
0.971441 0.505291
0.621675 0.772005
0.944251 0.505291
0.606589 0.027757
0.824312 0.492968
0.815824 0.491297
0.735844 0.424112
0.467433 0.748906
0.763034 0.424112
0.860354 0.417487
0.878513 0.772005
0.012628 0.039929
0.556064 0.953996
0.012628 0.027757
0.576349 0.209310
0.606589 0.256432
0.575280 0.256432
0.043938 0.256432
0.012628 0.256432
0.042870 0.209310
0.606589 0.161605
0.012628 0.161605
0.606589 0.410667
0.012628 0.410667
0.647446 0.227639
0.043938 0.399742
0.647446 0.059090
0.959261 0.250062
0.575280 0.399742
0.959261 0.231659
0.621675 0.676058
0.958718 0.059090
0.830060 0.231659
0.958718 0.227639
0.878513 0.676058
0.830060 0.250062
0.784524 0.059090
0.606589 0.499843
0.959261 0.035818
0.784524 0.227639
0.012628 0.499843
0.959261 0.054222
0.821640 0.227639
0.878513 0.681449
0.830060 0.054222
0.821640 0.059090
0.621675 0.681449
0.830060 0.035818
0.512398 0.005896
0.833164 0.417487
0.606589 0.005896
0.525706 0.978499
0.606589 0.748906
0.491387 0.978547
0.735844 0.511916
0.556064 0.966587
0.763034 0.511916
0.776647 0.059090
0.860354 0.505291
0.776647 0.227639
0.012628 0.870580
0.833164 0.505291
0.829516 0.227639
0.829516 0.059090
0.167852 0.945801
0.012628 0.748906
0.151785 0.748906
0.139563 0.993398
0.467433 0.882841
0.601334 0.882841
0.601334 0.890317
0.193082 0.945801
0.193082 0.955259
0.258857 0.933012
0.258857 0.922284
0.151785 0.870580
0.467433 0.663772
0.606589 0.654077
0.012628 0.654077
0.151785 0.663772
0.106820 0.196277
0.512398 0.196277
0.012628 0.005896
0.106820 0.005896
0.106820 0.128080
0.151785 0.882841
0.151785 0.901904
0.017885 0.890317
</float_array>
          <technique_common>
            <accessor source="#logger_-lib-UV0-array" count="242" stride="2">
              <param name="S" type="float"/>
              <param name="T" type="float"/>
            </accessor>
          </technique_common>
        </source>
        <vertices id="logger_-lib-Vertex">
          <input semantic="POSITION" source="#logger_-lib-Position"/>
        </vertices>
        <polygons material="_14___Default" count="212">
          <input semantic="VERTEX" offset="0" source="#logger_-lib-Vertex"/>
          <input semantic="NORMAL" offset="1" source="#logger_-lib-Normal0"/>
          <input semantic="TEXCOORD" offset="2" set="0" source="#logger_-lib-UV0"/>
          <p>5 0 95 66 1 147 72 2 149</p>
          <p>72 3 149 31 4 13 5 5 95</p>
          <p>6 6 1 3 7 2 57 8 3</p>
          <p>57 9 3 58 10 4 6 11 1</p>
          <p>88 12 5 8 13 8 7 14 9</p>
          <p>7 15 9 4 16 10 88 17 5</p>
          <p>4 18 10 7 19 9 85 20 11</p>
          <p>86 21 16 8 22 8 88 23 5</p>
          <p>7 24 20 35 25 32 87 26 177</p>
          <p>87 27 177 85 28 176 7 29 20</p>
          <p>86 30 191 90 31 194 34 32 23</p>
          <p>34 33 23 8 34 93 86 35 191</p>
          <p>9 36 25 12 37 202 11 38 204</p>
          <p>11 39 204 10 40 157 9 41 25</p>
          <p>13 42 30 12 43 36 9 44 39</p>
          <p>6 45 1 14 46 17 3 47 2</p>
          <p>6 48 26 10 49 27 14 50 28</p>
          <p>34 51 23 35 52 32 7 53 20</p>
          <p>7 54 20 8 55 93 34 56 23</p>
          <p>13 57 30 9 58 39 5 59 40</p>
          <p>14 60 28 10 61 27 11 62 42</p>
          <p>40 63 34 42 64 98 15 65 103</p>
          <p>15 66 103 13 67 70 40 68 34</p>
          <p>13 69 30 15 70 89 16 71 96</p>
          <p>16 72 96 12 73 36 13 74 30</p>
          <p>12 75 29 17 76 37 11 77 44</p>
          <p>11 78 44 17 79 37 18 80 45</p>
          <p>81 81 190 82 82 199 83 83 196</p>
          <p>83 84 196 84 85 193 81 86 190</p>
          <p>17 87 109 21 88 150 18 89 124</p>
          <p>21 90 53 14 91 28 11 92 42</p>
          <p>11 93 42 18 94 87 21 95 53</p>
          <p>14 96 17 21 97 18 2 98 19</p>
          <p>2 99 19 3 100 2 14 101 17</p>
          <p>6 102 152 5 103 95 9 104 25</p>
          <p>6 105 152 9 106 25 10 107 157</p>
          <p>5 108 95 6 109 152 66 110 147</p>
          <p>12 111 29 16 112 46 17 113 37</p>
          <p>19 114 48 46 115 57 49 116 63</p>
          <p>49 117 63 22 118 117 19 119 48</p>
          <p>20 120 58 19 121 60 23 122 222</p>
          <p>23 123 222 24 124 223 20 125 58</p>
          <p>24 126 223 23 127 222 1 128 142</p>
          <p>1 129 142 0 130 0 24 131 223</p>
          <p>20 132 58 24 133 223 25 134 224</p>
          <p>20 135 52 25 136 108 26 137 6</p>
          <p>26 138 6 21 139 61 17 140 110</p>
          <p>17 141 110 20 142 52 26 143 6</p>
          <p>21 144 18 26 145 21 2 146 19</p>
          <p>2 147 19 24 148 22 0 149 24</p>
          <p>24 150 59 26 151 6 25 152 108</p>
          <p>2 153 19 26 154 21 24 155 22</p>
          <p>1 156 31 23 157 54 22 158 55</p>
          <p>23 159 54 19 160 62 22 161 55</p>
          <p>0 162 0 1 163 142 67 164 161</p>
          <p>67 165 161 60 166 206 0 167 0</p>
          <p>32 168 66 69 169 68 68 170 69</p>
          <p>68 171 69 29 172 71 32 173 66</p>
          <p>28 174 74 89 175 75 35 176 76</p>
          <p>35 177 76 34 178 77 28 179 74</p>
          <p>89 180 75 87 181 78 35 182 76</p>
          <p>90 183 80 28 184 74 34 185 77</p>
          <p>36 186 85 39 187 167 38 188 236</p>
          <p>38 189 236 37 190 237 36 191 85</p>
          <p>40 192 99 36 193 100 37 194 218</p>
          <p>32 195 66 29 196 71 41 197 81</p>
          <p>32 198 88 41 199 90 39 200 104</p>
          <p>31 201 234 40 202 34 13 203 70</p>
          <p>13 204 70 5 205 235 31 206 234</p>
          <p>40 207 99 31 208 221 36 209 100</p>
          <p>41 210 90 38 211 113 39 212 104</p>
          <p>40 213 99 37 214 218 43 215 225</p>
          <p>43 216 225 42 217 226 40 218 99</p>
          <p>16 219 43 15 220 103 42 221 98</p>
          <p>42 222 98 43 223 238 16 224 43</p>
          <p>37 225 47 38 226 50 44 227 51</p>
          <p>38 228 50 45 229 79 44 230 51</p>
          <p>44 231 141 45 232 209 48 233 166</p>
          <p>48 234 227 45 235 228 38 236 113</p>
          <p>38 237 113 41 238 90 48 239 227</p>
          <p>41 240 81 29 241 71 30 242 83</p>
          <p>30 243 83 48 244 91 41 245 81</p>
          <p>32 246 165 36 247 85 31 248 13</p>
          <p>32 249 165 39 250 167 36 251 85</p>
          <p>31 252 13 72 253 149 32 254 165</p>
          <p>37 255 47 44 256 51 43 257 84</p>
          <p>47 258 118 51 259 121 50 260 239</p>
          <p>50 261 239 46 262 240 47 263 118</p>
          <p>51 264 121 33 265 214 52 266 229</p>
          <p>52 267 229 50 268 239 51 269 121</p>
          <p>47 270 118 53 271 241 51 272 121</p>
          <p>47 273 112 54 274 123 53 275 153</p>
          <p>54 276 123 47 277 112 44 278 205</p>
          <p>44 279 205 48 280 207 54 281 123</p>
          <p>48 282 91 30 283 83 54 284 114</p>
          <p>30 285 83 33 286 115 51 287 120</p>
          <p>51 288 119 53 289 153 54 290 123</p>
          <p>30 291 83 51 292 120 54 293 114</p>
          <p>52 294 125 49 295 126 50 296 127</p>
          <p>50 297 127 49 298 126 46 299 132</p>
          <p>33 300 214 70 301 219 63 302 220</p>
          <p>63 303 220 52 304 229 33 305 214</p>
          <p>27 306 133 67 307 135 71 308 136</p>
          <p>71 309 136 55 310 139 27 311 133</p>
          <p>52 312 125 63 313 140 64 314 143</p>
          <p>64 315 143 49 316 126 52 317 125</p>
          <p>99 318 184 27 319 188 55 320 197</p>
          <p>55 321 197 56 322 200 99 323 184</p>
          <p>49 324 63 64 325 155 71 326 164</p>
          <p>71 327 164 22 328 117 49 329 63</p>
          <p>59 330 168 103 331 171 62 332 173</p>
          <p>57 333 3 94 334 146 95 335 151</p>
          <p>95 336 151 58 337 4 57 338 3</p>
          <p>58 339 174 95 340 169 59 341 168</p>
          <p>67 342 161 27 343 230 96 344 231</p>
          <p>96 345 231 60 346 206 67 347 161</p>
          <p>69 348 68 98 349 154 92 350 156</p>
          <p>92 351 156 68 352 69 69 353 68</p>
          <p>62 354 173 98 355 172 69 356 175</p>
          <p>70 357 219 93 358 232 99 359 233</p>
          <p>99 360 233 63 361 220 70 362 219</p>
          <p>63 363 140 99 364 158 56 365 159</p>
          <p>56 366 159 64 367 143 63 368 140</p>
          <p>64 369 155 56 370 200 55 371 197</p>
          <p>55 372 197 71 373 164 64 374 155</p>
          <p>75 375 49 76 376 56 73 377 64</p>
          <p>73 378 64 74 379 65 75 380 49</p>
          <p>58 381 174 59 382 168 66 383 147</p>
          <p>72 384 149 62 385 173 69 386 175</p>
          <p>57 387 3 3 388 2 2 389 19</p>
          <p>2 390 19 65 391 160 57 392 3</p>
          <p>65 393 160 2 394 19 0 395 24</p>
          <p>0 396 24 60 397 162 65 398 160</p>
          <p>61 399 163 30 400 83 29 401 71</p>
          <p>29 402 71 68 403 69 61 404 163</p>
          <p>70 405 203 33 406 115 30 407 83</p>
          <p>30 408 83 61 409 163 70 410 203</p>
          <p>67 411 135 1 412 31 22 413 55</p>
          <p>22 414 55 71 415 136 67 416 135</p>
          <p>62 417 145 72 418 148 74 419 144</p>
          <p>74 420 144 73 421 138 62 422 145</p>
          <p>72 423 72 66 424 73 75 425 49</p>
          <p>75 426 49 74 427 65 72 428 72</p>
          <p>66 429 128 59 430 129 76 431 116</p>
          <p>76 432 116 75 433 107 66 434 128</p>
          <p>59 435 82 62 436 67 73 437 64</p>
          <p>73 438 64 76 439 56 59 440 82</p>
          <p>16 441 46 43 442 84 77 443 86</p>
          <p>77 444 86 80 445 102 16 446 46</p>
          <p>43 447 84 44 448 51 77 449 86</p>
          <p>44 450 51 47 451 105 78 452 106</p>
          <p>78 453 106 77 454 86 44 455 51</p>
          <p>47 456 105 46 457 57 78 458 106</p>
          <p>46 459 57 19 460 48 79 461 111</p>
          <p>79 462 111 78 463 106 46 464 57</p>
          <p>19 465 48 20 466 122 79 467 111</p>
          <p>20 468 122 17 469 37 80 470 102</p>
          <p>80 471 102 79 472 111 20 473 122</p>
          <p>17 474 37 16 475 46 80 476 102</p>
          <p>80 477 178 77 478 180 81 479 211</p>
          <p>81 480 211 84 481 213 80 482 178</p>
          <p>77 483 181 78 484 183 82 485 186</p>
          <p>82 486 186 81 487 189 77 488 181</p>
          <p>78 489 185 79 490 187 83 491 216</p>
          <p>83 492 216 82 493 217 78 494 185</p>
          <p>79 495 192 80 496 195 84 497 198</p>
          <p>84 498 198 83 499 201 79 500 192</p>
          <p>6 501 152 58 502 174 66 503 147</p>
          <p>72 504 149 69 505 175 32 506 165</p>
          <p>4 507 10 94 508 146 91 509 208</p>
          <p>91 510 208 88 511 5 4 512 10</p>
          <p>88 513 5 91 514 208 96 515 210</p>
          <p>96 516 210 86 517 16 88 518 5</p>
          <p>28 519 74 97 520 212 92 521 156</p>
          <p>92 522 156 89 523 75 28 524 74</p>
          <p>90 525 80 93 526 215 97 527 212</p>
          <p>97 528 212 28 529 74 90 530 80</p>
          <p>86 531 191 27 532 230 99 533 233</p>
          <p>99 534 233 90 535 194 86 536 191</p>
          <p>85 537 176 87 538 177 102 539 179</p>
          <p>102 540 179 100 541 182 85 542 176</p>
          <p>95 543 169 85 544 176 100 545 182</p>
          <p>100 546 182 101 547 170 95 548 169</p>
          <p>94 549 146 4 550 10 85 551 11</p>
          <p>85 552 11 95 553 151 94 554 146</p>
          <p>27 555 230 86 556 191 96 557 231</p>
          <p>98 558 154 87 559 78 89 560 75</p>
          <p>89 561 75 92 562 156 98 563 154</p>
          <p>93 564 232 90 565 194 99 566 233</p>
          <p>94 567 146 57 568 3 65 569 160</p>
          <p>65 570 160 91 571 208 94 572 146</p>
          <p>91 573 208 65 574 160 60 575 162</p>
          <p>60 576 162 96 577 210 91 578 208</p>
          <p>97 579 212 61 580 163 68 581 69</p>
          <p>68 582 69 92 583 156 97 584 212</p>
          <p>93 585 215 70 586 203 61 587 163</p>
          <p>61 588 163 97 589 212 93 590 215</p>
          <p>102 591 179 87 592 177 98 593 172</p>
          <p>98 594 172 103 595 171 102 596 179</p>
          <p>105 597 7 106 598 12 107 599 14</p>
          <p>107 600 14 104 601 15 105 602 7</p>
          <p>101 603 97 100 604 101 105 605 92</p>
          <p>105 606 92 104 607 94 101 608 97</p>
          <p>100 609 35 102 610 38 106 611 12</p>
          <p>106 612 12 105 613 7 100 614 35</p>
          <p>102 615 134 103 616 137 107 617 131</p>
          <p>107 618 131 106 619 130 102 620 134</p>
          <p>103 621 41 101 622 33 104 623 15</p>
          <p>104 624 15 107 625 14 103 626 41</p>
          <p>59 627 168 95 628 169 101 629 170</p>
          <p>103 630 171 98 631 172 62 632 173</p>
          <p>59 633 168 101 634 170 103 635 171</p>
        </polygons>
      </mesh>
    </geometry>
  </library_geometries>
  <library_visual_scenes>
    <visual_scene id="RootNode" name="RootNode">
      <node id="logger_" name="logger_">
        <translate sid="translate">-0.058137 -0.992327 0.000000</translate>
        <instance_geometry url="#logger_-lib">
          <bind_material>
            <technique_common>
              <instance_material symbol="_14___Default" target="#_14___Default"/>
            </technique_common>
          </bind_material>
        </instance_geometry>
      </node>
    </visual_scene>
  </library_visual_scenes>
  <scene>
    <instance_visual_scene url="#RootNode"/>
  </scene>
</COLLADA>

