<?xml version="1.0" encoding="utf-8" ?>
<COLLADA xmlns="http://www.collada.org/2005/11/COLLADASchema" version="1.4.1">
    <asset>
        <contributor>
            <authoring_tool>modo 701 [Build 68192], Microsoft Windows 7 Service Pack 1 (6.1.7601 Service Pack 1)</authoring_tool>
            <comments>
                Plug-in: [Build 68192];
                Use Absolute Path: No;
                Merge Reference Items: No;
                Save Hidden Items: No;
                Save Cameras: No;
                Save Lights: No;
                Save Locators: Yes;
                Save Triangles as Triangles: No;
                Order Vertex Maps Alphabetically: No;
                Bake Matrices: Yes;
                Save Vertex Normals: Yes;
                Save UV Texture Coordinates: Yes;
                Save Vertex Colors: Yes;
                Save Vertex Weights: Yes;
                Save Animation: No;
                Sample Animation: No;
                Sample Animation Start: 0;
                Sample Animation End: 1;
                Save modo Profile: No;
                Save Maya Profile: No;
                Save 3ds Max Profile: No;
                Formatted Arrays: Yes;
            </comments>
            <source_data>file:///D:/Work/Dropbox/Frictional%20Games%20-%20Team/Aaron/models/static_objects/station/debris/shards_glass/shards_glass_single.lxo</source_data>
        </contributor>
        <created>2015-02-04T15:33:58Z</created>
        <modified>2015-02-04T15:33:58Z</modified>
        <unit name="game" meter="1" />
        <up_axis>Y_UP</up_axis>
    </asset>
    <library_images>
        <image id="Image0001" name="Image0001">
            <init_from>file:///D:/Work/Dropbox/Frictional%20Games%20-%20Team/Aaron/models/static_objects/station/pplant_glass_dirty.psd</init_from>
        </image>
    </library_images>
    <library_materials>
        <material id="Material-glass_shard01_glass_material_Material__25" name="glass_shard01_glass_material_Material__25">
            <instance_effect url="#Effect-glass_shard01_glass_material_Material__25" />
        </material>
    </library_materials>
    <library_effects>
        <effect id="Effect-glass_shard01_glass_material_Material__25" name="glass_shard01_glass_material_Material__25">
            <profile_COMMON>
                <newparam sid="Image0001-surface">
                    <surface type="2D">
                        <init_from>Image0001</init_from>
                        <format>A8R8G8B8</format>
                    </surface>
                </newparam>
                <newparam sid="Image0001-sampler">
                    <sampler2D>
                        <source>Image0001-surface</source>
                        <minfilter>LINEAR_MIPMAP_LINEAR</minfilter>
                        <magfilter>LINEAR</magfilter>
                    </sampler2D>
                </newparam>
                <technique sid="common">
                    <phong>
                        <diffuse>
                            <texture texture="Image0001-sampler" texcoord="polySurfaceShape34-map1" />
                        </diffuse>
                        <shininess>
                            <float sid="specular_effect_rgb">256</float>
                        </shininess>
                        <reflective>
                            <color sid="reflective_effect_rgb">0 0 0 1</color>
                        </reflective>
                        <reflectivity>
                            <float sid="reflectivity_effect_float">0.5</float>
                        </reflectivity>
                    </phong>
                </technique>
            </profile_COMMON>
        </effect>
    </library_effects>
    <library_geometries>
        <geometry id="Geometry-mesh042" name="04">
            <mesh>
                <source id="Geometry-mesh042-positions" name="positions">
                    <float_array id="Geometry-mesh042-positions-array" count="33">
                        0.0762368 0.004506 0.0551523
                        0.0764444 0.000713 0.0552713
                        -0.0378817 0.002032 -0.0516033
                        -0.0396939 0.005277 -0.0519697
                        0.0853483 0.010244 0.0375498
                        0.0861584 0.000713 0.0365055
                        -0.0861584 0.000713 -0.0373023
                        -0.0858711 0.010244 -0.0371388
                        -0.0577911 0.007898 -0.0552496
                        -0.058299 0.000713 -0.0552713
                        0.0762611 0.007898 0.0502122
                    </float_array>
                    <technique_common>
                        <accessor count="11" source="#Geometry-mesh042-positions-array" stride="3">
                            <param name="X" type="float" />
                            <param name="Y" type="float" />
                            <param name="Z" type="float" />
                        </accessor>
                    </technique_common>
                </source>
                <source id="Geometry-mesh042-normals" name="normals">
                    <float_array id="Geometry-mesh042-normals-array" count="87">
                        0.501034 0.71229 0.491536
                        0.882988 0.0440365 0.467326
                        0.887792 0.0251101 0.45956
                        0.568587 0.180604 -0.802553
                        0.574588 0.137246 -0.806853
                        0.449436 0.119373 -0.885301
                        0.313741 0.069226 -0.946982
                        -0.494755 9.38493e-005 0.869032
                        -0.494759 2.11547e-006 0.86903
                        -0.494751 0.000185583 0.869035
                        -0.0233144 0.999289 0.0296348
                        0.0498587 0.994765 -0.0892042
                        0.0457833 0.997255 -0.058195
                        0.0201925 -0.999696 0.0141635
                        -0.00777457 -0.999962 -0.00402446
                        0.00509319 -0.999829 -0.0177877
                        0.0341905 -0.999144 0.0232665
                        0.0503102 -0.995683 0.0780017
                        0.177272 -0.010747 -0.984103
                        0.176988 -0.00954261 -0.984167
                        -0.540475 0.0356971 -0.840603
                        -0.541768 0.0307435 -0.839966
                        -0.539167 0.0406497 -0.841217
                        0.0519513 0.993089 -0.105238
                        0.192376 0.927618 -0.320183
                        -0.280734 0.791869 0.542339
                        -0.192675 0.920193 0.340766
                        0.877794 0.0629434 0.474885
                        -0.114319 0.970963 0.210147
                    </float_array>
                    <technique_common>
                        <accessor count="29" source="#Geometry-mesh042-normals-array" stride="3">
                            <param name="X" type="float" />
                            <param name="Y" type="float" />
                            <param name="Z" type="float" />
                        </accessor>
                    </technique_common>
                </source>
                <source id="Geometry-mesh042-polySurfaceShape34-map1" name="polySurfaceShape34-map1">
                    <float_array id="Geometry-mesh042-polySurfaceShape34-map1-array" count="60">
                        0.305032 0.54469
                        0.325666 0.550692
                        0.309382 0.548238
                        0.305045 0.540722
                        0.327043 0.540722
                        0.264426 0.539673
                        0.264543 0.549642
                        0.105544 0.548262
                        0.103745 0.544868
                        0.274578 0.549428
                        0.274233 0.539459
                        0.469621 0.539459
                        0.469371 0.543427
                        1.77127 0.284093
                        1.78759 0.461751
                        1.75572 0.476097
                        1.71453 0.444465
                        1.72131 0.285466
                        1.74331 0.283319
                        1.75454 0.478707
                        1.72292 0.464474
                        0.0855359 0.549642
                        0.0859939 0.542127
                        0.26222 0.541174
                        0.29384 0.541174
                        0.29382 0.551143
                        0.261951 0.548689
                        1.78755 0.283319
                        1.79501 0.444
                        0.466583 0.546974
                    </float_array>
                    <technique_common>
                        <accessor count="30" source="#Geometry-mesh042-polySurfaceShape34-map1-array" stride="2">
                            <param name="S" type="float" />
                            <param name="T" type="float" />
                        </accessor>
                    </technique_common>
                </source>
                <source id="Geometry-mesh042-UV_Distortion" name="UV_Distortion">
                    <float_array id="Geometry-mesh042-UV_Distortion-array" count="54">
                        0.596866 0.4444 0.406308
                        0.49686 0.543441 0.507022
                        0.49823 0.544939 0.505662
                        0.502223 0.54873 0.501696
                        0.496038 0.542542 0.507837
                        0.495995 0.542495 0.50788
                        0.496314 0.542843 0.507564
                        0.495633 0.542098 0.508239
                        0.495787 0.542267 0.508086
                        0.496686 0.543251 0.507194
                        0.516023 0.533518 0.487788
                        0.515968 0.533578 0.487843
                        0.519016 0.530219 0.484772
                        0.519458 0.529732 0.484326
                        0.514494 0.535203 0.489329
                        0.634772 0.402614 0.368104
                        0.496867 0.543449 0.507014
                        0.498411 0.545137 0.505483
                    </float_array>
                    <technique_common>
                        <accessor count="18" source="#Geometry-mesh042-UV_Distortion-array" stride="3">
                            <param name="R" type="float" />
                            <param name="G" type="float" />
                            <param name="B" type="float" />
                        </accessor>
                    </technique_common>
                </source>
                <vertices id="Geometry-mesh042-vertices">
                    <input semantic="POSITION" source="#Geometry-mesh042-positions" />
                </vertices>
                <polylist count="18" material="Material-glass_shard01_glass_material_Material__25">
                    <input semantic="VERTEX" source="#Geometry-mesh042-vertices" offset="0" />
                    <input semantic="NORMAL" source="#Geometry-mesh042-normals" offset="1" />
                    <input semantic="TEXCOORD" source="#Geometry-mesh042-polySurfaceShape34-map1" offset="2" set="0" />
                    <input semantic="COLOR" source="#Geometry-mesh042-UV_Distortion" offset="3" set="0" />
                    <vcount>3 3 3 3 3 3 3 3 3 3 3 3 3 3 3 3 3 3</vcount>
                    <p>0 0 0 0 4 0 1 0 10 0 2 0 1 1 3 1 5 2 4 1 4 1 1 1 4 3 5 2 5 4 6 2 2 5 7 2 2 5 7 3 3 6 8 3 4 3 5 3 7 7 9 4 6 8 10 4 1 7 11 4 1 7 11 5 0 9 12 5 7 7 9 5 10 10 13 6 8 11 14 6 7 12 15 6 2 13 16 7 5 14 17 7 1 15 18 7 2 13 16 8 1 15 18 8 6 16 19 8 2 13 16 9 6 16 19 9 9 17 20 9 9 18 21 10 8 19 22 10 3 6 8 10 3 6 8 11 2 5 7 11 9 18 21 11 9 20 23 12 6 21 24 12 7 20 25 12 7 20 25 13 8 22 26 13 9 20 23 13 8 11 14 14 4 23 27 14 3 24 28 14 0 25 12 15 10 26 29 15 7 25 9 15 1 1 3 16 4 1 1 16 0 27 0 16 10 28 13 17 4 23 27 17 8 11 14 17</p>
                </polylist>
            </mesh>
        </geometry>
    </library_geometries>
    <library_visual_scenes>
        <visual_scene id="DefaultScene">
            <node id="Geometry-mesh042Node" name="04" type="NODE">
                <matrix sid="transform">
        1 0 0 0
        0 1 0 0
        0 0 1 0
        0 0 0 1
    </matrix>
                <instance_geometry url="#Geometry-mesh042">
                    <bind_material>
                        <technique_common>
                            <instance_material symbol="Material-glass_shard01_glass_material_Material__25" target="#Material-glass_shard01_glass_material_Material__25">
                                <bind_vertex_input semantic="polySurfaceShape34-map1" input_semantic="TEXCOORD" input_set="0" />
                            </instance_material>
                        </technique_common>
                    </bind_material>
                </instance_geometry>
            </node>
            <node id="groupLocator025Node" name="Texture_Group" type="NODE">
                <matrix sid="transform">
        1 0 0 0
        0 1 0 0
        0 0 1 0
        0 0 0 1
    </matrix>
                <node id="txtrLocator020Node" name="pplant_glass_dirty__Image___Texture_" type="NODE">
                    <matrix sid="transform">
        1 0 0 0
        0 1 0 0
        0 0 1 0
        0 0 0 1
    </matrix>
                </node>
            </node>
        </visual_scene>
    </library_visual_scenes>
    <scene>
        <instance_visual_scene url="#DefaultScene" />
    </scene>
</COLLADA>
