<?xml version="1.0" encoding="utf-8" ?>
<COLLADA xmlns="http://www.collada.org/2005/11/COLLADASchema" version="1.4.1">
    <asset>
        <contributor>
            <authoring_tool>modo 701 [Build 66614], Microsoft Windows 7 Service Pack 1 (6.1.7601 Service Pack 1)</authoring_tool>
            <comments>Plug-in: [Build 66614]; Use Absolute Path: No; Merge Reference Items: No; Save Hidden Items: No; Save Cameras: No; Save Lights: No; Save Locators: Yes; Save Triangles as Triangles: Yes; Order Vertex Maps Alphabetically: Yes; Bake Matrices: No; Save Vertex Normals: Yes; Save UV Texture Coordinates: Yes; Save Vertex Colors: Yes; Save Vertex Weights: Yes; Save Animation: Yes; Sample Animation: No; Sample Animation Start: 0; Sample Animation End: 340; Save modo Profile: No; Save Maya Profile: No; Save 3ds Max Profile: No; Formatted Arrays: No;</comments>
            <source_data>file:///D:/Work/Dropbox/Frictional%20Games%20-%20Team/Aaron/models/static_objects/station/walls/datasite.lxo</source_data>
        </contributor>
        <created>2014-05-09T09:19:47Z</created>
        <modified>2014-05-09T09:19:47Z</modified>
        <unit name="game" meter="1" />
        <up_axis>Y_UP</up_axis>
    </asset>
    <library_images>
        <image id="Image0001" name="Image0001">
            <init_from>file:///D:/Work/Dropbox/Frictional%20Games%20-%20Team/Aaron/models/static_objects/oceanbottom/building/omicron/omicron_modules.psd</init_from>
        </image>
        <image id="Image0002" name="Image0002">
            <init_from>file:///D:/Work/Dropbox/Frictional%20Games%20-%20Team/Aaron/models/static_objects/oceanbottom/building/omicron/omicron_modules_nrm.tga</init_from>
        </image>
        <image id="Image0003" name="Image0003">
            <init_from>file:///D:/Work/Dropbox/Frictional%20Games%20-%20Team/Aaron/models/static_objects/station/datasite.tga</init_from>
        </image>
    </library_images>
    <library_materials>
        <material id="Material-datasite" name="datasite">
            <instance_effect url="#Effect-datasite" />
        </material>
        <material id="Material-omicron" name="omicron">
            <instance_effect url="#Effect-omicron" />
        </material>
    </library_materials>
    <library_effects>
        <effect id="Effect-datasite" name="datasite">
            <profile_COMMON>
                <newparam sid="Image0003-surface">
                    <surface type="2D">
                        <init_from>Image0003</init_from>
                        <format>A8R8G8B8</format>
                    </surface>
                </newparam>
                <newparam sid="Image0003-sampler">
                    <sampler2D>
                        <source>Image0003-surface</source>
                        <minfilter>LINEAR_MIPMAP_LINEAR</minfilter>
                        <magfilter>LINEAR</magfilter>
                    </sampler2D>
                </newparam>
                <technique sid="common">
                    <phong>
                        <diffuse>
                            <texture texture="Image0003-sampler" texcoord="uvSet1" />
                        </diffuse>
                        <specular>
                            <color sid="specular_effect_rgb">0.2 0.2 0.2 1</color>
                        </specular>
                        <shininess>
                            <float sid="specular_effect_rgb">256</float>
                        </shininess>
                        <transparent opaque="RGB_ZERO">
                            <color sid="transparent_effect_rgb">0 0 0 1</color>
                        </transparent>
                        <transparency>
                            <float sid="transparency_effect_float">1</float>
                        </transparency>
                    </phong>
                </technique>
            </profile_COMMON>
        </effect>
        <effect id="Effect-omicron" name="omicron">
            <profile_COMMON>
                <newparam sid="Image0001-surface">
                    <surface type="2D">
                        <init_from>Image0001</init_from>
                        <format>A8R8G8B8</format>
                    </surface>
                </newparam>
                <newparam sid="Image0001-sampler">
                    <sampler2D>
                        <source>Image0001-surface</source>
                        <minfilter>LINEAR_MIPMAP_LINEAR</minfilter>
                        <magfilter>LINEAR</magfilter>
                    </sampler2D>
                </newparam>
                <technique sid="common">
                    <phong>
                        <diffuse>
                            <texture texture="Image0001-sampler" texcoord="uvSet1" />
                        </diffuse>
                        <specular>
                            <color sid="specular_effect_rgb">0.23 0.23 0.23 1</color>
                        </specular>
                        <shininess>
                            <float sid="specular_effect_rgb">9.84915</float>
                        </shininess>
                    </phong>
                </technique>
            </profile_COMMON>
        </effect>
    </library_effects>
    <library_geometries>
        <geometry id="Geometry-mesh059" name="doorway">
            <mesh>
                <source id="Geometry-mesh059-positions" name="positions">
                    <float_array id="Geometry-mesh059-positions-array" count="189">-2 0 0 -0.614134 3.4676 0.0267029 -0.555333 3.4676 0.0267029 -0.533487 3.50113 0.0267029 -0.641136 3.50113 0.0267029 -0.519754 3.47963 0 -0.550709 3.44507 0 -0.619981 3.44635 0 -0.651405 3.47963 0 -1.46256 3.50113 0.0267029 -1.47748 3.47963 0 -1.36011 3.50113 0.0267029 -1.35122 3.47963 0 -1.38215 3.4676 0.0267029 -1.43485 3.4676 0.0267029 -1.44268 3.44635 0 -2 1.09503 0 -2 1.12258 -0.0216059 -2 4 0 -2 3.97817 0.0267029 -2 3.47963 0 -2 3.50113 0.0267029 2 0 0 2 4 0 2 3.97817 0.0267029 2 3.47963 0 2 3.50113 0.0267029 1.38587 3.4676 0.0267029 1.44467 3.4676 0.0267029 1.46651 3.50113 0.0267029 1.35886 3.50113 0.0267029 1.48025 3.47963 0 1.44929 3.44507 0 1.3486 3.47963 0 0.53744 3.50113 0.0267029 0.522521 3.47963 0 0.639892 3.50113 0.0267029 0.648781 3.47963 0 0.623148 3.44635 0 0.617846 3.4676 0.0267029 0.565145 3.4676 0.0267029 0.557318 3.44635 0 2 1.09503 0 2 1.12258 -0.0216059 1 1.14708 0 1 1.12258 -0.0216059 1 1.09503 0 1 0 0 1 3 0 -1 1.14708 0 -1 1.12258 -0.0216059 -1 1.09503 0 -1 0 0 -1 3 0 -1.37685 3.44635 0 1.38002 3.44635 0 -2 1.14708 0 2 1.14708 0 -9.53674e-007 4 0 -9.53674e-007 3.97817 0.0267029 -9.53674e-007 3.47963 0 9.53674e-007 3.50113 0.0267029 -9.53674e-007 3 0</float_array>
                    <technique_common>
                        <accessor count="63" source="#Geometry-mesh059-positions-array" stride="3">
                            <param name="X" type="float" />
                            <param name="Y" type="float" />
                            <param name="Z" type="float" />
                        </accessor>
                    </technique_common>
                </source>
                <source id="Geometry-mesh059-normals" name="normals">
                    <float_array id="Geometry-mesh059-normals-array" count="81">0 0 1 -0.212268 -0.735974 0.642873 -0.421113 -0.6425 0.640201 -0.421029 -0.641106 0.641652 -0.213294 -0.719342 0.6611 0 -0.778963 0.62707 0 -0.778963 0.62707 0.214752 -0.738515 0.639122 0.677953 -0.445764 0.584529 0.672742 -0.479948 0.563088 0.666417 -0.513338 0.540715 0 -0.66145 0.749989 -0.290882 -0.681453 0.671573 -0.296243 -0.656339 0.693873 0.317385 -0.697026 0.642979 0.209982 -0.735766 0.64386 0 0.617063 0.786914 -0.285301 -0.707551 0.64651 0 -0.782571 0.622562 -0.290968 -0.683552 0.669399 0 -0.66145 0.749989 0 0.774169 0.632979 0.631999 -0.411783 0.656515 0.624382 -0.481847 0.614793 0.332156 -0.672116 0.661765 0.32868 -0.670111 0.665523 0 -0.778963 0.62707</float_array>
                    <technique_common>
                        <accessor count="27" source="#Geometry-mesh059-normals-array" stride="3">
                            <param name="X" type="float" />
                            <param name="Y" type="float" />
                            <param name="Z" type="float" />
                        </accessor>
                    </technique_common>
                </source>
                <source id="Geometry-mesh059-uvSet1" name="uvSet1">
                    <float_array id="Geometry-mesh059-uvSet1-array" count="84">0.892312 0.580424 0.991413 0.580361 0.886719 0.574906 0.991413 0.671559 0.890659 0.584623 0.871762 0.584623 0.991413 0.584623 0.613436 0.580361 0.71264 0.580377 0.718493 0.574674 0.613436 0.671559 0.734604 0.584623 0.715053 0.584623 0.613436 0.584623 0.730076 0.574736 0.875067 0.574922 0.802786 0.492873 0.991413 0.152654 0.802424 0.152654 0.613436 0.152654 0.991413 0.492414 0.613436 0.492414 0.728943 0.578873 0.735831 0.580522 0.876995 0.579151 0.870507 0.580437 0.991413 0.459138 0.991413 0.225036 0.802424 0.459138 0.802424 0.225036 0.613436 0.148462 0.802424 0.148462 0.719885 0.578972 0.884956 0.579146 0.991413 0.463202 0.802424 0.463202 0.991413 0.148462 0.991413 0.675718 0.613436 0.675718 0.613436 0.459138 0.613436 0.225036 0.613436 0.463202</float_array>
                    <technique_common>
                        <accessor count="42" source="#Geometry-mesh059-uvSet1-array" stride="2">
                            <param name="S" type="float" />
                            <param name="T" type="float" />
                        </accessor>
                    </technique_common>
                </source>
                <vertices id="Geometry-mesh059-vertices">
                    <input semantic="POSITION" source="#Geometry-mesh059-positions" />
                </vertices>
                <triangles count="96" material="Material-datasite">
                    <input semantic="VERTEX" source="#Geometry-mesh059-vertices" offset="0" />
                    <input semantic="NORMAL" source="#Geometry-mesh059-normals" offset="1" />
                    <input semantic="TEXCOORD" source="#Geometry-mesh059-uvSet1" offset="2" set="0" />
                    <p>10 0 0 20 0 1 15 0 2 19 0 3 9 0 4 11 0 5 19 0 3 21 0 6 9 0 4 25 0 7 31 0 8 32 0 9 24 0 10 30 0 11 29 0 12 26 0 13 24 0 10 29 0 12 7 0 14 54 0 15 53 0 16 48 0 16 55 0 14 38 0 15 20 0 1 56 0 17 15 0 2 49 0 18 53 0 16 56 0 17 54 0 15 15 0 2 56 0 17 56 0 17 53 0 16 54 0 15 25 0 7 32 0 9 57 0 19 57 0 19 48 0 16 44 0 18 55 0 14 57 0 19 32 0 9 48 0 16 57 0 19 55 0 14 60 0 7 5 0 8 6 0 9 59 0 10 4 0 11 3 0 12 61 0 13 59 0 10 3 0 12 35 0 0 60 0 1 41 0 2 59 0 3 34 0 4 36 0 5 59 0 3 61 0 6 34 0 4 41 0 2 60 0 1 62 0 20 62 0 21 60 0 7 6 0 9 7 1 14 1 2 22 8 3 23 4 4 11 8 3 23 1 2 22 25 5 7 26 6 13 31 7 8 29 6 12 31 7 8 26 6 13 36 8 5 39 9 24 37 9 25 38 10 15 37 9 25 39 9 24 16 0 26 0 0 27 51 0 28 52 0 29 51 0 28 0 0 27 11 8 5 13 9 24 12 9 25 54 10 15 12 9 25 13 9 24 55 1 14 27 2 22 33 3 23 30 4 11 33 3 23 27 2 22 43 11 30 57 11 19 45 11 31 44 11 18 45 11 31 57 11 19 60 6 7 61 6 13 5 7 8 3 6 12 5 7 8 61 6 13 60 6 1 35 12 0 61 6 6 34 13 4 61 6 6 35 12 0 62 0 20 48 0 16 41 0 2 38 0 15 41 0 2 48 0 16 59 0 3 36 0 5 24 0 10 30 0 11 24 0 10 36 0 5 6 14 9 2 15 32 7 1 14 1 2 22 7 1 14 2 15 32 30 0 11 27 0 22 29 0 12 28 0 32 29 0 12 27 0 22 34 0 4 40 0 33 36 0 5 39 0 24 36 0 5 40 0 33 17 16 34 16 16 26 50 16 35 51 16 28 50 16 35 16 16 26 15 17 2 54 18 15 14 19 33 13 18 24 14 19 33 54 18 15 32 14 9 28 15 32 55 1 14 27 2 22 55 1 14 28 15 32 17 20 36 50 20 31 56 20 17 49 20 18 56 20 17 50 20 31 53 0 16 62 0 21 7 0 14 6 0 9 7 0 14 62 0 21 58 21 37 59 21 3 23 21 38 24 21 10 23 21 38 59 21 3 3 22 12 2 23 32 5 23 8 6 14 9 5 24 8 2 25 32 9 0 4 14 0 33 11 0 5 13 0 24 11 0 5 14 0 33 20 26 1 10 12 0 21 6 6 9 13 4 21 6 6 10 12 0 41 17 2 38 18 15 40 19 33 39 18 24 40 19 33 38 18 15 41 17 2 40 19 33 35 12 0 34 13 4 35 12 0 40 19 33 42 0 39 46 0 28 22 0 40 47 0 29 22 0 40 46 0 28 11 5 5 12 6 25 4 4 11 8 3 23 4 4 11 12 6 25 12 0 25 54 0 15 8 0 23 7 0 14 8 0 23 54 0 15 37 0 25 38 0 15 33 0 23 55 0 14 33 0 23 38 0 15 18 21 37 19 21 3 58 21 38 59 21 10 58 21 38 19 21 3 4 0 11 1 0 22 3 0 12 2 0 32 3 0 12 1 0 22 15 17 2 14 19 33 10 12 0 9 13 4 10 12 0 14 19 33 29 22 12 28 23 32 31 23 8 32 14 9 31 24 8 28 25 32 43 16 41 45 16 35 42 16 39 46 16 28 42 16 39 45 16 35 36 5 5 37 6 25 30 4 11 33 3 23 30 4 11 37 6 25 19 0 3 11 0 5 59 0 10 4 0 11 59 0 10 11 0 5</p>
                </triangles>
            </mesh>
        </geometry>
    </library_geometries>
    <library_visual_scenes>
        <visual_scene id="DefaultScene">
            <node id="Geometry-mesh059Node" name="doorway" type="NODE">
                <instance_geometry url="#Geometry-mesh059">
                    <bind_material>
                        <technique_common>
                            <instance_material symbol="Material-datasite" target="#Material-datasite">
                                <bind_vertex_input semantic="uvSet1" input_semantic="TEXCOORD" input_set="0" />
                            </instance_material>
                        </technique_common>
                    </bind_material>
                </instance_geometry>
            </node>
            <node id="groupLocator029Node" name="Texture_Group" type="NODE">
                <node id="txtrLocator020Node" name="omicron_modules_nrm__Image___Texture_" type="NODE">
                    <translate sid="translation023">0 0 0</translate>
                    <rotate sid="rotation022Y">0 1 0 0</rotate>
                    <rotate sid="rotation022X">1 0 0 0</rotate>
                    <rotate sid="rotation022Z">0 0 1 0</rotate>
                    <scale sid="scale021">1 1 1</scale>
                </node>
                <node id="txtrLocator024Node" name="omicron_modules__Image___Texture_" type="NODE">
                    <translate sid="translation027">0 0 0</translate>
                    <rotate sid="rotation026Y">0 1 0 0</rotate>
                    <rotate sid="rotation026X">1 0 0 0</rotate>
                    <rotate sid="rotation026Z">0 0 1 0</rotate>
                    <scale sid="scale025">1 1 1</scale>
                </node>
                <node id="txtrLocator042Node" name="datasite__Image___Texture_" type="NODE">
                    <translate sid="translation045">0 0 0</translate>
                    <rotate sid="rotation044Y">0 1 0 0</rotate>
                    <rotate sid="rotation044X">1 0 0 0</rotate>
                    <rotate sid="rotation044Z">0 0 1 0</rotate>
                    <scale sid="scale043">1 1 1</scale>
                </node>
            </node>
        </visual_scene>
    </library_visual_scenes>
    <scene>
        <instance_visual_scene url="#DefaultScene" />
    </scene>
</COLLADA>
