<?xml version="1.0" encoding="utf-8"?>
<COLLADA xmlns="http://www.collada.org/2005/11/COLLADASchema" version="1.4.1">
  <asset><contributor><author></author><authoring_tool>FBX COLLADA exporter</authoring_tool><comments></comments></contributor><created>2014-10-29T10:27:35Z</created><keywords></keywords><modified>2014-10-29T10:27:35Z</modified><revision></revision><subject></subject><title></title><unit meter="1.000000" name="centimeter"></unit><up_axis>Y_UP</up_axis></asset>
  <library_images>
    <image id="file3-image" name="file3"><init_from>file://D:\SOMA\trunk\redist\static_objects\station\datasite_brown_overgrown.dds</init_from></image>
  </library_images>
  <library_materials>
    <material id="lambert7" name="lambert7">
      <instance_effect url="#lambert7-fx"/>
    </material>
  </library_materials>
  <library_effects>
    <effect id="lambert7-fx" name="lambert7">
      <profile_COMMON>
        <technique sid="standard">
          <phong>
            <emission>
              <color sid="emission">0.000000  0.000000 0.000000 1.000000</color>
            </emission>
            <ambient>
              <color sid="ambient">0.000000  0.000000 0.000000 1.000000</color>
            </ambient>
            <diffuse>
              <texture texture="file3-image" texcoord="CHANNEL0">
                <extra>
                  <technique profile="MAYA">
                    <wrapU sid="wrapU0">TRUE</wrapU>
                    <wrapV sid="wrapV0">TRUE</wrapV>
                    <blend_mode>ADD</blend_mode>
                  </technique>
                </extra>
              </texture>
            </diffuse>
            <specular>
              <color sid="specular">0.000000  0.000000 0.000000 1.000000</color>
            </specular>
            <shininess>
              <float sid="shininess">1.071773</float>
            </shininess>
            <reflective>
              <color sid="reflective">0.000000  0.000000 0.000000 1.000000</color>
            </reflective>
            <reflectivity>
              <float sid="reflectivity">1.000000</float>
            </reflectivity>
            <transparent opaque="RGB_ZERO">
              <color sid="transparent">1.000000  1.000000 1.000000 1.000000</color>
            </transparent>
            <transparency>
              <float sid="transparency">0.000000</float>
            </transparency>
          </phong>
        </technique>
      </profile_COMMON>
    </effect>
  </library_effects>
  <library_geometries>
    <geometry id="polySurface35-lib" name="polySurface35Mesh">
      <mesh>
        <source id="polySurface35-POSITION">
          <float_array id="polySurface35-POSITION-array" count="618">
8.000000 4.000000 0.000000
8.000000 0.000000 0.000000
8.000000 1.147081 0.000000
7.978394 3.978167 0.000000
8.000000 3.479630 0.000000
7.978394 3.501126 0.000000
8.000000 1.095030 0.000000
8.026704 1.121118 0.000000
7.739185 4.000000 -2.065593
7.739185 0.000000 -2.065593
7.739185 1.147081 -2.065593
7.712148 3.978167 -2.058329
7.739185 3.479630 -2.065593
7.712148 3.501126 -2.058329
7.959351 3.467597 -0.633667
7.964087 3.467597 -0.572413
7.965732 3.501126 -0.549650
7.957012 3.501126 -0.661781
7.994663 3.479630 -0.537263
7.992368 3.445070 -0.569634
7.986753 3.446354 -0.642045
7.983989 3.479630 -0.674877
7.838657 3.501126 -1.511375
7.863140 3.479630 -1.532075
7.858394 3.501126 -1.406171
7.887598 3.479630 -1.401979
7.882808 3.446354 -1.428420
7.854268 3.467597 -1.428831
7.844136 3.467597 -1.482952
7.870093 3.446354 -1.496259
7.761060 1.121118 -2.071470
7.739185 1.095030 -2.065593
6.937871 4.000000 -3.996873
6.937871 0.000000 -3.996873
6.937871 1.147081 -3.996873
6.913633 3.978167 -3.982863
6.937871 3.479630 -3.996873
6.913633 3.501126 -3.982863
7.520967 3.467597 -2.670645
7.541392 3.467597 -2.612703
7.548867 3.501126 -2.591139
7.511436 3.501126 -2.697197
7.580020 3.479630 -2.586658
7.569424 3.445070 -2.617332
7.545273 3.446354 -2.685825
7.534106 3.479630 -2.716825
7.177334 3.501126 -3.487253
7.195620 3.479630 -3.513582
7.223613 3.501126 -3.390737
7.252900 3.479630 -3.394241
7.241431 3.446354 -3.418542
7.213765 3.467597 -3.411558
7.189971 3.467597 -3.461213
7.211606 3.446354 -3.480783
6.957480 1.121118 -4.008210
6.937871 1.095030 -3.996873
5.664229 4.000000 -5.655120
5.664229 0.000000 -5.655120
5.664229 1.147081 -5.655120
5.644443 3.978167 -5.635316
5.664229 3.479630 -5.655120
5.644443 3.501126 -5.635316
6.570557 3.467597 -4.524878
6.605278 3.467597 -4.474193
6.618081 3.501126 -4.455296
6.554482 3.501126 -4.548061
6.649326 3.479630 -4.459026
6.631162 3.445070 -4.485916
6.590107 3.446354 -4.545829
6.571304 3.479630 -4.572886
6.027373 3.501126 -5.224794
6.038232 3.479630 -5.254957
6.097041 3.501126 -5.143535
6.124429 3.479630 -5.154498
6.107065 3.446354 -5.175005
6.082144 3.467597 -5.161099
6.046318 3.467597 -5.202912
6.062153 3.446354 -5.227411
5.680244 1.121118 -5.671145
5.664229 1.095030 -5.655120
4.004966 4.000000 -6.927441
4.004966 0.000000 -6.927441
4.004966 1.147081 -6.927441
3.990977 3.978167 -6.903192
4.004966 3.479630 -6.927441
3.990977 3.501126 -6.903192
5.172832 3.467597 -6.070130
5.219482 3.467597 -6.030154
5.236733 3.501126 -6.015211
5.151304 3.501126 -6.088367
5.265952 3.479630 -6.026898
5.241450 3.445070 -6.048173
5.186294 3.446354 -6.095427
5.161133 3.479630 -6.116699
4.467070 3.501126 -6.605705
4.469756 3.479630 -6.637650
4.555391 3.501126 -6.545236
4.579014 3.479630 -6.562911
4.556934 3.446354 -6.578228
4.536455 3.467597 -6.558347
4.491035 3.467597 -6.589469
4.499990 3.446354 -6.617231
4.016289 1.121118 -6.947062
4.004966 1.095030 -6.927441
2.073052 4.000000 -7.727218
2.073052 0.000000 -7.727218
2.073052 1.147081 -7.727218
2.065806 3.978167 -7.700174
2.073052 3.479630 -7.727218
2.065806 3.501126 -7.700174
3.422935 3.467597 -7.201204
3.478340 3.467597 -7.174656
3.498872 3.501126 -7.164686
3.397427 3.501126 -7.213253
3.524072 3.479630 -7.183533
3.494897 3.445070 -7.197744
3.429399 3.446354 -7.229123
3.399590 3.479630 -7.243162
2.602651 3.501126 -7.535974
2.596982 3.479630 -7.567527
2.703608 3.501126 -7.500411
2.721855 3.479630 -7.523596
2.696567 3.446354 -7.532680
2.681929 3.467597 -7.508178
2.630005 3.467597 -7.526490
2.631475 3.446354 -7.555624
2.078906 1.121118 -7.749099
2.073052 1.095030 -7.727218
0.000000 4.000000 -8.000000
0.000000 0.000000 -8.000000
0.000000 1.147081 -8.000000
0.000000 3.978167 -7.972003
0.000000 3.479630 -8.000000
0.000000 3.501126 -7.972003
1.440010 3.467597 -7.841096
1.500396 3.467597 -7.829783
1.522813 3.501126 -7.825464
1.412251 3.501126 -7.846133
1.542280 3.479630 -7.850189
1.510420 3.445070 -7.856370
1.439033 3.446354 -7.869736
1.406606 3.479630 -7.875585
0.561050 3.501126 -7.952270
0.547412 3.479630 -7.981281
0.667773 3.501126 -7.944034
0.679399 3.479630 -7.971149
0.652617 3.446354 -7.973381
0.644814 3.467597 -7.945927
0.589922 3.467597 -7.950184
0.583804 3.446354 -7.978707
0.000000 1.121118 -8.022653
0.000000 1.095030 -8.000000
1.045459 4.000000 -7.931511
1.039004 3.978167 -7.904123
1.039004 3.501126 -7.904123
1.045459 3.479630 -7.931511
1.045459 3.446354 -7.931511
1.045459 1.147081 -7.931511
1.050698 1.121118 -7.953670
1.045459 1.095030 -7.931511
1.045459 0.000000 -7.931511
3.065205 4.000000 -7.390609
3.058701 3.978167 -7.363000
3.058701 3.501126 -7.363000
3.065205 3.479630 -7.390609
3.065205 3.446354 -7.390609
3.065205 1.147081 -7.390609
3.070444 1.121118 -7.412957
3.065205 1.095030 -7.390609
3.065205 0.000000 -7.390609
4.876274 0.000000 -6.345631
4.876274 1.095030 -6.345631
4.890981 1.121118 -6.362897
4.876274 1.147081 -6.345631
4.876274 3.446354 -6.345631
4.876274 3.479630 -6.345631
4.858101 3.501126 -6.324286
4.858101 3.978167 -6.324286
4.876274 4.000000 -6.345631
6.355366 4.000000 -4.867715
6.334956 3.978167 -4.848331
6.334956 3.501126 -4.848331
6.355366 3.479630 -4.867715
6.355366 3.446354 -4.867715
6.355366 1.147081 -4.867715
6.371875 1.121118 -4.883411
6.355366 1.095030 -4.867715
6.355366 0.000000 -4.867715
7.401787 0.000000 -3.057480
7.401787 1.095030 -3.057480
7.423325 1.121118 -3.064683
7.401787 1.147081 -3.057480
7.401787 3.446354 -3.057480
7.401787 3.479630 -3.057480
7.375171 3.501126 -3.048570
7.375171 3.978167 -3.048570
7.401787 4.000000 -3.057480
7.944297 4.000000 -1.038167
7.916509 3.978167 -1.034753
7.916509 3.501126 -1.034753
7.944297 3.479630 -1.038167
7.944297 3.446354 -1.038167
7.944297 1.147081 -1.038167
7.966782 1.121118 -1.040925
7.944297 1.095030 -1.038167
7.944297 0.000000 -1.038167
</float_array>
          <technique_common>
            <accessor source="#polySurface35-POSITION-array" count="206" stride="3">
              <param name="X" type="float"/>
              <param name="Y" type="float"/>
              <param name="Z" type="float"/>
            </accessor>
          </technique_common>
        </source>
        <source id="polySurface35-Normal0">
          <float_array id="polySurface35-Normal0-array" count="3348">
-0.973275 0.040044 0.226124
-0.865257 -0.444233 0.232350
-0.965628 0.018506 0.259269
-0.965628 0.018506 0.259269
-0.977224 0.016801 0.211545
-0.973275 0.040044 0.226124
-0.660421 0.749961 0.037463
-0.633124 0.769994 0.079139
-0.903091 0.413584 0.115652
-0.903091 0.413584 0.115652
-0.982519 0.177352 0.056600
-0.660421 0.749961 0.037463
-0.897001 -0.308869 0.316210
-0.903091 0.413584 0.115652
-0.947329 0.194459 0.254467
-0.947329 0.194459 0.254467
-0.948716 -0.308264 0.070084
-0.897001 -0.308869 0.316210
-0.849220 -0.503212 -0.160009
-0.821434 -0.488894 0.293648
-0.936305 -0.296054 0.188906
-0.936305 -0.296054 0.188906
-0.945773 -0.320033 -0.055603
-0.849220 -0.503212 -0.160009
-0.821434 -0.488894 0.293648
-0.625486 -0.685806 0.372073
-0.646334 -0.673935 0.357861
-0.646334 -0.673935 0.357861
-0.936305 -0.296054 0.188906
-0.821434 -0.488894 0.293648
-0.996360 0.011453 0.084479
-0.926015 -0.358382 0.118571
-0.982982 -0.175969 0.052745
-0.982982 -0.175969 0.052745
-0.999137 0.024341 0.033659
-0.996360 0.011453 0.084479
-0.625486 -0.685806 0.372073
-0.821434 -0.488894 0.293648
-0.849220 -0.503212 -0.160009
-0.849220 -0.503212 -0.160009
-0.661920 -0.701361 -0.264489
-0.625486 -0.685806 0.372073
-0.907982 -0.418597 0.018600
-0.936305 -0.296054 0.188906
-0.646334 -0.673935 0.357861
-0.646334 -0.673935 0.357861
-0.649466 -0.760314 0.010754
-0.907982 -0.418597 0.018600
-0.999525 0.028534 0.011661
-0.998322 0.057044 0.009917
-0.999137 0.024341 0.033659
-0.999137 0.024341 0.033659
-0.982982 -0.175969 0.052745
-0.999525 0.028534 0.011661
-0.948716 -0.308264 0.070084
-0.947329 0.194459 0.254467
-0.865257 -0.444233 0.232350
-0.865257 -0.444233 0.232350
-0.697442 -0.701441 -0.146816
-0.948716 -0.308264 0.070084
-0.659219 -0.708410 -0.252160
-0.661920 -0.701361 -0.264489
-0.849220 -0.503212 -0.160009
-0.849220 -0.503212 -0.160009
-0.945773 -0.320033 -0.055603
-0.659219 -0.708410 -0.252160
-0.882932 -0.455041 0.115620
-0.602170 -0.794373 0.079773
-0.659219 -0.708410 -0.252160
-0.659219 -0.708410 -0.252160
-0.945773 -0.320033 -0.055603
-0.882932 -0.455041 0.115620
-0.991610 0.008283 0.128997
-0.984597 0.008338 0.174638
-0.926015 -0.358382 0.118571
-0.926015 -0.358382 0.118571
-0.996360 0.011453 0.084479
-0.991610 0.008283 0.128997
-0.994131 0.011771 0.107539
-0.991295 0.010679 0.131225
-0.991610 0.008283 0.128997
-0.991610 0.008283 0.128997
-0.996360 0.011453 0.084479
-0.994131 0.011771 0.107539
-0.768593 -0.497321 0.402413
-0.549082 -0.694575 0.464839
-0.554154 -0.695782 0.456948
-0.554154 -0.695782 0.456948
-0.897001 -0.308869 0.316210
-0.768593 -0.497321 0.402413
-0.864855 -0.500012 -0.044869
-0.768593 -0.497321 0.402413
-0.897001 -0.308869 0.316210
-0.897001 -0.308869 0.316210
-0.948716 -0.308264 0.070084
-0.864855 -0.500012 -0.044869
-0.697442 -0.701441 -0.146816
-0.697116 -0.698979 -0.159552
-0.864855 -0.500012 -0.044869
-0.864855 -0.500012 -0.044869
-0.948716 -0.308264 0.070084
-0.697442 -0.701441 -0.146816
-0.864855 -0.500012 -0.044869
-0.697116 -0.698979 -0.159552
-0.549082 -0.694575 0.464839
-0.549082 -0.694575 0.464839
-0.768593 -0.497321 0.402413
-0.864855 -0.500012 -0.044869
-0.951923 -0.168838 0.255608
-0.926015 -0.358382 0.118571
-0.984597 0.008338 0.174638
-0.984597 0.008338 0.174638
-0.977224 0.016801 0.211545
-0.951923 -0.168838 0.255608
-0.965628 0.018506 0.259269
-0.951923 -0.168838 0.255608
-0.977224 0.016801 0.211545
-0.982519 0.177352 0.056600
-0.903091 0.413584 0.115652
-0.945773 -0.320033 -0.055603
-0.945773 -0.320033 -0.055603
-0.936305 -0.296054 0.188906
-0.982519 0.177352 0.056600
-0.903091 0.413584 0.115652
-0.897001 -0.308869 0.316210
-0.882932 -0.455041 0.115620
-0.882932 -0.455041 0.115620
-0.945773 -0.320033 -0.055603
-0.903091 0.413584 0.115652
-0.907982 -0.418597 0.018600
-0.982519 0.177352 0.056600
-0.936305 -0.296054 0.188906
-0.927892 0.369406 0.050551
-0.925455 0.360166 0.117534
-0.992157 0.000000 0.124997
-0.992157 0.000000 0.124997
-0.998564 0.000000 0.053578
-0.927892 0.369406 0.050551
-0.927892 0.369406 0.050551
-0.725957 0.686554 0.040373
-0.925455 0.360166 0.117534
-0.725957 0.686554 0.040373
-0.982982 -0.175969 0.052745
-0.725957 0.686554 0.040373
-0.725957 0.686554 0.040373
-0.925455 0.360166 0.117534
-0.725957 0.686554 0.040373
-0.881661 0.039860 0.470197
-0.790913 -0.444081 0.421009
-0.882719 0.019934 0.469478
-0.882719 0.019934 0.469478
-0.889252 0.016750 0.457111
-0.881661 0.039860 0.470197
-0.552891 0.787234 0.273084
-0.878696 0.193759 0.436293
-0.834733 0.427979 0.346489
-0.834733 0.427979 0.346489
-0.567966 0.788563 0.235760
-0.552891 0.787234 0.273084
-0.784688 -0.308748 0.537531
-0.834733 0.427979 0.346489
-0.878696 0.193759 0.436293
-0.878696 0.193759 0.436293
-0.898299 -0.308227 0.313137
-0.784688 -0.308748 0.537531
-0.861699 -0.503223 0.065131
-0.717517 -0.488877 0.496154
-0.850496 -0.302826 0.430061
-0.850496 -0.302826 0.430061
-0.928876 -0.316581 0.192266
-0.861699 -0.503223 0.065131
-0.717517 -0.488877 0.496154
-0.507967 -0.685789 0.521213
-0.507615 -0.692754 0.512268
-0.507615 -0.692754 0.512268
-0.850496 -0.302826 0.430061
-0.717517 -0.488877 0.496154
-0.939604 0.009007 0.342144
-0.865669 -0.348713 0.359188
-0.951923 -0.168838 0.255608
-0.951923 -0.168838 0.255608
-0.951811 0.014717 0.306333
-0.939604 0.009007 0.342144
-0.507967 -0.685789 0.521213
-0.717517 -0.488877 0.496154
-0.861699 -0.503223 0.065131
-0.861699 -0.503223 0.065131
-0.707797 -0.701374 -0.084256
-0.507967 -0.685789 0.521213
-0.865257 -0.444233 0.232350
-0.850496 -0.302826 0.430061
-0.507615 -0.692754 0.512268
-0.507615 -0.692754 0.512268
-0.584751 -0.795868 0.157037
-0.865257 -0.444233 0.232350
-0.965628 0.018506 0.259269
-0.955827 0.033921 0.291968
-0.951811 0.014717 0.306333
-0.951811 0.014717 0.306333
-0.951923 -0.168838 0.255608
-0.965628 0.018506 0.259269
-0.898299 -0.308227 0.313137
-0.878696 0.193759 0.436293
-0.790913 -0.444081 0.421009
-0.790913 -0.444081 0.421009
-0.711712 -0.701409 0.038618
-0.898299 -0.308227 0.313137
-0.701859 -0.708556 -0.073087
-0.707797 -0.701374 -0.084256
-0.861699 -0.503223 0.065131
-0.861699 -0.503223 0.065131
-0.928876 -0.316581 0.192266
-0.701859 -0.708556 -0.073087
-0.417257 -0.695618 0.584817
-0.561026 -0.794369 0.232868
-0.822837 -0.454188 0.341545
-0.822837 -0.454188 0.341545
-0.784688 -0.308748 0.537531
-0.417257 -0.695618 0.584817
-0.865669 -0.348713 0.359188
-0.939604 0.009007 0.342144
-0.923623 0.007885 0.383221
-0.923623 0.007885 0.383221
-0.905916 0.008362 0.423375
-0.865669 -0.348713 0.359188
-0.905916 0.008362 0.423375
-0.889252 0.016750 0.457111
-0.883174 -0.168124 0.437879
-0.883174 -0.168124 0.437879
-0.865669 -0.348713 0.359188
-0.905916 0.008362 0.423375
-0.914206 0.009627 0.405136
-0.905916 0.008362 0.423375
-0.923623 0.007885 0.383221
-0.923623 0.007885 0.383221
-0.923603 0.010672 0.383203
-0.914206 0.009627 0.405136
-0.638369 -0.497241 0.587569
-0.410200 -0.694532 0.591069
-0.417257 -0.695618 0.584817
-0.417257 -0.695618 0.584817
-0.784688 -0.308748 0.537531
-0.638369 -0.497241 0.587569
-0.847053 -0.499953 0.180413
-0.638369 -0.497241 0.587569
-0.784688 -0.308748 0.537531
-0.784688 -0.308748 0.537531
-0.898299 -0.308227 0.313137
-0.847053 -0.499953 0.180413
-0.711712 -0.701409 0.038618
-0.714686 -0.698954 0.026226
-0.847053 -0.499953 0.180413
-0.847053 -0.499953 0.180413
-0.898299 -0.308227 0.313137
-0.711712 -0.701409 0.038618
-0.847053 -0.499953 0.180413
-0.714686 -0.698954 0.026226
-0.410200 -0.694532 0.591069
-0.410200 -0.694532 0.591069
-0.638369 -0.497241 0.587569
-0.847053 -0.499953 0.180413
-0.882719 0.019934 0.469478
-0.883174 -0.168124 0.437879
-0.889252 0.016750 0.457111
-0.947329 0.194459 0.254467
-0.834733 0.427979 0.346489
-0.928876 -0.316581 0.192266
-0.928876 -0.316581 0.192266
-0.850496 -0.302826 0.430061
-0.947329 0.194459 0.254467
-0.822837 -0.454188 0.341545
-0.928876 -0.316581 0.192266
-0.834733 0.427979 0.346489
-0.834733 0.427979 0.346489
-0.784688 -0.308748 0.537531
-0.822837 -0.454188 0.341545
-0.865257 -0.444233 0.232350
-0.947329 0.194459 0.254467
-0.850496 -0.302826 0.430061
-0.865192 0.350103 0.358986
-0.840286 0.348906 0.414951
-0.896623 0.000000 0.442794
-0.896623 0.000000 0.442794
-0.923651 0.000000 0.383235
-0.865192 0.350103 0.358986
-0.678338 0.653960 0.334954
-0.840286 0.348906 0.414951
-0.865192 0.350103 0.358986
-0.865192 0.350103 0.358986
-0.678338 0.653960 0.334954
-0.678338 0.653960 0.334954
-0.926015 -0.358382 0.118571
-0.733192 -0.673476 0.094127
-0.982982 -0.175969 0.052745
-0.676934 -0.655766 0.334260
-0.695987 -0.657423 0.288786
-0.865669 -0.348713 0.359188
-0.865669 -0.348713 0.359188
-0.883174 -0.168124 0.437879
-0.676934 -0.655766 0.334260
-0.729999 0.040026 0.682275
-0.633331 -0.444220 0.633688
-0.706810 0.018460 0.707162
-0.706810 0.018460 0.707162
-0.740723 0.016802 0.671600
-0.729999 0.040026 0.682275
-0.512977 0.786869 0.343061
-0.487819 0.788533 0.374498
-0.716901 0.427961 0.550366
-0.716901 0.427961 0.550366
-0.816696 0.193725 0.543579
-0.512977 0.786869 0.343061
-0.618929 -0.309003 0.722111
-0.716901 0.427961 0.550366
-0.693371 0.194581 0.693812
-0.693371 0.194581 0.693812
-0.786727 -0.308252 0.534828
-0.618929 -0.309003 0.722111
-0.815520 -0.503205 0.285853
-0.564731 -0.488865 0.664899
-0.710288 -0.302820 0.635445
-0.710288 -0.302820 0.635445
-0.847622 -0.316335 0.425992
-0.815520 -0.503205 0.285853
-0.564731 -0.488865 0.664899
-0.355835 -0.685790 0.634880
-0.357838 -0.692745 0.626144
-0.357838 -0.692745 0.626144
-0.710288 -0.302820 0.635445
-0.564731 -0.488865 0.664899
-0.819094 0.009031 0.573588
-0.743290 -0.348724 0.570886
-0.820364 -0.168027 0.546598
-0.820364 -0.168027 0.546598
-0.840149 0.014657 0.542158
-0.819094 0.009031 0.573588
-0.355835 -0.685790 0.634880
-0.564731 -0.488865 0.664899
-0.815520 -0.503205 0.285853
-0.815520 -0.503205 0.285853
-0.705500 -0.701371 0.101726
-0.355835 -0.685790 0.634880
-0.759742 -0.443911 0.475116
-0.710288 -0.302820 0.635445
-0.357838 -0.692745 0.626144
-0.357838 -0.692745 0.626144
-0.513793 -0.795551 0.321115
-0.759742 -0.443911 0.475116
-0.847589 0.016859 0.530385
-0.847763 0.033714 0.529302
-0.840149 0.014657 0.542158
-0.840149 0.014657 0.542158
-0.820364 -0.168027 0.546598
-0.847589 0.016859 0.530385
-0.786727 -0.308252 0.534828
-0.693371 0.194581 0.693812
-0.633331 -0.444220 0.633688
-0.633331 -0.444220 0.633688
-0.677497 -0.701421 0.221373
-0.786727 -0.308252 0.534828
-0.697228 -0.708177 0.111168
-0.705500 -0.701371 0.101726
-0.815520 -0.503205 0.285853
-0.815520 -0.503205 0.285853
-0.847622 -0.316335 0.425992
-0.697228 -0.708177 0.111168
-0.706643 -0.454174 0.542569
-0.481769 -0.794357 0.369995
-0.697228 -0.708177 0.111168
-0.697228 -0.708177 0.111168
-0.847622 -0.316335 0.425992
-0.706643 -0.454174 0.542569
-0.793048 0.007885 0.609108
-0.765552 0.008344 0.643320
-0.743290 -0.348724 0.570886
-0.743290 -0.348724 0.570886
-0.819094 0.009031 0.573588
-0.793048 0.007885 0.609108
-0.807333 0.011756 0.589979
-0.793034 0.010672 0.609084
-0.793048 0.007885 0.609108
-0.793048 0.007885 0.609108
-0.819094 0.009031 0.573588
-0.807333 0.011756 0.589979
-0.464634 -0.497282 0.732684
-0.243308 -0.694551 0.677052
-0.251458 -0.695988 0.672584
-0.251458 -0.695988 0.672584
-0.618929 -0.309003 0.722111
-0.464634 -0.497282 0.732684
-0.771556 -0.499980 0.393347
-0.464634 -0.497282 0.732684
-0.618929 -0.309003 0.722111
-0.618929 -0.309003 0.722111
-0.786727 -0.308252 0.534828
-0.771556 -0.499980 0.393347
-0.677497 -0.701421 0.221373
-0.683580 -0.698962 0.210170
-0.771556 -0.499980 0.393347
-0.771556 -0.499980 0.393347
-0.786727 -0.308252 0.534828
-0.677497 -0.701421 0.221373
-0.771556 -0.499980 0.393347
-0.683580 -0.698962 0.210170
-0.243308 -0.694551 0.677052
-0.243308 -0.694551 0.677052
-0.464634 -0.497282 0.732684
-0.771556 -0.499980 0.393347
-0.696733 -0.169016 0.697135
-0.743290 -0.348724 0.570886
-0.765552 0.008344 0.643320
-0.765552 0.008344 0.643320
-0.740723 0.016802 0.671600
-0.696733 -0.169016 0.697135
-0.706810 0.018460 0.707162
-0.696733 -0.169016 0.697135
-0.740723 0.016802 0.671600
-0.816696 0.193725 0.543579
-0.716901 0.427961 0.550366
-0.847622 -0.316335 0.425992
-0.847622 -0.316335 0.425992
-0.710288 -0.302820 0.635445
-0.816696 0.193725 0.543579
-0.716901 0.427961 0.550366
-0.618929 -0.309003 0.722111
-0.706643 -0.454174 0.542569
-0.706643 -0.454174 0.542569
-0.847622 -0.316335 0.425992
-0.716901 0.427961 0.550366
-0.759742 -0.443911 0.475116
-0.816696 0.193725 0.543579
-0.710288 -0.302820 0.635445
-0.779024 0.348644 0.521123
-0.742881 0.350114 0.570568
-0.793070 0.000000 0.609130
-0.793070 0.000000 0.609130
-0.831193 0.000000 0.555984
-0.779024 0.348644 0.521123
-0.629096 0.653536 0.420867
-0.629096 0.653536 0.420867
-0.742881 0.350114 0.570568
-0.742881 0.350114 0.570568
-0.779024 0.348644 0.521123
-0.629096 0.653536 0.420867
-0.528663 0.039960 0.847891
-0.474650 -0.444091 0.759928
-0.499816 0.018462 0.865935
-0.499816 0.018462 0.865935
-0.541766 0.016777 0.840362
-0.528663 0.039960 0.847891
-0.342296 0.787404 0.512667
-0.543047 0.193809 0.817030
-0.549878 0.427969 0.717270
-0.549878 0.427969 0.717270
-0.374157 0.788545 0.488061
-0.342296 0.787404 0.512667
-0.411016 -0.308801 0.857734
-0.549878 0.427969 0.717270
-0.543047 0.193809 0.817030
-0.543047 0.193809 0.817030
-0.621571 -0.308251 0.720160
-0.411016 -0.308801 0.857734
-0.713802 -0.503220 0.487089
-0.373499 -0.488884 0.788347
-0.521726 -0.302837 0.797554
-0.521726 -0.302837 0.797554
-0.708471 -0.316558 0.630761
-0.713802 -0.503220 0.487089
-0.373499 -0.488884 0.788347
-0.179481 -0.685781 0.705330
-0.183667 -0.692750 0.697398
-0.183667 -0.692750 0.697398
-0.521726 -0.302837 0.797554
-0.373499 -0.488884 0.788347
-0.642832 0.009034 0.765954
-0.570294 -0.348721 0.743746
-0.696733 -0.169016 0.697135
-0.696733 -0.169016 0.697135
-0.671299 0.014668 0.741042
-0.642832 0.009034 0.765954
-0.179481 -0.685781 0.705330
-0.373499 -0.488884 0.788347
-0.713802 -0.503220 0.487089
-0.713802 -0.503220 0.487089
-0.655175 -0.701358 0.280789
-0.179481 -0.685781 0.705330
-0.633331 -0.444220 0.633688
-0.521726 -0.302837 0.797554
-0.183667 -0.692750 0.697398
-0.183667 -0.692750 0.697398
-0.428019 -0.795850 0.428277
-0.633331 -0.444220 0.633688
-0.706810 0.018460 0.707162
-0.681975 0.033755 0.730596
-0.671299 0.014668 0.741042
-0.671299 0.014668 0.741042
-0.696733 -0.169016 0.697135
-0.706810 0.018460 0.707162
-0.621571 -0.308251 0.720160
-0.543047 0.193809 0.817030
-0.474650 -0.444091 0.759928
-0.474650 -0.444091 0.759928
-0.597139 -0.701426 0.389136
-0.621571 -0.308251 0.720160
-0.644488 -0.708503 0.287505
-0.655175 -0.701358 0.280789
-0.713802 -0.503220 0.487089
-0.713802 -0.503220 0.487089
-0.708471 -0.316558 0.630761
-0.644488 -0.708503 0.287505
-0.069072 -0.695683 0.715020
-0.369557 -0.794376 0.482073
-0.542033 -0.454190 0.707044
-0.542033 -0.454190 0.707044
-0.411016 -0.308801 0.857734
-0.069072 -0.695683 0.715020
-0.570294 -0.348721 0.743746
-0.642832 0.009034 0.765954
-0.608485 0.007899 0.793526
-0.608485 0.007899 0.793526
-0.573065 0.008353 0.819468
-0.570294 -0.348721 0.743746
-0.573065 0.008353 0.819468
-0.541766 0.016777 0.840362
-0.492723 -0.168344 0.853747
-0.492723 -0.168344 0.853747
-0.570294 -0.348721 0.743746
-0.573065 0.008353 0.819468
-0.589380 0.009620 0.807799
-0.573065 0.008353 0.819468
-0.608485 0.007899 0.793526
-0.608485 0.007899 0.793526
-0.608479 0.010699 0.793498
-0.589380 0.009620 0.807799
-0.259267 -0.497291 0.827939
-0.059864 -0.694561 0.716939
-0.069072 -0.695683 0.715020
-0.069072 -0.695683 0.715020
-0.411016 -0.308801 0.857734
-0.259267 -0.497291 0.827939
-0.643508 -0.499991 0.579574
-0.259267 -0.497291 0.827939
-0.411016 -0.308801 0.857734
-0.411016 -0.308801 0.857734
-0.621571 -0.308251 0.720160
-0.643508 -0.499991 0.579574
-0.597139 -0.701426 0.389136
-0.605906 -0.698975 0.379883
-0.643508 -0.499991 0.579574
-0.643508 -0.499991 0.579574
-0.621571 -0.308251 0.720160
-0.597139 -0.701426 0.389136
-0.643508 -0.499991 0.579574
-0.605906 -0.698975 0.379883
-0.059864 -0.694561 0.716939
-0.059864 -0.694561 0.716939
-0.259267 -0.497291 0.827939
-0.643508 -0.499991 0.579574
-0.499816 0.018462 0.865935
-0.492723 -0.168344 0.853747
-0.541766 0.016777 0.840362
-0.693371 0.194581 0.693812
-0.549878 0.427969 0.717270
-0.708471 -0.316558 0.630761
-0.708471 -0.316558 0.630761
-0.521726 -0.302837 0.797554
-0.693371 0.194581 0.693812
-0.542033 -0.454190 0.707044
-0.708471 -0.316558 0.630761
-0.549878 0.427969 0.717270
-0.549878 0.427969 0.717270
-0.411016 -0.308801 0.857734
-0.542033 -0.454190 0.707044
-0.633331 -0.444220 0.633688
-0.693371 0.194581 0.693812
-0.521726 -0.302837 0.797554
-0.569981 0.350112 0.743332
-0.520404 0.349060 0.779318
-0.555320 0.000000 0.831637
-0.555320 0.000000 0.831637
-0.608498 0.000000 0.793555
-0.569981 0.350112 0.743332
-0.420022 0.654208 0.628962
-0.520404 0.349060 0.779318
-0.569981 0.350112 0.743332
-0.569981 0.350112 0.743332
-0.420022 0.654208 0.628962
-0.420022 0.654208 0.628962
-0.627805 -0.655330 0.420004
-0.820364 -0.168027 0.546598
-0.743290 -0.348724 0.570886
-0.743290 -0.348724 0.570886
-0.597595 -0.657442 0.458967
-0.627805 -0.655330 0.420004
-0.419157 -0.656001 0.627670
-0.458502 -0.657436 0.597958
-0.570294 -0.348721 0.743746
-0.570294 -0.348721 0.743746
-0.492723 -0.168344 0.853747
-0.419157 -0.656001 0.627670
-0.291323 0.039930 0.955791
-0.231868 -0.444231 0.865388
-0.258795 0.018448 0.965756
-0.258795 0.018448 0.965756
-0.305930 0.016767 0.951906
-0.291323 0.039930 0.955791
-0.273210 0.786313 0.554136
-0.235430 0.788553 0.568116
-0.345996 0.427973 0.834940
-0.345996 0.427973 0.834940
-0.435778 0.193573 0.878992
-0.273210 0.786313 0.554136
-0.175200 -0.309086 0.934757
-0.345996 0.427973 0.834940
-0.253808 0.194738 0.947448
-0.253808 0.194738 0.947448
-0.414103 -0.308275 0.856438
-0.175200 -0.309086 0.934757
-0.563528 -0.503199 0.655154
-0.156868 -0.488860 0.858142
-0.297655 -0.302815 0.905375
-0.297655 -0.302815 0.905375
-0.521320 -0.316257 0.792595
-0.563528 -0.503199 0.655154
-0.156868 -0.488860 0.858142
0.009060 -0.685786 0.727747
0.002973 -0.692748 0.721174
0.002973 -0.692748 0.721174
-0.297655 -0.302815 0.905375
-0.156868 -0.488860 0.858142
-0.422815 0.009030 0.906171
-0.358501 -0.348712 0.865955
-0.492723 -0.168344 0.853747
-0.492723 -0.168344 0.853747
-0.456759 0.014688 0.889469
-0.422815 0.009030 0.906171
0.009060 -0.685786 0.727747
-0.156868 -0.488860 0.858142
-0.563528 -0.503199 0.655154
-0.563528 -0.503199 0.655154
-0.560260 -0.701362 0.440681
0.009060 -0.685786 0.727747
-0.420608 -0.443914 0.791220
-0.297655 -0.302815 0.905375
0.002973 -0.692748 0.721174
0.002973 -0.692748 0.721174
-0.284544 -0.795555 0.534909
-0.420608 -0.443914 0.791220
-0.499816 0.018462 0.865935
-0.469761 0.033827 0.882145
-0.456759 0.014688 0.889469
-0.456759 0.014688 0.889469
-0.492723 -0.168344 0.853747
-0.499816 0.018462 0.865935
-0.414103 -0.308275 0.856438
-0.253808 0.194738 0.947448
-0.231868 -0.444231 0.865388
-0.231868 -0.444231 0.865388
-0.476118 -0.701458 0.530347
-0.414103 -0.308275 0.856438
-0.548418 -0.708069 0.444831
-0.560260 -0.701362 0.440681
-0.563528 -0.503199 0.655154
-0.563528 -0.503199 0.655154
-0.521320 -0.316257 0.792595
-0.548418 -0.708069 0.444831
-0.340981 -0.454190 0.823070
-0.232396 -0.794375 0.561213
-0.548418 -0.708069 0.444831
-0.548418 -0.708069 0.444831
-0.521320 -0.316257 0.792595
-0.340981 -0.454190 0.823070
-0.382495 0.007894 0.923924
-0.341571 0.008348 0.939819
-0.358501 -0.348712 0.865955
-0.358501 -0.348712 0.865955
-0.422815 0.009030 0.906171
-0.382495 0.007894 0.923924
-0.404422 0.011772 0.914497
-0.382496 0.010689 0.923895
-0.382495 0.007894 0.923924
-0.382495 0.007894 0.923924
-0.422815 0.009030 0.906171
-0.404422 0.011772 0.914497
-0.036253 -0.497294 0.866824
0.127652 -0.694553 0.708026
0.118398 -0.696116 0.708099
0.118398 -0.696116 0.708099
-0.175200 -0.309086 0.934757
-0.036253 -0.497294 0.866824
-0.471655 -0.500021 0.726306
-0.036253 -0.497294 0.866824
-0.175200 -0.309086 0.934757
-0.175200 -0.309086 0.934757
-0.414103 -0.308275 0.856438
-0.471655 -0.500021 0.726306
-0.476118 -0.701458 0.530347
-0.486985 -0.698997 0.523688
-0.471655 -0.500021 0.726306
-0.471655 -0.500021 0.726306
-0.414103 -0.308275 0.856438
-0.476118 -0.701458 0.530347
-0.471655 -0.500021 0.726306
-0.486985 -0.698997 0.523688
0.127652 -0.694553 0.708026
0.127652 -0.694553 0.708026
-0.036253 -0.497294 0.866824
-0.471655 -0.500021 0.726306
-0.255063 -0.169201 0.952005
-0.358501 -0.348712 0.865955
-0.341571 0.008348 0.939819
-0.341571 0.008348 0.939819
-0.305930 0.016767 0.951906
-0.255063 -0.169201 0.952005
-0.258795 0.018448 0.965756
-0.255063 -0.169201 0.952005
-0.305930 0.016767 0.951906
-0.435778 0.193573 0.878992
-0.345996 0.427973 0.834940
-0.521320 -0.316257 0.792595
-0.521320 -0.316257 0.792595
-0.297655 -0.302815 0.905375
-0.435778 0.193573 0.878992
-0.345996 0.427973 0.834940
-0.175200 -0.309086 0.934757
-0.340981 -0.454190 0.823070
-0.340981 -0.454190 0.823070
-0.521320 -0.316257 0.792595
-0.345996 0.427973 0.834940
-0.420608 -0.443914 0.791220
-0.435778 0.193573 0.878992
-0.297655 -0.302815 0.905375
-0.414372 0.348209 0.840860
-0.358305 0.350102 0.865475
-0.382500 0.000000 0.923955
-0.382500 0.000000 0.923955
-0.442081 0.000000 0.896975
-0.414372 0.348209 0.840860
-0.334797 0.652835 0.679498
-0.334797 0.652835 0.679498
-0.358305 0.350102 0.865475
-0.358305 0.350102 0.865475
-0.414372 0.348209 0.840860
-0.334797 0.652835 0.679498
-0.034149 0.039916 0.998619
-0.031332 -0.444098 0.895430
-0.035307 0.019962 0.999177
-0.035307 0.019962 0.999177
-0.049267 0.016763 0.998645
-0.034149 0.039916 0.998619
-0.080092 0.788552 0.609730
-0.117714 0.427973 0.896093
-0.253808 0.194738 0.947448
-0.253808 0.194738 0.947448
-0.158647 0.789843 0.592434
-0.080092 0.788552 0.609730
0.072677 -0.308735 0.948367
-0.117714 0.427973 0.896093
-0.062002 0.193672 0.979105
-0.062002 0.193672 0.979105
-0.178463 -0.308254 0.934414
0.072677 -0.308735 0.948367
-0.374854 -0.503230 0.778617
0.070456 -0.488878 0.869502
-0.053315 -0.302835 0.951550
-0.053315 -0.302835 0.951550
-0.298391 -0.316630 0.900393
-0.374854 -0.503230 0.778617
0.070456 -0.488878 0.869502
0.197003 -0.685796 0.700624
0.189418 -0.692761 0.695847
0.189418 -0.692761 0.695847
-0.053315 -0.302835 0.951550
0.070456 -0.488878 0.869502
-0.173996 0.009030 0.984705
-0.122259 -0.348718 0.929219
-0.255063 -0.169201 0.952005
-0.255063 -0.169201 0.952005
-0.211109 0.014683 0.977352
-0.173996 0.009030 0.984705
0.197003 -0.685796 0.700624
0.070456 -0.488878 0.869502
-0.374854 -0.503230 0.778617
-0.374854 -0.503230 0.778617
-0.427172 -0.701389 0.570594
0.197003 -0.685796 0.700624
-0.231868 -0.444231 0.865388
-0.053315 -0.302835 0.951550
0.189418 -0.692761 0.695847
0.189418 -0.692761 0.695847
-0.156689 -0.795866 0.584847
-0.231868 -0.444231 0.865388
-0.258795 0.018448 0.965756
-0.225576 0.033805 0.973639
-0.211109 0.014683 0.977352
-0.211109 0.014683 0.977352
-0.255063 -0.169201 0.952005
-0.258795 0.018448 0.965756
-0.178463 -0.308254 0.934414
-0.062002 0.193672 0.979105
-0.031332 -0.444098 0.895430
-0.031332 -0.444098 0.895430
-0.322743 -0.701436 0.635472
-0.178463 -0.308254 0.934414
-0.414530 -0.708628 0.570973
-0.427172 -0.701389 0.570594
-0.374854 -0.503230 0.778617
-0.374854 -0.503230 0.778617
-0.298391 -0.316630 0.900393
-0.414530 -0.708628 0.570973
-0.116054 -0.454188 0.883314
-0.079142 -0.794374 0.602252
-0.414530 -0.708628 0.570973
-0.414530 -0.708628 0.570973
-0.298391 -0.316630 0.900393
-0.116054 -0.454188 0.883314
-0.130461 0.007897 0.991422
-0.086820 0.008354 0.996189
-0.122259 -0.348718 0.929219
-0.122259 -0.348718 0.929219
-0.173996 0.009030 0.984705
-0.130461 0.007897 0.991422
-0.154080 0.011766 0.987988
-0.130468 0.010695 0.991395
-0.130461 0.007897 0.991422
-0.130461 0.007897 0.991422
-0.173996 0.009030 0.984705
-0.154080 0.011766 0.987988
0.189193 -0.497297 0.846700
0.306420 -0.694573 0.650904
0.297482 -0.695584 0.653962
0.297482 -0.695584 0.653962
0.072677 -0.308735 0.948367
0.189193 -0.497297 0.846700
-0.267731 -0.499995 0.823605
0.189193 -0.497297 0.846700
0.072677 -0.308735 0.948367
0.072677 -0.308735 0.948367
-0.178463 -0.308254 0.934414
-0.267731 -0.499995 0.823605
-0.322743 -0.701436 0.635472
-0.334965 -0.698981 0.631842
-0.267731 -0.499995 0.823605
-0.267731 -0.499995 0.823605
-0.178463 -0.308254 0.934414
-0.322743 -0.701436 0.635472
-0.267731 -0.499995 0.823605
-0.334965 -0.698981 0.631842
0.306420 -0.694573 0.650904
0.306420 -0.694573 0.650904
0.189193 -0.497297 0.846700
-0.267731 -0.499995 0.823605
-0.062888 -0.168019 0.983776
-0.122259 -0.348718 0.929219
-0.086820 0.008354 0.996189
-0.086820 0.008354 0.996189
-0.049267 0.016763 0.998645
-0.062888 -0.168019 0.983776
-0.035307 0.019962 0.999177
-0.062888 -0.168019 0.983776
-0.049267 0.016763 0.998645
-0.253808 0.194738 0.947448
-0.117714 0.427973 0.896093
-0.298391 -0.316630 0.900393
-0.298391 -0.316630 0.900393
-0.053315 -0.302835 0.951550
-0.253808 0.194738 0.947448
-0.117714 0.427973 0.896093
0.072677 -0.308735 0.948367
-0.116054 -0.454188 0.883314
-0.116054 -0.454188 0.883314
-0.298391 -0.316630 0.900393
-0.117714 0.427973 0.896093
-0.231868 -0.444231 0.865388
-0.253808 0.194738 0.947448
-0.053315 -0.302835 0.951550
-0.242202 0.351107 0.904468
-0.122195 0.350108 0.928705
-0.130460 0.000000 0.991454
-0.130460 0.000000 0.991454
-0.258691 0.000000 0.965960
-0.242202 0.351107 0.904468
-0.147213 0.656076 0.740197
-0.122195 0.350108 0.928705
-0.242202 0.351107 0.904468
-0.242202 0.351107 0.904468
-0.194933 0.657245 0.728031
-0.147213 0.656076 0.740197
-0.334110 -0.654633 0.678105
-0.492723 -0.168344 0.853747
-0.358501 -0.348712 0.865955
-0.358501 -0.348712 0.865955
-0.288246 -0.657423 0.696211
-0.334110 -0.654633 0.678105
-0.098288 -0.657432 0.747076
-0.194528 -0.659034 0.726521
-0.255063 -0.169201 0.952005
-0.255063 -0.169201 0.952005
-0.122259 -0.348718 0.929219
-0.098288 -0.657432 0.747076
-0.040282 0.786924 0.615733
-0.062002 0.193672 0.979105
-0.117714 0.427973 0.896093
-0.117714 0.427973 0.896093
-0.080092 0.788552 0.609730
-0.040282 0.786924 0.615733
-0.116054 -0.454188 0.883314
0.072677 -0.308735 0.948367
0.297482 -0.695584 0.653962
0.297482 -0.695584 0.653962
-0.079142 -0.794374 0.602252
-0.116054 -0.454188 0.883314
-0.106783 0.009618 0.994236
-0.086820 0.008354 0.996189
-0.130461 0.007897 0.991422
-0.130461 0.007897 0.991422
-0.130468 0.010695 0.991395
-0.106783 0.009618 0.994236
-0.049428 -0.655396 0.753667
-0.098288 -0.657432 0.747076
-0.122259 -0.348718 0.929219
-0.122259 -0.348718 0.929219
-0.062888 -0.168019 0.983776
-0.049428 -0.655396 0.753667
-0.049530 0.653602 0.755216
-0.061297 0.348684 0.935234
-0.122195 0.350108 0.928705
-0.122195 0.350108 0.928705
-0.049530 0.653602 0.755216
-0.049530 0.653602 0.755216
-0.122195 0.350108 0.928705
-0.061297 0.348684 0.935234
-0.065370 0.000000 0.997861
-0.065370 0.000000 0.997861
-0.130460 0.000000 0.991454
-0.122195 0.350108 0.928705
-0.235430 0.788553 0.568116
-0.158647 0.789843 0.592434
-0.253808 0.194738 0.947448
-0.253808 0.194738 0.947448
-0.345996 0.427973 0.834940
-0.235430 0.788553 0.568116
-0.340981 -0.454190 0.823070
-0.175200 -0.309086 0.934757
0.118398 -0.696116 0.708099
0.118398 -0.696116 0.708099
-0.232396 -0.794375 0.561213
-0.340981 -0.454190 0.823070
-0.360352 0.009601 0.932767
-0.341571 0.008348 0.939819
-0.382495 0.007894 0.923924
-0.382495 0.007894 0.923924
-0.382496 0.010689 0.923895
-0.360352 0.009601 0.932767
-0.288246 -0.657423 0.696211
-0.358501 -0.348712 0.865955
-0.255063 -0.169201 0.952005
-0.255063 -0.169201 0.952005
-0.194528 -0.659034 0.726521
-0.288246 -0.657423 0.696211
-0.242180 0.656820 0.714098
-0.194933 0.657245 0.728031
-0.242202 0.351107 0.904468
-0.242202 0.351107 0.904468
-0.358305 0.350102 0.865475
-0.242180 0.656820 0.714098
-0.358305 0.350102 0.865475
-0.242202 0.351107 0.904468
-0.258691 0.000000 0.965960
-0.258691 0.000000 0.965960
-0.382500 0.000000 0.923955
-0.358305 0.350102 0.865475
-0.661916 0.350718 0.662468
-0.569981 0.350112 0.743332
-0.608498 0.000000 0.793555
-0.608498 0.000000 0.793555
-0.706825 0.000000 0.707388
-0.661916 0.350718 0.662468
-0.497759 0.655482 0.567962
-0.569981 0.350112 0.743332
-0.661916 0.350718 0.662468
-0.661916 0.350718 0.662468
-0.533079 0.656620 0.533551
-0.497759 0.655482 0.567962
-0.458502 -0.657436 0.597958
-0.531975 -0.658410 0.532447
-0.696733 -0.169016 0.697135
-0.696733 -0.169016 0.697135
-0.570294 -0.348721 0.743746
-0.458502 -0.657436 0.597958
-0.627231 0.011772 0.778744
-0.608479 0.010699 0.793498
-0.608485 0.007899 0.793526
-0.608485 0.007899 0.793526
-0.642832 0.009034 0.765954
-0.627231 0.011772 0.778744
-0.542033 -0.454190 0.707044
-0.369557 -0.794376 0.482073
-0.644488 -0.708503 0.287505
-0.644488 -0.708503 0.287505
-0.708471 -0.316558 0.630761
-0.542033 -0.454190 0.707044
-0.374157 0.788545 0.488061
-0.549878 0.427969 0.717270
-0.693371 0.194581 0.693812
-0.693371 0.194581 0.693812
-0.433991 0.789300 0.434346
-0.374157 0.788545 0.488061
-0.487819 0.788533 0.374498
-0.433991 0.789300 0.434346
-0.693371 0.194581 0.693812
-0.693371 0.194581 0.693812
-0.716901 0.427961 0.550366
-0.487819 0.788533 0.374498
-0.706643 -0.454174 0.542569
-0.618929 -0.309003 0.722111
-0.251458 -0.695988 0.672584
-0.251458 -0.695988 0.672584
-0.481769 -0.794357 0.369995
-0.706643 -0.454174 0.542569
-0.778282 0.009581 0.627841
-0.765552 0.008344 0.643320
-0.793048 0.007885 0.609108
-0.793048 0.007885 0.609108
-0.793034 0.010672 0.609084
-0.778282 0.009581 0.627841
-0.597595 -0.657442 0.458967
-0.743290 -0.348724 0.570886
-0.696733 -0.169016 0.697135
-0.696733 -0.169016 0.697135
-0.531975 -0.658410 0.532447
-0.597595 -0.657442 0.458967
-0.567103 0.656161 0.497842
-0.533079 0.656620 0.533551
-0.661916 0.350718 0.662468
-0.661916 0.350718 0.662468
-0.742881 0.350114 0.570568
-0.567103 0.656161 0.497842
-0.742881 0.350114 0.570568
-0.661916 0.350718 0.662468
-0.706825 0.000000 0.707388
-0.706825 0.000000 0.707388
-0.793070 0.000000 0.609130
-0.742881 0.350114 0.570568
-0.904555 0.350336 0.242991
-0.865192 0.350103 0.358986
-0.923651 0.000000 0.383235
-0.923651 0.000000 0.383235
-0.965754 0.000000 0.259460
-0.904555 0.350336 0.242991
-0.714812 0.655701 0.243107
-0.865192 0.350103 0.358986
-0.904555 0.350336 0.242991
-0.904555 0.350336 0.242991
-0.728921 0.656007 0.195781
-0.714812 0.655701 0.243107
-0.695987 -0.657423 0.288786
-0.727419 -0.657792 0.195378
-0.951923 -0.168838 0.255608
-0.951923 -0.168838 0.255608
-0.865669 -0.348713 0.359188
-0.695987 -0.657423 0.288786
-0.932472 0.011710 0.361051
-0.923603 0.010672 0.383203
-0.923623 0.007885 0.383221
-0.923623 0.007885 0.383221
-0.939604 0.009007 0.342144
-0.932472 0.011710 0.361051
-0.822837 -0.454188 0.341545
-0.561026 -0.794369 0.232868
-0.701859 -0.708556 -0.073087
-0.701859 -0.708556 -0.073087
-0.928876 -0.316581 0.192266
-0.822837 -0.454188 0.341545
-0.567966 0.788563 0.235760
-0.834733 0.427979 0.346489
-0.947329 0.194459 0.254467
-0.947329 0.194459 0.254467
-0.593542 0.788849 0.159450
-0.567966 0.788563 0.235760
-0.633124 0.769994 0.079139
-0.593542 0.788849 0.159450
-0.947329 0.194459 0.254467
-0.947329 0.194459 0.254467
-0.903091 0.413584 0.115652
-0.633124 0.769994 0.079139
-0.882932 -0.455041 0.115620
-0.897001 -0.308869 0.316210
-0.554154 -0.695782 0.456948
-0.554154 -0.695782 0.456948
-0.602170 -0.794373 0.079773
-0.882932 -0.455041 0.115620
-0.987894 0.009581 0.154837
-0.984597 0.008338 0.174638
-0.991610 0.008283 0.128997
-0.991610 0.008283 0.128997
-0.991295 0.010679 0.131225
-0.987894 0.009581 0.154837
-0.951923 -0.168838 0.255608
-0.727419 -0.657792 0.195378
-0.926015 -0.358382 0.118571
-0.727419 -0.657792 0.195378
-0.904555 0.350336 0.242991
-0.733192 -0.673476 0.094127
-0.733192 -0.673476 0.094127
-0.926015 -0.358382 0.118571
-0.727419 -0.657792 0.195378
-0.925455 0.360166 0.117534
-0.741252 0.654713 0.147977
-0.904555 0.350336 0.242991
-0.925455 0.360166 0.117534
-0.904555 0.350336 0.242991
-0.965754 0.000000 0.259460
-0.965754 0.000000 0.259460
-0.992157 0.000000 0.124997
-0.925455 0.360166 0.117534
</float_array>
          <technique_common>
            <accessor source="#polySurface35-Normal0-array" count="1116" stride="3">
              <param name="X" type="float"/>
              <param name="Y" type="float"/>
              <param name="Z" type="float"/>
            </accessor>
          </technique_common>
        </source>
        <source id="polySurface35-UV0">
          <float_array id="polySurface35-UV0-array" count="532">
0.892312 0.580424
0.991413 0.580361
0.886719 0.574906
0.613436 0.671559
0.613436 0.675718
0.991413 0.675718
0.991413 0.671559
0.890659 0.584623
0.871762 0.584623
0.715053 0.584623
0.734604 0.584623
0.728943 0.578873
0.719885 0.578972
0.712640 0.580377
0.718493 0.574674
0.613436 0.152654
0.730076 0.574736
0.613436 0.580361
0.613436 0.584623
0.991413 0.584623
0.735831 0.580522
0.870507 0.580437
0.875067 0.574922
0.991413 0.152654
0.876995 0.579151
0.884956 0.579146
0.613436 0.679626
0.613436 0.913728
0.991413 0.913728
0.991413 0.679626
0.613436 0.917792
0.991413 0.917792
0.892312 0.580424
0.991413 0.580361
0.886719 0.574906
0.613436 0.671559
0.613436 0.675718
0.991413 0.675718
0.991413 0.671559
0.890659 0.584623
0.871762 0.584623
0.715053 0.584623
0.734604 0.584623
0.728943 0.578873
0.719885 0.578972
0.712640 0.580377
0.718493 0.574674
0.613436 0.152654
0.730076 0.574736
0.613436 0.580361
0.613436 0.584623
0.991413 0.584623
0.735831 0.580522
0.870507 0.580437
0.875067 0.574922
0.991413 0.152654
0.876995 0.579151
0.884956 0.579146
0.613436 0.679626
0.613436 0.913728
0.991413 0.913728
0.991413 0.679626
0.613436 0.917792
0.991413 0.917792
0.991413 0.148462
0.613436 0.148462
0.991413 0.148462
0.613436 0.148462
0.892312 0.580424
0.991413 0.580361
0.886719 0.574906
0.613436 0.671559
0.613436 0.675718
0.991413 0.675718
0.991413 0.671559
0.890659 0.584623
0.871762 0.584623
0.715053 0.584623
0.734604 0.584623
0.728943 0.578873
0.719885 0.578972
0.712640 0.580377
0.718493 0.574674
0.613436 0.152654
0.730076 0.574736
0.613436 0.580361
0.613436 0.584623
0.991413 0.584623
0.735831 0.580522
0.870507 0.580437
0.875067 0.574922
0.991413 0.152654
0.876995 0.579151
0.884956 0.579146
0.613436 0.679626
0.613436 0.913728
0.991413 0.913728
0.991413 0.679626
0.613436 0.917792
0.991413 0.917792
0.892312 0.580424
0.991413 0.580361
0.886719 0.574906
0.613436 0.671559
0.613436 0.675718
0.991413 0.675718
0.991413 0.671559
0.890659 0.584623
0.871762 0.584623
0.715053 0.584623
0.734604 0.584623
0.728943 0.578873
0.719885 0.578972
0.712640 0.580377
0.718493 0.574674
0.613436 0.152654
0.730076 0.574736
0.613436 0.580361
0.613436 0.584623
0.991413 0.584623
0.735831 0.580522
0.870507 0.580437
0.875067 0.574922
0.991413 0.152654
0.876995 0.579151
0.884956 0.579146
0.613436 0.679626
0.613436 0.913728
0.991413 0.913728
0.991413 0.679626
0.613436 0.917792
0.991413 0.917792
0.991413 0.148462
0.613436 0.148462
0.991413 0.148462
0.613436 0.148462
0.892312 0.580424
0.991413 0.580361
0.886719 0.574906
0.613436 0.671559
0.613436 0.675718
0.991413 0.675718
0.991413 0.671559
0.890659 0.584623
0.871762 0.584623
0.715053 0.584623
0.734604 0.584623
0.728943 0.578873
0.719885 0.578972
0.712640 0.580377
0.718493 0.574674
0.613436 0.152654
0.730076 0.574736
0.613436 0.580361
0.613436 0.584623
0.991413 0.584623
0.735831 0.580522
0.870507 0.580437
0.875067 0.574922
0.991413 0.152654
0.876995 0.579151
0.884956 0.579146
0.613436 0.679626
0.613436 0.913728
0.991413 0.913728
0.991413 0.679626
0.613436 0.917792
0.991413 0.917792
0.892312 0.580424
0.991413 0.580361
0.886719 0.574906
0.613436 0.671559
0.613436 0.675718
0.991413 0.675718
0.991413 0.671559
0.890659 0.584623
0.871762 0.584623
0.715053 0.584623
0.734604 0.584623
0.728943 0.578873
0.719885 0.578972
0.712640 0.580377
0.718493 0.574674
0.613436 0.152654
0.730076 0.574736
0.613436 0.580361
0.613436 0.584623
0.991413 0.584623
0.735831 0.580522
0.870507 0.580437
0.875067 0.574922
0.991413 0.152654
0.876995 0.579151
0.884956 0.579146
0.613436 0.679626
0.613436 0.913728
0.991413 0.913728
0.991413 0.679626
0.613436 0.917792
0.991413 0.917792
0.991413 0.148462
0.613436 0.148462
0.991413 0.148462
0.613436 0.148462
0.802425 0.675718
0.802936 0.671559
0.803580 0.584623
0.802917 0.580480
0.802875 0.574830
0.802425 0.152654
0.802011 0.917792
0.802011 0.148462
0.802425 0.913728
0.802425 0.679626
0.802425 0.675718
0.801601 0.671559
0.802233 0.584623
0.802917 0.580480
0.802875 0.574830
0.802425 0.152654
0.803091 0.917792
0.803091 0.148462
0.802425 0.913728
0.802425 0.679626
0.802425 0.679626
0.802425 0.913728
0.802215 0.917792
0.802215 0.148462
0.802425 0.152654
0.802875 0.574830
0.802917 0.580480
0.803326 0.584623
0.802684 0.671559
0.802425 0.675718
0.802425 0.675718
0.801893 0.671559
0.802528 0.584623
0.802917 0.580480
0.802875 0.574830
0.802425 0.152654
0.802854 0.917792
0.802854 0.148462
0.802425 0.913728
0.802425 0.679626
0.802425 0.679626
0.802425 0.913728
0.802136 0.917792
0.802136 0.148462
0.802425 0.152654
0.802875 0.574830
0.802917 0.580480
0.803424 0.584623
0.802781 0.671559
0.802425 0.675718
0.802425 0.675718
0.802473 0.671559
0.803113 0.584623
0.802917 0.580480
0.802875 0.574830
0.802425 0.152654
0.802385 0.917792
0.802385 0.148462
0.802425 0.913728
0.802425 0.679626
0.802135 0.148236
0.802653 0.918361
</float_array>
          <technique_common>
            <accessor source="#polySurface35-UV0-array" count="266" stride="2">
              <param name="S" type="float"/>
              <param name="T" type="float"/>
            </accessor>
          </technique_common>
        </source>
        <vertices id="polySurface35-VERTEX">
          <input semantic="POSITION" source="#polySurface35-POSITION"/>
        </vertices>
        <triangles count="372" material="lambert7"><input semantic="VERTEX" offset="0" source="#polySurface35-VERTEX"/><input semantic="NORMAL" offset="1" source="#polySurface35-Normal0"/><input semantic="TEXCOORD" offset="2" set="0" source="#polySurface35-UV0"/><p> 23 0 0 13 1 19 12 2 1 12 3 1 29 4 2 23 5 0 0 6 4 197 7 254 198 8 255 198 9 255 3 10 3 0 11 4 24 12 8 198 13 255 11 14 6 11 15 6 22 16 7 24 17 8 14 18 11 15 19 12 16 20 9 16 21 9 17 22 10 14 23 11 15 24 12 19 25 14 18 26 13 18 27 13 16 28 9 15 29 12 20 30 16 202 31 259 2 32 15 2 33 15 19 34 14 20 35 16 19 36 14 15 37 12 14 38 11 14 39 11 20 40 16 19 41 14 5 42 18 16 43 9 18 44 13 18 45 13 4 46 17 5 47 18 4 48 17 18 49 13 19 50 14 19 51 14 2 52 15 4 53 17 22 54 7 11 55 6 13 56 19 13 57 19 23 58 0 22 59 7 21 60 20 20 61 16 14 62 11 14 63 11 17 64 10 21 65 20 199 66 256 200 67 257 21 68 20 21 69 20 17 70 10 199 71 256 201 72 258 26 73 22 202 74 259 202 75 259 20 76 16 201 77 258 21 78 20 200 79 257 201 80 258 201 81 258 20 82 16 21 83 20 27 84 24 26 85 22 25 86 21 25 87 21 24 88 8 27 89 24 28 90 25 27 91 24 24 92 8 24 93 8 22 94 7 28 95 25 23 96 0 29 97 2 28 98 25 28 99 25 22 100 7 23 101 0 28 102 25 29 103 2 26 104 22 26 105 22 27 106 24 28 107 25 10 108 23 202 109 259 26 110 22 26 111 22 29 112 2 10 113 23 12 114 1 10 115 23 29 116 2 3 117 3 198 118 255 17 119 10 17 120 10 16 121 9 3 122 3 198 123 255 24 124 8 199 125 256 199 126 256 17 127 10 198 128 255 5 129 18 3 130 3 16 131 9 6 132 27 204 133 262 205 134 263 205 135 263 1 136 26 6 137 27 6 138 27 7 139 30 204 140 262 7 141 65 2 142 15 203 143 261 203 144 261 204 145 264 7 146 65 47 147 32 37 148 51 36 149 33 36 150 33 53 151 34 47 152 32 32 153 37 35 154 38 195 155 252 195 156 252 196 157 253 32 158 37 48 159 40 195 160 252 35 161 38 35 162 38 46 163 39 48 164 40 38 165 43 39 166 44 40 167 41 40 168 41 41 169 42 38 170 43 39 171 44 43 172 46 42 173 45 42 174 45 40 175 41 39 176 44 44 177 48 191 178 248 10 179 47 10 180 47 43 181 46 44 182 48 43 183 46 39 184 44 38 185 43 38 186 43 44 187 48 43 188 46 13 189 50 40 190 41 42 191 45 42 192 45 12 193 49 13 194 50 12 195 49 42 196 45 43 197 46 43 198 46 10 199 47 12 200 49 46 201 39 35 202 38 37 203 51 37 204 51 47 205 32 46 206 39 45 207 52 44 208 48 38 209 43 38 210 43 41 211 42 45 212 52 49 213 53 193 214 250 194 215 251 194 216 251 48 217 40 49 218 53 191 219 248 44 220 48 192 221 249 192 222 249 50 223 54 191 224 248 50 225 54 53 226 34 34 227 55 34 228 55 191 229 248 50 230 54 49 231 53 50 232 54 192 233 249 192 234 249 193 235 250 49 236 53 51 237 56 50 238 54 49 239 53 49 240 53 48 241 40 51 242 56 52 243 57 51 244 56 48 245 40 48 246 40 46 247 39 52 248 57 47 249 32 53 250 34 52 251 57 52 252 57 46 253 39 47 254 32 52 255 57 53 256 34 50 257 54 50 258 54 51 259 56 52 260 57 36 261 33 34 262 55 53 263 34 11 264 35 195 265 252 41 266 42 41 267 42 40 268 41 11 269 35 194 270 251 41 271 42 195 272 252 195 273 252 48 274 40 194 275 251 13 276 50 11 277 35 40 278 41 189 279 245 55 280 60 33 281 61 33 282 61 188 283 244 189 284 245 54 285 63 55 286 60 189 287 245 189 288 245 190 289 246 54 290 63 202 291 259 203 292 261 2 293 15 54 294 66 190 295 247 191 296 248 191 297 248 34 298 55 54 299 66 71 300 68 61 301 87 60 302 69 60 303 69 77 304 70 71 305 68 32 306 72 179 307 234 180 308 235 180 309 235 35 310 71 32 311 72 72 312 76 180 313 235 59 314 74 59 315 74 70 316 75 72 317 76 62 318 79 63 319 80 64 320 77 64 321 77 65 322 78 62 323 79 63 324 80 67 325 82 66 326 81 66 327 81 64 328 77 63 329 80 68 330 84 184 331 239 34 332 83 34 333 83 67 334 82 68 335 84 67 336 82 63 337 80 62 338 79 62 339 79 68 340 84 67 341 82 37 342 86 64 343 77 66 344 81 66 345 81 36 346 85 37 347 86 36 348 85 66 349 81 67 350 82 67 351 82 34 352 83 36 353 85 70 354 75 59 355 74 61 356 87 61 357 87 71 358 68 70 359 75 69 360 88 68 361 84 62 362 79 62 363 79 65 364 78 69 365 88 181 366 236 182 367 237 69 368 88 69 369 88 65 370 78 181 371 236 183 372 238 74 373 90 184 374 239 184 375 239 68 376 84 183 377 238 69 378 88 182 379 237 183 380 238 183 381 238 68 382 84 69 383 88 75 384 92 74 385 90 73 386 89 73 387 89 72 388 76 75 389 92 76 390 93 75 391 92 72 392 76 72 393 76 70 394 75 76 395 93 71 396 68 77 397 70 76 398 93 76 399 93 70 400 75 71 401 68 76 402 93 77 403 70 74 404 90 74 405 90 75 406 92 76 407 93 58 408 91 184 409 239 74 410 90 74 411 90 77 412 70 58 413 91 60 414 69 58 415 91 77 416 70 35 417 71 180 418 235 65 419 78 65 420 78 64 421 77 35 422 71 180 423 235 72 424 76 181 425 236 181 426 236 65 427 78 180 428 235 37 429 86 35 430 71 64 431 77 55 432 95 186 433 242 187 434 243 187 435 243 33 436 94 55 437 95 54 438 98 185 439 240 186 440 242 186 441 242 55 442 95 54 443 98 95 444 100 85 445 119 84 446 101 84 447 101 101 448 102 95 449 100 80 450 105 83 451 106 177 452 232 177 453 232 178 454 233 80 455 105 96 456 108 177 457 232 83 458 106 83 459 106 94 460 107 96 461 108 86 462 111 87 463 112 88 464 109 88 465 109 89 466 110 86 467 111 87 468 112 91 469 114 90 470 113 90 471 113 88 472 109 87 473 112 92 474 116 173 475 228 58 476 115 58 477 115 91 478 114 92 479 116 91 480 114 87 481 112 86 482 111 86 483 111 92 484 116 91 485 114 61 486 118 88 487 109 90 488 113 90 489 113 60 490 117 61 491 118 60 492 117 90 493 113 91 494 114 91 495 114 58 496 115 60 497 117 94 498 107 83 499 106 85 500 119 85 501 119 95 502 100 94 503 107 93 504 120 92 505 116 86 506 111 86 507 111 89 508 110 93 509 120 97 510 121 175 511 230 176 512 231 176 513 231 96 514 108 97 515 121 173 516 228 92 517 116 174 518 229 174 519 229 98 520 122 173 521 228 98 522 122 101 523 102 82 524 123 82 525 123 173 526 228 98 527 122 97 528 121 98 529 122 174 530 229 174 531 229 175 532 230 97 533 121 99 534 124 98 535 122 97 536 121 97 537 121 96 538 108 99 539 124 100 540 125 99 541 124 96 542 108 96 543 108 94 544 107 100 545 125 95 546 100 101 547 102 100 548 125 100 549 125 94 550 107 95 551 100 100 552 125 101 553 102 98 554 122 98 555 122 99 556 124 100 557 125 84 558 101 82 559 123 101 560 102 59 561 103 177 562 232 89 563 110 89 564 110 88 565 109 59 566 103 176 567 231 89 568 110 177 569 232 177 570 232 96 571 108 176 572 231 61 573 118 59 574 103 88 575 109 171 576 225 103 577 128 81 578 129 81 579 129 170 580 224 171 581 225 102 582 131 103 583 128 171 584 225 171 585 225 172 586 226 102 587 131 54 588 133 34 589 83 184 590 239 184 591 239 185 592 241 54 593 133 102 594 134 172 595 227 173 596 228 173 597 228 82 598 123 102 599 134 119 600 136 109 601 155 108 602 137 108 603 137 125 604 138 119 605 136 80 606 140 161 607 214 162 608 215 162 609 215 83 610 139 80 611 140 120 612 144 162 613 215 107 614 142 107 615 142 118 616 143 120 617 144 110 618 147 111 619 148 112 620 145 112 621 145 113 622 146 110 623 147 111 624 148 115 625 150 114 626 149 114 627 149 112 628 145 111 629 148 116 630 152 166 631 219 82 632 151 82 633 151 115 634 150 116 635 152 115 636 150 111 637 148 110 638 147 110 639 147 116 640 152 115 641 150 85 642 154 112 643 145 114 644 149 114 645 149 84 646 153 85 647 154 84 648 153 114 649 149 115 650 150 115 651 150 82 652 151 84 653 153 118 654 143 107 655 142 109 656 155 109 657 155 119 658 136 118 659 143 117 660 156 116 661 152 110 662 147 110 663 147 113 664 146 117 665 156 163 666 216 164 667 217 117 668 156 117 669 156 113 670 146 163 671 216 165 672 218 122 673 158 166 674 219 166 675 219 116 676 152 165 677 218 117 678 156 164 679 217 165 680 218 165 681 218 116 682 152 117 683 156 123 684 160 122 685 158 121 686 157 121 687 157 120 688 144 123 689 160 124 690 161 123 691 160 120 692 144 120 693 144 118 694 143 124 695 161 119 696 136 125 697 138 124 698 161 124 699 161 118 700 143 119 701 136 124 702 161 125 703 138 122 704 158 122 705 158 123 706 160 124 707 161 106 708 159 166 709 219 122 710 158 122 711 158 125 712 138 106 713 159 108 714 137 106 715 159 125 716 138 83 717 139 162 718 215 113 719 146 113 720 146 112 721 145 83 722 139 162 723 215 120 724 144 163 725 216 163 726 216 113 727 146 162 728 215 85 729 154 83 730 139 112 731 145 103 732 163 168 733 222 169 734 223 169 735 223 81 736 162 103 737 163 102 738 166 167 739 220 168 740 222 168 741 222 103 742 163 102 743 166 143 744 168 133 745 187 132 746 169 132 747 169 149 748 170 143 749 168 152 750 204 153 751 205 107 752 171 107 753 171 104 754 172 152 755 204 144 756 176 153 757 205 131 758 174 131 759 174 142 760 175 144 761 176 134 762 179 135 763 180 136 764 177 136 765 177 137 766 178 134 767 179 135 768 180 139 769 182 138 770 181 138 771 181 136 772 177 135 773 180 140 774 184 157 775 209 106 776 183 106 777 183 139 778 182 140 779 184 139 780 182 135 781 180 134 782 179 134 783 179 140 784 184 139 785 182 109 786 186 136 787 177 138 788 181 138 789 181 108 790 185 109 791 186 108 792 185 138 793 181 139 794 182 139 795 182 106 796 183 108 797 185 142 798 175 131 799 174 133 800 187 133 801 187 143 802 168 142 803 175 141 804 188 140 805 184 134 806 179 134 807 179 137 808 178 141 809 188 154 810 206 155 811 207 141 812 188 141 813 188 137 814 178 154 815 206 156 816 208 146 817 190 157 818 209 157 819 209 140 820 184 156 821 208 141 822 188 155 823 207 156 824 208 156 825 208 140 826 184 141 827 188 147 828 192 146 829 190 145 830 189 145 831 189 144 832 176 147 833 192 148 834 193 147 835 192 144 836 176 144 837 176 142 838 175 148 839 193 143 840 168 149 841 170 148 842 193 148 843 193 142 844 175 143 845 168 148 846 193 149 847 170 146 848 190 146 849 190 147 850 192 148 851 193 130 852 191 157 853 209 146 854 190 146 855 190 149 856 170 130 857 191 132 858 169 130 859 191 149 860 170 107 861 171 153 862 205 137 863 178 137 864 178 136 865 177 107 866 171 153 867 205 144 868 176 154 869 206 154 870 206 137 871 178 153 872 205 109 873 186 107 874 171 136 875 177 127 876 195 159 877 212 160 878 213 160 879 213 105 880 194 127 881 195 158 882 210 159 883 212 127 884 195 127 885 195 126 886 198 158 887 210 102 888 201 82 889 151 166 890 219 166 891 219 167 892 221 102 893 201 158 894 211 126 895 203 106 896 183 106 897 183 157 898 209 158 899 211 128 900 173 131 901 174 153 902 205 153 903 205 152 904 204 128 905 173 154 906 206 144 907 176 145 908 189 145 909 189 155 910 207 154 911 206 145 912 189 146 913 190 156 914 208 156 915 208 155 916 207 145 917 189 150 918 202 158 919 211 157 920 209 157 921 209 130 922 191 150 923 202 150 924 199 151 925 196 159 926 212 159 927 212 158 928 210 150 929 199 159 930 212 151 931 196 129 932 197 129 933 197 160 934 213 159 935 212 161 936 214 104 937 141 107 938 142 107 939 142 162 940 215 161 941 214 163 942 216 120 943 144 121 944 157 121 945 157 164 946 217 163 947 216 121 948 157 122 949 158 165 950 218 165 951 218 164 952 217 121 953 157 167 954 221 166 955 219 106 956 159 106 957 159 126 958 200 167 959 221 167 960 220 126 961 167 127 962 164 127 963 164 168 964 222 167 965 220 168 966 222 127 967 164 105 968 165 105 969 165 169 970 223 168 971 222 79 972 127 171 973 225 170 974 224 170 975 224 57 976 126 79 977 127 172 978 226 171 979 225 79 980 127 79 981 127 78 982 130 172 983 226 172 984 227 78 985 135 58 986 115 58 987 115 173 988 228 172 989 227 93 990 120 175 991 230 174 992 229 174 993 229 92 994 116 93 995 120 176 996 231 175 997 230 93 998 120 93 999 120 89 1000 110 176 1001 231 178 1002 233 177 1003 232 59 1004 103 59 1005 103 56 1006 104 178 1007 233 179 1008 234 56 1009 73 59 1010 74 59 1011 74 180 1012 235 179 1013 234 181 1014 236 72 1015 76 73 1016 89 73 1017 89 182 1018 237 181 1019 236 73 1020 89 74 1021 90 183 1022 238 183 1023 238 182 1024 237 73 1025 89 185 1026 241 184 1027 239 58 1028 91 58 1029 91 78 1030 132 185 1031 241 185 1032 240 78 1033 99 79 1034 96 79 1035 96 186 1036 242 185 1037 240 186 1038 242 79 1039 96 57 1040 97 57 1041 97 187 1042 243 186 1043 242 31 1044 59 189 1045 245 188 1046 244 188 1047 244 9 1048 58 31 1049 59 190 1050 246 189 1051 245 31 1052 59 31 1053 59 30 1054 62 190 1055 246 190 1056 247 30 1057 67 10 1058 47 10 1059 47 191 1060 248 190 1061 247 45 1062 52 193 1063 250 192 1064 249 192 1065 249 44 1066 48 45 1067 52 194 1068 251 193 1069 250 45 1070 52 45 1071 52 41 1072 42 194 1073 251 196 1074 253 195 1075 252 11 1076 35 11 1077 35 8 1078 36 196 1079 253 197 1080 254 8 1081 5 11 1082 6 11 1083 6 198 1084 255 197 1085 254 199 1086 256 24 1087 8 25 1088 21 25 1089 21 200 1090 257 199 1091 256 25 1092 21 26 1093 22 201 1094 258 201 1095 258 200 1096 257 25 1097 21 10 1098 23 30 1099 64 202 1100 259 30 1101 31 31 1102 28 203 1103 260 203 1104 260 202 1105 265 30 1106 31 204 1107 262 203 1108 260 31 1109 28 204 1110 262 31 1111 28 9 1112 29 9 1113 29 205 1114 263 204 1115 262</p></triangles>
      </mesh>
    </geometry>
  </library_geometries>
  <library_visual_scenes>
    <visual_scene id="datasite_concave_large01_brown_overgrown" name="datasite_concave_large01_brown_overgrown">
      <node name="polySurface35" id="polySurface35" sid="polySurface35"><matrix sid="matrix">1.000000 0.000000 0.000000 0.000000 0.000000 1.000000 -0.000000 0.000000 0.000000 0.000000 1.000000 0.000000 0.000000 0.000000 0.000000 1.000000</matrix><instance_geometry url="#polySurface35-lib"><bind_material><technique_common><instance_material symbol="lambert7" target="#lambert7"/></technique_common></bind_material></instance_geometry><extra><technique profile="FCOLLADA"><visibility>1.000000</visibility></technique></extra></node>
      <extra><technique profile="MAX3D"><frame_rate>30.000000</frame_rate></technique><technique profile="FCOLLADA"><start_time>0.000000</start_time><end_time>3.333333</end_time></technique></extra>
    </visual_scene>
  </library_visual_scenes>
  <scene>
    <instance_visual_scene url="#datasite_concave_large01_brown_overgrown"></instance_visual_scene>
  </scene>
</COLLADA>
