<?xml version="1.0" encoding="utf-8" ?>
<COLLADA xmlns="http://www.collada.org/2005/11/COLLADASchema" version="1.4.1">
    <asset>
        <contributor>
            <author>illerulf</author>
            <authoring_tool>modo 601 [Build 48460], Microsoft Windows 7 Service Pack 1 (6.1.7601 Service Pack 1)</authoring_tool>
            <comments>Plug-in: [Build 48460]; Use Absolute Path: No; Merge Reference Items: No; Save Hidden Items: No; Save Cameras: No; Save Lights: No; Save Locators: Yes; Save Triangles as Triangles: No; Bake Matrices: Yes; Save Vertex Normals: Yes; Save UV Texture Coordinates: Yes; Save Vertex Colors: Yes; Save Vertex Weights: Yes; Save Animation: No; Sample Animation: No; Sample Animation Start: 0; Sample Animation End: 235; Save modo Profile: No; Save Maya Profile: No; Save 3ds Max Profile: No; Formatted Arrays: No;</comments>
            <source_data>file:///C:/Users/Aaron/AppData/Local/Temp/lab_walls.lxo</source_data>
        </contributor>
        <created>2013-11-06T10:18:27Z</created>
        <modified>2013-11-06T10:18:27Z</modified>
        <unit name="game" meter="1" />
        <up_axis>Y_UP</up_axis>
    </asset>
    <library_images>
        <image id="Image0001" name="Image0001">
            <init_from>file:///D:/Work/Dropbox/Frictional%20Games%20-%20Team/Aaron/models/static_objects/station/lab_set.psd</init_from>
        </image>
        <image id="Image0002" name="Image0002">
            <init_from>file:///D:/Work/Dropbox/Frictional%20Games%20-%20Team/Aaron/models/static_objects/station/lab_set_nrm.tga</init_from>
        </image>
    </library_images>
    <library_materials>
        <material id="Material-Default" name="Default">
            <instance_effect url="#Effect-Default" />
        </material>
        <material id="Material-lab_set" name="lab_set">
            <instance_effect url="#Effect-lab_set" />
        </material>
    </library_materials>
    <library_effects>
        <effect id="Effect-Default" name="Default">
            <profile_COMMON>
                <technique sid="common">
                    <phong>
                        <diffuse>
                            <color sid="diffuse_effect_rgb">0.8 0.8 0.8 1</color>
                        </diffuse>
                        <specular>
                            <color sid="specular_effect_rgb">0.2 0.2 0.2 1</color>
                        </specular>
                        <shininess>
                            <float sid="specular_effect_rgb">0.4</float>
                        </shininess>
                    </phong>
                </technique>
            </profile_COMMON>
        </effect>
        <effect id="Effect-lab_set" name="lab_set">
            <profile_COMMON>
                <newparam sid="Image0001-surface">
                    <surface type="2D">
                        <init_from>Image0001</init_from>
                        <format>A8R8G8B8</format>
                    </surface>
                </newparam>
                <newparam sid="Image0001-sampler">
                    <sampler2D>
                        <source>Image0001-surface</source>
                        <minfilter>LINEAR_MIPMAP_LINEAR</minfilter>
                        <magfilter>LINEAR</magfilter>
                    </sampler2D>
                </newparam>
                <technique sid="common">
                    <phong>
                        <diffuse>
                            <texture texture="Image0001-sampler" texcoord="uvSet1" />
                        </diffuse>
                        <specular>
                            <color sid="specular_effect_rgb">0.635 0.635 0.635 1</color>
                        </specular>
                        <shininess>
                            <float sid="specular_effect_rgb">64</float>
                        </shininess>
                        <reflective>
                            <color sid="reflective_effect_rgb">0 0 0 1</color>
                        </reflective>
                        <reflectivity>
                            <float sid="reflectivity_effect_float">0.5</float>
                        </reflectivity>
                        <transparent opaque="RGB_ZERO">
                            <color sid="transparent_effect_rgb">0 0 0 1</color>
                        </transparent>
                        <transparency>
                            <float sid="transparency_effect_float">1</float>
                        </transparency>
                    </phong>
                </technique>
            </profile_COMMON>
        </effect>
    </library_effects>
    <library_geometries>
        <geometry id="Geometry-mesh010" name="lab_concave_skinny">
            <mesh>
                <source id="Geometry-mesh010-positions" name="positions">
                    <float_array id="Geometry-mesh010-positions-array" count="462">0.000786572 3.84053 -0.212115 -0.0189504 3.84762 -0.212115 -0.0405577 3.86055 -0.212115 -0.0649033 3.87665 -0.212115 -0.08977 3.90332 -0.212115 -0.102561 3.92874 -0.212115 -0.102561 4.00204 -0.212115 0.00306084 3.86873 -0.249193 0.00306084 3.86873 -0.231712 -0.00962894 3.87364 -0.231712 -0.00962895 3.87364 -0.249193 -0.0277687 3.88436 -0.231712 -0.0277687 3.88436 -0.249193 -0.0480879 3.89843 -0.231712 -0.0480879 3.89843 -0.249193 -0.06661 3.9183 -0.231712 -0.0666099 3.9183 -0.249193 -0.0758596 3.93665 -0.231712 -0.0758597 3.93665 -0.249193 -0.0761952 3.99445 -0.231711 -0.0761952 3.99445 -0.249193 0.000786572 3.84925 -0.509957 -0.0175636 3.85584 -0.509957 -0.0376526 3.86786 -0.509957 -0.0602878 3.88283 -0.509957 -0.0834073 3.90763 -0.509957 -0.0952984 3.93125 -0.509957 -0.0952984 4.00204 -0.509957 0.00306086 3.86873 -0.489128 -0.00962889 3.87364 -0.489128 -0.0277687 3.88436 -0.489128 -0.0480879 3.89843 -0.489128 -0.0666099 3.9183 -0.489129 -0.0758596 3.93665 -0.489129 -0.0761952 3.99445 -0.489128 0.000786572 3.70599 -0.269344 -0.0175636 3.71258 -0.269344 -0.0376526 3.83634 -0.269344 -0.0602878 3.88283 -0.269344 -0.0834073 3.90763 -0.269344 -0.0952984 3.93125 -0.269344 -0.0952984 4.00204 -0.269344 0.000786572 3.70599 -0.447995 -0.0175636 3.71258 -0.447995 -0.0376526 3.83634 -0.447995 -0.0602878 3.88283 -0.447995 -0.0834073 3.90763 -0.447995 -0.0952984 3.93125 -0.447995 -0.0952984 4.00204 -0.447995 0.00306098 3.86873 -0.468146 -0.00962888 3.87364 -0.468146 -0.0277687 3.88436 -0.468146 -0.0480879 3.89843 -0.468146 -0.0666099 3.9183 -0.468146 -0.0758596 3.93665 -0.468146 -0.0761952 3.99445 -0.468146 -1.11022e-016 0.455326 -1 -0.0634527 0.433376 -1 -0.0634527 0 -1 0 0.455326 -0.5 -0.0634527 0.433376 -0.5 -0.0634527 0 -0.5 -0.212115 3.84053 0.000786572 -0.212115 3.84762 -0.0189504 -0.212115 3.86055 -0.0405577 -0.212115 3.87665 -0.0649033 -0.212115 3.90332 -0.08977 -0.212115 3.92874 -0.102561 -0.212115 4.00204 -0.102561 -0.231712 3.86873 0.00306084 -0.231712 3.87364 -0.00962894 -0.231712 3.88436 -0.0277687 -0.231712 3.89843 -0.0480879 -0.231712 3.9183 -0.0666099 -0.231712 3.93665 -0.0758596 -0.231711 3.99445 -0.0761952 -0.509957 3.84925 0.000786572 -0.509957 3.85584 -0.0175636 -0.509957 3.86786 -0.0376526 -0.509957 3.88283 -0.0602878 -0.509957 3.90763 -0.0834073 -0.509957 3.93125 -0.0952984 -0.509957 4.00204 -0.0952984 -0.468146 3.86873 0.00306086 -0.489129 3.86873 0.00306098 -0.489129 3.87364 -0.00962888 -0.468146 3.87364 -0.00962889 -0.489129 3.88436 -0.0277687 -0.468146 3.88436 -0.0277687 -0.489129 3.89843 -0.0480879 -0.468146 3.89843 -0.0480879 -0.489129 3.9183 -0.0666099 -0.468146 3.9183 -0.0666099 -0.489129 3.93665 -0.0758596 -0.468146 3.93665 -0.0758596 -0.489129 3.99445 -0.0761952 -0.468146 3.99445 -0.0761952 -0.447995 3.70599 0.000786572 -0.447995 3.71258 -0.0175636 -0.447995 3.83634 -0.0376526 -0.447995 3.88283 -0.0602878 -0.447995 3.90763 -0.0834073 -0.447995 3.93125 -0.0952984 -0.447995 4.00204 -0.0952984 -0.266135 3.70599 0.000786572 -0.266135 3.71258 -0.0175636 -0.266135 3.83634 -0.0376526 -0.266135 3.88283 -0.0602878 -0.266135 3.90763 -0.0834073 -0.266135 3.93125 -0.0952984 -0.266135 4.00204 -0.0952984 -0.249193 3.86873 0.00306084 -0.249193 3.87364 -0.00962894 -0.249193 3.88436 -0.0277687 -0.249193 3.89843 -0.0480879 -0.249193 3.9183 -0.0666099 -0.249193 3.93665 -0.0758596 -0.249193 3.99445 -0.0761952 -1 0.455326 0 -1 0.433376 -0.0634527 -1 0 -0.0634527 -0.5 0.455326 0 -0.5 0.433376 -0.0634527 -0.5 0 -0.0634527 -2.22045e-016 0.455326 0 -0.0634527 0.433376 -0.0634527 -0.0189504 3.84762 -0.0189504 -0.0405577 3.86055 -0.0405577 -0.0649033 3.87665 -0.0649033 -0.08977 3.90332 -0.08977 -0.102561 3.92874 -0.102561 -0.102561 4.00204 -0.102561 -0.0634527 0 -0.0634527 0 3.84082 0 -2.22045e-016 0.455326 0 -2.22045e-016 3.87996 0 -1.11022e-016 3.87996 -1 -1.11022e-016 0.455326 -1 -1 3.87996 0 -1 0.455326 0 -1 3.86786 -0.0376526 -1 3.88283 -0.0602878 -1 3.85584 -0.0175636 -1 3.84925 0.000786572 -1 3.93125 -0.0952984 -1 4.00204 -0.0952984 -1 3.90763 -0.0834073 0.000786572 3.84925 -1 -0.0175636 3.85584 -1 -0.0952984 3.93125 -1 -0.0952984 4.00204 -1 -0.0834073 3.90763 -1 -0.0602878 3.88283 -1 -0.0376526 3.86786 -1</float_array>
                    <technique_common>
                        <accessor count="154" source="#Geometry-mesh010-positions-array" stride="3">
                            <param name="X" type="float" />
                            <param name="Y" type="float" />
                            <param name="Z" type="float" />
                        </accessor>
                    </technique_common>
                </source>
                <source id="Geometry-mesh010-normals" name="normals">
                    <float_array id="Geometry-mesh010-normals-array" count="690">-0.361053 -0.932545 0 -0.361053 -0.932545 1.05792e-007 -0.41149 -0.911414 1.70401e-007 -0.460842 -0.887482 1.70401e-007 -0.529188 -0.848505 9.94202e-008 -0.549415 -0.835549 0 -0.62658 -0.779357 0 -0.680914 -0.732363 -4.17814e-007 -0.792367 -0.610045 -9.31406e-007 -0.846678 -0.532105 -6.75407e-007 -0.950971 -0.309279 3.11381e-008 -0.987501 -0.157611 5.5078e-007 -0.999983 -0.0058043 4.26189e-007 -0.999983 -0.00580443 0 -0.197053 -0.548766 -0.81242 -0.23588 -0.530965 -0.813902 -0.202967 -0.544137 -0.814076 -0.269774 -0.51648 -0.812693 -0.30813 -0.499815 -0.809469 -0.318076 -0.491438 -0.810751 -0.37869 -0.442602 -0.812833 -0.380095 -0.439088 -0.814082 -0.490406 -0.308361 -0.815117 -0.459839 -0.354364 -0.814232 -0.560788 -0.131958 -0.817376 -0.562062 -0.132885 -0.81635 -0.594423 -0.00173149 -0.804151 -0.597166 -0.00346296 -0.80211 -0.249062 -0.693612 0.675921 -0.256429 -0.687481 0.679422 -0.296948 -0.669183 0.681187 -0.338463 -0.648559 0.681773 -0.392351 -0.617948 0.681323 -0.396341 -0.618795 0.678238 -0.490498 -0.534905 0.68796 -0.452131 -0.570739 0.685444 -0.612155 -0.384868 0.690755 -0.573846 -0.442177 0.689333 -0.714 -0.111449 0.691218 -0.683524 -0.22152 0.695502 -0.736975 0 0.67592 -0.733759 -0.00212091 0.679406 -0.337942 -0.941167 0 -0.937301 -0.348521 0 -0.987081 -0.160224 0 -0.966905 -0.255138 0 -0.851551 -0.524271 0 -0.795094 -0.606487 0 -0.792445 -0.609943 0 -0.846886 -0.531774 0 -0.951687 -0.307068 0 -0.988143 -0.153534 0 -1 0 0 -0.361053 -0.932545 2.08332e-006 -0.361052 -0.932546 1.1298e-006 -0.411489 -0.911415 8.38493e-007 -0.46084 -0.887483 1.41968e-007 -0.529187 -0.848505 8.28312e-008 -0.549415 -0.83555 0 -0.680915 -0.732363 2.61073e-007 -0.792367 -0.610045 5.81995e-007 -0.846678 -0.532105 5.81994e-007 -0.950971 -0.309279 3.24701e-007 -0.987501 -0.157612 0 -0.999983 -0.00580443 0 -0.0438631 -0.122159 0.991541 -0.0454939 -0.121937 0.991495 -0.204774 -0.111662 0.972419 -0.259281 -0.187395 0.947447 -0.410995 -0.227151 0.882885 -0.378975 -0.400472 0.834266 -0.49498 -0.45746 0.738732 -0.467001 -0.539633 0.700504 -0.602394 -0.378742 0.70262 -0.564731 -0.435167 0.70122 -0.702615 -0.10964 0.703073 -0.672491 -0.217923 0.707295 -0.72572 0 0.687991 -0.72244 -0.0020885 0.691431 -0.0438631 -0.122159 -0.991541 -0.204774 -0.111661 -0.972419 -0.0454937 -0.121937 -0.991495 -0.259284 -0.187393 -0.947447 -0.410995 -0.227148 -0.882885 -0.378974 -0.400471 -0.834267 -0.494978 -0.457461 -0.738733 -0.466998 -0.539635 -0.700504 -0.602394 -0.378742 -0.702621 -0.564731 -0.435166 -0.70122 -0.702613 -0.109639 -0.703075 -0.672491 -0.217922 -0.707295 -0.725716 0 -0.687995 -0.722438 -0.00208716 -0.691433 -0.326915 0.945054 -2.41966e-017 -0.326915 0.945054 3.62949e-017 -0.326915 0.945054 2.41966e-017 -0.326915 0.945054 0 -0.81242 -0.548766 -0.197053 -0.814076 -0.544137 -0.202967 -0.813902 -0.530965 -0.23588 -0.812693 -0.516481 -0.269773 -0.809468 -0.499817 -0.30813 -0.81075 -0.491439 -0.318077 -0.812833 -0.442601 -0.378691 -0.814082 -0.439086 -0.380098 -0.815118 -0.308361 -0.490403 -0.814233 -0.354364 -0.459837 -0.817376 -0.131958 -0.560788 -0.816351 -0.132886 -0.562061 -0.804151 -0.00173148 -0.594423 -0.80211 -0.00346294 -0.597166 -2.08332e-006 -0.932545 -0.361053 -1.1298e-006 -0.932546 -0.361052 -8.38493e-007 -0.911415 -0.411489 -1.41968e-007 -0.887483 -0.46084 -8.28312e-008 -0.848505 -0.529187 0 -0.83555 -0.549415 0 -0.779357 -0.62658 -2.61072e-007 -0.732363 -0.680915 -5.81991e-007 -0.610045 -0.792367 -5.81991e-007 -0.532105 -0.846678 -3.24699e-007 -0.309279 -0.950971 0 -0.157612 -0.987501 0 -0.00580443 -0.999983 0 -0.00580443 -0.999983 0.675929 -0.693606 -0.24906 0.681193 -0.669178 -0.296945 0.679428 -0.687476 -0.256426 0.681779 -0.648554 -0.33846 0.681329 -0.617943 -0.392347 0.678245 -0.61879 -0.396337 0.687965 -0.534902 -0.490494 0.685451 -0.570735 -0.452127 0.69076 -0.384866 -0.612151 0.689338 -0.442175 -0.573842 0.691223 -0.111447 -0.713996 0.695507 -0.221518 -0.683521 0.675927 0 -0.736969 0.679411 -0.00212019 -0.733755 0 -0.941167 -0.337942 0 -0.348521 -0.937301 0 -0.160224 -0.987081 0 -0.255138 -0.966905 0 -0.524271 -0.851551 0 -0.606487 -0.795094 0 -0.609943 -0.792445 0 -0.531774 -0.846886 0 -0.307068 -0.951687 0 -0.153534 -0.988143 0 0 -1 -0.991541 -0.12216 -0.0438636 -0.991494 -0.121939 -0.0454945 -0.972419 -0.111663 -0.204776 -0.947446 -0.187395 -0.259286 -0.882883 -0.22715 -0.410999 -0.834264 -0.400474 -0.378977 -0.73873 -0.457462 -0.494981 -0.7005 -0.539637 -0.467003 -0.70262 -0.378742 -0.602394 -0.701218 -0.435166 -0.564734 -0.703073 -0.10964 -0.702615 -0.707295 -0.217923 -0.67249 -0.687991 0 -0.72572 -0.691431 -0.00208859 -0.722439 0.993998 -0.102962 -0.0369703 0.979663 -0.0944029 -0.177056 0.993965 -0.102777 -0.0383454 0.961399 -0.159911 -0.223919 0.912519 -0.196945 -0.3585 0.872421 -0.355308 -0.335616 0.792627 -0.414706 -0.446946 0.759479 -0.491888 -0.425721 0.761384 -0.345104 -0.548814 0.760122 -0.396646 -0.514671 0.76178 -0.0997341 -0.640113 0.765584 -0.198231 -0.612034 0.748154 0 -0.663525 0.751276 -0.00190671 -0.659986 0 -0.932545 -0.361053 0 -0.911414 -0.41149 0 -0.887482 -0.460842 0 -0.848505 -0.529188 0 -0.835549 -0.549415 0 -0.779357 -0.62658 0 -0.732363 -0.680915 0 -0.610045 -0.792367 0 -0.532106 -0.846678 0 -0.30928 -0.950971 0 -0.157612 -0.987501 0 0.945054 -0.326915 -0.111656 0.968331 -0.223311 -0.223311 0.968331 -0.111656 -6.53395e-008 -0.73722 -0.675653 -6.53395e-008 -0.788251 -0.615354 -2.79247e-008 -0.842272 -0.539052 0 -0.850264 -0.526357 -0.675653 -0.73722 0 -0.539052 -0.842273 0 -0.615354 -0.788251 0 -0.526357 -0.850264 0 -0.456936 -0.8895 0 -0.246728 -0.958889 -0.140204 0 -0.153541 -0.988142 0 -0.307082 -0.951683 0 -0.8895 -0.456936 -0.140204 -0.958889 -0.246728 0 -0.531784 -0.84688 -3.73515e-008 -0.609945 -0.792444 -0.337954 -0.941162 1.86119e-007 -0.207471 -0.955987 -0.207471 -0.174018 -0.969245 -0.174018 1.86119e-007 -0.941162 -0.337954 -0.84688 -0.531784 0 -0.792444 -0.609945 0 -0.988142 -0.153541 0 -0.951683 -0.307082 0 0 -0.903888 -0.427768 0 -0.846291 -0.532721 0 -0.531774 -0.846886 0 -0.737221 -0.675652 0 -0.788248 -0.615358 -0.846886 -0.531774 0 -0.792445 -0.609943 0 -0.675652 -0.737221 0 -0.615358 -0.788248 0 -0.427768 -0.903888 0 -0.532721 -0.846291 0 -1 0 -1.11022e-016 0 -0.941163 -0.337952 -0.337952 -0.941163 0</float_array>
                    <technique_common>
                        <accessor count="230" source="#Geometry-mesh010-normals-array" stride="3">
                            <param name="X" type="float" />
                            <param name="Y" type="float" />
                            <param name="Z" type="float" />
                        </accessor>
                    </technique_common>
                </source>
                <source id="Geometry-mesh010-uvSet1" name="uvSet1">
                    <float_array id="Geometry-mesh010-uvSet1-array" count="334">0.497687 0.903201 0.500205 0.903908 0.497687 0.899118 0.500205 0.899764 0.497687 0.892668 0.500205 0.893182 0.497687 0.884992 0.500205 0.885315 0.497687 0.87647 0.500205 0.876454 0.497687 0.870124 0.500205 0.869667 0.497687 0.852263 0.500205 0.851638 0.505062 0.90917 0.505062 0.902996 0.505062 0.895558 0.505062 0.887106 0.505062 0.876621 0.505062 0.868481 0.505062 0.847094 0.58329 0.907761 0.578769 0.905651 0.58329 0.901748 0.578821 0.901054 0.58329 0.894623 0.578841 0.894044 0.58329 0.886372 0.578857 0.885583 0.58329 0.876164 0.578882 0.876065 0.58329 0.868185 0.578878 0.868813 0.58329 0.846668 0.578703 0.849521 0.523836 0.915533 0.52288 0.919637 0.502083 0.915433 0.503028 0.919568 0.501842 0.949411 0.523986 0.949533 0.523832 0.962881 0.501964 0.962771 0.523527 0.971194 0.502251 0.971105 0.523451 0.977554 0.502311 0.977466 0.523688 0.99481 0.502044 0.994714 0.575479 0.905513 0.575515 0.901019 0.575555 0.893951 0.575582 0.885472 0.575626 0.876078 0.575571 0.869099 0.575379 0.849521 0.530722 0.953371 0.529365 0.955597 0.528131 0.959737 0.527128 0.965218 0.526827 0.972035 0.526765 0.977522 0.527102 0.992485 0.495095 0.953181 0.496444 0.95542 0.49767 0.959577 0.498664 0.965077 0.498949 0.971904 0.499 0.977402 0.498633 0.99237 0.439039 0.113028 0.379629 0.113028 0.439039 0.0983608 0.379629 0.0983608 0.439687 0.000184066 0.439687 0.0983608 0.379621 0.000184066 0.379621 0.0983608 0.565905 0.90917 0.570762 0.903909 0.565905 0.902996 0.570762 0.899764 0.565905 0.895558 0.570762 0.893182 0.565904 0.887106 0.570762 0.885315 0.565905 0.87662 0.570762 0.876454 0.565905 0.868481 0.570762 0.869667 0.565905 0.847094 0.570762 0.851638 0.735922 0.90551 0.732624 0.905647 0.735922 0.901023 0.732624 0.901052 0.735922 0.89394 0.732624 0.894057 0.735922 0.885493 0.732624 0.88555 0.735922 0.876084 0.732625 0.876078 0.735922 0.869089 0.732625 0.868808 0.735922 0.849521 0.732624 0.849521 0.728126 0.907759 0.728126 0.901745 0.728126 0.894616 0.728126 0.886365 0.728126 0.87616 0.728126 0.868182 0.728126 0.846668 0.52288 0.919637 0.502083 0.915433 0.523986 0.949533 0.523832 0.962881 0.523527 0.971194 0.502251 0.971105 0.523451 0.977554 0.502311 0.977466 0.502044 0.994714 0.526827 0.972035 0.526765 0.977522 0.527102 0.992485 0.495095 0.953181 0.498949 0.971904 0.499 0.977402 0.57328 0.903201 0.57328 0.899118 0.57328 0.892668 0.57328 0.884992 0.57328 0.87647 0.57328 0.870124 0.57328 0.852263 0.499097 0.113028 0.439687 0.113028 0.499097 0.0983608 0.499097 0.000184066 0.379621 0.113028 0.544792 0.887106 0.5413 0.895558 0.526175 0.887106 0.529667 0.895558 0.532766 0.902996 0.550193 0.847094 0.550193 0.868481 0.538201 0.902996 0.548358 0.87662 0.535484 0.908924 0.535483 0.908924 0.522609 0.876621 0.520774 0.847094 0.520774 0.868481 0.655708 0.901747 0.655708 0.894619 0.655708 0.876162 0.655708 0.886369 0.655708 0.868184 0.399078 0.112587 0.261002 0.112808 0.399078 0.836721 0.261002 0.836997 0.655708 0.846668 0.399078 0.837273 0.399078 0.113028 0.655708 0.90776</float_array>
                    <technique_common>
                        <accessor count="167" source="#Geometry-mesh010-uvSet1-array" stride="2">
                            <param name="S" type="float" />
                            <param name="T" type="float" />
                        </accessor>
                    </technique_common>
                </source>
                <vertices id="Geometry-mesh010-vertices">
                    <input semantic="POSITION" source="#Geometry-mesh010-positions" />
                </vertices>
                <polylist count="236" material="Material-lab_set">
                    <input semantic="VERTEX" source="#Geometry-mesh010-vertices" offset="0" />
                    <input semantic="NORMAL" source="#Geometry-mesh010-normals" offset="1" />
                    <input semantic="TEXCOORD" source="#Geometry-mesh010-uvSet1" offset="2" set="0" />
                    <vcount>3 3 3 3 3 3 3 3 3 3 3 3 3 3 3 3 3 3 3 3 3 3 3 3 3 3 3 3 3 3 3 3 3 3 3 3 3 3 3 3 3 3 3 3 3 3 3 3 3 3 3 3 3 3 3 3 3 3 3 3 3 3 3 3 3 3 3 3 3 3 3 3 3 3 3 3 3 3 3 3 3 3 3 3 3 3 3 3 3 3 3 3 3 3 3 3 3 3 3 3 3 3 3 3 3 3 3 3 3 3 3 3 3 3 3 3 3 3 3 3 3 3 3 3 3 3 3 3 3 3 3 3 3 3 3 3 3 3 3 3 3 3 3 3 3 3 3 3 3 3 3 3 3 3 3 3 3 3 3 3 3 3 3 3 3 3 3 3 3 3 3 3 3 3 3 3 3 3 3 3 3 3 3 3 3 3 3 3 3 3 3 3 3 3 3 3 3 3 3 3 3 3 3 3 3 3 3 3 3 3 3 3 3 3 3 3 3 3 3 3 3 3 3 3 3 3 3 3 3 3 3 3 3 3 3 3</vcount>
                    <p>7 0 0 8 1 1 10 2 2 10 2 2 8 1 1 9 3 3 10 2 2 9 3 3 12 4 4 12 4 4 9 3 3 11 5 5 12 4 4 11 5 5 14 6 6 14 6 6 11 5 5 13 7 7 14 6 6 13 7 7 16 8 8 16 8 8 13 7 7 15 9 9 16 8 8 15 9 9 18 10 10 18 10 10 15 9 9 17 11 11 18 10 10 17 11 11 20 12 12 20 12 12 17 11 11 19 13 13 0 14 14 1 15 15 8 16 1 8 16 1 1 15 15 9 17 3 1 15 15 2 18 16 9 17 3 9 17 3 2 18 16 11 19 5 2 18 16 3 20 17 11 19 5 11 19 5 3 20 17 13 21 7 4 22 18 15 23 9 3 20 17 3 20 17 15 23 9 13 21 7 5 24 19 17 25 11 4 22 18 4 22 18 17 25 11 15 23 9 5 24 19 6 26 20 17 25 11 17 25 11 6 26 20 19 27 13 21 28 21 28 29 22 22 30 23 22 30 23 28 29 22 29 31 24 22 30 23 29 31 24 23 32 25 23 32 25 29 31 24 30 33 26 24 34 27 23 32 25 31 35 28 31 35 28 23 32 25 30 33 26 25 36 29 24 34 27 32 37 30 32 37 30 24 34 27 31 35 28 26 38 31 25 36 29 33 39 32 33 39 32 25 36 29 32 37 30 27 40 33 26 38 31 34 41 34 34 41 34 26 38 31 33 39 32 35 42 35 36 42 36 42 42 37 42 42 37 36 42 36 43 42 38 44 43 39 43 44 38 37 45 40 37 45 40 43 44 38 36 44 36 37 45 40 38 46 41 44 43 39 44 43 39 38 46 41 45 47 42 38 46 41 39 48 43 45 47 42 45 47 42 39 48 43 46 49 44 39 48 43 40 50 45 46 49 44 46 49 44 40 50 45 47 51 46 40 50 45 41 52 47 47 51 46 47 51 46 41 52 47 48 52 48 28 53 22 49 54 49 29 55 24 29 55 24 49 54 49 50 56 50 29 55 24 50 56 50 30 57 26 30 57 26 50 56 50 51 58 51 30 57 26 51 58 51 31 6 28 31 6 28 51 58 51 52 59 52 31 6 28 52 59 52 32 60 30 32 60 30 52 59 52 53 61 53 32 60 30 53 61 53 33 62 32 33 62 32 53 61 53 54 63 54 33 62 32 54 63 54 34 64 34 34 64 34 54 63 54 55 13 55 35 65 35 7 66 56 36 67 36 36 67 36 7 66 56 10 68 57 36 67 36 10 68 57 37 69 40 37 69 40 10 68 57 12 70 58 37 69 40 12 70 58 38 71 41 38 71 41 12 70 58 14 72 59 39 73 43 38 71 41 16 74 60 16 74 60 38 71 41 14 72 59 40 75 45 39 73 43 18 76 61 18 76 61 39 73 43 16 74 60 41 77 47 40 75 45 20 78 62 20 78 62 40 75 45 18 76 61 42 79 37 43 80 38 49 81 63 49 81 63 43 80 38 50 82 64 43 80 38 44 83 39 50 82 64 50 82 64 44 83 39 51 84 65 44 83 39 45 85 42 51 84 65 51 84 65 45 85 42 52 86 66 46 87 44 53 88 67 45 85 42 45 85 42 53 88 67 52 86 66 47 89 46 54 90 68 46 87 44 46 87 44 54 90 68 53 88 67 48 91 48 55 92 69 47 89 46 47 89 46 55 92 69 54 90 68 59 93 70 56 94 71 60 95 72 60 95 72 56 94 71 57 96 73 61 52 74 60 52 75 58 52 76 58 52 76 60 52 75 57 52 77 62 97 78 69 98 79 63 99 80 63 99 80 69 98 79 70 100 81 63 99 80 70 100 81 64 101 82 64 101 82 70 100 81 71 102 83 64 101 82 71 102 83 65 103 84 65 103 84 71 102 83 72 104 85 66 105 86 65 103 84 73 106 87 73 106 87 65 103 84 72 104 85 67 107 88 66 105 86 74 108 89 74 108 89 66 105 86 73 106 87 67 107 88 74 108 89 68 109 90 68 109 90 74 108 89 75 110 91 83 111 92 84 112 93 86 113 94 86 113 94 84 112 93 85 114 95 86 113 94 85 114 95 88 115 96 88 115 96 85 114 95 87 116 97 88 115 96 87 116 97 90 117 98 90 117 98 87 116 97 89 118 99 90 117 98 89 118 99 92 119 100 92 119 100 89 118 99 91 120 101 92 119 100 91 120 101 94 121 102 94 121 102 91 120 101 93 122 103 94 121 102 93 122 103 96 123 104 96 123 104 93 122 103 95 124 105 76 125 106 77 126 107 84 127 93 84 127 93 77 126 107 85 128 95 77 126 107 78 129 108 85 128 95 85 128 95 78 129 108 87 130 97 79 131 109 89 132 99 78 129 108 78 129 108 89 132 99 87 130 97 80 133 110 91 134 101 79 131 109 79 131 109 91 134 101 89 132 99 81 135 111 93 136 103 80 133 110 80 133 110 93 136 103 91 134 101 82 137 112 95 138 105 81 135 111 81 135 111 95 138 105 93 136 103 97 139 35 98 139 113 104 139 114 104 139 114 98 139 113 105 139 38 106 140 39 105 141 38 99 142 115 99 142 115 105 141 38 98 141 113 99 142 115 100 143 116 106 140 39 106 140 39 100 143 116 107 144 42 100 143 116 101 145 117 107 144 42 107 144 42 101 145 117 108 146 118 101 145 117 102 147 119 108 146 118 108 146 118 102 147 119 109 148 120 102 147 119 103 149 47 109 148 120 109 148 120 103 149 47 110 149 121 97 150 35 83 151 56 98 152 113 98 152 113 83 151 56 86 153 57 98 152 113 86 153 57 99 154 115 99 154 115 86 153 57 88 155 58 99 154 115 88 155 58 100 156 116 100 156 116 88 155 58 90 157 59 101 158 117 100 156 116 92 159 122 92 159 122 100 156 116 90 157 59 102 160 119 101 158 117 94 161 123 94 161 123 101 158 117 92 159 122 103 162 47 102 160 119 96 163 124 96 163 124 102 160 119 94 161 123 104 164 114 105 165 38 111 166 125 111 166 125 105 165 38 112 167 64 105 165 38 106 168 39 112 167 64 112 167 64 106 168 39 113 169 65 106 168 39 107 170 42 113 169 65 113 169 65 107 170 42 114 171 66 108 172 118 115 173 126 107 170 42 107 170 42 115 173 126 114 171 66 109 174 120 116 175 127 108 172 118 108 172 118 116 175 127 115 173 126 110 176 121 117 177 69 109 174 120 109 174 120 117 177 69 116 175 127 69 178 79 111 178 128 70 179 81 70 179 81 111 178 128 112 180 129 70 179 81 112 180 129 71 181 83 71 181 83 112 180 129 113 182 130 71 181 83 113 182 130 72 183 85 72 183 85 113 182 130 114 184 131 72 183 85 114 184 131 73 185 87 73 185 87 114 184 131 115 186 132 73 185 87 115 186 132 74 187 89 74 187 89 115 186 132 116 188 133 74 187 89 116 188 133 75 124 91 75 124 91 116 188 133 117 124 134 118 189 135 121 189 136 119 189 137 119 189 137 121 189 136 122 189 75 120 149 138 119 149 137 123 149 74 123 149 74 119 149 137 122 149 75 121 189 136 124 190 139 122 189 75 122 189 75 124 190 139 125 191 77 60 95 72 125 191 137 59 93 70 59 93 70 125 191 137 124 190 135 60 52 75 132 52 138 125 52 137 122 149 75 125 149 77 132 149 76 60 52 75 61 52 74 132 52 138 122 149 75 132 149 76 123 149 74 65 192 84 128 193 140 64 194 82 127 195 141 64 194 82 128 193 140 3 196 17 2 197 16 128 198 142 127 199 143 128 198 142 2 197 16 2 197 16 1 200 15 127 199 143 126 201 144 127 199 143 1 200 15 68 149 90 131 149 145 67 202 88 130 203 146 67 202 88 131 149 145 64 194 82 127 195 141 63 204 80 126 205 147 63 204 80 127 195 141 67 202 88 130 203 146 66 206 86 129 207 148 66 206 86 130 203 146 1 200 15 0 208 14 126 209 144 133 210 149 126 209 144 0 208 14 66 206 86 129 207 148 65 192 84 128 193 140 65 192 84 129 207 148 63 204 80 126 209 147 62 211 78 133 210 150 62 211 78 126 209 147 4 212 18 3 196 17 129 213 151 128 198 142 129 213 151 3 196 17 6 52 20 5 214 19 131 52 152 130 215 153 131 52 152 5 214 19 5 214 19 4 212 18 130 215 153 129 213 151 130 215 153 4 212 18 77 216 107 142 216 154 78 217 108 140 217 155 78 217 108 142 216 154 80 218 110 79 219 109 146 145 156 141 220 157 146 145 156 79 219 109 25 221 29 151 222 156 24 223 27 152 224 157 24 223 27 151 222 156 79 219 109 78 217 108 141 220 157 140 217 155 141 220 157 78 217 108 81 148 111 80 218 110 144 147 158 146 145 156 144 147 158 80 218 110 26 51 31 149 50 158 25 221 29 151 222 156 25 221 29 149 50 158 134 149 159 139 149 160 135 149 161 138 149 162 135 149 161 139 149 160 82 149 112 81 148 111 145 149 163 144 147 158 145 149 163 81 148 111 27 52 33 150 52 163 26 51 31 149 50 158 26 51 31 150 52 163 22 225 23 23 226 25 148 225 154 153 226 155 148 225 154 23 226 25 135 227 164 136 227 162 134 227 165 137 227 160 134 227 165 136 227 162 77 216 107 76 228 106 142 216 154 143 228 166 142 216 154 76 228 106 22 225 23 148 225 154 21 229 21 147 229 166 21 229 21 148 225 154 24 223 27 152 224 157 23 226 25 153 226 155 23 226 25 152 224 157</p>
                </polylist>
            </mesh>
        </geometry>
    </library_geometries>
    <library_visual_scenes>
        <visual_scene id="DefaultScene">
            <node id="Geometry-mesh010Node" name="lab_concave_skinny" type="NODE">
                <matrix sid="transform">1 0 0 0 0 1 0 0 0 0 1 0 0 0 0 1</matrix>
                <instance_geometry url="#Geometry-mesh010">
                    <bind_material>
                        <technique_common>
                            <instance_material symbol="Material-lab_set" target="#Material-lab_set">
                                <bind_vertex_input semantic="uvSet1" input_semantic="TEXCOORD" input_set="0" />
                            </instance_material>
                        </technique_common>
                    </bind_material>
                </instance_geometry>
            </node>
            <node id="groupLocator025Node" name="Texture_Group" type="NODE">
                <matrix sid="transform">1 0 0 0 0 1 0 0 0 0 1 0 0 0 0 1</matrix>
                <node id="txtrLocator028Node" name="lab_set_nrm__Image___Texture_" type="NODE">
                    <matrix sid="transform">1 0 0 0 0 1 0 0 0 0 1 0 0 0 0 1</matrix>
                </node>
                <node id="txtrLocator021Node" name="lab_set__Image___Texture_" type="NODE">
                    <matrix sid="transform">1 0 0 0 0 1 0 0 0 0 1 0 0 0 0 1</matrix>
                </node>
                <node id="txtrLocator001Node" name="_none___Texture_" type="NODE">
                    <matrix sid="transform">1 0 0 0 0 1 0 0 0 0 1 0 0 0 0 1</matrix>
                </node>
            </node>
        </visual_scene>
    </library_visual_scenes>
    <scene>
        <instance_visual_scene url="#DefaultScene" />
    </scene>
</COLLADA>
