<?xml version="1.0" encoding="utf-8" ?>
<COLLADA xmlns="http://www.collada.org/2005/11/COLLADASchema" version="1.4.1">
    <asset>
        <contributor>
            <author>illerulf</author>
            <authoring_tool>modo 701 [Build 68192], Microsoft Windows 7 Service Pack 1 (6.1.7601 Service Pack 1)</authoring_tool>
            <comments>
                Plug-in: [Build 68192];
                Use Absolute Path: No;
                Merge Reference Items: No;
                Save Hidden Items: No;
                Save Cameras: No;
                Save Lights: No;
                Save Locators: Yes;
                Save Triangles as Triangles: No;
                Order Vertex Maps Alphabetically: No;
                Bake Matrices: Yes;
                Save Vertex Normals: Yes;
                Save UV Texture Coordinates: Yes;
                Save Vertex Colors: Yes;
                Save Vertex Weights: Yes;
                Save Animation: Yes;
                Sample Animation: Yes;
                Sample Animation Start: 0;
                Sample Animation End: 18;
                Save modo Profile: No;
                Save Maya Profile: No;
                Save 3ds Max Profile: No;
                Formatted Arrays: Yes;
            </comments>
            <source_data>file:///D:/Work/studio/Frictional%20Games/Depth/redist/static_objects/station/walls/lab_panel_short.dae</source_data>
        </contributor>
        <created>2015-08-10T10:37:39Z</created>
        <modified>2015-08-10T10:37:39Z</modified>
        <unit name="game" meter="1" />
        <up_axis>Y_UP</up_axis>
    </asset>
    <library_images>
        <image id="Image0001" name="Image0001">
            <init_from>file:///D:/Work/Dropbox/Frictional%20Games%20-%20Team/Aaron/models/static_objects/station/lab_set_rusty.tga</init_from>
        </image>
    </library_images>
    <library_materials>
        <material id="Material-lab_set" name="lab_set">
            <instance_effect url="#Effect-lab_set" />
        </material>
    </library_materials>
    <library_effects>
        <effect id="Effect-lab_set" name="lab_set">
            <profile_COMMON>
                <newparam sid="Image0001-surface">
                    <surface type="2D">
                        <init_from>Image0001</init_from>
                        <format>A8R8G8B8</format>
                    </surface>
                </newparam>
                <newparam sid="Image0001-sampler">
                    <sampler2D>
                        <source>Image0001-surface</source>
                        <minfilter>LINEAR_MIPMAP_LINEAR</minfilter>
                        <magfilter>LINEAR</magfilter>
                    </sampler2D>
                </newparam>
                <technique sid="common">
                    <phong>
                        <diffuse>
                            <texture texture="Image0001-sampler" texcoord="uvSet1" />
                        </diffuse>
                        <specular>
                            <color sid="specular_effect_rgb">0.635 0.635 0.635 1</color>
                        </specular>
                        <shininess>
                            <float sid="specular_effect_rgb">256</float>
                        </shininess>
                        <reflective>
                            <color sid="reflective_effect_rgb">0 0 0 1</color>
                        </reflective>
                        <reflectivity>
                            <float sid="reflectivity_effect_float">0.5</float>
                        </reflectivity>
                        <transparent opaque="RGB_ZERO">
                            <color sid="transparent_effect_rgb">0 0 0 1</color>
                        </transparent>
                        <transparency>
                            <float sid="transparency_effect_float">1</float>
                        </transparency>
                    </phong>
                </technique>
            </profile_COMMON>
        </effect>
    </library_effects>
    <library_geometries>
        <geometry id="Geometry-lab_panel_short" name="lab_panel_short">
            <mesh>
                <source id="Geometry-lab_panel_short-positions" name="positions">
                    <float_array id="Geometry-lab_panel_short-positions-array" count="72">
                        -0.993164 0.488037 0
                        -0.984619 0.472168 0
                        -0.969604 0.461674 0
                        -0.969604 0.461674 0.0625
                        -0.984619 0.472168 0.0625
                        -0.993164 0.488037 0.0625
                        0.989746 0.487793 0
                        0.978027 0.470703 2.46519e-032
                        0.959106 0.461674 0
                        0.989746 0.487793 0.0625
                        0.978027 0.470703 0.0625
                        0.959106 0.461674 0.0625
                        -0.993164 3.22339 0
                        -0.983887 3.24146 0
                        -0.967285 3.25342 0
                        -0.993164 3.22339 0.0625
                        -0.983887 3.24146 0.0625
                        -0.967285 3.25342 0.0625
                        0.989746 3.22473 0
                        0.979004 3.24316 0
                        0.962402 3.25342 0
                        0.962402 3.25342 0.0625
                        0.979004 3.24316 0.0625
                        0.989746 3.22473 0.0625
                    </float_array>
                    <technique_common>
                        <accessor count="24" source="#Geometry-lab_panel_short-positions-array" stride="3">
                            <param name="X" type="float" />
                            <param name="Y" type="float" />
                            <param name="Z" type="float" />
                        </accessor>
                    </technique_common>
                </source>
                <source id="Geometry-lab_panel_short-normals" name="normals">
                    <float_array id="Geometry-lab_panel_short-normals-array" count="93">
                        0.146773 -0.98917 0
                        0.579603 -0.814899 0
                        0.293545 -0.955945 0
                        0.715063 -0.69906 0
                        4.12937e-033 -4.78529e-031 -1
                        -5.91592e-035 -4.80785e-031 -1
                        8.98795e-033 4.2139e-031 -1
                        9.04711e-033 9.02175e-031 -1
                        0 0 1
                        0 0 -1
                        -0.950005 0.312235 0
                        -0.986724 -0.162408 0
                        -0.987738 0.156118 0
                        -0.945777 -0.324816 0
                        0.938109 0.34634 0
                        0.980541 -0.196312 0
                        0.984892 0.17317 0
                        0.919699 -0.392625 0
                        -0.703537 0.710659 0
                        -0.807802 0.589454 0
                        7.28787e-033 1.34988e-030 -1
                        0.655807 0.754929 0
                        0.771619 0.636085 0
                        0.181359 0.983417 0
                        0.362718 0.931899 0
                        -0.407115 0.913377 0
                        -0.203557 0.979063 0
                        -0.797118 -0.603823 0
                        -0.398196 -0.9173 0
                        -0.692052 -0.721847 0
                        -0.199098 -0.97998 0
                    </float_array>
                    <technique_common>
                        <accessor count="31" source="#Geometry-lab_panel_short-normals-array" stride="3">
                            <param name="X" type="float" />
                            <param name="Y" type="float" />
                            <param name="Z" type="float" />
                        </accessor>
                    </technique_common>
                </source>
                <source id="Geometry-lab_panel_short-uvSet1" name="uvSet1">
                    <float_array id="Geometry-lab_panel_short-uvSet1-array" count="88">
                        0.390905 0.694737
                        0.390905 0.692116
                        0.398848 0.694737
                        0.398848 0.692116
                        0.73559 0.119509
                        0.49998 0.119457
                        0.501372 0.115841
                        0.734574 0.116151
                        0.49998 0.698621
                        0.73559 0.698337
                        0.501256 0.702522
                        0.734487 0.70216
                        0.390905 0.683205
                        0.390905 0.351974
                        0.398848 0.683205
                        0.398848 0.351974
                        0.398848 0.347446
                        0.398848 0.689526
                        0.390905 0.347446
                        0.390905 0.689526
                        0.390905 0.351692
                        0.390905 0.349242
                        0.398848 0.351692
                        0.398848 0.349242
                        0.732515 0.704691
                        0.503229 0.704691
                        0.50362 0.11393
                        0.73279 0.11393
                        0.398848 0.595075
                        0.398848 0.597751
                        0.390905 0.595075
                        0.390905 0.597751
                        0.398848 0.59264
                        0.390905 0.59264
                        0.398848 0.354195
                        0.390905 0.354195
                        0.390905 0.349792
                        0.390905 0.347575
                        0.398848 0.349792
                        0.398848 0.347575
                        0.390051 0.347575
                        0.390051 0.694737
                        0.397994 0.347575
                        0.397994 0.694737
                    </float_array>
                    <technique_common>
                        <accessor count="44" source="#Geometry-lab_panel_short-uvSet1-array" stride="2">
                            <param name="S" type="float" />
                            <param name="T" type="float" />
                        </accessor>
                    </technique_common>
                </source>
                <vertices id="Geometry-lab_panel_short-vertices">
                    <input semantic="POSITION" source="#Geometry-lab_panel_short-positions" />
                </vertices>
                <polylist count="44" material="Material-lab_set">
                    <input semantic="VERTEX" source="#Geometry-lab_panel_short-vertices" offset="0" />
                    <input semantic="NORMAL" source="#Geometry-lab_panel_short-normals" offset="1" />
                    <input semantic="TEXCOORD" source="#Geometry-lab_panel_short-uvSet1" offset="2" set="0" />
                    <vcount>3 3 3 3 3 3 3 3 3 3 3 3 3 3 3 3 3 3 3 3 3 3 3 3 3 3 3 3 3 3 3 3 3 3 3 3 3 3 3 3 3 3 3 3</vcount>
                    <p>8 0 0 7 1 1 11 2 2 10 3 3 11 2 2 7 1 1 0 4 4 6 5 5 7 6 6 7 6 6 1 7 7 0 4 4 10 8 6 9 8 5 5 8 4 5 8 4 4 8 7 10 8 6 23 8 8 15 8 9 9 8 5 5 8 4 9 8 5 15 8 9 15 8 9 23 8 8 22 8 10 22 8 10 16 8 11 15 8 9 19 9 10 18 9 8 12 9 9 12 9 9 13 9 11 19 9 10 18 9 8 6 5 5 12 9 9 0 4 4 12 9 9 6 5 5 12 10 12 0 11 13 15 12 14 5 13 15 15 12 14 0 11 13 23 14 16 9 15 17 18 16 18 6 17 19 18 16 18 9 15 17 13 18 20 12 10 21 16 19 22 15 12 23 16 19 22 12 10 21 13 9 11 14 9 24 20 9 25 13 9 11 20 9 25 19 9 10 8 20 26 2 9 27 1 7 7 1 7 7 7 6 6 8 20 26 9 15 17 10 3 3 6 17 19 7 1 1 6 17 19 10 3 3 22 21 28 23 14 29 19 22 30 18 16 31 19 22 30 23 14 29 21 23 32 22 21 28 20 24 33 19 22 30 20 24 33 22 21 28 17 25 34 21 23 32 14 26 35 20 24 33 14 26 35 21 23 32 1 27 36 2 28 37 4 29 38 3 30 39 4 29 38 2 28 37 4 8 7 3 8 27 11 8 26 4 8 7 11 8 26 10 8 6 0 11 13 1 27 36 5 13 15 4 29 38 5 13 15 1 27 36 14 26 35 13 18 20 17 25 34 16 19 22 17 25 34 13 18 20 21 8 25 17 8 24 16 8 11 16 8 11 22 8 10 21 8 25 2 28 40 8 0 41 3 30 42 11 2 43 3 30 42 8 0 41</p>
                </polylist>
            </mesh>
        </geometry>
    </library_geometries>
    <library_visual_scenes>
        <visual_scene id="DefaultScene">
            <node id="Texture_GroupNode" name="Texture_Group" type="NODE">
                <matrix sid="transform">
        1 0 0 0
        0 1 0 0
        0 0 1 0
        0 0 0 1
    </matrix>
                <node id="glass_02_06_lab__Image___Texture_Node" name="glass_02_06_lab__Image___Texture_" type="NODE">
                    <matrix sid="transform">
        1 0 0 0
        0 1 0 0
        0 0 1 0
        0 0 0 1
    </matrix>
                </node>
                <node id="lab_set_nrm__Image___Texture_Node" name="lab_set_nrm__Image___Texture_" type="NODE">
                    <matrix sid="transform">
        1 0 0 0
        0 1 0 0
        0 0 1 0
        0 0 0 1
    </matrix>
                </node>
                <node id="lab_set__Image___Texture_Node" name="lab_set__Image___Texture_" type="NODE">
                    <matrix sid="transform">
        1 0 0 0
        0 1 0 0
        0 0 1 0
        0 0 0 1
    </matrix>
                </node>
                <node id="Snone___Texture_Node" name="_none___Texture_" type="NODE">
                    <matrix sid="transform">
        1 0 0 0
        0 1 0 0
        0 0 1 0
        0 0 0 1
    </matrix>
                </node>
                <node id="vent_shaft_nrm__Image___Texture_Node" name="vent_shaft_nrm__Image___Texture_" type="NODE">
                    <matrix sid="transform">
        1 0 0 0
        0 1 0 0
        0 0 1 0
        0 0 0 1
    </matrix>
                </node>
                <node id="vent_shaft__Image___Texture_Node" name="vent_shaft__Image___Texture_" type="NODE">
                    <matrix sid="transform">
        1 0 0 0
        0 1 0 0
        0 0 1 0
        0 0 0 1
    </matrix>
                </node>
                <node id="vent_shaft_spec__Image___Texture_Node" name="vent_shaft_spec__Image___Texture_" type="NODE">
                    <matrix sid="transform">
        1 0 0 0
        0 1 0 0
        0 0 1 0
        0 0 0 1
    </matrix>
                </node>
                <node id="door_hatch_slide_ventilation_nrm__Image___Texture_Node" name="door_hatch_slide_ventilation_nrm__Image___Texture_" type="NODE">
                    <matrix sid="transform">
        1 0 0 0
        0 1 0 0
        0 0 1 0
        0 0 0 1
    </matrix>
                </node>
                <node id="door_hatch_slide_ventilation_white__Image___Texture_Node" name="door_hatch_slide_ventilation_white__Image___Texture_" type="NODE">
                    <matrix sid="transform">
        1 0 0 0
        0 1 0 0
        0 0 1 0
        0 0 0 1
    </matrix>
                </node>
                <node id="vent_shaft_spec__Image___2___Texture_Node" name="vent_shaft_spec__Image___2___Texture_" type="NODE">
                    <matrix sid="transform">
        1 0 0 0
        0 1 0 0
        0 0 1 0
        0 0 0 1
    </matrix>
                </node>
                <node id="checker_512__Image___Texture_Node" name="checker_512__Image___Texture_" type="NODE">
                    <matrix sid="transform">
        1 0 0 0
        0 1 0 0
        0 0 1 0
        0 0 0 1
    </matrix>
                </node>
                <node id="slidedoor_theta_small_nrm__Image___Texture_Node" name="slidedoor_theta_small_nrm__Image___Texture_" type="NODE">
                    <matrix sid="transform">
        1 0 0 0
        0 1 0 0
        0 0 1 0
        0 0 0 1
    </matrix>
                </node>
                <node id="slidedoor_theta_small__Image___Texture_Node" name="slidedoor_theta_small__Image___Texture_" type="NODE">
                    <matrix sid="transform">
        1 0 0 0
        0 1 0 0
        0 0 1 0
        0 0 0 1
    </matrix>
                </node>
                <node id="slidedoor_theta_small_spec__Image___Texture_Node" name="slidedoor_theta_small_spec__Image___Texture_" type="NODE">
                    <matrix sid="transform">
        1 0 0 0
        0 1 0 0
        0 0 1 0
        0 0 0 1
    </matrix>
                </node>
                <node id="ceiling_shutter_large_nrm__Image___Texture_Node" name="ceiling_shutter_large_nrm__Image___Texture_" type="NODE">
                    <matrix sid="transform">
        1 0 0 0
        0 1 0 0
        0 0 1 0
        0 0 0 1
    </matrix>
                </node>
                <node id="ceiling_shutter_large__Image___Texture_Node" name="ceiling_shutter_large__Image___Texture_" type="NODE">
                    <matrix sid="transform">
        1 0 0 0
        0 1 0 0
        0 0 1 0
        0 0 0 1
    </matrix>
                </node>
                <node id="ceiling_shutter_large_spec__Image___Texture_Node" name="ceiling_shutter_large_spec__Image___Texture_" type="NODE">
                    <matrix sid="transform">
        1 0 0 0
        0 1 0 0
        0 0 1 0
        0 0 0 1
    </matrix>
                </node>
            </node>
            <node id="Geometry-lab_panel_shortNode" name="lab_panel_short" type="NODE">
                <matrix sid="transform">
        1 0 0 0
        0 1 0 0
        0 0 1 0
        0 0 0 1
    </matrix>
                <instance_geometry url="#Geometry-lab_panel_short">
                    <bind_material>
                        <technique_common>
                            <instance_material symbol="Material-lab_set" target="#Material-lab_set">
                                <bind_vertex_input semantic="uvSet1" input_semantic="TEXCOORD" input_set="0" />
                            </instance_material>
                        </technique_common>
                    </bind_material>
                </instance_geometry>
            </node>
            <node id="Camera-camera061Node" name="Camera" type="NODE">
                <matrix sid="transform">
        1 0 0 0
        0 0.996195 0.0871557 0.75
        0 -0.0871557 0.996195 4
        0 0 0 1
    </matrix>
                <instance_camera url="#Camera-camera061" />
            </node>
            <node id="groupLocator081Node" name="Texture_Group" type="NODE">
                <matrix sid="transform">
        1 0 0 0
        0 1 0 0
        0 0 1 0
        0 0 0 1
    </matrix>
                <node id="txtrLocator077Node" name="lab_set_rusty__Image___Texture_" type="NODE">
                    <matrix sid="transform">
        1 0 0 0
        0 1 0 0
        0 0 1 0
        0 0 0 1
    </matrix>
                </node>
            </node>
            <node id="Light-sunLight069Node" name="Directional_Light" type="NODE">
                <matrix sid="transform">
        0.707107 0.353553 -0.612372 -2
        0 0.866025 0.5 2
        0.707107 -0.353553 0.612372 2
        0 0 0 1
    </matrix>
                <instance_light url="#Light-sunLight069" />
            </node>
        </visual_scene>
    </library_visual_scenes>
    <scene>
        <instance_visual_scene url="#DefaultScene" />
    </scene>
</COLLADA>
