<?xml version="1.0" encoding="utf-8" ?>
<COLLADA xmlns="http://www.collada.org/2005/11/COLLADASchema" version="1.4.1">
    <asset>
        <contributor>
            <author>illerulf</author>
            <authoring_tool>modo 701 [Build 68192], Microsoft Windows 7 Service Pack 1 (6.1.7601 Service Pack 1)</authoring_tool>
            <comments>Plug-in: [Build 68192]; Use Absolute Path: No; Merge Reference Items: No; Save Hidden Items: No; Save Cameras: No; Save Lights: No; Save Locators: Yes; Save Triangles as Triangles: No; Order Vertex Maps Alphabetically: No; Bake Matrices: Yes; Save Vertex Normals: Yes; Save UV Texture Coordinates: Yes; Save Vertex Colors: No; Save Vertex Weights: Yes; Save Animation: No; Sample Animation: No; Sample Animation Start: 0; Sample Animation End: 1; Save modo Profile: No; Save Maya Profile: No; Save 3ds Max Profile: No; Formatted Arrays: No;</comments>
            <source_data>file:///D:/Work/Dropbox/Frictional%20Games%20-%20Team/Aaron/models/static_objects/station/walls/lab_walls.lxo</source_data>
        </contributor>
        <created>2014-12-22T15:24:09Z</created>
        <modified>2014-12-22T15:24:09Z</modified>
        <unit name="game" meter="1" />
        <up_axis>Y_UP</up_axis>
    </asset>
    <library_images>
        <image id="Image0001" name="Image0001">
            <init_from>file:///D:/Work/Dropbox/Frictional%20Games%20-%20Team/Aaron/models/entities/station/door/hatch_vent/door_hatch_slide_ventilation_white.psd</init_from>
        </image>
        <image id="Image0002" name="Image0002">
            <init_from>file:///D:/Work/Dropbox/Frictional%20Games%20-%20Team/Aaron/models/entities/station/door/slidedoor_theta_airlock/slidedoor_theta_airlock.psd</init_from>
        </image>
        <image id="Image0003" name="Image0003">
            <init_from>file:///D:/Work/Dropbox/Frictional%20Games%20-%20Team/Aaron/models/entities/station/door/slidedoor_theta_airlock/slidedoor_theta_airlock_nrm.tga</init_from>
        </image>
        <image id="Image0004" name="Image0004">
            <init_from>file:///D:/Work/Dropbox/Frictional%20Games%20-%20Team/Aaron/models/entities/station/door/slidedoor_theta_small/slidedoor_theta_small.psd</init_from>
        </image>
        <image id="Image0005" name="Image0005">
            <init_from>file:///D:/Work/Dropbox/Frictional%20Games%20-%20Team/Aaron/models/entities/station/door/slidedoor_theta_small/slidedoor_theta_small_nrm.tga</init_from>
        </image>
        <image id="Image0006" name="Image0006">
            <init_from>file:///D:/Work/Dropbox/Frictional%20Games%20-%20Team/Aaron/models/entities/station/door/slidedoor_theta_small/slidedoor_theta_small_spec.tga</init_from>
        </image>
        <image id="Image0007" name="Image0007">
            <init_from>file:///D:/Work/Dropbox/Frictional%20Games%20-%20Team/Aaron/models/entities/station/lamp/ceiling_shutter_large/ceiling_shutter_large.psd</init_from>
        </image>
        <image id="Image0008" name="Image0008">
            <init_from>file:///D:/Work/Dropbox/Frictional%20Games%20-%20Team/Aaron/models/entities/station/lamp/ceiling_shutter_large/ceiling_shutter_large_nrm.tga</init_from>
        </image>
        <image id="Image0009" name="Image0009">
            <init_from>file:///D:/Work/Dropbox/Frictional%20Games%20-%20Team/Aaron/models/entities/station/lamp/ceiling_shutter_large/ceiling_shutter_large_spec.tga</init_from>
        </image>
        <image id="Image0010" name="Image0010">
            <init_from>file:///D:/Work/Dropbox/Frictional%20Games%20-%20Team/Aaron/models/static_objects/station/floor/lab_linoleum_plain.psd</init_from>
        </image>
        <image id="Image0011" name="Image0011">
            <init_from>file:///D:/Work/Dropbox/Frictional%20Games%20-%20Team/Aaron/models/static_objects/station/lab_set_rusty.psd</init_from>
        </image>
        <image id="Image0012" name="Image0012">
            <init_from>file:///D:/Work/Dropbox/Frictional%20Games%20-%20Team/Aaron/models/static_objects/station/lab_set_rusty.tga</init_from>
        </image>
        <image id="Image0013" name="Image0013">
            <init_from>file:///D:/Work/Dropbox/Frictional%20Games%20-%20Team/Aaron/models/static_objects/station/alpha_glass_dirty.psd</init_from>
        </image>
        <image id="Image0014" name="Image0014">
            <init_from>file:///D:/Work/Dropbox/Frictional%20Games%20-%20Team/Aaron/models/static_objects/station/tunnel/tunnel_theta_rock.tga</init_from>
        </image>
        <image id="Image0015" name="Image0015">
            <init_from>file:///D:/Work/Dropbox/Frictional%20Games%20-%20Team/Aaron/models/static_objects/station/walls/vent_shaft/vent_shaft.psd</init_from>
        </image>
        <image id="Image0016" name="Image0016">
            <init_from>file:///D:/Work/Dropbox/Frictional%20Games%20-%20Team/Aaron/models/static_objects/station/walls/vent_shaft/vent_shaft_nrm.tga</init_from>
        </image>
        <image id="Image0017" name="Image0017">
            <init_from>file:///D:/Work/Dropbox/Frictional%20Games%20-%20Team/Aaron/models/static_objects/station/walls/vent_shaft/vent_shaft_spec.tga</init_from>
        </image>
        <image id="Image0018" name="Image0018">
            <init_from>file:///D:/Work/Google%20Drive/Work%20-%20Studio/Frictional%20Games/Station_batch06/assets/door/door_hatch_slide_ventilation/door_hatch_slide_ventilation_nrm.tga</init_from>
        </image>
        <image id="Image0019" name="Image0019">
            <init_from>file:///D:/Work/other/texture%20bases%20and%20stuff/checker_512.gif</init_from>
        </image>
    </library_images>
    <library_materials>
        <material id="Material-Default" name="Default">
            <instance_effect url="#Effect-Default" />
        </material>
        <material id="Material-ceiling_shutter_large" name="ceiling_shutter_large">
            <instance_effect url="#Effect-ceiling_shutter_large" />
        </material>
        <material id="Material-floor_plain" name="floor_plain">
            <instance_effect url="#Effect-floor_plain" />
        </material>
        <material id="Material-glass" name="glass">
            <instance_effect url="#Effect-glass" />
        </material>
        <material id="Material-hp" name="hp">
            <instance_effect url="#Effect-hp" />
        </material>
        <material id="Material-lab_set" name="lab_set">
            <instance_effect url="#Effect-lab_set" />
        </material>
        <material id="Material-lambert4" name="lambert4">
            <instance_effect url="#Effect-lambert4" />
        </material>
        <material id="Material-slidedoor_theta_airlock" name="slidedoor_theta_airlock">
            <instance_effect url="#Effect-slidedoor_theta_airlock" />
        </material>
        <material id="Material-slidedoor_theta_small" name="slidedoor_theta_small">
            <instance_effect url="#Effect-slidedoor_theta_small" />
        </material>
        <material id="Material-tunnel_MAT" name="tunnel_MAT">
            <instance_effect url="#Effect-tunnel_MAT" />
        </material>
    </library_materials>
    <library_effects>
        <effect id="Effect-Default" name="Default">
            <profile_COMMON>
                <technique sid="common">
                    <phong>
                        <diffuse>
                            <color sid="diffuse_effect_rgb">0.8 0.8 0.8 1</color>
                        </diffuse>
                        <specular>
                            <color sid="specular_effect_rgb">0.2 0.2 0.2 1</color>
                        </specular>
                        <shininess>
                            <float sid="specular_effect_rgb">0.4</float>
                        </shininess>
                    </phong>
                </technique>
            </profile_COMMON>
        </effect>
        <effect id="Effect-ceiling_shutter_large" name="ceiling_shutter_large">
            <profile_COMMON>
                <newparam sid="Image0007-surface">
                    <surface type="2D">
                        <init_from>Image0007</init_from>
                        <format>A8R8G8B8</format>
                    </surface>
                </newparam>
                <newparam sid="Image0007-sampler">
                    <sampler2D>
                        <source>Image0007-surface</source>
                        <minfilter>LINEAR_MIPMAP_LINEAR</minfilter>
                        <magfilter>LINEAR</magfilter>
                    </sampler2D>
                </newparam>
                <newparam sid="Image0009-surface">
                    <surface type="2D">
                        <init_from>Image0009</init_from>
                        <format>A8R8G8B8</format>
                    </surface>
                </newparam>
                <newparam sid="Image0009-sampler">
                    <sampler2D>
                        <source>Image0009-surface</source>
                        <minfilter>LINEAR_MIPMAP_LINEAR</minfilter>
                        <magfilter>LINEAR</magfilter>
                    </sampler2D>
                </newparam>
                <technique sid="common">
                    <phong>
                        <diffuse>
                            <texture texture="Image0007-sampler" texcoord="uvSet1" />
                        </diffuse>
                        <specular>
                            <texture texture="Image0009-sampler" texcoord="uvSet1" />
                        </specular>
                        <shininess>
                            <float sid="specular_effect_rgb">32</float>
                        </shininess>
                    </phong>
                </technique>
            </profile_COMMON>
        </effect>
        <effect id="Effect-floor_plain" name="floor_plain">
            <profile_COMMON>
                <newparam sid="Image0010-surface">
                    <surface type="2D">
                        <init_from>Image0010</init_from>
                        <format>A8R8G8B8</format>
                    </surface>
                </newparam>
                <newparam sid="Image0010-sampler">
                    <sampler2D>
                        <source>Image0010-surface</source>
                        <minfilter>LINEAR_MIPMAP_LINEAR</minfilter>
                        <magfilter>LINEAR</magfilter>
                    </sampler2D>
                </newparam>
                <technique sid="common">
                    <phong>
                        <diffuse>
                            <texture texture="Image0010-sampler" texcoord="uvSet1" />
                        </diffuse>
                        <specular>
                            <color sid="specular_effect_rgb">0.5 0.5 0.5 1</color>
                        </specular>
                        <shininess>
                            <float sid="specular_effect_rgb">256</float>
                        </shininess>
                    </phong>
                </technique>
            </profile_COMMON>
        </effect>
        <effect id="Effect-glass" name="glass">
            <profile_COMMON>
                <newparam sid="Image0013-surface">
                    <surface type="2D">
                        <init_from>Image0013</init_from>
                        <format>A8R8G8B8</format>
                    </surface>
                </newparam>
                <newparam sid="Image0013-sampler">
                    <sampler2D>
                        <source>Image0013-surface</source>
                        <minfilter>LINEAR_MIPMAP_LINEAR</minfilter>
                        <magfilter>LINEAR</magfilter>
                    </sampler2D>
                </newparam>
                <technique sid="common">
                    <phong>
                        <diffuse>
                            <texture texture="Image0013-sampler" texcoord="uvSet1" />
                        </diffuse>
                        <specular>
                            <color sid="specular_effect_rgb">0.2 0.2 0.2 1</color>
                        </specular>
                        <shininess>
                            <float sid="specular_effect_rgb">256</float>
                        </shininess>
                    </phong>
                </technique>
            </profile_COMMON>
        </effect>
        <effect id="Effect-hp" name="hp">
            <profile_COMMON>
                <technique sid="common">
                    <phong>
                        <diffuse>
                            <color sid="diffuse_effect_rgb">0.8 0.8 0.8 1</color>
                        </diffuse>
                        <specular>
                            <color sid="specular_effect_rgb">0.2 0.2 0.2 1</color>
                        </specular>
                        <shininess>
                            <float sid="specular_effect_rgb">256</float>
                        </shininess>
                    </phong>
                </technique>
            </profile_COMMON>
        </effect>
        <effect id="Effect-lab_set" name="lab_set">
            <profile_COMMON>
                <newparam sid="Image0011-surface">
                    <surface type="2D">
                        <init_from>Image0011</init_from>
                        <format>A8R8G8B8</format>
                    </surface>
                </newparam>
                <newparam sid="Image0011-sampler">
                    <sampler2D>
                        <source>Image0011-surface</source>
                        <minfilter>LINEAR_MIPMAP_LINEAR</minfilter>
                        <magfilter>LINEAR</magfilter>
                    </sampler2D>
                </newparam>
                <technique sid="common">
                    <phong>
                        <diffuse>
                            <texture texture="Image0011-sampler" texcoord="uvSet1" />
                        </diffuse>
                        <specular>
                            <color sid="specular_effect_rgb">0.635 0.635 0.635 1</color>
                        </specular>
                        <shininess>
                            <float sid="specular_effect_rgb">64</float>
                        </shininess>
                        <reflective>
                            <color sid="reflective_effect_rgb">0 0 0 1</color>
                        </reflective>
                        <reflectivity>
                            <float sid="reflectivity_effect_float">0.5</float>
                        </reflectivity>
                        <transparent opaque="RGB_ZERO">
                            <color sid="transparent_effect_rgb">0 0 0 1</color>
                        </transparent>
                        <transparency>
                            <float sid="transparency_effect_float">1</float>
                        </transparency>
                    </phong>
                </technique>
            </profile_COMMON>
        </effect>
        <effect id="Effect-lambert4" name="lambert4">
            <profile_COMMON>
                <technique sid="common">
                    <phong>
                        <diffuse>
                            <color sid="diffuse_effect_rgb">0.8 0.8 0.8 1</color>
                        </diffuse>
                        <specular>
                            <color sid="specular_effect_rgb">0.2 0.2 0.2 1</color>
                        </specular>
                        <shininess>
                            <float sid="specular_effect_rgb">256</float>
                        </shininess>
                    </phong>
                </technique>
            </profile_COMMON>
        </effect>
        <effect id="Effect-slidedoor_theta_airlock" name="slidedoor_theta_airlock">
            <profile_COMMON>
                <newparam sid="Image0002-surface">
                    <surface type="2D">
                        <init_from>Image0002</init_from>
                        <format>A8R8G8B8</format>
                    </surface>
                </newparam>
                <newparam sid="Image0002-sampler">
                    <sampler2D>
                        <source>Image0002-surface</source>
                        <minfilter>LINEAR_MIPMAP_LINEAR</minfilter>
                        <magfilter>LINEAR</magfilter>
                    </sampler2D>
                </newparam>
                <technique sid="common">
                    <phong>
                        <diffuse>
                            <texture texture="Image0002-sampler" texcoord="uvSet1" />
                        </diffuse>
                        <specular>
                            <color sid="specular_effect_rgb">0.2 0.2 0.2 1</color>
                        </specular>
                        <shininess>
                            <float sid="specular_effect_rgb">256</float>
                        </shininess>
                    </phong>
                </technique>
            </profile_COMMON>
        </effect>
        <effect id="Effect-slidedoor_theta_small" name="slidedoor_theta_small">
            <profile_COMMON>
                <newparam sid="Image0004-surface">
                    <surface type="2D">
                        <init_from>Image0004</init_from>
                        <format>A8R8G8B8</format>
                    </surface>
                </newparam>
                <newparam sid="Image0004-sampler">
                    <sampler2D>
                        <source>Image0004-surface</source>
                        <minfilter>LINEAR_MIPMAP_LINEAR</minfilter>
                        <magfilter>LINEAR</magfilter>
                    </sampler2D>
                </newparam>
                <newparam sid="Image0006-surface">
                    <surface type="2D">
                        <init_from>Image0006</init_from>
                        <format>A8R8G8B8</format>
                    </surface>
                </newparam>
                <newparam sid="Image0006-sampler">
                    <sampler2D>
                        <source>Image0006-surface</source>
                        <minfilter>LINEAR_MIPMAP_LINEAR</minfilter>
                        <magfilter>LINEAR</magfilter>
                    </sampler2D>
                </newparam>
                <technique sid="common">
                    <phong>
                        <diffuse>
                            <texture texture="Image0004-sampler" texcoord="uvSet1" />
                        </diffuse>
                        <specular>
                            <texture texture="Image0006-sampler" texcoord="uvSet1" />
                        </specular>
                        <shininess>
                            <float sid="specular_effect_rgb">50.2134</float>
                        </shininess>
                    </phong>
                </technique>
            </profile_COMMON>
        </effect>
        <effect id="Effect-tunnel_MAT" name="tunnel_MAT">
            <profile_COMMON>
                <newparam sid="Image0014-surface">
                    <surface type="2D">
                        <init_from>Image0014</init_from>
                        <format>A8R8G8B8</format>
                    </surface>
                </newparam>
                <newparam sid="Image0014-sampler">
                    <sampler2D>
                        <source>Image0014-surface</source>
                        <minfilter>LINEAR_MIPMAP_LINEAR</minfilter>
                        <magfilter>LINEAR</magfilter>
                    </sampler2D>
                </newparam>
                <technique sid="common">
                    <phong>
                        <diffuse>
                            <texture texture="Image0014-sampler" texcoord="uvSet1" />
                        </diffuse>
                        <specular>
                            <color sid="specular_effect_rgb">0.5 0.5 0.5 1</color>
                        </specular>
                        <shininess>
                            <float sid="specular_effect_rgb">256</float>
                        </shininess>
                        <reflective>
                            <color sid="reflective_effect_rgb">0 0 0 1</color>
                        </reflective>
                        <reflectivity>
                            <float sid="reflectivity_effect_float">0.5</float>
                        </reflectivity>
                    </phong>
                </technique>
            </profile_COMMON>
        </effect>
    </library_effects>
    <library_geometries>
        <geometry id="Geometry-mesh037" name="lab_window_large">
            <mesh>
                <source id="Geometry-mesh037-positions" name="positions">
                    <float_array id="Geometry-mesh037-positions-array" count="1230">0 4.00204 -0.102561 0 3.84053 0.000786572 0 3.92874 -0.102561 0 3.87665 -0.0649033 0 3.90332 -0.08977 0 3.86055 -0.0405577 0 3.84762 -0.0189504 1.89892 3.84053 0.000786572 1.89892 3.84762 -0.0189504 1.89892 3.86055 -0.0405577 1.89892 3.87665 -0.0649033 1.89892 3.90332 -0.08977 1.89892 3.92874 -0.102561 1.89892 4.00204 -0.102561 0.241704 3.84053 0.000786572 0.241704 3.84762 -0.0189504 0.241704 3.86055 -0.0405577 0.241704 3.87665 -0.0649033 0.241704 3.90332 -0.08977 0.241704 3.92874 -0.102561 0.241704 4.00204 -0.102561 1.87932 3.86873 0.00306084 1.87932 3.87364 -0.00962894 1.87932 3.88436 -0.0277687 1.87932 3.89843 -0.0480879 1.87932 3.9183 -0.0666099 1.87932 3.93665 -0.0758596 1.87932 3.99445 -0.0761952 0.278782 3.86873 0.00306084 0.2613 3.86873 0.00306084 0.2613 3.87364 -0.00962894 0.278782 3.87364 -0.00962895 0.2613 3.88436 -0.0277687 0.278782 3.88436 -0.0277687 0.2613 3.89843 -0.0480879 0.278782 3.89843 -0.0480879 0.2613 3.9183 -0.06661 0.278782 3.9183 -0.0666099 0.2613 3.93665 -0.0758596 0.278782 3.93665 -0.0758597 0.2613 3.99445 -0.0761952 0.278782 3.99445 -0.0761952 0.539546 3.84925 0.000786572 0.539546 3.85584 -0.0175636 0.539546 3.86786 -0.0376526 0.539546 3.88283 -0.0602878 0.539546 3.90763 -0.0834073 0.539546 3.93125 -0.0952984 0.539546 4.00204 -0.0952984 1.60108 3.84925 0.000786572 1.60108 3.85584 -0.0175636 1.60108 3.86786 -0.0376526 1.60108 3.88283 -0.0602878 1.60108 3.90763 -0.0834073 1.60108 3.93125 -0.0952984 1.60108 4.00204 -0.0952984 0.518717 3.86873 0.00306086 0.518717 3.87364 -0.00962889 0.518717 3.88436 -0.0277687 0.518717 3.89843 -0.0480879 0.518717 3.9183 -0.0666099 0.518717 3.93665 -0.0758596 0.518717 3.99445 -0.0761952 1.64289 3.86873 0.00306086 1.62191 3.86873 0.00306098 1.62191 3.87364 -0.00962888 1.64289 3.87364 -0.00962889 1.62191 3.88436 -0.0277687 1.64289 3.88436 -0.0277687 1.62191 3.89843 -0.0480879 1.64289 3.89843 -0.0480879 1.62191 3.9183 -0.0666099 1.64289 3.9183 -0.0666099 1.62191 3.93665 -0.0758596 1.64289 3.93665 -0.0758596 1.62191 3.99445 -0.0761952 1.64289 3.99445 -0.0761952 0.298933 3.70599 0.000786572 0.298933 3.71258 -0.0175636 0.298933 3.83634 -0.0376526 0.298933 3.88283 -0.0602878 0.298933 3.90763 -0.0834073 0.298933 3.93125 -0.0952984 0.298933 4.00204 -0.0952984 0.477584 3.70599 0.000786572 0.477584 3.71258 -0.0175636 0.477584 3.83634 -0.0376526 0.477584 3.88283 -0.0602878 0.477584 3.90763 -0.0834073 0.477584 3.93125 -0.0952984 0.477584 4.00204 -0.0952984 0.497735 3.86873 0.00306098 0.497735 3.87364 -0.00962888 0.497735 3.88436 -0.0277687 0.497735 3.89843 -0.0480879 0.497735 3.9183 -0.0666099 0.497735 3.93665 -0.0758596 0.497735 3.99445 -0.0761952 1.66304 3.70599 0.000786572 1.66304 3.71258 -0.0175636 1.66304 3.83634 -0.0376526 1.66304 3.88283 -0.0602878 1.66304 3.90763 -0.0834073 1.66304 3.93125 -0.0952984 1.66304 4.00204 -0.0952984 1.8449 3.70599 0.000786572 1.8449 3.71258 -0.0175636 1.8449 3.83634 -0.0376526 1.8449 3.88283 -0.0602878 1.8449 3.90763 -0.0834073 1.8449 3.93125 -0.0952984 1.8449 4.00204 -0.0952984 1.86184 3.86873 0.00306084 1.86184 3.87364 -0.00962894 1.86184 3.88436 -0.0277687 1.86184 3.89843 -0.0480879 1.86184 3.9183 -0.0666099 1.86184 3.93665 -0.0758596 1.86184 3.99445 -0.0761952 0 0 -0.0634527 0 0.455326 0 0 0.433376 -0.0634527 0.5 0.455326 0 0.5 0.433376 -0.0634527 0.5 0 -0.0634527 1.5 0.455326 0 1.5 0.433376 -0.0634527 1.5 0 -0.0634527 1 0.455326 0 1 0.433376 -0.0634527 1 0 -0.0634527 2 0.455326 0 2 0.433376 -0.0634527 2 0 -0.0634527 2 3.87996 0 2 0.455326 0 2 3.84053 0.000786572 2 3.84762 -0.0189504 2 4.00204 -0.102561 2 3.92874 -0.102561 2 3.87665 -0.0649033 2 3.90332 -0.08977 2 3.86055 -0.0405577 0 4.00204 -0.102561 0 3.84053 0.000786572 0 3.92874 -0.102561 0 3.87665 -0.0649033 0 3.90332 -0.08977 0 3.86055 -0.0405577 0 3.84762 -0.0189504 -0.212115 3.84053 0.000786572 -0.212115 3.84762 -0.0189504 -0.212115 3.86055 -0.0405577 -0.212115 3.87665 -0.0649033 -0.212115 3.90332 -0.08977 -0.212115 3.92874 -0.102561 -0.212115 4.00204 -0.102561 -1.89892 3.84053 0.000786572 -1.89892 3.84762 -0.0189504 -1.89892 3.86055 -0.0405577 -1.89892 3.87665 -0.0649033 -1.89892 3.90332 -0.08977 -1.89892 3.92874 -0.102561 -1.89892 4.00204 -0.102561 -0.231712 3.86873 0.00306084 -0.231712 3.87364 -0.00962894 -0.231712 3.88436 -0.0277687 -0.231712 3.89843 -0.0480879 -0.231711 3.9183 -0.0666099 -0.231712 3.93665 -0.0758596 -0.231711 3.99445 -0.0761952 -1.86184 3.86873 0.00306084 -1.87932 3.86873 0.00306084 -1.87932 3.87364 -0.00962894 -1.86184 3.87364 -0.00962895 -1.87932 3.88436 -0.0277687 -1.86184 3.88436 -0.0277687 -1.87932 3.89843 -0.0480879 -1.86184 3.89843 -0.0480879 -1.87932 3.9183 -0.06661 -1.86184 3.9183 -0.0666099 -1.87932 3.93665 -0.0758596 -1.86184 3.93665 -0.0758597 -1.87932 3.99445 -0.0761952 -1.86184 3.99445 -0.0761952 -1.60108 3.84925 0.000786572 -1.60108 3.85584 -0.0175636 -1.60108 3.86786 -0.0376526 -1.60108 3.88283 -0.0602878 -1.60108 3.90763 -0.0834073 -1.60108 3.93125 -0.0952984 -1.60108 4.00204 -0.0952984 -0.509957 3.84925 0.000786572 -0.509957 3.85584 -0.0175636 -0.509957 3.86786 -0.0376526 -0.509957 3.88283 -0.0602878 -0.509957 3.90763 -0.0834073 -0.509957 3.93125 -0.0952984 -0.509957 4.00204 -0.0952984 -1.62191 3.86873 0.00306086 -1.62191 3.87364 -0.00962889 -1.62191 3.88436 -0.0277687 -1.62191 3.89843 -0.0480879 -1.62191 3.9183 -0.0666099 -1.62191 3.93665 -0.0758596 -1.62191 3.99445 -0.0761952 -0.468146 3.86873 0.00306086 -0.489129 3.86873 0.00306098 -0.489129 3.87364 -0.00962888 -0.468146 3.87364 -0.00962889 -0.489129 3.88436 -0.0277687 -0.468146 3.88436 -0.0277687 -0.489129 3.89843 -0.0480879 -0.468146 3.89843 -0.0480879 -0.489129 3.9183 -0.0666099 -0.468146 3.9183 -0.0666099 -0.489129 3.93665 -0.0758596 -0.468146 3.93665 -0.0758596 -0.489129 3.99445 -0.0761952 -0.468146 3.99445 -0.0761952 -1.84169 3.70599 0.000786572 -1.84169 3.71258 -0.0175636 -1.84169 3.83634 -0.0376526 -1.84169 3.88283 -0.0602878 -1.84169 3.90763 -0.0834073 -1.84169 3.93125 -0.0952984 -1.84169 4.00204 -0.0952984 -1.66304 3.70599 0.000786572 -1.66304 3.71258 -0.0175636 -1.66304 3.83634 -0.0376526 -1.66304 3.88283 -0.0602878 -1.66304 3.90763 -0.0834073 -1.66304 3.93125 -0.0952984 -1.66304 4.00204 -0.0952984 -1.64289 3.86873 0.00306098 -1.64289 3.87364 -0.00962888 -1.64289 3.88436 -0.0277687 -1.64289 3.89843 -0.0480879 -1.64289 3.9183 -0.0666099 -1.64289 3.93665 -0.0758596 -1.64289 3.99445 -0.0761952 -0.447995 3.70599 0.000786572 -0.447995 3.71258 -0.0175636 -0.447995 3.83634 -0.0376526 -0.447995 3.88283 -0.0602878 -0.447995 3.90763 -0.0834073 -0.447995 3.93125 -0.0952984 -0.447995 4.00204 -0.0952984 -0.266135 3.70599 0.000786572 -0.266135 3.71258 -0.0175636 -0.266135 3.83634 -0.0376526 -0.266135 3.88283 -0.0602878 -0.266135 3.90763 -0.0834073 -0.266135 3.93125 -0.0952984 -0.266135 4.00204 -0.0952984 -0.249193 3.86873 0.00306084 -0.249193 3.87364 -0.00962894 -0.249193 3.88436 -0.0277687 -0.249193 3.89843 -0.0480879 -0.249193 3.9183 -0.0666099 -0.249193 3.93665 -0.0758596 -0.249193 3.99445 -0.0761952 -1.5 0.455326 0 -1.5 0.433376 -0.0634527 -1.5 0 -0.0634527 0 0.455326 0 0 0.433376 -0.0634527 0 0 -0.0634527 -0.5 0.455326 0 -0.5 0.433376 -0.0634527 -0.5 0 -0.0634527 -2 0.455326 0 -2 0.433376 -0.0634527 -2 0 -0.0634527 -1 0.455326 0 -1 0.433376 -0.0634527 -1 0 -0.0634527 -2 3.87996 0 -2 0.455326 0 -2 3.84053 0.000786572 -2 3.84762 -0.0189504 -2 4.00204 -0.102561 -2 3.92874 -0.102561 -2 3.87665 -0.0649033 -2 3.90332 -0.08977 -2 3.86055 -0.0405577 2 2.25 0 -2 2.25 0 1.75 0.455326 0 1.75 2.25 0 1.75 3.87996 0 -1.75 3.87996 0 -1.75 2.25 0 -1.75 0.455326 0 2 1 0 -2 1 0 1.75 1 0 -1.75 1 0 0 0.455326 0 0 3.87996 0 0 2.25 0 0 1 0 -1.79688 2.1875 -0.03125 -1.6875 2.29688 -0.03125 -1.74016 2.28067 -0.03125 -1.78067 2.24016 -0.03125 -1.74016 0.969329 -0.03125 -1.78067 1.00984 -0.03125 1.70313 2.1875 -0.03125 1.69502 2.20081 -0.03125 1.70081 2.19502 -0.03125 1.69502 1.04919 -0.03125 1.70081 1.05498 -0.03125 -1.79688 1.0625 -0.03125 -1.6875 0.953125 -0.03125 1.6875 1.04688 -0.03125 1.70313 1.0625 -0.03125 1.6875 2.20313 -0.03125 -1.69502 1.04919 -0.03125 -1.70081 1.05498 -0.03125 -1.70313 1.0625 -0.03125 -1.6875 1.04688 -0.03125 -1.38778e-016 1.04688 -0.03125 -1.70313 2.1875 -0.03125 -1.6875 2.20313 -0.03125 -1.69502 2.20081 -0.03125 -1.70081 2.19502 -0.03125 0 2.20313 -0.03125 -1.79688 2.1875 0.0625 -1.6875 2.29688 0.0625 -1.74016 2.28067 0.0625 -1.78067 2.24016 0.0625 -1.74016 0.969329 0.0625 -1.78067 1.00984 0.0625 -1.79688 1.0625 0.0625 -1.6875 0.953125 0.0625 -1.6875 1.04688 0.0625 -1.69502 1.04919 0.0625 -1.70081 1.05498 0.0625 -1.70313 1.0625 0.0625 -1.38778e-016 1.04688 0.0625 1.6875 1.04688 0.0625 1.69502 1.04919 0.0625 1.70081 1.05498 0.0625 1.70313 1.0625 0.0625 -1.70313 2.1875 0.0625 -1.70081 2.19502 0.0625 -1.69502 2.20081 0.0625 -1.6875 2.20313 0.0625 0 2.20313 0.0625 1.70313 2.1875 0.0625 1.70081 2.19502 0.0625 1.69502 2.20081 0.0625 1.6875 2.20313 0.0625 -2.22045e-016 0.953125 -0.03125 -2.22045e-016 0.953125 0.0625 1.74016 0.969329 -0.03125 1.78067 1.00984 -0.03125 1.6875 0.953125 -0.03125 1.79688 1.0625 -0.03125 1.74016 0.969329 0.0625 1.78067 1.00984 0.0625 1.6875 0.953125 0.0625 1.79688 1.0625 0.0625 0 2.29688 -0.03125 1.11022e-016 2.29688 0.0625 1.79688 2.1875 -0.03125 1.74016 2.28067 -0.03125 1.78067 2.24016 -0.03125 1.6875 2.29688 -0.03125 1.79688 2.1875 0.0625 1.74016 2.28067 0.0625 1.78067 2.24016 0.0625 1.6875 2.29688 0.0625 1.70313 2.1875 0.0625 1.69502 2.20081 0.0625 1.70081 2.19502 0.0625 1.69502 1.04919 0.0625 1.70081 1.05498 0.0625 1.6875 1.04688 0.0625 1.70313 1.0625 0.0625 1.6875 2.20313 0.0625 -1.69502 1.04919 0.0625 -1.70081 1.05498 0.0625 -1.70313 1.0625 0.0625 -1.6875 1.04688 0.0625 -1.38778e-016 1.04688 0.0625 -1.70313 2.1875 0.0625 -1.6875 2.20313 0.0625 -1.69502 2.20081 0.0625 -1.70081 2.19502 0.0625 0 2.20313 0.0625 -1.6875 1.04688 0.125 -1.69502 1.04919 0.125 -1.70081 1.05498 0.125 -1.70313 1.0625 0.125 -1.38778e-016 1.04688 0.125 1.6875 1.04688 0.125 1.69502 1.04919 0.125 1.70081 1.05498 0.125 1.70313 1.0625 0.125 -1.70313 2.1875 0.125 -1.70081 2.19502 0.125 -1.69502 2.20081 0.125 -1.6875 2.20313 0.125 0 2.20313 0.125 1.70313 2.1875 0.125 1.70081 2.19502 0.125 1.69502 2.20081 0.125 1.6875 2.20313 0.125</float_array>
                    <technique_common>
                        <accessor count="410" source="#Geometry-mesh037-positions-array" stride="3">
                            <param name="X" type="float" />
                            <param name="Y" type="float" />
                            <param name="Z" type="float" />
                        </accessor>
                    </technique_common>
                </source>
                <source id="Geometry-mesh037-normals" name="normals">
                    <float_array id="Geometry-mesh037-normals-array" count="1047">0 -0.903886 -0.427774 0 -0.941162 -0.337956 0 -0.846292 -0.532719 0 -0.73722 -0.675653 0 -0.788251 -0.615354 0 -0.531784 -0.84688 0 -0.609945 -0.792444 0 -0.153541 -0.988142 0 -0.307082 -0.951683 0 0 -1 0 -0.932545 -0.361053 -1.05792e-007 -0.932545 -0.361053 -1.70401e-007 -0.911414 -0.41149 -1.70401e-007 -0.887482 -0.460842 -9.94202e-008 -0.848505 -0.529188 0 -0.835549 -0.549415 0 -0.779357 -0.62658 4.17814e-007 -0.732363 -0.680914 9.31406e-007 -0.610045 -0.792367 6.75407e-007 -0.532105 -0.846678 -3.11381e-008 -0.309279 -0.950971 -5.5078e-007 -0.157611 -0.987501 -4.26189e-007 -0.0058043 -0.999983 0 -0.00580443 -0.999983 -0.812418 -0.548768 -0.197054 -0.814074 -0.544139 -0.202967 -0.8139 -0.530967 -0.235881 -0.812691 -0.516484 -0.269774 -0.809467 -0.499819 -0.308131 -0.810748 -0.491441 -0.318078 -0.812832 -0.442602 -0.378693 -0.81408 -0.439086 -0.380101 -0.815118 -0.308363 -0.490403 -0.814233 -0.354365 -0.459838 -0.817374 -0.131959 -0.56079 -0.816351 -0.132886 -0.562061 -0.804151 -0.00172982 -0.594423 -0.802112 -0.00345961 -0.597163 0.812422 -0.548764 -0.197052 0.813904 -0.530963 -0.235879 0.814078 -0.544134 -0.202966 0.812695 -0.516479 -0.269772 0.80947 -0.499815 -0.308128 0.810751 -0.491437 -0.318075 0.812834 -0.4426 -0.378689 0.814084 -0.439085 -0.380095 0.815119 -0.30836 -0.490404 0.814234 -0.354363 -0.459837 0.817378 -0.131958 -0.560786 0.816352 -0.132884 -0.56206 0.804152 -0.00173149 -0.594421 0.802112 -0.00346295 -0.597164 0 -0.941163 -0.337952 0 -0.917318 -0.398154 0 -0.889502 -0.45693 0 -0.842269 -0.539057 0 -0.850264 -0.526356 0 -0.788248 -0.615358 0 -0.737221 -0.675652 0 -0.609943 -0.792445 0 -0.531774 -0.846886 0 -0.307068 -0.951687 0 -0.153534 -0.988143 -2.08333e-006 -0.932545 -0.361053 -1.1298e-006 -0.932546 -0.361052 -8.38498e-007 -0.911415 -0.411489 -1.41969e-007 -0.887483 -0.46084 -8.28317e-008 -0.848505 -0.529187 0 -0.83555 -0.549415 -2.6107e-007 -0.732363 -0.680915 -5.81988e-007 -0.610045 -0.792367 -5.81988e-007 -0.532105 -0.846678 -3.24697e-007 -0.309279 -0.950971 0 -0.157612 -0.987501 0 -0.00580443 -0.999983 -0.675924 -0.693611 -0.249061 -0.679424 -0.687479 -0.256429 -0.681189 -0.669182 -0.296947 -0.681775 -0.648557 -0.338462 -0.681325 -0.617946 -0.39235 -0.678241 -0.618793 -0.39634 -0.687961 -0.534905 -0.490496 -0.685447 -0.570738 -0.452129 -0.690755 -0.384868 -0.612155 -0.689334 -0.442177 -0.573845 -0.691219 -0.111448 -0.714 -0.695502 -0.221519 -0.683525 -0.675922 0 -0.736973 -0.679407 -0.0021202 -0.733758 0.675929 -0.693606 -0.24906 0.681193 -0.669178 -0.296945 0.679428 -0.687476 -0.256426 0.681779 -0.648554 -0.33846 0.681329 -0.617943 -0.392347 0.678245 -0.61879 -0.396337 0.687965 -0.534902 -0.490494 0.685451 -0.570735 -0.452127 0.69076 -0.384866 -0.612151 0.689338 -0.442175 -0.573842 0.691223 -0.111447 -0.713996 0.695507 -0.221518 -0.683521 0.675927 0 -0.736969 0.679411 -0.00212019 -0.733755 0 -0.941167 -0.337942 0 -0.348521 -0.937301 0 -0.160224 -0.987081 0 -0.255138 -0.966905 0 -0.524271 -0.851551 0 -0.606487 -0.795094 -2.0833e-006 -0.932545 -0.361053 -1.12979e-006 -0.932546 -0.361052 -8.38488e-007 -0.911415 -0.411489 -1.41968e-007 -0.887483 -0.46084 -8.28308e-008 -0.848505 -0.529187 0 -0.83555 -0.549415 0 -0.779357 -0.62658 -2.61073e-007 -0.732363 -0.680915 -5.81995e-007 -0.610045 -0.792367 -5.81994e-007 -0.532105 -0.846678 -3.24701e-007 -0.309279 -0.950971 -0.991541 -0.122159 -0.0438631 -0.991495 -0.121937 -0.0454939 -0.972419 -0.111662 -0.204774 -0.947447 -0.187395 -0.259281 -0.882885 -0.227151 -0.410995 -0.834266 -0.400472 -0.378975 -0.738732 -0.45746 -0.49498 -0.700504 -0.539633 -0.467001 -0.70262 -0.378742 -0.602394 -0.70122 -0.435167 -0.564731 -0.703073 -0.10964 -0.702615 -0.707295 -0.217923 -0.672491 -0.687991 0 -0.72572 -0.691431 -0.0020885 -0.72244 0.991541 -0.122159 -0.0438631 0.972419 -0.111661 -0.204774 0.991495 -0.121937 -0.0454937 0.947447 -0.187393 -0.259284 0.882885 -0.227148 -0.410995 0.834267 -0.400471 -0.378974 0.738733 -0.457461 -0.494978 0.700504 -0.539635 -0.466998 0.702621 -0.378742 -0.602394 0.70122 -0.435166 -0.564731 0.703075 -0.109639 -0.702613 0.707295 -0.217922 -0.672491 0.687995 0 -0.725716 0.691433 -0.00208716 -0.722438 0 -0.348521 -0.937301 0 -0.524271 -0.851551 0 -0.606487 -0.795094 0 -0.531774 -0.846886 -0.99154 -0.122161 -0.0438641 -0.991494 -0.12194 -0.045495 -0.972418 -0.111664 -0.204778 -0.947445 -0.187397 -0.259289 -0.882881 -0.227152 -0.411003 -0.834262 -0.400477 -0.37898 -0.738727 -0.457463 -0.494985 -0.700496 -0.539638 -0.467008 -0.70262 -0.378742 -0.602394 -0.701216 -0.435165 -0.564736 -0.703072 -0.109641 -0.702616 -0.707295 -0.217924 -0.67249 -0.687986 0 -0.725724 -0.691429 -0.00209003 -0.722441 0.993998 -0.102963 -0.0369706 0.979663 -0.0944036 -0.177057 0.993965 -0.102778 -0.0383456 0.961399 -0.159912 -0.22392 0.912518 -0.196946 -0.358502 0.872419 -0.35531 -0.335618 0.792625 -0.414708 -0.446948 0.759476 -0.49189 -0.425722 0.761382 -0.345106 -0.548816 0.760119 -0.396648 -0.514673 0.761779 -0.0997335 -0.640114 0.765582 -0.198231 -0.612037 0.748156 0 -0.663523 0.751275 -0.00190516 -0.659986 0 -0.932545 -0.361053 0 -0.911414 -0.41149 0 -0.887482 -0.460842 0 -0.848505 -0.529188 0 -0.779357 -0.62658 0 -0.732363 -0.680915 0 -0.610045 -0.792367 0 -0.532106 -0.846678 0 -0.30928 -0.950971 0 -0.157612 -0.987501 0 0.945054 -0.326915 -5.43989e-008 -0.609945 -0.792444 0 -0.941162 -0.337956 0 -0.917316 -0.398159 0 -0.8895 -0.456936 0 -0.850264 -0.526357 -9.39514e-008 -0.788251 -0.615354 -3.94675e-008 -0.842272 -0.539052 -9.39514e-008 -0.73722 -0.675653 0 -0.307082 -0.951683 0 -0.153541 -0.988142 -2.59226e-008 -0.609945 -0.792444 0 -0.917316 -0.398159 0 -0.8895 -0.456936 -4.47705e-008 -0.788251 -0.615354 -1.88074e-008 -0.842272 -0.539052 -4.47705e-008 -0.73722 -0.675653 -0.812422 -0.548764 -0.197052 -0.814078 -0.544134 -0.202966 -0.813904 -0.530963 -0.235879 -0.812694 -0.516479 -0.269772 -0.80947 -0.499815 -0.308129 -0.810751 -0.491437 -0.318076 -0.812835 -0.442598 -0.37869 -0.814083 -0.439083 -0.380098 -0.815121 -0.308361 -0.490399 -0.814236 -0.354362 -0.459834 -0.817378 -0.131958 -0.560786 -0.816353 -0.132886 -0.562057 -0.804152 -0.00173147 -0.594421 -0.802112 -0.00346292 -0.597164 0 -0.941163 -0.337952 0 -0.889503 -0.45693 0 -0.788248 -0.615358 0 -0.609943 -0.792445 -2.61073e-007 -0.732363 -0.680915 0.675924 -0.69361 -0.249061 0.681189 -0.669182 -0.296946 0.679424 -0.687479 -0.256428 0.681775 -0.648557 -0.338462 0.681325 -0.617946 -0.392349 0.678241 -0.618793 -0.396339 0.687961 -0.534905 -0.490496 0.685447 -0.570738 -0.452129 0.690756 -0.384868 -0.612154 0.689334 -0.442177 -0.573845 0.691219 -0.111448 -0.714 0.695502 -0.221519 -0.683524 0.675922 0 -0.736973 0.679407 -0.0021202 -0.733758 -0.991541 -0.12216 -0.0438636 -0.991494 -0.121939 -0.0454945 -0.972419 -0.111663 -0.204776 -0.947446 -0.187395 -0.259286 -0.882883 -0.22715 -0.410999 -0.834264 -0.400474 -0.378977 -0.73873 -0.457462 -0.494981 -0.7005 -0.539637 -0.467003 -0.701218 -0.435166 -0.564734 -0.703073 -0.10964 -0.702615 -0.707295 -0.217923 -0.67249 -0.691431 -0.00208859 -0.722439 0.993998 -0.102962 -0.0369701 0.979663 -0.0944023 -0.177055 0.993965 -0.102776 -0.0383451 0.9614 -0.15991 -0.223917 0.91252 -0.196944 -0.358498 0.872422 -0.355307 -0.335615 0.792629 -0.414705 -0.446944 0.759481 -0.491886 -0.425719 0.761387 -0.345103 -0.548812 0.760124 -0.396645 -0.514669 0.761782 -0.0997337 -0.640111 0.765586 -0.198231 -0.612031 0.751278 -0.0019067 -0.659983 0 -0.835549 -0.549415 0 -0.779357 -0.62658 0 -0.846292 -0.532719 0 -0.73722 -0.675653 0 -0.788251 -0.615354 -0.811229 0.584729 0 -0.896344 0.443359 0 -0.980199 0.198014 0 -0.995087 0.0990071 0 -0.584739 -0.811221 0 -0.443363 -0.896342 0 -0.198011 -0.9802 0 -0.0990056 -0.995087 0 0.0990056 0.995087 0 0.443363 0.896342 0 0.198011 0.9802 0 0.584739 0.811221 0 0.995087 -0.0990071 0 0.896344 -0.443359 0 0.980199 -0.198014 0 0.811229 -0.584729 0 0 0 1 -0.896343 -0.443361 0 -0.584734 -0.811225 0 -0.811225 -0.584734 0 -0.44336 -0.896343 0 -0.44336 0.896343 0 -0.811225 0.584734 0 -0.584734 0.811225 0 -0.896343 0.443361 0 -0.198012 -0.9802 0 0 -1 0 -0.0990061 -0.995087 0 0.896343 -0.443361 0 0.811225 -0.584734 0 0.584734 -0.811225 0 0.44336 -0.896343 0 0.44336 0.896343 0 0.584734 0.811225 0 0.811225 0.584734 0 0.896343 0.443361 0 -0.443363 0.896342 0 -0.584739 0.811221 0 -0.811229 0.584729 0 -0.896344 0.443359 0 -0.896344 -0.443359 0 -0.811229 -0.584729 0 -0.443363 -0.896342 0 0 1 0 0.980199 0.198014 0 0.995087 0.0990071 0 0.198011 -0.9802 0 0.0990056 -0.995087 0 -0.443363 0.896342 0 -0.896344 -0.443359 0 -0.811229 -0.584729 0 -0.980199 0.198013 0 -0.995087 0.0990065 0 0.198012 -0.9802 0 0.0990061 -0.995087 0 0.980199 0.198013 0 0.995087 0.0990065 0 -0.0990056 0.995087 0 -0.198011 0.9802 0 -0.995087 -0.0990071 0 -0.980199 -0.198014 0 0.811229 0.584729 0 0.896344 0.443359 0 0.584739 -0.811221 0 0.443363 -0.896342 0 0.811229 0.584729 0 0.896344 0.443359 0 0.443363 -0.896342 0 -0.995087 -0.0990065 0 -0.980199 -0.198013 0 0.995087 -0.0990065 0 0.980199 -0.198013 0 0.0990061 0.995087 0 0.198012 0.9802 0 0.443363 0.896342 0 0.896344 -0.443359 0 0.811229 -0.584729 0 -0.0990061 0.995087 0 -0.198012 0.9802 0</float_array>
                    <technique_common>
                        <accessor count="349" source="#Geometry-mesh037-normals-array" stride="3">
                            <param name="X" type="float" />
                            <param name="Y" type="float" />
                            <param name="Z" type="float" />
                        </accessor>
                    </technique_common>
                </source>
                <source id="Geometry-mesh037-uvSet1" name="uvSet1">
                    <float_array id="Geometry-mesh037-uvSet1-array" count="736">0.535484 0.902996 0.505062 0.902996 0.535484 0.90917 0.505062 0.90917 0.505062 0.895558 0.535483 0.895558 0.535483 0.887106 0.505062 0.887106 0.535483 0.87662 0.505062 0.876621 0.535484 0.868481 0.505062 0.868481 0.535484 0.847094 0.505062 0.847094 0.497687 0.903201 0.500205 0.903908 0.497687 0.899118 0.500205 0.899764 0.497687 0.892668 0.500205 0.893182 0.497687 0.884992 0.500205 0.885315 0.497687 0.87647 0.500205 0.876454 0.497687 0.870124 0.500205 0.869667 0.497687 0.852263 0.500205 0.851638 0.565905 0.90917 0.570762 0.903909 0.565905 0.902996 0.570762 0.899764 0.565905 0.895558 0.570762 0.893182 0.565904 0.887106 0.570762 0.885315 0.565905 0.87662 0.570762 0.876454 0.565905 0.868481 0.570762 0.869667 0.565905 0.847094 0.570762 0.851638 0.58329 0.907761 0.58329 0.901748 0.728126 0.907759 0.728126 0.901745 0.728126 0.894616 0.58329 0.894623 0.58329 0.886372 0.728126 0.886365 0.58329 0.876164 0.728126 0.87616 0.58329 0.868185 0.728126 0.868182 0.58329 0.846668 0.728126 0.846668 0.735922 0.90551 0.732624 0.905647 0.735922 0.901023 0.732624 0.901052 0.735922 0.89394 0.732624 0.894057 0.735922 0.885493 0.732624 0.88555 0.735922 0.876084 0.732625 0.876078 0.735922 0.869089 0.732625 0.868808 0.735922 0.849521 0.732624 0.849521 0.578769 0.905651 0.578821 0.901054 0.578841 0.894044 0.578857 0.885583 0.578882 0.876065 0.578878 0.868813 0.578703 0.849521 0.523836 0.915533 0.52288 0.919637 0.502083 0.915433 0.503028 0.919568 0.501842 0.949411 0.523986 0.949533 0.523832 0.962881 0.501964 0.962771 0.523527 0.971194 0.502251 0.971105 0.523451 0.977554 0.502311 0.977466 0.523688 0.99481 0.502044 0.994714 0.575479 0.905513 0.575515 0.901019 0.575555 0.893951 0.575582 0.885472 0.575626 0.876078 0.575571 0.869099 0.575379 0.849521 0.530722 0.953371 0.529365 0.955597 0.528131 0.959737 0.527128 0.965218 0.526827 0.972035 0.526765 0.977522 0.527102 0.992485 0.495095 0.953181 0.496444 0.95542 0.49767 0.959577 0.498664 0.965077 0.498949 0.971904 0.499 0.977402 0.498633 0.99237 0.52288 0.919637 0.502083 0.915433 0.523986 0.949533 0.523832 0.962881 0.523527 0.971194 0.502251 0.971105 0.523451 0.977554 0.502311 0.977466 0.502044 0.994714 0.526827 0.972035 0.526765 0.977522 0.527102 0.992485 0.495095 0.953181 0.498949 0.971904 0.499 0.977402 0.57328 0.903201 0.57328 0.899118 0.57328 0.892668 0.57328 0.884992 0.57328 0.87647 0.57328 0.870124 0.57328 0.852263 0.498601 0.0986965 0.439191 0.0986965 0.498601 0.000184066 0.439191 0.000184066 0.498601 0.112894 0.439191 0.112784 0.498601 0.0985848 0.439191 0.0985848 0.439191 0.113028 0.379781 0.112918 0.379781 0.0986965 0.439191 0.0985848 0.379781 0.000184066 0.379781 0.0985848 0.535483 0.868481 0.535483 0.847094 0.535483 0.90917 0.535483 0.902996 0.535483 0.887106 0.439191 0.000184066 0.735906 0.0986965 0.676496 0.0986965 0.735906 0.000184066 0.676496 0.000184066 0.735906 0.112894 0.676496 0.112784 0.735906 0.0985848 0.676496 0.0985848 0.676496 0.113028 0.617086 0.112918 0.617086 0.0986965 0.676496 0.0985848 0.617086 0.000184066 0.617086 0.0985848 0.526387 0.112587 0.526387 0.227758 0.498782 0.112587 0.498782 0.227758 0.498761 0.492068 0.70896 0.492069 0.498761 0.836721 0.70896 0.836721 0.864483 0.961609 0.856556 0.961609 0.862568 0.937805 0.858471 0.937805 0.848628 0.961609 0.854374 0.937805 1.74167 0.97888 1.74162 0.958261 1.74274 0.97888 1.7427 0.958261 1.73907 0.97888 1.73907 0.958261 1.74012 0.97888 1.74012 0.958261 0.962577 0.97888 0.963626 0.97888 0.962577 0.958261 0.963626 0.958261 0.896396 0.97888 0.897471 0.97888 0.896352 0.958261 0.897427 0.958261 0.942459 0.937805 0.942459 0.961609 0.794968 0.937805 0.794968 0.961609 0.793158 0.978872 0.787002 0.978872 0.79315 0.958115 0.786993 0.958115 0.932172 0.978872 0.925995 0.978872 0.932178 0.958115 0.925995 0.958115 1.86448 0.961609 1.85656 0.961609 1.86257 0.937805 1.85847 0.937805 1.87241 0.961609 1.86666 0.937805 1.73761 0.937805 1.95885 0.937805 1.73761 0.961609 1.95885 0.961609 1.84863 0.961609 1.85437 0.937805 0.999817 0.961609 0.77858 0.961609 0.999817 0.937805 0.77858 0.937805 0.968184 0.978872 0.786975 0.978872 0.968175 0.958115 0.786966 0.958115 1.79316 0.978872 1.79315 0.958115 1.787 0.978872 1.78699 0.958115 1.93217 0.978872 1.93218 0.958115 1.92599 0.978872 1.92599 0.958115 1.47492 0.97888 1.47488 0.958261 1.47604 0.97888 1.476 0.958261 1.63185 0.97888 1.6318 0.958261 1.63296 0.97888 1.63292 0.958261 0.472019 0.97888 0.696952 0.97888 0.472019 0.958261 0.696952 0.958261 0.477116 0.97888 0.630771 0.97888 0.477072 0.958261 0.630727 0.958261 0.474495 0.97888 0.699428 0.97888 0.474495 0.958261 0.699428 0.958261 0.526387 0.492069 0.498782 0.492069 0.736402 0.492069 0.736402 0.836721 0.526387 0.836721 1.74055 0.97888 1.7405 0.958261 1.89747 0.97888 1.89743 0.958261 1.89859 0.97888 1.89854 0.958261 0.737644 0.97888 0.737644 0.958261 0.742741 0.97888 0.742697 0.958261 0.74012 0.97888 0.965053 0.97888 0.74012 0.958261 0.965053 0.958261 0.974102 0.978872 0.974093 0.958115 0.920066 0.978872 0.920059 0.958115 1.9741 0.978872 1.97409 0.958115 1.96818 0.978872 1.96817 0.958115 1.92007 0.978872 1.92006 0.958115 1.69695 0.97888 1.69695 0.958261 1.698 0.97888 1.698 0.958261 1.63077 0.97888 1.63073 0.958261 1.47449 0.97888 1.47449 0.958261 1.69943 0.97888 1.69943 0.958261 0.476041 0.97888 0.475997 0.958261 0.473446 0.97888 0.473446 0.958261 0.736808 0.836721 0.736808 0.492069 0.70896 0.227758 0.736808 0.227758 0.70896 0.112587 0.498761 0.112587 0.498761 0.227758 1.96258 0.97888 1.96258 0.958261 1.96363 0.97888 1.96363 0.958261 1.8964 0.97888 1.89635 0.958261 1.96505 0.97888 1.96505 0.958261 0.741666 0.97888 0.741622 0.958261 0.739071 0.97888 0.739071 0.958261 0.872411 0.961609 0.866665 0.937805 0.799081 0.978872 0.799073 0.958115 1.94246 0.937805 1.94246 0.961609 1.79497 0.937805 1.79497 0.961609 1.78698 0.978872 1.78697 0.958115 1.79908 0.978872 1.79907 0.958115 1.97554 0.978872 1.97555 0.958115 1.79298 0.978872 1.793 0.958115 1.47712 0.97888 1.47707 0.958261 1.47202 0.97888 1.47202 0.958261 0.474923 0.97888 0.474879 0.958261 0.631846 0.97888 0.632963 0.97888 0.631802 0.958261 0.63292 0.958261 0.498782 0.836721 0.736808 0.112587 0.736402 0.112587 0.736402 0.227758 1.73764 0.97888 1.73764 0.958261 0.740548 0.97888 0.740504 0.958261 0.898588 0.97888 0.898545 0.958261 0.792984 0.978872 0.787032 0.978872 0.792997 0.958115 0.787039 0.958115 0.975541 0.978872 0.975554 0.958115 1.78703 0.978872 1.78704 0.958115 1.47345 0.97888 1.47345 0.958261 0.698001 0.97888 0.698001 0.958261</float_array>
                    <technique_common>
                        <accessor count="368" source="#Geometry-mesh037-uvSet1-array" stride="2">
                            <param name="S" type="float" />
                            <param name="T" type="float" />
                        </accessor>
                    </technique_common>
                </source>
                <vertices id="Geometry-mesh037-vertices">
                    <input semantic="POSITION" source="#Geometry-mesh037-positions" />
                </vertices>
                <polylist count="640" material="Material-lab_set">
                    <input semantic="VERTEX" source="#Geometry-mesh037-vertices" offset="0" />
                    <input semantic="NORMAL" source="#Geometry-mesh037-normals" offset="1" />
                    <input semantic="TEXCOORD" source="#Geometry-mesh037-uvSet1" offset="2" set="0" />
                    <vcount>3 3 3 3 3 3 3 3 3 3 3 3 3 3 3 3 3 3 3 3 3 3 3 3 3 3 3 3 3 3 3 3 3 3 3 3 3 3 3 3 3 3 3 3 3 3 3 3 3 3 3 3 3 3 3 3 3 3 3 3 3 3 3 3 3 3 3 3 3 3 3 3 3 3 3 3 3 3 3 3 3 3 3 3 3 3 3 3 3 3 3 3 3 3 3 3 3 3 3 3 3 3 3 3 3 3 3 3 3 3 3 3 3 3 3 3 3 3 3 3 3 3 3 3 3 3 3 3 3 3 3 3 3 3 3 3 3 3 3 3 3 3 3 3 3 3 3 3 3 3 3 3 3 3 3 3 3 3 3 3 3 3 3 3 3 3 3 3 3 3 3 3 3 3 3 3 3 3 3 3 3 3 3 3 3 3 3 3 3 3 3 3 3 3 3 3 3 3 3 3 3 3 3 3 3 3 3 3 3 3 3 3 3 3 3 3 3 3 3 3 3 3 3 3 3 3 3 3 3 3 3 3 3 3 3 3 3 3 3 3 3 3 3 3 3 3 3 3 3 3 3 3 3 3 3 3 3 3 3 3 3 3 3 3 3 3 3 3 3 3 3 3 3 3 3 3 3 3 3 3 3 3 3 3 3 3 3 3 3 3 3 3 3 3 3 3 3 3 3 3 3 3 3 3 3 3 3 3 3 3 3 3 3 3 3 3 3 3 3 3 3 3 3 3 3 3 3 3 3 3 3 3 3 3 3 3 3 3 3 3 3 3 3 3 3 3 3 3 3 3 3 3 3 3 3 3 3 3 3 3 3 3 3 3 3 3 3 3 3 3 3 3 3 3 3 3 3 3 3 3 3 3 3 3 3 3 3 3 3 3 3 3 3 3 3 3 3 3 3 3 3 3 3 3 3 3 3 3 3 3 3 3 3 3 3 3 3 3 3 3 3 3 3 3 3 3 3 3 3 3 3 3 3 3 3 3 3 3 3 3 3 3 3 3 3 3 3 3 3 3 3 3 3 3 3 3 3 3 3 3 3 3 3 3 3 3 3 3 3 3 3 3 3 3 3 3 3 3 3 3 3 3 3 3 3 3 3 3 3 3 3 3 3 3 3 3 3 3 3 3 3 3 3 3 3 3 3 3 3 3 3 3 3 3 3 3 3 3 3 3 3 3 3 3 3 3 3 3 3 3 3 3 3 3 3 3 3 3 3 3 3 3 3 3 3 3 3 3 3 3 3 3 3 3 3 3 3 3 3 3 3 3 3 3 3 3 3 3 3 3 3 3 3 3 3 3 3 3 3 3 3 3 3 3 3 3 3 3 3 3 3 3 3 3 3 3 3 3 3 3 3 3 3 3 3 3 3 3 3 3 3 3 3 3 3 3 3 3 3 3 3 3 3 3 3 3 3 3 3 3 3 3 3 3 3 3 3 3 3 3</vcount>
                    <p>6 0 0 15 0 1 1 1 2 1 1 2 15 0 1 14 1 3 16 2 4 15 0 1 5 2 5 5 2 5 15 0 1 6 0 0 3 3 6 17 4 7 5 2 5 5 2 5 17 4 7 16 2 4 4 5 8 18 6 9 3 3 6 3 3 6 18 6 9 17 4 7 2 7 10 19 8 11 4 5 8 4 5 8 19 8 11 18 6 9 0 9 12 20 9 13 2 7 10 2 7 10 20 9 13 19 8 11 28 10 14 29 11 15 31 12 16 31 12 16 29 11 15 30 13 17 31 12 16 30 13 17 33 14 18 33 14 18 30 13 17 32 15 19 33 14 18 32 15 19 35 16 20 35 16 20 32 15 19 34 17 21 35 16 20 34 17 21 37 18 22 37 18 22 34 17 21 36 19 23 37 18 22 36 19 23 39 20 24 39 20 24 36 19 23 38 21 25 39 20 24 38 21 25 41 22 26 41 22 26 38 21 25 40 23 27 7 24 28 21 25 29 8 26 30 8 26 30 21 25 29 22 27 31 8 26 30 22 27 31 9 28 32 9 28 32 22 27 31 23 29 33 9 28 32 23 29 33 10 30 34 10 30 34 23 29 33 24 31 35 11 32 36 10 30 34 25 33 37 25 33 37 10 30 34 24 31 35 12 34 38 11 32 36 26 35 39 26 35 39 11 32 36 25 33 37 12 34 38 26 35 39 13 36 40 13 36 40 26 35 39 27 37 41 14 38 3 15 39 1 29 40 15 29 40 15 15 39 1 30 41 17 15 39 1 16 42 4 30 41 17 30 41 17 16 42 4 32 43 19 16 42 4 17 44 7 32 43 19 32 43 19 17 44 7 34 45 21 18 46 9 36 47 23 17 44 7 17 44 7 36 47 23 34 45 21 19 48 11 38 49 25 18 46 9 18 46 9 38 49 25 36 47 23 19 48 11 20 50 13 38 49 25 38 49 25 20 50 13 40 51 27 42 52 42 43 53 43 49 52 44 49 52 44 43 53 43 50 54 45 51 55 46 50 54 45 44 56 47 44 56 47 50 54 45 43 53 43 44 56 47 45 57 48 51 55 46 51 55 46 45 57 48 52 58 49 45 57 48 46 59 50 52 58 49 52 58 49 46 59 50 53 60 51 46 59 50 47 61 52 53 60 51 53 60 51 47 61 52 54 62 53 47 61 52 48 9 54 54 62 53 54 62 53 48 9 54 55 9 55 63 63 56 64 64 57 66 65 58 66 65 58 64 64 57 65 66 59 66 65 58 65 66 59 68 67 60 68 67 60 65 66 59 67 68 61 68 67 60 67 68 61 70 16 62 70 16 62 67 68 61 69 69 63 70 16 62 69 69 63 72 70 64 72 70 64 69 69 63 71 71 65 72 70 64 71 71 65 74 72 66 74 72 66 71 71 65 73 73 67 74 72 66 73 73 67 76 74 68 76 74 68 73 73 67 75 74 69 42 75 42 56 76 70 43 77 43 43 77 43 56 76 70 57 78 71 43 77 43 57 78 71 44 79 47 44 79 47 57 78 71 58 80 72 45 81 48 44 79 47 59 82 73 59 82 73 44 79 47 58 80 72 46 83 50 45 81 48 60 84 74 60 84 74 45 81 48 59 82 73 47 85 52 46 83 50 61 86 75 61 86 75 46 83 50 60 84 74 48 87 54 47 85 52 62 88 76 62 88 76 47 85 52 61 86 75 49 89 44 50 90 45 64 91 57 64 91 57 50 90 45 65 92 59 50 90 45 51 93 46 65 92 59 65 92 59 51 93 46 67 94 61 52 95 49 69 96 63 51 93 46 51 93 46 69 96 63 67 94 61 53 97 51 71 98 65 52 95 49 52 95 49 71 98 65 69 96 63 54 99 53 73 100 67 53 97 51 53 97 51 73 100 67 71 98 65 55 101 55 75 102 69 54 99 53 54 99 53 75 102 69 73 100 67 77 103 77 78 103 78 84 103 79 84 103 79 78 103 78 85 103 80 86 104 81 85 105 80 79 106 82 79 106 82 85 105 80 78 105 78 79 106 82 80 107 83 86 104 81 86 104 81 80 107 83 87 108 84 80 107 83 81 59 85 87 108 84 87 108 84 81 59 85 88 60 86 81 59 85 82 61 87 88 60 86 88 60 86 82 61 87 89 62 88 82 61 87 83 9 89 89 62 88 89 62 88 83 9 89 90 9 90 56 109 70 91 110 91 57 111 71 57 111 71 91 110 91 92 112 92 57 111 71 92 112 92 58 113 72 58 113 72 92 112 92 93 114 93 58 113 72 93 114 93 59 115 73 59 115 73 93 114 93 94 116 94 59 115 73 94 116 94 60 117 74 60 117 74 94 116 94 95 118 95 60 117 74 95 118 95 61 119 75 61 119 75 95 118 95 96 73 96 61 119 75 96 73 96 62 74 76 62 74 76 96 73 96 97 74 97 77 120 77 28 121 98 78 122 78 78 122 78 28 121 98 31 123 99 78 122 78 31 123 99 79 124 82 79 124 82 31 123 99 33 125 100 79 124 82 33 125 100 80 126 83 80 126 83 33 125 100 35 127 101 81 128 85 80 126 83 37 129 102 37 129 102 80 126 83 35 127 101 82 130 87 81 128 85 39 131 103 39 131 103 81 128 85 37 129 102 83 132 89 82 130 87 41 133 104 41 133 104 82 130 87 39 131 103 84 134 79 85 135 80 91 136 105 91 136 105 85 135 80 92 137 106 85 135 80 86 138 81 92 137 106 92 137 106 86 138 81 93 139 107 86 138 81 87 140 84 93 139 107 93 139 107 87 140 84 94 141 108 88 142 86 95 143 109 87 140 84 87 140 84 95 143 109 94 141 108 89 144 88 96 145 110 88 142 86 88 142 86 96 145 110 95 143 109 90 146 90 97 147 111 89 144 88 89 144 88 97 147 111 96 145 110 98 103 77 99 103 112 105 103 113 105 103 113 99 103 112 106 103 80 107 148 81 106 105 80 100 106 114 100 106 114 106 105 80 99 105 112 100 106 114 101 149 115 107 148 81 107 148 81 101 149 115 108 150 84 101 149 115 102 59 116 108 150 84 108 150 84 102 59 116 109 151 117 102 59 116 103 61 118 109 151 117 109 151 117 103 61 118 110 62 119 103 61 118 104 9 89 110 62 119 110 62 119 104 9 89 111 9 120 98 152 77 63 153 98 99 154 112 99 154 112 63 153 98 66 155 99 99 154 112 66 155 99 100 156 114 100 156 114 66 155 99 68 157 100 100 156 114 68 157 100 101 158 115 101 158 115 68 157 100 70 159 101 102 160 116 101 158 115 72 161 121 72 161 121 101 158 115 70 159 101 103 162 118 102 160 116 74 163 122 74 163 122 102 160 116 72 161 121 104 164 89 103 162 118 76 165 123 76 165 123 103 162 118 74 163 122 105 166 113 106 167 80 112 168 124 112 168 124 106 167 80 113 169 106 106 167 80 107 170 81 113 169 106 113 169 106 107 170 81 114 171 107 107 170 81 108 172 84 114 171 107 114 171 107 108 172 84 115 173 108 109 174 117 116 175 125 108 172 84 108 172 84 116 175 125 115 173 108 110 176 119 117 177 126 109 174 117 109 174 117 117 177 126 116 175 125 111 178 120 118 179 111 110 176 119 110 176 119 118 179 111 117 177 126 21 180 29 112 180 127 22 181 31 22 181 31 112 180 127 113 182 128 22 181 31 113 182 128 23 183 33 23 183 33 113 182 128 114 15 129 23 183 33 114 15 129 24 184 35 24 184 35 114 15 129 115 185 130 24 184 35 115 185 130 25 186 37 25 186 37 115 185 130 116 187 131 25 186 37 116 187 131 26 188 39 26 188 39 116 187 131 117 189 132 26 188 39 117 189 132 27 74 41 27 74 41 117 189 132 118 74 133 121 9 134 123 9 135 119 9 136 119 9 136 123 9 135 124 9 137 120 190 138 122 190 139 121 190 140 121 190 140 122 190 139 123 190 141 122 190 142 128 190 143 123 190 135 123 190 135 128 190 143 129 190 144 124 9 137 123 9 145 130 9 146 130 9 146 123 9 145 129 9 147 129 9 134 126 9 135 130 9 136 130 9 136 126 9 135 127 9 137 128 190 138 125 190 139 129 190 140 129 190 140 125 190 139 126 190 141 125 190 142 131 190 143 126 190 135 126 190 135 131 190 143 132 190 144 127 9 137 126 9 145 133 9 146 133 9 146 126 9 145 132 9 147 12 8 38 13 9 40 139 7 148 139 7 148 13 9 40 138 9 149 11 191 36 12 8 38 141 5 8 141 5 8 12 8 38 139 7 148 7 192 28 8 193 30 136 192 150 136 192 150 8 193 30 137 194 151 9 195 32 10 196 34 142 197 5 142 197 5 10 196 34 140 198 152 10 196 34 11 191 36 140 198 152 140 198 152 11 191 36 141 5 8 142 197 5 137 194 151 9 195 32 9 195 32 137 194 151 8 193 30 155 199 38 156 9 40 145 200 148 145 200 148 156 9 40 143 9 149 154 201 36 155 199 38 147 5 8 147 5 8 155 199 38 145 200 148 150 1 28 151 202 30 144 1 150 144 1 150 151 202 30 149 203 151 152 195 32 153 204 34 148 205 5 148 205 5 153 204 34 146 206 152 153 204 34 154 201 36 146 206 152 146 206 152 154 201 36 147 5 8 148 205 5 149 203 151 152 195 32 152 195 32 149 203 151 151 202 30 171 10 14 172 11 15 174 12 16 174 12 16 172 11 15 173 13 17 174 12 16 173 13 17 176 14 18 176 14 18 173 13 17 175 15 19 176 14 18 175 15 19 178 16 20 178 16 20 175 15 19 177 17 21 178 16 20 177 17 21 180 18 22 180 18 22 177 17 21 179 19 23 180 18 22 179 19 23 182 20 24 182 20 24 179 19 23 181 21 25 182 20 24 181 21 25 184 22 26 184 22 26 181 21 25 183 23 27 150 207 28 164 208 29 151 209 30 151 209 30 164 208 29 165 210 31 151 209 30 165 210 31 152 211 32 152 211 32 165 210 31 166 212 33 152 211 32 166 212 33 153 213 34 153 213 34 166 212 33 167 214 35 154 215 36 153 213 34 168 216 37 168 216 37 153 213 34 167 214 35 155 217 38 154 215 36 169 218 39 169 218 39 154 215 36 168 216 37 155 217 38 169 218 39 156 219 40 156 219 40 169 218 39 170 220 41 157 38 3 158 39 1 172 40 15 172 40 15 158 39 1 173 41 17 158 39 1 159 42 4 173 41 17 173 41 17 159 42 4 175 43 19 159 42 4 160 44 7 175 43 19 175 43 19 160 44 7 177 45 21 161 46 9 179 47 23 160 44 7 160 44 7 179 47 23 177 45 21 162 48 11 181 49 25 161 46 9 161 46 9 181 49 25 179 47 23 162 48 11 163 50 13 181 49 25 181 49 25 163 50 13 183 51 27 185 221 42 186 53 43 192 221 44 192 221 44 186 53 43 193 222 45 194 55 46 193 222 45 187 56 47 187 56 47 193 222 45 186 53 43 187 56 47 188 223 48 194 55 46 194 55 46 188 223 48 195 58 49 188 223 48 189 224 50 195 58 49 195 58 49 189 224 50 196 151 51 189 224 50 190 61 52 196 151 51 196 151 51 190 61 52 197 62 53 190 61 52 191 9 54 197 62 53 197 62 53 191 9 54 198 9 55 206 63 56 207 64 57 209 65 58 209 65 58 207 64 57 208 66 59 209 65 58 208 66 59 211 67 60 211 67 60 208 66 59 210 68 61 211 67 60 210 68 61 213 16 62 213 16 62 210 68 61 212 225 63 213 16 62 212 225 63 215 117 64 215 117 64 212 225 63 214 118 65 215 117 64 214 118 65 217 119 66 217 119 66 214 118 65 216 73 67 217 119 66 216 73 67 219 74 68 219 74 68 216 73 67 218 74 69 185 75 42 199 76 70 186 77 43 186 77 43 199 76 70 200 78 71 186 77 43 200 78 71 187 79 47 187 79 47 200 78 71 201 80 72 188 81 48 187 79 47 202 82 73 202 82 73 187 79 47 201 80 72 189 83 50 188 81 48 203 84 74 203 84 74 188 81 48 202 82 73 190 85 52 189 83 50 204 86 75 204 86 75 189 83 50 203 84 74 191 87 54 190 85 52 205 88 76 205 88 76 190 85 52 204 86 75 192 226 44 193 227 45 207 228 57 207 228 57 193 227 45 208 229 59 193 227 45 194 230 46 208 229 59 208 229 59 194 230 46 210 231 61 195 232 49 212 233 63 194 230 46 194 230 46 212 233 63 210 231 61 196 234 51 214 235 65 195 232 49 195 232 49 214 235 65 212 233 63 197 236 53 216 237 67 196 234 51 196 234 51 216 237 67 214 235 65 198 238 55 218 239 69 197 236 53 197 236 53 218 239 69 216 237 67 220 103 77 221 103 78 227 103 79 227 103 79 221 103 78 228 103 80 229 104 81 228 105 80 222 106 82 222 106 82 228 105 80 221 105 78 222 106 82 223 107 83 229 104 81 229 104 81 223 107 83 230 108 84 223 107 83 224 59 85 230 108 84 230 108 84 224 59 85 231 60 86 224 59 85 225 61 87 231 60 86 231 60 86 225 61 87 232 62 88 225 61 87 226 9 89 232 62 88 232 62 88 226 9 89 233 9 90 199 109 70 234 110 91 200 111 71 200 111 71 234 110 91 235 112 92 200 111 71 235 112 92 201 113 72 201 113 72 235 112 92 236 114 93 201 113 72 236 114 93 202 115 73 202 115 73 236 114 93 237 116 94 202 115 73 237 116 94 203 117 74 203 117 74 237 116 94 238 118 95 203 117 74 238 118 95 204 119 75 204 119 75 238 118 95 239 73 96 204 119 75 239 73 96 205 74 76 205 74 76 239 73 96 240 74 97 220 120 77 171 121 98 221 122 78 221 122 78 171 121 98 174 123 99 221 122 78 174 123 99 222 124 82 222 124 82 174 123 99 176 125 100 222 124 82 176 125 100 223 126 83 223 126 83 176 125 100 178 127 101 224 128 85 223 126 83 180 129 102 180 129 102 223 126 83 178 127 101 225 130 87 224 128 85 182 131 103 182 131 103 224 128 85 180 129 102 226 132 89 225 130 87 184 133 104 184 133 104 225 130 87 182 131 103 227 134 79 228 135 80 234 136 105 234 136 105 228 135 80 235 137 106 228 135 80 229 138 81 235 137 106 235 137 106 229 138 81 236 139 107 229 138 81 230 140 84 236 139 107 236 139 107 230 140 84 237 141 108 231 142 86 238 143 109 230 140 84 230 140 84 238 143 109 237 141 108 232 144 88 239 145 110 231 142 86 231 142 86 239 145 110 238 143 109 233 146 90 240 147 111 232 144 88 232 144 88 240 147 111 239 145 110 241 103 77 242 103 112 248 103 113 248 103 113 242 103 112 249 103 80 250 148 81 249 105 80 243 106 114 243 106 114 249 105 80 242 105 112 243 106 114 244 149 115 250 148 81 250 148 81 244 149 115 251 150 84 244 149 115 245 59 116 251 150 84 251 150 84 245 59 116 252 151 117 245 59 116 246 61 118 252 151 117 252 151 117 246 61 118 253 62 119 246 61 118 247 9 89 253 62 119 253 62 119 247 9 89 254 9 120 241 240 77 206 241 98 242 242 112 242 242 112 206 241 98 209 243 99 242 242 112 209 243 99 243 244 114 243 244 114 209 243 99 211 245 100 243 244 114 211 245 100 244 246 115 244 246 115 211 245 100 213 247 101 245 160 116 244 246 115 215 248 121 215 248 121 244 246 115 213 247 101 246 249 118 245 160 116 217 250 122 217 250 122 245 160 116 215 248 121 247 132 89 246 249 118 219 251 123 219 251 123 246 249 118 217 250 122 248 252 113 249 253 80 255 254 124 255 254 124 249 253 80 256 255 106 249 253 80 250 256 81 256 255 106 256 255 106 250 256 81 257 257 107 250 256 81 251 258 84 257 257 107 257 257 107 251 258 84 258 259 108 252 260 117 259 261 125 251 258 84 251 258 84 259 261 125 258 259 108 253 262 119 260 263 126 252 260 117 252 260 117 260 263 126 259 261 125 254 178 120 261 264 111 253 262 119 253 262 119 261 264 111 260 263 126 164 180 29 255 180 127 165 181 31 165 181 31 255 180 127 256 182 128 165 181 31 256 182 128 166 183 33 166 183 33 256 182 128 257 265 129 166 183 33 257 265 129 167 266 35 167 266 35 257 265 129 258 185 130 167 266 35 258 185 130 168 186 37 168 186 37 258 185 130 259 187 131 168 186 37 259 187 131 169 188 39 169 188 39 259 187 131 260 73 132 169 188 39 260 73 132 170 23 41 170 23 41 260 73 132 261 23 133 268 190 142 265 190 143 269 190 135 269 190 135 265 190 143 266 190 144 270 9 153 269 9 145 267 9 146 267 9 146 269 9 145 266 9 147 272 9 154 263 9 155 273 9 156 273 9 156 263 9 155 264 9 157 271 190 158 262 190 159 272 190 160 272 190 160 262 190 159 263 190 161 262 190 162 274 190 163 263 190 155 263 190 155 274 190 163 275 190 164 264 9 157 263 9 165 276 9 166 276 9 166 263 9 165 275 9 167 275 9 134 269 9 135 276 9 136 276 9 136 269 9 135 270 9 153 274 190 138 268 190 139 275 190 140 275 190 140 268 190 139 269 190 141 280 0 151 158 0 1 279 192 2 279 192 2 158 0 1 157 192 3 159 267 4 158 0 1 285 267 5 285 267 5 158 0 1 280 0 151 283 268 152 160 269 7 285 267 5 285 267 5 160 269 7 159 267 4 284 5 8 161 6 9 283 268 152 283 268 152 161 6 9 160 269 7 282 7 10 162 8 11 284 5 8 284 5 8 162 8 11 161 6 9 281 9 149 163 9 13 282 7 10 282 7 10 163 9 13 162 8 11 288 9 168 296 9 169 135 9 170 294 9 171 135 9 170 296 9 169 300 9 172 292 9 173 299 9 174 291 9 175 299 9 174 292 9 173 305 9 176 304 9 177 326 9 178 325 9 179 326 9 178 304 9 177 314 9 180 306 9 177 321 9 181 318 9 179 321 9 181 306 9 177 312 270 182 343 271 183 316 272 184 344 273 185 316 272 184 343 271 183 309 274 186 352 275 187 317 276 188 353 277 189 317 276 188 352 275 187 321 278 190 318 279 191 336 280 192 337 281 193 336 280 192 318 279 191 323 282 194 326 283 195 345 284 196 346 285 197 345 284 196 326 283 195 329 286 180 330 286 177 348 286 181 347 286 179 348 286 181 330 286 177 345 286 198 328 286 199 339 286 200 334 286 201 339 286 200 328 286 199 307 287 202 306 288 203 333 289 204 332 290 205 333 289 204 306 288 203 304 291 206 305 292 207 330 293 208 331 294 209 330 293 208 305 292 207 357 9 210 356 9 211 312 9 212 311 9 213 312 9 212 356 9 211 359 9 214 357 9 210 316 9 215 312 9 212 316 9 215 357 9 210 322 9 216 315 9 217 354 9 218 358 9 219 354 9 218 315 9 217 371 286 211 373 286 220 352 286 213 353 286 221 352 286 213 373 286 220 365 286 222 329 286 223 349 286 224 348 286 225 349 286 224 329 286 223 314 295 226 354 296 227 335 297 228 355 296 229 335 297 228 354 296 227 357 298 230 361 299 231 356 300 232 360 301 233 356 300 232 361 299 231 367 302 234 371 303 235 368 304 236 372 305 237 368 304 236 371 303 235 377 306 238 398 307 239 378 308 240 399 309 241 378 308 240 398 307 239 376 310 242 407 311 243 375 274 244 408 312 245 375 274 244 407 311 243 386 313 246 385 278 247 396 313 248 392 280 249 396 313 248 385 278 247 384 314 250 387 282 251 395 315 252 401 284 253 395 315 252 387 282 251 388 316 254 391 296 255 404 317 256 405 296 257 404 317 256 391 296 255 289 9 258 286 9 259 296 9 169 294 9 171 296 9 169 286 9 259 300 9 260 299 9 261 289 9 258 290 9 262 289 9 258 299 9 261 304 9 177 303 9 180 325 9 179 324 9 181 325 9 179 303 9 180 323 9 198 320 9 200 302 9 199 313 9 201 302 9 199 320 9 200 311 318 263 342 307 264 312 270 182 343 271 183 312 270 182 342 307 264 310 319 265 351 320 266 309 274 267 352 275 268 309 274 267 351 320 266 322 313 269 321 278 190 340 313 270 336 280 192 340 313 270 321 278 190 320 314 271 323 282 194 339 315 272 345 284 196 339 315 272 323 282 194 324 316 273 327 296 274 348 317 275 349 296 276 348 317 275 327 296 274 333 286 176 332 286 177 338 286 178 337 286 179 338 286 178 332 286 177 306 288 277 314 295 226 332 290 278 335 297 228 332 290 278 314 295 226 305 292 207 302 321 279 331 294 209 328 322 280 331 294 209 302 321 279 368 9 210 366 9 214 310 9 212 308 9 215 310 9 212 366 9 214 356 9 211 358 9 220 311 9 213 315 9 221 311 9 213 358 9 220 364 9 218 369 9 219 327 9 216 317 9 217 327 9 216 369 9 219 360 286 211 361 286 210 342 286 213 343 286 212 342 286 213 361 286 210 361 286 210 363 286 214 343 286 212 344 286 215 343 286 212 363 286 214 340 286 216 355 286 218 341 286 217 362 286 219 341 286 217 355 286 218 356 300 281 360 301 282 358 323 283 362 324 284 358 323 283 360 301 282 368 304 236 372 305 237 366 325 285 370 326 286 366 325 285 372 305 237 379 327 287 397 328 288 377 306 289 398 307 290 377 306 289 397 328 288 374 329 291 406 330 292 376 310 242 407 311 243 376 310 242 406 330 292 381 276 293 409 277 294 391 296 295 405 296 296 391 296 295 409 277 294 383 331 297 384 314 250 394 332 298 395 315 252 394 332 298 384 314 250 389 333 299 388 316 254 403 334 300 404 317 256 403 334 300 388 316 254 277 9 301 291 9 175 287 9 302 292 9 173 287 9 302 291 9 175 292 9 173 297 9 303 287 9 302 295 9 304 287 9 302 297 9 303 293 9 305 297 9 303 298 9 306 301 9 307 298 9 306 297 9 303 306 9 177 307 9 176 318 9 179 319 9 178 318 9 179 307 9 176 315 327 308 341 328 309 311 318 310 342 307 311 311 318 310 341 328 309 308 329 312 350 330 313 310 319 265 351 320 266 310 319 265 350 330 313 317 276 188 353 277 189 327 296 314 349 296 315 327 296 314 353 277 189 319 335 316 320 314 271 338 336 317 339 315 272 338 336 317 320 314 271 325 333 318 324 316 273 347 337 319 348 317 275 347 337 319 324 316 273 331 286 176 328 286 320 346 286 178 345 286 321 346 286 178 328 286 320 334 286 320 333 286 176 339 286 321 338 286 178 339 286 321 333 286 176 302 321 279 313 338 322 328 322 280 334 339 323 328 322 280 313 338 322 367 9 211 368 9 210 309 9 213 310 9 212 309 9 213 368 9 210 308 9 324 366 9 325 316 9 326 359 9 327 316 9 326 366 9 325 354 9 222 314 9 223 322 9 224 321 9 225 322 9 224 314 9 223 370 286 214 372 286 210 350 286 215 351 286 212 350 286 215 372 286 210 362 286 220 360 286 211 341 286 221 342 286 213 341 286 221 360 286 211 365 286 218 349 286 216 373 286 219 353 286 217 373 286 219 349 286 216 358 323 283 362 324 284 354 296 328 355 296 329 354 296 328 362 324 284 366 325 285 370 326 286 359 340 330 363 341 331 359 340 330 370 326 286 364 313 332 365 313 333 369 342 334 373 343 335 369 342 334 365 313 333 380 272 336 400 273 337 374 329 291 406 330 292 374 329 291 400 273 337 386 313 338 396 313 339 379 327 287 397 328 288 379 327 287 396 313 339 382 344 340 383 331 297 393 281 341 394 332 298 393 281 341 383 331 297 390 345 342 389 333 343 402 346 344 403 334 345 402 346 344 389 333 343 286 9 259 289 9 258 134 9 346 290 9 262 134 9 346 289 9 258 293 9 305 278 9 347 297 9 303 295 9 304 297 9 303 278 9 347 288 9 168 298 9 348 296 9 169 301 9 349 296 9 169 298 9 348 302 9 320 305 9 176 323 9 321 326 9 178 323 9 321 305 9 176 307 9 176 313 9 320 319 9 178 320 9 321 319 9 178 313 9 320 316 272 184 344 273 185 308 329 312 350 330 313 308 329 312 344 273 185 322 313 350 340 313 351 315 327 308 341 328 309 315 327 308 340 313 351 318 279 352 319 335 316 337 281 353 338 336 317 337 281 353 319 335 316 326 283 195 325 333 354 346 285 197 347 337 355 346 285 197 325 333 354 330 286 177 331 286 176 347 286 179 346 286 178 347 286 179 331 286 176 332 286 177 335 286 180 337 286 179 336 286 181 337 286 179 335 286 180 313 338 322 307 287 202 334 339 323 333 289 204 334 339 323 307 287 202 303 347 356 304 291 357 329 348 358 330 293 359 329 348 358 304 291 357 369 9 220 367 9 211 317 9 221 309 9 213 317 9 221 367 9 211 364 9 222 327 9 224 303 9 223 324 9 225 303 9 223 327 9 224 372 286 210 371 286 211 351 286 212 352 286 213 351 286 212 371 286 211 350 286 324 344 286 326 370 286 325 363 286 327 370 286 325 344 286 326 355 286 222 340 286 224 335 286 223 336 286 225 335 286 223 340 286 224 364 313 360 303 347 356 365 313 361 329 348 358 365 313 361 303 347 356 359 340 330 363 341 331 357 298 230 361 299 231 357 298 230 363 341 331 369 342 334 373 343 335 367 302 362 371 303 363 367 302 362 373 343 335 378 308 240 399 309 241 380 272 336 400 273 337 380 272 336 399 309 241 375 274 364 408 312 365 381 276 293 409 277 294 381 276 293 408 312 365 385 278 247 382 344 366 392 280 249 393 281 367 392 280 249 382 344 366 387 282 251 390 345 342 401 284 253 402 346 344 401 284 253 390 345 342</p>
                </polylist>
            </mesh>
        </geometry>
        <geometry id="Geometry-mesh028" name="glass__2_">
            <mesh>
                <source id="Geometry-mesh028-positions" name="positions">
                    <float_array id="Geometry-mesh028-positions-array" count="12">-1.75 1 0.0625 -1.75 2.25 0.0625 1.75 2.25 0.0625 1.75 1 0.0625</float_array>
                    <technique_common>
                        <accessor count="4" source="#Geometry-mesh028-positions-array" stride="3">
                            <param name="X" type="float" />
                            <param name="Y" type="float" />
                            <param name="Z" type="float" />
                        </accessor>
                    </technique_common>
                </source>
                <source id="Geometry-mesh028-normals" name="normals">
                    <float_array id="Geometry-mesh028-normals-array" count="3">0 0 -1</float_array>
                    <technique_common>
                        <accessor count="1" source="#Geometry-mesh028-normals-array" stride="3">
                            <param name="X" type="float" />
                            <param name="Y" type="float" />
                            <param name="Z" type="float" />
                        </accessor>
                    </technique_common>
                </source>
                <source id="Geometry-mesh028-uvSet1" name="uvSet1">
                    <float_array id="Geometry-mesh028-uvSet1-array" count="8">0.995682 0.591713 0.995682 0.967613 0.00749183 0.591713 0.00749195 0.967613</float_array>
                    <technique_common>
                        <accessor count="4" source="#Geometry-mesh028-uvSet1-array" stride="2">
                            <param name="S" type="float" />
                            <param name="T" type="float" />
                        </accessor>
                    </technique_common>
                </source>
                <vertices id="Geometry-mesh028-vertices">
                    <input semantic="POSITION" source="#Geometry-mesh028-positions" />
                </vertices>
                <polylist count="2" material="Material-glass">
                    <input semantic="VERTEX" source="#Geometry-mesh028-vertices" offset="0" />
                    <input semantic="NORMAL" source="#Geometry-mesh028-normals" offset="1" />
                    <input semantic="TEXCOORD" source="#Geometry-mesh028-uvSet1" offset="2" set="0" />
                    <vcount>3 3</vcount>
                    <p>0 0 0 1 0 1 3 0 2 2 0 3 3 0 2 1 0 1</p>
                </polylist>
            </mesh>
        </geometry>
    </library_geometries>
    <library_visual_scenes>
        <visual_scene id="DefaultScene">
            <node id="Geometry-mesh037Node" name="lab_window_large" type="NODE">
                <matrix sid="transform">1 0 0 0 0 1 0 0 0 0 1 0 0 0 0 1</matrix>
                <instance_geometry url="#Geometry-mesh037">
                    <bind_material>
                        <technique_common>
                            <instance_material symbol="Material-lab_set" target="#Material-lab_set">
                                <bind_vertex_input semantic="uvSet1" input_semantic="TEXCOORD" input_set="0" />
                            </instance_material>
                        </technique_common>
                    </bind_material>
                </instance_geometry>
                <node id="Geometry-mesh028Node" name="glass__2_" type="NODE">
                    <matrix sid="transform">1 0 0 0 0 1 0 0 0 0 1 0 0 0 0 1</matrix>
                    <instance_geometry url="#Geometry-mesh028">
                        <bind_material>
                            <technique_common>
                                <instance_material symbol="Material-glass" target="#Material-glass">
                                    <bind_vertex_input semantic="uvSet1" input_semantic="TEXCOORD" input_set="0" />
                                </instance_material>
                            </technique_common>
                        </bind_material>
                    </instance_geometry>
                </node>
            </node>
            <node id="groupLocator025Node" name="Texture_Group" type="NODE">
                <matrix sid="transform">1 0 0 0 0 1 0 0 0 0 1 0 0 0 0 1</matrix>
                <node id="txtrLocator003Node" name="pplant_glass_dirty__Image___Texture_" type="NODE">
                    <matrix sid="transform">1 0 0 0 0 1 0 0 0 0 1 0 0 0 0 1</matrix>
                </node>
                <node id="txtrLocator073Node" name="lab_linoleum_plain__Image___Texture_" type="NODE">
                    <matrix sid="transform">1 0 0 0 0 1 0 0 0 0 1 0 0 0 0 1</matrix>
                </node>
                <node id="txtrLocator028Node" name="lab_set_nrm__Image___Texture_" type="NODE">
                    <matrix sid="transform">1 0 0 0 0 1 0 0 0 0 1 0 0 0 0 1</matrix>
                </node>
                <node id="txtrLocator021Node" name="lab_set__Image___Texture_" type="NODE">
                    <matrix sid="transform">1 0 0 0 0 1 0 0 0 0 1 0 0 0 0 1</matrix>
                </node>
                <node id="txtrLocator001Node" name="_none___Texture_" type="NODE">
                    <matrix sid="transform">1 0 0 0 0 1 0 0 0 0 1 0 0 0 0 1</matrix>
                </node>
                <node id="txtrLocator017Node" name="vent_shaft_nrm__Image___Texture_" type="NODE">
                    <matrix sid="transform">1 0 0 0 0 1 0 0 0 0 1 0 0 0 0 1</matrix>
                </node>
                <node id="txtrLocator022Node" name="vent_shaft__Image___Texture_" type="NODE">
                    <matrix sid="transform">1 0 0 0 0 1 0 0 0 0 1 0 0 0 0 1</matrix>
                </node>
                <node id="txtrLocator027Node" name="vent_shaft_spec__Image___Texture_" type="NODE">
                    <matrix sid="transform">1 0 0 0 0 1 0 0 0 0 1 0 0 0 0 1</matrix>
                </node>
                <node id="txtrLocator025Node" name="door_hatch_slide_ventilation_nrm__Image___Texture_" type="NODE">
                    <matrix sid="transform">1 0 0 0 0 1 0 0 0 0 1 0 0 0 0 1</matrix>
                </node>
                <node id="txtrLocator033Node" name="door_hatch_slide_ventilation_white__Image___Texture_" type="NODE">
                    <matrix sid="transform">1 0 0 0 0 1 0 0 0 0 1 0 0 0 0 1</matrix>
                </node>
                <node id="txtrLocator037Node" name="vent_shaft_spec__Image___2___Texture_" type="NODE">
                    <matrix sid="transform">1 0 0 0 0 1 0 0 0 0 1 0 0 0 0 1</matrix>
                </node>
                <node id="txtrLocator072Node" name="checker_512__Image___Texture_" type="NODE">
                    <matrix sid="transform">1 0 0 0 0 1 0 0 0 0 1 0 0 0 0 1</matrix>
                </node>
                <node id="txtrLocator076Node" name="slidedoor_theta_small_nrm__Image___Texture_" type="NODE">
                    <matrix sid="transform">1 0 0 0 0 1 0 0 0 0 1 0 0 0 0 1</matrix>
                </node>
                <node id="txtrLocator080Node" name="slidedoor_theta_small__Image___Texture_" type="NODE">
                    <matrix sid="transform">1 0 0 0 0 1 0 0 0 0 1 0 0 0 0 1</matrix>
                </node>
                <node id="txtrLocator084Node" name="slidedoor_theta_small_spec__Image___Texture_" type="NODE">
                    <matrix sid="transform">1 0 0 0 0 1 0 0 0 0 1 0 0 0 0 1</matrix>
                </node>
                <node id="txtrLocator038Node" name="ceiling_shutter_large_nrm__Image___Texture_" type="NODE">
                    <matrix sid="transform">1 0 0 0 0 1 0 0 0 0 1 0 0 0 0 1</matrix>
                </node>
                <node id="txtrLocator043Node" name="ceiling_shutter_large__Image___Texture_" type="NODE">
                    <matrix sid="transform">1 0 0 0 0 1 0 0 0 0 1 0 0 0 0 1</matrix>
                </node>
                <node id="txtrLocator047Node" name="ceiling_shutter_large_spec__Image___Texture_" type="NODE">
                    <matrix sid="transform">1 0 0 0 0 1 0 0 0 0 1 0 0 0 0 1</matrix>
                </node>
                <node id="txtrLocator002Node" name="checker_512__Image___2___Texture_" type="NODE">
                    <matrix sid="transform">1 0 0 0 0 1 0 0 0 0 1 0 0 0 0 1</matrix>
                </node>
                <node id="txtrLocator007Node" name="slidedoor_theta_airlock_nrm__Image___Texture_" type="NODE">
                    <matrix sid="transform">1 0 0 0 0 1 0 0 0 0 1 0 0 0 0 1</matrix>
                </node>
                <node id="txtrLocator011Node" name="slidedoor_theta_airlock__Image___Texture_" type="NODE">
                    <matrix sid="transform">1 0 0 0 0 1 0 0 0 0 1 0 0 0 0 1</matrix>
                </node>
            </node>
        </visual_scene>
    </library_visual_scenes>
    <scene>
        <instance_visual_scene url="#DefaultScene" />
    </scene>
</COLLADA>
