<?xml version="1.0" encoding="utf-8" ?>
<COLLADA xmlns="http://www.collada.org/2005/11/COLLADASchema" version="1.4.1">
    <asset>
        <contributor>
            <author>illerulf</author>
            <authoring_tool>modo 601 [Build 48460], Microsoft Windows 7 Service Pack 1 (6.1.7601 Service Pack 1)</authoring_tool>
            <comments>Plug-in: [Build 48460]; Use Absolute Path: No; Merge Reference Items: No; Save Hidden Items: No; Save Cameras: No; Save Lights: No; Save Locators: Yes; Save Triangles as Triangles: No; Bake Matrices: Yes; Save Vertex Normals: Yes; Save UV Texture Coordinates: Yes; Save Vertex Colors: Yes; Save Vertex Weights: Yes; Save Animation: No; Sample Animation: No; Sample Animation Start: 0; Sample Animation End: 235; Save modo Profile: No; Save Maya Profile: No; Save 3ds Max Profile: No; Formatted Arrays: No;</comments>
            <source_data>file:///C:/Users/Aaron/AppData/Local/Temp/lab_walls.lxo</source_data>
        </contributor>
        <created>2013-11-06T10:16:59Z</created>
        <modified>2013-11-06T10:16:59Z</modified>
        <unit name="game" meter="1" />
        <up_axis>Y_UP</up_axis>
    </asset>
    <library_images>
        <image id="Image0001" name="Image0001">
            <init_from>file:///D:/Work/Dropbox/Frictional%20Games%20-%20Team/Aaron/models/static_objects/station/lab_set.psd</init_from>
        </image>
        <image id="Image0002" name="Image0002">
            <init_from>file:///D:/Work/Dropbox/Frictional%20Games%20-%20Team/Aaron/models/static_objects/station/lab_set_nrm.tga</init_from>
        </image>
    </library_images>
    <library_materials>
        <material id="Material-Default" name="Default">
            <instance_effect url="#Effect-Default" />
        </material>
        <material id="Material-lab_set" name="lab_set">
            <instance_effect url="#Effect-lab_set" />
        </material>
    </library_materials>
    <library_effects>
        <effect id="Effect-Default" name="Default">
            <profile_COMMON>
                <technique sid="common">
                    <phong>
                        <diffuse>
                            <color sid="diffuse_effect_rgb">0.8 0.8 0.8 1</color>
                        </diffuse>
                        <specular>
                            <color sid="specular_effect_rgb">0.2 0.2 0.2 1</color>
                        </specular>
                        <shininess>
                            <float sid="specular_effect_rgb">0.4</float>
                        </shininess>
                    </phong>
                </technique>
            </profile_COMMON>
        </effect>
        <effect id="Effect-lab_set" name="lab_set">
            <profile_COMMON>
                <newparam sid="Image0001-surface">
                    <surface type="2D">
                        <init_from>Image0001</init_from>
                        <format>A8R8G8B8</format>
                    </surface>
                </newparam>
                <newparam sid="Image0001-sampler">
                    <sampler2D>
                        <source>Image0001-surface</source>
                        <minfilter>LINEAR_MIPMAP_LINEAR</minfilter>
                        <magfilter>LINEAR</magfilter>
                    </sampler2D>
                </newparam>
                <technique sid="common">
                    <phong>
                        <diffuse>
                            <texture texture="Image0001-sampler" texcoord="uvSet1" />
                        </diffuse>
                        <specular>
                            <color sid="specular_effect_rgb">0.635 0.635 0.635 1</color>
                        </specular>
                        <shininess>
                            <float sid="specular_effect_rgb">64</float>
                        </shininess>
                        <reflective>
                            <color sid="reflective_effect_rgb">0 0 0 1</color>
                        </reflective>
                        <reflectivity>
                            <float sid="reflectivity_effect_float">0.5</float>
                        </reflectivity>
                        <transparent opaque="RGB_ZERO">
                            <color sid="transparent_effect_rgb">0 0 0 1</color>
                        </transparent>
                        <transparency>
                            <float sid="transparency_effect_float">1</float>
                        </transparency>
                    </phong>
                </technique>
            </profile_COMMON>
        </effect>
    </library_effects>
    <library_geometries>
        <geometry id="Geometry-mesh012" name="lab_convex_skinny">
            <mesh>
                <source id="Geometry-mesh012-positions" name="positions">
                    <float_array id="Geometry-mesh012-positions-array" count="468">-0.0634527 0 -0.0634527 -0.0634527 0.433376 -0.0634527 0.000786543 3.84053 0.212115 -0.0189505 3.84762 0.212115 -0.0405576 3.86055 0.212115 -0.0649033 3.87665 0.212115 -0.08977 3.90332 0.212115 -0.102561 3.92874 0.212115 -0.102561 4.00204 0.212115 0.00306082 3.86873 0.231712 -0.00962889 3.87364 0.231712 -0.0277687 3.88436 0.231712 -0.048088 3.89843 0.231712 -0.0666099 3.9183 0.231712 -0.0758597 3.93665 0.231712 -0.0761951 3.99445 0.231711 0.000786543 3.84925 0.509957 -0.0175636 3.85584 0.509957 -0.0376526 3.86786 0.509957 -0.0602878 3.88283 0.509957 -0.0834073 3.90763 0.509957 -0.0952984 3.93125 0.509957 -0.0952984 4.00204 0.509957 0.00306082 3.86873 0.468146 0.00306106 3.86873 0.489129 -0.00962889 3.87364 0.489129 -0.00962889 3.87364 0.468146 -0.0277687 3.88436 0.489129 -0.0277687 3.88436 0.468146 -0.048088 3.89843 0.489129 -0.048088 3.89843 0.468146 -0.0666099 3.9183 0.489129 -0.06661 3.9183 0.468146 -0.0758597 3.93665 0.489129 -0.0758597 3.93665 0.468146 -0.0761951 3.99445 0.489129 -0.0761951 3.99445 0.468146 0.000786543 3.70599 0.447995 -0.0175636 3.71258 0.447995 -0.0376526 3.83634 0.447995 -0.0602878 3.88283 0.447995 -0.0834073 3.90763 0.447995 -0.0952984 3.93125 0.447995 -0.0952984 4.00204 0.447995 0.000786543 3.70599 0.266135 -0.0175636 3.71258 0.266135 -0.0376526 3.83634 0.266135 -0.0602878 3.88283 0.266135 -0.0834073 3.90763 0.266135 -0.0952984 3.93125 0.266135 -0.0952984 4.00204 0.266135 0.00306082 3.86873 0.249193 -0.00962889 3.87364 0.249193 -0.0277687 3.88436 0.249193 -0.048088 3.89843 0.249193 -0.0666099 3.9183 0.249193 -0.0758597 3.93665 0.249193 -0.0761951 3.99445 0.249193 0 0.455326 1 -0.0634527 0.433376 1 -0.0634527 0 1 0 0.455326 0.5 -0.0634527 0.433376 0.5 -0.0634527 0 0.5 -0.0634528 0 -0.0634527 -0.0634527 0.433376 -0.0634527 0.212115 3.84053 0.000786572 0.212115 3.84762 -0.0189504 0.212115 3.86055 -0.0405577 0.212115 3.87665 -0.0649033 0.212115 3.90332 -0.08977 0.212115 3.92874 -0.102561 0.212115 4.00204 -0.102561 0.249193 3.86873 0.00306084 0.231712 3.86873 0.00306084 0.231712 3.87364 -0.00962894 0.249193 3.87364 -0.00962895 0.231712 3.88436 -0.0277687 0.249193 3.88436 -0.0277687 0.231712 3.89843 -0.0480879 0.249193 3.89843 -0.0480879 0.231712 3.9183 -0.06661 0.249193 3.9183 -0.0666099 0.231712 3.93665 -0.0758596 0.249193 3.93665 -0.0758597 0.231711 3.99445 -0.0761952 0.249193 3.99445 -0.0761952 0.509957 3.84925 0.000786572 0.509957 3.85584 -0.0175636 0.509957 3.86786 -0.0376526 0.509957 3.88283 -0.0602878 0.509957 3.90763 -0.0834073 0.509957 3.93125 -0.0952984 0.509957 4.00204 -0.0952984 0.489128 3.86873 0.00306086 0.489128 3.87364 -0.00962889 0.489128 3.88436 -0.0277687 0.489128 3.89843 -0.0480879 0.489129 3.9183 -0.0666099 0.489129 3.93665 -0.0758596 0.489128 3.99445 -0.0761952 0.269344 3.70599 0.000786572 0.269344 3.71258 -0.0175636 0.269344 3.83634 -0.0376526 0.269344 3.88283 -0.0602878 0.269344 3.90763 -0.0834073 0.269344 3.93125 -0.0952984 0.269344 4.00204 -0.0952984 0.447995 3.70599 0.000786572 0.447995 3.71258 -0.0175636 0.447995 3.83634 -0.0376526 0.447995 3.88283 -0.0602878 0.447995 3.90763 -0.0834073 0.447995 3.93125 -0.0952984 0.447995 4.00204 -0.0952984 0.468146 3.86873 0.00306098 0.468146 3.87364 -0.00962888 0.468146 3.88436 -0.0277687 0.468146 3.89843 -0.0480879 0.468146 3.9183 -0.0666099 0.468146 3.93665 -0.0758596 0.468146 3.99445 -0.0761952 1 0.455326 0 1 0.433376 -0.0634527 1 0 -0.0634527 0.5 0.455326 0 0.5 0.433376 -0.0634527 0.5 0 -0.0634527 0 0.455326 0 -0.102561 4.00204 -0.102081 0.000786543 3.84053 0 -0.102561 3.92874 -0.102081 -0.0649034 3.87665 -0.0647776 -0.08977 3.90332 -0.0894107 -0.0405576 3.86055 -0.0406605 -0.0189505 3.84762 -0.0192562 0 0.455326 0 0 3.87996 0 0 3.87996 1 0 0.455326 1 1 3.87996 0 1 0.455326 0 -0.0602878 3.88283 1 -0.0834073 3.90763 1 -0.0376526 3.86786 1 -0.0175636 3.85584 1 0.000786543 3.84925 1 -0.0952984 3.93125 1 -0.0952984 4.00204 1 1 3.88283 -0.0602878 1 3.86786 -0.0376526 1 3.85584 -0.0175636 1 3.84925 0.000786572 1 3.93125 -0.0952984 1 4.00204 -0.0952984 1 3.90763 -0.0834073</float_array>
                    <technique_common>
                        <accessor count="156" source="#Geometry-mesh012-positions-array" stride="3">
                            <param name="X" type="float" />
                            <param name="Y" type="float" />
                            <param name="Z" type="float" />
                        </accessor>
                    </technique_common>
                </source>
                <source id="Geometry-mesh012-normals" name="normals">
                    <float_array id="Geometry-mesh012-normals-array" count="690">-0.197053 -0.548766 0.81242 -0.202967 -0.544136 0.814076 -0.235881 -0.530965 0.813902 -0.269773 -0.516481 0.812693 -0.30813 -0.499817 0.809468 -0.318077 -0.49144 0.810749 -0.378692 -0.442601 0.812833 -0.380099 -0.439086 0.814081 -0.490402 -0.308362 0.815119 -0.459837 -0.354365 0.814233 -0.560787 -0.131959 0.817376 -0.56206 -0.132886 0.816352 -0.594422 -0.00173119 0.804151 -0.597164 -0.00346235 0.802111 -0.361055 -0.932545 4.10254e-006 -0.361052 -0.932546 2.05127e-006 -0.411488 -0.911415 1.37162e-006 -0.460839 -0.887484 0 -0.529186 -0.848506 0 -0.549415 -0.83555 0 -0.62658 -0.779357 0 -0.680915 -0.732362 1.39239e-006 -0.792368 -0.610044 3.10396e-006 -0.846678 -0.532105 3.10396e-006 -0.950971 -0.30928 1.73173e-006 -0.987501 -0.157612 0 -0.999983 -0.0058034 0 -0.24906 -0.693606 -0.675929 -0.296944 -0.669178 -0.681193 -0.256426 -0.687476 -0.679429 -0.338459 -0.648554 -0.681779 -0.392347 -0.617944 -0.681329 -0.396337 -0.61879 -0.678244 -0.490494 -0.534901 -0.687965 -0.452127 -0.570735 -0.68545 -0.612151 -0.384867 -0.69076 -0.573842 -0.442175 -0.689338 -0.713996 -0.111447 -0.691223 -0.683521 -0.221519 -0.695506 -0.736969 0 -0.675927 -0.733755 -0.00211982 -0.679411 -0.337943 -0.941167 0 -0.937301 -0.348521 0 -0.987081 -0.160224 0 -0.966905 -0.255138 0 -0.851551 -0.524271 0 -0.795094 -0.606486 0 -0.792445 -0.609943 0 -0.846886 -0.531774 0 -0.951687 -0.307069 0 -0.988143 -0.153534 0 -1 0 0 -0.0438637 -0.12216 0.991541 -0.0454946 -0.121939 0.991494 -0.204776 -0.111663 0.972419 -0.259286 -0.187395 0.947446 -0.410999 -0.22715 0.882883 -0.378977 -0.400474 0.834264 -0.494982 -0.457462 0.73873 -0.467003 -0.539637 0.7005 -0.602395 -0.378743 0.702619 -0.564735 -0.435166 0.701217 -0.702615 -0.10964 0.703073 -0.672492 -0.217923 0.707294 -0.72572 0 0.687991 -0.72244 -0.00208823 0.691431 -0.0369704 -0.102962 -0.993998 -0.177056 -0.0944029 -0.979663 -0.0383455 -0.102777 -0.993965 -0.223919 -0.159911 -0.961399 -0.358499 -0.196945 -0.912519 -0.335616 -0.355309 -0.87242 -0.446947 -0.414706 -0.792627 -0.425722 -0.491888 -0.759478 -0.548814 -0.345105 -0.761384 -0.514671 -0.396647 -0.760122 -0.640114 -0.0997341 -0.761779 -0.612034 -0.198232 -0.765584 -0.663525 0 -0.748154 -0.659986 -0.00190638 -0.751275 -0.361055 -0.932545 0 -0.41149 -0.911414 0 -0.460841 -0.887483 0 -0.529186 -0.848506 0 -0.549415 -0.83555 0 -0.626581 -0.779356 0 -0.680916 -0.732361 0 -0.792367 -0.610044 0 -0.846677 -0.532107 0 -0.950971 -0.309281 0 -0.999983 -0.0058034 0 -0.326915 0.945054 0 -0.326915 0.945054 0 0 0 -1 0 0.945054 -0.326915 0 -0.932545 -0.361053 -1.05792e-007 -0.932545 -0.361053 -1.70401e-007 -0.911414 -0.41149 -1.70401e-007 -0.887482 -0.460842 -9.94202e-008 -0.848505 -0.529188 0 -0.835549 -0.549415 0 -0.779357 -0.62658 4.17814e-007 -0.732363 -0.680914 9.31406e-007 -0.610045 -0.792367 6.75407e-007 -0.532105 -0.846678 -3.11381e-008 -0.309279 -0.950971 -5.5078e-007 -0.157611 -0.987501 -4.26189e-007 -0.0058043 -0.999983 0 -0.00580443 -0.999983 0.812421 -0.548765 -0.197053 0.813903 -0.530964 -0.23588 0.814077 -0.544136 -0.202966 0.812694 -0.51648 -0.269773 0.80947 -0.499815 -0.308129 0.810751 -0.491437 -0.318076 0.812834 -0.442601 -0.378689 0.814083 -0.439087 -0.380095 0.815118 -0.30836 -0.490405 0.814233 -0.354364 -0.459838 0.817377 -0.131958 -0.560787 0.816351 -0.132885 -0.562061 0.80415 -0.00173232 -0.594423 0.802109 -0.00346462 -0.597167 -0.675922 -0.693612 -0.249062 -0.679422 -0.687481 -0.256429 -0.681187 -0.669183 -0.296948 -0.681773 -0.648559 -0.338463 -0.681323 -0.617948 -0.392351 -0.678238 -0.618795 -0.396341 -0.68796 -0.534905 -0.490498 -0.685444 -0.570739 -0.452131 -0.690755 -0.384868 -0.612155 -0.689333 -0.442177 -0.573846 -0.691218 -0.111449 -0.714 -0.695502 -0.22152 -0.683524 -0.67592 0 -0.736975 -0.679406 -0.00212091 -0.733759 0 -0.941167 -0.337942 0 -0.348521 -0.937301 0 -0.160224 -0.987081 0 -0.255138 -0.966905 0 -0.524271 -0.851551 0 -0.606487 -0.795094 0 -0.609943 -0.792445 0 -0.531774 -0.846886 0 -0.307068 -0.951687 0 -0.153534 -0.988143 -2.08331e-006 -0.932545 -0.361053 -1.12979e-006 -0.932546 -0.361052 -8.38491e-007 -0.911415 -0.411489 -1.41968e-007 -0.887483 -0.46084 -8.2831e-008 -0.848505 -0.529187 0 -0.83555 -0.549415 -2.61073e-007 -0.732363 -0.680915 -5.81993e-007 -0.610045 -0.792367 -5.81993e-007 -0.532105 -0.846678 -3.247e-007 -0.309279 -0.950971 0 -0.157612 -0.987501 -0.991541 -0.122159 -0.0438632 -0.991495 -0.121938 -0.045494 -0.972419 -0.111662 -0.204775 -0.947447 -0.187395 -0.259283 -0.882884 -0.227151 -0.410996 -0.834266 -0.400472 -0.378975 -0.738731 -0.457461 -0.49498 -0.700503 -0.539635 -0.467001 -0.702619 -0.378743 -0.602395 -0.701219 -0.435167 -0.564732 -0.703072 -0.10964 -0.702615 -0.707294 -0.217923 -0.672492 -0.687991 0 -0.72572 -0.69143 -0.00208815 -0.72244 0.991541 -0.122158 -0.0438629 0.97242 -0.111661 -0.204773 0.991495 -0.121937 -0.0454936 0.947447 -0.187393 -0.259283 0.882886 -0.227148 -0.410994 0.834268 -0.40047 -0.378973 0.738734 -0.45746 -0.494977 0.700506 -0.539634 -0.466998 0.702622 -0.378742 -0.602393 0.701221 -0.435166 -0.56473 0.703076 -0.109639 -0.702612 0.707296 -0.217922 -0.67249 0.687996 0 -0.725715 0.691434 -0.00208717 -0.722437 0 0.945054 -0.326915 -0.223311 0.968331 -0.111656 -0.951683 -0.307083 0 -0.988142 -0.153542 0 -0.792443 -0.609946 1.0591e-007 -0.846879 -0.531785 0 -0.337956 -0.941162 0 -0.398159 -0.917316 0 -0.173654 -0.968931 -0.176119 -0.288056 -0.94009 -0.182357 -0.526358 -0.850263 0 -0.615353 -0.788251 1.85331e-007 -0.539052 -0.842272 7.92412e-008 -0.675652 -0.73722 1.85331e-007 0.000655452 -0.902478 -0.430736 0.00125788 -0.941161 -0.337956 0.000216814 -0.846292 -0.532719 0.000216737 -0.845105 -0.5346 -0.000488759 -0.735364 -0.677672 -0.000120465 -0.787399 -0.616443 -0.00110948 -0.529737 -0.848161 -0.000762879 -0.608854 -0.793282 -0.0015052 -0.152525 -0.988298 -0.00134834 -0.306066 -0.952009 -0.00152302 0 -0.999999 -0.526356 -0.850264 0 -0.539056 -0.84227 0 -0.615358 -0.788248 0 -0.675653 -0.73722 0 -0.846886 -0.531774 0 -0.951687 -0.307069 0 -0.988143 -0.153534 0 0 -0.889503 -0.45693 0 -0.917318 -0.398154 0 -0.941163 -0.337952 -0.45693 -0.889502 0 -0.398155 -0.917318 0 -0.337953 -0.941163 0 0 -0.842269 -0.539057 0 -0.850264 -0.526356 0 -0.531774 -0.846886 0 -0.609943 -0.792445 0 -0.737221 -0.675652 0 -0.788248 -0.615358</float_array>
                    <technique_common>
                        <accessor count="230" source="#Geometry-mesh012-normals-array" stride="3">
                            <param name="X" type="float" />
                            <param name="Y" type="float" />
                            <param name="Z" type="float" />
                        </accessor>
                    </technique_common>
                </source>
                <source id="Geometry-mesh012-uvSet1" name="uvSet1">
                    <float_array id="Geometry-mesh012-uvSet1-array" count="318">0.565905 0.90917 0.570762 0.903909 0.565905 0.902996 0.570762 0.899764 0.565905 0.895558 0.570762 0.893182 0.565904 0.887106 0.570762 0.885315 0.565905 0.87662 0.570762 0.876454 0.565905 0.868481 0.570762 0.869667 0.565905 0.847094 0.570762 0.851638 0.735922 0.90551 0.732624 0.905647 0.735922 0.901023 0.732624 0.901052 0.735922 0.89394 0.732624 0.894057 0.735922 0.885493 0.732624 0.88555 0.735922 0.876084 0.732625 0.876078 0.735922 0.869089 0.732625 0.868808 0.735922 0.849521 0.732624 0.849521 0.728126 0.907759 0.728126 0.901745 0.728126 0.894616 0.728126 0.886365 0.728126 0.87616 0.728126 0.868182 0.728126 0.846668 0.523836 0.915533 0.52288 0.919637 0.502083 0.915433 0.503028 0.919568 0.501842 0.949411 0.523986 0.949533 0.523832 0.962881 0.501964 0.962771 0.523527 0.971194 0.502251 0.971105 0.523451 0.977554 0.502311 0.977466 0.523688 0.99481 0.502044 0.994714 0.530722 0.953371 0.529365 0.955597 0.528131 0.959737 0.527128 0.965218 0.526827 0.972035 0.526765 0.977522 0.527102 0.992485 0.495095 0.953181 0.496444 0.95542 0.49767 0.959577 0.498664 0.965077 0.498949 0.971904 0.499 0.977402 0.498633 0.99237 0.57328 0.903201 0.57328 0.899118 0.57328 0.892668 0.57328 0.884992 0.57328 0.87647 0.57328 0.870124 0.57328 0.852263 0.498853 0.112448 0.439443 0.112448 0.498853 0.0989409 0.439443 0.0989409 0.379537 0.000184066 0.379544 0.0989409 0.439443 0.000184066 0.498853 0.000184066 0.497687 0.903201 0.500205 0.903908 0.497687 0.899118 0.500205 0.899764 0.497687 0.892668 0.500205 0.893182 0.497687 0.884992 0.500205 0.885315 0.497687 0.87647 0.500205 0.876454 0.497687 0.870124 0.500205 0.869667 0.497687 0.852263 0.500205 0.851638 0.505062 0.90917 0.505062 0.902996 0.505062 0.895558 0.505062 0.887106 0.505062 0.876621 0.505062 0.868481 0.505062 0.847094 0.58329 0.907761 0.578769 0.905651 0.58329 0.901748 0.578821 0.901054 0.58329 0.894623 0.578841 0.894044 0.58329 0.886372 0.578857 0.885583 0.58329 0.876164 0.578882 0.876065 0.58329 0.868185 0.578878 0.868813 0.58329 0.846668 0.578703 0.849521 0.52288 0.919637 0.502083 0.915433 0.523986 0.949533 0.523832 0.962881 0.523527 0.971194 0.502251 0.971105 0.523451 0.977554 0.502311 0.977466 0.502044 0.994714 0.575479 0.905513 0.575515 0.901019 0.575555 0.893951 0.575582 0.885472 0.575626 0.876078 0.575571 0.869099 0.575379 0.849521 0.526827 0.972035 0.526765 0.977522 0.527102 0.992485 0.495095 0.953181 0.498949 0.971904 0.499 0.977402 0.379544 0.112448 0.379537 0.000184066 0.37956 0.112448 0.37956 0.0989409 0.535483 0.868481 0.535483 0.847094 0.535483 0.87662 0.535483 0.90917 0.535483 0.902996 0.535483 0.895558 0.535483 0.887106 0.535484 0.90917 0.535484 0.868481 0.655708 0.894619 0.655708 0.886369 0.655708 0.876162 0.655708 0.868184 0.655708 0.846668 0.655708 0.901747 0.655708 0.90776 0.260663 0.841424 0.398801 0.841424 0.260663 0.112448 0.398801 0.112448</float_array>
                    <technique_common>
                        <accessor count="159" source="#Geometry-mesh012-uvSet1-array" stride="2">
                            <param name="S" type="float" />
                            <param name="T" type="float" />
                        </accessor>
                    </technique_common>
                </source>
                <vertices id="Geometry-mesh012-vertices">
                    <input semantic="POSITION" source="#Geometry-mesh012-positions" />
                </vertices>
                <polylist count="236" material="Material-lab_set">
                    <input semantic="VERTEX" source="#Geometry-mesh012-vertices" offset="0" />
                    <input semantic="NORMAL" source="#Geometry-mesh012-normals" offset="1" />
                    <input semantic="TEXCOORD" source="#Geometry-mesh012-uvSet1" offset="2" set="0" />
                    <vcount>3 3 3 3 3 3 3 3 3 3 3 3 3 3 3 3 3 3 3 3 3 3 3 3 3 3 3 3 3 3 3 3 3 3 3 3 3 3 3 3 3 3 3 3 3 3 3 3 3 3 3 3 3 3 3 3 3 3 3 3 3 3 3 3 3 3 3 3 3 3 3 3 3 3 3 3 3 3 3 3 3 3 3 3 3 3 3 3 3 3 3 3 3 3 3 3 3 3 3 3 3 3 3 3 3 3 3 3 3 3 3 3 3 3 3 3 3 3 3 3 3 3 3 3 3 3 3 3 3 3 3 3 3 3 3 3 3 3 3 3 3 3 3 3 3 3 3 3 3 3 3 3 3 3 3 3 3 3 3 3 3 3 3 3 3 3 3 3 3 3 3 3 3 3 3 3 3 3 3 3 3 3 3 3 3 3 3 3 3 3 3 3 3 3 3 3 3 3 3 3 3 3 3 3 3 3 3 3 3 3 3 3 3 3 3 3 3 3 3 3 3 3 3 3 3 3 3 3 3 3 3 3 3 3 3 3</vcount>
                    <p>2 0 0 9 1 1 3 2 2 3 2 2 9 1 1 10 3 3 3 2 2 10 3 3 4 4 4 4 4 4 10 3 3 11 5 5 4 4 4 11 5 5 5 6 6 5 6 6 11 5 5 12 7 7 6 8 8 5 6 6 13 9 9 13 9 9 5 6 6 12 7 7 7 10 10 6 8 8 14 11 11 14 11 11 6 8 8 13 9 9 7 10 10 14 11 11 8 12 12 8 12 12 14 11 11 15 13 13 23 14 14 24 15 15 26 16 16 26 16 16 24 15 15 25 17 17 26 16 16 25 17 17 28 18 18 28 18 18 25 17 17 27 19 19 28 18 18 27 19 19 30 20 20 30 20 20 27 19 19 29 21 21 30 20 20 29 21 21 32 22 22 32 22 22 29 21 21 31 23 23 32 22 22 31 23 23 34 24 24 34 24 24 31 23 23 33 25 25 34 24 24 33 25 25 36 26 26 36 26 26 33 25 25 35 26 27 16 27 28 17 28 29 24 29 15 24 29 15 17 28 29 25 30 17 17 28 29 18 31 30 25 30 17 25 30 17 18 31 30 27 32 19 19 33 31 29 34 21 18 31 30 18 31 30 29 34 21 27 32 19 20 35 32 31 36 23 19 33 31 19 33 31 31 36 23 29 34 21 21 37 33 33 38 25 20 35 32 20 35 32 33 38 25 31 36 23 22 39 34 35 40 27 21 37 33 21 37 33 35 40 27 33 38 25 37 41 35 38 41 36 44 41 37 44 41 37 38 41 36 45 41 38 46 42 39 45 43 38 39 44 40 39 44 40 45 43 38 38 43 36 39 44 40 40 45 41 46 42 39 46 42 39 40 45 41 47 46 42 40 45 41 41 47 43 47 46 42 47 46 42 41 47 43 48 48 44 41 47 43 42 49 45 48 48 44 48 48 44 42 49 45 49 50 46 42 49 45 43 51 47 49 50 46 49 50 46 43 51 47 50 51 48 37 52 35 23 53 49 38 54 36 38 54 36 23 53 49 26 55 50 38 54 36 26 55 50 39 56 40 39 56 40 26 55 50 28 57 51 39 56 40 28 57 51 40 58 41 40 58 41 28 57 51 30 59 52 41 60 43 40 58 41 32 61 53 32 61 53 40 58 41 30 59 52 42 62 45 41 60 43 34 63 54 34 63 54 41 60 43 32 61 53 43 64 47 42 62 45 36 65 55 36 65 55 42 62 45 34 63 54 44 66 37 45 67 38 51 68 56 51 68 56 45 67 38 52 69 57 45 67 38 46 70 39 52 69 57 52 69 57 46 70 39 53 71 58 46 70 39 47 72 42 53 71 58 53 71 58 47 72 42 54 73 59 48 74 44 55 75 60 47 72 42 47 72 42 55 75 60 54 73 59 49 76 46 56 77 61 48 74 44 48 74 44 56 77 61 55 75 60 50 78 48 57 79 62 49 76 46 49 76 46 57 79 62 56 77 61 9 80 1 51 80 63 10 81 3 10 81 3 51 80 63 52 82 64 10 81 3 52 82 64 11 83 5 11 83 5 52 82 64 53 84 65 11 83 5 53 84 65 12 85 7 12 85 7 53 84 65 54 86 66 12 85 7 54 86 66 13 87 9 13 87 9 54 86 66 55 88 67 13 87 9 55 88 67 14 89 11 14 89 11 55 88 67 56 25 68 14 89 11 56 25 68 15 90 13 15 90 13 56 25 68 57 90 69 58 91 70 61 92 71 59 92 72 59 92 72 61 92 71 62 92 73 60 51 74 59 51 75 63 51 76 63 51 76 59 51 75 62 51 73 63 51 76 62 51 73 0 51 77 0 51 77 62 51 73 1 51 72 65 93 72 126 93 73 64 93 77 64 93 77 126 93 73 127 93 76 65 94 72 125 94 71 126 94 73 73 95 78 74 96 79 76 97 80 76 97 80 74 96 79 75 98 81 76 97 80 75 98 81 78 99 82 78 99 82 75 98 81 77 100 83 78 99 82 77 100 83 80 101 84 80 101 84 77 100 83 79 102 85 80 101 84 79 102 85 82 103 86 82 103 86 79 102 85 81 104 87 82 103 86 81 104 87 84 105 88 84 105 88 81 104 87 83 106 89 84 105 88 83 106 89 86 107 90 86 107 90 83 106 89 85 108 91 66 109 92 67 110 93 74 111 79 74 111 79 67 110 93 75 112 81 67 110 93 68 113 94 75 112 81 75 112 81 68 113 94 77 114 83 68 113 94 69 115 95 77 114 83 77 114 83 69 115 95 79 116 85 70 117 96 81 118 87 69 115 95 69 115 95 81 118 87 79 116 85 71 119 97 83 120 89 70 117 96 70 117 96 83 120 89 81 118 87 71 119 97 72 121 98 83 120 89 83 120 89 72 121 98 85 122 91 87 123 99 94 124 100 88 125 101 88 125 101 94 124 100 95 126 102 88 125 101 95 126 102 89 127 103 89 127 103 95 126 102 96 128 104 90 129 105 89 127 103 97 130 106 97 130 106 89 127 103 96 128 104 91 131 107 90 129 105 98 132 108 98 132 108 90 129 105 97 130 106 92 133 109 91 131 107 99 134 110 99 134 110 91 131 107 98 132 108 93 135 111 92 133 109 100 136 112 100 136 112 92 133 109 99 134 110 101 137 35 102 137 113 108 137 114 108 137 114 102 137 113 109 137 38 110 138 39 109 139 38 103 140 115 103 140 115 109 139 38 102 139 113 103 140 115 104 141 116 110 138 39 110 138 39 104 141 116 111 142 42 104 141 116 105 143 117 111 142 42 111 142 42 105 143 117 112 144 118 105 143 117 106 145 119 112 144 118 112 144 118 106 145 119 113 146 120 106 145 119 107 93 47 113 146 120 113 146 120 107 93 47 114 93 121 94 147 100 115 148 122 95 149 102 95 149 102 115 148 122 116 150 123 95 149 102 116 150 123 96 151 104 96 151 104 116 150 123 117 152 124 96 151 104 117 152 124 97 101 106 97 101 106 117 152 124 118 153 125 97 101 106 118 153 125 98 154 108 98 154 108 118 153 125 119 155 126 98 154 108 119 155 126 99 156 110 99 156 110 119 155 126 120 157 127 99 156 110 120 157 127 100 108 112 100 108 112 120 157 127 121 108 128 101 158 35 73 159 49 102 160 113 102 160 113 73 159 49 76 161 50 102 160 113 76 161 50 103 162 115 103 162 115 76 161 50 78 163 51 103 162 115 78 163 51 104 164 116 104 164 116 78 163 51 80 165 52 105 166 117 104 164 116 82 167 129 82 167 129 104 164 116 80 165 52 106 168 119 105 166 117 84 169 130 84 169 130 105 166 117 82 167 129 107 170 47 106 168 119 86 171 131 86 171 131 106 168 119 84 169 130 108 172 114 109 173 38 115 174 132 115 174 132 109 173 38 116 175 57 109 173 38 110 176 39 116 175 57 116 175 57 110 176 39 117 177 58 110 176 39 111 178 42 117 177 58 117 177 58 111 178 42 118 179 59 112 180 118 119 181 133 111 178 42 111 178 42 119 181 133 118 179 59 113 182 120 120 183 134 112 180 118 112 180 118 120 183 134 119 181 133 114 184 121 121 185 62 113 182 120 113 182 120 121 185 62 120 183 134 125 94 71 122 186 135 126 94 73 126 94 73 122 186 135 123 186 75 127 93 76 126 93 73 124 93 136 124 93 136 126 93 73 123 93 75 61 92 71 128 187 137 62 92 73 62 92 73 128 187 137 1 91 138 128 187 70 125 94 71 65 94 72 7 188 10 8 51 12 131 189 139 131 189 139 8 51 12 129 51 140 6 190 8 7 188 10 133 191 141 133 191 141 7 188 10 131 189 139 2 192 0 3 193 2 130 194 142 130 194 142 3 193 2 135 195 143 4 196 4 5 197 6 134 198 144 134 198 144 5 197 6 132 199 145 5 197 6 6 190 8 132 199 145 132 199 145 6 190 8 133 191 141 134 198 144 135 195 143 4 196 4 4 196 4 135 195 143 3 193 2 135 195 143 67 200 93 130 194 146 130 194 146 67 200 93 66 201 92 68 202 94 67 200 93 134 203 144 134 203 144 67 200 93 135 195 143 132 204 145 69 205 95 134 203 144 134 203 144 69 205 95 68 202 94 133 206 141 70 207 96 132 204 145 132 204 145 70 207 96 69 205 95 131 208 147 71 209 97 133 206 141 133 206 141 71 209 97 70 207 96 129 210 140 72 210 98 131 208 147 131 208 147 72 210 98 71 209 97 18 211 30 144 212 148 19 213 31 142 214 149 19 213 31 144 212 148 20 47 32 143 215 150 21 216 33 147 217 151 21 216 33 143 215 150 153 145 151 92 146 109 154 93 152 93 93 111 154 93 152 92 146 109 19 213 31 142 214 149 20 47 32 143 215 150 20 47 32 142 214 149 21 216 33 147 217 151 22 51 34 148 51 152 22 51 34 147 217 151 88 218 101 151 219 153 87 220 99 152 220 154 87 220 99 151 219 153 137 93 155 140 93 156 136 93 157 141 93 158 136 93 157 140 93 156 145 221 153 17 222 29 146 223 154 16 223 28 146 223 154 17 222 29 89 224 103 150 225 148 88 218 101 151 219 153 88 218 101 150 225 148 91 226 107 155 227 150 90 228 105 149 229 149 90 228 105 155 227 150 138 51 156 137 51 155 139 51 158 136 51 157 139 51 158 137 51 155 144 212 148 18 211 30 145 221 153 17 222 29 145 221 153 18 211 30 90 228 105 149 229 149 89 224 103 150 225 148 89 224 103 149 229 149 155 227 150 91 226 107 153 145 151 92 146 109 153 145 151 91 226 107</p>
                </polylist>
            </mesh>
        </geometry>
    </library_geometries>
    <library_visual_scenes>
        <visual_scene id="DefaultScene">
            <node id="Geometry-mesh012Node" name="lab_convex_skinny" type="NODE">
                <matrix sid="transform">1 0 0 0 0 1 0 0 0 0 1 0 0 0 0 1</matrix>
                <instance_geometry url="#Geometry-mesh012">
                    <bind_material>
                        <technique_common>
                            <instance_material symbol="Material-lab_set" target="#Material-lab_set">
                                <bind_vertex_input semantic="uvSet1" input_semantic="TEXCOORD" input_set="0" />
                            </instance_material>
                        </technique_common>
                    </bind_material>
                </instance_geometry>
            </node>
            <node id="groupLocator025Node" name="Texture_Group" type="NODE">
                <matrix sid="transform">1 0 0 0 0 1 0 0 0 0 1 0 0 0 0 1</matrix>
                <node id="txtrLocator028Node" name="lab_set_nrm__Image___Texture_" type="NODE">
                    <matrix sid="transform">1 0 0 0 0 1 0 0 0 0 1 0 0 0 0 1</matrix>
                </node>
                <node id="txtrLocator021Node" name="lab_set__Image___Texture_" type="NODE">
                    <matrix sid="transform">1 0 0 0 0 1 0 0 0 0 1 0 0 0 0 1</matrix>
                </node>
                <node id="txtrLocator001Node" name="_none___Texture_" type="NODE">
                    <matrix sid="transform">1 0 0 0 0 1 0 0 0 0 1 0 0 0 0 1</matrix>
                </node>
            </node>
        </visual_scene>
    </library_visual_scenes>
    <scene>
        <instance_visual_scene url="#DefaultScene" />
    </scene>
</COLLADA>
