<?xml version="1.0" encoding="utf-8"?>
<COLLADA xmlns="http://www.collada.org/2005/11/COLLADASchema" version="1.4.1">
  <asset>
    <contributor>
      <author>Marc</author>
      <authoring_tool>OpenCOLLADA2008</authoring_tool>
      <comments>
			ColladaMaya export options: 
			bakeTransforms=0;relativePaths=0;copyTextures=0;exportTriangles=1;exportCgfxFileReferences=1;
			isSampling=0;curveConstrainSampling=1;removeStaticCurves=0;exportPolygonMeshes=1;exportLights=1;
			exportCameras=1;exportJointsAndSkin=1;exportAnimations=1;exportInvisibleNodes=0;exportDefaultCameras=0;
			exportTexCoords=1;exportNormals=1;exportNormalsPerVertex=1;exportVertexColors=1;exportVertexColorsPerVertex=1;
			exportTexTangents=0;exportTangents=0;exportReferencedMaterials=0;exportMaterialsOnly=0;
			exportXRefs=0;dereferenceXRefs=1;exportCameraAsLookat=0;cameraXFov=0;cameraYFov=1;doublePrecision=0
		</comments>
      <source_data>file:///F:/Dropbox/Team/depth_marc/models/station_curie/static_objects/walls/living_area2.mb</source_data>
    </contributor>
    <created>2011-11-04T08:16:35</created>
    <modified>2011-11-04T08:16:35</modified>
    <unit name="meter" meter="1"/>
    <up_axis>Y_UP</up_axis>
  </asset>
  <library_materials>
    <material id="lambert2" name="living_area_flat02_lambert2">
      <instance_effect url="#lambert2-fx"/>
    </material>
  </library_materials>
  <library_effects>
    <effect id="lambert2-fx">
      <profile_COMMON>
        <newparam sid="file1-surface">
          <surface type="2D">
            <init_from>file1</init_from>
          </surface>
        </newparam>
        <newparam sid="file1-sampler">
          <sampler2D>
            <source>file1-surface</source>
          </sampler2D>
        </newparam>
        <technique sid="common">
          <lambert>
            <emission>
              <color>0 0 0 1</color>
            </emission>
            <ambient>
              <color>0 0 0 1</color>
            </ambient>
            <diffuse>
              <texture texture="file1-sampler" texcoord="TEX0">
                <extra>
                  <technique profile="OpenCOLLADAMaya">
                    <blend_mode>NONE</blend_mode>
                    <coverageU>1</coverageU>
                    <coverageV>1</coverageV>
                    <fast>0</fast>
                    <mirrorU>0</mirrorU>
                    <mirrorV>0</mirrorV>
                    <noiseU>0</noiseU>
                    <noiseV>0</noiseV>
                    <offsetU>0</offsetU>
                    <offsetV>0</offsetV>
                    <repeatU>1</repeatU>
                    <repeatV>1</repeatV>
                    <rotateFrame>0</rotateFrame>
                    <rotateUV>0</rotateUV>
                    <stagger>0</stagger>
                    <translateFrameU>0</translateFrameU>
                    <translateFrameV>0</translateFrameV>
                    <wrapU>1</wrapU>
                    <wrapV>1</wrapV>
                  </technique>
                </extra>
              </texture>
            </diffuse>
            <transparent opaque="RGB_ZERO">
              <color>0 0 0 1</color>
            </transparent>
            <transparency>
              <float>1</float>
            </transparency>
          </lambert>
        </technique>
      </profile_COMMON>
    </effect>
  </library_effects>
  <library_images>
    <image id="file1" name="living_area_flat02_file1">
      <init_from>file:///F:/depth/redist/static_objects/station/station.dds</init_from>
      <extra>
        <technique profile="OpenCOLLADAMaya">
          <dgnode_type>kFile</dgnode_type>
          <image_sequence>0</image_sequence>
          <originalMayaNodeId>living_area_flat02_file1</originalMayaNodeId>
        </technique>
      </extra>
    </image>
  </library_images>
  <library_geometries>
    <geometry id="pPlaneShape2" name="pPlaneShape2">
      <mesh>
        <source id="pPlaneShape2-positions" name="pPlaneShape2-positions">
          <float_array id="pPlaneShape2-positions-array" count="135">-1.999999 0 0 2 0 0 -1.999999 4 0 2 4 0 -1.999999 0.173418 -0.060914 2 0.173418 -0.060914 -1.999999 1.461709 -0.125003 2 1.461709 -0.125003 2 3 -0.105216 -1.999999 3 -0.105216 0 4 0 0 3 -0.105216 0 1.461709 -0.125003 0 0.173418 -0.060914 0 0 0 2 1.531977 -0.060914 2 1.513641 -0.068925 0 1.513641 -0.068925 0 1.531977 -0.060914 2 2.882363 -0.06352355 2 2.867188 -0.060914 0 2.867188 -0.060914 0 2.882363 -0.06352355 2 0.1142139 -0.005346036 2 0.1007063 0 0 0.1007063 0 0 0.1142139 -0.005346036 2 1.414313 -0.076538 2 1.390515 -0.060914 0 1.390515 -0.060914 0 1.414313 -0.076538 2 3.133617 0 2 3.119813 -0.005011571 0 3.119813 -0.005011571 0 3.133617 0 -1.999999 3.119813 -0.005011571 -1.999999 3.133617 0 -1.999999 2.867188 -0.060914 -1.999999 2.882363 -0.06352355 -1.999999 1.513641 -0.068925 -1.999999 1.531977 -0.060914 -1.999999 1.390515 -0.060914 -1.999999 1.414313 -0.076538 -1.999999 0.1007063 0 -1.999999 0.1142139 -0.005346036</float_array>
          <technique_common>
            <accessor source="#pPlaneShape2-positions-array" count="45" stride="3">
              <param name="X" type="float"/>
              <param name="Y" type="float"/>
              <param name="Z" type="float"/>
            </accessor>
          </technique_common>
        </source>
        <source id="pPlaneShape2-normals" name="pPlaneShape2-normals">
          <float_array id="pPlaneShape2-normals-array" count="186">0 -0.5792727 0.8151338 0 -0.5792729 0.8151337 0 -0.733708 0.679465 0 -0.733708 0.679465 0 0.08504938 0.9963768 0 0.08504882 0.9963768 0 -0.2045015 0.9788663 0 -0.2045011 0.9788664 0 0.1873187 0.9822992 0 0.1873187 0.9822992 0 0 1 0 0 1 0 0.6843638 0.7291408 0 0.5356652 0.8444304 0 0.5356652 0.8444304 0 0.6843638 0.7291408 0 0.2864056 0.9581085 0 0.286406 0.9581084 0 0 1 0 0 1 0 0 1 0 -0.1732521 0.9848776 0 -0.1732522 0.9848776 0 0 1 0 0.3457149 0.9383397 0 0.2526841 0.9675488 0 0.2526846 0.9675487 0 0.3457149 0.9383397 0 -0.4989495 0.8666312 0 -0.4989494 0.8666312 0 -0.6415458 0.7670847 0 -0.6415458 0.7670847 0 0.7637551 0.6455061 0 0.6355717 0.7720419 0 0.6355714 0.7720422 0 0.7637551 0.6455061 0 0 1 0 -0.1732521 0.9848776 0 0 1 0 -0.4989493 0.8666312 0 -0.6415458 0.7670847 0 -0.6415458 0.7670847 0 0.3457149 0.9383397 0 0.2526838 0.967549 0 0.3457149 0.9383397 0 0.08504828 0.9963768 0 -0.204502 0.9788662 0 -0.5792731 0.8151336 0 -0.733708 0.679465 0 -0.733708 0.679465 0 0.7637551 0.6455061 0 0.6355719 0.7720416 0 0.7637551 0.6455061 0 0.2864064 0.9581082 0 0 1 0 0 1 0 0.6843638 0.7291408 0 0.5356652 0.8444304 0 0.6843638 0.7291408 0 0.1873188 0.9822992 0 0 1 0 0 1</float_array>
          <technique_common>
            <accessor source="#pPlaneShape2-normals-array" count="62" stride="3">
              <param name="X" type="float"/>
              <param name="Y" type="float"/>
              <param name="Z" type="float"/>
            </accessor>
          </technique_common>
        </source>
        <source id="pPlaneShape2-pPlaneShape2-pPlaneShape2-map1" name="pPlaneShape2-pPlaneShape2-pPlaneShape2-map1">
          <float_array id="pPlaneShape2-pPlaneShape2-pPlaneShape2-map1-array" count="176">0.3560078 0.02044176 0.3624528 0.2064592 0.3560078 0.2064592 0.3560078 0.02044176 0.3624528 0.2064592 0.2216077 0.02044176 0.3541605 0.02044176 0.3541605 0.2064592 0.2085989 0.02044177 0.2194755 0.02044177 0.2194755 0.2064592 0.2085989 0.2064592 0.412099 0.5198751 0.4218768 0.5198751 0.4218766 0.7051321 0.412099 0.7051321 0.412099 0.5198751 0.4218768 0.5198751 0.4218766 0.7051321 0.4038884 0.5198751 0.4103274 0.5198751 0.4103274 0.7051321 0.4038884 0.7051321 0.3696497 0.02044177 0.491045 0.02044177 0.491045 0.2064592 0.3696497 0.2064592 0.3696497 0.02044177 0.491045 0.02044177 0.491045 0.2064592 0.3624528 0.02044176 0.3672281 0.02044176 0.3672281 0.2064592 0.1078378 0.7051319 0.1078378 0.5198749 0.1216438 0.519875 0.1216438 0.705132 0.1078378 0.7051319 0.1078378 0.5198749 0.1216438 0.519875 0.1216438 0.705132 0.02686648 0.5198749 0.1061723 0.7051319 0.02686648 0.7051319 0.02686648 0.5198749 0.1061723 0.7051319 0.02686648 0.7051319 0.2085989 0.02044177 0.2194755 0.2064592 0.2085989 0.2064592 0.2216077 0.2064592 0.2216077 0.02044176 0.3541605 0.2064592 0.3624528 0.02044176 0.3672281 0.2064592 0.4038884 0.5198751 0.4103274 0.7051321 0.4038884 0.7051321 0.3560078 0.2064592 0.3541605 0.2064592 0.3541605 0.02044176 0.3560078 0.2064592 0.3541605 0.02044176 0.3560078 0.02044176 0.2216077 0.2064592 0.2194755 0.2064592 0.2194755 0.02044177 0.2216077 0.2064592 0.2194755 0.02044177 0.2216077 0.02044176 0.412099 0.7051321 0.4103274 0.7051321 0.4103274 0.5198751 0.412099 0.7051321 0.4103274 0.5198751 0.412099 0.5198751 0.3696497 0.2064592 0.3672281 0.2064592 0.3672281 0.02044176 0.3696497 0.2064592 0.3672281 0.02044176 0.3696497 0.02044177 0.1078378 0.7051319 0.1061723 0.5198749 0.1078378 0.5198749 0.1078378 0.7051319 0.1061723 0.5198749 0.1078378 0.5198749</float_array>
          <technique_common>
            <accessor source="#pPlaneShape2-pPlaneShape2-pPlaneShape2-map1-array" count="88" stride="2">
              <param name="S" type="float"/>
              <param name="T" type="float"/>
            </accessor>
          </technique_common>
        </source>
        <vertices id="pPlaneShape2-vertices" name="pPlaneShape2-vertices">
          <input semantic="POSITION" source="#pPlaneShape2-positions"/>
        </vertices>
        <triangles material="living_area_flat02_lambert2SG" count="56">
          <input semantic="VERTEX" source="#pPlaneShape2-vertices" offset="0"/>
          <input semantic="NORMAL" source="#pPlaneShape2-normals" offset="1"/>
          <input semantic="TEXCOORD" source="#pPlaneShape2-pPlaneShape2-pPlaneShape2-map1" offset="2" set="0"/>
          <p>16 0 58 17 1 0 7 3 1 7 3 1 17 1 0 12 2 30 20 4 64 21 5 5 15 7 7 15 7 7 21 5 5 18 6 6 24 8 70 25 9 12 1 11 14 1 11 14 25 9 12 14 10 13 13 12 19 26 13 20 5 15 22 5 15 22 26 13 20 23 14 21 28 16 76 29 17 23 5 19 25 5 19 25 29 17 23 13 18 24 10 20 41 34 21 83 3 23 43 3 23 43 34 21 83 31 22 42 11 24 8 22 25 9 8 27 11 8 27 11 22 25 9 19 26 10 32 28 33 33 29 34 8 31 36 8 31 36 33 29 34 11 30 35 12 32 30 30 33 31 7 35 1 7 35 1 30 33 31 27 34 32 2 36 44 36 37 86 10 38 46 10 38 46 36 37 86 34 21 45 33 29 37 35 39 38 11 41 40 11 41 40 35 39 38 9 40 39 9 42 47 38 43 68 11 44 49 11 44 49 38 43 68 22 25 48 21 5 50 37 45 51 18 6 52 18 6 52 37 45 51 40 46 62 17 1 2 39 47 3 12 49 4 12 49 4 39 47 3 6 48 53 6 50 53 42 51 80 12 52 4 12 52 4 42 51 80 30 33 54 29 17 26 41 53 27 13 55 29 13 55 29 41 53 27 4 54 28 4 56 55 44 57 74 13 58 57 13 58 57 44 57 74 26 13 56 25 9 15 43 59 16 14 61 18 14 61 18 43 59 16 0 60 17 16 0 58 15 7 59 17 1 0 17 1 0 15 7 59 18 6 60 17 1 61 18 6 52 39 47 63 39 47 63 18 6 52 40 46 62 20 4 64 19 26 65 21 5 5 21 5 5 19 26 65 22 25 66 21 5 67 22 25 48 37 45 69 37 45 69 22 25 48 38 43 68 24 8 70 23 14 71 25 9 12 25 9 12 23 14 71 26 13 72 25 9 73 26 13 56 43 59 75 43 59 75 26 13 56 44 57 74 28 16 76 27 34 77 29 17 23 29 17 23 27 34 77 30 33 78 29 17 79 30 33 54 41 53 81 41 53 81 30 33 54 42 51 80 32 28 82 31 22 42 33 29 84 33 29 84 31 22 42 34 21 83 33 29 85 34 21 45 35 39 87 35 39 87 34 21 45 36 37 86</p>
        </triangles>
      </mesh>
      <extra>
        <technique profile="OpenCOLLADAMaya">
          <originalMayaNodeId>pPlaneShape2</originalMayaNodeId>
          <double_sided>1</double_sided>
        </technique>
      </extra>
    </geometry>
  </library_geometries>
  <library_visual_scenes>
    <visual_scene id="VisualSceneNode" name="living_area2">
      <node id="pPlane2" name="pPlane2" type="NODE">
        <translate sid="translate">0 0 0</translate>
        <rotate sid="rotateZ">0 0 1 0</rotate>
        <rotate sid="rotateY">0 1 0 0</rotate>
        <rotate sid="rotateX">1 0 0 0</rotate>
        <scale sid="scale">1 1 1</scale>
        <instance_geometry url="#pPlaneShape2">
          <bind_material>
            <technique_common>
              <instance_material symbol="living_area_flat02_lambert2SG" target="#lambert2">
                <bind_vertex_input semantic="TEX0" input_semantic="TEXCOORD" input_set="0"/>
              </instance_material>
            </technique_common>
          </bind_material>
        </instance_geometry>
        <extra>
          <technique profile="OpenCOLLADAMaya">
            <originalMayaNodeId>pPlane2</originalMayaNodeId>
          </technique>
        </extra>
      </node>
    </visual_scene>
  </library_visual_scenes>
  <scene>
    <instance_visual_scene url="#VisualSceneNode"/>
  </scene>
</COLLADA>