<?xml version="1.0" encoding="utf-8"?>
<COLLADA xmlns="http://www.collada.org/2005/11/COLLADASchema" version="1.4.1">
  <asset>
    <contributor>
      <author>Marc</author>
      <authoring_tool>OpenCOLLADA2008</authoring_tool>
      <comments>
			ColladaMaya export options: 
			bakeTransforms=1;relativePaths=1;copyTextures=0;exportTriangles=1;exportCgfxFileReferences=0;
			isSampling=1;curveConstrainSampling=0;removeStaticCurves=0;exportPolygonMeshes=1;exportLights=0;
			exportCameras=0;exportJointsAndSkin=1;exportAnimations=1;exportInvisibleNodes=0;exportDefaultCameras=0;
			exportTexCoords=1;exportNormals=1;exportNormalsPerVertex=0;exportVertexColors=1;exportVertexColorsPerVertex=0;
			exportTexTangents=0;exportTangents=0;exportReferencedMaterials=0;exportMaterialsOnly=0;
			exportXRefs=0;dereferenceXRefs=1;exportCameraAsLookat=0;cameraXFov=0;cameraYFov=0;doublePrecision=0
		</comments>
      <source_data>file:///F:/Dropbox/Team/depth_marc/models/station/statics/living_quarter_scene.mb</source_data>
    </contributor>
    <created>2013-01-23T11:41:43</created>
    <modified>2013-01-23T11:41:43</modified>
    <unit name="meter" meter="1"/>
    <up_axis>Y_UP</up_axis>
  </asset>
  <library_materials>
    <material id="lambert3" name="lambert3">
      <instance_effect url="#lambert3-fx"/>
    </material>
  </library_materials>
  <library_effects>
    <effect id="lambert3-fx">
      <profile_COMMON>
        <newparam sid="file2-surface">
          <surface type="2D">
            <init_from>file2</init_from>
          </surface>
        </newparam>
        <newparam sid="file2-sampler">
          <sampler2D>
            <source>file2-surface</source>
          </sampler2D>
        </newparam>
        <technique sid="common">
          <lambert>
            <emission>
              <color sid="emission">0 0 0 1</color>
            </emission>
            <ambient>
              <color sid="ambient">0 0 0 1</color>
            </ambient>
            <diffuse>
              <texture texture="file2-sampler" texcoord="TEX0">
                <extra>
                  <technique profile="OpenCOLLADAMaya">
                    <blend_mode>NONE</blend_mode>
                    <coverageU sid="coverageU">1</coverageU>
                    <coverageV sid="coverageV">1</coverageV>
                    <fast sid="fast">0</fast>
                    <mirrorU sid="mirrorU">0</mirrorU>
                    <mirrorV sid="mirrorV">0</mirrorV>
                    <noiseU sid="noiseU">0</noiseU>
                    <noiseV sid="noiseV">0</noiseV>
                    <offsetU sid="offsetU">0</offsetU>
                    <offsetV sid="offsetV">0</offsetV>
                    <repeatU sid="repeatU">1</repeatU>
                    <repeatV sid="repeatV">1</repeatV>
                    <rotateFrame sid="rotateFrame">0</rotateFrame>
                    <rotateUV sid="rotateUV">0</rotateUV>
                    <stagger sid="stagger">0</stagger>
                    <translateFrameU sid="translateFrameU">0</translateFrameU>
                    <translateFrameV sid="translateFrameV">0</translateFrameV>
                    <wrapU sid="wrapU">1</wrapU>
                    <wrapV sid="wrapV">1</wrapV>
                  </technique>
                </extra>
              </texture>
            </diffuse>
            <transparent opaque="RGB_ZERO">
              <color sid="transparent">0 0 0 1</color>
            </transparent>
            <transparency>
              <float>1</float>
            </transparency>
          </lambert>
        </technique>
      </profile_COMMON>
    </effect>
  </library_effects>
  <library_images>
    <image id="file2" name="file2">
      <init_from>./ventilation_addon.dds</init_from>
      <extra>
        <technique profile="OpenCOLLADAMaya">
          <dgnode_type>kFile</dgnode_type>
          <image_sequence>0</image_sequence>
          <originalMayaNodeId>file2</originalMayaNodeId>
        </technique>
      </extra>
    </image>
  </library_images>
  <library_geometries>
    <geometry id="polySurfaceShape65" name="polySurfaceShape65">
      <mesh>
        <source id="polySurfaceShape65-positions" name="polySurfaceShape65-positions">
          <float_array id="polySurfaceShape65-positions-array" count="456">1.293458 4 0 -1.293458 4 0 1.293458 0 0 -1.293458 0 0 0.9999982 3.345686 0.2277435 0.9999982 3.426784 0.2819313 0.9999982 3.480972 0.3630289 0.9999982 3.5 0.4586902 0.9999982 3.250025 0.2087153 -1.000001 3.480972 0.3630289 -1.000001 3.426784 0.2819313 -1.000001 3.345686 0.2277435 -1.000001 3.250025 0.2087153 -1.000001 3.5 0.4586903 0.9999982 0.5190282 0.3630289 0.9999982 0.573216 0.2819313 0.9999982 0.6543137 0.2277435 0.9999982 0.749975 0.2087153 0.9999982 0.5 0.4586902 -1.000001 0.6543137 0.2277435 -1.000001 0.573216 0.2819313 -1.000001 0.5190282 0.3630289 -1.000001 0.5 0.4586903 -1.000001 0.749975 0.2087153 -0.8091022 0.5 0.4220707 0.8091022 0.5 0.4220707 0.8091022 3.5 0.4220707 -0.8091022 3.5 0.4220707 -0.8568219 4 1 0.8568219 4 1 -0.8568219 0 1 0.8568219 0 1 1.056646 4 1 1.293458 4 0.7674326 -1.293458 4 0.7674328 -1.056646 4 1 1.293458 0 0.7674326 1.056646 0 1 -1.056646 0 1 -1.293458 0 0.7674328 0.9522784 3.5 0.6324271 0.9999982 3.5 0.5847079 0.9522784 0.5 0.6324271 0.9999982 0.5 0.5847079 -0.9522809 3.5 0.6324271 -1.000001 3.5 0.5847079 -0.9522809 0.5 0.6324271 -1.000001 0.5 0.5847079 0.8568219 0.5 0.6324271 0.8091022 0.5 0.5847079 0.8568219 3.5 0.6324271 0.8091022 3.5 0.5847079 -0.8568219 0.5 0.6324271 -0.8091022 0.5 0.5847079 -0.8568219 3.5 0.6324271 -0.8091022 3.5 0.5847079 -1.293458 3.262097 0.08614212 -1.170884 3.250025 0.2087153 -1.293458 0.7379027 0.08614212 -1.170884 0.7499751 0.2087153 -1.293458 3.622573 0.4466178 -1.170884 3.5 0.4586903 -1.184434 3.5 0.6995483 -1.293458 3.622573 0.7674328 1.293458 3.262097 0.08614208 1.170884 3.250025 0.2087153 1.293458 0.7379026 0.08614208 1.170884 0.749975 0.2087153 -1.293458 0.3774268 0.4466179 -1.170884 0.5 0.4586903 -1.184434 0.5 0.6995483 -1.293458 0.3774268 0.7674328 1.293458 3.622573 0.4466177 1.170884 3.5 0.4586902 1.293458 3.596433 0.3152032 1.170884 3.480972 0.3630289 1.293458 3.515154 0.193561 1.170884 3.426784 0.2819313 1.293458 3.393512 0.112282 1.170884 3.345686 0.2277435 -1.293458 3.393512 0.1122821 -1.170884 3.345686 0.2277435 -1.293458 3.515154 0.193561 -1.170884 3.426784 0.2819313 -1.293458 3.596433 0.3152033 -1.170884 3.480972 0.3630289 1.293458 0.606488 0.1122821 1.170884 0.6543137 0.2277435 1.293458 0.4848456 0.1935609 1.170884 0.573216 0.2819313 1.293458 0.4035668 0.3152032 1.170884 0.5190282 0.3630289 1.293458 0.3774268 0.4466178 1.170884 0.5 0.4586902 -1.293458 0.4035668 0.3152033 -1.170884 0.5190282 0.3630289 -1.293458 0.4848457 0.1935609 -1.170884 0.573216 0.2819313 -1.293458 0.606488 0.1122821 -1.170884 0.6543137 0.2277435 -0.8568219 3.5 0.8816725 -0.8568219 3.622573 1 0.8568219 3.5 0.8816724 0.8568219 3.622573 1 1.022678 3.5 0.8832286 1.056646 3.622573 1 -0.8568219 0.3774268 1 -0.8568219 0.5 0.8816725 0.8568219 0.5 0.8816724 0.8568219 0.3774268 1 1.022678 0.5 0.8832286 1.056646 0.3774268 1 1.184434 3.5 0.6995486 1.293458 3.622573 0.7674326 -1.022676 3.5 0.8832283 -1.056646 3.622573 1 1.184434 0.5 0.6995486 1.293458 0.3774268 0.7674326 -1.056646 0.3774268 1 -1.022676 0.5 0.8832283 -1.293458 3.262097 0 1.293458 3.262097 0 1.293458 0.7379027 0 -1.293458 0.7379027 0 -1.293458 0 0.4466179 1.293458 0 0.4466179 -1.293458 4 0.4466178 1.293458 4 0.4466178 -0.8568219 5 0 0.8568219 5 0 1.056646 5 0 1.293458 4.790806 0 1.293458 4.5 0 -1.293458 4.790806 0 -1.293458 4.5 0 -1.056646 5 0 -1.293458 4.5 0.2470264 -1.293458 4.288561 0.4466178 -1.293458 4.790806 0.5248862 -1.293458 4.547533 0.7674326 -1.056646 5 0.7522891 -1.056646 4.757571 1 -0.8568219 5 0.7767134 -0.8568219 4.776713 1 0.8568219 5 0.7767134 0.8568219 4.776713 1 1.056646 5 0.7522891 1.056646 4.757571 1 1.293458 4.790806 0.5248862 1.293458 4.547533 0.7674326 1.293458 4.5 0.2470264 1.293458 4.288561 0.4466178</float_array>
          <technique_common>
            <accessor source="#polySurfaceShape65-positions-array" count="152" stride="3">
              <param name="X" type="float"/>
              <param name="Y" type="float"/>
              <param name="Z" type="float"/>
            </accessor>
          </technique_common>
        </source>
        <source id="polySurfaceShape65-normals" name="polySurfaceShape65-normals">
          <float_array id="polySurfaceShape65-normals-array" count="726">-8.28173e-4 -0.3736919 0.9275523 0.3526802 -0.3971996 0.8472598 0.3785028 0 0.9256002 0 0 0.9999999 0.9276444 -0.3720482 0.03249784 1 0 0 0.9221401 0 0.3868563 0.8513504 -0.3947648 0.3454898 0.9238784 0 0.3826859 0.9238784 0 0.3826859 0.9999999 0 0 0.9999999 0 0 0.9999999 0 0 0.9999999 0 0 -0.9999999 0 0 -0.9221399 0 0.3868564 -0.8513499 0.3947656 0.3454901 -0.9276443 0.3720483 0.03249778 0 0 0.9999999 0.3785029 0 0.9256002 0.3526801 0.3971994 0.8472598 -8.28173e-4 0.3736919 0.9275523 0.3842622 0.09049166 0.9187784 0.3842627 -0.09049179 0.9187782 0 -0.09801699 0.9951847 0 0.09801706 0.9951847 -0.3842626 -0.0904919 0.9187782 -0.3842621 0.09049169 0.9187785 0 0.09801703 0.9951847 0 -0.09801732 0.9951847 -0.9999999 0 0 -0.9999999 0 0 -0.9238784 0 0.3826859 -0.9238784 0 0.3826859 -0.9999999 0 0 -0.9999999 0 0 0 -0.9951847 0.09801714 0 -0.9238797 0.382683 0.3890549 -0.8510913 0.3525335 0.3916307 -0.9160909 0.08603904 0 -0.707107 0.7071066 0.3890547 -0.651397 0.6513972 0 -0.3826831 0.9238797 0.3890553 -0.3525334 0.8510911 0 -0.3826835 0.9238796 -0.3890552 -0.3525335 0.8510911 0 -0.7071065 0.7071071 -0.3890546 -0.6513968 0.6513975 0 -0.9238794 0.3826836 -0.3890548 -0.8510911 0.3525338 0 -0.9951847 0.0980171 -0.3916307 -0.916091 0.08603904 0 0.3826835 0.9238796 0.3890551 0.3525335 0.8510911 0 0.7071067 0.7071069 0.389055 0.651397 0.651397 0 0.9238795 0.3826837 0.3890549 0.8510911 0.3525336 0 0.9951847 0.09801714 0.3916306 0.916091 0.08603894 0 0.9951847 0.09801728 0 0.9238794 0.3826838 -0.3890548 0.8510913 0.3525337 -0.3916305 0.9160911 0.08603907 0 0.7071069 0.7071068 -0.3890548 0.6513972 0.651397 0 0.3826837 0.9238794 -0.3890549 0.3525337 0.8510912 0.9999999 0 0 0.9999999 0 0 0.9999999 0 0 -0.9999999 0 0 -0.9999999 0 0 -0.9999999 0 0 0.9999999 0 0 0.9999999 0 0 0.9999999 0 0 -0.9999999 0 0 -0.9999999 0 0 -0.9999999 0 0 0.382681 0 0.9238806 0.382681 0 0.9238806 -0.382681 0 0.9238806 -0.382681 0 0.9238806 -0.382681 0 0.9238806 -0.382681 0 0.9238806 0.382681 0 0.9238806 0.382681 0 0.9238806 -0.9238784 0 0.382686 -0.9238784 0 0.382686 -0.9999999 0 0 -0.9999999 0 0 0.9238784 0 0.382686 0.9238784 0 0.382686 0.9999999 0 0 0.9999999 0 0 -0.3785027 0 0.9256002 -0.3526795 -0.3971998 0.8472601 8.2788e-4 -0.3736919 0.9275523 0 0 0.9999999 0 0 0.9999999 0 0 0.9999999 8.2788e-4 0.3736921 0.9275523 -0.3526796 0.3972002 0.8472596 -0.3785026 0 0.9256002 0 0 0.9999999 0 0 0.9999999 0 0 0.9999999 0 -0.9999999 0 0 -0.9999999 0 8.34568e-4 -0.9201195 0.3916371 -0.1439335 -0.9302685 0.3374666 0.92214 0 0.3868562 0.8513504 0.3947647 0.3454899 0 0.9999999 0 -0.1439336 0.9302686 0.337466 8.34568e-4 0.9201195 0.3916368 0 0.9999999 0 0 -0.9999999 0 0.3456958 -0.928749 0.1338644 0 0.9999999 0 0 0.9999999 0 -8.34864e-4 0.9201195 0.391637 0 -0.9999999 0 0 -0.9999999 0 -8.34864e-4 -0.9201193 0.3916372 0 0.9999999 0 0.3456957 0.9287491 0.1338647 0 -0.9999999 0 0 -0.9999999 0 0 -0.9999999 0 0 -0.9999999 0 0 0.9999999 0 0 0.9999999 0 0 0.9999999 0 0 0.9999999 0 -0.8513498 -0.3947653 0.3454905 -0.92214 0 0.3868564 0 -0.9999999 0 -0.3456949 -0.9287492 0.133865 0 -0.9999999 0 0 -0.9999999 0 0 -0.9999999 0 0.1439341 -0.9302685 0.3374663 0 -0.9999999 0 0 -0.9999999 0 0 -0.9999999 0 0.1439341 0.9302684 0.3374664 0 0.9999999 0 0 0.9999999 0 0 0.9999999 0 0 0.9999999 0 0 0.9999999 0 -0.3456948 0.9287493 0.1338647 0 0.9999999 0 0 0.9999999 0 0 0.9999999 0 0 0.9999999 0 0 -0.9999999 0 0 -0.9999999 0 -0.9245303 -0.03735522 0.3792734 -0.9264651 -0.1440348 0.3477303 -0.9245301 0.03735518 0.3792739 -0.9264651 0.1440348 0.3477305 -0.9276444 -0.3720481 0.03249784 -0.926465 -0.3477305 0.1440349 0.9245303 -0.03735527 0.3792733 0.9264652 -0.1440348 0.3477303 0.9245301 0.03735513 0.3792738 0.926465 0.1440348 0.3477304 -0.9264651 0.3477304 0.1440347 0.926465 -0.3477304 0.1440349 0.9264649 -0.2661415 0.2661418 -0.9264649 -0.2661417 0.2661419 0.926465 0.2661417 0.2661413 0.9264651 0.3477305 0.1440347 0.9276443 0.3720482 0.03249774 -0.9264651 0.2661414 0.2661414 -0.9999999 0 0 0.9999999 0 0 0.9999999 0 0 0.9999999 0 0 -0.9999999 0 0 -0.9999999 0 0 -0.9999999 0 0 0.9999999 0 0 0.9999999 0 0 0.9999999 0 0 0.9999999 0 0 0.9999999 0 0 1 0 0 -0.9999999 0 0 -0.9999999 0 0 -0.9999999 0 0 -0.9999999 0 0 -0.9999999 0 0 -0.9999999 0 0 -0.9999999 0 0 -0.9999999 0 0 -0.9999999 0 0 -0.9999999 0 0 -1 0 0 0.9999999 0 0 0.9999999 0 0 0.9999999 0 0 0.9999999 0 0 1 0 0 0.9999999 0 0 -0.02078132 0.9243342 0.3810178 0.02078132 0.9243342 0.3810178 0 0.9999999 0 0 0.9999999 0 0.4434217 0.8349674 0.3258936 0.3539376 0.935269 0 0.940011 0.3208252 0.1159752 0.9999999 0 0 0.9999999 0 0 0.9116068 0.4110633 0 -0.9999999 0 0 -0.940011 0.3208253 0.1159752 -0.9116067 0.4110632 0 -0.9999999 0 0 -0.4434217 0.8349674 0.3258936 -0.3539377 0.935269 0 -0.9999999 0 0 -0.9999999 0 0 -0.9999999 0 0 -0.9221399 0 0.3868564 -0.9442778 0.1162951 0.3079203 -0.3785027 0 0.9256002 -0.4570277 0.3311163 0.8255227 0 0 0.9999999 -0.02080556 0.3836158 0.9232583 0 0 0.9999999 0.02080556 0.3836158 0.9232583 0.3785028 0 0.9256002 0.4570278 0.3311163 0.8255227 0.9221401 0 0.3868563 0.9442778 0.116295 0.3079202 0.9999999 0 0 0.9999999 0 0 0.9999999 0 0</float_array>
          <technique_common>
            <accessor source="#polySurfaceShape65-normals-array" count="242" stride="3">
              <param name="X" type="float"/>
              <param name="Y" type="float"/>
              <param name="Z" type="float"/>
            </accessor>
          </technique_common>
        </source>
        <source id="polySurfaceShape65-map1" name="polySurfaceShape65-map1">
          <float_array id="polySurfaceShape65-map1-array" count="476">0.3224895 0.9047317 0.3558274 0.9027121 0.3706118 0.968536 0.3224895 0.9751438 0.4292513 0.8170639 0.495095 0.8421463 0.4764862 0.898169 0.4104349 0.8767527 0.6785077 0.5837202 0.1080821 0.58372 0.1080806 0.6076844 0.1556149 0.6552096 0.6309756 0.6552099 0.6785098 0.6076846 0.495094 0.8421457 0.4764862 0.8981669 0.4104349 0.876751 0.4292513 0.8170632 0.3224895 0.9751416 0.3706107 0.9685347 0.3558272 0.9027121 0.3224895 0.9047317 0.1488993 0.01195025 0.1488969 0.5024965 0.1156871 0.5024966 0.1156893 0.01195055 0.1488965 0.5024966 0.1488988 0.01194984 0.115689 0.01194984 0.1156874 0.5024967 0.1556156 0.6552098 0.1080801 0.6076846 0.108083 0.5837198 0.6785084 0.5837216 0.6785098 0.6076849 0.6309756 0.6552125 0.3658766 0.8034305 0.3674724 0.790444 0.3995516 0.7898696 0.3974745 0.8089327 0.3650388 0.7774268 0.3964372 0.7705791 0.3588574 0.7639427 0.3888286 0.7528969 0.3511798 0.7487261 0.3788157 0.7374436 0.3511793 0.7487252 0.3588561 0.7639419 0.3888272 0.7528965 0.378814 0.737443 0.3650381 0.7774266 0.3964363 0.7705783 0.3674713 0.7904428 0.3995513 0.7898696 0.3658755 0.8034292 0.3974745 0.8089317 0.3511793 0.7487252 0.3588561 0.7639419 0.3888272 0.7528965 0.378814 0.737443 0.3650381 0.7774266 0.3964363 0.7705783 0.3674713 0.7904428 0.3995513 0.7898696 0.3658755 0.8034292 0.3974745 0.8089317 0.3658766 0.8034298 0.3674726 0.7904431 0.3995517 0.789869 0.3974747 0.8089317 0.3650384 0.7774266 0.3964377 0.7705779 0.3588567 0.7639421 0.3888284 0.7528958 0.3511796 0.7487252 0.3788148 0.7374426 0.6491629 0.651594 0.6645846 0.6412941 0.6748904 0.6258762 0.6748904 0.6258756 0.6645855 0.6412944 0.6491643 0.6515957 0.1116998 0.625876 0.1220047 0.6412939 0.1374259 0.6515939 0.1374283 0.6515941 0.1220059 0.641294 0.1116991 0.6258762 0.1080818 0.5708877 0.6785082 0.5708879 0.6785083 0.5527368 0.108083 0.5527366 0.6785089 0.5708889 0.1080837 0.5708873 0.1080837 0.5527363 0.6785096 0.5527368 0.1080828 0.5399048 0.6785083 0.5399051 0.6785083 0.5089808 0.1080827 0.5089809 0.6785096 0.5399051 0.1080847 0.539904 0.1080844 0.5089805 0.6785096 0.5089805 0.3706107 0.9685347 0.3558272 0.9027121 0.3224895 0.9047317 0.3224895 0.9751416 0.006325006 0.9059302 0.006325006 0.9763779 0.3224895 0.9047303 0.355827 0.9027103 0.3706115 0.9685346 0.3224895 0.9751416 0.006325006 0.9763758 0.006325006 0.905928 0.4327133 0.9477875 0.3461124 0.8293536 0.3247116 0.8293535 0.3227814 0.8724207 0.3513556 0.8724205 0.4327128 0.9477857 0.4104332 0.8767514 0.3461121 0.8293535 0.3513568 0.8724206 0.3227817 0.8724207 0.3247115 0.8293536 0.3593551 0.8226926 0.3876764 0.8516167 0.00350517 0.8293536 0.005788684 0.8724204 0.00350517 0.8293536 0.3247118 0.8293535 0.3227812 0.8724209 0.005788445 0.8724205 0.3593549 0.8226926 0.3876765 0.8516158 0.01323324 0.8181905 0.0131157 0.7878796 0.3147992 0.7867096 0.314917 0.8170355 0.3149171 0.8170347 0.01323342 0.8181896 0.01311469 0.7878788 0.3147991 0.7867087 0.4104332 0.8767514 0.4327128 0.9477857 0.3593549 0.8226926 0.3876764 0.8516158 0.3461127 0.8293536 0.3513568 0.8724206 0.3227814 0.8724207 0.3513556 0.8724205 0.3461124 0.8293536 0.3247116 0.8293535 0.4327136 0.9477855 0.3593546 0.8226921 0.3876766 0.8516158 0.3990546 0.7173965 0.4165423 0.7355393 0.1825836 0.5024967 0.1825857 0.01194984 0.3990559 0.7173961 0.4165425 0.7355393 0.4292511 0.8170639 0.4331677 0.7903228 0.3990557 0.7173972 0.4165425 0.7355404 0.1825836 0.5024967 0.1825864 0.01194984 0.3990546 0.7173965 0.4165423 0.7355393 0.4331696 0.7903228 0.4331692 0.790324 0.4287142 0.7614465 0.4287144 0.7614459 0.4287144 0.7614459 0.4331677 0.7903228 0.4292511 0.8170639 0.4287145 0.7614459 0.5265075 0.7665396 0.199327 0.01194942 0.1993244 0.5024965 0.5265075 0.7665396 0.1993263 0.01194978 0.1993241 0.5024967 0.5265077 0.7665396 0.4950937 0.8421453 0.4764861 0.8981669 0.4049162 0.7041938 0.4049162 0.7041938 0.4950937 0.8421453 0.4764861 0.8981669 0.4049162 0.7041938 0.5265074 0.7665405 0.4049165 0.7041938 0.8560705 0.9460565 0.85607 0.641731 0.9940062 0.6417311 0.9940062 0.9460562 0.8607548 0.6068764 0.9940062 0.6068765 0.5321846 0.9014269 0.5834367 0.9502459 0.5837769 0.9946334 0.5317729 0.9946334 0.5834367 0.9502459 0.5321849 0.901427 0.5317731 0.9946334 0.5837768 0.9946334 0.8607551 0.982734 0.9940062 0.9815429 0.4927634 0.8608416 0.4927634 0.9946334 0.4927634 0.8608416 0.4927634 0.9946334 0.672569 0.9946334 0.672569 0.9141128 0.6207097 0.9145104 0.672569 0.8571411 0.5742784 0.8578956 0.672569 0.8158405 0.5366589 0.8158405 0.6800697 0.9815429 0.6800699 0.9460565 0.8169839 0.9460562 0.8152843 0.9815429 0.6800696 0.6417311 0.8169834 0.6417311 0.6800695 0.6068765 0.8152837 0.6068764 0.672569 0.8158405 0.672569 0.857141 0.5742784 0.8578956 0.5366586 0.8158405 0.672569 0.9141127 0.6207097 0.9145103 0.672569 0.9946334</float_array>
          <technique_common>
            <accessor source="#polySurfaceShape65-map1-array" count="238" stride="2">
              <param name="S" type="float"/>
              <param name="T" type="float"/>
            </accessor>
          </technique_common>
        </source>
        <vertices id="polySurfaceShape65-vertices" name="polySurfaceShape65-vertices">
          <input semantic="POSITION" source="#polySurfaceShape65-positions"/>
        </vertices>
        <triangles material="lambert3SG" count="276">
          <input semantic="VERTEX" source="#polySurfaceShape65-vertices" offset="0"/>
          <input semantic="NORMAL" source="#polySurfaceShape65-normals" offset="1"/>
          <input semantic="TEXCOORD" source="#polySurfaceShape65-map1" offset="2" set="0"/>
          <p>103 0 0 105 1 1 29 3 3 29 3 3 105 1 1 32 2 2 72 4 4 127 5 5 113 7 7 113 7 7 127 5 5 33 6 6 41 8 8 43 9 9 7 13 13 43 9 9 18 10 10 7 13 13 18 10 10 17 11 11 7 13 13 17 11 11 8 12 12 7 13 13 124 14 14 39 15 15 68 17 17 68 17 17 39 15 15 71 16 16 31 18 18 37 19 19 109 21 21 109 21 21 37 19 19 111 20 20 67 22 22 65 23 23 17 25 25 17 25 25 65 23 23 8 24 24 57 26 26 59 27 27 12 29 29 12 29 29 59 27 27 23 28 28 47 32 32 45 33 33 22 31 31 45 33 33 13 34 34 22 31 31 22 31 31 13 34 34 23 30 30 23 30 30 13 34 34 12 35 35 7 36 36 6 37 37 73 39 39 73 39 39 6 37 37 75 38 38 6 37 37 5 40 40 75 38 38 75 38 38 5 40 40 77 41 41 5 40 40 4 42 42 77 41 41 77 41 41 4 42 42 79 43 43 4 42 42 8 24 44 79 43 43 79 43 43 8 24 44 65 23 45 12 29 46 11 44 47 57 26 49 57 26 49 11 44 47 81 45 48 11 44 47 10 46 50 81 45 48 81 45 48 10 46 50 83 47 51 10 46 50 9 48 52 83 47 51 83 47 51 9 48 52 85 49 53 9 48 52 13 50 54 85 49 53 85 49 53 13 50 54 61 51 55 17 25 56 16 52 57 67 22 59 67 22 59 16 52 57 87 53 58 16 52 57 15 54 60 87 53 58 87 53 58 15 54 60 89 55 61 15 54 60 14 56 62 89 55 61 89 55 61 14 56 62 91 57 63 14 56 62 18 58 64 91 57 63 91 57 63 18 58 64 93 59 65 22 60 66 21 61 67 69 63 69 69 63 69 21 61 67 95 62 68 21 61 67 20 64 70 95 62 68 95 62 68 20 64 70 97 65 71 20 64 70 19 66 72 97 65 71 97 65 71 19 66 72 99 67 73 19 66 72 23 28 74 99 67 73 99 67 73 23 28 74 59 27 75 7 13 13 8 12 12 6 70 78 6 70 78 8 12 12 5 69 77 4 68 76 5 69 77 8 12 12 12 35 35 13 34 34 11 73 81 11 73 81 13 34 34 10 72 80 9 71 79 10 72 80 13 34 34 17 11 11 18 10 10 16 76 84 16 76 84 18 10 10 15 75 83 14 74 82 15 75 83 18 10 10 22 31 31 23 30 30 21 79 87 21 79 87 23 30 30 20 78 86 19 77 85 20 78 86 23 30 30 42 80 88 40 81 89 48 83 91 48 83 91 40 81 89 50 82 90 44 84 92 46 85 93 54 87 95 54 87 95 46 85 93 52 86 94 49 88 96 51 89 97 25 91 99 25 91 99 51 89 97 26 90 98 55 92 100 53 93 101 27 95 103 27 95 103 53 93 101 24 94 102 35 96 104 115 97 105 28 99 107 28 99 107 115 97 105 101 98 106 101 98 108 103 0 0 28 101 109 28 101 109 103 0 0 29 100 3 106 102 110 118 103 111 30 105 113 30 105 113 118 103 111 38 104 112 30 106 113 31 107 114 106 102 110 106 102 110 31 107 114 109 21 115 105 1 1 113 7 7 32 2 2 32 2 2 113 7 7 33 6 116 54 109 118 100 110 119 44 108 117 44 108 117 100 110 119 114 111 120 37 19 19 36 112 121 111 20 20 111 20 20 36 112 121 117 113 122 119 115 124 107 116 125 46 114 123 46 114 123 107 116 125 52 117 126 7 36 36 73 39 39 41 118 127 41 118 127 73 39 39 112 119 128 48 120 129 52 121 126 108 122 130 108 122 130 52 121 126 107 116 125 54 123 131 50 124 132 100 110 134 100 110 134 50 124 132 102 125 133 41 8 8 40 81 89 43 9 9 43 9 9 40 81 89 42 80 88 44 84 92 45 33 33 46 85 93 46 85 93 45 33 33 47 32 32 49 88 96 48 83 91 51 89 97 51 89 97 48 83 91 50 82 90 52 86 94 53 93 101 54 87 95 54 87 95 53 93 101 55 92 100 116 127 136 93 59 65 43 126 135 43 126 135 93 59 65 18 58 64 55 128 137 27 129 138 51 131 140 51 131 140 27 129 138 26 130 139 53 132 141 49 133 142 24 135 144 24 135 144 49 133 142 25 134 143 63 136 145 115 97 105 34 137 146 34 137 146 115 97 105 35 96 104 62 139 148 61 51 55 45 138 147 45 138 147 61 51 55 13 50 54 114 111 120 62 139 148 44 140 117 44 140 117 62 139 148 45 141 147 104 143 150 102 125 133 40 142 149 40 142 149 102 125 133 50 144 132 41 145 127 112 119 128 40 146 149 40 146 149 112 119 128 104 143 150 110 147 152 42 148 153 108 122 151 108 122 151 42 148 153 48 149 154 43 150 135 42 151 153 116 127 136 116 127 136 42 151 153 110 147 152 118 103 111 71 16 16 38 104 112 38 104 112 71 16 16 39 15 155 22 60 66 69 63 69 47 152 156 47 152 156 69 63 69 70 153 157 47 154 156 70 153 157 46 155 123 46 155 123 70 153 157 119 115 124 53 156 141 52 121 126 49 157 142 49 157 142 52 121 126 48 120 129 55 158 137 51 159 140 54 123 131 54 123 131 51 159 140 50 124 132 57 26 49 81 45 48 56 160 158 56 160 158 81 45 48 80 161 159 57 26 26 56 160 160 59 27 27 59 27 27 56 160 160 58 162 161 59 27 75 58 162 162 99 67 73 99 67 73 58 162 162 98 163 163 61 51 55 60 164 164 85 49 53 85 49 53 60 164 164 84 165 165 61 51 55 62 139 148 60 164 164 60 164 164 62 139 148 63 136 145 62 139 148 114 111 120 63 136 145 63 136 145 114 111 120 115 97 105 65 23 45 64 166 166 79 43 43 79 43 43 64 166 166 78 167 167 64 166 168 65 23 23 66 168 169 66 168 169 65 23 23 67 22 22 67 22 59 87 53 58 66 168 170 66 168 170 87 53 58 86 169 171 69 63 69 95 62 68 68 17 17 68 17 17 95 62 68 94 170 172 69 63 69 68 17 17 70 153 157 70 153 157 68 17 17 71 16 16 70 153 157 71 16 16 119 115 124 119 115 124 71 16 16 118 103 111 73 39 39 72 4 4 112 119 128 112 119 128 72 4 4 113 7 7 73 39 39 75 38 38 72 4 4 72 4 4 75 38 38 74 171 173 74 171 173 75 38 38 76 172 174 76 172 174 75 38 38 77 41 41 76 172 174 77 41 41 78 167 167 78 167 167 77 41 41 79 43 43 80 161 159 81 45 48 82 173 175 82 173 175 81 45 48 83 47 51 82 173 175 83 47 51 84 165 165 84 165 165 83 47 51 85 49 53 86 169 171 87 53 58 88 174 176 88 174 176 87 53 58 89 55 61 88 174 176 89 55 61 90 175 177 90 175 177 89 55 61 91 57 63 90 175 177 91 57 63 92 176 178 92 176 178 91 57 63 93 59 65 93 59 65 116 127 136 92 176 178 92 176 178 116 127 136 117 113 122 94 170 172 95 62 68 96 177 179 96 177 179 95 62 68 97 65 71 96 177 179 97 65 71 98 163 163 98 163 163 97 65 71 99 67 73 101 98 108 100 110 134 103 0 0 103 0 0 100 110 134 102 125 133 100 110 119 101 98 106 114 111 120 114 111 120 101 98 106 115 97 105 102 125 133 104 143 150 103 0 0 103 0 0 104 143 150 105 1 1 105 1 1 104 143 150 113 7 7 113 7 7 104 143 150 112 119 128 107 116 125 119 115 124 106 102 110 106 102 110 119 115 124 118 103 111 107 116 125 106 102 110 108 122 130 108 122 130 106 102 110 109 21 115 108 122 151 109 21 21 110 147 152 110 147 152 109 21 21 111 20 20 111 20 20 117 113 122 110 147 152 110 147 152 117 113 122 116 127 136 1 178 180 80 161 159 82 173 175 122 179 181 121 180 182 66 168 169 66 168 169 121 180 182 64 166 168 2 181 183 86 169 171 88 174 176 123 182 184 58 162 161 120 183 185 120 183 185 58 162 161 56 160 160 3 184 186 94 170 172 96 177 179 125 185 187 92 176 178 36 112 188 36 112 188 92 176 178 117 113 122 2 186 183 90 175 177 125 187 187 125 187 187 90 175 177 92 176 178 122 189 189 66 168 170 2 188 183 2 188 183 66 168 170 86 169 171 2 190 183 88 174 176 90 175 177 123 192 190 3 191 186 58 162 162 3 191 186 98 163 163 58 162 162 3 193 186 124 194 14 94 170 172 94 170 172 124 194 14 68 17 17 3 195 186 96 177 179 98 163 163 126 196 191 60 164 164 34 137 192 34 137 192 60 164 164 63 136 145 1 197 180 84 165 165 126 198 191 126 198 191 84 165 165 60 164 164 120 199 193 56 160 158 1 200 180 56 160 158 80 161 159 1 200 180 1 201 180 82 173 175 84 165 165 0 202 194 127 203 5 74 171 173 74 171 173 127 203 5 72 4 4 121 204 195 0 205 194 64 166 166 0 205 194 78 167 167 64 166 166 76 172 174 0 206 194 74 171 173 78 167 167 0 207 194 76 172 174 142 208 196 144 209 197 128 211 199 128 211 199 144 209 197 129 210 198 144 209 197 146 212 200 129 210 198 129 210 198 146 212 200 130 213 201 148 214 202 150 215 203 131 217 205 131 217 205 150 215 203 132 216 204 138 219 207 133 220 208 136 218 206 136 218 206 133 220 208 134 221 209 142 208 196 128 211 199 140 222 210 140 222 210 128 211 199 135 223 211 146 212 212 148 214 202 130 213 213 130 213 213 148 214 202 131 217 205 140 222 214 135 223 215 138 219 207 138 219 207 135 223 215 133 220 208 1 224 216 136 218 206 134 221 209 1 224 216 126 225 217 137 226 218 126 225 217 34 227 219 137 226 218 137 226 218 34 227 219 139 228 220 34 227 219 35 229 221 139 228 220 139 228 220 35 229 221 141 230 222 35 229 223 28 231 224 141 230 226 141 230 226 28 231 224 143 232 225 28 231 224 29 233 227 143 232 225 143 232 225 29 233 227 145 234 228 32 235 229 147 236 230 29 233 227 29 233 227 147 236 230 145 234 228 33 237 232 149 238 233 32 235 231 32 235 231 149 238 233 147 236 234 127 239 235 151 240 236 33 237 232 33 237 232 151 240 236 149 238 233 127 239 235 0 241 237 151 240 236 150 215 203 0 241 237 132 216 204 136 218 206 137 226 218 138 219 207 138 219 207 137 226 218 139 228 220 138 219 207 139 228 220 140 222 214 140 222 214 139 228 220 141 230 222 140 222 210 141 230 226 142 208 196 142 208 196 141 230 226 143 232 225 142 208 196 143 232 225 144 209 197 144 209 197 143 232 225 145 234 228 145 234 228 147 236 230 144 209 197 144 209 197 147 236 230 146 212 200 147 236 234 149 238 233 146 212 212 146 212 212 149 238 233 148 214 202 149 238 233 151 240 236 148 214 202 148 214 202 151 240 236 150 215 203 136 218 206 1 224 216 137 226 218 0 241 237 150 215 203 151 240 236</p>
        </triangles>
      </mesh>
      <extra>
        <technique profile="OpenCOLLADAMaya">
          <originalMayaNodeId>polySurfaceShape65</originalMayaNodeId>
          <double_sided>1</double_sided>
        </technique>
      </extra>
    </geometry>
    <geometry id="polySurfaceShape55" name="polySurfaceShape55">
      <mesh>
        <source id="polySurfaceShape55-positions" name="polySurfaceShape55-positions">
          <float_array id="polySurfaceShape55-positions-array" count="720">-0.5244739 0.8539657 0.6310034 0.5244672 0.8539657 0.6310034 -0.5244739 0.864894 0.6465655 0.5244672 0.864894 0.6465655 -0.5758228 1.093764 0.4768417 0.575816 1.093764 0.4768417 -0.5758228 1.067263 0.4391051 0.575816 1.067263 0.4391051 0.575816 0.9803275 0.5609631 -0.5758228 0.9803275 0.5609631 -0.5758228 0.9615453 0.534217 0.575816 0.9615453 0.534217 0.5631561 0.9234702 0.6031269 -0.5631635 0.9234702 0.6031269 -0.5631635 0.9085564 0.5818896 0.5631561 0.9085564 0.5818896 -0.5758228 1.079585 0.6310034 0.575816 1.079585 0.6310034 -0.5758228 1.090513 0.6465655 0.575816 1.090513 0.6465655 -0.5758228 1.319383 0.4768417 0.575816 1.319383 0.4768417 -0.5758228 1.292883 0.4391051 0.575816 1.292883 0.4391051 -0.5758228 1.317284 0.6310034 0.575816 1.317284 0.6310034 -0.5758228 1.328212 0.6465655 0.575816 1.328212 0.6465655 -0.5758228 1.557082 0.4768417 0.575816 1.557082 0.4768417 -0.5758228 1.530582 0.4391051 0.575816 1.530582 0.4391051 -0.5758228 1.542594 0.6310034 0.575816 1.542594 0.6310034 -0.5758228 1.553522 0.6465655 0.575816 1.553522 0.6465655 -0.5758228 1.782392 0.4768417 0.575816 1.782392 0.4768417 -0.5758228 1.755892 0.4391051 0.575816 1.755892 0.4391051 -0.5758228 1.780602 0.6310034 0.575816 1.780602 0.6310034 -0.5758228 1.791531 0.6465655 0.575816 1.791531 0.6465655 -0.5758228 2.020401 0.4768417 0.575816 2.020401 0.4768417 -0.5758228 1.9939 0.4391051 0.575816 1.9939 0.4391051 -0.5758228 2.000997 0.6310034 0.575816 2.000997 0.6310034 -0.5758228 2.011925 0.6465655 0.575816 2.011925 0.6465655 -0.5758228 2.240795 0.4768417 0.575816 2.240795 0.4768417 -0.5758228 2.214294 0.4391051 0.575816 2.214294 0.4391051 -0.5758228 2.243921 0.6310034 0.575816 2.243921 0.6310034 -0.5758228 2.254849 0.6465655 0.575816 2.254849 0.6465655 -0.5758228 2.483719 0.4768417 0.575816 2.483719 0.4768417 -0.5758228 2.457219 0.4391051 0.575816 2.457219 0.4391051 -0.5758228 2.466309 0.6310034 0.575816 2.466309 0.6310034 -0.5758228 2.477238 0.6465655 0.575816 2.477238 0.6465655 -0.5758228 2.706107 0.4768417 0.575816 2.706107 0.4768417 -0.5758228 2.679607 0.4391051 0.575816 2.679607 0.4391051 -0.5758228 2.707239 0.6310034 0.575816 2.707239 0.6310034 -0.5758228 2.718168 0.6465655 0.575816 2.718168 0.6465655 -0.5758228 2.947037 0.4768417 0.575816 2.947037 0.4768417 -0.5758228 2.920537 0.4391051 0.575816 2.920537 0.4391051 -0.5758228 2.92054 0.6310034 0.575816 2.92054 0.6310034 -0.5758228 2.931469 0.6465655 0.575816 2.931469 0.6465655 -0.4926489 3.160338 0.4768417 0.4926422 3.160338 0.4768417 -0.4926489 3.133838 0.4391051 0.4926422 3.133838 0.4391051 0.575816 3.036129 0.5689518 -0.5758228 3.036129 0.5689518 -0.5758228 3.01808 0.5432494 0.575816 3.01808 0.5432494 0.5578912 3.097076 0.5237553 -0.5578986 3.097076 0.5237553 -0.5578986 3.07488 0.4921481 0.5578912 3.07488 0.4921481 -0.5758215 0.9888808 0.4586902 -0.5633942 0.926403 0.4586902 -0.5280029 0.873437 0.4586902 -0.4750372 0.8380463 0.4586902 -0.4125592 0.8256187 0.4586902 0.4125555 0.8256187 0.4586902 0.4750336 0.8380463 0.4586902 0.5279999 0.873437 0.4586902 0.5633905 0.9264031 0.4586902 0.5758173 0.9888808 0.4586902 0.5758173 3.014955 0.4586902 0.5633905 3.077433 0.4586902 0.5279999 3.130399 0.4586902 0.4750336 3.165789 0.4586902 0.4125555 3.178217 0.4586902 -0.4125592 3.178217 0.4586902 -0.4750372 3.165789 0.4586902 -0.5280029 3.130399 0.4586902 -0.5633942 3.077433 0.4586902 -0.5758215 3.014955 0.4586902 -0.6869324 3.067019 0.4586902 -0.669361 3.155358 0.4586902 -0.6193207 3.230248 0.4586902 -0.5444312 3.280287 0.4586902 -0.4560925 3.297859 0.4586902 0.4560883 3.297859 0.4586902 0.5444281 3.280287 0.4586902 0.6193182 3.230248 0.4586902 0.6693573 3.155358 0.4586902 0.6869281 3.067019 0.4586902 -0.4560925 0.7059766 0.4586902 -0.5444312 0.7235483 0.4586902 -0.6193207 0.773588 0.4586902 -0.669361 0.8484779 0.4586902 -0.6869324 0.9368165 0.4586902 0.6869281 0.9368165 0.4586902 0.6693573 0.8484779 0.4586902 0.6193182 0.773588 0.4586902 0.5444281 0.7235483 0.4586902 0.4560883 0.7059766 0.4586902 -0.603595 0.9758676 0.6775652 -0.5758215 0.9888808 0.6497211 -0.603595 3.027968 0.6775652 -0.5758215 3.014955 0.6497211 -0.4226398 0.7979129 0.6775652 -0.4125592 0.8256187 0.6497211 0.4226361 0.7979129 0.6775652 0.4125555 0.8256187 0.6497211 0.6035907 0.9758677 0.6775652 0.5758173 0.9888808 0.6497211 0.6035907 3.027968 0.6775652 0.5758173 3.014955 0.6497211 0.4226361 3.205923 0.6775652 0.4125555 3.178217 0.6497211 -0.4226398 3.205923 0.6775652 -0.4125592 3.178217 0.6497211 -0.5864966 0.9094149 0.6775652 -0.5633942 0.926403 0.6497211 -0.5468207 0.8528612 0.6775652 -0.5280103 0.873437 0.6497211 -0.4896375 0.8139554 0.6775652 -0.4750372 0.8380463 0.6497211 0.4896356 0.8139554 0.6775652 0.4750336 0.8380463 0.6497211 0.5468182 0.8528613 0.6775652 0.5280072 0.873437 0.6497211 0.5864935 0.9094149 0.6775652 0.5633905 0.926403 0.6497211 0.5864935 3.094421 0.6775652 0.5633905 3.077433 0.6497211 0.5468182 3.150975 0.6775652 0.5280072 3.130399 0.6497211 0.4896356 3.18988 0.6775652 0.4750336 3.165789 0.6497211 -0.4896375 3.18988 0.6775652 -0.4750372 3.165789 0.6497211 -0.5468207 3.150975 0.6775652 -0.5280103 3.130399 0.6497211 -0.5864966 3.094421 0.6775652 -0.5633942 3.077433 0.6497211 -0.4460193 3.270182 0.6775652 -0.4560876 3.297859 0.6497211 0.446015 3.270182 0.6775652 0.4560834 3.297859 0.6497211 -0.6591766 3.054011 0.6775652 -0.6869275 3.067019 0.6497211 -0.6591766 0.9498247 0.6775652 -0.6869275 0.9368165 0.6497211 -0.4460193 0.7336542 0.6775652 -0.4560876 0.7059766 0.6497211 0.446015 0.7336542 0.6775652 0.4560834 0.7059766 0.6497211 0.6591742 3.054011 0.6775652 0.6869232 3.067019 0.6497211 0.6591742 0.9498247 0.6775652 0.6869232 0.9368165 0.6497211 -0.6462537 3.138364 0.6775652 -0.6693561 3.155358 0.6497211 -0.6005054 3.209674 0.6775652 -0.6193158 3.230248 0.6497211 -0.5298254 3.256191 0.6775652 -0.5444263 3.280287 0.6497211 0.5298236 3.256191 0.6775652 0.5444232 3.280287 0.6497211 0.6005048 3.209674 0.6775652 0.6193134 3.230248 0.6497211 0.6462518 3.138364 0.6775652 0.6693524 3.155358 0.6497211 -0.5298254 0.7476447 0.6775652 -0.5444263 0.7235483 0.6497211 -0.6005054 0.7941614 0.6775652 -0.6193158 0.773588 0.6497211 -0.6462537 0.8654718 0.6775652 -0.6693561 0.8484779 0.6497211 0.6462518 0.8654718 0.6775652 0.6693524 0.8484779 0.6497211 0.6005048 0.7941614 0.6775652 0.6193134 0.773588 0.6497211 0.5298236 0.7476447 0.6775652 0.5444232 0.7235483 0.6497211 -0.8091034 3.067019 0.4586902 -0.8091034 0.9368165 0.4586902 -0.4560925 3.5 0.4586902 0.4560883 3.5 0.4586902 0.8091016 3.067019 0.4586902 0.8091016 0.9368165 0.4586902 -0.4560925 0.5 0.4586902 0.4560883 0.5 0.4586902 -0.8091034 3.155358 0.4586902 -0.8091034 3.5 0.4586902 -0.5444312 3.5 0.4586902 0.5444281 3.5 0.4586902 0.8091016 3.5 0.4586902 0.8091016 3.155358 0.4586902 -0.5444312 0.5 0.4586902 -0.8091034 0.5 0.4586902 -0.8091034 0.8484779 0.4586902 0.8091016 0.8484779 0.4586902 0.8091016 0.5 0.4586902 0.5444281 0.5 0.4586902 -0.4125592 3.014955 0.4586902 -0.4125592 0.9888808 0.4586902 0.4125555 0.9888808 0.4586902 0.4125555 3.014955 0.4586902</float_array>
          <technique_common>
            <accessor source="#polySurfaceShape55-positions-array" count="240" stride="3">
              <param name="X" type="float"/>
              <param name="Y" type="float"/>
              <param name="Z" type="float"/>
            </accessor>
          </technique_common>
        </source>
        <source id="polySurfaceShape55-normals" name="polySurfaceShape55-normals">
          <float_array id="polySurfaceShape55-normals-array" count="1596">0 -0.8183688 0.5746933 0 -0.8183688 0.5746933 0 -0.8183688 0.5746933 0 -0.8183688 0.5746933 0 0.5956596 0.8032368 0 0.5956596 0.8032368 0 0.5956596 0.8032368 0 0.5956596 0.8032368 0 0.8183692 -0.5746927 0 0.8183692 -0.5746927 0 0.8183692 -0.5746927 0 0.8183692 -0.5746927 0 -0.6688309 -0.7434145 0 -0.6688309 -0.7434145 0 -0.6688309 -0.7434145 0 -0.6688309 -0.7434145 0.8833137 -0.3836358 0.2694075 0.8833137 -0.3836358 0.2694075 0.8833137 -0.3836358 0.2694075 0.8833137 -0.3836358 0.2694075 -0.8833106 -0.383641 0.2694101 -0.8833106 -0.383641 0.2694101 -0.8833106 -0.383641 0.2694101 -0.8833106 -0.383641 0.2694101 0 0.5956596 0.8032368 0 0.5956596 0.8032368 0 0.5956596 0.8032368 0 0.5956596 0.8032368 -0.9999999 0 0 -0.9999999 0 0 -0.9999999 0 0 -0.9999999 0 0 0 -0.6688306 -0.7434146 0 -0.6688306 -0.7434146 0 -0.6688306 -0.7434146 0 -0.6688306 -0.7434146 0.9999999 0 0 0.9999999 0 0 0.9999999 0 0 0.9999999 0 0 0 0.59566 0.8032366 0 0.59566 0.8032366 0 0.59566 0.8032366 0 0.59566 0.8032366 -0.9843712 -0.1441197 0.1012062 -0.9843712 -0.1441197 0.1012062 -0.9843712 -0.1441197 0.1012062 -0.9843712 -0.1441197 0.1012062 0 -0.6688302 -0.7434151 0 -0.6688302 -0.7434151 0 -0.6688302 -0.7434151 0 -0.6688302 -0.7434151 0.9843699 -0.1441254 0.1012112 0.9843699 -0.1441254 0.1012112 0.9843699 -0.1441254 0.1012112 0.9843699 -0.1441254 0.1012112 0 -0.8183677 0.5746948 0 -0.8183677 0.5746948 0 -0.8183677 0.5746948 0 -0.8183677 0.5746948 0 0.5956597 0.8032368 0 0.5956597 0.8032368 0 0.5956597 0.8032368 0 0.5956597 0.8032368 0 0.8183692 -0.5746927 0 0.8183692 -0.5746927 0 0.8183692 -0.5746927 0 0.8183692 -0.5746927 0 -0.6688306 -0.7434148 0 -0.6688306 -0.7434148 0 -0.6688306 -0.7434148 0 -0.6688306 -0.7434148 0.9999999 0 0 0.9999999 0 0 0.9999999 0 0 0.9999999 0 0 -0.9999999 0 0 -0.9999999 0 0 -0.9999999 0 0 -0.9999999 0 0 0 -0.8183677 0.5746948 0 -0.8183677 0.5746948 0 -0.8183677 0.5746948 0 -0.8183677 0.5746948 0 0.5956597 0.8032368 0 0.5956597 0.8032368 0 0.5956597 0.8032368 0 0.5956597 0.8032368 0 0.8183683 -0.5746939 0 0.8183683 -0.5746939 0 0.8183683 -0.5746939 0 0.8183683 -0.5746939 0 -0.6688307 -0.7434146 0 -0.6688307 -0.7434146 0 -0.6688307 -0.7434146 0 -0.6688307 -0.7434146 0.9999999 0 0 0.9999999 0 0 0.9999999 0 0 0.9999999 0 0 -0.9999999 0 0 -0.9999999 0 0 -0.9999999 0 0 -0.9999999 0 0 0 -0.8183761 0.5746829 0 -0.8183761 0.5746829 0 -0.8183761 0.5746829 0 -0.8183761 0.5746829 0 0.5956593 0.8032371 0 0.5956593 0.8032371 0 0.5956593 0.8032371 0 0.5956593 0.8032371 0 0.8183683 -0.5746939 0 0.8183683 -0.5746939 0 0.8183683 -0.5746939 0 0.8183683 -0.5746939 0 -0.6688309 -0.7434145 0 -0.6688309 -0.7434145 0 -0.6688309 -0.7434145 0 -0.6688309 -0.7434145 0.9999999 0 0 0.9999999 0 0 0.9999999 0 0 0.9999999 0 0 -0.9999999 0 0 -0.9999999 0 0 -0.9999999 0 0 -0.9999999 0 0 0 -0.8183677 0.5746948 0 -0.8183677 0.5746948 0 -0.8183677 0.5746948 0 -0.8183677 0.5746948 0 0.5956593 0.8032371 0 0.5956593 0.8032371 0 0.5956593 0.8032371 0 0.5956593 0.8032371 0 0.8183683 -0.5746939 0 0.8183683 -0.5746939 0 0.8183683 -0.5746939 0 0.8183683 -0.5746939 0 -0.6688303 -0.7434151 0 -0.6688303 -0.7434151 0 -0.6688303 -0.7434151 0 -0.6688303 -0.7434151 0.9999999 0 0 0.9999999 0 0 0.9999999 0 0 0.9999999 0 0 -0.9999999 0 0 -0.9999999 0 0 -0.9999999 0 0 -0.9999999 0 0 0 -0.8183677 0.5746948 0 -0.8183677 0.5746948 0 -0.8183677 0.5746948 0 -0.8183677 0.5746948 0 0.5956593 0.8032371 0 0.5956593 0.8032371 0 0.5956593 0.8032371 0 0.5956593 0.8032371 0 0.8183666 -0.5746964 0 0.8183666 -0.5746964 0 0.8183666 -0.5746964 0 0.8183666 -0.5746964 0 -0.6688306 -0.7434148 0 -0.6688306 -0.7434148 0 -0.6688306 -0.7434148 0 -0.6688306 -0.7434148 0.9999999 0 0 0.9999999 0 0 0.9999999 0 0 0.9999999 0 0 -0.9999999 0 0 -0.9999999 0 0 -0.9999999 0 0 -0.9999999 0 0 0 -0.818372 0.5746889 0 -0.818372 0.5746889 0 -0.818372 0.5746889 0 -0.818372 0.5746889 0 0.5956593 0.8032371 0 0.5956593 0.8032371 0 0.5956593 0.8032371 0 0.5956593 0.8032371 0 0.8183683 -0.5746939 0 0.8183683 -0.5746939 0 0.8183683 -0.5746939 0 0.8183683 -0.5746939 0 -0.6688306 -0.7434148 0 -0.6688306 -0.7434148 0 -0.6688306 -0.7434148 0 -0.6688306 -0.7434148 0.9999999 0 0 0.9999999 0 0 0.9999999 0 0 0.9999999 0 0 -0.9999999 0 0 -0.9999999 0 0 -0.9999999 0 0 -0.9999999 0 0 0 -0.8183677 0.5746948 0 -0.8183677 0.5746948 0 -0.8183677 0.5746948 0 -0.8183677 0.5746948 0 0.595659 0.8032373 0 0.595659 0.8032373 0 0.595659 0.8032373 0 0.595659 0.8032373 0 0.8183683 -0.5746939 0 0.8183683 -0.5746939 0 0.8183683 -0.5746939 0 0.8183683 -0.5746939 0 -0.66883 -0.7434153 0 -0.66883 -0.7434153 0 -0.66883 -0.7434153 0 -0.66883 -0.7434153 0.9999999 0 0 0.9999999 0 0 0.9999999 0 0 0.9999999 0 0 -0.9999999 0 0 -0.9999999 0 0 -0.9999999 0 0 -0.9999999 0 0 0 -0.8183677 0.5746948 0 -0.8183677 0.5746948 0 -0.8183677 0.5746948 0 -0.8183677 0.5746948 0 0.5956596 0.8032368 0 0.5956596 0.8032368 0 0.5956596 0.8032368 0 0.5956596 0.8032368 0 0.8183683 -0.5746939 0 0.8183683 -0.5746939 0 0.8183683 -0.5746939 0 0.8183683 -0.5746939 0 -0.6688306 -0.7434148 0 -0.6688306 -0.7434148 0 -0.6688306 -0.7434148 0 -0.6688306 -0.7434148 0.9999999 0 0 0.9999999 0 0 0.9999999 0 0 0.9999999 0 0 -0.9999999 0 0 -0.9999999 0 0 -0.9999999 0 0 -0.9999999 0 0 0 -0.8183677 0.5746948 0 -0.8183677 0.5746948 0 -0.8183677 0.5746948 0 -0.8183677 0.5746948 0 0.595659 0.8032374 0 0.595659 0.8032374 0 0.595659 0.8032374 0 0.595659 0.8032374 0 0.8183677 -0.5746948 0 0.8183677 -0.5746948 0 0.8183677 -0.5746948 0 0.8183677 -0.5746948 0 -0.6688298 -0.7434155 0 -0.6688298 -0.7434155 0 -0.6688298 -0.7434155 0 -0.6688298 -0.7434155 0.9999999 0 0 0.9999999 0 0 0.9999999 0 0 0.9999999 0 0 -0.9999999 0 0 -0.9999999 0 0 -0.9999999 0 0 -0.9999999 0 0 0 0.5956594 0.803237 0 0.5956594 0.803237 0 0.5956594 0.803237 0 0.5956594 0.803237 -0.9731965 0.1882048 -0.1321645 -0.9731965 0.1882048 -0.1321645 -0.9731965 0.1882048 -0.1321645 -0.9731965 0.1882048 -0.1321645 0 -0.6688312 -0.7434142 0 -0.6688312 -0.7434142 0 -0.6688312 -0.7434142 0 -0.6688312 -0.7434142 0.9731948 0.1882101 -0.1321688 0.9731948 0.1882101 -0.1321688 0.9731948 0.1882101 -0.1321688 0.9731948 0.1882101 -0.1321688 0 0.5956591 0.8032373 0 0.5956591 0.8032373 0 0.5956591 0.8032373 0 0.5956591 0.8032373 -0.769955 0.5221992 -0.3667111 -0.769955 0.5221992 -0.3667111 -0.769955 0.5221992 -0.3667111 -0.769955 0.5221992 -0.3667111 0 -0.6688318 -0.7434137 0 -0.6688318 -0.7434137 0 -0.6688318 -0.7434137 0 -0.6688318 -0.7434137 0.7699578 0.5221961 -0.3667098 0.7699578 0.5221961 -0.3667098 0.7699578 0.5221961 -0.3667098 0.7699578 0.5221961 -0.3667098 -0.09801922 0.9951845 0 -0.08768353 0.9196526 0.3828191 0.08768203 0.9196529 0.382819 0.09801785 0.9951847 0 0.08768053 -0.9196534 0.3828182 -0.08768203 -0.9196529 0.3828189 -0.09801755 -0.9951847 0 0.09801617 -0.9951848 0 0.9197276 0.08645742 0.3829181 0.9197274 -0.08645752 0.3829184 0.9951851 -0.09801272 0 0.9951851 0.09801263 0 -0.9951848 -0.09801583 0 -0.9197207 -0.08645996 0.382934 -0.9197208 0.08645986 0.3829337 -0.9951849 0.09801576 0 0.09801671 0.9951848 0 0.094225 0.9184101 0.3842452 -0.09422429 0.9184101 0.3842457 -0.09801671 0.9951848 0 -0.9951854 0.09801056 0 -0.9177577 0.09575453 0.3854241 -0.9177577 -0.09575452 0.3854242 -0.9951853 -0.09801054 0 -0.09801728 -0.9951847 0 -0.09422474 -0.9184104 0.3842448 0.0942252 -0.9184099 0.3842457 0.09801728 -0.9951847 0 0.9951849 -0.09801544 0 0.9177573 -0.09575994 0.3854239 0.9177572 0.09575998 0.385424 0.9951849 0.09801544 0 0.8475413 0.359581 0.3903526 0.9238882 0.3826623 0 0.6503427 0.6523916 0.3891523 0.7071114 0.7071023 0 0.3568374 0.8491725 0.3893242 0.3826694 0.9238853 0 -0.3568345 0.8491722 0.3893274 -0.3826667 0.9238864 0 -0.6503425 0.6523888 0.3891573 -0.707112 0.7071015 0 -0.8475438 0.3595724 0.3903552 -0.9238915 0.3826542 0 -0.8475438 -0.3595724 0.3903553 -0.9238914 -0.3826545 0 -0.6503414 -0.6523888 0.3891591 -0.7071115 -0.7071021 0 -0.3568333 -0.8491722 0.3893284 -0.3826669 -0.9238864 0 0.3568362 -0.8491722 0.3893257 0.3826693 -0.9238854 0 0.6503419 -0.6523924 0.3891521 0.7071106 -0.7071029 0 0.8475417 -0.3595814 0.3903514 0.9238882 -0.3826625 0 -0.8536374 0.3471307 0.3883339 -0.9238793 0.3826844 0 -0.6521395 0.650593 0.3891562 -0.7071053 0.7071083 0 -0.3492634 0.8526587 0.3885719 -0.3826857 0.9238787 0 0.3492612 0.8526613 0.3885683 0.3826828 0.9238799 0 0.6521451 0.6505929 0.3891472 0.7071083 0.7071053 0 0.8536465 0.3471248 0.3883196 0.9238826 0.3826759 0 -0.3492618 -0.8526586 0.3885737 -0.3826842 -0.9238793 0 -0.6521396 -0.6505919 0.3891582 -0.7071058 -0.707108 0 -0.8536373 -0.34713 0.3883348 -0.9238794 -0.382684 0 0.8536465 -0.3471244 0.38832 0.9238828 -0.3826756 0 0.6521453 -0.6505922 0.3891482 0.7071086 -0.707105 0 0.3492595 -0.8526615 0.3885693 0.3826812 -0.9238805 0 0.3772828 0.04250417 0.9251221 0.3772828 -0.04250412 0.9251221 -0.3811749 0.03342726 0.9238985 -0.3811745 -0.0334273 0.9238986 0.1408235 -0.3493234 0.9263595 0.2666783 -0.2651488 0.9265952 -0.2652725 0.2672962 0.9263816 -0.1483345 0.3459521 0.9264523 -0.1408233 -0.3493189 0.9263611 -0.0346461 -0.3811117 0.9238796 0.04105638 0.3787112 0.9246038 0.1483366 0.3459549 0.9264511 -0.3503882 -0.1387619 0.9262685 0.3438156 0.1508193 0.9268464 -0.2666707 -0.2651432 0.9265991 0.2652746 0.2673005 0.9263799 0.03464538 -0.3811125 0.9238794 -0.04105563 0.3787109 0.9246039 0.3504031 -0.1387638 0.9262626 0.3811903 -0.03342737 0.923892 -0.3772828 0.04250138 0.9251223 -0.3438148 0.1508146 0.9268475 0.3811904 0.03342734 0.9238921 -0.3772829 -0.04250136 0.9251222 -0.04105583 -0.3787117 0.9246036 -0.1483328 -0.3459516 0.9264528 0.1408247 0.3493241 0.9263591 0.03464596 0.381112 0.9238795 -0.2652705 -0.2672951 0.9263827 0.2666791 0.2651499 0.9265947 -0.3438148 -0.1508144 0.9268475 0.3504033 0.1387641 0.9262624 0.3438164 -0.1508198 0.926846 -0.350389 0.1387625 0.926268 0.04105623 -0.3787107 0.924604 -0.03464672 0.3811118 0.9238795 0.1483352 -0.345954 0.9264516 -0.1408246 0.3493204 0.9263605 0.2652742 -0.2673011 0.9263799 -0.2666717 0.2651449 0.9265984 0 0 0.9999999 0 0 0.9999999 0 0 0.9999999 0 0 0.9999999 0 0 0.9999999 0 0 0.9999999 0 0 0.9999999 0 0 0.9999999 0 0 0.9999999 0 0 0.9999999 0 0 0.9999999 0 0 0.9999999 0 0 0.9999999 0 0 0.9999999 0 0 0.9999999 0 0 0.9999999 0 0 0.9999999 0 0 0.9999999 0 0 0.9999999 0 0 0.9999999 0 0 1 0 0 0.9999999 0 0 0.9999999 0 0 1 0 0 0.9999999 0 0 0.9999999 0 0 0.9999999 0 0 0.9999999 0 0 0.9999999 0 0 0.9999999 0 0 0.9999999 0 0 0.9999999 0 0 0.9999999 0 0 0.9999999 0 0 0.9999999 0 0 0.9999999 0 0 0.9999999 0 0 0.9999999 0 0 0.9999999 0 0 0.9999999 0 0 0.9999999 0 0 0.9999999 0 0 1 0 0 1 0 0 0.9999999 0 0 0.9999999 0 0 0.9999999 0 0 0.9999999 0 0 0.9999999 0 0 0.9999999 0 0 0.9999999 0 0 0.9999999 0 0 0.9999999 0 0 0.9999999 0 0 0.9999999 0 0 0.9999999 0 0 0.9999999 0 0 0.9999999 0 0 0.9999999 0 0 0.9999999 0 0 0.9999999 0 0 0.9999999 0 0 0.9999999 0 0 0.9999999 0 0 0.9999999 0 0 0.9999999 0 0 0.9999999 0 0 0.9999999 0 0 0.9999999 0 0 0.9999999 0 0 0.9999999 0 0 0.9999999 0 0 0.9999999 0 0 0.9999999 0 0 0.9999999 0 0 0.9999999 0 0 0.9999999 0 0 0.9999999 0 0 0.9999999 0 0 0.9999999 0 0 0.9999999 0 0 0.9999999 0 0 0.9999999 0 0 0.9999999 0 0 0.9999999 0 0 0.9999999 0 0 0.9999999 0 0 0.9999999 0 0 0.9999999 0 0 0.9999999 0 0 0.9999999 0 0 0.9999999 0 0 0.9999999 0 0 0.9999999 0 0 0.9999999 0 0 0.9999999 0 0 0.9999999 0 0 0.9999999 0 0 0.9999999 0 0 0.9999999 0 0 0.9999999 0 0 0.9999999 0 0 0.9999999 0 0 0.9999999 0 0 0.9999999 0 0 0.9999999 0 0 0.9999999 0 0 0.9999999</float_array>
          <technique_common>
            <accessor source="#polySurfaceShape55-normals-array" count="532" stride="3">
              <param name="X" type="float"/>
              <param name="Y" type="float"/>
              <param name="Z" type="float"/>
            </accessor>
          </technique_common>
        </source>
        <source id="polySurfaceShape55-map1" name="polySurfaceShape55-map1">
          <float_array id="polySurfaceShape55-map1-array" count="712">0.948736 0.5359423 0.7318017 0.5368711 0.7332695 0.5339903 0.9472435 0.533074 0.7249941 0.5191774 0.9553918 0.5181892 0.9579533 0.4731389 0.7220457 0.4741547 0.7220712 0.464311 0.9578436 0.4632894 0.9550521 0.417428 0.7244633 0.4184413 0.7323149 0.4026738 0.947062 0.4017288 0.7201637 0.5214168 0.960241 0.5203865 0.9580051 0.5034187 0.7222544 0.5044315 0.9677695 0.4737866 0.9647674 0.5044734 0.7219388 0.4337779 0.9577111 0.4327479 0.7155009 0.5055442 0.712236 0.4748845 0.9604313 0.3818796 0.7224725 0.3843376 0.7224727 0.3818796 0.9582686 0.3818796 0.7224729 0.3158375 0.9582686 0.3158374 0.7224729 0.3061063 0.9582686 0.3061064 0.7224729 0.2447495 0.9582686 0.2447495 0.7127502 0.3158375 0.9680394 0.3158375 0.9541249 0.532966 0.7286873 0.5354242 0.7286873 0.5329661 0.952076 0.532966 0.7224729 0.473382 0.9582688 0.4733821 0.722473 0.4636509 0.9582688 0.4636509 0.722473 0.4022942 0.9582688 0.4022942 0.7127506 0.4733821 0.9680394 0.4733822 1.958709 0.2287419 1.720751 0.2311999 1.720751 0.2287419 1.956547 0.2287418 1.720751 0.1626997 1.956547 0.1626998 1.720751 0.1529687 1.956547 0.1529687 1.720751 0.0916119 1.956547 0.0916119 1.711028 0.1626998 1.966317 0.1627 0.9604315 0.3846648 0.722473 0.3871229 0.7224729 0.3846649 0.9582688 0.3846649 0.722473 0.3186228 0.9582688 0.3186229 0.722473 0.3088917 0.9582688 0.3088917 0.722473 0.2475349 0.9582688 0.247535 0.7127506 0.318623 0.9680394 0.318623 0.9538998 0.5331643 0.7287325 0.5356222 0.7287325 0.5331646 0.9517371 0.5331644 0.7224729 0.4733819 0.9582688 0.473382 0.722473 0.4636508 0.9582688 0.4636508 0.722473 0.402294 0.9582688 0.402294 0.7127506 0.4733821 0.9680394 0.4733821 1.958548 0.2287419 1.720589 0.2311999 1.720589 0.2287419 1.956385 0.2287418 1.720589 0.1626997 1.956385 0.1626998 1.720589 0.1529687 1.956385 0.1529687 1.720589 0.0916119 1.956385 0.0916119 1.710867 0.1626998 1.966156 0.1627 0.9604315 0.3799545 0.722473 0.3824124 0.7224729 0.3799547 0.9582688 0.3799544 0.7224729 0.3139124 0.9582688 0.3139125 0.722473 0.3041813 0.9582688 0.3041813 0.722473 0.2428245 0.9582688 0.2428245 0.7127506 0.3139126 0.9680394 0.3139126 0.9604315 0.2287418 0.7224728 0.2311999 0.7224729 0.2287419 0.9582688 0.2287418 0.7224729 0.1626997 0.9582688 0.1626998 0.7224729 0.1529685 0.9582688 0.1529687 0.722473 0.0916119 0.9582688 0.0916119 0.7127506 0.1626998 0.9680394 0.1627 0.9601067 0.38697 0.7224572 0.3865017 0.7238763 0.3841625 0.958697 0.3846263 0.7234419 0.3571166 0.9592383 0.357581 0.9425235 0.3250377 0.7402846 0.3246381 0.7405667 0.3147908 0.94228 0.3151905 0.9593752 0.2816963 0.7236062 0.281227 0.7236626 0.2531342 0.959431 0.2536041 0.7169169 0.3568005 0.9657644 0.3572908 0.7273163 0.3415912 0.955425 0.3420409 0.9626443 0.3391989 0.9556725 0.2981236 0.7272431 0.2976692 0.7201087 0.3387207 0.9511874 0.3198422 0.7316405 0.3194088 0.720717 0.3818796 0.9582686 0.3843374 0.9582688 0.2311997 0.9582688 0.3824123 1.956385 0.2311997 0.9517371 0.5356222 0.9582688 0.3871228 1.956547 0.2311996 0.952076 0.5354241 0.7207171 0.2287419 0.7207171 0.3799547 1.718833 0.2287419 0.7269768 0.5331644 0.7207172 0.3846649 1.718995 0.2287419 0.7270236 0.5329661 0.004194975 0.006779373 0.04127753 0.006779373 0.04127753 0.1954553 0.004194975 0.1954553 0.04127753 0.006779373 0.04127753 0.1954553 0.004194975 0.1954553 0.004194975 0.006779373 0.04127753 0.269326 0.04127753 0.7068446 0.004194975 0.7068446 0.004194975 0.269326 0.004194975 0.269326 0.04127753 0.269326 0.04127753 0.7068446 0.004194975 0.7068446 0.1056356 0.1954553 0.06884989 0.1954553 0.06884989 0.006779373 0.1056356 0.006779373 0.1056356 0.7068446 0.06884989 0.7068446 0.06884989 0.269326 0.1056356 0.269326 0.1056356 0.1954553 0.06884989 0.1954553 0.06884989 0.006779373 0.1056356 0.006779373 0.1056356 0.7068446 0.06884989 0.7068446 0.06884989 0.269326 0.1056356 0.269326 0.06884989 0.2506583 0.1056356 0.2506583 0.06884989 0.2334046 0.1056356 0.2334046 0.06884989 0.2150102 0.1056356 0.2150102 0.06884989 0.7781391 0.06884989 0.7615572 0.1056356 0.7615572 0.1056356 0.7781391 0.06884989 0.7439314 0.1056356 0.7439314 0.06884989 0.7254319 0.1056356 0.7254319 0.06884989 0.2506583 0.1056356 0.2506583 0.06884989 0.2334046 0.1056356 0.2334046 0.06884989 0.2150102 0.1056356 0.2150102 0.06884989 0.7781391 0.06884989 0.7615572 0.1056356 0.7615572 0.1056356 0.7781391 0.06884989 0.7439314 0.1056356 0.7439314 0.06884989 0.7254319 0.1056356 0.7254319 0.04127753 0.7254319 0.004194975 0.7254319 0.04127753 0.7439314 0.004194975 0.7439314 0.04127753 0.7615572 0.004194975 0.7615572 0.04127753 0.7781391 0.004194975 0.7781391 0.04127753 0.2150102 0.004194975 0.2150102 0.04127753 0.2334046 0.004194975 0.2334046 0.04127753 0.2506583 0.004194975 0.2506583 0.04127753 0.2150102 0.004194975 0.2150102 0.04127753 0.2334046 0.004194975 0.2334046 0.04127753 0.2506583 0.004194975 0.2506583 0.04127753 0.7254319 0.004194975 0.7254319 0.04127753 0.7439314 0.004194975 0.7439314 0.04127753 0.7615572 0.004194975 0.7615572 0.04127753 0.7781391 0.004194975 0.7781391 0.06108308 0.269326 0.06108308 0.7068446 0.04931912 0.7068446 0.04931912 0.269326 0.04931912 0.7615572 0.04931912 0.7439314 0.06108308 0.7439314 0.06108308 0.7615572 0.04931912 0.2150102 0.04931912 0.1954553 0.06108308 0.1954553 0.06108308 0.2150102 0.04931912 0.2506583 0.06108308 0.2506583 0.04931912 0.2334046 0.06108308 0.2334046 0.04931912 0.006779373 0.06108308 0.006779373 0.04931912 0.7781391 0.06108308 0.7781391 0.04931912 0.7254319 0.04931912 0.7068446 0.06108308 0.7068446 0.06108308 0.7254319 0.04931912 0.269326 0.06108308 0.269326 0.06108308 0.1954553 0.06108308 0.2150102 0.04931912 0.2150102 0.04931912 0.1954553 0.06108308 0.2334046 0.04931912 0.2334046 0.06108308 0.2506583 0.04931912 0.2506583 0.06108308 0.7254319 0.04931912 0.7254319 0.06108308 0.006779373 0.04931912 0.006779373 0.06108308 0.7615572 0.06108308 0.7781391 0.04931912 0.7781391 0.04931912 0.7615572 0.06108308 0.7439314 0.04931912 0.7439314 0.3995156 0.4403524 0.3997037 0.4716601 0.2401461 0.4716007 0.2402808 0.4401049 0.2403597 0.04819967 0.2402965 0.01658249 0.3998542 0.01679934 0.3993847 0.04815067 0.7057623 0.09529398 0.7063004 0.5070184 0.6826757 0.5072282 0.6821378 0.09511831 0.7511953 0.5516863 0.9276253 0.5519901 0.9275264 0.5910791 0.7511634 0.5907755 0.9720505 0.5075158 0.9720505 0.09582982 0.9936607 0.09560422 0.9936607 0.5077118 0.9271022 0.05119377 0.7506729 0.05077863 0.750784 0.01094792 0.9271473 0.01136283 0.7098111 0.524132 0.6827887 0.52426 0.7195433 0.5386239 0.6829635 0.5908722 0.7340754 0.5482866 0.7341148 0.5907739 0.9447518 0.5486524 0.944579 0.5911397 0.959304 0.5390426 0.9957378 0.5913928 0.9690697 0.5245962 0.9940789 0.5247611 0.7335609 0.05412489 0.7337166 0.01089577 0.7190222 0.06375003 0.6825491 0.01068757 0.7092711 0.07820723 0.6822485 0.07805894 0.968518 0.07872126 0.9935267 0.07858173 0.9587768 0.0642373 0.9953289 0.0112292 0.9442345 0.05458694 0.9441837 0.01135782 0.2280608 0.4691923 0.208691 0.04820104 0.2085787 0.4399888 0.211094 0.03610666 0.2282027 0.01899231 0.2179459 0.02584744 0.4119242 0.01919765 0.4313882 0.04832383 0.4312807 0.4401312 0.428871 0.4522052 0.4220229 0.462434 0.4117828 0.4692653 0.2109758 0.4520788 0.2178167 0.4623357 0.4289859 0.03625627 0.4221511 0.02603116</float_array>
          <technique_common>
            <accessor source="#polySurfaceShape55-map1-array" count="356" stride="2">
              <param name="S" type="float"/>
              <param name="T" type="float"/>
            </accessor>
          </technique_common>
        </source>
        <vertices id="polySurfaceShape55-vertices" name="polySurfaceShape55-vertices">
          <input semantic="POSITION" source="#polySurfaceShape55-positions"/>
        </vertices>
        <triangles material="lambert3SG" count="418">
          <input semantic="VERTEX" source="#polySurfaceShape55-vertices" offset="0"/>
          <input semantic="NORMAL" source="#polySurfaceShape55-normals" offset="1"/>
          <input semantic="TEXCOORD" source="#polySurfaceShape55-map1" offset="2" set="0"/>
          <p>0 0 0 1 1 1 2 3 3 2 3 3 1 1 1 3 2 2 2 4 3 3 5 2 13 7 5 13 7 5 3 5 2 12 6 4 4 8 6 5 9 7 6 11 9 6 11 9 5 9 7 7 10 8 14 12 10 15 13 11 0 15 13 0 15 13 15 13 11 1 14 12 15 17 14 12 18 4 1 16 1 1 16 1 12 18 4 3 19 2 14 20 15 0 21 0 13 23 5 13 23 5 0 21 0 2 22 3 9 24 16 8 25 17 4 27 6 4 27 6 8 25 17 5 26 7 6 28 18 10 29 19 4 31 6 4 31 6 10 29 19 9 30 16 6 32 9 7 33 8 10 35 21 10 35 21 7 33 8 11 34 20 8 36 17 11 37 22 5 39 7 5 39 7 11 37 22 7 38 23 13 40 5 12 41 4 9 43 16 9 43 16 12 41 4 8 42 17 10 44 19 14 45 15 9 47 16 9 47 16 14 45 15 13 46 5 10 48 21 11 49 20 14 51 10 14 51 10 11 49 20 15 50 11 12 52 4 15 53 14 8 55 17 8 55 17 15 53 14 11 54 22 16 56 145 17 57 25 18 59 27 18 59 27 17 57 25 19 58 26 18 60 27 19 61 26 20 63 29 20 63 29 19 61 26 21 62 28 20 64 29 21 65 28 22 67 31 22 67 31 21 65 28 23 66 30 22 68 31 23 69 30 16 71 33 16 71 33 23 69 30 17 70 32 23 73 34 21 74 28 17 72 144 17 72 144 21 74 28 19 75 26 22 76 35 16 77 24 20 79 29 20 79 29 16 77 24 18 78 27 24 80 152 25 81 37 26 83 39 26 83 39 25 81 37 27 82 38 26 84 39 27 85 38 28 87 41 28 87 41 27 85 38 29 86 40 28 88 41 29 89 40 30 91 43 30 91 43 29 89 40 31 90 42 30 92 43 31 93 42 24 95 45 24 95 45 31 93 42 25 94 44 31 97 46 29 98 40 25 96 159 25 96 159 29 98 40 27 99 38 30 100 47 24 101 36 28 103 41 28 103 41 24 101 36 26 102 39 32 104 151 33 105 49 34 107 51 34 107 51 33 105 49 35 106 50 34 108 51 35 109 50 36 111 53 36 111 53 35 109 50 37 110 52 36 112 53 37 113 52 38 115 55 38 115 55 37 113 52 39 114 54 38 116 55 39 117 54 32 119 57 32 119 57 39 117 54 33 118 56 39 121 58 37 122 52 33 120 158 33 120 158 37 122 52 35 123 50 38 124 59 32 125 48 36 127 53 36 127 53 32 125 48 34 126 51 40 128 150 41 129 61 42 131 63 42 131 63 41 129 61 43 130 62 42 132 63 43 133 62 44 135 65 44 135 65 43 133 62 45 134 64 44 136 65 45 137 64 46 139 67 46 139 67 45 137 64 47 138 66 46 140 67 47 141 66 40 143 69 40 143 69 47 141 66 41 142 68 47 145 70 45 146 64 41 144 157 41 144 157 45 146 64 43 147 62 46 148 71 40 149 60 44 151 65 44 151 65 40 149 60 42 150 63 48 152 149 49 153 73 50 155 75 50 155 75 49 153 73 51 154 74 50 156 75 51 157 74 52 159 77 52 159 77 51 157 74 53 158 76 52 160 77 53 161 76 54 163 79 54 163 79 53 161 76 55 162 78 54 164 79 55 165 78 48 167 81 48 167 81 55 165 78 49 166 80 55 169 82 53 170 76 49 168 156 49 168 156 53 170 76 51 171 74 54 172 83 48 173 72 52 175 77 52 175 77 48 173 72 50 174 75 56 176 148 57 177 85 58 179 87 58 179 87 57 177 85 59 178 86 58 180 87 59 181 86 60 183 89 60 183 89 59 181 86 61 182 88 60 184 89 61 185 88 62 187 91 62 187 91 61 185 88 63 186 90 62 188 91 63 189 90 56 191 93 56 191 93 63 189 90 57 190 92 63 193 94 61 194 88 57 192 155 57 192 155 61 194 88 59 195 86 62 196 95 56 197 84 60 199 89 60 199 89 56 197 84 58 198 87 64 200 147 65 201 97 66 203 99 66 203 99 65 201 97 67 202 98 66 204 99 67 205 98 68 207 101 68 207 101 67 205 98 69 206 100 68 208 101 69 209 100 70 211 103 70 211 103 69 209 100 71 210 102 70 212 103 71 213 102 64 215 105 64 215 105 71 213 102 65 214 104 71 217 106 69 218 100 65 216 154 65 216 154 69 218 100 67 219 98 70 220 107 64 221 96 68 223 101 68 223 101 64 221 96 66 222 99 72 224 146 73 225 109 74 227 111 74 227 111 73 225 109 75 226 110 74 228 111 75 229 110 76 231 113 76 231 113 75 229 110 77 230 112 76 232 113 77 233 112 78 235 115 78 235 115 77 233 112 79 234 114 78 236 115 79 237 114 72 239 117 72 239 117 79 237 114 73 238 116 79 241 118 77 242 112 73 240 153 73 240 153 77 242 112 75 243 110 78 244 119 72 245 108 76 247 113 76 247 113 72 245 108 74 246 111 80 248 120 81 249 121 82 251 123 82 251 123 81 249 121 83 250 122 82 252 123 83 253 122 89 255 125 89 255 125 83 253 122 88 254 124 84 256 126 85 257 127 86 259 129 86 259 129 85 257 127 87 258 128 90 260 130 91 261 131 80 263 133 80 263 133 91 261 131 81 262 132 91 265 134 88 266 124 81 264 121 81 264 121 88 266 124 83 267 122 90 268 135 80 269 120 89 271 125 89 271 125 80 269 120 82 270 123 89 272 125 88 273 124 93 275 137 93 275 137 88 273 124 92 274 136 94 276 138 90 277 135 93 279 137 93 279 137 90 277 135 89 278 125 94 280 139 95 281 140 90 283 130 90 283 130 95 281 140 91 282 131 88 284 124 91 285 134 92 287 136 92 287 136 91 285 134 95 286 141 93 288 137 92 289 136 84 291 126 84 291 126 92 289 136 85 290 127 86 292 142 94 293 138 84 295 126 84 295 126 94 293 138 93 294 137 86 296 129 87 297 128 94 299 139 94 299 139 87 297 128 95 298 140 92 300 136 95 301 141 85 303 127 85 303 127 95 301 141 87 302 143 120 304 160 177 305 161 121 307 163 121 307 163 177 305 161 179 306 162 187 308 164 185 309 165 135 311 167 135 311 167 185 309 165 126 310 166 189 312 168 191 313 169 125 315 171 125 315 171 191 313 169 131 314 170 130 316 172 183 317 173 116 319 175 116 319 175 183 317 173 181 318 174 100 320 176 141 321 177 101 323 179 101 323 179 141 321 177 143 322 178 105 324 180 145 325 181 106 327 183 106 327 183 145 325 181 147 326 182 110 328 184 149 329 185 111 331 187 111 331 187 149 329 185 151 330 186 115 332 188 139 333 189 96 335 191 96 335 191 139 333 189 137 334 190 137 334 190 153 336 192 96 335 191 96 335 191 153 336 192 97 337 193 153 336 192 155 338 194 97 337 193 97 337 193 155 338 194 98 339 195 155 338 194 157 340 196 98 339 195 98 339 195 157 340 196 99 341 197 157 340 196 141 321 177 99 341 197 99 341 197 141 321 177 100 320 176 143 322 198 159 342 199 101 323 201 101 323 201 159 342 199 102 343 200 159 342 199 161 344 202 102 343 200 102 343 200 161 344 202 103 345 203 161 344 202 163 346 204 103 345 203 103 345 203 163 346 204 104 347 205 163 346 204 145 325 181 104 347 205 104 347 205 145 325 181 105 324 180 147 326 182 165 348 206 106 327 183 106 327 183 165 348 206 107 349 207 165 348 206 167 350 208 107 349 207 107 349 207 167 350 208 108 351 209 167 350 208 169 352 210 108 351 209 108 351 209 169 352 210 109 353 211 169 352 210 149 329 185 109 353 211 109 353 211 149 329 185 110 328 184 151 330 212 171 354 213 111 331 215 111 331 215 171 354 213 112 355 214 171 354 213 173 356 216 112 355 214 112 355 214 173 356 216 113 357 217 173 356 216 175 358 218 113 357 217 113 357 217 175 358 218 114 359 219 175 358 218 139 333 189 114 359 219 114 359 219 139 333 189 115 332 188 181 318 174 193 360 220 116 319 175 116 319 175 193 360 220 117 361 221 193 360 220 195 362 222 117 361 221 117 361 221 195 362 222 118 363 223 195 362 222 197 364 224 118 363 223 118 363 223 197 364 224 119 365 225 197 364 224 177 305 226 119 365 225 119 365 225 177 305 226 120 304 227 179 306 162 199 366 228 121 307 163 121 307 163 199 366 228 122 367 229 199 366 228 201 368 230 122 367 229 122 367 229 201 368 230 123 369 231 201 368 230 203 370 232 123 369 231 123 369 231 203 370 232 124 371 233 203 370 232 189 312 168 124 371 233 124 371 233 189 312 168 125 315 171 185 309 165 205 372 234 126 310 166 126 310 166 205 372 234 127 373 235 205 372 234 207 374 236 127 373 235 127 373 235 207 374 236 128 375 237 207 374 236 209 376 238 128 375 237 128 375 237 209 376 238 129 377 239 209 376 238 183 317 173 129 377 239 129 377 239 183 317 173 130 316 172 191 313 169 211 378 240 131 314 170 131 314 170 211 378 240 132 379 241 211 378 240 213 380 242 132 379 241 132 379 241 213 380 242 133 381 243 213 380 242 215 382 244 133 381 243 133 381 243 215 382 244 134 383 245 215 382 244 187 308 246 134 383 245 134 383 245 187 308 246 135 311 247 136 384 248 138 385 249 182 387 251 182 387 251 138 385 249 180 386 250 212 389 253 160 390 254 214 388 252 214 388 252 160 390 254 158 391 255 204 392 256 184 393 257 156 395 259 156 395 259 184 393 257 140 394 258 208 396 260 152 397 261 182 387 251 182 387 251 152 397 261 136 384 248 206 398 262 154 399 263 208 396 260 208 396 260 154 399 263 152 397 261 206 398 262 204 392 256 154 399 263 154 399 263 204 392 256 156 395 259 184 393 257 186 400 264 140 394 258 140 394 258 186 400 264 142 401 265 214 388 252 158 391 255 186 400 266 186 400 266 158 391 255 142 401 267 210 402 268 190 403 269 162 405 271 162 405 271 190 403 269 144 404 270 212 389 253 210 402 268 160 390 254 160 390 254 210 402 268 162 405 271 190 403 269 188 406 272 144 404 270 144 404 270 188 406 272 146 407 273 148 408 274 168 409 275 178 411 277 178 411 277 168 409 275 198 410 276 168 409 275 166 412 278 198 410 276 198 410 276 166 412 278 200 413 279 164 414 280 202 415 281 166 412 278 166 412 278 202 415 281 200 413 279 202 415 281 164 414 280 188 406 272 188 406 272 164 414 280 146 407 273 138 385 249 174 416 282 180 386 250 180 386 250 174 416 282 192 417 283 150 418 284 148 408 274 176 419 285 176 419 285 148 408 274 178 411 277 150 418 287 176 419 288 170 420 286 170 420 286 176 419 288 196 421 289 170 420 286 196 421 289 172 422 290 172 422 290 196 421 289 194 423 291 174 416 282 172 422 290 192 417 283 192 417 283 172 422 290 194 423 291 137 334 190 136 384 248 153 336 192 153 336 192 136 384 248 152 397 261 136 384 248 137 334 190 138 385 249 138 385 249 137 334 190 139 333 189 139 333 189 175 358 218 138 385 249 138 385 249 175 358 218 174 416 282 141 321 177 140 394 258 143 322 178 143 322 178 140 394 258 142 401 265 141 321 177 157 340 196 140 394 258 140 394 258 157 340 196 156 395 259 143 322 198 142 401 267 159 342 199 159 342 199 142 401 267 158 391 255 145 325 181 144 404 270 147 326 182 147 326 182 144 404 270 146 407 273 145 325 181 163 346 204 144 404 270 144 404 270 163 346 204 162 405 271 147 326 182 146 407 273 165 348 206 165 348 206 146 407 273 164 414 280 149 329 185 148 408 274 151 330 186 151 330 186 148 408 274 150 418 284 149 329 185 169 352 210 148 408 274 148 408 274 169 352 210 168 409 275 151 330 212 150 418 287 171 354 213 171 354 213 150 418 287 170 420 286 153 336 192 152 397 261 155 338 194 155 338 194 152 397 261 154 399 263 154 399 263 156 395 259 155 338 194 155 338 194 156 395 259 157 340 196 159 342 199 158 391 255 161 344 202 161 344 202 158 391 255 160 390 254 160 390 254 162 405 271 161 344 202 161 344 202 162 405 271 163 346 204 165 348 206 164 414 280 167 350 208 167 350 208 164 414 280 166 412 278 166 412 278 168 409 275 167 350 208 167 350 208 168 409 275 169 352 210 171 354 213 170 420 286 173 356 216 173 356 216 170 420 286 172 422 290 172 422 290 174 416 282 173 356 216 173 356 216 174 416 282 175 358 218 177 305 161 176 419 285 179 306 162 179 306 162 176 419 285 178 411 277 176 419 288 177 305 226 196 421 289 196 421 289 177 305 226 197 364 224 178 411 277 198 410 276 179 306 162 179 306 162 198 410 276 199 366 228 180 386 250 192 417 283 181 318 174 181 318 174 192 417 283 193 360 220 180 386 250 181 318 174 182 387 251 182 387 251 181 318 174 183 317 173 182 387 251 183 317 173 208 396 260 208 396 260 183 317 173 209 376 238 184 393 257 204 392 256 185 309 165 185 309 165 204 392 256 205 372 234 184 393 257 185 309 165 186 400 264 186 400 264 185 309 165 187 308 164 186 400 266 187 308 246 214 388 252 214 388 252 187 308 246 215 382 244 189 312 168 188 406 272 191 313 169 191 313 169 188 406 272 190 403 269 188 406 272 189 312 168 202 415 281 202 415 281 189 312 168 203 370 232 190 403 269 210 402 268 191 313 169 191 313 169 210 402 268 211 378 240 192 417 283 194 423 291 193 360 220 193 360 220 194 423 291 195 362 222 195 362 222 194 423 291 197 364 224 197 364 224 194 423 291 196 421 289 198 410 276 200 413 279 199 366 228 199 366 228 200 413 279 201 368 230 201 368 230 200 413 279 203 370 232 203 370 232 200 413 279 202 415 281 204 392 256 206 398 262 205 372 234 205 372 234 206 398 262 207 374 236 207 374 236 206 398 262 209 376 238 209 376 238 206 398 262 208 396 260 210 402 268 212 389 253 211 378 240 211 378 240 212 389 253 213 380 242 213 380 242 212 389 253 215 382 244 215 382 244 212 389 253 214 388 252 239 424 292 110 425 293 236 427 295 236 427 295 110 425 293 111 426 294 237 428 296 100 429 297 238 431 299 238 431 299 100 429 297 101 430 298 237 432 296 238 433 299 236 435 295 236 435 295 238 433 299 239 434 292 130 436 300 116 437 301 217 439 303 217 439 303 116 437 301 216 438 302 120 440 304 121 441 305 218 443 307 218 443 307 121 441 305 219 442 306 125 444 308 131 445 309 220 447 311 220 447 311 131 445 309 221 446 310 135 448 312 126 449 313 223 451 315 223 451 315 126 449 313 222 450 314 117 452 316 224 453 317 116 437 301 116 437 301 224 453 317 216 438 302 117 452 316 118 454 318 224 453 317 224 453 317 118 454 318 225 455 319 119 456 320 226 457 321 118 454 318 118 454 318 226 457 321 225 455 319 119 456 320 120 440 304 226 457 321 226 457 321 120 440 304 218 443 307 122 458 322 227 459 323 121 441 305 121 441 305 227 459 323 219 442 306 122 458 322 123 460 324 227 459 323 227 459 323 123 460 324 228 461 325 124 462 326 229 463 327 123 460 324 123 460 324 229 463 327 228 461 325 124 462 326 125 444 308 229 463 327 229 463 327 125 444 308 220 447 311 127 464 328 230 465 329 126 449 313 126 449 313 230 465 329 222 450 314 127 464 328 128 466 330 230 465 329 230 465 329 128 466 330 231 467 331 129 468 332 232 469 333 128 466 330 128 466 330 232 469 333 231 467 331 129 468 332 130 436 300 232 469 333 232 469 333 130 436 300 217 439 303 132 470 334 233 471 335 131 445 309 131 445 309 233 471 335 221 446 310 132 470 334 133 472 336 233 471 335 233 471 335 133 472 336 234 473 337 134 474 338 235 475 339 133 472 336 133 472 336 235 475 339 234 473 337 134 474 338 135 448 312 235 475 339 235 475 339 135 448 312 223 451 315 236 476 295 111 477 294 112 478 340 96 479 341 237 480 296 115 482 342 115 482 342 237 480 296 236 481 295 96 483 341 97 484 343 237 485 296 237 486 296 99 487 344 100 488 297 237 489 296 97 490 343 98 491 345 237 492 296 98 493 345 99 494 344 238 495 299 101 496 298 102 497 346 239 498 292 238 499 299 106 501 348 106 501 348 238 499 299 105 500 347 239 502 292 107 503 349 108 504 350 239 505 292 109 506 351 110 507 293 106 508 348 107 509 349 239 510 292 239 511 292 108 512 350 109 513 351 236 514 295 114 515 352 115 516 342 236 517 295 112 518 340 113 519 353 236 520 295 113 521 353 114 522 352 238 523 299 104 524 354 105 525 347 238 526 299 102 527 346 103 528 355 238 529 299 103 530 355 104 531 354</p>
        </triangles>
      </mesh>
      <extra>
        <technique profile="OpenCOLLADAMaya">
          <originalMayaNodeId>polySurfaceShape55</originalMayaNodeId>
          <double_sided>1</double_sided>
        </technique>
      </extra>
    </geometry>
  </library_geometries>
  <library_visual_scenes>
    <visual_scene id="VisualSceneNode" name="living_quarter_scene">
      <node id="polySurface36" name="polySurface36" type="NODE">
        <matrix sid="transform">1 0 0 0 0 1 0 0 0 0 1 0 0 0 0 1</matrix>
        <instance_geometry url="#polySurfaceShape65">
          <bind_material>
            <technique_common>
              <instance_material symbol="lambert3SG" target="#lambert3">
                <bind_vertex_input semantic="TEX0" input_semantic="TEXCOORD" input_set="0"/>
              </instance_material>
            </technique_common>
          </bind_material>
        </instance_geometry>
        <node id="polySurface31" name="polySurface31" type="NODE">
          <matrix sid="transform">1 0 0 0 0 1 0 0 0 0 1 0 0 0 0 1</matrix>
          <instance_geometry url="#polySurfaceShape55">
            <bind_material>
              <technique_common>
                <instance_material symbol="lambert3SG" target="#lambert3">
                  <bind_vertex_input semantic="TEX0" input_semantic="TEXCOORD" input_set="0"/>
                </instance_material>
              </technique_common>
            </bind_material>
          </instance_geometry>
          <extra>
            <technique profile="OpenCOLLADAMaya">
              <originalMayaNodeId>polySurface31</originalMayaNodeId>
            </technique>
          </extra>
        </node>
        <extra>
          <technique profile="OpenCOLLADAMaya">
            <originalMayaNodeId>polySurface36</originalMayaNodeId>
          </technique>
        </extra>
      </node>
    </visual_scene>
  </library_visual_scenes>
  <scene>
    <instance_visual_scene url="#VisualSceneNode"/>
  </scene>
</COLLADA>