<?xml version="1.0" encoding="utf-8"?>
<COLLADA xmlns="http://www.collada.org/2005/11/COLLADASchema" version="1.4.1">
  <asset><contributor><author></author><authoring_tool>FBX COLLADA exporter</authoring_tool><comments></comments></contributor><created>2014-10-17T08:33:10Z</created><keywords></keywords><modified>2014-10-17T08:33:10Z</modified><revision></revision><subject></subject><title></title><unit meter="1.000000" name="centimeter"></unit><up_axis>Y_UP</up_axis></asset>
  <library_images>
    <image id="Image0001-image" name="Image0001"><init_from>file://D:/work/svn_soma/redist/static_objects/station/pplant.dds</init_from></image>
  </library_images>
  <library_materials>
    <material id="pplant" name="pplant">
      <instance_effect url="#pplant-fx"/>
    </material>
  </library_materials>
  <library_effects>
    <effect id="pplant-fx" name="pplant">
      <profile_COMMON>
        <technique sid="standard">
          <phong>
            <emission>
              <color sid="emission">0.000000  0.000000 0.000000 1.000000</color>
            </emission>
            <ambient>
              <color sid="ambient">0.200000  0.200000 0.200000 1.000000</color>
            </ambient>
            <diffuse>
              <texture texture="Image0001-image" texcoord="CHANNEL0">
                <extra>
                  <technique profile="MAYA">
                    <wrapU sid="wrapU0">TRUE</wrapU>
                    <wrapV sid="wrapV0">TRUE</wrapV>
                    <blend_mode>NONE</blend_mode>
                  </technique>
                </extra>
              </texture>
            </diffuse>
            <specular>
              <color sid="specular">0.200000  0.200000 0.200000 1.000000</color>
            </specular>
            <shininess>
              <float sid="shininess">256.000000</float>
            </shininess>
            <reflective>
              <color sid="reflective">0.000000  0.000000 0.000000 1.000000</color>
            </reflective>
            <reflectivity>
              <float sid="reflectivity">1.000000</float>
            </reflectivity>
            <transparent opaque="RGB_ZERO">
              <color sid="transparent">0.000000  0.000000 0.000000 1.000000</color>
            </transparent>
            <transparency>
              <float sid="transparency">1.000000</float>
            </transparency>
          </phong>
        </technique>
      </profile_COMMON>
    </effect>
  </library_effects>
  <library_geometries>
    <geometry id="polySurface2-lib" name="polySurface2Mesh">
      <mesh>
        <source id="polySurface2-POSITION">
          <float_array id="polySurface2-POSITION-array" count="159">
0.000000 0.000000 0.000000
0.000000 6.250000 0.000000
25.000000 6.250000 0.000000
7.322329 6.250000 -17.677673
7.322329 0.000000 -17.677673
175.000000 6.250000 -150.000000
16.677750 325.000000 -27.033096
16.387238 325.000000 -18.041870
12.036880 331.152008 -22.392227
11.672685 325.000000 -13.327316
7.322327 331.152008 -17.677670
156.152344 325.000000 -150.000000
145.872467 325.000000 -144.432358
148.465683 331.152008 -147.372147
7.322327 400.000000 -17.677670
14.538424 325.000000 -10.461578
22.134308 325.000000 -2.865692
170.947296 325.000000 -150.000000
160.205093 325.000000 -150.000000
15.260027 328.320007 -9.739975
21.412704 328.320007 -3.587296
169.926804 328.320007 -150.000000
160.205093 325.000000 -150.000000
175.000000 325.000000 -150.000000
25.000002 325.000000 0.000000
26.249130 325.000000 -2.740524
26.249130 6.250000 -2.740524
149.712265 0.000000 -149.846664
149.712265 6.250000 -149.846664
159.742996 325.000000 -148.498199
160.802780 328.320007 -148.246094
167.202698 328.320007 -142.351028
167.953323 325.000000 -141.659653
170.979660 325.000000 -139.025665
170.979660 6.250000 -139.025665
148.465683 400.000000 -147.372147
161.225601 328.320007 -150.000000
0.000000 331.152008 0.000008
0.000000 400.000000 0.000008
6.152340 325.000000 -0.000008
10.205105 325.000000 0.000000
11.225603 328.320007 0.000008
19.926802 328.320007 0.000000
20.947302 325.000000 0.000000
2.126270 400.000000 -9.474609
2.126270 331.152008 -9.474609
7.755344 325.000000 -7.142975
11.463419 325.000000 -5.607040
12.397125 328.320007 -5.220284
20.358280 328.320007 -1.922668
21.291986 325.000000 -1.535904
150.000000 331.152008 -150.000000
150.000000 400.000000 -150.000000
</float_array>
          <technique_common>
            <accessor source="#polySurface2-POSITION-array" count="53" stride="3">
              <param name="X" type="float"/>
              <param name="Y" type="float"/>
              <param name="Z" type="float"/>
            </accessor>
          </technique_common>
        </source>
        <source id="polySurface2-Normal0">
          <float_array id="polySurface2-Normal0-array" count="693">
0.000000 1.000000 0.000000
0.000000 1.000000 0.000000
0.000000 1.000000 0.000000
-1.000000 0.000000 0.000000
-0.923880 0.000000 -0.382683
-1.000000 0.000000 0.000000
-1.000000 0.000000 0.000000
-0.923880 0.000000 -0.382683
-0.923880 0.000000 -0.382683
-0.807429 -0.589387 -0.026090
-0.807429 -0.589387 -0.026090
-0.807429 -0.589387 -0.026090
-0.026090 -0.589387 -0.807429
-0.026090 -0.589387 -0.807429
-0.026090 -0.589387 -0.807429
0.000000 -1.000000 0.000000
0.000000 -1.000000 0.000000
0.000000 -1.000000 -0.000040
0.000000 -1.000000 0.000000
0.000000 -1.000000 0.000000
0.000000 -1.000000 0.000000
0.000000 -1.000000 0.000000
0.000000 -1.000000 0.000000
0.000000 -1.000000 0.000000
0.675902 -0.293789 0.675902
0.662849 -0.279768 0.694523
0.675902 -0.293789 0.675902
0.662100 -0.279620 0.695295
0.675902 -0.293789 0.675902
0.662849 -0.279768 0.694523
-0.500000 -0.707107 -0.500000
-0.500000 -0.707107 -0.500000
-0.500000 -0.707107 -0.500000
-0.500000 -0.707107 -0.500000
-0.500000 -0.707107 -0.500000
-0.500000 -0.707107 -0.500000
-0.707107 0.000000 -0.707107
-0.707107 0.000000 -0.707107
-0.707107 0.000000 -0.707107
-0.707107 0.000000 -0.707107
-0.707107 0.000000 -0.707107
-0.707107 0.000000 -0.707107
0.000000 -1.000000 0.000000
0.000000 -1.000000 0.000000
0.000000 -1.000000 0.000000
-0.707107 0.000000 -0.707107
-0.707107 0.000000 -0.707107
-0.689648 0.000000 -0.724144
-0.707107 0.000000 -0.707107
-0.689648 0.000000 -0.724144
-0.689648 0.000000 -0.724144
-0.675902 -0.293789 -0.675902
-0.672264 -0.293885 -0.679480
-0.675902 -0.293789 -0.675902
-0.670813 -0.293845 -0.680929
-0.675902 -0.293789 -0.675902
-0.672264 -0.293885 -0.679480
0.000000 -1.000000 0.000000
0.000000 -1.000000 0.000000
0.000000 -1.000000 0.000000
0.000000 -1.000000 0.000000
0.000000 -1.000000 0.000000
0.000000 -1.000000 0.000000
0.000000 1.000000 0.000000
0.000000 1.000000 0.000000
0.000000 1.000000 0.000000
-0.689648 0.000000 -0.724144
-0.703535 0.000000 -0.710660
-0.703535 0.000000 -0.710660
-0.703535 0.000000 -0.710660
-0.689648 0.000000 -0.724144
-0.689648 0.000000 -0.724144
0.000000 -1.000000 0.000000
0.000000 -1.000000 0.000000
0.000000 -1.000000 0.000000
0.000000 -1.000000 0.000000
0.000000 -1.000000 0.000000
0.000000 -1.000000 0.000000
-0.680312 0.000000 -0.732922
-0.707107 0.000000 -0.707107
-0.707107 0.000000 -0.707107
-0.680312 0.000000 -0.732922
-0.707107 0.000000 -0.707107
-0.680312 0.000000 -0.732922
0.000000 1.000000 0.000000
0.000000 1.000000 0.000000
0.000000 1.000000 0.000000
0.000000 1.000000 0.000000
0.000000 1.000000 0.000000
0.000000 1.000000 0.000000
0.662100 -0.279620 0.695295
0.662849 -0.279768 0.694523
0.675902 -0.293789 0.675902
0.662849 -0.279768 0.694523
0.675902 -0.293789 0.675902
0.675902 -0.293789 0.675902
0.000000 -1.000000 0.000000
0.000000 -1.000000 0.000000
0.000000 -1.000000 0.000000
0.000000 -1.000000 0.000000
0.000000 -1.000000 0.000000
0.000000 -1.000000 0.000000
-0.672264 -0.293885 -0.679480
-0.675902 -0.293789 -0.675902
-0.670813 -0.293845 -0.680929
-0.675902 -0.293789 -0.675902
-0.672264 -0.293885 -0.679480
-0.675902 -0.293789 -0.675902
0.000000 -1.000000 0.000000
0.000000 -1.000000 0.000000
0.000000 -1.000000 0.000000
0.000000 -1.000000 0.000000
0.000000 -1.000000 0.000000
0.000000 -1.000000 0.000000
-0.703535 0.000000 -0.710660
-0.703535 0.000000 -0.710660
-0.707107 0.000000 -0.707107
-0.703535 0.000000 -0.710660
-0.707107 0.000000 -0.707107
-0.707107 0.000000 -0.707107
0.000000 1.000000 0.000000
0.000000 1.000000 0.000000
0.000000 1.000000 0.000000
0.000000 -1.000000 0.000000
0.000000 -1.000000 0.000000
0.000000 -1.000000 0.000000
0.000000 -1.000000 0.000000
0.000000 -1.000000 0.000000
0.000000 -1.000000 0.000000
0.000000 -1.000000 0.000000
0.000000 -1.000000 0.000000
0.000000 -1.000000 0.000000
-0.707107 0.000000 -0.707107
-0.707107 0.000000 -0.707107
-0.707107 0.000000 -0.707107
-0.707107 0.000000 -0.707107
-0.679997 0.002014 -0.733212
-0.707107 0.000000 -0.707107
-0.707107 0.000000 -0.707107
-0.707107 0.000000 -0.707107
-0.679997 0.002014 -0.733212
0.931452 -0.286317 0.224545
0.931452 -0.286317 0.224545
0.000000 -1.000000 0.000000
-0.975731 0.000000 -0.218971
-0.975731 0.000000 -0.218971
-0.923880 0.000000 -0.382683
-0.975731 0.000000 -0.218971
-0.923880 0.000000 -0.382683
-0.923880 0.000000 -0.382683
-0.698350 -0.698387 -0.156721
-0.656429 -0.703683 -0.271901
-0.698350 -0.698388 -0.156721
-0.698350 -0.698388 -0.156721
-0.656429 -0.703683 -0.271901
-0.656429 -0.703683 -0.271901
0.000000 -1.000000 -0.000002
0.000000 -1.000000 -0.000001
0.000000 -1.000000 -0.000002
0.000000 -1.000000 -0.000001
0.000000 -1.000000 -0.000001
0.000000 -1.000000 -0.000002
0.934602 -0.287277 0.209741
0.883837 -0.291214 0.366096
0.934602 -0.287277 0.209741
0.883837 -0.291214 0.366096
0.934602 -0.287277 0.209741
0.883837 -0.291214 0.366096
0.000000 -1.000000 0.000006
0.000000 -1.000000 0.000003
0.000000 -1.000000 0.000006
0.000000 -1.000000 0.000006
0.000000 -1.000000 0.000003
0.000000 -1.000000 0.000003
-0.934602 -0.287278 -0.209739
-0.883837 -0.291215 -0.366096
-0.934602 -0.287278 -0.209739
-0.883837 -0.291215 -0.366096
-0.934602 -0.287278 -0.209739
-0.883836 -0.291215 -0.366097
0.000000 -1.000000 0.000010
0.000000 -1.000000 0.000039
0.000000 -1.000000 0.000010
-0.707107 0.000000 -0.707107
-0.923880 0.000000 -0.382683
-0.923880 0.000000 -0.382683
-0.923880 0.000000 -0.382683
-0.707107 0.000000 -0.707107
-0.707107 0.000000 -0.707107
-0.656429 -0.703683 -0.271901
-0.500000 -0.707107 -0.500000
-0.656429 -0.703683 -0.271901
-0.500000 -0.707107 -0.500000
-0.656429 -0.703683 -0.271901
-0.500000 -0.707107 -0.500000
0.000000 -1.000000 0.000000
0.000000 -1.000000 -0.000001
0.000000 -1.000000 0.000000
0.000000 -1.000000 -0.000001
0.000000 -1.000000 0.000000
0.000000 -1.000000 -0.000001
0.883837 -0.291214 0.366096
0.675902 -0.293789 0.675902
0.883837 -0.291214 0.366096
0.675902 -0.293789 0.675902
0.883837 -0.291214 0.366096
0.675902 -0.293789 0.675902
0.000000 -1.000000 0.000003
0.000000 -1.000000 0.000000
0.000000 -1.000000 0.000003
0.000000 -1.000000 0.000000
0.000000 -1.000000 0.000003
0.000000 -1.000000 0.000000
-0.883836 -0.291215 -0.366097
-0.675902 -0.293789 -0.675902
-0.883837 -0.291215 -0.366096
-0.675902 -0.293789 -0.675902
-0.883836 -0.291215 -0.366097
-0.675902 -0.293789 -0.675902
0.000000 -1.000000 0.000010
0.000000 -1.000000 0.000010
0.000000 -1.000000 -0.000020
-0.653579 -0.653614 -0.381605
-0.653579 -0.653614 -0.381605
-0.653579 -0.653614 -0.381605
-0.707107 0.000000 -0.707107
-0.679997 0.002014 -0.733212
-0.863579 0.000000 -0.504214
-0.707107 0.000000 -0.707107
-0.863579 0.000000 -0.504214
-0.863579 0.000000 -0.504214
</float_array>
          <technique_common>
            <accessor source="#polySurface2-Normal0-array" count="231" stride="3">
              <param name="X" type="float"/>
              <param name="Y" type="float"/>
              <param name="Z" type="float"/>
            </accessor>
          </technique_common>
        </source>
        <source id="polySurface2-UV0">
          <float_array id="polySurface2-UV0-array" count="150">
0.687001 0.046512
0.687003 0.016741
0.687003 0.009297
0.673259 0.016741
0.673358 0.009297
0.754259 0.468577
0.758133 0.468469
0.758021 0.550737
0.642552 0.468572
0.750548 0.461535
0.754264 0.454494
0.640460 0.454751
0.646264 0.461526
0.638802 0.449643
0.758013 0.449663
0.758441 0.455040
0.758025 0.435147
0.758016 0.445521
0.638800 0.445499
0.638794 0.435119
0.758028 0.431005
0.755866 0.426171
0.758032 0.426172
0.755964 0.046512
0.758132 0.046512
0.758134 0.009297
0.758134 0.016741
0.638792 0.430975
0.638790 0.426139
0.638811 0.046512
0.645541 0.009297
0.645516 0.016741
0.643577 0.449644
0.643575 0.445500
0.643570 0.435120
0.643568 0.430976
0.643479 0.426140
0.643503 0.046512
0.643192 0.550737
0.638799 0.445499
0.705049 0.468575
0.705136 0.550737
0.699370 0.550737
0.699282 0.468575
0.759587 0.454487
0.761201 0.468575
0.755433 0.468575
0.755524 0.454487
0.699373 0.454487
0.699514 0.449653
0.702466 0.449654
0.703435 0.454487
0.699344 0.445510
0.702347 0.445511
0.700244 0.435133
0.699262 0.435133
0.699872 0.430990
0.699302 0.430990
0.699248 0.428613
0.693603 0.550737
0.693514 0.468574
0.757870 0.454487
0.757779 0.468575
0.752011 0.468574
0.753807 0.454486
0.695310 0.454486
0.696562 0.449653
0.696342 0.445510
0.698279 0.435133
0.698733 0.430990
0.640460 0.454751
0.642552 0.468572
0.639143 0.468572
0.643192 0.550737
0.639143 0.550737
</float_array>
          <technique_common>
            <accessor source="#polySurface2-UV0-array" count="75" stride="2">
              <param name="S" type="float"/>
              <param name="T" type="float"/>
            </accessor>
          </technique_common>
        </source>
        <vertices id="polySurface2-VERTEX">
          <input semantic="POSITION" source="#polySurface2-POSITION"/>
        </vertices>
        <triangles count="77" material="pplant"><input semantic="VERTEX" offset="0" source="#polySurface2-VERTEX"/><input semantic="NORMAL" offset="1" source="#polySurface2-Normal0"/><input semantic="TEXCOORD" offset="2" set="0" source="#polySurface2-UV0"/><p> 2 0 0 3 1 3 1 2 1 1 3 1 3 4 3 0 5 2 0 6 2 3 7 3 4 8 4 8 9 5 6 10 9 7 11 10 13 12 8 11 13 11 12 14 12 11 15 11 18 16 13 29 17 32 31 18 34 20 19 16 30 20 33 30 21 33 20 22 16 19 23 17 15 24 14 29 25 32 19 26 17 30 27 33 19 28 17 29 29 32 8 30 5 9 31 15 10 32 6 9 33 15 8 34 5 7 35 10 8 36 5 13 37 8 6 38 9 6 39 9 13 40 8 12 41 12 16 42 20 25 43 21 24 44 22 2 45 24 24 46 22 25 47 21 2 48 24 25 49 21 26 50 23 20 51 16 31 52 34 16 53 20 32 54 35 16 55 20 31 56 34 11 57 11 7 58 10 12 59 12 12 60 12 7 61 10 6 62 9 3 63 26 2 64 24 26 65 23 26 66 23 33 67 36 34 68 37 33 69 36 26 70 23 25 71 21 33 72 36 25 73 21 32 74 35 16 75 20 32 76 35 25 77 21 27 78 30 4 79 25 3 80 26 27 81 30 3 82 26 28 83 31 26 84 23 28 85 31 3 86 26 28 87 31 26 88 23 34 89 37 30 90 33 29 91 32 22 92 18 29 93 32 18 94 13 22 95 18 21 96 19 30 97 33 36 98 39 30 99 33 21 100 19 31 101 34 31 102 34 17 103 27 32 104 35 17 105 27 31 106 34 21 107 19 23 108 28 32 109 35 17 110 27 32 111 35 23 112 28 33 113 36 34 114 37 33 115 36 23 116 28 34 117 37 23 118 28 5 119 29 28 120 31 34 121 37 5 122 29 29 123 32 7 124 10 11 125 11 7 126 10 29 127 32 15 128 14 7 129 10 15 130 14 9 131 15 10 132 6 14 133 7 8 134 5 14 135 7 35 136 38 8 137 5 13 138 8 8 139 5 35 140 38 36 141 39 30 142 33 22 143 18 37 144 40 38 145 41 44 146 42 37 147 40 44 148 42 45 149 43 37 150 45 45 151 46 39 152 44 39 153 44 45 154 46 46 155 47 39 156 51 46 157 48 40 158 50 46 159 48 47 160 49 40 161 50 40 162 50 48 163 52 41 164 53 48 165 52 40 166 50 47 167 49 41 168 53 48 169 52 42 170 54 42 171 54 48 172 52 49 173 55 42 174 54 50 175 57 43 176 56 50 177 57 42 178 54 49 179 55 24 180 58 43 181 56 50 182 57 14 183 59 45 184 43 44 185 42 45 186 43 14 187 59 10 188 60 45 189 62 9 190 64 46 191 61 9 192 64 45 193 62 10 194 63 15 195 66 46 196 48 9 197 65 46 198 48 15 199 66 47 200 49 47 201 49 19 202 67 48 203 52 19 204 67 47 205 49 15 206 66 48 207 52 20 208 68 49 209 55 20 210 68 48 211 52 19 212 67 49 213 55 16 214 69 50 215 57 16 216 69 49 217 55 20 218 68 24 219 58 50 220 57 16 221 69 11 222 70 13 223 71 51 224 72 13 225 71 35 226 73 52 227 74 13 228 71 52 229 74 51 230 72</p></triangles>
      </mesh>
    </geometry>
  </library_geometries>
  <library_visual_scenes>
    <visual_scene id="pplant_ground_angled_short" name="pplant_ground_angled_short">
      <node name="polySurface2" id="polySurface2" sid="polySurface2"><matrix sid="matrix">0.010000 0.000000 0.000000 0.000000 0.000000 0.010000 0.000000 0.000000 0.000000 0.000000 0.010000 0.000000 0.000000 0.000000 0.000000 1.000000</matrix><instance_geometry url="#polySurface2-lib"><bind_material><technique_common><instance_material symbol="pplant" target="#pplant"/></technique_common></bind_material></instance_geometry><extra><technique profile="FCOLLADA"><visibility>1.000000</visibility></technique></extra></node>
      <extra><technique profile="MAX3D"><frame_rate>24.000000</frame_rate></technique><technique profile="FCOLLADA"><start_time>0.041667</start_time><end_time>2.000000</end_time></technique></extra>
    </visual_scene>
  </library_visual_scenes>
  <scene>
    <instance_visual_scene url="#pplant_ground_angled_short"></instance_visual_scene>
  </scene>
</COLLADA>
