<?xml version="1.0" encoding="utf-8" ?>
<COLLADA xmlns="http://www.collada.org/2005/11/COLLADASchema" version="1.4.1">
    <asset>
        <contributor>
            <authoring_tool>modo 701 [Build 66614], Microsoft Windows 7 Service Pack 1 (6.1.7601 Service Pack 1)</authoring_tool>
            <comments>Plug-in: [Build 66614]; Use Absolute Path: No; Merge Reference Items: No; Save Hidden Items: No; Save Cameras: No; Save Lights: No; Save Locators: Yes; Save Triangles as Triangles: Yes; Order Vertex Maps Alphabetically: Yes; Bake Matrices: No; Save Vertex Normals: Yes; Save UV Texture Coordinates: Yes; Save Vertex Colors: Yes; Save Vertex Weights: Yes; Save Animation: No; Sample Animation: No; Sample Animation Start: 0; Sample Animation End: 276; Save modo Profile: No; Save Maya Profile: No; Save 3ds Max Profile: No; Formatted Arrays: No;</comments>
            <source_data>file:///D:/Work/Dropbox/Frictional%20Games%20-%20Team/Aaron/models/static_objects/station/pplant.lxo</source_data>
        </contributor>
        <created>2014-02-04T23:26:49Z</created>
        <modified>2014-02-04T23:26:49Z</modified>
        <unit name="game" meter="1" />
        <up_axis>Y_UP</up_axis>
    </asset>
    <library_images>
        <image id="Image0001" name="Image0001">
            <init_from>file:///D:/Work/Dropbox/Frictional%20Games%20-%20Team/Aaron/models/static_objects/robot/robot_tunnel/robot_tunnel.tga</init_from>
        </image>
        <image id="Image0002" name="Image0002">
            <init_from>file:///D:/Work/Dropbox/Frictional%20Games%20-%20Team/Aaron/models/static_objects/station/floor/pplant_first_floor_default_nrm.tga</init_from>
        </image>
        <image id="Image0003" name="Image0003">
            <init_from>file:///D:/Work/Dropbox/Frictional%20Games%20-%20Team/Aaron/models/static_objects/station/floor/pplant_first_floor_tilable.psd</init_from>
        </image>
        <image id="Image0004" name="Image0004">
            <init_from>file:///D:/Work/Dropbox/Frictional%20Games%20-%20Team/Aaron/models/static_objects/station/floor/pplant_floor.psd</init_from>
        </image>
        <image id="Image0005" name="Image0005">
            <init_from>file:///D:/Work/Dropbox/Frictional%20Games%20-%20Team/Aaron/models/static_objects/station/floor/pplant_floor_nrm.tga</init_from>
        </image>
        <image id="Image0006" name="Image0006">
            <init_from>file:///D:/Work/Dropbox/Frictional%20Games%20-%20Team/Aaron/models/static_objects/station/floor/pplant_floor_spec.tga</init_from>
        </image>
        <image id="Image0007" name="Image0007">
            <init_from>file:///D:/Work/Dropbox/Frictional%20Games%20-%20Team/Aaron/models/static_objects/station/pipes/pipe_turn_broken_slim.tga</init_from>
        </image>
        <image id="Image0008" name="Image0008">
            <init_from>file:///D:/Work/Dropbox/Frictional%20Games%20-%20Team/Aaron/models/static_objects/station/pplant.psd</init_from>
        </image>
        <image id="Image0009" name="Image0009">
            <init_from>file:///D:/Work/Dropbox/Frictional%20Games%20-%20Team/Aaron/models/static_objects/station/pplant_glass.psd</init_from>
        </image>
        <image id="Image0010" name="Image0010">
            <init_from>file:///D:/Work/Dropbox/Frictional%20Games%20-%20Team/Aaron/models/static_objects/station/pplant_nrm.tga</init_from>
        </image>
        <image id="Image0011" name="Image0011">
            <init_from>file:///D:/Work/Dropbox/Frictional%20Games%20-%20Team/Aaron/models/static_objects/station/roof/pplant_tiling_light.psd</init_from>
        </image>
        <image id="Image0012" name="Image0012">
            <init_from>file:///D:/Work/Dropbox/Frictional%20Games%20-%20Team/Aaron/models/static_objects/station/roof/pplant_tiling_nrm.tga</init_from>
        </image>
        <image id="Image0013" name="Image0013">
            <init_from>file:///D:/Work/Dropbox/Frictional%20Games%20-%20Team/Aaron/models/static_objects/station/walls/comm_room_wall_interior/comm_room_wall_interior.psd</init_from>
        </image>
        <image id="Image0014" name="Image0014">
            <init_from>file:///D:/Work/Dropbox/Frictional%20Games%20-%20Team/Aaron/models/static_objects/station/walls/comm_room_wall_interior/comm_room_wall_interior_nrm.tga</init_from>
        </image>
        <image id="Image0015" name="Image0015">
            <init_from>file:///D:/Work/Dropbox/Frictional%20Games%20-%20Team/Aaron/models/static_objects/station/walls/comm_room_wall_interior/comm_room_wall_interior_spec.tga</init_from>
        </image>
        <image id="Image0016" name="Image0016">
            <init_from>file:///D:/Work/Dropbox/Frictional%20Games%20-%20Team/Aaron/textures/_temp/blob_shadow_generic.tga</init_from>
        </image>
    </library_images>
    <library_materials>
        <material id="Material-Default" name="Default">
            <instance_effect url="#Effect-Default" />
        </material>
        <material id="Material-blank2" name="blank2">
            <instance_effect url="#Effect-blank2" />
        </material>
        <material id="Material-comm_room_wall_interior" name="comm_room_wall_interior">
            <instance_effect url="#Effect-comm_room_wall_interior" />
        </material>
        <material id="Material-door" name="door">
            <instance_effect url="#Effect-door" />
        </material>
        <material id="Material-frame" name="frame">
            <instance_effect url="#Effect-frame" />
        </material>
        <material id="Material-pipe_turn_broken_slim" name="pipe_turn_broken_slim">
            <instance_effect url="#Effect-pipe_turn_broken_slim" />
        </material>
        <material id="Material-pplant" name="pplant">
            <instance_effect url="#Effect-pplant" />
        </material>
        <material id="Material-pplant_first_floor_tileable" name="pplant_first_floor_tileable">
            <instance_effect url="#Effect-pplant_first_floor_tileable" />
        </material>
        <material id="Material-pplant_floor" name="pplant_floor">
            <instance_effect url="#Effect-pplant_floor" />
        </material>
        <material id="Material-pplant_glass" name="pplant_glass">
            <instance_effect url="#Effect-pplant_glass" />
        </material>
        <material id="Material-tunnel" name="tunnel">
            <instance_effect url="#Effect-tunnel" />
        </material>
        <material id="Material-tunnel_MAT" name="tunnel_MAT">
            <instance_effect url="#Effect-tunnel_MAT" />
        </material>
    </library_materials>
    <library_effects>
        <effect id="Effect-Default" name="Default">
            <profile_COMMON>
                <technique sid="common">
                    <phong>
                        <diffuse>
                            <color sid="diffuse_effect_rgb">0.8 0.8 0.8 1</color>
                        </diffuse>
                        <specular>
                            <color sid="specular_effect_rgb">0.2 0.2 0.2 1</color>
                        </specular>
                        <shininess>
                            <float sid="specular_effect_rgb">256</float>
                        </shininess>
                    </phong>
                </technique>
            </profile_COMMON>
        </effect>
        <effect id="Effect-blank2" name="blank2">
            <profile_COMMON>
                <technique sid="common">
                    <phong>
                        <diffuse>
                            <color sid="diffuse_effect_rgb">0.8 0.8 0.8 1</color>
                        </diffuse>
                        <specular>
                            <color sid="specular_effect_rgb">0.2 0.2 0.2 1</color>
                        </specular>
                        <shininess>
                            <float sid="specular_effect_rgb">256</float>
                        </shininess>
                    </phong>
                </technique>
            </profile_COMMON>
        </effect>
        <effect id="Effect-comm_room_wall_interior" name="comm_room_wall_interior">
            <profile_COMMON>
                <newparam sid="Image0013-surface">
                    <surface type="2D">
                        <init_from>Image0013</init_from>
                        <format>A8R8G8B8</format>
                    </surface>
                </newparam>
                <newparam sid="Image0013-sampler">
                    <sampler2D>
                        <source>Image0013-surface</source>
                        <minfilter>LINEAR_MIPMAP_LINEAR</minfilter>
                        <magfilter>LINEAR</magfilter>
                    </sampler2D>
                </newparam>
                <newparam sid="Image0015-surface">
                    <surface type="2D">
                        <init_from>Image0015</init_from>
                        <format>A8R8G8B8</format>
                    </surface>
                </newparam>
                <newparam sid="Image0015-sampler">
                    <sampler2D>
                        <source>Image0015-surface</source>
                        <minfilter>LINEAR_MIPMAP_LINEAR</minfilter>
                        <magfilter>LINEAR</magfilter>
                    </sampler2D>
                </newparam>
                <technique sid="common">
                    <phong>
                        <diffuse>
                            <texture texture="Image0013-sampler" texcoord="uvSet1" />
                        </diffuse>
                        <specular>
                            <texture texture="Image0015-sampler" texcoord="uvSet1" />
                        </specular>
                        <shininess>
                            <float sid="specular_effect_rgb">32</float>
                        </shininess>
                    </phong>
                </technique>
            </profile_COMMON>
        </effect>
        <effect id="Effect-door" name="door">
            <profile_COMMON>
                <technique sid="common">
                    <phong>
                        <diffuse>
                            <color sid="diffuse_effect_rgb">0.8 0.8 0.8 1</color>
                        </diffuse>
                        <specular>
                            <color sid="specular_effect_rgb">0.2 0.2 0.2 1</color>
                        </specular>
                        <shininess>
                            <float sid="specular_effect_rgb">256</float>
                        </shininess>
                    </phong>
                </technique>
            </profile_COMMON>
        </effect>
        <effect id="Effect-frame" name="frame">
            <profile_COMMON>
                <technique sid="common">
                    <phong>
                        <diffuse>
                            <color sid="diffuse_effect_rgb">0.8 0.8 0.8 1</color>
                        </diffuse>
                        <specular>
                            <color sid="specular_effect_rgb">0.2 0.2 0.2 1</color>
                        </specular>
                        <shininess>
                            <float sid="specular_effect_rgb">256</float>
                        </shininess>
                    </phong>
                </technique>
            </profile_COMMON>
        </effect>
        <effect id="Effect-pipe_turn_broken_slim" name="pipe_turn_broken_slim">
            <profile_COMMON>
                <newparam sid="Image0007-surface">
                    <surface type="2D">
                        <init_from>Image0007</init_from>
                        <format>A8R8G8B8</format>
                    </surface>
                </newparam>
                <newparam sid="Image0007-sampler">
                    <sampler2D>
                        <source>Image0007-surface</source>
                        <minfilter>LINEAR_MIPMAP_LINEAR</minfilter>
                        <magfilter>LINEAR</magfilter>
                    </sampler2D>
                </newparam>
                <technique sid="common">
                    <phong>
                        <diffuse>
                            <texture texture="Image0007-sampler" texcoord="map1" />
                        </diffuse>
                        <specular>
                            <color sid="specular_effect_rgb">0.2 0.2 0.2 1</color>
                        </specular>
                        <shininess>
                            <float sid="specular_effect_rgb">256</float>
                        </shininess>
                    </phong>
                </technique>
            </profile_COMMON>
        </effect>
        <effect id="Effect-pplant" name="pplant">
            <profile_COMMON>
                <newparam sid="Image0008-surface">
                    <surface type="2D">
                        <init_from>Image0008</init_from>
                        <format>A8R8G8B8</format>
                    </surface>
                </newparam>
                <newparam sid="Image0008-sampler">
                    <sampler2D>
                        <source>Image0008-surface</source>
                        <minfilter>LINEAR_MIPMAP_LINEAR</minfilter>
                        <magfilter>LINEAR</magfilter>
                    </sampler2D>
                </newparam>
                <technique sid="common">
                    <phong>
                        <diffuse>
                            <texture texture="Image0008-sampler" texcoord="uvSet1" />
                        </diffuse>
                        <specular>
                            <color sid="specular_effect_rgb">0.425 0.425 0.425 1</color>
                        </specular>
                        <shininess>
                            <float sid="specular_effect_rgb">4</float>
                        </shininess>
                    </phong>
                </technique>
            </profile_COMMON>
        </effect>
        <effect id="Effect-pplant_first_floor_tileable" name="pplant_first_floor_tileable">
            <profile_COMMON>
                <newparam sid="Image0003-surface">
                    <surface type="2D">
                        <init_from>Image0003</init_from>
                        <format>A8R8G8B8</format>
                    </surface>
                </newparam>
                <newparam sid="Image0003-sampler">
                    <sampler2D>
                        <source>Image0003-surface</source>
                        <minfilter>LINEAR_MIPMAP_LINEAR</minfilter>
                        <magfilter>LINEAR</magfilter>
                    </sampler2D>
                </newparam>
                <technique sid="common">
                    <phong>
                        <diffuse>
                            <texture texture="Image0003-sampler" texcoord="uvSet1" />
                        </diffuse>
                        <specular>
                            <color sid="specular_effect_rgb">0.2 0.2 0.2 1</color>
                        </specular>
                        <shininess>
                            <float sid="specular_effect_rgb">256</float>
                        </shininess>
                    </phong>
                </technique>
            </profile_COMMON>
        </effect>
        <effect id="Effect-pplant_floor" name="pplant_floor">
            <profile_COMMON>
                <newparam sid="Image0004-surface">
                    <surface type="2D">
                        <init_from>Image0004</init_from>
                        <format>A8R8G8B8</format>
                    </surface>
                </newparam>
                <newparam sid="Image0004-sampler">
                    <sampler2D>
                        <source>Image0004-surface</source>
                        <minfilter>LINEAR_MIPMAP_LINEAR</minfilter>
                        <magfilter>LINEAR</magfilter>
                    </sampler2D>
                </newparam>
                <newparam sid="Image0006-surface">
                    <surface type="2D">
                        <init_from>Image0006</init_from>
                        <format>A8R8G8B8</format>
                    </surface>
                </newparam>
                <newparam sid="Image0006-sampler">
                    <sampler2D>
                        <source>Image0006-surface</source>
                        <minfilter>LINEAR_MIPMAP_LINEAR</minfilter>
                        <magfilter>LINEAR</magfilter>
                    </sampler2D>
                </newparam>
                <technique sid="common">
                    <phong>
                        <diffuse>
                            <texture texture="Image0004-sampler" texcoord="uvSet1" />
                        </diffuse>
                        <specular>
                            <texture texture="Image0006-sampler" texcoord="uvSet1" />
                        </specular>
                        <shininess>
                            <float sid="specular_effect_rgb">14.42</float>
                        </shininess>
                    </phong>
                </technique>
            </profile_COMMON>
        </effect>
        <effect id="Effect-pplant_glass" name="pplant_glass">
            <profile_COMMON>
                <newparam sid="Image0009-surface">
                    <surface type="2D">
                        <init_from>Image0009</init_from>
                        <format>A8R8G8B8</format>
                    </surface>
                </newparam>
                <newparam sid="Image0009-sampler">
                    <sampler2D>
                        <source>Image0009-surface</source>
                        <minfilter>LINEAR_MIPMAP_LINEAR</minfilter>
                        <magfilter>LINEAR</magfilter>
                    </sampler2D>
                </newparam>
                <technique sid="common">
                    <phong>
                        <diffuse>
                            <texture texture="Image0009-sampler" texcoord="uvSet1" />
                        </diffuse>
                        <specular>
                            <color sid="specular_effect_rgb">0.2 0.2 0.2 1</color>
                        </specular>
                        <shininess>
                            <float sid="specular_effect_rgb">256</float>
                        </shininess>
                    </phong>
                </technique>
            </profile_COMMON>
        </effect>
        <effect id="Effect-tunnel" name="tunnel">
            <profile_COMMON>
                <newparam sid="Image0001-surface">
                    <surface type="2D">
                        <init_from>Image0001</init_from>
                        <format>A8R8G8B8</format>
                    </surface>
                </newparam>
                <newparam sid="Image0001-sampler">
                    <sampler2D>
                        <source>Image0001-surface</source>
                        <minfilter>LINEAR_MIPMAP_LINEAR</minfilter>
                        <magfilter>LINEAR</magfilter>
                    </sampler2D>
                </newparam>
                <technique sid="common">
                    <phong>
                        <diffuse>
                            <texture texture="Image0001-sampler" texcoord="uvSet1" />
                        </diffuse>
                        <specular>
                            <color sid="specular_effect_rgb">0.5 0.5 0.5 1</color>
                        </specular>
                        <shininess>
                            <float sid="specular_effect_rgb">256</float>
                        </shininess>
                    </phong>
                </technique>
            </profile_COMMON>
        </effect>
        <effect id="Effect-tunnel_MAT" name="tunnel_MAT">
            <profile_COMMON>
                <newparam sid="Image0001-surface">
                    <surface type="2D">
                        <init_from>Image0001</init_from>
                        <format>A8R8G8B8</format>
                    </surface>
                </newparam>
                <newparam sid="Image0001-sampler">
                    <sampler2D>
                        <source>Image0001-surface</source>
                        <minfilter>LINEAR_MIPMAP_LINEAR</minfilter>
                        <magfilter>LINEAR</magfilter>
                    </sampler2D>
                </newparam>
                <technique sid="common">
                    <phong>
                        <diffuse>
                            <texture texture="Image0001-sampler" texcoord="uvSet1" />
                        </diffuse>
                        <specular>
                            <color sid="specular_effect_rgb">0.5 0.5 0.5 1</color>
                        </specular>
                        <shininess>
                            <float sid="specular_effect_rgb">256</float>
                        </shininess>
                        <reflective>
                            <color sid="reflective_effect_rgb">0 0 0 1</color>
                        </reflective>
                        <reflectivity>
                            <float sid="reflectivity_effect_float">0.5</float>
                        </reflectivity>
                        <transparent opaque="RGB_ZERO">
                            <color sid="transparent_effect_rgb">0 0 0 1</color>
                        </transparent>
                        <transparency>
                            <float sid="transparency_effect_float">1</float>
                        </transparency>
                    </phong>
                </technique>
            </profile_COMMON>
        </effect>
    </library_effects>
    <library_geometries>
        <geometry id="Geometry-mesh080" name="ground_convex_short">
            <mesh>
                <source id="Geometry-mesh080-positions" name="positions">
                    <float_array id="Geometry-mesh080-positions-array" count="402">0 0 -2 0 0.0625 -2 0.25 0.0625 -2 0.0615234 3.25 -1.9375 0 3.25 -1.87598 0 3.31152 -1.9375 0.0615234 3.25 -2 0 3.31152 -2 0 4 -2 0.209473 3.25 -2 0.102051 3.25 -2 0.199268 3.2832 -2 0.112256 3.2832 -2 0.25 3.25 -2 0.25 0.0625 -0.442871 0.112256 3.2832 -0.305127 0.199268 3.2832 -0.392139 0.209473 3.25 -0.402344 0.25 3.25 -0.442871 0.102051 3.25 -0.294922 0.213949 3.2832 -0.31833 0.126937 3.2832 -0.231318 0.224154 3.25 -0.328535 0.264681 0.0625 -0.369063 0.264681 3.25 -0.369063 0.116732 3.25 -0.221113 2 0 4.44089e-016 2 0.0625 4.44089e-016 1.9375 3.25 -0.0615234 1.87598 3.25 2.22045e-016 1.9375 3.31152 2.22045e-016 2 3.25 -0.0615234 2 3.31152 4.44089e-016 2 4 4.44089e-016 2 3.25 -0.209473 2 3.25 -0.102051 2 3.2832 -0.199268 2 3.2832 -0.112256 0.305127 3.2832 -0.112256 0.392139 3.2832 -0.199268 0.402344 3.25 -0.209473 0.294922 3.25 -0.102051 0.31833 3.2832 -0.213949 0.231318 3.2832 -0.126937 0.328535 3.25 -0.224154 0.221113 3.25 -0.116732 0 0 0 0.442871 0.0625 -0.25 0.306491 0.0625 -0.306491 0.369063 0.0625 -0.264681 0 0.0625 0 0 3.31152 0 0 4 0 0.442871 3.25 -0.25 0.255758 3.2832 -0.255758 0.168747 3.2832 -0.168747 0.265963 3.25 -0.265963 0.306491 3.25 -0.306491 0.369063 3.25 -0.264681 0.158541 3.25 -0.158541 0 3.25 0 0.347499 3.2832 -0.112256 0.432335 3.2832 -0.199268 0.442285 3.25 -0.209473 0.337549 3.25 -0.102051 0.0484375 3.31152 5.55112e-018 0.05 4 1.11022e-017 0.05 0.0625 1.11022e-017 0.05 0 1.11022e-017 0.0468994 3.25 5.55112e-018 0.199268 3.2832 -0.432335 0.112256 3.2832 -0.347499 0.209473 3.25 -0.442285 0.25 3.25 -0.481799 0.25 0.0625 -0.481799 0.102051 3.25 -0.337549 0 3.31152 -0.0484375 0 4 -0.05 0 0.0625 -0.05 0 0 -0.05 0 3.25 -0.0468994 0.481799 0.0625 -0.25 2 0.0625 -0.25 0.481799 3.25 -0.25 2 3.25 -0.25 0.25 0.0625 -2 0.25 3.25 -2 0.25 0.0625 -0.442871 0.25 3.25 -0.442871 0.264681 0.0625 -0.369063 0.264681 3.25 -0.369063 0.442871 0.0625 -0.25 0.306491 0.0625 -0.306491 0.369063 0.0625 -0.264681 0.442871 3.25 -0.25 0.306491 3.25 -0.306491 0.369063 3.25 -0.264681 0.25 3.25 -0.481799 0.25 0.0625 -0.481799 0.481799 0.0625 -0.25 2 0.0625 -0.25 0.481799 3.25 -0.25 2 3.25 -0.25 0.25 3.25 -1.19091 0.25 0.0625 -1.19091 0.25 1.62375 -0.442871 0.264681 1.62375 -0.369063 0.306491 1.62375 -0.306491 0.369063 1.62375 -0.264681 0.442871 1.62375 -0.25 0.25 1.62375 -0.481799 0.481799 1.62375 -0.25 2 1.62375 -0.25 0.25 1.62375 -1.19091 0.25 1.62375 -2 0.25 1.62375 -0.51648 0.25 0.0625 -0.51648 0.25 3.25 -0.51648 0.28125 0.0751953 -1.17822 0.28125 1.61105 -1.17822 0.28125 1.61105 -0.529176 0.28125 0.0751953 -0.529176 0.567871 0.0751953 -1.17822 0.567871 1.61105 -1.17822 0.567871 1.61105 -0.529176 0.567871 0.0751953 -0.529176 -0.193917 0.014689 -1.85791 0.203593 1.49822 -1.85791 0.203593 1.49822 -1.20886 -0.193917 0.014689 -1.20886 -0.141093 0.000534773 -1.85791 0.256417 1.48406 -1.85791 0.256417 1.48406 -1.20886 -0.141093 0.000534773 -1.20886</float_array>
                    <technique_common>
                        <accessor count="134" source="#Geometry-mesh080-positions-array" stride="3">
                            <param name="X" type="float" />
                            <param name="Y" type="float" />
                            <param name="Z" type="float" />
                        </accessor>
                    </technique_common>
                </source>
                <source id="Geometry-mesh080-normals" name="normals">
                    <float_array id="Geometry-mesh080-normals-array" count="243">-0.92388 -0.382683 0 -0.967538 -0.252725 0 -1 0 0 -0.57735 -0.57735 -0.57735 -3.28228e-015 -0.382683 0.92388 -1.88738e-015 -1.51179e-016 1 -1.16445e-015 -0.252725 0.967538 0.57735 -0.57735 0.57735 0 -0.98229 0.187366 0 -1 0 -8.97859e-016 -0.862856 0.505449 -0.505449 -0.862856 0 -0.187366 -0.98229 0 -0.94861 -0.310433 0.0614109 -0.88322 -0.362793 0.297159 -0.937405 -0.325864 0.122822 -0.829906 -0.380484 0.40803 -0.40803 -0.380485 0.829905 -0.297159 -0.362794 0.88322 -0.122821 -0.325863 0.937405 -0.061411 -0.310431 0.94861 -0.648495 -0.398634 0.648495 -0.648495 -0.398634 0.648495 0 1 0 0 -0.293788 0.955871 -1.86231e-016 -1.05907e-016 1 -1.33137e-016 1.7511e-017 1 -1.17109e-016 1.94138e-018 1 -1.16483e-016 5.87814e-017 1 -0.95587 -0.293789 0 -0.947173 0 0.320722 -0.92388 0 0.382683 -0.752339 0 0.658776 -0.707107 0 0.707107 -0.896538 0 0.442968 -0.658776 0 0.752339 -0.0980171 0 0.995185 -0.0653095 0 0.997865 0 0 1 -0.376377 0.926467 0 -0.255122 0.966909 0 -0.127561 0.991831 0 -0.255122 0 0.966909 -0.127561 0 0.991831 0.648495 -0.398634 -0.648495 0.648495 -0.398633 -0.648495 0.408031 -0.380482 -0.829906 0.29716 -0.362792 -0.88322 -1.68324e-016 -3.77948e-018 1 -1.15856e-016 9.55029e-019 1 -1.18362e-016 0 1 0.95587 -0.293789 0 0.94861 -0.310433 -0.0614109 0.937405 -0.325864 -0.122822 -0.442968 0 0.896537 -0.382683 0 0.92388 -0.130619 0 0.991433 -0.995185 0 0.0980171 -0.991433 0 0.130619 -0.376377 0 0.926467 -0.255122 -0.966909 0 -0.127561 -0.991831 0 -0.258819 -0.965926 0 0.88322 -0.362793 -0.297159 0.829906 -0.380484 -0.408031 0.122822 -0.325862 -0.937405 0.061411 -0.310431 -0.94861 0 -0.293788 -0.955871 -2.22045e-016 0 1 0.95587 -0.293789 0 -0.320722 0 0.947173 -0.376377 -0.926467 0 -0.255122 0 -0.966909 -0.127561 0 -0.991831 0 0 -1 0.965926 -0.258819 0 0 -0.293788 -0.955871 -0.997865 0 0.0653095 -0.376377 0 -0.926467 -0.965926 0.258819 0 0.258819 0.965926 0</float_array>
                    <technique_common>
                        <accessor count="81" source="#Geometry-mesh080-normals-array" stride="3">
                            <param name="X" type="float" />
                            <param name="Y" type="float" />
                            <param name="Z" type="float" />
                        </accessor>
                    </technique_common>
                </source>
                <source id="Geometry-mesh080-uvSet1" name="uvSet1">
                    <float_array id="Geometry-mesh080-uvSet1-array" count="258">0.501273 0.473263 0.504952 0.473578 0.500886 0.554615 0.504994 0.459439 0.508642 0.466575 0.501314 0.454626 0.501367 0.460136 0.619375 0.468483 0.606486 0.454531 0.602017 0.456162 0.610357 0.449877 0.5995 0.456124 0.595709 0.437611 0.599846 0.436225 0.596312 0.441713 0.600801 0.440001 0.595709 0.437611 0.597654 0.431187 0.601509 0.426839 0.603658 0.432065 0.604717 0.435637 0.597445 0.0408008 0.601178 0.0456689 0.619129 0.00895729 0.593062 0.039163 0.593938 0.441677 0.59335 0.437576 0.615951 0.556793 0.616474 0.475685 0.616607 0.468435 0.616166 0.00902537 0.590755 0.0392161 0.598206 0.426203 0.598226 0.233037 0.602675 0.426204 0.602695 0.233039 0.549333 0.233017 0.549313 0.42618 0.501284 0.232997 0.501263 0.426158 0.598245 0.0475926 0.602713 0.0475947 0.611633 0.233043 0.611651 0.0475994 0.613944 0.233044 0.613963 0.0476004 0.549352 0.0475749 0.589404 0.0475895 0.550632 0.048856 0.588124 0.0488697 0.264034 0.824779 0.264034 0.660767 0.279338 0.824779 0.279338 0.660767 0.876582 0.231518 0.823861 0.231518 0.876583 0.0501709 0.823861 0.0501709 0.880562 0.272689 0.880562 0.383115 0.877176 0.272689 0.877176 0.383115 0.601407 0.452058 0.605553 0.450742 0.605553 0.450742 0.601407 0.452058 0.609325 0.446415 0.501373 0.436184 0.501361 0.440278 0.618901 0.556849 0.619333 0.475739 0.598905 0.45202 0.500607 0.0116805 0.616123 0.0016239 0.500565 0.00427902 0.500782 0.0412871 0.607144 0.426206 0.607163 0.233041 0.611614 0.426207 0.591425 0.426199 0.591445 0.233034 0.501303 0.0475574 0.591464 0.0475902 0.591445 0.233035 0.593757 0.233035 0.593776 0.0475911 0.550614 0.231737 0.264034 0.793887 0.264034 0.724577 0.279338 0.793887 0.279338 0.724577 0.822482 0.268582 0.822482 0.312192 0.819071 0.268582 0.819071 0.312192 0.598905 0.45202 0.619086 0.00155581 0.501392 0.431409 0.591036 0.432766 0.501329 0.450531 0.593335 0.432801 0.591036 0.432766 0.613925 0.426208 0.589366 0.426198 0.589385 0.233034 0.607182 0.0475971 0.588105 0.231752 0.264034 0.82478 0.279338 0.82478 0.279338 0.660767 0.877176 0.249082 0.880562 0.249045 0.877176 0.359998 0.880562 0.359961 0.935761 0.231752 0.93578 0.0500904 0.880936 0.231737 0.880955 0.0500767 0.593335 0.432801 0.500782 0.0412871 0.593737 0.4262 0.264034 0.793888 0.264034 0.724577 0.279338 0.793888 0.279338 0.724577 0.819071 0.358578 0.819071 0.314969 0.822482 0.358578 0.822482 0.314969</float_array>
                    <technique_common>
                        <accessor count="129" source="#Geometry-mesh080-uvSet1-array" stride="2">
                            <param name="S" type="float" />
                            <param name="T" type="float" />
                        </accessor>
                    </technique_common>
                </source>
                <vertices id="Geometry-mesh080-vertices">
                    <input semantic="POSITION" source="#Geometry-mesh080-positions" />
                </vertices>
                <triangles count="192" material="Material-pplant">
                    <input semantic="VERTEX" source="#Geometry-mesh080-vertices" offset="0" />
                    <input semantic="NORMAL" source="#Geometry-mesh080-normals" offset="1" />
                    <input semantic="TEXCOORD" source="#Geometry-mesh080-uvSet1" offset="2" set="0" />
                    <p>7 0 0 5 1 1 8 2 2 5 3 1 3 3 3 4 3 4 32 4 0 33 5 2 30 6 1 30 7 1 29 7 4 28 7 3 28 8 3 35 9 5 31 10 6 60 9 7 45 9 8 41 9 9 60 9 7 59 9 10 45 9 8 60 9 7 25 9 8 59 9 10 60 9 7 19 9 9 25 9 8 64 9 11 35 9 5 28 8 3 6 11 6 10 9 5 3 12 3 10 9 5 75 9 11 3 12 3 17 13 12 22 14 13 16 15 14 20 16 15 16 15 14 22 14 13 42 17 15 44 18 13 39 19 14 40 20 16 39 19 14 44 18 13 24 9 17 57 9 18 22 9 13 56 9 19 22 9 13 57 9 18 44 18 13 42 17 15 56 21 19 54 22 20 56 21 19 42 17 15 49 23 21 48 23 22 50 23 23 50 23 23 47 23 24 49 23 21 39 19 14 40 20 16 62 24 25 63 24 26 62 24 25 40 20 16 33 5 2 66 25 27 30 6 1 65 26 28 30 6 1 66 25 27 69 27 29 29 28 4 65 26 28 30 6 1 65 26 28 29 28 4 72 29 26 17 13 12 70 29 25 16 15 14 70 29 25 17 13 12 8 2 2 5 1 1 77 2 27 76 2 28 77 2 27 5 1 1 50 23 23 14 23 24 78 23 30 74 23 31 78 23 30 14 23 24 7 0 0 6 11 6 5 1 1 3 12 3 5 1 1 6 11 6 80 9 29 4 9 4 75 9 11 3 12 3 75 9 11 4 9 4 50 23 23 67 23 30 47 23 24 81 23 31 47 23 24 67 23 30 90 30 32 106 31 33 95 32 34 107 33 35 95 32 34 106 31 33 113 2 36 103 2 37 114 2 38 86 2 39 114 2 38 103 2 37 106 31 33 89 34 40 107 33 35 92 35 41 107 33 35 89 34 40 109 36 42 91 37 43 111 38 44 99 38 45 111 38 44 91 37 43 104 39 46 116 39 47 118 40 48 121 41 49 118 40 48 116 39 47 119 42 50 118 43 51 123 38 52 122 38 53 123 38 52 118 43 51 124 2 54 123 2 55 125 2 56 122 2 57 125 2 56 123 2 55 133 38 58 132 38 59 129 38 60 128 38 61 129 38 60 132 38 59 16 9 14 20 9 15 15 9 62 21 9 63 15 9 62 20 9 15 28 8 3 31 10 6 30 6 1 32 4 0 30 6 1 31 10 6 43 9 64 42 9 15 38 9 65 39 9 14 38 9 65 42 9 15 22 14 13 56 21 19 20 16 15 54 22 20 20 16 15 56 21 19 55 9 66 54 9 20 43 9 64 42 9 15 43 9 64 54 9 20 59 44 10 55 45 66 45 46 8 43 47 64 45 46 8 55 45 66 34 24 67 36 24 68 63 24 26 62 24 25 63 24 26 36 24 68 66 25 27 52 48 69 65 26 28 51 49 70 65 26 28 52 48 69 65 26 28 51 49 70 69 27 29 60 50 7 69 27 29 51 49 70 9 29 67 72 29 26 11 29 68 70 29 25 11 29 68 72 29 26 71 51 71 15 52 62 75 51 11 19 53 9 75 51 11 15 52 62 78 2 30 1 2 72 79 2 73 0 2 74 79 2 73 1 2 72 76 2 28 80 2 29 51 2 70 60 2 7 51 2 70 80 2 29 60 9 7 41 9 9 69 9 29 64 9 11 69 9 29 41 9 9 69 9 29 64 9 11 29 9 4 28 8 3 29 9 4 64 9 11 82 23 75 81 23 31 27 23 72 67 23 30 27 23 72 81 23 31 96 54 76 108 55 77 94 56 78 109 36 42 94 56 78 108 55 77 101 38 79 111 38 80 102 38 39 112 38 38 102 38 39 111 38 80 113 2 36 114 2 38 104 2 46 85 2 81 104 2 46 114 2 38 111 38 80 99 38 82 112 38 38 100 38 81 112 38 38 99 38 82 110 2 83 98 2 82 105 57 84 87 58 85 105 57 84 98 2 82 113 59 36 104 59 46 119 42 86 118 43 48 119 42 86 104 59 46 120 60 87 119 61 88 124 9 89 123 9 90 124 9 89 119 61 88 130 62 91 133 62 92 126 62 93 129 62 94 126 62 93 133 62 92 15 52 62 21 63 63 19 53 9 25 64 8 19 53 9 21 63 63 20 9 15 54 9 20 21 9 63 55 9 66 21 9 63 54 9 20 50 23 23 48 23 22 23 23 21 50 23 23 23 23 21 14 23 24 56 9 19 57 9 18 44 9 13 58 9 17 44 9 13 57 9 18 38 9 65 39 9 14 61 9 95 62 9 25 61 9 95 39 9 14 41 65 9 38 66 65 64 67 11 61 67 95 64 67 11 38 66 65 67 68 30 50 68 23 68 68 73 46 68 96 68 68 73 50 68 23 15 9 62 71 9 71 16 9 14 70 9 25 16 9 14 71 9 71 13 9 97 73 9 98 9 9 67 72 9 26 9 9 67 73 9 98 50 2 23 78 2 30 46 2 96 79 2 73 46 2 96 78 2 30 80 2 29 76 2 28 4 2 4 5 1 1 4 2 4 76 2 28 12 51 99 71 51 71 10 69 5 75 51 11 10 69 5 71 51 71 40 9 16 53 9 100 63 9 26 83 9 101 63 9 26 53 9 100 95 32 34 107 33 35 96 54 76 108 55 77 96 54 76 107 33 35 94 56 78 109 36 42 101 38 102 111 38 44 101 38 102 109 36 42 117 2 103 103 2 37 115 2 104 113 2 36 115 2 104 103 2 37 105 57 84 87 58 85 106 31 33 89 34 40 106 31 33 87 58 85 107 33 35 92 35 41 108 55 77 93 70 105 108 55 77 92 35 41 115 71 104 113 71 36 120 60 106 119 61 86 120 60 106 113 71 36 121 72 107 120 73 51 125 74 108 124 74 109 125 74 108 120 73 51 130 74 110 126 74 111 131 74 112 127 74 113 131 74 112 126 74 111 132 75 114 133 75 115 131 75 116 130 75 117 131 75 116 133 75 115 18 9 118 24 9 17 17 9 12 22 9 13 17 9 12 24 9 17 45 46 8 43 47 64 41 65 9 38 66 65 41 65 9 43 47 64 21 63 63 55 45 66 25 64 8 59 44 10 25 64 8 55 45 66 44 9 13 58 9 17 40 9 16 53 9 100 40 9 16 58 9 17 36 9 68 37 9 99 62 9 25 61 9 95 62 9 25 37 9 99 37 76 99 35 67 5 61 67 95 64 67 11 61 67 95 35 67 5 27 68 72 67 68 30 26 68 74 68 68 73 26 68 74 67 68 30 11 9 68 70 9 25 12 9 99 71 9 71 12 9 99 70 9 25 17 9 12 72 9 26 18 9 118 73 9 98 18 9 118 72 9 26 77 2 27 76 2 28 52 2 69 51 2 70 52 2 69 76 2 28 2 23 119 1 23 72 74 23 31 78 23 30 74 23 31 1 23 72 60 9 7 80 9 29 19 9 9 75 9 11 19 9 9 80 9 29 84 9 97 34 9 67 83 9 101 63 9 26 83 9 101 34 9 67 88 77 120 105 57 84 90 30 32 106 31 33 90 30 32 105 57 84 97 2 79 110 2 83 88 77 120 105 57 84 88 77 120 110 2 83 97 2 79 117 2 103 110 2 83 115 2 104 110 2 83 117 2 103 115 2 104 116 2 47 110 2 83 98 2 82 110 2 83 116 2 47 108 55 77 93 70 105 109 36 42 91 37 43 109 36 42 93 70 105 116 78 47 115 78 104 121 72 49 120 73 106 121 72 49 115 78 104 118 40 121 121 41 122 122 23 123 125 23 124 122 23 123 121 41 122 128 79 114 127 79 116 129 79 115 126 79 117 129 79 115 127 79 116 132 80 125 131 80 126 128 80 127 127 80 128 128 80 127 131 80 126</p>
                </triangles>
            </mesh>
        </geometry>
    </library_geometries>
    <library_visual_scenes>
        <visual_scene id="DefaultScene">
            <node id="groupLocator039Node" name="low" type="NODE">
                <node id="groupLocator084Node" name="ground__2_" type="NODE">
                    <node id="Geometry-mesh080Node" name="ground_convex_short" type="NODE">
                        <translate sid="translation083">0 0 0</translate>
                        <rotate sid="rotation082Y">0 1 0 0</rotate>
                        <rotate sid="rotation082X">1 0 0 0</rotate>
                        <rotate sid="rotation082Z">0 0 1 0</rotate>
                        <scale sid="scale081">1 1 1</scale>
                        <instance_geometry url="#Geometry-mesh080">
                            <bind_material>
                                <technique_common>
                                    <instance_material symbol="Material-pplant" target="#Material-pplant">
                                        <bind_vertex_input semantic="uvSet1" input_semantic="TEXCOORD" input_set="0" />
                                    </instance_material>
                                </technique_common>
                            </bind_material>
                        </instance_geometry>
                    </node>
                </node>
            </node>
        </visual_scene>
    </library_visual_scenes>
    <scene>
        <instance_visual_scene url="#DefaultScene" />
    </scene>
</COLLADA>
