<?xml version="1.0" encoding="utf-8" ?>
<COLLADA xmlns="http://www.collada.org/2005/11/COLLADASchema" version="1.4.1">
    <asset>
        <contributor>
            <authoring_tool>modo 501 [Build 41321], Microsoft Windows 7 Service Pack 1 (6.1.7601 Service Pack 1)</authoring_tool>
            <comments>
                Plug-in: [Build 41321];
                Use Absolute Path: No;
                Merge Reference Items: No;
                Save Hidden Items: Yes;
                Save Cameras: Yes;
                Save Lights: Yes;
                Save Locators: Yes;
                Save Triangles as Triangles: No;
                Bake Matrices: No;
                Save Vertex Normals: Yes;
                Save UV Texture Coordinates: Yes;
                Save Vertex Colors: Yes;
                Save Vertex Weights: Yes;
                Save Animation: Yes;
                Sample Animation: No;
                Sample Animation Start: 0;
                Sample Animation End: 120;
                Save modo Profile: Yes;
                Save Maya Profile: Yes;
                Save 3ds Max Profile: Yes;
                Formatted Arrays: Yes;
            </comments>
            <source_data>file:///C:/Users/Rasmus/Documents/outward%20bend.lxo</source_data>
        </contributor>
        <created>2014-02-06T11:58:24Z</created>
        <modified>2014-02-06T11:58:24Z</modified>
        <up_axis>Y_UP</up_axis>
    </asset>
    <library_cameras>
        <camera id="Camera-Camera" name="Camera">
            <optics>
                <technique_common>
                    <perspective>
                        <xfov sid="HFOV">39.5978</xfov>
                        <yfov sid="YFOV">26.9915</yfov>
                        <znear sid="near_clip">0.01</znear>
                        <zfar sid="far_clip">10000</zfar>
                    </perspective>
                </technique_common>
                <technique profile="modo401">
                    <param sid="projType" name="Projection_Type" type="Name">persp</param>
                    <param sid="focalLen" name="Focal_Length" type="float">0.05</param>
                    <param sid="distort" name="Lens_Distortion" type="float">0</param>
                    <param sid="squeeze" name="Lens_Squeeze" type="float">1</param>
                    <param sid="focusDist" name="Focus_Distance" type="float">4</param>
                    <param sid="fStop" name="F-Stop" type="float">4</param>
                    <param sid="blurLen" name="Blur_Length" type="float">0.5</param>
                    <param sid="blurOff" name="Blur_Offset" type="float">0</param>
                    <param sid="ioDist" name="Interocular_Distance" type="float">0.065</param>
                    <param sid="convDist" name="Convergence_Distance" type="float">2</param>
                </technique>
            </optics>
            <imager>
                <technique profile="modo401">
                    <param sid="apertureX" name="Film_Width" type="float">0.036</param>
                    <param sid="apertureY" name="Film_Height" type="float">0.024</param>
                    <param sid="offsetX" name="Film_Offset_X" type="float">0</param>
                    <param sid="offsetY" name="Film_Offset_Y" type="float">0</param>
                    <param sid="filmFit" name="Film_Fit" type="Name">fill</param>
                </technique>
            </imager>
        </camera>
    </library_cameras>
    <library_images>
        <image id="Image0001" name="Image0001">
            <init_from>file:///C:/Users/Rasmus/Documents/Theta.tga</init_from>
        </image>
    </library_images>
    <library_materials>
        <material id="Material-Default" name="Default">
            <instance_effect url="#Effect-Default" />
        </material>
    </library_materials>
    <library_effects>
        <effect id="Effect-Default" name="Default">
            <profile_COMMON>
                <newparam sid="Image0001-surface">
                    <surface type="2D">
                        <init_from>Image0001</init_from>
                        <format>A8R8G8B8</format>
                    </surface>
                </newparam>
                <newparam sid="Image0001-sampler">
                    <sampler2D>
                        <source>Image0001-surface</source>
                        <minfilter>LINEAR_MIPMAP_LINEAR</minfilter>
                        <magfilter>LINEAR</magfilter>
                    </sampler2D>
                </newparam>
                <technique sid="common">
                    <phong>
                        <diffuse>
                            <texture texture="Image0001-sampler" texcoord="Texture" />
                        </diffuse>
                        <specular>
                            <color sid="specular_effect_rgb">0.2 0.2 0.2 1</color>
                        </specular>
                    </phong>
                </technique>
            </profile_COMMON>
        </effect>
    </library_effects>
    <library_geometries>
        <geometry id="Geometry-Mesh" name="Mesh">
            <mesh>
                <source id="Geometry-Mesh-positions" name="positions">
                    <float_array id="Geometry-Mesh-positions-array" count="396">
                        2.5 0 -2.5
                        2.5 0.0625 -2.5
                        2.35 0.0625 -2.5
                        2.5 0.9 -2.5
                        2.45735 0.0609265 -1.882
                        2.34714 0.0624233 -1.9118
                        2.39399 0.0624233 -2.12139
                        2.5064 0.0609265 -2.10143
                        2.31512 0.618802 -1.92046
                        2.24509 0.462707 -1.93939
                        2.2899 0.462707 -2.13987
                        2.36133 0.618802 -2.12719
                        0 0 0
                        0 0.0625 0
                        0 0.0625 -0.15
                        0 0.9 0
                        2.5 2.45 -2.5
                        0 2.45 0
                        2.25 3.01 -2.5
                        0 3.01 -0.25
                        2.25 0.4 -2.5
                        0 0.4 -0.25
                        2.33455 2.73528 -1.9152
                        2.26654 2.896 -1.93359
                        2.38115 2.73528 -2.12367
                        2.45819 3.31152 -1.88177
                        2.35063 3.31669 -1.91086
                        2.50726 3.31152 -2.10128
                        2.31178 2.896 -2.13599
                        2.39755 3.31669 -2.12076
                        0.664481 0.0609265 -0.0891333
                        0.63468 0.0624233 -0.199341
                        0.425087 0.0624233 -0.152492
                        0.445047 0.0609265 -0.040084
                        0.626021 0.618802 -0.231363
                        0.607085 0.462707 -0.301393
                        0.406605 0.462707 -0.25658
                        0.419288 0.618802 -0.185152
                        0.631277 2.73528 -0.211924
                        0.612885 2.896 -0.27994
                        0.422808 2.73528 -0.165326
                        0.66471 3.31152 -0.0882854
                        0.635623 3.31669 -0.195852
                        0.4452 3.31152 -0.0392192
                        0.41049 2.896 -0.2347
                        0.425719 3.31669 -0.148933
                        2.5 3.31152 -2.5
                        2.5 4 -2.5
                        0 3.31152 0
                        0 4 0
                        2.39 3.31152 -2.5
                        0 3.31152 -0.11
                        2.36007 0.0625 -2.13033
                        2.50779 0.0625 -2.10429
                        2.25195 0.0625 -1.72684
                        2.39291 0.0625 -1.67553
                        2.07541 0.0625 -1.34824
                        2.20532 0.0625 -1.27324
                        1.83581 0.0625 -1.00605
                        1.95072 0.0625 -0.909634
                        1.54043 0.0625 -0.71067
                        1.63685 0.0625 -0.595763
                        1.19824 0.0625 -0.471067
                        1.27324 0.0625 -0.341163
                        0.819644 0.0625 -0.294525
                        0.870947 0.0625 -0.153571
                        0.416144 0.0625 -0.186408
                        0.442191 0.0625 -0.0386867
                        2.50779 4 -2.10429
                        2.50779 3.31152 -2.10429
                        2.39291 4 -1.67553
                        2.39291 3.31152 -1.67553
                        2.20532 4 -1.27324
                        2.20532 3.31152 -1.27324
                        1.95072 4 -0.909634
                        1.95072 3.31152 -0.909634
                        1.63685 4 -0.595763
                        1.63685 3.31152 -0.595763
                        1.27324 4 -0.341163
                        1.27324 3.31152 -0.341163
                        0.870947 4 -0.153571
                        0.870947 3.31152 -0.153571
                        0.442191 4 -0.0386867
                        0.442191 3.31152 -0.0386867
                        2.39946 3.31152 -2.12339
                        2.26159 3.01 -2.1477
                        2.28954 3.31152 -1.71315
                        2.15798 3.01 -1.76104
                        2.11005 3.31152 -1.32824
                        1.98881 3.01 -1.39824
                        1.86645 3.31152 -0.980341
                        1.75921 3.01 -1.07033
                        1.56614 3.31152 -0.680028
                        1.47615 3.01 -0.787274
                        1.21824 3.31152 -0.436426
                        1.14824 3.01 -0.55767
                        0.833325 3.31152 -0.256938
                        0.785442 3.01 -0.388495
                        0.42309 3.31152 -0.147016
                        0.398779 3.01 -0.284889
                        2.50779 2.45 -2.10429
                        2.50779 0.9 -2.10429
                        2.39291 2.45 -1.67553
                        2.39291 0.9 -1.67553
                        2.20532 2.45 -1.27324
                        2.20532 0.9 -1.27324
                        1.95072 2.45 -0.909634
                        1.95072 0.9 -0.909634
                        1.63685 2.45 -0.595763
                        1.63685 0.9 -0.595763
                        1.27324 2.45 -0.341163
                        1.27324 0.9 -0.341163
                        0.870947 2.45 -0.153571
                        0.870947 0.9 -0.153571
                        0.442191 2.45 -0.0386867
                        0.442191 0.9 -0.0386867
                        2.26159 0.4 -2.1477
                        2.15798 0.4 -1.76104
                        1.98881 0.4 -1.39824
                        1.75921 0.4 -1.07033
                        1.47615 0.4 -0.787274
                        1.14824 0.4 -0.55767
                        0.785442 0.4 -0.388495
                        0.398779 0.4 -0.284889
                        2.50779 0 -2.10429
                        2.39291 0 -1.67553
                        2.20532 0 -1.27324
                        1.95072 0 -0.909634
                        1.63685 0 -0.595763
                        1.27324 0 -0.341163
                        0.870947 0 -0.153571
                        0.442191 0 -0.0386867
                    </float_array>
                    <technique_common>
                        <accessor count="132" source="#Geometry-Mesh-positions-array" stride="3">
                            <param name="X" type="float" />
                            <param name="Y" type="float" />
                            <param name="Z" type="float" />
                        </accessor>
                    </technique_common>
                </source>
                <source id="Geometry-Mesh-normals" name="normals">
                    <float_array id="Geometry-Mesh-normals-array" count="522">
                        -0.955684 0.202568 -0.21362
                        -0.955684 0.202568 -0.21362
                        -0.955684 0.202568 -0.21362
                        -0.948683 -0.316228 0
                        -0.213621 0.202568 -0.955684
                        -0.213621 0.202568 -0.955684
                        0.213621 -0.202568 0.955684
                        -0.213621 0.202568 -0.955684
                        0.952712 -0.21677 0.212957
                        0.952712 -0.21677 0.212957
                        0.952712 -0.21677 0.212957
                        0.96533 -3.93557e-008 -0.261031
                        0.96533 1.64723e-008 -0.261031
                        0.96533 7.23002e-008 -0.261031
                        0.17483 3.06755e-008 -0.984599
                        0.17483 2.72599e-008 -0.984599
                        0.17483 2.38444e-008 -0.984599
                        0.955684 -0.202568 0.21362
                        0.955684 -0.202568 0.21362
                        0.955684 -0.202568 0.21362
                        0.948683 0.316228 0
                        0.213621 -0.202568 0.955684
                        0.213621 -0.202568 0.955684
                        0.212956 -0.21677 0.952712
                        0.212956 -0.21677 0.952712
                        -0.261032 -5.06146e-007 0.96533
                        -0.261031 -2.32897e-007 0.96533
                        -0.261031 4.0352e-008 0.96533
                        -0.943624 -0.255116 -0.210925
                        -0.943624 -0.255116 -0.210925
                        -0.943624 -0.255116 -0.210926
                        -0.210925 -0.255116 -0.943624
                        -0.210925 -0.255116 -0.943624
                        -0.261031 -1.42664e-007 0.96533
                        -0.261031 -6.94296e-008 0.96533
                        -0.261031 3.80528e-009 0.96533
                        0.210925 0.255116 0.943624
                        0.210925 0.255116 0.943624
                        0.210925 0.255116 0.943624
                        -0.984599 2.04503e-008 0.17483
                        -0.984599 2.48986e-008 0.17483
                        -0.984599 2.93469e-008 0.17483
                        0.174831 -4.37832e-007 -0.984599
                        0.17483 -2.86459e-007 -0.984599
                        0.17483 -1.35087e-007 -0.984599
                        -0.984599 -7.87114e-008 0.17483
                        -0.984599 -3.84044e-008 0.17483
                        -0.984599 1.90264e-009 0.17483
                        0.943624 0.255116 0.210926
                        0.943624 0.255116 0.210925
                        0.943624 0.255116 0.210925
                        0.96533 -3.57881e-008 -0.261031
                        0.96533 -1.05573e-008 -0.261031
                        0.96533 1.46735e-008 -0.261031
                        0.652026 0.556001 0.515485
                        0.526994 0.800974 0.284108
                        0 1 0
                        0.142792 0.708303 0.691315
                        0.260669 0.708303 0.656017
                        0.949263 0 0.314482
                        0.880233 0 0.474542
                        0.656017 -0.708303 0.260669
                        0.509542 -0.800974 0.314336
                        0.525033 0 0.851082
                        0.369267 0 0.929323
                        0.334983 -0.708303 0.621363
                        0.221996 -0.708303 0.670093
                        0.900932 -0.420581 0.106929
                        0.861046 -0.420985 0.285257
                        0.900298 -0.422371 0.105196
                        0.842959 -0.420985 0.33495
                        0.603059 -0.420985 0.677563
                        0.47624 -0.420985 0.771989
                        0.562549 -0.420985 0.711555
                        0.430442 -0.420985 0.798431
                        0.961215 0.274838 -0.0230253
                        0.98191 0.166455 0.0902563
                        0.973439 -0.227866 -0.022201
                        0.971901 -0.183515 0.147414
                        0.75004 0.208467 0.627679
                        0.62965 0.208467 0.748387
                        0.744525 -0.22984 0.626782
                        0.624375 -0.22984 0.746545
                        0.171099 0.208467 0.962947
                        0.0863203 0.138126 0.986646
                        0.167452 -0.22984 0.958714
                        0.0830193 -0.304414 0.948915
                        0.620877 -0.556001 0.552607
                        0 -1 0
                        0.102263 -0.708303 0.698462
                        0.847641 0.208467 0.487901
                        0.916954 0.238107 0.320157
                        0.803831 0.407506 0.433353
                        0.858069 0.407651 0.312312
                        0.335714 0.208467 0.918606
                        0.490128 0.208467 0.846355
                        0.337216 0.407506 0.84866
                        0.479461 0.407506 0.77721
                        0.913997 -0.22984 0.33434
                        0.887591 -0.44852 0.104935
                        0.831283 -0.447062 0.330311
                        0.485253 -0.22984 0.843625
                        0.554757 -0.447062 0.701699
                        0.42448 -0.447062 0.787371
                        0.958322 0.283947 -0.0315282
                        0.956559 0.284411 0.0640732
                        0.959168 0.281364 -0.0288416
                        0.945674 0.284078 0.158118
                        0.594652 0.283977 0.752161
                        0.716229 0.283977 0.637474
                        0.637474 0.283977 0.716229
                        0.752161 0.283977 0.594652
                        0.0835904 0.283094 0.955443
                        0.138903 0.283977 0.948717
                        0.0835904 0.283094 0.955443
                        0.193954 0.283977 0.939009
                        0.851082 0 0.525033
                        0.746981 0 0.664845
                        0.314482 0 0.949263
                        0.144867 0 0.989451
                        0.670093 0.708303 0.221996
                        0.370625 0.708303 0.600786
                        0.997273 0 0.0737957
                        0.818064 -0.55809 0.13895
                        0.664845 0 0.746981
                        0.437793 -0.708303 0.553754
                        0.908256 -0.417585 -0.0263456
                        0.906596 -0.420945 -0.0298265
                        0.711555 -0.420985 0.562549
                        0.677563 -0.420985 0.603059
                        0.183483 -0.420985 0.888316
                        0.0791035 -0.419812 0.904157
                        0.131404 -0.420985 0.897499
                        0.0791035 -0.419812 0.904157
                        0.842054 -0.22984 0.487974
                        0.331387 -0.22984 0.915072
                        0.906269 0.408893 0.107156
                        0.607138 0.407506 0.682145
                        0.89404 -0.44702 -0.0294134
                        0.668177 -0.447062 0.594706
                        0.129584 -0.447062 0.885067
                        0.0780138 -0.445851 0.891701
                        0.816044 0.283977 0.503417
                        0.843994 0.283977 0.455006
                        0.301535 0.283977 0.910183
                        0.354065 0.283977 0.891064
                        0.929323 0 0.369267
                        0.474542 0 0.880233
                        0.827518 0.55809 0.0612343
                        0.398042 0.800974 0.447217
                        0.999806 0 -0.0196884
                        0.70697 -0.707107 -0.0139218
                        0.784457 0 0.620184
                        0.202282 0 0.979327
                        0.0871557 0 0.996195
                        0.0389772 -0.894427 0.445512
                        0.798431 -0.420985 0.430442
                        0.771989 -0.420985 0.47624
                        0.33495 -0.420985 0.842959
                        0.285257 -0.420985 0.861046
                        0.912726 0.407467 -0.0300282
                        0.716368 0.407506 0.566353
                        0.0796355 0.406356 0.910238
                        0.184724 0.407506 0.894324
                        0.761296 -0.447062 0.469643
                        0.281305 -0.447062 0.849119
                        0.891064 0.283977 0.354065
                        0.910183 0.283977 0.301536
                        0.455006 0.283977 0.843994
                        0.503418 0.283977 0.816044
                        0.98588 0 0.167454
                        0.620184 0 0.784456
                        0.447127 0.894427 -0.00880494
                        0.0779545 0.447214 0.891024
                    </float_array>
                    <technique_common>
                        <accessor count="174" source="#Geometry-Mesh-normals-array" stride="3">
                            <param name="X" type="float" />
                            <param name="Y" type="float" />
                            <param name="Z" type="float" />
                        </accessor>
                    </technique_common>
                </source>
                <source id="Geometry-Mesh-Texture" name="Texture">
                    <float_array id="Geometry-Mesh-Texture-array" count="292">
                        0.985182 0.948188
                        0.937845 0.948189
                        0.985182 0.857803
                        0.937846 0.857804
                        0.877746 0.980539
                        0.925879 0.980539
                        0.877746 0.855871
                        0.925879 0.855871
                        0.989875 0.823625
                        0.99672 0.848185
                        0.897323 0.823625
                        0.8657 0.848185
                        0.985213 0.857151
                        0.985213 0.948041
                        0.937256 0.857151
                        0.937256 0.948041
                        0.484184 0.0355992
                        0.577857 0.0355993
                        0.484165 0.0646842
                        0.577801 0.0646849
                        0.109491 0.0355989
                        0.203164 0.035599
                        0.109622 0.0646814
                        0.203258 0.0646821
                        0.671858 0.980538
                        0.578773 0.980538
                        0.671865 0.836384
                        0.578777 0.836383
                        0.299517 0.980538
                        0.206432 0.980538
                        0.299512 0.836382
                        0.206424 0.836382
                        0.764957 0.813352
                        0.671867 0.813352
                        0.764959 0.743746
                        0.67187 0.743745
                        0.3926 0.81335
                        0.29951 0.81335
                        0.392603 0.743744
                        0.299514 0.743744
                        0.852616 0.603839
                        0.760595 0.603839
                        0.852624 0.282889
                        0.760605 0.282889
                        0.484533 0.60384
                        0.392512 0.60384
                        0.484546 0.282891
                        0.392526 0.282892
                        0.11645 0.60384
                        0.0244287 0.60384
                        0.116467 0.282894
                        0.0244475 0.282895
                        0.485688 0.836383
                        0.485689 0.813351
                        0.578778 0.813351
                        0.113336 0.836382
                        0.206421 0.81335
                        0.113332 0.81335
                        0.576554 0.603839
                        0.668574 0.603839
                        0.576551 0.730825
                        0.668572 0.730825
                        0.20847 0.60384
                        0.300491 0.60384
                        0.208468 0.730825
                        0.300489 0.730825
                        0.668585 0.28289
                        0.760597 0.167135
                        0.668578 0.167136
                        0.300506 0.282893
                        0.39252 0.167139
                        0.300501 0.16714
                        0.858068 0.151747
                        0.765133 0.151747
                        0.858068 0.0781393
                        0.765133 0.0781393
                        0.393391 0.0781393
                        0.486326 0.0781393
                        0.39339 0.151747
                        0.486326 0.151747
                        0.0216483 0.0781393
                        0.114584 0.0781393
                        0.0216481 0.151747
                        0.114584 0.151747
                        0.577848 0.0234559
                        0.48418 0.0234559
                        0.203176 0.0234559
                        0.109508 0.0234559
                        0.671531 0.0355994
                        0.671437 0.0646855
                        0.296838 0.0355991
                        0.296894 0.0646828
                        0.764944 0.980538
                        0.764953 0.836384
                        0.392603 0.980538
                        0.3926 0.836383
                        0.858046 0.813352
                        0.858048 0.743746
                        0.485692 0.743745
                        0.0202423 0.813349
                        0.113336 0.743743
                        0.0202464 0.743743
                        0.576565 0.282891
                        0.208487 0.282893
                        0.760593 0.730825
                        0.392509 0.730825
                        0.852616 0.167134
                        0.484539 0.167138
                        0.116462 0.167142
                        0.0244432 0.167143
                        0.579262 0.0781393
                        0.579261 0.151747
                        0.207519 0.0781393
                        0.207519 0.151747
                        0.671517 0.0234559
                        0.296844 0.0234559
                        0.765204 0.0355995
                        0.765072 0.0646862
                        0.390511 0.0355991
                        0.39053 0.0646835
                        0.858029 0.980538
                        0.858041 0.836384
                        0.485688 0.980538
                        0.113347 0.980538
                        0.0202615 0.980538
                        0.0202474 0.836381
                        0.578781 0.743745
                        0.206425 0.743743
                        0.852614 0.730825
                        0.48453 0.730825
                        0.0244259 0.730825
                        0.116447 0.730825
                        0.576559 0.167137
                        0.208482 0.167141
                        0.672197 0.0781393
                        0.672197 0.151747
                        0.300455 0.0781393
                        0.300455 0.151747
                        0.765185 0.0234559
                        0.390512 0.0234559
                        0.858877 0.0355996
                        0.858708 0.0646869
                        0.0158179 0.0355988
                        0.0159866 0.0646807
                        0.858853 0.0234559
                        0.0158397 0.0234559
                    </float_array>
                    <technique_common>
                        <accessor count="146" source="#Geometry-Mesh-Texture-array" stride="2">
                            <param name="S" type="float" />
                            <param name="T" type="float" />
                        </accessor>
                    </technique_common>
                </source>
                <source id="Geometry-Mesh-UV_Distortion" name="UV_Distortion">
                    <float_array id="Geometry-Mesh-UV_Distortion-array" count="324">
                        0.496038 0.542542 0.507837
                        0.487085 0.532749 0.51672
                        0.496038 0.542542 0.507837
                        0.487085 0.532749 0.51672
                        0.502077 0.548891 0.501843
                        0.489289 0.53516 0.514534
                        0.487058 0.53272 0.516747
                        0.465448 0.509084 0.538188
                        0.477771 0.522562 0.525962
                        0.474055 0.518497 0.529649
                        0.496038 0.542541 0.507838
                        0.487086 0.53275 0.51672
                        0.496038 0.542541 0.507838
                        0.487086 0.53275 0.51672
                        0.489289 0.53516 0.514534
                        0.477771 0.522562 0.525962
                        0.474055 0.518497 0.529649
                        0.482069 0.527263 0.521698
                        0.471472 0.515673 0.532211
                        0.482069 0.527263 0.521697
                        0.471472 0.515673 0.532211
                        0.487058 0.53272 0.516747
                        0.465448 0.509084 0.538188
                        0.481723 0.526884 0.522041
                        0.4963 0.542828 0.507578
                        0.477771 0.522562 0.525962
                        0.474055 0.518497 0.529649
                        0.487059 0.53272 0.516747
                        0.465449 0.509085 0.538188
                        0.487058 0.53272 0.516747
                        0.465448 0.509084 0.538188
                        0.481723 0.526884 0.522041
                        0.4963 0.542828 0.507578
                        0.518765 0.530495 0.485024
                        0.518786 0.530472 0.485003
                        0.509323 0.540904 0.49454
                        0.509321 0.540906 0.494542
                        0.490876 0.536896 0.512959
                        0.490876 0.536895 0.512959
                        0.490875 0.536895 0.51296
                        0.486474 0.532081 0.517326
                        0.515081 0.534556 0.488737
                        0.515083 0.534554 0.488735
                        0.502877 0.54801 0.501037
                        0.502877 0.548009 0.501037
                        0.502218 0.548736 0.501702
                        0.502218 0.548736 0.501701
                        0.502186 0.548772 0.501734
                        0.502188 0.548769 0.501732
                        0.459939 0.503058 0.543655
                        0.489608 0.535508 0.514218
                        0.489608 0.535508 0.514218
                        0.52694 0.521483 0.476785
                        0.526948 0.521475 0.476777
                        0.518759 0.530501 0.48503
                        0.518781 0.530478 0.485008
                        0.509324 0.540903 0.49454
                        0.509322 0.540905 0.494542
                        0.461229 0.504469 0.542375
                        0.490876 0.536895 0.512959
                        0.490875 0.536895 0.51296
                        0.490875 0.536894 0.51296
                        0.515081 0.534557 0.488738
                        0.515083 0.534555 0.488736
                        0.502877 0.548009 0.501037
                        0.502877 0.548009 0.501037
                        0.502218 0.548736 0.501702
                        0.502218 0.548736 0.501701
                        0.472503 0.5168 0.531188
                        0.502188 0.548769 0.501732
                        0.50219 0.548767 0.50173
                        0.489608 0.535508 0.514218
                        0.526938 0.521485 0.476787
                        0.526946 0.521477 0.476779
                        0.518754 0.530507 0.485035
                        0.518776 0.530484 0.485014
                        0.480997 0.526091 0.522761
                        0.509322 0.540905 0.494541
                        0.50932 0.540907 0.494543
                        0.51508 0.534557 0.488738
                        0.515082 0.534555 0.488736
                        0.502877 0.548009 0.501037
                        0.502877 0.548009 0.501037
                        0.472584 0.516889 0.531108
                        0.502218 0.548736 0.501702
                        0.502218 0.548736 0.501701
                        0.502187 0.54877 0.501733
                        0.502189 0.548768 0.50173
                        0.489607 0.535508 0.514218
                        0.526936 0.521487 0.476788
                        0.526944 0.521479 0.476781
                        0.487616 0.53333 0.516194
                        0.51877 0.53049 0.485019
                        0.518791 0.530466 0.484998
                        0.509323 0.540904 0.494541
                        0.509321 0.540906 0.494543
                        0.490876 0.536895 0.512959
                        0.490875 0.536895 0.51296
                        0.51508 0.534558 0.488739
                        0.515082 0.534556 0.488737
                        0.472834 0.517162 0.53086
                        0.502218 0.548736 0.501702
                        0.502218 0.548736 0.501701
                        0.502187 0.548771 0.501733
                        0.502189 0.548768 0.501731
                        0.497757 0.544422 0.506131
                        0.526942 0.521481 0.476783
                        0.52695 0.521473 0.476775
                    </float_array>
                    <technique_common>
                        <accessor count="108" source="#Geometry-Mesh-UV_Distortion-array" stride="3">
                            <param name="R" type="float" />
                            <param name="G" type="float" />
                            <param name="B" type="float" />
                        </accessor>
                    </technique_common>
                </source>
                <vertices id="Geometry-Mesh-vertices">
                    <input semantic="POSITION" source="#Geometry-Mesh-positions" />
                </vertices>
                <polylist count="202" material="Material-Default">
                    <input semantic="VERTEX" source="#Geometry-Mesh-vertices" offset="0" />
                    <input semantic="NORMAL" source="#Geometry-Mesh-normals" offset="1" />
                    <input semantic="TEXCOORD" source="#Geometry-Mesh-Texture" offset="2" set="0" />
                    <input semantic="COLOR" source="#Geometry-Mesh-UV_Distortion" offset="3" set="0" />
                    <vcount>3 3 3 3 3 3 3 3 3 3 3 3 3 3 3 3 3 3 3 3 3 3 3 3 3 3 3 3 3 3 3 3 3 3 3 3 3 3 3 3 3 3 3 3 3 3 3 3 3 3 3 3 3 3 3 3 3 3 3 3 3 3 3 3 3 3 3 3 3 3 3 3 3 3 3 3 3 3 3 3 3 3 3 3 3 3 3 3 3 3 3 3 3 3 3 3 3 3 3 3 3 3 3 3 3 3 3 3 3 3 3 3 3 3 3 3 3 3 3 3 3 3 3 3 3 3 3 3 3 3 3 3 3 3 3 3 3 3 3 3 3 3 3 3 3 3 3 3 3 3 3 3 3 3 3 3 3 3 3 3 3 3 3 3 3 3 3 3 3 3 3 3 3 3 3 3 3 3 3 3 3 3 3 3 3 3 3 3 3 3 3 3 3 3 3 3 3 3 3 3 3 3</vcount>
                    <p>26 0 0 0 29 1 1 0 23 1 2 0 28 2 3 1 23 1 2 1 29 1 1 1 42 3 0 2 39 4 2 2 45 5 1 2 44 6 3 3 45 7 1 3 39 4 2 3 27 8 4 4 25 9 5 4 24 9 6 4 22 10 7 5 24 9 6 5 25 9 5 5 42 11 8 6 41 12 9 6 39 12 10 6 38 13 11 7 39 12 10 7 41 12 9 7 6 14 8 8 10 15 10 8 7 15 9 8 11 16 11 9 7 15 9 9 10 15 10 9 29 17 1 10 26 18 0 10 28 18 3 10 23 19 2 11 28 18 3 11 26 18 0 11 45 20 1 12 44 6 3 12 42 21 0 12 39 4 2 13 42 22 0 13 44 6 3 13 43 23 4 4 40 24 6 4 41 24 5 4 38 24 7 14 41 24 5 14 40 24 6 14 5 25 8 15 4 26 9 15 9 26 10 15 8 27 11 16 9 26 10 16 4 26 9 16 5 28 12 17 9 29 13 17 6 29 14 17 10 30 15 18 6 29 14 18 9 29 13 18 31 31 12 19 32 32 14 19 35 32 13 19 36 32 15 20 35 32 13 20 32 32 14 20 26 33 8 21 23 34 10 21 25 34 9 21 22 35 11 22 25 34 9 22 23 34 10 22 37 36 7 23 33 37 5 23 34 37 6 23 30 38 4 24 34 37 6 24 33 37 5 24 32 39 8 25 33 40 9 25 36 40 10 25 37 41 11 26 36 40 10 26 33 40 9 26 5 28 12 17 9 29 13 17 6 29 14 17 10 30 15 18 6 29 14 18 9 29 13 18 31 31 12 19 32 32 14 19 35 32 13 19 36 32 15 20 35 32 13 20 32 32 14 20 29 42 8 27 27 43 9 27 28 43 10 27 24 44 11 28 28 43 10 28 27 43 9 28 45 45 8 29 44 46 10 29 43 46 9 29 40 47 11 30 43 46 9 30 44 46 10 30 11 48 7 31 8 49 6 31 7 49 5 31 4 50 4 32 7 49 5 32 8 49 6 32 31 51 8 25 35 52 10 25 30 52 9 25 34 53 11 26 30 52 9 26 35 52 10 26 59 54 16 33 57 55 17 33 58 56 18 33 56 56 19 33 58 56 18 33 57 55 17 33 67 57 20 34 65 58 21 34 66 56 22 34 64 56 23 34 66 56 22 34 65 58 21 34 70 59 24 35 72 60 25 35 71 61 26 35 73 62 27 35 71 61 26 35 72 60 25 35 78 63 28 36 80 64 29 36 79 65 30 36 81 66 31 36 79 65 30 36 80 64 29 36 84 67 32 37 86 68 33 37 85 69 34 37 87 70 35 37 85 69 34 37 86 68 33 37 92 71 36 38 94 72 37 39 93 73 38 38 95 74 39 39 93 73 38 38 94 72 37 39 16 75 40 40 100 76 41 40 3 77 42 40 101 78 43 40 3 77 42 40 100 76 41 40 106 79 44 41 108 80 45 41 107 81 46 41 109 82 47 41 107 81 46 41 108 80 45 41 114 83 48 42 17 84 49 42 115 85 50 42 15 86 51 42 115 85 50 42 17 84 49 42 75 87 52 43 90 88 53 43 73 62 27 43 88 88 54 43 73 62 27 43 90 88 53 43 81 66 31 44 83 89 55 44 96 88 56 44 98 88 57 44 96 88 56 44 83 89 55 44 104 90 58 45 102 91 59 45 89 92 60 45 87 93 61 45 89 92 60 45 102 91 59 45 112 94 62 46 110 95 63 46 97 96 64 46 95 97 65 46 97 96 64 46 110 95 63 46 101 78 43 47 103 98 66 47 116 99 67 47 117 100 68 47 116 99 67 47 103 98 66 47 109 82 47 48 111 101 69 48 120 102 70 48 121 103 71 48 120 102 70 48 111 101 69 48 20 104 72 49 116 105 73 49 2 106 74 49 52 107 75 49 2 106 74 49 116 105 73 49 60 108 76 50 58 109 77 50 120 110 78 50 119 111 79 50 120 110 78 50 58 109 77 50 14 112 80 51 66 113 81 51 21 114 82 51 123 115 83 51 21 114 82 51 66 113 81 51 57 55 17 52 59 54 16 52 126 116 84 52 127 117 85 52 126 116 84 52 59 54 16 52 65 58 21 53 67 57 20 53 130 118 86 53 131 119 87 53 130 118 86 53 67 57 20 53 55 120 88 54 54 56 89 54 57 55 17 54 56 56 19 54 57 55 17 54 54 56 89 54 65 58 21 55 63 121 90 55 64 56 23 55 62 56 91 55 64 56 23 55 63 121 90 55 68 122 92 56 70 59 24 56 69 123 93 56 71 61 26 56 69 123 93 56 70 59 24 56 76 124 94 57 78 63 28 57 77 125 95 57 79 65 30 57 77 125 95 57 78 63 28 57 84 67 32 58 85 69 34 58 50 126 96 58 18 127 97 58 50 126 96 58 85 69 34 58 90 128 53 59 92 71 36 38 91 129 98 59 93 73 38 38 91 129 98 59 92 71 36 38 98 130 57 60 51 131 99 61 99 132 100 60 19 133 101 61 99 132 100 60 51 131 99 61 104 90 58 62 106 79 44 62 105 134 102 62 107 81 46 62 105 134 102 62 106 79 44 62 112 94 62 63 114 83 48 63 113 135 103 63 115 85 50 63 113 135 103 63 114 83 48 63 71 61 26 64 73 62 27 64 86 88 33 64 88 88 54 64 86 88 33 64 73 62 27 64 79 65 30 65 81 66 31 65 94 88 37 65 96 88 56 65 94 88 37 65 81 66 31 65 100 76 41 66 85 136 104 66 102 91 59 66 87 93 61 66 102 91 59 66 85 136 104 66 110 95 63 67 108 80 45 67 95 97 65 67 93 137 105 67 95 97 65 67 108 80 45 67 101 78 43 68 116 99 67 68 3 77 42 68 20 138 106 68 3 77 42 68 116 99 67 68 107 81 46 69 109 82 47 69 119 139 107 69 120 102 70 69 119 139 107 69 109 82 47 69 115 85 50 70 15 86 51 70 123 140 108 70 21 141 109 70 123 140 108 70 15 86 51 70 58 109 77 71 56 142 110 71 119 111 79 71 118 143 111 71 119 111 79 71 56 142 110 71 66 113 81 50 64 144 112 50 123 115 83 50 122 145 113 50 123 115 83 50 64 144 112 50 55 120 88 72 57 55 17 72 125 146 114 72 126 116 84 72 125 146 114 72 57 55 17 72 63 121 90 73 65 58 21 73 129 147 115 73 130 118 86 73 129 147 115 73 65 58 21 73 53 148 116 74 52 56 117 74 55 120 88 74 54 56 89 74 55 120 88 74 52 56 117 74 63 121 90 75 61 149 118 75 62 56 91 75 60 56 119 75 62 56 91 75 61 149 118 75 47 150 120 76 68 122 92 76 46 151 121 76 69 123 93 76 46 151 121 76 68 122 92 76 74 152 122 77 76 124 94 77 75 87 52 77 77 125 95 77 75 87 52 77 76 124 94 77 82 153 123 78 49 154 124 78 83 89 55 78 48 155 125 78 83 89 55 78 49 154 124 78 88 156 54 59 90 128 53 59 89 157 126 59 91 129 98 59 89 157 126 59 90 128 53 59 96 158 56 60 98 130 57 60 97 159 127 60 99 132 100 60 97 159 127 60 98 130 57 60 102 91 59 79 104 90 58 79 103 98 66 79 105 134 102 79 103 98 66 79 104 90 58 79 110 95 63 80 112 94 62 80 111 101 69 80 113 135 103 80 111 101 69 80 112 94 62 80 69 123 93 81 71 61 26 81 84 88 32 81 86 88 33 81 84 88 32 81 71 61 26 81 77 125 95 82 79 65 30 82 92 88 36 82 94 88 37 82 92 88 36 82 79 65 30 82 100 76 41 83 16 75 40 83 85 136 104 83 18 160 128 83 85 136 104 83 16 75 40 83 108 80 45 84 106 79 44 84 93 137 105 84 91 161 129 84 93 137 105 84 106 79 44 84 17 84 49 85 114 83 48 85 19 162 130 85 99 163 131 85 19 162 130 85 114 83 48 85 105 134 102 86 107 81 46 86 118 164 132 86 119 139 107 86 118 164 132 86 107 81 46 86 113 135 103 87 115 85 50 87 122 165 133 87 123 140 108 87 122 165 133 87 115 85 50 87 56 142 110 88 54 166 134 88 118 143 111 88 117 167 135 88 118 143 111 88 54 166 134 88 64 144 112 71 62 168 136 71 122 145 113 71 121 169 137 71 122 145 113 71 62 168 136 71 53 148 116 89 55 120 88 89 124 170 138 89 125 146 114 89 124 170 138 89 55 120 88 89 61 149 118 90 63 121 90 90 128 171 139 90 129 147 115 90 128 171 139 90 63 121 90 90 53 148 116 91 1 172 140 91 52 56 117 91 2 56 141 91 52 56 117 91 1 172 140 91 59 54 16 92 58 56 18 92 61 149 118 92 60 56 119 92 61 149 118 92 58 56 18 92 13 173 142 93 67 57 20 93 14 56 143 93 66 56 22 93 14 56 143 93 67 57 20 93 72 60 25 94 74 152 122 94 73 62 27 94 75 87 52 94 73 62 27 94 74 152 122 94 80 64 29 95 82 153 123 95 81 66 31 95 83 89 55 95 81 66 31 95 82 153 123 95 86 68 33 96 88 156 54 96 87 70 35 96 89 157 126 96 87 70 35 96 88 156 54 96 94 72 37 97 96 158 56 97 95 74 39 97 97 159 127 97 95 74 39 97 96 158 56 97 100 76 41 98 102 91 59 98 101 78 43 98 103 98 66 98 101 78 43 98 102 91 59 98 108 80 45 99 110 95 63 99 109 82 47 99 111 101 69 99 109 82 47 99 110 95 63 99 69 123 93 100 84 88 32 100 46 151 121 100 50 88 96 100 46 151 121 100 84 88 32 100 75 87 52 82 77 125 95 82 90 88 53 82 92 88 36 82 90 88 53 82 77 125 95 82 83 89 55 44 48 155 125 44 98 88 57 44 51 88 99 44 98 88 57 44 48 155 125 44 106 79 44 101 104 90 58 101 91 161 129 101 89 92 60 101 91 161 129 101 104 90 58 101 114 83 48 102 112 94 62 102 99 163 131 102 97 96 64 102 99 163 131 102 112 94 62 102 103 98 66 103 105 134 102 103 117 100 68 103 118 164 132 103 117 100 68 103 105 134 102 103 111 101 69 104 113 135 103 104 121 103 71 104 122 165 133 104 121 103 71 104 113 135 103 104 54 166 134 88 52 107 75 88 117 167 135 88 116 105 73 88 117 167 135 88 52 107 75 88 62 168 136 51 60 108 76 51 121 169 137 51 120 110 78 51 121 169 137 51 60 108 76 51 1 172 140 105 53 148 116 105 0 150 144 105 124 170 138 105 0 150 144 105 53 148 116 105 59 54 16 106 61 149 118 106 127 117 85 106 128 171 139 106 127 117 85 106 61 149 118 106 67 57 20 107 13 173 142 107 131 119 87 107 12 154 145 107 131 119 87 107 13 173 142 107</p>
                </polylist>
                <extra>
                    <technique profile="modo401">
                        <param sid="render" name="Render" type="Name">default</param>
                        <param sid="dissolve" name="Dissolve" type="float">0</param>
                        <param sid="curves" name="Render_Curves" type="bool">false</param>
                        <param sid="radius" name="Curve_Radius" type="float">0.05</param>
                    </technique>
                </extra>
            </mesh>
        </geometry>
    </library_geometries>
    <library_lights>
        <light id="Light-Render" name="Render">
            <technique_common>
                <ambient>
                    <color sid="ambient_light_rgb">0.05 0.05 0.05</color>
                </ambient>
            </technique_common>
        </light>
        <light id="Light-Directional_Light" name="Directional_Light">
            <technique_common>
                <directional>
                    <color sid="directional_light_rgb">1 1 1</color>
                </directional>
            </technique_common>
            <extra>
                <technique profile="modo401">
                    <param sid="lightType" name="Light_Type" type="Name">sun_light</param>
                    <param sid="render" name="Render" type="Name">default</param>
                    <param sid="visible" name="Display_Visible" type="Name">default</param>
                    <param sid="size" name="Display_Size" type="float">1</param>
                    <param sid="dissolve" name="Dissolve" type="float">0</param>
                    <param sid="radiance" name="Radiant_Intensity" type="float">3</param>
                    <param sid="samples" name="Samples" type="int">64</param>
                    <param sid="shadType" name="Shadow_Type" type="Name">raytrace</param>
                    <param sid="shadRes" name="Shadow_Resolution" type="int">1024</param>
                    <param sid="fast" name="Simple_Shading" type="bool">true</param>
                    <param sid="azimuth" name="Azimuth" type="float">0</param>
                    <param sid="clamp" name="Clamp_Intensity" type="bool">true</param>
                    <param sid="day" name="Day" type="int">2009172</param>
                    <param sid="elevation" name="Elevation" type="float">0</param>
                    <param sid="haze" name="Haze" type="float">2</param>
                    <param sid="height" name="Height" type="float">10</param>
                    <param sid="lat" name="Latitude" type="float">0.655057</param>
                    <param sid="lon" name="Longitude" type="float">-2.13456</param>
                    <param sid="mapSize" name="Map_Size" type="float">2</param>
                    <param sid="north" name="North" type="float">0</param>
                    <param sid="radius" name="Radius" type="float">0.5</param>
                    <param sid="spread" name="Spread" type="float">0</param>
                    <param sid="sunPos" name="Sun_Position" type="bool">false</param>
                    <param sid="time" name="Time" type="float">12</param>
                    <param sid="timeZone" name="Time_Zone" type="float">-8</param>
                    <param sid="volumetrics" name="Volumetrics" type="bool">false</param>
                    <param sid="vdissolve" name="Volumetrics_Dissolve" type="float">0</param>
                    <param sid="vsamples" name="Volumetric_Samples" type="int">40</param>
                </technique>
            </extra>
        </light>
    </library_lights>
    <library_nodes id="shader_tree" name="Shader_Tree">
        <node sid="shader_tree_render" name="Render">
            <extra>
                <technique profile="modo401">
                    <param sid="first" name="Frame_Range_First" type="int">1</param>
                    <param sid="last" name="Frame_Range_Last" type="int">120</param>
                    <param sid="dpi" name="Frame_DPI" type="float">300</param>
                    <param sid="resUnit" name="Resolution_Unit" type="Name">pixels</param>
                    <param sid="pAspect" name="Frame_Pixel_Aspect_Ratio" type="float">1</param>
                    <param sid="bucketX" name="Bucket_Width" type="int">32</param>
                    <param sid="bucketY" name="Bucket_Height" type="int">32</param>
                    <param sid="bktOrder" name="Bucket_Order" type="Name">hilbert</param>
                    <param sid="bktSkip" name="Skip_Existing_Buckets" type="bool">false</param>
                    <param sid="region" name="Render_Region" type="bool">false</param>
                    <param sid="regX0" name="Render_Region_Left" type="float">0</param>
                    <param sid="regX1" name="Render_Region_Right" type="float">1</param>
                    <param sid="regY0" name="Render_Region_Top" type="float">0</param>
                    <param sid="regY1" name="Render_Region_Bottom" type="float">1</param>
                    <param sid="aa" name="Render_Antialiasing" type="Name">s8</param>
                    <param sid="aaFilter" name="Render_Antialiasing_Filter" type="Name">gaussian</param>
                    <param sid="fineRate" name="Refinement_Shading_Rate" type="float">0.25</param>
                    <param sid="fineThresh" name="Refinement_Threshold" type="float">0.1</param>
                    <param sid="bktRefine" name="Refine_Bucket_Borders" type="bool">false</param>
                    <param sid="dof" name="Render_Depth_of_Field" type="bool">false</param>
                    <param sid="mBlur" name="Render_Motion_Blur" type="bool">false</param>
                    <param sid="stereo" name="Render_Stereoscopic" type="bool">false</param>
                    <param sid="rayShadow" name="Ray_Tracing_Shadows" type="bool">true</param>
                    <param sid="reflDepth" name="Reflection_Depth" type="int">8</param>
                    <param sid="refrDepth" name="Refraction_Depth" type="int">8</param>
                    <param sid="rayThresh" name="Ray_Threshold" type="float">0.001</param>
                    <param sid="subdAdapt" name="Adaptive_Subdivision" type="bool">false</param>
                    <param sid="subdRate" name="Subdivision_Rate" type="float">10</param>
                    <param sid="dispEnable" name="Micropoly_Displacement" type="bool">true</param>
                    <param sid="dispRate" name="Displacement_Rate" type="float">1</param>
                    <param sid="dispRatio" name="Displacement_Ratio" type="float">4</param>
                    <param sid="edgeMin" name="Minimum_Edge_Length" type="float">0.0001</param>
                    <param sid="dispSmooth" name="Smooth_Positions" type="bool">true</param>
                    <param sid="ambRad" name="Ambient_Intensity" type="float">0.05</param>
                    <param sid="ambColor" name="Ambient_Color" type="color">1 1 1</param>
                    <param sid="globEnable" name="Enable_Indirect_Illumination" type="bool">false</param>
                    <param sid="globScope" name="Indirect_Illumination_Scope" type="Name">all</param>
                    <param sid="globRays" name="Indirect_Rays" type="int">64</param>
                    <param sid="globLimit" name="Indirect_Bounces" type="int">1</param>
                    <param sid="globRange" name="Indirect_Range" type="float">0</param>
                    <param sid="globSubs" name="Subsurface_Scattering" type="int">0</param>
                    <param sid="globVols" name="Volumetrics_Affect_Indirect" type="bool">false</param>
                    <param sid="irrCache" name="Enable_Irradiance_Caching" type="bool">true</param>
                    <param sid="irrRays" name="Irradiance_Rays" type="int">256</param>
                    <param sid="globSuper" name="Indirect_Supersampling" type="bool">true</param>
                    <param sid="irrRate" name="Irradiance_Rate" type="float">2.5</param>
                    <param sid="irrRatio" name="Irradiance_Ratio" type="float">6</param>
                    <param sid="irrVals" name="Interpolation_Values" type="int">1</param>
                    <param sid="irrGrads" name="Irradiance_Gradients" type="Name">both</param>
                    <param sid="irrWalk" name="Walkthrough_Mode" type="bool">false</param>
                    <param sid="irrLEnable" name="Load_Irradiance_before_Render" type="bool">false</param>
                    <param sid="irrLName" name="Load_Irradiance_File" type="Name"></param>
                    <param sid="irrSEnable" name="Save_Irradiance_after_Render" type="bool">false</param>
                    <param sid="irrSName" name="Save_Irradiance_File" type="Name"></param>
                    <param sid="causEnable" name="Enable_Direct_Caustics" type="bool">false</param>
                    <param sid="causTotal" name="Caustics_Total_Photons" type="int">100000</param>
                    <param sid="causLocal" name="Caustics_Local_Photons" type="int">32</param>
                    <param sid="globCaus" name="Indirect_Caustics" type="Name">refraction</param>
                </technique>
            </extra>
        </node>
        <node sid="shader_tree_environment" name="Environment">
            <extra>
                <technique profile="modo401">
                    <param sid="radiance" name="Environment_Intensity" type="float">1</param>
                    <param sid="visCam" name="Environment_Visible_to_Camera" type="bool">true</param>
                    <param sid="visInd" name="Environment_Visible_to_Indirect_Rays" type="bool">true</param>
                    <param sid="visRefl" name="Environment_Visible_to_Reflection_Rays" type="bool">true</param>
                    <param sid="visRefr" name="Environment_Visible_to_Refraction_Rays" type="bool">true</param>
                </technique>
            </extra>
        </node>
    </library_nodes>
    <library_visual_scenes>
        <visual_scene id="DefaultScene">
            <node id="RenderNode" name="Render" type="NODE">
                <instance_light url="#Light-Render" />
            </node>
            <node id="Geometry-MeshNode" name="Mesh" type="NODE">
                <instance_geometry url="#Geometry-Mesh">
                    <bind_material>
                        <technique_common>
                            <instance_material symbol="Material-Default" target="#Material-Default">
                                <bind_vertex_input semantic="Texture" input_semantic="TEXCOORD" input_set="0" />
                            </instance_material>
                        </technique_common>
                    </bind_material>
                </instance_geometry>
            </node>
            <node id="Camera-CameraNode" name="Camera" type="NODE">
                <translate sid="Position">-6.44704 -0.0611257 6.21077</translate>
                <rotate sid="RotationY">0 1 0 -46.9825</rotate>
                <rotate sid="RotationX">1 0 0 11.0428</rotate>
                <rotate sid="RotationZ">0 0 1 -1.16272e-015</rotate>
                <instance_camera url="#Camera-Camera" />
            </node>
            <node id="Texture_GroupNode" name="Texture_Group" type="NODE">
                <node id="Theta__Image___Texture_Node" name="Theta__Image___Texture_" type="NODE">
                    <translate sid="Position__2_">0 0 0</translate>
                    <rotate sid="Rotation__2_Y">0 1 0 0</rotate>
                    <rotate sid="Rotation__2_X">1 0 0 0</rotate>
                    <rotate sid="Rotation__2_Z">0 0 1 0</rotate>
                    <scale sid="Scale">1 1 1</scale>
                </node>
            </node>
            <node id="Light-Directional_LightNode" name="Directional_Light" type="NODE">
                <translate sid="Position__3_">-2 2 2</translate>
                <rotate sid="Rotation__3_Y">0 1 0 -45</rotate>
                <rotate sid="Rotation__3_X">1 0 0 -30</rotate>
                <rotate sid="Rotation__3_Z">0 0 1 0</rotate>
                <instance_light url="#Light-Directional_Light" />
            </node>
            <extra>
                <technique profile="modo401">
                    <param sid="fps" name="Scene_FPS" type="float">24</param>
                    <param sid="sceneS" name="Scene_Start_Time" type="float">0</param>
                    <param sid="sceneE" name="Scene_End_Time" type="float">5</param>
                    <param sid="currentS" name="Scene_Current_Start_Time" type="float">0</param>
                    <param sid="currentE" name="Scene_Current_End_Time" type="float">5</param>
                    <param sid="timeSys" name="Scene_Time_System" type="Name">frames</param>
                </technique>
            </extra>
            <extra>
                <technique profile="MAX3D">
                    <frame_rate>24</frame_rate>
                </technique>
            </extra>
            <extra>
                <technique profile="MAYA">
                    <start_time>0</start_time>
                    <end_time>5</end_time>
                </technique>
            </extra>
            <extra>
                <technique profile="OKINO" />
            </extra>
            <extra>
                <technique profile="XSI">
                    <SI_Scene>
                        <frame_rate>24</frame_rate>
                    </SI_Scene>
                </technique>
            </extra>
        </visual_scene>
    </library_visual_scenes>
    <scene>
        <instance_visual_scene url="#DefaultScene" />
    </scene>
</COLLADA>
