<?xml version="1.0" encoding="utf-8"?>
<COLLADA xmlns="http://www.collada.org/2005/11/COLLADASchema" version="1.4.1">
  <asset>
    <contributor>
      <author>Marc</author>
      <authoring_tool>OpenCOLLADA2008</authoring_tool>
      <comments>
			ColladaMaya export options: 
			bakeTransforms=1;relativePaths=0;copyTextures=0;exportTriangles=1;exportCgfxFileReferences=0;
			isSampling=0;curveConstrainSampling=0;removeStaticCurves=1;exportPolygonMeshes=1;exportLights=0;
			exportCameras=0;exportJointsAndSkin=1;exportAnimations=1;exportInvisibleNodes=0;exportDefaultCameras=0;
			exportTexCoords=1;exportNormals=1;exportNormalsPerVertex=0;exportVertexColors=0;exportVertexColorsPerVertex=0;
			exportTexTangents=0;exportTangents=0;exportReferencedMaterials=0;exportMaterialsOnly=0;
			exportXRefs=0;dereferenceXRefs=0;exportCameraAsLookat=0;cameraXFov=0;cameraYFov=1;doublePrecision=0
		</comments>
      <source_data>file:///H:/Dropbox%20(Frictional%20Games)/Team/depth_marc/models/station/statics/2.6%20static%20parts%20debris/debris.mb</source_data>
    </contributor>
    <created>2014-10-19T23:02:53</created>
    <modified>2014-10-19T23:02:53</modified>
    <unit name="meter" meter="1"/>
    <up_axis>Y_UP</up_axis>
  </asset>
  <library_materials>
    <material id="lambert2" name="lambert2">
      <instance_effect url="#lambert2-fx"/>
    </material>
    <material id="lambert1" name="lambert1">
      <instance_effect url="#lambert1-fx"/>
    </material>
  </library_materials>
  <library_effects>
    <effect id="lambert1-fx">
      <profile_COMMON>
        <technique sid="common">
          <lambert>
            <emission>
              <color>0 0 0 1</color>
            </emission>
            <ambient>
              <color>0 0 0 1</color>
            </ambient>
            <diffuse>
              <color>0.4 0.4 0.4 1</color>
            </diffuse>
            <transparent opaque="RGB_ZERO">
              <color>0 0 0 1</color>
            </transparent>
            <transparency>
              <float>1</float>
            </transparency>
          </lambert>
        </technique>
      </profile_COMMON>
    </effect>
    <effect id="lambert2-fx">
      <profile_COMMON>
        <newparam sid="Image0001-surface">
          <surface type="2D">
            <init_from>Image0001</init_from>
          </surface>
        </newparam>
        <newparam sid="Image0001-sampler">
          <sampler2D>
            <source>Image0001-surface</source>
          </sampler2D>
        </newparam>
        <technique sid="common">
          <lambert>
            <emission>
              <color>0 0 0 1</color>
            </emission>
            <ambient>
              <color>0 0 0 1</color>
            </ambient>
            <diffuse>
              <texture texture="Image0001-sampler" texcoord="TEX0">
                <extra>
                  <technique profile="OpenCOLLADAMaya">
                    <blend_mode>NONE</blend_mode>
                    <coverageU>1</coverageU>
                    <coverageV>1</coverageV>
                    <fast>0</fast>
                    <mirrorU>0</mirrorU>
                    <mirrorV>0</mirrorV>
                    <noiseU>0</noiseU>
                    <noiseV>0</noiseV>
                    <offsetU>0</offsetU>
                    <offsetV>0</offsetV>
                    <repeatU>1</repeatU>
                    <repeatV>1</repeatV>
                    <rotateFrame>0</rotateFrame>
                    <rotateUV>0</rotateUV>
                    <stagger>0</stagger>
                    <translateFrameU>0</translateFrameU>
                    <translateFrameV>0</translateFrameV>
                    <wrapU>1</wrapU>
                    <wrapV>1</wrapV>
                  </technique>
                </extra>
              </texture>
            </diffuse>
            <transparent opaque="RGB_ZERO">
              <color>0 0 0 1</color>
            </transparent>
            <transparency>
              <float>1</float>
            </transparency>
          </lambert>
        </technique>
      </profile_COMMON>
    </effect>
  </library_effects>
  <library_images>
    <image id="Image0001" name="Image0001">
      <init_from>file:///E:/depth/redist/static_objects/station/theta.dds</init_from>
      <extra>
        <technique profile="OpenCOLLADAMaya">
          <dgnode_type>kFile</dgnode_type>
          <image_sequence>0</image_sequence>
          <originalMayaNodeId>Image0001</originalMayaNodeId>
        </technique>
      </extra>
    </image>
  </library_images>
  <library_geometries>
    <geometry id="polySurfaceShape39" name="polySurfaceShape39">
      <mesh>
        <source id="polySurfaceShape39-positions" name="polySurfaceShape39-positions">
          <float_array id="polySurfaceShape39-positions-array" count="279">-2 0.9 0.1574379 -2 2.45 0.1574379 -2 0.5916476 0.003468628 -1.889914 0.5916476 0.003468628 -1.666734 0.7422474 0.07834361 -1.795757 0.5440551 -0.02053446 -1.198246 0.7422474 0.07834361 -1.098135 0.5916476 0.003468628 -1.859931 0.5440551 -0.02053446 -2 2.769174 0.0147466 -1.885995 2.769174 0.0147466 -1.757099 2.822247 -0.009263014 -1.866843 2.822247 -0.009263014 -1.221068 2.611215 0.08551175 -1.673067 2.611215 0.08551175 -1.080508 2.822247 -0.009263014 -2 0.9205019 0.07048594 -2 0.6326651 -0.07864246 -2 2.43127 0.0696482 -1.889986 0.6327932 -0.07857818 -1.795771 0.5850655 -0.102649 -1.860003 0.5852007 -0.1025813 -1.666747 0.7832579 -0.003770982 -1.198204 0.7832162 -0.003791739 -1.098093 0.6326165 -0.07866673 -2 2.731696 -0.06903962 -1.886051 2.731528 -0.06896422 -1.866899 2.784602 -0.09297386 -1.757079 2.784706 -0.09302032 -1.673048 2.573674 0.001754473 -1.221094 2.573682 0.001750778 -1.080534 2.784714 -0.09302399 -2 2.108152 0.1574379 -2 2.098074 0.06983296 -2 1.269168 0.1574379 -2 1.280326 0.07028641 -2 1.683104 0.1574379 -2 1.683785 0.07006269 -1.2434 2.45 0.1574379 -1.206496 2.108152 0.2521683 -1.218317 1.683104 0.1574379 -1.052165 1.269168 0.281616 -1.181114 0.9 0.2145261 -1.715396 0.9 0.1574379 -1.619814 1.269168 0.1574379 -1.699382 1.683104 0.1574379 -1.626 2.108152 0.2399535 -1.728804 2.45 0.1574379 -0.504461 0.5916476 0.003468628 -0.5412905 0.8751761 0.254793 -0.4132993 1.269168 0.3502565 -0.3769946 1.683104 0.2106558 -0.489992 2.108127 0.3711858 -0.4802663 2.45 0.1574379 -0.4902266 2.611215 0.08551175 -0.5149018 2.822247 -0.009263014 -1.689106 0.9205019 0.07048594 -1.655747 1.280326 0.07028642 -1.530323 1.683785 0.07006269 -1.599328 2.098074 0.1523485 -1.541801 2.43127 0.0696482 -1.116488 2.43127 0.0696482 -1.201674 2.098074 0.1645634 -1.019752 1.683785 0.07006269 -1.234327 1.280326 0.1944645 -1.124633 0.8956779 0.1090237 -0.5490584 0.6326182 -0.07866586 -0.5281457 0.755462 0.04547662 -0.565186 0.8956779 0.167841 -0.3980866 1.280326 0.263105 -0.3815281 1.683785 0.1232806 -0.4891124 2.098099 0.2741086 -0.4779029 2.43127 0.0696482 -0.4218529 2.573682 0.001750822 -0.5316852 2.784714 -0.09302393 -1.224948 2.279076 0.2307563 -0.507126 2.280009 0.2970677 -0.5050653 2.254268 0.2068892 -1.161243 2.256216 0.1430637 -1.121804 1.069798 0.3033083 -0.4637046 1.084584 0.3502565 -0.4731635 1.087253 0.2632121 -1.170923 1.113646 0.2162493 -1.458849 1.683104 0.1574379 -1.210598 1.96065 0.2686369 -0.4699256 1.916583 0.2912958 -0.4702595 1.917724 0.2016545 -1.110713 1.89093 0.06994782 -1.335601 1.683785 0.07006269 -1.12704 1.482055 0.07017456 -0.3898074 1.482055 0.1227888 -0.3939506 1.489777 0.2100522 -1.135241 1.476136 0.1574379</float_array>
          <technique_common>
            <accessor source="#polySurfaceShape39-positions-array" count="93" stride="3">
              <param name="X" type="float"/>
              <param name="Y" type="float"/>
              <param name="Z" type="float"/>
            </accessor>
          </technique_common>
        </source>
        <source id="polySurfaceShape39-normals" name="polySurfaceShape39-normals">
          <float_array id="polySurfaceShape39-normals-array" count="642">0 0.4081868 0.9128984 0 0.4085606 0.9127311 0 0.4096825 0.9122281 0 0.4096825 0.9122281 -0.9999999 0 0 -0.9999999 0 0 -0.9999999 0 0 -0.9999999 0 0 -0.9999999 0 0 -0.9999999 0 0 6.51315e-4 -0.8942435 -0.4475805 6.51315e-4 -0.8942435 -0.4475805 6.51315e-4 -0.8942435 -0.4475805 6.51315e-4 -0.8942435 -0.4475805 -0.00117744 -0.8942623 -0.4475414 -0.00117744 -0.8942623 -0.4475414 -0.00117744 -0.8942623 -0.4475414 -0.00117744 -0.8942623 -0.4475414 0.8640812 -0.4502577 -0.2250145 0.8640812 -0.4502577 -0.2250145 0.8640812 -0.4502577 -0.2250145 0.8640812 -0.4502577 -0.2250145 0 -0.8947447 -0.4465777 0 -0.8947447 -0.4465777 0 -0.8947447 -0.4465777 0 -0.8947447 -0.4465777 -0.8592914 -0.4575337 -0.2286503 -0.8592914 -0.4575337 -0.2286503 -0.8592914 -0.4575337 -0.2286503 -0.8592914 -0.4575337 -0.2286503 0 -0.8948526 -0.4463616 0 -0.8948526 -0.4463616 0 -0.8948526 -0.4463616 0 -0.8948526 -0.4463616 -0.8715697 -0.4385569 -0.2191666 -0.8715697 -0.4385569 -0.2191666 -0.8715697 -0.4385569 -0.2191666 -0.8715697 -0.4385569 -0.2191666 -0.9999999 0 0 -0.9999999 0 0 -0.9999999 0 0 -0.9999999 0 0 8.0719e-4 0.9124322 -0.4092269 8.0719e-4 0.9124322 -0.4092269 8.0719e-4 0.9124322 -0.4092269 8.0719e-4 0.9124322 -0.4092269 -0.9499724 0.2850924 -0.1275717 -0.9499724 0.2850924 -0.1275717 -0.9499724 0.2850924 -0.1275717 -0.9499724 0.2850924 -0.1275717 0.9399124 0.3116327 -0.1394623 0.9399124 0.3116327 -0.1394623 0.9399124 0.3116327 -0.1394623 0.9399124 0.3116327 -0.1394623 -5.1526e-4 0.9122761 -0.4095755 -5.1526e-4 0.9122761 -0.4095755 -5.1526e-4 0.9122761 -0.4095755 -5.1526e-4 0.9122761 -0.4095755 -0.8546143 0.4739634 -0.2121158 -0.8546143 0.4739634 -0.2121158 -0.8546143 0.4739634 -0.2121158 -0.8546143 0.4739634 -0.2121158 0 0.9125487 -0.4089678 0 0.9125487 -0.4089678 0 0.9125487 -0.4089678 0 0.9125487 -0.4089678 0 -0.4096854 -0.9122268 0 -0.4096854 -0.9122268 0 -0.4096854 -0.9122268 0.1648534 0.1373241 -0.9767115 0.1142937 -0.008486506 -0.9934107 0.128388 -0.2180247 -0.9674615 0 -0.4234906 -0.9059004 0.02165808 -0.4220119 -0.9063315 0.0343587 -0.3244898 -0.945265 -0.001793507 -0.4269991 -0.9042502 -0.003031742 0.4487883 -0.8936329 -0.003031742 0.4487883 -0.8936329 -0.003031742 0.4487883 -0.8936329 0 0.4451825 -0.8954398 0 0.4451825 -0.8954398 0 0.4451825 -0.8954398 -0.9999999 0 0 -0.9999999 0 0 0.05991404 -0.3138397 -0.9475838 0.04457739 -0.04893524 -0.9978067 -0.9999999 0 0 -0.9999999 0 0 -0.9999999 0 0 -0.9999999 0 0 0.05626482 -0.2026107 -0.9776416 0.03210306 0.03266512 -0.9989505 0.008280993 0.005662569 -0.9999497 -0.9999999 0 0 -0.9999999 0 0 -0.9999999 0 0 -0.9999999 0 0 0.06689128 0.06161857 -0.9958557 0.0609085 0.2239858 -0.9726874 -0.0641941 0.2577995 0.9640635 -0.04310469 0.3020635 0.9523128 -1.45159e-4 0.4076842 0.913123 -2.90317e-4 0.4079294 0.9130133 -0.08142984 0.05168147 0.9953383 -0.1241297 0.007322329 0.9922389 -0.05078441 -0.06204211 0.9967806 -0.06064988 -0.04289503 0.9972369 -0.1118466 0.1177023 0.9867302 0 0 1 -0.08290798 -0.2880031 0.9540338 3.61758e-4 -0.2296834 0.9732653 -0.02313555 -0.5080111 0.8610398 7.04173e-4 -0.4470859 0.8944908 7.04173e-4 -0.4470859 0.8944908 7.04173e-4 -0.4470859 0.8944908 7.04173e-4 -0.4470859 0.8944908 -0.05045914 -0.5934232 0.8033074 -0.0655098 -0.5122169 0.856354 -0.1489738 -0.10905 0.9828098 -0.1455976 0.3124609 0.9387063 -0.06991862 0.1967567 0.9779561 -0.0595331 -0.2715437 0.9605831 -0.08534134 0.006712785 0.9963292 -0.0206201 -0.1351325 0.9906128 -0.05965366 0.3006142 0.9518784 -0.02072141 0.4084637 0.9125393 0.002337907 0.4114678 0.9114212 0.002337907 0.4114678 0.9114212 0.002337907 0.4114678 0.9114212 0 0.4088448 0.9126039 0 0.4088448 0.9126039 0 0.4088448 0.9126039 0 0.4096838 0.9122275 0 0.4096838 0.9122275 0 0.4096838 0.9122275 -0.0191818 0.4699818 0.8824676 -0.08216611 0.3970203 0.9141246 -0.07800818 -0.2743624 0.9584571 -0.115241 0.03429177 0.9927455 -0.08699292 0.3078156 0.9474608 -0.07624224 0.2615263 0.9621804 -0.07939068 -0.1723132 0.9818376 -0.05401041 -0.6199764 0.7827594 -0.05949733 -0.5223356 0.8506618 -0.05401041 -0.6199764 0.7827594 0.06236878 0.321011 -0.9450197 0.1052494 0.4819986 -0.8698275 0.06214036 0.6340182 -0.7708173 0.01929061 0.5307508 -0.8473083 0 0.4464278 -0.8948196 0 0.4464278 -0.8948196 0 0.4464278 -0.8948196 -0.002983649 0.2391683 -0.9709735 -0.00579331 0.4649431 -0.8853216 0 -5.54507e-4 -0.9999998 0.04704614 0.05278277 -0.9974972 0.09500075 -0.01262643 -0.9953972 0.04620441 -0.2808819 -0.9586295 0 -0.4088456 -0.9126035 0 -0.4088456 -0.9126035 0 -0.4088456 -0.9126035 -0.003587075 -0.4236326 -0.9058269 -0.002334899 -0.4114641 -0.9114229 -0.002334899 -0.4114641 -0.9114229 -0.002334899 -0.4114641 -0.9114229 0.04596326 0.5965071 -0.8012906 0.04596326 0.5965071 -0.8012906 0.04596326 0.5965071 -0.8012906 0.04596326 0.5965071 -0.8012906 0.08307334 0.5594054 -0.8247208 0.07983826 0.6729234 -0.7353909 0.07129051 -0.3228047 -0.9437768 0.08192297 0.191889 -0.9779913 0.07316405 -0.302872 -0.9502186 0.1448088 0.07951219 -0.9862597 0.1434775 0.3284575 -0.9335577 0.0206807 -0.4755049 -0.8794698 0.08156365 -0.4025309 -0.9117655 0 -0.4200474 -0.9075022 0 -0.4096827 -0.912228 0 -0.4096827 -0.912228 0 0.9125681 -0.4089245 0 0.9125681 -0.4089245 0 0.9125681 -0.4089245 0 0.9125681 -0.4089245 0.9270257 0.3526735 0.1274545 0.9468685 0.1957304 0.2552048 0.9468685 0.1957304 0.2552048 0.9270257 0.3526735 0.1274545 0.9755038 -0.04151174 0.2160298 0.9755038 -0.04151174 0.2160298 0.9996674 -0.006760514 0.02488606 0.9996674 -0.006760514 0.02488606 0.9709494 0.238982 -0.0120363 0.9947872 0.1019371 -0.002682323 0.9947872 0.1019371 -0.002682323 0.9709494 0.238982 -0.0120363 0.9860115 -0.1557849 0.05926494 0.9980717 -0.02775807 0.05551917 0.9980717 -0.02775807 0.05551917 0.9860115 -0.1557849 0.05926494 0.9464293 -0.304952 -0.1061874 0.9464293 -0.304952 -0.1061874 0.9459043 0.2323045 -0.2264939 0.9881577 -0.03011202 -0.150458 0.9881577 -0.03011202 -0.150458 0.9459043 0.2323045 -0.2264939 0.8988997 0.2261935 -0.3752541 -0.03086016 -0.1891136 0.9814701 -0.06161537 -0.1886654 0.9801065 0.9876615 0.156219 -0.01097737 0.9876615 0.156219 -0.01097737 0.1066184 0.1033731 -0.9889118 0.0532378 0.05133813 -0.9972613</float_array>
          <technique_common>
            <accessor source="#polySurfaceShape39-normals-array" count="214" stride="3">
              <param name="X" type="float"/>
              <param name="Y" type="float"/>
              <param name="Z" type="float"/>
            </accessor>
          </technique_common>
        </source>
        <source id="polySurfaceShape39-map1" name="polySurfaceShape39-map1">
          <float_array id="polySurfaceShape39-map1-array" count="352">0 0 1 0 1 1 0 1 0 0 0.2381729 0 0.2381729 1 0 1 0 0 1 0 1 1 0 1 0 0 1 0 1 1 0 1 0 0 1 0 1 1 0 1 0 0 1 0 1 1 0 1 0 0 1 0 1 1 0 1 0.7480384 1 0.7275636 0 1 0 1 1 0 0 1 0 1 1 0 1 0 0 1 0 1 1 0 1 0 0 1 0 1 1 0 1 0 0 1 0 1 1 0 1 0 0 1 0 1 1 0 1 0 0 1 0 1 1 0 1 0 0 1 0 1 1 0 1 0 0 1 0 1 1 0 1 0 1 0.620618 0 0.7548282 0.4067916 0.329406 0.7927307 0.2877362 0.9139366 0.2877362 0.8085817 0.8052736 0 0.7791219 0.03944247 0.8854503 0.03944248 0.5573763 0.1128871 0.1141824 0 0.335007 0 0.4686225 1 0 0 0.7605237 0 1 0.1797643 0.779453 1 0.779453 0 1 0 1 1 0 0.7791219 0.04376353 0.7903106 0.0832991 0.899832 0 0.8854503 0.5052286 0 0.5052286 1 0.2373038 0.7817599 0.1868714 0.8825807 0.1868714 0.8339001 0.08329907 0.8004185 0.1350852 0.7776783 0.967262 0.07100625 0.9049592 0.2061359 1 0 0 0.2018733 1 0 0.3776922 0.9222763 0.3776922 0.9999998 0.2877363 0.9999999 0.1868715 0.9999999 0.08329914 0.9999999 0 0.9999999 0 0.1974981 0.2440271 0 0.5746554 0.9052181 0.3814352 0 0.5167069 0.7139813 0.5980772 0.6789238 0.7635739 0.9076056 0.7236981 0.9999999 0.8537887 0.3171205 0.7709948 0.01116216 0.2877361 0.6178058 0.3360042 0.6366254 0.2373037 0.6157361 0.083299 0.5803031 0.1281536 0.5947518 0 0.6194758 0.04421493 0.598683 0.5407495 0.08256723 0.6194758 0.03944246 0.1334673 0.6603957 0.2552559 0.6715102 0.06089894 0.9999999 0 0.8859736 0 0 0.2623901 0 0.2546101 1 0 1 0.007678241 0 0.970307 0 1 0.4013368 0 0.372937 0.1088951 0 1 0 0.8673102 0.5891773 0 0.4021824 0 0 0.490904 0 0.555563 0.2596625 0.05278406 0.2486587 0.5449821 0 0.9584574 0 0.9999999 0.2132341 0.549098 0.2020137 0.02844034 0 0.5142202 0 0.5322568 0.2102148 0 0.2107747 0.477623 0 1 0 0.9597606 0.2175588 0.4798803 0.2206529 0.4802911 0 0.944268 0 1 0.2652103 0 0.2552207 0 0 1 0 0.0557023 0.5895469 0.981808 0 0.9999999 0.2693894 0.02645943 0 0 0.223747 0.3776921 0.6528793 0.3776922 0.7743631 0.003713242 0 0 0.1883498 0.1868714 0.6136663 0.1868714 0.754938 1 0 0.9986941 0.2097241</float_array>
          <technique_common>
            <accessor source="#polySurfaceShape39-map1-array" count="176" stride="2">
              <param name="S" type="float"/>
              <param name="T" type="float"/>
            </accessor>
          </technique_common>
        </source>
        <source id="polySurfaceShape39-Texture" name="polySurfaceShape39-Texture">
          <float_array id="polySurfaceShape39-Texture-array" count="328">0.1857028 0.6518049 0.3304386 0.6516265 0.3319123 0.6878286 0.2148054 0.6878287 0.7002937 0.02772349 0.6294929 0.02772349 0.6294929 0.01884066 0.7002937 0.01884066 0.544728 0.02772349 0.544728 0.01884066 0.03969336 0.02772349 0.01847435 0.02772349 0.01847447 0.01884067 0.03967876 0.01884067 0.06233639 0.02772349 0.0499673 0.02772349 0.04995293 0.01884067 0.06233395 0.01884079 0.1050277 0.02772349 0.1050252 0.01884067 0.1953272 0.02772349 0.1953358 0.01884067 0.2277445 0.02772349 0.2277531 0.01884067 0.333578 0.01884069 0.3421736 0.02772349 0.2735968 0.02772349 0.2003114 0.02772349 0.2003115 0.01884067 0.2735967 0.01884067 0.8559521 0.02772349 0.8347477 0.02772349 0.8347332 0.01884067 0.8559522 0.01884067 0.8244739 0.02772349 0.8244591 0.01884067 0.8120928 0.02772349 0.7694014 0.02772349 0.769399 0.01884067 0.8120901 0.01884067 0.6790909 0.02772349 0.6466736 0.02772349 0.6466821 0.01884067 0.6790995 0.01884067 0.7826208 0.6511834 0.8215846 0.6990081 0.8051708 0.6990081 0.6809673 0.323922 0.7813463 0.359331 0.6940935 0.3593315 0.6901048 0.6511835 0.6696877 0.6038393 0.7577475 0.6038392 0.8231376 0.2000294 0.8284434 0.2122159 0.7823988 0.2487758 0.85262 0.2122157 0.3520886 0.01884067 0.3520886 0.02772349 0.6789553 0.5666507 0.7696602 0.5330546 0.449684 0.02772349 0.449684 0.01884066 0.6718788 0.4021872 0.7553756 0.4450426 0.7150592 0.4450427 0.6873275 0.5330548 0.6684958 0.4890489 0.0244287 0.60384 0.08057891 0.6038399 0.09211766 0.651805 0.0244273 0.6878288 0.1018681 0.5330564 0.02443285 0.5330566 0.08667964 0.4450454 0.024438 0.4450456 0.1031585 0.3593349 0.02444302 0.3593354 0.08337308 0.2828946 0.0244475 0.282895 0.09344599 0.2487758 0.02444535 0.2126013 0.0472379 0.2126011 0.05396312 0.1996659 0.06983686 0.1996658 0.187339 0.2487758 0.193993 0.2828938 0.206271 0.3180525 0.2206873 0.3593343 0.2034846 0.4021896 0.187877 0.5025142 0.1887247 0.5330561 0.1364808 0.4450451 0.1849026 0.5684479 0.1810804 0.6038398 0.04803162 0.6878288 0.05199698 0.6990086 0.06975041 0.6990086 0.3599124 0.6038396 0.346374 0.5684477 0.3452978 0.4933712 0.3328357 0.5330558 0.3529611 0.3593335 0.3569651 0.4050133 0.3425267 0.3211131 0.3340872 0.2116081 0.3320923 0.2828928 0.2111708 0.2116081 0.7882552 0.2828895 0.665757 0.2828904 0.6875457 0.2487758 0.8042892 0.2000296 0.8526241 0.282889 0.8526222 0.3593306 0.85262 0.4450421 0.8526178 0.5330545 0.852616 0.603839 0.852615 0.6878283 0.8288751 0.6878283 0.5444772 0.2487758 0.5486666 0.2116081 0.6623453 0.2116081 0.5651469 0.2828911 0.536097 0.3593324 0.5516844 0.318316 0.5343812 0.4021879 0.5050312 0.5330553 0.5169989 0.4949396 0.5374708 0.6038394 0.520252 0.5662674 0.5244139 0.6513876 0.5474791 0.6878284 0.6611137 0.6878284 0.5364687 0.02772349 0.5397404 0.01884066 0.7721288 0.02772349 0.6980251 0.02772349 0.6982316 0.01884067 0.7723356 0.01884067 0.6476999 0.01884067 0.6414778 0.02772349 0.5924984 0.02772349 0.5906875 0.01884067 0.4828172 0.01884067 0.5402909 0.01884067 0.5435191 0.02772349 0.4821256 0.02772355 0.2783387 0.01884067 0.3429594 0.01884067 0.3454326 0.02772361 0.2747644 0.02772361 0.2159106 0.01884067 0.2216476 0.0277236 0.112021 0.01884067 0.161993 0.01884067 0.1685308 0.02772359 0.05812601 0.02772359 0.05814468 0.01884067 0.1862819 0.4450449 0.3604739 0.4450442 0.4075801 0.01884067 0.407362 0.02772361 0.5326654 0.4450435 0.6496642 0.445043</float_array>
          <technique_common>
            <accessor source="#polySurfaceShape39-Texture-array" count="164" stride="2">
              <param name="S" type="float"/>
              <param name="T" type="float"/>
            </accessor>
          </technique_common>
        </source>
        <vertices id="polySurfaceShape39-vertices" name="polySurfaceShape39-vertices">
          <input semantic="POSITION" source="#polySurfaceShape39-positions"/>
        </vertices>
        <triangles material="DefaultSG" count="182">
          <input semantic="VERTEX" source="#polySurfaceShape39-vertices" offset="0"/>
          <input semantic="NORMAL" source="#polySurfaceShape39-normals" offset="1"/>
          <input semantic="TEXCOORD" source="#polySurfaceShape39-map1" offset="2" set="0"/>
          <input semantic="TEXCOORD" source="#polySurfaceShape39-Texture" offset="3" set="1"/>
          <p>13 0 0 0 54 1 0 1 15 3 0 3 15 3 0 3 54 1 0 1 55 2 0 2 0 5 1 5 16 6 2 6 2 4 0 4 2 4 0 4 16 6 2 6 17 7 3 7 0 5 4 5 34 8 5 8 16 6 7 6 16 6 7 6 34 8 5 8 35 9 6 9 3 10 8 10 2 11 9 11 19 13 11 13 19 13 11 13 2 11 9 11 17 12 10 12 5 14 12 14 8 15 13 15 20 17 15 17 20 17 15 17 8 15 13 15 21 16 14 16 4 18 16 18 5 19 17 14 22 21 19 19 22 21 19 19 5 19 17 14 20 20 18 17 6 22 20 20 4 23 21 18 23 25 23 21 23 25 23 21 4 23 21 18 22 24 22 19 7 26 24 22 6 27 25 20 24 29 27 23 24 29 27 23 6 27 25 20 23 28 26 21 48 31 29 25 7 32 30 22 66 30 28 24 66 30 28 24 7 32 30 22 24 33 31 23 3 35 33 10 19 36 34 13 8 34 32 15 8 34 32 15 19 36 34 13 21 37 35 16 1 38 36 26 9 39 37 27 18 41 39 29 18 41 39 29 9 39 37 27 25 40 38 28 9 42 40 30 10 43 41 31 25 45 43 33 25 45 43 33 10 43 41 31 26 44 42 32 10 46 44 31 12 47 45 34 26 49 47 32 26 49 47 32 12 47 45 34 27 48 46 35 11 50 48 36 14 51 49 37 28 53 51 39 28 53 51 39 14 51 49 37 29 52 50 38 12 54 52 34 11 55 53 36 27 57 55 35 27 57 55 35 11 55 53 36 28 56 54 39 13 58 56 40 15 59 57 41 30 61 59 43 30 61 59 43 15 59 57 41 31 60 58 42 14 62 60 37 13 63 61 40 29 65 63 38 29 65 63 38 13 63 61 40 30 64 62 43 29 66 64 44 27 67 65 45 28 68 66 46 82 69 67 47 57 70 68 48 64 71 69 49 61 73 71 51 60 74 72 52 30 72 70 50 30 72 70 50 60 74 72 52 29 75 73 44 21 76 74 53 19 77 75 54 22 78 76 55 22 79 77 55 19 80 78 54 17 81 79 56 33 82 80 57 32 83 81 58 18 41 83 29 18 41 83 29 32 83 81 58 1 38 82 26 61 73 84 51 78 84 85 59 60 74 87 52 60 74 87 52 78 84 85 59 59 85 86 60 34 87 5 8 36 88 88 61 35 86 6 9 35 86 6 9 36 88 88 61 37 89 89 62 58 91 91 64 88 92 92 65 57 70 68 48 88 92 92 65 89 90 90 63 57 70 68 48 89 90 90 63 64 71 69 49 57 70 68 48 37 93 89 62 36 94 88 61 33 96 80 57 33 96 80 57 36 94 88 61 32 95 81 58 59 85 86 60 62 97 93 66 58 91 91 64 58 91 91 64 62 97 93 66 88 92 92 65 62 97 93 66 87 98 94 67 88 92 92 65 47 100 0 69 14 101 0 70 1 99 0 68 1 99 0 68 14 101 0 70 9 102 0 71 46 103 0 72 47 100 0 69 32 104 0 73 32 104 0 73 47 100 0 69 1 99 0 68 46 103 0 72 32 104 0 73 45 105 0 74 45 105 0 74 32 104 0 73 36 106 0 75 44 107 0 76 45 105 0 74 34 108 0 77 34 108 0 77 45 105 0 74 36 106 0 75 44 107 0 76 34 108 0 77 43 109 0 78 43 109 0 78 34 108 0 77 0 110 0 79 8 114 0 83 5 115 0 84 3 113 0 82 5 115 0 84 4 111 0 80 3 113 0 82 0 110 0 79 2 112 0 81 43 109 0 78 2 112 0 81 3 113 0 82 43 109 0 78 4 111 0 80 43 109 0 78 3 113 0 82 6 116 0 85 42 117 0 86 4 111 0 80 4 111 0 80 42 117 0 86 43 109 0 78 79 118 0 87 41 119 0 88 44 107 0 76 41 119 0 88 92 120 0 89 44 107 0 76 46 103 0 72 45 105 0 74 39 122 0 91 45 105 0 74 83 123 0 92 39 122 0 91 84 121 0 90 39 122 0 91 83 123 0 92 75 124 0 93 38 125 0 94 46 103 0 72 46 103 0 72 38 125 0 94 47 100 0 69 47 100 0 69 38 125 0 94 14 101 0 70 14 101 0 70 38 125 0 94 13 0 0 0 10 126 0 95 14 127 0 70 12 128 0 96 9 129 0 71 14 130 0 70 10 131 0 95 12 132 0 96 14 133 0 70 11 134 0 97 38 125 0 94 53 135 0 98 13 0 0 0 13 0 0 0 53 135 0 98 54 1 0 1 76 136 0 99 53 135 0 98 75 124 0 93 75 124 0 93 53 135 0 98 38 125 0 94 85 137 0 100 52 138 0 101 84 121 0 90 84 121 0 90 52 138 0 101 39 122 0 91 50 139 0 102 91 140 0 103 41 119 0 88 41 119 0 88 91 140 0 103 92 120 0 89 50 139 0 102 41 119 0 88 80 141 0 104 80 141 0 104 41 119 0 88 79 118 0 87 48 142 0 105 49 143 0 106 7 144 0 107 7 144 0 107 49 143 0 106 6 116 0 85 49 143 0 106 42 117 0 86 6 116 0 85 65 146 96 109 23 147 97 110 56 145 95 108 56 145 95 108 23 147 97 110 22 148 77 55 21 149 74 53 22 150 76 55 20 151 98 111 56 145 95 108 22 148 77 55 16 152 99 112 16 152 99 112 22 148 77 55 17 153 79 56 57 70 68 48 56 145 100 108 35 154 102 113 35 154 102 113 56 145 100 108 16 152 101 112 58 91 91 64 57 70 68 48 37 155 103 114 37 155 103 114 57 70 68 48 35 154 102 113 58 91 91 64 37 155 103 114 59 85 86 60 59 85 86 60 37 155 103 114 33 156 104 115 60 74 87 52 59 85 86 60 18 157 105 116 18 157 105 116 59 85 86 60 33 156 104 115 29 158 73 44 25 159 106 117 26 160 107 118 60 74 72 52 18 157 108 116 29 75 73 44 29 75 73 44 18 157 108 116 25 161 106 117 26 162 109 118 27 163 65 45 29 164 64 44 66 166 111 120 24 167 112 121 67 165 110 119 67 165 110 119 24 167 112 121 23 168 113 110 23 147 97 110 65 146 96 109 67 170 115 119 67 170 115 119 65 146 96 109 68 169 114 122 69 171 116 123 81 172 117 124 64 71 69 49 64 71 69 49 81 172 117 124 82 69 67 47 90 173 118 125 69 171 116 123 89 90 90 63 89 90 90 63 69 171 116 123 64 71 69 49 86 175 120 127 87 98 94 67 71 174 119 126 71 174 119 126 87 98 94 67 62 97 93 66 72 176 121 128 77 177 122 129 61 73 84 51 61 73 84 51 77 177 122 129 78 84 85 59 30 72 70 50 73 178 123 130 61 73 71 51 61 73 71 51 73 178 123 130 72 176 124 128 74 179 125 131 73 178 126 130 31 180 128 132 31 180 128 132 73 178 126 130 30 72 127 50 55 182 130 133 74 183 131 134 15 181 129 41 15 181 129 41 74 183 131 134 31 184 132 42 55 185 133 135 54 186 134 136 74 188 136 138 74 188 136 138 54 186 134 136 73 187 135 137 73 187 138 137 54 186 139 136 72 189 137 139 72 189 137 139 54 186 139 136 53 190 140 140 76 191 142 141 77 192 143 142 53 190 141 140 53 190 141 140 77 192 143 142 72 189 144 139 86 193 145 143 71 194 146 144 85 196 148 146 85 196 148 146 71 194 146 144 52 195 147 145 90 198 150 148 91 199 151 149 69 197 149 147 69 197 149 147 91 199 151 149 50 200 152 150 69 197 154 147 50 200 155 150 81 201 153 151 81 201 153 151 50 200 155 150 80 202 156 152 68 204 158 154 49 205 159 155 67 203 157 153 67 203 157 153 49 205 159 155 48 206 160 156 66 207 161 157 67 203 162 153 48 206 163 156 39 122 0 91 75 124 0 93 46 103 0 72 52 138 0 101 76 136 0 99 39 122 0 91 39 122 0 91 76 136 0 99 75 124 0 93 77 192 143 142 76 191 142 141 71 194 165 144 71 194 165 144 76 191 142 141 52 195 164 145 77 177 122 129 71 174 119 126 78 84 85 59 78 84 85 59 71 174 119 126 62 97 93 66 59 85 86 60 78 84 85 59 62 97 93 66 43 109 0 78 79 118 0 87 44 107 0 76 80 141 0 104 79 118 0 87 49 143 0 106 49 143 0 106 79 118 0 87 42 117 0 86 68 204 166 154 81 201 153 151 49 205 167 155 49 205 167 155 81 201 153 151 80 202 156 152 81 172 117 124 68 169 168 122 82 69 67 47 82 69 67 47 68 169 168 122 65 146 169 109 57 70 68 48 82 69 67 47 56 145 100 108 56 145 100 108 82 69 67 47 65 146 169 109 40 208 0 158 84 121 0 90 83 123 0 92 51 209 0 159 85 137 0 100 40 208 0 158 40 208 0 158 85 137 0 100 84 121 0 90 70 210 170 160 86 193 145 143 51 211 171 161 51 211 171 161 86 193 145 143 85 196 148 146 87 98 94 67 86 175 120 127 63 213 173 163 63 213 173 163 86 175 120 127 70 212 172 162 88 92 92 65 87 98 94 67 63 213 173 163 63 213 173 163 89 90 90 63 88 92 92 65 70 212 172 162 90 173 118 125 63 213 173 163 63 213 173 163 90 173 118 125 89 90 90 63 90 198 150 148 70 210 174 160 91 199 151 149 91 199 151 149 70 210 174 160 51 211 175 161 91 140 0 103 51 209 0 159 92 120 0 89 92 120 0 89 51 209 0 159 40 208 0 158 83 123 0 92 92 120 0 89 40 208 0 158 42 117 0 86 79 118 0 87 43 109 0 78 92 120 0 89 83 123 0 92 44 107 0 76 44 107 0 76 83 123 0 92 45 105 0 74</p>
        </triangles>
      </mesh>
      <extra>
        <technique profile="OpenCOLLADAMaya">
          <originalMayaNodeId>polySurfaceShape39</originalMayaNodeId>
          <double_sided>1</double_sided>
        </technique>
      </extra>
    </geometry>
  </library_geometries>
  <library_visual_scenes>
    <visual_scene id="VisualSceneNode" name="debris">
      <node id="polySurface38" name="polySurface38" type="NODE">
        <matrix sid="transform">1 0 0 0 0 1 0 0 0 0 1 0 0 0 0 1</matrix>
        <instance_geometry url="#polySurfaceShape39">
          <bind_material>
            <technique_common>
              <instance_material symbol="DefaultSG" target="#lambert2">
                <bind_vertex_input semantic="TEX0" input_semantic="TEXCOORD" input_set="1"/>
              </instance_material>
            </technique_common>
          </bind_material>
        </instance_geometry>
        <extra>
          <technique profile="OpenCOLLADAMaya">
            <originalMayaNodeId>polySurface38</originalMayaNodeId>
          </technique>
        </extra>
      </node>
    </visual_scene>
  </library_visual_scenes>
  <scene>
    <instance_visual_scene url="#VisualSceneNode"/>
  </scene>
</COLLADA>