<?xml version="1.0" encoding="utf-8" ?>
<COLLADA xmlns="http://www.collada.org/2005/11/COLLADASchema" version="1.4.1">
    <asset>
        <contributor>
            <authoring_tool>modo 701 [Build 58358], Microsoft Windows 7 Service Pack 1 (6.1.7601 Service Pack 1)</authoring_tool>
            <comments>Plug-in: [Build 58358]; Use Absolute Path: No; Merge Reference Items: No; Save Hidden Items: No; Save Cameras: No; Save Lights: No; Save Locators: Yes; Save Triangles as Triangles: No; Order Vertex Maps Alphabetically: Yes; Bake Matrices: Yes; Save Vertex Normals: Yes; Save UV Texture Coordinates: Yes; Save Vertex Colors: Yes; Save Vertex Weights: Yes; Save Animation: Yes; Sample Animation: No; Sample Animation Start: 0; Sample Animation End: 1; Save modo Profile: No; Save Maya Profile: No; Save 3ds Max Profile: No; Formatted Arrays: No;</comments>
            <source_data>file:///D:/Work/Dropbox/Frictional%20Games%20-%20Team/Aaron/models/static_objects/station/walls/vent_shaft/vent_shaft.lxo</source_data>
        </contributor>
        <created>2013-12-03T11:52:44Z</created>
        <modified>2013-12-03T11:52:44Z</modified>
        <unit name="game" meter="1" />
        <up_axis>Y_UP</up_axis>
    </asset>
    <library_images>
        <image id="Image0001" name="Image0001">
            <init_from>file:///D:/Work/Dropbox/Frictional%20Games%20-%20Team/Aaron/models/static_objects/station/walls/vent_shaft/vent_shaft.psd</init_from>
        </image>
        <image id="Image0002" name="Image0002">
            <init_from>file:///D:/Work/Dropbox/Frictional%20Games%20-%20Team/Aaron/models/static_objects/station/walls/vent_shaft/vent_shaft_nrm.tga</init_from>
        </image>
        <image id="Image0003" name="Image0003">
            <init_from>file:///D:/Work/Dropbox/Frictional%20Games%20-%20Team/Aaron/models/static_objects/station/walls/vent_shaft/vent_shaft_spec.tga</init_from>
        </image>
    </library_images>
    <library_materials>
        <material id="Material-hp" name="hp">
            <instance_effect url="#Effect-hp" />
        </material>
        <material id="Material-low" name="low">
            <instance_effect url="#Effect-low" />
        </material>
    </library_materials>
    <library_effects>
        <effect id="Effect-hp" name="hp">
            <profile_COMMON>
                <technique sid="common">
                    <phong>
                        <diffuse>
                            <color sid="diffuse_effect_rgb">0.8 0.8 0.8 1</color>
                        </diffuse>
                        <specular>
                            <color sid="specular_effect_rgb">1.005 1.005 1.005 1</color>
                        </specular>
                        <shininess>
                            <float sid="specular_effect_rgb">17.1484</float>
                        </shininess>
                    </phong>
                </technique>
            </profile_COMMON>
        </effect>
        <effect id="Effect-low" name="low">
            <profile_COMMON>
                <newparam sid="Image0001-surface">
                    <surface type="2D">
                        <init_from>Image0001</init_from>
                        <format>A8R8G8B8</format>
                    </surface>
                </newparam>
                <newparam sid="Image0001-sampler">
                    <sampler2D>
                        <source>Image0001-surface</source>
                        <minfilter>LINEAR_MIPMAP_LINEAR</minfilter>
                        <magfilter>LINEAR</magfilter>
                    </sampler2D>
                </newparam>
                <newparam sid="Image0003-surface">
                    <surface type="2D">
                        <init_from>Image0003</init_from>
                        <format>A8R8G8B8</format>
                    </surface>
                </newparam>
                <newparam sid="Image0003-sampler">
                    <sampler2D>
                        <source>Image0003-surface</source>
                        <minfilter>LINEAR_MIPMAP_LINEAR</minfilter>
                        <magfilter>LINEAR</magfilter>
                    </sampler2D>
                </newparam>
                <technique sid="common">
                    <phong>
                        <diffuse>
                            <texture texture="Image0001-sampler" texcoord="uvSet1" />
                        </diffuse>
                        <specular>
                            <texture texture="Image0003-sampler" texcoord="uvSet1" />
                        </specular>
                        <shininess>
                            <float sid="specular_effect_rgb">64</float>
                        </shininess>
                    </phong>
                </technique>
            </profile_COMMON>
        </effect>
    </library_effects>
    <library_geometries>
        <geometry id="Geometry-mesh035" name="straight_vertical">
            <mesh>
                <source id="Geometry-mesh035-positions" name="positions">
                    <float_array id="Geometry-mesh035-positions-array" count="612">0.0615584 0.75 -2.22045e-016 0 1.4375 -0.765 0.015625 1.5 -0.765 0.015625 1.45313 -0.765 -0.03125 1.4375 0.71875 -0.03125 0.0625 0.71875 0 1.4375 0.72875 0 0.0625 0.72875 0 0.833057 0.72875 0 0.666943 0.72875 -0.03125 0.852539 0.71875 -0.03125 0.647461 0.71875 0 0.833057 0.708125 0 0.666943 0.708125 -0.03125 0.852539 0.698125 -0.03125 0.647461 0.698125 0 0.0625 -0.765 0.015625 0 -0.765 0.015625 0.046875 -0.765 0.015625 0.046875 0.765 0.015625 0 0.765 0 0.0625 0.765 0 1.4375 0.765 0.015625 1.45313 0.765 0.015625 1.5 0.765 0 1.4375 0.75 0 0.0625 0.75 0 0.75 0.75 -0.03125 1.4375 -0.71875 -0.03125 0.0625 -0.71875 0 1.4375 -0.72875 0 0.0625 -0.72875 0 0.833057 -0.72875 0 0.666943 -0.72875 -0.03125 0.852539 -0.71875 -0.03125 0.647461 -0.71875 0 0.833057 -0.708125 0 0.666943 -0.708125 -0.03125 0.852539 -0.698125 -0.03125 0.647461 -0.698125 0 1.4375 -0.75 0 0.0625 -0.75 0 0.75 -0.75 -0.015625 0 0.765 -0.015625 0 -0.765 -0.03125 1.5 -0.765 -0.03125 1.5 0.765 -0.03125 0.0625 0.765 -0.03125 1.4375 0.765 -0.03125 1.4375 -0.765 -0.03125 0.0625 -0.765 1 0.75 -0.688442 2 1.4375 -0.75 2 1.5 -0.734375 2 1.45313 -0.734375 0.03125 1.4375 -0.78125 0.03125 0.0625 -0.78125 0.02125 1.4375 -0.75 0.02125 0.0625 -0.75 0.02125 0.833057 -0.75 0.02125 0.666943 -0.75 0.03125 0.852539 -0.78125 0.03125 0.647461 -0.78125 0.0418749 0.833057 -0.75 0.0418749 0.666943 -0.75 0.0518751 0.852539 -0.78125 0.0518751 0.647461 -0.78125 2 0.0625 -0.75 2 0 -0.734375 2 0.046875 -0.734375 0 0.046875 -0.734375 0 0 -0.734375 0 0.0625 -0.75 0 1.4375 -0.75 0 1.45313 -0.734375 0 1.5 -0.734375 0 1.4375 -0.75 0 0.0625 -0.75 0 0.75 -0.75 1.96875 1.4375 -0.78125 1.96875 0.0625 -0.78125 1.97875 1.4375 -0.75 1.97875 0.0625 -0.75 1.97875 0.833057 -0.75 1.97875 0.666943 -0.75 1.96875 0.852539 -0.78125 1.96875 0.647461 -0.78125 1.95813 0.833057 -0.75 1.95813 0.666943 -0.75 1.94812 0.852539 -0.78125 1.94812 0.647461 -0.78125 2 1.4375 -0.75 2 0.0625 -0.75 2 0.75 -0.75 0 0 -0.765625 2 0 -0.765625 2 1.5 -0.78125 0 1.5 -0.78125 0 0.0625 -0.78125 0 1.4375 -0.78125 2 1.4375 -0.78125 2 0.0625 -0.78125 1 0.75 0.688442 2 1.4375 0.75 2 1.5 0.734375 2 1.45313 0.734375 0.03125 1.4375 0.78125 0.03125 0.0625 0.78125 0.02125 1.4375 0.75 0.02125 0.0625 0.75 0.02125 0.833057 0.75 0.02125 0.666943 0.75 0.03125 0.852539 0.78125 0.03125 0.647461 0.78125 0.0418749 0.833057 0.75 0.0418749 0.666943 0.75 0.0518751 0.852539 0.78125 0.0518751 0.647461 0.78125 2 0.0625 0.75 2 0 0.734375 2 0.046875 0.734375 0 0.046875 0.734375 0 0 0.734375 0 0.0625 0.75 0 1.4375 0.75 0 1.45313 0.734375 0 1.5 0.734375 0 1.4375 0.75 0 0.0625 0.75 0 0.75 0.75 1.96875 1.4375 0.78125 1.96875 0.0625 0.78125 1.97875 1.4375 0.75 1.97875 0.0625 0.75 1.97875 0.833057 0.75 1.97875 0.666943 0.75 1.96875 0.852539 0.78125 1.96875 0.647461 0.78125 1.95813 0.833057 0.75 1.95813 0.666943 0.75 1.94812 0.852539 0.78125 1.94812 0.647461 0.78125 2 1.4375 0.75 2 0.0625 0.75 2 0.75 0.75 0 0 0.765625 2 0 0.765625 2 1.5 0.78125 0 1.5 0.78125 0 0.0625 0.78125 0 1.4375 0.78125 2 1.4375 0.78125 2 0.0625 0.78125 1.93844 0.75 -2.22045e-016 2 1.4375 -0.765 1.98438 1.5 -0.765 1.98438 1.45313 -0.765 2.03125 1.4375 0.71875 2.03125 0.0625 0.71875 2 1.4375 0.72875 2 0.0625 0.72875 2 0.833057 0.72875 2 0.666943 0.72875 2.03125 0.852539 0.71875 2.03125 0.647461 0.71875 2 0.833057 0.708125 2 0.666943 0.708125 2.03125 0.852539 0.698125 2.03125 0.647461 0.698125 2 0.0625 -0.765 1.98438 0 -0.765 1.98438 0.046875 -0.765 1.98438 0.046875 0.765 1.98438 0 0.765 2 0.0625 0.765 2 1.4375 0.765 1.98438 1.45313 0.765 1.98438 1.5 0.765 2 1.4375 0.75 2 0.0625 0.75 2 0.75 0.75 2.03125 1.4375 -0.71875 2.03125 0.0625 -0.71875 2 1.4375 -0.72875 2 0.0625 -0.72875 2 0.833057 -0.72875 2 0.666943 -0.72875 2.03125 0.852539 -0.71875 2.03125 0.647461 -0.71875 2 0.833057 -0.708125 2 0.666943 -0.708125 2.03125 0.852539 -0.698125 2.03125 0.647461 -0.698125 2 1.4375 -0.75 2 0.0625 -0.75 2 0.75 -0.75 2.01563 0 0.765 2.01563 0 -0.765 2.03125 1.5 -0.765 2.03125 1.5 0.765 2.03125 0.0625 0.765 2.03125 1.4375 0.765 2.03125 1.4375 -0.765 2.03125 0.0625 -0.765</float_array>
                    <technique_common>
                        <accessor count="204" source="#Geometry-mesh035-positions-array" stride="3">
                            <param name="X" type="float" />
                            <param name="Y" type="float" />
                            <param name="Z" type="float" />
                        </accessor>
                    </technique_common>
                </source>
                <source id="Geometry-mesh035-normals" name="normals">
                    <float_array id="Geometry-mesh035-normals-array" count="318">1 0 0 0.995908 0.0671629 -0.0604629 0.995908 0.0671629 0.0604629 0.995908 -0.0671629 -0.0604629 0.995908 -0.0671629 0.0604629 0 0 1 0.0463592 0.0671126 0.996668 -0.0463592 0.0671126 0.996668 0.0463592 -0.0671126 0.996668 -0.0463592 -0.0671126 0.996668 0 0 -1 0.0463591 0.0671125 -0.996668 -0.0463591 0.0671125 -0.996668 0.0463591 -0.0671125 -0.996668 -0.0463591 -0.0671125 -0.996668 -1 0 0 -0.995908 0.0671628 -0.0604629 -0.995908 0.0671628 0.0604629 -0.995908 -0.0671628 -0.0604629 -0.995908 -0.0671628 0.0604629 0.252725 0.967538 0 0.505449 0.862856 0 0.862856 0.505449 0 0.967538 0.252725 0 0.304782 0 0.952422 0.707107 0.707107 0 0 1 0 0 0.848594 0.529044 0 0.848594 0.529044 0 0.848594 0.529044 0.952424 0 0.304775 0.952424 0 0.304775 0 0.707107 0.707107 0 -0.252725 0.967538 0 -0.505449 0.862856 0 -0.848594 0.529044 0 -0.848594 0.529044 0 -0.848594 0.529044 -0.952424 0 0.304775 -0.952424 0 0.304775 0 -0.92388 0.382683 0 -1 0 0 0.967538 -0.252725 0 0.505449 -0.862856 0 0.862856 -0.505449 0 0.252725 -0.967538 -0.952422 0 -0.304782 0 0.707107 -0.707107 -0.529044 0.848594 0 -0.529044 0.848594 0 -0.529044 0.848594 0 -0.304775 0 -0.952424 -0.304775 0 -0.952424 -0.707107 0.707107 0 -0.967538 -0.252725 0 -0.862856 -0.505449 0 -0.529044 -0.848594 0 -0.529044 -0.848594 0 -0.529044 -0.848594 0 -0.304775 0 0.952424 -0.304775 0 0.952424 -0.382683 -0.92388 0 0.304782 0 -0.952422 0.707107 -0.707107 0 0.529044 0.848594 0 0.529044 0.848594 0 0.529044 0.848594 0 0.304775 0 0.952424 0.304775 0 0.952424 0 0.967538 0.252725 0 0.862856 0.505449 0.952422 0 -0.304782 0 -0.707107 -0.707107 0 0.848594 -0.529044 0 0.848594 -0.529044 0 0.848594 -0.529044 -0.952424 0 -0.304775 -0.952424 0 -0.304775 -0.252725 0.967538 0 -0.505449 0.862856 0 0.304775 0 -0.952424 0.304775 0 -0.952424 0.967538 -0.252725 0 0.862856 -0.505449 0 0.529044 -0.848594 0 0.529044 -0.848594 0 0.529044 -0.848594 0 0.382683 -0.92388 0 0 0.505449 0.862856 0 0.252725 0.967538 -0.952422 0 0.304782 0.952424 0 -0.304775 0.952424 0 -0.304775 0 -0.252725 -0.967538 0 -0.505449 -0.862856 0 -0.848594 -0.529044 0 -0.848594 -0.529044 0 -0.848594 -0.529044 0 -0.92388 -0.382683 -0.862856 0.505449 0 -0.967538 0.252725 0 -0.304782 0 0.952422 0.952422 0 0.304782 0 -0.707107 0.707107 -0.304782 0 -0.952422 -0.707107 -0.707107 0</float_array>
                    <technique_common>
                        <accessor count="106" source="#Geometry-mesh035-normals-array" stride="3">
                            <param name="X" type="float" />
                            <param name="Y" type="float" />
                            <param name="Z" type="float" />
                        </accessor>
                    </technique_common>
                </source>
                <source id="Geometry-mesh035-uvSet1" name="uvSet1">
                    <float_array id="Geometry-mesh035-uvSet1-array" count="126">0.428867 0.927587 0.369146 0.927588 0.399006 0.912316 0.36829 0.88121 0.398242 0.86589 0.428195 0.881209 0.689169 0.819235 0.689169 0.00407554 0.829607 0.411652 0.970044 0.81923 0.970045 0.00406637 0.428867 0.942417 0.369146 0.942418 0.976413 0.81923 0.976414 0.00406646 0.980916 0.81923 0.980917 0.00406654 0.151848 0.927523 0.151849 0.912244 0.25201 0.991265 0.258332 0.969969 0.318564 0.991265 0.312241 0.969969 0.668745 0.819236 0.659192 0.819236 0.668745 0.00407587 0.659192 0.00407596 0.170799 0.993506 0.166155 0.983924 0.177102 0.972276 0.172458 0.962694 0.151846 0.951114 0.36214 0.951179 0.678298 0.819236 0.678297 0.00407568 0.247351 0.981653 0.253674 0.960356 0.150316 0.904815 0.150318 0.881151 0.361262 0.904874 0.150319 0.865825 0.6828 0.00407562 0.682801 0.819236 0.237144 0.993505 0.230842 0.972276 0.990469 0.81923 0.99047 0.00406663 0.3169 0.960357 0.323222 0.981653 0.646172 0.904816 0.435222 0.904872 0.64617 0.881152 0.996838 0.00406666 0.996837 0.81923 0.235485 0.962697 0.241788 0.983924 0.646171 0.951115 0.435873 0.951176 0.646169 0.927523 0.646168 0.912244 0.36829 0.896086 0.428195 0.896085 0.646169 0.865825</float_array>
                    <technique_common>
                        <accessor count="63" source="#Geometry-mesh035-uvSet1-array" stride="2">
                            <param name="S" type="float" />
                            <param name="T" type="float" />
                        </accessor>
                    </technique_common>
                </source>
                <vertices id="Geometry-mesh035-vertices">
                    <input semantic="POSITION" source="#Geometry-mesh035-positions" />
                </vertices>
                <polylist count="216" material="Material-low">
                    <input semantic="VERTEX" source="#Geometry-mesh035-vertices" offset="0" />
                    <input semantic="NORMAL" source="#Geometry-mesh035-normals" offset="1" />
                    <input semantic="TEXCOORD" source="#Geometry-mesh035-uvSet1" offset="2" set="0" />
                    <vcount>3 3 3 3 3 3 3 3 3 3 3 3 3 3 3 3 3 3 3 3 3 3 3 3 3 3 3 3 3 3 3 3 3 3 3 3 3 3 3 3 3 3 3 3 3 3 3 3 3 3 3 3 3 3 3 3 3 3 3 3 3 3 3 3 3 3 3 3 3 3 3 3 3 3 3 3 3 3 3 3 3 3 3 3 3 3 3 3 3 3 3 3 3 3 3 3 3 3 3 3 3 3 3 3 3 3 3 3 3 3 3 3 3 3 3 3 3 3 3 3 3 3 3 3 3 3 3 3 3 3 3 3 3 3 3 3 3 3 3 3 3 3 3 3 3 3 3 3 3 3 3 3 3 3 3 3 3 3 3 3 3 3 3 3 3 3 3 3 3 3 3 3 3 3 3 3 3 3 3 3 3 3 3 3 3 3 3 3 3 3 3 3 3 3 3 3 3 3 3 3 3 3 3 3 3 3 3 3 3 3 3 3 3 3 3 3</vcount>
                    <p>9 0 0 8 0 1 27 0 2 33 0 3 42 0 4 32 0 5 49 1 6 48 2 7 0 0 8 50 3 9 49 1 6 0 0 8 50 3 9 0 0 8 47 4 10 0 0 8 48 2 7 47 4 10 60 5 0 59 5 1 78 5 2 84 5 3 93 5 4 83 5 5 100 6 6 99 7 7 51 5 8 101 8 9 100 6 6 51 5 8 101 8 9 51 5 8 98 9 10 51 5 8 99 7 7 98 9 10 111 10 0 129 10 2 110 10 1 135 10 3 134 10 5 144 10 4 151 11 6 102 10 8 150 12 7 152 13 9 102 10 8 151 11 6 152 13 9 149 14 10 102 10 8 102 10 8 149 14 10 150 12 7 162 15 0 180 15 2 161 15 1 186 15 3 185 15 5 195 15 4 202 16 6 153 15 8 201 17 7 203 18 9 153 15 8 202 16 6 203 18 9 200 19 10 153 15 8 153 15 8 200 19 10 201 17 7 13 0 11 12 0 12 9 0 0 8 0 1 9 0 0 12 0 12 16 20 13 21 21 14 18 22 15 19 23 16 18 22 15 21 21 14 6 0 17 25 0 18 8 0 1 27 0 2 8 0 1 25 0 18 39 24 19 37 24 20 38 24 21 36 24 22 38 24 21 37 24 20 2 25 23 45 26 24 24 25 25 46 26 26 24 25 25 45 26 24 65 27 27 61 28 28 63 28 29 59 29 30 63 28 29 61 28 28 55 30 31 57 31 17 61 31 32 59 31 1 61 31 32 57 31 17 53 32 23 75 32 25 54 33 33 74 34 34 54 33 33 75 32 25 90 35 19 86 36 35 88 36 20 84 37 36 88 36 20 86 36 35 80 38 37 82 39 38 86 39 39 84 39 3 86 39 39 82 39 38 82 5 38 92 5 40 84 5 3 93 5 4 84 5 3 92 5 40 73 40 41 99 41 7 52 40 42 100 41 6 52 40 42 99 41 7 115 10 11 111 10 0 114 10 12 110 10 1 114 10 12 111 10 0 118 42 13 120 43 15 123 44 14 121 45 16 123 44 14 120 43 15 108 10 17 110 10 1 127 10 18 129 10 2 127 10 18 110 10 1 141 46 19 140 46 21 139 46 20 138 46 22 139 46 20 140 46 21 104 47 23 126 47 25 147 26 24 148 26 26 147 26 24 126 47 25 161 48 30 163 49 28 165 49 29 167 50 27 165 49 29 163 49 28 157 51 31 163 52 32 159 52 17 161 52 1 159 52 17 163 52 32 155 53 23 156 54 33 177 53 25 176 55 34 177 53 25 156 54 33 186 56 36 188 57 35 190 57 20 192 58 19 190 57 20 188 57 35 182 59 37 188 60 39 184 60 38 186 60 3 184 60 38 188 60 39 184 15 38 186 15 3 194 15 40 195 15 4 194 15 40 186 15 3 175 61 41 154 61 42 201 41 7 202 41 6 201 41 7 154 61 42 15 62 43 14 62 27 13 62 44 12 62 29 13 62 44 14 62 27 18 22 15 19 23 16 17 63 45 20 63 46 17 63 45 19 23 16 32 64 47 34 65 48 36 65 22 38 66 21 36 65 22 34 65 48 28 67 49 34 68 50 30 68 51 32 68 5 30 68 51 34 68 50 20 63 46 43 41 52 17 63 45 44 41 53 17 63 45 43 41 52 60 37 54 62 36 55 64 36 44 66 35 43 64 36 44 62 36 55 56 30 56 62 31 57 58 31 58 60 31 0 58 31 58 62 31 57 54 33 33 74 34 34 52 40 42 73 40 41 52 40 42 74 34 34 58 5 58 60 5 0 77 5 59 78 5 2 77 5 59 60 5 0 88 5 60 84 5 3 87 5 61 83 5 5 87 5 61 84 5 3 81 5 51 83 5 5 91 5 62 93 5 4 91 5 62 83 5 5 101 26 9 98 26 10 67 69 13 72 70 14 67 69 13 98 26 10 117 71 43 115 71 44 116 71 27 114 71 29 116 71 27 115 71 44 120 43 15 119 72 45 121 45 16 122 72 46 121 45 16 119 72 45 140 73 21 136 74 48 138 74 22 134 75 47 138 74 22 136 74 48 130 76 49 132 77 51 136 77 50 134 77 5 136 77 50 132 77 51 122 72 46 119 72 45 145 41 52 146 41 53 145 41 52 119 72 45 168 58 43 164 57 55 166 57 44 162 56 54 166 57 44 164 57 55 158 51 56 160 52 58 164 52 57 162 52 0 164 52 57 160 52 58 156 54 33 154 61 42 176 55 34 175 61 41 176 55 34 154 61 42 160 15 58 179 15 59 162 15 0 180 15 2 162 15 0 179 15 59 190 15 60 189 15 61 186 15 3 185 15 5 186 15 3 189 15 61 183 15 51 193 15 62 185 15 5 195 15 4 185 15 5 193 15 62 203 26 9 169 78 13 200 26 10 174 79 14 200 26 10 169 78 13 14 66 27 10 65 28 12 65 29 8 64 30 12 65 29 10 65 28 4 80 31 6 81 17 10 81 32 8 81 1 10 81 32 6 81 17 2 25 23 24 25 25 3 82 33 23 83 34 3 82 33 24 25 25 39 84 19 35 85 35 37 85 20 33 86 36 37 85 20 35 85 35 29 67 37 31 68 38 35 68 39 33 68 3 35 68 39 31 68 38 31 0 38 41 0 40 33 0 3 42 0 4 33 0 3 41 0 40 22 87 41 48 41 7 1 87 42 49 41 6 1 87 42 48 41 7 64 5 11 63 5 12 60 5 0 59 5 1 60 5 0 63 5 12 67 69 13 72 70 14 69 88 15 70 89 16 69 88 15 72 70 14 57 5 17 76 5 18 59 5 1 78 5 2 59 5 1 76 5 18 90 90 19 88 90 20 89 90 21 87 90 22 89 90 21 88 90 20 53 32 23 96 26 24 75 32 25 97 26 26 75 32 25 96 26 24 110 75 30 112 74 28 114 74 29 116 73 27 114 74 29 112 74 28 106 91 31 112 92 32 108 92 17 110 92 1 108 92 17 112 92 32 104 47 23 105 93 33 126 47 25 125 94 34 126 47 25 105 93 33 135 95 36 137 96 35 139 96 20 141 97 19 139 96 20 137 96 35 131 76 37 137 77 39 133 77 38 135 77 3 133 77 38 137 77 39 133 10 38 135 10 3 143 10 40 144 10 4 143 10 40 135 10 3 124 98 41 103 98 42 150 41 7 151 41 6 150 41 7 103 98 42 166 15 11 162 15 0 165 15 12 161 15 1 165 15 12 162 15 0 169 78 13 171 99 15 174 79 14 172 100 16 174 79 14 171 99 15 159 15 17 161 15 1 178 15 18 180 15 2 178 15 18 161 15 1 192 101 19 191 101 21 190 101 20 189 101 22 190 101 20 191 101 21 155 53 23 177 53 25 198 26 24 199 26 26 198 26 24 177 53 25 9 86 54 11 85 55 13 85 44 15 84 43 13 85 44 11 85 55 5 80 56 11 81 57 7 81 58 9 81 0 7 81 58 11 81 57 3 82 33 23 83 34 1 87 42 22 87 41 1 87 42 23 83 34 7 0 58 9 0 0 26 0 59 27 0 2 26 0 59 9 0 0 37 0 60 33 0 3 36 0 61 32 0 5 36 0 61 33 0 3 30 0 51 32 0 5 40 0 62 42 0 4 40 0 62 32 0 5 50 26 9 47 26 10 16 20 13 21 21 14 16 20 13 47 26 10 66 102 43 65 102 27 64 102 44 63 102 29 64 102 44 65 102 27 69 88 15 70 89 16 68 103 45 71 103 46 68 103 45 70 89 16 83 29 47 85 28 48 87 28 22 89 27 21 87 28 22 85 28 48 79 38 49 85 39 50 81 39 51 83 39 5 81 39 51 85 39 50 71 103 46 94 41 52 68 103 45 95 41 53 68 103 45 94 41 52 117 97 43 113 96 55 115 96 44 111 95 54 115 96 44 113 96 55 107 91 56 109 92 58 113 92 57 111 92 0 113 92 57 109 92 58 105 93 33 103 98 42 125 94 34 124 98 41 125 94 34 103 98 42 109 10 58 128 10 59 111 10 0 129 10 2 111 10 0 128 10 59 139 10 60 138 10 61 135 10 3 134 10 5 135 10 3 138 10 61 132 10 51 142 10 62 134 10 5 144 10 4 134 10 5 142 10 62 152 26 9 118 42 13 149 26 10 123 44 14 149 26 10 118 42 13 168 104 43 166 104 44 167 104 27 165 104 29 167 104 27 166 104 44 171 99 15 170 105 45 172 100 16 173 105 46 172 100 16 170 105 45 191 50 21 187 49 48 189 49 22 185 48 47 189 49 22 187 49 48 181 59 49 183 60 51 187 60 50 185 60 5 187 60 50 183 60 51 173 105 46 170 105 45 196 41 52 197 41 53 196 41 52 170 105 45</p>
                </polylist>
            </mesh>
        </geometry>
    </library_geometries>
    <library_visual_scenes>
        <visual_scene id="DefaultScene">
            <node id="groupLocator032Node" name="low" type="NODE">
                <matrix sid="transform">1 0 0 0 0 1 0 0 0 0 1 0 0 0 0 1</matrix>
                <node id="Geometry-mesh035Node" name="straight_vertical" type="NODE">
                    <matrix sid="transform">1 0 0 0 0 1 0 0 0 0 1 0 0 0 0 1</matrix>
                    <instance_geometry url="#Geometry-mesh035">
                        <bind_material>
                            <technique_common>
                                <instance_material symbol="Material-low" target="#Material-low">
                                    <bind_vertex_input semantic="uvSet1" input_semantic="TEXCOORD" input_set="0" />
                                </instance_material>
                            </technique_common>
                        </bind_material>
                    </instance_geometry>
                </node>
            </node>
            <node id="groupLocator048Node" name="Texture_Group" type="NODE">
                <matrix sid="transform">1 0 0 0 0 1 0 0 0 0 1 0 0 0 0 1</matrix>
                <node id="txtrLocator045Node" name="vent_shaft_spec__Image___Texture_" type="NODE">
                    <matrix sid="transform">1 0 0 0 0 1 0 0 0 0 1 0 0 0 0 1</matrix>
                </node>
                <node id="txtrLocator040Node" name="vent_shaft__Image___Texture_" type="NODE">
                    <matrix sid="transform">1 0 0 0 0 1 0 0 0 0 1 0 0 0 0 1</matrix>
                </node>
                <node id="txtrLocator050Node" name="vent_shaft_nrm__Image___Texture_" type="NODE">
                    <matrix sid="transform">1 0 0 0 0 1 0 0 0 0 1 0 0 0 0 1</matrix>
                </node>
            </node>
        </visual_scene>
    </library_visual_scenes>
    <scene>
        <instance_visual_scene url="#DefaultScene" />
    </scene>
</COLLADA>
