<?xml version="1.0" encoding="utf-8"?>
<COLLADA xmlns="http://www.collada.org/2005/11/COLLADASchema" version="1.4.1" xmlns:xsi="http://www.w3.org/2001/XMLSchema-instance">
  <asset>
    <contributor>
      <author>Blender User</author>
      <authoring_tool>Blender 4.5.9 LTS commit date:2026-04-20, commit time:14:24, hash:8bf95cbd38d1</authoring_tool>
    </contributor>
    <created>2026-05-08T02:25:54</created>
    <modified>2026-05-08T02:25:54</modified>
    <unit name="meter" meter="1"/>
    <up_axis>Z_UP</up_axis>
  </asset>
  <library_effects>
    <effect id="hpl3export_M_RooftopBoxes_01-effect">
      <profile_COMMON>
        <newparam sid="hpl3export_M_RooftopBoxes_01_DIFFUSE-surface">
          <surface type="2D">
            <init_from>hpl3export_M_RooftopBoxes_01_DIFFUSE</init_from>
          </surface>
        </newparam>
        <newparam sid="hpl3export_M_RooftopBoxes_01_DIFFUSE-sampler">
          <sampler2D>
            <source>hpl3export_M_RooftopBoxes_01_DIFFUSE-surface</source>
          </sampler2D>
        </newparam>
        <technique sid="common">
          <lambert>
            <emission>
              <color sid="emission">0 0 0 1</color>
            </emission>
            <diffuse>
              <texture texture="hpl3export_M_RooftopBoxes_01_DIFFUSE-sampler" texcoord="EXTRAUV0"/>
            </diffuse>
            <index_of_refraction>
              <float sid="ior">1.5</float>
            </index_of_refraction>
          </lambert>
        </technique>
      </profile_COMMON>
    </effect>
  </library_effects>
  <library_images>
    <image id="hpl3export_M_RooftopBoxes_01_DIFFUSE" name="hpl3export_M_RooftopBoxes_01_DIFFUSE">
      <init_from>/C:/Program%20Files%20(x86)/Steam/steamapps/common/Amnesia%20The%20Bunker/mods/BunkersEdge/static_objects/city/rooftop/S_RooftopBoxes_01c/M_RooftopBoxes_01.dds</init_from>
    </image>
  </library_images>
  <library_materials>
    <material id="hpl3export_M_RooftopBoxes_01-material" name="hpl3export_M_RooftopBoxes_01">
      <instance_effect url="#hpl3export_M_RooftopBoxes_01-effect"/>
    </material>
  </library_materials>
  <library_geometries>
    <geometry id="S_RooftopBoxes_01c_001-mesh" name="S_RooftopBoxes_01c.001">
      <mesh>
        <source id="S_RooftopBoxes_01c_001-mesh-positions">
          <float_array id="S_RooftopBoxes_01c_001-mesh-positions-array" count="228">-0.184589 0.1802446 1.661788 -0.3372151 0.3161306 1.661788 -0.184589 0.1802446 1.733359 -0.3372151 0.3161306 1.733359 -0.3221937 0.02958196 1.733359 -0.184589 0.1802446 1.733359 -0.4748198 0.1654679 1.733359 -0.3372151 0.3161306 1.733359 -0.3221937 0.02958196 1.733359 -0.4748198 0.1654679 1.733359 -0.3221937 0.02958196 1.661788 -0.4748198 0.1654679 1.661788 -0.3372151 0.3161306 1.661788 -0.4748198 0.1654679 1.661788 -0.3372151 0.3161306 1.733359 -0.4748198 0.1654679 1.733359 -0.3221937 0.02958196 1.661788 -0.184589 0.1802446 1.661788 -0.3221937 0.02958196 1.733359 -0.184589 0.1802446 1.733359 -0.5749804 -0.02748054 0.8121066 -0.5610894 -0.02748054 0.8121066 -0.5770111 -0.0337885 0.9024619 -0.5590586 -0.0337888 0.9024619 -0.5749804 -0.02748054 0.8121066 -0.5680351 -0.01759773 0.8121064 -0.5610894 -0.02748054 0.8121066 -0.5680351 -0.0180158 0.8932957 -0.5680351 -0.01759773 0.8121064 -0.5625453 0.00121212 0.9170307 -0.5680349 0.00121212 0.9020689 -0.5735249 0.00121212 0.9170307 -0.6400001 0.3447847 1.661788 0 0.3447849 1.661788 -0.6400001 0.3447847 1.645762 0 0.3447849 1.645762 -0.64 -0.01109546 1.645762 0 -0.01109534 1.645762 -0.64 -0.01109546 1.661788 0 -0.01109534 1.661788 -0.6400001 0.3322231 1.645762 0 0.3322231 1.645762 -0.6400001 0.3322231 0 0 0.3322231 0 -0.64 0 0 0 0 0 -0.64 0 1.645762 0 0 1.645762 -0.6400001 0.3447847 1.645762 0 0.3447849 1.645762 -0.6400001 0.3322231 1.645762 0 0.3322231 1.645762 -0.64 0 1.645762 0 0 1.645762 -0.64 -0.01109546 1.645762 0 -0.01109534 1.645762 -0.64 -0.01109546 1.661788 0 -0.01109534 1.661788 -0.6400001 0.3447847 1.661788 0 0.3447849 1.661788 -0.64 0 1.645762 -0.64 -0.01109546 1.661788 -0.6400001 0.3322231 1.645762 -0.6400001 0.3447847 1.661788 0 0.3322231 1.645762 0 0.3447849 1.645762 0 0.3447849 1.661788 0 0 1.645762 0 0.3322231 0 0 0 0 -0.6400001 0.3322231 0 -0.64 0 0 -0.6400001 0.3447847 1.645762 -0.64 -0.01109546 1.645762 0 -0.01109534 1.661788 0 -0.01109534 1.645762</float_array>
          <technique_common>
            <accessor source="#S_RooftopBoxes_01c_001-mesh-positions-array" count="76" stride="3">
              <param name="X" type="float"/>
              <param name="Y" type="float"/>
              <param name="Z" type="float"/>
            </accessor>
          </technique_common>
        </source>
        <source id="S_RooftopBoxes_01c_001-mesh-normals">
          <float_array id="S_RooftopBoxes_01c_001-mesh-normals-array" count="174">0 -1.80936e-5 -1 -1 0 0 -1 -1.7014e-7 0 -1 -1.8837e-7 0 -1 0 0 -1 0 0 0.6649603 0.7468788 0 0.6649598 0.7468792 0 0.6649616 0.7468776 0 0.6649621 0.7468771 0 -1 -4.36057e-7 0 -1 -3.80772e-7 0 1 1.19209e-7 0 1 1.1921e-7 0 1 1.1921e-7 0 0 0 1 0 0 1 0 0 1 0 0 1 -2.12933e-7 0 -1 -2.15308e-7 0 -1 0 0 -1 0 0 -1 0 0 -1 0 0 -1 0 0 -1 1.19209e-7 -1 0 -1.39698e-7 1 0 -1.39698e-7 1 0 2.13912e-7 -1 0 -1.39698e-7 1 0 0.7316629 -0.5721119 0.3706177 0.7006203 -0.2428711 0.6709283 -0.6932312 -0.2170175 0.6872655 -0.7258788 -0.5797873 0.3700631 -0.8963444 -0.4380358 -0.06849312 0.899856 -0.4332574 -0.05047017 0.7383807 -0.6743842 0 0.7383807 -0.6743841 0 0.7383807 -0.6743842 0 0.7383806 -0.6743842 0 -0.7383805 0.6743844 0 -0.7383806 0.6743842 0 -0.7383803 0.6743845 0 -0.7383802 0.6743847 0 -0.6649613 -0.7468779 0 -0.6649618 -0.7468775 0 -0.66496 -0.7468789 0 -0.6649596 -0.7468794 0 0 0 1 0 0 1 1.78698e-7 0 1 1 1.1921e-7 0 1 1.1921e-7 0 1 1.1921e-7 0 0.03202092 0.4734978 -0.8802129 0.02328586 0.8576166 -0.5137622 0.005790114 0.999792 0.01955634</float_array>
          <technique_common>
            <accessor source="#S_RooftopBoxes_01c_001-mesh-normals-array" count="58" stride="3">
              <param name="X" type="float"/>
              <param name="Y" type="float"/>
              <param name="Z" type="float"/>
            </accessor>
          </technique_common>
        </source>
        <source id="S_RooftopBoxes_01c_001-mesh-map">
          <float_array id="S_RooftopBoxes_01c_001-mesh-map-array" count="294">0.6552734 0.2426757 0.6450195 0.2426757 0.6503906 0.2363281 0.00591278 0.1884765 0.00591278 0.1699218 0.01427459 0.1884765 0.01427459 0.1884765 0.00591278 0.1699218 0.01427459 0.04736328 0.00591278 0.1699218 0.00591278 0.05566406 0.01427459 0.04736328 0.00591278 0.04003906 0.01427459 0.04736328 0.00591278 0.05566406 0.887207 0.02880859 0.887207 0.006347656 0.956543 0.006347656 0.956543 0.02880859 0.887207 0.02880859 0.956543 0.006347656 0.6235352 0.2329101 0.005996704 0.2329101 0.005996704 0.3535156 0.6074219 0.3535156 0.6235352 0.2329101 0.005996704 0.3535156 0.005996704 0.2329101 0.6235352 0.2329101 0.6074219 0.3535156 0.005996704 0.3535156 0.005996704 0.2329101 0.6074219 0.3535156 0.2568359 0.1811523 0.2568359 0.04736328 0.02397155 0.04736328 0.02397155 0.1811523 0.2568359 0.1811523 0.02397155 0.04736328 0.2568359 0.02441406 0.2568359 0.008300781 0.02397155 0.008300781 0.02397155 0.02441406 0.2568359 0.02441406 0.02397155 0.008300781 0.2568359 0.2226562 0.2568359 0.2080078 0.02397155 0.2080078 0.02397155 0.2226562 0.2568359 0.2226562 0.02397155 0.2080078 0.5112305 0.9667664 0.5112305 0.3647461 0.7441406 0.3647461 0.7441406 0.9667664 0.5112305 0.9667664 0.7441406 0.3647461 0.7553711 0.3647461 0.7553711 0.9828949 0.9873047 0.9828949 0.9873047 0.3647461 0.7553711 0.3647461 0.9873047 0.9828949 0.2568359 0.02929687 0.2568359 0.02441406 0.02397155 0.02441406 0.02397155 0.02929687 0.2568359 0.02929687 0.02397155 0.02441406 0.2568359 0.2080078 0.2568359 0.1982421 0.02397155 0.1982421 0.02397155 0.2080078 0.2568359 0.2080078 0.02397155 0.1982421 0.6552734 0.2749024 0.6542969 0.2875977 0.6459961 0.2875977 0.6450195 0.2749024 0.6552734 0.2749024 0.6459961 0.2875977 0.6450195 0.2749024 0.6450195 0.2426757 0.6552734 0.2426757 0.6552734 0.2749024 0.6450195 0.2749024 0.6552734 0.2426757 0.8740234 0.1074218 0.8486328 0.1074218 0.8486328 0.03857421 0.8740234 0.03857421 0.8740234 0.1074218 0.8486328 0.03857421 0.9682617 0.03857421 0.9936524 0.03857421 0.9936524 0.1074218 0.9682617 0.1074218 0.9682617 0.03857421 0.9936524 0.1074218 0.887207 0.1420898 0.887207 0.1171875 0.956543 0.1171875 0.956543 0.1420898 0.887207 0.1420898 0.956543 0.1171875 0.956543 0.1074218 0.887207 0.1074218 0.887207 0.03857421 0.956543 0.03857421 0.956543 0.1074218 0.887207 0.03857421 0.01421356 0.1884765 0.005966186 0.1699218 0.005966186 0.1884765 0.01421356 0.1884765 0.01421356 0.04736328 0.005966186 0.1699218 0.01421356 0.04736328 0.005966186 0.05566406 0.005966186 0.1699218 0.005966186 0.04003906 0.005966186 0.05566406 0.01421356 0.04736328 0.6611328 0.2822266 0.6542969 0.2875977 0.6635742 0.2714844 0.6542969 0.2875977 0.6552734 0.2749024 0.6635742 0.2714844 0.6635742 0.2421875 0.6635742 0.2714844 0.6552734 0.2749024 0.6552734 0.2426757 0.6635742 0.2421875 0.6552734 0.2749024 0.637207 0.2714844 0.637207 0.2421875 0.6450195 0.2426757 0.6450195 0.2749024 0.637207 0.2714844 0.6450195 0.2426757 0.637207 0.2714844 0.6450195 0.2749024 0.6396484 0.2822266 0.6450195 0.2749024 0.6459961 0.2875977 0.6396484 0.2822266</float_array>
          <technique_common>
            <accessor source="#S_RooftopBoxes_01c_001-mesh-map-array" count="147" stride="2">
              <param name="S" type="float"/>
              <param name="T" type="float"/>
            </accessor>
          </technique_common>
        </source>
        <vertices id="S_RooftopBoxes_01c_001-mesh-vertices">
          <input semantic="POSITION" source="#S_RooftopBoxes_01c_001-mesh-positions"/>
        </vertices>
        <triangles material="hpl3export_M_RooftopBoxes_01-material" count="49">
          <input semantic="VERTEX" source="#S_RooftopBoxes_01c_001-mesh-vertices" offset="0"/>
          <input semantic="NORMAL" source="#S_RooftopBoxes_01c_001-mesh-normals" offset="1"/>
          <input semantic="TEXCOORD" source="#S_RooftopBoxes_01c_001-mesh-map" offset="2" set="0"/>
          <p>26 0 0 24 0 1 25 0 2 72 1 3 62 2 4 63 3 5 63 3 6 62 2 7 61 4 8 62 2 9 60 5 10 61 4 11 73 1 12 61 4 13 60 5 14 2 6 15 0 7 16 1 8 17 3 9 18 2 6 19 1 8 20 62 2 21 70 10 22 71 11 23 60 5 24 62 2 25 71 11 26 68 12 27 64 13 28 67 14 29 69 12 30 68 12 31 67 14 32 58 15 33 56 16 34 57 17 35 59 18 36 58 15 37 57 17 38 54 19 39 52 20 40 53 21 41 55 22 42 54 19 43 53 21 44 50 23 45 48 24 46 49 25 47 51 22 48 50 23 49 49 25 50 46 26 51 44 26 52 45 26 53 47 26 54 46 26 55 45 26 56 42 27 57 40 28 58 41 27 59 43 27 60 42 27 61 41 27 62 38 29 63 36 29 64 37 29 65 39 29 66 38 29 67 37 29 68 34 30 69 32 30 70 33 28 71 35 28 72 34 30 73 33 28 74 23 31 75 29 32 76 31 33 77 22 34 78 23 31 79 31 33 80 22 34 81 20 35 82 21 36 83 23 31 84 22 34 85 21 36 86 18 37 87 16 38 88 17 39 89 19 40 90 18 37 91 17 39 92 14 41 93 12 42 94 13 43 95 15 44 96 14 41 97 13 43 98 10 45 99 8 46 100 9 47 101 11 48 102 10 45 103 9 47 104 6 49 105 4 18 106 5 50 107 7 51 108 6 49 109 5 50 110 66 52 111 64 13 112 65 12 113 66 52 114 74 53 115 64 13 116 74 53 117 67 14 118 64 13 119 75 54 120 67 14 121 74 53 122 30 55 123 29 32 124 27 56 125 29 32 126 23 31 127 27 56 128 28 57 129 27 56 130 23 31 131 21 36 132 28 57 133 23 31 134 27 56 135 28 57 136 20 35 137 22 34 138 27 56 139 20 35 140 27 56 141 22 34 142 30 55 143 22 34 144 31 33 145 30 55 146</p>
        </triangles>
      </mesh>
    </geometry>
  </library_geometries>
  <library_controllers/>
  <library_visual_scenes>
    <visual_scene id="Scene" name="Scene">
      <node id="S_RooftopBoxes_01c_002" name="S_RooftopBoxes_01c.002" type="NODE">
        <matrix sid="transform">0 -1 0 0 1 0 0 0 0 0 1 0 0 0 0 1</matrix>
      </node>
      <node id="S_RooftopBoxes_01c_003" name="S_RooftopBoxes_01c.003" type="NODE">
        <matrix sid="transform">1 0 0 0 0 1 0 0 0 0 1 0 0 0 0 1</matrix>
        <instance_geometry url="#S_RooftopBoxes_01c_001-mesh" name="S_RooftopBoxes_01c.003">
          <bind_material>
            <technique_common>
              <instance_material symbol="hpl3export_M_RooftopBoxes_01-material" target="#hpl3export_M_RooftopBoxes_01-material"/>
            </technique_common>
          </bind_material>
        </instance_geometry>
      </node>
      <node id="S_RooftopBoxes_01c_002" name="S_RooftopBoxes_01c.002" type="NODE">
        <matrix sid="transform">0 -1 0 0 1 0 0 0 0 0 1 0 0 0 0 1</matrix>
      </node>
    </visual_scene>
  </library_visual_scenes>
  <scene>
    <instance_visual_scene url="#Scene"/>
  </scene>
</COLLADA>