<?xml version="1.0" encoding="utf-8"?>
<COLLADA xmlns="http://www.collada.org/2005/11/COLLADASchema" version="1.4.1">
  <asset>
    <contributor>
      <author>Marc</author>
      <authoring_tool>OpenCOLLADA2008</authoring_tool>
      <comments>
			ColladaMaya export options: 
			bakeTransforms=0;relativePaths=0;copyTextures=0;exportTriangles=1;exportCgfxFileReferences=1;
			isSampling=0;curveConstrainSampling=1;removeStaticCurves=0;exportPolygonMeshes=1;exportLights=1;
			exportCameras=1;exportJointsAndSkin=1;exportAnimations=1;exportInvisibleNodes=0;exportDefaultCameras=0;
			exportTexCoords=1;exportNormals=1;exportNormalsPerVertex=1;exportVertexColors=1;exportVertexColorsPerVertex=1;
			exportTexTangents=0;exportTangents=0;exportReferencedMaterials=0;exportMaterialsOnly=0;
			exportXRefs=1;dereferenceXRefs=1;exportCameraAsLookat=0;cameraXFov=0;cameraYFov=1;doublePrecision=0
		</comments>
      <source_data>file:///F:/Dropbox/Team/depth_marc/models/station/traintunnel_flesher_hole.mb</source_data>
    </contributor>
    <created>2013-11-18T11:53:15</created>
    <modified>2013-11-18T11:53:15</modified>
    <unit name="meter" meter="1"/>
    <up_axis>Y_UP</up_axis>
  </asset>
  <library_materials>
    <material id="lambert3" name="lambert3">
      <instance_effect url="#lambert3-fx"/>
    </material>
  </library_materials>
  <library_effects>
    <effect id="lambert3-fx">
      <profile_COMMON>
        <newparam sid="file1-surface">
          <surface type="2D">
            <init_from>file1</init_from>
          </surface>
        </newparam>
        <newparam sid="file1-sampler">
          <sampler2D>
            <source>file1-surface</source>
          </sampler2D>
        </newparam>
        <technique sid="common">
          <lambert>
            <emission>
              <color>0 0 0 1</color>
            </emission>
            <ambient>
              <color>0 0 0 1</color>
            </ambient>
            <diffuse>
              <texture texture="file1-sampler" texcoord="TEX0">
                <extra>
                  <technique profile="OpenCOLLADAMaya">
                    <blend_mode>NONE</blend_mode>
                    <coverageU>1</coverageU>
                    <coverageV>1</coverageV>
                    <fast>0</fast>
                    <mirrorU>0</mirrorU>
                    <mirrorV>0</mirrorV>
                    <noiseU>0</noiseU>
                    <noiseV>0</noiseV>
                    <offsetU>0</offsetU>
                    <offsetV>0</offsetV>
                    <repeatU>1</repeatU>
                    <repeatV>1</repeatV>
                    <rotateFrame>0</rotateFrame>
                    <rotateUV>0</rotateUV>
                    <stagger>0</stagger>
                    <translateFrameU>0</translateFrameU>
                    <translateFrameV>0</translateFrameV>
                    <wrapU>1</wrapU>
                    <wrapV>1</wrapV>
                  </technique>
                </extra>
              </texture>
            </diffuse>
            <transparent opaque="RGB_ZERO">
              <color>0 0 0 1</color>
            </transparent>
            <transparency>
              <float>1</float>
            </transparency>
          </lambert>
        </technique>
      </profile_COMMON>
    </effect>
  </library_effects>
  <library_images>
    <image id="file1" name="file1">
      <init_from>file:///F:/depth/redist/static_objects/station/trainstation.dds</init_from>
      <extra>
        <technique profile="OpenCOLLADAMaya">
          <dgnode_type>kFile</dgnode_type>
          <image_sequence>0</image_sequence>
          <originalMayaNodeId>file1</originalMayaNodeId>
        </technique>
      </extra>
    </image>
  </library_images>
  <library_geometries>
    <geometry id="polySurfaceShape113" name="polySurfaceShape113">
      <mesh>
        <source id="polySurfaceShape113-positions" name="polySurfaceShape113-positions">
          <float_array id="polySurfaceShape113-positions-array" count="297">-0.7068958 -0.4024608 0.05240967 -0.7139073 0.2533475 0.06800598 -0.8173749 0.1761246 0.1482611 -0.8249599 -0.192059 0.152334 -0.7574629 -0.402254 -0.07849121 -0.7422548 0.2097009 -0.07987732 -0.8662875 0.162627 0.009520874 -0.8703249 -0.1861905 0.01111511 0.7073216 -0.401165 0.0470752 0.9038628 0.141864 0.01092834 0.9038628 -0.1393813 0.01092834 0.7843117 -0.2346797 0.03291504 0.7843117 -0.3352492 0.03291504 0.7843117 0.3217014 0.03291504 0.7843117 0.230798 0.03291504 0.6820723 0.4004321 -0.09021729 0.7590616 0.3217014 -0.1043762 0.8786128 0.141864 -0.1263635 0.8786128 -0.1393813 -0.1263635 0.7590616 -0.2346797 -0.1043762 0.7590616 -0.3352492 -0.1043762 0.6820726 -0.4011647 -0.09021729 0.7590616 0.230798 -0.1043762 0.7073216 0.4004318 0.0470752 -0.3050507 0.4004672 0.06539063 -0.3442114 -0.4021263 0.06412598 1.92413e-4 0.4004572 0.1771259 0.03728226 -0.4017926 0.1703046 -0.02505692 0.4004575 0.03983337 0.01203293 -0.4017923 0.0330127 -0.3398012 -0.4021263 -0.0724054 -0.3006403 0.4004675 -0.07114136 -0.6898862 0.4004807 0.05295837 -0.7375082 0.4006891 -0.08030945 -0.7206128 -0.4024048 0.01690125 -0.8153224 -0.1861905 0.1085315 -0.8077505 0.162627 0.1066864 -0.7045541 0.2293616 0.02251587 -0.7023164 0.400535 0.01817322 -0.7263519 0.4006403 -0.04908936 -0.7287912 0.2167221 -0.04331116 -0.8397884 0.162627 0.02901917 -0.8440776 -0.1861905 0.03285034 -0.7435312 -0.4023109 -0.04242676 -0.7411324 -0.4024048 0.03206238 -0.835842 -0.192059 0.1236926 -0.7274153 -0.4024608 0.0675708 -0.8282701 0.1761246 0.1218475 -0.7250737 0.2475241 0.037677 -0.722836 0.400535 0.03333435 -0.7104057 0.4004807 0.06811951 -0.756918 -0.2972598 0.1192792 -0.7692174 -0.2972319 0.08720459 -0.7607431 0.2373129 0.1043341 -0.768134 0.2366528 0.07279846 -0.8127489 0.2262433 -0.05445435 -0.8080023 0.4024609 -0.05488708 -0.7992854 0.2332645 -0.01788818 -0.796846 0.4024121 -0.02366638 -0.9189078 -0.1789496 0.02015381 -0.8185826 -0.3848772 -0.05510254 -0.8046509 -0.3849341 -0.0190387 -0.9051971 -0.1789496 0.0562384 -0.8514481 -0.3559303 -0.03044922 -0.8369554 -0.3572667 0.005147095 -0.9032997 -0.2637515 0.04227051 -0.8877214 -0.2674149 0.07701721 -0.764053 -0.2942508 -0.01288696 -0.7382164 -0.2942976 0.05461792 -0.7026252 0.3769136 0.01877249 -0.7267007 0.374342 -0.04826313 -0.7481228 -0.3781334 -0.03581748 -0.724403 -0.3791285 0.02502193 -0.3038534 0.4004673 0.02832805 -0.007813939 0.4004572 0.1335915 0.6997722 0.4004319 0.006025558 0.7766325 0.3217014 -0.008838854 0.7762408 0.230798 -0.01096812 0.8960851 0.141864 -0.03136146 0.8959547 -0.1393813 -0.03206992 0.7765031 -0.2346797 -0.009542127 0.7765879 -0.3352492 -0.009081202 0.6997137 -0.4011649 0.005707376 0.02971446 -0.4017925 0.1291551 -0.3428718 -0.4021263 0.02265269 -0.7138075 -0.411398 0.03451773 -0.3435364 -0.4110849 0.04322846 0.033469 -0.4107437 0.1495702 0.7155512 -0.4162902 0.02623083 0.7957111 -0.3427143 0.009012882 0.7956684 -0.239899 0.008780631 0.9151694 -0.1424724 -0.01347871 0.9152351 0.1450535 -0.01312173 0.7955362 0.2359736 0.008062103 0.7957336 0.3289069 0.009134997 0.7155807 0.4155837 0.02639116 -0.003841817 0.4094215 0.1551898 -0.3044474 0.4094318 0.04671558 -0.6961495 0.4094735 0.03543087</float_array>
          <technique_common>
            <accessor source="#polySurfaceShape113-positions-array" count="99" stride="3">
              <param name="X" type="float"/>
              <param name="Y" type="float"/>
              <param name="Z" type="float"/>
            </accessor>
          </technique_common>
        </source>
        <source id="polySurfaceShape113-normals" name="polySurfaceShape113-normals">
          <float_array id="polySurfaceShape113-normals-array" count="996">-0.452895 0.1244197 -0.8828396 -0.5985187 0.009504156 -0.8010524 -0.2335253 0.003248297 -0.9723453 -0.3025503 0.08451819 -0.9493787 -0.06264979 -0.00227373 0.998033 -0.06264979 -0.00227373 0.998033 0.1808804 0 0.983505 0.1808804 0 0.983505 0.1808804 0 0.983505 0.1808804 0 0.983505 0.1808804 0 0.983505 0.1808804 0 0.983505 0.1808804 0 0.983505 0.1808804 0 0.983505 0.6974334 0.7050775 -0.1282661 0.6974334 0.7050775 -0.1282661 0.6974334 0.7050775 -0.1282661 0.6974334 0.7050775 -0.1282661 0.983505 0 -0.1808805 0.983505 0 -0.1808805 0.983505 0 -0.1808805 0.983505 0 -0.1808805 0.6068037 -0.7869781 -0.1116005 0.6068037 -0.7869781 -0.1116005 0.6068037 -0.7869781 -0.1116005 0.6068037 -0.7869781 -0.1116005 0.9835045 0 -0.1808827 0.9835045 0 -0.1808827 0.9835045 0 -0.1808827 0.9835045 0 -0.1808827 0.6334838 -0.7649344 -0.1165059 0.6334838 -0.7649344 -0.1165059 0.6334838 -0.7649344 -0.1165059 0.6334838 -0.7649344 -0.1165059 0.9835047 0 -0.1808825 0.9835047 0 -0.1808825 0.9835047 0 -0.1808825 0.9835047 0 -0.1808825 0.5807285 0.8070607 -0.1068048 0.5807285 0.8070607 -0.1068048 0.5807285 0.8070607 -0.1068048 0.5807285 0.8070607 -0.1068048 -0.1577832 -0.007968078 0.9874416 -0.1159535 0.03069643 0.9927802 0.346194 0.02346613 0.9378694 0.3946753 -0.002764256 0.9188164 0 0.9999999 0 0 0.9999999 0 0 0.9999999 0 0 0.9999999 0 9.05583e-4 -0.9999995 -1.6912e-4 9.05583e-4 -0.9999995 -1.6912e-4 9.05583e-4 -0.9999995 -1.6912e-4 9.05583e-4 -0.9999995 -1.6912e-4 5.71484e-4 -0.9999996 -6.81397e-4 5.71484e-4 -0.9999996 -6.81397e-4 5.71484e-4 -0.9999996 -6.81397e-4 5.71484e-4 -0.9999996 -6.81397e-4 0.0116191 0.9999291 -0.002587786 4.77911e-4 0.9999989 0.001393286 0.0116191 0.9999291 -0.002587786 0 0.9999999 0 0 0.9999999 0 0 0.9999999 0 0 0.9999999 0 9.43278e-4 -0.9999995 0 9.43278e-4 -0.9999995 0 9.43278e-4 -0.9999995 0 9.43278e-4 -0.9999995 0 -0.1808817 0 -0.9835048 -0.1808817 0 -0.9835048 -0.1808817 0 -0.9835048 -0.1808817 0 -0.9835048 -0.1808796 0 -0.9835052 -0.1808797 0 -0.9835051 -0.01226313 0.001489643 -0.9999237 -0.1808796 0 -0.9835052 -0.1808801 0 -0.9835051 -0.1808804 0 -0.983505 -0.1808804 0 -0.983505 -0.01226341 0.001491327 -0.9999236 0.122812 2.70433e-4 -0.9924298 0.1738769 0.001815424 -0.9847658 -0.1614573 0.001907441 -0.9868779 0.2980296 0.04883977 0.9533063 -0.9403757 0.02205722 0.3394214 -0.9403757 0.02205722 0.3394214 -0.9403757 0.02205722 0.3394214 -0.9403757 0.02205722 0.3394214 -0.4370409 0.894663 0.09259146 -0.4370409 0.894663 0.09259146 -0.4370409 0.894663 0.09259146 -0.4370409 0.894663 0.09259146 -0.92945 0.01880047 0.3684685 -0.92945 0.01880047 0.3684685 -0.92945 0.01880047 0.3684685 -0.92945 0.01880047 0.3684685 -0.7143454 -0.6447077 0.2721442 -0.7143454 -0.6447077 0.2721442 -0.7143454 -0.6447077 0.2721442 -0.7143454 -0.6447077 0.2721442 -0.8550849 -0.4010053 0.3286708 -0.8550849 -0.4010053 0.3286708 -0.8550849 -0.4010053 0.3286708 -0.8550849 -0.4010053 0.3286708 -0.9296676 0.02209098 0.3677362 -0.9296676 0.02209098 0.3677362 -0.3125842 0.02947944 0.9494326 -0.3125842 0.02947944 0.9494326 -0.2951545 0.9553792 -0.0115885 -0.2951545 0.9553792 -0.0115885 -0.2951545 0.9553792 -0.0115885 -0.2951545 0.9553792 -0.0115885 -0.9405701 0.02275922 0.3388359 -0.9405701 0.02275922 0.3388359 -0.9405701 0.02275922 0.3388359 -0.9405701 0.02275922 0.3388359 -0.9404615 0.02566354 0.3389299 -0.9404615 0.02566354 0.3389299 -0.9404615 0.02566354 0.3389299 -0.9404615 0.02566354 0.3389299 -0.3253516 0.9386522 0.1143598 -0.3253516 0.9386522 0.1143598 -0.3253516 0.9386522 0.1143598 -0.3253516 0.9386522 0.1143598 -0.6158234 0.01347648 0.7877688 -0.6158234 0.01347648 0.7877688 -0.6158234 0.01347648 0.7877688 -0.6158234 0.01347648 0.7877688 -0.9224456 -0.08276089 0.3771536 -0.9224456 -0.08276089 0.3771536 -0.9224456 -0.08276089 0.3771536 -0.9224456 -0.08276089 0.3771536 3.30644e-4 -0.9999985 -0.001706607 -0.1208107 -0.9916503 0.04510428 -0.1208107 -0.9916503 0.04510428 3.00282e-4 0.9999996 5.95525e-4 3.00282e-4 0.9999996 5.95525e-4 3.00282e-4 0.9999996 5.95525e-4 3.00282e-4 0.9999996 5.95525e-4 -0.7076637 -0.1617269 -0.6877909 -0.7076637 -0.1617269 -0.6877909 -0.7076637 -0.1617269 -0.6877909 -0.03243805 -0.9681109 0.248413 -0.07162607 -0.9971411 0.02407081 0.1250242 -0.9127523 0.3889115 -0.6014399 -0.01408128 -0.7987939 -0.5855803 -0.03751643 -0.8097457 -0.5855803 -0.03751643 -0.8097457 -0.6014399 -0.01408128 -0.7987939 -0.6109138 -0.03297042 -0.7910103 -0.6231602 -0.05265855 -0.7803194 -0.6109138 -0.03297042 -0.7910103 -0.598269 -0.0132608 -0.8011855 -0.598269 -0.0132608 -0.8011855 0.5941868 -0.0147616 0.8041915 -0.02953021 0.9669784 0.2531412 -0.07226919 0.9970882 0.02433637 -0.3059497 0.9434251 -0.1278438 0.5792989 -0.2229144 0.784042 0.5792989 -0.2229144 0.784042 0.5792989 -0.2229144 0.784042 -0.7597141 -0.5821124 0.2897922 -0.7597141 -0.5821124 0.2897922 -0.7597141 -0.5821124 0.2897922 -0.7597141 -0.5821124 0.2897922 -0.5766575 -0.08333707 -0.8127244 0.6360826 0.01107347 0.7715414 0.6360826 0.01107347 0.7715414 -0.6092908 -0.03654025 -0.7921045 -0.6219068 -0.0254709 -0.7826768 -0.6219068 -0.0254709 -0.7826768 -0.6219068 -0.0254709 -0.7826768 -0.6315241 0.7515338 0.1907199 -0.6315241 0.7515338 0.1907199 -0.6315241 0.7515338 0.1907199 -0.6315241 0.7515338 0.1907199 -0.3384901 0.006534523 -0.9409471 -0.3384901 0.006534523 -0.9409471 -0.1404003 -0.9614804 0.2363112 -0.1404003 -0.9614804 0.2363112 -0.1404003 -0.9614804 0.2363112 -0.1404003 -0.9614804 0.2363112 0.3423202 0.02609609 0.9392207 0.3423202 0.02609609 0.9392207 0.3423202 0.02609609 0.9392207 0.3423202 0.02609609 0.9392207 0.02275867 0.9997194 -0.006568497 0.02275867 0.9997194 -0.006568497 -0.2886569 0.2342214 -0.9283411 -0.239906 -0.9665074 0.09115127 -0.239906 -0.9665074 0.09115127 0.3718461 0.2812468 0.8846641 0.3718461 0.2812468 0.8846641 0.3718461 0.2812468 0.8846641 0.1086574 0.9912391 -0.07509048 0.1086574 0.9912391 -0.07509048 0.1086574 0.9912391 -0.07509048 0.1086574 0.9912391 -0.07509048 -0.5511092 -0.809398 0.2028632 -0.5511092 -0.809398 0.2028632 -0.5511092 -0.809398 0.2028632 -0.5511092 -0.809398 0.2028632 -0.7321431 -0.6260028 0.26849 -0.7321431 -0.6260028 0.26849 -0.7321431 -0.6260028 0.26849 -0.7321431 -0.6260028 0.26849 -0.2160743 -0.2834453 -0.9343289 -0.2160743 -0.2834453 -0.9343289 -0.2160743 -0.2834453 -0.9343289 -0.7677302 0.07057226 -0.636875 -0.7677302 0.07057226 -0.636875 -0.7677302 0.07057226 -0.636875 -0.5037988 0.1521881 -0.8503091 -0.5037988 0.1521881 -0.8503091 -0.5037988 0.1521881 -0.8503091 0.5310999 -0.1138545 0.8396248 0.5310999 -0.1138545 0.8396248 0.5310999 -0.1138545 0.8396248 0.7712006 -0.07034863 0.6326932 0.7712006 -0.07034863 0.6326932 0.7712006 -0.07034863 0.6326932 0.2813612 -0.1897733 0.9406497 0.2813612 -0.1897733 0.9406497 0.2813612 -0.1897733 0.9406497 0.3007302 -0.1979215 0.9329461 0.3007302 -0.1979215 0.9329461 0.3007302 -0.1979215 0.9329461 -0.8999456 -0.2661711 0.345327 -0.8999456 -0.2661711 0.345327 -0.8999456 -0.2661711 0.345327 -0.8999456 -0.2661711 0.345327 -0.6824523 0.166882 -0.7116242 -0.6824523 0.166882 -0.7116242 -0.6824523 0.166882 -0.7116242 -0.6824523 0.166882 -0.7116242 -0.5942048 -0.01263848 -0.8042144 -0.5942048 -0.01263848 -0.8042144 -0.5942048 -0.01263848 -0.8042144 -0.9413145 0.02201473 0.3368119 -0.9413145 0.02201473 0.3368119 -0.9413145 0.02201473 0.3368119 -0.9413145 0.02201473 0.3368119 0.3397027 0.02503215 0.9401996 0.3397027 0.02503215 0.9401996 0.3397027 0.02503215 0.9401996 0.30073 -0.1979228 0.9329458 0.30073 -0.1979228 0.9329458 0.30073 -0.1979228 0.9329458 -0.8993592 -0.2664518 0.3466356 -0.8993592 -0.2664518 0.3466356 -0.8993592 -0.2664518 0.3466356 -0.8993592 -0.2664518 0.3466356 -0.5844573 0.1808035 -0.7910244 -0.5844573 0.1808035 -0.7910244 -0.5844573 0.1808035 -0.7910244 -0.01355884 0.8949195 0.4460216 -6.80458e-4 0.9999968 -0.002410507 0.1284817 0.9036169 0.4086183 -0.148946 0.8999012 0.4098696 -1.35085e-4 0.9999959 -0.0028625 -1.35085e-4 0.9999959 -0.0028625 -0.148946 0.8999012 0.4098696 0.08648594 0.8633702 0.4971036 0.08648594 0.8633702 0.4971036 -4.91499e-4 0.9998315 0.01834821 -4.91499e-4 0.9998315 0.01834821 0.6550366 0.5177897 0.5502913 0.6550366 0.5177897 0.5502913 0.7096714 0.6963331 -0.107175 0.7096714 0.6963331 -0.107175 0.9068615 -0.00343274 0.4214146 0.9068615 -0.00343274 0.4214146 0.9828146 0.004253121 -0.1845466 0.9828146 0.004253121 -0.1845466 0.5964845 0.6986297 0.3951237 0.5964845 0.6986297 0.3951237 0.5856079 0.8029875 -0.1107913 0.5856079 0.8029875 -0.1107913 0.905713 -3.70661e-4 0.4238911 0.905713 -3.70661e-4 0.4238911 0.9831144 4.56386e-4 -0.182991 0.9831144 4.56386e-4 -0.182991 0.6182786 -0.6741312 0.4040775 0.6182786 -0.6741312 0.4040775 0.6102666 -0.7839635 -0.1139112 0.6102666 -0.7839635 -0.1139112 0.9037926 6.77908e-4 0.42797 0.9037926 6.77908e-4 0.42797 0.9830564 -8.40545e-4 -0.1833019 0.9830564 -8.40545e-4 -0.1833019 0.6119272 -0.5648603 0.5536044 0.6119272 -0.5648603 0.5536044 0.6490899 -0.7546532 -0.09581723 0.6490899 -0.7546532 -0.09581723 0.08918583 -0.8578014 0.5061843 0.08918583 -0.8578014 0.5061843 -1.67461e-4 -0.9998142 0.0192777 -1.67461e-4 -0.9998142 0.0192777 0.002537014 -0.9999926 -0.002867073 0.002537014 -0.9999926 -0.002867073 -0.111205 -0.9098369 0.3997878 -0.111205 -0.9098369 0.3997878 -0.001076819 -0.9999934 -0.003426315 -0.01091315 -0.9072989 0.4203447 -0.1283467 -0.9095629 -0.3952499 0.00896224 -0.9044185 -0.4265521 0.1158142 -0.9069535 -0.4049967 0.1158142 -0.9069535 -0.4049967 -0.08947633 -0.8766464 -0.4727419 -0.08947633 -0.8766464 -0.4727419 0.3882223 -0.5979462 -0.7012444 0.3882223 -0.5979462 -0.7012444 0.6888192 -0.002039641 -0.7249302 0.6888192 -0.002039641 -0.7249302 0.4311117 -0.6739414 -0.5999547 0.4311117 -0.6739414 -0.5999547 0.6925384 0.001112609 -0.7213799 0.6925384 0.001112609 -0.7213799 0.4183979 0.6929805 -0.5871295 0.4183979 0.6929805 -0.5871295 0.6921609 0.0103525 -0.7216689 0.6921609 0.0103525 -0.7216689 0.4328011 0.5496021 -0.7145773 0.4328011 0.5496021 -0.7145773 -0.0873434 0.8809423 -0.4650932 -0.0873434 0.8809423 -0.4650932 0.1487032 0.8975801 -0.4150149 0.1487032 0.8975801 -0.4150149 0.01234238 0.8927764 -0.4503308 -0.1301293 0.9017453 -0.4122159 -0.3005573 -0.9461181 -0.1205238</float_array>
          <technique_common>
            <accessor source="#polySurfaceShape113-normals-array" count="332" stride="3">
              <param name="X" type="float"/>
              <param name="Y" type="float"/>
              <param name="Z" type="float"/>
            </accessor>
          </technique_common>
        </source>
        <source id="polySurfaceShape113-map1" name="polySurfaceShape113-map1">
          <float_array id="polySurfaceShape113-map1-array" count="132">0.003510633 0 1 0 0.8623536 0.7368262 0 0.7381558 0 0 0.8349879 0 0 0 0.9999306 0 1 0.4304138 0 0.4276263 0.07710642 0 1 0 0.9300086 0.5136476 0 0.549482 0.9489946 0.3743143 0.9999858 0.3426153 0.01572865 0.4373953 0.9684005 0.677806 0 0.3457368 0.8938073 0.5684533 0.105221 0.6410639 9.16339e-4 0.5454838 0.002688204 0.1729262 0.962077 0.2030029 0.03757593 0.2289332 0.8754823 0.2057332 0 0.1049408 0.9999484 0.1106165 0.05729004 0.1412171 0.9807166 0.1415152 0.01572865 0.4373953 0.9489946 0.3743143 0.9300086 0.5136476 0 0.3457368 0.9999858 0.3426153 0.105221 0.6410639 0.9684005 0.677806 0.9999999 0.8383478 0.1363869 0.8309436 9.16339e-4 0.5454838 0.8938073 0.5684533 0 0.7381558 0.4650043 0.5315648 0.4823616 0.4058548 0.5273126 0.8342953 0.4653943 0.656395 0.003510633 0 1 0 0.962077 0.2030029 0.002688204 0.1729262 0.07710642 0 1 0 0.9807166 0.1415152 0.05729004 0.1412171 0.697669 0 0.6840304 0.1414194 0.4571579 0 0.4538791 0.1413451 0.5190033 0.1413661 0.4823616 0.4058548 0.1241322 0.5486535 0.13987 0.1772269 0.8774122 0.1414818 0.848525 0.3811052 0.9395753 0.4434406 4.61724e-4 0.6410725</float_array>
          <technique_common>
            <accessor source="#polySurfaceShape113-map1-array" count="66" stride="2">
              <param name="S" type="float"/>
              <param name="T" type="float"/>
            </accessor>
          </technique_common>
        </source>
        <source id="polySurfaceShape113-tunnelShape-tunnelShape-map1" name="polySurfaceShape113-tunnelShape-tunnelShape-map1">
          <float_array id="polySurfaceShape113-tunnelShape-tunnelShape-map1-array" count="414">0.7881765 0.05715641 0.7894329 0.02297072 0.8121302 0.0229974 0.8152898 0.02615036 0.8152898 0.03037858 0.8193077 0.03417661 0.8193077 0.04674314 0.8152898 0.05069526 0.8152898 0.05471599 0.8121302 0.05715532 0.7747958 0.05801192 0.7772785 0.05801192 0.7772785 0.06190166 0.7747959 0.06190162 0.784734 0.05801204 0.795439 0.05801195 0.7954389 0.06190156 0.7847338 0.06190165 0.7988238 0.05801195 0.798824 0.06190156 0.802284 0.05801195 0.8022841 0.0619015 0.8052797 0.05801195 0.8052799 0.0619015 0.7811066 0.05801192 0.7811064 0.06190165 0.7773689 0.02295655 0.7786742 0.05715685 0.7657298 0.05011381 0.7651999 0.02294234 0.7029536 0.05801189 0.7302645 0.0580119 0.7302645 0.06190167 0.7029536 0.06190175 0.722395 0.05801189 0.6965172 0.05801189 0.6965172 0.06190175 0.722395 0.06190168 0.6850758 0.05801189 0.6701748 0.05801189 0.6701748 0.06190175 0.6850758 0.06190175 0.6786072 0.05801189 0.6924668 0.05801189 0.6924668 0.06190175 0.6786072 0.06190175 0.9057962 0.05308107 0.9017537 0.04941346 0.9017541 0.03781513 0.9057969 0.03388508 0.9057962 0.05682975 0.9323114 0.06007757 0.9083999 0.06007655 0.9057969 0.0297376 0.9084002 0.02701947 0.9310576 0.02699338 0.9445331 0.06011588 0.9460131 0.02694151 0.7658465 0.05715743 0.7657298 0.05011381 0.6701748 0.05906706 0.6786072 0.05902721 0.6786072 0.06099048 0.6701748 0.06083005 0.7600557 0.04736936 0.7622668 0.05020803 0.7597643 0.03202302 0.7617743 0.02750473 0.7651999 0.02294234 0.7651078 0.05053261 0.7642562 0.02294234 0.7658465 0.05715746 0.7645451 0.05715746 0.9670036 0.03589714 0.9667481 0.05034643 0.9611583 0.05224994 0.9617006 0.02689942 0.9637144 0.02767288 0.9651282 0.02881337 0.9687882 0.03213972 0.9657752 0.02814815 0.9697089 0.03190552 0.9682151 0.03564828 0.9693135 0.03565769 0.9644465 0.05323795 0.9663411 0.06035461 0.9609889 0.06016317 0.9667166 0.05273988 0.964122 0.06024284 0.9633284 0.05293652 0.963159 0.06023635 0.9702794 0.0360601 0.9697425 0.04237221 0.9684854 0.0418455 0.9686928 0.0363601 0.973276 0.03133339 0.9647157 0.02676068 0.9683742 0.03593279 0.9680876 0.05038152 0.9699745 0.04958725 0.9683604 0.04961637 0.9683245 0.04651179 0.9699389 0.04648246 0.9684089 0.04282967 0.9697828 0.04284152 0.9697468 0.04594605 0.9683732 0.04593455 0.9617006 0.02689942 0.9620867 0.02616859 0.9642451 0.02704268 0.9639842 0.0247892 0.9684695 0.02623544 0.9656799 0.02805716 0.9698566 0.05271087 0.9686489 0.05197946 0.9683415 0.04995531 0.9699405 0.05000058 0.9729645 0.02935958 0.7570668 0.03248674 0.7534955 0.02778538 0.7553585 0.02765776 0.7516856 0.02308412 0.7580491 0.03223155 0.7526678 0.02308412 0.7563809 0.02765657 0.7589639 0.03223155 0.756851 0.04765594 0.7578334 0.04824287 0.7537979 0.02308169 0.7586608 0.04824293 0.7545737 0.05018822 0.7516011 0.05055803 0.7525834 0.05134797 0.7513888 0.05721055 0.752371 0.05721055 0.7535591 0.05160105 0.7534971 0.05720823 0.7525834 0.05134797 0.7545737 0.05018821 0.7552759 0.05065792 0.7535591 0.05160105 0.7578334 0.04824287 0.7586608 0.04824293 0.6696503 0.05906706 0.6696646 0.05801189 0.669087 0.05801189 0.6690846 0.05906706 0.4991149 0.1977649 0.4918273 0.1977649 0.4918272 0.1908017 0.4991149 0.1908017 0.6786236 0.05801189 0.6786058 0.05902721 0.6772403 0.05902721 0.677258 0.05801189 0.4662167 0.1908017 0.4662193 0.1977649 0.4722762 0.1977649 0.4722762 0.1908017 0.5077018 0.1908017 0.7514181 0.05629253 0.507652 0.1977649 0.9663948 0.05926578 0.4615177 0.1977649 0.9649878 0.02511278 0.461462 0.1908017 0.7520753 0.02409633 0.640413 0.06190175 0.637251 0.06190175 0.637251 0.05896163 0.6404017 0.05896163 0.6372609 0.05896562 0.6372495 0.06190574 0.6404115 0.06190574 0.6404115 0.05896568 0.6924668 0.05906782 0.7029536 0.05924533 0.7302646 0.05917492 0.7747958 0.05917492 0.7772785 0.05919489 0.7811065 0.05925521 0.7847339 0.05921015 0.7954389 0.05923013 0.7988238 0.05921481 0.802284 0.05920173 0.8052797 0.05918392 0.7223949 0.05918393 0.6965172 0.05917777 0.6850758 0.05919349 0.6701748 0.05854357 0.6696573 0.05854357 0.6850758 0.05860727 0.6965172 0.05859935 0.8052797 0.05860248 0.7223949 0.05860246 0.802284 0.05861145 0.7988238 0.05861805 0.795439 0.05862577 0.784734 0.05861574 0.7811065 0.05863839 0.7772785 0.05860799 0.7302645 0.05859792 0.7747958 0.05859793 0.7029536 0.05863339 0.6924668 0.05854395 0.6786146 0.05852349 0.6786072 0.05852349</float_array>
          <technique_common>
            <accessor source="#polySurfaceShape113-tunnelShape-tunnelShape-map1-array" count="207" stride="2">
              <param name="S" type="float"/>
              <param name="T" type="float"/>
            </accessor>
          </technique_common>
        </source>
        <vertices id="polySurfaceShape113-vertices" name="polySurfaceShape113-vertices">
          <input semantic="POSITION" source="#polySurfaceShape113-positions"/>
        </vertices>
        <triangles material="lambert3SG" count="194">
          <input semantic="VERTEX" source="#polySurfaceShape113-vertices" offset="0"/>
          <input semantic="NORMAL" source="#polySurfaceShape113-normals" offset="1"/>
          <input semantic="TEXCOORD" source="#polySurfaceShape113-map1" offset="2" set="0"/>
          <input semantic="TEXCOORD" source="#polySurfaceShape113-tunnelShape-tunnelShape-map1" offset="3" set="1"/>
          <p>6 1 0 74 5 2 0 75 7 0 0 73 7 0 0 73 5 2 0 75 4 3 0 76 26 4 0 0 27 5 0 1 23 13 0 9 27 5 0 1 8 6 0 2 23 13 0 9 23 13 0 9 8 6 0 2 13 12 0 8 13 12 0 8 8 6 0 2 14 11 0 7 8 6 0 2 12 7 0 3 14 11 0 7 12 7 0 3 11 8 0 4 14 11 0 7 11 8 0 4 10 9 0 5 14 11 0 7 10 9 0 5 9 10 0 6 14 11 0 7 75 14 0 178 76 15 0 179 15 17 0 13 15 17 0 13 76 15 0 179 16 16 0 12 78 18 0 181 79 19 0 182 17 21 0 17 17 21 0 17 79 19 0 182 18 20 0 16 80 23 0 183 19 24 0 19 79 22 0 182 79 22 0 182 19 24 0 19 18 25 0 16 81 27 0 184 20 28 0 21 80 26 0 183 80 26 0 183 20 28 0 21 19 29 0 19 82 31 0 185 21 32 0 23 81 30 0 184 81 30 0 184 21 32 0 23 20 33 0 21 76 34 0 179 77 35 0 180 16 37 0 12 16 37 0 12 77 35 0 180 22 36 0 25 78 39 0 181 17 40 0 17 77 38 0 180 77 38 0 180 17 40 0 17 22 41 0 25 24 43 0 27 1 44 0 28 25 42 0 26 25 42 0 26 1 44 0 28 0 45 0 29 25 42 0 26 27 5 0 1 24 43 0 27 24 43 0 27 27 5 0 1 26 4 0 0 74 46 0 176 75 47 0 177 28 49 0 33 28 49 0 33 75 47 0 177 15 48 0 32 82 50 0 186 83 51 0 187 21 53 0 37 21 53 0 37 83 51 0 187 29 52 0 36 84 54 0 188 34 55 0 60 30 57 0 41 30 57 0 41 34 55 0 60 43 56 0 63 39 58 0 62 31 59 0 44 33 60 0 45 74 61 0 176 28 62 0 33 73 64 0 175 73 64 0 175 28 62 0 33 31 63 0 44 83 66 0 187 84 67 0 188 29 65 0 36 29 65 0 36 84 67 0 188 30 68 0 41 17 70 0 47 18 71 0 48 22 69 0 46 22 69 0 46 18 71 0 48 19 72 0 49 22 74 0 46 28 75 0 51 16 73 0 50 16 73 0 50 28 75 0 51 15 76 0 52 19 77 0 49 20 78 0 53 29 80 0 55 20 78 0 53 21 79 0 54 29 80 0 55 19 77 0 49 29 80 0 55 22 74 0 46 22 74 0 46 29 80 0 55 28 75 0 51 28 75 0 51 29 80 0 55 31 81 0 56 31 81 0 56 29 80 0 55 30 82 0 57 31 81 0 56 5 2 0 75 33 83 0 86 4 3 0 76 5 2 0 75 30 82 0 57 30 82 0 57 5 2 0 75 31 81 0 56 32 84 0 58 1 44 0 59 24 43 0 27 40 86 23 147 37 87 19 150 70 85 61 161 70 85 61 161 37 87 19 150 69 88 60 159 40 89 24 147 41 90 25 148 37 92 20 150 37 92 20 150 41 90 25 148 36 91 17 149 41 93 26 148 42 94 27 157 36 96 18 149 36 96 18 149 42 94 27 157 35 95 15 158 67 98 58 156 68 99 59 155 42 97 28 157 42 97 28 157 68 99 59 155 35 100 16 158 44 102 31 123 46 103 32 128 52 101 43 120 52 101 43 120 46 103 32 128 51 104 42 124 47 105 33 127 45 106 34 122 2 108 9 129 2 108 9 129 45 106 34 122 3 107 8 125 48 109 35 137 54 110 45 138 1 112 38 140 1 112 38 140 54 110 45 138 53 111 44 139 48 114 40 132 1 115 2 135 49 113 39 134 49 113 39 134 1 115 2 135 50 116 41 136 55 118 47 89 57 119 48 84 56 117 46 90 56 117 46 90 57 119 48 84 58 120 49 88 6 122 5 92 41 123 25 93 5 121 4 91 5 121 4 91 41 123 25 93 40 124 24 94 7 126 7 73 42 127 27 97 6 125 6 74 6 125 6 74 42 127 27 97 41 128 26 98 59 129 50 82 65 130 56 79 62 132 53 83 62 132 53 83 65 130 56 79 66 131 57 81 30 133 0 41 43 134 0 63 4 135 0 40 73 137 0 175 31 138 0 44 38 136 0 61 38 136 0 61 31 138 0 44 39 139 0 62 35 140 16 118 68 141 59 119 52 142 43 120 46 143 32 145 85 144 64 190 0 145 12 144 35 147 15 118 45 148 34 122 36 146 18 126 36 146 18 126 45 148 34 122 47 149 33 127 37 150 20 131 54 151 45 130 48 152 35 132 37 150 19 131 48 152 40 132 69 153 60 160 69 153 60 160 48 152 40 132 49 154 39 134 1 44 2 69 32 84 3 71 50 155 41 72 50 156 41 154 98 157 65 205 49 158 39 153 0 159 12 68 51 160 42 67 46 161 32 70 52 163 43 120 51 164 42 124 45 162 30 122 45 162 30 122 51 164 42 124 3 165 13 125 35 147 16 118 52 166 43 120 45 148 30 122 53 167 0 65 51 168 0 67 1 44 0 69 1 44 0 69 51 168 0 67 0 45 0 68 2 108 0 64 3 107 0 66 53 167 0 65 53 167 0 65 3 107 0 66 51 168 0 67 54 169 45 130 36 146 17 126 47 149 36 127 37 170 20 131 36 171 17 126 54 172 45 130 54 174 45 138 47 175 36 141 53 173 44 139 53 173 44 139 47 175 36 141 2 176 37 142 5 2 1 75 55 177 47 89 33 83 0 86 33 83 0 86 55 177 47 89 56 178 46 90 5 179 1 99 40 180 23 100 55 182 47 102 55 182 47 102 40 180 23 100 57 181 48 101 40 183 23 87 70 184 61 162 57 186 48 84 57 186 48 84 70 184 61 162 58 185 49 88 33 60 0 104 56 187 46 105 39 58 22 103 39 58 22 103 56 187 46 105 58 188 49 106 7 0 10 73 4 3 11 76 60 189 51 77 43 134 29 108 61 190 52 109 4 135 11 107 4 135 11 107 61 190 52 109 60 191 51 77 66 192 57 81 42 193 28 117 62 194 53 95 42 195 28 113 7 196 10 114 62 198 53 116 62 198 53 116 7 196 10 114 59 197 50 115 60 200 51 77 61 201 52 109 63 199 54 78 63 199 54 78 61 201 52 109 64 202 55 112 63 204 54 78 64 205 55 80 65 203 56 79 65 203 56 79 64 205 55 80 66 206 57 81 7 207 10 73 65 208 56 79 59 209 50 82 7 210 10 73 63 211 54 78 65 212 56 79 7 213 10 73 60 214 51 77 63 215 54 78 61 216 52 96 42 217 28 117 64 218 55 80 64 219 55 80 42 220 28 117 66 221 57 81 67 222 58 111 42 223 28 117 61 224 52 96 71 225 62 164 67 226 58 111 61 227 52 96 68 228 59 155 67 229 58 156 72 231 63 165 72 231 63 165 67 229 58 156 71 230 62 163 52 232 43 120 68 233 59 119 44 235 31 123 44 235 31 123 68 233 59 119 72 234 63 166 38 236 21 133 69 237 60 160 49 238 39 134 39 239 22 167 70 240 61 168 38 242 21 170 38 242 21 170 70 240 61 168 69 241 60 169 58 243 49 88 70 244 61 162 39 245 22 85 43 246 29 110 71 247 62 164 61 248 52 96 72 249 63 171 71 250 62 172 34 252 14 174 34 252 14 174 71 250 62 172 43 251 29 173 44 253 31 123 72 254 63 166 34 255 14 121 24 256 0 43 97 257 0 204 32 258 0 42 32 258 0 42 97 257 0 204 98 157 0 206 26 259 0 30 96 260 0 203 24 262 0 43 24 262 0 43 96 260 0 203 97 261 0 204 26 263 0 30 23 264 0 31 96 266 0 203 96 266 0 203 23 264 0 31 95 265 0 201 23 267 0 10 13 268 0 11 95 270 0 202 95 270 0 202 13 268 0 11 94 269 0 200 14 272 0 24 93 273 0 199 13 271 0 11 13 271 0 11 93 273 0 199 94 274 0 200 14 275 0 24 9 276 0 14 93 278 0 199 93 278 0 199 9 276 0 14 92 277 0 198 9 279 0 14 10 280 0 15 92 282 0 198 92 282 0 198 10 280 0 15 91 281 0 197 11 284 0 18 90 285 0 196 10 283 0 15 10 283 0 15 90 285 0 196 91 286 0 197 11 287 0 18 12 288 0 20 90 290 0 196 90 290 0 196 12 288 0 20 89 289 0 195 8 292 0 22 88 293 0 193 12 291 0 20 12 291 0 20 88 293 0 193 89 294 0 195 27 296 0 35 87 297 0 192 8 295 0 34 8 295 0 34 87 297 0 192 88 298 0 194 86 299 0 191 87 300 0 192 25 302 0 38 25 302 0 38 87 300 0 192 27 301 0 35 85 144 0 189 86 303 0 191 0 145 0 39 0 145 0 39 86 303 0 191 25 304 0 38 34 305 0 60 84 306 0 188 85 144 0 189 85 144 0 189 84 306 0 188 86 303 0 191 84 307 0 188 83 308 0 187 86 299 0 191 86 299 0 191 83 308 0 187 87 300 0 192 88 298 0 194 87 297 0 192 82 310 0 186 82 310 0 186 87 297 0 192 83 309 0 187 89 294 0 195 88 293 0 193 81 312 0 184 81 312 0 184 88 293 0 193 82 311 0 185 89 289 0 195 81 313 0 184 90 290 0 196 90 290 0 196 81 313 0 184 80 314 0 183 91 286 0 197 90 285 0 196 79 316 0 182 79 316 0 182 90 285 0 196 80 315 0 183 92 282 0 198 91 281 0 197 78 318 0 181 78 318 0 181 91 281 0 197 79 317 0 182 92 277 0 198 78 319 0 181 93 278 0 199 93 278 0 199 78 319 0 181 77 320 0 180 94 274 0 200 93 273 0 199 76 322 0 179 76 322 0 179 93 273 0 199 77 321 0 180 94 269 0 200 76 323 0 179 95 270 0 202 95 270 0 202 76 323 0 179 75 324 0 178 95 265 0 201 75 325 0 177 96 266 0 203 96 266 0 203 75 325 0 177 74 326 0 176 96 260 0 203 74 327 0 176 97 261 0 204 97 261 0 204 74 327 0 176 73 328 0 175 97 257 0 204 73 329 0 175 98 157 0 206 98 157 0 206 73 329 0 175 38 330 0 61 85 144 64 190 44 331 31 146 34 305 14 143 46 143 32 145 44 331 31 146 85 144 64 190 50 156 41 154 32 258 3 151 98 157 65 205 49 158 39 153 98 157 65 205 38 330 21 152</p>
        </triangles>
      </mesh>
      <extra>
        <technique profile="OpenCOLLADAMaya">
          <originalMayaNodeId>polySurfaceShape113</originalMayaNodeId>
          <double_sided>1</double_sided>
        </technique>
      </extra>
    </geometry>
  </library_geometries>
  <library_visual_scenes>
    <visual_scene id="VisualSceneNode" name="traintunnel_flesher_hole">
      <node id="polySurface103" name="polySurface103" type="NODE">
        <translate sid="translate">0 0 0</translate>
        <rotate sid="rotateZ">0 0 1 0</rotate>
        <rotate sid="rotateY">0 1 0 0</rotate>
        <rotate sid="rotateX">1 0 0 0</rotate>
        <scale sid="scale">1 1 1</scale>
        <instance_geometry url="#polySurfaceShape113">
          <bind_material>
            <technique_common>
              <instance_material symbol="lambert3SG" target="#lambert3">
                <bind_vertex_input semantic="TEX0" input_semantic="TEXCOORD" input_set="1"/>
              </instance_material>
            </technique_common>
          </bind_material>
        </instance_geometry>
        <extra>
          <technique profile="OpenCOLLADAMaya">
            <originalMayaNodeId>polySurface103</originalMayaNodeId>
          </technique>
        </extra>
      </node>
    </visual_scene>
  </library_visual_scenes>
  <scene>
    <instance_visual_scene url="#VisualSceneNode"/>
  </scene>
</COLLADA>