<?xml version="1.0" encoding="utf-8" ?>
<COLLADA xmlns="http://www.collada.org/2005/11/COLLADASchema" version="1.4.1">
    <asset>
        <contributor>
            <authoring_tool>modo 601 [Build 48460], Microsoft Windows 7 Service Pack 1 (6.1.7601 Service Pack 1)</authoring_tool>
            <comments>
                Plug-in: [Build 48460];
                Use Absolute Path: No;
                Merge Reference Items: No;
                Save Hidden Items: No;
                Save Cameras: No;
                Save Lights: No;
                Save Locators: Yes;
                Save Triangles as Triangles: No;
                Bake Matrices: Yes;
                Save Vertex Normals: Yes;
                Save UV Texture Coordinates: Yes;
                Save Vertex Colors: Yes;
                Save Vertex Weights: Yes;
                Save Animation: Yes;
                Sample Animation: No;
                Sample Animation Start: 0;
                Sample Animation End: 60;
                Save modo Profile: No;
                Save Maya Profile: Yes;
                Save 3ds Max Profile: No;
                Formatted Arrays: Yes;
            </comments>
            <source_data>file:///D:/Work/studio/Frictional%20Games/PROJECT%20SVN%20REPOSITORY/redist/static_objects/station/cables/electrical_overlap_tiny.dae</source_data>
        </contributor>
        <created>2013-04-18T17:21:20Z</created>
        <modified>2013-04-18T17:21:20Z</modified>
        <unit name="game" meter="1" />
        <up_axis>Y_UP</up_axis>
    </asset>
    <library_images>
        <image id="Image0001" name="Image0001">
            <init_from>../cables/electrical_dark.tga</init_from>
        </image>
    </library_images>
    <library_materials>
        <material id="Material-Default1" name="Default1">
            <instance_effect url="#Effect-Default1" />
        </material>
    </library_materials>
    <library_effects>
        <effect id="Effect-Default1" name="Default1">
            <profile_COMMON>
                <newparam sid="Image0001-surface">
                    <surface type="2D">
                        <init_from>Image0001</init_from>
                        <format>A8R8G8B8</format>
                    </surface>
                </newparam>
                <newparam sid="Image0001-sampler">
                    <sampler2D>
                        <source>Image0001-surface</source>
                        <minfilter>LINEAR_MIPMAP_LINEAR</minfilter>
                        <magfilter>LINEAR</magfilter>
                    </sampler2D>
                </newparam>
                <technique sid="common">
                    <phong>
                        <diffuse>
                            <texture texture="Image0001-sampler" texcoord="Texture" />
                        </diffuse>
                        <specular>
                            <color sid="specular_effect_rgb">0.2 0.2 0.2 1</color>
                        </specular>
                        <shininess>
                            <float sid="specular_effect_rgb">256</float>
                        </shininess>
                    </phong>
                </technique>
            </profile_COMMON>
        </effect>
    </library_effects>
    <library_geometries>
        <geometry id="Geometry-Mesh" name="Mesh">
            <mesh>
                <source id="Geometry-Mesh-positions" name="positions">
                    <float_array id="Geometry-Mesh-positions-array" count="90">
                        -0.00845191 1.64887e-012 0.15732
                        -0.00845191 1.64887e-012 1.82077e-014
                        -0.00422591 -0.007318 1.82077e-014
                        -0.00422591 -0.007318 0.15732
                        0.00422409 -0.007318 1.82077e-014
                        0.00422409 -0.007318 0.15732
                        0.00844911 1e-006 1.82077e-014
                        0.00844911 1.64887e-012 0.15732
                        0.00422409 0.007319 1.82077e-014
                        0.00422409 0.007319 0.15732
                        -0.00422591 0.007319 1.82077e-014
                        -0.00422591 0.007319 0.15732
                        -0.00845191 0.005 0.11799
                        -0.00422591 -0.002318 0.11799
                        -0.00845191 0.016 0.07866
                        -0.00422591 0.008682 0.07866
                        -0.00845191 0.004 0.03933
                        -0.00422591 -0.003318 0.03933
                        0.00422409 -0.002318 0.11799
                        0.00422409 0.008682 0.07866
                        0.00422409 -0.003318 0.03933
                        0.00844911 0.00500025 0.11799
                        0.00844911 0.0160005 0.07866
                        0.00844911 0.00400075 0.03933
                        0.00422409 0.012319 0.11799
                        0.00422409 0.023319 0.07866
                        0.00422409 0.011319 0.03933
                        -0.00422591 0.012319 0.11799
                        -0.00422591 0.023319 0.07866
                        -0.00422591 0.011319 0.03933
                    </float_array>
                    <technique_common>
                        <accessor count="30" source="#Geometry-Mesh-positions-array" stride="3">
                            <param name="X" type="float" />
                            <param name="Y" type="float" />
                            <param name="Z" type="float" />
                        </accessor>
                    </technique_common>
                </source>
                <source id="Geometry-Mesh-normals" name="normals">
                    <float_array id="Geometry-Mesh-normals-array" count="90">
                        -0.999812 0.000953633 0.0193782
                        -0.981788 -0.189005 0.0192225
                        -0.498244 -0.84802 0.180598
                        -0.326698 -0.940278 0.0956296
                        0.49814 -0.855089 0.143807
                        0.499061 -0.86212 0.0876806
                        0.981806 -0.18891 0.0192128
                        0.999812 0.000996919 0.0193655
                        0.495616 0.845327 -0.199469
                        0.499038 0.862133 -0.087681
                        -0.495773 0.853043 -0.162871
                        -0.653428 0.753104 -0.0765933
                        -0.981978 0.188982 -0.00235225
                        -0.57578 -0.816752 -0.0373335
                        0.575832 -0.815583 0.0569381
                        0.98198 0.188968 -0.00235346
                        0.40413 0.913028 0.0553085
                        -0.404096 0.911468 -0.077017
                        -0.999894 0.000708753 -0.0145362
                        -0.497462 -0.854175 -0.151386
                        -0.981686 -0.188985 -0.0240256
                        -0.498451 -0.859996 -0.109331
                        0.326388 -0.937689 -0.119208
                        0.497607 -0.848739 -0.178969
                        0.999894 0.000722881 -0.0145295
                        0.981695 -0.188938 -0.0240196
                        0.652804 0.751479 0.0955363
                        0.495741 0.852527 0.165647
                        -0.498477 0.859982 0.109329
                        -0.495603 0.846803 0.193136
                    </float_array>
                    <technique_common>
                        <accessor count="30" source="#Geometry-Mesh-normals-array" stride="3">
                            <param name="X" type="float" />
                            <param name="Y" type="float" />
                            <param name="Z" type="float" />
                        </accessor>
                    </technique_common>
                </source>
                <source id="Geometry-Mesh-Texture" name="Texture">
                    <float_array id="Geometry-Mesh-Texture-array" count="100">
                        0.19751 0.560344
                        0.205365 0.560344
                        0.19751 0.553131
                        0.205365 0.553131
                        0.981352 0.525096
                        0.981352 0.532951
                        0.966924 0.525096
                        0.966924 0.532951
                        0.239848 0.553131
                        0.239848 0.560345
                        0.231993 0.553131
                        0.231993 0.560345
                        0.231993 0.567559
                        0.239848 0.567559
                        0.484165 0.559579
                        0.484165 0.567434
                        0.498593 0.559579
                        0.498593 0.567434
                        0.19751 0.567559
                        0.205365 0.567559
                        0.189655 0.560344
                        0.189655 0.553131
                        0.981352 0.517241
                        0.966924 0.517241
                        0.224138 0.553131
                        0.224138 0.560345
                        0.224138 0.567559
                        0.484165 0.551724
                        0.498593 0.551724
                        0.189655 0.567559
                        0.1818 0.560344
                        0.1818 0.553131
                        0.173945 0.560344
                        0.173945 0.553131
                        0.981352 0.501532
                        0.981352 0.509387
                        0.966924 0.501532
                        0.966924 0.509387
                        0.216283 0.560345
                        0.208428 0.560344
                        0.216283 0.553131
                        0.208428 0.553131
                        0.208428 0.567559
                        0.216283 0.567559
                        0.484165 0.536014
                        0.484165 0.543869
                        0.498593 0.536014
                        0.498593 0.543869
                        0.1818 0.567559
                        0.173945 0.567559
                    </float_array>
                    <technique_common>
                        <accessor count="50" source="#Geometry-Mesh-Texture-array" stride="2">
                            <param name="S" type="float" />
                            <param name="T" type="float" />
                        </accessor>
                    </technique_common>
                </source>
                <vertices id="Geometry-Mesh-vertices">
                    <input semantic="POSITION" source="#Geometry-Mesh-positions" />
                </vertices>
                <polylist count="48" material="Material-Default1">
                    <input semantic="VERTEX" source="#Geometry-Mesh-vertices" offset="0" />
                    <input semantic="NORMAL" source="#Geometry-Mesh-normals" offset="1" />
                    <input semantic="TEXCOORD" source="#Geometry-Mesh-Texture" offset="2" set="0" />
                    <vcount>3 3 3 3 3 3 3 3 3 3 3 3 3 3 3 3 3 3 3 3 3 3 3 3 3 3 3 3 3 3 3 3 3 3 3 3 3 3 3 3 3 3 3 3 3 3 3 3</vcount>
                    <p>16 0 0 1 1 1 17 2 2 2 3 3 17 2 2 1 1 1 17 2 4 2 3 5 20 4 6 4 5 7 20 4 6 2 3 5 4 5 8 6 6 9 20 4 10 23 7 11 20 4 10 6 6 9 26 8 12 23 7 11 8 9 13 6 6 9 8 9 13 23 7 11 26 8 14 8 9 15 29 10 16 10 11 17 29 10 16 8 9 15 29 10 18 10 11 19 16 0 0 1 1 1 16 0 0 10 11 19 14 12 20 16 0 0 15 13 21 17 2 2 15 13 21 16 0 0 15 13 22 17 2 4 19 14 23 20 4 6 19 14 23 17 2 4 20 4 10 23 7 11 19 14 24 22 15 25 19 14 24 23 7 11 25 16 26 22 15 25 26 8 12 23 7 11 26 8 12 22 15 25 25 16 27 26 8 14 28 17 28 29 10 16 28 17 28 26 8 14 28 17 29 29 10 18 14 12 20 16 0 0 14 12 20 29 10 18 12 18 30 13 19 31 0 20 32 3 21 33 0 20 32 13 19 31 3 21 34 13 19 35 5 22 36 18 23 37 5 22 36 13 19 35 21 24 38 7 25 39 18 23 40 5 22 41 18 23 40 7 25 39 7 25 39 21 24 38 9 26 42 24 27 43 9 26 42 21 24 38 9 26 44 24 27 45 11 28 46 27 29 47 11 28 46 24 27 45 27 29 48 12 18 30 11 28 49 0 20 32 11 28 49 12 18 30 14 12 20 15 13 21 12 18 30 13 19 31 12 18 30 15 13 21 13 19 35 15 13 22 18 23 37 19 14 23 18 23 37 15 13 22 22 15 25 21 24 38 19 14 24 18 23 40 19 14 24 21 24 38 21 24 38 22 15 25 24 27 43 25 16 26 24 27 43 22 15 25 24 27 45 25 16 27 27 29 47 28 17 28 27 29 47 25 16 27 28 17 29 14 12 20 27 29 48 12 18 30 27 29 48 14 12 20</p>
                </polylist>
            </mesh>
        </geometry>
    </library_geometries>
    <library_visual_scenes>
        <visual_scene id="DefaultScene">
            <node id="Geometry-MeshNode" name="Mesh" type="NODE">
                <matrix sid="transform">
        1 0 0 0
        0 1 0 0
        0 0 1 0
        0 0 0 1
    </matrix>
                <instance_geometry url="#Geometry-Mesh">
                    <bind_material>
                        <technique_common>
                            <instance_material symbol="Material-Default1" target="#Material-Default1">
                                <bind_vertex_input semantic="Texture" input_semantic="TEXCOORD" input_set="0" />
                            </instance_material>
                        </technique_common>
                    </bind_material>
                </instance_geometry>
            </node>
            <node id="Camera-camera012Node" name="Camera" type="NODE">
                <matrix sid="transform">
        1 0 0 0
        0 0.996195 0.0871557 0.75
        0 -0.0871557 0.996195 4
        0 0 0 1
    </matrix>
                <instance_camera url="#Camera-camera012" />
            </node>
            <node id="txtrLocator001Node" name="electrical_dark__Image___Texture_" type="NODE">
                <matrix sid="transform">
        1 0 0 0
        0 1 0 0
        0 0 1 0
        0 0 0 1
    </matrix>
            </node>
            <node id="Light-sunLight015Node" name="Directional_Light" type="NODE">
                <matrix sid="transform">
        0.707107 0.353553 -0.612372 -2
        0 0.866025 0.5 2
        0.707107 -0.353553 0.612372 2
        0 0 0 1
    </matrix>
                <instance_light url="#Light-sunLight015" />
            </node>
            <extra>
                <technique profile="MAYA">
                    <start_time>0</start_time>
                    <end_time>5</end_time>
                </technique>
            </extra>
        </visual_scene>
    </library_visual_scenes>
    <scene>
        <instance_visual_scene url="#DefaultScene" />
    </scene>
</COLLADA>
