<?xml version="1.0" encoding="utf-8"?>
<COLLADA xmlns="http://www.collada.org/2005/11/COLLADASchema" version="1.4.1">
  <asset>
    <contributor>
      <author>Marc</author>
      <authoring_tool>OpenCOLLADA2008</authoring_tool>
      <comments>
			ColladaMaya export options: 
			bakeTransforms=0;relativePaths=0;copyTextures=0;exportTriangles=1;exportCgfxFileReferences=1;
			isSampling=0;curveConstrainSampling=0;removeStaticCurves=1;exportPolygonMeshes=1;exportLights=1;
			exportCameras=1;exportJointsAndSkin=1;exportAnimations=1;exportInvisibleNodes=0;exportDefaultCameras=0;
			exportTexCoords=1;exportNormals=1;exportNormalsPerVertex=1;exportVertexColors=1;exportVertexColorsPerVertex=1;
			exportTexTangents=0;exportTangents=0;exportReferencedMaterials=0;exportMaterialsOnly=0;
			exportXRefs=1;dereferenceXRefs=1;exportCameraAsLookat=0;cameraXFov=0;cameraYFov=1;doublePrecision=0
		</comments>
      <source_data>file:///D:/depth/static_work/texture%20test/temp%20workfiles/pipes/cables.mb</source_data>
    </contributor>
    <created>2011-08-19T12:06:27</created>
    <modified>2011-08-19T12:06:27</modified>
    <unit name="meter" meter="1"/>
    <up_axis>Y_UP</up_axis>
  </asset>
  <library_materials>
    <material id="lambert2" name="lambert2">
      <instance_effect url="#lambert2-fx"/>
    </material>
  </library_materials>
  <library_effects>
    <effect id="lambert2-fx">
      <profile_COMMON>
        <newparam sid="file1-surface">
          <surface type="2D">
            <init_from>file1</init_from>
          </surface>
        </newparam>
        <newparam sid="file1-sampler">
          <sampler2D>
            <source>file1-surface</source>
          </sampler2D>
        </newparam>
        <technique sid="common">
          <lambert>
            <emission>
              <color>0 0 0 1</color>
            </emission>
            <ambient>
              <color>0 0 0 1</color>
            </ambient>
            <diffuse>
              <texture texture="file1-sampler" texcoord="TEX0">
                <extra>
                  <technique profile="OpenCOLLADAMaya">
                    <blend_mode>NONE</blend_mode>
                    <coverageU>1</coverageU>
                    <coverageV>1</coverageV>
                    <fast>0</fast>
                    <mirrorU>0</mirrorU>
                    <mirrorV>0</mirrorV>
                    <noiseU>0</noiseU>
                    <noiseV>0</noiseV>
                    <offsetU>0</offsetU>
                    <offsetV>0</offsetV>
                    <repeatU>1</repeatU>
                    <repeatV>1</repeatV>
                    <rotateFrame>0</rotateFrame>
                    <rotateUV>0</rotateUV>
                    <stagger>0</stagger>
                    <translateFrameU>0</translateFrameU>
                    <translateFrameV>0</translateFrameV>
                    <wrapU>1</wrapU>
                    <wrapV>1</wrapV>
                  </technique>
                </extra>
              </texture>
            </diffuse>
            <transparent opaque="RGB_ZERO">
              <color>0 0 0 1</color>
            </transparent>
            <transparency>
              <float>1</float>
            </transparency>
          </lambert>
        </technique>
      </profile_COMMON>
    </effect>
  </library_effects>
  <library_images>
    <image id="file1" name="file1">
      <init_from>file:///F:/depth/redist/static_objects/_temp/temp_station/small_cables.dds</init_from>
      <extra>
        <technique profile="OpenCOLLADAMaya">
          <dgnode_type>kFile</dgnode_type>
          <image_sequence>0</image_sequence>
          <originalMayaNodeId>file1</originalMayaNodeId>
        </technique>
      </extra>
    </image>
  </library_images>
  <library_geometries>
    <geometry id="polySurfaceShape21" name="polySurfaceShape21">
      <mesh>
        <source id="polySurfaceShape21-positions" name="polySurfaceShape21-positions">
          <float_array id="polySurfaceShape21-positions-array" count="792">0.2781067 -0.271257 2 0.2781067 -0.3173217 2 0.2382134 -0.340354 2 0.1983202 -0.3173217 2 0.1983202 -0.271257 2 0.2382134 -0.2482246 2 2 -0.271257 0.2781067 2 -0.3173217 0.2781067 2 -0.340354 0.2382134 2 -0.3173217 0.1983202 2 -0.271257 0.1983202 2 -0.2482246 0.2382134 0.6771529 -0.4486808 0.7533286 0.6771529 -0.4947455 0.7533286 0.7069485 -0.5177779 0.7788699 0.736951 -0.4947455 0.8045702 0.736951 -0.4486808 0.8045702 0.7069485 -0.4256484 0.7788699 0.3948274 -0.4243546 1.143877 0.3948274 -0.4704192 1.143877 0.4303248 -0.4934516 1.159268 0.4659032 -0.4704192 1.174604 0.4659032 -0.4243546 1.174604 0.4303248 -0.4013222 1.159268 1.060496 -0.4243546 0.4436771 1.060496 -0.4704192 0.4436771 1.080869 -0.4934516 0.4764418 1.101096 -0.4704192 0.5092973 1.101096 -0.4243546 0.5092973 1.080869 -0.4013222 0.4764418 0.2384691 -0.3180241 1.688618 0.2384691 -0.3640888 1.688618 0.2788218 -0.3871212 1.694688 0.3192092 -0.3640888 1.700734 0.3192092 -0.3180241 1.700734 0.2788218 -0.2949917 1.694688 1.659981 -0.3180241 0.2268196 1.659981 -0.3640888 0.2268196 1.668947 -0.3871212 0.2648685 1.677843 -0.3640888 0.3029605 1.677843 -0.3180241 0.3029605 1.668947 -0.2949917 0.2648685 0.01772484 -0.2566334 2 0.01772486 -0.3317539 2 -0.04733141 -0.3693142 2 -0.1123877 -0.3317539 2 -0.1123877 -0.2566334 2 -0.04733143 -0.2190731 2 2 -0.2566334 0.01772484 2 -0.3317539 0.01772486 2 -0.3693142 -0.04733141 2 -0.3317539 -0.1123877 2 -0.2566334 -0.1123877 2 -0.2190731 -0.04733143 0.4521679 -0.4861132 0.5598452 0.4521679 -0.5612337 0.5598452 0.4982371 -0.5987939 0.5995581 0.5448562 -0.5612337 0.6396942 0.5448562 -0.4861131 0.6396942 0.498237 -0.4485529 0.5995581 0.1211335 -0.4503238 1.022159 0.1211335 -0.5254443 1.022159 0.1780324 -0.5630045 1.047916 0.2351471 -0.5254443 1.073529 0.2351471 -0.4503237 1.073529 0.1780324 -0.4127635 1.047916 0.8967933 -0.4503238 0.1916025 0.8967933 -0.5254443 0.1916025 0.9318071 -0.5630045 0.2439256 0.9664302 -0.5254443 0.2964904 0.9664302 -0.4503237 0.2964904 0.9318071 -0.4127635 0.2439256 -0.05718493 -0.3104284 1.60535 -0.05718493 -0.3855489 1.60535 0.008198851 -0.4231092 1.615529 0.07367471 -0.3855489 1.625646 0.07367467 -0.3104284 1.625646 0.008198851 -0.2728682 1.615529 1.563946 -0.3104284 -0.05401837 1.563946 -0.3855489 -0.05401837 1.579415 -0.4231092 0.007505491 1.594699 -0.3855489 0.06914385 1.594699 -0.3104284 0.06914383 1.579415 -0.2728682 0.007505473 2 -0.3670275 0.05830824 1.612817 -0.4286989 0.1200561 0.9991136 -0.5070261 0.3486451 0.5822539 -0.5519194 0.6709738 0.2821243 -0.5070261 1.100662 0.1176772 -0.4286989 1.635068 0.05830823 -0.3670275 2 2 -0.3451823 0.03646303 1.606172 -0.4068537 0.09986423 0.9876262 -0.485181 0.3309079 0.5664231 -0.5300742 0.6573608 0.2628679 -0.485181 1.092119 0.09613106 -0.4068537 1.630474 0.03646303 -0.3451823 2 2 -0.3233371 0.05830824 1.612817 -0.3850085 0.1200561 0.9991136 -0.4633357 0.3486451 0.5822539 -0.5082289 0.6709738 0.2821243 -0.4633357 1.100662 0.1176772 -0.3850085 1.635068 0.05830823 -0.3233371 2 2 -0.3451823 0.08015346 1.619435 -0.4068537 0.1402647 1.010557 -0.485181 0.3664097 0.5981467 -0.5300742 0.6846346 0.3014051 -0.485181 1.109189 0.1392375 -0.4068537 1.639653 0.08015346 -0.3451823 2 2 -0.3670275 -0.1981656 1.516183 -0.4552937 -0.1358232 0.851424 -0.5655347 0.1220251 0.3922657 -0.6104279 0.5081295 0.04552078 -0.5655347 0.9892957 -0.1448764 -0.4552937 1.606803 -0.1981656 -0.3670275 2 2 -0.3451823 -0.2200108 1.50922 -0.4334485 -0.1558183 0.8394189 -0.5436895 0.104662 0.377163 -0.5885827 0.4950765 0.02654968 -0.5436895 0.9805625 -0.1662579 -0.4334485 1.602099 -0.2200108 -0.3451823 2 2 -0.3233371 -0.1981656 1.516183 -0.4116032 -0.1358232 0.851424 -0.5218443 0.1220251 0.3922657 -0.5667375 0.5081295 0.04552078 -0.5218443 0.9892957 -0.1448764 -0.4116032 1.606803 -0.1981656 -0.3233371 2 2 -0.3451823 -0.1763204 1.523118 -0.4334485 -0.1158112 0.8633841 -0.5436895 0.1394698 0.4074303 -0.5885827 0.5212302 0.06451615 -0.5436895 0.9980127 -0.1234809 -0.4334485 1.611497 -0.1763204 -0.3451823 2 2 -0.3670275 -0.2562615 1.497607 -0.4552937 -0.188962 0.8195197 -0.5655347 0.07714334 0.3522379 -0.6104279 0.4735212 -0.004877918 -0.5655347 0.9660346 -0.201708 -0.4552937 1.594272 -0.2562615 -0.3670275 2 2 -0.3451823 -0.2781067 1.490572 -0.4334485 -0.2089126 0.8076005 -0.5436895 0.06061592 0.3373002 -0.5885827 0.4605951 -0.02378186 -0.5436895 0.957253 -0.2230522 -0.4334485 1.589543 -0.2781067 -0.3451823 2 2 -0.3233371 -0.2562615 1.497607 -0.4116032 -0.188962 0.8195197 -0.5218443 0.07714334 0.3522379 -0.5667375 0.4735212 -0.004877918 -0.5218443 0.9660346 -0.201708 -0.4116032 1.594272 -0.2562615 -0.3233371 2 2 -0.3451823 -0.2344163 1.504614 -0.4334485 -0.1689946 0.8314933 -0.5436895 0.09371268 0.3672377 -0.5885827 0.486495 0.01405282 -0.5436895 0.9747947 -0.1803498 -0.4334485 1.598992 -0.2344163 -0.3451823 2 0.3055747 -0.3887915 1.37333 0.3055747 -0.4348562 1.37333 0.3428225 -0.4575974 1.385746 0.3801175 -0.4342497 1.398177 0.3801175 -0.388185 1.398177 0.3428225 -0.365468 1.385746 0.01727123 -0.399458 1.277229 0.01727123 -0.4745785 1.277229 0.07749652 -0.5117514 1.297304 0.1378391 -0.473741 1.317418 0.1378391 -0.3986205 1.317418 0.07749651 -0.3615104 1.297304 0.1821257 -0.481473 1.33218 0.1618113 -0.4596597 1.325409 0.1821257 -0.4377826 1.33218 0.2024527 -0.4595925 1.338956 -0.06369534 -0.5193494 1.25024 -0.08389638 -0.4975445 1.243506 -0.06369534 -0.475659 1.25024 -0.04348167 -0.4974594 1.256978 -0.1173909 -0.5194466 1.232341 -0.1375586 -0.4976294 1.225619 -0.1173909 -0.4757562 1.232341 -0.09721071 -0.4975686 1.239068 1.343229 -0.3872918 0.3047248 1.343229 -0.4333565 0.3047248 1.364854 -0.4550291 0.3371617 1.386495 -0.4305499 0.3696237 1.386495 -0.3844852 0.3696237 1.364854 -0.3628997 0.3371617 1.175357 -0.4080283 0.05291623 1.175357 -0.4831488 0.05291623 1.210428 -0.5188961 0.105523 1.24554 -0.4793191 0.1581904 1.24554 -0.4041985 0.1581904 1.210428 -0.368655 0.105523 1.277775 -0.4788115 0.2065429 1.265947 -0.4574481 0.1888025 1.277775 -0.435121 0.2065429 1.289606 -0.4564676 0.224291 1.122915 -0.5249701 -0.0257469 1.111186 -0.5036095 -0.04333937 1.122915 -0.4812796 -0.0257469 1.13466 -0.5026182 -0.008128815 1.092072 -0.5261581 -0.07201169 1.080583 -0.5047238 -0.08924491 1.092072 -0.4824677 -0.07201169 1.103583 -0.5038923 -0.05474442 0.8541952 -0.4459316 0.5825198 0.8541952 -0.4919963 0.5825198 0.8795696 -0.5150103 0.611468 0.9050231 -0.4919556 0.6405066 0.9050231 -0.4458909 0.6405066 0.8795696 -0.4228809 0.611468 0.6592808 -0.4776706 0.3601526 0.6592808 -0.5527911 0.3601526 0.6996963 -0.5903617 0.4062605 0.7403201 -0.552802 0.4526059 0.7403201 -0.4776815 0.4526059 0.6996963 -0.4401207 0.4062604 0.7763074 -0.5388466 0.4936619 0.762597 -0.5170072 0.4780204 0.7763074 -0.4951561 0.4936619 0.7900419 -0.5169939 0.5093308 0.6063319 -0.5974666 0.2997462 0.5929132 -0.5756085 0.2844376 0.6063319 -0.5537762 0.2997462 0.6197875 -0.5756318 0.3150969 0.5710436 -0.5974035 0.2594877 0.5579258 -0.57553 0.2445223 0.5710436 -0.5537131 0.2594877 0.5842074 -0.575588 0.2745056 0.5251163 -0.4464184 0.9322874 0.5251163 -0.4924831 0.9322874 0.5591896 -0.515666 0.9505238 0.5934083 -0.492791 0.9688381 0.5934083 -0.4467263 0.9688381 0.5591896 -0.4235366 0.9505238 0.2643178 -0.4768736 0.7927052 0.2643178 -0.5519941 0.7927052 0.3182884 -0.5898304 0.8215908 0.3725845 -0.5525604 0.8506507 0.3725845 -0.4774398 0.8506507 0.3182884 -0.4395894 0.8215908 0.4178743 -0.5391433 0.8748904 0.3995488 -0.5171675 0.8650823 0.4178743 -0.4954528 0.8748904 0.4362386 -0.5174311 0.8847192 0.1936097 -0.5960705 0.7548614 0.1756946 -0.5741191 0.7452731 0.1936097 -0.55238 0.7548614 0.2115589 -0.574333 0.764468 0.1460402 -0.5957912 0.7294017 0.1282141 -0.5738432 0.7198609 0.1460402 -0.5521007 0.7294017 0.1638993 -0.5740498 0.73896</float_array>
          <technique_common>
            <accessor source="#polySurfaceShape21-positions-array" count="264" stride="3">
              <param name="X" type="float"/>
              <param name="Y" type="float"/>
              <param name="Z" type="float"/>
            </accessor>
          </technique_common>
        </source>
        <source id="polySurfaceShape21-normals" name="polySurfaceShape21-normals">
          <float_array id="polySurfaceShape21-normals-array" count="1260">0.7351456 0.4256527 0.5276178 0.6794646 -0.3966736 0.6172339 0.8363667 -0.494606 0.236338 0.8667983 0.4959656 0.05175686 -0.01113514 -0.8061184 0.5916494 -0.02999608 -0.9829718 0.1812909 -0.7604327 -0.4399001 0.4777342 -0.8665103 -0.4961849 -0.05440962 -0.8021063 0.4679759 0.370977 -0.8364283 0.4948156 -0.23568 0.01216924 0.9182795 0.3957457 0.02967694 0.9829017 -0.1817237 0.4050837 0.9141805 0.01345754 0.4974344 0.4268883 0.755199 0.5853476 -0.4054513 0.7021236 0.5859568 -0.8102517 -0.01211851 0.4967993 -0.4273341 -0.7553648 0.4037026 0.4575886 -0.7922353 -0.633333 -0.4942835 -0.5954603 -0.6339156 0.4943832 -0.5947572 -0.5653189 0.494423 -0.660273 -0.5272421 -0.4946223 -0.6909158 -2.98565e-4 -0.9999995 -9.56694e-4 0.03981915 -0.9987386 -0.03058427 0.6317052 -0.4951721 0.5964502 0.5664453 -0.4950627 0.6588267 0.6308919 0.4950584 0.5974049 0.5273373 0.4953751 0.6903035 -0.001968459 0.999998 4.74325e-4 -0.04047408 0.998756 0.02912835 -0.801657 -0.4959641 -0.3337147 -0.7525135 0.4911495 -0.4387434 -0.6896272 0.492031 -0.5313376 -0.7166404 -0.4953242 -0.4909994 -0.04661996 -0.9930241 0.1083037 -0.02614207 -0.9987065 0.04361137 0.7520483 -0.4914379 0.4392174 0.6853863 -0.4927227 0.5361622 0.802164 0.4964363 0.3317885 0.7130105 0.4962498 0.4953302 0.04576479 0.9929844 -0.1090303 0.02328588 0.9988176 -0.04267523 -0.391046 -0.4924256 -0.7775602 -0.4791654 0.4919904 -0.7268739 -0.3730167 0.4908401 -0.7873592 -0.2201115 -0.4882509 -0.8444892 0.09045394 -0.9945872 -0.05113034 0.1553019 -0.9862424 -0.05663269 0.4791303 -0.4919343 0.7269352 0.3691475 -0.4909717 0.7890987 0.3882237 0.49263 0.7788441 0.2117546 0.4881305 0.8466927 -0.09129349 0.9945189 0.05096824 -0.1578734 0.9858125 0.0570053 -0.803586 0.4925702 -0.334102 -0.8541552 -0.494664 -0.1603941 -0.04801699 -0.9834979 0.1744315 0.804885 -0.4928676 0.3305172 0.8555679 0.4945303 0.153112 0.04783466 0.9830973 -0.1767246 -0.05598872 -0.4855975 -0.8723877 -0.2249287 0.494027 -0.8398479 0.1694032 -0.9847864 -0.03870703 0.2190426 -0.4940526 0.8413872 0.04577655 0.4848256 0.873412 -0.172608 0.9842163 0.03904628 0.7292944 0.4228975 0.5378545 0.6781317 -0.396056 0.6190938 0.8327777 -0.4925299 0.2527754 0.8681962 0.493529 0.0516177 -0.01082824 -0.8113151 0.584509 -0.03571258 -0.9798728 0.1964029 -0.7653365 -0.4432705 0.4666597 -0.8675568 -0.4940234 -0.05732535 -0.8028619 0.4684818 0.3686975 -0.8325565 0.4927599 -0.253056 0.01152694 0.9138719 0.4058389 0.0351675 0.9796446 -0.1976356 0.4154571 0.9095048 0.01402149 0.52915 0.4196999 0.7374632 0.605513 -0.3987563 0.6887287 0.5780882 -0.8158733 -0.0128325 0.4640176 -0.4384554 -0.7697042 0.3770227 0.4642176 -0.801471 -0.6440116 -0.4876097 -0.5894793 -0.6438474 0.4870124 -0.5901519 -0.5792924 0.489621 -0.6516834 -0.5323687 -0.489225 -0.6908275 -9.58284e-4 -0.9999992 8.25054e-4 0.04757745 -0.9980807 -0.03963857 0.6409104 -0.488595 0.5920378 0.5751087 -0.4907396 0.6545414 0.6409253 0.4892148 0.5915096 0.5264605 0.4902272 0.6946343 -0.00276152 0.9999937 -0.002232132 -0.05112331 0.9979149 0.0394008 -0.8046239 -0.4924227 -0.3318134 -0.7438728 0.4867175 -0.4579948 -0.6933528 0.4859244 -0.5321085 -0.7285866 -0.4892531 -0.4793671 -0.05768519 -0.9897296 0.1307959 -0.03516978 -0.9978354 0.05556583 0.7448804 -0.487123 0.4559212 0.6921548 -0.4871655 0.532533 0.8069335 0.492862 0.3254923 0.7283157 0.4906056 0.4783958 0.05698886 0.9894491 -0.1332024 0.03272203 0.9978233 -0.05725342 -0.3974667 -0.4899433 -0.775871 -0.495287 0.4914567 -0.7163525 -0.3968975 0.4902844 -0.7759469 -0.2233474 -0.4844099 -0.8458505 0.09996764 -0.9931375 -0.06069954 0.1766422 -0.9816545 -0.07177658 0.4926849 -0.4913462 0.7182204 0.393533 -0.490277 0.7776632 0.390718 0.490021 0.7792424 0.2126386 0.484141 0.8487592 -0.102241 0.9928769 0.061175 -0.1796563 0.9811007 0.07186786 -0.7926729 0.4880796 -0.3653053 -0.8577994 -0.4908155 -0.1525788 -0.0623352 -0.9747789 0.2142904 0.7947531 -0.4884993 0.3601888 0.8601193 0.4903727 0.1404615 0.06184825 0.9740002 -0.2179412 -0.08569946 -0.4845069 -0.8705794 -0.2607146 0.4926623 -0.830248 0.1762853 -0.9832025 -0.04728973 0.2550277 -0.4926327 0.8320298 0.07339391 0.483595 0.8722094 -0.1799199 0.9825371 0.04742799 -0.005829582 -0.6937883 -0.7201553 -0.04714326 -0.6866183 -0.7254879 -0.04714326 -0.6866183 -0.7254879 -0.005829582 -0.6937883 -0.7201553 -0.1804058 -0.689302 -0.7016528 -0.1804058 -0.689302 -0.7016528 -0.2989475 -0.6900525 -0.6591342 -0.3968717 -0.6890026 -0.6064388 -0.3968717 -0.6890026 -0.6064388 -0.2989475 -0.6900525 -0.6591342 -0.5274943 -0.6899406 -0.4957134 -0.6245681 -0.6904143 -0.3650242 -0.6245681 -0.6904143 -0.3650242 -0.5274943 -0.6899406 -0.4957134 -0.6718087 -0.6939075 -0.2591632 -0.7034819 -0.6993763 -0.1264353 -0.7034819 -0.6993763 -0.1264353 -0.6718087 -0.6939075 -0.2591632 -0.7135632 -0.7004374 -0.01466614 -0.7096994 -0.7044968 0.003286808 -0.7096994 -0.7044968 0.003286808 -0.7135632 -0.7004374 -0.01466614 -0.2194806 0.6935636 -0.686147 -0.2481806 0.6921073 -0.6777859 -0.2481806 0.6921073 -0.6777859 -0.2194806 0.6935636 -0.686147 -0.3297949 0.6926724 -0.641436 -0.3297949 0.6926724 -0.641436 -0.4219836 0.6927645 -0.5848138 -0.4875913 0.6906005 -0.5341586 -0.4875913 0.6906005 -0.5341586 -0.4219836 0.6927645 -0.5848138 -0.529368 0.6879728 -0.4964502 -0.561331 0.6859449 -0.4630193 -0.561331 0.6859449 -0.4630193 -0.529368 0.6879728 -0.4964502 -0.6048842 0.6901624 -0.397229 -0.6468687 0.6982619 -0.3065797 -0.6468687 0.6982619 -0.3065797 -0.6048842 0.6901624 -0.397229 -0.6704144 0.7002116 -0.2454552 -0.6789076 0.6981602 -0.2272806 -0.6789076 0.6981602 -0.2272806 -0.6704144 0.7002116 -0.2454552 0.002872753 0.6937078 0.7202507 0.04423355 0.6865001 0.7257831 0.04423355 0.6865001 0.7257831 0.002872753 0.6937078 0.7202507 0.1782945 0.6893456 0.7021492 0.1782945 0.6893456 0.7021492 0.2971551 0.6901906 0.6597998 0.3952598 0.6896089 0.6068024 0.3952598 0.6896089 0.6068024 0.2971551 0.6901906 0.6597998 0.5262691 0.6909252 0.4956441 0.6240077 0.6912216 0.3644544 0.6240077 0.6912216 0.3644544 0.5262691 0.6909252 0.4956441 0.6719859 0.6942704 0.2577278 0.7037019 0.6995192 0.1244043 0.7037019 0.6995192 0.1244043 0.6719859 0.6942704 0.2577278 0.7135851 0.700447 0.01305666 0.709617 0.7045766 -0.003927136 0.709617 0.7045766 -0.003927136 0.7135851 0.700447 0.01305666 0.2202902 -0.6935631 0.6858879 0.2478414 -0.6920484 0.6779703 0.2478414 -0.6920484 0.6779703 0.2202902 -0.6935631 0.6858879 0.3293703 -0.6926593 0.6416684 0.3293703 -0.6926593 0.6416684 0.4220166 -0.6928442 0.5846956 0.4871528 -0.6912212 0.5337559 0.4871528 -0.6912212 0.5337559 0.4220166 -0.6928442 0.5846956 0.5282733 -0.6889392 0.4962763 0.5601151 -0.6866626 0.463428 0.5601151 -0.6866626 0.463428 0.5282733 -0.6889392 0.4962763 0.6044834 -0.6904899 0.3972699 0.6468618 -0.6984776 0.3061025 0.6468618 -0.6984776 0.3061025 0.6044834 -0.6904899 0.3972699 0.6701627 -0.7002102 0.2461454 0.6783374 -0.6979921 0.2294887 0.6783374 -0.6979921 0.2294887 0.6701627 -0.7002102 0.2461454 0 0 0.9999999 0 0 0.9999999 0 0 0.9999999 0 0 0.9999999 0.9999999 0 0 0.9999999 0 0 0.9999999 0 0 0.9999999 0 0 0.03071661 -0.6887676 -0.7243312 -0.0280885 -0.6830772 -0.7298058 -0.0280885 -0.6830772 -0.7298058 0.03071661 -0.6887676 -0.7243312 -0.1763262 -0.6856115 -0.7062903 -0.1763262 -0.6856115 -0.7062903 -0.3169009 -0.6884843 -0.6523521 -0.4317642 -0.6824924 -0.5897318 -0.4317642 -0.6824924 -0.5897318 -0.3169009 -0.6884843 -0.6523521 -0.5446616 -0.6774125 -0.4944249 -0.6243927 -0.6811935 -0.382242 -0.6243927 -0.6811935 -0.382242 -0.5446616 -0.6774125 -0.4944249 -0.6793656 -0.6902482 -0.2490373 -0.7116797 -0.6944019 -0.106385 -0.7116797 -0.6944019 -0.106385 -0.6793656 -0.6902482 -0.2490373 -0.7164145 -0.697605 0.009873206 -0.7128058 -0.6988334 0.05949509 -0.7128058 -0.6988334 0.05949509 -0.7164145 -0.697605 0.009873206 -0.2148796 0.693139 -0.6880298 -0.260998 0.6917505 -0.6733211 -0.260998 0.6917505 -0.6733211 -0.2148796 0.693139 -0.6880298 -0.3651135 0.6914849 -0.6233304 -0.3651135 0.6914849 -0.6233304 -0.4531431 0.6895819 -0.5649232 -0.5090976 0.6825427 -0.5243616 -0.5090976 0.6825427 -0.5243616 -0.4531431 0.6895819 -0.5649232 -0.5450469 0.6756852 -0.4963599 -0.5666649 0.6766582 -0.4701325 -0.5666649 0.6766582 -0.4701325 -0.5450469 0.6756852 -0.4963599 -0.5981271 0.6842057 -0.4172609 -0.639707 0.6947616 -0.3287571 -0.639707 0.6947616 -0.3287571 -0.5981271 0.6842057 -0.4172609 -0.667577 0.6971739 -0.2613228 -0.6755406 0.6949069 -0.2464735 -0.6755406 0.6949069 -0.2464735 -0.667577 0.6971739 -0.2613228 -0.03390075 0.6885851 0.7243626 0.02522061 0.6830539 0.7299324 0.02522061 0.6830539 0.7299324 -0.03390075 0.6885851 0.7243626 0.1741945 0.6860958 0.7063489 0.1741945 0.6860958 0.7063489 0.3146679 0.689231 0.6526444 0.4295271 0.683495 0.5902041 0.4295271 0.683495 0.5902041 0.3146679 0.689231 0.6526444 0.5434933 0.6785811 0.494108 0.6243271 0.6819835 0.3809387 0.6243271 0.6819835 0.3809387 0.5434933 0.6785811 0.494108 0.6797367 0.6905727 0.2471179 0.7118724 0.6945136 0.1043469 0.7118724 0.6945136 0.1043469 0.6797367 0.6905727 0.2471179 0.716391 0.6976011 -0.01168564 0.7127014 0.6988056 -0.0610509 0.7127014 0.6988056 -0.0610509 0.716391 0.6976011 -0.01168564 0.2153342 -0.6931733 0.6878531 0.260701 -0.6917922 0.6733932 0.260701 -0.6917922 0.6733932 0.2153342 -0.6931733 0.6878531 0.3649899 -0.6917917 0.6230624 0.3649899 -0.6917917 0.6230624 0.4527833 -0.6901439 0.5645251 0.5077496 -0.6835384 0.5243717 0.5077496 -0.6835384 0.5243717 0.4527833 -0.6901439 0.5645251 0.5439363 -0.6768202 0.4960319 0.566153 -0.6774355 0.4696295 0.566153 -0.6774355 0.4696295 0.5439363 -0.6768202 0.4960319 0.5979587 -0.6845218 0.4169836 0.6396439 -0.6949565 0.328468 0.6396439 -0.6949565 0.328468 0.5979587 -0.6845218 0.4169836 0.6673102 -0.6971662 0.2620235 0.6749706 -0.6947284 0.2485293 0.6749706 -0.6947284 0.2485293 0.6673102 -0.6971662 0.2620235 0 0 0.9999999 0 0 0.9999999 0 0 0.9999999 0 0 0.9999999 0.9999999 0 0 0.9999999 0 0 0.9999999 0 0 0.9999999 0 0 0.02254582 -0.6891931 -0.7242267 -0.03676461 -0.6818141 -0.7306011 -0.03676461 -0.6818141 -0.7306011 0.02254582 -0.6891931 -0.7242267 -0.1864099 -0.6786884 -0.7103755 -0.1864099 -0.6786884 -0.7103755 -0.3280186 -0.6778044 -0.6580161 -0.4401627 -0.6739933 -0.5932873 -0.4401627 -0.6739933 -0.5932873 -0.3280186 -0.6778044 -0.6580161 -0.5481078 -0.6728263 -0.4968727 -0.6243854 -0.6790946 -0.3859706 -0.6243854 -0.6790946 -0.3859706 -0.5481078 -0.6728263 -0.4968727 -0.6783416 -0.6893811 -0.2541773 -0.7111788 -0.694079 -0.1117094 -0.7111788 -0.694079 -0.1117094 -0.6783416 -0.6893811 -0.2541773 -0.7164688 -0.6976004 0.005114399 -0.7130718 -0.6988984 0.05540374 -0.7130718 -0.6988984 0.05540374 -0.7164688 -0.6976004 0.005114399 -0.213788 0.6930381 -0.6884713 -0.2624994 0.6902028 -0.6743249 -0.2624994 0.6902028 -0.6743249 -0.213788 0.6930381 -0.6884713 -0.3683215 0.6850355 -0.6285427 -0.3683215 0.6850355 -0.6285427 -0.4577425 0.6798644 -0.5729365 -0.514541 0.6745124 -0.5294152 -0.514541 0.6745124 -0.5294152 -0.4577425 0.6798644 -0.5729365 -0.5482712 0.671268 -0.4987965 -0.5677651 0.6745775 -0.4717922 -0.5677651 0.6745775 -0.4717922 -0.5482712 0.671268 -0.4987965 -0.5984503 0.6833678 -0.4181694 -0.6398638 0.69425 -0.3295318 -0.6398638 0.69425 -0.3295318 -0.5984503 0.6833678 -0.4181694 -0.668251 0.6971754 -0.2595902 -0.6769738 0.6953261 -0.2413046 -0.6769738 0.6953261 -0.2413046 -0.668251 0.6971754 -0.2595902 -0.02556854 0.6890399 0.7242721 0.03371365 0.6817446 0.730813 0.03371365 0.6817446 0.730813 -0.02556854 0.6890399 0.7242721 0.1837048 0.6790898 0.7106965 0.1837048 0.6790898 0.7106965 0.3257352 0.6787109 0.6582158 0.4383819 0.6752279 0.5932019 0.4383819 0.6752279 0.5932019 0.3257352 0.6787109 0.6582158 0.5472119 0.6740567 0.4961922 0.6244205 0.6798815 0.384526 0.6244205 0.6798815 0.384526 0.5472119 0.6740567 0.4961922 0.6787322 0.6897089 0.2522379 0.7113623 0.694208 0.1097218 0.7113623 0.694208 0.1097218 0.6787322 0.6897089 0.2522379 0.7164494 0.6976048 -0.006893773 0.7129748 0.6988744 -0.05693417 0.7129748 0.6988744 -0.05693417 0.7164494 0.6976048 -0.006893773 0.2141796 -0.693078 0.6883094 0.2619251 -0.6903344 0.6744134 0.2619251 -0.6903344 0.6744134 0.2141796 -0.693078 0.6883094 0.3675077 -0.6856549 0.6283435 0.3675077 -0.6856549 0.6283435 0.4570496 -0.6809213 0.5722341 0.5134346 -0.6758477 0.5287861 0.5134346 -0.6758477 0.5287861 0.4570496 -0.6809213 0.5722341 0.5473858 -0.6724975 0.4981123 0.5674 -0.6753563 0.4711168 0.5674 -0.6753563 0.4711168 0.5473858 -0.6724975 0.4981123 0.5983556 -0.6836759 0.4178012 0.6398093 -0.6944385 0.3292403 0.6398093 -0.6944385 0.3292403 0.5983556 -0.6836759 0.4178012 0.6680029 -0.6971784 0.26022 0.6764471 -0.6951789 0.2431985 0.6764471 -0.6951789 0.2431985 0.6680029 -0.6971784 0.26022 0 0 0.9999999 0 0 0.9999999 0 0 0.9999999 0 0 0.9999999 0.9999999 0 0 0.9999999 0 0 0.9999999 0 0 0.9999999 0 0</float_array>
          <technique_common>
            <accessor source="#polySurfaceShape21-normals-array" count="420" stride="3">
              <param name="X" type="float"/>
              <param name="Y" type="float"/>
              <param name="Z" type="float"/>
            </accessor>
          </technique_common>
        </source>
        <source id="polySurfaceShape21-map1" name="polySurfaceShape21-map1">
          <float_array id="polySurfaceShape21-map1-array" count="828">0.7956673 0.004874304 0.8377066 0.004874304 0.8377064 0.1090135 0.7956988 0.1090135 0.8377064 0.2657079 0.7956371 0.2657079 0.8377064 0.3935065 0.7956673 0.004874304 0.8377064 0.1090135 0.7956988 0.1090135 0.8377064 0.2657079 0.7956371 0.2657079 0.8377064 0.3935065 0.7955295 0.3935065 0.8302778 0.6777921 0.8742924 0.004874304 0.8742924 0.1090135 0.8840954 0.6922444 0.9108777 0.004874304 0.9109291 0.1090135 0.8742924 0.2657079 0.8840954 0.6922444 0.9108478 0.2657079 0.8742924 0.3935065 0.9379131 0.6777921 0.9107982 0.3935065 0.8742924 0.1090135 0.9379131 0.6488875 0.9109291 0.1090135 0.8742924 0.2657079 0.8840954 0.6344353 0.9108478 0.2657079 0.8742924 0.3935065 0.8302773 0.6488875 0.9107982 0.3935065 0.8302778 0.6777921 0.9529641 0.004874304 0.9529476 0.1090135 0.8840954 0.6344353 0.9529092 0.2657079 0.9895498 0.2657079 0.952971 0.3935065 0.9895498 0.004874304 0.9529476 0.1090135 0.7589837 0.3935065 0.9529092 0.2657079 0.8302773 0.6488875 0.952971 0.3935065 0.9895498 0.3935065 0.7591292 0.004874304 0.7591292 0.004874304 0.9895499 0.1090135 0.9379131 0.6488875 0.7590902 0.1090135 0.7590313 0.2657079 0.9895498 0.2657079 0.9895499 0.1090135 0.7590902 0.1090135 0.9895498 0.3935065 0.9379131 0.6777921 0.7955295 0.3935065 0.9895498 0.004874304 0.9529641 0.004874304 0.7589837 0.3935065 0.7590313 0.2657079 0.8377066 0.004874304 0.8742924 0.004874304 0.9108777 0.004874304 0.5431417 0.004874304 0.5851809 0.004874304 0.585181 0.1090135 0.5431731 0.1090135 0.6217667 0.004874304 0.6217667 0.1090135 0.658352 0.004874304 0.6584035 0.1090135 0.7004381 0.004874304 0.7004219 0.1090135 0.7370241 0.004874304 0.7370241 0.1090135 0.5066035 0.004874304 0.5065646 0.1090135 0.8302778 0.6777921 0.8302774 0.6488875 0.8840954 0.6344353 0.9379131 0.6488875 0.9379131 0.6777921 0.8840954 0.6922444 0.8840954 0.6922444 0.8302778 0.6777921 0.8302774 0.6488875 0.8840954 0.6344353 0.9379131 0.6488875 0.9379131 0.6777921 0.658352 0.004874304 0.7004381 0.004874304 0.7004219 0.1090135 0.6584035 0.1090135 0.6217667 0.004874304 0.6217667 0.1090135 0.5851809 0.004874304 0.585181 0.1090135 0.5431417 0.004874304 0.5431731 0.1090135 0.5066035 0.004874304 0.5065646 0.1090135 0.7370241 0.004874304 0.7370241 0.1090135 0.6583222 0.2657079 0.7003835 0.2657079 0.7004453 0.3935065 0.6582725 0.3935065 0.6217667 0.2657079 0.6217667 0.3935065 0.5851808 0.2657079 0.5851806 0.3935065 0.5431114 0.2657079 0.5430037 0.3935065 0.5065059 0.2657079 0.5064582 0.3935065 0.7370238 0.2657079 0.7370241 0.3935065 0.7003835 0.2657079 0.6583222 0.2657079 0.6217667 0.2657079 0.5851808 0.2657079 0.5431114 0.2657079 0.5065059 0.2657079 0.7370238 0.2657079 0.7004453 0.3935065 0.6582725 0.3935065 0.6217667 0.3935065 0.5851806 0.3935065 0.5430037 0.3935065 0.5064582 0.3935065 0.7370241 0.3935065 0.4069263 0.9967501 0.4069263 0.8641527 0.4161576 0.8641527 0.4161576 0.9967501 0.4069263 0.6630523 0.4161576 0.6630523 0.4069263 0.4987419 0.4161576 0.4987419 0.4069263 0.3344316 0.4161576 0.3344316 0.4069263 0.1385179 0.4161576 0.1385179 0.4069263 7.33949e-4 0.4161576 7.33949e-4 0.3976951 0.9967501 0.3976951 0.8641527 0.4069263 0.8641527 0.4069263 0.9967501 0.3976951 0.6630523 0.4069263 0.6630523 0.3976951 0.4987419 0.4069263 0.4987419 0.3976951 0.3344316 0.4069263 0.3344316 0.3976951 0.1385179 0.4069263 0.1385179 0.3976951 7.33957e-4 0.4069263 7.33949e-4 0.4161576 0.8641527 0.4161576 0.9967501 0.4161576 0.6630523 0.4161576 0.4987419 0.4161576 0.3344316 0.4161576 0.1385179 0.4161576 7.33949e-4 0.3976951 0.9967501 0.3976951 0.8641527 0.3976951 0.6630523 0.3976951 0.4987419 0.3976951 0.3344316 0.3976951 0.1385179 0.3976951 7.33957e-4 0.9315665 0.6350883 0.9316787 0.6914785 0.8381969 0.6913843 0.8383781 0.6352412 0.8383781 0.6352412 0.9315665 0.6350883 0.9316787 0.6914785 0.8381969 0.6913843 0.2198748 0.9967501 0.2198748 0.8641527 0.2291061 0.8641527 0.2291061 0.9967501 0.2198748 0.6630523 0.2291061 0.6630523 0.2198748 0.4987419 0.2291061 0.4987419 0.2198748 0.3344316 0.2291061 0.3344316 0.2198748 0.1385179 0.2291061 0.1385179 0.2198748 7.33949e-4 0.2291061 7.33949e-4 0.2106438 0.9967501 0.2106438 0.8641527 0.2198751 0.8641527 0.2198751 0.9967501 0.2106438 0.6630523 0.2198751 0.6630523 0.2106438 0.4987419 0.2198751 0.4987419 0.2106438 0.3344316 0.2198751 0.3344316 0.2106438 0.1385179 0.2198751 0.1385179 0.2106438 7.33957e-4 0.2198751 7.33942e-4 0.2291063 0.8641527 0.2291063 0.9967501 0.2291063 0.6630523 0.2291063 0.4987419 0.2291063 0.3344316 0.2291063 0.1385179 0.2291063 7.33957e-4 0.2106435 0.9967501 0.2106435 0.8641527 0.2106435 0.6630523 0.2106435 0.4987419 0.2106435 0.3344316 0.2106435 0.1385179 0.2106435 7.33957e-4 0.9315665 0.6350883 0.9316787 0.6914785 0.8381969 0.6913843 0.8383781 0.6352412 0.8383781 0.6352412 0.9315665 0.6350883 0.9316787 0.6914785 0.8381969 0.6913843 0.3511823 0.99675 0.3511823 0.8641527 0.3626073 0.8641527 0.3626073 0.9967501 0.3511823 0.6630523 0.3626073 0.6630523 0.3511823 0.4987419 0.3626073 0.4987419 0.3511823 0.3344316 0.3626073 0.3344316 0.3511823 0.1385179 0.3626073 0.1385179 0.3511823 7.33957e-4 0.3626073 7.33942e-4 0.3740323 0.8641527 0.3740323 0.9967501 0.3740323 0.6630523 0.3740323 0.4987419 0.3740323 0.3344316 0.3740323 0.1385179 0.3740323 7.33942e-4 0.3511823 0.99675 0.3511823 0.8641527 0.3626073 0.8641527 0.3626073 0.9967501 0.3511823 0.6630523 0.3626073 0.6630523 0.3511823 0.4987419 0.3626073 0.4987419 0.3511823 0.3344316 0.3626073 0.3344316 0.3511823 0.1385179 0.3626073 0.1385179 0.3511823 7.33957e-4 0.3626073 7.33942e-4 0.3740323 0.8641527 0.3740323 0.99675 0.3740323 0.6630523 0.3740323 0.4987419 0.3740323 0.3344316 0.3740323 0.1385179 0.3740323 7.33942e-4 0.9315665 0.6350883 0.9316787 0.6914785 0.8381969 0.6913843 0.8383781 0.6352412 0.8383781 0.6352412 0.9315665 0.6350883 0.9316787 0.6914785 0.8381969 0.6913843 0.9529268 0.1937157 0.9108852 0.1937157 0.8742924 0.1932867 0.8377064 0.1928219 0.7956657 0.1928219 0.9895498 0.1932867 0.7590585 0.1932867 0.7004011 0.1938484 0.6583595 0.1938484 0.6217667 0.1934146 0.5851809 0.1929103 0.5431401 0.1929103 0.7370239 0.1934146 0.506533 0.1934146 0.4069263 0.2570025 0.3976951 0.257066 0.4161576 0.257066 0.4069263 0.2570025 0.3976951 0.256932 0.4161576 0.256932 0.2198748 0.2501957 0.2106438 0.2502527 0.2291061 0.2502527 0.2198751 0.2501957 0.2106435 0.2501322 0.2291063 0.2501322 0.3511823 0.2503334 0.3740323 0.2503334 0.3626073 0.250373 0.3511823 0.2503334 0.3740323 0.2503334 0.3626073 0.2502868 0.9529294 0.1832157 0.9108906 0.1832157 0.8742924 0.1852195 0.8377064 0.1873516 0.7956679 0.1873516 0.9895498 0.1852195 0.7590616 0.1852195 0.7004067 0.1712735 0.6583712 0.1712735 0.6217667 0.1733043 0.5851809 0.1755632 0.5431468 0.1755632 0.7370239 0.1733043 0.5065405 0.1733043 0.4069263 0.7457869 0.3976951 0.7448264 0.4161576 0.7448264 0.4069263 0.7457869 0.3976951 0.746781 0.4161576 0.746781 0.2198748 0.7393275 0.2106438 0.7386411 0.2291061 0.7386411 0.2198751 0.7393275 0.2106435 0.7400451 0.2291063 0.7400451 0.3511823 0.7376449 0.3740323 0.7376449 0.3626073 0.7370629 0.3511823 0.7376449 0.3740323 0.7376449 0.3626073 0.7382406 0.9529558 0.05703013 0.9109035 0.05703013 0.8742924 0.05710862 0.8377066 0.05720444 0.7956831 0.05720444 0.9895498 0.05710862 0.7591096 0.05710862 0.70043 0.05689131 0.6583778 0.05689131 0.6217667 0.0568612 0.585181 0.0568596 0.5431573 0.0568596 0.7370241 0.0568612 0.506584 0.0568612 0.4069263 0.5811177 0.3976951 0.5810965 0.4161576 0.5810965 0.4069263 0.5811177 0.3976951 0.5811451 0.4161576 0.5811451 0.2198748 0.5807096 0.2106438 0.5807568 0.2291061 0.5807568 0.2198751 0.5807096 0.2106435 0.5806716 0.2291063 0.5806716 0.3511823 0.5809407 0.3740323 0.5809407 0.3626073 0.5810443 0.3511823 0.5809407 0.3740323 0.5809407 0.3626073 0.5808316 0.9529412 0.3320588 0.910822 0.3320588 0.8742924 0.3328496 0.8377064 0.3336762 0.7955799 0.3336762 0.9895498 0.3328496 0.7590063 0.3328496 0.700413 0.3268258 0.6582984 0.3268258 0.6217667 0.3278115 0.5851806 0.3288479 0.5430582 0.3288479 0.7370239 0.3278115 0.5064827 0.3278115 0.4069263 0.4174518 0.3976951 0.4169742 0.4161576 0.4169742 0.4069263 0.4174518 0.3976951 0.4179388 0.4161576 0.4179388 0.2198748 0.4116644 0.2106438 0.4112757 0.2291061 0.4112757 0.2198751 0.4116644 0.2106435 0.4120585 0.2291063 0.4120585 0.3511823 0.410642 0.3740323 0.410642 0.3626073 0.4102658 0.3511823 0.410642 0.3740323 0.410642 0.3626073 0.4110222</float_array>
          <technique_common>
            <accessor source="#polySurfaceShape21-map1-array" count="414" stride="2">
              <param name="S" type="float"/>
              <param name="T" type="float"/>
            </accessor>
          </technique_common>
        </source>
        <vertices id="polySurfaceShape21-vertices" name="polySurfaceShape21-vertices">
          <input semantic="POSITION" source="#polySurfaceShape21-positions"/>
        </vertices>
        <triangles material="lambert2SG" count="508">
          <input semantic="VERTEX" source="#polySurfaceShape21-vertices" offset="0"/>
          <input semantic="NORMAL" source="#polySurfaceShape21-normals" offset="1"/>
          <input semantic="TEXCOORD" source="#polySurfaceShape21-map1" offset="2" set="0"/>
          <p>0 0 0 1 1 1 34 3 3 34 3 3 1 1 1 33 2 2 1 1 1 2 4 15 33 2 2 33 2 2 2 4 15 32 5 16 3 6 18 31 7 19 2 4 15 2 4 15 31 7 19 32 5 16 4 8 36 30 9 37 3 6 18 3 6 18 30 9 37 31 7 19 5 10 42 35 11 51 4 8 36 4 8 36 35 11 51 30 9 37 5 10 50 0 0 0 35 11 57 35 11 57 0 0 0 34 3 3 1 1 27 0 0 24 2 4 30 3 6 33 2 4 30 4 8 35 5 10 21 4 8 35 0 0 24 4 8 35 2 4 30 0 0 24 7 14 46 8 15 38 6 13 14 9 16 52 10 17 59 8 15 38 11 12 17 6 13 14 10 17 59 6 13 14 8 15 38 10 17 59 13 18 67 12 19 62 217 21 351 217 21 351 12 19 62 216 20 350 13 18 67 217 21 351 14 22 66 14 22 66 217 21 351 218 23 352 14 22 66 218 23 352 15 24 65 15 24 65 218 23 352 219 25 353 15 24 65 219 25 353 16 26 7 16 26 7 219 25 353 220 27 354 17 28 49 16 26 7 221 29 356 221 29 356 16 26 7 220 27 354 12 19 62 17 28 61 216 20 350 216 20 350 17 28 61 221 29 355 18 31 39 240 32 382 19 30 22 19 30 22 240 32 382 241 33 383 19 30 22 241 33 383 20 34 20 20 34 20 241 33 383 242 35 384 20 34 20 242 35 384 21 36 4 21 36 4 242 35 384 243 37 385 22 38 5 21 36 4 244 39 386 244 39 386 21 36 4 243 37 385 23 40 54 22 38 5 245 41 388 245 41 388 22 38 5 244 39 386 18 31 39 23 40 55 240 32 382 240 32 382 23 40 55 245 41 387 25 42 28 24 43 43 193 45 319 193 45 319 24 43 43 192 44 318 25 42 28 193 45 319 26 46 26 26 46 26 193 45 319 194 47 320 26 46 26 194 47 320 27 48 8 27 48 8 194 47 320 195 49 321 27 48 8 195 49 321 28 50 9 28 50 9 195 49 321 196 51 322 29 52 53 28 50 9 197 53 324 197 53 324 28 50 9 196 51 322 24 43 43 29 52 56 192 44 318 192 44 318 29 52 56 197 53 323 30 9 37 168 54 286 31 7 19 31 7 19 168 54 286 169 55 287 31 7 19 169 55 287 32 5 16 32 5 16 169 55 287 170 56 288 33 2 2 32 5 16 171 57 289 171 57 289 32 5 16 170 56 288 34 3 3 33 2 2 172 58 290 172 58 290 33 2 2 171 57 289 35 11 57 34 3 3 173 59 292 173 59 292 34 3 3 172 58 290 35 11 51 173 59 291 30 9 37 30 9 37 173 59 291 168 54 286 37 60 31 36 61 45 9 16 34 9 16 34 36 61 45 10 17 47 38 62 29 37 60 31 8 15 32 8 15 32 37 60 31 9 16 34 38 62 29 8 15 32 39 63 10 39 63 10 8 15 32 7 14 12 39 63 10 7 14 12 40 64 11 40 64 11 7 14 12 6 13 13 40 64 11 6 13 13 41 65 64 41 65 64 6 13 13 11 12 63 36 61 45 41 65 40 10 17 47 10 17 47 41 65 40 11 12 48 42 66 68 43 67 69 76 69 71 76 69 71 43 67 69 75 68 70 43 67 69 44 70 72 75 68 70 75 68 70 44 70 72 74 71 73 45 72 74 73 73 75 44 70 72 44 70 72 73 73 75 74 71 73 46 74 76 72 75 77 45 72 74 45 72 74 72 75 77 73 73 75 47 76 78 77 77 79 46 74 76 46 74 76 77 77 79 72 75 77 47 76 80 42 66 68 77 77 81 77 77 81 42 66 68 76 69 71 43 67 85 42 66 86 44 70 84 45 72 83 44 70 84 46 74 82 44 70 84 42 66 86 46 74 82 46 74 82 42 66 86 47 76 87 49 80 90 50 81 91 48 79 89 51 82 92 52 83 93 50 81 91 50 81 91 52 83 93 48 79 89 53 78 88 48 79 89 52 83 93 55 84 94 54 85 95 223 87 358 223 87 358 54 85 95 222 86 357 55 84 94 223 87 358 56 88 98 56 88 98 223 87 358 224 89 359 56 88 98 224 89 359 57 90 100 57 90 100 224 89 359 225 91 360 57 90 100 225 91 360 58 92 102 58 92 102 225 91 360 226 93 361 59 94 104 58 92 102 227 95 363 227 95 363 58 92 102 226 93 361 54 85 95 59 94 106 222 86 357 222 86 357 59 94 106 227 95 362 60 97 109 246 98 389 61 96 108 61 96 108 246 98 389 247 99 390 61 96 108 247 99 390 62 100 112 62 100 112 247 99 390 248 101 391 62 100 112 248 101 391 63 102 114 63 102 114 248 101 391 249 103 392 64 104 116 63 102 114 250 105 393 250 105 393 63 102 114 249 103 392 65 106 118 64 104 116 251 107 395 251 107 395 64 104 116 250 105 393 60 97 109 65 106 120 246 98 389 246 98 389 65 106 120 251 107 394 67 108 97 66 109 96 199 111 326 199 111 326 66 109 96 198 110 325 67 108 97 199 111 326 68 112 99 68 112 99 199 111 326 200 113 327 68 112 99 200 113 327 69 114 101 69 114 101 200 113 327 201 115 328 69 114 101 201 115 328 70 116 103 70 116 103 201 115 328 202 117 329 71 118 105 70 116 103 203 119 331 203 119 331 70 116 103 202 117 329 66 109 96 71 118 107 198 110 325 198 110 325 71 118 107 203 119 330 72 75 77 174 120 293 73 73 75 73 73 75 174 120 293 175 121 294 73 73 75 175 121 294 74 71 73 74 71 73 175 121 294 176 122 295 75 68 70 74 71 73 177 123 296 177 123 296 74 71 73 176 122 295 76 69 71 75 68 70 178 124 297 178 124 297 75 68 70 177 123 296 77 77 81 76 69 71 179 125 299 179 125 299 76 69 71 178 124 297 77 77 79 179 125 298 72 75 77 72 75 77 179 125 298 174 120 293 79 126 123 78 127 122 51 82 130 51 82 130 78 127 122 52 83 129 80 128 124 79 126 123 50 81 131 50 81 131 79 126 123 51 82 130 80 128 124 50 81 131 81 129 125 81 129 125 50 81 131 49 80 132 81 129 125 49 80 132 82 130 126 82 130 126 49 80 132 48 79 133 82 130 126 48 79 133 83 131 127 83 131 127 48 79 133 53 78 134 78 127 122 83 131 128 52 83 129 52 83 129 83 131 128 53 78 135 85 133 137 92 134 138 84 132 136 84 132 136 92 134 138 91 135 139 85 133 137 204 136 332 92 134 138 92 134 138 204 136 332 205 137 334 228 139 364 229 140 366 86 138 140 86 138 140 229 140 366 93 141 141 87 142 142 252 143 396 94 145 143 94 145 143 252 143 396 253 144 398 88 146 144 180 147 300 95 149 145 95 149 145 180 147 300 181 148 302 89 150 146 90 151 148 96 153 147 96 153 147 90 151 148 97 152 149 92 155 151 99 156 152 91 154 150 91 154 150 99 156 152 98 157 153 205 158 333 206 159 335 92 155 151 92 155 151 206 159 335 99 156 152 229 161 365 230 162 367 93 160 154 93 160 154 230 162 367 100 163 155 253 165 397 254 166 399 94 164 156 94 164 156 254 166 399 101 167 157 95 168 158 181 169 301 102 171 159 102 171 159 181 169 301 182 170 303 96 172 160 97 173 162 103 175 161 103 175 161 97 173 162 104 174 163 98 176 153 99 177 152 105 179 165 105 179 165 99 177 152 106 178 164 206 180 335 207 181 337 99 177 152 99 177 152 207 181 337 106 178 164 100 182 155 230 183 367 107 185 166 107 185 166 230 183 367 231 184 369 254 187 399 255 188 401 101 186 157 101 186 157 255 188 401 108 189 167 182 191 303 183 192 305 102 190 159 102 190 159 183 192 305 109 193 168 104 195 163 111 196 170 103 194 161 103 194 161 111 196 170 110 197 169 105 198 171 106 199 172 84 201 136 84 201 136 106 199 172 85 200 137 106 199 172 207 202 336 85 200 137 85 200 137 207 202 336 204 203 332 107 204 173 231 205 368 86 207 140 86 207 140 231 205 368 228 206 364 108 208 174 255 209 400 87 211 142 87 211 142 255 209 400 252 210 396 183 213 304 180 214 300 109 212 175 109 212 175 180 214 300 88 215 144 111 217 177 90 218 148 110 216 176 110 216 176 90 218 148 89 219 146 90 220 178 111 221 179 97 223 181 97 223 181 111 221 179 104 222 180 105 224 182 84 225 183 98 227 185 98 227 185 84 225 183 91 226 184 113 229 187 120 230 188 112 228 186 112 228 186 120 230 188 119 231 189 113 229 187 208 232 338 120 230 188 120 230 188 208 232 338 209 233 340 232 235 370 233 236 372 114 234 190 114 234 190 233 236 372 121 237 191 115 238 192 256 239 402 122 241 193 122 241 193 256 239 402 257 240 404 116 242 194 184 243 306 123 245 195 123 245 195 184 243 306 185 244 308 117 246 196 118 247 198 124 249 197 124 249 197 118 247 198 125 248 199 120 251 201 127 252 202 119 250 200 119 250 200 127 252 202 126 253 203 209 254 339 210 255 341 120 251 201 120 251 201 210 255 341 127 252 202 233 257 371 234 258 373 121 256 204 121 256 204 234 258 373 128 259 205 257 261 403 258 262 405 122 260 206 122 260 206 258 262 405 129 263 207 123 264 208 185 265 307 130 267 209 130 267 209 185 265 307 186 266 309 124 268 210 125 269 212 131 271 211 131 271 211 125 269 212 132 270 213 126 272 203 127 273 202 133 275 215 133 275 215 127 273 202 134 274 214 210 276 341 211 277 343 127 273 202 127 273 202 211 277 343 134 274 214 128 278 205 234 279 373 135 281 216 135 281 216 234 279 373 235 280 375 258 283 405 259 284 407 129 282 207 129 282 207 259 284 407 136 285 217 186 287 309 187 288 311 130 286 209 130 286 209 187 288 311 137 289 218 132 291 213 139 292 220 131 290 211 131 290 211 139 292 220 138 293 219 133 294 221 134 295 222 112 297 186 112 297 186 134 295 222 113 296 187 134 295 222 211 298 342 113 296 187 113 296 187 211 298 342 208 299 338 135 300 223 235 301 374 114 303 190 114 303 190 235 301 374 232 302 370 136 304 224 259 305 406 115 307 192 115 307 192 259 305 406 256 306 402 187 309 310 184 310 306 137 308 225 137 308 225 184 310 306 116 311 194 139 313 227 118 314 198 138 312 226 138 312 226 118 314 198 117 315 196 118 316 228 139 317 229 125 319 231 125 319 231 139 317 229 132 318 230 133 320 232 112 321 233 126 323 235 126 323 235 112 321 233 119 322 234 141 325 237 148 326 238 140 324 236 140 324 236 148 326 238 147 327 239 141 325 237 212 328 344 148 326 238 148 326 238 212 328 344 213 329 346 236 331 376 237 332 378 142 330 240 142 330 240 237 332 378 149 333 241 143 334 242 260 335 408 150 337 243 150 337 243 260 335 408 261 336 410 144 338 244 188 339 312 151 341 245 151 341 245 188 339 312 189 340 314 145 342 246 146 343 248 152 345 247 152 345 247 146 343 248 153 344 249 148 347 238 155 348 250 147 346 239 147 346 239 155 348 250 154 349 251 213 350 346 214 351 348 148 347 238 148 347 238 214 351 348 155 348 250 237 353 378 238 354 380 149 352 241 149 352 241 238 354 380 156 355 252 261 357 410 262 358 412 150 356 243 150 356 243 262 358 412 157 359 253 151 360 245 189 361 314 158 363 254 158 363 254 189 361 314 190 362 316 152 364 247 153 365 249 159 367 255 159 367 255 153 365 249 160 366 256 154 368 257 155 369 258 161 371 260 161 371 260 155 369 258 162 370 259 214 372 347 215 373 349 155 369 258 155 369 258 215 373 349 162 370 259 156 374 261 238 375 379 163 377 262 163 377 262 238 375 379 239 376 381 262 379 411 263 380 413 157 378 263 157 378 263 263 380 413 164 381 264 190 383 315 191 384 317 158 382 265 158 382 265 191 384 317 165 385 266 160 387 269 167 388 270 159 386 267 159 386 267 167 388 270 166 389 268 161 390 260 162 391 259 140 393 272 140 393 272 162 391 259 141 392 271 162 391 259 215 394 349 141 392 271 141 392 271 215 394 349 212 395 345 163 396 262 239 397 381 142 399 273 142 399 273 239 397 381 236 398 377 164 400 264 263 401 413 143 403 274 143 403 274 263 401 413 260 402 409 191 405 317 188 406 313 165 404 266 165 404 266 188 406 313 144 407 275 167 409 270 146 410 277 166 408 268 166 408 268 146 410 277 145 411 276 146 412 278 167 413 279 153 415 281 153 415 281 167 413 279 160 414 280 161 416 282 140 417 283 154 419 285 154 419 285 140 417 283 147 418 284 168 54 286 18 31 39 169 55 287 169 55 287 18 31 39 19 30 22 169 55 287 19 30 22 170 56 288 170 56 288 19 30 22 20 34 20 171 57 289 170 56 288 21 36 4 21 36 4 170 56 288 20 34 20 172 58 290 171 57 289 22 38 5 22 38 5 171 57 289 21 36 4 173 59 292 172 58 290 23 40 54 23 40 54 172 58 290 22 38 5 173 59 291 23 40 55 168 54 286 168 54 286 23 40 55 18 31 39 174 120 293 60 97 109 175 121 294 175 121 294 60 97 109 61 96 108 175 121 294 61 96 108 176 122 295 176 122 295 61 96 108 62 100 112 177 123 296 176 122 295 63 102 114 63 102 114 176 122 295 62 100 112 178 124 297 177 123 296 64 104 116 64 104 116 177 123 296 63 102 114 179 125 299 178 124 297 65 106 118 65 106 118 178 124 297 64 104 116 179 125 298 65 106 120 174 120 293 174 120 293 65 106 120 60 97 109 180 147 300 89 150 146 181 148 302 181 148 302 89 150 146 96 153 147 181 169 301 96 172 160 182 170 303 182 170 303 96 172 160 103 175 161 183 192 305 182 191 303 110 197 169 110 197 169 182 191 303 103 194 161 180 214 300 183 213 304 89 219 146 89 219 146 183 213 304 110 216 176 184 243 306 117 246 196 185 244 308 185 244 308 117 246 196 124 249 197 185 265 307 124 268 210 186 266 309 186 266 309 124 268 210 131 271 211 187 288 311 186 287 309 138 293 219 138 293 219 186 287 309 131 290 211 184 310 306 187 309 310 117 315 196 117 315 196 187 309 310 138 312 226 188 339 312 145 342 246 189 340 314 189 340 314 145 342 246 152 345 247 189 361 314 152 364 247 190 362 316 190 362 316 152 364 247 159 367 255 191 384 317 190 383 315 166 389 268 166 389 268 190 383 315 159 386 267 188 406 313 191 405 317 145 411 276 145 411 276 191 405 317 166 408 268 193 45 319 192 44 318 37 60 31 37 60 31 192 44 318 36 61 45 193 45 319 37 60 31 194 47 320 194 47 320 37 60 31 38 62 29 194 47 320 38 62 29 195 49 321 195 49 321 38 62 29 39 63 10 195 49 321 39 63 10 196 51 322 196 51 322 39 63 10 40 64 11 197 53 324 196 51 322 41 65 64 41 65 64 196 51 322 40 64 11 192 44 318 197 53 323 36 61 45 36 61 45 197 53 323 41 65 40 199 111 326 198 110 325 79 126 123 79 126 123 198 110 325 78 127 122 199 111 326 79 126 123 200 113 327 200 113 327 79 126 123 80 128 124 200 113 327 80 128 124 201 115 328 201 115 328 80 128 124 81 129 125 201 115 328 81 129 125 202 117 329 202 117 329 81 129 125 82 130 126 203 119 331 202 117 329 83 131 127 83 131 127 202 117 329 82 130 126 198 110 325 203 119 330 78 127 122 78 127 122 203 119 330 83 131 128 204 136 332 86 138 140 205 137 334 205 137 334 86 138 140 93 141 141 206 159 335 205 158 333 100 163 155 100 163 155 205 158 333 93 160 154 207 181 337 206 180 335 107 185 166 107 185 166 206 180 335 100 182 155 207 202 336 107 204 173 204 203 332 204 203 332 107 204 173 86 207 140 209 233 340 208 232 338 121 237 191 121 237 191 208 232 338 114 234 190 210 255 341 209 254 339 128 259 205 128 259 205 209 254 339 121 256 204 210 276 341 128 278 205 211 277 343 211 277 343 128 278 205 135 281 216 211 298 342 135 300 223 208 299 338 208 299 338 135 300 223 114 303 190 213 329 346 212 328 344 149 333 241 149 333 241 212 328 344 142 330 240 214 351 348 213 350 346 156 355 252 156 355 252 213 350 346 149 352 241 214 372 347 156 374 261 215 373 349 215 373 349 156 374 261 163 377 262 215 394 349 163 396 262 212 395 345 212 395 345 163 396 262 142 399 273 217 21 351 216 20 350 25 42 28 25 42 28 216 20 350 24 43 43 218 23 352 217 21 351 26 46 26 26 46 26 217 21 351 25 42 28 218 23 352 26 46 26 219 25 353 219 25 353 26 46 26 27 48 8 219 25 353 27 48 8 220 27 354 220 27 354 27 48 8 28 50 9 220 27 354 28 50 9 221 29 356 221 29 356 28 50 9 29 52 53 216 20 350 221 29 355 24 43 43 24 43 43 221 29 355 29 52 56 223 87 358 222 86 357 67 108 97 67 108 97 222 86 357 66 109 96 224 89 359 223 87 358 68 112 99 68 112 99 223 87 358 67 108 97 224 89 359 68 112 99 225 91 360 225 91 360 68 112 99 69 114 101 225 91 360 69 114 101 226 93 361 226 93 361 69 114 101 70 116 103 226 93 361 70 116 103 227 95 363 227 95 363 70 116 103 71 118 105 222 86 357 227 95 362 66 109 96 66 109 96 227 95 362 71 118 107 229 140 366 228 139 364 94 145 143 94 145 143 228 139 364 87 142 142 230 162 367 229 161 365 101 167 157 101 167 157 229 161 365 94 164 156 231 184 369 230 183 367 108 189 167 108 189 167 230 183 367 101 186 157 231 205 368 108 208 174 228 206 364 228 206 364 108 208 174 87 211 142 233 236 372 232 235 370 122 241 193 122 241 193 232 235 370 115 238 192 234 258 373 233 257 371 129 263 207 129 263 207 233 257 371 122 260 206 234 279 373 129 282 207 235 280 375 235 280 375 129 282 207 136 285 217 235 301 374 136 304 224 232 302 370 232 302 370 136 304 224 115 307 192 237 332 378 236 331 376 150 337 243 150 337 243 236 331 376 143 334 242 238 354 380 237 353 378 157 359 253 157 359 253 237 353 378 150 356 243 238 375 379 157 378 263 239 376 381 239 376 381 157 378 263 164 381 264 239 397 381 164 400 264 236 398 377 236 398 377 164 400 264 143 403 274 240 32 382 12 19 41 241 33 383 241 33 383 12 19 41 13 18 25 241 33 383 13 18 25 242 35 384 242 35 384 13 18 25 14 22 23 242 35 384 14 22 23 243 37 385 243 37 385 14 22 23 15 24 6 244 39 386 243 37 385 16 26 60 16 26 60 243 37 385 15 24 6 245 41 388 244 39 386 17 28 44 17 28 44 244 39 386 16 26 60 240 32 382 245 41 387 12 19 41 12 19 41 245 41 387 17 28 58 246 98 389 54 85 110 247 99 390 247 99 390 54 85 110 55 84 111 247 99 390 55 84 111 248 101 391 248 101 391 55 84 111 56 88 113 248 101 391 56 88 113 249 103 392 249 103 392 56 88 113 57 90 115 250 105 393 249 103 392 58 92 117 58 92 117 249 103 392 57 90 115 251 107 395 250 105 393 59 94 119 59 94 119 250 105 393 58 92 117 246 98 389 251 107 394 54 85 110 54 85 110 251 107 394 59 94 121 252 143 396 88 146 144 253 144 398 253 144 398 88 146 144 95 149 145 253 165 397 95 168 158 254 166 399 254 166 399 95 168 158 102 171 159 255 188 401 254 187 399 109 193 168 109 193 168 254 187 399 102 190 159 252 210 396 255 209 400 88 215 144 88 215 144 255 209 400 109 212 175 256 239 402 116 242 194 257 240 404 257 240 404 116 242 194 123 245 195 257 261 403 123 264 208 258 262 405 258 262 405 123 264 208 130 267 209 259 284 407 258 283 405 137 289 218 137 289 218 258 283 405 130 286 209 256 306 402 259 305 406 116 311 194 116 311 194 259 305 406 137 308 225 260 335 408 144 338 244 261 336 410 261 336 410 144 338 244 151 341 245 261 357 410 151 360 245 262 358 412 262 358 412 151 360 245 158 363 254 263 380 413 262 379 411 165 385 266 165 385 266 262 379 411 158 382 265 260 402 409 263 401 413 144 407 275 144 407 275 263 401 413 165 404 266</p>
        </triangles>
      </mesh>
      <extra>
        <technique profile="OpenCOLLADAMaya">
          <originalMayaNodeId>polySurfaceShape21</originalMayaNodeId>
          <double_sided>1</double_sided>
        </technique>
      </extra>
    </geometry>
  </library_geometries>
  <library_visual_scenes>
    <visual_scene id="VisualSceneNode" name="cables">
      <node id="polySurface21" name="polySurface21" type="NODE">
        <translate sid="translate">0 0 0</translate>
        <rotate sid="rotateZ">0 0 1 0</rotate>
        <rotate sid="rotateY">0 1 0 0</rotate>
        <rotate sid="rotateX">1 0 0 0</rotate>
        <scale sid="scale">1 1 1</scale>
        <instance_geometry url="#polySurfaceShape21">
          <bind_material>
            <technique_common>
              <instance_material symbol="lambert2SG" target="#lambert2">
                <bind_vertex_input semantic="TEX0" input_semantic="TEXCOORD" input_set="0"/>
              </instance_material>
            </technique_common>
          </bind_material>
        </instance_geometry>
        <extra>
          <technique profile="OpenCOLLADAMaya">
            <originalMayaNodeId>polySurface21</originalMayaNodeId>
          </technique>
        </extra>
      </node>
    </visual_scene>
  </library_visual_scenes>
  <scene>
    <instance_visual_scene url="#VisualSceneNode"/>
  </scene>
</COLLADA>