<?xml version="1.0" encoding="utf-8"?>
<COLLADA xmlns="http://www.collada.org/2005/11/COLLADASchema" version="1.4.1">
  <asset><contributor><author></author><authoring_tool>FBX COLLADA exporter</authoring_tool><comments></comments></contributor><created>2015-01-27T18:38:04Z</created><keywords></keywords><modified>2015-01-27T18:38:04Z</modified><revision></revision><subject></subject><title></title><unit meter="0.010000" name="centimeter"></unit><up_axis>Y_UP</up_axis></asset>
  <library_images>
    <image id="Image0002-image" name="Image0002"><init_from>file://D:/work/svn_soma/redist/static_objects/station/pplant.dds</init_from></image>
  </library_images>
  <library_materials>
    <material id="pplant" name="pplant">
      <instance_effect url="#pplant-fx"/>
    </material>
  </library_materials>
  <library_effects>
    <effect id="pplant-fx" name="pplant">
      <profile_COMMON>
        <technique sid="standard">
          <phong>
            <emission>
              <color sid="emission">0.000000  0.000000 0.000000 1.000000</color>
            </emission>
            <ambient>
              <color sid="ambient">0.200000  0.200000 0.200000 1.000000</color>
            </ambient>
            <diffuse>
              <texture texture="Image0002-image" texcoord="CHANNEL0">
                <extra>
                  <technique profile="MAYA">
                    <wrapU sid="wrapU0">TRUE</wrapU>
                    <wrapV sid="wrapV0">TRUE</wrapV>
                    <blend_mode>NONE</blend_mode>
                  </technique>
                </extra>
              </texture>
            </diffuse>
            <specular>
              <color sid="specular">0.425000  0.425000 0.425000 1.000000</color>
            </specular>
            <shininess>
              <float sid="shininess">4.000000</float>
            </shininess>
            <reflective>
              <color sid="reflective">0.000000  0.000000 0.000000 1.000000</color>
            </reflective>
            <reflectivity>
              <float sid="reflectivity">1.000000</float>
            </reflectivity>
            <transparent opaque="RGB_ZERO">
              <color sid="transparent">0.000000  0.000000 0.000000 1.000000</color>
            </transparent>
            <transparency>
              <float sid="transparency">1.000000</float>
            </transparency>
          </phong>
        </technique>
      </profile_COMMON>
    </effect>
  </library_effects>
  <library_geometries>
    <geometry id="polySurface662-lib" name="polySurface662Mesh">
      <mesh>
        <source id="polySurface662-POSITION">
          <float_array id="polySurface662-POSITION-array" count="1020">
-178.419479 328.320007 26.868200
-177.781662 325.000000 27.888700
-189.556335 328.320007 38.774399
-194.994583 328.320007 30.073200
-195.632401 325.000000 29.052700
-188.918533 325.000000 39.794899
-190.381531 328.320007 28.605101
-184.943298 328.320007 37.306301
-191.019348 325.000000 27.584600
-184.305481 325.000000 38.326797
-175.929764 331.152008 41.289856
-175.929764 400.000000 41.289856
-181.032608 328.320007 33.125301
-180.394730 325.000000 34.145901
-175.929764 325.000000 41.289856
-192.204605 328.320007 38.774399
-197.506851 328.320007 30.073200
-198.128723 325.000000 29.052700
-191.582718 325.000000 39.794899
-176.949478 331.152008 42.736164
-177.011551 400.000000 42.736164
-176.888412 325.000000 42.736164
-175.025803 331.152008 39.658295
-175.025803 400.000000 39.559010
-175.025803 325.000000 39.756035
-189.748215 325.000000 50.000000
-172.067627 325.000000 31.403893
-182.108475 325.000000 47.469242
-189.757904 331.152008 50.000000
-189.546967 400.000000 50.000000
-182.156357 331.152008 47.469242
-182.105118 400.000000 47.469242
-172.067627 331.152008 31.352306
-172.067627 400.000000 31.283442
-200.000000 400.000000 50.000000
-170.485901 400.000000 50.000000
-193.832809 442.285187 81.152298
-189.936844 430.566406 81.152306
-198.214630 425.000000 75.000000
-200.000000 425.000000 75.000000
-200.000000 400.851868 56.470482
-200.000000 403.349365 62.500000
-200.000000 407.322327 67.677704
-200.000000 412.500000 71.650604
-200.000000 418.529510 74.148102
-198.214630 400.851868 56.470482
-198.214630 403.349365 62.500000
-198.214630 407.322327 67.677696
-198.214630 412.500000 71.650597
-198.214630 418.529510 74.148094
-198.214630 400.000000 50.000000
-200.000000 430.745697 75.000000
-198.214630 430.745697 75.000000
-194.014359 437.500000 75.000000
-190.118408 425.781311 75.000000
-189.936844 450.000000 81.152306
-193.832809 450.000000 81.152298
-198.214630 442.285187 81.152298
-198.214630 450.000000 81.152298
-200.000000 442.285187 81.152298
-200.000000 450.000000 81.152298
-198.214630 437.500000 75.000000
-200.000000 437.500000 75.000000
-200.000000 450.000000 75.000000
-198.214630 450.000000 75.000000
-166.441864 400.851868 50.000000
-156.954285 412.500000 50.000000
-159.437347 407.322327 50.000000
-155.393341 418.529510 50.000000
-154.860901 425.000000 50.000000
-162.673401 403.349365 50.000000
-154.860901 430.745697 50.000000
-154.860901 425.781311 50.000000
-151.015717 430.566406 50.000000
-151.015717 450.000000 50.000000
-154.860901 450.000000 50.000000
-170.485901 400.851868 56.470478
-170.485901 412.500000 71.650604
-170.485901 407.322327 67.677704
-170.485901 418.529510 74.148102
-170.485901 425.000000 75.000000
-170.485901 403.349365 62.500000
-170.485901 430.745697 75.000000
-170.485901 425.781311 75.000000
-170.485901 430.566406 81.152298
-170.485901 450.000000 81.152298
-170.485901 450.000000 75.000000
-156.203659 425.781311 59.179691
-152.688904 430.566406 61.438801
-152.688904 450.000000 61.438801
-159.743713 425.781311 67.187500
-157.100159 430.566406 71.417198
-157.100159 450.000000 71.417198
-164.748596 425.781311 72.851601
-163.336655 430.566406 78.475204
-163.336655 450.000000 78.475204
-164.748596 450.000000 72.851601
-164.748596 430.745697 72.851601
-164.748596 425.000000 72.851601
-164.944092 418.529510 72.072899
-165.517258 412.500000 69.790001
-166.429031 407.322327 66.158501
-167.617249 403.349365 61.425800
-169.000992 400.851868 55.914421
-159.743713 450.000000 67.187500
-159.743713 430.745697 67.187500
-159.743713 425.000000 67.187500
-160.109787 418.529510 66.601799
-161.182922 412.500000 64.884796
-162.890030 407.322327 62.153400
-165.114807 403.349365 58.593750
-167.705627 400.851868 54.448452
-156.203659 450.000000 59.179691
-156.203659 430.745697 59.179691
-156.203659 425.000000 59.179691
-156.690338 418.529510 58.866898
-158.117157 412.500000 57.949841
-160.386856 407.322327 56.491020
-163.344788 403.349365 54.589840
-166.789398 400.851868 52.375881
-170.485901 400.000000 50.000000
-200.000000 325.000000 39.794903
-200.000000 331.152008 50.000000
-200.000000 325.000000 29.052700
-200.000000 328.320007 30.073200
-200.000000 325.000000 25.000000
-200.000000 328.320007 38.774399
-200.000000 400.000000 50.000000
-200.000000 325.000000 50.000000
-177.386780 325.000000 24.712284
-187.932007 325.835266 24.712284
-188.332626 325.000000 24.712284
-186.740250 328.320007 24.712284
-178.151459 328.320007 24.712284
-171.201721 325.000000 24.712284
-171.205536 331.151978 24.712284
-171.218063 400.000000 24.712284
-185.067749 400.000000 24.712286
-170.485901 400.000000 24.712286
-156.954285 412.500000 24.712284
-155.393341 418.529510 24.712286
-154.860901 425.000000 24.712284
-154.860901 430.745697 24.712286
-159.437347 407.322327 24.712284
-166.441864 400.851868 24.712284
-162.673401 403.349365 24.712286
-154.860901 450.000000 24.712286
-151.015717 430.566406 24.712284
-151.015717 450.000000 24.712284
-154.860901 425.781342 24.712284
-170.485901 400.000000 24.712284
178.419479 328.320007 26.868200
177.781662 325.000000 27.888700
189.556335 328.320007 38.774399
194.994583 328.320007 30.073200
195.632401 325.000000 29.052700
188.918533 325.000000 39.794899
190.381531 328.320007 28.605101
184.943298 328.320007 37.306301
191.019348 325.000000 27.584600
184.305481 325.000000 38.326797
175.929764 331.152008 41.289856
175.929764 400.000000 41.289856
181.032608 328.320007 33.125301
180.394730 325.000000 34.145901
175.929764 325.000000 41.289856
192.204605 328.320007 38.774399
197.506851 328.320007 30.073200
198.128723 325.000000 29.052700
191.582718 325.000000 39.794899
176.949478 331.152008 42.736164
177.011551 400.000000 42.736164
176.888412 325.000000 42.736164
175.025803 331.152008 39.658295
175.025803 400.000000 39.559010
175.025803 325.000000 39.756035
189.748215 325.000000 50.000000
172.067627 325.000000 31.403893
182.108475 325.000000 47.469242
189.757904 331.152008 50.000000
189.546967 400.000000 50.000000
182.156357 331.152008 47.469242
182.105118 400.000000 47.469242
172.067627 331.152008 31.352306
172.067627 400.000000 31.283442
200.000000 400.000000 50.000000
170.485901 400.000000 50.000000
193.832809 442.285187 81.152298
189.936844 430.566406 81.152306
198.214630 425.000000 75.000000
200.000000 425.000000 75.000000
200.000000 400.851868 56.470482
200.000000 403.349365 62.500000
200.000000 407.322327 67.677704
200.000000 412.500000 71.650604
200.000000 418.529510 74.148102
198.214630 400.851868 56.470482
198.214630 403.349365 62.500000
198.214630 407.322327 67.677696
198.214630 412.500000 71.650597
198.214630 418.529510 74.148094
198.214630 400.000000 50.000000
200.000000 430.745697 75.000000
198.214630 430.745697 75.000000
194.014359 437.500000 75.000000
190.118408 425.781311 75.000000
189.936844 450.000000 81.152306
193.832809 450.000000 81.152298
198.214630 442.285187 81.152298
198.214630 450.000000 81.152298
200.000000 442.285187 81.152298
200.000000 450.000000 81.152298
198.214630 437.500000 75.000000
200.000000 437.500000 75.000000
200.000000 450.000000 75.000000
198.214630 450.000000 75.000000
166.441864 400.851868 50.000000
156.954285 412.500000 50.000000
159.437347 407.322327 50.000000
155.393341 418.529510 50.000000
154.860901 425.000000 50.000000
162.673401 403.349365 50.000000
154.860901 430.745697 50.000000
154.860901 425.781311 50.000000
151.015717 430.566406 50.000000
151.015717 450.000000 50.000000
154.860901 450.000000 50.000000
170.485901 400.851868 56.470478
170.485901 412.500000 71.650604
170.485901 407.322327 67.677704
170.485901 418.529510 74.148102
170.485901 425.000000 75.000000
170.485901 403.349365 62.500000
170.485901 430.745697 75.000000
170.485901 425.781311 75.000000
170.485901 430.566406 81.152298
170.485901 450.000000 81.152298
170.485901 450.000000 75.000000
156.203659 425.781311 59.179691
152.688904 430.566406 61.438801
152.688904 450.000000 61.438801
159.743713 425.781311 67.187500
157.100159 430.566406 71.417198
157.100159 450.000000 71.417198
164.748596 425.781311 72.851601
163.336655 430.566406 78.475204
163.336655 450.000000 78.475204
164.748596 450.000000 72.851601
164.748596 430.745697 72.851601
164.748596 425.000000 72.851601
164.944092 418.529510 72.072899
165.517258 412.500000 69.790001
166.429031 407.322327 66.158501
167.617249 403.349365 61.425800
169.000992 400.851868 55.914421
159.743713 450.000000 67.187500
159.743713 430.745697 67.187500
159.743713 425.000000 67.187500
160.109787 418.529510 66.601799
161.182922 412.500000 64.884796
162.890030 407.322327 62.153400
165.114807 403.349365 58.593750
167.705627 400.851868 54.448452
156.203659 450.000000 59.179691
156.203659 430.745697 59.179691
156.203659 425.000000 59.179691
156.690338 418.529510 58.866898
158.117157 412.500000 57.949841
160.386856 407.322327 56.491020
163.344788 403.349365 54.589840
166.789398 400.851868 52.375881
170.485901 400.000000 50.000000
200.000000 325.000000 39.794903
200.000000 331.152008 50.000000
200.000000 325.000000 29.052700
200.000000 328.320007 30.073200
200.000000 325.000000 25.000000
200.000000 328.320007 38.774399
200.000000 400.000000 50.000000
200.000000 325.000000 50.000000
177.386780 325.000000 24.712284
187.932007 325.835266 24.712284
188.332626 325.000000 24.712284
186.740250 328.320007 24.712284
178.151459 328.320007 24.712284
171.201721 325.000000 24.712284
171.205536 331.151978 24.712284
171.218063 400.000000 24.712284
185.067749 400.000000 24.712286
170.485901 400.000000 24.712286
156.954285 412.500000 24.712284
155.393341 418.529510 24.712286
154.860901 425.000000 24.712284
154.860901 430.745697 24.712286
159.437347 407.322327 24.712284
166.441864 400.851868 24.712284
162.673401 403.349365 24.712286
154.860901 450.000000 24.712286
151.015717 430.566406 24.712284
151.015717 450.000000 24.712284
154.860901 425.781342 24.712284
170.485901 400.000000 24.712284
-200.000000 325.000000 25.000000
-139.009277 325.000000 25.000000
-200.000000 450.000000 25.000000
-139.846741 450.000000 25.000000
0.000000 450.000000 25.000000
-139.846741 429.526184 25.000000
0.000000 429.526184 25.000000
200.000000 6.250000 25.000000
-200.000000 6.250000 25.000000
200.000000 328.320007 25.000000
-195.312988 162.207001 25.585890
-195.312988 9.472660 25.585890
139.846741 6.250000 25.000000
139.846741 328.320007 25.000000
-138.171799 6.250000 25.000000
-138.171799 162.207001 25.585896
-138.171799 9.472660 25.585896
200.000000 450.000000 25.000000
139.846741 450.000000 25.000000
139.846741 429.526184 25.000000
-199.999939 0.000000 50.000000
200.000061 0.000000 50.000000
200.000061 6.250000 50.000000
-199.999939 6.250000 50.000000
200.000061 6.250000 25.000000
-199.999939 6.250000 25.000000
150.570511 3.270223 50.000000
150.570511 3.270223 25.000000
150.570511 0.000000 50.000000
-150.570511 0.000000 50.000000
-150.570511 3.270223 50.000000
-150.570511 3.270223 25.000000
-153.659851 6.250000 25.000000
-153.659851 6.250000 50.000000
-153.659851 0.000000 50.000000
153.659851 0.000000 50.000000
153.659851 6.250000 50.000000
153.659851 6.250000 25.000000
</float_array>
          <technique_common>
            <accessor source="#polySurface662-POSITION-array" count="340" stride="3">
              <param name="X" type="float"/>
              <param name="Y" type="float"/>
              <param name="Z" type="float"/>
            </accessor>
          </technique_common>
        </source>
        <source id="polySurface662-Normal0">
          <float_array id="polySurface662-Normal0-array" count="4284">
0.000000 -1.000000 0.000000
0.000000 -1.000000 0.000000
0.000000 -1.000000 0.000000
0.000000 -1.000000 0.000000
0.000000 -1.000000 0.000000
0.000000 -1.000000 0.000000
0.000000 -1.000000 0.000000
0.000000 -1.000000 0.000000
0.000000 -1.000000 0.000000
0.689245 -0.330584 0.644713
0.689245 -0.330584 0.644713
0.689246 -0.330584 0.644713
0.689246 -0.330584 0.644713
0.689245 -0.330584 0.644713
0.689245 -0.330584 0.644713
0.000000 -0.293808 0.955864
0.000000 -0.293808 0.955864
0.000000 -0.293808 0.955864
0.000000 -0.293814 0.955863
0.000000 -0.293814 0.955863
0.000000 -0.293814 0.955863
0.491792 0.003635 0.870705
0.493324 0.003654 0.869838
0.705547 0.005608 0.708641
0.705547 0.005608 0.708641
0.493324 0.003654 0.869838
0.705983 0.005604 0.708207
0.847989 0.004020 0.529998
0.847989 0.004020 0.529998
0.705983 0.005604 0.708207
0.705547 0.005608 0.708641
0.705983 0.005604 0.708207
0.847989 0.004020 0.529998
0.286133 -0.331329 0.899082
0.286133 -0.331329 0.899082
0.286133 -0.331329 0.899082
0.286133 -0.331331 0.899082
0.286133 -0.331330 0.899082
0.286133 -0.331330 0.899082
-0.286132 -0.331327 -0.899083
-0.286132 -0.331327 -0.899083
-0.286132 -0.331327 -0.899083
-0.286134 -0.331329 -0.899082
-0.286134 -0.331329 -0.899082
-0.286134 -0.331329 -0.899082
0.000000 -1.000000 0.000011
0.000000 -1.000000 0.000011
0.000000 -1.000000 0.000011
0.000000 -1.000000 0.000000
0.000000 -1.000000 0.000000
0.000000 -1.000000 0.000000
0.000000 -1.000000 0.000000
0.000000 -1.000000 0.000000
0.000000 -1.000000 0.000000
0.000000 -1.000000 0.000000
0.000000 -1.000000 0.000000
0.000000 -1.000000 0.000000
-0.884881 -0.283584 -0.369547
-0.884881 -0.283584 -0.369547
-0.884881 -0.283584 -0.369547
-0.884877 -0.283609 -0.369539
-0.884877 -0.283609 -0.369539
-0.884877 -0.283609 -0.369539
0.497385 -0.000304 0.867530
0.497239 -0.000305 0.867614
0.705855 0.000117 0.708356
0.705855 0.000117 0.708356
0.497239 -0.000305 0.867614
0.705890 0.000117 0.708321
-0.689236 -0.330613 -0.644708
-0.689236 -0.330613 -0.644708
-0.689236 -0.330613 -0.644708
-0.689260 -0.330585 -0.644698
-0.689260 -0.330585 -0.644698
-0.689260 -0.330585 -0.644697
0.847996 0.000353 0.530002
0.847996 0.000353 0.530002
0.705890 0.000117 0.708321
0.705855 0.000117 0.708356
0.705890 0.000117 0.708321
0.847996 0.000353 0.530002
0.847996 0.000353 0.530002
0.847996 0.000353 0.530002
0.932491 0.000399 0.361192
0.847996 0.000353 0.530002
0.932491 0.000399 0.361192
0.932518 0.000399 0.361123
0.000000 -0.293813 -0.955863
0.000000 -0.293813 -0.955863
0.000000 -0.293813 -0.955863
0.000000 -0.293814 -0.955863
0.000000 -0.293814 -0.955863
0.000000 -0.293814 -0.955863
0.847989 0.004020 0.529998
0.847989 0.004020 0.529998
0.931589 0.004050 0.363492
0.847989 0.004020 0.529998
0.931589 0.004050 0.363492
0.931923 0.004050 0.362633
0.000000 -1.000000 -0.000002
0.000000 -1.000000 -0.000002
0.000000 -1.000000 -0.000002
0.000000 -1.000000 0.000000
0.000000 -1.000000 0.000000
0.000000 -1.000000 0.000000
0.000000 -1.000000 -0.000001
0.000000 -1.000000 -0.000001
0.000000 -1.000000 -0.000001
0.000000 -1.000000 -0.000001
0.000000 -1.000000 -0.000001
0.000000 -1.000000 -0.000001
0.000000 -1.000000 0.000002
0.000000 -1.000000 0.000002
0.000000 -1.000000 0.000002
0.000000 -1.000000 0.000002
0.000000 -1.000000 0.000002
0.000000 -1.000000 0.000002
0.000000 -1.000000 0.000000
0.000000 -1.000000 0.000000
0.000000 -1.000000 0.000000
0.000000 -1.000000 0.000000
0.000000 -1.000000 0.000000
0.000000 -1.000000 0.000000
0.000000 0.000000 1.000000
0.000000 0.000000 1.000000
0.140086 0.000655 0.990139
0.140086 0.000655 0.990139
0.000000 0.000000 1.000000
0.140394 0.000657 0.990095
0.140086 0.000655 0.990139
0.140394 0.000657 0.990095
0.491792 0.003635 0.870705
0.491792 0.003635 0.870705
0.140394 0.000657 0.990095
0.493324 0.003654 0.869838
0.140529 -0.000268 0.990076
0.497239 -0.000305 0.867614
0.497385 -0.000304 0.867530
0.497239 -0.000305 0.867614
0.140529 -0.000268 0.990076
0.139924 -0.000266 0.990162
0.968767 0.000302 0.247972
0.968735 0.000302 0.248098
0.991711 0.000154 0.128487
0.968767 0.000302 0.247972
0.991711 0.000154 0.128487
0.991711 0.000154 0.128487
0.931923 0.004050 0.362633
0.968878 0.002696 0.247523
0.969145 0.002680 0.246477
0.968878 0.002696 0.247523
0.931923 0.004050 0.362633
0.931589 0.004050 0.363492
0.932518 0.000399 0.361123
0.932491 0.000399 0.361192
0.968735 0.000302 0.248098
0.932518 0.000399 0.361123
0.968735 0.000302 0.248098
0.968767 0.000302 0.247972
0.000000 -1.000000 0.000000
0.000000 -1.000000 0.000000
0.000000 -1.000000 0.000000
0.000000 -1.000000 0.000000
0.000000 -1.000000 0.000000
0.000000 -1.000000 0.000000
0.056191 -0.964442 0.258251
0.139376 -0.987866 0.068524
0.209416 -0.944452 0.253288
0.209416 -0.944452 0.253288
0.139376 -0.987866 0.068524
0.332927 -0.923697 0.189585
0.332927 -0.923697 0.189585
0.139376 -0.987866 0.068524
0.406998 -0.908051 0.098977
0.406998 -0.908051 0.098977
0.139376 -0.987866 0.068524
0.428261 -0.903368 0.022771
-0.898016 -0.430298 0.091709
-0.902072 -0.412141 0.128087
-0.909645 -0.368645 0.191432
-0.912176 -0.345628 0.220173
-0.909645 -0.368645 0.191432
-0.902072 -0.412141 0.128087
-0.875629 -0.016579 0.482700
-0.893788 -0.091980 0.438956
-0.879272 -0.039277 0.474698
-0.899658 -0.128005 0.417408
-0.879272 -0.039277 0.474698
-0.893788 -0.091980 0.438956
0.000000 0.000000 1.000000
0.000000 0.000000 1.000000
0.000000 0.000000 1.000000
0.000000 0.000000 1.000000
0.000000 0.000000 1.000000
0.000000 0.000000 1.000000
0.000000 -0.789352 0.613941
0.000000 -0.789352 0.613941
0.000000 -0.789352 0.613941
0.000000 -0.902787 0.430087
0.000000 -0.789352 0.613941
0.000000 -0.789352 0.613941
0.000000 -0.461551 0.887114
0.000000 -0.675426 0.737428
0.162308 -0.493908 0.854231
0.135868 -0.700915 0.700184
0.162308 -0.493908 0.854231
0.000000 -0.675426 0.737428
0.000000 -0.843271 0.537488
0.000000 -0.953650 0.300918
0.099771 -0.861880 0.497201
0.056191 -0.964442 0.258251
0.099771 -0.861880 0.497201
0.000000 -0.953650 0.300918
0.000000 0.000000 1.000000
0.000000 0.000000 1.000000
0.121702 0.000000 0.992567
0.181664 0.000000 0.983361
0.121702 0.000000 0.992567
0.000000 0.000000 1.000000
0.973772 0.000000 0.227526
0.949183 0.000000 0.314726
0.873460 0.000000 0.486895
0.818941 0.000000 0.573878
0.873460 0.000000 0.486895
0.949183 0.000000 0.314726
0.647132 0.000000 0.762378
0.513331 0.000000 0.858191
0.240175 0.000000 0.970730
0.121702 0.000000 0.992567
0.240175 0.000000 0.970730
0.513331 0.000000 0.858191
0.177797 -0.255312 0.950371
0.162308 -0.493908 0.854231
0.570987 -0.228773 0.788440
0.526057 -0.451001 0.721015
0.570987 -0.228773 0.788440
0.162308 -0.493908 0.854231
0.513331 0.000000 0.858191
0.584210 0.000000 0.811602
0.818941 0.000000 0.573878
0.847998 0.000000 0.529999
0.818941 0.000000 0.573878
0.584210 0.000000 0.811602
0.526057 -0.451001 0.721015
0.446966 -0.657762 0.606276
0.757738 -0.413044 0.505201
0.688491 -0.588288 0.424144
0.757738 -0.413044 0.505201
0.446966 -0.657762 0.606276
0.847998 0.000000 0.529999
0.858135 -0.053964 0.510580
0.962668 0.000000 0.270684
0.972915 -0.041912 0.227333
0.962668 0.000000 0.270684
0.858135 -0.053964 0.510580
0.688491 -0.588288 0.424144
0.531670 -0.782563 0.323916
0.808756 -0.544298 0.222831
0.642005 -0.746685 0.174042
0.808756 -0.544298 0.222831
0.531670 -0.782563 0.323916
0.997819 -0.032589 0.057409
0.972915 -0.041912 0.227333
0.988023 -0.136819 0.071354
0.947914 -0.171904 0.268155
0.988023 -0.136819 0.071354
0.972915 -0.041912 0.227333
0.642005 -0.746685 0.174042
0.406998 -0.908051 0.098977
0.677807 -0.733822 0.045641
0.428261 -0.903368 0.022771
0.677807 -0.733822 0.045641
0.406998 -0.908051 0.098977
-0.911725 -0.218934 0.347599
-0.899658 -0.128005 0.417408
-0.910031 -0.188064 0.369427
-0.893788 -0.091980 0.438956
-0.910031 -0.188064 0.369427
-0.899658 -0.128005 0.417408
-0.827972 -0.430545 0.359296
-0.827972 -0.430545 0.359296
-0.827972 -0.430545 0.359296
-0.827972 -0.430545 0.359296
-0.827972 -0.430545 0.359296
-0.827972 -0.430545 0.359296
0.000000 -0.675426 0.737428
0.000000 -0.843271 0.537488
0.135868 -0.700915 0.700184
0.099771 -0.861880 0.497201
0.135868 -0.700915 0.700184
0.000000 -0.843271 0.537488
0.000000 0.000000 1.000000
0.000000 0.000000 1.000000
0.121702 0.000000 0.992567
0.240175 0.000000 0.970730
0.121702 0.000000 0.992567
0.000000 0.000000 1.000000
0.590863 -0.692417 0.414052
0.645075 -0.674223 0.359586
0.724539 -0.645829 0.240724
0.751843 -0.635385 0.176119
0.724539 -0.645829 0.240724
0.645075 -0.674223 0.359586
0.113623 -0.784241 0.609964
0.113623 -0.784241 0.609964
0.335863 -0.757309 0.560071
0.438785 -0.735750 0.515887
0.335863 -0.757309 0.560071
0.113623 -0.784241 0.609964
0.181552 -0.064607 0.981257
0.177797 -0.255312 0.950371
0.583526 -0.057477 0.810058
0.570987 -0.228773 0.788440
0.583526 -0.057477 0.810058
0.177797 -0.255312 0.950371
0.099771 -0.861880 0.497201
0.056191 -0.964442 0.258251
0.331796 -0.833257 0.442261
0.209416 -0.944452 0.253288
0.331796 -0.833257 0.442261
0.056191 -0.964442 0.258251
0.570987 -0.228773 0.788440
0.526057 -0.451001 0.721015
0.826385 -0.224333 0.516491
0.757738 -0.413044 0.505201
0.826385 -0.224333 0.516491
0.526057 -0.451001 0.721015
0.818941 0.000000 0.573878
0.847998 0.000000 0.529999
0.949183 0.000000 0.314726
0.962668 0.000000 0.270684
0.949183 0.000000 0.314726
0.847998 0.000000 0.529999
0.757738 -0.413044 0.505201
0.688491 -0.588288 0.424144
0.887125 -0.355454 0.294382
0.808756 -0.544298 0.222831
0.887125 -0.355454 0.294382
0.688491 -0.588288 0.424144
0.962668 0.000000 0.270684
0.972915 -0.041912 0.227333
0.997406 0.000000 0.071976
0.997819 -0.032589 0.057409
0.997406 0.000000 0.071976
0.972915 -0.041912 0.227333
0.808756 -0.544298 0.222831
0.642005 -0.746685 0.174042
0.846565 -0.529028 0.058805
0.677807 -0.733822 0.045641
0.846565 -0.529028 0.058805
0.642005 -0.746685 0.174042
-0.914592 -0.285781 0.286096
-0.911725 -0.218934 0.347599
-0.914922 -0.284434 0.286384
-0.910031 -0.188064 0.369427
-0.914922 -0.284434 0.286384
-0.911725 -0.218934 0.347599
-0.879272 -0.039277 0.474698
-0.870201 0.002237 0.492692
-0.875629 -0.016579 0.482700
-0.876960 0.003719 0.480549
-0.875629 -0.016579 0.482700
-0.870201 0.002237 0.492692
0.000000 0.000000 1.000000
0.000000 0.000000 1.000000
0.000000 0.000000 1.000000
0.000000 0.000000 1.000000
0.000000 0.000000 1.000000
0.000000 0.000000 1.000000
-0.886945 0.004444 0.461854
-0.876960 0.003719 0.480549
-0.879517 0.002240 0.475862
-0.870201 0.002237 0.492692
-0.879517 0.002240 0.475862
-0.876960 0.003719 0.480549
0.000000 -0.043592 0.999049
0.000000 -0.216222 0.976344
0.181552 -0.064607 0.981257
0.177797 -0.255312 0.950371
0.181552 -0.064607 0.981257
0.000000 -0.216222 0.976344
0.000000 -0.789352 0.613941
0.113623 -0.784241 0.609964
0.000000 -0.789352 0.613941
0.113623 -0.784241 0.609964
0.000000 -0.789352 0.613941
0.113623 -0.784241 0.609964
0.998855 0.000000 0.047841
0.995362 0.000000 0.096199
0.973772 0.000000 0.227526
0.949183 0.000000 0.314726
0.973772 0.000000 0.227526
0.995362 0.000000 0.096199
0.873460 0.000000 0.486895
0.818941 0.000000 0.573878
0.647132 0.000000 0.762378
0.513331 0.000000 0.858191
0.647132 0.000000 0.762378
0.818941 0.000000 0.573878
0.181664 0.000000 0.983361
0.181552 -0.064607 0.981257
0.584210 0.000000 0.811602
0.583526 -0.057477 0.810058
0.584210 0.000000 0.811602
0.181552 -0.064607 0.981257
0.135868 -0.700915 0.700184
0.099771 -0.861880 0.497201
0.446966 -0.657762 0.606276
0.331796 -0.833257 0.442261
0.446966 -0.657762 0.606276
0.099771 -0.861880 0.497201
0.583526 -0.057477 0.810058
0.570987 -0.228773 0.788440
0.858135 -0.053964 0.510580
0.826385 -0.224333 0.516491
0.858135 -0.053964 0.510580
0.570987 -0.228773 0.788440
0.331796 -0.833257 0.442261
0.209416 -0.944452 0.253288
0.531670 -0.782563 0.323916
0.332927 -0.923697 0.189585
0.531670 -0.782563 0.323916
0.209416 -0.944452 0.253288
0.947914 -0.171904 0.268155
0.826385 -0.224333 0.516491
0.887125 -0.355454 0.294382
0.757738 -0.413044 0.505201
0.887125 -0.355454 0.294382
0.826385 -0.224333 0.516491
0.949183 0.000000 0.314726
0.962668 0.000000 0.270684
0.995362 0.000000 0.096199
0.997406 0.000000 0.071976
0.995362 0.000000 0.096199
0.962668 0.000000 0.270684
0.887125 -0.355454 0.294382
0.808756 -0.544298 0.222831
0.942398 -0.325452 0.077243
0.846565 -0.529028 0.058805
0.942398 -0.325452 0.077243
0.808756 -0.544298 0.222831
0.000000 -0.953650 0.300918
0.000000 -0.991445 0.130527
0.056191 -0.964442 0.258251
0.139376 -0.987866 0.068524
0.056191 -0.964442 0.258251
0.000000 -0.991445 0.130527
-0.914592 -0.285781 0.286096
-0.914922 -0.284434 0.286384
-0.912176 -0.345628 0.220173
-0.909645 -0.368645 0.191432
-0.912176 -0.345628 0.220173
-0.914922 -0.284434 0.286384
-0.893604 -0.445683 0.053276
-0.891452 -0.449581 0.056483
-0.898016 -0.430298 0.091709
-0.902072 -0.412141 0.128087
-0.898016 -0.430298 0.091709
-0.891452 -0.449581 0.056483
0.000000 0.000000 1.000000
0.000000 0.000000 1.000000
0.000000 0.000000 1.000000
0.000000 0.000000 1.000000
0.000000 0.000000 1.000000
0.000000 0.000000 1.000000
0.000000 -0.902787 0.430087
0.000000 -0.789352 0.613941
0.000000 -0.902787 0.430087
0.000000 -0.789352 0.613941
0.000000 -0.902787 0.430087
0.000000 -0.789352 0.613941
0.000000 -0.216222 0.976344
0.000000 -0.461551 0.887114
0.177797 -0.255312 0.950371
0.162308 -0.493908 0.854231
0.177797 -0.255312 0.950371
0.000000 -0.461551 0.887114
0.000000 0.000000 1.000000
0.000000 -0.043592 0.999049
0.181664 0.000000 0.983361
0.181552 -0.064607 0.981257
0.181664 0.000000 0.983361
0.000000 -0.043592 0.999049
0.724539 -0.645829 0.240724
0.751843 -0.635385 0.176119
0.778258 -0.625386 0.056630
0.778258 -0.625386 0.056630
0.778258 -0.625386 0.056630
0.751843 -0.635385 0.176119
0.335863 -0.757309 0.560071
0.438785 -0.735750 0.515887
0.590863 -0.692417 0.414052
0.645075 -0.674223 0.359586
0.590863 -0.692417 0.414052
0.438785 -0.735750 0.515887
0.121702 0.000000 0.992567
0.181664 0.000000 0.983361
0.513331 0.000000 0.858191
0.584210 0.000000 0.811602
0.513331 0.000000 0.858191
0.181664 0.000000 0.983361
0.162308 -0.493908 0.854231
0.135868 -0.700915 0.700184
0.526057 -0.451001 0.721015
0.446966 -0.657762 0.606276
0.526057 -0.451001 0.721015
0.135868 -0.700915 0.700184
0.584210 0.000000 0.811602
0.583526 -0.057477 0.810058
0.847998 0.000000 0.529999
0.858135 -0.053964 0.510580
0.847998 0.000000 0.529999
0.583526 -0.057477 0.810058
0.446966 -0.657762 0.606276
0.331796 -0.833257 0.442261
0.688491 -0.588288 0.424144
0.531670 -0.782563 0.323916
0.688491 -0.588288 0.424144
0.331796 -0.833257 0.442261
0.972915 -0.041912 0.227333
0.858135 -0.053964 0.510580
0.947914 -0.171904 0.268155
0.826385 -0.224333 0.516491
0.947914 -0.171904 0.268155
0.858135 -0.053964 0.510580
0.531670 -0.782563 0.323916
0.332927 -0.923697 0.189585
0.642005 -0.746685 0.174042
0.406998 -0.908051 0.098977
0.642005 -0.746685 0.174042
0.332927 -0.923697 0.189585
0.988023 -0.136819 0.071354
0.947914 -0.171904 0.268155
0.942398 -0.325452 0.077243
0.887125 -0.355454 0.294382
0.942398 -0.325452 0.077243
0.947914 -0.171904 0.268155
0.000000 -0.293812 0.955863
0.000000 -0.293812 0.955863
0.000000 -0.293812 0.955863
0.000000 -0.293812 0.955863
0.000000 -0.293812 0.955863
0.000000 -0.293812 0.955863
0.000000 -1.000000 -0.000003
0.000000 -1.000000 -0.000003
0.000000 -1.000000 -0.000003
0.000000 -1.000000 -0.000003
0.000000 -1.000000 -0.000003
0.000000 -1.000000 -0.000003
-0.000001 -0.293813 -0.955863
-0.000001 -0.293813 -0.955863
-0.000001 -0.293813 -0.955863
-0.000001 -0.293813 -0.955863
-0.000001 -0.293813 -0.955863
-0.000001 -0.293813 -0.955863
0.000000 0.000000 1.000000
0.139924 -0.000266 0.990162
0.140529 -0.000268 0.990076
0.139924 -0.000266 0.990162
0.000000 0.000000 1.000000
0.000000 0.000000 1.000000
0.689243 -0.330590 0.644713
0.689243 -0.330590 0.644713
0.689243 -0.330590 0.644713
-0.967415 -0.222812 -0.120265
-0.967415 -0.222812 -0.120265
-0.967415 -0.222812 -0.120265
-0.967415 -0.222812 -0.120265
-0.967415 -0.222812 -0.120265
-0.967415 -0.222812 -0.120265
0.000000 -1.000000 0.000000
0.000000 -1.000000 0.000000
0.000000 -1.000000 0.000000
0.000000 -1.000000 0.000000
0.000000 -1.000000 0.000000
0.000000 -1.000000 0.000000
0.000000 -1.000000 0.000000
0.000000 -1.000000 0.000000
0.000000 -1.000000 0.000000
0.000000 -1.000000 0.000000
0.000000 -1.000000 0.000000
0.000000 -1.000000 0.000000
0.969145 0.002680 0.246477
0.991704 0.000847 0.128541
0.991704 0.000847 0.128541
0.991704 0.000847 0.128541
0.969145 0.002680 0.246477
0.968878 0.002696 0.247523
0.942398 -0.325452 0.077243
0.968085 -0.250621 0.000000
0.988023 -0.136819 0.071354
0.968085 -0.250621 0.000000
0.942398 -0.325452 0.077243
0.968085 -0.250621 0.000000
0.997819 -0.032589 0.057409
1.000000 0.000000 0.000000
0.997406 0.000000 0.071976
1.000000 0.000000 0.000000
0.997819 -0.032589 0.057409
1.000000 0.000000 0.000000
0.846565 -0.529028 0.058805
0.901674 -0.432417 0.000000
0.942398 -0.325452 0.077243
0.901674 -0.432417 0.000000
0.846565 -0.529028 0.058805
0.901674 -0.432417 0.000000
0.428261 -0.903368 0.022771
0.552431 -0.833559 0.000000
0.677807 -0.733822 0.045641
0.552431 -0.833559 0.000000
0.428261 -0.903368 0.022771
0.552431 -0.833559 0.000000
0.997406 0.000000 0.071976
1.000000 0.000000 0.000000
0.995362 0.000000 0.096199
1.000000 0.000000 0.000000
0.997406 0.000000 0.071976
1.000000 0.000000 0.000000
0.846565 -0.529028 0.058805
0.775346 -0.631536 0.000000
0.775346 -0.631536 0.000000
0.775346 -0.631536 0.000000
0.846565 -0.529028 0.058805
0.677807 -0.733822 0.045641
0.998855 0.000000 0.047841
1.000000 0.000000 0.000000
0.995362 0.000000 0.096199
1.000000 0.000000 0.000000
0.998855 0.000000 0.047841
1.000000 0.000000 0.000000
0.997819 -0.032589 0.057409
0.996631 -0.082012 0.000000
0.996631 -0.082012 0.000000
0.996631 -0.082012 0.000000
0.997819 -0.032589 0.057409
0.988023 -0.136819 0.071354
0.778258 -0.625386 0.056630
0.779507 -0.626394 0.000000
0.778258 -0.625386 0.056630
0.778258 -0.625386 0.056630
0.779507 -0.626394 0.000000
0.779507 -0.626394 0.000000
0.139376 -0.987866 0.068524
0.206124 -0.978526 0.000000
0.428261 -0.903368 0.022771
0.206124 -0.978526 0.000000
0.139376 -0.987866 0.068524
0.206124 -0.978526 0.000000
0.000000 -1.000000 0.000000
0.000000 -1.000000 0.000000
0.000000 -1.000000 0.000000
0.000000 -1.000000 0.000000
0.000000 -1.000000 0.000000
0.000000 -1.000000 0.000000
0.000000 -1.000000 0.000000
0.000000 -1.000000 0.000000
0.000000 -1.000000 0.000000
0.000000 -1.000000 0.000008
0.000000 -1.000000 0.000008
0.000000 -1.000000 0.000008
0.000000 -1.000000 0.000000
0.000000 -1.000000 0.000000
0.000000 -1.000000 0.000000
0.000000 -1.000000 0.000000
0.000000 -1.000000 0.000000
0.000000 -1.000000 0.000000
0.000000 -1.000000 0.000005
0.000000 -1.000000 0.000005
0.000000 -1.000000 0.000005
0.000000 -1.000000 0.000001
0.000000 -1.000000 0.000001
0.000000 -1.000000 0.000001
0.000000 -1.000000 0.000001
0.000000 -1.000000 0.000001
0.000000 -1.000000 0.000001
-0.689246 -0.330581 0.644714
-0.689246 -0.330581 0.644713
-0.689246 -0.330581 0.644714
-0.689246 -0.330581 0.644714
-0.689246 -0.330581 0.644713
-0.689246 -0.330581 0.644714
0.000000 -0.293808 0.955864
0.000000 -0.293808 0.955864
0.000000 -0.293808 0.955864
0.000000 -0.293814 0.955863
0.000000 -0.293814 0.955863
0.000000 -0.293814 0.955863
-0.491791 0.003635 0.870705
-0.705547 0.005608 0.708641
-0.493324 0.003654 0.869838
-0.705547 0.005608 0.708641
-0.705983 0.005604 0.708207
-0.493324 0.003654 0.869838
-0.847989 0.004020 0.529998
-0.705983 0.005604 0.708207
-0.705547 0.005608 0.708641
-0.705983 0.005604 0.708207
-0.847989 0.004020 0.529998
-0.847989 0.004020 0.529998
-0.286131 -0.331327 0.899084
-0.286131 -0.331327 0.899084
-0.286131 -0.331327 0.899084
-0.286135 -0.331331 0.899081
-0.286135 -0.331331 0.899081
-0.286135 -0.331331 0.899081
0.286134 -0.331331 -0.899081
0.286134 -0.331331 -0.899081
0.286134 -0.331331 -0.899081
0.286136 -0.331331 -0.899081
0.286136 -0.331331 -0.899081
0.286136 -0.331331 -0.899081
0.000000 -1.000000 0.000005
0.000000 -1.000000 0.000005
0.000000 -1.000000 0.000005
0.000000 -1.000000 0.000000
0.000000 -1.000000 0.000000
0.000000 -1.000000 0.000000
0.000000 -1.000000 0.000000
0.000000 -1.000000 0.000000
0.000000 -1.000000 0.000000
0.000000 -1.000000 0.000000
0.000000 -1.000000 0.000000
0.000000 -1.000000 0.000000
0.884882 -0.283583 -0.369547
0.884882 -0.283583 -0.369547
0.884882 -0.283583 -0.369547
0.884876 -0.283612 -0.369540
0.884876 -0.283612 -0.369540
0.884876 -0.283612 -0.369540
-0.705855 0.000117 0.708356
-0.497239 -0.000305 0.867614
-0.497385 -0.000304 0.867530
-0.497239 -0.000305 0.867614
-0.705855 0.000117 0.708356
-0.705890 0.000117 0.708321
0.689235 -0.330616 -0.644708
0.689235 -0.330616 -0.644708
0.689235 -0.330616 -0.644708
0.689257 -0.330582 -0.644701
0.689257 -0.330582 -0.644701
0.689257 -0.330582 -0.644701
-0.705890 0.000117 0.708321
-0.705855 0.000117 0.708356
-0.847996 0.000353 0.530002
-0.705890 0.000117 0.708321
-0.847996 0.000353 0.530002
-0.847996 0.000353 0.530002
-0.932518 0.000399 0.361123
-0.932491 0.000399 0.361192
-0.847996 0.000353 0.530002
-0.847996 0.000353 0.530002
-0.847996 0.000353 0.530002
-0.932491 0.000399 0.361192
0.000000 -0.293814 -0.955863
0.000000 -0.293814 -0.955863
0.000000 -0.293814 -0.955863
0.000000 -0.293815 -0.955862
0.000000 -0.293815 -0.955862
0.000000 -0.293815 -0.955862
-0.931923 0.004050 0.362633
-0.931589 0.004049 0.363492
-0.847989 0.004020 0.529998
-0.847989 0.004020 0.529998
-0.847989 0.004020 0.529998
-0.931589 0.004049 0.363492
0.000000 -1.000000 0.000000
0.000000 -1.000000 0.000000
0.000000 -1.000000 0.000000
0.000000 -1.000000 0.000005
0.000000 -1.000000 0.000005
0.000000 -1.000000 0.000005
0.000000 -1.000000 0.000000
0.000000 -1.000000 0.000000
0.000000 -1.000000 0.000000
0.000000 -1.000000 0.000000
0.000000 -1.000000 0.000000
0.000000 -1.000000 0.000000
0.000000 -1.000000 0.000000
0.000000 -1.000000 0.000000
0.000000 -1.000000 0.000000
0.000000 -1.000000 0.000000
0.000000 -1.000000 0.000000
0.000000 -1.000000 0.000000
0.000000 -1.000000 0.000000
0.000000 -1.000000 0.000000
0.000000 -1.000000 0.000000
0.000000 -1.000000 0.000000
0.000000 -1.000000 0.000000
0.000000 -1.000000 0.000000
0.000000 0.000000 1.000000
-0.140086 0.000655 0.990139
0.000000 0.000000 1.000000
-0.140086 0.000655 0.990139
-0.140394 0.000657 0.990095
0.000000 0.000000 1.000000
-0.140086 0.000655 0.990139
-0.491791 0.003635 0.870705
-0.140394 0.000657 0.990095
-0.491791 0.003635 0.870705
-0.493324 0.003654 0.869838
-0.140394 0.000657 0.990095
-0.140529 -0.000268 0.990076
-0.497239 -0.000305 0.867614
-0.139924 -0.000266 0.990162
-0.497239 -0.000305 0.867614
-0.140529 -0.000268 0.990076
-0.497385 -0.000304 0.867530
-0.991711 0.000154 0.128487
-0.991711 0.000154 0.128487
-0.968767 0.000302 0.247972
-0.968735 0.000302 0.248098
-0.968767 0.000302 0.247972
-0.991711 0.000154 0.128487
-0.931923 0.004050 0.362633
-0.968878 0.002696 0.247523
-0.931589 0.004049 0.363492
-0.968878 0.002696 0.247523
-0.931923 0.004050 0.362633
-0.969145 0.002679 0.246477
-0.968767 0.000302 0.247972
-0.968735 0.000302 0.248098
-0.932518 0.000399 0.361123
-0.932491 0.000399 0.361192
-0.932518 0.000399 0.361123
-0.968735 0.000302 0.248098
0.000000 -1.000000 0.000000
0.000000 -1.000000 0.000000
0.000000 -1.000000 0.000000
0.000000 -1.000000 0.000000
0.000000 -1.000000 0.000000
0.000000 -1.000000 0.000000
-0.056191 -0.964442 0.258251
-0.209416 -0.944452 0.253288
-0.139376 -0.987866 0.068524
-0.209416 -0.944452 0.253288
-0.332927 -0.923697 0.189585
-0.139376 -0.987866 0.068524
-0.332927 -0.923697 0.189585
-0.406998 -0.908051 0.098977
-0.139376 -0.987866 0.068524
-0.406998 -0.908051 0.098977
-0.428261 -0.903368 0.022771
-0.139376 -0.987866 0.068524
0.898016 -0.430298 0.091709
0.909645 -0.368645 0.191432
0.902072 -0.412141 0.128087
0.912176 -0.345628 0.220173
0.902072 -0.412141 0.128087
0.909645 -0.368645 0.191432
0.875629 -0.016579 0.482700
0.879272 -0.039277 0.474698
0.893788 -0.091980 0.438956
0.899658 -0.128005 0.417408
0.893788 -0.091980 0.438956
0.879272 -0.039277 0.474698
-0.000000 0.000000 1.000000
-0.000000 0.000000 1.000000
-0.000000 0.000000 1.000000
-0.000000 0.000000 1.000000
-0.000000 0.000000 1.000000
-0.000000 0.000000 1.000000
-0.000000 -0.789352 0.613941
-0.000000 -0.789352 0.613941
-0.000000 -0.789352 0.613941
-0.000000 -0.902787 0.430087
-0.000000 -0.789352 0.613941
-0.000000 -0.789352 0.613941
-0.000000 -0.461551 0.887114
-0.162308 -0.493908 0.854231
-0.000000 -0.675426 0.737428
-0.135868 -0.700915 0.700184
-0.000000 -0.675426 0.737428
-0.162308 -0.493908 0.854231
-0.000000 -0.843271 0.537488
-0.099771 -0.861880 0.497201
-0.000000 -0.953650 0.300918
-0.056191 -0.964442 0.258251
-0.000000 -0.953650 0.300918
-0.099771 -0.861880 0.497201
-0.000000 0.000000 1.000000
-0.121702 0.000000 0.992567
-0.000000 0.000000 1.000000
-0.181664 0.000000 0.983361
-0.000000 0.000000 1.000000
-0.121702 0.000000 0.992567
-0.973772 0.000000 0.227526
-0.873460 0.000000 0.486895
-0.949183 0.000000 0.314726
-0.818941 0.000000 0.573878
-0.949183 0.000000 0.314726
-0.873460 0.000000 0.486895
-0.647132 0.000000 0.762378
-0.240175 0.000000 0.970730
-0.513331 0.000000 0.858191
-0.121702 0.000000 0.992567
-0.513331 0.000000 0.858191
-0.240175 0.000000 0.970730
-0.177797 -0.255312 0.950371
-0.570987 -0.228773 0.788440
-0.162308 -0.493908 0.854231
-0.526057 -0.451001 0.721015
-0.162308 -0.493908 0.854231
-0.570987 -0.228773 0.788440
-0.513331 0.000000 0.858191
-0.818941 0.000000 0.573878
-0.584210 0.000000 0.811602
-0.847998 0.000000 0.529999
-0.584210 0.000000 0.811602
-0.818941 0.000000 0.573878
-0.526057 -0.451001 0.721015
-0.757738 -0.413044 0.505201
-0.446966 -0.657762 0.606276
-0.688491 -0.588288 0.424144
-0.446966 -0.657762 0.606276
-0.757738 -0.413044 0.505201
-0.847998 0.000000 0.529999
-0.962668 0.000000 0.270684
-0.858135 -0.053964 0.510580
-0.972915 -0.041912 0.227333
-0.858135 -0.053964 0.510580
-0.962668 0.000000 0.270684
-0.688491 -0.588288 0.424144
-0.808756 -0.544298 0.222831
-0.531670 -0.782563 0.323916
-0.642005 -0.746685 0.174042
-0.531670 -0.782563 0.323916
-0.808756 -0.544298 0.222831
-0.997819 -0.032589 0.057409
-0.988023 -0.136819 0.071354
-0.972915 -0.041912 0.227333
-0.947914 -0.171904 0.268155
-0.972915 -0.041912 0.227333
-0.988023 -0.136819 0.071354
-0.642005 -0.746685 0.174042
-0.677807 -0.733822 0.045641
-0.406998 -0.908051 0.098977
-0.428261 -0.903368 0.022771
-0.406998 -0.908051 0.098977
-0.677807 -0.733822 0.045641
0.911725 -0.218934 0.347599
0.910031 -0.188064 0.369427
0.899658 -0.128005 0.417408
0.893788 -0.091980 0.438956
0.899658 -0.128005 0.417408
0.910031 -0.188064 0.369427
0.827972 -0.430545 0.359296
0.827972 -0.430545 0.359296
0.827972 -0.430545 0.359296
0.827972 -0.430545 0.359296
0.827972 -0.430545 0.359296
0.827972 -0.430545 0.359296
-0.000000 -0.675426 0.737428
-0.135868 -0.700915 0.700184
-0.000000 -0.843271 0.537488
-0.099771 -0.861880 0.497201
-0.000000 -0.843271 0.537488
-0.135868 -0.700915 0.700184
-0.000000 0.000000 1.000000
-0.121702 0.000000 0.992567
-0.000000 0.000000 1.000000
-0.240175 0.000000 0.970730
-0.000000 0.000000 1.000000
-0.121702 0.000000 0.992567
-0.590863 -0.692417 0.414052
-0.724539 -0.645829 0.240724
-0.645075 -0.674223 0.359586
-0.751843 -0.635385 0.176119
-0.645075 -0.674223 0.359586
-0.724539 -0.645829 0.240724
-0.113623 -0.784241 0.609964
-0.335863 -0.757309 0.560071
-0.113623 -0.784241 0.609964
-0.438785 -0.735750 0.515887
-0.113623 -0.784241 0.609964
-0.335863 -0.757309 0.560071
-0.181552 -0.064607 0.981257
-0.583526 -0.057477 0.810058
-0.177797 -0.255312 0.950371
-0.570987 -0.228773 0.788440
-0.177797 -0.255312 0.950371
-0.583526 -0.057477 0.810058
-0.099771 -0.861880 0.497201
-0.331796 -0.833257 0.442261
-0.056191 -0.964442 0.258251
-0.209416 -0.944452 0.253288
-0.056191 -0.964442 0.258251
-0.331796 -0.833257 0.442261
-0.570987 -0.228773 0.788440
-0.826385 -0.224333 0.516491
-0.526057 -0.451001 0.721015
-0.757738 -0.413044 0.505201
-0.526057 -0.451001 0.721015
-0.826385 -0.224333 0.516491
-0.818941 0.000000 0.573878
-0.949183 0.000000 0.314726
-0.847998 0.000000 0.529999
-0.962668 0.000000 0.270684
-0.847998 0.000000 0.529999
-0.949183 0.000000 0.314726
-0.757738 -0.413044 0.505201
-0.887125 -0.355454 0.294382
-0.688491 -0.588288 0.424144
-0.808756 -0.544298 0.222831
-0.688491 -0.588288 0.424144
-0.887125 -0.355454 0.294382
-0.962668 0.000000 0.270684
-0.997406 0.000000 0.071976
-0.972915 -0.041912 0.227333
-0.997819 -0.032589 0.057409
-0.972915 -0.041912 0.227333
-0.997406 0.000000 0.071976
-0.808756 -0.544298 0.222831
-0.846565 -0.529028 0.058805
-0.642005 -0.746685 0.174042
-0.677807 -0.733822 0.045641
-0.642005 -0.746685 0.174042
-0.846565 -0.529028 0.058805
0.914592 -0.285781 0.286096
0.914922 -0.284434 0.286384
0.911725 -0.218934 0.347599
0.910031 -0.188064 0.369427
0.911725 -0.218934 0.347599
0.914922 -0.284434 0.286384
0.879272 -0.039277 0.474698
0.875629 -0.016579 0.482700
0.870201 0.002237 0.492692
0.876960 0.003719 0.480549
0.870201 0.002237 0.492692
0.875629 -0.016579 0.482700
-0.000000 0.000000 1.000000
-0.000000 0.000000 1.000000
-0.000000 0.000000 1.000000
-0.000000 0.000000 1.000000
-0.000000 0.000000 1.000000
-0.000000 0.000000 1.000000
0.886945 0.004444 0.461854
0.879517 0.002240 0.475862
0.876960 0.003719 0.480549
0.870201 0.002237 0.492692
0.876960 0.003719 0.480549
0.879517 0.002240 0.475862
-0.000000 -0.043592 0.999049
-0.181552 -0.064607 0.981257
-0.000000 -0.216222 0.976344
-0.177797 -0.255312 0.950371
-0.000000 -0.216222 0.976344
-0.181552 -0.064607 0.981257
-0.000000 -0.789352 0.613941
-0.000000 -0.789352 0.613941
-0.113623 -0.784241 0.609964
-0.113623 -0.784241 0.609964
-0.113623 -0.784241 0.609964
-0.000000 -0.789352 0.613941
-0.998855 0.000000 0.047841
-0.973772 0.000000 0.227526
-0.995362 0.000000 0.096199
-0.949183 0.000000 0.314726
-0.995362 0.000000 0.096199
-0.973772 0.000000 0.227526
-0.873460 0.000000 0.486895
-0.647132 0.000000 0.762378
-0.818941 0.000000 0.573878
-0.513331 0.000000 0.858191
-0.818941 0.000000 0.573878
-0.647132 0.000000 0.762378
-0.181664 0.000000 0.983361
-0.584210 0.000000 0.811602
-0.181552 -0.064607 0.981257
-0.583526 -0.057477 0.810058
-0.181552 -0.064607 0.981257
-0.584210 0.000000 0.811602
-0.135868 -0.700915 0.700184
-0.446966 -0.657762 0.606276
-0.099771 -0.861880 0.497201
-0.331796 -0.833257 0.442261
-0.099771 -0.861880 0.497201
-0.446966 -0.657762 0.606276
-0.583526 -0.057477 0.810058
-0.858135 -0.053964 0.510580
-0.570987 -0.228773 0.788440
-0.826385 -0.224333 0.516491
-0.570987 -0.228773 0.788440
-0.858135 -0.053964 0.510580
-0.331796 -0.833257 0.442261
-0.531670 -0.782563 0.323916
-0.209416 -0.944452 0.253288
-0.332927 -0.923697 0.189585
-0.209416 -0.944452 0.253288
-0.531670 -0.782563 0.323916
-0.947914 -0.171904 0.268155
-0.887125 -0.355454 0.294382
-0.826385 -0.224333 0.516491
-0.757738 -0.413044 0.505201
-0.826385 -0.224333 0.516491
-0.887125 -0.355454 0.294382
-0.949183 0.000000 0.314726
-0.995362 0.000000 0.096199
-0.962668 0.000000 0.270684
-0.997406 0.000000 0.071976
-0.962668 0.000000 0.270684
-0.995362 0.000000 0.096199
-0.887125 -0.355454 0.294382
-0.942398 -0.325452 0.077243
-0.808756 -0.544298 0.222831
-0.846565 -0.529028 0.058805
-0.808756 -0.544298 0.222831
-0.942398 -0.325452 0.077243
-0.000000 -0.953650 0.300918
-0.056191 -0.964442 0.258251
-0.000000 -0.991445 0.130527
-0.139376 -0.987866 0.068524
-0.000000 -0.991445 0.130527
-0.056191 -0.964442 0.258251
0.914592 -0.285781 0.286096
0.912176 -0.345628 0.220173
0.914922 -0.284434 0.286384
0.909645 -0.368645 0.191432
0.914922 -0.284434 0.286384
0.912176 -0.345628 0.220173
0.893604 -0.445683 0.053276
0.898016 -0.430298 0.091709
0.891452 -0.449581 0.056483
0.902072 -0.412141 0.128087
0.891452 -0.449581 0.056483
0.898016 -0.430298 0.091709
-0.000000 0.000000 1.000000
-0.000000 0.000000 1.000000
-0.000000 0.000000 1.000000
-0.000000 0.000000 1.000000
-0.000000 0.000000 1.000000
-0.000000 0.000000 1.000000
-0.000000 -0.902787 0.430087
-0.000000 -0.902787 0.430087
-0.000000 -0.789352 0.613941
-0.000000 -0.789352 0.613941
-0.000000 -0.789352 0.613941
-0.000000 -0.902787 0.430087
-0.000000 -0.216222 0.976344
-0.177797 -0.255312 0.950371
-0.000000 -0.461551 0.887114
-0.162308 -0.493908 0.854231
-0.000000 -0.461551 0.887114
-0.177797 -0.255312 0.950371
-0.000000 0.000000 1.000000
-0.181664 0.000000 0.983361
-0.000000 -0.043592 0.999049
-0.181552 -0.064607 0.981257
-0.000000 -0.043592 0.999049
-0.181664 0.000000 0.983361
-0.724539 -0.645829 0.240724
-0.778258 -0.625386 0.056630
-0.751843 -0.635385 0.176119
-0.778258 -0.625386 0.056630
-0.751843 -0.635385 0.176119
-0.778258 -0.625386 0.056630
-0.335863 -0.757309 0.560071
-0.590863 -0.692417 0.414052
-0.438785 -0.735750 0.515887
-0.645075 -0.674223 0.359586
-0.438785 -0.735750 0.515887
-0.590863 -0.692417 0.414052
-0.121702 0.000000 0.992567
-0.513331 0.000000 0.858191
-0.181664 0.000000 0.983361
-0.584210 0.000000 0.811602
-0.181664 0.000000 0.983361
-0.513331 0.000000 0.858191
-0.162308 -0.493908 0.854231
-0.526057 -0.451001 0.721015
-0.135868 -0.700915 0.700184
-0.446966 -0.657762 0.606276
-0.135868 -0.700915 0.700184
-0.526057 -0.451001 0.721015
-0.584210 0.000000 0.811602
-0.847998 0.000000 0.529999
-0.583526 -0.057477 0.810058
-0.858135 -0.053964 0.510580
-0.583526 -0.057477 0.810058
-0.847998 0.000000 0.529999
-0.446966 -0.657762 0.606276
-0.688491 -0.588288 0.424144
-0.331796 -0.833257 0.442261
-0.531670 -0.782563 0.323916
-0.331796 -0.833257 0.442261
-0.688491 -0.588288 0.424144
-0.972915 -0.041912 0.227333
-0.947914 -0.171904 0.268155
-0.858135 -0.053964 0.510580
-0.826385 -0.224333 0.516491
-0.858135 -0.053964 0.510580
-0.947914 -0.171904 0.268155
-0.531670 -0.782563 0.323916
-0.642005 -0.746685 0.174042
-0.332927 -0.923697 0.189585
-0.406998 -0.908051 0.098977
-0.332927 -0.923697 0.189585
-0.642005 -0.746685 0.174042
-0.988023 -0.136819 0.071354
-0.942398 -0.325452 0.077243
-0.947914 -0.171904 0.268155
-0.887125 -0.355454 0.294382
-0.947914 -0.171904 0.268155
-0.942398 -0.325452 0.077243
0.000000 -0.293812 0.955863
0.000000 -0.293812 0.955863
0.000000 -0.293812 0.955863
0.000000 -0.293812 0.955863
0.000000 -0.293812 0.955863
0.000000 -0.293812 0.955863
0.000000 -1.000000 -0.000003
0.000000 -1.000000 -0.000003
0.000000 -1.000000 -0.000003
0.000000 -1.000000 -0.000003
0.000000 -1.000000 -0.000003
0.000000 -1.000000 -0.000003
0.000001 -0.293814 -0.955863
0.000001 -0.293814 -0.955863
0.000001 -0.293814 -0.955863
0.000001 -0.293814 -0.955863
0.000001 -0.293814 -0.955863
0.000001 -0.293814 -0.955863
0.000000 0.000000 1.000000
-0.139924 -0.000266 0.990162
0.000000 0.000000 1.000000
-0.139924 -0.000266 0.990162
0.000000 0.000000 1.000000
-0.140529 -0.000268 0.990076
-0.689247 -0.330591 0.644708
-0.689247 -0.330591 0.644708
-0.689247 -0.330591 0.644708
0.967414 -0.222812 -0.120266
0.967414 -0.222812 -0.120266
0.967414 -0.222812 -0.120266
0.967414 -0.222812 -0.120266
0.967414 -0.222812 -0.120266
0.967414 -0.222812 -0.120266
0.000000 -1.000000 -0.000002
0.000000 -1.000000 -0.000002
0.000000 -1.000000 -0.000002
0.000000 -1.000000 -0.000002
0.000000 -1.000000 -0.000002
0.000000 -1.000000 -0.000002
0.000000 -1.000000 0.000002
0.000000 -1.000000 0.000002
0.000000 -1.000000 0.000002
0.000000 -1.000000 0.000002
0.000000 -1.000000 0.000002
0.000000 -1.000000 0.000002
-0.969145 0.002679 0.246477
-0.991704 0.000847 0.128541
-0.968878 0.002696 0.247523
-0.991704 0.000847 0.128541
-0.969145 0.002679 0.246477
-0.991704 0.000847 0.128541
-0.988023 -0.136819 0.071354
-0.968085 -0.250621 0.000000
-0.942398 -0.325452 0.077243
-0.942398 -0.325452 0.077243
-0.968085 -0.250621 0.000000
-0.968085 -0.250621 0.000000
-0.997406 0.000000 0.071976
-1.000000 0.000000 0.000000
-0.997819 -0.032589 0.057409
-0.997819 -0.032589 0.057409
-1.000000 0.000000 0.000000
-1.000000 0.000000 0.000000
-0.942398 -0.325452 0.077243
-0.901674 -0.432417 0.000000
-0.846565 -0.529028 0.058805
-0.846565 -0.529028 0.058805
-0.901674 -0.432417 0.000000
-0.901674 -0.432417 0.000000
-0.677807 -0.733822 0.045641
-0.552432 -0.833558 0.000000
-0.428261 -0.903368 0.022771
-0.428261 -0.903368 0.022771
-0.552432 -0.833558 0.000000
-0.552432 -0.833558 0.000000
-0.997406 0.000000 0.071976
-0.995362 0.000000 0.096199
-1.000000 0.000000 0.000000
-0.997406 0.000000 0.071976
-1.000000 0.000000 0.000000
-1.000000 0.000000 0.000000
-0.846565 -0.529028 0.058805
-0.775346 -0.631537 0.000000
-0.677807 -0.733822 0.045641
-0.775346 -0.631537 0.000000
-0.846565 -0.529028 0.058805
-0.775346 -0.631537 0.000000
-0.998855 0.000000 0.047841
-0.995362 0.000000 0.096199
-1.000000 0.000000 0.000000
-0.998855 0.000000 0.047841
-1.000000 0.000000 0.000000
-1.000000 0.000000 0.000000
-0.997819 -0.032589 0.057409
-0.996631 -0.082011 0.000000
-0.988023 -0.136819 0.071354
-0.996631 -0.082011 0.000000
-0.997819 -0.032589 0.057409
-0.996631 -0.082011 0.000000
-0.779507 -0.626394 0.000000
-0.778258 -0.625386 0.056630
-0.778258 -0.625386 0.056630
-0.778258 -0.625386 0.056630
-0.779507 -0.626394 0.000000
-0.779507 -0.626394 0.000000
-0.428261 -0.903368 0.022771
-0.206124 -0.978526 0.000000
-0.139376 -0.987866 0.068524
-0.139376 -0.987866 0.068524
-0.206124 -0.978526 0.000000
-0.206124 -0.978526 0.000000
0.000000 -1.000000 0.000000
0.000000 -1.000000 0.000000
0.000000 -1.000000 0.000000
0.000000 -1.000000 0.000000
0.000000 -1.000000 0.000000
0.000000 -1.000000 0.000000
0.000000 -1.000000 0.000000
0.000000 -1.000000 0.000000
0.000000 -1.000000 0.000000
0.000000 -1.000000 0.000006
0.000000 -1.000000 0.000006
0.000000 -1.000000 0.000006
0.000000 -1.000000 -0.000005
0.000000 -1.000000 -0.000005
0.000000 -1.000000 -0.000005
0.000000 -1.000000 0.000000
0.000000 -1.000000 0.000000
0.000000 -1.000000 0.000000
0.000000 0.000000 1.000000
-0.000000 0.000000 1.000000
0.000000 0.000000 1.000000
0.000000 0.000000 1.000000
-0.000000 0.000000 1.000000
0.000000 0.000000 1.000000
0.000000 0.000000 1.000000
0.000000 0.000000 1.000000
0.000000 0.000000 1.000000
0.000000 0.000000 1.000000
0.000000 0.000000 1.000000
0.000000 0.000000 1.000000
0.000000 0.000000 1.000000
0.000000 0.000000 1.000000
0.000000 0.000000 1.000000
0.000000 0.000000 1.000000
0.000000 0.000000 1.000000
0.000000 0.000000 1.000000
0.000000 0.000000 1.000000
0.000000 0.000000 1.000000
0.000000 0.000000 1.000000
0.000000 0.000000 1.000000
-0.000000 0.000000 1.000000
-0.000000 0.000000 1.000000
-0.000000 0.000000 1.000000
0.000000 0.000000 1.000000
0.000000 0.000000 1.000000
0.000000 0.000000 1.000000
0.000000 0.000000 1.000000
0.000000 0.000000 1.000000
0.000000 0.000000 1.000000
0.000000 0.000000 1.000000
0.000000 0.000000 1.000000
0.000000 0.000000 1.000000
-0.000000 0.000000 1.000000
-0.000000 0.000000 1.000000
-0.000000 0.000000 1.000000
-0.000000 0.000000 1.000000
0.000000 0.000000 1.000000
0.000000 0.000000 1.000000
0.000000 0.000000 1.000000
0.000000 0.000000 1.000000
0.000000 0.000000 1.000000
0.000000 0.000000 1.000000
0.000000 0.000000 1.000000
0.000000 0.000000 1.000000
0.000000 0.000000 1.000000
0.000000 0.000000 1.000000
0.000000 0.000000 1.000000
0.000000 0.000000 1.000000
0.000000 0.000000 1.000000
0.000000 0.000000 1.000000
0.000000 0.000000 1.000000
0.000000 0.000000 1.000000
0.694228 0.719755 0.000000
0.694228 0.719755 0.000000
0.694228 0.719755 0.000000
0.694228 0.719755 0.000000
0.694228 0.719755 0.000000
0.694228 0.719755 0.000000
-0.694228 0.719755 0.000000
-0.694228 0.719755 0.000000
-0.694228 0.719755 0.000000
-0.694228 0.719755 0.000000
-0.694228 0.719755 0.000000
-0.694228 0.719755 0.000000
0.000000 0.000000 1.000000
0.000000 0.000000 1.000000
0.000000 0.000000 1.000000
0.000000 0.000000 1.000000
0.000000 0.000000 1.000000
0.000000 0.000000 1.000000
0.000000 1.000000 0.000000
0.000000 1.000000 0.000000
0.000000 1.000000 0.000000
0.000000 1.000000 0.000000
0.000000 1.000000 0.000000
0.000000 1.000000 0.000000
0.000000 0.000000 1.000000
0.000000 0.000000 1.000000
0.000000 0.000000 1.000000
0.000000 0.000000 1.000000
0.000000 0.000000 1.000000
0.000000 0.000000 1.000000
0.000000 0.000000 1.000000
0.000000 0.000000 1.000000
0.000000 0.000000 1.000000
0.000000 0.000000 1.000000
0.000000 0.000000 1.000000
0.000000 0.000000 1.000000
0.000000 1.000000 0.000000
0.000000 1.000000 0.000000
0.000000 1.000000 0.000000
0.000000 1.000000 0.000000
0.000000 1.000000 0.000000
0.000000 1.000000 0.000000
</float_array>
          <technique_common>
            <accessor source="#polySurface662-Normal0-array" count="1428" stride="3">
              <param name="X" type="float"/>
              <param name="Y" type="float"/>
              <param name="Z" type="float"/>
            </accessor>
          </technique_common>
        </source>
        <source id="polySurface662-UV0">
          <float_array id="polySurface662-UV0-array" count="930">
0.619375 0.468483
0.606486 0.454531
0.602017 0.456162
0.610357 0.449877
0.599500 0.456124
0.596312 0.441713
0.595709 0.437611
0.593938 0.441677
0.593350 0.437576
0.616607 0.468435
0.616474 0.475685
0.605553 0.450742
0.609325 0.446415
0.605553 0.450742
0.619333 0.475739
0.598905 0.452020
0.601407 0.452058
0.615951 0.556793
0.618901 0.556849
0.606486 0.454531
0.599846 0.436225
0.600801 0.440001
0.600801 0.440001
0.616607 0.468435
0.616474 0.475685
0.606486 0.454531
0.600801 0.440001
0.600801 0.440001
0.599846 0.436225
0.599846 0.436225
0.616607 0.468435
0.600801 0.440001
0.600801 0.440001
0.606486 0.454531
0.606486 0.454531
0.615951 0.556793
0.616474 0.475685
0.599846 0.436225
0.615951 0.556793
0.616474 0.475685
0.616474 0.475685
0.616607 0.468435
0.601183 0.468169
0.601183 0.468169
0.608895 0.468302
0.608895 0.468302
0.608895 0.468302
0.608895 0.468302
0.601130 0.475395
0.601130 0.475395
0.600905 0.556508
0.608802 0.475540
0.608802 0.475540
0.608428 0.556651
0.608818 0.475540
0.608818 0.475540
0.608346 0.556649
0.496321 0.490361
0.326946 0.490361
0.897811 0.876320
0.898314 0.871985
0.903761 0.876320
0.899640 0.868192
0.901518 0.865487
0.903678 0.864421
0.928803 0.861676
0.928804 0.869495
0.926773 0.862203
0.926749 0.869826
0.928779 0.902459
0.926866 0.900242
0.928785 0.894383
0.926810 0.892641
0.916101 0.975351
0.922295 0.988938
0.916499 0.997586
0.922291 0.997605
0.923863 0.979647
0.927619 0.988922
0.927828 0.979647
0.853155 0.885026
0.853138 0.892622
0.853115 0.900220
0.853099 0.906912
0.926764 0.885040
0.892261 0.885033
0.926738 0.877437
0.892250 0.877432
0.892249 0.869823
0.892253 0.862200
0.926862 0.929429
0.892308 0.929414
0.926906 0.906938
0.892310 0.906926
0.868958 0.975184
0.878289 0.975220
0.868806 0.997413
0.878239 0.997449
0.887621 0.975255
0.896952 0.975290
0.887673 0.997486
0.897107 0.997523
0.884992 0.887885
0.879213 0.890071
0.883703 0.879178
0.878579 0.881759
0.882517 0.929409
0.872726 0.929405
0.882507 0.906922
0.872705 0.906919
0.873189 0.882627
0.877637 0.873574
0.873173 0.874453
0.873193 0.906784
0.866415 0.905961
0.873176 0.899315
0.866727 0.898469
0.868709 0.873621
0.873160 0.866294
0.869949 0.865582
0.860647 0.896581
0.861358 0.887863
0.867145 0.890067
0.867127 0.863163
0.871409 0.857646
0.869946 0.856272
0.928793 0.886048
0.917539 0.966150
0.853161 0.877427
0.853127 0.862198
0.853148 0.869820
0.853144 0.929396
0.878026 0.966021
0.868884 0.965988
0.896311 0.966086
0.887169 0.966054
0.885713 0.896600
0.879625 0.898475
0.879237 0.863060
0.876379 0.865534
0.876361 0.856144
0.874887 0.857583
0.873182 0.890884
0.862935 0.929401
0.862902 0.906916
0.867792 0.881786
0.860164 0.904173
0.864617 0.870807
0.928799 0.877704
0.928778 0.906948
0.930114 0.988914
0.927616 0.997622
0.930111 0.997630
0.928809 0.928995
0.859627 0.975149
0.859372 0.997376
0.892296 0.900231
0.892277 0.892632
0.886171 0.904113
0.879955 0.905914
0.881763 0.870794
0.873145 0.858044
0.862617 0.879114
0.926804 0.854530
0.892257 0.854531
0.928824 0.855364
0.930305 0.979647
0.859742 0.965956
0.853102 0.854532
0.591509 0.456002
0.591419 0.475212
0.591419 0.475212
0.591546 0.437549
0.591546 0.437549
0.591546 0.441641
0.591565 0.432774
0.591504 0.451907
0.591000 0.556321
0.591465 0.468002
0.591465 0.468002
0.604563 0.455233
0.604563 0.455233
0.602939 0.434062
0.602939 0.434062
0.602465 0.433367
0.602465 0.433367
0.604447 0.435938
0.604447 0.435938
0.604342 0.451126
0.604674 0.468229
0.604674 0.468229
0.604629 0.475461
0.604629 0.475461
0.604206 0.556571
0.412639 0.664919
0.496321 0.664919
0.841464 0.885023
0.841436 0.892619
0.841401 0.900216
0.841376 0.906908
0.841475 0.877425
0.841430 0.862197
0.841458 0.869819
0.841436 0.929391
0.845612 0.975124
0.845229 0.997351
0.844351 0.965929
0.841396 0.854533
0.619375 0.468483
0.610357 0.449877
0.616607 0.468435
0.599500 0.456124
0.591509 0.456002
0.591465 0.468002
0.601183 0.468169
0.599846 0.436225
0.600801 0.440001
0.602939 0.434062
0.602465 0.433367
0.596312 0.441713
0.595709 0.437611
0.593938 0.441677
0.593350 0.437576
0.616474 0.475685
0.608895 0.468302
0.608802 0.475540
0.619333 0.475739
0.600801 0.440001
0.599846 0.436225
0.599846 0.436225
0.606486 0.454531
0.605553 0.450742
0.602017 0.456162
0.601407 0.452058
0.598905 0.452020
0.600801 0.440001
0.600801 0.440001
0.605553 0.450742
0.609325 0.446415
0.606486 0.454531
0.606486 0.454531
0.608802 0.475540
0.608428 0.556651
0.615951 0.556793
0.618901 0.556849
0.615951 0.556793
0.616474 0.475685
0.616474 0.475685
0.616607 0.468435
0.616607 0.468435
0.608895 0.468302
0.608895 0.468302
0.606486 0.454531
0.601130 0.475395
0.601183 0.468169
0.591465 0.468002
0.591419 0.475212
0.601130 0.475395
0.600905 0.556508
0.608346 0.556649
0.604206 0.556571
0.604629 0.475461
0.608818 0.475540
0.608818 0.475540
0.608895 0.468302
0.616607 0.468435
0.616474 0.475685
0.615951 0.556793
0.616474 0.475685
0.496321 0.490361
0.496321 0.664919
0.412639 0.664919
0.326946 0.490361
0.897811 0.876320
0.898314 0.871985
0.903761 0.876320
0.899640 0.868192
0.901518 0.865487
0.903678 0.864421
0.928803 0.861676
0.928804 0.869495
0.926773 0.862203
0.926749 0.869826
0.928779 0.902459
0.926866 0.900242
0.928785 0.894383
0.926810 0.892641
0.916101 0.975351
0.922295 0.988938
0.916499 0.997586
0.922291 0.997605
0.923863 0.979647
0.927619 0.988922
0.927828 0.979647
0.926764 0.885040
0.892261 0.885033
0.926738 0.877437
0.892250 0.877432
0.892249 0.869823
0.892253 0.862200
0.926862 0.929429
0.892308 0.929414
0.926906 0.906938
0.892310 0.906926
0.868958 0.975184
0.878289 0.975220
0.868806 0.997413
0.878239 0.997449
0.887621 0.975255
0.896952 0.975290
0.887673 0.997486
0.897107 0.997523
0.884992 0.887885
0.879213 0.890071
0.883703 0.879178
0.878579 0.881759
0.882517 0.929409
0.872726 0.929405
0.882507 0.906922
0.872705 0.906919
0.873189 0.882627
0.877637 0.873574
0.873173 0.874453
0.873193 0.906784
0.866415 0.905961
0.873176 0.899315
0.866727 0.898469
0.868709 0.873621
0.873160 0.866294
0.869949 0.865582
0.860647 0.896581
0.861358 0.887863
0.867145 0.890067
0.867127 0.863163
0.871409 0.857646
0.869946 0.856272
0.928793 0.886048
0.917539 0.966150
0.878026 0.966021
0.868884 0.965988
0.896311 0.966086
0.887169 0.966054
0.885713 0.896600
0.879625 0.898475
0.879237 0.863060
0.876379 0.865534
0.876361 0.856144
0.874887 0.857583
0.873182 0.890884
0.862935 0.929401
0.862902 0.906916
0.867792 0.881786
0.860164 0.904173
0.864617 0.870807
0.928799 0.877704
0.928778 0.906948
0.930114 0.988914
0.927616 0.997622
0.930111 0.997630
0.928809 0.928995
0.892296 0.900231
0.892277 0.892632
0.859627 0.975149
0.859372 0.997376
0.886171 0.904113
0.879955 0.905914
0.881763 0.870794
0.873145 0.858044
0.853144 0.929396
0.853099 0.906912
0.862617 0.879114
0.926804 0.854530
0.892257 0.854531
0.928824 0.855364
0.930305 0.979647
0.859742 0.965956
0.591546 0.437549
0.591546 0.441641
0.591504 0.451907
0.591419 0.475212
0.591000 0.556321
0.604447 0.435938
0.602939 0.434062
0.600801 0.440001
0.604563 0.455233
0.604342 0.451126
0.606486 0.454531
0.604447 0.435938
0.600801 0.440001
0.604674 0.468229
0.604563 0.455233
0.604629 0.475461
0.604674 0.468229
0.841436 0.892619
0.841464 0.885023
0.853155 0.885026
0.853138 0.892622
0.841376 0.906908
0.841401 0.900216
0.853115 0.900220
0.841475 0.877425
0.853161 0.877427
0.841458 0.869819
0.841430 0.862197
0.853127 0.862198
0.853148 0.869820
0.841436 0.929391
0.845229 0.997351
0.845612 0.975124
0.844351 0.965929
0.841396 0.854533
0.853102 0.854532
0.591565 0.432774
0.599846 0.436225
0.602465 0.433367
0.591546 0.437549
0.721778 0.170882
0.757595 0.191292
0.757595 0.046512
0.721777 0.046512
0.721778 0.191292
0.893613 0.252376
0.877769 0.252376
0.877769 0.410102
0.893613 0.410102
0.760103 0.426103
0.796918 0.046512
0.796918 0.426103
0.998278 0.426103
0.962460 0.046512
0.998278 0.046512
0.962383 0.049984
0.962383 0.232481
0.996311 0.232481
0.996311 0.049984
0.760103 0.046512
0.962461 0.426103
0.998278 0.426103
0.721778 0.170882
0.721777 0.046512
0.757595 0.046512
0.757595 0.191292
0.721778 0.191292
0.893613 0.252376
0.893613 0.410102
0.877769 0.410102
0.877769 0.252376
0.794614 0.016741
0.794613 0.009297
0.796914 0.009297
0.796915 0.016741
0.794617 0.046512
0.796918 0.046512
0.962460 0.046512
0.962460 0.016740
0.964698 0.016740
0.964699 0.046512
0.962460 0.009297
0.964698 0.009297
0.760099 0.016741
0.760103 0.046512
0.760098 0.009297
0.998278 0.016740
0.998278 0.009297
0.998278 0.046512
</float_array>
          <technique_common>
            <accessor source="#polySurface662-UV0-array" count="465" stride="2">
              <param name="S" type="float"/>
              <param name="T" type="float"/>
            </accessor>
          </technique_common>
        </source>
        <vertices id="polySurface662-VERTEX">
          <input semantic="POSITION" source="#polySurface662-POSITION"/>
        </vertices>
        <triangles count="476" material="pplant"><input semantic="VERTEX" offset="0" source="#polySurface662-VERTEX"/><input semantic="NORMAL" offset="1" source="#polySurface662-Normal0"/><input semantic="TEXCOORD" offset="2" set="0" source="#polySurface662-UV0"/><p> 14 0 0 21 1 9 13 2 3 128 3 179 18 4 4 25 5 43 18 6 4 128 7 179 121 8 169 130 9 182 6 10 21 8 11 20 8 12 20 131 13 184 130 14 182 3 15 5 16 16 7 4 17 6 17 18 8 4 19 6 16 20 7 30 21 51 27 22 46 19 23 10 19 24 10 27 25 46 21 26 9 14 27 0 10 28 14 21 29 9 19 30 10 21 31 9 10 32 14 6 33 27 3 34 5 8 35 28 4 36 6 8 37 29 3 38 5 9 39 1 5 40 2 7 41 13 2 42 16 7 43 13 5 44 2 2 45 16 15 46 15 3 47 5 16 48 7 3 49 5 15 50 15 7 51 13 2 52 16 6 53 31 3 54 5 6 55 32 2 56 16 0 57 11 1 58 33 12 59 12 13 60 3 12 61 12 1 62 34 31 63 53 30 64 52 20 65 17 20 66 17 30 67 52 19 68 10 13 69 3 9 70 1 12 71 12 7 72 13 12 73 12 9 74 1 10 75 14 11 76 18 19 77 10 20 78 17 19 79 10 11 80 18 11 81 18 10 82 14 22 83 36 11 84 18 22 85 36 23 86 35 5 87 2 18 88 4 2 89 16 15 90 15 2 91 16 18 92 4 10 93 14 14 94 0 24 95 41 10 96 14 24 97 41 22 98 40 25 99 43 18 100 4 5 101 2 24 102 30 14 103 0 13 104 3 25 105 43 5 106 2 27 107 47 27 108 47 5 109 2 9 110 1 27 111 47 9 112 1 21 113 9 13 114 3 21 115 9 9 116 1 13 117 3 1 118 19 26 119 45 26 120 45 24 121 30 13 122 3 122 123 170 128 124 178 28 125 48 28 126 48 128 127 178 25 128 42 28 129 48 25 130 42 30 131 51 30 132 51 25 133 42 27 134 46 29 135 50 30 136 52 31 137 53 30 138 52 29 139 50 28 140 49 33 141 56 32 142 55 135 143 192 33 144 56 135 145 192 136 146 193 22 147 24 26 148 44 32 149 54 26 150 44 22 151 24 24 152 23 23 153 38 22 154 39 32 155 55 23 156 38 32 157 55 33 158 56 137 159 194 35 160 57 34 161 58 35 162 57 137 163 194 138 164 195 76 165 59 120 166 61 103 167 60 103 168 60 120 169 61 111 170 62 111 171 62 120 172 61 119 173 63 119 174 63 120 175 61 65 176 64 40 177 65 45 178 67 41 179 66 46 180 68 41 181 66 45 182 67 39 183 69 44 184 71 38 185 70 49 186 72 38 187 70 44 188 71 37 189 73 55 190 75 36 191 74 56 192 76 36 193 74 55 194 75 36 195 74 57 196 78 53 197 77 61 198 79 53 199 77 57 200 78 48 201 84 47 202 86 77 203 85 78 204 87 77 205 85 47 206 86 46 207 68 45 208 67 81 209 88 76 210 89 81 211 88 45 212 67 64 213 90 52 214 92 86 215 91 82 216 93 86 217 91 52 218 92 88 219 94 89 220 96 91 221 95 92 222 97 91 223 95 89 224 96 94 225 98 95 226 100 84 227 99 85 228 101 84 229 99 95 230 100 79 231 102 77 232 104 99 233 103 100 234 105 99 235 103 77 236 104 96 237 106 97 238 108 104 239 107 105 240 109 104 241 107 97 242 108 100 243 105 101 244 111 108 245 110 109 246 112 108 247 110 101 248 111 105 249 113 106 250 115 113 251 114 114 252 116 113 253 114 106 254 115 109 255 112 110 256 118 117 257 117 118 258 119 117 259 117 110 260 118 69 261 120 114 262 116 68 263 121 115 264 122 68 265 121 114 266 116 118 267 119 119 268 124 70 269 123 65 270 125 70 271 123 119 272 124 48 273 84 49 274 72 43 275 126 44 276 71 43 277 126 49 278 72 54 279 127 37 280 73 53 281 77 36 282 74 53 283 77 37 284 73 47 285 86 46 286 68 78 287 87 81 288 88 78 289 87 46 290 68 55 291 75 37 292 73 85 293 101 84 294 99 85 295 101 37 296 73 91 297 95 90 298 132 88 299 94 87 300 133 88 301 94 90 302 132 84 303 99 83 304 134 94 305 98 93 306 135 94 307 98 83 308 134 80 309 136 79 310 102 98 311 137 99 312 103 98 313 137 79 314 102 81 315 138 76 316 140 102 317 139 103 318 141 102 319 139 76 320 140 99 321 103 100 322 105 107 323 142 108 324 110 107 325 142 100 326 105 104 327 107 105 328 109 112 329 143 113 330 144 112 331 143 105 332 109 108 333 110 109 334 112 116 335 145 117 336 117 116 337 145 109 338 112 113 339 114 114 340 116 71 341 146 69 342 120 71 343 146 114 344 116 117 345 117 118 346 119 67 347 147 70 348 123 67 349 147 118 350 119 47 351 86 48 352 84 42 353 148 43 354 126 42 355 148 48 356 84 38 357 70 52 358 92 39 359 69 51 360 149 39 361 69 52 362 92 57 363 78 58 364 151 59 365 150 60 366 152 59 367 150 58 368 151 63 369 153 51 370 149 64 371 90 52 372 92 64 373 90 51 374 149 38 375 70 49 376 72 80 377 156 79 378 157 80 379 156 49 380 72 54 381 127 83 382 134 37 383 73 84 384 99 37 385 73 83 386 134 73 387 154 74 388 155 88 389 94 89 390 96 88 391 94 74 392 155 91 393 95 92 394 97 94 395 98 95 396 100 94 397 98 92 398 97 82 399 158 80 400 136 97 401 159 98 402 137 97 403 159 80 404 136 78 405 160 81 406 138 101 407 111 102 408 139 101 409 111 81 410 138 98 411 137 99 412 103 106 413 115 107 414 142 106 415 115 99 416 103 102 417 139 103 418 141 110 419 118 111 420 161 110 421 118 103 422 141 115 423 122 107 424 142 116 425 145 108 426 110 116 427 145 107 428 142 112 429 143 113 430 144 75 431 131 71 432 83 75 433 131 113 434 144 116 435 145 117 436 117 66 437 162 67 438 147 66 439 162 117 440 117 45 441 67 50 442 163 76 443 89 120 444 164 76 445 89 50 446 163 47 447 86 42 448 148 46 449 68 41 450 66 46 451 68 42 452 148 34 453 165 50 454 163 40 455 65 45 456 67 40 457 65 50 458 163 56 459 76 58 460 151 36 461 74 57 462 78 36 463 74 58 464 151 61 465 79 57 466 78 62 467 166 59 468 150 62 469 166 57 470 78 49 471 72 48 472 84 79 473 157 77 474 85 79 475 157 48 476 84 52 477 92 38 478 70 82 479 93 80 480 156 82 481 93 38 482 70 88 483 94 87 484 133 73 485 154 72 486 167 73 487 154 87 488 133 94 489 98 93 490 135 91 491 95 90 492 132 91 493 95 93 494 135 86 495 91 82 496 93 96 497 106 97 498 108 96 499 106 82 500 93 77 501 104 78 502 160 100 503 105 101 504 111 100 505 105 78 506 160 97 507 159 98 508 137 105 509 113 106 510 115 105 511 113 98 512 137 101 513 111 102 514 139 109 515 112 110 516 118 109 517 112 102 518 139 114 519 116 106 520 115 115 521 122 107 522 142 115 523 122 106 524 115 110 525 118 111 526 161 118 527 119 119 528 124 118 529 119 111 530 161 68 531 121 115 532 122 66 533 162 116 534 145 66 535 162 115 536 122 124 537 174 17 538 8 16 539 7 17 540 8 124 541 174 123 542 173 15 543 15 126 544 176 16 545 7 16 546 7 126 547 176 124 548 174 121 549 169 15 550 15 18 551 4 15 552 15 121 553 169 126 554 176 127 555 177 28 556 49 29 557 50 28 558 49 127 559 177 122 560 171 132 561 186 6 562 22 130 563 183 0 564 11 129 565 181 1 566 25 129 567 181 0 568 11 133 569 188 132 570 187 12 571 12 6 572 26 12 573 12 7 574 13 6 575 26 1 576 19 134 577 190 26 578 45 134 579 190 1 580 19 129 581 180 32 582 54 134 583 189 135 584 191 134 585 189 32 586 54 26 587 44 66 588 80 140 589 197 68 590 81 140 591 197 66 592 80 139 593 196 69 594 82 142 595 199 71 596 83 142 597 199 69 598 82 141 599 198 67 600 128 139 601 196 66 602 80 139 603 196 67 604 128 143 605 200 65 606 129 145 607 202 70 608 130 145 609 202 65 610 129 144 611 201 71 612 83 146 613 203 75 614 131 146 615 203 71 616 83 142 617 199 67 618 128 145 619 202 143 620 200 145 621 202 67 622 128 70 623 130 73 624 154 148 625 205 74 626 155 148 627 205 73 628 154 147 629 204 69 630 82 140 631 197 141 632 198 140 633 197 69 634 82 68 635 81 72 636 167 149 637 206 73 638 154 73 639 154 149 640 206 147 641 204 120 642 168 144 643 201 65 644 129 144 645 201 120 646 168 150 647 207 4 648 6 17 649 8 125 650 175 4 651 6 125 652 175 8 653 37 125 654 175 131 655 185 8 656 37 0 657 11 12 658 12 132 659 187 133 660 188 0 661 11 132 662 187 125 663 175 17 664 8 123 665 172 165 666 208 164 667 209 172 668 210 279 669 213 176 670 214 169 671 211 279 672 213 169 673 211 272 674 212 157 675 216 281 676 217 159 677 215 159 678 215 281 679 217 282 680 218 154 681 219 155 682 220 167 683 221 168 684 222 167 685 221 155 686 220 181 687 225 170 688 223 178 689 224 170 690 223 172 691 210 178 692 224 161 693 226 172 694 210 170 695 223 172 696 210 161 697 226 165 698 208 157 699 227 159 700 228 154 701 219 155 702 220 154 703 219 159 704 229 160 705 230 158 706 231 156 707 232 153 708 233 156 709 232 158 710 231 153 711 233 154 712 219 166 713 234 167 714 221 166 715 234 154 716 219 158 717 231 157 718 235 153 719 233 154 720 219 153 721 233 157 722 236 151 723 237 163 724 238 152 725 239 164 726 209 152 727 240 163 728 238 171 729 243 181 730 241 182 731 242 181 732 241 171 733 243 170 734 223 164 735 209 163 736 238 160 737 230 158 738 231 160 739 230 163 740 238 170 741 223 171 742 243 162 743 244 170 744 223 162 745 244 161 746 226 174 747 245 173 748 246 162 749 244 161 750 226 162 751 244 173 752 246 156 753 232 153 754 233 169 755 211 166 756 234 169 757 211 153 758 233 173 759 247 175 760 248 161 761 226 165 762 208 161 763 226 175 764 248 176 765 214 156 766 232 169 767 211 175 768 249 164 769 209 165 770 208 176 771 214 178 772 250 156 773 232 178 774 250 160 775 230 156 776 232 172 777 210 164 778 209 160 779 230 172 780 210 160 781 230 178 782 250 164 783 209 177 784 251 152 785 252 177 786 251 164 787 209 175 788 249 273 789 256 179 790 253 279 791 255 179 792 253 176 793 254 279 794 255 179 795 253 181 796 225 176 797 254 181 798 225 178 799 224 176 800 254 180 801 258 181 802 241 179 803 257 181 804 241 180 805 258 182 806 242 287 807 260 286 808 261 184 809 259 183 810 262 184 811 259 286 812 261 173 813 266 177 814 264 175 815 265 177 816 264 173 817 266 183 818 263 184 819 259 183 820 262 174 821 267 173 822 268 174 823 267 183 824 262 185 825 272 186 826 269 288 827 271 186 828 269 289 829 270 288 830 271 227 831 273 254 832 274 271 833 275 254 834 274 262 835 276 271 836 275 262 837 276 270 838 277 271 839 275 270 840 277 216 841 278 271 842 275 191 843 279 192 844 280 196 845 281 197 846 282 196 847 281 192 848 280 190 849 283 189 850 284 195 851 285 200 852 286 195 853 285 189 854 284 188 855 287 187 856 288 206 857 289 207 858 290 206 859 289 187 860 288 187 861 288 204 862 291 208 863 292 212 864 293 208 865 292 204 866 291 199 867 294 228 868 295 198 869 296 229 870 297 198 871 296 228 872 295 197 873 282 232 874 298 196 875 281 227 876 299 196 877 281 232 878 298 215 879 300 237 880 301 203 881 302 233 882 303 203 883 302 237 884 301 239 885 304 242 886 305 240 887 306 243 888 307 240 889 306 242 890 305 245 891 308 235 892 309 246 893 310 236 894 311 246 895 310 235 896 309 230 897 312 250 898 313 228 899 314 251 900 315 228 901 314 250 902 313 247 903 316 255 904 317 248 905 318 256 906 319 248 907 318 255 908 317 251 909 315 259 910 320 252 911 321 260 912 322 252 913 321 259 914 320 256 915 323 264 916 324 257 917 325 265 918 326 257 919 325 264 920 324 260 921 322 268 922 327 261 923 328 269 924 329 261 925 328 268 926 327 220 927 330 219 928 331 265 929 326 266 930 332 265 931 326 219 932 331 269 933 329 221 934 333 270 935 334 216 936 335 270 937 334 221 938 333 199 939 294 194 940 336 200 941 286 195 942 285 200 943 286 194 944 336 205 945 337 204 946 291 188 947 287 187 948 288 188 949 287 204 950 291 198 951 296 229 952 297 197 953 282 232 954 298 197 955 282 229 956 297 206 957 289 236 958 311 188 959 287 235 960 309 188 961 287 236 962 311 242 963 305 239 964 304 241 965 338 238 966 339 241 967 338 239 968 304 235 969 309 245 970 308 234 971 340 244 972 341 234 973 340 245 974 308 231 975 342 249 976 343 230 977 312 250 978 313 230 979 312 249 980 343 232 981 344 253 982 345 227 983 346 254 984 347 227 985 346 253 986 345 250 987 313 258 988 348 251 989 315 259 990 320 251 991 315 258 992 348 255 993 317 263 994 349 256 995 319 264 996 350 256 997 319 263 998 349 259 999 320 267 1000 351 260 1001 322 268 1002 327 260 1003 322 267 1004 351 264 1005 324 222 1006 352 265 1007 326 220 1008 330 265 1009 326 222 1010 352 268 1011 327 218 1012 353 269 1013 329 221 1014 333 269 1015 329 218 1016 353 198 1017 296 193 1018 354 199 1019 294 194 1020 336 199 1021 294 193 1022 354 189 1023 284 190 1024 283 203 1025 302 202 1026 355 203 1027 302 190 1028 283 208 1029 292 210 1030 356 209 1031 357 211 1032 358 209 1033 357 210 1034 356 214 1035 359 215 1036 300 202 1037 355 203 1038 302 202 1039 355 215 1040 300 189 1041 284 231 1042 360 200 1043 286 230 1044 361 200 1045 286 231 1046 360 205 1047 337 188 1048 287 234 1049 340 235 1050 309 234 1051 340 188 1052 287 224 1053 362 239 1054 304 225 1055 363 240 1056 306 225 1057 363 239 1058 304 242 1059 305 245 1060 308 243 1061 307 246 1062 310 243 1063 307 245 1064 308 233 1065 364 248 1066 365 231 1067 342 249 1068 343 231 1069 342 248 1070 365 229 1071 366 252 1072 321 232 1073 344 253 1074 345 232 1075 344 252 1076 321 249 1077 343 257 1078 325 250 1079 313 258 1080 348 250 1081 313 257 1082 325 253 1083 345 261 1084 328 254 1085 347 262 1086 367 254 1087 347 261 1088 328 266 1089 332 267 1090 351 258 1091 348 259 1092 320 258 1093 348 267 1094 351 263 1095 349 226 1096 368 264 1097 350 222 1098 369 264 1099 350 226 1100 368 267 1101 351 217 1102 370 268 1103 327 218 1104 353 268 1105 327 217 1106 370 196 1107 281 227 1108 299 201 1109 371 271 1110 372 201 1111 371 227 1112 299 198 1113 296 197 1114 282 193 1115 354 192 1116 280 193 1117 354 197 1118 282 185 1119 373 191 1120 279 201 1121 371 196 1122 281 201 1123 371 191 1124 279 207 1125 290 187 1126 288 209 1127 357 208 1128 292 209 1129 357 187 1130 288 212 1131 293 213 1132 374 208 1133 292 210 1134 356 208 1135 292 213 1136 374 200 1137 286 230 1138 361 199 1139 294 228 1140 295 199 1141 294 230 1142 361 203 1143 302 233 1144 303 189 1145 284 231 1146 360 189 1147 284 233 1148 303 239 1149 304 224 1150 362 238 1151 339 223 1152 375 238 1153 339 224 1154 362 245 1155 308 242 1156 305 244 1157 341 241 1158 338 244 1159 341 242 1160 305 237 1161 301 247 1162 316 233 1163 303 248 1164 318 233 1165 303 247 1166 316 228 1167 314 251 1168 315 229 1169 366 252 1170 321 229 1171 366 251 1172 315 248 1173 365 256 1174 323 249 1175 343 257 1176 325 249 1177 343 256 1178 323 252 1179 321 260 1180 322 253 1181 345 261 1182 328 253 1183 345 260 1184 322 265 1185 326 266 1186 332 257 1187 325 258 1188 348 257 1189 325 266 1190 332 261 1191 328 269 1192 329 262 1193 367 270 1194 334 262 1195 367 269 1196 329 219 1197 331 217 1198 370 266 1199 332 267 1200 351 266 1201 332 217 1202 370 275 1203 377 167 1204 221 168 1205 222 275 1206 377 168 1207 222 274 1208 376 166 1209 234 167 1210 221 277 1211 378 277 1212 378 167 1213 221 275 1214 377 272 1215 212 169 1216 211 166 1217 234 272 1218 212 166 1219 234 277 1220 378 278 1221 380 179 1222 257 273 1223 379 179 1224 257 278 1225 380 180 1226 258 283 1227 381 281 1228 382 157 1229 383 151 1230 237 152 1231 386 280 1232 384 151 1233 237 280 1234 384 284 1235 385 157 1236 388 163 1237 238 283 1238 387 163 1239 238 157 1240 388 158 1241 231 152 1242 252 177 1243 251 285 1244 389 152 1245 252 285 1246 389 280 1247 390 183 1248 263 285 1249 392 177 1250 264 285 1251 392 183 1252 263 286 1253 391 219 1254 396 291 1255 393 217 1256 395 217 1257 395 291 1258 393 290 1259 394 222 1260 369 293 1261 397 220 1262 399 220 1263 399 293 1264 397 292 1265 398 217 1266 395 290 1267 394 218 1268 401 218 1269 401 290 1270 394 294 1271 400 221 1272 405 296 1273 402 216 1274 404 216 1275 404 296 1276 402 295 1277 403 222 1278 369 226 1279 368 297 1280 406 222 1281 369 297 1282 406 293 1283 397 218 1284 401 296 1285 402 221 1286 405 296 1287 402 218 1288 401 294 1289 400 224 1290 362 225 1291 363 299 1292 407 224 1293 362 299 1294 407 298 1295 408 220 1296 399 291 1297 393 219 1298 396 291 1299 393 220 1300 399 292 1301 398 300 1302 409 223 1303 375 224 1304 362 224 1305 362 298 1306 408 300 1307 409 216 1308 404 295 1309 403 271 1310 411 271 1311 411 295 1312 403 301 1313 410 155 1314 220 276 1315 412 168 1316 222 155 1317 220 159 1318 413 276 1319 412 276 1320 412 159 1321 413 282 1322 414 151 1323 237 283 1324 387 163 1325 238 284 1326 385 283 1327 387 151 1328 237 276 1329 412 274 1330 415 168 1331 222 304 1332 417 302 1333 418 307 1334 416 307 1335 416 302 1336 418 303 1337 419 307 1338 416 305 1339 420 304 1340 417 305 1341 423 308 1342 421 306 1343 422 308 1344 421 305 1345 423 307 1346 424 302 1347 425 316 1348 426 303 1349 427 311 1350 428 314 1351 429 309 1352 430 312 1353 433 318 1354 431 317 1355 432 318 1356 431 312 1357 433 313 1358 434 310 1359 435 316 1360 426 302 1361 425 315 1362 436 314 1363 429 311 1364 437 311 1365 440 319 1366 441 321 1367 438 321 1368 438 315 1369 439 311 1370 440 321 1371 438 319 1372 441 320 1373 442 320 1374 445 306 1375 446 308 1376 443 320 1377 445 308 1378 443 321 1379 444 336 1380 448 332 1381 450 335 1382 447 332 1383 450 336 1384 448 331 1385 449 332 1386 450 334 1387 451 335 1388 447 334 1389 451 332 1390 450 333 1391 452 338 1392 455 329 1393 453 328 1394 454 329 1395 453 338 1396 455 339 1397 456 338 1398 455 328 1399 454 337 1400 458 328 1401 454 330 1402 457 337 1403 458 334 1404 451 325 1405 459 335 1406 447 325 1407 459 334 1408 451 327 1409 460 335 1410 447 325 1411 459 322 1412 461 335 1413 447 322 1414 461 336 1415 448 324 1416 462 338 1417 455 337 1418 458 324 1419 462 337 1420 458 323 1421 463 338 1422 455 324 1423 462 326 1424 464 338 1425 455 326 1426 464 339 1427 456</p></triangles>
      </mesh>
    </geometry>
  </library_geometries>
  <library_visual_scenes>
    <visual_scene id="01_01_doorway_robot_storage" name="01_01_doorway_robot_storage">
      <node name="polySurface662" id="polySurface662" sid="polySurface662"><matrix sid="matrix">1.000000 0.000000 0.000000 0.000000 0.000000 1.000000 0.000000 0.000000 0.000000 0.000000 1.000000 0.000000 0.000000 0.000000 0.000000 1.000000</matrix><instance_geometry url="#polySurface662-lib"><bind_material><technique_common><instance_material symbol="pplant" target="#pplant"/></technique_common></bind_material></instance_geometry><extra><technique profile="FCOLLADA"><visibility>1.000000</visibility></technique></extra></node>
      <extra><technique profile="MAX3D"><frame_rate>24.000000</frame_rate></technique><technique profile="FCOLLADA"><start_time>0.041667</start_time><end_time>2.000000</end_time></technique></extra>
    </visual_scene>
  </library_visual_scenes>
  <scene>
    <instance_visual_scene url="#01_01_doorway_robot_storage"></instance_visual_scene>
  </scene>
</COLLADA>
