<?xml version="1.0" encoding="utf-8"?>
<COLLADA xmlns="http://www.collada.org/2005/11/COLLADASchema" version="1.4.0">
  <asset>
    <contributor>
      <author></author>
      <authoring_tool>FBX COLLADA exporter</authoring_tool>
      <comments></comments>
    </contributor>
    <created>2014-02-05T00:43:10Z</created>
    <modified>2014-02-05T00:43:10Z</modified>
    <revision></revision>
    <title></title>
    <subject></subject>
    <keywords></keywords>
    <unit meter="1.000000"/>
    <up_axis>Y_UP</up_axis>
  </asset>
  <library_images>
    <image id="Map__1-image" name="Map__1">
      <init_from>file://C:\ABP Work Files\tech_wall_theta\tech_wall_theta_01\tech_wall_theta_01.tga</init_from>
    </image>
  </library_images>
  <library_materials>
    <material id="tech_wall_theta_01" name="tech_wall_theta_01">
      <instance_effect url="#tech_wall_theta_01-fx"/>
    </material>
  </library_materials>
  <library_effects>
    <effect id="tech_wall_theta_01-fx" name="tech_wall_theta_01">
      <profile_COMMON>
        <technique sid="standard">
          <phong>
            <emission>
              <color sid="emission">0.000000  0.000000 0.000000 1.000000</color>
            </emission>
            <ambient>
              <color sid="ambient">0.588235  0.588235 0.588235 1.000000</color>
            </ambient>
            <diffuse>
              <texture texture="Map__1-image" texcoord="CHANNEL0">
                <extra>
                  <technique profile="MAYA">
                    <wrapU sid="wrapU0">TRUE</wrapU>
                    <wrapV sid="wrapV0">TRUE</wrapV>
                    <blend_mode>ADD</blend_mode>
                  </technique>
                </extra>
              </texture>
            </diffuse>
            <specular>
              <color sid="specular">0.000000  0.000000 0.000000 1.000000</color>
            </specular>
            <shininess>
              <float sid="shininess">2.000000</float>
            </shininess>
            <reflective>
              <color sid="reflective">0.000000  0.000000 0.000000 1.000000</color>
            </reflective>
            <reflectivity>
              <float sid="reflectivity">1.000000</float>
            </reflectivity>
            <transparent>
              <color sid="transparent">1.000000  1.000000 1.000000 1.000000</color>
            </transparent>
            <transparency>
              <float sid="transparency">0.000000</float>
            </transparency>
          </phong>
        </technique>
      </profile_COMMON>
    </effect>
  </library_effects>
  <library_geometries>
    <geometry id="tech_wall_theta_01-lib" name="tech_wall_theta_01Mesh">
      <mesh>
        <source id="tech_wall_theta_01-lib-Position">
          <float_array id="tech_wall_theta_01-lib-Position-array" count="840">
-0.748121 -0.072299 -0.103962
0.748121 -0.072299 -0.103962
-0.748121 0.162979 -0.103962
0.748121 0.162979 -0.103962
-0.748121 -0.072299 -0.008109
0.748121 -0.072299 -0.008151
-0.748121 0.211912 0.043674
0.748121 0.211912 0.043674
-0.748121 0.045072 0.065674
0.748121 0.045072 0.065674
-0.748121 0.193629 0.065674
0.748121 0.193629 0.065674
-0.748121 0.211912 -0.061962
0.748121 0.211912 -0.061962
0.768121 -0.063988 -0.093962
0.768121 0.160319 -0.093962
0.768121 0.203602 -0.056812
0.768121 0.203602 0.039532
0.768121 0.190187 0.055674
0.768121 0.047157 0.055674
0.768121 -0.063988 -0.015939
-0.768121 0.160319 -0.093962
-0.768121 -0.063988 -0.093962
-0.768121 -0.063988 -0.015005
-0.768121 0.046599 0.055674
-0.768121 0.190187 0.055674
-0.768121 0.203602 0.039532
-0.768121 0.203602 -0.056812
-0.748121 0.045340 -0.103962
0.748121 0.045340 -0.103962
0.768121 0.048165 -0.093962
-0.768121 0.048165 -0.093962
0.315694 -0.277761 0.040757
0.431482 -0.392142 -0.005736
0.315694 -0.392142 -0.103349
0.431482 -0.392142 -0.103349
0.315694 0.480809 0.040757
0.431482 0.480809 0.040757
0.315694 0.480809 -0.103349
0.431482 0.480809 -0.103349
0.315694 -0.392142 -0.005736
0.431482 -0.277761 0.040757
0.456379 -0.362142 -0.009405
0.456379 -0.362142 -0.103300
0.456379 0.450809 -0.103300
0.456379 0.450809 0.031900
0.456379 -0.265335 0.031900
0.290797 -0.362142 -0.103300
0.290797 -0.362142 -0.009405
0.290797 -0.265335 0.031900
0.290797 0.450809 0.031900
0.290797 0.450809 -0.103300
0.332561 -0.368880 -0.103348
0.414615 -0.368880 -0.103348
0.332561 0.457547 -0.103348
0.414615 0.457547 -0.103348
0.432258 -0.340413 -0.103301
0.432258 0.429080 -0.103301
0.314918 -0.340413 -0.103301
0.314918 0.429080 -0.103301
0.332561 -0.368880 -0.139608
0.414615 -0.368880 -0.139608
0.332561 0.457547 -0.139608
0.414615 0.457547 -0.139608
0.432258 -0.340413 -0.139561
0.432258 0.429080 -0.139561
0.314918 -0.340413 -0.139561
0.314918 0.429080 -0.139561
0.431482 0.480809 0.008027
0.315694 0.480809 0.008027
0.456379 0.450809 0.003623
0.290797 0.450809 0.003623
-0.315694 -0.392142 -0.103349
-0.431482 -0.392142 -0.103349
-0.431482 -0.392142 -0.005736
-0.315694 -0.392142 -0.005736
-0.431482 0.480809 0.008027
-0.315694 0.480809 0.008027
-0.315694 0.480809 0.040757
-0.431482 0.480809 0.040757
-0.315694 -0.277761 0.040757
-0.431482 -0.277761 0.040757
-0.456379 0.450809 0.003623
-0.456379 0.450809 0.031900
-0.456379 -0.265335 0.031900
-0.456379 -0.362142 -0.009405
-0.290797 -0.362142 -0.103300
-0.290797 -0.362142 -0.009405
-0.290797 0.450809 0.003623
-0.290797 0.450809 -0.103300
-0.456379 -0.362142 -0.103300
-0.456379 0.450809 -0.103300
-0.431482 0.480809 -0.103349
-0.290797 -0.265335 0.031900
-0.290797 0.450809 0.031900
-0.332561 -0.368880 -0.103348
-0.414615 -0.368880 -0.103348
-0.315694 0.480809 -0.103349
-0.414615 0.457547 -0.103348
-0.332561 0.457547 -0.103348
-0.432258 -0.340413 -0.103301
-0.432258 0.429080 -0.103301
-0.314918 0.429080 -0.103301
-0.314918 -0.340413 -0.103301
-0.332561 -0.368880 -0.139608
-0.414615 -0.368880 -0.139608
-0.414615 0.457547 -0.139608
-0.332561 0.457547 -0.139608
-0.432258 -0.340413 -0.139561
-0.432258 0.429080 -0.139561
-0.314918 0.429080 -0.139561
-0.314918 -0.340413 -0.139561
-0.299655 -0.022882 0.048857
0.299655 -0.022882 0.048857
-0.299655 -0.022882 -0.018888
0.299655 -0.022882 -0.018888
-0.299655 0.035180 0.048857
0.299655 0.035180 0.048857
-0.299655 0.035180 -0.018888
0.299655 0.035180 -0.018888
-0.299655 -0.022882 0.038900
-0.299655 -0.022882 0.029355
-0.299655 -0.022882 0.019085
0.299655 -0.022882 0.019085
0.299655 -0.022882 0.029355
0.299655 -0.022882 0.038900
0.299655 0.035180 0.038900
0.299655 0.035180 0.029355
0.299655 0.035180 0.019085
-0.299655 0.035180 0.019085
-0.299655 0.035180 0.029355
-0.299655 0.035180 0.038900
-0.299655 -0.048237 -0.018888
0.299655 -0.048237 -0.018888
0.299655 -0.048237 0.019085
0.299655 -0.048237 0.029355
0.299655 -0.048237 0.038900
-0.299655 -0.048237 0.038900
-0.299655 -0.048237 0.029355
-0.299655 -0.048237 0.019085
0.299655 -0.073616 0.029355
-0.299655 -0.073616 0.029355
-0.299655 -0.073616 0.019085
-0.299655 -0.073616 -0.018888
0.299655 -0.073616 -0.018888
0.299655 -0.073616 0.019085
0.299655 -0.093687 0.019085
-0.299655 -0.093687 0.019085
-0.299655 -0.093687 -0.018888
0.299655 -0.093687 -0.018888
-0.086781 0.000743 0.064560
0.086781 -0.099451 0.027233
-0.086781 -0.099451 0.005140
0.086781 -0.099451 0.005140
-0.086781 0.082356 0.064560
0.086781 0.082356 0.064560
-0.086781 0.082356 0.005140
0.086781 0.082356 0.005140
-0.086781 -0.099451 0.027233
0.086781 0.000743 0.064560
-0.086781 0.306681 0.064560
0.086781 0.206487 0.027233
-0.086781 0.206487 0.005140
0.086781 0.206487 0.005140
-0.086781 0.388294 0.064560
0.086781 0.388294 0.064560
-0.086781 0.388294 0.005140
0.086781 0.388294 0.005140
-0.086781 0.206487 0.027233
0.086781 0.306681 0.064560
-0.748121 0.227623 -0.103962
0.748121 0.227623 -0.103962
-0.748121 0.449275 -0.103962
0.748121 0.449275 -0.103962
-0.748121 0.227623 -0.008109
0.748121 0.227623 -0.008151
-0.748121 0.498207 0.043674
0.748121 0.498207 0.043674
-0.748121 0.344993 0.065674
0.748121 0.344993 0.065674
-0.748121 0.479925 0.065674
0.748121 0.479925 0.065674
-0.748121 0.498208 -0.061962
0.748121 0.498208 -0.061962
0.768121 0.235933 -0.093962
0.768121 0.446614 -0.093962
0.768121 0.489897 -0.056812
0.768121 0.489897 0.039532
0.768121 0.476482 0.055674
0.768121 0.347078 0.055674
0.768121 0.235933 -0.015939
-0.768121 0.446614 -0.093962
-0.768121 0.235933 -0.093962
-0.768121 0.235933 -0.015005
-0.768121 0.346520 0.055674
-0.768121 0.476482 0.055674
-0.768121 0.489897 0.039532
-0.768121 0.489897 -0.056812
-0.748121 0.345262 -0.103962
0.748121 0.345262 -0.103962
0.768121 0.348087 -0.093962
-0.768121 0.348087 -0.093962
-0.419327 -0.154039 -0.085366
0.418286 -0.154039 -0.085366
-0.419327 0.476391 -0.085366
0.418286 0.476391 -0.085366
-0.419327 -0.154039 -0.168796
0.418286 -0.154039 -0.168796
-0.419327 0.476391 -0.168796
0.418286 0.476391 -0.168796
-0.299655 0.283056 0.048857
0.299655 0.283056 0.048857
-0.299655 0.283056 -0.018888
0.299655 0.283056 -0.018888
-0.299655 0.341118 0.048857
0.299655 0.341118 0.048857
-0.299655 0.341118 -0.018888
0.299655 0.341118 -0.018888
-0.299655 0.283056 0.038900
-0.299655 0.283056 0.029355
-0.299655 0.283056 0.019085
0.299655 0.283056 0.019085
0.299655 0.283056 0.029355
0.299655 0.283056 0.038900
0.299655 0.341118 0.038900
0.299655 0.341118 0.029355
0.299655 0.341118 0.019085
-0.299655 0.341118 0.019085
-0.299655 0.341118 0.029355
-0.299655 0.341118 0.038900
-0.299655 0.257701 -0.018888
0.299655 0.257701 -0.018888
0.299655 0.257701 0.019085
0.299655 0.257701 0.029355
0.299655 0.257701 0.038900
-0.299655 0.257701 0.038900
-0.299655 0.257701 0.029355
-0.299655 0.257701 0.019085
0.299655 0.232322 0.029355
-0.299655 0.232322 0.029355
-0.299655 0.232322 0.019085
-0.299655 0.232322 -0.018888
0.299655 0.232322 -0.018888
0.299655 0.232322 0.019085
0.299655 0.212251 0.019085
-0.299655 0.212251 0.019085
-0.299655 0.212251 -0.018888
0.299655 0.212251 -0.018888
-0.400195 0.162979 -0.103962
0.400195 0.162979 -0.103962
0.400195 -0.072299 -0.103962
-0.400195 -0.072299 -0.103962
-0.400195 0.045072 0.065674
0.400195 0.045072 0.065674
0.400195 0.193629 0.065674
-0.400195 0.193629 0.065674
-0.400195 -0.072299 -0.008119
0.400195 -0.072299 -0.008142
0.400195 0.211912 0.043674
-0.400195 0.211912 0.043674
-0.400195 0.211912 -0.061962
0.400195 0.211912 -0.061962
-0.400195 0.045340 -0.103962
0.400195 0.045340 -0.103962
-0.400195 0.449275 -0.103962
0.400195 0.449275 -0.103962
0.400195 0.227623 -0.103962
-0.400195 0.227623 -0.103962
-0.400195 0.344993 0.065674
0.400195 0.344993 0.065674
0.400195 0.479925 0.065674
-0.400195 0.479925 0.065674
-0.400195 0.227623 -0.008119
0.400195 0.227623 -0.008142
0.400195 0.498207 0.043674
-0.400195 0.498207 0.043674
-0.400195 0.498208 -0.061962
0.400195 0.498208 -0.061962
-0.400195 0.345262 -0.103962
0.400195 0.345262 -0.103962
</float_array>
          <technique_common>
            <accessor source="#tech_wall_theta_01-lib-Position-array" count="280" stride="3">
              <param name="X" type="float"/>
              <param name="Y" type="float"/>
              <param name="Z" type="float"/>
            </accessor>
          </technique_common>
        </source>
        <source id="tech_wall_theta_01-lib-Normal0">
          <float_array id="tech_wall_theta_01-lib-Normal0-array" count="4266">
0.815985 -0.164530 0.554164
0.786064 -0.554572 0.273043
0.784758 -0.453530 -0.422451
0.784758 -0.453530 -0.422451
0.850651 0.000000 -0.525731
0.815985 -0.164530 0.554164
-0.794224 0.267204 0.545720
-0.789940 0.579187 0.201336
-0.784593 0.567804 -0.249022
-0.784593 0.567804 -0.249022
-0.802841 0.213335 -0.556718
-0.794224 0.267204 0.545720
0.000006 -0.276975 0.960877
0.000006 -0.277023 0.960863
0.000000 0.424769 0.905302
0.000000 0.424769 0.905302
0.000000 0.424769 0.905302
0.000006 -0.276975 0.960877
0.000000 -0.894427 -0.447214
0.000000 -0.894427 -0.447214
0.000007 -0.875318 0.483548
0.000007 -0.875318 0.483548
0.000007 -0.875294 0.483591
0.000000 -0.894427 -0.447214
0.000000 0.908654 -0.417549
0.000000 0.908654 -0.417549
0.000000 0.940502 0.339789
0.000000 0.940502 0.339789
0.000000 0.940502 0.339789
0.000000 0.908654 -0.417549
0.000007 -0.875294 0.483591
0.000007 -0.875318 0.483548
0.000006 -0.277023 0.960863
0.000006 -0.277023 0.960863
0.000006 -0.276975 0.960877
0.000007 -0.875294 0.483591
0.000000 0.940502 0.339789
0.000000 0.940502 0.339789
0.000000 0.424769 0.905302
0.000000 0.424769 0.905302
0.000000 0.424769 0.905302
0.000000 0.940502 0.339789
0.000000 0.908654 -0.417549
0.000000 0.908654 -0.417549
0.000000 0.459530 -0.888162
0.000000 0.459530 -0.888162
0.000000 0.459531 -0.888162
0.000000 0.908654 -0.417549
0.784758 -0.453530 -0.422451
0.253933 -0.679303 -0.688524
0.229753 0.000000 -0.973249
0.229753 0.000000 -0.973249
0.850651 0.000000 -0.525731
0.784758 -0.453530 -0.422451
0.784593 0.567804 -0.249022
0.802841 0.213335 -0.556718
0.224595 0.334970 -0.915069
0.224595 0.334970 -0.915069
0.212167 0.885700 -0.412942
0.784593 0.567804 -0.249022
0.784593 0.567804 -0.249022
0.212167 0.885700 -0.412942
0.205434 0.919029 0.336426
0.205434 0.919029 0.336426
0.789940 0.579187 0.201336
0.784593 0.567804 -0.249022
0.794224 0.267204 0.545720
0.789940 0.579187 0.201336
0.205434 0.919029 0.336426
0.205434 0.919029 0.336426
0.226029 0.409327 0.883947
0.794224 0.267204 0.545720
0.794224 0.267204 0.545720
0.226029 0.409327 0.883947
0.231474 -0.267476 0.935348
0.231474 -0.267476 0.935348
0.815985 -0.164530 0.554164
0.794224 0.267204 0.545720
0.815985 -0.164530 0.554164
0.231474 -0.267476 0.935348
0.226371 -0.845953 0.482824
0.226371 -0.845953 0.482824
0.786064 -0.554572 0.273043
0.815985 -0.164530 0.554164
0.786064 -0.554572 0.273043
0.226371 -0.845953 0.482824
0.253933 -0.679303 -0.688524
0.253933 -0.679303 -0.688524
0.784758 -0.453530 -0.422451
0.786064 -0.554572 0.273043
-0.850651 0.000000 -0.525731
-0.802841 0.213335 -0.556718
-0.224595 0.334970 -0.915069
-0.224595 0.334970 -0.915069
-0.229753 0.000000 -0.973249
-0.850651 0.000000 -0.525731
-0.782780 -0.554670 0.282127
-0.784758 -0.453530 -0.422451
-0.253933 -0.679303 -0.688524
-0.253933 -0.679303 -0.688524
-0.221042 -0.848752 0.480376
-0.782780 -0.554670 0.282127
-0.812709 -0.168282 0.557839
-0.782780 -0.554670 0.282127
-0.221042 -0.848752 0.480376
-0.221042 -0.848752 0.480376
-0.226655 -0.266009 0.936945
-0.812709 -0.168282 0.557839
-0.794224 0.267204 0.545720
-0.812709 -0.168282 0.557839
-0.226655 -0.266009 0.936945
-0.226655 -0.266009 0.936945
-0.226029 0.409327 0.883947
-0.794224 0.267204 0.545720
-0.789940 0.579187 0.201336
-0.794224 0.267204 0.545720
-0.226029 0.409327 0.883947
-0.226029 0.409327 0.883947
-0.205434 0.919029 0.336426
-0.789940 0.579187 0.201336
-0.784593 0.567804 -0.249022
-0.789940 0.579187 0.201336
-0.205434 0.919029 0.336426
-0.205434 0.919029 0.336426
-0.212167 0.885700 -0.412942
-0.784593 0.567804 -0.249022
-0.802841 0.213335 -0.556718
-0.784593 0.567804 -0.249022
-0.212167 0.885700 -0.412942
-0.212167 0.885700 -0.412942
-0.224595 0.334970 -0.915069
-0.802841 0.213335 -0.556718
0.789940 0.579187 0.201336
0.794224 0.267204 0.545720
0.802841 0.213335 -0.556718
0.802841 0.213335 -0.556718
0.784593 0.567804 -0.249022
0.789940 0.579187 0.201336
0.850651 0.000000 -0.525731
0.229753 0.000000 -0.973249
0.224595 0.334970 -0.915069
0.224595 0.334970 -0.915069
0.802841 0.213335 -0.556718
0.850651 0.000000 -0.525731
-0.784758 -0.453530 -0.422451
-0.850651 0.000000 -0.525731
-0.229753 0.000000 -0.973249
-0.229753 0.000000 -0.973249
-0.253933 -0.679303 -0.688524
-0.784758 -0.453530 -0.422451
0.794224 0.267204 0.545720
0.815985 -0.164530 0.554164
0.850651 0.000000 -0.525731
0.850651 0.000000 -0.525731
0.802841 0.213335 -0.556718
0.794224 0.267204 0.545720
-0.782780 -0.554670 0.282127
-0.812709 -0.168282 0.557839
-0.850651 0.000000 -0.525731
-0.850651 0.000000 -0.525731
-0.784758 -0.453530 -0.422451
-0.782780 -0.554670 0.282127
-0.812709 -0.168282 0.557839
-0.794224 0.267204 0.545720
-0.802841 0.213335 -0.556718
-0.802841 0.213335 -0.556718
-0.850651 0.000000 -0.525731
-0.812709 -0.168282 0.557839
-0.332800 -0.707887 -0.623010
0.332800 -0.707887 -0.623010
0.360062 -0.790109 0.496068
0.360062 -0.790109 0.496068
-0.360062 -0.790109 0.496068
-0.332800 -0.707887 -0.623010
0.425077 0.905157 0.000000
-0.425077 0.905157 0.000000
-0.360083 0.684543 0.633830
-0.360083 0.684543 0.633830
0.360083 0.684543 0.633830
0.425077 0.905157 0.000000
0.360083 0.684543 0.633830
-0.360083 0.684543 0.633830
-0.219245 -0.207005 0.953457
-0.219245 -0.207005 0.953457
0.219245 -0.207005 0.953457
0.360083 0.684543 0.633830
0.940618 0.339468 0.000000
0.827660 0.252055 0.501446
0.806058 -0.086468 0.585487
0.806058 -0.086468 0.585487
0.859079 -0.359872 0.363972
0.940618 0.339468 0.000000
-0.724603 -0.261087 -0.637796
-0.859079 -0.359872 0.363972
-0.940618 0.339468 0.000000
-0.940618 0.339468 0.000000
-0.724603 0.261087 -0.637796
-0.724603 -0.261087 -0.637796
0.219245 -0.207005 0.953457
-0.219245 -0.207005 0.953457
-0.360062 -0.790109 0.496068
-0.360062 -0.790109 0.496068
0.360062 -0.790109 0.496068
0.219245 -0.207005 0.953457
0.859079 -0.359872 0.363972
0.360062 -0.790109 0.496068
0.332800 -0.707887 -0.623010
0.332800 -0.707887 -0.623010
0.724603 -0.261087 -0.637796
0.859079 -0.359872 0.363972
0.724603 0.261087 -0.637796
0.332800 0.707887 -0.623010
0.425077 0.905157 0.000000
0.425077 0.905157 0.000000
0.940618 0.339468 0.000000
0.724603 0.261087 -0.637796
0.806058 -0.086468 0.585487
0.827660 0.252055 0.501446
0.360083 0.684543 0.633830
0.360083 0.684543 0.633830
0.219245 -0.207005 0.953457
0.806058 -0.086468 0.585487
0.859079 -0.359872 0.363972
0.806058 -0.086468 0.585487
0.219245 -0.207005 0.953457
0.219245 -0.207005 0.953457
0.360062 -0.790109 0.496068
0.859079 -0.359872 0.363972
-0.724603 -0.261087 -0.637796
-0.332800 -0.707887 -0.623010
-0.360062 -0.790109 0.496068
-0.360062 -0.790109 0.496068
-0.859079 -0.359872 0.363972
-0.724603 -0.261087 -0.637796
-0.806058 -0.086468 0.585487
-0.859079 -0.359872 0.363972
-0.360062 -0.790109 0.496068
-0.360062 -0.790109 0.496068
-0.219245 -0.207005 0.953457
-0.806058 -0.086468 0.585487
-0.806058 -0.086468 0.585487
-0.219245 -0.207005 0.953457
-0.360083 0.684543 0.633830
-0.360083 0.684543 0.633830
-0.827660 0.252055 0.501446
-0.806058 -0.086468 0.585487
-0.940618 0.339468 0.000000
-0.827660 0.252055 0.501446
-0.360083 0.684543 0.633830
-0.360083 0.684543 0.633830
-0.425077 0.905157 0.000000
-0.940618 0.339468 0.000000
0.332800 -0.707887 -0.623010
-0.332800 -0.707887 -0.623010
-0.268617 -0.481137 -0.834477
-0.268617 -0.481137 -0.834477
0.268617 -0.481137 -0.834477
0.332800 -0.707887 -0.623010
-0.332800 0.707887 -0.623010
0.332800 0.707887 -0.623010
0.268617 0.481138 -0.834477
0.268617 0.481138 -0.834477
-0.268617 0.481138 -0.834477
-0.332800 0.707887 -0.623010
0.724603 -0.261087 -0.637796
0.608766 -0.172914 -0.774277
0.608766 0.172914 -0.774277
0.608766 0.172914 -0.774277
0.724603 0.261087 -0.637796
0.724603 -0.261087 -0.637796
0.332800 -0.707887 -0.623010
0.268617 -0.481137 -0.834477
0.608766 -0.172914 -0.774277
0.608766 -0.172914 -0.774277
0.724603 -0.261087 -0.637796
0.332800 -0.707887 -0.623010
0.724603 0.261087 -0.637796
0.608766 0.172914 -0.774277
0.268617 0.481138 -0.834477
0.268617 0.481138 -0.834477
0.332800 0.707887 -0.623010
0.724603 0.261087 -0.637796
-0.724603 0.261087 -0.637796
-0.608766 0.172914 -0.774277
-0.608766 -0.172914 -0.774277
-0.608766 -0.172914 -0.774277
-0.724603 -0.261087 -0.637796
-0.724603 0.261087 -0.637796
-0.724603 -0.261087 -0.637796
-0.608766 -0.172914 -0.774277
-0.268617 -0.481137 -0.834477
-0.268617 -0.481137 -0.834477
-0.332800 -0.707887 -0.623010
-0.724603 -0.261087 -0.637796
-0.332800 0.707887 -0.623010
-0.268617 0.481138 -0.834477
-0.608766 0.172914 -0.774277
-0.608766 0.172914 -0.774277
-0.724603 0.261087 -0.637796
-0.332800 0.707887 -0.623010
-0.384612 -0.690265 -0.612868
0.384612 -0.690265 -0.612868
0.268617 -0.481137 -0.834477
0.268617 -0.481137 -0.834477
-0.268617 -0.481137 -0.834477
-0.384612 -0.690265 -0.612868
0.384611 0.690265 -0.612869
-0.384611 0.690265 -0.612869
-0.268617 0.481138 -0.834477
-0.268617 0.481138 -0.834477
0.268617 0.481138 -0.834477
0.384611 0.690265 -0.612869
0.730770 -0.207777 -0.650234
0.730770 0.207777 -0.650234
0.608766 0.172914 -0.774277
0.608766 0.172914 -0.774277
0.608766 -0.172914 -0.774277
0.730770 -0.207777 -0.650234
0.384612 -0.690265 -0.612868
0.730770 -0.207777 -0.650234
0.608766 -0.172914 -0.774277
0.608766 -0.172914 -0.774277
0.268617 -0.481137 -0.834477
0.384612 -0.690265 -0.612868
0.730770 0.207777 -0.650234
0.384611 0.690265 -0.612869
0.268617 0.481138 -0.834477
0.268617 0.481138 -0.834477
0.608766 0.172914 -0.774277
0.730770 0.207777 -0.650234
-0.730770 0.207777 -0.650234
-0.730770 -0.207777 -0.650234
-0.608766 -0.172914 -0.774277
-0.608766 -0.172914 -0.774277
-0.608766 0.172914 -0.774277
-0.730770 0.207777 -0.650234
-0.730770 -0.207777 -0.650234
-0.384612 -0.690265 -0.612868
-0.268617 -0.481137 -0.834477
-0.268617 -0.481137 -0.834477
-0.608766 -0.172914 -0.774277
-0.730770 -0.207777 -0.650234
-0.384611 0.690265 -0.612869
-0.730770 0.207777 -0.650234
-0.608766 0.172914 -0.774277
-0.608766 0.172914 -0.774277
-0.268617 0.481138 -0.834477
-0.384611 0.690265 -0.612869
-0.730770 -0.207777 -0.650234
0.730770 -0.207777 -0.650234
0.384612 -0.690265 -0.612868
0.384612 -0.690265 -0.612868
-0.384612 -0.690265 -0.612868
-0.730770 -0.207777 -0.650234
-0.384611 0.690265 -0.612869
0.384611 0.690265 -0.612869
0.730770 0.207777 -0.650234
0.730770 0.207777 -0.650234
-0.730770 0.207777 -0.650234
-0.384611 0.690265 -0.612869
-0.730770 0.207777 -0.650234
0.730770 0.207777 -0.650234
0.730770 -0.207777 -0.650234
0.730770 -0.207777 -0.650234
-0.730770 -0.207777 -0.650234
-0.730770 0.207777 -0.650234
0.332800 0.707887 -0.623010
-0.332800 0.707887 -0.623010
-0.425077 0.905157 0.000000
-0.425077 0.905157 0.000000
0.425077 0.905157 0.000000
0.332800 0.707887 -0.623010
0.827660 0.252055 0.501446
0.940618 0.339468 0.000000
0.425077 0.905157 0.000000
0.425077 0.905157 0.000000
0.360083 0.684543 0.633830
0.827660 0.252055 0.501446
-0.940618 0.339468 0.000000
-0.425077 0.905157 0.000000
-0.332800 0.707887 -0.623010
-0.332800 0.707887 -0.623010
-0.724603 0.261087 -0.637796
-0.940618 0.339468 0.000000
0.859079 -0.359872 0.363972
0.724603 -0.261087 -0.637796
0.724603 0.261087 -0.637796
0.724603 0.261087 -0.637796
0.940618 0.339468 0.000000
0.859079 -0.359872 0.363972
-0.827660 0.252055 0.501446
-0.940618 0.339468 0.000000
-0.859079 -0.359872 0.363972
-0.859079 -0.359872 0.363972
-0.806058 -0.086468 0.585487
-0.827660 0.252055 0.501446
0.332800 -0.707887 -0.623010
0.360062 -0.790109 0.496068
-0.360062 -0.790109 0.496068
-0.360062 -0.790109 0.496068
-0.332800 -0.707887 -0.623010
0.332800 -0.707887 -0.623010
-0.425077 0.905157 0.000000
-0.360083 0.684543 0.633830
0.360083 0.684543 0.633830
0.360083 0.684543 0.633830
0.425077 0.905157 0.000000
-0.425077 0.905157 0.000000
-0.360083 0.684543 0.633830
-0.219245 -0.207004 0.953457
0.219245 -0.207005 0.953457
0.219245 -0.207005 0.953457
0.360083 0.684543 0.633830
-0.360083 0.684543 0.633830
-0.940618 0.339468 0.000000
-0.859079 -0.359872 0.363972
-0.806058 -0.086468 0.585487
-0.806058 -0.086468 0.585487
-0.827660 0.252055 0.501446
-0.940618 0.339468 0.000000
0.724603 -0.261087 -0.637796
0.724603 0.261087 -0.637796
0.940618 0.339468 0.000000
0.940618 0.339468 0.000000
0.859079 -0.359872 0.363972
0.724603 -0.261087 -0.637796
-0.219245 -0.207004 0.953457
-0.360062 -0.790109 0.496068
0.360062 -0.790109 0.496068
0.360062 -0.790109 0.496068
0.219245 -0.207005 0.953457
-0.219245 -0.207004 0.953457
-0.859079 -0.359872 0.363972
-0.724603 -0.261087 -0.637796
-0.332800 -0.707887 -0.623010
-0.332800 -0.707887 -0.623010
-0.360062 -0.790109 0.496068
-0.859079 -0.359872 0.363972
-0.724603 0.261087 -0.637796
-0.940618 0.339468 0.000000
-0.425077 0.905157 0.000000
-0.425077 0.905157 0.000000
-0.332800 0.707887 -0.623010
-0.724603 0.261087 -0.637796
-0.806058 -0.086468 0.585487
-0.219245 -0.207004 0.953457
-0.360083 0.684543 0.633830
-0.360083 0.684543 0.633830
-0.827660 0.252055 0.501446
-0.806058 -0.086468 0.585487
-0.859079 -0.359872 0.363972
-0.360062 -0.790109 0.496068
-0.219245 -0.207004 0.953457
-0.219245 -0.207004 0.953457
-0.806058 -0.086468 0.585487
-0.859079 -0.359872 0.363972
0.724603 -0.261087 -0.637796
0.859079 -0.359872 0.363972
0.360062 -0.790109 0.496068
0.360062 -0.790109 0.496068
0.332800 -0.707887 -0.623010
0.724603 -0.261087 -0.637796
0.806058 -0.086468 0.585487
0.219245 -0.207005 0.953457
0.360062 -0.790109 0.496068
0.360062 -0.790109 0.496068
0.859079 -0.359872 0.363972
0.806058 -0.086468 0.585487
0.806058 -0.086468 0.585487
0.827660 0.252055 0.501446
0.360083 0.684543 0.633830
0.360083 0.684543 0.633830
0.219245 -0.207005 0.953457
0.806058 -0.086468 0.585487
0.940618 0.339468 0.000000
0.425077 0.905157 0.000000
0.360083 0.684543 0.633830
0.360083 0.684543 0.633830
0.827660 0.252055 0.501446
0.940618 0.339468 0.000000
-0.332800 -0.707887 -0.623010
-0.268617 -0.481138 -0.834477
0.268617 -0.481138 -0.834477
0.268617 -0.481138 -0.834477
0.332800 -0.707887 -0.623010
-0.332800 -0.707887 -0.623010
0.332800 0.707887 -0.623010
0.268617 0.481138 -0.834477
-0.268617 0.481138 -0.834477
-0.268617 0.481138 -0.834477
-0.332800 0.707887 -0.623010
0.332800 0.707887 -0.623010
-0.724603 -0.261087 -0.637796
-0.724603 0.261087 -0.637796
-0.608766 0.172914 -0.774277
-0.608766 0.172914 -0.774277
-0.608766 -0.172914 -0.774277
-0.724603 -0.261087 -0.637796
-0.332800 -0.707887 -0.623010
-0.724603 -0.261087 -0.637796
-0.608766 -0.172914 -0.774277
-0.608766 -0.172914 -0.774277
-0.268617 -0.481138 -0.834477
-0.332800 -0.707887 -0.623010
-0.724603 0.261087 -0.637796
-0.332800 0.707887 -0.623010
-0.268617 0.481138 -0.834477
-0.268617 0.481138 -0.834477
-0.608766 0.172914 -0.774277
-0.724603 0.261087 -0.637796
0.724603 0.261087 -0.637796
0.724603 -0.261087 -0.637796
0.608766 -0.172914 -0.774277
0.608766 -0.172914 -0.774277
0.608766 0.172914 -0.774277
0.724603 0.261087 -0.637796
0.724603 -0.261087 -0.637796
0.332800 -0.707887 -0.623010
0.268617 -0.481138 -0.834477
0.268617 -0.481138 -0.834477
0.608766 -0.172914 -0.774277
0.724603 -0.261087 -0.637796
0.332800 0.707887 -0.623010
0.724603 0.261087 -0.637796
0.608766 0.172914 -0.774277
0.608766 0.172914 -0.774277
0.268617 0.481138 -0.834477
0.332800 0.707887 -0.623010
0.384611 -0.690265 -0.612869
0.268617 -0.481138 -0.834477
-0.268617 -0.481138 -0.834477
-0.268617 -0.481138 -0.834477
-0.384611 -0.690265 -0.612869
0.384611 -0.690265 -0.612869
-0.384611 0.690265 -0.612869
-0.268617 0.481138 -0.834477
0.268617 0.481138 -0.834477
0.268617 0.481138 -0.834477
0.384611 0.690265 -0.612869
-0.384611 0.690265 -0.612869
-0.730770 -0.207777 -0.650234
-0.608766 -0.172914 -0.774277
-0.608766 0.172914 -0.774277
-0.608766 0.172914 -0.774277
-0.730770 0.207778 -0.650234
-0.730770 -0.207777 -0.650234
-0.384611 -0.690265 -0.612869
-0.268617 -0.481138 -0.834477
-0.608766 -0.172914 -0.774277
-0.608766 -0.172914 -0.774277
-0.730770 -0.207777 -0.650234
-0.384611 -0.690265 -0.612869
-0.730770 0.207778 -0.650234
-0.608766 0.172914 -0.774277
-0.268617 0.481138 -0.834477
-0.268617 0.481138 -0.834477
-0.384611 0.690265 -0.612869
-0.730770 0.207778 -0.650234
0.730770 0.207778 -0.650234
0.608766 0.172914 -0.774277
0.608766 -0.172914 -0.774277
0.608766 -0.172914 -0.774277
0.730770 -0.207777 -0.650234
0.730770 0.207778 -0.650234
0.730770 -0.207777 -0.650234
0.608766 -0.172914 -0.774277
0.268617 -0.481138 -0.834477
0.268617 -0.481138 -0.834477
0.384611 -0.690265 -0.612869
0.730770 -0.207777 -0.650234
0.384611 0.690265 -0.612869
0.268617 0.481138 -0.834477
0.608766 0.172914 -0.774277
0.608766 0.172914 -0.774277
0.730770 0.207778 -0.650234
0.384611 0.690265 -0.612869
0.730770 -0.207777 -0.650234
0.384611 -0.690265 -0.612869
-0.384611 -0.690265 -0.612869
-0.384611 -0.690265 -0.612869
-0.730770 -0.207777 -0.650234
0.730770 -0.207777 -0.650234
0.384611 0.690265 -0.612869
0.730770 0.207778 -0.650234
-0.730770 0.207778 -0.650234
-0.730770 0.207778 -0.650234
-0.384611 0.690265 -0.612869
0.384611 0.690265 -0.612869
0.730770 0.207778 -0.650234
0.730770 -0.207777 -0.650234
-0.730770 -0.207777 -0.650234
-0.730770 -0.207777 -0.650234
-0.730770 0.207778 -0.650234
0.730770 0.207778 -0.650234
-0.332800 0.707887 -0.623010
-0.425077 0.905157 0.000000
0.425077 0.905157 0.000000
0.425077 0.905157 0.000000
0.332800 0.707887 -0.623010
-0.332800 0.707887 -0.623010
-0.827660 0.252055 0.501446
-0.360083 0.684543 0.633830
-0.425077 0.905157 0.000000
-0.425077 0.905157 0.000000
-0.940618 0.339468 0.000000
-0.827660 0.252055 0.501446
0.940618 0.339468 0.000000
0.724603 0.261087 -0.637796
0.332800 0.707887 -0.623010
0.332800 0.707887 -0.623010
0.425077 0.905157 0.000000
0.940618 0.339468 0.000000
-0.859079 -0.359872 0.363972
-0.940618 0.339468 0.000000
-0.724603 0.261087 -0.637796
-0.724603 0.261087 -0.637796
-0.724603 -0.261087 -0.637796
-0.859079 -0.359872 0.363972
0.827660 0.252055 0.501446
0.806058 -0.086468 0.585487
0.859079 -0.359872 0.363972
0.859079 -0.359872 0.363972
0.940618 0.339468 0.000000
0.827660 0.252055 0.501446
-0.577350 -0.577350 0.577350
-0.904534 -0.301511 0.301511
0.904534 -0.301511 0.301511
0.904534 -0.301511 0.301511
0.577350 -0.577350 0.577350
-0.577350 -0.577350 0.577350
-0.707107 0.000000 0.707107
-0.577350 -0.577350 0.577350
0.577350 -0.577350 0.577350
0.577350 -0.577350 0.577350
0.707107 0.000000 0.707107
-0.707107 0.000000 0.707107
1.000000 0.000000 0.000000
1.000000 0.000000 0.000000
1.000000 0.000000 0.000000
1.000000 0.000000 0.000000
1.000000 0.000000 0.000000
1.000000 0.000000 0.000000
-1.000000 0.000000 0.000000
-1.000000 0.000000 0.000000
-1.000000 0.000000 0.000000
-1.000000 0.000000 0.000000
-1.000000 0.000000 0.000000
-1.000000 0.000000 0.000000
-0.577350 -0.577350 0.577350
-0.707107 -0.707107 0.000000
0.707107 -0.707107 0.000000
0.707107 -0.707107 0.000000
0.577350 -0.577350 0.577350
-0.577350 -0.577350 0.577350
0.904534 -0.301511 0.301511
0.577350 -0.577350 0.577350
-0.577350 -0.577350 0.577350
-0.577350 -0.577350 0.577350
-0.904534 -0.301511 0.301511
0.904534 -0.301511 0.301511
0.904534 -0.301511 0.301511
0.577350 -0.577350 0.577350
-0.577350 -0.577350 0.577350
-0.577350 -0.577350 0.577350
-0.904534 -0.301511 0.301511
0.904534 -0.301511 0.301511
1.000000 0.000000 0.000000
1.000000 0.000000 0.000000
1.000000 0.000000 0.000000
1.000000 0.000000 0.000000
1.000000 0.000000 0.000000
1.000000 0.000000 0.000000
0.577350 -0.577350 0.577350
0.904534 -0.301511 0.301511
1.000000 0.000000 0.000000
1.000000 0.000000 0.000000
0.707107 0.000000 0.707107
0.577350 -0.577350 0.577350
0.904534 -0.301511 0.301511
1.000000 0.000000 0.000000
1.000000 0.000000 0.000000
1.000000 0.000000 0.000000
1.000000 0.000000 0.000000
0.904534 -0.301511 0.301511
-0.707107 0.000000 0.707107
-1.000000 0.000000 0.000000
-0.904534 -0.301511 0.301511
-0.904534 -0.301511 0.301511
-0.577350 -0.577350 0.577350
-0.707107 0.000000 0.707107
-1.000000 0.000000 0.000000
-1.000000 0.000000 0.000000
-1.000000 0.000000 0.000000
-1.000000 0.000000 0.000000
-0.904534 -0.301511 0.301511
-1.000000 0.000000 0.000000
-1.000000 0.000000 0.000000
-1.000000 0.000000 0.000000
-1.000000 0.000000 0.000000
-1.000000 0.000000 0.000000
-1.000000 0.000000 0.000000
-1.000000 0.000000 0.000000
1.000000 0.000000 0.000000
1.000000 0.000000 0.000000
1.000000 0.000000 0.000000
1.000000 0.000000 0.000000
1.000000 0.000000 0.000000
1.000000 0.000000 0.000000
0.904534 -0.301511 0.301511
1.000000 0.000000 0.000000
1.000000 0.000000 0.000000
1.000000 0.000000 0.000000
1.000000 0.000000 0.000000
0.904534 -0.301511 0.301511
0.577350 -0.577350 0.577350
0.904534 -0.301511 0.301511
1.000000 0.000000 0.000000
1.000000 0.000000 0.000000
0.904534 -0.301511 0.301511
0.577350 -0.577350 0.577350
0.577350 -0.577350 0.577350
0.904534 -0.301511 0.301511
-0.904534 -0.301511 0.301511
-0.904534 -0.301511 0.301511
-0.577350 -0.577350 0.577350
0.577350 -0.577350 0.577350
-0.904534 -0.301511 0.301511
-0.577350 -0.577350 0.577350
-0.904534 -0.301511 0.301511
-0.904534 -0.301511 0.301511
-1.000000 0.000000 0.000000
-0.904534 -0.301511 0.301511
-1.000000 0.000000 0.000000
-0.904534 -0.301511 0.301511
-1.000000 0.000000 0.000000
-1.000000 0.000000 0.000000
-1.000000 0.000000 0.000000
-1.000000 0.000000 0.000000
-1.000000 0.000000 0.000000
-1.000000 0.000000 0.000000
-1.000000 0.000000 0.000000
-1.000000 0.000000 0.000000
-1.000000 0.000000 0.000000
-1.000000 0.000000 0.000000
0.577350 -0.577350 0.577350
0.904534 -0.301511 0.301511
-0.904534 -0.301511 0.301511
-0.904534 -0.301511 0.301511
-0.577350 -0.577350 0.577350
0.577350 -0.577350 0.577350
-0.904534 -0.301511 0.301511
-0.577350 -0.577350 0.577350
-0.904534 -0.301511 0.301511
-0.904534 -0.301511 0.301511
-1.000000 0.000000 0.000000
-0.904534 -0.301511 0.301511
-1.000000 0.000000 0.000000
-0.904534 -0.301511 0.301511
-1.000000 0.000000 0.000000
-1.000000 0.000000 0.000000
-1.000000 0.000000 0.000000
-1.000000 0.000000 0.000000
0.904534 -0.301511 0.301511
1.000000 0.000000 0.000000
1.000000 0.000000 0.000000
1.000000 0.000000 0.000000
1.000000 0.000000 0.000000
0.904534 -0.301511 0.301511
0.577350 -0.577350 0.577350
0.904534 -0.301511 0.301511
1.000000 0.000000 0.000000
1.000000 0.000000 0.000000
0.904534 -0.301511 0.301511
0.577350 -0.577350 0.577350
0.577350 -0.577350 0.577350
0.904534 -0.301511 0.301511
-0.904534 -0.301511 0.301511
-0.904534 -0.301511 0.301511
-0.577350 -0.577350 0.577350
0.577350 -0.577350 0.577350
-0.707107 -0.707107 0.000000
-0.577350 -0.577350 0.577350
-0.904534 -0.301511 0.301511
-0.904534 -0.301511 0.301511
-1.000000 0.000000 0.000000
-0.707107 -0.707107 0.000000
0.577350 -0.577350 0.577350
0.707107 -0.707107 0.000000
1.000000 0.000000 0.000000
1.000000 0.000000 0.000000
0.904534 -0.301511 0.301511
0.577350 -0.577350 0.577350
0.707107 0.000000 0.707107
-0.707107 0.000000 0.707107
-0.669280 -0.131784 0.731230
-0.669280 -0.131784 0.731230
0.669280 -0.131784 0.731230
0.707107 0.000000 0.707107
-0.707107 -0.707107 0.000000
0.707107 -0.707107 0.000000
0.598457 -0.657998 0.457043
0.598457 -0.657998 0.457043
-0.598457 -0.657998 0.457043
-0.707107 -0.707107 0.000000
0.669280 -0.131784 0.731230
-0.669280 -0.131784 0.731230
-0.598457 -0.657998 0.457043
-0.598457 -0.657998 0.457043
0.598457 -0.657998 0.457043
0.669280 -0.131784 0.731230
0.707107 0.000000 0.707107
0.669280 -0.131784 0.731230
0.598457 -0.657998 0.457043
0.598457 -0.657998 0.457043
0.707107 -0.707107 0.000000
0.707107 0.000000 0.707107
0.707107 0.000000 0.707107
0.707107 -0.707107 0.000000
1.000000 0.000000 0.000000
-1.000000 0.000000 0.000000
-0.707107 -0.707107 0.000000
-0.598457 -0.657998 0.457043
-0.598457 -0.657998 0.457043
-0.669280 -0.131784 0.731230
-1.000000 0.000000 0.000000
-1.000000 0.000000 0.000000
-0.669280 -0.131784 0.731230
-0.707107 0.000000 0.707107
0.707107 0.000000 0.707107
-0.707107 0.000000 0.707107
-0.669280 -0.131784 0.731230
-0.669280 -0.131784 0.731230
0.669280 -0.131784 0.731230
0.707107 0.000000 0.707107
-0.707107 -0.707107 0.000000
0.707107 -0.707107 0.000000
0.598457 -0.657997 0.457043
0.598457 -0.657997 0.457043
-0.598457 -0.657997 0.457043
-0.707107 -0.707107 0.000000
0.669280 -0.131784 0.731230
-0.669280 -0.131784 0.731230
-0.598457 -0.657997 0.457043
-0.598457 -0.657997 0.457043
0.598457 -0.657997 0.457043
0.669280 -0.131784 0.731230
0.707107 0.000000 0.707107
0.669280 -0.131784 0.731230
0.598457 -0.657997 0.457043
0.598457 -0.657997 0.457043
0.707107 -0.707107 0.000000
0.707107 0.000000 0.707107
0.707107 0.000000 0.707107
0.707107 -0.707107 0.000000
1.000000 0.000000 0.000000
-1.000000 0.000000 0.000000
-0.707107 -0.707107 0.000000
-0.598457 -0.657997 0.457043
-0.598457 -0.657997 0.457043
-0.669280 -0.131784 0.731230
-1.000000 0.000000 0.000000
-1.000000 0.000000 0.000000
-0.669280 -0.131784 0.731230
-0.707107 0.000000 0.707107
0.815985 -0.164530 0.554164
0.786064 -0.554572 0.273043
0.784758 -0.453530 -0.422451
0.784758 -0.453530 -0.422451
0.850651 -0.000000 -0.525731
0.815985 -0.164530 0.554164
-0.794224 0.267204 0.545720
-0.789940 0.579187 0.201337
-0.784593 0.567804 -0.249022
-0.784593 0.567804 -0.249022
-0.802841 0.213335 -0.556718
-0.794224 0.267204 0.545720
0.000006 -0.276975 0.960877
0.000006 -0.277023 0.960863
0.000000 0.424769 0.905302
0.000000 0.424769 0.905302
0.000000 0.424769 0.905302
0.000006 -0.276975 0.960877
0.000000 -0.894427 -0.447214
0.000000 -0.894427 -0.447214
0.000007 -0.875318 0.483548
0.000007 -0.875318 0.483548
0.000007 -0.875294 0.483591
0.000000 -0.894427 -0.447214
0.000000 0.908654 -0.417549
0.000000 0.908654 -0.417549
0.000000 0.940502 0.339789
0.000000 0.940502 0.339789
0.000000 0.940502 0.339789
0.000000 0.908654 -0.417549
0.000007 -0.875294 0.483591
0.000007 -0.875318 0.483548
0.000006 -0.277023 0.960863
0.000006 -0.277023 0.960863
0.000006 -0.276975 0.960877
0.000007 -0.875294 0.483591
0.000000 0.940502 0.339789
0.000000 0.940502 0.339789
0.000000 0.424769 0.905302
0.000000 0.424769 0.905302
0.000000 0.424769 0.905302
0.000000 0.940502 0.339789
0.000000 0.908654 -0.417549
0.000000 0.908654 -0.417549
0.000000 0.459531 -0.888162
0.000000 0.459531 -0.888162
0.000000 0.459531 -0.888162
0.000000 0.908654 -0.417549
0.784758 -0.453530 -0.422451
0.253933 -0.679303 -0.688524
0.229753 -0.000000 -0.973249
0.229753 -0.000000 -0.973249
0.850651 -0.000000 -0.525731
0.784758 -0.453530 -0.422451
0.784593 0.567804 -0.249022
0.802841 0.213335 -0.556718
0.224595 0.334970 -0.915069
0.224595 0.334970 -0.915069
0.212167 0.885700 -0.412942
0.784593 0.567804 -0.249022
0.784593 0.567804 -0.249022
0.212167 0.885700 -0.412942
0.205434 0.919029 0.336426
0.205434 0.919029 0.336426
0.789940 0.579187 0.201337
0.784593 0.567804 -0.249022
0.794224 0.267204 0.545720
0.789940 0.579187 0.201337
0.205434 0.919029 0.336426
0.205434 0.919029 0.336426
0.226029 0.409327 0.883947
0.794224 0.267204 0.545720
0.794224 0.267204 0.545720
0.226029 0.409327 0.883947
0.231474 -0.267476 0.935348
0.231474 -0.267476 0.935348
0.815985 -0.164530 0.554164
0.794224 0.267204 0.545720
0.815985 -0.164530 0.554164
0.231474 -0.267476 0.935348
0.226371 -0.845953 0.482824
0.226371 -0.845953 0.482824
0.786064 -0.554572 0.273043
0.815985 -0.164530 0.554164
0.786064 -0.554572 0.273043
0.226371 -0.845953 0.482824
0.253933 -0.679303 -0.688524
0.253933 -0.679303 -0.688524
0.784758 -0.453530 -0.422451
0.786064 -0.554572 0.273043
-0.850651 -0.000000 -0.525731
-0.802841 0.213335 -0.556718
-0.224595 0.334970 -0.915069
-0.224595 0.334970 -0.915069
-0.229753 -0.000000 -0.973249
-0.850651 -0.000000 -0.525731
-0.782780 -0.554670 0.282127
-0.784758 -0.453530 -0.422451
-0.253933 -0.679303 -0.688524
-0.253933 -0.679303 -0.688524
-0.221042 -0.848752 0.480376
-0.782780 -0.554670 0.282127
-0.812709 -0.168282 0.557840
-0.782780 -0.554670 0.282127
-0.221042 -0.848752 0.480376
-0.221042 -0.848752 0.480376
-0.226655 -0.266009 0.936945
-0.812709 -0.168282 0.557840
-0.794224 0.267204 0.545720
-0.812709 -0.168282 0.557840
-0.226655 -0.266009 0.936945
-0.226655 -0.266009 0.936945
-0.226029 0.409327 0.883947
-0.794224 0.267204 0.545720
-0.789940 0.579187 0.201337
-0.794224 0.267204 0.545720
-0.226029 0.409327 0.883947
-0.226029 0.409327 0.883947
-0.205434 0.919029 0.336426
-0.789940 0.579187 0.201337
-0.784593 0.567804 -0.249022
-0.789940 0.579187 0.201337
-0.205434 0.919029 0.336426
-0.205434 0.919029 0.336426
-0.212167 0.885700 -0.412942
-0.784593 0.567804 -0.249022
-0.802841 0.213335 -0.556718
-0.784593 0.567804 -0.249022
-0.212167 0.885700 -0.412942
-0.212167 0.885700 -0.412942
-0.224595 0.334970 -0.915069
-0.802841 0.213335 -0.556718
0.789940 0.579187 0.201337
0.794224 0.267204 0.545720
0.802841 0.213335 -0.556718
0.802841 0.213335 -0.556718
0.784593 0.567804 -0.249022
0.789940 0.579187 0.201337
0.850651 -0.000000 -0.525731
0.229753 -0.000000 -0.973249
0.224595 0.334970 -0.915069
0.224595 0.334970 -0.915069
0.802841 0.213335 -0.556718
0.850651 -0.000000 -0.525731
-0.784758 -0.453530 -0.422451
-0.850651 -0.000000 -0.525731
-0.229753 -0.000000 -0.973249
-0.229753 -0.000000 -0.973249
-0.253933 -0.679303 -0.688524
-0.784758 -0.453530 -0.422451
0.794224 0.267204 0.545720
0.815985 -0.164530 0.554164
0.850651 -0.000000 -0.525731
0.850651 -0.000000 -0.525731
0.802841 0.213335 -0.556718
0.794224 0.267204 0.545720
-0.782780 -0.554670 0.282127
-0.812709 -0.168282 0.557840
-0.850651 -0.000000 -0.525731
-0.850651 -0.000000 -0.525731
-0.784758 -0.453530 -0.422451
-0.782780 -0.554670 0.282127
-0.812709 -0.168282 0.557840
-0.794224 0.267204 0.545720
-0.802841 0.213335 -0.556718
-0.802841 0.213335 -0.556718
-0.850651 -0.000000 -0.525731
-0.812709 -0.168282 0.557840
-0.577350 0.577350 0.577350
-0.577350 -0.577350 0.577350
0.577350 -0.577350 0.577350
0.577350 -0.577350 0.577350
0.577350 0.577350 0.577350
-0.577350 0.577350 0.577350
0.707107 -0.707107 0.000000
0.577350 -0.577350 0.577350
-0.577350 -0.577350 0.577350
-0.577350 -0.577350 0.577350
-0.707107 -0.707107 0.000000
0.707107 -0.707107 0.000000
0.577350 0.577350 0.577350
0.577350 -0.577350 0.577350
0.707107 -0.707107 0.000000
0.707107 -0.707107 0.000000
0.707107 0.707107 0.000000
0.577350 0.577350 0.577350
-0.707107 0.707107 0.000000
-0.577350 0.577350 0.577350
0.577350 0.577350 0.577350
0.577350 0.577350 0.577350
0.707107 0.707107 0.000000
-0.707107 0.707107 0.000000
-0.577350 -0.577350 0.577350
-0.577350 0.577350 0.577350
-0.707107 0.707107 0.000000
-0.707107 0.707107 0.000000
-0.707107 -0.707107 0.000000
-0.577350 -0.577350 0.577350
-0.577350 -0.577350 0.577350
-0.904534 -0.301511 0.301511
0.904534 -0.301511 0.301511
0.904534 -0.301511 0.301511
0.577350 -0.577350 0.577350
-0.577350 -0.577350 0.577350
-0.707107 0.000000 0.707107
-0.577350 -0.577350 0.577350
0.577350 -0.577350 0.577350
0.577350 -0.577350 0.577350
0.707107 0.000000 0.707107
-0.707107 0.000000 0.707107
1.000000 0.000000 0.000000
1.000000 0.000000 0.000000
1.000000 0.000000 0.000000
1.000000 0.000000 0.000000
1.000000 0.000000 0.000000
1.000000 0.000000 0.000000
-1.000000 0.000000 0.000000
-1.000000 0.000000 0.000000
-1.000000 0.000000 0.000000
-1.000000 0.000000 0.000000
-1.000000 0.000000 0.000000
-1.000000 0.000000 0.000000
-0.577350 -0.577350 0.577350
-0.707107 -0.707107 0.000000
0.707107 -0.707107 0.000000
0.707107 -0.707107 0.000000
0.577350 -0.577350 0.577350
-0.577350 -0.577350 0.577350
0.904534 -0.301511 0.301511
0.577350 -0.577350 0.577350
-0.577350 -0.577350 0.577350
-0.577350 -0.577350 0.577350
-0.904534 -0.301511 0.301511
0.904534 -0.301511 0.301511
0.904534 -0.301511 0.301511
0.577350 -0.577350 0.577350
-0.577350 -0.577350 0.577350
-0.577350 -0.577350 0.577350
-0.904534 -0.301511 0.301511
0.904534 -0.301511 0.301511
1.000000 0.000000 0.000000
1.000000 0.000000 0.000000
1.000000 0.000000 0.000000
1.000000 0.000000 0.000000
1.000000 0.000000 0.000000
1.000000 0.000000 0.000000
0.577350 -0.577350 0.577350
0.904534 -0.301511 0.301511
1.000000 0.000000 0.000000
1.000000 0.000000 0.000000
0.707107 0.000000 0.707107
0.577350 -0.577350 0.577350
0.904534 -0.301511 0.301511
1.000000 0.000000 0.000000
1.000000 0.000000 0.000000
1.000000 0.000000 0.000000
1.000000 0.000000 0.000000
0.904534 -0.301511 0.301511
-0.707107 0.000000 0.707107
-1.000000 0.000000 0.000000
-0.904534 -0.301511 0.301511
-0.904534 -0.301511 0.301511
-0.577350 -0.577350 0.577350
-0.707107 0.000000 0.707107
-1.000000 0.000000 0.000000
-1.000000 0.000000 0.000000
-1.000000 0.000000 0.000000
-1.000000 0.000000 0.000000
-0.904534 -0.301511 0.301511
-1.000000 0.000000 0.000000
-1.000000 0.000000 0.000000
-1.000000 0.000000 0.000000
-1.000000 0.000000 0.000000
-1.000000 0.000000 0.000000
-1.000000 0.000000 0.000000
-1.000000 0.000000 0.000000
1.000000 0.000000 0.000000
1.000000 0.000000 0.000000
1.000000 0.000000 0.000000
1.000000 0.000000 0.000000
1.000000 0.000000 0.000000
1.000000 0.000000 0.000000
0.904534 -0.301511 0.301511
1.000000 0.000000 0.000000
1.000000 0.000000 0.000000
1.000000 0.000000 0.000000
1.000000 0.000000 0.000000
0.904534 -0.301511 0.301511
0.577350 -0.577350 0.577350
0.904534 -0.301511 0.301511
1.000000 0.000000 0.000000
1.000000 0.000000 0.000000
0.904534 -0.301511 0.301511
0.577350 -0.577350 0.577350
0.577350 -0.577350 0.577350
0.904534 -0.301511 0.301511
-0.904534 -0.301511 0.301511
-0.904534 -0.301511 0.301511
-0.577350 -0.577350 0.577350
0.577350 -0.577350 0.577350
-0.904534 -0.301511 0.301511
-0.577350 -0.577350 0.577350
-0.904534 -0.301511 0.301511
-0.904534 -0.301511 0.301511
-1.000000 0.000000 0.000000
-0.904534 -0.301511 0.301511
-1.000000 0.000000 0.000000
-0.904534 -0.301511 0.301511
-1.000000 0.000000 0.000000
-1.000000 0.000000 0.000000
-1.000000 0.000000 0.000000
-1.000000 0.000000 0.000000
-1.000000 0.000000 0.000000
-1.000000 0.000000 0.000000
-1.000000 0.000000 0.000000
-1.000000 0.000000 0.000000
-1.000000 0.000000 0.000000
-1.000000 0.000000 0.000000
0.577350 -0.577350 0.577350
0.904534 -0.301511 0.301511
-0.904534 -0.301511 0.301511
-0.904534 -0.301511 0.301511
-0.577350 -0.577350 0.577350
0.577350 -0.577350 0.577350
-0.904534 -0.301511 0.301511
-0.577350 -0.577350 0.577350
-0.904534 -0.301511 0.301511
-0.904534 -0.301511 0.301511
-1.000000 0.000000 0.000000
-0.904534 -0.301511 0.301511
-1.000000 0.000000 0.000000
-0.904534 -0.301511 0.301511
-1.000000 0.000000 0.000000
-1.000000 0.000000 0.000000
-1.000000 0.000000 0.000000
-1.000000 0.000000 0.000000
0.904534 -0.301511 0.301511
1.000000 0.000000 0.000000
1.000000 0.000000 0.000000
1.000000 0.000000 0.000000
1.000000 0.000000 0.000000
0.904534 -0.301511 0.301511
0.577350 -0.577350 0.577350
0.904534 -0.301511 0.301511
1.000000 0.000000 0.000000
1.000000 0.000000 0.000000
0.904534 -0.301511 0.301511
0.577350 -0.577350 0.577350
0.577350 -0.577350 0.577350
0.904534 -0.301511 0.301511
-0.904534 -0.301511 0.301511
-0.904534 -0.301511 0.301511
-0.577350 -0.577350 0.577350
0.577350 -0.577350 0.577350
-0.707107 -0.707107 0.000000
-0.577350 -0.577350 0.577350
-0.904534 -0.301511 0.301511
-0.904534 -0.301511 0.301511
-1.000000 0.000000 0.000000
-0.707107 -0.707107 0.000000
0.577350 -0.577350 0.577350
0.707107 -0.707107 0.000000
1.000000 0.000000 0.000000
1.000000 0.000000 0.000000
0.904534 -0.301511 0.301511
0.577350 -0.577350 0.577350
0.000006 -0.277023 0.960863
0.231474 -0.267476 0.935348
0.226029 0.409327 0.883947
0.226029 0.409327 0.883947
0.000000 0.424769 0.905302
0.000006 -0.277023 0.960863
0.000000 0.424769 0.905302
-0.226029 0.409327 0.883947
-0.226655 -0.266009 0.936945
-0.226655 -0.266009 0.936945
0.000006 -0.276975 0.960877
0.000000 0.424769 0.905302
0.000000 -0.894427 -0.447214
0.253933 -0.679303 -0.688524
0.226371 -0.845953 0.482824
0.226371 -0.845953 0.482824
0.000007 -0.875318 0.483548
0.000000 -0.894427 -0.447214
0.000007 -0.875294 0.483591
-0.221042 -0.848752 0.480376
-0.253933 -0.679303 -0.688524
-0.253933 -0.679303 -0.688524
0.000000 -0.894427 -0.447214
0.000007 -0.875294 0.483591
0.000000 0.908654 -0.417549
-0.212167 0.885700 -0.412942
-0.205434 0.919029 0.336426
-0.205434 0.919029 0.336426
0.000000 0.940502 0.339789
0.000000 0.908654 -0.417549
0.000000 0.940502 0.339789
0.205434 0.919029 0.336426
0.212167 0.885700 -0.412942
0.212167 0.885700 -0.412942
0.000000 0.908654 -0.417549
0.000000 0.940502 0.339789
0.000007 -0.875318 0.483548
0.226371 -0.845953 0.482824
0.231474 -0.267476 0.935348
0.231474 -0.267476 0.935348
0.000006 -0.277023 0.960863
0.000007 -0.875318 0.483548
0.000006 -0.276975 0.960877
-0.226655 -0.266009 0.936945
-0.221042 -0.848752 0.480376
-0.221042 -0.848752 0.480376
0.000007 -0.875294 0.483591
0.000006 -0.276975 0.960877
0.000000 0.940502 0.339789
-0.205434 0.919029 0.336426
-0.226029 0.409327 0.883947
-0.226029 0.409327 0.883947
0.000000 0.424769 0.905302
0.000000 0.940502 0.339789
0.000000 0.424769 0.905302
0.226029 0.409327 0.883947
0.205434 0.919029 0.336426
0.205434 0.919029 0.336426
0.000000 0.940502 0.339789
0.000000 0.424769 0.905302
0.000000 0.908654 -0.417549
0.212167 0.885700 -0.412942
0.224595 0.334970 -0.915069
0.224595 0.334970 -0.915069
0.000000 0.459530 -0.888162
0.000000 0.908654 -0.417549
0.000000 0.459531 -0.888162
-0.224595 0.334970 -0.915069
-0.212167 0.885700 -0.412942
-0.212167 0.885700 -0.412942
0.000000 0.908654 -0.417549
0.000000 0.459531 -0.888162
0.000000 -0.000000 -1.000000
-0.229753 0.000000 -0.973249
-0.224595 0.334970 -0.915069
-0.224595 0.334970 -0.915069
0.000000 0.459531 -0.888162
0.000000 -0.000000 -1.000000
0.000000 0.459530 -0.888162
0.224595 0.334970 -0.915069
0.229753 0.000000 -0.973249
0.229753 0.000000 -0.973249
0.000000 -0.000000 -1.000000
0.000000 0.459530 -0.888162
0.000000 -0.000000 -1.000000
0.229753 0.000000 -0.973249
0.253933 -0.679303 -0.688524
0.253933 -0.679303 -0.688524
0.000000 -0.894427 -0.447214
0.000000 -0.000000 -1.000000
0.000000 -0.894427 -0.447214
-0.253933 -0.679303 -0.688524
-0.229753 0.000000 -0.973249
-0.229753 0.000000 -0.973249
0.000000 -0.000000 -1.000000
0.000000 -0.894427 -0.447214
0.000006 -0.277023 0.960863
0.231474 -0.267476 0.935348
0.226029 0.409327 0.883947
0.226029 0.409327 0.883947
0.000000 0.424769 0.905302
0.000006 -0.277023 0.960863
0.000000 0.424769 0.905302
-0.226029 0.409327 0.883947
-0.226655 -0.266009 0.936945
-0.226655 -0.266009 0.936945
0.000006 -0.276975 0.960877
0.000000 0.424769 0.905302
0.000000 -0.894427 -0.447214
0.253933 -0.679303 -0.688524
0.226371 -0.845953 0.482824
0.226371 -0.845953 0.482824
0.000007 -0.875318 0.483548
0.000000 -0.894427 -0.447214
0.000007 -0.875294 0.483591
-0.221042 -0.848752 0.480376
-0.253933 -0.679303 -0.688524
-0.253933 -0.679303 -0.688524
0.000000 -0.894427 -0.447214
0.000007 -0.875294 0.483591
0.000000 0.908654 -0.417549
-0.212167 0.885700 -0.412942
-0.205434 0.919029 0.336426
-0.205434 0.919029 0.336426
0.000000 0.940502 0.339789
0.000000 0.908654 -0.417549
0.000000 0.940502 0.339789
0.205434 0.919029 0.336426
0.212167 0.885700 -0.412942
0.212167 0.885700 -0.412942
0.000000 0.908654 -0.417549
0.000000 0.940502 0.339789
0.000007 -0.875318 0.483548
0.226371 -0.845953 0.482824
0.231474 -0.267476 0.935348
0.231474 -0.267476 0.935348
0.000006 -0.277023 0.960863
0.000007 -0.875318 0.483548
0.000006 -0.276975 0.960877
-0.226655 -0.266009 0.936945
-0.221042 -0.848752 0.480376
-0.221042 -0.848752 0.480376
0.000007 -0.875294 0.483591
0.000006 -0.276975 0.960877
0.000000 0.940502 0.339789
-0.205434 0.919029 0.336426
-0.226029 0.409327 0.883947
-0.226029 0.409327 0.883947
0.000000 0.424769 0.905302
0.000000 0.940502 0.339789
0.000000 0.424769 0.905302
0.226029 0.409327 0.883947
0.205434 0.919029 0.336426
0.205434 0.919029 0.336426
0.000000 0.940502 0.339789
0.000000 0.424769 0.905302
0.000000 0.908654 -0.417549
0.212167 0.885700 -0.412942
0.224595 0.334970 -0.915069
0.224595 0.334970 -0.915069
0.000000 0.459531 -0.888162
0.000000 0.908654 -0.417549
0.000000 0.459531 -0.888162
-0.224595 0.334970 -0.915069
-0.212167 0.885700 -0.412942
-0.212167 0.885700 -0.412942
0.000000 0.908654 -0.417549
0.000000 0.459531 -0.888162
0.000000 -0.000000 -1.000000
-0.229753 -0.000000 -0.973249
-0.224595 0.334970 -0.915069
-0.224595 0.334970 -0.915069
0.000000 0.459531 -0.888162
0.000000 -0.000000 -1.000000
0.000000 0.459531 -0.888162
0.224595 0.334970 -0.915069
0.229753 -0.000000 -0.973249
0.229753 -0.000000 -0.973249
0.000000 -0.000000 -1.000000
0.000000 0.459531 -0.888162
0.000000 -0.000000 -1.000000
0.229753 -0.000000 -0.973249
0.253933 -0.679303 -0.688524
0.253933 -0.679303 -0.688524
0.000000 -0.894427 -0.447214
0.000000 -0.000000 -1.000000
0.000000 -0.894427 -0.447214
-0.253933 -0.679303 -0.688524
-0.229753 -0.000000 -0.973249
-0.229753 -0.000000 -0.973249
0.000000 -0.000000 -1.000000
0.000000 -0.894427 -0.447214
</float_array>
          <technique_common>
            <accessor source="#tech_wall_theta_01-lib-Normal0-array" count="1422" stride="3">
              <param name="X" type="float"/>
              <param name="Y" type="float"/>
              <param name="Z" type="float"/>
            </accessor>
          </technique_common>
        </source>
        <source id="tech_wall_theta_01-lib-UV0">
          <float_array id="tech_wall_theta_01-lib-UV0-array" count="1016">
0.608233 0.260707
0.616334 0.267439
0.556951 0.265210
0.555626 0.260707
0.363088 0.604244
0.765301 0.604225
0.765020 0.267395
0.362966 0.267376
0.700933 0.604326
0.616334 0.604345
0.493869 0.604263
0.700770 0.267458
0.493869 0.267357
0.830933 0.262904
0.764640 0.262904
0.379175 0.267357
0.459949 0.267357
0.459949 0.604263
0.379175 0.604263
0.703510 0.262984
0.764670 0.608738
0.703925 0.608817
0.831222 0.608738
0.842580 0.343962
0.904995 0.319230
0.972997 0.319230
0.972997 0.344186
0.382791 0.262853
0.842580 0.375789
0.972997 0.369142
0.456176 0.262853
0.504413 0.605516
0.501771 0.265210
0.577316 0.636504
0.383000 0.608766
0.455966 0.608766
0.706239 0.643074
0.638212 0.692414
0.577316 0.668089
0.706239 0.667744
0.706239 0.692414
0.486321 0.262853
0.370800 0.262853
0.370800 0.608766
0.486321 0.608766
0.693964 0.262936
0.625153 0.262936
0.694789 0.608849
0.625153 0.608849
0.558268 0.610019
0.505660 0.610019
0.559593 0.605516
0.503019 0.260707
0.610875 0.610019
0.986561 0.666370
0.986842 0.695062
0.042072 0.694992
0.037899 0.604193
0.834576 0.919892
0.777899 0.920487
0.044427 0.608737
0.054853 0.690543
0.834050 0.900684
0.777110 0.901280
0.776978 0.727164
0.834182 0.726565
0.775558 0.682134
0.832848 0.681535
0.875990 0.895156
0.282881 0.604193
0.521691 0.694992
0.850220 0.895045
0.850220 0.730442
0.508911 0.690543
0.637203 0.707292
0.722772 0.707292
0.734645 0.894398
0.276353 0.608737
0.052999 0.650510
0.052999 0.672425
0.510764 0.672397
0.510764 0.650538
0.058555 0.701558
0.069630 0.695196
0.494997 0.645867
0.068767 0.645867
0.012560 0.672134
0.012560 0.650801
0.551011 0.650829
0.551011 0.672106
0.068767 0.677068
0.494997 0.677068
0.053124 0.603984
0.267656 0.603984
0.000362 0.676041
0.887863 0.708050
0.637203 0.894398
0.563210 0.676041
0.848997 0.686811
0.760415 0.729684
0.759191 0.687667
0.760415 0.894287
0.884519 0.701994
0.973477 0.701994
0.973432 0.708050
0.973432 0.895156
0.973477 0.902911
0.871976 0.902911
0.842149 0.902911
0.637158 0.701236
0.726116 0.701236
0.000362 0.646894
0.768486 0.902152
0.738659 0.902152
0.637158 0.902152
0.988502 0.908737
0.989691 0.937074
0.563210 0.646894
0.494134 0.695196
0.052999 0.677044
0.052999 0.695173
0.510764 0.677044
0.510764 0.695173
0.505208 0.701558
0.274462 0.597485
0.046318 0.597485
0.052999 0.645891
0.052999 0.627762
0.510764 0.645891
0.510764 0.627762
0.238459 0.357375
0.237259 0.328689
0.209603 0.339395
0.152313 0.339994
0.211332 0.577752
0.154654 0.578347
0.153865 0.559140
0.210805 0.558544
0.153733 0.385024
0.210937 0.384425
0.252745 0.553017
0.226975 0.552905
0.226975 0.388302
0.264618 0.365910
0.013958 0.365152
0.099527 0.365152
0.111400 0.552258
0.013958 0.552258
0.261274 0.359854
0.350232 0.359854
0.350187 0.365910
0.350187 0.553017
0.350232 0.560771
0.248731 0.560771
0.225752 0.344672
0.013914 0.359096
0.102871 0.359096
0.137170 0.387544
0.135946 0.345527
0.137170 0.552147
0.145242 0.560013
0.115414 0.560013
0.895743 0.388640
0.956462 0.388640
0.948322 0.394496
0.903882 0.394496
0.956462 0.660484
0.895743 0.660484
0.903940 0.654628
0.948265 0.654628
0.842588 0.416622
0.855841 0.421938
0.855841 0.625717
0.842588 0.631033
0.856266 0.408710
0.865534 0.414845
0.865534 0.632811
0.856266 0.638946
0.002547 0.353576
0.009316 0.360110
0.009316 0.566077
0.002547 0.572612
0.014268 0.574427
0.009534 0.580695
0.009534 0.345493
0.014268 0.351760
0.948928 0.413955
0.903277 0.413955
0.903334 0.633700
0.948870 0.633700
0.893605 0.421524
0.893605 0.626131
0.893653 0.413955
0.855889 0.413955
0.893653 0.633700
0.855889 0.633700
0.958600 0.626131
0.958600 0.421524
0.958551 0.413955
0.996316 0.413955
0.958551 0.633700
0.996316 0.633700
0.223945 0.592339
0.222756 0.564002
0.218904 0.560771
0.013914 0.560013
0.493778 0.958622
0.493778 0.953713
0.816907 0.953713
0.816907 0.958622
0.493777 0.995606
0.493778 0.980844
0.637903 0.257234
0.627676 0.257234
0.627676 0.242472
0.637903 0.242471
0.320781 0.282985
0.310553 0.282985
0.310553 0.268223
0.320781 0.268223
0.816907 0.980844
0.330286 0.282986
0.330286 0.268223
0.816907 0.995606
0.675719 0.257234
0.675719 0.242471
0.618171 0.242472
0.618171 0.257234
0.272738 0.268223
0.272738 0.282985
0.320781 0.261776
0.637903 0.236025
0.675719 0.236025
0.627676 0.236025
0.618171 0.236025
0.330286 0.261776
0.310553 0.261776
0.272738 0.261776
0.637903 0.229572
0.310553 0.255324
0.320781 0.255324
0.272738 0.255324
0.675719 0.229572
0.627675 0.229572
0.637903 0.224469
0.272738 0.250220
0.310553 0.250220
0.675719 0.224469
0.816907 0.976084
0.493778 0.976084
0.816907 0.965075
0.816907 0.969638
0.493778 0.969638
0.493778 0.965075
0.816907 0.948610
0.493778 0.948610
0.316609 0.220746
0.609583 0.220746
0.124237 0.179007
0.124237 0.220496
0.103552 0.220496
0.103552 0.179007
0.011457 0.221696
0.007994 0.179007
0.049331 0.179007
0.032125 0.221696
0.057753 0.237712
0.057753 0.247192
0.007723 0.150215
0.100585 0.150215
0.100585 0.159694
0.011321 0.247192
0.006013 0.321697
0.006013 0.280208
0.026698 0.280208
0.026698 0.321696
0.056582 0.277807
0.122256 0.321696
0.080920 0.321697
0.035914 0.277807
0.010287 0.261791
0.010287 0.252312
0.123128 0.350193
0.030265 0.350193
0.030265 0.340714
0.056718 0.252312
0.135546 0.195504
0.144928 0.191682
0.144928 0.220121
0.135546 0.220757
0.846089 0.082030
0.846507 0.120172
0.144836 0.120307
0.151015 0.082104
0.846718 0.151071
0.846758 0.191682
0.846129 0.002568
0.144968 0.151149
0.150976 0.002568
0.135480 0.088666
0.135480 0.120489
0.150976 0.072256
0.150976 0.023178
0.846129 0.023178
0.846129 0.072256
0.135647 0.149834
0.855909 0.120475
0.856073 0.149635
0.855909 0.088527
0.183908 0.323613
0.132388 0.293651
0.132388 0.261007
0.184375 0.261007
0.141684 0.070059
0.250208 0.323613
0.236363 0.261007
0.141684 0.025471
0.846758 0.247231
0.144928 0.246610
0.879034 0.310193
0.855421 0.069932
0.855421 0.025598
0.892720 0.248304
0.995505 0.280960
0.944830 0.310193
0.944112 0.248304
0.995505 0.248304
0.141684 0.007154
0.141684 0.077344
0.855421 0.077344
0.855421 0.007154
0.135546 0.154416
0.135546 0.187448
0.856139 0.154020
0.856139 0.187448
0.856139 0.221378
0.856139 0.246632
0.846758 0.220742
0.135546 0.246011
0.856139 0.196125
0.090264 0.901900
0.007688 0.736721
0.428351 0.736721
0.534403 0.901900
0.428351 0.708992
0.007688 0.708992
0.617651 0.741330
0.617651 0.901934
0.090264 0.943823
0.534403 0.943823
0.007016 0.901934
0.007016 0.741330
0.085209 0.958622
0.085209 0.953713
0.408338 0.953713
0.408338 0.958622
0.085209 0.995606
0.085209 0.980844
0.446079 0.997206
0.435851 0.997206
0.435851 0.982443
0.446079 0.982443
0.060294 0.995606
0.050066 0.995606
0.050066 0.980844
0.060294 0.980844
0.408338 0.980844
0.069799 0.995606
0.069799 0.980844
0.408338 0.995606
0.483894 0.997206
0.483894 0.982443
0.426347 0.982443
0.426347 0.997206
0.012250 0.980844
0.012250 0.995606
0.060294 0.974397
0.446079 0.975997
0.483894 0.975997
0.435851 0.975997
0.426346 0.975997
0.069799 0.974397
0.050066 0.974397
0.012250 0.974397
0.446079 0.969544
0.050066 0.967944
0.060294 0.967944
0.012250 0.967944
0.483894 0.969544
0.435851 0.969544
0.446079 0.964441
0.012250 0.962841
0.050066 0.962841
0.483894 0.964441
0.408338 0.976084
0.085209 0.976084
0.408338 0.965075
0.408338 0.969638
0.085209 0.969638
0.085209 0.965075
0.408338 0.948610
0.085209 0.948610
0.315312 0.194680
0.608287 0.194680
0.834086 0.604244
0.833945 0.267376
0.856485 0.378774
0.940781 0.378774
0.590820 0.633553
0.674635 0.633553
0.067350 0.627739
0.496413 0.627739
0.996364 0.626811
0.996364 0.420844
0.340201 0.282986
0.340201 0.268223
0.608256 0.242472
0.608256 0.257234
0.609583 0.238898
0.316609 0.238898
0.007994 0.220496
0.049331 0.220496
0.122256 0.280208
0.080920 0.280208
0.846547 0.087152
0.144796 0.087220
0.256427 0.316937
0.256427 0.276472
0.872886 0.303710
0.872886 0.263476
0.090264 0.741364
0.534403 0.741364
0.079714 0.995606
0.079714 0.980844
0.416431 0.982443
0.416431 0.997206
0.608287 0.212833
0.315312 0.212833
0.504413 0.527174
0.501771 0.343552
0.493869 0.525921
0.493869 0.345699
0.616334 0.345781
0.616334 0.526003
0.765236 0.525900
0.765085 0.345719
0.833978 0.345709
0.834053 0.525911
0.362994 0.345709
0.363060 0.525911
0.700895 0.525993
0.700808 0.345791
0.379175 0.345699
0.379175 0.525921
0.459949 0.525921
0.459949 0.345699
0.559593 0.527174
0.556951 0.343552
0.683559 0.247231
0.308127 0.246610
0.684482 0.002568
0.312622 0.002568
0.308127 0.191682
0.683559 0.191682
0.683345 0.120203
0.307998 0.120275
0.307977 0.087204
0.683366 0.087168
0.312643 0.082087
0.684461 0.082047
0.683538 0.151089
0.308148 0.151131
0.312622 0.072256
0.684482 0.072256
0.684482 0.023178
0.312622 0.023178
0.683559 0.220742
0.308127 0.220121
0.870906 0.666456
0.871188 0.695106
0.857772 0.909856
0.858961 0.938194
0.354675 0.591219
0.353486 0.562882
0.352897 0.327720
0.354096 0.356363
0.948928 0.412784
0.903277 0.412784
0.903334 0.636432
0.948870 0.636432
0.612132 0.265210
0.614773 0.605516
0.144928 0.193633
0.846758 0.194253
0.612132 0.343552
0.614773 0.527174
0.308127 0.193633
0.683559 0.194253
0.050658 0.650510
0.050658 0.672425
0.513105 0.672397
0.513105 0.650538
0.090264 0.903929
0.534403 0.903929
0.007994 0.175710
0.049331 0.175710
0.122856 0.324698
0.081520 0.324698
</float_array>
          <technique_common>
            <accessor source="#tech_wall_theta_01-lib-UV0-array" count="508" stride="2">
              <param name="S" type="float"/>
              <param name="T" type="float"/>
            </accessor>
          </technique_common>
        </source>
        <vertices id="tech_wall_theta_01-lib-Vertex">
          <input semantic="POSITION" source="#tech_wall_theta_01-lib-Position"/>
        </vertices>
        <polygons material="tech_wall_theta_01" count="474">
          <input semantic="VERTEX" offset="0" source="#tech_wall_theta_01-lib-Vertex"/>
          <input semantic="NORMAL" offset="1" source="#tech_wall_theta_01-lib-Normal0"/>
          <input semantic="TEXCOORD" offset="2" set="0" source="#tech_wall_theta_01-lib-UV0"/>
          <p>19 0 23 20 1 24 14 2 25</p>
          <p>14 3 25 30 4 26 19 5 23</p>
          <p>25 6 33 26 7 408 27 8 409</p>
          <p>27 9 409 21 10 36 25 11 33</p>
          <p>252 12 444 253 13 445 254 14 446</p>
          <p>254 15 446 255 16 447 252 17 444</p>
          <p>251 18 443 250 19 442 257 20 451</p>
          <p>257 21 451 256 22 450 251 23 443</p>
          <p>261 24 455 260 25 454 259 26 453</p>
          <p>259 27 453 258 28 452 261 29 455</p>
          <p>256 30 450 257 31 451 253 32 445</p>
          <p>253 33 445 252 34 444 256 35 450</p>
          <p>258 36 452 259 37 453 255 38 449</p>
          <p>255 39 449 254 40 448 258 41 452</p>
          <p>260 42 454 261 43 455 249 44 441</p>
          <p>249 45 441 248 46 440 260 47 454</p>
          <p>14 48 0 1 49 490 29 50 2</p>
          <p>29 51 2 30 52 3 14 53 0</p>
          <p>16 54 30 15 55 41 3 56 12</p>
          <p>3 57 12 13 58 16 16 59 30</p>
          <p>16 60 30 13 61 16 7 62 15</p>
          <p>7 63 15 17 64 27 16 65 30</p>
          <p>18 66 42 17 67 27 7 68 15</p>
          <p>7 69 15 11 70 7 18 71 42</p>
          <p>18 72 13 11 73 405 9 74 6</p>
          <p>9 75 6 19 76 14 18 77 13</p>
          <p>19 78 14 9 79 6 5 80 11</p>
          <p>5 81 11 20 82 19 19 83 14</p>
          <p>20 84 45 5 85 11 1 86 1</p>
          <p>1 87 1 14 88 46 20 89 45</p>
          <p>31 90 49 21 91 50 2 92 31</p>
          <p>2 93 31 28 94 51 31 95 49</p>
          <p>23 96 47 22 97 48 0 98 9</p>
          <p>0 99 9 4 100 8 23 101 47</p>
          <p>24 102 20 23 103 21 4 104 8</p>
          <p>4 105 8 8 106 5 24 107 20</p>
          <p>25 108 22 24 109 20 8 110 5</p>
          <p>8 111 5 10 112 404 25 113 22</p>
          <p>26 114 34 25 115 43 10 116 4</p>
          <p>10 117 4 6 118 18 26 119 34</p>
          <p>27 120 35 26 121 34 6 122 18</p>
          <p>6 123 18 12 124 17 27 125 35</p>
          <p>21 126 44 27 127 35 12 128 17</p>
          <p>12 129 17 2 130 10 21 131 44</p>
          <p>17 132 406 18 133 28 15 134 29</p>
          <p>15 135 29 16 136 407 17 137 406</p>
          <p>30 138 3 29 139 2 3 140 32</p>
          <p>3 141 32 15 142 52 30 143 3</p>
          <p>22 144 53 31 145 49 28 146 51</p>
          <p>28 147 51 0 148 491 22 149 53</p>
          <p>18 150 28 19 151 23 30 152 26</p>
          <p>30 153 26 15 154 29 18 155 28</p>
          <p>23 156 37 24 157 38 31 158 39</p>
          <p>31 159 39 22 160 40 23 161 37</p>
          <p>24 162 38 25 163 33 21 164 36</p>
          <p>21 165 36 31 166 39 24 167 38</p>
          <p>34 168 54 35 169 55 33 170 479</p>
          <p>33 171 479 40 172 478 34 173 54</p>
          <p>68 174 58 69 175 59 36 176 63</p>
          <p>36 177 63 37 178 62 68 179 58</p>
          <p>37 180 62 36 181 63 32 182 64</p>
          <p>32 183 64 41 184 65 37 185 62</p>
          <p>70 186 68 45 187 71 46 188 72</p>
          <p>46 189 72 42 190 95 70 191 68</p>
          <p>47 192 74 48 193 75 71 194 76</p>
          <p>71 195 76 51 196 96 47 197 74</p>
          <p>41 198 65 32 199 64 40 200 66</p>
          <p>40 201 66 33 202 67 41 203 65</p>
          <p>42 204 95 33 205 102 35 206 103</p>
          <p>35 207 103 43 208 104 42 209 95</p>
          <p>44 210 105 39 211 106 68 212 107</p>
          <p>68 213 107 70 214 68 44 215 105</p>
          <p>46 216 72 45 217 71 37 218 62</p>
          <p>37 219 62 41 220 65 46 221 72</p>
          <p>42 222 98 46 223 72 41 224 65</p>
          <p>41 225 65 33 226 67 42 227 98</p>
          <p>47 228 74 34 229 109 40 230 110</p>
          <p>40 231 110 48 232 75 47 233 74</p>
          <p>49 234 99 48 235 100 40 236 66</p>
          <p>40 237 66 32 238 64 49 239 99</p>
          <p>49 240 99 32 241 64 36 242 63</p>
          <p>36 243 63 50 244 101 49 245 99</p>
          <p>71 246 76 50 247 101 36 248 112</p>
          <p>36 249 112 69 250 113 71 251 76</p>
          <p>35 252 94 34 253 111 52 254 87</p>
          <p>52 255 87 53 256 86 35 257 94</p>
          <p>38 258 117 39 259 97 55 260 89</p>
          <p>55 261 89 54 262 88 38 263 117</p>
          <p>43 264 82 56 265 83 57 266 118</p>
          <p>57 267 118 44 268 123 43 269 82</p>
          <p>35 270 56 53 271 61 56 272 83</p>
          <p>56 273 83 43 274 82 35 275 56</p>
          <p>44 276 123 57 277 118 55 278 73</p>
          <p>55 279 73 39 280 70 44 281 123</p>
          <p>51 282 124 59 283 93 58 284 92</p>
          <p>58 285 92 47 286 125 51 287 124</p>
          <p>47 288 125 58 289 92 52 290 60</p>
          <p>52 291 60 34 292 57 47 293 125</p>
          <p>38 294 69 54 295 77 59 296 93</p>
          <p>59 297 93 51 298 124 38 299 69</p>
          <p>60 300 498 61 301 499 53 302 86</p>
          <p>53 303 86 52 304 87 60 305 498</p>
          <p>63 306 500 62 307 501 54 308 88</p>
          <p>54 309 88 55 310 89 63 311 500</p>
          <p>64 312 90 65 313 91 57 314 118</p>
          <p>57 315 118 56 316 83 64 317 90</p>
          <p>61 318 119 64 319 90 56 320 83</p>
          <p>56 321 83 53 322 120 61 323 119</p>
          <p>65 324 91 63 325 121 55 326 122</p>
          <p>55 327 122 57 328 118 65 329 91</p>
          <p>67 330 84 66 331 85 58 332 410</p>
          <p>58 333 410 59 334 411 67 335 84</p>
          <p>66 336 85 60 337 126 52 338 127</p>
          <p>52 339 127 58 340 410 66 341 85</p>
          <p>62 342 128 67 343 84 59 344 411</p>
          <p>59 345 411 54 346 129 62 347 128</p>
          <p>66 348 85 64 349 90 61 350 79</p>
          <p>61 351 79 60 352 78 66 353 85</p>
          <p>62 354 81 63 355 80 65 356 91</p>
          <p>65 357 91 67 358 84 62 359 81</p>
          <p>67 360 84 65 361 91 64 362 90</p>
          <p>64 363 90 66 364 85 67 365 84</p>
          <p>39 366 115 38 367 116 69 368 481</p>
          <p>69 369 481 68 370 480 39 371 115</p>
          <p>45 372 71 70 373 68 68 374 107</p>
          <p>68 375 107 37 376 108 45 377 71</p>
          <p>71 378 76 69 379 113 38 380 114</p>
          <p>38 381 114 51 382 96 71 383 76</p>
          <p>42 384 95 43 385 104 44 386 105</p>
          <p>44 387 105 70 388 68 42 389 95</p>
          <p>50 390 101 71 391 76 48 392 75</p>
          <p>48 393 75 49 394 99 50 395 101</p>
          <p>72 396 130 75 397 485 74 398 484</p>
          <p>74 399 484 73 400 131 72 401 130</p>
          <p>76 402 134 79 403 137 78 404 136</p>
          <p>78 405 136 77 406 135 76 407 134</p>
          <p>79 408 137 81 409 139 80 410 138</p>
          <p>80 411 138 78 412 136 79 413 137</p>
          <p>82 414 140 85 415 143 84 416 142</p>
          <p>84 417 142 83 418 141 82 419 140</p>
          <p>86 420 144 89 421 147 88 422 146</p>
          <p>88 423 146 87 424 145 86 425 144</p>
          <p>81 426 139 74 427 132 75 428 133</p>
          <p>75 429 133 80 430 138 81 431 139</p>
          <p>85 432 143 90 433 150 73 434 149</p>
          <p>73 435 149 74 436 148 85 437 143</p>
          <p>91 438 151 82 439 140 76 440 153</p>
          <p>76 441 153 92 442 152 91 443 151</p>
          <p>84 444 142 81 445 139 79 446 137</p>
          <p>79 447 137 83 448 141 84 449 142</p>
          <p>85 450 154 74 451 132 81 452 139</p>
          <p>81 453 139 84 454 142 85 455 154</p>
          <p>86 456 144 87 457 145 75 458 156</p>
          <p>75 459 156 72 460 155 86 461 144</p>
          <p>93 462 157 80 463 138 75 464 133</p>
          <p>75 465 133 87 466 158 93 467 157</p>
          <p>93 468 157 94 469 159 78 470 136</p>
          <p>78 471 136 80 472 138 93 473 157</p>
          <p>88 474 146 77 475 161 78 476 160</p>
          <p>78 477 160 94 478 159 88 479 146</p>
          <p>73 480 162 96 481 165 95 482 164</p>
          <p>95 483 164 72 484 163 73 485 162</p>
          <p>97 486 166 99 487 169 98 488 168</p>
          <p>98 489 168 92 490 167 97 491 166</p>
          <p>90 492 170 91 493 173 101 494 172</p>
          <p>101 495 172 100 496 171 90 497 170</p>
          <p>73 498 174 90 499 170 100 500 171</p>
          <p>100 501 171 96 502 175 73 503 174</p>
          <p>91 504 173 92 505 177 98 506 176</p>
          <p>98 507 176 101 508 172 91 509 173</p>
          <p>89 510 178 86 511 181 103 512 180</p>
          <p>103 513 180 102 514 179 89 515 178</p>
          <p>86 516 181 72 517 183 95 518 182</p>
          <p>95 519 182 103 520 180 86 521 181</p>
          <p>97 522 184 89 523 178 102 524 179</p>
          <p>102 525 179 99 526 185 97 527 184</p>
          <p>104 528 486 95 529 164 96 530 165</p>
          <p>96 531 165 105 532 487 104 533 486</p>
          <p>106 534 488 98 535 168 99 536 169</p>
          <p>99 537 169 107 538 489 106 539 488</p>
          <p>108 540 190 100 541 171 101 542 172</p>
          <p>101 543 172 109 544 191 108 545 190</p>
          <p>105 546 192 96 547 193 100 548 171</p>
          <p>100 549 171 108 550 190 105 551 192</p>
          <p>109 552 191 101 553 172 98 554 195</p>
          <p>98 555 195 106 556 194 109 557 191</p>
          <p>110 558 196 102 559 412 103 560 413</p>
          <p>103 561 413 111 562 197 110 563 196</p>
          <p>111 564 197 103 565 413 95 566 199</p>
          <p>95 567 199 104 568 198 111 569 197</p>
          <p>107 570 200 99 571 201 102 572 412</p>
          <p>102 573 412 110 574 196 107 575 200</p>
          <p>111 576 197 104 577 186 105 578 187</p>
          <p>105 579 187 108 580 190 111 581 197</p>
          <p>107 582 189 110 583 196 109 584 191</p>
          <p>109 585 191 106 586 188 107 587 189</p>
          <p>110 588 196 111 589 197 108 590 190</p>
          <p>108 591 190 109 592 191 110 593 196</p>
          <p>92 594 202 76 595 482 77 596 483</p>
          <p>77 597 483 97 598 203 92 599 202</p>
          <p>83 600 141 79 601 204 76 602 153</p>
          <p>76 603 153 82 604 140 83 605 141</p>
          <p>88 606 146 89 607 147 97 608 205</p>
          <p>97 609 205 77 610 161 88 611 146</p>
          <p>85 612 143 82 613 140 91 614 151</p>
          <p>91 615 151 90 616 150 85 617 143</p>
          <p>94 618 159 93 619 157 87 620 145</p>
          <p>87 621 145 88 622 146 94 623 159</p>
          <p>141 624 206 142 625 207 145 626 208</p>
          <p>145 627 208 140 628 209 141 629 206</p>
          <p>116 630 210 112 631 211 113 632 220</p>
          <p>113 633 220 117 634 223 116 635 210</p>
          <p>128 636 212 127 637 213 124 638 214</p>
          <p>124 639 214 123 640 215 128 641 212</p>
          <p>130 642 216 129 643 217 122 644 218</p>
          <p>122 645 218 121 646 219 130 647 216</p>
          <p>147 648 419 148 649 256 149 650 257</p>
          <p>149 651 257 146 652 418 147 653 419</p>
          <p>125 654 248 113 655 220 112 656 211</p>
          <p>112 657 211 120 658 249 125 659 248</p>
          <p>135 660 250 136 661 251 137 662 252</p>
          <p>137 663 252 138 664 253 135 665 250</p>
          <p>119 666 224 128 667 212 123 668 215</p>
          <p>123 669 215 115 670 225 119 671 224</p>
          <p>113 672 416 125 673 226 126 674 227</p>
          <p>126 675 227 117 676 417 113 677 416</p>
          <p>125 678 226 124 679 214 127 680 213</p>
          <p>127 681 213 126 682 227 125 683 226</p>
          <p>116 684 414 131 685 221 120 686 222</p>
          <p>120 687 222 112 688 415 116 689 414</p>
          <p>131 690 221 130 691 216 121 692 219</p>
          <p>121 693 219 120 694 222 131 695 221</p>
          <p>114 696 228 122 697 218 129 698 217</p>
          <p>129 699 217 118 700 229 114 701 228</p>
          <p>134 702 231 133 703 232 115 704 225</p>
          <p>115 705 225 123 706 215 134 707 231</p>
          <p>135 708 233 134 709 231 123 710 215</p>
          <p>123 711 215 124 712 214 135 713 233</p>
          <p>136 714 234 135 715 233 124 716 214</p>
          <p>124 717 214 125 718 226 136 719 234</p>
          <p>136 720 251 125 721 248 120 722 249</p>
          <p>120 723 249 137 724 252 136 725 251</p>
          <p>138 726 230 137 727 235 120 728 222</p>
          <p>120 729 222 121 730 219 138 731 230</p>
          <p>139 732 236 138 733 230 121 734 219</p>
          <p>121 735 219 122 736 218 139 737 236</p>
          <p>132 738 237 139 739 236 122 740 218</p>
          <p>122 741 218 114 742 228 132 743 237</p>
          <p>140 744 209 135 745 250 138 746 253</p>
          <p>138 747 253 141 748 206 140 749 209</p>
          <p>142 750 239 141 751 240 138 752 230</p>
          <p>138 753 230 139 754 236 142 755 239</p>
          <p>143 756 241 142 757 239 139 758 236</p>
          <p>139 759 236 132 760 237 143 761 241</p>
          <p>145 762 238 144 763 242 133 764 232</p>
          <p>133 765 232 134 766 231 145 767 238</p>
          <p>140 768 243 145 769 238 134 770 231</p>
          <p>134 771 231 135 772 233 140 773 243</p>
          <p>146 774 254 145 775 208 142 776 207</p>
          <p>142 777 207 147 778 255 146 779 254</p>
          <p>148 780 245 147 781 246 142 782 239</p>
          <p>142 783 239 143 784 241 148 785 245</p>
          <p>146 786 244 149 787 247 144 788 242</p>
          <p>144 789 242 145 790 238 146 791 244</p>
          <p>155 792 420 154 793 263 150 794 264</p>
          <p>150 795 264 159 796 421 155 797 420</p>
          <p>152 798 258 153 799 259 151 800 260</p>
          <p>151 801 260 158 802 261 152 803 258</p>
          <p>159 804 421 150 805 264 158 806 261</p>
          <p>158 807 261 151 808 260 159 809 421</p>
          <p>155 810 262 159 811 265 151 812 266</p>
          <p>151 813 266 153 814 267 155 815 262</p>
          <p>155 816 262 153 817 267 157 818 271</p>
          <p>156 819 268 152 820 269 158 821 270</p>
          <p>158 822 270 150 823 505 156 824 268</p>
          <p>156 825 268 150 826 505 154 827 504</p>
          <p>165 828 422 164 829 277 160 830 278</p>
          <p>160 831 278 169 832 423 165 833 422</p>
          <p>162 834 272 163 835 273 161 836 274</p>
          <p>161 837 274 168 838 275 162 839 272</p>
          <p>169 840 423 160 841 278 168 842 275</p>
          <p>168 843 275 161 844 274 169 845 423</p>
          <p>165 846 276 169 847 279 161 848 280</p>
          <p>161 849 280 163 850 281 165 851 276</p>
          <p>165 852 276 163 853 281 167 854 285</p>
          <p>166 855 282 162 856 283 168 857 284</p>
          <p>168 858 284 160 859 507 166 860 282</p>
          <p>166 861 282 160 862 507 164 863 506</p>
          <p>189 864 309 190 865 310 184 866 311</p>
          <p>184 867 311 200 868 312 189 869 309</p>
          <p>195 870 319 196 871 428 197 872 429</p>
          <p>197 873 429 191 874 322 195 875 319</p>
          <p>268 876 464 269 877 465 270 878 466</p>
          <p>270 879 466 271 880 467 268 881 464</p>
          <p>267 882 463 266 883 462 273 884 471</p>
          <p>273 885 471 272 886 470 267 887 463</p>
          <p>277 888 475 276 889 474 275 890 473</p>
          <p>275 891 473 274 892 472 277 893 475</p>
          <p>272 894 470 273 895 471 269 896 465</p>
          <p>269 897 465 268 898 464 272 899 470</p>
          <p>274 900 472 275 901 473 271 902 469</p>
          <p>271 903 469 270 904 468 274 905 472</p>
          <p>276 906 474 277 907 475 265 908 461</p>
          <p>265 909 461 264 910 460 276 911 474</p>
          <p>184 912 286 171 913 492 199 914 288</p>
          <p>199 915 288 200 916 289 184 917 286</p>
          <p>186 918 316 185 919 327 173 920 298</p>
          <p>173 921 298 183 922 302 186 923 316</p>
          <p>186 924 316 183 925 302 177 926 301</p>
          <p>177 927 301 187 928 313 186 929 316</p>
          <p>188 930 328 187 931 313 177 932 301</p>
          <p>177 933 301 181 934 293 188 935 328</p>
          <p>188 936 299 181 937 425 179 938 292</p>
          <p>179 939 292 189 940 300 188 941 299</p>
          <p>189 942 300 179 943 292 175 944 297</p>
          <p>175 945 297 190 946 305 189 947 300</p>
          <p>190 948 331 175 949 297 171 950 287</p>
          <p>171 951 287 184 952 332 190 953 331</p>
          <p>201 954 335 191 955 336 172 956 317</p>
          <p>172 957 317 198 958 337 201 959 335</p>
          <p>193 960 333 192 961 334 170 962 295</p>
          <p>170 963 295 174 964 294 193 965 333</p>
          <p>194 966 306 193 967 307 174 968 294</p>
          <p>174 969 294 178 970 291 194 971 306</p>
          <p>195 972 308 194 973 306 178 974 291</p>
          <p>178 975 291 180 976 424 195 977 308</p>
          <p>196 978 320 195 979 329 180 980 290</p>
          <p>180 981 290 176 982 304 196 983 320</p>
          <p>197 984 321 196 985 320 176 986 304</p>
          <p>176 987 304 182 988 303 197 989 321</p>
          <p>191 990 330 197 991 321 182 992 303</p>
          <p>182 993 303 172 994 296 191 995 330</p>
          <p>187 996 426 188 997 314 185 998 315</p>
          <p>185 999 315 186 1000 427 187 1001 426</p>
          <p>200 1002 289 199 1003 288 173 1004 318</p>
          <p>173 1005 318 185 1006 338 200 1007 289</p>
          <p>192 1008 339 201 1009 335 198 1010 337</p>
          <p>198 1011 337 170 1012 493 192 1013 339</p>
          <p>188 1014 314 189 1015 309 200 1016 312</p>
          <p>200 1017 312 185 1018 315 188 1019 314</p>
          <p>193 1020 323 194 1021 324 201 1022 325</p>
          <p>201 1023 325 192 1024 326 193 1025 323</p>
          <p>194 1026 324 195 1027 319 191 1028 322</p>
          <p>191 1029 322 201 1030 325 194 1031 324</p>
          <p>204 1032 340 202 1033 430 203 1034 431</p>
          <p>203 1035 431 205 1036 343 204 1037 340</p>
          <p>207 1038 344 203 1039 342 202 1040 341</p>
          <p>202 1041 341 206 1042 345 207 1043 344</p>
          <p>205 1044 343 203 1045 431 207 1046 346</p>
          <p>207 1047 346 209 1048 347 205 1049 343</p>
          <p>208 1050 348 204 1051 502 205 1052 503</p>
          <p>205 1053 503 209 1054 349 208 1055 348</p>
          <p>202 1056 430 204 1057 340 208 1058 350</p>
          <p>208 1059 350 206 1060 351 202 1061 430</p>
          <p>239 1062 352 240 1063 353 243 1064 354</p>
          <p>243 1065 354 238 1066 355 239 1067 352</p>
          <p>214 1068 356 210 1069 357 211 1070 366</p>
          <p>211 1071 366 215 1072 369 214 1073 356</p>
          <p>226 1074 358 225 1075 359 222 1076 360</p>
          <p>222 1077 360 221 1078 361 226 1079 358</p>
          <p>228 1080 362 227 1081 363 220 1082 364</p>
          <p>220 1083 364 219 1084 365 228 1085 362</p>
          <p>245 1086 437 246 1087 402 247 1088 403</p>
          <p>247 1089 403 244 1090 436 245 1091 437</p>
          <p>223 1092 394 211 1093 366 210 1094 357</p>
          <p>210 1095 357 218 1096 395 223 1097 394</p>
          <p>233 1098 396 234 1099 397 235 1100 398</p>
          <p>235 1101 398 236 1102 399 233 1103 396</p>
          <p>217 1104 370 226 1105 358 221 1106 361</p>
          <p>221 1107 361 213 1108 371 217 1109 370</p>
          <p>211 1110 434 223 1111 372 224 1112 373</p>
          <p>224 1113 373 215 1114 435 211 1115 434</p>
          <p>223 1116 372 222 1117 360 225 1118 359</p>
          <p>225 1119 359 224 1120 373 223 1121 372</p>
          <p>214 1122 432 229 1123 367 218 1124 368</p>
          <p>218 1125 368 210 1126 433 214 1127 432</p>
          <p>229 1128 367 228 1129 362 219 1130 365</p>
          <p>219 1131 365 218 1132 368 229 1133 367</p>
          <p>212 1134 374 220 1135 364 227 1136 363</p>
          <p>227 1137 363 216 1138 375 212 1139 374</p>
          <p>232 1140 377 231 1141 378 213 1142 371</p>
          <p>213 1143 371 221 1144 361 232 1145 377</p>
          <p>233 1146 379 232 1147 377 221 1148 361</p>
          <p>221 1149 361 222 1150 360 233 1151 379</p>
          <p>234 1152 380 233 1153 379 222 1154 360</p>
          <p>222 1155 360 223 1156 372 234 1157 380</p>
          <p>234 1158 397 223 1159 394 218 1160 395</p>
          <p>218 1161 395 235 1162 398 234 1163 397</p>
          <p>236 1164 376 235 1165 381 218 1166 368</p>
          <p>218 1167 368 219 1168 365 236 1169 376</p>
          <p>237 1170 382 236 1171 376 219 1172 365</p>
          <p>219 1173 365 220 1174 364 237 1175 382</p>
          <p>230 1176 383 237 1177 382 220 1178 364</p>
          <p>220 1179 364 212 1180 374 230 1181 383</p>
          <p>238 1182 355 233 1183 396 236 1184 399</p>
          <p>236 1185 399 239 1186 352 238 1187 355</p>
          <p>240 1188 385 239 1189 386 236 1190 376</p>
          <p>236 1191 376 237 1192 382 240 1193 385</p>
          <p>241 1194 387 240 1195 385 237 1196 382</p>
          <p>237 1197 382 230 1198 383 241 1199 387</p>
          <p>243 1200 384 242 1201 388 231 1202 378</p>
          <p>231 1203 378 232 1204 377 243 1205 384</p>
          <p>238 1206 389 243 1207 384 232 1208 377</p>
          <p>232 1209 377 233 1210 379 238 1211 389</p>
          <p>244 1212 400 243 1213 354 240 1214 353</p>
          <p>240 1215 353 245 1216 401 244 1217 400</p>
          <p>246 1218 391 245 1219 392 240 1220 385</p>
          <p>240 1221 385 241 1222 387 246 1223 391</p>
          <p>244 1224 390 247 1225 393 242 1226 388</p>
          <p>242 1227 388 243 1228 384 244 1229 390</p>
          <p>253 1230 445 9 1231 6 11 1232 405</p>
          <p>11 1233 405 254 1234 446 253 1235 445</p>
          <p>255 1236 447 10 1237 404 8 1238 5</p>
          <p>8 1239 5 252 1240 444 255 1241 447</p>
          <p>250 1242 442 1 1243 1 5 1244 11</p>
          <p>5 1245 11 257 1246 451 250 1247 442</p>
          <p>256 1248 450 4 1249 8 0 1250 9</p>
          <p>0 1251 9 251 1252 443 256 1253 450</p>
          <p>260 1254 454 12 1255 17 6 1256 18</p>
          <p>6 1257 18 259 1258 453 260 1259 454</p>
          <p>258 1260 452 7 1261 15 13 1262 16</p>
          <p>13 1263 16 261 1264 455 258 1265 452</p>
          <p>257 1266 451 5 1267 11 9 1268 6</p>
          <p>9 1269 6 253 1270 445 257 1271 451</p>
          <p>252 1272 444 8 1273 5 4 1274 8</p>
          <p>4 1275 8 256 1276 450 252 1277 444</p>
          <p>259 1278 453 6 1279 18 10 1280 4</p>
          <p>10 1281 4 255 1282 449 259 1283 453</p>
          <p>254 1284 448 11 1285 7 7 1286 15</p>
          <p>7 1287 15 258 1288 452 254 1289 448</p>
          <p>261 1290 455 13 1291 16 3 1292 12</p>
          <p>3 1293 12 249 1294 441 261 1295 455</p>
          <p>248 1296 440 2 1297 10 12 1298 17</p>
          <p>12 1299 17 260 1300 454 248 1301 440</p>
          <p>262 1302 456 28 1303 51 2 1304 31</p>
          <p>2 1305 31 248 1306 438 262 1307 456</p>
          <p>249 1308 439 3 1309 32 29 1310 2</p>
          <p>29 1311 2 263 1312 457 249 1313 439</p>
          <p>263 1314 457 29 1315 2 1 1316 490</p>
          <p>1 1317 490 250 1318 494 263 1319 457</p>
          <p>251 1320 495 0 1321 491 28 1322 51</p>
          <p>28 1323 51 262 1324 456 251 1325 495</p>
          <p>269 1326 465 179 1327 292 181 1328 425</p>
          <p>181 1329 425 270 1330 466 269 1331 465</p>
          <p>271 1332 467 180 1333 424 178 1334 291</p>
          <p>178 1335 291 268 1336 464 271 1337 467</p>
          <p>266 1338 462 171 1339 287 175 1340 297</p>
          <p>175 1341 297 273 1342 471 266 1343 462</p>
          <p>272 1344 470 174 1345 294 170 1346 295</p>
          <p>170 1347 295 267 1348 463 272 1349 470</p>
          <p>276 1350 474 182 1351 303 176 1352 304</p>
          <p>176 1353 304 275 1354 473 276 1355 474</p>
          <p>274 1356 472 177 1357 301 183 1358 302</p>
          <p>183 1359 302 277 1360 475 274 1361 472</p>
          <p>273 1362 471 175 1363 297 179 1364 292</p>
          <p>179 1365 292 269 1366 465 273 1367 471</p>
          <p>268 1368 464 178 1369 291 174 1370 294</p>
          <p>174 1371 294 272 1372 470 268 1373 464</p>
          <p>275 1374 473 176 1375 304 180 1376 290</p>
          <p>180 1377 290 271 1378 469 275 1379 473</p>
          <p>270 1380 468 181 1381 293 177 1382 301</p>
          <p>177 1383 301 274 1384 472 270 1385 468</p>
          <p>277 1386 475 183 1387 302 173 1388 298</p>
          <p>173 1389 298 265 1390 461 277 1391 475</p>
          <p>264 1392 460 172 1393 296 182 1394 303</p>
          <p>182 1395 303 276 1396 474 264 1397 460</p>
          <p>278 1398 476 198 1399 337 172 1400 317</p>
          <p>172 1401 317 264 1402 458 278 1403 476</p>
          <p>265 1404 459 173 1405 318 199 1406 288</p>
          <p>199 1407 288 279 1408 477 265 1409 459</p>
          <p>279 1410 477 199 1411 288 171 1412 492</p>
          <p>171 1413 492 266 1414 496 279 1415 477</p>
          <p>267 1416 497 170 1417 493 198 1418 337</p>
          <p>198 1419 337 278 1420 476 267 1421 497</p>
        </polygons>
      </mesh>
    </geometry>
  </library_geometries>
  <library_visual_scenes>
    <visual_scene id="RootNode" name="RootNode">
      <node id="tech_wall_theta_01" name="tech_wall_theta_01">
        <matrix sid="matrix">1.000000 0.000000 0.000000 0.000000 0.000000 1.000000 -0.000000 0.429195 0.000000 0.000000 1.880215 0.000000 0.000000 0.000000 0.000000 1.000000</matrix>
        <instance_geometry url="#tech_wall_theta_01-lib">
          <bind_material>
            <technique_common>
              <instance_material symbol="tech_wall_theta_01" target="#tech_wall_theta_01"/>
            </technique_common>
          </bind_material>
        </instance_geometry>
      </node>
    </visual_scene>
  </library_visual_scenes>
  <scene>
    <instance_visual_scene url="#RootNode"/>
  </scene>
</COLLADA>

