<?xml version="1.0" encoding="utf-8"?>
<COLLADA xmlns="http://www.collada.org/2005/11/COLLADASchema" version="1.4.1">
  <asset>
    <contributor>
      <author>Marcus</author>
      <authoring_tool>OpenCOLLADA for 3ds Max;  Version: 1.3.1;  Revision: 847M;  Platform: x64;  Configuration: Release_Max2011_static</authoring_tool>
      <source_data>file:///C:/Program%20Files/Autodesk/3ds%20Max%202009/sceneassets/scenes/Frictional_Games/Props/station_batch_12/module_ark_room_02_Asset_Files/module_ark_room_02_WIP_Files/module_ark_room_02/originals/module_ark_room_02.max</source_data>
    </contributor>
    <created>2014-01-08T20:25:38</created>
    <modified>2014-01-08T20:25:38</modified>
    <unit name="meter" meter="1"/>
    <up_axis>Z_UP</up_axis>
  </asset>
  <library_effects>
    <effect id="module_ark_room_02">
      <profile_COMMON>
        <newparam sid="module_ark_room_02_dds-surface">
          <surface type="2D">
            <init_from>module_ark_room_02_dds</init_from>
          </surface>
        </newparam>
        <newparam sid="module_ark_room_02_dds-sampler">
          <sampler2D>
            <source>module_ark_room_02_dds-surface</source>
          </sampler2D>
        </newparam>
        <newparam sid="module_ark_room_02_spec_dds-surface">
          <surface type="2D">
            <init_from>module_ark_room_02_spec_dds</init_from>
          </surface>
        </newparam>
        <newparam sid="module_ark_room_02_spec_dds-sampler">
          <sampler2D>
            <source>module_ark_room_02_spec_dds-surface</source>
          </sampler2D>
        </newparam>
        <newparam sid="module_ark_room_02_nrm_dds-surface">
          <surface type="2D">
            <init_from>module_ark_room_02_nrm_dds</init_from>
          </surface>
        </newparam>
        <newparam sid="module_ark_room_02_nrm_dds-sampler">
          <sampler2D>
            <source>module_ark_room_02_nrm_dds-surface</source>
          </sampler2D>
        </newparam>
        <technique sid="common">
          <blinn>
            <emission>
              <color>0 0 0 1</color>
            </emission>
            <ambient>
              <color>0.5882353 0.5882353 0.5882353 1</color>
            </ambient>
            <diffuse>
              <texture texture="module_ark_room_02_dds-sampler" texcoord="CHANNEL1"/>
            </diffuse>
            <specular>
              <color>0.9 0.9 0.9 1</color>
            </specular>
            <shininess>
              <float>9.999999</float>
            </shininess>
            <reflective>
              <color>0 0 0 1</color>
            </reflective>
            <transparent opaque="A_ONE">
              <color>1 1 1 1</color>
            </transparent>
            <transparency>
              <float>1</float>
            </transparency>
          </blinn>
          <extra>
            <technique profile="OpenCOLLADA3dsMax">
              <specularLevel>
                <texture texture="module_ark_room_02_spec_dds-sampler" texcoord="CHANNEL1"/>
              </specularLevel>
              <bump bumptype="HEIGHTFIELD">
                <texture texture="module_ark_room_02_nrm_dds-sampler" texcoord="CHANNEL1"/>
              </bump>
            </technique>
          </extra>
        </technique>
      </profile_COMMON>
      <extra>
        <technique profile="OpenCOLLADA3dsMax">
          <extended_shader>
            <apply_reflection_dimming>0</apply_reflection_dimming>
            <dim_level>0</dim_level>
            <falloff_type>0</falloff_type>
            <index_of_refraction>1.5</index_of_refraction>
            <opacity_type>0</opacity_type>
            <reflection_level>3</reflection_level>
            <wire_size>1</wire_size>
            <wire_units>0</wire_units>
          </extended_shader>
          <shader>
            <ambient_diffuse_lock>1</ambient_diffuse_lock>
            <ambient_diffuse_texture_lock>1</ambient_diffuse_texture_lock>
            <diffuse_specular_lock>0</diffuse_specular_lock>
            <soften>0.1</soften>
            <use_self_illum_color>1</use_self_illum_color>
          </shader>
        </technique>
      </extra>
    </effect>
  </library_effects>
  <library_materials>
    <material id="module_ark_room_02-material" name="module_ark_room_02">
      <instance_effect url="#module_ark_room_02"/>
    </material>
  </library_materials>
  <library_geometries>
    <geometry id="geom-module_ark_room_02" name="module_ark_room_02">
      <mesh>
        <source id="geom-module_ark_room_02-positions">
          <float_array id="geom-module_ark_room_02-positions-array" count="825">10.82067 1.08259e-8 0.9848018 8.61682 4.974924 0.3321266 4.974923 8.616821 0.3321266 -8.6965e-7 9.949848 0.3321266 -4.974926 8.616821 0.3321266 -8.616822 4.974925 0.3321266 -9.949849 1.51018e-6 0.3321266 -8.616822 -4.974922 0.3321266 -4.974928 -8.616821 0.3321266 -5.06054e-6 -9.949848 0.3321266 4.974919 -8.616825 0.3321266 9.370975 -5.410344 0.9848018 -9.12015 -15.79655 278.4238 -15.79656 -9.12014 278.4238 -18.24029 2.88296e-6 278.4238 -15.79655 9.120146 278.4238 -9.120146 15.79655 278.4238 -3.85284e-7 18.24029 278.4238 9.120143 15.79655 278.4238 15.79655 9.120145 278.4238 18.24029 1.28758e-7 278.4238 15.79655 -9.120155 278.4238 9.120135 -15.79656 278.4238 -8.06811e-6 -18.24029 278.4238 -9.12015 -15.79655 235.0552 -15.79656 -9.12014 235.0552 -18.24029 2.88296e-6 235.0552 -15.79655 9.120146 235.0552 -9.120146 15.79655 235.0552 -3.85284e-7 18.24029 235.0552 9.120143 15.79655 235.0552 15.79655 9.120145 235.0552 18.24029 1.28758e-7 235.0552 15.79655 -9.120155 235.0552 9.120135 -15.79656 235.0552 -8.06811e-6 -18.24029 235.0552 -9.12015 -15.79655 26.36169 -15.79655 -9.12014 26.36169 -18.24029 2.88296e-6 26.36169 -15.79655 9.120146 26.36169 -9.120145 15.79655 26.36169 -3.85284e-7 18.24029 26.36169 9.120144 15.79655 26.36169 15.79655 9.120144 26.36169 18.24029 1.28758e-7 26.36169 15.79655 -9.120155 26.36169 9.120135 -15.79656 26.36169 -8.06811e-6 -18.24029 26.36169 -9.120151 -15.79655 35.57742 -15.79656 -9.12014 35.57742 -18.24029 2.88296e-6 35.57742 -15.79655 9.120146 35.57742 -9.120145 15.79655 35.57742 -3.85284e-7 18.24029 35.57742 9.120144 15.79655 35.57742 15.79655 9.120144 35.57742 18.24029 1.28758e-7 35.57742 15.79655 -9.120155 35.57742 9.120135 -15.79656 35.57742 -8.06811e-6 -18.24029 35.57742 -8.41946e-6 -19.38862 268.2102 -9.694315 -16.79103 268.2102 -16.79104 -9.694304 268.2102 -16.79104 9.69431 268.2102 -9.69431 16.79104 268.2102 -2.52957e-7 19.38862 268.2102 9.694307 16.79104 268.2102 16.79104 9.694308 268.2102 19.38862 1.74388e-7 268.2102 16.79103 -9.694321 268.2102 9.694299 -16.79104 268.2102 -8.41946e-6 -19.38862 245.7934 -9.694315 -16.79103 245.7934 -16.79104 -9.694304 245.7934 -16.79104 9.69431 245.7934 -9.69431 16.79104 245.7934 -2.52957e-7 19.38862 245.7934 9.694307 16.79104 245.7934 16.79104 9.694308 245.7934 19.38862 1.74388e-7 245.7934 16.79103 -9.694321 245.7934 9.694299 -16.79104 245.7934 16.33255 1.28758e-7 299.788 18.02832 1.28758e-7 298.0923 15.61298 9.014159 298.0923 14.1444 8.166276 299.788 9.014158 15.61298 298.0923 8.166275 14.1444 299.788 -3.76019e-7 18.02832 298.0923 -3.01894e-7 16.33255 299.788 -9.01416 15.61298 298.0923 -8.166277 14.1444 299.788 -15.61298 9.01416 298.0923 -14.1444 8.166277 299.788 -18.02832 2.85096e-6 298.0923 -16.33255 2.5949e-6 299.788 -15.61298 -9.014154 298.0923 -14.14441 -8.166272 299.788 -9.014164 -15.61298 298.0923 -8.166281 -14.1444 299.788 -7.96956e-6 -18.02832 298.0923 -7.18118e-6 -16.33255 299.788 9.01415 -15.61299 298.0923 8.166267 -14.14441 299.788 14.1444 -8.166286 299.788 15.61298 -9.01417 298.0923 -15.74369 -9.089615 244.9216 -18.17924 2.87052e-6 244.9216 -15.74368 9.089621 244.9216 -9.089621 15.74368 244.9216 -3.94369e-7 18.17924 244.9216 9.089618 15.74368 244.9216 15.74368 9.08962 244.9216 18.17924 1.25534e-7 244.9216 15.74368 -9.08963 244.9216 9.08961 -15.74369 244.9216 -8.05148e-6 -18.17924 244.9216 -9.089624 -15.74368 244.9216 -14.67572 -8.473023 240.1503 -16.94606 2.6192e-6 240.1503 -14.67571 8.473029 240.1503 -8.473029 14.67571 240.1503 -5.77866e-7 16.94606 240.1503 8.473026 14.67571 240.1503 14.67571 8.473028 240.1503 16.94606 6.04123e-8 240.1503 14.67571 -8.473038 240.1503 8.473019 -14.67572 240.1503 -7.71556e-6 -16.94606 240.1503 -8.473033 -14.67571 240.1503 -17.42945 2.70711e-6 26.73759 -15.09435 8.714725 26.73759 -8.714725 15.09434 26.73759 -4.74142e-7 17.42945 26.73759 8.714724 15.09434 26.73759 15.09434 8.714724 26.73759 17.42945 7.53406e-8 26.73759 15.09434 -8.714735 26.73759 8.714714 -15.09435 26.73759 -7.81544e-6 -17.42945 26.73759 -8.714729 -15.09434 26.73759 -15.09435 -8.71472 26.73759 -17.42945 2.70711e-6 34.55771 -15.09435 8.714725 34.55771 -8.714725 15.09435 34.55771 -4.74142e-7 17.42945 34.55771 8.714724 15.09435 34.55771 15.09435 8.714724 34.55771 17.42945 7.53406e-8 34.55771 15.09434 -8.714735 34.55771 8.714716 -15.09435 34.55771 -7.81544e-6 -17.42945 34.55771 -8.714731 -15.09434 34.55771 -15.09435 -8.71472 34.55771 18.22968 1.28197e-7 268.6875 15.78737 9.114841 268.6875 9.11484 15.78737 268.6875 -3.86862e-7 18.22968 268.6875 -9.114842 15.78737 268.6875 -15.78737 9.114842 268.6875 -18.22968 2.8808e-6 268.6875 -15.78737 -9.114837 268.6875 -9.114846 -15.78736 268.6875 -8.06522e-6 -18.22968 268.6875 9.114832 -15.78737 268.6875 15.78736 -9.114852 268.6875 -14.68789 8.480057 272.8262 -8.480057 14.68789 272.8262 -5.75775e-7 16.96011 272.8262 8.480053 14.68789 272.8262 14.68789 8.480055 272.8262 14.68788 -8.480064 272.8262 8.480047 -14.68789 272.8262 -7.71939e-6 -16.96011 272.8262 -8.48006 -14.68788 272.8262 16.96011 6.11546e-8 272.8262 -14.68789 -8.480051 272.8262 -16.96011 2.62206e-6 272.8262 -19.30916 3.09944e-6 268.2102 -19.30916 3.09944e-6 245.7934 9.949847 7.79278e-9 0.3321266 9.370979 5.410338 0.9848018 5.410336 9.37098 0.9848019 -8.86484e-7 10.82068 0.9848019 -5.410339 9.37098 0.9848019 -9.370981 5.410339 0.9848019 -10.82068 1.6447e-6 0.9848019 -9.370981 -5.410336 0.9848019 -5.410342 -9.370979 0.9848019 -5.44416e-6 -10.82068 0.9848019 5.410332 -9.370984 0.9848019 8.616817 -4.974929 0.3321266 4.264647 18.16636 35.46898 -4.537558 17.98353 35.67482 4.499084 18.45466 41.60194 -4.301566 18.721 41.7837 4.25242 15.12811 34.9277 -4.548185 15.15394 35.1637 4.488419 15.12742 42.57352 -4.312186 15.15325 42.80952 -4.537507 18.75524 38.47217 4.264647 18.9812 38.51353 -4.548185 15.15395 42.57352 -0.01851632 18.53336 35.46898 -0.01851661 19.06285 41.7837 -0.0298828 15.14068 42.80952 -0.0298828 15.14068 34.9277 -0.01851584 19.3482 38.51353 4.499046 17.957 35.67482 -4.301567 18.19152 35.46898 4.264647 18.69585 41.7837 -4.537519 18.48119 41.60194 4.488419 15.12742 35.1637 -4.312186 15.15325 34.9277 4.25242 15.12811 42.80952 -4.301566 19.00636 38.51353 4.499097 18.72871 38.47217 -2.203028 16.49306 35.6684 -2.203028 16.86041 35.66841 -2.203029 17.42892 35.6684 -1.640692 17.81284 35.6684 -2.203028 16.49306 26.38104 -2.203028 16.86041 26.38104 -2.203029 17.42892 26.38104 -1.640693 17.81285 26.38104 1.665146 17.80314 26.38104 2.225219 17.41593 26.38104 2.219723 16.48008 26.38104 2.225219 17.41593 35.6684 1.665145 17.80314 35.6684 2.219724 16.48008 35.6684 -17.17444 1.627376 222.6423 -22.13155 3.00684 219.0706 -16.97468 3.00684 221.0526 -20.14957 3.00684 221.0526 -23.77596 1.627376 219.7291 -20.86273 1.627376 222.6423 -23.78543 -1.598881 219.7291 -22.14915 -2.987975 219.0706 -20.87225 -1.615984 222.6423 -17.18405 -1.647817 222.6423 -16.99239 -3.028431 221.0526 -20.1672 -2.999611 221.0526 -23.77592 1.627379 102.2173 -22.13152 3.006843 102.8758 -20.86269 1.62738 99.30404 -17.1744 1.62738 99.30405 -16.97464 3.006844 100.8938 -20.14954 3.006843 100.8938 -23.78539 -1.598877 102.2173 -22.14911 -2.987972 102.8758 -20.87221 -1.61598 99.30404 -20.16717 -2.999607 100.8938 -16.99236 -3.028428 100.8938 -17.18402 -1.647814 99.30405 -4.200819 18.83574 278.8996 -4.200819 20.74436 272.5571 4.217599 20.7095 272.5571 4.613814 14.91219 272.5571 -4.630637 14.93758 272.5571 -4.200819 20.74436 256.5906 -4.630637 14.93758 256.5906 4.217598 18.80087 234.2817 -4.200819 20.74435 240.6241 -4.630637 14.93757 240.6241 4.613814 14.91218 240.6241 4.613814 14.91218 256.5906 4.657868 14.91274 278.8617 -4.662667 14.937 278.8617 4.217598 18.80088 278.8996 4.217599 20.7095 256.5906 -4.418126 14.93699 234.0566 4.413326 14.91273 234.0566 -4.200819 18.83573 234.2817 4.217598 20.70949 240.6241</float_array>
          <technique_common>
            <accessor source="#geom-module_ark_room_02-positions-array" count="275" stride="3">
              <param name="X" type="float"/>
              <param name="Y" type="float"/>
              <param name="Z" type="float"/>
            </accessor>
          </technique_common>
        </source>
        <source id="geom-module_ark_room_02-normals">
          <float_array id="geom-module_ark_room_02-normals-array" count="945">0.9598166 -1.87236e-7 -0.2806281 0.8312255 0.4799083 -0.2806281 0.8018996 0.4629769 0.3776368 0.9259542 -4.59919e-8 0.3776357 0.4799083 0.8312255 -0.2806281 0.4629769 0.8018996 0.3776366 -2.34045e-9 0.9598165 -0.2806281 2.56494e-8 0.9259539 0.3776366 -0.4799083 0.8312256 -0.2806281 -0.4629769 0.8018997 0.3776366 -0.8312255 0.4799083 -0.280628 -0.8018997 0.4629771 0.3776364 -0.9598166 -2.80854e-8 -0.2806281 -0.9259539 4.86453e-8 0.3776366 -0.8312257 -0.479908 -0.2806281 -0.8018997 -0.4629767 0.3776367 -0.4799086 -0.8312253 -0.2806281 -0.4629773 -0.8018994 0.3776364 -4.1192e-7 -0.9598165 -0.2806281 -3.73684e-7 -0.9259539 0.3776365 0.4799078 -0.8312258 -0.2806281 0.4629764 -0.8018998 0.3776369 0.8312253 -0.4799086 -0.2806282 0.8018994 -0.4629772 0.3776368 0.3133431 -0.1809088 -0.932249 0.1809086 -0.3133432 -0.932249 0.1809087 0.313343 -0.932249 0.313343 0.1809087 -0.932249 0.805587 0.4651059 0.3670231 0.9302118 -1.29775e-7 0.3670231 0.9944908 -1.30982e-7 -0.1048246 0.8612541 0.4972456 -0.104825 0.4651059 0.8055871 0.3670231 0.4972453 0.8612542 -0.1048252 1.67452e-8 0.9302118 0.3670231 1.46095e-7 0.9944907 -0.1048247 -0.4651059 0.8055871 0.3670231 -0.4972454 0.8612541 -0.104825 -0.805587 0.4651059 0.3670231 -0.8612542 0.4972454 -0.1048251 -0.9302118 1.06053e-7 0.3670231 -0.9944907 2.06548e-7 -0.1048247 -0.8055872 -0.4651057 0.3670231 -0.8612543 -0.4972451 -0.1048244 -0.4651062 -0.8055869 0.3670231 -0.4972457 -0.8612541 -0.1048245 -3.85139e-7 -0.9302118 0.3670231 -4.18135e-7 -0.9944908 -0.1048246 0.4651054 -0.8055873 0.3670232 0.4972449 -0.8612545 -0.1048245 0.8055869 -0.4651063 0.3670231 0.8612539 -0.4972458 -0.1048244 0.8660232 0.499999 -0.00217797 0.9999977 2.42989e-8 -0.002178903 0.9925778 -3.40619e-8 0.1216112 0.8595975 0.496289 0.1216116 0.4999989 0.8660233 -0.002177947 0.4962889 0.8595976 0.1216116 2.55139e-8 0.9999977 -0.002177969 -2.01849e-8 0.9925778 0.1216115 -0.499999 0.8660232 -0.002178043 -0.4962889 0.8595976 0.1216116 -0.8660232 0.499999 -0.002177934 -0.8595976 0.4962889 0.1216116 -0.9999976 1.76167e-7 -0.002177947 -0.9925778 3.53235e-8 0.1216115 -0.8660235 -0.4999987 -0.00217808 -0.8595977 -0.4962887 0.1216116 -0.4999993 -0.8660231 -0.002177899 -0.4962892 -0.8595974 0.1216116 -4.471e-7 -0.9999977 -0.002177951 -3.48189e-7 -0.9925778 0.1216115 0.4999984 -0.8660236 -0.002178007 0.4962884 -0.8595978 0.1216116 0.866023 -0.4999994 -0.002177894 0.8595973 -0.4962894 0.1216115 0.7037801 0.4063276 0.5827447 0.8126559 -3.19674e-8 0.5827439 0.4063277 0.7037802 0.5827446 3.99593e-8 0.8126554 0.5827446 -0.4063278 0.7037803 0.5827444 -0.7037804 0.4063277 0.5827444 -0.8126554 3.19674e-8 0.5827445 -0.7037804 -0.4063275 0.5827444 -0.4063279 -0.7037801 0.5827447 -2.95699e-7 -0.8126554 0.5827445 0.4063271 -0.7037804 0.5827448 0.7037799 -0.4063281 0.5827448 0.6092935 0.3517759 0.7106442 0.7035514 -2.78415e-7 0.7106444 0.8555898 -1.18294e-7 0.5176543 0.7409625 0.4277948 0.5176545 0.3517757 0.6092936 0.7106442 0.4277948 0.7409625 0.5176545 1.60721e-7 0.7035514 0.7106444 -1.2618e-8 0.8555898 0.5176544 -0.3517758 0.6092936 0.7106441 -0.4277947 0.7409625 0.5176545 -0.6101136 0.3510798 0.7102847 -0.7428111 0.4251944 0.5171474 -0.3517758 -0.6092929 0.7106447 -0.6101133 -0.3510796 0.710285 -0.7428112 -0.4251942 0.5171473 -0.4277951 -0.7409623 0.5176545 -2.75884e-7 -0.7035514 0.7106445 -3.15451e-7 -0.8555899 0.5176542 0.3517753 -0.6092935 0.7106445 0.4277944 -0.7409627 0.5176544 0.6092929 -0.3517759 0.7106447 0.7409622 -0.4277953 0.5176545 0.9039475 -1.37472e-7 -0.4276436 0.7828414 0.4519736 -0.4276438 0.4519735 0.7828414 -0.4276439 4.6799e-8 0.9039475 -0.4276435 -0.4519736 0.7828413 -0.4276439 -0.7844421 0.4501143 -0.4266706 -0.7846525 -0.4491732 -0.4272749 -0.4519739 -0.7828413 -0.4276439 -3.94866e-7 -0.9039474 -0.4276435 0.4519731 -0.7828417 -0.4276436 0.7828411 -0.451974 -0.4276439 0.612373 0.3535537 0.7071061 0.7071076 -8.6425e-8 0.7071059 0 0 1 0 0 1 0 0 1 0.3535537 0.6123731 0.7071061 2.59275e-8 0.7071075 0.7071061 -0.3535538 0.6123731 0.7071061 -0.6123731 0.3535538 0.7071061 -0.7071075 1.0371e-7 0.707106 -0.6123732 -0.3535537 0.707106 -0.353554 -0.6123729 0.7071061 -3.19773e-7 -0.7071076 0.707106 0.3535534 -0.6123732 0.7071062 0.6123729 -0.3535541 0.7071061 -0.9093933 -9.65633e-4 -0.4159361 -0.8602319 1.8705e-8 0.5099028 -0.7141306 1.0581e-7 0.7000125 0.6979576 0.4029661 -0.592008 0.8059323 -1.08233e-7 -0.5920078 0.402966 0.6979577 -0.592008 9.80859e-8 0.8059324 -0.5920075 -0.4029661 0.6979576 -0.592008 -0.6979577 0.4029661 -0.5920081 -0.8163752 -0.001453343 -0.5775201 -0.6990702 -0.4019738 -0.5913697 -0.4029662 -0.6979576 -0.5920079 -3.96341e-7 -0.8059324 -0.5920075 0.4029658 -0.6979581 -0.5920077 0.6979575 -0.4029664 -0.5920081 0.8119411 0.4687744 -0.3478537 0.9375489 -1.719e-7 -0.3478535 0.4687743 0.8119411 -0.3478537 3.65287e-8 0.9375489 -0.3478536 -0.4687744 0.8119413 -0.3478535 -0.8119412 0.4687743 -0.3478536 -0.9375489 1.20944e-7 -0.3478536 -0.8119413 -0.4687741 -0.3478536 -0.4687748 -0.8119409 -0.3478536 -3.67128e-7 -0.9375489 -0.3478536 0.468774 -0.8119415 -0.3478535 0.8119409 -0.4687748 -0.3478537 0.8222716 0.4747386 -0.3138353 0.9494774 -1.6891e-7 -0.3138353 0.4747387 0.8222716 -0.3138352 5.44872e-9 0.9494776 -0.3138352 -0.4747387 0.8222717 -0.3138351 -0.8222716 0.4747387 -0.3138352 -0.9494774 1.30769e-7 -0.3138354 -0.8222717 -0.4747385 -0.3138353 -0.474739 -0.8222715 -0.3138352 -3.86859e-7 -0.9494774 -0.3138353 0.4747382 -0.8222719 -0.3138351 0.8222714 -0.4747391 -0.3138353 0.8653983 0.4996383 0.03804385 0.999276 -3.50233e-7 0.03804586 0.4996378 0.8653985 0.03804382 3.67258e-7 0.9992759 0.03804602 -0.4996382 0.8653983 0.03804384 -0.8653985 0.4996379 0.03804379 -0.999276 3.23479e-7 0.03804589 -0.8653985 -0.4996378 0.03804566 -0.4996383 -0.8653982 0.03804564 -4.40223e-7 -0.999276 0.03804573 0.4996375 -0.8653986 0.03804567 0.8653982 -0.4996384 0.03804555 0.5997379 -1.10795e-7 -0.8001965 0.3618174 -8.69875e-8 -0.932249 0.5193883 0.2998689 -0.8001965 0.299869 0.5193884 -0.8001964 -5.11691e-9 0.3618174 -0.932249 -2.76989e-9 0.599738 -0.8001964 -0.1809087 0.313343 -0.932249 -0.299869 0.5193884 -0.8001964 -0.313343 0.1809087 -0.932249 -0.5193883 0.299869 -0.8001964 -0.3618174 -1.02338e-8 -0.932249 -0.5997381 1.10795e-8 -0.8001964 -0.3133431 -0.1809086 -0.9322491 -0.5193886 -0.2998689 -0.8001964 -0.1809089 -0.3133432 -0.9322489 -0.2998694 -0.5193885 -0.8001962 -1.53507e-7 -0.3618173 -0.932249 -2.75604e-7 -0.599738 -0.8001964 0.2998688 -0.5193886 -0.8001963 0.5193883 -0.2998692 -0.8001963 0 0 1 0 0 1 0 0 1 0 0 1 0 0 1 0 0 1 0 0 1 0 0 1 0 0 1 0.002029643 0.6873354 -0.7263373 0.002878825 0.9962612 -0.08634445 0.4211162 0.9039686 -0.07417511 0.4098659 0.6089068 -0.6791483 0.3677069 0.1573613 -0.916531 4.62473e-4 0.157549 -0.9875111 -0.9024068 0.2842235 -0.3238504 -0.9053526 0.07877667 -0.41729 -0.8917174 0.1276952 0.434205 -0.9123025 0.4070262 -0.04509699 -0.3536581 0.2530165 0.9005046 7.42757e-4 0.2530323 0.9674576 0.002282382 0.7794946 0.6264047 -0.4117679 0.6980711 0.5857849 0.9054161 0.3208559 0.2779803 0.8918263 0.1241787 0.4350005 0.9140506 0.4029323 -0.04644437 -0.4154426 0.9066643 -0.07326205 -0.9034916 0.3271719 0.2768783 0.9061396 0.07084872 -0.4170028 0.9043124 0.280727 -0.3215764 -0.4052359 0.6107731 -0.6802499 -0.3675291 0.1609429 -0.9159802 0.3557731 0.2520989 0.8999287 0.4163694 0.6951533 0.5860021 -0.8842649 0.4669857 8.74958e-9 -1 -9.45402e-7 -1.25125e-8 -1 -4.27531e-7 1.23361e-8 -0.8842646 0.4669863 1.37547e-7 -0.2936564 0.955911 2.2647e-7 -0.2936576 0.9559107 3.62859e-8 -1 -1.63347e-8 -6.46086e-10 -1 -6.49034e-7 -2.56712e-8 0.9999828 -0.005871437 -2.76999e-9 0.9999828 -0.005871666 -2.56709e-8 0.8869905 0.4617877 8.18884e-8 0.8869907 0.4617873 3.91845e-8 0.2992633 0.9541705 8.60997e-8 0.2992637 0.9541704 1.1842e-7 -0.3517978 0.3989941 0.8467833 3.75366e-6 0.4275813 0.9039768 1.75904e-6 0.7552919 0.6553885 -0.2331995 0.7838253 0.5755309 -0.5669449 0.7889415 0.2369489 -0.8457494 0.4028387 0.3498985 -0.3546104 -0.3966068 0.8467317 -0.2388565 -0.7824565 0.5750734 -0.006632809 -0.7555311 0.6550792 -0.003692562 -0.4282457 0.9036548 -0.8480998 -0.3978665 0.3498985 -0.571567 -0.7855994 0.2369489 -0.3517981 0.3989936 -0.8467835 -0.2331996 0.7838241 -0.5755325 8.42822e-7 0.7552916 -0.655389 1.86992e-6 0.4275812 -0.9039769 -0.8457491 0.4028384 -0.3498994 -0.5669453 0.7889412 -0.2369491 9.00903e-8 1 2.97556e-8 -1.20013e-7 1 2.97629e-8 -1.40175e-7 1 2.94248e-8 2.87264e-8 1 2.87264e-8 -0.3546106 -0.3966061 -0.8467318 -0.003694429 -0.4282454 -0.9036549 -0.006633722 -0.7555305 -0.6550798 -0.2388565 -0.7824554 -0.575075 -0.571567 -0.7855994 -0.2369491 -0.8480996 -0.397866 -0.3498995 -0.008008502 -0.9999679 -3.03965e-8 -0.005870638 -0.9999828 -3.03642e-8 -0.005870579 -0.9999828 -3.13396e-8 -0.008008529 -0.9999679 -3.19231e-8 -2.25285e-7 1 2.97629e-8 -2.25285e-7 1 2.97629e-8 -0.009077489 -0.9999588 -3.21803e-8 -0.009077421 -0.9999588 -3.03712e-8 -3.60193e-5 -0.009726268 0.9999527 -2.53812e-5 -0.009750717 0.9999525 0.5531516 0.5079451 0.6603144 -0.5591378 0.5083781 0.6549174 0.6516523 0.7511327 0.1055882 -0.6487135 0.7530088 0.1102193 0.6840855 0.7294017 -1.99833e-7 -0.6789894 0.7341481 -1.76574e-7 2.16331e-4 0.05768031 -0.9983351 -0.5721141 0.516393 -0.6371999 0.5800707 0.5110023 -0.6343458 1.58803e-4 0.05780844 -0.9983277 0.6545479 0.7477908 -0.1112473 -0.6487135 0.7530088 -0.1102197 0.9957012 0.09147107 0.01457038 0.9976665 0.06818511 -0.003489067 -0.9966478 0.08156832 0.006302808 -0.9930382 0.1176852 -0.005034333 0.9976727 0.06818554 -2.8188e-8 -0.9972717 0.07381797 -1.98411e-8 0.9975572 0.06817782 -0.01520941 0.9979846 0.05929768 -0.02259618 -0.9978242 0.05748116 -0.03229246 -0.9973967 0.07095158 -0.01286831</float_array>
          <technique_common>
            <accessor source="#geom-module_ark_room_02-normals-array" count="315" stride="3">
              <param name="X" type="float"/>
              <param name="Y" type="float"/>
              <param name="Z" type="float"/>
            </accessor>
          </technique_common>
        </source>
        <source id="geom-module_ark_room_02-map1">
          <float_array id="geom-module_ark_room_02-map1-array" count="990">0 0.1046945 0 0 0.05076879 0 0 -1.27625e-7 0 0 0.6228647 0 0 0.5692289 0 0 0.5129374 0 0 0.4552704 0 0 0.3962618 0 0.08273987 0.3962618 0 0 0.3367255 0 0 0.2184496 0 0 0.1605004 0 0.08273987 0.6228647 0 0.752098 0.7994673 0 0.7523295 0.7361595 0 0.7637908 0.7131186 0 0.7633893 0.8228461 0 0.7446845 0.7677016 0 0.748089 0.7677523 0 0.749121 0.8028064 0 0.7616393 0.8287579 0 0.7789422 0.8315839 0 0.7789172 0.8384759 0 0.7945576 0.8233065 0 0.7962641 0.82927 0 0.8060189 0.8002654 0 0.8089707 0.8036929 0 0.8102593 0.7686725 0 0.8136638 0.7687232 0 0.8062504 0.7369577 0 0.8092273 0.7336186 0 0.7949589 0.7135793 0 0.7967089 0.7076672 0 0.779406 0.7048413 0 0.7794311 0.6979489 0 0.7620843 0.7071551 0 0.7493775 0.7327319 0 0.9255005 0.3367255 0 0.9903206 0.3367255 0 0.9255005 0.4552704 0 0.9903206 0.4552704 0 0.9255005 0.5692289 0 0.9255005 -1.27625e-7 0 0.9903206 0.5692289 0 0.9903206 -1.27625e-7 0 0.9903206 0.05076879 0 0.9255005 0.05076879 0 0.9255005 0.1605004 0 0.9903206 0.1605004 0 0.9255005 0.2768931 0 0.7752461 0.3367255 0 0.7923484 0.3367255 0 0.7752461 0.4552704 0 0.7752461 0.5129374 0 0.7923484 0.5129374 0 0.7752461 0.6228647 0 0.7923484 0.6228647 0 0.7752461 -1.27625e-7 0 0.7923484 -1.27625e-7 0 0.7752461 0.05076879 0 0.7752461 0.1605004 0 0.7923484 0.1605004 0 0.7752461 0.2774077 0 0.08273987 0.4552704 0 0 0.672848 0 0.08273987 0.3367255 0 0.08273987 0.5129374 0 0.08273987 0.5692289 0 0.08273987 -1.27625e-7 0 0.08340041 0.05076879 0 0.08273987 0.1046945 0 0.08273987 0.1605004 0 0.08273987 0.2184496 0 0.08273987 0.672848 0 0.1137971 0.3367255 0 0.1194427 0.3367255 0 0.7923484 0.4552704 0 0.1137971 0.5129374 0 0.1194427 0.5129374 0 0.7923484 0.672848 0 0.7752461 0.672848 0 0.1137971 -1.27625e-7 0 0.1194427 -1.27625e-7 0 0.7923484 0.05076879 0 0.1137971 0.1605004 0 0.1194427 0.1605004 0 0.7923484 0.2773342 0 0.887574 0.05076879 0 0.8918703 0.05076879 0 0.8918703 0.1046945 0 0.887574 0.1046945 0 0.81364 -1.27625e-7 0 0.887574 -1.27625e-7 0 0.9255005 0.672848 0 0.81364 0.05076879 0 0.81364 0.6228647 0 0.887574 0.672848 0 0.8918703 0.672848 0 0.887574 0.6228647 0 0.9903206 0.672848 0 0.81364 0.1046945 0 0.808486 0.1046945 0 0.808486 0.05076879 0 0.81364 0.5692289 0 0.887574 0.5692289 0 0.08702532 0.05076879 0 0.08702532 0.1046945 0 0.81364 0.672848 0 0.808486 0.672848 0 0.9064203 0.672848 0 0.9980846 0.05076879 0 0.9980846 0.1046945 0 0.9903206 0.1046945 0 0.9903206 0.6228647 0 0.9255005 0.6228647 0 0.9980846 0.6228647 0 0.9980846 0.672848 0 0.9980846 -1.27625e-7 0 0.9980846 0.1605004 0 0.9903206 0.5129374 0 0.9255005 0.5129374 0 0.9980846 0.5129374 0 0.9980846 0.5692289 0 0.9903206 0.3962618 0 0.9255005 0.3962618 0 0.9980846 0.3962618 0 0.9980846 0.4552704 0 0.9903206 0.2768196 0 0.9980846 0.3367255 0 0.9980846 0.2766725 0 0.9903206 0.2184496 0 0.9980846 0.2184496 0 0.1194427 0.05076879 0 0.9255005 0.2184496 0 0.1137971 0.05076879 0 0.1194427 0.5692289 0 0.1137971 0.5692289 0 0.7923484 0.3962618 0 0.7923484 0.5692289 0 0.7752461 0.5692289 0 0.808486 0.6228647 0 0.808486 0.5692289 0 0.7923484 0.2184496 0 0.7752461 0.2184496 0 0.81364 0.5129374 0 0.7752461 0.3962618 0 0.808486 0.3367255 0 0.808486 0.5129374 0 0.8918703 -1.27625e-7 0 0.808486 -1.27625e-7 0 0.7923484 0.1046945 0 0.808486 0.1605004 0 0.808486 0.2184496 0 0.808486 0.3962618 0 0.08702532 -1.27625e-7 0 0.08702532 0.6228647 0 0.08702532 0.5692289 0 0.08702532 0.5129374 0 0.08702532 0.4552704 0 0.08702532 0.3962618 0 0.1194427 0.3962618 0 0.1137971 0.3962618 0 0.1194427 0.2184496 0 0.1137971 0.2184496 0 0.7752461 0.1046945 0 0.9064203 -1.27625e-7 0 0.8918703 0.3367255 0 0.9064203 0.3367255 0 0.8918703 0.6228647 0 0.8918703 0.1605004 0 0.9064203 0.1605004 0 0.9255005 0.1046945 0 0.9064203 0.05076879 0 0.9064203 0.6228647 0 0.8918703 0.5692289 0 0.9064203 0.5692289 0 0.8918703 0.4552704 0 0.9064203 0.4552704 0 0.9064203 0.5129374 0 0.8918703 0.5129374 0 0.9064203 0.3962618 0 0.8918703 0.3962618 0 0.9064203 0.2184496 0 0.8918703 0.2184496 0 0.81364 0.2771872 0 0.887574 0.2771136 0 0.887574 0.3367255 0 0.81364 0.3367255 0 0.81364 0.2184496 0 0.887574 0.2184496 0 0.81364 0.1605004 0 0.887574 0.1605004 0 0.808486 0.2772607 0 0.8918703 0.2770402 0 0.9064203 0.2769666 0 0.08702532 0.2776282 0 0.1137971 0.2775548 0 0.08702532 0.3367255 0 0.08702532 0.2184496 0 0.08702532 0.1605004 0 0.1194427 0.2774813 0 0.887574 0.5129374 0 0.887574 0.3962618 0 0.8848301 0.8103185 0 0.8916913 0.758568 0 0.8917109 0.8620588 0 0.9360948 0.7067891 0 0.9617401 0.7206348 0 0.9617748 0.8998867 0 0.9361356 0.9137707 0 0.9104556 0.7206737 0 0.9104903 0.8999252 0 0.9805194 0.7585014 0 0.9805393 0.8619922 0 0.9874004 0.8102418 0 0.887574 0.4552704 0 0.1137971 0.1046945 0 0.81364 0.4552704 0 0.808486 0.4552704 0 0.81364 0.3962618 0 0.1194427 0.1046945 0 0.1137971 0.6228647 0 0.1137971 0.672848 0 0.08702532 0.672848 0 0.1194427 0.6228647 0 0.1194427 0.672848 0 0 0.2777753 0 0.08273987 0.2777018 0 0.9064203 0.1046945 0 0.1137971 0.4552704 0 0.1194427 0.4552704 0 0.4544783 0.7905172 0 0.4542303 0.7884248 0 0.4629297 0.783312 0 0.4639979 0.7848722 0 0.4517391 0.7411728 0 0.4519516 0.7390721 0 0.4637956 0.7435486 0 0.4626178 0.7452975 0 0.5029212 0.7384744 0 0.5031222 0.7405722 0 0.4923312 0.7453197 0 0.4638776 0.7650616 0 0.4911931 0.7848765 0 0.4775824 0.7841448 0 0.4643945 0.7646688 0 0.4775434 0.7645259 0 0.4907095 0.7646675 0 0.4775081 0.7441962 0 0.4913122 0.8049122 0 0.477548 0.8057156 0 0.4911978 0.7435853 0 0.4637505 0.7194209 0 0.4912678 0.7651038 0 0.4637866 0.8047874 0 0.4775333 0.7188041 0 0.501019 0.7881625 0 0.4922854 0.7832589 0 0.5007537 0.7903519 0 0.4913144 0.7195292 0 0.8354922 0.757553 0 0.8354922 0.7516228 0 0.864664 0.7516228 0 0.864664 0.757553 0 0.864664 0.7871201 0 0.8354922 0.7871201 0 0.8354922 0.7828107 0 0.8646641 0.7828107 0 0.8646641 0.7618647 0 0.8354922 0.7618647 0 0.864664 0.7907194 0 0.8354922 0.7907194 0 0.864664 0.7930464 0 0.8354922 0.7930463 0 0.03521387 0.7557451 0 0.4092509 0.7557452 0 0.4092551 0.7764421 0 0.03521004 0.7764423 0 0.4223649 0.7764687 0 0.4223436 0.7556577 0 0.02212213 0.7556584 0 0.02210106 0.7764695 0 0.4193065 0.7952668 0 0.4202312 0.8194455 0 0.413441 0.8218279 0 0.4131493 0.8017678 0 0.4340675 0.755454 0 0.4340981 0.7764693 0 0.4193051 0.7369335 0 0.4131498 0.7304188 0 0.4134392 0.7103561 0 0.4202264 0.7127582 0 0.4068584 0.7897007 0 0.02515697 0.7952648 0 0.03131365 0.8017676 0 0.01036811 0.7764702 0 0.4068576 0.7424853 0 0.0251574 0.736936 0 0.02423428 0.7127606 0 0.01039869 0.7554549 0 0.03102104 0.8218277 0 0.02423066 0.8194436 0 0.03760586 0.7897011 0 0.03102171 0.7103562 0 0.03131212 0.730419 0 0.03760592 0.7424848 0 0.6857927 0.7438328 0 0.7061644 0.7421601 0 0.7184399 0.7965031 0 0.7061812 0.7972494 0 0.6858006 0.7955116 0 0.6877772 0.831165 0 0.6361108 0.7425489 0 0.6361112 0.7968277 0 0.6877199 0.708059 0 0.5537355 0.7411133 0 0.5660565 0.7421864 0 0.5660415 0.7972764 0 0.5537833 0.7965338 0 0.5864291 0.7438502 0 0.5864214 0.7955289 0 0.7069766 0.7156605 0 0.7079448 0.8223585 0 0.636113 0.8341496 0 0.7184849 0.7410804 0 0.5642808 0.8223879 0 0.636109 0.7051584 0 0.5844489 0.8311847 0 0.565242 0.7156885 0 0.584498 0.7080786 0</float_array>
          <technique_common>
            <accessor source="#geom-module_ark_room_02-map1-array" count="330" stride="3">
              <param name="S" type="float"/>
              <param name="T" type="float"/>
              <param name="P" type="float"/>
            </accessor>
          </technique_common>
        </source>
        <source id="geom-module_ark_room_02-map1-textangents">
          <float_array id="geom-module_ark_room_02-map1-textangents-array" count="1026">0.2796412 0.04677135 0.956441 0.2187907 0.1803257 0.956441 -0.1964845 -0.2277438 0.6964389 -0.2840319 -0.0989898 0.6964396 0.1403141 0.2430311 0.9598166 -0.1049981 -0.2754048 0.7135398 0.07881611 0.2768275 0.9547532 -0.04677133 0.2796412 0.956441 0.09898965 -0.2840324 0.6964391 -0.007578862 -0.3155434 0.6793383 -0.1803257 0.2187907 0.956441 0.2277435 -0.1964845 0.6964391 -0.243031 0.1403141 0.9598166 0.2804756 -0.0871042 0.7023702 -0.2796411 0.04677139 0.956441 0.2840323 0.05221842 0.696439 -0.241749 -0.1395738 0.9547532 0.197684 0.2188932 0.6881356 -0.09939015 -0.265523 0.9564532 0.05455795 0.2962223 0.6959064 0.04654359 -0.2796411 0.9564409 -0.1032404 0.2840208 0.6964109 0.1803257 -0.2187908 0.956441 -0.2278058 0.1964501 0.6964415 0.2655621 -0.09931557 0.9564409 -0.2954743 0.05628859 0.6964391 -0.9145488 -0.06086063 -0.2955834 -0.9696369 -0.05483658 -0.1697325 -0.9620524 0.03201834 -0.1759304 -0.9076538 0.01618622 -0.3019351 -0.2952746 -0.1692325 0.8625626 -0.3356377 7.69811e-4 0.8506663 0.1040457 -0.01947697 0.9871019 0.09984514 0.03515558 0.9871018 -0.24597 -0.2465618 0.8528867 0.08417012 0.07147095 0.9864793 -0.05982352 -0.3375934 0.8556231 -0.1698763 -0.2942345 0.8610957 0.05361144 0.08926552 0.9877242 0.01947705 0.1040458 0.9871018 0.116988 -0.3222763 0.8556231 -0.03515551 0.09984512 0.9871018 0.2624528 -0.2206055 0.855623 -0.08036821 0.06889071 0.9871017 0.3375935 -0.05982357 0.8556231 -0.1040458 0.01947703 0.9871018 0.3222763 0.1169879 0.8556231 -0.09984461 -0.03515528 0.9871019 0.2206054 0.2624527 0.8556231 -0.06897267 -0.08032047 0.9871042 0.05666302 0.3375941 0.8556248 -0.02030363 -0.1040456 0.9871003 -0.118429 0.3216236 0.8560163 0.03486739 -0.1000073 0.9870727 -0.2624526 0.2206056 0.855623 0.08036763 -0.06889043 0.9871019 -0.01885758 0.03688189 0.9687018 0.002110712 0.04136948 0.9687019 -0.1205901 -0.02051625 0.9842439 -0.09417636 -0.07806285 0.9842438 -0.03448037 0.02234347 0.9687184 -0.06034205 -0.1045156 0.9850084 -0.04136945 0.002109809 0.9687019 -0.03506396 0.02268032 0.9686852 -0.02471319 -0.1248696 0.9834791 0.02051623 -0.1205904 0.9842438 -0.03688199 -0.01885755 0.9687018 0.07806285 -0.09417636 0.9842438 -0.02251189 -0.03477217 0.9687018 0.1146926 -0.04252762 0.9842438 -0.002109794 -0.04136945 0.9687019 0.1205904 0.02051623 0.9842438 0.01885747 -0.03688194 0.9687018 0.09417629 0.07806282 0.9842438 0.03446738 -0.02233595 0.9687247 0.04221771 0.1148665 0.9842086 0.03993663 -0.002109797 0.9686969 -0.02122897 0.1205902 0.9842423 0.03659376 0.0186911 0.9687227 -0.07807105 0.09417161 0.9842441 0.02251189 0.03477221 0.9687018 -0.1146924 0.0425277 0.9842438 -0.4565627 -0.1762964 0.6743156 -0.4835426 0.07560412 0.6743163 -0.3720907 -0.3420631 0.6725554 -0.07560417 -0.4835429 0.6743156 -0.2424026 -0.4198535 0.6760757 0.1762961 -0.4565626 0.6743157 0.3809581 -0.3072468 0.6743158 0.4835429 -0.07560427 0.6743156 0.4565624 0.1762963 0.6743157 0.307036 0.3810557 0.6742862 0.07100567 0.4835267 0.6742931 -0.1780654 0.4560121 0.6748841 -0.3809585 0.3072466 0.6743155 -0.5701659 -0.2684295 0.6217252 -0.6279933 0.05261588 0.6217252 -0.4241353 -0.07705435 0.7010196 -0.3287849 -0.2787986 0.7010193 -0.4465043 -0.4651497 0.6198349 -0.2170391 -0.3759231 0.7174538 -0.05261583 -0.6279933 0.6217253 -0.2726216 -0.5699503 0.6236154 -0.0736337 -0.4357554 0.6845851 0.0770544 -0.4241353 0.7010196 0.2684296 -0.5701657 0.6217252 0.2787987 -0.3287847 0.7010193 0.5505077 -0.2944575 0.6184145 0.3758273 -0.2164461 0.7177845 0.3962484 0.5013912 0.6260296 0.5705621 0.2695469 0.6233272 0.3285699 0.2787509 0.7011323 0.143991 0.4063077 0.7005778 0.06268692 0.6248768 0.6186397 -0.08034158 0.424127 0.7010062 -0.2698137 0.5698596 0.6221473 -0.2788801 0.3287453 0.7010302 -0.5175503 0.3595637 0.6217249 -0.4058392 0.1453367 0.7010194 0.377177 -0.06759825 0.7972719 0.3604443 0.1300467 0.7972718 0.3030031 0.2544236 0.7859874 0.1912577 0.3312683 0.808556 0.0675982 0.377177 0.797272 -0.1300469 0.3604443 0.7972718 -0.3212618 0.1877532 0.7887153 -0.3303968 -0.1905127 0.8070212 -0.2472097 -0.2928052 0.7972809 -0.07038913 -0.37717 0.7972572 0.1288935 -0.3609106 0.7969071 0.2928459 -0.2471305 0.7972717 -0.5918613 -0.3417113 0.6834239 -0.7071059 -4.78295e-15 0.7071076 -0.9999999 -3.69793e-4 0 -0.9999999 -3.71571e-4 0 -0.9999999 -3.70032e-4 0 -0.3535529 -0.6123719 0.7071075 0.117851 -0.691317 0.6913185 -0.1886183 -0.6802496 0.6834239 0.4477205 -0.5397726 0.6913184 0.6576237 -0.2435965 0.6913185 0.691317 0.1178508 0.6913185 0.5397727 0.4477202 0.6913185 0.2409939 0.6582871 0.6905917 -0.1237897 0.6912976 0.6912991 -0.4477201 0.539773 0.6913184 -0.6576235 0.2435968 0.6913184 -0.3702085 -0.05798762 0.8095501 0.4096817 3.56758e-8 0.6911538 0.629252 0.02932648 0.6419429 0.4513578 0.3145676 0.7462547 0.548171 0.04674485 0.746255 0.3112597 0.4557049 0.7491281 -0.04674491 0.5481707 0.7462551 0.1559467 0.5405005 0.7433813 -0.3145678 0.4513577 0.7462546 -0.4661925 0.2980513 0.7525018 -0.5372403 0.08838608 0.7592137 -0.4804349 -0.25832 0.7435206 -0.234728 -0.4977524 0.7466075 0.04339436 -0.5481633 0.7462449 0.3142125 -0.4515046 0.7461865 0.4981025 -0.2336035 0.7462546 0.2569723 0.2082524 0.8804558 0.3266706 0.05186574 0.8804558 0.1638058 0.2837199 0.8829914 -0.0518656 0.3266707 0.8804558 0.07303091 0.3339562 0.8779202 -0.2082521 0.2569723 0.8804559 -0.3088379 0.1184183 0.8804558 -0.3266706 -0.05186568 0.8804558 -0.2569723 -0.2082524 0.8804558 -0.119617 -0.3082812 0.8807715 0.04856659 -0.326665 0.8804404 0.2080484 -0.2570812 0.8804355 0.308838 -0.1184184 0.8804558 0.2813123 0.1025264 0.8921508 0.2948869 -0.05186572 0.8921508 0.2363058 0.2018307 0.8862712 0.05186575 0.2948868 0.8921508 0.1484151 0.2570625 0.8980304 -0.1025261 0.2813123 0.8921509 -0.2294465 0.1923605 0.8921508 -0.2948869 0.05186578 0.8921508 -0.2813123 -0.1025263 0.8921508 -0.1923686 -0.2294422 0.8921516 -0.05472165 -0.2948817 0.8921352 0.1012823 -0.2819041 0.8918198 0.2294465 -0.1923605 0.8921508 -0.053336 0.01887917 0.9653104 -0.03675266 0.04301789 0.9653102 -0.06069881 -0.007378601 0.9650144 -0.04301766 -0.03675282 0.9653103 -0.05056056 -0.01325793 0.9656067 -0.01887922 -0.053336 0.9653104 0.01031824 -0.05562967 0.9653105 0.03675268 -0.04301753 0.9653104 0.05333744 -0.01887822 0.9653104 0.03164638 0.02415991 0.9651484 0.02055731 0.03676006 0.9655081 0.01852612 0.05313568 0.9653451 -0.01031955 0.05563071 0.9653104 -0.7994822 0.01899102 -0.5992026 -0.8904896 -0.02880742 -0.3456101 -0.846908 0.08558196 -0.5176362 -0.9399353 0.08485257 -0.2971596 -0.9926699 -0.01026751 -0.003984942 -0.9855825 0.01076464 0.008067982 -0.969309 -0.05627293 0.1691862 -0.9363073 -0.05702458 0.3138624 -0.916994 -0.05982931 0.2966053 -0.8428438 -0.04932758 0.5285845 -0.8904899 -0.02879878 0.3456101 -0.7994821 0.01899173 0.5992027 -0.9066327 0.02214181 0.3004363 -0.8469086 0.08559559 0.5176319 -0.961254 0.02897591 0.1767983 -0.939937 0.08486791 0.2971507 -0.9926703 -0.0102684 0.003985455 -0.9855828 0.01076488 -0.008067815 -0.936308 -0.05702553 -0.3138619 -0.8428447 -0.04933889 -0.5285809 -0.9999999 -3.68633e-4 0 -0.9999999 -3.68282e-4 0 -0.9999999 -3.72843e-4 0 -0.9999999 -3.76231e-4 0 -0.9999999 -3.73197e-4 0 -0.9999999 -3.71683e-4 0 -0.9999999 -3.67091e-4 0 -0.9999999 -3.68006e-4 0 -0.9999999 -3.6101e-4 0 0.9979826 -0.00834067 -0.005104087 0.9966015 -0.003104972 -0.002597993 0.8427563 -0.3915535 0.01275736 0.6445189 -0.5126673 -0.07067714 0.8664322 -0.1027084 0.3299733 0.9994817 -6.45825e-4 3.65044e-4 0.2916415 0.9156957 -0.009007448 0.1126343 0.9860138 -0.05823025 0.08015561 0.9859816 -0.1253532 0.3809306 0.8489418 -0.04395794 0.8776336 0.1252115 0.309495 0.9996752 -0.004885863 5.10374e-4 0.9980923 -0.003486327 7.01696e-4 0.6616569 0.4694724 -0.09436227 0.2748555 -0.9074082 0.1521283 0.08300218 -0.9862319 0.1113687 0.3774093 -0.8434963 0.1097935 0.8428553 0.3808119 -0.06673976 0.2875177 0.8870198 -0.1099333 0.1032208 -0.9878621 0.05645938 0.2908719 -0.8923181 0.03899925 0.7478971 0.4607613 -0.0318326 0.8664486 0.1005359 -0.3299902 0.8763848 -0.1334286 -0.3090878 0.7262877 -0.4739823 0.04622224 0.2236738 -0.9664806 -0.07620066 0.2542902 0.958016 0.06629712 0.1653151 0.9621675 -0.2054173 0.1845814 -0.959448 0.1958007 -1.14691e-8 -2.98119e-9 -1 1.2512e-8 6.06955e-7 -1 -1.23361e-8 -1.61563e-15 -1 -1.04556e-7 9.65592e-8 -1 -1.02685e-7 2.0537e-7 -1 -8.22055e-9 3.54341e-8 -1 6.46071e-10 9.10432e-7 -1 2.567e-8 1.82086e-6 -1 -2.16748e-9 1.02623e-7 -1 -2.56713e-8 0 -1 1.47295e-8 1.49037e-7 -1 -1.31122e-8 1.1004e-7 -1 7.63354e-8 6.62935e-8 -1 5.48448e-8 1.06907e-7 -1 0.2483867 -0.7483342 0.4557988 0.07752144 -0.8250153 0.3902323 0.1129386 -0.6507763 0.7499764 0.1487451 -0.5513123 0.8111117 0.08684271 -0.2204781 0.941888 0.2857697 -0.1503764 0.8638704 0.2541639 0.746214 0.4559682 0.1526594 0.5498087 0.8114879 0.118027 0.6495081 0.7503007 0.08429443 0.824247 0.3909584 0.8524434 -0.001714534 0.3561994 0.9999864 -0.001603385 0.003326346 1 -2.15763e-5 6.0532e-6 0.8531643 -7.72073e-5 0.3544852 0.2705027 0.1891812 0.8707729 0.08817085 0.21994 0.941892 -0.2485016 0.7482934 0.4558269 -0.1488442 0.5512847 0.8111109 -0.1130673 0.6507669 0.7499647 -0.07764219 0.8250074 0.3902285 -0.2857788 0.1503667 0.8638788 -0.1026844 0.2092915 0.9425449 -1.43892e-7 -2.97556e-8 1 -5.09826e-7 -2.9763e-8 1 -3.48231e-7 -2.94248e-8 1 2.2649e-7 -2.87264e-8 1 -0.2543074 -0.7461626 0.4560036 -0.08446122 -0.8242348 0.3909532 -0.1181911 -0.649495 0.7502862 -0.1527834 -0.5497726 0.8114868 -0.8524462 0.001727928 0.3561944 -0.8531629 8.87377e-5 0.3544903 -1 2.46442e-5 9.58815e-6 -0.9999864 0.001607497 0.003326464 -0.1039419 -0.2086639 0.9425484 -0.2600275 -0.2091325 0.8680662 -2.66143e-7 -2.8266e-8 1 4.79249e-7 -3.31782e-8 1 -5.82673e-8 -3.09981e-8 1 -5.89806e-7 -2.72005e-8 1 -5.5257e-7 -2.9763e-8 1 -5.99762e-7 -2.9763e-8 1 -4.74037e-7 -2.78784e-8 1 -3.64221e-7 -2.70662e-8 1 0.03403766 -0.9933008 -0.009660341 0.143981 -0.9895334 -0.009645465 0.007367355 -0.6297359 0.4782509 0.1554479 -0.5586374 0.566355 0.01172312 -0.1480065 0.9805365 0.02170325 -0.1251511 0.9827596 4.57996e-5 -4.26802e-5 0.999917 4.80626e-5 4.46919e-5 0.9998106 -0.03336009 0.9966741 0.05757711 -0.1702163 0.5495645 0.5982022 -0.00397628 0.6348005 0.5077325 -0.08037281 0.9950987 0.05760869 -0.004272767 0.149601 0.98046 -0.0215963 0.1252421 0.9827482 0.007451802 -0.2358739 0.9715507 0.0120548 -0.1258651 0.9872411 -0.003310916 -0.1167964 0.9879826 -0.02572746 -0.1749871 0.9842345 6.35474e-6 -9.25677e-5 0.999729 7.04971e-6 9.55094e-5 0.9995974 0.006767668 0.121445 0.9882689 0.008256745 0.231641 0.9725485 -0.0223108 0.1665108 0.9857872 -0.00460711 0.1144973 0.9883877</float_array>
          <technique_common>
            <accessor source="#geom-module_ark_room_02-map1-textangents-array" count="342" stride="3">
              <param name="X" type="float"/>
              <param name="Y" type="float"/>
              <param name="Z" type="float"/>
            </accessor>
          </technique_common>
        </source>
        <source id="geom-module_ark_room_02-map1-texbinormals">
          <float_array id="geom-module_ark_room_02-map1-texbinormals-array" count="1026">-0.01315701 0.9989003 -0.04500086 -0.5108447 0.8584944 -0.04500077 -0.5383998 0.8339826 0.1208248 -0.04927652 0.99145 0.120825 -0.8660254 0.5000001 2.7741e-8 -0.8758739 0.4792682 0.05609731 -0.8737511 0.4816628 -0.06752723 -0.9989003 -0.01315719 -0.04500079 -0.99145 -0.0492766 0.1208248 -0.8863126 0.4236913 0.1869109 -0.8584945 -0.5108445 -0.04500081 -0.8339827 -0.5383997 0.1208246 -0.5 -0.8660254 5.17888e-8 -0.4703468 -0.8789548 0.07881908 -0.01315718 -0.9989003 0.04500086 0.02615526 -0.9975986 0.06413208 0.4999998 -0.8660255 -3.0284e-8 0.5359461 -0.8367625 0.1122069 0.871643 -0.4880786 -0.04491949 0.8834452 -0.4520567 0.1231636 0.998911 0.01309287 -0.04478227 0.9907097 0.05135596 0.1259243 0.8584947 0.5108441 -0.04500084 0.8339552 0.5384233 0.1209097 0.488056 0.8716515 -0.04500079 0.4530504 0.8832591 0.1208251 0.003388827 -0.9814674 0.191599 -0.002092679 -0.9480097 0.3182345 0.02583209 -0.9490761 -0.313986 0.04132264 -0.9833544 -0.1769368 -0.4996303 0.8662381 -0.001081124 3.09079e-4 0.9999996 -7.83001e-4 0.002056681 0.9998075 0.01951088 -0.498123 0.8668869 0.0195109 -0.8440322 0.5285828 -0.09060783 -0.8634564 0.5030478 0.03722726 -0.9978917 0.02382036 -0.06037214 -0.8660254 0.4999999 5.5745e-8 -0.8659292 0.5001633 0.001798445 -0.9998075 0.002056707 0.01951096 -0.8761097 -0.4783168 -0.0603722 -0.8668869 -0.4981228 0.01951094 -0.5195749 -0.8522894 -0.06037215 -0.5016849 -0.8648304 0.01951092 -0.02382047 -0.9978917 -0.06037216 -0.002056765 -0.9998075 0.01951093 0.4783166 -0.8761098 -0.06037226 0.4981225 -0.8668871 0.01951084 0.8522892 -0.5195751 -0.0603721 0.8648236 -0.5016928 0.01960582 0.998108 -0.02256711 -0.0571948 0.9997908 -0.002144221 0.02033865 0.8758887 0.4789217 -0.05876277 0.866899 0.4980887 0.0198425 0.5195753 0.8522891 -0.06037226 0.5016853 0.8648302 0.01951092 -0.4996253 0.8651902 -0.04266698 -9.29918e-5 0.9990893 -0.04266701 -0.00251556 0.999786 0.02053201 -0.5020717 0.8645822 0.02053198 -0.8652956 0.4994723 -0.04231948 -0.8660254 0.5 6.35615e-8 -0.9990893 -9.29021e-5 -0.04266698 -0.8652707 0.4994561 -0.04301463 -0.8677997 0.4952141 0.04106958 -0.999786 -0.002515617 0.02053199 -0.8651902 -0.4996253 -0.04266705 -0.8645823 -0.5020716 0.02053199 -0.4994643 -0.8652831 -0.04266706 -0.4977145 -0.8670979 0.02053207 9.27506e-5 -0.9990893 -0.04266698 0.002515562 -0.999786 0.02053199 0.499625 -0.8651904 -0.04266696 0.5020714 -0.8645824 0.02053203 0.8652959 -0.4994731 -0.04230375 0.867113 -0.4976732 0.02088831 0.9991512 8.92676e-5 -0.04119198 0.9997709 0.002602609 0.02124503 0.8652036 0.4996314 -0.04232348 0.8645818 0.5020721 0.02054152 0.4994648 0.8652829 -0.0426671 0.4977149 0.8670976 0.02053197 -0.452144 0.8888916 -0.07373951 0.05287752 0.9958747 -0.07373942 -0.799554 0.5825632 -0.1460597 -0.9958747 0.05287765 -0.07373946 -0.8660254 0.5 -4.10757e-8 -0.8888916 -0.4521439 -0.07373975 -0.5437308 -0.8360139 -0.07373978 -0.05287771 -0.9958747 -0.07373955 0.4521438 -0.8888917 -0.07373927 0.8361142 -0.5436064 -0.07351898 0.9963584 -0.04968744 -0.06929018 0.8884168 0.453367 -0.07193023 0.5437311 0.8360138 -0.07373914 -0.4625372 0.8856132 -0.04181619 0.04223768 0.9982321 -0.04181571 -0.04846849 0.995607 0.08010995 -0.5397784 0.8379867 0.08010978 -0.7918479 0.5985656 -0.1212272 -0.8660255 0.4999999 1.29455e-7 -0.9982322 0.04223756 -0.04181576 -0.8842756 0.4653559 0.03873709 -0.8993473 0.4061895 0.1618163 -0.9956069 -0.04846864 0.08010994 -0.8856132 -0.4625372 -0.04181602 -0.8379866 -0.5397784 0.08011006 -0.4850775 -0.8743338 0.01549884 -0.4973941 -0.8675239 -0.001167265 0.8246612 -0.5609332 -0.07271816 0.4625726 -0.8856592 -0.04042772 0.5374235 -0.8393316 0.0818437 0.8867633 -0.4549636 0.08160302 0.9974684 -0.05053452 -0.05002973 0.9952267 0.05051771 0.08349735 0.8851381 0.4635435 -0.04071755 0.8379504 0.5398211 0.08020193 0.5356952 0.8433754 -0.0418158 0.4558288 0.886455 0.08011009 0.03268014 0.9970758 0.06907854 -0.470236 0.8798331 0.06907871 -0.8228913 0.5509641 0.138883 -0.8660255 0.4999998 -2.21158e-8 -0.9970758 0.03268003 0.06907853 -0.879833 -0.4702361 0.06907854 -0.4989431 -0.8666293 0.003069637 0.4973023 -0.8675765 -0.001210843 0.8471251 -0.5268728 0.06916821 0.9968304 -0.03402186 0.07191405 0.8800417 0.4696549 0.07036178 0.52684 0.8471527 0.06907852 -0.5 0.8660254 -3.21433e-8 6.11118e-8 1 6.11117e-8 -3.69793e-4 0.9999999 0 -3.71571e-4 0.9999999 0 -3.70032e-4 0.9999999 0 -0.8660255 0.4999999 6.11757e-8 -0.992813 -0.08462379 0.084624 -0.9155038 0.3816641 0.1272213 -0.8174893 -0.5696929 0.08462393 -0.4231201 -0.9021132 0.08462404 0.08462358 -0.992813 0.08462391 0.5696926 -0.8174895 0.08462389 0.9027859 -0.4212931 0.08654307 0.9920788 0.08882465 0.0888253 0.8174897 0.5696923 0.08462379 0.4231206 0.9021129 0.08462407 0.0279136 -0.9978846 -0.05871298 6.55073e-9 -1 4.77348e-8 0.0228252 -0.9994683 0.02328569 -0.5252134 0.8499998 -0.04063387 -0.02984822 0.9987282 -0.04063419 -0.851887 0.5224783 0.03612496 -0.9987282 -0.02984826 -0.04063425 -0.8997974 0.4203618 -0.1168785 -0.8499998 -0.5252135 -0.04063411 -0.5135561 -0.8577843 0.02159165 -0.05345541 -0.9955138 0.07806913 0.489764 -0.871749 0.01359691 0.8795296 -0.474192 -0.03961916 0.9989036 0.02771382 -0.03772902 0.8501377 0.5250155 -0.04030763 0.473515 0.879848 -0.04063423 -0.5158515 0.8551165 -0.05170103 -0.0191822 0.9984784 -0.05170113 -0.8660254 0.4999999 5.8417e-8 -0.9984784 -0.01918227 -0.05170094 -0.8799101 0.4637913 -0.1032273 -0.8551165 -0.5158514 -0.05170084 -0.4826267 -0.8742988 -0.05170096 0.01918223 -0.9984784 -0.05170105 0.5158513 -0.8551166 -0.05170121 0.8741193 -0.4830919 -0.05037477 0.9986654 0.01796552 -0.04842243 0.8551708 0.5157844 -0.05147276 0.4826271 0.8742986 -0.0517012 -0.4842604 0.8733576 0.05232997 0.01729705 0.99848 0.05232996 -0.8433954 0.5269598 0.1048692 -0.99848 0.0172969 0.05233005 -0.8660254 0.5 1.0019e-8 -0.8733576 -0.4842603 0.05233021 -0.5142195 -0.8560606 0.05233012 -0.01729703 -0.99848 0.05233003 0.4842603 -0.8733576 0.05232996 0.8560585 -0.5142222 0.0523392 0.9983084 -0.01824687 0.05520286 0.8735179 0.4838176 0.05373093 0.5142199 0.8560604 0.05232997 -0.4980395 0.8660141 -0.0444552 0.001692913 0.9990099 -0.04445522 -0.8639569 0.501026 -0.05051146 -0.99901 0.001692928 -0.04445498 -0.864655 0.5008965 -0.0383972 -0.8660141 -0.4980394 -0.04445523 -0.5009705 -0.8643219 -0.04445492 -0.001692873 -0.99901 -0.04445485 0.498039 -0.8660144 -0.04445506 0.8656144 -0.5004602 -0.01585506 0.9997737 -8.09729e-4 -0.02125606 0.8660227 0.4980619 -0.04403493 0.5009711 0.8643215 -0.04445516 -0.01520744 -0.9998194 -0.01139766 0.02810227 -0.9995455 0.01090693 0.08706667 -0.9501048 -0.2995333 0.0873655 -0.8502242 -0.5191205 0.01109434 -0.9321916 -0.3617951 -0.01364802 -0.8001219 -0.5996822 -5.61029e-4 -0.947922 -0.3185021 -0.1186723 -0.8525915 -0.508925 0.002192708 -0.9815463 -0.1912121 -0.1195001 -0.9526942 -0.279452 0.02809388 -0.9995458 -0.01090357 -0.01520795 -0.9998194 0.01139817 0.03528453 -0.9832268 0.1789415 0.08705445 -0.9501036 0.2995407 0.02903003 -0.9491775 0.3133997 0.08734847 -0.8502226 0.519126 0.01109536 -0.9321916 0.3617951 -0.01364811 -0.8001219 0.5996822 -0.1186713 -0.8525913 0.5089256 -0.1194901 -0.9526936 0.2794586 -3.68633e-4 0.9999999 0 -3.68282e-4 0.9999999 0 -3.72843e-4 0.9999999 0 -3.76231e-4 0.9999999 0 -3.73197e-4 0.9999999 0 -3.71683e-4 0.9999999 0 -3.67091e-4 0.9999999 0 -3.68006e-4 0.9999999 0 -3.6101e-4 0.9999999 0 0.009585239 0.7262921 0.6873194 0.002866093 0.08633623 0.9962619 0.01884223 0.07304347 0.9971508 0.4732934 0.494517 0.7290036 0.04525073 0.9813837 0.1866503 5.80547e-4 0.987511 0.1575492 -0.3059003 0.1067329 0.9460619 -0.4092677 0.1003086 0.9068837 0.4453968 0.07719609 0.8919991 -0.02189167 0.06149233 0.9978675 0.03668427 -0.9582282 0.2836423 -0.004857525 -0.9674455 0.2530328 -0.002736022 -0.6263991 0.7794977 0.4173576 -0.4269711 0.8021897 -0.3135154 0.0638741 0.9474324 -0.4446353 0.0634717 0.89346 -0.005441431 0.1266795 0.9919288 0.03516839 0.09649119 0.9947123 0.2998828 0.02099916 0.9537449 0.4100557 0.09469174 0.9071317 0.2938237 0.137123 0.945973 -0.334455 0.5934571 0.732085 -0.04179661 0.9810586 0.1891481 -0.04490256 -0.957208 0.2858962 -0.3568068 -0.4678887 0.8085599 0.9023593 0.1778831 0.3925624 -0.8940903 0.2099432 0.3956342 0.92058 -0.0763996 0.3830085 -0.9160312 -0.09679135 0.3892534 0.4669857 0.8842649 -7.99209e-9 -9.45402e-7 1 6.06955e-7 -4.27531e-7 1 3.65842e-15 0.4669862 0.8842646 3.65576e-8 0.955911 0.2936564 -3.78496e-8 0.9559107 0.2936576 2.54738e-9 -1.63347e-8 1 9.10432e-7 -6.49034e-7 1 1.82086e-6 -0.005871437 -0.9999828 -1.02608e-7 -0.005871666 -0.9999828 1.50733e-10 0.4617877 -0.8869905 -1.25393e-7 0.4617873 -0.8869907 -1.03659e-7 0.9541706 -0.2992633 5.29978e-8 0.9541705 -0.2992637 2.0338e-8 -0.8954645 -0.407007 -0.1802458 -0.9964119 -0.07650756 0.03619224 -0.9935938 -0.07406441 0.085357 -0.9607978 -0.2769869 -0.01207271 -0.8188886 -0.5709983 -0.0581578 -0.4343896 -0.9006301 -0.01307849 0.8923896 -0.4138653 0.1798785 0.9587838 -0.2838844 0.0119715 0.9929794 -0.08234545 -0.08491843 0.9957513 -0.0847202 -0.03608035 0.1513405 -0.9179867 -0.3666012 -2.44136e-5 -0.9036609 -0.4282487 -2.20927e-5 -0.9039769 0.4275814 -0.153162 -0.9169535 0.368426 0.4431145 -0.8946688 0.0567207 0.8155182 -0.5758062 0.05811485 -0.8954271 -0.4071195 0.1801777 -0.9607822 -0.2770449 0.01198816 -0.9935791 -0.07414955 -0.08545362 -0.9964007 -0.07662741 -0.03624684 -0.4343852 -0.9006324 0.01306551 -0.8169385 -0.5754201 0.03877129 -1 9.00903e-8 -1.43892e-7 -1 -1.20013e-7 -5.09826e-7 -1 -1.40175e-7 -3.48231e-7 -1 2.87264e-8 2.2649e-7 0.8923417 -0.4140056 -0.1797933 0.9957345 -0.0848853 0.03615658 0.9929599 -0.08245365 0.0850419 0.9587637 -0.2839568 -0.01186524 0.1513257 -0.917987 0.3666067 -0.1531744 -0.9169537 -0.3684202 -2.63775e-5 -0.9039769 -0.4275812 -2.80794e-5 -0.903661 0.4282484 0.8135423 -0.5802142 -0.03873395 0.4500558 -0.8894571 -0.07947258 0.9999679 -0.008008502 2.65908e-7 0.9999828 -0.005870638 -4.79436e-7 0.9999828 -0.005870579 5.80843e-8 0.9999679 -0.008008529 5.89569e-7 -1 -2.25285e-7 -5.5257e-7 -1 -2.25285e-7 -5.99762e-7 0.9999588 -0.009077489 4.73764e-7 0.9999588 -0.009077421 3.63961e-7 -0.9994135 -0.03424353 -3.69077e-4 -0.9895805 -0.1439739 -0.001429033 -0.8330285 0.328382 0.4452289 -0.8065888 -0.5162839 -0.2878635 -0.7584257 0.6430599 0.1061339 -0.7607174 -0.6457762 -0.06543774 -0.7294017 0.6840856 6.26084e-5 -0.7341481 -0.6789894 6.56428e-5 -0.9994421 -0.03332898 -0.002142203 -0.7941185 -0.5430375 0.2729215 -0.8145515 0.359213 -0.4554908 -0.9967649 -0.08022925 -0.004804252 -0.7560083 0.6465738 -0.1019505 -0.7607206 -0.6457582 0.06557872 -0.09232389 0.9674577 0.2355883 -0.06719145 0.9896257 0.1269895 -0.08174374 -0.9897293 -0.1172768 -0.1149489 -0.977512 -0.1767966 -0.06818553 0.9976727 9.28107e-5 -0.07381797 -0.9972717 9.58078e-5 -0.06952227 0.9901899 -0.1212049 -0.0629174 0.9709807 -0.2307334 -0.06204123 -0.9843628 0.164866 -0.07196028 -0.99082 0.1144437</float_array>
          <technique_common>
            <accessor source="#geom-module_ark_room_02-map1-texbinormals-array" count="342" stride="3">
              <param name="X" type="float"/>
              <param name="Y" type="float"/>
              <param name="Z" type="float"/>
            </accessor>
          </technique_common>
        </source>
        <vertices id="geom-module_ark_room_02-vertices">
          <input semantic="POSITION" source="#geom-module_ark_room_02-positions"/>
        </vertices>
        <triangles material="module_ark_room_02" count="496">
          <input semantic="VERTEX" source="#geom-module_ark_room_02-vertices" offset="0"/>
          <input semantic="NORMAL" source="#geom-module_ark_room_02-normals" offset="1"/>
          <input semantic="TEXCOORD" source="#geom-module_ark_room_02-map1" offset="2" set="0"/>
          <input semantic="TEXTANGENT" source="#geom-module_ark_room_02-map1-textangents" offset="3" set="1"/>
          <input semantic="TEXBINORMAL" source="#geom-module_ark_room_02-map1-texbinormals" offset="3" set="1"/>
          <p>0 0 0 0 181 1 1 1 43 2 69 2 43 2 69 2 44 3 70 3 0 0 0 0 181 1 1 1 182 4 2 4 42 5 68 5 42 5 68 5 43 2 69 2 181 1 1 1 182 4 64 6 183 6 3 7 41 7 12 8 41 7 12 8 42 5 73 9 182 4 64 6 183 6 3 7 184 8 4 10 40 9 67 11 40 9 67 11 41 7 12 8 183 6 3 7 184 8 4 10 185 10 5 12 39 11 66 13 39 11 66 13 40 9 67 11 184 8 4 10 186 12 6 14 38 13 63 15 39 11 66 13 39 11 66 13 185 10 5 12 186 12 6 14 187 14 7 16 37 15 8 17 38 13 63 15 38 13 63 15 186 12 6 14 187 14 7 16 187 14 7 16 188 16 9 18 36 17 65 19 36 17 65 19 37 15 8 17 187 14 7 16 188 16 9 18 189 18 226 20 47 19 227 21 47 19 227 21 36 17 65 19 188 16 9 18 189 18 226 20 190 20 10 22 46 21 72 23 46 21 72 23 47 19 227 21 189 18 226 20 190 20 10 22 11 22 11 24 45 23 71 25 45 23 71 25 46 21 72 23 190 20 10 22 11 22 11 24 0 0 0 0 44 3 70 3 44 3 70 3 45 23 71 25 11 22 11 24 191 24 14 26 10 25 15 27 2 26 16 28 2 26 16 28 1 27 13 29 191 24 14 26 84 28 45 30 83 29 112 31 20 30 171 32 20 30 171 32 19 31 46 33 84 28 45 30 86 32 44 34 84 28 45 30 19 31 46 33 19 31 46 33 18 33 42 35 86 32 44 34 88 34 113 36 86 32 99 37 18 33 93 38 18 33 93 38 17 35 114 39 88 34 113 36 90 36 43 40 88 34 113 36 17 35 114 39 17 35 114 39 16 37 41 41 90 36 43 40 92 38 119 42 90 36 43 40 16 37 41 41 16 37 41 41 15 39 120 43 92 38 119 42 94 40 40 44 92 38 119 42 15 39 120 43 15 39 120 43 14 41 39 45 94 40 40 44 96 42 123 46 94 40 40 44 14 41 39 45 14 41 39 45 13 43 124 47 96 42 123 46 98 44 38 48 96 42 123 46 13 43 124 47 13 43 124 47 12 45 37 49 98 44 38 48 100 46 127 50 98 44 38 48 12 45 37 49 12 45 37 49 23 47 49 51 100 46 127 50 102 48 130 52 100 46 127 50 23 47 49 51 23 47 49 51 22 49 133 53 102 48 130 52 105 50 48 54 102 48 130 52 22 49 133 53 22 49 133 53 21 51 47 55 105 50 48 54 83 29 112 31 105 50 48 54 21 51 47 55 21 51 47 55 20 30 171 32 83 29 112 31 124 52 83 56 125 53 150 57 32 54 164 58 32 54 164 58 31 55 59 59 124 52 83 56 123 56 58 60 124 52 83 56 31 55 59 59 31 55 59 59 30 57 57 61 123 56 58 60 122 58 56 62 123 56 79 63 30 57 80 64 30 57 80 64 29 59 55 65 122 58 56 62 121 60 138 66 122 58 56 62 29 59 55 65 29 59 55 65 28 61 139 67 121 60 138 66 120 62 54 68 121 60 138 66 28 61 139 67 28 61 139 67 27 63 53 69 120 62 54 68 119 64 76 70 120 62 54 68 27 63 53 69 27 63 53 69 26 65 52 71 119 64 76 70 118 66 137 72 119 64 76 70 26 65 52 71 26 65 52 71 25 67 145 73 118 66 137 72 129 68 51 74 118 66 137 72 25 67 145 73 25 67 145 73 24 69 50 75 129 68 51 74 128 70 86 76 129 68 51 74 24 69 50 75 24 69 50 75 35 71 62 77 128 70 86 76 127 72 142 78 128 70 86 76 35 71 62 77 35 71 62 77 34 73 143 79 127 72 142 78 126 74 61 80 127 72 142 78 34 73 143 79 34 73 143 79 33 75 60 81 126 74 61 80 125 53 150 57 126 74 61 80 33 75 60 81 33 75 60 81 32 54 164 58 125 53 150 57 135 76 105 82 136 77 106 83 44 3 70 3 44 3 70 3 43 2 69 2 135 76 105 82 134 78 154 84 135 76 105 82 43 2 69 2 43 2 69 2 42 5 68 5 134 78 154 84 133 79 155 85 134 78 223 86 42 5 73 9 42 5 73 9 41 7 12 8 133 79 155 85 132 80 156 87 133 79 155 85 41 7 12 8 41 7 12 8 40 9 67 11 132 80 156 87 131 81 157 88 132 80 156 87 40 9 67 11 40 9 67 11 39 11 66 13 131 81 157 88 130 82 158 89 131 81 157 88 39 11 66 13 39 11 66 13 38 13 63 15 130 82 158 89 141 83 159 90 130 82 158 89 38 13 63 15 38 13 63 15 37 15 8 17 141 83 159 90 140 84 197 91 141 83 159 90 37 15 8 17 37 15 8 17 36 17 65 19 140 84 197 91 139 85 195 92 140 84 197 91 36 17 65 19 36 17 65 19 47 19 227 21 139 85 195 92 138 86 198 93 139 85 195 92 47 19 227 21 47 19 227 21 46 21 72 23 138 86 198 93 137 87 199 94 138 86 198 93 46 21 72 23 46 21 72 23 45 23 71 25 137 87 199 94 136 77 106 83 137 87 199 94 45 23 71 25 45 23 71 25 44 3 70 3 136 77 106 83 155 88 88 95 154 89 89 96 68 90 90 97 68 90 90 97 67 91 87 98 155 88 88 95 156 92 148 99 155 88 88 95 67 91 87 98 67 91 87 98 66 93 92 100 156 92 148 99 157 94 168 101 156 92 97 102 66 93 96 103 66 93 96 103 65 95 98 104 157 94 168 101 158 96 174 105 157 94 168 101 65 95 98 104 65 95 98 104 64 97 104 106 158 96 174 105 159 98 179 107 158 96 174 105 64 97 104 106 64 97 104 106 63 99 201 108 159 98 179 107 162 100 166 109 161 101 181 110 62 102 202 111 62 102 202 111 61 103 186 112 162 100 166 109 163 104 193 113 162 100 166 109 61 103 186 112 61 103 186 112 60 105 185 114 163 104 193 113 164 106 183 115 163 104 193 113 60 105 185 114 60 105 185 114 70 107 189 116 164 106 183 115 165 108 169 117 164 106 183 115 70 107 189 116 70 107 189 116 69 109 191 118 165 108 169 117 154 89 89 96 165 108 169 117 69 109 191 118 69 109 191 118 68 90 90 97 154 89 89 96 67 91 87 98 68 90 90 97 79 110 100 119 79 110 100 119 78 111 94 120 67 91 87 98 66 93 92 100 67 91 87 98 78 111 94 120 78 111 94 120 77 112 91 121 66 93 92 100 65 95 98 104 66 93 96 103 77 112 107 122 77 112 107 122 76 113 95 123 65 95 98 104 64 97 104 106 65 95 98 104 76 113 95 123 76 113 95 123 75 114 103 124 64 97 104 106 63 99 201 108 64 97 104 106 75 114 103 124 75 114 103 124 74 115 144 125 63 99 201 108 61 103 186 112 62 102 202 111 73 116 219 126 73 116 219 126 72 117 187 127 61 103 186 112 60 105 185 114 61 103 186 112 72 117 187 127 72 117 187 127 71 118 184 128 60 105 185 114 70 107 189 116 60 105 185 114 71 118 184 128 71 118 184 128 81 119 188 129 70 107 189 116 69 109 191 118 70 107 189 116 81 119 188 129 81 119 188 129 80 120 190 130 69 109 191 118 68 90 90 97 69 109 191 118 80 120 190 130 80 120 190 130 79 110 100 119 68 90 90 97 85 121 110 131 82 122 111 132 83 29 112 31 83 29 112 31 84 28 45 30 85 121 110 131 82 123 203 133 85 124 204 134 104 125 205 135 86 32 44 34 87 126 117 136 85 121 110 131 85 121 110 131 84 28 45 30 86 32 44 34 88 34 113 36 89 127 115 137 87 126 116 138 87 126 116 138 86 32 99 37 88 34 113 36 90 36 43 40 91 128 122 139 89 127 115 137 89 127 115 137 88 34 113 36 90 36 43 40 92 38 119 42 93 129 121 140 91 128 122 139 91 128 122 139 90 36 43 40 92 38 119 42 94 40 40 44 95 130 126 141 93 129 121 140 93 129 121 140 92 38 119 42 94 40 40 44 96 42 123 46 97 131 125 142 95 130 126 141 95 130 126 141 94 40 40 44 96 42 123 46 98 44 38 48 99 132 128 143 97 131 125 142 97 131 125 142 96 42 123 46 98 44 38 48 100 46 127 50 101 133 129 144 99 132 128 143 99 132 128 143 98 44 38 48 100 46 127 50 102 48 130 52 103 134 131 145 101 133 129 144 101 133 129 144 100 46 127 50 102 48 130 52 105 50 48 54 104 135 118 146 103 134 131 145 103 134 131 145 102 48 130 52 105 50 48 54 83 29 112 31 82 122 111 132 104 135 118 146 104 135 118 146 105 50 48 54 83 29 112 31 63 99 201 108 74 115 144 125 179 136 217 147 179 136 217 147 178 137 215 148 63 99 201 108 159 98 179 107 63 99 201 108 178 137 215 148 178 137 215 148 160 138 176 149 159 98 179 107 112 139 102 150 113 140 101 151 125 53 150 57 125 53 150 57 124 52 83 56 112 139 102 150 111 141 149 152 112 139 102 150 124 52 83 56 124 52 83 56 123 56 58 60 111 141 149 152 110 142 140 153 111 141 108 154 123 56 79 63 123 56 79 63 122 58 56 62 110 142 140 153 109 143 141 155 110 142 140 153 122 58 56 62 122 58 56 62 121 60 138 66 109 143 141 155 108 144 147 156 109 143 141 155 121 60 138 66 121 60 138 66 120 62 54 68 108 144 147 156 107 145 218 157 108 144 147 156 120 62 54 68 120 62 54 68 119 64 76 70 107 145 218 157 106 146 153 158 107 145 218 157 119 64 76 70 119 64 76 70 118 66 137 72 106 146 153 158 117 147 146 159 106 146 153 158 118 66 137 72 118 66 137 72 129 68 51 74 117 147 146 159 116 148 192 160 117 147 146 159 129 68 51 74 129 68 51 74 128 70 86 76 116 148 192 160 115 149 152 161 116 148 192 160 128 70 86 76 128 70 86 76 127 72 142 78 115 149 152 161 114 150 151 162 115 149 152 161 127 72 142 78 127 72 142 78 126 74 61 80 114 150 151 162 113 140 101 151 114 150 151 162 126 74 61 80 126 74 61 80 125 53 150 57 113 140 101 151 147 151 134 163 148 152 216 164 136 77 106 83 136 77 106 83 135 76 105 82 147 151 134 163 146 153 81 165 147 151 134 163 135 76 105 82 135 76 105 82 134 78 154 84 146 153 81 165 145 154 221 166 146 153 222 167 134 78 223 86 134 78 223 86 133 79 155 85 145 154 221 166 144 155 136 168 145 154 221 166 133 79 155 85 133 79 155 85 132 80 156 87 144 155 136 168 143 156 77 169 144 155 136 168 132 80 156 87 132 80 156 87 131 81 157 88 143 156 77 169 142 157 229 170 143 156 77 169 131 81 157 88 131 81 157 88 130 82 158 89 142 157 229 170 153 158 161 171 142 157 229 170 130 82 158 89 130 82 158 89 141 83 159 90 153 158 161 171 152 159 74 172 153 158 161 171 141 83 159 90 141 83 159 90 140 84 197 91 152 159 74 172 151 160 196 173 152 159 74 172 140 84 197 91 140 84 197 91 139 85 195 92 151 160 196 173 150 161 163 174 151 160 196 173 139 85 195 92 139 85 195 92 138 86 198 93 150 161 163 174 149 162 84 175 150 161 163 174 138 86 198 93 138 86 198 93 137 87 199 94 149 162 84 175 148 152 216 164 149 162 84 175 137 87 199 94 137 87 199 94 136 77 106 83 148 152 216 164 55 163 132 176 56 164 220 177 148 152 216 164 148 152 216 164 147 151 134 163 55 163 132 176 54 165 82 178 55 163 132 176 147 151 134 163 147 151 134 163 146 153 81 165 54 165 82 178 53 166 224 179 54 165 225 180 146 153 222 167 146 153 222 167 145 154 221 166 53 166 224 179 52 167 135 181 53 166 224 179 145 154 221 166 145 154 221 166 144 155 136 168 52 167 135 181 51 168 78 182 52 167 135 181 144 155 136 168 144 155 136 168 143 156 77 169 51 168 78 182 50 169 230 183 51 168 78 182 143 156 77 169 143 156 77 169 142 157 229 170 50 169 230 183 49 170 160 184 50 169 230 183 142 157 229 170 142 157 229 170 153 158 161 171 49 170 160 184 48 171 75 185 49 170 160 184 153 158 161 171 153 158 161 171 152 159 74 172 48 171 75 185 59 172 200 186 48 171 75 185 152 159 74 172 152 159 74 172 151 160 196 173 59 172 200 186 58 173 162 187 59 172 200 186 151 160 196 173 151 160 196 173 150 161 163 174 58 173 162 187 57 174 85 188 58 173 162 187 150 161 163 174 150 161 163 174 149 162 84 175 57 174 85 188 56 164 220 177 57 174 85 188 149 162 84 175 149 162 84 175 148 152 216 164 56 164 220 177 170 175 172 189 175 176 228 190 154 89 89 96 154 89 89 96 155 88 88 95 170 175 172 189 169 177 165 191 170 175 172 189 155 88 88 95 155 88 88 95 156 92 148 99 169 177 165 191 168 178 173 192 169 177 109 193 156 92 97 102 156 92 97 102 157 94 168 101 168 178 173 192 167 179 175 194 168 178 173 192 157 94 168 101 157 94 168 101 158 96 174 105 167 179 175 194 166 180 178 195 167 179 175 194 158 96 174 105 158 96 174 105 159 98 179 107 166 180 178 195 177 181 177 196 166 180 178 195 159 98 179 107 159 98 179 107 160 138 176 149 177 181 177 196 176 182 180 197 177 181 177 196 160 138 176 149 160 138 176 149 161 101 181 110 176 182 180 197 174 183 167 198 176 182 180 197 161 101 181 110 161 101 181 110 162 100 166 109 174 183 167 198 163 104 193 113 173 184 194 199 174 183 167 198 174 183 167 198 162 100 166 109 163 104 193 113 172 185 182 200 173 184 194 199 163 104 193 113 163 104 193 113 164 106 183 115 172 185 182 200 171 186 170 201 172 185 182 200 164 106 183 115 164 106 183 115 165 108 169 117 171 186 170 201 175 176 228 190 171 186 170 201 165 108 169 117 165 108 169 117 154 89 89 96 175 176 228 190 78 111 94 120 79 110 100 119 113 140 101 151 113 140 101 151 112 139 102 150 78 111 94 120 77 112 91 121 78 111 94 120 112 139 102 150 112 139 102 150 111 141 149 152 77 112 91 121 76 113 95 123 77 112 107 122 111 141 108 154 111 141 108 154 110 142 140 153 76 113 95 123 75 114 103 124 76 113 95 123 110 142 140 153 110 142 140 153 109 143 141 155 75 114 103 124 74 115 144 125 75 114 103 124 109 143 141 155 109 143 141 155 108 144 147 156 74 115 144 125 74 115 144 125 108 144 147 156 107 145 218 157 107 145 218 157 179 136 217 147 74 115 144 125 72 117 187 127 73 116 219 126 106 146 153 158 106 146 153 158 117 147 146 159 72 117 187 127 71 118 184 128 72 117 187 127 117 147 146 159 117 147 146 159 116 148 192 160 71 118 184 128 81 119 188 129 71 118 184 128 116 148 192 160 116 148 192 160 115 149 152 161 81 119 188 129 80 120 190 130 81 119 188 129 115 149 152 161 115 149 152 161 114 150 151 162 80 120 190 130 79 110 100 119 80 120 190 130 114 150 151 162 114 150 151 162 113 140 101 151 79 110 100 119 19 31 46 33 20 30 171 32 175 176 228 190 175 176 228 190 170 175 172 189 19 31 46 33 18 33 42 35 19 31 46 33 170 175 172 189 170 175 172 189 169 177 165 191 18 33 42 35 17 35 114 39 18 33 93 38 169 177 109 193 169 177 109 193 168 178 173 192 17 35 114 39 16 37 41 41 17 35 114 39 168 178 173 192 168 178 173 192 167 179 175 194 16 37 41 41 15 39 120 43 16 37 41 41 167 179 175 194 167 179 175 194 166 180 178 195 15 39 120 43 14 41 39 45 15 39 120 43 166 180 178 195 166 180 178 195 177 181 177 196 14 41 39 45 13 43 124 47 14 41 39 45 177 181 177 196 177 181 177 196 176 182 180 197 13 43 124 47 12 45 37 49 13 43 124 47 176 182 180 197 176 182 180 197 174 183 167 198 12 45 37 49 23 47 49 51 12 45 37 49 174 183 167 198 174 183 167 198 173 184 194 199 23 47 49 51 22 49 133 53 23 47 49 51 173 184 194 199 173 184 194 199 172 185 182 200 22 49 133 53 21 51 47 55 22 49 133 53 172 185 182 200 172 185 182 200 171 186 170 201 21 51 47 55 20 30 171 32 21 51 47 55 171 186 170 201 171 186 170 201 175 176 228 190 20 30 171 32 178 137 215 148 62 102 202 111 161 101 181 110 161 101 181 110 160 138 176 149 178 137 215 148 179 136 217 147 73 116 219 126 62 102 202 111 62 102 202 111 178 137 215 148 179 136 217 147 106 146 153 158 73 116 219 126 179 136 217 147 179 136 217 147 107 145 218 157 106 146 153 158 31 55 59 59 32 54 164 58 56 164 220 177 56 164 220 177 55 163 132 176 31 55 59 59 30 57 57 61 31 55 59 59 55 163 132 176 55 163 132 176 54 165 82 178 30 57 57 61 29 59 55 65 30 57 80 64 54 165 225 180 54 165 225 180 53 166 224 179 29 59 55 65 28 61 139 67 29 59 55 65 53 166 224 179 53 166 224 179 52 167 135 181 28 61 139 67 27 63 53 69 28 61 139 67 52 167 135 181 52 167 135 181 51 168 78 182 27 63 53 69 26 65 52 71 27 63 53 69 51 168 78 182 51 168 78 182 50 169 230 183 26 65 52 71 25 67 145 73 26 65 52 71 50 169 230 183 50 169 230 183 49 170 160 184 25 67 145 73 24 69 50 75 25 67 145 73 49 170 160 184 49 170 160 184 48 171 75 185 24 69 50 75 35 71 62 77 24 69 50 75 48 171 75 185 48 171 75 185 59 172 200 186 35 71 62 77 34 73 143 79 35 71 62 77 59 172 200 186 59 172 200 186 58 173 162 187 34 73 143 79 33 75 60 81 34 73 143 79 58 173 162 187 58 173 162 187 57 174 85 188 33 75 60 81 32 54 164 58 33 75 60 81 57 174 85 188 57 174 85 188 56 164 220 177 32 54 164 58 0 187 17 202 180 188 18 203 1 27 13 29 1 27 13 29 181 189 19 204 0 187 17 202 181 189 19 204 1 27 13 29 2 26 16 28 2 26 16 28 182 190 20 205 181 189 19 204 182 190 20 205 2 26 16 28 3 191 21 206 3 191 21 206 183 192 22 207 182 190 20 205 183 192 22 207 3 191 21 206 4 193 23 208 4 193 23 208 184 194 24 209 183 192 22 207 184 194 24 209 4 193 23 208 5 195 25 210 5 195 25 210 185 196 26 211 184 194 24 209 185 196 26 211 5 195 25 210 6 197 27 212 6 197 27 212 186 198 28 213 185 196 26 211 186 198 28 213 6 197 27 212 7 199 29 214 7 199 29 214 187 200 30 215 186 198 28 213 187 200 30 215 7 199 29 214 8 201 31 216 8 201 31 216 188 202 32 217 187 200 30 215 188 202 32 217 8 201 31 216 9 203 33 218 9 203 33 218 189 204 34 219 188 202 32 217 189 204 34 219 9 203 33 218 10 25 15 27 10 25 15 27 190 205 35 220 189 204 34 219 190 205 35 220 10 25 15 27 191 24 14 26 191 24 14 26 11 206 36 221 190 205 35 220 11 206 36 221 191 24 14 26 180 188 18 203 180 188 18 203 0 187 17 202 11 206 36 221 91 207 207 222 99 208 208 223 101 209 209 224 101 209 209 224 89 210 206 225 91 207 207 222 89 210 206 225 101 209 209 224 103 211 211 226 103 211 211 226 87 212 210 227 89 210 206 225 87 212 210 227 103 211 211 226 104 125 205 135 104 125 205 135 85 124 204 134 87 212 210 227 93 213 212 228 97 214 213 229 99 208 208 223 99 208 208 223 91 207 207 222 93 213 212 228 93 213 212 228 95 215 214 230 97 214 213 229 8 201 31 216 4 193 23 208 3 191 21 206 3 191 21 206 9 203 33 218 8 201 31 216 7 199 29 214 5 195 25 210 4 193 23 208 4 193 23 208 8 201 31 216 7 199 29 214 7 199 29 214 6 197 27 212 5 195 25 210 9 203 33 218 3 191 21 206 2 26 16 28 2 26 16 28 10 25 15 27 9 203 33 218 1 27 13 29 180 188 18 203 191 24 14 26 203 216 244 231 207 217 246 232 201 218 247 233 201 218 247 233 192 219 243 234 203 216 244 231 196 220 249 235 206 221 250 236 203 216 244 231 203 216 244 231 192 219 243 234 196 220 249 235 193 222 233 237 197 223 232 238 202 224 235 239 202 224 235 239 200 225 242 240 193 222 233 237 199 226 252 241 205 227 255 242 204 228 248 243 204 228 248 243 195 229 237 244 199 226 252 241 194 230 241 245 198 231 240 246 216 232 253 247 195 229 237 244 204 228 248 243 207 217 246 232 207 217 246 232 215 233 245 248 195 229 237 244 202 224 235 239 211 234 238 249 200 225 242 240 198 231 240 246 212 235 256 250 208 236 257 251 208 236 257 251 216 232 253 247 198 231 240 246 209 237 234 252 215 233 245 248 207 217 246 232 207 217 246 232 203 216 244 231 209 237 234 252 213 238 254 253 209 237 234 252 203 216 244 231 203 216 244 231 206 221 250 236 213 238 254 253 214 239 259 254 210 240 251 255 204 228 248 243 204 228 248 243 205 227 255 242 214 239 259 254 210 240 251 255 201 218 247 233 207 217 246 232 207 217 246 232 204 228 248 243 210 240 251 255 209 237 234 252 193 222 233 237 200 225 242 240 200 225 242 240 215 233 245 248 209 237 234 252 210 240 251 255 194 230 241 245 216 232 253 247 216 232 253 247 201 218 247 233 210 240 251 255 192 219 243 234 208 236 257 251 212 235 256 250 212 235 256 250 196 220 258 256 192 219 243 234 213 238 231 257 197 223 232 238 193 222 233 237 193 222 233 237 209 237 234 252 213 238 231 257 202 224 235 239 199 226 236 258 195 229 237 244 195 229 237 244 211 234 238 249 202 224 235 239 214 239 239 259 198 231 240 246 194 230 241 245 194 230 241 245 210 240 251 255 214 239 239 259 215 233 245 248 200 225 242 240 211 234 238 249 211 234 238 249 195 229 237 244 215 233 245 248 201 218 247 233 216 232 253 247 208 236 257 251 208 236 257 251 192 219 243 234 201 218 247 233 223 241 264 260 222 242 270 261 218 243 271 262 218 243 271 262 219 244 265 263 223 241 264 260 219 244 265 263 220 245 266 264 224 246 267 265 224 246 267 265 223 241 264 260 219 244 265 263 217 247 273 266 218 243 271 262 222 242 270 261 222 242 270 261 221 248 272 267 217 247 273 266 230 249 261 268 227 250 262 269 226 251 263 270 226 251 263 270 228 252 260 271 230 249 261 268 225 253 268 272 229 254 269 273 228 252 260 271 228 252 260 271 226 251 263 270 225 253 268 272 224 246 267 265 220 245 266 264 229 254 269 273 229 254 269 273 225 253 268 272 224 246 267 265 236 255 282 274 231 256 283 275 233 257 284 276 233 257 284 276 234 258 285 277 236 255 282 274 234 258 285 277 232 259 292 278 235 260 276 279 235 260 276 279 236 255 282 274 234 258 285 277 239 261 288 280 242 262 289 281 241 263 290 282 241 263 290 282 240 264 291 283 239 261 288 280 239 261 279 284 240 264 286 285 231 256 287 286 231 256 287 286 236 255 278 287 239 261 279 284 237 265 275 288 238 266 296 289 242 262 289 281 242 262 289 281 239 261 288 280 237 265 275 288 235 260 276 279 237 265 275 288 239 261 279 284 239 261 279 284 236 255 278 287 235 260 276 279 245 267 293 290 248 268 294 291 247 269 300 292 247 269 300 292 246 270 301 293 245 267 293 290 243 271 277 294 244 272 302 295 248 268 294 291 248 268 294 291 245 267 293 290 243 271 277 294 232 273 292 296 234 274 285 297 248 275 294 298 248 275 294 298 244 276 302 299 232 273 292 296 251 277 297 300 254 278 298 301 253 279 303 302 253 279 303 302 252 280 304 303 251 277 297 300 251 277 280 304 245 267 281 305 246 270 295 306 246 270 295 306 254 278 299 307 251 277 280 304 252 280 304 303 250 281 305 308 249 282 274 309 249 282 274 309 251 277 297 300 252 280 304 303 242 283 289 310 238 284 296 311 250 285 305 312 250 285 305 312 252 286 304 313 242 283 289 310 237 265 275 288 235 260 276 279 243 271 277 294 243 271 277 294 249 282 274 309 237 265 275 288 251 277 280 304 249 282 274 309 243 271 277 294 243 271 277 294 245 267 281 305 251 277 280 304 244 272 302 295 243 271 277 294 235 260 276 279 235 260 276 279 232 259 292 278 244 272 302 295 250 281 305 308 238 266 296 289 237 265 275 288 237 265 275 288 249 282 274 309 250 281 305 308 233 287 284 314 247 288 300 315 248 275 294 298 248 275 294 298 234 274 285 297 233 287 284 314 253 289 303 316 241 290 290 317 242 283 289 310 242 283 289 310 252 286 304 313 253 289 303 316 268 291 324 318 267 292 308 319 269 293 309 320 269 293 309 320 255 294 307 321 268 291 324 318 255 294 307 321 269 293 309 320 257 295 310 322 257 295 310 322 256 296 306 323 255 294 307 321 256 296 306 323 257 295 310 322 270 297 313 324 270 297 313 324 260 298 312 325 256 296 306 323 271 299 315 326 273 300 316 327 262 301 317 328 262 301 317 328 272 302 318 329 271 299 315 326 274 303 320 330 262 301 317 328 273 300 316 327 273 300 316 327 263 304 319 331 274 303 320 330 263 304 319 331 260 298 312 325 270 297 313 324 270 297 313 324 274 303 320 330 263 304 319 331 267 305 322 332 258 306 311 333 257 295 310 322 257 295 310 322 269 293 309 320 267 305 322 332 259 307 314 334 268 308 321 335 255 294 307 321 255 294 307 321 256 296 306 323 259 307 314 334 257 295 310 322 258 306 311 333 266 309 323 336 266 309 323 336 270 297 313 324 257 295 310 322 260 298 312 325 261 310 326 337 259 307 314 334 259 307 314 334 256 296 306 323 260 298 312 325 274 303 320 330 265 311 327 338 272 312 325 339 272 312 325 339 262 301 317 328 274 303 320 330 273 300 316 327 271 313 328 340 264 314 329 341 264 314 329 341 263 304 319 331 273 300 316 327 266 309 323 336 265 311 327 338 274 303 320 330 274 303 320 330 270 297 313 324 266 309 323 336 264 314 329 341 261 310 326 337 260 298 312 325 260 298 312 325 263 304 319 331 264 314 329 341</p>
        </triangles>
      </mesh>
    </geometry>
  </library_geometries>
  <library_lights>
    <light id="EnvironmentAmbientLight" name="EnvironmentAmbientLight">
      <technique_common>
        <ambient>
          <color>0 0 0</color>
        </ambient>
      </technique_common>
    </light>
  </library_lights>
  <library_images>
    <image id="module_ark_room_02_dds">
      <init_from>file:///C:/Program%20Files/Autodesk/3ds%20Max%202009/sceneassets/scenes/Frictional_Games/Props/station_batch_12/module_ark_room_02_Asset_Files/module_ark_room_02_WIP_Files/module_ark_room_02/tech/module_ark_room_02/module_ark_room_02.dds</init_from>
    </image>
    <image id="module_ark_room_02_nrm_dds">
      <init_from>file:///C:/Program%20Files/Autodesk/3ds%20Max%202009/sceneassets/scenes/Frictional_Games/Props/station_batch_12/module_ark_room_02_Asset_Files/module_ark_room_02_WIP_Files/module_ark_room_02/tech/module_ark_room_02/module_ark_room_02_nrm.dds</init_from>
    </image>
    <image id="module_ark_room_02_spec_dds">
      <init_from>file:///C:/Program%20Files/Autodesk/3ds%20Max%202009/sceneassets/scenes/Frictional_Games/Props/station_batch_12/module_ark_room_02_Asset_Files/module_ark_room_02_WIP_Files/module_ark_room_02/tech/module_ark_room_02/module_ark_room_02_spec.dds</init_from>
    </image>
  </library_images>
  <library_visual_scenes>
    <visual_scene id="MaxScene">
      <node name="EnvironmentAmbientLight">
        <instance_light url="#EnvironmentAmbientLight"/>
      </node>
      <node id="node-module_ark_room_02" name="module_ark_room_02">
        <rotate>1 0 0 -90</rotate>
        <scale>0.009948537 0.009948537 0.009948537</scale>
        <node>
          <matrix>1 0 0 0 0 1 0 -5.59548e-6 0 0 1 -0.1730499 0 0 0 1</matrix>
          <instance_geometry url="#geom-module_ark_room_02">
            <bind_material>
              <technique_common>
                <instance_material symbol="module_ark_room_02" target="#module_ark_room_02-material">
                  <bind_vertex_input semantic="CHANNEL1" input_semantic="TEXCOORD" input_set="0"/>
                  <bind_vertex_input semantic="CHANNEL1" input_semantic="TEXCOORD" input_set="0"/>
                  <bind_vertex_input semantic="CHANNEL1" input_semantic="TEXCOORD" input_set="0"/>
                </instance_material>
              </technique_common>
            </bind_material>
          </instance_geometry>
        </node>
        <extra>
          <technique profile="OpenCOLLADA">
            <user_properties>LastPose = undefined
</user_properties>
          </technique>
        </extra>
      </node>
    </visual_scene>
  </library_visual_scenes>
  <scene>
    <instance_visual_scene url="#MaxScene"/>
  </scene>
</COLLADA>