<?xml version="1.0" encoding="utf-8"?>
<COLLADA xmlns="http://www.collada.org/2005/11/COLLADASchema" version="1.4.1">
  <asset>
    <contributor>
      <author>Marc</author>
      <authoring_tool>OpenCOLLADA2008</authoring_tool>
      <comments>
			ColladaMaya export options: 
			bakeTransforms=1;relativePaths=1;copyTextures=0;exportTriangles=1;exportCgfxFileReferences=0;
			isSampling=0;curveConstrainSampling=1;removeStaticCurves=0;exportPolygonMeshes=1;exportLights=0;
			exportCameras=0;exportJointsAndSkin=1;exportAnimations=1;exportInvisibleNodes=0;exportDefaultCameras=0;
			exportTexCoords=1;exportNormals=1;exportNormalsPerVertex=0;exportVertexColors=1;exportVertexColorsPerVertex=0;
			exportTexTangents=0;exportTangents=0;exportReferencedMaterials=0;exportMaterialsOnly=0;
			exportXRefs=0;dereferenceXRefs=1;exportCameraAsLookat=0;cameraXFov=0;cameraYFov=0;doublePrecision=0
		</comments>
      <source_data>file:///F:/Dropbox/Team/depth_marc/models/station/tech_pressure_gauges.mb</source_data>
    </contributor>
    <created>2012-10-19T14:22:13</created>
    <modified>2012-10-19T14:22:13</modified>
    <unit name="meter" meter="1"/>
    <up_axis>Y_UP</up_axis>
  </asset>
  <library_materials>
    <material id="lambert1" name="lambert1">
      <instance_effect url="#lambert1-fx"/>
    </material>
    <material id="lambert2" name="lambert2">
      <instance_effect url="#lambert2-fx"/>
    </material>
  </library_materials>
  <library_effects>
    <effect id="lambert1-fx">
      <profile_COMMON>
        <technique sid="common">
          <lambert>
            <emission>
              <color>0 0 0 1</color>
            </emission>
            <ambient>
              <color>0 0 0 1</color>
            </ambient>
            <diffuse>
              <color>0.4 0.4 0.4 1</color>
            </diffuse>
            <transparent opaque="RGB_ZERO">
              <color>0 0 0 1</color>
            </transparent>
            <transparency>
              <float>1</float>
            </transparency>
          </lambert>
        </technique>
      </profile_COMMON>
    </effect>
    <effect id="lambert2-fx">
      <profile_COMMON>
        <newparam sid="file1-surface">
          <surface type="2D">
            <init_from>file1</init_from>
          </surface>
        </newparam>
        <newparam sid="file1-sampler">
          <sampler2D>
            <source>file1-surface</source>
          </sampler2D>
        </newparam>
        <technique sid="common">
          <lambert>
            <emission>
              <color>0 0 0 1</color>
            </emission>
            <ambient>
              <color>0 0 0 1</color>
            </ambient>
            <diffuse>
              <texture texture="file1-sampler" texcoord="TEX0">
                <extra>
                  <technique profile="OpenCOLLADAMaya">
                    <blend_mode>NONE</blend_mode>
                    <coverageU>1</coverageU>
                    <coverageV>1</coverageV>
                    <fast>0</fast>
                    <mirrorU>0</mirrorU>
                    <mirrorV>0</mirrorV>
                    <noiseU>0</noiseU>
                    <noiseV>0</noiseV>
                    <offsetU>0</offsetU>
                    <offsetV>0</offsetV>
                    <repeatU>1</repeatU>
                    <repeatV>1</repeatV>
                    <rotateFrame>0</rotateFrame>
                    <rotateUV>0</rotateUV>
                    <stagger>0</stagger>
                    <translateFrameU>0</translateFrameU>
                    <translateFrameV>0</translateFrameV>
                    <wrapU>1</wrapU>
                    <wrapV>1</wrapV>
                  </technique>
                </extra>
              </texture>
            </diffuse>
            <transparent opaque="RGB_ZERO">
              <color>0 0 0 1</color>
            </transparent>
            <transparency>
              <float>1</float>
            </transparency>
          </lambert>
        </technique>
      </profile_COMMON>
    </effect>
  </library_effects>
  <library_images>
    <image id="file1" name="file1">
      <init_from>./pressure_gauges_brown.dds</init_from>
      <extra>
        <technique profile="OpenCOLLADAMaya">
          <dgnode_type>kFile</dgnode_type>
          <image_sequence>0</image_sequence>
          <originalMayaNodeId>file1</originalMayaNodeId>
        </technique>
      </extra>
    </image>
  </library_images>
  <library_geometries>
    <geometry id="polySurfaceShape135" name="polySurfaceShape135">
      <mesh>
        <source id="polySurfaceShape135-positions" name="polySurfaceShape135-positions">
          <float_array id="polySurfaceShape135-positions-array" count="312">0.05138765 0.1240149 0.06797066 0.08933622 0.1617217 0.06797066 0.1033473 0.2133511 0.06797066 0.08966646 0.2650689 0.06797066 0.0519596 0.3030175 0.06797066 3.30238e-4 0.3170286 0.06797066 -0.05138763 0.3033477 0.06797066 -0.08933621 0.2656409 0.06797066 -0.1033473 0.2140115 0.06797066 -0.08966642 0.1622937 0.06797066 -0.05195957 0.1243451 0.06797066 -3.30191e-4 0.1103341 0.06797066 0.04239321 0.1397093 0.0931876 0.07369959 0.1708162 0.0931876 0.08525827 0.2134089 0.0931876 0.07397204 0.2560745 0.0931876 0.04286507 0.2873809 0.0931876 2.72436e-4 0.2989395 0.0931876 -0.04239318 0.2876534 0.0931876 -0.07369961 0.2565464 0.09318761 -0.0852582 0.2139537 0.0931876 -0.07397204 0.1712881 0.0931876 -0.042865 0.1399817 0.09318759 -2.72388e-4 0.1284231 0.09318758 0 0.2136813 0.0931876 0.05204288 -0.3145501 0.06797066 0.0897143 -0.2765664 0.06797066 0.1033469 -0.2248358 0.06797066 0.08928775 -0.1732195 0.06797066 0.05130404 -0.1355481 0.06797066 -4.26569e-4 -0.1219155 0.06797066 -0.05204286 -0.1359746 0.06797066 -0.0897143 -0.1739584 0.06797066 -0.1033468 -0.225689 0.06797066 -0.08928772 -0.2773053 0.06797066 -0.05130401 -0.3149767 0.06797066 4.26617e-4 -0.3286092 0.06797066 0.04293376 -0.298922 0.0931876 0.07401155 -0.2675866 0.0931876 0.08525797 -0.2249105 0.09318759 0.07365967 -0.1823286 0.0931876 0.04232422 -0.1512509 0.0931876 -3.51896e-4 -0.1400044 0.09318759 -0.04293372 -0.1516027 0.0931876 -0.07401152 -0.1829382 0.0931876 -0.08525796 -0.2256143 0.09318759 -0.07365963 -0.2681961 0.0931876 -0.04232418 -0.2992739 0.0931876 3.51934e-4 -0.3105203 0.0931876 0 -0.2252624 0.0931876 -0.1430614 -0.3775997 -5.92651e-4 -0.1094945 -0.4278362 -5.35488e-4 -0.05925798 -0.461403 -4.97341e-4 0 -0.4731902 -4.83913e-4 0.05925793 -0.4614031 -4.97313e-4 0.1094944 -0.4278362 -5.35488e-4 0.1430614 -0.3775998 -5.92661e-4 0.1548486 -0.3183418 -6.60067e-4 -0.1548485 -0.3183418 -6.60028e-4 0.1430614 0.3707227 -6.73962e-5 0.1094944 0.4209592 -1.2454e-4 0.05925797 0.4545262 -1.62716e-4 0 0.4663133 -1.76134e-4 -0.059258 0.4545262 -1.62735e-4 -0.1094945 0.4209592 -1.2454e-4 -0.1430614 0.3707228 -6.73962e-5 0.1548485 0.3114648 0 -0.1548486 0.3114648 0 -0.1108727 -0.364189 0.06774172 -0.1430614 -0.3775608 0.03358563 -0.1094945 -0.4277973 0.03364276 -0.0848583 -0.4031223 0.06778605 -0.05925798 -0.4613642 0.03368094 -0.04592499 -0.4291367 0.06781561 0 -0.4731514 0.03369433 0 -0.4382718 0.06782602 0.05925793 -0.4613643 0.03368093 0.04592495 -0.4291367 0.06781561 0.1094944 -0.4277974 0.03364276 0.08485832 -0.4031223 0.06778605 0.1430614 -0.3775609 0.03358563 0.1108727 -0.3641891 0.06774179 0.1206793 -0.3148988 0.06806841 0.1548486 -0.318303 0.03351818 -0.1206793 -0.3148986 0.06806847 -0.1548485 -0.3183029 0.03351815 0.1108727 0.3574675 0.06829731 0.1430614 0.3707616 0.03411086 0.1094944 0.4209981 0.03405372 0.08485828 0.3964008 0.06825304 0.05925797 0.454565 0.03401554 0.04592499 0.4224153 0.06822346 0 0.4663522 0.03400216 0 0.4315503 0.06821302 -0.059258 0.454565 0.03401556 -0.04592503 0.4224153 0.06822346 -0.1094945 0.4209982 0.03405373 -0.08485836 0.3964009 0.06825304 -0.1430614 0.3707617 0.03411086 -0.1108728 0.3574675 0.06829731 -0.1206793 0.3081772 0.06797066 -0.1548486 0.3115037 0.0341782 0.1206792 0.3081772 0.06797064 0.1548485 0.3115037 0.0341782</float_array>
          <technique_common>
            <accessor source="#polySurfaceShape135-positions-array" count="104" stride="3">
              <param name="X" type="float"/>
              <param name="Y" type="float"/>
              <param name="Z" type="float"/>
            </accessor>
          </technique_common>
        </source>
        <source id="polySurfaceShape135-normals" name="polySurfaceShape135-normals">
          <float_array id="polySurfaceShape135-normals-array" count="366">0.4040289 -0.7049909 0.5828797 0.7023944 -0.408526 0.5828795 0.3901906 -0.2269423 0.8923276 0.2244439 -0.3916329 0.8923276 0.8125544 -0.002596471 0.5828797 0.451386 -0.001442378 0.8923276 0.704991 0.404029 0.5828792 0.391633 0.2244442 0.8923275 0.4085259 0.7023944 0.5828797 0.2269422 0.3901906 0.8923276 0.002596288 0.8125539 0.5828803 0.001442276 0.4513857 0.8923277 -0.404029 0.704991 0.5828794 -0.224444 0.3916331 0.8923275 -0.7023945 0.408526 0.5828795 -0.3901906 0.2269423 0.8923276 -0.8125541 0.002596318 0.5828801 -0.4513858 0.00144223 0.8923276 -0.7049908 -0.4040288 0.5828797 -0.3916329 -0.2244441 0.8923276 -0.4085255 -0.7023946 0.5828797 -0.2269419 -0.3901908 0.8923276 -0.002596059 -0.8125542 0.5828799 -0.00144215 -0.4513861 0.8923277 0 0 0.9999999 0.4091805 -0.7020137 0.5828792 0.7053678 -0.4033712 0.5828791 0.3918423 -0.2240787 0.8923274 0.2273059 -0.3899792 0.8923275 0.8125524 0.003353661 0.5828785 0.4513852 0.00186301 0.8923272 0.7020141 0.4091804 0.5828788 0.3899795 0.2273058 0.8923274 0.4033712 0.7053677 0.5828792 0.2240788 0.3918423 0.8923274 -0.003353745 0.812552 0.5828791 -0.001863056 0.4513849 0.8923274 -0.4091803 0.7020138 0.5828792 -0.2273058 0.3899792 0.8923275 -0.7053678 0.4033712 0.5828791 -0.3918424 0.2240787 0.8923274 -0.8125524 -0.003353791 0.5828786 -0.4513851 -0.001863082 0.8923274 -0.7020139 -0.4091805 0.582879 -0.3899792 -0.2273058 0.8923274 -0.403371 -0.7053676 0.5828794 -0.2240787 -0.3918422 0.8923275 0.003354073 -0.8125519 0.5828792 0.001863238 -0.4513848 0.8923275 0 0 0.9999999 -0.9238796 -0.382683 4.34804e-4 -0.7071071 -0.7071061 8.03496e-4 -0.7071071 -0.7071061 8.03496e-4 -0.9238796 -0.382683 4.34804e-4 -0.3826838 -0.9238787 0.001049857 -0.3826838 -0.9238787 0.001049857 0 -0.9999994 0.001136121 0 -0.9999994 0.001136121 0.3826829 -0.9238791 0.001049857 0.3826829 -0.9238791 0.001049857 0.7071066 -0.7071066 8.03496e-4 0.7071066 -0.7071066 8.03496e-4 0.9238795 -0.3826832 4.34803e-4 0.9238795 -0.3826832 4.34803e-4 0.9951847 -0.09801711 1.11467e-4 0.9951847 -0.09801711 1.11467e-4 -0.9951847 -0.09801731 1.11467e-4 -0.9951847 -0.09801731 1.11467e-4 0.9951847 0.09801693 -1.1156e-4 0.9238797 0.3826828 -4.35651e-4 0.9238797 0.3826828 -4.35651e-4 0.9951847 0.09801693 -1.1156e-4 0.7071071 0.7071061 -8.05003e-4 0.7071071 0.7071061 -8.05003e-4 0.3826838 0.9238788 -0.00105061 0.3826838 0.9238788 -0.00105061 0 0.9999994 -0.00113612 0 0.9999994 -0.00113612 -0.3826834 0.923879 -0.001050232 -0.3826834 0.923879 -0.001050232 -0.7071069 0.7071063 -8.04626e-4 -0.7071069 0.7071063 -8.04626e-4 -0.9238796 0.3826832 -4.35651e-4 -0.9238796 0.3826832 -4.35651e-4 -0.9951847 0.09801708 -1.1156e-4 -0.9951847 0.09801708 -1.1156e-4 -0.3521823 -0.3517904 0.867301 -0.1905877 -0.4597269 0.8673682 0 -0.4976262 0.8673916 0.1905874 -0.4597273 0.867368 0.3521822 -0.3517909 0.8673009 0.4607787 -0.1912593 0.8666618 0.5018435 -0.0503838 0.8634898 0.5005944 0.04835291 0.8643304 0.4597125 0.1900268 0.8674988 0.3523301 0.3527211 0.8668629 0.1906919 0.4607621 0.8667958 0 0.4987043 0.8667722 -0.1906917 0.4607623 0.8667958 -0.3523301 0.3527214 0.8668628 -0.4597124 0.1900269 0.8674988 -0.5005945 0.04835294 0.8643305 -0.5018436 -0.05038402 0.8634896 -0.4607786 -0.1912591 0.866662 -0.6475316 -0.2685146 0.7131639 -0.7027543 -0.07029518 0.7079512 -0.4951264 -0.4943137 0.7144955 -0.2679608 -0.646101 0.714668 0 -0.6994019 0.7147284 0.2679602 -0.6461015 0.7146678 0.4951261 -0.4943144 0.7144952 0.6475317 -0.2685149 0.7131639 0.702754 -0.07029486 0.7079516 0.7012724 0.06799641 0.7096432 -0.7012725 0.06799645 0.7096431 0.6462976 0.2674153 0.7146947 0.4951267 0.4959378 0.713369 0.2679605 0.6477252 0.7131963 0 0.701026 0.7131357 -0.2679603 0.6477256 0.7131962 -0.4951266 0.4959382 0.7133687 -0.6462976 0.2674155 0.7146947</float_array>
          <technique_common>
            <accessor source="#polySurfaceShape135-normals-array" count="122" stride="3">
              <param name="X" type="float"/>
              <param name="Y" type="float"/>
              <param name="Z" type="float"/>
            </accessor>
          </technique_common>
        </source>
        <source id="polySurfaceShape135-map1" name="polySurfaceShape135-map1">
          <float_array id="polySurfaceShape135-map1-array" count="252">0.352166 0.5726722 0.4270789 0.6475853 0.2498329 0.7499183 0.3738776 0.5350665 0.4646846 0.6258736 0.454499 0.7499183 0.249833 0.5452521 0.4979224 0.7499183 0.2498329 0.5018287 0.4270789 0.8522515 0.1474998 0.5726722 0.4646847 0.8739632 0.1257882 0.5350664 0.352166 0.9271645 0.07258686 0.6475853 0.3738776 0.9647703 0.0349811 0.6258736 0.2498329 0.9545846 0.04516679 0.7499184 0.2498329 0.998008 0.001743436 0.7499184 0.1474998 0.9271646 0.07258689 0.8522515 0.1257882 0.9647703 0.03498113 0.8739632 0.3522479 0.07283551 0.4271609 0.1477486 0.2499148 0.2500817 0.3739595 0.03522974 0.4647666 0.1260369 0.4545809 0.2500817 0.2499148 0.04541541 0.4980043 0.2500817 0.2499148 0.001992032 0.4271609 0.3524148 0.1475817 0.07283551 0.4647666 0.3741265 0.1258701 0.03522974 0.3522479 0.4273278 0.07266875 0.1477486 0.3739596 0.4649336 0.03506302 0.1260369 0.2499148 0.4547479 0.04524869 0.2500817 0.2499148 0.4981713 0.001825313 0.2500817 0.1475818 0.4273279 0.0726688 0.3524148 0.1258701 0.4649336 0.03506302 0.3741265 0.9134928 0.1697818 0.9134921 0.1159974 0.8752087 0.1159985 0.8752093 0.1697894 0.9134907 0.0622081 0.875207 0.06221137 0.9134818 0.008418791 0.8751984 0.008423693 0.9131501 0.008423701 0.9131414 0.06221136 0.8748578 0.0622081 0.8748666 0.008418784 0.9131398 0.1159985 0.8748563 0.1159974 0.9131391 0.1697894 0.8748556 0.1697818 0.9131151 0.223588 0.8748317 0.2235581 0.9135168 0.2235581 0.8752333 0.223588 0.9135102 0.7842812 0.9134791 0.8380591 0.8751956 0.838047 0.8752267 0.7842496 0.9134704 0.8918396 0.8751869 0.8918424 0.9134911 0.945623 0.8752077 0.945636 0.9135167 0.9994112 0.8752332 0.9994253 0.9131152 0.9994253 0.9131408 0.945636 0.8748573 0.945623 0.8748317 0.9994112 0.9131616 0.8918424 0.874878 0.8918396 0.9131528 0.838047 0.8748693 0.8380591 0.9131217 0.7842496 0.8748382 0.7842812 0.595278 0.09328289 0.6346743 0.06699994 0.6811193 0.0577691 0.7275636 0.06700055 0.7669593 0.09328414 0.7934409 0.1326381 0.8039244 0.182696 0.8040181 0.8182777 0.7933472 0.8683142 0.7669413 0.9076751 0.7275593 0.9339618 0.6811124 0.9431932 0.6346656 0.9339612 0.5952842 0.9076737 0.5688783 0.8683124 0.5582086 0.8182763 0.5583116 0.1826947 0.5687965 0.1326362 0.5235537 0.1129817 0.509112 0.1772104 0.5606779 0.0582229 0.6159317 0.02145133 0.6811193 0.008513955 0.7463068 0.02145196 0.8015594 0.05822478 0.8386836 0.1129836 0.8531241 0.1772129 0.8527402 0.8235559 0.5094859 0.8235536 0.8386049 0.8878183 0.8015768 0.9426901 0.7463167 0.9795042 0.6811124 0.992449 0.6159074 0.9795035 0.560648 0.9426883 0.5236205 0.887817</float_array>
          <technique_common>
            <accessor source="#polySurfaceShape135-map1-array" count="126" stride="2">
              <param name="S" type="float"/>
              <param name="T" type="float"/>
            </accessor>
          </technique_common>
        </source>
        <vertices id="polySurfaceShape135-vertices" name="polySurfaceShape135-vertices">
          <input semantic="POSITION" source="#polySurfaceShape135-positions"/>
        </vertices>
        <triangles material="lambert2SG" count="160">
          <input semantic="VERTEX" source="#polySurfaceShape135-vertices" offset="0"/>
          <input semantic="NORMAL" source="#polySurfaceShape135-normals" offset="1"/>
          <input semantic="TEXCOORD" source="#polySurfaceShape135-map1" offset="2" set="0"/>
          <p>0 0 3 1 1 4 12 3 0 12 3 0 1 1 4 13 2 1 1 1 4 2 4 7 13 2 1 13 2 1 2 4 7 14 5 5 2 4 7 3 6 11 14 5 5 14 5 5 3 6 11 15 7 9 3 6 11 4 8 15 15 7 9 15 7 9 4 8 15 16 9 13 4 8 15 5 10 19 16 9 13 16 9 13 5 10 19 17 11 17 5 10 19 6 12 23 17 11 17 17 11 17 6 12 23 18 13 21 6 12 23 7 14 24 18 13 21 18 13 21 7 14 24 19 15 22 7 14 24 8 16 20 19 15 22 19 15 22 8 16 20 20 17 18 8 16 20 9 18 16 20 17 18 20 17 18 9 18 16 21 19 14 9 18 16 10 20 12 21 19 14 21 19 14 10 20 12 22 21 10 10 20 12 11 22 8 22 21 10 22 21 10 11 22 8 23 23 6 11 22 8 0 0 3 23 23 6 23 23 6 0 0 3 12 3 0 12 3 0 13 2 1 24 24 2 13 2 1 14 5 5 24 24 2 14 5 5 15 7 9 24 24 2 15 7 9 16 9 13 24 24 2 16 9 13 17 11 17 24 24 2 17 11 17 18 13 21 24 24 2 18 13 21 19 15 22 24 24 2 19 15 22 20 17 18 24 24 2 20 17 18 21 19 14 24 24 2 21 19 14 22 21 10 24 24 2 22 21 10 23 23 6 24 24 2 23 23 6 12 3 0 24 24 2 25 25 28 26 26 29 37 28 25 37 28 25 26 26 29 38 27 26 26 26 29 27 29 32 38 27 26 38 27 26 27 29 32 39 30 30 27 29 32 28 31 36 39 30 30 39 30 30 28 31 36 40 32 34 28 31 36 29 33 40 40 32 34 40 32 34 29 33 40 41 34 38 29 33 40 30 35 44 41 34 38 41 34 38 30 35 44 42 36 42 30 35 44 31 37 48 42 36 42 42 36 42 31 37 48 43 38 46 31 37 48 32 39 49 43 38 46 43 38 46 32 39 49 44 40 47 32 39 49 33 41 45 44 40 47 44 40 47 33 41 45 45 42 43 33 41 45 34 43 41 45 42 43 45 42 43 34 43 41 46 44 39 34 43 41 35 45 37 46 44 39 46 44 39 35 45 37 47 46 35 35 45 37 36 47 33 47 46 35 47 46 35 36 47 33 48 48 31 36 47 33 25 25 28 48 48 31 48 48 31 25 25 28 37 28 25 37 28 25 38 27 26 49 49 27 38 27 26 39 30 30 49 49 27 39 30 30 40 32 34 49 49 27 40 32 34 41 34 38 49 49 27 41 34 38 42 36 42 49 49 27 42 36 42 43 38 46 49 49 27 43 38 46 44 40 47 49 49 27 44 40 47 45 42 43 49 49 27 45 42 43 46 44 39 49 49 27 46 44 39 47 46 35 49 49 27 47 46 35 48 48 31 49 49 27 48 48 31 37 28 25 49 49 27 50 50 50 51 51 51 69 53 53 69 53 53 51 51 51 70 52 52 51 51 51 52 54 54 70 52 52 70 52 52 52 54 54 72 55 55 52 54 54 53 56 56 72 55 55 72 55 55 53 56 56 74 57 57 53 56 58 54 58 59 74 57 61 74 57 61 54 58 59 76 59 60 54 58 59 55 60 62 76 59 60 76 59 60 55 60 62 78 61 63 55 60 62 56 62 64 78 61 63 78 61 63 56 62 64 80 63 65 56 62 64 57 64 66 80 63 65 80 63 65 57 64 66 83 65 67 58 66 68 50 50 50 85 67 69 85 67 69 50 50 50 69 53 53 66 68 70 59 69 71 103 71 73 103 71 73 59 69 71 87 70 72 59 69 71 60 72 74 87 70 72 87 70 72 60 72 74 88 73 75 60 72 74 61 74 76 88 73 75 88 73 75 61 74 76 90 75 77 61 74 76 62 76 78 90 75 77 90 75 77 62 76 78 92 77 79 62 76 80 63 78 81 92 77 83 92 77 83 63 78 81 94 79 82 63 78 81 64 80 84 94 79 82 94 79 82 64 80 84 96 81 85 64 80 84 65 82 86 96 81 85 96 81 85 65 82 86 98 83 87 65 82 86 67 84 88 98 83 87 98 83 87 67 84 88 101 85 89 58 66 68 85 67 69 67 84 88 67 84 88 85 67 69 101 85 89 66 68 70 103 71 73 57 64 66 57 64 66 103 71 73 83 65 67 82 92 96 102 93 97 81 91 95 100 101 105 84 102 106 99 100 104 102 93 97 86 94 98 81 91 95 84 102 106 68 103 107 99 100 104 81 91 95 86 94 98 79 90 94 99 100 104 68 103 107 97 99 103 79 90 94 86 94 98 77 89 93 97 99 103 68 103 107 95 98 102 77 89 93 86 94 98 75 88 92 68 103 107 71 86 90 95 98 102 75 88 92 86 94 98 73 87 91 95 98 102 71 86 90 93 97 101 73 87 91 86 94 98 71 86 90 93 97 101 71 86 90 91 96 100 91 96 100 71 86 90 89 95 99 71 86 90 86 94 98 89 95 99 69 104 108 68 103 107 85 105 109 85 105 109 68 103 107 84 102 106 68 103 107 69 104 108 71 86 90 71 86 90 69 104 108 70 106 110 71 86 90 70 106 110 73 87 91 73 87 91 70 106 110 72 107 111 73 87 91 72 107 111 75 88 92 75 88 92 72 107 111 74 108 112 75 88 92 74 108 112 77 89 93 77 89 93 74 108 112 76 109 113 77 89 93 76 109 113 79 90 94 79 90 94 76 109 113 78 110 114 79 90 94 78 110 114 81 91 95 81 91 95 78 110 114 80 111 115 80 111 115 83 112 116 81 91 95 81 91 95 83 112 116 82 92 96 82 92 96 83 112 116 102 93 97 102 93 97 83 112 116 103 113 117 85 105 109 84 102 106 101 114 118 101 114 118 84 102 106 100 101 105 87 115 119 86 94 98 103 113 117 103 113 117 86 94 98 102 93 97 86 94 98 87 115 119 89 95 99 89 95 99 87 115 119 88 116 120 89 95 99 88 116 120 91 96 100 91 96 100 88 116 120 90 117 121 91 96 100 90 117 121 93 97 101 93 97 101 90 117 121 92 118 122 93 97 101 92 118 122 95 98 102 95 98 102 92 118 122 94 119 123 95 98 102 94 119 123 97 99 103 97 99 103 94 119 123 96 120 124 97 99 103 96 120 124 99 100 104 99 100 104 96 120 124 98 121 125 98 121 125 101 114 118 99 100 104 99 100 104 101 114 118 100 101 105</p>
        </triangles>
      </mesh>
      <extra>
        <technique profile="OpenCOLLADAMaya">
          <originalMayaNodeId>polySurfaceShape135</originalMayaNodeId>
          <double_sided>1</double_sided>
        </technique>
      </extra>
    </geometry>
  </library_geometries>
  <library_visual_scenes>
    <visual_scene id="VisualSceneNode" name="tech_pressure_gauges">
      <node id="polySurface135" name="polySurface135" type="NODE">
        <matrix sid="transform">1 0 0 0 0 1 0 0 0 0 1 0 0 0 0 1</matrix>
        <instance_geometry url="#polySurfaceShape135">
          <bind_material>
            <technique_common>
              <instance_material symbol="lambert2SG" target="#lambert2">
                <bind_vertex_input semantic="TEX0" input_semantic="TEXCOORD" input_set="0"/>
              </instance_material>
            </technique_common>
          </bind_material>
        </instance_geometry>
        <extra>
          <technique profile="OpenCOLLADAMaya">
            <originalMayaNodeId>polySurface135</originalMayaNodeId>
          </technique>
        </extra>
      </node>
    </visual_scene>
  </library_visual_scenes>
  <scene>
    <instance_visual_scene url="#VisualSceneNode"/>
  </scene>
</COLLADA>