<?xml version="1.0" encoding="utf-8" ?>
<COLLADA xmlns="http://www.collada.org/2005/11/COLLADASchema" version="1.4.1">
    <asset>
        <contributor>
            <author>Marc</author>
            <authoring_tool>modo 601 [Build 48460], Microsoft Windows 7 Service Pack 1 (6.1.7601 Service Pack 1)</authoring_tool>
            <comments>Plug-in: [Build 48460]; Use Absolute Path: No; Merge Reference Items: No; Save Hidden Items: No; Save Cameras: No; Save Lights: No; Save Locators: Yes; Save Triangles as Triangles: No; Bake Matrices: Yes; Save Vertex Normals: Yes; Save UV Texture Coordinates: Yes; Save Vertex Colors: Yes; Save Vertex Weights: Yes; Save Animation: No; Sample Animation: No; Sample Animation Start: 0; Sample Animation End: 235; Save modo Profile: No; Save Maya Profile: No; Save 3ds Max Profile: No; Formatted Arrays: No;</comments>
            <source_data>file:///D:/Work/studio/Frictional%20Games/Depth/redist/static_objects/station/details/scaffold_bevelled_wall_rusty.lxo</source_data>
        </contributor>
        <created>2013-11-13T20:30:28Z</created>
        <modified>2013-11-13T20:30:28Z</modified>
        <unit name="game" meter="1" />
        <up_axis>Y_UP</up_axis>
    </asset>
    <library_images>
        <image id="Image0001" name="Image0001">
            <init_from>file:///D:/Work/Dropbox/Frictional%20Games%20-%20Team/Aaron/models/static_objects/station/details/girder_scaffold_rusty.psd</init_from>
        </image>
    </library_images>
    <library_materials>
        <material id="Material-lambert2" name="lambert2">
            <instance_effect url="#Effect-lambert2" />
        </material>
    </library_materials>
    <library_effects>
        <effect id="Effect-lambert2" name="lambert2">
            <profile_COMMON>
                <newparam sid="Image0001-surface">
                    <surface type="2D">
                        <init_from>Image0001</init_from>
                        <format>A8R8G8B8</format>
                    </surface>
                </newparam>
                <newparam sid="Image0001-sampler">
                    <sampler2D>
                        <source>Image0001-surface</source>
                        <minfilter>LINEAR_MIPMAP_LINEAR</minfilter>
                        <magfilter>LINEAR</magfilter>
                    </sampler2D>
                </newparam>
                <technique sid="common">
                    <phong>
                        <diffuse>
                            <texture texture="Image0001-sampler" texcoord="uvSet1" />
                        </diffuse>
                        <specular>
                            <color sid="specular_effect_rgb">0.2 0.2 0.2 1</color>
                        </specular>
                        <shininess>
                            <float sid="specular_effect_rgb">256</float>
                        </shininess>
                        <transparent opaque="RGB_ZERO">
                            <color sid="transparent_effect_rgb">0 0 0 1</color>
                        </transparent>
                        <transparency>
                            <float sid="transparency_effect_float">1</float>
                        </transparency>
                    </phong>
                </technique>
            </profile_COMMON>
        </effect>
    </library_effects>
    <library_geometries>
        <geometry id="Geometry-mesh043" name="girder_scaffold_pole_rusty">
            <mesh>
                <source id="Geometry-mesh043-positions" name="positions">
                    <float_array id="Geometry-mesh043-positions-array" count="315">0.052073 0.707481 -0.052073 0 0.707481 -0.073642 -0.052072 0.707481 -0.052073 -0.073642 0.707481 0 -0.052072 0.707481 0.052072 0 0.707481 0.073642 0.052073 0.707481 0.052072 0.073642 0.707481 0 0.054005 0.707481 0 0.038187 0.707481 -0.038187 0 0.707481 -0.054005 -0.038186 0.707481 -0.038187 -0.054004 0.707481 0 -0.038186 0.707481 0.038186 0 0.707481 0.054004 0.038187 0.707481 0.038186 0 2.18895 0.053999 -0.038186 2.18895 0.038182 -0.054004 2.18895 -4.99934e-006 -0.038186 2.18895 -0.038191 0 2.18895 -0.054009 0.038187 2.18895 -0.038191 0.054005 2.18895 -4.99934e-006 0.038187 2.18895 0.038182 0 2.18895 0.073206 -0.051768 2.18895 0.051763 0 2.40195 0.073206 -0.051768 2.40195 0.051763 -0.073211 2.18895 -4.99934e-006 -0.073211 2.40195 -4.99934e-006 -0.051768 2.18895 -0.051773 -0.051768 2.40195 -0.051773 0 2.18895 -0.073216 0 2.40195 -0.073216 0.051768 2.18895 -0.051773 0.051768 2.40195 -0.051773 0.073211 2.18895 -4.99934e-006 0.073211 2.40195 -4.99934e-006 0.051768 2.18895 0.051763 0.051768 2.40195 0.051763 -0.051768 2.37958 0.051763 -0.073211 2.37958 -4.99934e-006 -0.051768 2.37958 -0.051773 0 2.37958 -0.073216 0.051768 2.37958 -0.051773 0.073211 2.37958 -4.99934e-006 0.051768 2.37958 0.051763 0 2.37958 0.073206 0.073211 2.21135 -4.99934e-006 0.051768 2.21135 0.051763 0 2.21135 0.073206 -0.051768 2.21135 0.051763 -0.073211 2.21135 -4.99934e-006 -0.051768 2.21135 -0.051773 0 2.21135 -0.073216 0.051768 2.21135 -0.051773 0.073642 0.682831 0 0.052073 0.682831 0.052072 0 0.682831 0.073642 -0.052072 0.682831 0.052072 -0.073642 0.682831 0 -0.052072 0.682831 -0.052073 0 0.682831 -0.073642 0.052073 0.682831 -0.052073 0.04351 -0.0665564 -0.04351 0 -0.0665564 -0.061532 0 0.682831 -0.061532 0.04351 0.682831 -0.04351 -0.043509 -0.0665564 -0.04351 -0.043509 0.682831 -0.04351 -0.043509 -0.0665564 0.043509 -0.043509 0.682831 0.043509 0 -0.0665564 0.061531 0 0.682831 0.061531 0.04351 -0.0665564 0.043509 0.04351 0.682831 0.043509 0.043205 2.21135 0.0432 0.043205 2.37958 0.043199 0 2.21135 0.061096 0 2.37958 0.061095 -0.043204 2.21135 0.0432 -0.043204 2.37958 0.043199 -0.043204 2.21135 -0.043209 -0.043204 2.37958 -0.04321 0 2.21135 -0.061106 0 2.37958 -0.061106 0.043205 2.21135 -0.043209 0.043205 2.37958 -0.04321 0.040331 2.40195 -0.040332 0 2.40195 -0.057037 -0.040331 2.40195 -0.040332 -0.057037 2.40195 0 -0.040331 2.40195 0.040331 0 2.40195 0.057037 0.040331 2.40195 0.040331 0.057037 2.40195 0 0.040331 3.56656 -0.040332 0 3.56656 -0.057037 -0.040331 3.56656 -0.040332 -0.057037 3.56656 0 -0.040331 3.56656 0.040331 0 3.56656 0.057037 0.040331 3.56656 0.040331 0.057037 3.56656 0 0 3.56656 0</float_array>
                    <technique_common>
                        <accessor count="105" source="#Geometry-mesh043-positions-array" stride="3">
                            <param name="X" type="float" />
                            <param name="Y" type="float" />
                            <param name="Z" type="float" />
                        </accessor>
                    </technique_common>
                </source>
                <source id="Geometry-mesh043-normals" name="normals">
                    <float_array id="Geometry-mesh043-normals-array" count="336">0.831467 0 -0.555574 0.136768 0 -0.990603 -0.136776 0 -0.990602 -0.83147 0 -0.55557 -0.83147 0 0.55557 -0.136776 0 0.990602 0.136768 0 0.990603 0.831467 0 0.555574 3.07035e-006 1 -4.86892e-006 6.14069e-006 1 2.54356e-006 9.21104e-006 1 1.30264e-005 9.21104e-006 1 2.22374e-005 0 1 0 0.990601 3.6886e-007 0.13678 0.797171 -1.72263e-006 -0.603754 0.990601 -3.69505e-007 -0.13678 0.603749 -2.15288e-006 -0.797175 0.136774 -2.67536e-006 -0.990602 -0.136784 -2.67544e-006 -0.990601 -0.603756 -2.15298e-006 -0.797169 -0.797173 -1.7226e-006 -0.603751 -0.990602 -3.69196e-007 -0.136778 -0.990602 3.69158e-007 0.136778 -0.797173 1.72145e-006 0.603751 -0.60375 2.37427e-006 0.797174 -0.136776 3.11961e-006 0.990602 0.136774 3.11982e-006 0.990602 0.603742 2.37448e-006 0.797179 0.797167 1.72157e-006 0.603759 -0.797175 0 0.603748 -0.136774 0 0.990602 -0.603748 0 0.797175 0.136774 0 0.990602 -0.990602 0 -0.136774 -0.990602 0 0.136774 -0.603748 0 -0.797175 -0.797175 0 -0.603748 0.136774 0 -0.990602 -0.136774 0 -0.990602 0.797175 0 -0.603748 0.603748 0 -0.797175 0.990602 0 0.136774 0.990602 0 -0.136774 0.603748 0 0.797175 0.797175 0 0.603748 0 -1 0 -0.675608 -0.731335 -0.0932899 -0.543701 -0.73133 0.41176 -0.990602 0 0.136774 -0.49115 -0.581549 -0.648516 0.093291 -0.731318 -0.675626 0.543712 -0.731307 -0.411786 0.675639 -0.731307 0.0932863 0.990602 0 -0.136774 0.491167 -0.581523 0.648526 -0.0932863 -0.731307 0.675639 0.136774 0 0.990602 0.831469 3.31035e-006 0.555571 0.831469 3.30994e-006 0.555571 0.831472 -1.64859e-006 -0.555567 0.831475 -3.29716e-006 -0.555563 -0.136779 5.90152e-006 0.990602 0.13677 5.90203e-006 0.990603 -0.932364 2.15356e-006 0.36152 -0.690806 4.30771e-006 0.72304 -0.932364 -2.14545e-006 -0.36152 -0.690811 -2.14545e-006 -0.723035 0.136771 -1.95968e-006 -0.990603 -0.136785 -1.95959e-006 -0.990601 0.603754 0 0.797171 0.990602 0 0.136776 0.797177 0 0.603746 0.990603 0 -0.136769 -0.136782 0 0.990601 0.136776 0 0.990602 -0.797171 0 0.603753 -0.603753 0 0.797171 -0.990602 0 -0.136776 -0.990601 0 0.136782 -0.603746 0 -0.797177 -0.797171 0 -0.603754 0.136769 0 -0.990603 -0.136776 0 -0.990602 0.797176 0 -0.603746 0.603746 0 -0.797176 -5.29719e-006 1 -3.67892e-006 -9.63968e-006 1 -8.02089e-006 1.54526e-006 1 -2.75934e-006 7.08672e-006 -1 -3.93126e-005 5.31384e-005 -1 -5.29027e-005 3.7835e-005 -1 3.48019e-005 1.17e-005 1 4.34177e-006 7.35775e-006 1 0 -9.1974e-006 -1 0 -3.14685e-010 1 -3.1423e-010 0 1 -4.60552e-006 0.797173 0 -0.603751 0.136769 0 -0.990603 0.603741 0 -0.797181 -0.136769 0 -0.990603 -0.603741 0 -0.797181 -0.797173 0 -0.603751 -0.990603 0 -0.13677 -0.990602 0 0.136779 -0.797173 0 0.60375 -0.60375 0 0.797173 -0.136776 0 0.990602 0.136776 0 0.990602 0.60375 0 0.797173 0.797173 0 0.60375 0.990602 0 0.136779 0.990603 0 -0.13677</float_array>
                    <technique_common>
                        <accessor count="112" source="#Geometry-mesh043-normals-array" stride="3">
                            <param name="X" type="float" />
                            <param name="Y" type="float" />
                            <param name="Z" type="float" />
                        </accessor>
                    </technique_common>
                </source>
                <source id="Geometry-mesh043-uvSet1" name="uvSet1">
                    <float_array id="Geometry-mesh043-uvSet1-array" count="242">0.293452 0.032954 0.33077 0.032954 0.293452 0.297239 0.33077 0.297239 0.032241 0.032954 0.069558 0.032954 0.032241 0.297239 0.069558 0.297239 0.14419 0.297239 0.14419 0.032954 0.181505 0.032954 0.181505 0.297239 0.21882 0.032954 0.21882 0.297239 0.117266 0.95098 0.18197 0.989818 0.117266 0.97373 0.144067 0.989818 0.256135 0.314228 0.293452 0.314228 0.256135 0.323037 0.293452 0.323037 0.33077 0.314228 0.33077 0.323038 0.032241 0.314228 0.069558 0.314228 0.032241 0.323038 0.069558 0.323038 0.106875 0.314228 0.106875 0.323038 0.14419 0.314228 0.14419 0.323038 0.181505 0.314228 0.181505 0.323038 0.21882 0.314228 0.21882 0.323037 0.256084 0.836904 0.293364 0.836904 0.330682 0.836904 0.032154 0.836904 0.069674 0.836904 0.107037 0.836904 0.144236 0.836904 0.181518 0.836904 0.218801 0.836904 0.144284 0.84552 0.181531 0.84552 0.14425 0.853422 0.181587 0.853422 0.107037 0.84552 0.107092 0.853422 0.069791 0.84552 0.069758 0.853422 0.032065 0.845521 0.032032 0.853422 0.293272 0.84552 0.330594 0.84552 0.293239 0.853422 0.330561 0.853422 0.256027 0.84552 0.256082 0.853422 0.21878 0.84552 0.219661 0.853422 0.107147 0.927002 0.143963 0.927002 0.107147 0.934892 0.144231 0.934892 0.070333 0.927002 0.069902 0.934892 0.032584 0.927002 0.032658 0.934892 0.292952 0.927002 0.330701 0.927002 0.293384 0.934892 0.330628 0.934892 0.256138 0.927002 0.256139 0.934892 0.219322 0.927002 0.218891 0.934892 0.181643 0.927002 0.181806 0.934892 0.219754 0.919282 0.219753 0.859955 0.292521 0.919282 0.292521 0.859955 0.181642 0.859955 0.181643 0.919282 0.143532 0.859955 0.143532 0.919283 0.070764 0.919283 0.070764 0.859955 0.032511 0.859955 0.032511 0.919283 0.330774 0.859955 0.330775 0.919282 0.21882 0.305534 0.256135 0.305534 0.181505 0.305534 0.14419 0.305534 0.106875 0.305534 0.069558 0.305534 0.032241 0.305534 0.293452 0.305534 0.33077 0.305534 0.208772 0.97373 0.208772 0.95098 0.53781 0.422347 0.50154 0.422347 0.519414 0.395973 0.475893 0.406953 0.475893 0.385182 0.501774 0.369788 0.538508 0.369788 0.563458 0.385182 0.563458 0.406953 0.658468 0.380263 0.672526 0.404113 0.590594 0.380263 0.658469 0.427962 0.576536 0.404113 0.590593 0.427962</float_array>
                    <technique_common>
                        <accessor count="121" source="#Geometry-mesh043-uvSet1-array" stride="2">
                            <param name="S" type="float" />
                            <param name="T" type="float" />
                        </accessor>
                    </technique_common>
                </source>
                <vertices id="Geometry-mesh043-vertices">
                    <input semantic="POSITION" source="#Geometry-mesh043-positions" />
                </vertices>
                <polylist count="196" material="Material-lambert2">
                    <input semantic="VERTEX" source="#Geometry-mesh043-vertices" offset="0" />
                    <input semantic="NORMAL" source="#Geometry-mesh043-normals" offset="1" />
                    <input semantic="TEXCOORD" source="#Geometry-mesh043-uvSet1" offset="2" set="0" />
                    <vcount>3 3 3 3 3 3 3 3 3 3 3 3 3 3 3 3 3 3 3 3 3 3 3 3 3 3 3 3 3 3 3 3 3 3 3 3 3 3 3 3 3 3 3 3 3 3 3 3 3 3 3 3 3 3 3 3 3 3 3 3 3 3 3 3 3 3 3 3 3 3 3 3 3 3 3 3 3 3 3 3 3 3 3 3 3 3 3 3 3 3 3 3 3 3 3 3 3 3 3 3 3 3 3 3 3 3 3 3 3 3 3 3 3 3 3 3 3 3 3 3 3 3 3 3 3 3 3 3 3 3 3 3 3 3 3 3 3 3 3 3 3 3 3 3 3 3 3 3 3 3 3 3 3 3 3 3 3 3 3 3 3 3 3 3 3 3 3 3 3 3 3 3 3 3 3 3 3 3 3 3 3 3 3 3 3 3 3 3 3 3 3 3 3 3 3 3</vcount>
                    <p>64 0 0 65 1 1 67 0 2 67 0 2 65 1 1 66 2 3 65 1 4 68 3 5 66 2 6 66 2 6 68 3 5 69 3 7 69 3 7 68 3 5 71 4 8 71 4 8 68 3 5 70 4 9 70 4 9 72 5 10 71 4 8 71 4 8 72 5 10 73 6 11 72 5 10 74 7 12 73 6 11 73 6 11 74 7 12 75 7 13 75 7 13 74 7 12 67 0 2 67 0 2 74 7 12 64 0 0 29 8 14 35 9 15 31 10 16 31 10 16 35 9 15 33 11 17 7 12 18 0 12 19 8 12 20 8 12 20 0 12 19 9 12 21 0 12 19 1 12 22 9 12 21 9 12 21 1 12 22 10 12 23 1 12 24 2 12 25 10 12 26 10 12 26 2 12 25 11 12 27 2 12 25 3 12 28 11 12 27 11 12 27 3 12 28 12 12 29 3 12 28 4 12 30 12 12 29 12 12 29 4 12 30 13 12 31 4 12 30 5 12 32 13 12 31 13 12 31 5 12 32 14 12 33 5 12 32 6 12 34 14 12 33 14 12 33 6 12 34 15 12 35 6 12 34 7 12 18 15 12 35 15 12 35 7 12 18 8 12 20 8 13 20 9 14 21 22 15 36 22 15 36 9 14 21 21 16 37 9 14 21 10 17 23 21 16 37 21 16 37 10 17 23 20 18 38 10 17 26 11 19 27 20 18 39 20 18 39 11 19 27 19 20 40 11 19 27 12 21 29 19 20 40 19 20 40 12 21 29 18 22 41 12 21 29 13 23 31 18 22 41 18 22 41 13 23 31 17 24 42 13 23 31 14 25 33 17 24 42 17 24 42 14 25 33 16 26 43 14 25 33 15 27 35 16 26 43 16 26 43 15 27 35 23 28 44 15 27 35 8 13 20 23 28 44 23 28 44 8 13 20 22 15 36 25 29 45 24 30 46 51 31 47 51 31 47 24 30 46 50 32 48 28 33 49 25 29 45 52 34 50 52 34 50 25 29 45 51 31 47 30 35 51 28 33 49 53 36 52 53 36 52 28 33 49 52 34 50 32 37 53 30 35 51 54 38 54 54 38 54 30 35 51 53 36 52 34 39 55 32 37 56 55 40 57 55 40 57 32 37 56 54 38 58 36 41 59 34 39 55 48 42 60 48 42 60 34 39 55 55 40 57 38 43 61 36 41 59 49 44 62 49 44 62 36 41 59 48 42 60 24 30 46 38 43 61 50 32 48 50 32 48 38 43 61 49 44 62 17 45 42 16 45 43 25 45 45 25 45 45 16 45 43 24 45 46 18 45 41 17 45 42 28 45 49 28 45 49 17 45 42 25 45 45 19 45 40 18 45 41 30 45 51 30 45 51 18 45 41 28 45 49 20 45 39 19 45 40 32 45 53 32 45 53 19 45 40 30 45 51 21 45 37 20 45 38 34 45 55 34 45 55 20 45 38 32 45 56 22 45 36 21 45 37 36 45 59 36 45 59 21 45 37 34 45 55 23 45 44 22 45 36 38 45 61 38 45 61 22 45 36 36 45 59 16 45 43 23 45 44 24 45 46 24 45 46 23 45 44 38 45 61 41 46 63 40 47 64 29 48 65 29 48 65 40 47 64 27 31 66 42 49 67 41 46 63 31 36 68 31 36 68 41 46 63 29 48 65 43 50 69 42 49 67 33 38 70 33 38 70 42 49 67 31 36 68 44 51 71 43 50 72 35 40 73 35 40 73 43 50 72 33 38 74 45 52 75 44 51 71 37 53 76 37 53 76 44 51 71 35 40 73 46 54 77 45 52 75 39 44 78 39 44 78 45 52 75 37 53 76 47 55 79 46 54 77 26 56 80 26 56 80 46 54 77 39 44 78 40 47 64 47 55 79 27 31 66 27 31 66 47 55 79 26 56 80 77 57 81 76 58 82 87 59 83 87 59 83 76 58 82 86 60 84 78 61 85 76 58 82 79 62 86 79 62 86 76 58 82 77 57 81 80 63 87 78 61 85 81 64 88 81 64 88 78 61 85 79 62 86 81 64 88 83 65 89 80 63 87 80 63 87 83 65 89 82 66 90 84 67 91 82 66 90 85 68 92 85 68 92 82 66 90 83 65 89 86 60 84 84 67 93 87 59 83 87 59 83 84 67 93 85 68 94 57 69 95 56 70 96 6 71 34 6 71 34 56 70 96 7 72 18 58 73 97 57 69 95 5 74 32 5 74 32 57 69 95 6 71 34 59 75 98 58 73 97 4 76 30 4 76 30 58 73 97 5 74 32 60 77 99 59 75 98 3 78 28 3 78 28 59 75 98 4 76 30 61 79 100 60 77 99 2 80 25 2 80 25 60 77 99 3 78 28 62 81 101 61 79 100 1 82 24 1 82 24 61 79 100 2 80 25 63 83 102 62 81 103 0 84 19 0 84 19 62 81 103 1 82 22 56 70 96 63 83 102 7 72 18 7 72 18 63 83 102 0 84 19 62 45 103 63 45 102 66 45 3 66 45 3 63 45 102 67 45 2 61 45 100 62 45 101 69 45 7 69 45 7 62 45 101 66 45 6 69 45 7 60 45 99 61 45 100 58 45 97 59 45 98 73 45 11 73 45 11 59 45 98 71 45 8 57 45 95 58 45 97 75 45 13 75 45 13 58 45 97 73 45 11 75 45 13 56 45 96 57 45 95 76 85 82 48 86 60 86 87 84 50 12 48 49 12 62 78 12 85 78 12 85 49 12 62 76 85 82 46 54 77 47 55 79 77 45 81 77 45 81 47 55 79 79 88 86 51 12 47 50 12 48 80 12 87 80 12 87 50 12 48 78 12 85 47 55 79 40 47 64 79 88 86 79 88 86 40 47 64 81 89 88 83 90 89 41 46 63 42 49 67 80 12 87 82 12 90 52 12 50 54 91 54 53 12 52 84 92 91 84 92 91 53 12 52 82 12 90 42 49 67 43 50 69 83 90 89 83 90 89 43 50 69 85 93 92 55 94 57 54 91 58 86 87 84 86 87 84 54 91 58 84 92 93 43 50 72 44 51 71 85 93 94 85 93 94 44 51 71 87 45 83 77 45 81 45 52 75 46 54 77 45 52 75 87 45 83 44 51 71 77 45 81 87 45 83 45 52 75 76 85 82 49 12 62 48 86 60 86 87 84 48 86 60 55 94 57 52 12 50 82 12 90 53 12 52 80 12 87 52 12 50 51 12 47 81 89 88 40 47 64 41 46 63 81 89 88 41 46 63 83 90 89 60 45 99 71 45 8 59 45 98 69 45 7 71 45 8 60 45 99 56 45 96 67 45 2 63 45 102 75 45 13 67 45 2 56 45 96 27 12 66 37 95 104 29 8 14 29 8 14 37 95 104 35 9 15 39 12 105 37 95 104 26 12 80 26 12 80 37 95 104 27 12 66 88 96 26 89 97 27 96 98 39 96 98 39 89 97 27 97 99 40 89 97 27 90 100 29 97 99 40 97 99 40 90 100 29 98 101 41 90 100 29 91 102 31 98 101 41 98 101 41 91 102 31 99 103 42 91 102 31 92 104 33 99 103 42 99 103 42 92 104 33 100 105 43 92 104 33 93 106 35 100 105 43 100 105 43 93 106 35 101 107 44 93 106 35 94 108 20 101 107 44 101 107 44 94 108 20 102 109 36 94 108 20 95 110 21 102 109 36 102 109 36 95 110 21 103 111 37 95 110 21 88 96 23 103 111 37 103 111 37 88 96 23 96 98 38 96 12 106 97 12 107 104 12 108 97 12 107 98 12 109 104 12 108 98 12 109 99 12 110 104 12 108 99 12 110 100 12 111 104 12 108 100 12 111 101 12 112 104 12 108 101 12 112 102 12 113 104 12 108 102 12 113 103 12 114 104 12 108 103 12 114 96 12 106 104 12 108 74 45 115 72 45 116 64 45 117 72 45 116 70 45 118 64 45 117 64 45 117 70 45 118 65 45 119 70 45 118 68 45 120 65 45 119</p>
                </polylist>
            </mesh>
        </geometry>
    </library_geometries>
    <library_visual_scenes>
        <visual_scene id="DefaultScene">
            <node id="Geometry-mesh043Node" name="girder_scaffold_pole_rusty" type="NODE">
                <matrix sid="transform">1 0 0 0 0 1 0 0 0 0 1 0 0 0 0 1</matrix>
                <instance_geometry url="#Geometry-mesh043">
                    <bind_material>
                        <technique_common>
                            <instance_material symbol="Material-lambert2" target="#Material-lambert2">
                                <bind_vertex_input semantic="uvSet1" input_semantic="TEXCOORD" input_set="0" />
                            </instance_material>
                        </technique_common>
                    </bind_material>
                </instance_geometry>
            </node>
            <node id="groupLocator040Node" name="Texture_Group" type="NODE">
                <matrix sid="transform">1 0 0 0 0 1 0 0 0 0 1 0 0 0 0 1</matrix>
                <node id="txtrLocator036Node" name="girder_scaffold_rusty__Image___Texture_" type="NODE">
                    <matrix sid="transform">1 0 0 0 0 1 0 0 0 0 1 0 0 0 0 1</matrix>
                </node>
            </node>
        </visual_scene>
    </library_visual_scenes>
    <scene>
        <instance_visual_scene url="#DefaultScene" />
    </scene>
</COLLADA>
