<?xml version="1.0" encoding="utf-8" ?>
<COLLADA xmlns="http://www.collada.org/2005/11/COLLADASchema" version="1.4.1">
    <asset>
        <contributor>
            <author>Marc</author>
            <authoring_tool>modo 601 [Build 48460], Microsoft Windows 7 Service Pack 1 (6.1.7601 Service Pack 1)</authoring_tool>
            <comments>
                Plug-in: [Build 48460];
                Use Absolute Path: No;
                Merge Reference Items: No;
                Save Hidden Items: No;
                Save Cameras: Yes;
                Save Lights: Yes;
                Save Locators: Yes;
                Save Triangles as Triangles: No;
                Bake Matrices: No;
                Save Vertex Normals: Yes;
                Save UV Texture Coordinates: Yes;
                Save Vertex Colors: Yes;
                Save Vertex Weights: Yes;
                Save Animation: Yes;
                Sample Animation: No;
                Sample Animation Start: 0;
                Sample Animation End: 120;
                Save modo Profile: Yes;
                Save Maya Profile: Yes;
                Save 3ds Max Profile: Yes;
                Formatted Arrays: Yes;
            </comments>
            <source_data>file:///D:/Work/My%20Dropbox/Frictional%20Games%20-%20Team/Aaron/models/static_objects/station/details/railing.lxo</source_data>
        </contributor>
        <created>2012-10-31T17:09:25Z</created>
        <modified>2012-10-31T17:09:25Z</modified>
        <unit name="game" meter="1" />
        <up_axis>Y_UP</up_axis>
    </asset>
    <library_cameras>
        <camera id="Camera-camera013" name="Camera">
            <optics>
                <technique_common>
                    <perspective>
                        <xfov sid="HFOV">39.5978</xfov>
                        <yfov sid="YFOV">26.9915</yfov>
                        <znear sid="near_clip">0.01</znear>
                        <zfar sid="far_clip">10000</zfar>
                    </perspective>
                </technique_common>
                <technique profile="modo401">
                    <param sid="projType" name="Projection_Type" type="Name">persp</param>
                    <param sid="focalLen" name="Focal_Length" type="float">0.05</param>
                    <param sid="distort" name="Lens_Distortion" type="float">0</param>
                    <param sid="squeeze" name="Lens_Squeeze" type="float">1</param>
                    <param sid="focusDist" name="Focus_Distance" type="float">4</param>
                    <param sid="fStop" name="F-Stop" type="float">4</param>
                    <param sid="blurLen" name="Blur_Length" type="float">0.5</param>
                    <param sid="blurOff" name="Blur_Offset" type="float">0</param>
                    <param sid="ioDist" name="Interocular_Distance" type="float">0.065</param>
                    <param sid="convDist" name="Convergence_Distance" type="float">2</param>
                </technique>
            </optics>
            <imager>
                <technique profile="modo401">
                    <param sid="apertureX" name="Film_Width" type="float">0.036</param>
                    <param sid="apertureY" name="Film_Height" type="float">0.024</param>
                    <param sid="offsetX" name="Film_Offset_X" type="float">0</param>
                    <param sid="offsetY" name="Film_Offset_Y" type="float">0</param>
                    <param sid="filmFit" name="Film_Fit" type="Name">fill</param>
                </technique>
            </imager>
        </camera>
    </library_cameras>
    <library_images>
        <image id="Image0001" name="Image0001">
            <init_from>file:///D:/Work/My%20Dropbox/Frictional%20Games%20-%20Team/Aaron/models/static_objects/station/floor/catwalk.tga</init_from>
        </image>
    </library_images>
    <library_materials>
        <material id="Material-catwalk" name="catwalk">
            <instance_effect url="#Effect-catwalk" />
        </material>
    </library_materials>
    <library_effects>
        <effect id="Effect-catwalk" name="catwalk">
            <profile_COMMON>
                <newparam sid="Image0001-surface">
                    <surface type="2D">
                        <init_from>Image0001</init_from>
                        <format>A8R8G8B8</format>
                    </surface>
                </newparam>
                <newparam sid="Image0001-sampler">
                    <sampler2D>
                        <source>Image0001-surface</source>
                        <minfilter>LINEAR_MIPMAP_LINEAR</minfilter>
                        <magfilter>LINEAR</magfilter>
                    </sampler2D>
                </newparam>
                <technique sid="common">
                    <phong>
                        <diffuse>
                            <texture texture="Image0001-sampler" texcoord="uvSet1" />
                        </diffuse>
                        <specular>
                            <color sid="specular_effect_rgb">0.2 0.2 0.2 1</color>
                        </specular>
                        <shininess>
                            <float sid="specular_effect_rgb">256</float>
                        </shininess>
                    </phong>
                </technique>
            </profile_COMMON>
        </effect>
    </library_effects>
    <library_geometries>
        <geometry id="Geometry-mesh001" name="railing_straight_short_broken">
            <mesh>
                <source id="Geometry-mesh001-positions" name="positions">
                    <float_array id="Geometry-mesh001-positions-array" count="306">
                        0.0262291 -0.00400477 0.0127562
                        -0.0287396 -0.00326479 0.0210568
                        0.0175905 -0.00887537 -0.0418785
                        -0.036747 -0.00814389 -0.0336733
                        -0.036747 1.1356 -0.0188935
                        0.0175905 1.1361 -0.0271159
                        0.0262291 1.13275 0.0276331
                        -0.0287396 1.13225 0.0359511
                        0.0544047 1.13216 0.0373232
                        -0.0527735 1.13117 0.0535415
                        -0.0527735 1.19474 0.0574297
                        0.0544047 1.19573 0.0412114
                        0.0409458 1.20077 -0.0411603
                        -0.0643821 1.1998 -0.0252231
                        -0.0643821 1.13622 -0.0291113
                        0.0409458 1.1372 -0.0450485
                        -0.993808 1.07699 0.0443408
                        -0.980935 1.08534 -0.0378171
                        -0.99659 1.14696 -0.0340482
                        -1.00995 1.13848 0.0481021
                        -0.373584 1.1342 0.00392527
                        -0.3676 1.12911 0.0871702
                        -0.373584 1.19778 0.00781351
                        -0.3676 1.19268 0.0910584
                        -0.0287396 0.851268 0.0234385
                        -0.036747 0.85267 -0.0314908
                        -0.0287396 0.570125 0.0216275
                        -0.036747 0.569431 -0.0333151
                        -0.0287396 0.276365 0.0150829
                        -0.036747 0.273576 -0.0397933
                        0.0262291 0.851481 0.0151077
                        0.0262291 0.57002 0.0132947
                        0.0262291 0.275942 0.00676015
                        0.0175905 0.85288 -0.0397258
                        0.0175905 0.569327 -0.0415522
                        0.0175905 0.273158 -0.0480205
                        0.954976 1.19127 -0.197907
                        0.954634 1.19567 -0.114836
                        -1.00632 1.12464 0.0472558
                        -0.993068 1.13309 -0.0348962
                        0.0409458 1.18647 -0.0420352
                        -0.0643821 1.18549 -0.0260979
                        0.0544047 1.18143 0.0403365
                        -0.0527735 1.18044 0.0565549
                        -0.373584 1.18347 0.00693866
                        -0.3676 1.17838 0.0901836
                        0.952847 1.17785 -0.197505
                        0.954109 1.18111 -0.114362
                        0.552466 1.20647 -0.149581
                        0.570112 1.20143 -0.0680024
                        0.907041 1.0858 -0.169917
                        0.953969 1.05883 -0.164444
                        0.938324 1.05168 -0.0828041
                        0.896504 1.07853 -0.0874438
                        0.924235 1.13098 -0.16374
                        0.978703 1.09939 -0.156004
                        0.961351 1.09239 -0.0746756
                        0.912885 1.12378 -0.0813304
                        0.66817 1.12811 -0.171224
                        0.803443 1.1067 -0.176801
                        0.800637 1.09984 -0.09363
                        0.676627 1.1219 -0.0883504
                        0.675032 1.17679 -0.168179
                        0.804865 1.15556 -0.172811
                        0.80264 1.14878 -0.0895835
                        0.6835 1.17056 -0.0852879
                        0.773795 1.18953 -0.182162
                        0.686676 1.19949 -0.170293
                        0.698693 1.19409 -0.0877569
                        0.782958 1.18539 -0.0992492
                        0.686496 1.18521 -0.171196
                        0.77401 1.17527 -0.182882
                        0.782847 1.17108 -0.0999389
                        0.698319 1.17979 -0.0886387
                        0.934832 1.19537 -0.197526
                        0.870262 1.18353 -0.192586
                        0.876773 1.18189 -0.109584
                        0.936711 1.19907 -0.114465
                        0.929826 1.18244 -0.197071
                        0.87068 1.16924 -0.192937
                        0.93369 1.18486 -0.113988
                        0.878069 1.16762 -0.109931
                        0.909506 1.18242 -0.112461
                        0.90626 1.19637 -0.112476
                        0.903759 1.18057 -0.195484
                        0.901834 1.19469 -0.195531
                        0.551635 1.1429 -0.153334
                        0.552279 1.19217 -0.150425
                        0.569315 1.13786 -0.0717635
                        0.569932 1.18713 -0.0688487
                        -0.571956 1.13422 0.00370529
                        -0.786172 1.12101 -0.0106823
                        -0.577973 1.12911 0.0869398
                        -0.792139 1.11513 0.0725189
                        -0.572041 1.19779 0.00759353
                        -0.794413 1.18405 -0.00682679
                        -0.578287 1.19268 0.090828
                        -0.800607 1.17814 0.0763726
                        -0.572021 1.18348 0.00671867
                        -0.792559 1.16986 -0.00769429
                        -0.578216 1.17837 0.0899531
                        -0.798702 1.16396 0.0755055
                    </float_array>
                    <technique_common>
                        <accessor count="102" source="#Geometry-mesh001-positions-array" stride="3">
                            <param name="X" type="float" />
                            <param name="Y" type="float" />
                            <param name="Z" type="float" />
                        </accessor>
                    </technique_common>
                </source>
                <source id="Geometry-mesh001-normals" name="normals">
                    <float_array id="Geometry-mesh001-normals-array" count="639">
                        -3.60062e-005 0.99813 0.0611251
                        9.39038e-008 0.998135 0.0610492
                        -2.52973e-006 0.998135 0.0610495
                        3.08395e-008 0.998135 0.0610491
                        0.149558 0.0211727 0.988526
                        0.14966 0.00677639 0.988714
                        0.149693 0.0211451 0.988506
                        0.149742 -0.00762479 0.988696
                        0.98777 -0.0033947 -0.155879
                        0.987787 -0.00110728 -0.155807
                        0.987792 -0.00336373 -0.155741
                        0.9878 0.00117699 -0.155723
                        -0.12819 0.0605448 -0.9899
                        -0.120944 0.0606004 -0.990808
                        -0.0527396 0.0609638 -0.996746
                        -0.0527395 0.0609635 -0.996746
                        0.833894 -0.535962 0.131777
                        0.843975 -0.521485 0.125536
                        0.85376 -0.506826 0.119252
                        -0.0135686 -0.0760966 0.997008
                        -0.0504937 -0.088232 0.994819
                        -0.119305 -0.0829839 0.989384
                        -0.14596 -0.0897113 0.985215
                        0.0447011 0.024035 0.998711
                        0.0706857 0.0189386 0.997319
                        0.0437531 0.0237809 0.998759
                        0.0788304 0.0068404 0.996865
                        -0.0480203 -0.0163943 -0.998712
                        -0.0360984 -0.0212665 -0.999122
                        -0.0240843 -0.0259746 -0.999372
                        -0.0241851 -0.0260782 -0.999367
                        -0.176246 0.0608776 -0.982462
                        -0.1731 0.0654965 -0.982724
                        -0.178845 0.0601681 -0.982036
                        -0.169217 0.0601681 -0.983741
                        0.177907 -0.0603432 0.982195
                        0.175657 -0.0609778 0.982561
                        0.141656 -0.0631444 0.9879
                        0.134726 -0.0593028 0.989107
                        0.0309869 0.0610605 -0.997653
                        0.0310694 0.0623676 -0.99757
                        0.0896908 0.0741015 -0.993209
                        0.0911197 0.0737476 -0.993105
                        0.118177 0.0855863 -0.989297
                        0.120694 0.0835295 -0.989169
                        0.0932457 0.072922 -0.992969
                        4.97042e-005 -0.998135 -0.0610444
                        2.70132e-005 -0.998132 -0.0610984
                        2.30006e-006 -0.998135 -0.0610424
                        1.61286e-005 -0.998136 -0.061031
                        0.149727 -0.0167857 0.988585
                        0.149848 -0.0115866 0.988641
                        0.987804 0.00221707 -0.15569
                        0.987816 0.00223018 -0.155612
                        -0.135428 0.060486 -0.988939
                        -0.0527397 0.0609638 -0.996746
                        -0.171956 -0.0984608 0.980172
                        -0.175377 -0.0831938 0.98098
                        0.0129242 0.0756141 -0.997053
                        0.118825 0.0825702 -0.989476
                        0.0500993 0.0878538 -0.994873
                        0.145471 0.0895799 -0.985299
                        0.0966275 -0.0145929 0.995214
                        0.0958121 -0.0155206 0.995278
                        0.198156 0.978845 -0.050951
                        0.120619 0.991547 -0.0478167
                        0.191667 0.980216 -0.0494022
                        0.0243957 0.999055 -0.0359833
                        -0.000610086 -0.998141 -0.0609497
                        -0.000611194 -0.998136 -0.0610221
                        -0.0727094 -0.995925 -0.0533615
                        -0.0664562 -0.996674 -0.0471563
                        0.128976 0.991088 0.0333104
                        0.140703 0.988986 0.0459375
                        0.148187 0.987708 0.0497393
                        0.165904 0.983874 0.0668366
                        -0.0965525 -0.0766788 0.99237
                        -0.0825227 -0.0691744 0.994186
                        -0.0355287 -0.0634229 0.997354
                        -0.0217624 -0.0611395 0.997892
                        0.116636 0.0901265 -0.989077
                        1.17845e-009 -0.99605 0.0887963
                        -1.49085e-008 -0.99605 0.0887963
                        -3.09955e-008 -0.99605 0.0887963
                        0.149888 -0.0189102 0.988522
                        0.149891 -0.0314512 0.988202
                        0.987824 0.0039616 -0.155523
                        0.987825 0.00396185 -0.155521
                        0.120929 -0.0606004 0.99081
                        0.135426 -0.0604861 0.988939
                        0.178747 -0.0602278 0.98205
                        0.184519 -0.0601289 0.980988
                        0.17474 0.0829686 -0.981113
                        0.171437 0.0994168 -0.980166
                        -0.175997 -0.981354 -0.0772587
                        -0.296942 -0.948115 -0.113592
                        -0.192766 -0.976591 -0.0954519
                        -0.407576 -0.901973 -0.142573
                        -0.0813065 -0.995386 -0.0509483
                        -0.0828891 -0.995885 -0.0366526
                        -0.0974078 -0.994106 -0.0475914
                        -0.0743527 -0.99633 -0.0423972
                        -0.0772454 -0.00156943 -0.997011
                        -0.0691927 -0.0128402 -0.997521
                        -0.0613013 -0.997609 0.0319226
                        -0.187288 -0.981512 0.039458
                        -0.050416 -0.998271 0.030218
                        -0.179777 -0.98284 0.0412923
                        0.172542 -0.065594 0.982816
                        0.0996808 -0.069525 0.992588
                        0.0640174 -0.0772991 0.994951
                        -0.131455 0.989475 0.0604962
                        -0.044915 0.997123 0.0610628
                        -0.129443 0.98965 0.0619526
                        -0.0217835 0.997987 0.0595625
                        0.0315583 0.0630783 -0.997509
                        1.91097e-005 -0.998136 -0.0610307
                        -6.18272e-007 -0.998135 -0.0610448
                        0.149868 -0.0439852 0.987727
                        0.149872 -0.0439858 0.987727
                        0.987821 0.0069214 -0.155443
                        0.987821 0.00692189 -0.15544
                        0.169165 -0.0601687 0.98375
                        0.120929 -0.0606005 0.99081
                        -0.500151 -0.851898 -0.155301
                        -0.518475 -0.837478 -0.172665
                        0.180031 0.980754 0.0755669
                        0.196212 0.976001 0.0944625
                        0.030649 0.998015 0.0550235
                        0.0321585 0.997877 0.0566287
                        0.0816094 0.995378 0.0506305
                        0.0976762 0.994112 0.0469145
                        -0.094571 0.0191908 -0.995333
                        -0.0931761 0.0216892 -0.995413
                        0.130824 -0.990923 -0.0309265
                        0.164208 -0.985978 -0.0297165
                        -0.100623 0.0693194 -0.992507
                        -0.064759 0.076677 -0.994951
                        -0.0309453 -0.0611714 0.997647
                        -0.0895375 -0.0745398 0.99319
                        -1.07154e-006 -0.998135 -0.0610483
                        -0.989501 0.00313891 0.144491
                        -0.98952 0.00311013 0.144363
                        -0.989515 0.00101841 0.144424
                        -0.989527 -0.00109919 0.144346
                        -0.14956 -0.0215278 -0.988518
                        -0.149695 -0.0215006 -0.988498
                        -0.149663 -0.00713882 -0.988711
                        -0.149744 0.00725486 -0.988698
                        0.000917168 0.998143 0.0609001
                        0.000923525 0.998136 0.0610266
                        -0.142022 0.0629259 -0.987861
                        -0.119561 0.0536455 -0.991376
                        -0.134576 0.0588936 -0.989152
                        -0.111103 0.039369 -0.993029
                        -0.150055 0.988467 -0.0204228
                        -0.24124 0.970209 0.0223054
                        -0.289677 0.957051 0.0118547
                        -0.113277 0.992825 0.0383087
                        0.121113 -0.0539476 0.991172
                        0.112958 -0.0374063 0.992895
                        -0.148278 -0.987704 -0.0495424
                        -0.164043 -0.984137 -0.0675543
                        0.131456 -0.989474 -0.0604963
                        0.129444 -0.989653 -0.0618984
                        0.0336895 -0.997565 -0.0610672
                        0.0326265 -0.997731 -0.0588866
                        -0.191094 0.979564 0.0627533
                        -0.189145 0.97943 0.0702894
                        -0.116317 -0.0910309 0.989032
                        -0.117917 -0.0863317 0.989264
                        1.57146e-005 -0.998135 -0.0610459
                        -0.98953 -0.00205923 0.144315
                        -0.98954 -0.00207145 0.144243
                        -0.149729 0.0165345 -0.988589
                        -0.149848 0.0114606 -0.988643
                        -0.18845 0.0601634 -0.980238
                        0.999338 -0.035867 0.00601702
                        0.995324 -0.0965791 -0.00140911
                        0.987571 -0.156928 -0.00882996
                        0.0833955 0.995858 0.0362192
                        0.0749791 0.996327 0.0413585
                        -0.120461 -0.084202 0.989141
                        -0.989548 -0.00367222 0.144159
                        -0.989548 -0.00367247 0.144158
                        -0.149887 0.0189073 -0.988522
                        -0.149889 0.0314457 -0.988203
                        -0.956042 -0.231915 -0.179441
                        -0.955372 -0.23737 -0.17584
                        -0.955712 -0.234645 -0.177641
                        -0.956042 -0.231915 -0.179441
                        0.0604235 -0.0609378 0.996311
                        0.0347878 -0.0610135 0.997531
                        0.232903 -0.972492 -0.00389166
                        0.267159 -0.963648 0.00299477
                        -0.0592339 -0.997052 -0.0487709
                        -0.0623965 -0.996676 -0.0523798
                        0.191094 -0.97957 -0.0626482
                        0.189146 -0.979457 -0.0699083
                        -0.989544 -0.0064159 0.144086
                        -0.989545 -0.00641636 0.144083
                        -0.149867 0.0439771 -0.987728
                        -0.14987 0.0439777 -0.987727
                        -0.955022 -0.240092 -0.174037
                        -0.955022 -0.240094 -0.174036
                        0.0527352 -0.0609635 0.996746
                        0.299036 0.947319 0.114733
                        0.407948 0.90097 0.147753
                        0.499344 0.851091 0.162172
                        0.516748 0.836509 0.182275
                        0.0241274 0.0316412 0.999208
                        0.0250594 0.0298371 0.999241
                        -0.178477 0.0603027 -0.982094
                    </float_array>
                    <technique_common>
                        <accessor count="213" source="#Geometry-mesh001-normals-array" stride="3">
                            <param name="X" type="float" />
                            <param name="Y" type="float" />
                            <param name="Z" type="float" />
                        </accessor>
                    </technique_common>
                </source>
                <source id="Geometry-mesh001-uvSet1" name="uvSet1">
                    <float_array id="Geometry-mesh001-uvSet1-array" count="344">
                        0.501594 0.653211
                        0.501594 0.754784
                        0.528528 0.653211
                        0.528528 0.754784
                        0.972106 0.0433784
                        0.972106 0.135234
                        0.98979 0.0433783
                        0.98979 0.135234
                        0.972106 0.0433784
                        0.972106 0.135234
                        0.98979 0.0433783
                        0.98979 0.135234
                        0.533144 0.754784
                        0.549043 0.754784
                        0.533144 0.653211
                        0.549043 0.653211
                        0.727732 0.757041
                        0.727736 0.789022
                        0.708841 0.757014
                        0.708859 0.788992
                        0.591876 0.601724
                        0.575976 0.599391
                        0.591876 0.561943
                        0.575976 0.562019
                        0.596492 0.548895
                        0.596492 0.56192
                        0.591876 0.548554
                        0.591876 0.561794
                        0.533144 0.548691
                        0.528528 0.549033
                        0.533144 0.541374
                        0.528528 0.541395
                        0.533144 0.598277
                        0.549043 0.598339
                        0.533144 0.752831
                        0.549043 0.752831
                        0.596492 0.683233
                        0.591876 0.683251
                        0.596492 0.637988
                        0.591876 0.637875
                        0.528528 0.587836
                        0.533144 0.587836
                        0.528528 0.51605
                        0.533144 0.51605
                        0.533144 0.450064
                        0.549043 0.450064
                        0.549043 0.51605
                        0.575976 0.653211
                        0.575976 0.754784
                        0.972106 0.227089
                        0.98979 0.227089
                        0.972106 0.227089
                        0.98979 0.227089
                        0.575976 0.541472
                        0.591876 0.541543
                        0.533144 0.601534
                        0.533144 0.562122
                        0.549043 0.599181
                        0.549043 0.562199
                        0.596492 0.574945
                        0.591876 0.575034
                        0.501594 0.541564
                        0.501594 0.548895
                        0.575976 0.752831
                        0.575976 0.597865
                        0.855365 0.729625
                        0.881471 0.72915
                        0.855365 0.689884
                        0.881471 0.689769
                        0.591876 0.516877
                        0.575977 0.516877
                        0.591876 0.586467
                        0.575976 0.586467
                        0.528528 0.450064
                        0.549043 0.788702
                        0.575976 0.788702
                        0.972106 0.318945
                        0.98979 0.318945
                        0.972106 0.318945
                        0.98979 0.318945
                        0.596492 0.754866
                        0.591876 0.754866
                        0.596492 0.788702
                        0.591876 0.788702
                        0.549043 0.541302
                        0.533144 0.63791
                        0.533144 0.607342
                        0.591876 0.60751
                        0.533144 0.561976
                        0.528528 0.562102
                        0.575976 0.683314
                        0.591876 0.643871
                        0.575976 0.644929
                        0.501594 0.516877
                        0.501594 0.586467
                        0.549043 0.587836
                        0.549043 0.754866
                        0.553847 0.763083
                        0.553847 0.780486
                        0.972106 0.4108
                        0.98979 0.4108
                        0.972106 0.4108
                        0.575976 0.754866
                        0.855365 0.647433
                        0.881471 0.647622
                        0.528528 0.683709
                        0.501594 0.683233
                        0.528528 0.638024
                        0.501594 0.637988
                        0.528528 0.575171
                        0.533144 0.575261
                        0.533144 0.683727
                        0.533144 0.643985
                        0.549043 0.683788
                        0.549043 0.645014
                        0.596492 0.586467
                        0.596492 0.516877
                        0.57125 0.780486
                        0.972107 0.0433783
                        0.98979 0.135234
                        0.972107 0.135234
                        0.98979 0.0433783
                        0.98979 0.135234
                        0.533144 0.754866
                        0.533144 0.788702
                        0.501594 0.752831
                        0.501594 0.597784
                        0.528528 0.752831
                        0.528528 0.59826
                        0.528528 0.607579
                        0.501594 0.56192
                        0.501594 0.574945
                        0.596492 0.607744
                        0.501594 0.450064
                        0.596492 0.450064
                        0.591876 0.450064
                        0.57125 0.763083
                        0.98979 0.227089
                        0.972107 0.227089
                        0.98979 0.227089
                        0.528528 0.754866
                        0.528528 0.788702
                        0.733216 0.789031
                        0.733216 0.757049
                        0.501594 0.607744
                        0.596492 0.597784
                        0.596492 0.752831
                        0.591876 0.597802
                        0.591876 0.752831
                        0.575977 0.450064
                        0.98979 0.318945
                        0.972107 0.318945
                        0.98979 0.318945
                        0.730296 0.819845
                        0.70444 0.819845
                        0.737802 0.855638
                        0.737802 0.819845
                        0.591876 0.754784
                        0.596492 0.754784
                        0.591876 0.653211
                        0.596492 0.653211
                        0.501594 0.788703
                        0.501594 0.754867
                        0.98979 0.4108
                        0.972107 0.4108
                        0.70444 0.855638
                        0.730296 0.855638
                        0.855365 0.60802
                        0.881471 0.607841
                        0.855365 0.587273
                        0.881471 0.587441
                        0.596492 0.541564
                    </float_array>
                    <technique_common>
                        <accessor count="172" source="#Geometry-mesh001-uvSet1-array" stride="2">
                            <param name="S" type="float" />
                            <param name="T" type="float" />
                        </accessor>
                    </technique_common>
                </source>
                <vertices id="Geometry-mesh001-vertices">
                    <input semantic="POSITION" source="#Geometry-mesh001-positions" />
                </vertices>
                <polylist count="200" material="Material-catwalk">
                    <input semantic="VERTEX" source="#Geometry-mesh001-vertices" offset="0" />
                    <input semantic="NORMAL" source="#Geometry-mesh001-normals" offset="1" />
                    <input semantic="TEXCOORD" source="#Geometry-mesh001-uvSet1" offset="2" set="0" />
                    <vcount>3 3 3 3 3 3 3 3 3 3 3 3 3 3 3 3 3 3 3 3 3 3 3 3 3 3 3 3 3 3 3 3 3 3 3 3 3 3 3 3 3 3 3 3 3 3 3 3 3 3 3 3 3 3 3 3 3 3 3 3 3 3 3 3 3 3 3 3 3 3 3 3 3 3 3 3 3 3 3 3 3 3 3 3 3 3 3 3 3 3 3 3 3 3 3 3 3 3 3 3 3 3 3 3 3 3 3 3 3 3 3 3 3 3 3 3 3 3 3 3 3 3 3 3 3 3 3 3 3 3 3 3 3 3 3 3 3 3 3 3 3 3 3 3 3 3 3 3 3 3 3 3 3 3 3 3 3 3 3 3 3 3 3 3 3 3 3 3 3 3 3 3 3 3 3 3 3 3 3 3 3 3 3 3 3 3 3 3 3 3 3 3 3 3 3 3 3 3 3 3</vcount>
                    <p>23 0 0 10 1 1 22 2 2 13 3 3 22 2 2 10 1 1 0 4 4 32 5 5 1 6 6 28 7 7 1 6 6 32 5 5 2 8 8 35 9 9 0 10 10 32 11 11 0 10 10 35 9 9 41 12 12 14 13 13 44 14 14 20 15 15 44 14 14 14 13 13 55 16 16 56 17 17 51 17 18 52 18 19 51 17 18 56 17 17 64 19 20 60 20 21 57 21 22 53 22 23 57 21 22 60 20 21 77 23 24 83 24 25 80 25 26 82 26 27 80 25 26 83 24 25 78 27 28 74 28 29 46 29 30 36 30 31 46 29 30 74 28 29 87 31 32 86 32 33 40 33 34 15 34 35 40 33 34 86 32 33 49 35 36 89 36 37 68 37 38 73 38 39 68 37 38 89 36 37 94 39 40 98 40 41 95 41 42 99 42 43 95 41 42 98 40 41 39 43 44 99 42 43 17 44 45 91 45 46 17 44 45 99 42 43 21 46 47 20 47 15 9 48 48 14 49 13 9 48 48 20 47 15 32 5 5 31 50 49 28 7 7 26 51 50 28 7 7 31 50 49 35 9 9 34 52 51 32 11 11 31 53 52 32 11 11 34 52 51 13 54 3 41 12 12 22 55 2 44 14 14 22 55 2 41 12 12 52 56 53 56 57 54 53 22 23 57 21 22 53 22 23 56 57 54 63 58 55 54 59 56 59 60 57 50 61 58 59 60 57 54 59 56 83 24 25 76 62 59 82 26 27 81 63 60 82 26 27 76 62 59 36 64 31 74 65 29 37 66 61 77 67 62 37 66 61 74 65 29 8 68 63 15 69 35 88 70 64 86 71 33 88 70 64 15 69 35 87 72 65 89 73 66 62 74 67 65 75 68 62 74 67 89 73 66 101 76 69 93 77 70 100 78 71 92 79 72 100 78 71 93 77 70 18 80 73 95 41 42 39 43 44 99 42 43 39 43 44 95 41 42 0 81 74 1 82 75 2 82 13 3 83 48 2 82 13 1 82 75 31 50 49 30 84 76 26 51 50 24 85 77 26 51 50 30 84 76 33 86 78 30 87 79 34 52 51 31 53 52 34 52 51 30 87 79 10 88 80 43 89 81 11 90 82 42 91 83 11 90 82 43 89 81 54 59 56 55 92 30 50 61 58 51 93 84 50 61 58 55 92 30 59 94 57 50 95 58 60 96 21 53 97 23 60 96 21 50 95 58 70 98 85 71 99 86 73 100 39 72 101 87 73 100 39 71 99 86 84 102 88 85 103 89 78 27 28 74 28 29 78 27 28 85 103 89 78 104 28 46 105 30 80 106 26 47 107 54 80 106 26 46 105 30 89 36 37 88 108 90 65 109 91 61 110 92 65 109 91 88 108 90 97 111 93 96 112 94 95 113 42 94 114 40 95 113 42 96 112 94 98 40 41 44 14 14 90 115 95 20 15 15 90 115 95 44 14 14 14 49 96 15 69 74 4 116 97 5 117 98 4 116 97 15 69 74 30 84 76 6 118 99 24 85 77 7 119 100 24 85 77 6 118 99 33 86 78 5 120 101 30 87 79 6 121 100 30 87 79 5 120 101 42 91 83 43 89 81 8 122 75 9 123 102 8 122 75 43 89 81 50 95 58 51 124 84 53 97 23 52 125 53 53 97 23 51 124 84 62 74 67 65 75 68 63 126 103 64 127 104 63 126 103 65 75 68 48 128 105 49 129 106 67 130 107 68 131 108 67 130 107 49 129 106 85 103 89 84 102 88 75 132 109 79 133 110 75 132 109 84 102 88 79 134 110 81 135 60 71 99 86 72 101 87 71 99 86 81 135 60 87 31 111 62 136 112 86 32 113 58 137 114 86 32 113 62 136 112 96 138 115 97 139 116 100 78 71 101 76 69 100 78 71 97 139 116 94 39 40 22 55 2 98 40 41 44 14 14 98 40 41 22 55 2 8 68 75 6 140 117 15 69 74 5 117 98 15 69 74 6 140 117 3 141 10 1 142 118 29 143 119 28 144 120 29 143 119 1 142 118 2 145 121 3 146 4 35 147 122 29 148 5 35 147 122 3 146 4 14 13 96 41 12 123 15 34 74 40 33 124 15 34 74 41 12 123 11 149 125 49 129 126 12 150 127 48 128 128 12 150 127 49 129 126 60 20 21 64 19 20 61 110 92 65 109 91 61 110 92 64 19 20 67 151 107 66 152 129 70 153 85 71 154 86 70 153 85 66 152 129 85 155 89 75 156 109 83 157 130 76 158 131 83 157 130 75 156 109 69 159 132 72 160 87 76 62 59 81 63 60 76 62 59 72 160 87 86 71 113 58 161 114 88 70 90 61 162 92 88 70 90 58 161 114 93 163 70 91 164 46 92 165 72 90 166 95 92 165 72 91 164 46 97 111 93 95 113 42 19 167 133 18 168 73 19 167 133 95 113 42 19 169 134 38 170 135 97 139 116 101 76 69 97 139 116 38 170 135 9 48 102 14 49 96 7 171 136 4 116 97 7 171 136 14 49 96 29 143 119 28 144 120 27 172 137 26 173 138 27 172 137 28 144 120 35 147 122 29 148 5 34 174 139 27 175 49 34 174 139 29 148 5 41 12 123 13 54 140 40 33 124 12 176 141 40 33 124 13 54 140 37 177 142 47 178 17 36 178 143 46 179 16 36 178 143 47 178 17 59 60 57 58 137 114 63 58 55 62 136 112 63 58 55 58 137 114 67 130 107 68 131 108 66 180 129 69 181 144 66 180 129 68 131 108 74 65 29 85 155 89 77 67 62 83 157 130 77 67 62 85 155 89 66 152 129 75 132 109 71 154 86 79 133 110 71 154 86 75 132 109 49 35 145 11 90 146 89 36 147 42 91 148 89 36 147 11 90 146 98 40 41 90 115 95 99 42 43 91 45 46 99 42 43 90 115 95 96 112 94 23 0 0 94 114 40 22 2 2 94 114 40 23 0 0 38 170 135 16 182 149 101 76 69 93 77 70 101 76 69 16 182 149 8 68 75 9 48 102 6 140 117 7 171 136 6 140 117 9 48 102 25 183 150 27 172 137 24 184 151 26 173 138 24 184 151 27 172 137 34 174 139 27 175 49 33 185 152 25 186 76 33 185 152 27 175 49 39 187 153 17 188 154 19 189 155 19 189 155 18 190 156 39 187 153 43 89 157 10 88 158 45 191 159 23 192 160 45 191 159 10 88 158 58 161 114 59 94 57 61 162 92 60 96 21 61 162 92 59 94 57 68 37 38 73 38 39 69 159 132 72 160 87 69 159 132 73 38 39 78 104 28 80 106 26 84 193 88 82 194 27 84 193 88 80 106 26 75 156 109 66 180 129 76 158 131 69 181 144 76 158 131 66 180 129 89 36 147 42 91 148 88 108 64 8 122 63 88 108 64 42 91 148 87 195 111 70 98 85 89 196 37 73 100 39 89 196 37 70 98 85 93 163 70 16 197 149 91 164 46 17 198 45 91 164 46 16 197 149 96 138 115 100 78 71 23 192 160 45 191 159 23 192 160 100 78 71 11 149 161 12 150 141 10 1 162 13 3 140 10 1 162 12 150 141 25 183 150 24 184 151 4 199 163 7 200 164 4 199 163 24 184 151 33 185 152 25 186 76 5 201 100 4 202 99 5 201 100 25 186 76 17 188 154 16 203 165 38 204 166 38 204 166 19 189 155 17 188 154 21 205 47 9 123 48 45 191 159 43 89 157 45 191 159 9 123 48 54 206 167 57 207 168 55 208 169 56 209 170 55 208 169 57 207 168 63 126 103 64 127 104 54 206 167 57 207 168 54 206 167 64 127 104 79 134 110 84 193 88 81 135 60 82 194 27 81 135 60 84 193 88 47 210 54 37 211 171 80 25 26 77 23 24 80 25 26 37 211 171 48 212 128 87 31 32 12 176 127 40 33 34 12 176 127 87 31 32 48 212 105 67 151 107 87 31 111 70 153 85 87 31 111 67 151 107 21 46 47 92 165 72 20 47 15 90 166 95 20 47 15 92 165 72 100 78 71 92 79 72 45 191 159 21 205 47 45 191 159 92 79 72</p>
                </polylist>
                <extra>
                    <technique profile="modo401">
                        <param sid="render" name="Render" type="Name">default</param>
                        <param sid="dissolve" name="Dissolve" type="float">0</param>
                        <param sid="curves" name="Render_Curves" type="bool">false</param>
                        <param sid="radius" name="Curve_Radius" type="float">0.05</param>
                    </technique>
                </extra>
            </mesh>
        </geometry>
    </library_geometries>
    <library_lights>
        <light id="Light-polyRender010" name="Render">
            <technique_common>
                <ambient>
                    <color sid="ambient_light_rgb">0.05 0.05 0.05</color>
                </ambient>
            </technique_common>
        </light>
        <light id="Light-sunLight016" name="Directional_Light">
            <technique_common>
                <directional>
                    <color sid="directional_light_rgb">1 1 1</color>
                </directional>
            </technique_common>
            <extra>
                <technique profile="modo401">
                    <param sid="lightType" name="Light_Type" type="Name">sun_light</param>
                    <param sid="render" name="Render" type="Name">default</param>
                    <param sid="visible" name="Display_Visible" type="Name">default</param>
                    <param sid="size" name="Display_Size" type="float">1</param>
                    <param sid="dissolve" name="Dissolve" type="float">0</param>
                    <param sid="radiance" name="Radiant_Intensity" type="float">3</param>
                    <param sid="samples" name="Samples" type="int">64</param>
                    <param sid="shadType" name="Shadow_Type" type="Name">raytrace</param>
                    <param sid="shadRes" name="Shadow_Resolution" type="int">1024</param>
                    <param sid="fast" name="Simple_Shading" type="bool">true</param>
                    <param sid="azimuth" name="Azimuth" type="float">0</param>
                    <param sid="clamp" name="Clamp_Intensity" type="bool">true</param>
                    <param sid="day" name="Day" type="int">2012173</param>
                    <param sid="elevation" name="Elevation" type="float">0</param>
                    <param sid="haze" name="Haze" type="float">2</param>
                    <param sid="height" name="Height" type="float">10</param>
                    <param sid="lat" name="Latitude" type="float">0.655057</param>
                    <param sid="lon" name="Longitude" type="float">-2.13456</param>
                    <param sid="mapSize" name="Map_Size" type="float">2</param>
                    <param sid="north" name="North" type="float">0</param>
                    <param sid="radius" name="Radius" type="float">0.5</param>
                    <param sid="spread" name="Spread" type="float">0</param>
                    <param sid="sunPos" name="Sun_Position" type="bool">false</param>
                    <param sid="time" name="Time" type="float">12</param>
                    <param sid="timeZone" name="Time_Zone" type="float">-8</param>
                    <param sid="volumetrics" name="Volumetrics" type="bool">false</param>
                    <param sid="vdissolve" name="Volumetrics_Dissolve" type="float">0</param>
                    <param sid="vsamples" name="Volumetric_Samples" type="int">40</param>
                </technique>
            </extra>
        </light>
    </library_lights>
    <library_nodes id="shader_tree" name="Shader_Tree">
        <node sid="shader_tree_render" name="Render">
            <extra>
                <technique profile="modo401">
                    <param sid="first" name="Frame_Range_First" type="int">1</param>
                    <param sid="last" name="Frame_Range_Last" type="int">120</param>
                    <param sid="dpi" name="Frame_DPI" type="float">300</param>
                    <param sid="resUnit" name="Resolution_Unit" type="Name">pixels</param>
                    <param sid="pAspect" name="Frame_Pixel_Aspect_Ratio" type="float">1</param>
                    <param sid="bucketX" name="Bucket_Width" type="int">32</param>
                    <param sid="bucketY" name="Bucket_Height" type="int">32</param>
                    <param sid="bktOrder" name="Bucket_Order" type="Name">hilbert</param>
                    <param sid="bktSkip" name="Skip_Existing_Buckets" type="bool">false</param>
                    <param sid="region" name="Render_Region" type="bool">false</param>
                    <param sid="regX0" name="Render_Region_Left" type="float">0</param>
                    <param sid="regX1" name="Render_Region_Right" type="float">1</param>
                    <param sid="regY0" name="Render_Region_Top" type="float">0</param>
                    <param sid="regY1" name="Render_Region_Bottom" type="float">1</param>
                    <param sid="aa" name="Render_Antialiasing" type="Name">s8</param>
                    <param sid="aaFilter" name="Render_Antialiasing_Filter" type="Name">gaussian</param>
                    <param sid="fineRate" name="Refinement_Shading_Rate" type="float">0.25</param>
                    <param sid="fineThresh" name="Refinement_Threshold" type="float">0.1</param>
                    <param sid="bktRefine" name="Refine_Bucket_Borders" type="bool">false</param>
                    <param sid="dof" name="Render_Depth_of_Field" type="bool">false</param>
                    <param sid="mBlur" name="Render_Motion_Blur" type="bool">false</param>
                    <param sid="stereo" name="Render_Stereoscopic" type="bool">false</param>
                    <param sid="rayShadow" name="Ray_Tracing_Shadows" type="bool">true</param>
                    <param sid="reflDepth" name="Reflection_Depth" type="int">8</param>
                    <param sid="refrDepth" name="Refraction_Depth" type="int">8</param>
                    <param sid="rayThresh" name="Ray_Threshold" type="float">0.001</param>
                    <param sid="subdAdapt" name="Adaptive_Subdivision" type="bool">false</param>
                    <param sid="subdRate" name="Subdivision_Rate" type="float">10</param>
                    <param sid="dispEnable" name="Micropoly_Displacement" type="bool">true</param>
                    <param sid="dispRate" name="Displacement_Rate" type="float">1</param>
                    <param sid="dispRatio" name="Displacement_Ratio" type="float">4</param>
                    <param sid="edgeMin" name="Minimum_Edge_Length" type="float">0.0001</param>
                    <param sid="dispSmooth" name="Smooth_Positions" type="bool">true</param>
                    <param sid="ambRad" name="Ambient_Intensity" type="float">0.05</param>
                    <param sid="ambColor" name="Ambient_Color" type="color">1 1 1</param>
                    <param sid="globEnable" name="Enable_Indirect_Illumination" type="bool">false</param>
                    <param sid="globScope" name="Indirect_Illumination_Scope" type="Name">all</param>
                    <param sid="globRays" name="Indirect_Rays" type="int">64</param>
                    <param sid="globLimit" name="Indirect_Bounces" type="int">1</param>
                    <param sid="globRange" name="Indirect_Range" type="float">0</param>
                    <param sid="globSubs" name="Subsurface_Scattering" type="int">0</param>
                    <param sid="globVols" name="Volumetrics_Affect_Indirect" type="bool">false</param>
                    <param sid="irrCache" name="Enable_Irradiance_Caching" type="bool">true</param>
                    <param sid="irrRays" name="Irradiance_Rays" type="int">256</param>
                    <param sid="globSuper" name="Indirect_Supersampling" type="bool">true</param>
                    <param sid="irrRate" name="Irradiance_Rate" type="float">2.5</param>
                    <param sid="irrRatio" name="Irradiance_Ratio" type="float">6</param>
                    <param sid="irrVals" name="Interpolation_Values" type="int">1</param>
                    <param sid="irrGrads" name="Irradiance_Gradients" type="Name">both</param>
                    <param sid="irrWalk" name="Walkthrough_Mode" type="bool">false</param>
                    <param sid="irrLEnable" name="Load_Irradiance_before_Render" type="bool">false</param>
                    <param sid="irrLName" name="Load_Irradiance_File" type="Name"></param>
                    <param sid="irrSEnable" name="Save_Irradiance_after_Render" type="bool">false</param>
                    <param sid="irrSName" name="Save_Irradiance_File" type="Name"></param>
                    <param sid="causEnable" name="Enable_Direct_Caustics" type="bool">false</param>
                    <param sid="causTotal" name="Caustics_Total_Photons" type="int">100000</param>
                    <param sid="causLocal" name="Caustics_Local_Photons" type="int">32</param>
                    <param sid="globCaus" name="Indirect_Caustics" type="Name">refraction</param>
                </technique>
            </extra>
        </node>
        <node sid="shader_tree_environment" name="Environment">
            <extra>
                <technique profile="modo401">
                    <param sid="radiance" name="Environment_Intensity" type="float">1</param>
                    <param sid="visCam" name="Environment_Visible_to_Camera" type="bool">true</param>
                    <param sid="visInd" name="Environment_Visible_to_Indirect_Rays" type="bool">true</param>
                    <param sid="visRefl" name="Environment_Visible_to_Reflection_Rays" type="bool">true</param>
                    <param sid="visRefr" name="Environment_Visible_to_Refraction_Rays" type="bool">true</param>
                </technique>
            </extra>
        </node>
    </library_nodes>
    <library_visual_scenes>
        <visual_scene id="DefaultScene">
            <node id="polyRender010" name="Render" type="NODE">
                <instance_light url="#Light-polyRender010" />
            </node>
            <node id="Geometry-mesh001Node" name="railing_straight_short_broken" type="NODE">
                <instance_geometry url="#Geometry-mesh001">
                    <bind_material>
                        <technique_common>
                            <instance_material symbol="Material-catwalk" target="#Material-catwalk">
                                <bind_vertex_input semantic="uvSet1" input_semantic="TEXCOORD" input_set="0" />
                            </instance_material>
                        </technique_common>
                    </bind_material>
                </instance_geometry>
            </node>
            <node id="Camera-camera013Node" name="Camera" type="NODE">
                <translate sid="translation014">0 0.75 4</translate>
                <rotate sid="rotation015Y">0 1 0 0</rotate>
                <rotate sid="rotation015X">1 0 0 -5</rotate>
                <rotate sid="rotation015Z">0 0 1 0</rotate>
                <instance_camera url="#Camera-camera013" />
            </node>
            <node id="groupLocator031Node" name="Texture_Group" type="NODE">
                <node id="txtrLocator027Node" name="catwalk__Image___Texture_" type="NODE">
                    <translate sid="translation030">0 0 0</translate>
                    <rotate sid="rotation029Y">0 1 0 0</rotate>
                    <rotate sid="rotation029X">1 0 0 0</rotate>
                    <rotate sid="rotation029Z">0 0 1 0</rotate>
                    <scale sid="scale028">1 1 1</scale>
                </node>
            </node>
            <node id="Light-sunLight016Node" name="Directional_Light" type="NODE">
                <translate sid="translation017">-2 2 2</translate>
                <rotate sid="rotation018Y">0 1 0 -45</rotate>
                <rotate sid="rotation018X">1 0 0 -30</rotate>
                <rotate sid="rotation018Z">0 0 1 0</rotate>
                <instance_light url="#Light-sunLight016" />
            </node>
            <extra>
                <technique profile="modo401">
                    <param sid="fps" name="Scene_FPS" type="float">24</param>
                    <param sid="sceneS" name="Scene_Start_Time" type="float">0</param>
                    <param sid="sceneE" name="Scene_End_Time" type="float">5</param>
                    <param sid="currentS" name="Scene_Current_Start_Time" type="float">0</param>
                    <param sid="currentE" name="Scene_Current_End_Time" type="float">5</param>
                    <param sid="timeSys" name="Scene_Time_System" type="Name">frames</param>
                </technique>
            </extra>
            <extra>
                <technique profile="MAX3D">
                    <frame_rate>24</frame_rate>
                </technique>
            </extra>
            <extra>
                <technique profile="MAYA">
                    <start_time>0</start_time>
                    <end_time>5</end_time>
                </technique>
            </extra>
            <extra>
                <technique profile="OKINO" />
            </extra>
            <extra>
                <technique profile="XSI">
                    <SI_Scene>
                        <frame_rate>24</frame_rate>
                    </SI_Scene>
                </technique>
            </extra>
        </visual_scene>
    </library_visual_scenes>
    <scene>
        <instance_visual_scene url="#DefaultScene" />
    </scene>
</COLLADA>
