<?xml version="1.0" encoding="utf-8"?>
<COLLADA xmlns="http://www.collada.org/2005/11/COLLADASchema" version="1.4.1">
  <asset>
    <contributor>
      <author></author>
      <authoring_tool>FBX COLLADA exporter</authoring_tool>
      <comments></comments>
    </contributor>
    <created>2014-03-01T00:05:58Z</created>
    <keywords></keywords>
    <modified>2014-03-01T00:05:58Z</modified>
    <revision></revision>
    <subject></subject>
    <title></title>
    <unit meter="1.000000" name="centimeter"></unit>
    <up_axis>Y_UP</up_axis>
  </asset>
  <library_images>
    <image id="Map #4-image" name="Map #4">
      <init_from>file://D:\Files\Google Drive\Work\Freelance\ArtBully Productions\Frictional Games\Project Depth - Current\file_cabinet_theta_large\tempexport\file_cabinet_theta_large_body.dds</init_from>
    </image>
  </library_images>
  <library_materials>
    <material id="file_cabinet_theta_large_body" name="file_cabinet_theta_large_body">
      <instance_effect url="#file_cabinet_theta_large_body-fx"/>
    </material>
  </library_materials>
  <library_effects>
    <effect id="file_cabinet_theta_large_body-fx" name="file_cabinet_theta_large_body">
      <profile_COMMON>
        <technique sid="standard">
          <phong>
            <emission>
              <color sid="emission">0.000000  0.000000 0.000000 1.000000</color>
            </emission>
            <ambient>
              <color sid="ambient">0.588000  0.588000 0.588000 1.000000</color>
            </ambient>
            <diffuse>
              <texture texture="Map #4-image" texcoord="CHANNEL0">
                <extra>
                  <technique profile="MAYA">
                    <wrapU sid="wrapU0">TRUE</wrapU>
                    <wrapV sid="wrapV0">TRUE</wrapV>
                    <blend_mode>ADD</blend_mode>
                  </technique>
                </extra>
              </texture>
            </diffuse>
            <specular>
              <color sid="specular">0.387000  0.387000 0.387000 1.000000</color>
            </specular>
            <shininess>
              <float sid="shininess">3.732132</float>
            </shininess>
            <reflective>
              <color sid="reflective">0.000000  0.000000 0.000000 1.000000</color>
            </reflective>
            <reflectivity>
              <float sid="reflectivity">1.000000</float>
            </reflectivity>
            <transparent opaque="RGB_ZERO">
              <color sid="transparent">1.000000  1.000000 1.000000 1.000000</color>
            </transparent>
            <transparency>
              <float sid="transparency">0.000000</float>
            </transparency>
          </phong>
        </technique>
      </profile_COMMON>
    </effect>
  </library_effects>
  <library_geometries>
    <geometry id="file_cabinet_theta_large_body-lib" name="file_cabinet_theta_large_bodyMesh">
      <mesh>
        <source id="file_cabinet_theta_large_body-POSITION">
          <float_array id="file_cabinet_theta_large_body-POSITION-array" count="318">
0.288849 0.329846 1.580358
-0.288849 -0.329846 1.580358
-0.293706 0.334702 1.577513
-0.295718 0.329846 1.577513
-0.295718 -0.329846 1.577513
-0.293706 -0.334702 1.577513
-0.288849 -0.336714 1.577513
0.293706 -0.334702 1.577513
0.295718 -0.329846 1.577513
0.295718 0.329846 1.577513
0.293706 0.334702 1.577513
0.288849 0.336714 1.577513
-0.288849 0.339559 0.005824
-0.295718 0.336714 0.005824
-0.298563 0.329846 0.005824
-0.298563 -0.329846 0.005824
-0.295718 -0.336714 0.005824
-0.288849 -0.339559 0.005824
0.295718 -0.336714 0.005824
0.298563 -0.329846 0.005824
0.298563 0.329846 0.005824
0.295718 0.336714 0.005824
0.288849 0.339559 0.005824
-0.288849 0.336714 -0.001044
-0.293706 0.334702 -0.001044
-0.295718 0.329846 -0.001044
-0.295718 -0.329846 -0.001044
-0.293706 -0.334702 -0.001044
-0.288849 -0.336714 -0.001044
0.288849 -0.336714 -0.001044
0.293706 -0.334702 -0.001044
0.295718 -0.329846 -0.001044
0.295718 0.329846 -0.001044
0.293706 0.334702 -0.001044
0.288849 0.336714 -0.001044
0.288849 -0.329846 -0.003889
-0.288849 -0.329846 -0.003889
0.288849 0.329846 -0.003889
-0.288849 0.329846 -0.003889
-0.288849 0.329846 1.580358
-0.288849 0.336714 1.577513
-0.288849 0.339559 1.570645
-0.298563 -0.329846 0.799785
-0.295718 -0.336714 0.799785
0.295718 -0.336714 0.799785
0.298563 -0.329846 0.799785
-0.244995 -0.339559 0.799785
-0.298563 -0.329846 1.172872
-0.295718 -0.336714 1.172872
0.295718 -0.336714 1.172872
0.298563 -0.329846 1.172872
-0.244995 -0.339559 1.172872
-0.295718 0.336714 1.570645
-0.298563 0.329846 1.570645
-0.298563 -0.329846 1.570645
-0.295718 -0.336714 1.570645
-0.288849 -0.339559 1.570645
0.288849 -0.339559 1.570645
0.295718 -0.336714 1.570645
0.298563 -0.329846 1.570645
0.298563 0.329846 1.570645
0.295718 0.336714 1.570645
-0.244995 -0.339559 1.520245
0.288849 0.339559 1.570645
-0.288849 -0.339559 1.172872
0.288849 -0.339559 1.172872
0.244995 -0.339559 1.148398
-0.298563 -0.329846 0.428018
-0.295718 -0.336714 0.428018
0.295718 -0.336714 0.428018
0.298563 -0.329846 0.428018
-0.244995 -0.339559 0.428018
-0.288849 -0.339559 0.799785
0.288849 -0.339559 0.799785
-0.244995 -0.339559 0.776095
-0.288849 -0.339559 0.428018
0.288849 -0.339559 0.428018
-0.244995 -0.339559 0.403621
0.244995 -0.339559 0.054871
0.288849 -0.329846 1.580358
0.288849 -0.336714 1.577513
0.288849 -0.339559 0.005824
0.244995 -0.339559 0.799785
0.244995 -0.339559 1.172872
0.244995 -0.339559 1.520245
-0.244995 -0.339559 1.148398
0.244995 -0.339559 0.428018
0.244995 -0.339559 0.776095
0.244995 -0.339559 0.403621
-0.244995 -0.339559 0.054871
-0.244995 0.303311 1.148398
-0.244995 0.303311 0.799785
0.244995 0.303311 0.799785
-0.244995 0.303311 1.520245
-0.244995 0.303311 1.172872
0.244995 0.303311 1.172872
0.244995 0.303311 1.520245
-0.244995 0.303311 0.776095
-0.244995 0.303311 0.428018
0.244995 0.303311 0.428018
0.244995 0.303311 0.776095
-0.244995 0.303311 0.403621
-0.244995 0.303311 0.054871
0.244995 0.303311 0.054871
0.244995 0.303311 0.403621
0.244995 0.303311 1.148398
</float_array>
          <technique_common>
            <accessor source="#file_cabinet_theta_large_body-POSITION-array" count="106" stride="3">
              <param name="X" type="float"/>
              <param name="Y" type="float"/>
              <param name="Z" type="float"/>
            </accessor>
          </technique_common>
        </source>
        <source id="file_cabinet_theta_large_body-Normal0">
          <float_array id="file_cabinet_theta_large_body-Normal0-array" count="1872">
-0.165728 0.165728 0.972146
-0.068313 0.381790 0.921721
-0.270600 0.270600 0.923879
-0.165728 0.165728 0.972146
-0.270600 0.270600 0.923879
-0.381790 0.068313 0.921721
-0.381790 0.068313 0.921721
-0.381790 -0.068313 0.921721
-0.165728 0.165728 0.972146
-0.165728 0.165728 0.972146
-0.381790 -0.068313 0.921721
-0.165728 -0.165728 0.972146
-0.165728 -0.165728 0.972146
-0.381790 -0.068313 0.921721
-0.270600 -0.270600 0.923879
-0.165728 -0.165728 0.972146
-0.270600 -0.270600 0.923879
-0.068313 -0.381790 0.921721
0.165728 -0.165728 0.972146
0.068313 -0.381790 0.921721
0.270600 -0.270600 0.923879
0.165728 -0.165728 0.972146
0.270600 -0.270600 0.923879
0.381790 -0.068313 0.921721
0.165728 0.165728 0.972146
0.165728 -0.165728 0.972146
0.381790 0.068313 0.921721
0.381790 0.068313 0.921721
0.165728 -0.165728 0.972146
0.381790 -0.068313 0.921721
0.165728 0.165728 0.972146
0.381790 0.068313 0.921721
0.270600 0.270600 0.923879
0.165728 0.165728 0.972146
0.270600 0.270600 0.923879
0.068313 0.381790 0.921721
-0.187692 0.964129 0.187690
-0.357408 0.862857 0.357405
-0.189846 0.907079 0.375720
-0.357408 0.862857 0.357405
-0.187692 0.964129 0.187690
-0.376925 0.909982 0.172802
-0.907079 0.189846 0.375720
-0.862857 0.357408 0.357405
-0.964129 0.187692 0.187690
-0.862857 0.357408 0.357405
-0.909982 0.376925 0.172802
-0.964129 0.187692 0.187690
-0.964129 0.187692 0.187690
-0.964129 -0.187692 0.187690
-0.907079 0.189846 0.375720
-0.907079 -0.189846 0.375720
-0.907079 0.189846 0.375720
-0.964129 -0.187692 0.187690
-0.964129 -0.187692 0.187690
-0.862857 -0.357408 0.357405
-0.907079 -0.189846 0.375720
-0.862857 -0.357408 0.357405
-0.964129 -0.187692 0.187690
-0.909982 -0.376925 0.172802
-0.189846 -0.907079 0.375720
-0.357408 -0.862857 0.357405
-0.187692 -0.964129 0.187690
-0.357408 -0.862857 0.357405
-0.376925 -0.909982 0.172802
-0.187692 -0.964129 0.187690
0.187692 -0.964129 0.187690
0.357408 -0.862857 0.357405
0.189846 -0.907079 0.375720
0.357408 -0.862857 0.357405
0.187692 -0.964129 0.187690
0.376925 -0.909982 0.172802
0.907079 -0.189846 0.375720
0.862857 -0.357408 0.357405
0.964129 -0.187692 0.187690
0.862857 -0.357408 0.357405
0.909982 -0.376925 0.172802
0.964129 -0.187692 0.187690
0.964129 -0.187692 0.187690
0.964129 0.187692 0.187690
0.907079 -0.189846 0.375720
0.907079 0.189846 0.375720
0.907079 -0.189846 0.375720
0.964129 0.187692 0.187690
0.964129 0.187692 0.187690
0.862857 0.357408 0.357405
0.907079 0.189846 0.375720
0.862857 0.357408 0.357405
0.964129 0.187692 0.187690
0.909982 0.376925 0.172802
0.189846 0.907079 0.375720
0.357408 0.862857 0.357405
0.187692 0.964129 0.187690
0.357408 0.862857 0.357405
0.376925 0.909982 0.172802
0.187692 0.964129 0.187690
-0.376925 0.909981 -0.172804
-0.187691 0.964128 -0.187693
-0.357407 0.862855 -0.357410
-0.187691 0.964128 -0.187693
-0.189845 0.907077 -0.375726
-0.357407 0.862855 -0.357410
-0.964128 0.187692 -0.187693
-0.862855 0.357407 -0.357410
-0.907077 0.189845 -0.375726
-0.862855 0.357407 -0.357410
-0.964128 0.187692 -0.187693
-0.909981 0.376925 -0.172804
-0.907077 0.189845 -0.375726
-0.907077 -0.189845 -0.375726
-0.964128 0.187692 -0.187693
-0.964128 -0.187691 -0.187693
-0.964128 0.187692 -0.187693
-0.907077 -0.189845 -0.375726
-0.909981 -0.376925 -0.172804
-0.964128 -0.187691 -0.187693
-0.862855 -0.357407 -0.357410
-0.964128 -0.187691 -0.187693
-0.907077 -0.189845 -0.375726
-0.862855 -0.357407 -0.357410
-0.187692 -0.964128 -0.187693
-0.357407 -0.862855 -0.357410
-0.189845 -0.907077 -0.375726
-0.357407 -0.862855 -0.357410
-0.187692 -0.964128 -0.187693
-0.376925 -0.909981 -0.172804
-0.189845 -0.907077 -0.375726
0.189845 -0.907077 -0.375726
-0.187692 -0.964128 -0.187693
0.187692 -0.964128 -0.187693
-0.187692 -0.964128 -0.187693
0.189845 -0.907077 -0.375726
0.376925 -0.909981 -0.172804
0.187692 -0.964128 -0.187693
0.357407 -0.862855 -0.357410
0.187692 -0.964128 -0.187693
0.189845 -0.907077 -0.375726
0.357407 -0.862855 -0.357410
0.964128 -0.187692 -0.187693
0.862855 -0.357407 -0.357410
0.907077 -0.189845 -0.375726
0.862855 -0.357407 -0.357410
0.964128 -0.187692 -0.187693
0.909981 -0.376925 -0.172804
0.907077 -0.189845 -0.375726
0.907077 0.189845 -0.375726
0.964128 -0.187692 -0.187693
0.964128 0.187691 -0.187693
0.964128 -0.187692 -0.187693
0.907077 0.189845 -0.375726
0.909981 0.376925 -0.172804
0.964128 0.187691 -0.187693
0.862855 0.357407 -0.357410
0.964128 0.187691 -0.187693
0.907077 0.189845 -0.375726
0.862855 0.357407 -0.357410
0.187692 0.964128 -0.187693
0.357407 0.862855 -0.357410
0.189845 0.907077 -0.375726
0.357407 0.862855 -0.357410
0.187692 0.964128 -0.187693
0.376925 0.909981 -0.172804
0.189845 0.907077 -0.375726
-0.189845 0.907077 -0.375726
0.187692 0.964128 -0.187693
-0.187691 0.964128 -0.187693
0.187692 0.964128 -0.187693
-0.189845 0.907077 -0.375726
-0.068313 0.381791 -0.921721
-0.165729 0.165729 -0.972146
-0.270600 0.270600 -0.923878
-0.270600 0.270600 -0.923878
-0.165729 0.165729 -0.972146
-0.381791 0.068313 -0.921721
-0.381791 -0.068313 -0.921721
-0.381791 0.068313 -0.921721
-0.165729 -0.165729 -0.972146
-0.165729 -0.165729 -0.972146
-0.381791 0.068313 -0.921721
-0.165729 0.165729 -0.972146
-0.381791 -0.068313 -0.921721
-0.165729 -0.165729 -0.972146
-0.270600 -0.270600 -0.923878
-0.270600 -0.270600 -0.923878
-0.165729 -0.165729 -0.972146
-0.068313 -0.381791 -0.921721
-0.165729 -0.165729 -0.972146
0.165729 -0.165729 -0.972146
-0.068313 -0.381791 -0.921721
0.068313 -0.381791 -0.921721
-0.068313 -0.381791 -0.921721
0.165729 -0.165729 -0.972146
0.068313 -0.381791 -0.921721
0.165729 -0.165729 -0.972146
0.270600 -0.270600 -0.923878
0.270600 -0.270600 -0.923878
0.165729 -0.165729 -0.972146
0.381791 -0.068313 -0.921721
0.165729 -0.165729 -0.972146
0.165729 0.165729 -0.972146
0.381791 -0.068313 -0.921721
0.381791 -0.068313 -0.921721
0.165729 0.165729 -0.972146
0.381791 0.068313 -0.921721
0.381791 0.068313 -0.921721
0.165729 0.165729 -0.972146
0.270600 0.270600 -0.923878
0.270600 0.270600 -0.923878
0.165729 0.165729 -0.972146
0.068313 0.381791 -0.921721
-0.165729 0.165729 -0.972146
0.068313 0.381791 -0.921721
0.165729 0.165729 -0.972146
0.068313 0.381791 -0.921721
-0.165729 0.165729 -0.972146
-0.068313 0.381791 -0.921721
-0.165729 -0.165729 -0.972146
0.165729 0.165729 -0.972146
0.165729 -0.165729 -0.972146
0.165729 0.165729 -0.972146
-0.165729 -0.165729 -0.972146
-0.165729 0.165729 -0.972146
-0.923881 -0.382681 0.000000
-0.923881 -0.382681 0.000000
-0.980786 -0.195089 0.000000
-0.980786 -0.195089 0.000000
-0.980786 -0.195089 0.000000
-0.923881 -0.382681 0.000000
-0.195089 -0.980786 0.000000
-0.195089 -0.980786 0.000000
-0.382681 -0.923881 0.000000
-0.382681 -0.923881 0.000000
-0.382681 -0.923881 0.000000
-0.195089 -0.980786 0.000000
-0.195089 -0.980786 0.000000
0.000000 -1.000000 0.000000
0.000000 -1.000000 0.000000
0.382681 -0.923881 0.000000
0.382681 -0.923881 0.000000
0.195089 -0.980786 0.000000
0.195089 -0.980786 0.000000
0.195089 -0.980786 0.000000
0.382681 -0.923881 0.000000
0.980786 -0.195089 0.000000
0.980786 -0.195089 0.000000
0.923881 -0.382681 0.000000
0.923881 -0.382681 0.000000
0.923881 -0.382681 0.000000
0.980786 -0.195089 0.000000
0.000000 -1.000000 0.000000
0.195089 -0.980786 0.000000
0.195089 -0.980786 0.000000
0.195089 -0.980786 0.000000
0.000000 -1.000000 0.000000
0.000000 -1.000000 0.000000
-0.923881 -0.382681 0.000000
-0.923881 -0.382681 0.000000
-0.980786 -0.195089 0.000000
-0.980786 -0.195089 0.000000
-0.980786 -0.195089 0.000000
-0.923881 -0.382681 0.000000
-0.195089 -0.980786 0.000000
-0.195089 -0.980786 0.000000
-0.382681 -0.923881 0.000000
-0.382681 -0.923881 0.000000
-0.382681 -0.923881 0.000000
-0.195089 -0.980786 0.000000
-0.195089 -0.980786 0.000000
0.000000 -1.000000 0.000000
0.000000 -1.000000 0.000000
0.382681 -0.923881 0.000000
0.382681 -0.923881 0.000000
0.195089 -0.980786 0.000000
0.195089 -0.980786 0.000000
0.195089 -0.980786 0.000000
0.382681 -0.923881 0.000000
0.980786 -0.195089 0.000000
0.980786 -0.195089 0.000000
0.923881 -0.382681 0.000000
0.923881 -0.382681 0.000000
0.923881 -0.382681 0.000000
0.980786 -0.195089 0.000000
0.195089 -0.980786 0.000000
0.187692 -0.964129 0.187690
0.000000 -1.000000 0.000000
0.195089 -0.980786 0.000000
0.000000 -1.000000 0.000000
0.000000 -1.000000 0.000000
-0.376925 0.909981 -0.172804
-0.376925 0.909982 0.172802
-0.187692 0.964129 0.187690
-0.187692 0.964129 0.187690
-0.187691 0.964128 -0.187693
-0.376925 0.909981 -0.172804
-0.964128 0.187692 -0.187693
-0.964129 0.187692 0.187690
-0.909982 0.376925 0.172802
-0.909982 0.376925 0.172802
-0.909981 0.376925 -0.172804
-0.964128 0.187692 -0.187693
-0.964129 0.187692 0.187690
-0.980786 -0.195089 0.000000
-0.964129 -0.187692 0.187690
-0.923881 -0.382681 0.000000
-0.909982 -0.376925 0.172802
-0.964129 -0.187692 0.187690
-0.964129 -0.187692 0.187690
-0.980786 -0.195089 0.000000
-0.923881 -0.382681 0.000000
-0.195089 -0.980786 0.000000
-0.187692 -0.964129 0.187690
-0.376925 -0.909982 0.172802
-0.376925 -0.909982 0.172802
-0.382681 -0.923881 0.000000
-0.195089 -0.980786 0.000000
-0.195089 -0.980786 0.000000
0.000000 -1.000000 0.000000
-0.187692 -0.964129 0.187690
0.000000 -1.000000 0.000000
-0.195089 -0.980786 0.000000
0.000000 -1.000000 0.000000
0.382681 -0.923881 0.000000
0.376925 -0.909982 0.172802
0.187692 -0.964129 0.187690
0.187692 -0.964129 0.187690
0.195089 -0.980786 0.000000
0.382681 -0.923881 0.000000
0.980786 -0.195089 0.000000
0.964129 -0.187692 0.187690
0.909982 -0.376925 0.172802
0.909982 -0.376925 0.172802
0.923881 -0.382681 0.000000
0.980786 -0.195089 0.000000
0.964129 -0.187692 0.187690
0.980786 -0.195089 0.000000
0.964129 0.187692 0.187690
0.909981 0.376925 -0.172804
0.909982 0.376925 0.172802
0.964129 0.187692 0.187690
0.964129 0.187692 0.187690
0.964128 0.187691 -0.187693
0.909981 0.376925 -0.172804
0.187692 0.964128 -0.187693
0.187692 0.964129 0.187690
0.376925 0.909982 0.172802
0.376925 0.909982 0.172802
0.376925 0.909981 -0.172804
0.187692 0.964128 -0.187693
0.195089 -0.980786 0.000000
0.000000 -1.000000 0.000000
0.000000 -1.000000 0.000000
0.000000 -1.000000 0.000000
-0.195089 -0.980786 0.000000
0.000000 -1.000000 0.000000
-0.195089 -0.980786 0.000000
0.000000 -1.000000 0.000000
-0.195089 -0.980786 0.000000
0.000000 -1.000000 0.000000
0.195089 -0.980786 0.000000
0.195089 -0.980786 0.000000
0.195089 -0.980786 0.000000
0.000000 -1.000000 0.000000
0.000000 -1.000000 0.000000
-0.909981 -0.376925 -0.172804
-0.923881 -0.382681 0.000000
-0.980786 -0.195089 0.000000
-0.980786 -0.195089 0.000000
-0.964128 -0.187691 -0.187693
-0.909981 -0.376925 -0.172804
-0.187692 -0.964128 -0.187693
-0.195089 -0.980786 0.000000
-0.382681 -0.923881 0.000000
-0.382681 -0.923881 0.000000
-0.376925 -0.909981 -0.172804
-0.187692 -0.964128 -0.187693
-0.195089 -0.980786 0.000000
0.000000 -1.000000 0.000000
0.000000 -1.000000 0.000000
0.376925 -0.909981 -0.172804
0.382681 -0.923881 0.000000
0.195089 -0.980786 0.000000
0.195089 -0.980786 0.000000
0.187692 -0.964128 -0.187693
0.376925 -0.909981 -0.172804
0.964128 -0.187692 -0.187693
0.980786 -0.195089 0.000000
0.923881 -0.382681 0.000000
0.923881 -0.382681 0.000000
0.909981 -0.376925 -0.172804
0.964128 -0.187692 -0.187693
0.000000 -1.000000 0.000000
-0.195089 -0.980786 0.000000
0.000000 -1.000000 0.000000
-0.195089 -0.980786 0.000000
0.000000 -1.000000 0.000000
-0.195089 -0.980786 0.000000
0.195089 -0.980786 0.000000
0.000000 -1.000000 0.000000
0.000000 -1.000000 0.000000
0.195089 -0.980786 0.000000
0.000000 -1.000000 0.000000
0.000000 -1.000000 0.000000
0.000000 -1.000000 0.000000
0.000000 -1.000000 0.000000
-0.195089 -0.980786 0.000000
-0.195089 -0.980786 0.000000
-0.187692 -0.964128 -0.187693
0.000000 -1.000000 0.000000
0.195089 -0.980786 0.000000
0.000000 -1.000000 0.000000
0.187692 -0.964128 -0.187693
0.000000 -1.000000 0.000000
0.195089 -0.980786 0.000000
0.000000 -1.000000 0.000000
0.187692 0.964129 0.187690
0.187692 0.964128 -0.187693
-0.187692 0.964129 0.187690
-0.187692 0.964129 0.187690
0.187692 0.964128 -0.187693
-0.187691 0.964128 -0.187693
0.165728 0.165728 0.972146
-0.165728 0.165728 0.972146
-0.165728 -0.165728 0.972146
0.165728 0.165728 0.972146
-0.165728 -0.165728 0.972146
0.165728 -0.165728 0.972146
0.165728 -0.165728 0.972146
-0.165728 -0.165728 0.972146
-0.068313 -0.381790 0.921721
0.165728 -0.165728 0.972146
-0.068313 -0.381790 0.921721
0.068313 -0.381790 0.921721
0.068313 0.381790 0.921721
-0.068313 0.381790 0.921721
-0.165728 0.165728 0.972146
0.068313 0.381790 0.921721
-0.165728 0.165728 0.972146
0.165728 0.165728 0.972146
0.189846 -0.907079 0.375720
-0.189846 -0.907079 0.375720
-0.187692 -0.964129 0.187690
0.189846 -0.907079 0.375720
-0.187692 -0.964129 0.187690
0.187692 -0.964129 0.187690
-0.189846 0.907079 0.375720
0.189846 0.907079 0.375720
0.187692 0.964129 0.187690
-0.189846 0.907079 0.375720
0.187692 0.964129 0.187690
-0.187692 0.964129 0.187690
-0.187692 -0.964128 -0.187693
0.187692 -0.964128 -0.187693
0.000000 -1.000000 0.000000
-0.187692 -0.964128 -0.187693
0.000000 -1.000000 0.000000
0.000000 -1.000000 0.000000
0.000000 -1.000000 0.000000
0.000000 -1.000000 0.000000
0.000000 -1.000000 0.000000
0.000000 -1.000000 0.000000
0.000000 -1.000000 0.000000
0.000000 -1.000000 0.000000
0.000000 -1.000000 0.000000
0.000000 -1.000000 0.000000
0.000000 -1.000000 0.000000
0.000000 -1.000000 0.000000
0.000000 -1.000000 0.000000
0.000000 -1.000000 0.000000
0.187692 -0.964129 0.187690
-0.187692 -0.964129 0.187690
0.000000 -1.000000 0.000000
0.187692 -0.964129 0.187690
0.000000 -1.000000 0.000000
0.000000 -1.000000 0.000000
0.000000 -1.000000 0.000000
0.000000 -1.000000 0.000000
0.000000 -1.000000 0.000000
0.000000 -1.000000 0.000000
0.000000 -1.000000 0.000000
0.000000 -1.000000 0.000000
0.000000 -1.000000 0.000000
0.000000 -1.000000 0.000000
0.000000 -1.000000 0.000000
0.000000 -1.000000 0.000000
0.000000 -1.000000 0.000000
0.000000 -1.000000 0.000000
0.000000 -1.000000 0.000000
0.000000 -1.000000 0.000000
0.000000 -1.000000 0.000000
0.000000 -1.000000 0.000000
0.000000 -1.000000 0.000000
0.000000 -1.000000 0.000000
0.000000 -1.000000 0.000000
0.000000 -1.000000 0.000000
0.000000 -1.000000 0.000000
0.000000 -1.000000 0.000000
0.000000 -1.000000 0.000000
0.000000 -1.000000 0.000000
0.000000 -1.000000 0.000000
0.000000 -1.000000 0.000000
0.000000 -1.000000 0.000000
0.000000 -1.000000 0.000000
0.000000 -1.000000 0.000000
0.000000 -1.000000 0.000000
1.000000 0.000000 0.000000
1.000000 0.000000 0.000000
1.000000 0.000000 0.000000
1.000000 0.000000 0.000000
1.000000 0.000000 0.000000
1.000000 0.000000 0.000000
0.000000 0.000000 1.000000
0.000000 0.000000 1.000000
0.000000 0.000000 1.000000
0.000000 0.000000 1.000000
0.000000 0.000000 1.000000
0.000000 0.000000 1.000000
-1.000000 0.000000 0.000000
-1.000000 0.000000 0.000000
-1.000000 0.000000 0.000000
-1.000000 0.000000 0.000000
-1.000000 0.000000 0.000000
-1.000000 0.000000 0.000000
0.000000 0.000000 -1.000000
0.000000 0.000000 -1.000000
0.000000 0.000000 -1.000000
0.000000 0.000000 -1.000000
0.000000 0.000000 -1.000000
0.000000 0.000000 -1.000000
1.000000 0.000000 0.000000
1.000000 0.000000 0.000000
1.000000 0.000000 0.000000
1.000000 0.000000 0.000000
1.000000 0.000000 0.000000
1.000000 0.000000 0.000000
0.000000 0.000000 1.000000
0.000000 0.000000 1.000000
0.000000 0.000000 1.000000
0.000000 0.000000 1.000000
0.000000 0.000000 1.000000
0.000000 0.000000 1.000000
-1.000000 0.000000 0.000000
-1.000000 0.000000 0.000000
-1.000000 0.000000 0.000000
-1.000000 0.000000 0.000000
-1.000000 0.000000 0.000000
-1.000000 0.000000 0.000000
0.000000 0.000000 -1.000000
0.000000 0.000000 -1.000000
0.000000 0.000000 -1.000000
0.000000 0.000000 -1.000000
0.000000 0.000000 -1.000000
0.000000 0.000000 -1.000000
1.000000 0.000000 0.000000
1.000000 0.000000 0.000000
1.000000 0.000000 0.000000
1.000000 0.000000 0.000000
1.000000 0.000000 0.000000
1.000000 0.000000 0.000000
0.000000 0.000000 1.000000
0.000000 0.000000 1.000000
0.000000 0.000000 1.000000
0.000000 0.000000 1.000000
0.000000 0.000000 1.000000
0.000000 0.000000 1.000000
-1.000000 0.000000 0.000000
-1.000000 0.000000 0.000000
-1.000000 0.000000 0.000000
-1.000000 0.000000 0.000000
-1.000000 0.000000 0.000000
-1.000000 0.000000 0.000000
0.000000 0.000000 -1.000000
0.000000 0.000000 -1.000000
0.000000 0.000000 -1.000000
0.000000 0.000000 -1.000000
0.000000 0.000000 -1.000000
0.000000 0.000000 -1.000000
1.000000 0.000000 0.000000
1.000000 0.000000 0.000000
1.000000 0.000000 0.000000
1.000000 0.000000 0.000000
1.000000 0.000000 0.000000
1.000000 0.000000 0.000000
0.000000 0.000000 1.000000
0.000000 0.000000 1.000000
0.000000 0.000000 1.000000
0.000000 0.000000 1.000000
0.000000 0.000000 1.000000
0.000000 0.000000 1.000000
-1.000000 0.000000 0.000000
-1.000000 0.000000 0.000000
-1.000000 0.000000 0.000000
-1.000000 0.000000 0.000000
-1.000000 0.000000 0.000000
-1.000000 0.000000 0.000000
0.000000 0.000000 -1.000000
0.000000 0.000000 -1.000000
0.000000 0.000000 -1.000000
0.000000 0.000000 -1.000000
0.000000 0.000000 -1.000000
0.000000 0.000000 -1.000000
-0.964129 0.187692 0.187690
-0.980786 -0.195089 0.000000
-0.980786 -0.195089 0.000000
0.980786 -0.195089 0.000000
0.980786 -0.195089 0.000000
0.964129 0.187692 0.187690
0.980786 -0.195089 0.000000
0.964128 -0.187692 -0.187693
0.964128 0.187691 -0.187693
0.964129 0.187692 0.187690
0.980786 -0.195089 0.000000
0.964128 0.187691 -0.187693
0.964128 0.187691 -0.187693
0.980786 -0.195089 0.000000
0.980786 -0.195089 0.000000
-0.964128 0.187692 -0.187693
-0.964128 -0.187691 -0.187693
-0.980786 -0.195089 0.000000
-0.980786 -0.195089 0.000000
-0.964128 0.187692 -0.187693
-0.980786 -0.195089 0.000000
-0.964128 0.187692 -0.187693
-0.980786 -0.195089 0.000000
-0.964129 0.187692 0.187690
</float_array>
          <technique_common>
            <accessor source="#file_cabinet_theta_large_body-Normal0-array" count="624" stride="3">
              <param name="X" type="float"/>
              <param name="Y" type="float"/>
              <param name="Z" type="float"/>
            </accessor>
          </technique_common>
        </source>
        <source id="file_cabinet_theta_large_body-UV0">
          <float_array id="file_cabinet_theta_large_body-UV0-array" count="432">
0.843284 0.006558
0.843284 0.001253
0.845153 0.002807
0.845927 0.006558
0.845927 0.516126
0.843284 0.516126
0.845153 0.519877
0.843284 0.521431
0.620988 0.516126
0.620988 0.521431
0.619119 0.519877
0.618345 0.516126
0.854211 0.000772
1.610316 0.002337
1.607663 0.000789
0.610522 0.996111
0.607870 0.997659
0.607870 0.992373
0.610316 0.517505
0.607663 0.519053
0.854211 0.004200
0.852503 0.004200
0.853003 0.000772
0.999053 0.000772
0.999553 0.004200
1.607663 0.006075
1.610316 0.006075
0.610522 0.992373
0.610522 0.547782
0.607870 0.547782
0.607663 0.513767
0.610316 0.513767
0.997845 0.004200
0.997845 0.000772
0.854211 0.785203
0.854211 0.788631
1.607663 0.513767
1.610316 0.513767
0.607870 0.542496
0.610522 0.544044
0.003510 0.997659
0.607663 0.006075
0.610316 0.006075
0.853003 0.788631
0.852503 0.785203
0.575967 0.894189
0.575967 0.891586
0.576883 0.893427
0.577263 0.891586
0.575967 0.641627
0.577263 0.641627
0.576883 0.639787
0.575967 0.639025
0.466923 0.641627
0.466923 0.639024
0.466007 0.639787
0.465627 0.641627
0.466923 0.891586
0.465627 0.891586
0.466007 0.893426
0.466923 0.894189
0.999553 0.785203
0.618345 0.006558
0.620988 0.006558
0.999052 0.788631
0.997845 0.788631
1.607663 0.519053
0.000857 0.996111
0.000857 0.992373
0.607663 0.000789
7.795201 0.796984
1.610316 0.517505
0.003510 0.992373
0.000857 0.547782
0.610316 0.002337
5.795201 0.797106
0.997845 0.785203
1.003303 0.000788
1.000651 0.002337
0.003510 0.547782
0.000857 0.544044
0.003510 0.542496
0.310151 0.997659
0.003303 0.519053
0.000651 0.517504
0.166568 0.997659
4.795201 0.541107
0.166568 0.992373
0.310151 0.992373
0.301001 0.958623
2.795201 0.541107
1.000651 0.006074
0.310151 0.958623
0.310151 0.547782
0.000651 0.513766
3.795201 0.797106
0.166568 0.547782
0.166568 0.542496
6.795201 0.541107
0.310151 0.542496
0.454243 0.547782
0.795201 0.541107
1.795201 0.797106
0.619120 0.002807
0.620988 0.001253
0.444791 0.581532
0.310151 0.581532
0.454243 0.997659
7.795201 0.540984
5.795201 0.541107
4.795201 0.797106
2.795201 0.797106
3.046156 0.940028
3.137084 0.940028
0.795201 0.797106
1.795201 0.541107
2.627882 0.797106
7.627883 0.540984
7.627883 0.796984
4.627882 0.797106
5.627883 0.541107
5.627883 0.797106
4.627882 0.541107
6.795201 0.797106
3.795201 0.541107
3.137084 0.605391
3.046156 0.605391
0.627882 0.797106
1.627882 0.541107
1.627882 0.797106
0.627882 0.541107
2.627882 0.541107
0.003303 0.513766
0.000651 0.006074
0.003303 0.006074
0.000651 0.002337
0.003303 0.000788
0.309944 0.519053
0.166362 0.519053
0.166362 0.513767
0.309944 0.513767
0.454036 0.519053
0.454036 0.513767
1.003303 0.006074
1.000651 0.513766
1.003303 0.513766
1.000651 0.517504
1.003303 0.519053
1.309944 0.513767
1.166362 0.513767
1.166362 0.519053
1.309944 0.519053
1.454036 0.513767
1.454036 0.519053
0.454243 0.992373
0.444791 0.958623
0.454243 0.958623
0.454243 0.542496
0.588404 0.581532
0.454243 0.581532
0.588404 0.958623
0.301002 0.581532
0.166568 0.581532
0.157146 0.958623
0.166568 0.958623
0.157146 0.581532
0.022452 0.958623
0.022452 0.581532
1.137084 0.939155
1.046156 0.939155
1.046156 0.604518
1.137084 0.604518
1.189216 0.939154
1.280285 0.939154
1.280284 0.604518
1.189216 0.604518
1.331256 0.882926
1.331256 0.627869
1.422360 0.627869
1.422360 0.882926
2.280284 0.940028
2.189217 0.940028
2.189217 0.605391
2.280285 0.605391
2.046156 0.940028
2.137084 0.940028
2.137084 0.605391
2.046156 0.605391
2.331256 0.882926
2.331256 0.627869
2.422359 0.627869
2.422359 0.882926
3.280284 0.940028
3.189217 0.940028
3.189217 0.605391
3.280285 0.605391
0.189217 0.939154
0.280285 0.939154
0.280284 0.604518
0.189217 0.604518
3.331256 0.882926
3.331256 0.627869
3.422359 0.627869
3.422359 0.882926
3.627882 0.541107
3.627882 0.797106
6.627882 0.797106
6.627882 0.541107
0.137084 0.939155
0.046156 0.939155
0.046156 0.604518
0.137084 0.604518
0.331256 0.882926
0.331256 0.627869
0.422360 0.627869
0.422360 0.882926
</float_array>
          <technique_common>
            <accessor source="#file_cabinet_theta_large_body-UV0-array" count="216" stride="2">
              <param name="S" type="float"/>
              <param name="T" type="float"/>
            </accessor>
          </technique_common>
        </source>
        <vertices id="file_cabinet_theta_large_body-VERTEX">
          <input semantic="POSITION" source="#file_cabinet_theta_large_body-POSITION"/>
        </vertices>
        <triangles count="208" material="file_cabinet_theta_large_body">
          <input semantic="VERTEX" offset="0" source="#file_cabinet_theta_large_body-VERTEX"/>
          <input semantic="NORMAL" offset="1" source="#file_cabinet_theta_large_body-Normal0"/>
          <input semantic="TEXCOORD" offset="2" set="0" source="#file_cabinet_theta_large_body-UV0"/>
          <p> 39 0 0 40 1 1 2 2 2 39 3 0 2 4 2 3 5 3 3 6 3 4 7 4 39 8 0 39 9 0 4 10 4 1 11 5 1 12 5 4 13 4 5 14 6 1 15 5 5 16 6 6 17 7 79 18 8 80 19 9 7 20 10 79 21 8 7 22 10 8 23 11 0 24 63 79 25 8 9 26 62 9 27 62 79 28 8 8 29 11 0 30 63 9 31 62 10 32 103 0 33 63 10 34 103 11 35 104 41 36 20 2 37 22 40 38 12 2 39 22 41 40 20 52 41 21 3 42 26 2 43 13 53 44 25 2 45 13 52 46 14 53 47 25 53 48 25 54 49 36 3 50 26 4 51 37 3 52 26 54 53 36 54 54 36 5 55 71 4 56 37 5 57 71 54 58 36 55 59 66 6 60 27 5 61 15 56 62 17 5 63 15 55 64 16 56 65 17 57 66 29 7 67 39 80 68 28 7 69 39 57 70 29 58 71 38 8 72 31 7 73 18 59 74 30 7 75 18 58 76 19 59 77 30 59 78 30 60 79 41 8 80 31 9 81 42 8 82 31 60 83 41 60 84 41 10 85 74 9 86 42 10 87 74 60 88 41 61 89 69 11 90 33 10 91 23 63 92 32 10 93 23 61 94 24 63 95 32 13 96 44 12 97 34 24 98 43 12 99 34 23 100 35 24 101 43 14 102 143 24 103 78 25 104 91 24 105 78 14 106 143 13 107 77 25 108 91 26 109 144 14 110 143 15 111 145 14 112 143 26 113 144 16 114 147 15 115 145 27 116 146 15 117 145 26 118 144 27 119 146 17 120 72 27 121 67 28 122 68 27 123 67 17 124 72 16 125 40 28 126 68 29 127 73 17 128 72 81 129 79 17 130 72 29 131 73 18 132 81 81 133 79 30 134 80 81 135 79 29 136 73 30 137 80 19 138 132 30 139 84 31 140 94 30 141 84 19 142 132 18 143 83 31 144 94 32 145 133 19 146 132 20 147 134 19 148 132 32 149 133 21 150 136 20 151 134 33 152 135 20 153 134 32 154 133 33 155 135 22 156 76 33 157 64 34 158 65 33 159 64 22 160 76 21 161 61 34 162 65 23 163 35 22 164 76 12 165 34 22 166 76 23 167 35 23 168 45 38 169 46 24 170 47 24 171 47 38 172 46 25 173 48 26 174 50 25 175 48 36 176 49 36 177 49 25 178 48 38 179 46 26 180 50 36 181 49 27 182 51 27 183 51 36 184 49 28 185 52 36 186 49 35 187 53 28 188 52 29 189 54 28 190 52 35 191 53 29 192 54 35 193 53 30 194 55 30 195 55 35 196 53 31 197 56 35 198 53 37 199 57 31 200 56 31 201 56 37 202 57 32 203 58 32 204 58 37 205 57 33 206 59 33 207 59 37 208 57 34 209 60 38 210 46 34 211 60 37 212 57 34 213 60 38 214 46 23 215 45 36 216 49 37 217 57 35 218 53 37 219 57 36 220 49 38 221 46 68 222 150 43 223 151 42 224 148 42 225 148 67 226 149 68 227 150 75 228 87 72 229 88 43 230 82 43 231 82 68 232 85 75 233 87 72 234 88 74 235 89 46 236 92 69 237 97 44 238 99 73 239 93 73 240 93 76 241 96 69 242 97 70 243 139 45 244 140 44 245 137 44 246 137 69 247 138 70 248 139 66 249 105 73 250 93 65 251 100 73 252 93 66 253 105 82 254 106 43 255 151 48 256 153 47 257 152 47 258 152 42 259 148 43 260 151 72 261 88 64 262 154 48 263 107 48 264 107 43 265 82 72 266 88 64 267 154 85 268 155 51 269 156 44 270 99 49 271 157 65 272 100 65 273 100 73 274 93 44 275 99 45 276 140 50 277 142 49 278 141 49 279 141 44 280 137 45 281 140 65 282 100 57 283 29 84 284 158 65 285 100 84 286 158 83 287 159 13 288 44 52 289 21 41 290 20 41 291 20 12 292 34 13 293 44 14 294 143 53 295 25 52 296 14 52 297 14 13 298 77 14 299 143 53 300 25 47 301 152 54 302 36 48 303 153 55 304 66 54 305 36 54 306 36 47 307 152 48 308 153 64 309 154 56 310 17 55 311 16 55 312 16 48 313 107 64 314 154 64 315 154 62 316 160 56 317 17 62 318 160 64 319 154 51 320 156 49 321 157 58 322 38 57 323 29 57 324 29 65 325 100 49 326 157 50 327 142 59 328 30 58 329 19 58 330 19 49 331 141 50 332 142 59 333 30 50 334 142 60 335 41 21 336 136 61 337 69 60 338 41 60 339 41 20 340 134 21 341 136 22 342 76 63 343 32 61 344 24 61 345 24 21 346 61 22 347 76 65 348 100 83 349 159 66 350 105 85 351 155 72 352 88 46 353 92 72 354 88 85 355 155 64 356 154 87 357 161 76 358 96 73 359 93 76 360 96 87 361 161 86 362 162 16 363 147 68 364 150 67 365 149 67 366 149 15 367 145 16 368 147 17 369 72 75 370 87 68 371 85 68 372 85 16 373 40 17 374 72 75 375 87 77 376 163 71 377 164 18 378 81 69 379 97 76 380 96 76 381 96 81 382 79 18 383 81 19 384 132 70 385 139 69 386 138 69 387 138 18 388 83 19 389 132 74 390 89 75 391 87 71 392 164 75 393 87 74 394 89 72 395 88 73 396 93 82 397 106 87 398 161 76 399 96 86 400 162 88 401 165 89 402 166 77 403 163 75 404 87 75 405 87 17 406 72 89 407 166 76 408 96 78 409 167 81 410 79 78 411 167 76 412 96 88 413 165 63 414 32 22 415 76 41 416 20 41 417 20 22 418 76 12 419 34 0 420 63 39 421 0 1 422 5 0 423 63 1 424 5 79 425 8 79 426 8 1 427 5 6 428 7 79 429 8 6 430 7 80 431 9 11 432 104 40 433 1 39 434 0 11 435 104 39 436 0 0 437 63 80 438 28 6 439 27 56 440 17 80 441 28 56 442 17 57 443 29 40 444 12 11 445 33 63 446 32 40 447 12 63 448 32 41 449 20 17 450 72 81 451 79 78 452 167 17 453 72 78 454 167 89 455 166 105 456 178 90 457 179 91 458 176 105 459 178 91 460 176 92 461 177 96 462 190 93 463 191 94 464 188 96 465 190 94 466 188 95 467 189 57 468 29 56 469 17 62 470 160 57 471 29 62 472 160 84 473 158 83 474 159 51 475 156 85 476 155 83 477 159 85 478 155 66 479 105 100 480 202 97 481 203 98 482 200 100 483 202 98 484 200 99 485 201 82 486 106 46 487 92 74 488 89 82 489 106 74 490 89 87 491 161 86 492 162 71 493 164 77 494 163 86 495 162 77 496 163 88 497 165 104 498 214 101 499 215 102 500 212 104 501 214 102 502 212 103 503 213 46 504 169 91 505 170 85 506 168 90 507 171 85 508 168 91 509 170 92 510 117 91 511 118 46 512 70 92 513 117 46 514 70 82 515 108 105 516 174 82 517 172 66 518 173 82 519 172 105 520 174 92 521 175 85 522 111 90 523 116 66 524 90 66 525 90 90 526 116 105 527 131 51 528 181 94 529 182 62 530 180 93 531 183 62 532 180 94 533 182 95 534 120 94 535 121 51 536 75 95 537 120 51 538 75 83 539 109 96 540 186 83 541 184 84 542 185 83 543 184 96 544 186 95 545 187 62 546 110 93 547 119 84 548 86 84 549 86 93 550 119 96 551 122 71 552 193 98 553 194 74 554 192 97 555 195 74 556 192 98 557 194 99 558 204 98 559 205 71 560 95 99 561 204 71 562 95 86 563 124 100 564 125 86 565 112 87 566 113 86 567 112 100 568 125 99 569 126 74 570 123 97 571 206 87 572 98 87 573 98 97 574 206 100 575 207 89 576 209 102 577 210 77 578 208 101 579 211 77 580 208 102 581 210 103 582 128 102 583 129 89 584 102 103 585 128 89 586 102 78 587 115 104 588 198 78 589 196 88 590 197 78 591 196 104 592 198 103 593 199 77 594 114 101 595 127 88 596 101 88 597 101 101 598 127 104 599 130 53 600 25 42 601 148 47 602 152 50 603 142 45 604 140 60 605 41 70 606 139 19 607 132 20 608 134 60 609 41 45 610 140 20 611 134 20 612 134 45 613 140 70 614 139 14 615 143 15 616 145 67 617 149 42 618 148 14 619 143 67 620 149 14 621 143 42 622 148 53 623 25</p>
        </triangles>
      </mesh>
    </geometry>
  </library_geometries>
  <library_visual_scenes>
    <visual_scene id="" name="">
      <node name="file_cabinet_theta_large_body" id="file_cabinet_theta_large_body" layer="lp" sid="file_cabinet_theta_large_body">
        <matrix sid="matrix">1.000000 0.000000 0.000000 0.000000 0.000000 0.000000 1.000000 0.000000 0.000000 -1.000000 0.000000 0.000000 0.000000 0.000000 0.000000 1.000000</matrix>
        <instance_geometry url="#file_cabinet_theta_large_body-lib">
          <bind_material>
            <technique_common>
              <instance_material symbol="file_cabinet_theta_large_body" target="#file_cabinet_theta_large_body"/>
            </technique_common>
          </bind_material>
        </instance_geometry>
        <extra>
          <technique profile="FCOLLADA">
            <visibility>1.000000</visibility>
          </technique>
        </extra>
      </node>
      <extra>
        <technique profile="MAX3D">
          <frame_rate>30.000000</frame_rate>
        </technique>
        <technique profile="FCOLLADA">
          <start_time>0.000000</start_time>
          <end_time>3.333333</end_time>
        </technique>
      </extra>
    </visual_scene>
  </library_visual_scenes>
  <scene>
    <instance_visual_scene url="#"></instance_visual_scene>
  </scene>
</COLLADA>

