<?xml version="1.0" encoding="utf-8" ?>
<COLLADA xmlns="http://www.collada.org/2005/11/COLLADASchema" version="1.4.1">
    <asset>
        <contributor>
            <authoring_tool>modo 701 [Build 68192], Microsoft Windows 7 Service Pack 1 (6.1.7601 Service Pack 1)</authoring_tool>
            <comments>
                Plug-in: [Build 68192];
                Use Absolute Path: No;
                Merge Reference Items: No;
                Save Hidden Items: No;
                Save Cameras: No;
                Save Lights: No;
                Save Locators: Yes;
                Save Triangles as Triangles: No;
                Order Vertex Maps Alphabetically: No;
                Bake Matrices: Yes;
                Save Vertex Normals: Yes;
                Save UV Texture Coordinates: Yes;
                Save Vertex Colors: Yes;
                Save Vertex Weights: Yes;
                Save Animation: No;
                Sample Animation: No;
                Sample Animation Start: 0;
                Sample Animation End: 1;
                Save modo Profile: No;
                Save Maya Profile: No;
                Save 3ds Max Profile: No;
                Formatted Arrays: Yes;
            </comments>
            <source_data>file:///D:/Work/Dropbox/Frictional%20Games%20-%20Team/Aaron/models/static_objects/station/roof/curtain_railing.lxo</source_data>
        </contributor>
        <created>2015-03-02T11:42:56Z</created>
        <modified>2015-03-02T11:42:56Z</modified>
        <unit name="game" meter="1" />
        <up_axis>Y_UP</up_axis>
    </asset>
    <library_images>
        <image id="Image0001" name="Image0001">
            <init_from>file:///D:/Work/Dropbox/Frictional%20Games%20-%20Team/Aaron/models/entities/urban/ornament_wall/drapes_waitroom/curtain_fabric.tga</init_from>
        </image>
        <image id="Image0002" name="Image0002">
            <init_from>file:///D:/Work/Dropbox/Frictional%20Games%20-%20Team/Aaron/models/entities/urban/ornament_wall/drapes_waitroom/drapes_waitroom_cloth_nrm.tga</init_from>
        </image>
        <image id="Image0003" name="Image0003">
            <init_from>file:///D:/Work/Dropbox/Frictional%20Games%20-%20Team/Aaron/models/static_objects/station/lab_set.psd</init_from>
        </image>
    </library_images>
    <library_materials>
        <material id="Material-fabric" name="fabric">
            <instance_effect url="#Effect-fabric" />
        </material>
        <material id="Material-lab_set" name="lab_set">
            <instance_effect url="#Effect-lab_set" />
        </material>
    </library_materials>
    <library_effects>
        <effect id="Effect-fabric" name="fabric">
            <profile_COMMON>
                <newparam sid="Image0001-surface">
                    <surface type="2D">
                        <init_from>Image0001</init_from>
                        <format>A8R8G8B8</format>
                    </surface>
                </newparam>
                <newparam sid="Image0001-sampler">
                    <sampler2D>
                        <source>Image0001-surface</source>
                        <minfilter>LINEAR_MIPMAP_LINEAR</minfilter>
                        <magfilter>LINEAR</magfilter>
                    </sampler2D>
                </newparam>
                <technique sid="common">
                    <phong>
                        <diffuse>
                            <texture texture="Image0001-sampler" texcoord="uvSet1" />
                        </diffuse>
                        <specular>
                            <color sid="specular_effect_rgb">0.2 0.2 0.2 1</color>
                        </specular>
                        <shininess>
                            <float sid="specular_effect_rgb">256</float>
                        </shininess>
                    </phong>
                </technique>
            </profile_COMMON>
        </effect>
        <effect id="Effect-lab_set" name="lab_set">
            <profile_COMMON>
                <newparam sid="Image0003-surface">
                    <surface type="2D">
                        <init_from>Image0003</init_from>
                        <format>A8R8G8B8</format>
                    </surface>
                </newparam>
                <newparam sid="Image0003-sampler">
                    <sampler2D>
                        <source>Image0003-surface</source>
                        <minfilter>LINEAR_MIPMAP_LINEAR</minfilter>
                        <magfilter>LINEAR</magfilter>
                    </sampler2D>
                </newparam>
                <technique sid="common">
                    <phong>
                        <diffuse>
                            <texture texture="Image0003-sampler" texcoord="uvSet1" />
                        </diffuse>
                        <specular>
                            <color sid="specular_effect_rgb">0.2 0.2 0.2 1</color>
                        </specular>
                        <shininess>
                            <float sid="specular_effect_rgb">256</float>
                        </shininess>
                    </phong>
                </technique>
            </profile_COMMON>
        </effect>
    </library_effects>
    <library_geometries>
        <geometry id="Geometry-mesh001" name="changeheight">
            <mesh>
                <source id="Geometry-mesh001-positions" name="positions">
                    <float_array id="Geometry-mesh001-positions-array" count="240">
                        0 -0.0351825 0
                        0 -0.0248779 -0.0248777
                        0 -2.98023e-008 -0.0351825
                        0 0.0248778 -0.0248777
                        0 0.0351825 0
                        0 0.0248778 0.0248778
                        0 -2.98023e-008 0.0351825
                        0 -0.0248779 0.0248778
                        0.933625 0.332209 0
                        0.928473 0.341133 -0.0248777
                        0.916034 0.362678 -0.0351825
                        0.903595 0.384223 -0.0248777
                        0.898443 0.393147 0
                        0.903595 0.384223 0.0248778
                        0.916034 0.362678 0.0351825
                        0.928473 0.341133 0.0248778
                        0.587215 0.132209 0
                        0.582063 0.141133 -0.0248777
                        0.403621 0.0408392 0
                        0.399872 0.0504377 -0.0248777
                        0.205359 -0.0160114 0
                        0.203451 -0.00588492 -0.0248777
                        0.569624 0.162678 -0.0351825
                        0.390822 0.073611 -0.0351825
                        0.198847 0.0185631 -0.0351825
                        0.557185 0.184223 -0.0248777
                        0.381771 0.0967842 -0.0248777
                        0.194242 0.043011 -0.0248777
                        0.552033 0.193147 0
                        0.378022 0.106383 0
                        0.192335 0.0531377 0
                        0.557185 0.184223 0.0248778
                        0.381771 0.0967842 0.0248778
                        0.194242 0.043011 0.0248778
                        0.569624 0.162678 0.0351825
                        0.390822 0.073611 0.0351825
                        0.198847 0.0185631 0.0351825
                        0.582063 0.141133 0.0248778
                        0.399872 0.0504377 0.0248778
                        0.203451 -0.00588492 0.0248778
                        1.62209 0.687273 -2.77556e-017
                        1.61963 0.697279 -0.0248777
                        1.44052 0.621914 -2.08167e-017
                        1.43604 0.631196 -0.0248777
                        1.2682 0.525373 -2.08167e-017
                        1.26304 0.534297 -0.0248777
                        1.61368 0.721435 -0.0351825
                        1.42524 0.653605 -0.0351825
                        1.2506 0.555842 -0.0351825
                        1.60772 0.745589 -0.0248777
                        1.41442 0.67601 -0.0248777
                        1.23817 0.577387 -0.0248777
                        1.60525 0.755594 -1.38778e-017
                        1.40994 0.68529 -1.38778e-017
                        1.23301 0.586311 -1.38778e-017
                        1.60772 0.745589 0.0248778
                        1.41442 0.67601 0.0248778
                        1.23817 0.577387 0.0248778
                        1.61368 0.721435 0.0351825
                        1.42524 0.653605 0.0351825
                        1.2506 0.555842 0.0351825
                        1.61963 0.697279 0.0248778
                        1.43604 0.631196 0.0248778
                        1.26304 0.534297 0.0248778
                        2 0.714827 0.000210215
                        2 0.725131 -0.0246675
                        2 0.750009 -0.0349723
                        2 0.774887 -0.0246675
                        2 0.785192 0.000210215
                        2 0.774887 0.025088
                        2 0.750009 0.0353927
                        2 0.725131 0.025088
                        1.81343 0.714294 0.000210215
                        1.81308 0.724593 -0.0246675
                        1.81224 0.749457 -0.0349723
                        1.8114 0.77432 -0.0246675
                        1.81105 0.784619 0.000210215
                        1.8114 0.77432 0.025088
                        1.81224 0.749457 0.0353927
                        1.81308 0.724593 0.025088
                    </float_array>
                    <technique_common>
                        <accessor count="80" source="#Geometry-mesh001-positions-array" stride="3">
                            <param name="X" type="float" />
                            <param name="Y" type="float" />
                            <param name="Z" type="float" />
                        </accessor>
                    </technique_common>
                </source>
                <source id="Geometry-mesh001-normals" name="normals">
                    <float_array id="Geometry-mesh001-normals-array" count="240">
                        0.288528 -0.742702 -0.604273
                        0.0494731 -0.127373 -0.99062
                        0.285696 -0.532089 -0.797031
                        -0.0648184 0.120661 -0.990575
                        -0.012666 -0.00238477 -0.999917
                        -0.218572 0.562223 -0.797579
                        -0.139716 0.692738 -0.707527
                        -0.0741832 0.794644 -0.602526
                        -0.185095 0.982721 -1.04688e-006
                        -0.0920838 0.986394 0.136192
                        0.01172 0.00471046 0.99992
                        0.00361403 0.00221202 0.999991
                        -0.247693 0.661772 0.707605
                        -0.332113 0.624443 0.706945
                        0.139717 -0.692738 0.707526
                        0.264158 -0.655383 0.707597
                        0.0126655 0.00238641 0.999917
                        0.0920838 -0.986394 -0.136192
                        0.185095 -0.982721 -1.03068e-006
                        0.0741834 -0.794646 0.602523
                        -0.0403342 0.0720863 -0.996583
                        0.264748 -0.608782 -0.747859
                        0.0289126 -0.0516196 -0.998248
                        0.394131 -0.69301 -0.603654
                        -0.414836 0.909896 -1.05138e-006
                        -0.30559 0.682048 -0.664398
                        -0.494138 0.869383 -1.05639e-006
                        -0.318964 0.562243 -0.762984
                        -0.30559 0.682047 0.664399
                        -0.298402 0.524951 0.797109
                        -0.0403336 0.0720853 0.996583
                        0.0676666 -0.118987 0.990587
                        0.264747 -0.60878 0.747861
                        0.394131 -0.69301 0.603654
                        0.440017 -0.897989 -1.06196e-006
                        0.494389 -0.869241 -1.04839e-006
                        -0.0850222 0.992971 0.0823362
                        -0.0571463 0.74545 -0.664107
                        -0.254206 0.965346 -0.0590451
                        -0.169544 0.685917 -0.707653
                        0.0402805 -0.64484 0.763255
                        0.145861 -0.691572 0.707426
                        0.071538 -0.997438 -8.88819e-007
                        0.273684 -0.96182 -6.41745e-006
                        -0.00301606 0.999995 -1.04834e-006
                        -0.00180454 0.603794 -0.797138
                        0.00228554 -0.797209 0.603699
                        0.00285189 -0.999996 -1.0645e-006
                        0.5 -0.866025 -1.04838e-006
                        0.332052 -0.57513 0.747641
                        0.473017 -0.881053 -1.05268e-006
                        0.303614 -0.570845 0.76286
                        -0.355881 0.675251 -0.646053
                        -0.482271 0.876022 -1.06485e-006
                        -0.353553 0.612372 -0.707107
                        -0.5 0.866025 -1.05644e-006
                        0.0412798 -0.0714987 -0.996586
                        -0.398587 0.690373 0.603749
                        0.12187 -0.6961 -0.707525
                        0.0562321 -0.602353 -0.796246
                        -0.373962 0.925561 -0.059065
                        -0.0562318 0.60235 0.796249
                        -0.12187 0.696098 0.707528
                        0.3438 -0.935409 0.0825319
                        -0.00785922 0.0588956 -0.998233
                        0.146852 -0.691401 -0.707389
                        -0.163787 0.744933 0.646721
                        -0.00873656 0.0587473 0.998235
                        0.0100162 0.000434379 -0.99995
                        0.00896483 0.000320456 0.99996
                        0.000393739 -0.13683 -0.990595
                        0.000393733 -0.136828 0.990595
                        0.353554 -0.612374 -0.707105
                        -0.0683867 0.118449 0.990602
                        -0.0127675 0.136764 -0.990521
                        0.0127671 -0.136761 0.990522
                        0.0408873 -0.644812 -0.763247
                        -0.0443492 0.705611 0.707211
                        0.00228554 -0.797209 -0.603698
                        -0.00180453 0.603792 0.79714
                    </float_array>
                    <technique_common>
                        <accessor count="80" source="#Geometry-mesh001-normals-array" stride="3">
                            <param name="X" type="float" />
                            <param name="Y" type="float" />
                            <param name="Z" type="float" />
                        </accessor>
                    </technique_common>
                </source>
                <source id="Geometry-mesh001-uvSet1" name="uvSet1">
                    <float_array id="Geometry-mesh001-uvSet1-array" count="162">
                        0.116348 0.67705
                        0.10916 0.67705
                        0.116348 0.772486
                        0.10916 0.772486
                        0.10916 0.581614
                        0.101973 0.67705
                        0.101973 0.581614
                        0.101973 0.486178
                        0.0947852 0.581614
                        0.0947852 0.486178
                        0.13791 0.67705
                        0.13791 0.772486
                        0.145098 0.67705
                        0.145098 0.772486
                        0.130723 0.581614
                        0.130723 0.67705
                        0.13791 0.581614
                        0.123535 0.486178
                        0.123535 0.581614
                        0.130723 0.486178
                        0.0947852 0.772486
                        0.101973 0.772486
                        0.0947852 0.67705
                        0.130723 0.772486
                        0.123535 0.772486
                        0.123535 0.67705
                        0.0947852 0.95994
                        0.101973 0.95994
                        0.0947852 0.867922
                        0.101973 0.867922
                        0.130723 0.95994
                        0.130723 0.867922
                        0.123535 0.95994
                        0.123535 0.867922
                        0.0947852 0.873782
                        0.0947859 0.963347
                        0.101973 0.873782
                        0.101974 0.963336
                        0.130723 0.873782
                        0.123535 0.873782
                        0.130733 0.963287
                        0.123536 0.963276
                        0.123535 0.963358
                        0.130723 0.963358
                        0.101973 0.963358
                        0.0947852 0.963358
                        0.10916 0.963358
                        0.145098 0.963358
                        0.152285 0.772486
                        0.152285 0.963358
                        0.116348 0.581614
                        0.116348 0.486178
                        0.145098 0.486178
                        0.145098 0.581614
                        0.152285 0.486178
                        0.152285 0.581614
                        0.10916 0.867922
                        0.116348 0.867922
                        0.145098 0.867922
                        0.13791 0.867922
                        0.10916 0.95994
                        0.13791 0.95994
                        0.10916 0.873782
                        0.10915 0.963311
                        0.13791 0.873782
                        0.13792 0.963311
                        0.13791 0.963358
                        0.13791 0.486178
                        0.152285 0.67705
                        0.10916 0.486178
                        0.116348 0.95994
                        0.145098 0.95994
                        0.116348 0.873782
                        0.116337 0.963287
                        0.145098 0.873782
                        0.145097 0.963336
                        0.152285 0.867922
                        0.152285 0.95994
                        0.152285 0.873782
                        0.152284 0.963347
                        0.116348 0.963358
                    </float_array>
                    <technique_common>
                        <accessor count="81" source="#Geometry-mesh001-uvSet1-array" stride="2">
                            <param name="S" type="float" />
                            <param name="T" type="float" />
                        </accessor>
                    </technique_common>
                </source>
                <source id="Geometry-mesh001-UV_Distortion" name="UV_Distortion">
                    <float_array id="Geometry-mesh001-UV_Distortion-array" count="381">
                        0.506454 0.544066 0.497432
                        0.502243 0.548708 0.501676
                        0.501662 0.548693 0.502257
                        0.495819 0.542302 0.508054
                        0.49658 0.543135 0.507299
                        0.494136 0.540461 0.509724
                        0.501784 0.548827 0.502136
                        0.4975 0.54414 0.506387
                        0.507395 0.543029 0.496484
                        0.501663 0.548694 0.502257
                        0.510525 0.539579 0.493329
                        0.508167 0.542178 0.495706
                        0.502719 0.548183 0.501196
                        0.50078 0.547728 0.503132
                        0.506281 0.544258 0.497607
                        0.505401 0.545227 0.498494
                        0.505011 0.545657 0.498886
                        0.503095 0.547769 0.500818
                        0.500728 0.547671 0.503184
                        0.499825 0.546684 0.50408
                        0.52176 0.527193 0.482005
                        0.519126 0.530097 0.48466
                        0.505995 0.544573 0.497895
                        0.503282 0.547563 0.500629
                        0.5046 0.54611 0.499301
                        0.504149 0.546608 0.499756
                        0.502064 0.548906 0.501857
                        0.501322 0.548321 0.502594
                        0.502946 0.547934 0.500968
                        0.502946 0.547934 0.500968
                        0.502946 0.547933 0.500968
                        0.502946 0.547933 0.500968
                        0.502946 0.547933 0.500967
                        0.502946 0.547933 0.500968
                        0.502947 0.547933 0.500967
                        0.502947 0.547933 0.500967
                        0.508167 0.542178 0.495706
                        0.501785 0.548827 0.502136
                        0.4975 0.544141 0.506387
                        0.49658 0.543135 0.507299
                        0.496581 0.543135 0.507299
                        0.494137 0.540462 0.509724
                        0.506454 0.544066 0.497432
                        0.502243 0.548708 0.501676
                        0.510525 0.539579 0.493329
                        0.508167 0.542178 0.495706
                        0.502144 0.548817 0.501776
                        0.49563 0.542095 0.508242
                        0.512107 0.537835 0.491734
                        0.509486 0.540724 0.494376
                        0.508523 0.541786 0.495347
                        0.502137 0.548825 0.501783
                        0.496578 0.543132 0.507302
                        0.493852 0.540151 0.510006
                        0.518186 0.531134 0.485608
                        0.511569 0.538427 0.492277
                        0.511701 0.538283 0.492144
                        0.50499 0.545681 0.498908
                        0.504079 0.546685 0.499826
                        0.503537 0.547282 0.500372
                        0.50303 0.547841 0.500884
                        0.502074 0.548894 0.501846
                        0.494284 0.540623 0.509578
                        0.494283 0.540623 0.509578
                        0.502946 0.547933 0.500968
                        0.502946 0.547934 0.500968
                        0.494285 0.540624 0.509577
                        0.494285 0.540624 0.509577
                        0.494285 0.540624 0.509577
                        0.494284 0.540623 0.509577
                        0.501663 0.548694 0.502257
                        0.49775 0.544414 0.506139
                        0.495848 0.542334 0.508025
                        0.496581 0.543135 0.507299
                        0.501662 0.548692 0.502258
                        0.495819 0.542302 0.508055
                        0.509089 0.541162 0.494777
                        0.507244 0.543195 0.496636
                        0.499825 0.546684 0.50408
                        0.505012 0.545657 0.498886
                        0.503095 0.547769 0.500817
                        0.506281 0.544257 0.497606
                        0.505401 0.545227 0.498493
                        0.502719 0.548183 0.501196
                        0.511682 0.538304 0.492164
                        0.50501 0.545658 0.498888
                        0.518166 0.531155 0.485628
                        0.511589 0.538406 0.492256
                        0.50303 0.547841 0.500884
                        0.502105 0.54886 0.501815
                        0.504078 0.546685 0.499826
                        0.503504 0.547318 0.500405
                        0.494284 0.540623 0.509577
                        0.494284 0.540623 0.509578
                        0.494283 0.540623 0.509578
                        0.494284 0.540623 0.509578
                        0.494284 0.540623 0.509578
                        0.494285 0.540624 0.509577
                        0.494285 0.540624 0.509577
                        0.509089 0.541162 0.494777
                        0.507244 0.543195 0.496636
                        0.501663 0.548694 0.502257
                        0.495819 0.542302 0.508054
                        0.497751 0.544415 0.506138
                        0.495849 0.542335 0.508025
                        0.495819 0.542302 0.508055
                        0.507395 0.543029 0.496484
                        0.496578 0.543132 0.507302
                        0.493852 0.540151 0.510006
                        0.508523 0.541785 0.495347
                        0.502137 0.548825 0.501783
                        0.512108 0.537834 0.491734
                        0.509487 0.540723 0.494376
                        0.49563 0.542095 0.508242
                        0.506015 0.54455 0.497874
                        0.503263 0.547585 0.500649
                        0.521778 0.527174 0.481988
                        0.519111 0.530114 0.484676
                        0.502064 0.548906 0.501857
                        0.501247 0.548239 0.502669
                        0.504601 0.546109 0.4993
                        0.504181 0.546572 0.499723
                        0.502947 0.547932 0.500967
                        0.494284 0.540623 0.509578
                        0.494283 0.540623 0.509578
                        0.502946 0.547934 0.500968
                        0.502946 0.547934 0.500968
                    </float_array>
                    <technique_common>
                        <accessor count="127" source="#Geometry-mesh001-UV_Distortion-array" stride="3">
                            <param name="R" type="float" />
                            <param name="G" type="float" />
                            <param name="B" type="float" />
                        </accessor>
                    </technique_common>
                </source>
                <vertices id="Geometry-mesh001-vertices">
                    <input semantic="POSITION" source="#Geometry-mesh001-positions" />
                </vertices>
                <polylist count="144" material="Material-lab_set">
                    <input semantic="VERTEX" source="#Geometry-mesh001-vertices" offset="0" />
                    <input semantic="NORMAL" source="#Geometry-mesh001-normals" offset="1" />
                    <input semantic="TEXCOORD" source="#Geometry-mesh001-uvSet1" offset="2" set="0" />
                    <input semantic="COLOR" source="#Geometry-mesh001-UV_Distortion" offset="3" set="0" />
                    <vcount>3 3 3 3 3 3 3 3 3 3 3 3 3 3 3 3 3 3 3 3 3 3 3 3 3 3 3 3 3 3 3 3 3 3 3 3 3 3 3 3 3 3 3 3 3 3 3 3 3 3 3 3 3 3 3 3 3 3 3 3 3 3 3 3 3 3 3 3 3 3 3 3 3 3 3 3 3 3 3 3 3 3 3 3 3 3 3 3 3 3 3 3 3 3 3 3 3 3 3 3 3 3 3 3 3 3 3 3 3 3 3 3 3 3 3 3 3 3 3 3 3 3 3 3 3 3 3 3 3 3 3 3 3 3 3 3 3 3 3 3 3 3 3 3</vcount>
                    <p>19 0 0 0 23 1 1 0 17 2 2 0 22 3 3 1 17 2 2 1 23 1 1 1 23 1 1 2 24 4 4 2 26 5 5 2 27 6 6 3 26 5 5 3 24 4 4 3 27 6 6 4 3 7 7 4 30 8 8 4 4 9 9 5 30 8 8 5 3 7 7 5 35 10 10 6 34 11 11 6 32 12 12 6 31 13 13 7 32 12 12 7 34 11 11 7 39 14 14 8 38 15 15 8 36 16 16 8 35 10 10 9 36 16 16 9 38 15 15 9 0 17 17 10 20 18 18 10 7 19 19 10 39 14 14 11 7 19 19 11 20 18 18 11 47 20 3 12 43 21 2 12 48 22 1 12 45 23 0 13 48 22 1 13 43 21 2 13 53 24 20 14 50 25 21 14 54 26 22 14 51 27 5 15 54 26 22 15 50 25 21 15 56 28 13 16 57 29 12 16 59 30 11 16 60 31 10 17 59 30 11 17 57 29 12 17 62 32 23 18 63 33 15 18 42 34 24 18 44 35 25 19 42 34 24 19 63 33 15 19 76 36 26 20 75 37 27 20 52 38 28 20 49 39 29 21 52 38 28 21 75 37 27 21 79 40 30 22 61 41 31 22 72 42 32 22 40 43 33 23 72 42 32 23 61 41 31 23 76 36 34 24 68 44 35 24 75 37 36 24 67 45 37 25 75 37 36 25 68 44 35 25 79 40 38 26 72 42 39 26 71 46 40 26 64 47 41 27 71 46 40 27 72 42 39 27 8 48 42 28 15 49 43 28 16 50 24 28 37 51 23 29 16 50 24 28 15 49 43 28 25 52 21 30 28 53 20 30 11 54 44 30 12 55 45 31 11 54 44 31 28 53 20 31 10 56 46 32 22 3 3 32 11 54 44 32 25 52 21 30 11 54 44 30 22 3 3 33 31 13 13 34 13 57 47 34 28 53 48 34 12 55 49 35 28 53 48 35 13 57 47 35 20 18 18 10 0 17 17 10 21 58 50 10 1 59 51 36 21 58 50 36 0 17 17 36 23 1 1 37 26 5 5 37 22 3 3 37 25 52 21 38 22 3 3 38 26 5 5 38 26 5 5 39 27 6 6 39 29 60 22 39 30 8 8 5 29 60 22 5 27 6 6 5 5 61 52 40 33 62 53 40 4 9 54 40 30 8 55 41 4 9 54 41 33 62 53 41 38 15 15 42 37 51 23 42 35 10 10 42 34 11 11 43 35 10 10 43 37 51 23 43 20 18 18 10 18 63 25 44 39 14 14 44 38 15 15 45 39 14 14 45 18 63 25 45 47 20 3 46 46 64 56 46 43 21 2 46 41 65 57 47 43 21 2 47 46 64 56 47 53 24 20 48 52 38 28 48 50 25 21 48 49 39 29 49 50 25 21 49 52 38 28 49 55 66 58 50 56 28 13 50 58 67 59 50 59 30 11 51 58 67 59 51 56 28 13 51 61 41 31 52 62 32 23 52 40 43 33 52 42 34 24 53 40 43 33 53 62 32 23 53 49 39 29 54 75 37 27 54 46 64 56 54 74 68 60 55 46 64 56 55 75 37 27 55 58 67 59 56 61 41 31 56 78 69 61 56 79 40 30 57 78 69 61 57 61 41 31 57 75 37 36 58 67 45 37 58 74 68 62 58 66 70 63 59 74 68 62 59 67 45 37 59 78 69 64 60 79 40 38 60 70 71 65 60 71 46 40 61 70 71 65 61 79 40 38 61 44 35 25 62 8 48 17 62 45 23 0 62 9 72 51 63 45 23 0 63 8 48 17 63 13 57 47 64 31 13 13 64 14 73 66 64 34 11 11 65 14 73 66 65 31 13 13 65 14 73 67 66 15 49 19 66 60 31 10 66 63 33 15 67 60 31 10 67 15 49 19 67 57 29 12 68 54 26 68 68 13 57 52 68 12 55 54 69 13 57 52 69 54 26 68 69 18 63 25 44 20 18 18 10 19 0 0 44 21 58 50 36 19 0 0 36 20 18 18 36 21 58 50 8 1 59 51 8 24 4 4 8 2 74 69 70 24 4 4 70 1 59 51 70 26 5 5 71 29 60 22 71 25 52 21 71 28 53 20 72 25 52 21 72 29 60 22 72 33 62 53 40 32 12 12 73 30 8 55 73 29 60 68 41 30 8 55 41 32 12 12 41 6 75 67 74 36 16 16 74 5 61 52 74 33 62 53 75 5 61 52 75 36 16 16 75 18 63 25 76 16 50 24 76 38 15 15 76 37 51 23 77 38 15 15 77 16 50 24 77 43 21 2 18 42 34 24 18 45 23 0 18 44 35 25 19 45 23 0 78 42 34 24 78 50 25 21 79 47 20 3 79 51 27 5 79 48 22 1 80 51 27 5 80 47 20 3 80 53 24 48 81 54 26 68 81 56 28 13 81 57 29 12 82 56 28 13 82 54 26 68 82 59 30 11 83 60 31 10 83 62 32 23 83 63 33 15 13 62 32 23 13 60 31 10 13 46 64 56 84 74 68 60 84 41 65 57 84 73 76 70 85 41 65 57 85 74 68 60 85 55 66 58 86 58 67 59 86 77 77 71 86 78 69 61 87 77 77 71 87 58 67 59 87 74 68 62 88 66 70 63 88 73 76 72 88 65 78 73 89 73 76 72 89 66 70 63 89 77 77 74 90 78 69 64 90 69 79 75 90 70 71 65 91 69 79 75 91 78 69 64 91 10 56 69 92 11 54 7 92 48 22 1 92 51 27 5 93 48 22 1 93 11 54 7 93 44 35 25 62 63 33 15 62 8 48 17 62 15 49 19 94 8 48 17 94 63 33 15 94 51 27 5 95 11 54 7 95 54 26 22 95 12 55 9 96 54 26 22 96 11 54 7 96 10 56 69 97 48 22 1 97 9 72 51 97 45 23 0 98 9 72 51 98 48 22 1 98 18 63 25 99 19 0 0 99 16 50 24 99 17 2 2 100 16 50 24 100 19 0 0 100 19 0 0 8 21 58 50 8 23 1 1 8 24 4 4 101 23 1 1 101 21 58 50 101 24 4 4 2 2 74 69 2 27 6 6 2 3 7 7 102 27 6 6 3 2 74 69 102 32 12 12 103 31 13 13 103 29 60 68 103 28 53 48 104 29 60 68 104 31 13 13 104 36 16 16 74 35 10 10 74 33 62 53 74 32 12 12 105 33 62 53 105 35 10 10 105 7 19 19 106 39 14 14 8 6 75 67 106 36 16 16 70 6 75 67 70 39 14 14 70 41 65 57 107 40 43 33 107 43 21 2 107 42 34 24 108 43 21 2 108 40 43 33 108 49 39 29 109 46 64 56 109 50 25 21 109 47 20 3 110 50 25 21 110 46 64 56 110 53 24 48 111 56 28 13 111 52 38 76 111 55 66 58 112 52 38 76 112 56 28 13 112 59 30 11 46 62 32 23 46 58 67 59 46 61 41 31 113 58 67 59 113 62 32 23 113 73 76 70 114 72 42 32 114 41 65 57 114 40 43 33 115 41 65 57 115 72 42 32 115 52 38 76 116 55 66 58 116 76 36 77 116 77 77 71 117 76 36 77 117 55 66 58 117 73 76 72 118 65 78 73 118 72 42 39 118 64 47 41 119 72 42 39 119 65 78 73 119 76 36 78 120 77 77 74 120 68 44 79 120 69 79 75 121 68 44 79 121 77 77 74 121 37 51 23 122 15 49 43 122 34 11 11 122 14 73 66 122 34 11 11 122 15 49 43 122 13 57 52 123 14 73 67 123 57 29 12 123 60 31 10 124 57 29 12 124 14 73 67 124 9 72 80 122 17 2 2 122 10 56 46 122 22 3 3 122 10 56 46 122 17 2 2 122 8 48 42 28 16 50 24 28 9 72 80 125 17 2 2 126 9 72 80 126 16 50 24 28</p>
                </polylist>
            </mesh>
        </geometry>
    </library_geometries>
    <library_visual_scenes>
        <visual_scene id="DefaultScene">
            <node id="groupLocator034Node" name="railing" type="NODE">
                <matrix sid="transform">
        1 0 0 0
        0 1 0 0
        0 0 1 0
        0 0 0 1
    </matrix>
                <node id="Geometry-mesh001Node" name="changeheight" type="NODE">
                    <matrix sid="transform">
        1 0 0 0
        0 1 0 0
        0 0 1 0
        0 0 0 1
    </matrix>
                    <instance_geometry url="#Geometry-mesh001">
                        <bind_material>
                            <technique_common>
                                <instance_material symbol="Material-lab_set" target="#Material-lab_set">
                                    <bind_vertex_input semantic="uvSet1" input_semantic="TEXCOORD" input_set="0" />
                                </instance_material>
                            </technique_common>
                        </bind_material>
                    </instance_geometry>
                </node>
            </node>
        </visual_scene>
    </library_visual_scenes>
    <scene>
        <instance_visual_scene url="#DefaultScene" />
    </scene>
</COLLADA>
