<?xml version="1.0" encoding="utf-8" ?>
<COLLADA xmlns="http://www.collada.org/2005/11/COLLADASchema" version="1.4.1">
    <asset>
        <contributor>
            <authoring_tool>modo 701 [Build 68192], Microsoft Windows 7 Service Pack 1 (6.1.7601 Service Pack 1)</authoring_tool>
            <comments>Plug-in: [Build 68192]; Use Absolute Path: No; Merge Reference Items: No; Save Hidden Items: No; Save Cameras: No; Save Lights: No; Save Locators: Yes; Save Triangles as Triangles: Yes; Order Vertex Maps Alphabetically: Yes; Bake Matrices: Yes; Save Vertex Normals: Yes; Save UV Texture Coordinates: Yes; Save Vertex Colors: Yes; Save Vertex Weights: Yes; Save Animation: No; Sample Animation: Yes; Sample Animation Start: 0; Sample Animation End: 1; Save modo Profile: No; Save Maya Profile: No; Save 3ds Max Profile: No; Formatted Arrays: No;</comments>
            <source_data>file:///D:/Work/Dropbox/Frictional%20Games%20-%20Team/Aaron/models/static_objects/station/roof/curtain_railing.lxo</source_data>
        </contributor>
        <created>2014-12-10T14:24:17Z</created>
        <modified>2014-12-10T14:24:17Z</modified>
        <unit name="game" meter="1" />
        <up_axis>Y_UP</up_axis>
    </asset>
    <library_images>
        <image id="Image0001" name="Image0001">
            <init_from>file:///D:/Work/Dropbox/Frictional%20Games%20-%20Team/Aaron/models/entities/urban/ornament_wall/drapes_waitroom/curtain_fabric.tga</init_from>
        </image>
        <image id="Image0002" name="Image0002">
            <init_from>file:///D:/Work/Dropbox/Frictional%20Games%20-%20Team/Aaron/models/entities/urban/ornament_wall/drapes_waitroom/drapes_waitroom_cloth_nrm.tga</init_from>
        </image>
        <image id="Image0003" name="Image0003">
            <init_from>file:///D:/Work/Dropbox/Frictional%20Games%20-%20Team/Aaron/models/static_objects/station/lab_set.psd</init_from>
        </image>
    </library_images>
    <library_materials>
        <material id="Material-fabric" name="fabric">
            <instance_effect url="#Effect-fabric" />
        </material>
        <material id="Material-lab_set" name="lab_set">
            <instance_effect url="#Effect-lab_set" />
        </material>
    </library_materials>
    <library_effects>
        <effect id="Effect-fabric" name="fabric">
            <profile_COMMON>
                <newparam sid="Image0001-surface">
                    <surface type="2D">
                        <init_from>Image0001</init_from>
                        <format>A8R8G8B8</format>
                    </surface>
                </newparam>
                <newparam sid="Image0001-sampler">
                    <sampler2D>
                        <source>Image0001-surface</source>
                        <minfilter>LINEAR_MIPMAP_LINEAR</minfilter>
                        <magfilter>LINEAR</magfilter>
                    </sampler2D>
                </newparam>
                <technique sid="common">
                    <phong>
                        <diffuse>
                            <texture texture="Image0001-sampler" texcoord="uvSet1" />
                        </diffuse>
                        <specular>
                            <color sid="specular_effect_rgb">0.2 0.2 0.2 1</color>
                        </specular>
                        <shininess>
                            <float sid="specular_effect_rgb">256</float>
                        </shininess>
                    </phong>
                </technique>
            </profile_COMMON>
        </effect>
        <effect id="Effect-lab_set" name="lab_set">
            <profile_COMMON>
                <newparam sid="Image0003-surface">
                    <surface type="2D">
                        <init_from>Image0003</init_from>
                        <format>A8R8G8B8</format>
                    </surface>
                </newparam>
                <newparam sid="Image0003-sampler">
                    <sampler2D>
                        <source>Image0003-surface</source>
                        <minfilter>LINEAR_MIPMAP_LINEAR</minfilter>
                        <magfilter>LINEAR</magfilter>
                    </sampler2D>
                </newparam>
                <technique sid="common">
                    <phong>
                        <diffuse>
                            <texture texture="Image0003-sampler" texcoord="uvSet1" />
                        </diffuse>
                        <specular>
                            <color sid="specular_effect_rgb">0.2 0.2 0.2 1</color>
                        </specular>
                        <shininess>
                            <float sid="specular_effect_rgb">256</float>
                        </shininess>
                    </phong>
                </technique>
            </profile_COMMON>
        </effect>
    </library_effects>
    <library_geometries>
        <geometry id="Geometry-mesh042" name="open01">
            <mesh>
                <source id="Geometry-mesh042-positions" name="positions">
                    <float_array id="Geometry-mesh042-positions-array" count="546">-0.996903 -4.5 0.0496505 0.996683 -4.5 0.0494265 -1.0031 -4.5 0.0431229 1.00332 -4.5 0.0433469 -0.993093 -4.48314 0.0536651 -1.00691 -4.48314 0.0391084 1.0074 -4.48314 0.0396079 0.992602 -4.48314 0.0531655 -0.996903 -4.46637 0.0496505 -1.0031 -4.46637 0.0431229 1.00332 -4.46637 0.0433469 0.996683 -4.46637 0.0494265 -1 -1.29512 0.00401123 -1 -1.29512 -0.00498779 1 -1.29512 -0.00498779 1 -1.29512 0.00401123 0.585619 -4.5 -0.0365034 0.375658 -4.5 -0.0365034 0.376341 -4.5 -0.0455024 0.585915 -4.5 -0.0455024 0.212967 -4.5 0.0210884 0.0825471 -4.5 0.01934 0.0827934 -4.5 0.010341 0.213314 -4.5 0.0120893 -0.0669784 -4.50124 -0.0425675 -0.179659 -4.5025 -0.0425675 -0.17875 -4.50248 -0.0515665 -0.066125 -4.50123 -0.0515665 -0.434983 -4.50364 0.01934 -0.607537 -4.50364 0.0210884 -0.607046 -4.50363 0.0120893 -0.434408 -4.50363 0.010341 -0.701922 -4.50252 -0.0365034 -0.793011 -4.50125 -0.0365034 -0.79239 -4.50124 -0.0455024 -0.700738 -4.5025 -0.0455024 0.584651 -4.48314 -0.030969 0.370675 -4.48314 -0.030969 0.206531 -4.48314 0.0266228 0.0797695 -4.48315 0.0248744 -0.0680611 -4.4844 -0.0370331 -0.180831 -4.48568 -0.0370331 -0.442796 -4.48691 0.0248744 -0.614039 -4.48691 0.0266228 -0.703509 -4.4857 -0.030969 -0.793835 -4.48441 -0.030969 0.372766 -4.48314 -0.0510368 0.585314 -4.48314 -0.0510368 0.0805296 -4.48315 0.00480656 0.208026 -4.48314 0.00655494 -0.178781 -4.48562 -0.0571009 -0.0661616 -4.48437 -0.0571009 -0.612176 -4.48687 0.00655494 -0.440556 -4.48687 0.00480656 -0.792446 -4.48438 -0.0510368 -0.700834 -4.48564 -0.0510368 0.584462 -4.46637 -0.0365034 0.36584 -4.46637 -0.0365034 0.199342 -4.46637 0.0210884 0.0768785 -4.46638 0.01934 -0.0678107 -4.46762 -0.0425675 -0.180543 -4.46889 -0.0425675 -0.451614 -4.47027 0.01934 -0.621217 -4.47027 0.0210884 -0.703164 -4.46892 -0.0365034 -0.793663 -4.46763 -0.0365034 0.368727 -4.46637 -0.0455024 0.584761 -4.46637 -0.0455024 0.0782724 -4.46638 0.010341 0.202744 -4.46637 0.0120893 -0.179618 -4.46887 -0.0515665 -0.0669597 -4.46761 -0.0515665 -0.617551 -4.4702 0.0120893 -0.447084 -4.4702 0.010341 -0.793039 -4.46762 -0.0455024 -0.701957 -4.46889 -0.0455024 0.592046 -1.29512 0.00401123 0.359573 -1.29512 0.00401123 0.204427 -1.29512 0.00401123 0.0663827 -1.29522 0.00401123 -0.0676343 -1.29642 0.00401123 -0.191608 -1.29782 0.00401123 -0.440641 -1.29902 0.00401123 -0.626302 -1.29902 0.00401123 -0.706651 -1.29782 0.00401123 -0.800619 -1.29642 0.00401123 0.0677559 -1.29522 -0.00498779 0.20807 -1.29512 -0.00498779 -0.622646 -1.29895 -0.00498779 -0.436112 -1.29895 -0.00498779 -0.800573 -1.29642 -0.00498779 -0.706552 -1.29782 -0.00498779 0.206958 -1.29512 -0.00498779 0.0664572 -1.29523 -0.00498779 -0.191536 -1.29782 -0.00498779 0.362132 -1.29512 -0.00498779 -0.0675784 -1.29642 -0.00498779 0.592126 -1.29512 -0.00498779 -1 -1 0.046875 1 -1 0.046875 1 -1 -0.0478516 -1 -1 -0.0478516 -1 -1.0619 0.0295833 -1 -1.0619 -0.0305598 1 -1.0619 -0.0305598 1 -1.0619 0.0295833 -1 -1.09267 0.0106257 -1 -1.09267 -0.0116023 1 -1.09267 -0.0116023 1 -1.09267 0.0106257 -1 -1.04405 0.0386788 -1 -1.02279 0.046875 -1 -1.02279 -0.0478516 -1 -1.04405 -0.0396554 1 -1.04405 -0.0396554 1 -1.02279 -0.0478516 1 -1.02279 0.046875 1 -1.04405 0.0386788 -1 -1.12821 0.00401123 -1 -1.12821 -0.00498779 1 -1.12821 -0.00498779 1 -1.12821 0.00401123 -0.709143 -1 -0.0478516 -0.713991 -1.02279 -0.0478516 -0.729255 -1.09267 0.0106257 -0.722891 -1.0619 0.0295833 -0.718723 -1.04405 -0.0396554 -0.72266 -1.0619 -0.0305598 -0.719009 -1.04405 0.0386788 -0.70945 -1 0.046875 -0.714316 -1.02279 0.046875 -0.729162 -1.09267 -0.0116023 -0.735871 -1.12821 0.00401123 -0.735999 -1.12917 -0.00498779 -0.0778476 -1 -0.0478516 -0.082019 -1.02279 -0.0478516 -0.0991356 -1.09267 0.0106257 -0.0912293 -1.0619 0.0295833 -0.0860267 -1.04405 -0.0396554 -0.0909318 -1.0619 -0.0305598 -0.0990218 -1.09267 -0.0116023 -0.0862661 -1.04405 0.0386788 -0.0781135 -1 0.046875 -0.0822965 -1.02279 0.046875 -0.4576 -1 -0.0478516 -0.463208 -1.02279 -0.0478516 -0.481858 -1.09267 0.0106257 -0.473847 -1.0619 0.0295833 -0.4688 -1.04405 -0.0396554 -0.473564 -1.0619 -0.0305598 -0.481737 -1.09267 -0.0116023 -0.469141 -1.04405 0.0386788 -0.457952 -1 0.046875 -0.463588 -1.02279 0.046875 -0.490768 -1.12821 0.00401123 -0.491159 -1.13001 -0.00498779 -0.107211 -1.1303 -0.00498779 -0.106844 -1.12821 0.00401123 0.199762 -1 -0.0478516 0.19376 -1.02279 -0.0478516 0.174205 -1.09267 0.0106257 0.182501 -1.0619 0.0295833 0.187818 -1.04405 -0.0396554 0.182802 -1.0619 -0.0305598 0.174331 -1.09267 -0.0116023 0.187452 -1.04405 0.0386788 0.199379 -1 0.046875 0.193349 -1.02279 0.046875 0.165014 -1.12944 -0.00498779 0.165255 -1.12821 0.00401123 0.532331 -1.02279 -0.0478516 0.538346 -1 -0.0478516 0.512715 -1.09267 0.0106257 0.521042 -1.0619 0.0295833 0.521343 -1.0619 -0.0305598 0.526374 -1.04405 -0.0396554 0.512842 -1.09267 -0.0116023 0.526007 -1.04405 0.0386788 0.537962 -1 0.046875 0.531919 -1.02279 0.046875 0.503552 -1.12915 -0.00498779 0.503724 -1.12821 0.00401123</float_array>
                    <technique_common>
                        <accessor count="182" source="#Geometry-mesh042-positions-array" stride="3">
                            <param name="X" type="float" />
                            <param name="Y" type="float" />
                            <param name="Z" type="float" />
                        </accessor>
                    </technique_common>
                </source>
                <source id="Geometry-mesh042-normals" name="normals">
                    <float_array id="Geometry-mesh042-normals-array" count="543">0.0470148 -0.0045438 0.998884 -0.0341104 -0.00175068 0.999417 0 -0.0918873 0.995769 -9.37139e-006 0.00193347 0.999998 -0.00285589 0.00312524 0.999991 0 -0.0787537 0.996894 8.05432e-005 -0.00881217 0.999961 -0.0796591 -0.00472836 0.996811 0 -0.0688972 0.997624 -0.0825618 0.000137875 0.996586 0.0372471 -0.000988673 0.999306 -0.000112651 -0.00766533 0.999971 0.0657486 -0.00156593 0.997835 0.000108337 0.00766541 -0.999971 -0.0654813 0.00142461 -0.997853 -0.000183573 -0.0773894 -0.997001 0.0808222 -0.000146309 -0.996729 -0.000124844 -0.088186 -0.996104 -0.0377269 0.000990949 -0.999288 0.0347123 0.00159638 -0.999396 -0.047147 0.00453828 -0.998878 8.19258e-005 -0.0893711 -0.995998 6.00735e-005 -0.0746726 -0.997208 0.066052 0.00395102 -0.997808 -7.96569e-005 0.00881222 -0.999961 0.675591 2.89447e-009 0.737277 0.807394 0.00290757 0.590005 0.67559 3.076e-009 0.737277 0.675582 0.00492636 0.737268 -0.130385 -0.296553 0.946074 -0.0810364 -0.0677498 0.994406 0.110304 -0.280415 0.95352 0.169284 0.0538206 0.984097 0.169466 0.172824 0.970265 -0.23721 0.119052 0.964136 -0.173062 0.12336 0.977155 0.100143 0.176798 0.979139 -0.166004 0.0410373 0.985271 -0.189853 -0.326823 0.92582 0.1594 0.0511909 0.985886 0.216324 -0.237789 0.946922 -0.110429 -0.310187 -0.94424 -0.0993384 -0.0577098 -0.993379 0.192318 -0.294344 -0.936149 0.198793 0.00542862 -0.980026 7.30295e-006 -1 2.81433e-007 1.60676e-005 -1 -1.71412e-005 0.0042061 -0.999991 -0.00015131 0.00412787 -0.999991 5.99917e-005 0.286876 0.0251778 -0.957637 -0.196541 0.106195 -0.974728 0.195384 0.165879 -0.966597 -0.155614 0.129553 -0.979286 0 -1 0 -0.649187 -0.446129 0.616056 -0.328699 -0.892701 0.308289 -0.00833678 -0.999965 -8.34926e-006 -0.0114678 -0.99993 -0.0028977 0.0783601 -0.306482 0.948645 0.140835 -0.0411725 0.989177 0.15503 -0.271418 0.949894 0.119078 0.0347038 0.992278 -0.160915 -0.044923 -0.985945 -0.167308 -0.0350855 -0.98528 -0.203763 -0.352994 -0.913168 -0.104999 -0.3302 -0.938053 -0.19161 -0.307508 -0.932054 -0.386106 -0.100467 -0.916967 -0.372071 -0.293742 -0.880499 0.0772853 0.179996 0.980627 0.0927567 0.190812 0.977234 -0.198092 0.156719 -0.967574 -0.088879 0.12144 -0.988612 -0.289679 0.146078 -0.945911 -4.9487e-005 -0.00758474 -0.999971 7.2127e-007 -0.00269246 -0.999996 -1 0 0 -0.707107 0.707107 0 -0.969548 0.00361956 0.244874 -1 0.00032556 0 0 0 -1 0 -0.121764 -0.992559 0 -0.182997 -0.983113 0 -0.391666 -0.920107 0 -0.40744 -0.913232 0 0 1 0 -0.121764 0.992559 0 -0.182997 0.983113 2.58325e-005 -0.357226 -0.934018 0 -0.489631 -0.87193 5.71969e-005 -0.358387 -0.933573 0 -0.40744 0.913232 0 1 0 0 -0.489631 0.87193 0 -0.359814 0.933024 0 -0.182997 -0.983113 0 -0.489631 0.87193 0 -0.243528 -0.969894 0 -0.501344 0.865248 0 -0.423093 0.906086 -0.000225373 -0.299825 -0.953994 0 -0.501344 -0.865248 -0.000104155 -0.356967 -0.934117 0 -0.489631 -0.87193 7.05679e-005 -0.052916 -0.998599 0.00281039 -0.0031244 -0.999991 0 -0.416904 0.908951 -0.725375 -1.16319e-009 0.688353 -0.725371 0.00306473 0.688352 -0.725374 -4.48759e-009 0.688355 -0.87185 0.00361846 0.489759 -0.197771 -0.017124 0.980099 -0.159935 0.116789 0.980194 -0.347319 0.136446 0.927767 0.231981 0.0658846 -0.970486 0.135362 -0.291928 -0.946813 0.275529 0.06149 -0.959324 -0.120322 -0.0304165 -0.992269 0.172926 -0.260884 -0.949756 -0.14884 -0.334063 -0.930725 -0.0862704 0.167641 0.982066 0.192287 0.222478 0.955787 -0.274298 -0.0680294 0.959235 -0.155976 -0.364028 0.918235 0.302133 -0.894427 0.32972 0.604266 -0.447214 0.65944 -0.0117171 -0.999922 -0.00424439 -0.00514128 -0.999985 -0.00189722 -0.0120752 -0.999922 -0.00310774 -0.0054453 -0.999984 -0.00130358 -0.182042 -0.317512 0.930616 0.0998264 -0.30713 -0.946417 0.120414 -0.0444024 -0.99173 0.200787 -0.278984 -0.93907 0.209968 0.000628116 -0.977708 0.358865 -0.240681 -0.901825 0.0685963 0.165577 -0.983808 0.154206 0.144552 -0.977407 0.336153 0.214902 -0.916961 -0.0806161 0.142007 -0.986577 -0.113668 0.146248 -0.982696 1 0 0 0 -0.477828 -0.878453 0 -0.416904 -0.908951 0 -0.391666 0.920107 0 -0.182997 0.983113 0 -0.423093 -0.906086 0 -0.243528 0.969894 9.34986e-005 -0.355772 -0.934573 -2.24177e-005 -0.355537 -0.934662 1 0.000523036 0 0.980467 0.00290691 0.196662 0.00142179 -0.999999 -0.00091588 0.0027339 -0.999995 -0.00140165 0.115432 0.0945776 -0.988803 -0.250046 0.00127972 0.968233 0.20057 0.0039432 0.979671 -0.342459 -0.365352 0.865586 0.187582 -0.303554 0.934167 0.00646244 -0.999978 -0.0016432 0.00872555 -0.999961 -0.00156099 0.370548 -0.293566 0.8812 0.390375 0.0041114 0.920647 0.262123 0.102443 0.959582 4.69912e-005 0.00719528 0.999974 0 -0.0076201 -0.999971 0.164945 0.193435 -0.967149 0.707107 0.707107 0 0 0.00715992 0.999974 -0.000222787 -0.0612293 -0.998124 8.46719e-005 -0.0907555 -0.995873 0.00981088 -0.999952 -0.000606157 0.00975662 -0.999952 -0.000693031 -0.203174 -0.00245557 0.979139 -0.197714 -0.257612 0.945804 -0.135381 0.0880856 0.98687 1.16309e-005 -0.00241684 -0.999997 2.14714e-005 -0.00241681 -0.999997 0 -0.477828 0.878453 0 -0.301343 0.953516 0 -0.0612293 0.998124</float_array>
                    <technique_common>
                        <accessor count="181" source="#Geometry-mesh042-normals-array" stride="3">
                            <param name="X" type="float" />
                            <param name="Y" type="float" />
                            <param name="Z" type="float" />
                        </accessor>
                    </technique_common>
                </source>
                <source id="Geometry-mesh042-uvSet1" name="uvSet1">
                    <float_array id="Geometry-mesh042-uvSet1-array" count="414">0.875404 0.910761 0.920718 0.911344 0.89776 0.957023 0.790203 0.91001 0.836645 0.91042 0.813132 0.956652 0.721255 0.908973 0.752908 0.909444 0.73684 0.956438 0.624858 0.908657 0.671377 0.908579 0.648029 0.956412 0.598013 0.909257 0.582444 0.956671 0.566613 0.910065 0.900716 0.911623 0.939128 0.911731 0.911805 0.958889 0.867677 0.911462 0.841445 0.959035 0.810872 0.911731 0.560876 0.911731 0.605794 0.911731 0.598416 0.958996 0.753334 0.958919 0.72754 0.911731 0.772461 0.911731 0.452449 0.00976942 0.45246 0.014515 0.438176 0.00976942 0.438165 0.014515 0.937856 0.005 0.93294 0.0108796 0.895477 0.005 0.891817 0.0105676 0.571354 0.0156623 0.60261 0.0151315 0.806685 0.0161524 0.847437 0.016184 0.809769 0.0106886 0.812302 0.005 0.850734 0.0105389 0.854523 0.005 0.771031 0.005 0.770492 0.00989152 0.728969 0.005 0.72947 0.00978089 0.0636703 0.00244141 0.0710316 0.00244141 0.0622402 0.00244141 0.0696014 0.00244141 0.897455 0.0101063 0.933118 0.0103618 0.898666 0.0154656 0.929414 0.015781 0.0239214 0.00244141 0.0165601 0.00244141 0.0943955 0.00244141 0.0890559 0.00244141 0.731487 0.0105064 0.687698 0.005 0.683335 0.0104431 0.645795 0.0100276 0.604248 0.00977917 0.645477 0.005 0.604523 0.005 1 0.00976978 1 0.005 0.679228 0.015729 0.734151 0.0156629 0.604523 0.0145157 0.646496 0.0150023 1 0.0145157 1 0.911731 0.605802 0.911731 0.643944 0.911736 0.437047 0.977321 0.453578 0.977321 0.437255 0.968262 0.45337 0.968262 0.438187 0.995 0.452438 0.995 0.438187 0.988553 0.452438 0.988553 0.435999 0.911665 0.435885 0.958883 0.454626 0.911665 0.45474 0.958883 0.5 0.995 0.5 0.988553 0.60227 0.995 0.60226 0.989009 0.5 0.982541 0.602264 0.983022 1 0.995 0.89773 0.995 1 0.988553 0.897702 0.988725 0.686961 0.968262 0.686962 0.977759 0.60227 0.968262 0.602267 0.977758 0.813055 0.982329 0.897682 0.982454 0.813045 0.988663 0.763291 0.97776 0.763291 0.983024 0.686962 0.983024 0.91996 0.996826 1 0.996826 0.736767 0.976657 0.647964 0.976647 0.736802 0.966548 0.648 0.966531 0.647941 0.982253 0.73675 0.982259 0.91777 0.988858 0.91777 0.995 0.85212 0.989009 0.852118 0.995 0.582387 0.976769 0.582346 0.982336 0.5 0.977321 0.5 0.982541 1 0.968262 1 0.977321 0.91777 0.968262 0.91777 0.977321 0.679919 0.958997 0.598387 0.958904 0.644217 0.911736 0.8977 0.966983 1 0.958953 0.582443 0.966724 0.767434 0.0102468 0.763789 0.0157374 0.636096 0.0154092 0.687584 0.0100711 0.860619 0.0103248 0.817633 0.0107609 0.927722 0.0165273 0.888736 0.0161406 0.640979 0.0102749 0.0942123 0.00244141 0.0892391 0.00244141 0.771031 0.005 0.562144 0.005 0.562439 0.0097612 0.5 0.005 0.5 0.00976978 0.562144 0.0145157 0.5 0.0145157 0.865581 0.0159093 0.823375 0.0162303 0.771031 0.0145157 0.772464 0.911731 0.438187 0.982541 0.452438 0.982541 0.5 0.977321 0.5 0.968262 1 0.982541 0.813095 0.966705 0.813066 0.976757 0.76329 0.995 0.763291 0.98901 0.852116 0.983022 0.73671 0.995 0.647882 0.995 0.736729 0.988628 0.647913 0.988625 0.917769 0.98272 0.582286 0.988666 0.58223 0.995 1 0.982541 0.841345 0.958859 0.753361 0.958982 0.76329 0.968262 0.679876 0.958903 0.852118 0.968262 0.917767 0.968262 0.452438 0.005 0.438187 0.005 0.687046 0.0151728 0.603745 0.0098872 0.566509 0.0104103 0.0189609 0.00244141 0.0115997 0.00244141 0.5 0.00976976 0.5 0.0145157 0.5 0.911731 0.560872 0.911731 0.728969 0.0145157 0.897673 0.976938 0.686961 0.98901 0.686961 0.995 0.813039 0.995 0.852107 0.977757 0.911821 0.95901 1 0.958952 0.5 0.958953 1 0.00976976 1 0.0145157 0.689146 0.911733 0.727539 0.911731 0.689496 0.911731 1 0.977321 0.5 0.958953</float_array>
                    <technique_common>
                        <accessor count="207" source="#Geometry-mesh042-uvSet1-array" stride="2">
                            <param name="S" type="float" />
                            <param name="T" type="float" />
                        </accessor>
                    </technique_common>
                </source>
                <source id="Geometry-mesh042-UV_Distortion" name="UV_Distortion">
                    <float_array id="Geometry-mesh042-UV_Distortion-array" count="942">0.573311 0.470366 0.430049 0.434664 0.475414 0.568732 0.497276 0.543896 0.506609 0.502203 0.548753 0.501717 0.43637 0.47728 0.567039 0.392593 0.429399 0.610474 0.454679 0.497305 0.548873 0.563349 0.481347 0.440089 0.415001 0.453908 0.588241 0.296441 0.324232 0.705875 0.198352 0.216948 0.803198 0.514079 0.535661 0.489747 0.539851 0.507251 0.463772 0.433188 0.4738 0.570196 0.426146 0.466097 0.577183 0.431781 0.472261 0.571592 0.434116 0.474815 0.569275 0.413543 0.452313 0.589688 0.41864 0.457887 0.584631 0.414418 0.45327 0.58882 0.424523 0.464322 0.578793 1.#INF 0 0 0.414221 0.453055 0.589015 0.413874 0.452675 0.58936 0.386841 0.423107 0.616181 0.411523 0.450103 0.591692 0.598912 0.442144 0.404246 0.557405 0.4879 0.44608 0.519092 0.530135 0.484694 0.530549 0.517506 0.473148 0.451469 0.493794 0.552059 0.490252 0.536213 0.513578 0.555393 0.490118 0.448108 0.580405 0.462546 0.422899 0.51959 0.529586 0.484193 0.505299 0.54534 0.498596 0.477108 0.521837 0.526619 0.431377 0.471819 0.571993 0.563382 0.481311 0.440056 0.559362 0.485743 0.444107 0.449567 0.491714 0.553945 0.452521 0.494945 0.551015 0.511416 0.538596 0.492431 0.502564 0.548354 0.501352 0.467482 0.511308 0.53617 0.287844 0.314829 0.714405 0.643509 0.392982 0.359298 0.173766 0.190057 0.827591 0.172713 0.188904 0.828637 0.530977 0.517033 0.472716 0.554242 0.491387 0.449268 0.553142 0.4926 0.450377 0.557766 0.487503 0.445717 0.531196 0.516792 0.472495 0.541782 0.505122 0.461826 0.518489 0.5308 0.485303 0.518548 0.530735 0.485243 0.504354 0.546382 0.499549 0.506782 0.543705 0.497102 0.491239 0.537293 0.512599 0.491354 0.537418 0.512485 0.521771 0.527181 0.481994 0.521662 0.527302 0.482105 0.521627 0.527341 0.48214 0.521952 0.526982 0.481812 0.500662 0.547599 0.50325 0.507631 0.542769 0.496246 0.491607 0.537696 0.512233 0.490614 0.536609 0.513219 0.466286 0.510001 0.537357 0.481765 0.52693 0.521999 0.47776 0.52255 0.525973 0.465994 0.509681 0.537646 0.482041 0.527233 0.521725 0.487791 0.533522 0.51602 0.505625 0.54498 0.498268 0.504347 0.54639 0.499556 0.468335 0.512242 0.535324 0.400041 0.437545 0.603084 0.507964 0.542402 0.49591 0.500394 0.547306 0.503516 0.502033 0.54894 0.501888 0.571314 0.472568 0.432062 0.557612 0.487671 0.445871 0.48742 0.533115 0.516388 0.48823 0.534001 0.515585 0.543917 0.502768 0.459674 0.528905 0.519318 0.474805 0.296441 0.324232 0.705875 0.198352 0.216948 0.803197 0.435164 0.47596 0.568236 0.464786 0.508359 0.538846 0.495703 0.542175 0.50817 0.488641 0.534451 0.515177 0.500656 0.547592 0.503256 0.496826 0.543403 0.507056 0.4343 0.475016 0.569093 0.438973 0.480127 0.564457 0.481192 0.526304 0.522567 0.470937 0.515087 0.532742 0.534302 0.513368 0.469365 0.558628 0.486551 0.444847 0.487637 0.533353 0.516172 0.483413 0.528733 0.520364 0.458554 0.501544 0.545028 0.483873 0.529236 0.519907 0.669954 0.36383 0.332645 0.667517 0.366517 0.335101 0.415793 0.454774 0.587456 0.387151 0.423446 0.615874 0.454251 0.496837 0.549298 0.458716 0.50172 0.544868 0.67118 0.362479 0.33141 0.66763 0.366392 0.334987 0.406653 0.444777 0.596524 0.422467 0.462074 0.580833 0.47976 0.524737 0.523988 0.474723 0.519228 0.528986 0.43973 0.480954 0.563706 0.398632 0.436004 0.604482 0.565211 0.479295 0.438212 0.563972 0.480661 0.439462 0.572387 0.471384 0.43098 0.629863 0.408025 0.373051 0.643513 0.392978 0.359294 0.585546 0.456878 0.417717 0.57595 0.467457 0.427389 0.469035 0.513007 0.53463 0.304 0.3325 0.698375 0.178818 0.195582 0.822579 0.574058 0.469543 0.429296 0.565712 0.478743 0.437708 0.553279 0.492448 0.450238 0.54513 0.501432 0.458452 0.51851 0.530777 0.485282 0.518508 0.530779 0.485283 0.475938 0.520557 0.52778 0.477588 0.522362 0.526143 0.477569 0.522341 0.526162 0.476278 0.52093 0.527443 0.536037 0.511455 0.467616 0.536999 0.510395 0.466646 0.537097 0.510286 0.466548 0.538152 0.509124 0.465485 0.519914 0.529229 0.483866 0.52082 0.52823 0.482953 0.499794 0.546649 0.504111 0.506912 0.543562 0.496971 0.493032 0.539254 0.51082 0.492122 0.538259 0.511723 0.47872 0.5236 0.52502 0.477735 0.522523 0.525997 0.465863 0.509537 0.537777 0.474141 0.518592 0.529563 0.475523 0.520103 0.528193 0.476157 0.520796 0.527563 0.485701 0.531236 0.518093 0.436161 0.477051 0.567247 0.525479 0.523094 0.478258 0.630475 0.40735 0.372434 0.521809 0.52714 0.481957 0.522385 0.526505 0.481376 0.519312 0.529893 0.484473 0.502731 0.548171 0.501185 0.52317 0.52564 0.480585 0.49327 0.539514 0.510584 0.296442 0.324233 0.705874 0.198672 0.217298 0.80288 0.173766 0.190057 0.827591 0.198357 0.216953 0.803193 0.566484 0.477892 0.436929 0.592129 0.449621 0.411082 0.453473 0.495986 0.55007 0.502888 0.547997 0.501026 0.433514 0.474156 0.569872 0.438008 0.479071 0.565414 0.416164 0.455179 0.587087 0.377438 0.412823 0.625511 0.485902 0.531455 0.517894 0.486609 0.532229 0.517192 0.370923 0.405697 0.631975 0.372669 0.407606 0.630243 0.480197 0.525216 0.523554 0.481222 0.526336 0.522538 0.482722 0.527977 0.521049 0.433011 0.473605 0.570372 0.567513 0.476758 0.435893 0.63738 0.399739 0.365475 0.496095 0.542604 0.507781 0.493147 0.53938 0.510706 0.449714 0.491874 0.5538 0.440234 0.481506 0.563205 0.618511 0.420539 0.384493 0.548589 0.497619 0.454966 0.516988 0.532455 0.486816 0.500977 0.547943 0.502937 0.440385 0.481671 0.563056 0.432527 0.473076 0.570852 0.654806 0.380528 0.347912 0.646022 0.390212 0.356766 0.415303 0.454238 0.587941 0.409156 0.447514 0.594041 0.560164 0.484859 0.4433 0.56075 0.484213 0.442709 0.50434 0.546397 0.499563 0.506821 0.543662 0.497062 0.504368 0.546366 0.499534 0.506839 0.543643 0.497045 0.493026 0.539247 0.510826 0.494677 0.541053 0.509188 0.49135 0.537414 0.512489 0.493046 0.539269 0.510806 0.477961 0.52277 0.525773 0.480847 0.525927 0.522909 0.538134 0.509143 0.465502 0.538218 0.509052 0.465419 0.520914 0.528126 0.482858 0.52186 0.527083 0.481905 0.498917 0.54569 0.504981 0.506093 0.544465 0.497796 0.492336 0.538493 0.51151 0.491411 0.537481 0.512428 0.478416 0.523267 0.525322 0.473754 0.518168 0.529948 0.478146 0.522972 0.525589 0.470022 0.514087 0.53365 0.566576 0.47779 0.436836 0.556944 0.488409 0.446545 0.433127 0.473732 0.570257 0.452494 0.494915 0.551042 0.645984 0.390254 0.356804 0.559569 0.485515 0.443899 0.474824 0.519338 0.528886 0.477251 0.521994 0.526477 0.55773 0.487542 0.445752 0.557154 0.488176 0.446333 0.483201 0.528501 0.520574 0.453372 0.495876 0.55017 0.296442 0.324233 0.705874 0.198672 0.217298 0.80288 0.198357 0.216952 0.803193 0.173766 0.190057 0.827591 0.472143 0.516407 0.531546 0.473364 0.517742 0.530335 0.391409 0.428104 0.611648 0.430526 0.470888 0.572837 0.42546 0.465347 0.577864 0.425178 0.465038 0.578144 0.570317 0.473666 0.433066 0.577112 0.466176 0.426218 0.577299 0.46597 0.42603 0.579174 0.463903 0.42414 0.364499 0.398671 0.638349 0.386474 0.422706 0.616545 0.400194 0.437712 0.602933 0.42187 0.46142 0.581426 0.579555 0.463483 0.423756 0.659887 0.374928 0.342791 0.409972 0.448407 0.593231 0.427735 0.467836 0.575606 0.497593 0.544242 0.506295 0.487042 0.532702 0.516763 0.589154 0.452901 0.414081 0.613077 0.426529 0.389969 0.418493 0.457726 0.584777 0.401625 0.439278 0.601512 0.482451 0.527681 0.521318 0.500067 0.546949 0.503839 0.603506 0.43708 0.399616 0.566605 0.477758 0.436807 0.433289 0.47391 0.570096 0.433279 0.473899 0.570106 0.440195 0.481463 0.563244 0.438137 0.479213 0.565286 0.504188 0.546564 0.499716 0.485147 0.530629 0.518644 0.469425 0.513433 0.534243 0.481978 0.527164 0.521787 0.574074 0.469525 0.42928 0.552609 0.493187 0.450914 0.560234 0.484781 0.443228 0.547913 0.498364 0.455647 0.518467 0.530824 0.485325 0.518454 0.530838 0.485337 0.518471 0.530819 0.48532 0.518454 0.530838 0.485338 0.504318 0.546421 0.499585 0.50668 0.543817 0.497204 0.490901 0.536923 0.512934 0.491247 0.537302 0.512591 0.476302 0.520955 0.527419 0.479248 0.524177 0.524496 0.538141 0.509136 0.465496 0.538202 0.509069 0.465434 0.49001 0.535948 0.513819 0.48984 0.535762 0.513987 0.481334 0.526459 0.522427 0.462611 0.505981 0.541003 0.515536 0.534055 0.488279 0.505276 0.545365 0.498619 0.438264 0.479352 0.56516 0.479057 0.523969 0.524685 0.522259 0.526644 0.481503 0.561258 0.483652 0.442196 0.45006 0.492253 0.553456 0.432506 0.473053 0.570873 0.480194 0.525212 0.523558 0.466689 0.510441 0.536957 0.504224 0.546525 0.49968 0.506641 0.54386 0.497244 0.468993 0.512961 0.534671 0.456916 0.499752 0.546653 0.596535 0.444764 0.406642 0.571326 0.472554 0.43205</float_array>
                    <technique_common>
                        <accessor count="314" source="#Geometry-mesh042-UV_Distortion-array" stride="3">
                            <param name="R" type="float" />
                            <param name="G" type="float" />
                            <param name="B" type="float" />
                        </accessor>
                    </technique_common>
                </source>
                <source id="Geometry-mesh042-Falloff" name="Falloff">
                    <float_array id="Geometry-mesh042-Falloff-array" count="72">1 0.637116 0.62006 0.615878 0.617964 0 0.242967 0.0496064 0.636645 0.982009 0.621279 0.0504268 0.0521308 0.651811 0.657018 0.932729 0.964878 0.659208 0.664813 0.665472 0.964407 0.932678 0.237344 0.23745 0.931251 0.66521 0.930352 0.957753 0.95559 0.981988 0.983718 0.982002 0.373858 0.416631 0.45899 0.376587 0.419561 0.553428 0.493185 0.55522 0.494763 0.460121 0.461602 0.418187 0.0115612 0.457516 0.372584 0.375308 0.0123215 0.0317331 0.619684 0.982003 0.556121 0.242234 0.241639 0.650993 0.664831 0.658737 0.23948 0.655167 0.657901 0.420019 0.554325 0.495325 0.031456 0.662159 0.239488 0.49691 0.415264 0.619107 0.242826 0.615499</float_array>
                    <technique_common>
                        <accessor count="72" source="#Geometry-mesh042-Falloff-array" stride="1">
                            <param name="WEIGHT" type="float" />
                        </accessor>
                    </technique_common>
                </source>
                <vertices id="Geometry-mesh042-vertices">
                    <input semantic="POSITION" source="#Geometry-mesh042-positions" />
                </vertices>
                <triangles count="360" material="Material-fabric">
                    <input semantic="VERTEX" source="#Geometry-mesh042-vertices" offset="0" />
                    <input semantic="NORMAL" source="#Geometry-mesh042-normals" offset="1" />
                    <input semantic="TEXCOORD" source="#Geometry-mesh042-uvSet1" offset="2" set="0" />
                    <input semantic="COLOR" source="#Geometry-mesh042-UV_Distortion" offset="3" set="0" />
                    <input semantic="WEIGHT" source="#Geometry-mesh042-Falloff" offset="4" set="0" />
                    <p>77 0 0 0 0 76 1 1 0 1 181 2 2 0 2 79 3 3 1 3 78 4 4 1 0 169 5 5 1 4 81 6 6 2 5 80 7 7 2 6 157 8 8 2 7 83 9 9 3 5 82 10 10 3 5 154 2 11 3 5 84 11 12 4 5 132 5 13 4 5 85 12 14 4 5 91 13 15 5 5 90 14 16 5 5 133 15 17 5 5 88 16 18 6 5 155 17 19 6 5 89 18 20 6 5 97 19 21 7 8 95 20 22 7 9 180 21 23 7 10 156 22 24 8 11 96 23 25 8 12 94 24 26 8 5 6 25 27 9 5 10 26 28 9 5 7 27 29 9 5 11 28 30 10 5 7 27 29 10 5 10 26 28 10 5 16 29 31 11 13 36 30 32 11 14 17 31 33 11 15 37 32 34 12 16 17 31 33 12 15 36 30 32 12 14 85 12 14 13 5 65 33 35 13 5 84 11 12 13 5 64 34 36 14 5 84 11 12 14 5 65 33 35 14 5 79 3 3 15 3 59 35 37 15 17 78 4 4 15 0 58 36 38 16 0 78 4 4 16 0 59 35 37 16 17 39 37 39 17 18 21 38 40 17 19 38 39 41 17 20 20 40 42 18 21 38 39 41 18 20 21 38 40 18 19 26 41 43 19 5 50 42 44 19 5 27 43 45 19 22 51 44 46 20 23 27 43 45 20 22 50 42 44 20 5 23 45 47 21 24 20 46 48 21 21 22 47 49 21 25 21 48 50 21 19 22 47 49 21 25 20 46 48 21 21 59 35 37 22 17 39 37 39 22 18 58 36 38 22 0 38 39 41 23 20 58 36 38 23 0 39 37 39 23 18 55 49 51 24 5 54 50 52 24 5 75 51 53 24 5 74 52 54 25 5 75 51 53 25 5 54 50 52 25 5 20 46 48 21 21 23 45 47 21 24 17 53 55 21 15 18 53 56 21 26 17 53 55 21 15 23 45 47 21 24 0 54 57 21 5 2 55 58 21 5 33 56 55 21 5 34 57 56 21 5 33 56 55 21 5 2 55 58 21 5 25 58 45 26 5 41 59 59 26 5 28 60 60 26 5 42 61 61 27 5 28 60 60 27 5 41 59 59 27 5 49 62 62 28 27 46 63 63 28 28 23 64 64 28 24 18 65 65 29 26 23 64 64 29 24 46 63 63 29 28 54 50 52 30 5 34 66 31 30 5 5 67 66 30 5 2 68 67 31 5 5 67 66 31 5 34 66 31 31 5 62 69 68 32 5 42 61 61 32 5 61 70 69 32 5 41 59 59 33 5 61 70 69 33 5 42 61 61 33 5 46 63 63 34 28 49 62 62 34 27 66 71 70 34 29 69 72 71 35 30 66 71 70 35 29 49 62 62 35 27 5 67 66 36 5 9 73 72 36 5 54 50 52 36 5 74 52 54 37 5 54 50 52 37 5 9 73 72 37 5 62 69 68 38 5 61 70 69 38 5 82 10 10 38 5 81 6 6 39 5 82 10 10 39 5 61 70 69 39 5 74 52 54 40 5 9 73 72 40 5 90 14 16 40 5 13 74 73 41 5 90 14 16 41 5 9 73 72 41 5 66 71 70 42 29 69 72 71 42 30 95 20 74 42 9 87 75 75 43 31 95 20 74 43 9 69 72 71 43 30 102 76 76 44 5 103 76 77 44 5 106 76 78 44 5 107 76 79 45 5 106 76 78 45 5 103 76 77 45 5 98 77 80 46 5 101 77 81 46 5 111 76 82 46 5 112 76 83 46 5 111 76 82 46 5 101 77 81 46 5 12 78 84 47 5 118 76 85 47 5 13 79 86 47 5 119 76 87 48 5 13 79 86 48 5 118 76 85 48 5 100 80 88 49 5 115 81 89 49 5 171 80 90 49 32 170 82 91 50 33 171 80 90 50 32 115 81 89 50 5 115 81 89 51 5 114 83 92 51 5 170 82 91 51 33 175 84 93 52 34 170 82 91 52 33 114 83 92 52 5 99 85 94 53 5 178 85 95 53 35 116 86 96 53 5 179 87 97 54 36 116 86 96 54 5 178 85 95 54 35 164 88 98 55 37 163 89 99 55 38 176 90 100 55 39 174 89 101 56 40 176 90 100 56 39 163 89 99 56 38 165 91 102 57 41 177 91 103 57 42 167 87 104 57 43 179 87 97 58 36 167 87 104 58 43 177 91 103 58 42 139 89 105 59 44 138 84 106 59 5 163 89 99 59 38 162 84 107 60 45 163 89 99 60 38 138 84 106 60 5 158 92 108 21 46 134 92 108 21 5 166 92 109 21 47 142 92 109 21 5 166 92 109 21 47 134 92 108 21 5 137 93 110 61 48 147 93 111 61 5 136 94 112 61 49 146 94 113 62 5 136 94 112 62 49 147 93 111 62 5 147 93 111 63 5 137 93 110 63 48 151 91 114 63 5 141 91 115 64 5 151 91 114 64 5 137 93 110 64 48 123 95 116 65 5 122 80 117 65 5 145 82 118 65 5 144 80 119 66 5 145 82 118 66 5 122 80 117 66 5 125 96 120 67 5 147 93 111 67 5 128 91 121 67 5 151 91 114 68 5 128 91 121 68 5 147 93 111 68 5 112 97 96 69 5 101 80 94 69 5 123 95 116 69 5 122 80 117 70 5 123 95 116 70 5 101 80 94 70 5 102 98 122 71 5 125 96 120 71 5 110 99 123 71 5 128 91 121 72 5 110 99 123 72 5 125 96 120 72 5 107 100 124 73 5 103 101 125 73 5 131 102 126 73 5 127 103 127 74 5 131 102 126 74 5 103 101 125 74 5 181 2 2 75 2 169 5 5 75 4 77 0 0 75 0 78 4 4 76 0 77 0 0 76 0 169 5 5 76 4 155 17 19 77 5 88 16 18 77 5 133 15 17 77 5 91 13 15 78 5 133 15 17 78 5 88 16 18 78 5 168 104 128 79 50 180 21 129 79 10 95 20 74 79 9 168 104 128 80 50 95 20 74 80 9 87 75 75 80 31 87 75 75 81 31 92 105 130 81 51 168 104 128 81 50 109 106 124 82 5 172 94 131 82 52 121 2 132 82 5 181 2 2 83 2 121 2 132 83 5 172 94 131 83 52 132 5 13 84 5 154 2 11 84 5 124 94 133 84 5 146 94 113 85 5 124 94 133 85 5 154 2 11 85 5 168 104 128 86 50 164 88 98 86 37 180 21 129 86 10 176 90 100 87 39 180 21 129 87 10 164 88 98 87 37 4 107 29 88 5 8 108 30 88 5 5 109 27 88 5 9 110 28 89 5 5 109 27 89 5 8 108 30 89 5 41 59 59 90 5 40 111 134 90 53 61 70 69 90 5 60 112 135 91 54 61 70 69 91 5 40 111 134 91 53 80 7 7 92 6 81 6 6 92 5 60 112 135 92 54 61 70 69 93 5 60 112 135 93 54 81 6 6 93 5 82 10 10 94 5 83 9 9 94 5 62 69 68 94 5 63 113 136 95 5 62 69 68 95 5 83 9 9 95 5 19 53 56 21 55 16 53 55 21 13 18 53 56 21 26 17 53 55 21 15 18 53 56 21 26 16 53 55 21 13 48 114 137 96 56 49 62 62 96 27 22 115 60 96 25 23 64 64 97 24 22 115 60 97 25 49 62 62 97 27 52 116 138 98 5 53 117 139 98 5 30 118 42 98 5 31 119 40 99 5 30 118 42 99 5 53 117 139 99 5 36 30 32 100 14 56 120 140 100 57 37 32 34 100 16 57 121 141 101 0 37 32 34 101 16 56 120 140 101 57 43 122 142 102 5 29 123 64 102 5 42 61 61 102 5 28 60 60 103 5 42 61 61 103 5 29 123 64 103 5 16 53 55 21 13 19 53 56 21 55 1 124 143 21 5 3 125 144 21 5 1 124 143 21 5 19 53 56 21 55 35 126 56 21 5 30 127 47 21 5 32 128 55 21 5 29 129 48 21 5 32 128 55 21 5 30 127 47 21 5 39 37 39 104 18 40 111 134 104 53 21 38 40 104 19 24 130 145 105 58 21 38 40 105 19 40 111 134 105 53 19 131 146 106 55 47 132 147 106 59 3 133 148 106 5 6 134 149 107 5 3 133 148 107 5 47 132 147 107 59 55 49 51 108 5 52 116 138 108 5 35 135 33 108 5 30 118 42 109 5 35 135 33 109 5 52 116 138 109 5 60 112 135 110 54 40 111 134 110 53 59 35 37 110 17 39 37 39 111 18 59 35 37 111 17 40 111 134 111 53 67 136 150 112 60 10 137 151 112 5 47 132 147 112 59 6 134 149 113 5 47 132 147 113 59 10 137 151 113 5 52 116 138 114 5 55 49 51 114 5 72 138 152 114 5 75 51 53 115 5 72 138 152 115 5 55 49 51 115 5 60 112 135 116 54 59 35 37 116 17 80 7 7 116 6 79 3 3 117 3 80 7 7 117 6 59 35 37 117 17 72 138 152 118 5 75 51 53 118 5 88 16 18 118 5 91 13 15 119 5 88 16 18 119 5 75 51 53 119 5 97 19 21 120 8 67 136 150 120 60 95 20 22 120 9 66 71 70 121 29 95 20 22 121 9 67 136 150 121 60 73 139 153 122 5 89 18 20 122 5 70 140 154 122 5 94 24 155 123 61 70 140 154 123 5 89 18 20 123 5 111 76 82 124 5 112 76 83 124 5 110 76 156 124 5 113 76 157 125 5 110 76 156 125 5 112 76 83 125 5 117 141 156 126 5 105 141 76 126 5 114 141 157 126 5 104 141 77 127 5 114 141 157 127 5 105 141 76 127 5 108 141 79 128 5 109 141 78 128 5 120 141 87 128 5 121 141 85 129 5 120 141 87 129 5 109 141 78 129 5 104 142 158 130 5 108 143 159 130 5 174 89 101 130 40 176 90 100 131 39 174 89 101 131 40 108 143 159 131 5 116 86 96 132 5 179 87 97 132 36 117 144 160 132 5 177 91 103 133 42 117 144 160 133 5 179 87 97 133 36 163 89 99 134 38 162 84 107 134 45 174 89 101 134 40 175 84 93 135 34 174 89 101 135 40 162 84 107 135 45 171 92 108 21 32 158 92 108 21 46 178 92 109 21 35 166 92 109 21 47 178 92 109 21 35 158 92 108 21 46 136 94 112 136 49 160 94 161 136 62 137 93 110 136 48 161 93 162 137 63 137 93 110 137 48 160 94 161 137 62 165 91 102 138 41 141 91 115 138 5 161 93 162 138 63 137 93 110 139 48 161 93 162 139 63 141 91 115 139 5 134 80 163 140 5 135 82 164 140 5 144 80 119 140 5 145 82 118 141 5 144 80 119 141 5 135 82 164 141 5 135 82 164 142 5 138 84 106 142 5 145 82 118 142 5 148 84 165 143 5 145 82 118 143 5 138 84 106 143 5 142 85 166 144 5 152 85 167 144 5 143 87 168 144 5 153 145 169 145 5 143 87 168 145 5 152 85 167 145 5 126 84 170 146 5 123 95 116 146 5 148 84 165 146 5 145 82 118 147 5 148 84 165 147 5 123 95 116 147 5 130 87 171 148 5 153 145 169 148 5 129 85 172 148 5 152 85 167 149 5 129 85 172 149 5 153 145 169 149 5 113 146 173 150 5 112 97 96 150 5 126 84 170 150 5 123 95 116 151 5 126 84 170 151 5 112 97 96 151 5 111 147 89 152 5 130 87 171 152 5 98 85 88 152 5 129 85 172 153 5 98 85 88 153 5 130 87 171 153 5 169 5 5 154 4 157 8 8 154 7 79 3 3 154 3 80 7 7 155 6 79 3 3 155 3 157 8 8 155 7 154 2 11 156 5 132 5 13 156 5 83 9 9 156 5 84 11 12 157 5 83 9 9 157 5 132 5 13 157 5 155 17 174 158 5 156 22 24 158 11 89 18 20 158 5 94 24 155 159 61 89 18 20 159 5 156 22 24 159 11 136 94 112 160 49 146 94 113 160 5 157 8 8 160 7 154 2 11 161 5 157 8 8 161 7 146 94 113 161 5 156 22 175 162 11 140 148 176 162 64 168 104 177 162 50 164 88 98 163 37 168 104 177 163 50 140 148 176 163 64 150 149 178 164 5 155 17 19 164 5 131 102 179 164 5 133 15 17 165 5 131 102 179 165 5 155 17 19 165 5 6 25 27 166 5 7 27 29 166 5 3 125 180 166 5 1 124 181 167 5 3 125 180 167 5 7 27 29 167 5 10 26 28 168 5 14 150 86 168 5 15 151 84 168 5 10 26 28 169 5 15 151 84 169 5 11 28 30 169 5 76 1 1 170 1 77 0 0 170 0 56 120 140 170 57 57 121 141 171 0 56 120 140 171 57 77 0 0 171 0 89 18 20 172 5 73 139 153 172 5 88 16 18 172 5 72 138 152 173 5 88 16 18 173 5 73 139 153 173 5 29 129 48 21 5 30 127 47 21 5 28 152 50 21 5 31 153 49 21 5 28 152 50 21 5 30 127 47 21 5 68 154 182 174 65 69 72 71 174 30 48 114 137 174 56 49 62 62 175 27 48 114 137 175 56 69 72 71 175 30 33 56 55 21 5 34 57 56 21 5 32 128 55 21 5 35 126 56 21 5 32 128 55 21 5 34 57 56 21 5 64 34 36 176 5 65 33 35 176 5 44 155 183 176 5 45 156 184 177 5 44 155 183 177 5 65 33 35 177 5 63 113 136 178 5 43 122 142 178 5 62 69 68 178 5 42 61 61 179 5 62 69 68 179 5 43 122 142 179 5 32 157 65 180 5 44 155 183 180 5 33 158 146 180 5 45 156 184 181 5 33 158 146 181 5 44 155 183 181 5 28 152 50 21 5 31 153 49 21 5 25 159 185 21 5 26 160 186 21 5 25 159 185 21 5 31 153 49 21 5 17 31 33 182 15 37 32 34 182 16 20 40 42 182 21 38 39 41 183 20 20 40 42 183 21 37 32 34 183 16 0 161 148 184 5 33 158 146 184 5 4 162 187 184 5 45 156 184 185 5 4 162 187 185 5 33 158 146 185 5 53 117 139 186 5 50 42 44 186 5 31 119 40 186 5 26 41 43 187 5 31 119 40 187 5 50 42 44 187 5 58 36 38 188 0 38 39 41 188 20 57 121 141 188 0 37 32 34 189 16 57 121 141 189 0 38 39 41 189 20 8 163 188 190 5 4 162 187 190 5 65 33 35 190 5 45 156 184 191 5 65 33 35 191 5 4 162 187 191 5 50 42 44 192 5 53 117 139 192 5 70 140 154 192 5 73 139 153 193 5 70 140 154 193 5 53 117 139 193 5 57 121 141 194 0 77 0 0 194 0 58 36 38 194 0 78 4 4 195 0 58 36 38 195 0 77 0 0 195 0 65 33 35 196 5 85 12 14 196 5 8 163 188 196 5 12 164 189 197 5 8 163 188 197 5 85 12 14 197 5 67 136 150 198 60 97 19 190 198 8 10 137 151 198 5 14 165 189 199 5 10 137 151 199 5 97 19 190 199 8 96 23 25 200 12 71 166 191 200 66 94 24 26 200 5 70 140 154 201 5 94 24 26 201 5 71 166 191 201 66 115 141 83 124 5 116 141 82 124 5 114 141 157 124 5 117 141 156 125 5 114 141 157 125 5 116 141 82 125 5 113 76 157 126 5 103 76 77 126 5 110 76 156 126 5 102 76 76 127 5 110 76 156 127 5 103 76 77 127 5 106 76 78 128 5 107 76 79 128 5 118 76 85 128 5 119 76 87 129 5 118 76 85 129 5 107 76 79 129 5 114 83 92 202 5 104 142 158 202 5 175 84 93 202 34 174 89 101 203 40 175 84 93 203 34 104 142 158 203 5 178 92 109 21 35 99 167 109 21 5 171 92 108 21 32 100 167 108 21 5 171 92 108 21 32 99 167 109 21 5 160 94 161 204 62 172 94 131 204 52 161 93 162 204 63 173 96 192 205 67 161 93 162 205 63 172 94 131 205 52 161 93 162 206 63 173 96 192 206 67 165 91 102 206 41 177 91 103 207 42 165 91 102 207 41 173 96 192 207 67 135 82 164 208 5 134 80 163 208 5 159 82 193 208 68 158 80 194 209 46 159 82 193 209 68 134 80 163 209 5 138 84 106 210 5 135 82 164 210 5 162 84 107 210 45 159 82 193 211 68 162 84 107 211 45 135 82 164 211 5 143 87 168 212 5 167 87 104 212 43 142 85 166 212 5 166 85 195 213 47 142 85 166 213 5 167 87 104 213 43 139 89 105 214 44 140 148 176 214 64 149 89 196 214 5 150 149 178 215 5 149 89 196 215 5 140 148 176 215 64 143 87 168 216 5 153 145 169 216 5 141 91 115 216 5 151 91 114 217 5 141 91 115 217 5 153 145 169 217 5 127 103 127 218 5 126 84 170 218 5 149 89 196 218 5 148 84 165 219 5 149 89 196 219 5 126 84 170 219 5 128 91 121 220 5 151 91 114 220 5 130 87 171 220 5 153 145 169 221 5 130 87 171 221 5 151 91 114 221 5 103 101 125 222 5 113 146 173 222 5 127 103 127 222 5 126 84 170 223 5 127 103 127 223 5 113 146 173 223 5 110 99 123 224 5 128 91 121 224 5 111 147 89 224 5 130 87 171 225 5 111 147 89 225 5 128 91 121 225 5 15 168 73 226 5 121 2 132 226 5 76 1 1 226 1 181 2 2 227 2 76 1 1 227 1 121 2 132 227 5 133 15 197 228 5 90 14 16 228 5 119 169 198 228 5 13 74 73 229 5 119 169 198 229 5 90 14 16 229 5 14 165 189 230 5 97 19 190 230 8 120 170 199 230 5 180 21 23 231 10 120 170 199 231 5 97 19 190 231 8 157 8 8 232 7 169 5 5 232 4 136 94 112 232 49 160 94 161 233 62 136 94 112 233 49 169 5 5 233 4 140 148 176 234 64 156 22 24 234 11 150 149 178 234 5 155 17 174 235 5 150 149 178 235 5 156 22 24 235 11 131 102 126 236 5 133 15 197 236 5 107 100 124 236 5 119 169 198 237 5 107 100 124 237 5 133 15 197 237 5 4 107 29 238 5 5 109 27 238 5 0 54 181 238 5 2 55 180 239 5 0 54 181 239 5 5 109 27 239 5 9 110 28 240 5 8 108 30 240 5 12 78 84 240 5 12 78 84 47 5 13 79 86 241 5 9 110 28 241 5 72 138 152 242 5 73 139 153 242 5 52 116 138 242 5 53 117 139 243 5 52 116 138 243 5 73 139 153 243 5 90 14 16 244 5 91 13 15 244 5 74 52 54 244 5 75 51 53 245 5 74 52 54 245 5 91 13 15 245 5 51 44 46 246 23 50 42 44 246 5 71 166 191 246 66 70 140 154 247 5 71 166 191 247 66 50 42 44 247 5 19 131 146 248 55 18 65 65 248 26 47 132 147 248 59 46 63 63 249 28 47 132 147 249 59 18 65 65 249 26 47 132 147 250 59 46 63 63 250 28 67 136 150 250 60 66 71 70 251 29 67 136 150 251 60 46 63 63 251 28 35 135 33 252 5 34 66 31 252 5 55 49 51 252 5 54 50 52 253 5 55 49 51 253 5 34 66 31 253 5 24 130 145 254 58 40 111 134 254 53 25 58 45 254 5 41 59 59 255 5 25 58 45 255 5 40 111 134 255 53 27 171 186 21 22 24 172 185 21 58 26 160 186 21 5 25 159 185 21 5 26 160 186 21 5 24 172 185 21 58 27 171 186 21 22 22 47 49 21 25 24 172 185 21 58 21 48 50 21 19 24 172 185 21 58 22 47 49 21 25 36 30 32 256 14 16 29 31 256 13 7 173 200 256 5 1 174 67 257 5 7 173 200 257 5 16 29 31 257 13 29 123 64 258 5 43 122 142 258 5 32 157 65 258 5 44 155 183 259 5 32 157 65 259 5 43 122 142 259 5 51 44 46 260 23 48 114 137 260 56 27 43 45 260 22 22 115 60 261 25 27 43 45 261 22 48 114 137 261 56 36 30 32 262 14 7 173 200 262 5 56 120 140 262 57 11 175 201 263 5 56 120 140 263 57 7 173 200 263 5 64 34 36 264 5 44 155 183 264 5 63 113 136 264 5 43 122 142 265 5 63 113 136 265 5 44 155 183 265 5 68 154 182 266 65 48 114 137 266 56 71 166 191 266 66 51 44 46 267 23 71 166 191 267 66 48 114 137 267 56 56 120 140 268 57 11 175 201 268 5 76 1 1 268 1 15 168 73 269 5 76 1 1 269 1 11 175 201 269 5 63 113 136 270 5 83 9 9 270 5 64 34 36 270 5 84 11 12 271 5 64 34 36 271 5 83 9 9 271 5 68 154 182 272 65 86 176 202 272 69 92 105 130 272 51 69 72 71 273 30 68 154 182 273 65 92 105 130 273 51 92 105 130 274 51 87 75 75 274 31 69 72 71 274 30 68 154 182 275 65 71 166 191 275 66 96 23 203 275 70 68 154 182 276 65 96 23 203 276 70 93 177 204 276 71 93 177 204 277 71 86 176 202 277 69 68 154 182 277 65 104 141 77 44 5 105 141 76 44 5 108 141 79 44 5 109 141 78 45 5 108 141 79 45 5 105 141 76 45 5 100 167 81 46 5 99 167 80 46 5 115 141 83 46 5 116 141 82 46 5 115 141 83 46 5 99 167 80 46 5 14 150 86 168 5 120 141 87 47 5 15 151 84 168 5 121 141 85 48 5 15 151 84 48 5 120 141 87 48 5 105 178 205 278 5 173 96 192 278 67 109 106 124 278 5 172 94 131 279 52 109 106 124 279 5 173 96 192 279 67 117 144 160 280 5 177 91 103 280 42 105 178 205 280 5 173 96 192 281 67 105 178 205 281 5 177 91 103 281 42 159 82 193 282 68 158 80 194 282 46 170 82 91 282 33 171 80 90 283 32 170 82 91 283 33 158 80 194 283 46 162 84 107 284 45 159 82 193 284 68 175 84 93 284 34 170 82 91 285 33 175 84 93 285 34 159 82 193 285 68 167 87 104 286 43 179 87 97 286 36 166 85 195 286 47 178 85 95 287 35 166 85 195 287 47 179 87 97 287 36 140 148 176 288 64 139 89 105 288 44 164 88 98 288 37 163 89 99 289 38 164 88 98 289 37 139 89 105 289 44 141 91 115 290 5 165 91 102 290 41 143 87 168 290 5 167 87 104 291 43 143 87 168 291 5 165 91 102 291 41 149 89 196 292 5 148 84 165 292 5 139 89 105 292 44 138 84 106 293 5 139 89 105 293 44 148 84 165 293 5 152 92 109 21 5 142 92 109 21 5 144 92 108 21 5 134 92 108 21 5 144 92 108 21 5 142 92 109 21 5 124 94 133 294 5 146 94 113 294 5 125 96 120 294 5 147 93 111 295 5 125 96 120 295 5 146 94 113 295 5 144 92 108 21 5 122 92 108 21 5 152 92 109 21 5 129 92 109 21 5 152 92 109 21 5 122 92 108 21 5 106 179 159 296 5 124 94 133 296 5 102 98 122 296 5 125 96 120 297 5 102 98 122 297 5 124 94 133 297 5 122 92 108 21 5 101 77 108 21 5 129 92 109 21 5 98 77 109 21 5 129 92 109 21 5 101 77 108 21 5 131 102 179 298 5 127 103 127 298 5 150 149 178 298 5 149 89 196 299 5 150 149 178 299 5 127 103 127 299 5 168 104 128 300 50 92 105 130 300 51 86 176 202 300 69 86 176 202 301 69 93 177 204 301 71 168 104 128 301 50 154 2 11 302 5 82 10 10 302 5 157 8 8 302 7 81 6 6 303 5 157 8 8 303 7 82 10 10 303 5 132 5 13 304 5 118 180 206 304 5 85 12 14 304 5 12 164 189 305 5 85 12 14 305 5 118 180 206 305 5 156 22 175 306 11 168 104 177 306 50 96 23 203 306 70 93 177 204 307 71 96 23 203 307 70 168 104 177 307 50 169 5 5 308 4 181 2 2 308 2 160 94 161 308 62 172 94 131 309 52 160 94 161 309 62 181 2 2 309 2 118 180 206 310 5 132 5 13 310 5 106 179 159 310 5 124 94 133 311 5 106 179 159 311 5 132 5 13 311 5 180 21 23 312 10 176 90 100 312 39 120 170 199 312 5 108 143 159 313 5 120 170 199 313 5 176 90 100 313 39</p>
                </triangles>
            </mesh>
        </geometry>
    </library_geometries>
    <library_visual_scenes>
        <visual_scene id="DefaultScene">
            <node id="groupLocator025Node" name="Texture_Group" type="NODE">
                <matrix sid="transform">1 0 0 0 0 1 0 0 0 0 1 0 0 0 0 1</matrix>
                <node id="txtrLocator051Node" name="drapes_waitroom_cloth_nrm__Image___Texture_" type="NODE">
                    <matrix sid="transform">1 0 0 0 0 1 0 0 0 0 1 0 0 0 0 1</matrix>
                </node>
                <node id="txtrLocator046Node" name="curtain_fabric__Image___Texture_" type="NODE">
                    <matrix sid="transform">1 0 0 0 0 1 0 0 0 0 1 0 0 0 0 1</matrix>
                </node>
                <node id="txtrLocator020Node" name="lab_set__Image___Texture_" type="NODE">
                    <matrix sid="transform">1 0 0 0 0 1 0 0 0 0 1 0 0 0 0 1</matrix>
                </node>
            </node>
            <node id="groupLocator035Node" name="fabric" type="NODE">
                <matrix sid="transform">1 0 0 0 0 1 0 0 0 0 1 0 0 0 0 1</matrix>
                <node id="Geometry-mesh042Node" name="open01" type="NODE">
                    <matrix sid="transform">1 0 0 0 0 1 0 0 0 0 1 0 0 0 0 1</matrix>
                    <instance_geometry url="#Geometry-mesh042">
                        <bind_material>
                            <technique_common>
                                <instance_material symbol="Material-fabric" target="#Material-fabric">
                                    <bind_vertex_input semantic="uvSet1" input_semantic="TEXCOORD" input_set="0" />
                                </instance_material>
                            </technique_common>
                        </bind_material>
                    </instance_geometry>
                </node>
            </node>
        </visual_scene>
    </library_visual_scenes>
    <scene>
        <instance_visual_scene url="#DefaultScene" />
    </scene>
</COLLADA>
