<?xml version="1.0" encoding="utf-8"?>
<COLLADA xmlns="http://www.collada.org/2005/11/COLLADASchema" version="1.4.1">
  <asset><contributor><author></author><authoring_tool>FBX COLLADA exporter</authoring_tool><comments></comments></contributor><created>2014-10-24T18:25:41Z</created><keywords></keywords><modified>2014-10-24T18:25:41Z</modified><revision></revision><subject></subject><title></title><unit meter="0.025400" name="centimeter"></unit><up_axis>Y_UP</up_axis></asset>
  <library_images>
    <image id="Map #2-image" name="Map #2"><init_from>file://C:\Users\Peter\Desktop\new frictional work\large_inside\large_inside\originals\large_inside.psd</init_from></image>
    <image id="Map #4-image" name="Map #4"><init_from>file://C:\Users\Peter\Desktop\new frictional work\large_inside\large_inside\originals\large_inside_ilumm.psd</init_from></image>
  </library_images>
  <library_materials>
    <material id="_01 - Default" name="_01 - Default">
      <instance_effect url="#_01 - Default-fx"/>
    </material>
  </library_materials>
  <library_effects>
    <effect id="_01 - Default-fx" name="_01 - Default">
      <profile_COMMON>
        <technique sid="standard">
          <phong>
            <emission>
              <texture texture="Map #4-image" texcoord="CHANNEL0">
                <extra>
                  <technique profile="MAYA">
                    <wrapU sid="wrapU0">TRUE</wrapU>
                    <wrapV sid="wrapV0">TRUE</wrapV>
                    <blend_mode>ADD</blend_mode>
                  </technique>
                </extra>
              </texture>
            </emission>
            <ambient>
              <color sid="ambient">0.588235  0.588235 0.588235 1.000000</color>
            </ambient>
            <diffuse>
              <texture texture="Map #2-image" texcoord="CHANNEL0">
                <extra>
                  <technique profile="MAYA">
                    <wrapU sid="wrapU0">TRUE</wrapU>
                    <wrapV sid="wrapV0">TRUE</wrapV>
                    <blend_mode>ADD</blend_mode>
                  </technique>
                </extra>
              </texture>
            </diffuse>
            <specular>
              <color sid="specular">0.000000  0.000000 0.000000 1.000000</color>
            </specular>
            <shininess>
              <float sid="shininess">2.000000</float>
            </shininess>
            <reflective>
              <color sid="reflective">0.000000  0.000000 0.000000 1.000000</color>
            </reflective>
            <reflectivity>
              <float sid="reflectivity">1.000000</float>
            </reflectivity>
            <transparent opaque="RGB_ZERO">
              <color sid="transparent">1.000000  1.000000 1.000000 1.000000</color>
            </transparent>
            <transparency>
              <float sid="transparency">0.000000</float>
            </transparency>
          </phong>
        </technique>
      </profile_COMMON>
    </effect>
  </library_effects>
  <library_geometries>
    <geometry id="large_inside-lib" name="large_insideMesh">
      <mesh>
        <source id="large_inside-POSITION">
          <float_array id="large_inside-POSITION-array" count="564">
-20.471800 -0.000001 8.988200
-23.181499 -0.000001 5.522800
-23.181499 -1.063801 5.522800
-20.471800 -1.063801 8.988200
-0.919200 -4.646399 -9.127801
-21.731600 -4.646399 -9.065801
-23.181499 -1.063798 -10.577200
-0.188300 -1.063798 -10.641600
-20.043301 -4.635001 4.562799
-21.731600 -4.646401 5.522899
-20.044901 -4.634999 -7.750501
-19.733500 -4.646401 7.874699
-18.656300 -4.636901 6.284899
0.395200 -4.646401 7.810299
1.845100 -1.063801 8.923700
1.845100 -0.000001 8.923700
-20.044901 -3.798999 -7.750501
-2.566900 -3.798999 -7.805201
-1.237300 -3.798999 -6.083100
-0.187400 0.000002 -10.641600
1.845100 0.000001 -7.006800
1.845100 -1.063799 -7.006800
0.395200 -4.646399 -7.006901
-23.181499 0.000002 -10.577200
-2.566900 -4.634999 -7.805201
-18.656300 -3.799001 6.284900
-20.043301 -3.799001 4.562799
-1.236400 -3.799001 6.230199
-1.236400 -4.636901 6.230199
-1.237300 -4.634999 -6.083101
-18.572302 -0.035225 8.994860
-16.538210 -0.035225 8.994860
-18.572302 -0.035225 10.340670
-16.538210 -0.035225 10.340670
-18.572302 -1.060195 8.994860
-16.538210 -1.060195 8.994860
-18.572302 -1.060195 10.340669
-16.538210 -1.060195 10.340669
-18.572302 -4.634408 7.879694
-16.538210 -4.634407 7.879694
-16.538210 -4.956091 8.179378
-18.572302 -4.956091 8.179378
-18.572302 -4.634319 6.816696
-16.538210 -4.634317 6.816696
-16.538210 -4.866403 6.816027
-18.572302 -4.866405 6.816027
-1.277870 -0.035225 8.994860
-3.311961 -0.035225 8.994860
-1.277870 -0.035225 10.340670
-3.311961 -0.035225 10.340670
-1.277870 -1.060195 8.994860
-3.311961 -1.060195 8.994860
-1.277870 -1.060195 10.340669
-3.311961 -1.060195 10.340669
-1.277870 -4.634408 7.879694
-3.311960 -4.634407 7.879694
-3.311961 -4.956091 8.179378
-1.277870 -4.956091 8.179378
-1.277870 -4.634319 6.816696
-3.311960 -4.634317 6.816696
-3.311961 -4.866403 6.816027
-1.277870 -4.866405 6.816027
-2.646997 -0.035225 -10.634922
-4.681088 -0.035225 -10.634922
-2.646997 -0.035225 -11.980732
-4.681088 -0.035225 -11.980732
-2.646997 -1.060194 -10.634922
-4.681087 -1.060195 -10.634922
-2.646997 -1.060194 -11.980731
-4.681087 -1.060195 -11.980731
-2.646996 -4.634408 -9.056853
-4.681087 -4.634407 -9.056853
-4.681087 -4.956091 -9.356537
-2.646997 -4.956091 -9.356537
-2.646996 -4.634319 -8.011675
-4.681087 -4.634317 -8.011675
-4.681087 -4.866403 -8.011005
-2.646997 -4.866405 -8.011005
-18.572302 -0.035225 -10.634922
-16.538210 -0.035225 -10.634922
-18.572302 -0.035225 -11.980732
-16.538210 -0.035225 -11.980732
-18.572302 -1.060194 -10.634922
-16.538210 -1.060195 -10.634922
-18.572302 -1.060194 -11.980731
-16.538210 -1.060195 -11.980731
-18.572302 -4.634408 -9.056853
-16.538212 -4.634407 -9.056853
-16.538212 -4.956091 -9.356537
-18.572302 -4.956091 -9.356537
-18.572302 -4.634319 -8.011675
-16.538212 -4.634317 -8.011675
-16.538212 -4.866403 -8.011005
-18.572302 -4.866405 -8.011005
-21.833359 -3.600203 -1.805432
-21.875462 -3.493876 -1.378637
-21.990486 -3.203384 -1.066201
-22.147614 -2.806566 -0.951842
-22.304741 -2.409748 -1.066201
-22.419765 -2.119256 -1.378637
-22.461868 -2.012929 -1.805432
-22.419765 -2.119256 -2.232227
-22.304741 -2.409747 -2.544662
-22.147614 -2.806566 -2.659022
-21.990486 -3.203384 -2.544662
-21.875462 -3.493876 -2.232227
-22.239231 -3.760915 -1.805432
-22.281334 -3.654588 -1.378637
-22.396358 -3.364097 -1.066201
-22.553486 -2.967278 -0.951842
-22.710613 -2.570460 -1.066201
-22.825638 -2.279969 -1.378637
-22.867741 -2.173641 -1.805432
-22.825638 -2.279968 -2.232227
-22.710613 -2.570460 -2.544662
-22.553486 -2.967278 -2.659022
-22.396358 -3.364096 -2.544662
-22.281334 -3.654588 -2.232227
-22.061663 -3.023632 -1.805432
-22.061676 -3.023597 -1.486420
-22.062689 -3.021038 -1.224586
-22.147614 -2.806566 -1.224010
-22.232538 -2.592094 -1.224586
-22.233547 -2.589542 -1.486420
-22.233570 -2.589486 -1.805432
-22.233547 -2.589542 -2.124443
-22.232538 -2.592094 -2.385906
-22.147614 -2.806566 -2.387597
-22.062689 -3.021037 -2.385906
-22.061676 -3.023597 -2.124444
-22.079342 -2.978985 -1.805432
-22.088488 -2.955885 -1.645926
-22.113478 -2.892776 -1.529160
-22.147614 -2.806566 -1.486420
-22.181749 -2.720356 -1.529160
-22.206739 -2.657247 -1.645926
-22.215885 -2.634147 -1.805432
-22.206739 -2.657247 -1.964938
-22.181749 -2.720356 -2.081704
-22.147614 -2.806566 -2.124443
-22.113478 -2.892776 -2.081704
-22.088488 -2.955885 -1.964938
-22.147614 -2.806566 -1.805432
-21.909443 -3.568870 -1.345603
-22.205223 -3.685989 -1.345603
-22.159861 -3.800546 -1.805432
-21.864082 -3.683427 -1.805432
-22.033371 -3.255895 -1.008985
-22.329151 -3.373014 -1.008985
-22.202660 -2.828363 -0.885774
-22.498440 -2.945482 -0.885774
-22.371948 -2.400831 -1.008985
-22.667728 -2.517950 -1.008985
-22.495876 -2.087855 -1.345603
-22.791656 -2.204974 -1.345603
-22.541237 -1.973298 -1.805432
-22.837017 -2.090417 -1.805432
-22.495876 -2.087855 -2.265260
-22.791656 -2.204974 -2.265260
-22.371948 -2.400830 -2.601879
-22.667728 -2.517949 -2.601879
-22.202660 -2.828362 -2.725090
-22.498440 -2.945481 -2.725090
-22.033371 -3.255894 -2.601879
-22.329151 -3.373013 -2.601879
-21.909443 -3.568870 -2.265261
-22.205223 -3.685989 -2.265261
-22.553486 -2.967278 -1.805432
-22.405779 -0.521136 -9.072615
-3.215040 -0.521136 -9.072615
-22.323015 3.903791 -9.072615
-3.132277 3.903791 -9.072615
-22.405779 -0.521136 5.665535
-3.215040 -0.521136 5.665535
-22.323015 3.903791 5.665535
-3.132277 3.903791 5.665535
-10.666654 -4.634254 6.075187
-10.666656 -4.634249 -7.647763
-1.448570 -4.634251 -6.082778
-10.666655 -4.634253 -6.070801
-1.447775 -4.634253 6.049146
-2.654379 -4.634249 -7.673480
-10.666654 -3.546363 6.075187
-10.666656 -3.546358 -7.647763
-1.448570 -3.546360 -6.082778
-10.666655 -3.546362 -6.070801
-1.447775 -3.546362 6.049146
-2.654379 -3.546359 -7.673480
</float_array>
          <technique_common>
            <accessor source="#large_inside-POSITION-array" count="188" stride="3">
              <param name="X" type="float"/>
              <param name="Y" type="float"/>
              <param name="Z" type="float"/>
            </accessor>
          </technique_common>
        </source>
        <source id="large_inside-Normal0">
          <float_array id="large_inside-Normal0-array" count="3042">
-0.945435 -0.000000 0.325810
-0.787753 -0.000000 0.615992
-0.787753 -0.000000 0.615992
-0.787753 -0.000000 0.615992
-0.945435 -0.000000 0.325810
-0.945435 -0.000000 0.325810
-0.002685 -0.389194 -0.921152
-0.002685 -0.389194 -0.921152
-0.002685 -0.389194 -0.921152
-0.002685 -0.389194 -0.921152
-0.002685 -0.389194 -0.921152
-0.002685 -0.389194 -0.921152
0.003815 -0.999986 0.003719
0.003242 -0.999984 0.004577
0.005531 -0.999983 -0.001717
0.005531 -0.999983 -0.001717
0.005531 -0.999982 -0.002193
0.003815 -0.999986 0.003719
-0.736996 -0.317805 0.596521
-0.736996 -0.317805 0.596521
-0.736996 -0.317805 0.596521
-0.736996 -0.317805 0.596521
-0.736996 -0.317805 0.596521
-0.736996 -0.317805 0.596521
0.002289 -0.999986 -0.004721
0.005531 -0.999982 -0.002193
0.005531 -0.999983 -0.001717
0.005531 -0.999983 -0.001717
0.001526 -0.999986 -0.005007
0.002289 -0.999986 -0.004721
0.002879 -0.297090 0.954845
0.002879 -0.297090 0.954845
0.002879 -0.297090 0.954845
0.002879 -0.297090 0.954845
0.002879 -0.297090 0.954845
0.002879 -0.297090 0.954845
0.000000 1.000000 0.000000
0.000000 1.000000 0.000000
0.000000 1.000000 0.000000
0.000000 -1.000000 0.000000
0.000000 -1.000000 0.000000
0.000000 -1.000000 0.000000
0.967677 -0.000095 -0.252192
0.872730 -0.000799 -0.488203
0.872730 -0.000600 -0.488203
0.872730 -0.000600 -0.488203
0.967677 0.000000 -0.252192
0.967677 -0.000095 -0.252192
0.810917 -0.346418 -0.471602
0.810917 -0.346418 -0.471602
0.810917 -0.346418 -0.471602
0.810917 -0.346418 -0.471602
0.810917 -0.346418 -0.471602
0.810917 -0.346418 -0.471602
-0.002830 0.000000 -0.999996
-0.002830 0.000000 -0.999996
-0.002830 0.000000 -0.999996
-0.002830 0.000000 -0.999996
-0.002830 0.000000 -0.999996
-0.002830 0.000000 -0.999996
-0.003201 -0.999983 0.004959
-0.001693 -0.999977 0.006580
0.003242 -0.999984 0.004577
0.003242 -0.999984 0.004577
0.003815 -0.999986 0.003719
-0.003201 -0.999983 0.004959
0.000000 -1.000000 0.000000
0.000000 -1.000000 0.000000
0.000000 -1.000000 0.000000
0.000000 1.000000 0.000000
0.000000 1.000000 0.000000
0.000000 1.000000 0.000000
0.002289 -0.999986 -0.004721
0.001526 -0.999986 -0.005007
-0.002801 -0.999991 -0.003099
-0.002801 -0.999991 -0.003099
-0.003001 -0.999991 -0.003004
0.002289 -0.999986 -0.004721
0.926989 -0.375088 0.000000
0.926989 -0.375088 0.000000
0.926989 -0.375088 0.000000
0.926989 -0.375088 0.000000
0.926989 -0.375088 0.000000
0.926989 -0.375088 0.000000
-0.005996 -0.999981 0.001478
-0.001693 -0.999977 0.006580
-0.003201 -0.999983 0.004959
-0.003201 -0.999983 0.004959
-0.005901 -0.999981 0.001907
-0.005996 -0.999981 0.001478
0.000000 -1.000000 0.000000
0.000000 -1.000000 0.000000
0.000000 -1.000000 0.000000
0.000000 -1.000000 0.000000
0.000000 -1.000000 0.000000
0.000000 -1.000000 0.000000
-0.005996 -0.999981 0.001478
-0.005901 -0.999981 0.001907
-0.003001 -0.999991 -0.003004
-0.003001 -0.999991 -0.003004
-0.002801 -0.999991 -0.003099
-0.005996 -0.999981 0.001478
0.000000 1.000000 0.000000
0.000000 1.000000 0.000000
0.000000 1.000000 0.000000
0.000000 1.000000 0.000000
0.000000 1.000000 0.000000
0.000000 1.000000 0.000000
-0.945435 -0.000000 0.325810
-0.945435 -0.000000 0.325810
-1.000000 0.000000 0.000000
-1.000000 0.000000 0.000000
-1.000000 0.000000 0.000000
-0.945435 -0.000000 0.325810
-0.791527 0.000000 0.611134
-0.791527 0.000000 0.611134
-0.791527 0.000000 0.611134
-0.791527 0.000000 0.611134
-0.791527 0.000000 0.611134
-0.791527 0.000000 0.611134
-1.000000 0.000000 0.000095
-1.000000 0.000000 0.000095
-1.000000 0.000000 0.000095
-1.000000 0.000000 0.000095
-1.000000 0.000000 0.000095
-1.000000 0.000000 0.000095
0.778785 0.000000 -0.627291
0.778785 0.000000 -0.627291
0.778785 0.000000 -0.627291
0.778785 0.000000 -0.627291
0.778785 0.000000 -0.627291
0.778785 0.000000 -0.627291
1.000000 0.000000 -0.000095
1.000000 0.000000 -0.000095
1.000000 0.000000 -0.000095
1.000000 0.000000 -0.000095
1.000000 0.000000 -0.000095
1.000000 0.000000 -0.000095
0.003076 0.000000 0.999995
0.003076 0.000000 0.999995
0.003076 0.000000 0.999995
0.003076 0.000000 0.999995
0.003076 0.000000 0.999995
0.003076 0.000000 0.999995
-0.926985 -0.375098 0.000000
-0.926985 -0.375098 0.000000
-0.926985 -0.375098 0.000000
-0.926985 -0.375098 0.000000
-0.926985 -0.375098 0.000000
-0.926985 -0.375098 0.000000
-0.003076 0.000000 -0.999995
-0.003076 0.000000 -0.999995
-0.003076 0.000000 -0.999995
-0.003076 0.000000 -0.999995
-0.003076 0.000000 -0.999995
-0.003076 0.000000 -0.999995
0.967677 0.000000 -0.252192
1.000000 0.000000 0.000000
1.000000 0.000000 0.000000
1.000000 0.000000 0.000000
0.967677 -0.000095 -0.252192
0.967677 0.000000 -0.252192
0.002879 -0.000000 0.999996
0.002879 -0.000000 0.999996
0.002879 -0.000000 0.999996
0.002879 -0.000000 0.999996
0.002879 -0.000000 0.999996
0.002879 -0.000000 0.999996
0.000000 1.000000 0.000000
0.000000 1.000000 0.000000
0.000000 1.000000 0.000000
0.000000 1.000000 0.000000
0.000000 1.000000 0.000000
0.000000 1.000000 0.000000
-0.000000 0.002883 -0.999996
-0.000000 0.002883 -0.999996
-0.000000 0.002883 -0.999996
-0.000000 0.002883 -0.999996
-0.000000 0.002883 -0.999996
-0.000000 0.002883 -0.999996
0.000000 0.150640 -0.988589
0.000000 0.000000 -1.000000
0.000000 0.000000 -1.000000
0.000000 0.000000 -1.000000
-0.000000 0.150640 -0.988589
0.000000 0.150640 -0.988589
1.000000 0.000000 0.000000
1.000000 0.000000 0.000000
1.000000 0.000000 0.000000
1.000000 0.000000 0.000000
1.000000 0.000000 0.000000
1.000000 0.000000 0.000000
0.000000 -0.250548 0.968104
0.000000 -0.000001 1.000000
0.000000 -0.000001 1.000000
0.000000 -0.000001 1.000000
0.000000 -0.250548 0.968104
0.000000 -0.250548 0.968104
-1.000000 0.000000 0.000000
-1.000000 0.000000 0.000000
-1.000000 0.000000 0.000000
-1.000000 0.000000 0.000000
-1.000000 0.000000 0.000000
-1.000000 0.000000 0.000000
1.000000 0.000000 0.000000
1.000000 0.000000 0.000000
1.000000 0.000000 0.000000
1.000000 0.000000 0.000000
1.000000 0.000000 0.000000
1.000000 0.000000 0.000000
-1.000000 0.000000 0.000000
-1.000000 0.000000 0.000000
-1.000000 0.000000 0.000000
-1.000000 0.000000 0.000000
-1.000000 0.000000 0.000000
-1.000000 0.000000 0.000000
-0.000001 1.000000 0.000085
-0.000001 1.000000 0.000085
-0.000001 1.000000 0.000084
-0.000001 1.000000 0.000084
-0.000000 1.000000 0.000084
-0.000001 1.000000 0.000085
1.000000 0.000000 0.000000
1.000000 0.000000 0.000000
1.000000 0.000000 0.000000
1.000000 0.000000 0.000000
1.000000 0.000000 0.000000
1.000000 0.000000 0.000000
0.000001 -0.997843 -0.065642
0.000001 -0.997843 -0.065642
0.000000 -0.997843 -0.065643
0.000000 -0.997843 -0.065643
0.000000 -0.997843 -0.065643
0.000001 -0.997843 -0.065642
-1.000000 0.000000 0.000000
-1.000000 0.000000 0.000000
-1.000000 0.000000 0.000000
-1.000000 0.000000 0.000000
-1.000000 0.000000 0.000000
-1.000000 0.000000 0.000000
-0.000000 0.297843 -0.954615
0.000000 0.150640 -0.988589
-0.000000 0.150640 -0.988589
-0.000000 0.150640 -0.988589
-0.000000 0.297843 -0.954615
-0.000000 0.297843 -0.954615
0.000000 -0.485112 0.874452
0.000000 -0.250548 0.968104
0.000000 -0.250548 0.968104
0.000000 -0.250548 0.968104
0.000000 -0.485112 0.874452
0.000000 -0.485112 0.874452
0.000000 1.000000 0.000000
0.000000 1.000000 0.000000
0.000000 1.000000 0.000000
0.000000 1.000000 0.000000
0.000000 1.000000 0.000000
0.000000 1.000000 0.000000
0.000000 0.002883 -0.999996
0.000000 0.002883 -0.999996
0.000000 0.002883 -0.999996
0.000000 0.002883 -0.999996
0.000000 0.002883 -0.999996
0.000000 0.002883 -0.999996
0.000000 0.150640 -0.988589
0.000000 0.150640 -0.988589
0.000000 0.000000 -1.000000
0.000000 0.000000 -1.000000
0.000000 0.000000 -1.000000
0.000000 0.150640 -0.988589
-1.000000 -0.000000 0.000000
-1.000000 -0.000000 -0.000000
-1.000000 0.000000 0.000000
-1.000000 0.000000 0.000000
-1.000000 0.000000 0.000000
-1.000000 -0.000000 0.000000
0.000000 -0.250548 0.968104
0.000000 -0.250548 0.968104
0.000000 -0.000001 1.000000
0.000000 -0.000001 1.000000
0.000000 -0.000001 1.000000
0.000000 -0.250548 0.968104
1.000000 -0.000000 0.000000
1.000000 0.000000 0.000000
1.000000 -0.000000 0.000000
1.000000 -0.000000 0.000000
1.000000 -0.000000 0.000000
1.000000 -0.000000 0.000000
-1.000000 0.000001 -0.000000
-1.000000 0.000000 -0.000000
-1.000000 -0.000000 -0.000000
-1.000000 -0.000000 -0.000000
-1.000000 -0.000000 0.000000
-1.000000 0.000001 -0.000000
1.000000 -0.000000 0.000000
1.000000 -0.000000 0.000000
1.000000 -0.000000 0.000000
1.000000 -0.000000 0.000000
1.000000 -0.000000 0.000000
1.000000 -0.000000 0.000000
0.000001 1.000000 0.000085
0.000000 1.000000 0.000084
0.000001 1.000000 0.000084
0.000001 1.000000 0.000084
0.000001 1.000000 0.000085
0.000001 1.000000 0.000085
-1.000000 0.000001 0.000000
-1.000000 0.000000 -0.000000
-1.000000 0.000001 -0.000000
-1.000000 0.000001 -0.000000
-1.000000 0.000001 0.000000
-1.000000 0.000001 0.000000
-0.000001 -0.997843 -0.065642
0.000000 -0.997843 -0.065643
-0.000000 -0.997843 -0.065643
-0.000000 -0.997843 -0.065643
-0.000001 -0.997843 -0.065642
-0.000001 -0.997843 -0.065642
1.000000 -0.000001 -0.000000
1.000000 -0.000001 -0.000000
1.000000 -0.000000 0.000000
1.000000 -0.000000 0.000000
1.000000 -0.000000 0.000000
1.000000 -0.000001 -0.000000
0.000000 0.297843 -0.954615
0.000000 0.297843 -0.954615
0.000000 0.150640 -0.988589
0.000000 0.150640 -0.988589
0.000000 0.150640 -0.988589
0.000000 0.297843 -0.954615
0.000000 -0.485112 0.874452
0.000000 -0.485112 0.874452
0.000000 -0.250548 0.968104
0.000000 -0.250548 0.968104
0.000000 -0.250548 0.968104
0.000000 -0.485112 0.874452
-1.000000 -0.000000 0.000000
-1.000000 -0.000000 0.000000
-1.000000 -0.000000 0.000000
-1.000000 -0.000000 0.000000
-1.000000 -0.000000 0.000000
-1.000000 -0.000000 0.000000
1.000000 0.000000 0.000000
1.000000 0.000000 0.000000
1.000000 0.000000 0.000000
1.000000 0.000000 0.000000
1.000000 0.000000 -0.000000
1.000000 0.000000 0.000000
-1.000000 0.000000 0.000000
-1.000000 -0.000000 0.000000
-1.000000 -0.000000 0.000000
-1.000000 -0.000000 0.000000
-1.000000 0.000000 0.000000
-1.000000 0.000000 0.000000
1.000000 -0.000000 -0.000000
1.000000 0.000000 0.000000
1.000000 0.000000 -0.000000
1.000000 0.000000 -0.000000
1.000000 -0.000001 -0.000000
1.000000 -0.000000 -0.000000
-1.000000 0.000000 0.000000
-1.000000 0.000000 0.000000
-1.000000 0.000000 0.000000
-1.000000 0.000000 0.000000
-1.000000 0.000000 0.000000
-1.000000 0.000000 0.000000
1.000000 -0.000001 0.000000
1.000000 -0.000000 -0.000000
1.000000 -0.000001 -0.000000
1.000000 -0.000001 -0.000000
1.000000 -0.000001 0.000000
1.000000 -0.000001 0.000000
-0.000000 1.000000 -0.000000
-0.000000 1.000000 -0.000000
-0.000000 1.000000 -0.000000
-0.000000 1.000000 -0.000000
-0.000000 1.000000 -0.000000
-0.000000 1.000000 -0.000000
0.000000 0.002885 0.999996
0.000000 0.002885 0.999996
0.000000 0.002885 0.999996
0.000000 0.002885 0.999996
0.000000 0.002885 0.999996
0.000000 0.002885 0.999996
0.000000 0.000000 1.000000
0.000000 0.000000 1.000000
0.000000 0.206394 0.978469
0.000000 0.206394 0.978469
-0.000000 0.206394 0.978469
0.000000 0.000000 1.000000
0.000000 -0.000001 -1.000000
0.000000 -0.000001 -1.000000
0.000000 -0.000001 -1.000000
0.000000 -0.000001 -1.000000
0.000000 -0.000001 -1.000000
0.000000 -0.000001 -1.000000
0.000000 -0.558663 -0.829395
0.000000 -0.558663 -0.829395
0.000000 -0.558663 -0.829395
0.000000 -0.558663 -0.829395
0.000000 -0.558663 -0.829395
0.000000 -0.558663 -0.829395
0.000001 1.000000 -0.000086
0.000000 1.000000 -0.000085
0.000001 1.000000 -0.000086
0.000001 1.000000 -0.000086
0.000001 1.000000 -0.000086
0.000001 1.000000 -0.000086
-0.000001 -0.997786 0.066508
-0.000001 -0.997786 0.066507
-0.000000 -0.997786 0.066508
-0.000000 -0.997786 0.066508
0.000000 -0.997786 0.066509
-0.000001 -0.997786 0.066508
0.000000 0.403899 0.914803
-0.000000 0.206394 0.978469
0.000000 0.206394 0.978469
0.000000 0.206394 0.978469
0.000000 0.403900 0.914803
0.000000 0.403899 0.914803
1.000000 -0.000000 0.000000
1.000000 -0.000000 0.000000
1.000000 0.000000 0.000000
1.000000 0.000000 0.000000
1.000000 0.000000 0.000000
1.000000 -0.000000 0.000000
-1.000000 0.000000 0.000000
-1.000000 0.000000 0.000000
-1.000000 0.000000 0.000000
-1.000000 0.000000 0.000000
-1.000000 0.000000 0.000000
-1.000000 0.000000 0.000000
1.000000 -0.000000 0.000000
1.000000 -0.000000 0.000000
1.000000 -0.000000 0.000000
1.000000 -0.000000 0.000000
1.000000 -0.000000 0.000000
1.000000 -0.000000 0.000000
-1.000000 0.000000 0.000000
-1.000000 0.000000 0.000000
-1.000000 0.000000 0.000000
-1.000000 0.000000 0.000000
-1.000000 0.000000 0.000000
-1.000000 0.000000 0.000000
1.000000 0.000000 0.000000
1.000000 0.000000 0.000000
1.000000 -0.000000 0.000000
1.000000 -0.000000 0.000000
1.000000 -0.000000 0.000000
1.000000 0.000000 0.000000
-1.000000 0.000000 0.000000
-1.000000 0.000000 0.000000
-1.000000 0.000000 0.000000
-1.000000 0.000000 0.000000
-1.000000 0.000000 0.000000
-1.000000 0.000000 0.000000
0.000000 1.000000 -0.000000
0.000000 1.000000 -0.000000
0.000000 1.000000 -0.000000
0.000000 1.000000 -0.000000
0.000000 1.000000 -0.000000
0.000000 1.000000 -0.000000
-0.000000 0.002885 0.999996
-0.000000 0.002885 0.999996
-0.000000 0.002885 0.999996
-0.000000 0.002885 0.999996
-0.000000 0.002885 0.999996
-0.000000 0.002885 0.999996
0.000000 0.000000 1.000000
0.000000 0.206393 0.978469
-0.000000 0.206394 0.978469
-0.000000 0.206394 0.978469
0.000000 0.000000 1.000000
0.000000 0.000000 1.000000
-0.000000 -0.000001 -1.000000
-0.000000 -0.000001 -1.000000
-0.000000 -0.000001 -1.000000
-0.000000 -0.000001 -1.000000
-0.000000 -0.000001 -1.000000
-0.000000 -0.000001 -1.000000
-0.000000 -0.558663 -0.829395
-0.000000 -0.558663 -0.829395
-0.000000 -0.558663 -0.829395
-0.000000 -0.558663 -0.829395
0.000000 -0.558663 -0.829395
-0.000000 -0.558663 -0.829395
-0.000001 1.000000 -0.000086
-0.000001 1.000000 -0.000086
-0.000001 1.000000 -0.000086
-0.000001 1.000000 -0.000086
-0.000000 1.000000 -0.000085
-0.000001 1.000000 -0.000086
0.000001 -0.997786 0.066508
0.000000 -0.997786 0.066509
0.000000 -0.997786 0.066508
0.000000 -0.997786 0.066508
0.000001 -0.997786 0.066507
0.000001 -0.997786 0.066508
-0.000000 0.403899 0.914803
-0.000000 0.403899 0.914803
-0.000000 0.206394 0.978469
-0.000000 0.206394 0.978469
0.000000 0.206393 0.978469
-0.000000 0.403899 0.914803
-0.063393 -0.884862 0.461519
-0.017861 -0.999841 0.000000
0.697508 -0.716577 -0.000000
0.697508 -0.716577 -0.000000
0.651983 -0.601597 0.461519
-0.063393 -0.884862 0.461519
-0.187777 -0.570737 0.799374
-0.063393 -0.884862 0.461519
0.651983 -0.601597 0.461519
0.651983 -0.601597 0.461519
0.527598 -0.287472 0.799375
-0.187777 -0.570737 0.799374
-0.357688 -0.141633 0.923038
-0.187777 -0.570737 0.799374
0.527598 -0.287472 0.799375
0.527598 -0.287472 0.799375
0.357688 0.141632 0.923038
-0.357688 -0.141633 0.923038
-0.527598 0.287472 0.799375
-0.357688 -0.141633 0.923038
0.357688 0.141632 0.923038
0.357688 0.141632 0.923038
0.187777 0.570737 0.799374
-0.527598 0.287472 0.799375
-0.651983 0.601596 0.461519
-0.527598 0.287472 0.799375
0.187777 0.570737 0.799374
0.187777 0.570737 0.799374
0.063392 0.884862 0.461520
-0.651983 0.601596 0.461519
-0.697508 0.716577 -0.000000
-0.651983 0.601596 0.461519
0.063392 0.884862 0.461520
0.063392 0.884862 0.461520
0.017866 0.999840 0.000000
-0.697508 0.716577 -0.000000
-0.651983 0.601597 -0.461518
-0.697508 0.716577 -0.000000
0.017866 0.999840 0.000000
0.017866 0.999840 0.000000
0.063392 0.884863 -0.461519
-0.651983 0.601597 -0.461518
-0.527598 0.287472 -0.799375
-0.651983 0.601597 -0.461518
0.063392 0.884863 -0.461519
0.063392 0.884863 -0.461519
0.187779 0.570737 -0.799374
-0.527598 0.287472 -0.799375
-0.357688 -0.141632 -0.923038
-0.527598 0.287472 -0.799375
0.187779 0.570737 -0.799374
0.187779 0.570737 -0.799374
0.357688 0.141633 -0.923038
-0.357688 -0.141632 -0.923038
-0.187779 -0.570736 -0.799374
-0.357688 -0.141632 -0.923038
0.357688 0.141633 -0.923038
0.357688 0.141633 -0.923038
0.527598 -0.287471 -0.799375
-0.187779 -0.570736 -0.799374
-0.063392 -0.884862 -0.461520
-0.187779 -0.570736 -0.799374
0.527598 -0.287471 -0.799375
0.527598 -0.287471 -0.799375
0.651983 -0.601596 -0.461519
-0.063392 -0.884862 -0.461520
-0.017861 -0.999841 0.000000
-0.063392 -0.884862 -0.461520
0.651983 -0.601596 -0.461519
0.651983 -0.601596 -0.461519
0.697508 -0.716577 -0.000000
-0.017861 -0.999841 0.000000
0.979048 0.008674 0.203446
0.999117 -0.042016 -0.000000
0.929762 0.368161 0.000002
0.929762 0.368161 0.000002
0.929765 0.368153 -0.000002
0.979048 0.008674 0.203446
0.924217 0.147143 0.352381
0.979048 0.008674 0.203446
0.929765 0.368153 -0.000002
0.929765 0.368153 -0.000002
0.929764 0.368156 -0.000000
0.924217 0.147143 0.352381
0.849317 0.336303 0.406893
0.924217 0.147143 0.352381
0.929764 0.368156 -0.000000
0.929764 0.368156 -0.000000
0.929763 0.368159 -0.000001
0.849317 0.336303 0.406893
0.774418 0.525459 0.352378
0.849317 0.336303 0.406893
0.929763 0.368159 -0.000001
0.929763 0.368159 -0.000001
0.929763 0.368157 -0.000002
0.774418 0.525459 0.352378
0.719586 0.663932 0.203447
0.774418 0.525459 0.352378
0.929763 0.368157 -0.000002
0.929763 0.368157 -0.000002
0.929765 0.368155 0.000002
0.719586 0.663932 0.203447
0.699517 0.714616 0.000000
0.719586 0.663932 0.203447
0.929765 0.368155 0.000002
0.929765 0.368155 0.000002
0.929762 0.368161 0.000002
0.699517 0.714616 0.000000
0.719586 0.663932 -0.203446
0.699517 0.714616 0.000000
0.929762 0.368161 0.000002
0.929762 0.368161 0.000002
0.929768 0.368146 -0.000003
0.719586 0.663932 -0.203446
0.774419 0.525458 -0.352378
0.719586 0.663932 -0.203446
0.929768 0.368146 -0.000003
0.929768 0.368146 -0.000003
0.929765 0.368154 -0.000001
0.774419 0.525458 -0.352378
0.849317 0.336303 -0.406892
0.774419 0.525458 -0.352378
0.929765 0.368154 -0.000001
0.929765 0.368154 -0.000001
0.929763 0.368159 -0.000001
0.849317 0.336303 -0.406892
0.924217 0.147144 -0.352380
0.849317 0.336303 -0.406892
0.929763 0.368159 -0.000001
0.929763 0.368159 -0.000001
0.929763 0.368158 -0.000002
0.924217 0.147144 -0.352380
0.979048 0.008672 -0.203446
0.924217 0.147144 -0.352380
0.929763 0.368158 -0.000002
0.929763 0.368158 -0.000002
0.929763 0.368157 0.000001
0.979048 0.008672 -0.203446
0.999117 -0.042016 -0.000000
0.979048 0.008672 -0.203446
0.929763 0.368157 0.000001
0.929763 0.368157 0.000001
0.929762 0.368161 0.000002
0.999117 -0.042016 -0.000000
0.929765 0.368153 -0.000002
0.929762 0.368161 0.000002
0.929762 0.368160 0.000002
0.929762 0.368160 0.000002
0.929765 0.368154 -0.000002
0.929765 0.368153 -0.000002
0.929764 0.368156 -0.000000
0.929765 0.368153 -0.000002
0.929765 0.368154 -0.000002
0.929765 0.368154 -0.000002
0.929763 0.368159 0.000000
0.929764 0.368156 -0.000000
0.929763 0.368159 -0.000001
0.929764 0.368156 -0.000000
0.929763 0.368159 0.000000
0.929763 0.368159 0.000000
0.929765 0.368154 0.000001
0.929763 0.368159 -0.000001
0.929763 0.368157 -0.000002
0.929763 0.368159 -0.000001
0.929765 0.368154 0.000001
0.929765 0.368154 0.000001
0.929764 0.368155 0.000000
0.929763 0.368157 -0.000002
0.929765 0.368155 0.000002
0.929763 0.368157 -0.000002
0.929764 0.368155 0.000000
0.929764 0.368155 0.000000
0.929765 0.368154 -0.000001
0.929765 0.368155 0.000002
0.929762 0.368161 0.000002
0.929765 0.368155 0.000002
0.929765 0.368154 -0.000001
0.929765 0.368154 -0.000001
0.929763 0.368159 0.000002
0.929762 0.368161 0.000002
0.929768 0.368146 -0.000003
0.929762 0.368161 0.000002
0.929763 0.368159 0.000002
0.929763 0.368159 0.000002
0.929767 0.368150 -0.000001
0.929768 0.368146 -0.000003
0.929765 0.368154 -0.000001
0.929768 0.368146 -0.000003
0.929767 0.368150 -0.000001
0.929767 0.368150 -0.000001
0.929763 0.368159 0.000000
0.929765 0.368154 -0.000001
0.929763 0.368159 -0.000001
0.929765 0.368154 -0.000001
0.929763 0.368159 0.000000
0.929763 0.368159 0.000000
0.929765 0.368154 0.000001
0.929763 0.368159 -0.000001
0.929763 0.368158 -0.000002
0.929763 0.368159 -0.000001
0.929765 0.368154 0.000001
0.929765 0.368154 0.000001
0.929764 0.368157 0.000001
0.929763 0.368158 -0.000002
0.929763 0.368157 0.000001
0.929763 0.368158 -0.000002
0.929764 0.368157 0.000001
0.929764 0.368157 0.000001
0.929764 0.368157 0.000001
0.929763 0.368157 0.000001
0.929762 0.368161 0.000002
0.929763 0.368157 0.000001
0.929764 0.368157 0.000001
0.929764 0.368157 0.000001
0.929762 0.368160 0.000002
0.929762 0.368161 0.000002
0.929765 0.368154 -0.000002
0.929762 0.368160 0.000002
0.929764 0.368155 0.000000
0.929763 0.368159 0.000000
0.929765 0.368154 -0.000002
0.929764 0.368155 0.000000
0.929765 0.368154 0.000001
0.929763 0.368159 0.000000
0.929764 0.368155 0.000000
0.929764 0.368155 0.000000
0.929765 0.368154 0.000001
0.929764 0.368155 0.000000
0.929765 0.368154 -0.000001
0.929764 0.368155 0.000000
0.929764 0.368155 0.000000
0.929763 0.368159 0.000002
0.929765 0.368154 -0.000001
0.929764 0.368155 0.000000
0.929767 0.368150 -0.000001
0.929763 0.368159 0.000002
0.929764 0.368155 0.000000
0.929763 0.368159 0.000000
0.929767 0.368150 -0.000001
0.929764 0.368155 0.000000
0.929765 0.368154 0.000001
0.929763 0.368159 0.000000
0.929764 0.368155 0.000000
0.929764 0.368157 0.000001
0.929765 0.368154 0.000001
0.929764 0.368155 0.000000
0.929764 0.368157 0.000001
0.929764 0.368157 0.000001
0.929764 0.368155 0.000000
0.929762 0.368160 0.000002
0.929764 0.368157 0.000001
0.929764 0.368155 0.000000
-0.719586 -0.663932 0.203446
-0.699514 -0.714619 0.000000
-0.017861 -0.999841 0.000000
-0.017861 -0.999841 0.000000
-0.063393 -0.884862 0.461519
-0.719586 -0.663932 0.203446
0.999117 -0.042016 -0.000000
0.979048 0.008674 0.203446
0.651983 -0.601597 0.461519
0.651983 -0.601597 0.461519
0.697508 -0.716577 -0.000000
0.999117 -0.042016 -0.000000
-0.774417 -0.525459 0.352378
-0.719586 -0.663932 0.203446
-0.063393 -0.884862 0.461519
-0.063393 -0.884862 0.461519
-0.187777 -0.570737 0.799374
-0.774417 -0.525459 0.352378
0.979048 0.008674 0.203446
0.924217 0.147143 0.352381
0.527598 -0.287472 0.799375
0.527598 -0.287472 0.799375
0.651983 -0.601597 0.461519
0.979048 0.008674 0.203446
-0.849317 -0.336302 0.406892
-0.774417 -0.525459 0.352378
-0.187777 -0.570737 0.799374
-0.187777 -0.570737 0.799374
-0.357688 -0.141633 0.923038
-0.849317 -0.336302 0.406892
0.924217 0.147143 0.352381
0.849317 0.336303 0.406893
0.357688 0.141632 0.923038
0.357688 0.141632 0.923038
0.527598 -0.287472 0.799375
0.924217 0.147143 0.352381
-0.924217 -0.147144 0.352380
-0.849317 -0.336302 0.406892
-0.357688 -0.141633 0.923038
-0.357688 -0.141633 0.923038
-0.527598 0.287472 0.799375
-0.924217 -0.147144 0.352380
0.849317 0.336303 0.406893
0.774418 0.525459 0.352378
0.187777 0.570737 0.799374
0.187777 0.570737 0.799374
0.357688 0.141632 0.923038
0.849317 0.336303 0.406893
-0.979048 -0.008674 0.203446
-0.924217 -0.147144 0.352380
-0.527598 0.287472 0.799375
-0.527598 0.287472 0.799375
-0.651983 0.601596 0.461519
-0.979048 -0.008674 0.203446
0.774418 0.525459 0.352378
0.719586 0.663932 0.203447
0.063392 0.884862 0.461520
0.063392 0.884862 0.461520
0.187777 0.570737 0.799374
0.774418 0.525459 0.352378
-0.999117 0.042015 -0.000001
-0.979048 -0.008674 0.203446
-0.651983 0.601596 0.461519
-0.651983 0.601596 0.461519
-0.697508 0.716577 -0.000000
-0.999117 0.042015 -0.000001
0.719586 0.663932 0.203447
0.699517 0.714616 0.000000
0.017866 0.999840 0.000000
0.017866 0.999840 0.000000
0.063392 0.884862 0.461520
0.719586 0.663932 0.203447
-0.979048 -0.008673 -0.203446
-0.999117 0.042015 -0.000001
-0.697508 0.716577 -0.000000
-0.697508 0.716577 -0.000000
-0.651983 0.601597 -0.461518
-0.979048 -0.008673 -0.203446
0.699517 0.714616 0.000000
0.719586 0.663932 -0.203446
0.063392 0.884863 -0.461519
0.063392 0.884863 -0.461519
0.017866 0.999840 0.000000
0.699517 0.714616 0.000000
-0.924217 -0.147144 -0.352380
-0.979048 -0.008673 -0.203446
-0.651983 0.601597 -0.461518
-0.651983 0.601597 -0.461518
-0.527598 0.287472 -0.799375
-0.924217 -0.147144 -0.352380
0.719586 0.663932 -0.203446
0.774419 0.525458 -0.352378
0.187779 0.570737 -0.799374
0.187779 0.570737 -0.799374
0.063392 0.884863 -0.461519
0.719586 0.663932 -0.203446
-0.849317 -0.336302 -0.406892
-0.924217 -0.147144 -0.352380
-0.527598 0.287472 -0.799375
-0.527598 0.287472 -0.799375
-0.357688 -0.141632 -0.923038
-0.849317 -0.336302 -0.406892
0.774419 0.525458 -0.352378
0.849317 0.336303 -0.406892
0.357688 0.141633 -0.923038
0.357688 0.141633 -0.923038
0.187779 0.570737 -0.799374
0.774419 0.525458 -0.352378
-0.774419 -0.525458 -0.352378
-0.849317 -0.336302 -0.406892
-0.357688 -0.141632 -0.923038
-0.357688 -0.141632 -0.923038
-0.187779 -0.570736 -0.799374
-0.774419 -0.525458 -0.352378
0.849317 0.336303 -0.406892
0.924217 0.147144 -0.352380
0.527598 -0.287471 -0.799375
0.527598 -0.287471 -0.799375
0.357688 0.141633 -0.923038
0.849317 0.336303 -0.406892
-0.719586 -0.663932 -0.203447
-0.774419 -0.525458 -0.352378
-0.187779 -0.570736 -0.799374
-0.187779 -0.570736 -0.799374
-0.063392 -0.884862 -0.461520
-0.719586 -0.663932 -0.203447
0.924217 0.147144 -0.352380
0.979048 0.008672 -0.203446
0.651983 -0.601596 -0.461519
0.651983 -0.601596 -0.461519
0.527598 -0.287471 -0.799375
0.924217 0.147144 -0.352380
-0.699514 -0.714619 0.000000
-0.719586 -0.663932 -0.203447
-0.063392 -0.884862 -0.461520
-0.063392 -0.884862 -0.461520
-0.017861 -0.999841 0.000000
-0.699514 -0.714619 0.000000
0.979048 0.008672 -0.203446
0.999117 -0.042016 -0.000000
0.697508 -0.716577 -0.000000
0.697508 -0.716577 -0.000000
0.651983 -0.601596 -0.461519
0.979048 0.008672 -0.203446
-0.699514 -0.714619 0.000000
-0.719586 -0.663932 0.203446
-0.929764 -0.368156 -0.000000
-0.719586 -0.663932 0.203446
-0.774417 -0.525459 0.352378
-0.929764 -0.368156 -0.000000
-0.774417 -0.525459 0.352378
-0.849317 -0.336302 0.406892
-0.929764 -0.368156 -0.000000
-0.849317 -0.336302 0.406892
-0.924217 -0.147144 0.352380
-0.929764 -0.368156 -0.000000
-0.924217 -0.147144 0.352380
-0.979048 -0.008674 0.203446
-0.929764 -0.368156 -0.000000
-0.979048 -0.008674 0.203446
-0.999117 0.042015 -0.000001
-0.929764 -0.368156 -0.000000
-0.999117 0.042015 -0.000001
-0.979048 -0.008673 -0.203446
-0.929764 -0.368156 -0.000000
-0.979048 -0.008673 -0.203446
-0.924217 -0.147144 -0.352380
-0.929764 -0.368156 -0.000000
-0.924217 -0.147144 -0.352380
-0.849317 -0.336302 -0.406892
-0.929764 -0.368156 -0.000000
-0.849317 -0.336302 -0.406892
-0.774419 -0.525458 -0.352378
-0.929764 -0.368156 -0.000000
-0.774419 -0.525458 -0.352378
-0.719586 -0.663932 -0.203447
-0.929764 -0.368156 -0.000000
-0.719586 -0.663932 -0.203447
-0.699514 -0.714619 0.000000
-0.929764 -0.368156 -0.000000
0.000000 0.000000 -1.000000
0.000000 0.000000 -1.000000
0.000000 0.000000 -1.000000
0.000000 0.000000 -1.000000
0.000000 0.000000 -1.000000
0.000000 0.000000 -1.000000
0.000000 0.000000 1.000000
0.000000 0.000000 1.000000
0.000000 0.000000 1.000000
0.000000 0.000000 1.000000
0.000000 0.000000 1.000000
0.000000 0.000000 1.000000
0.999825 -0.018701 0.000000
0.999825 -0.018701 0.000000
0.999825 -0.018701 0.000000
0.999825 -0.018701 0.000000
0.999825 -0.018701 0.000000
0.999825 -0.018701 0.000000
0.000000 1.000000 0.000000
0.000000 1.000000 0.000000
0.000000 1.000000 0.000000
0.000000 1.000000 0.000000
0.000000 1.000000 0.000000
0.000000 1.000000 0.000000
-0.999825 0.018701 0.000000
-0.999825 0.018701 0.000000
-0.999825 0.018701 0.000000
-0.999825 0.018701 0.000000
-0.999825 0.018701 0.000000
-0.999825 0.018701 0.000000
0.000000 -1.000000 -0.000001
0.000000 -1.000000 -0.000001
0.000000 -1.000000 -0.000001
0.000000 -1.000000 -0.000001
-0.000000 -1.000000 -0.000002
0.000000 -1.000000 -0.000001
0.000000 -1.000000 -0.000000
0.000000 -1.000000 -0.000001
0.000000 -1.000000 -0.000001
0.000000 -1.000000 -0.000001
0.000000 -1.000000 -0.000000
0.000000 -1.000000 -0.000000
-1.000000 -0.000000 0.000000
-1.000000 0.000000 0.000000
-1.000000 -0.000000 0.000000
-1.000000 -0.000000 0.000000
-1.000000 -0.000000 0.000000
-1.000000 -0.000000 0.000000
-0.003210 0.000000 -0.999995
-0.003210 0.000000 -0.999995
-0.003210 0.000000 -0.999995
-0.003210 0.000000 -0.999995
-0.003210 0.000000 -0.999995
-0.003210 0.000000 -0.999995
1.000000 0.000000 -0.000066
1.000000 0.000000 -0.000066
1.000000 0.000000 -0.000066
1.000000 0.000000 -0.000066
1.000000 0.000000 -0.000066
1.000000 0.000000 -0.000066
-1.000000 0.000000 0.000001
-1.000000 0.000000 0.000001
-1.000000 0.000000 0.000000
-1.000000 0.000000 0.000000
-1.000000 -0.000000 0.000000
-1.000000 0.000000 0.000001
0.002825 -0.000000 0.999996
0.002825 -0.000000 0.999996
0.002825 -0.000000 0.999996
0.002825 -0.000000 0.999996
0.002825 -0.000000 0.999996
0.002825 -0.000000 0.999996
0.796916 0.000000 -0.604091
0.796916 0.000000 -0.604091
0.796916 0.000000 -0.604091
0.796916 0.000000 -0.604091
0.796916 0.000000 -0.604091
0.796916 0.000000 -0.604091
</float_array>
          <technique_common>
            <accessor source="#large_inside-Normal0-array" count="1014" stride="3">
              <param name="X" type="float"/>
              <param name="Y" type="float"/>
              <param name="Z" type="float"/>
            </accessor>
          </technique_common>
        </source>
        <source id="large_inside-UV0">
          <float_array id="large_inside-UV0-array" count="842">
0.374643 0.561498
0.313238 0.488932
0.330792 0.473929
0.392197 0.546495
0.856027 0.118228
0.299249 0.086855
0.404417 0.436818
0.406356 0.118699
0.442711 0.414896
0.447846 0.487422
0.406221 0.435647
0.406221 0.120336
0.450255 0.487961
0.885306 0.487803
0.916597 0.567980
0.218373 0.533540
0.195699 0.562537
0.008960 0.561997
0.565688 0.602530
0.972467 0.656712
0.935336 0.046224
0.375256 0.036247
0.872062 0.035874
0.442676 0.148764
0.472688 0.452116
0.595746 0.924274
0.218373 0.398821
0.008960 0.428697
0.025967 0.398282
0.449406 0.486477
0.856046 0.118996
0.820434 0.147582
0.322627 0.087057
0.972423 0.923007
0.972423 0.656875
0.916597 0.568603
0.434251 0.568756
0.330481 0.474241
0.966988 0.164802
0.434251 0.568134
0.565745 0.620783
0.943503 0.619601
0.972240 0.656821
0.595757 0.924135
0.565779 0.886915
0.972260 0.922953
0.581319 0.935664
0.551301 0.898477
0.565351 0.887116
0.595401 0.924278
0.972250 0.924206
0.972253 0.942316
0.595749 0.942384
0.990492 0.656875
0.990533 0.923007
0.943944 0.619327
0.958310 0.608367
0.986832 0.645752
0.943448 0.602599
0.943445 0.620668
0.565685 0.620599
0.565505 0.620743
0.565505 0.886874
0.547436 0.886874
0.547436 0.620743
0.849191 0.450934
0.884455 0.485085
0.884455 0.164836
0.849172 0.184802
0.916605 0.591332
0.434259 0.591486
0.966988 0.509114
0.884995 0.485049
0.884995 0.164800
0.990366 0.164600
0.990366 0.508912
0.982302 0.122983
0.962681 0.135051
0.915706 0.058285
0.885310 0.164155
0.856784 0.118405
0.872121 0.012532
0.375296 0.012904
0.322627 0.435033
0.299249 0.434830
0.404621 0.435035
0.404621 0.119724
0.391886 0.546807
0.321818 0.086855
0.321818 0.434830
0.375256 0.035438
0.872062 0.035065
0.963085 0.134849
0.916110 0.058083
0.967797 0.164600
0.967797 0.508912
0.540337 0.367623
0.540337 0.333067
0.592565 0.333067
0.592565 0.367623
0.603343 0.282722
0.603343 0.287405
0.593943 0.287405
0.593943 0.282722
0.592710 0.307458
0.627266 0.307458
0.627266 0.333776
0.592710 0.333776
0.592611 0.307270
0.592585 0.332952
0.540356 0.332952
0.540383 0.307270
0.505417 0.306699
0.539972 0.306699
0.539972 0.333017
0.505417 0.333017
0.603341 0.265563
0.593940 0.265563
0.648205 0.207424
0.476783 0.214925
0.593940 0.260650
0.603341 0.260650
0.655899 0.215684
0.484478 0.206665
0.540383 0.196523
0.592611 0.196523
0.592609 0.196509
0.540381 0.196509
0.540381 0.161427
0.592609 0.161427
0.540367 0.161341
0.540367 0.155381
0.592595 0.155381
0.592595 0.161341
0.449488 0.214927
0.449471 0.208968
0.683212 0.209728
0.683194 0.215686
0.593943 0.265614
0.603343 0.265614
0.592585 0.307474
0.540356 0.307474
0.540337 0.367623
0.540337 0.333067
0.592565 0.333067
0.592565 0.367623
0.603343 0.282722
0.603343 0.287405
0.593943 0.287405
0.593943 0.282722
0.592710 0.307458
0.627266 0.307458
0.627266 0.333776
0.592710 0.333776
0.592611 0.307270
0.592585 0.332952
0.540356 0.332952
0.540383 0.307270
0.505417 0.306699
0.539972 0.306699
0.539972 0.333017
0.505417 0.333017
0.603341 0.265563
0.593940 0.265563
0.648205 0.207424
0.476783 0.214925
0.593940 0.260650
0.603341 0.260650
0.655899 0.215684
0.484478 0.206665
0.540383 0.196523
0.592611 0.196523
0.592609 0.196509
0.540381 0.196509
0.540381 0.161427
0.592609 0.161427
0.540367 0.161341
0.540367 0.155381
0.592595 0.155381
0.592595 0.161341
0.449488 0.214927
0.449471 0.208968
0.683212 0.209728
0.683194 0.215686
0.593943 0.265614
0.603343 0.265614
0.592585 0.307474
0.540356 0.307474
0.739628 0.261976
0.687399 0.261976
0.687399 0.227420
0.739628 0.227420
0.685892 0.315263
0.674402 0.315263
0.674402 0.309598
0.685892 0.309598
0.774355 0.287287
0.739799 0.287287
0.739799 0.260969
0.774355 0.260969
0.687408 0.262102
0.739637 0.262102
0.739637 0.287272
0.687408 0.287272
0.687346 0.288403
0.652790 0.288403
0.652790 0.262085
0.687346 0.262085
0.612271 0.380177
0.807180 0.387321
0.814874 0.379061
0.619965 0.388437
0.585433 0.380175
0.841728 0.385018
0.841711 0.379059
0.585416 0.386134
0.739645 0.402674
0.739645 0.437299
0.687417 0.437299
0.687417 0.402674
0.687408 0.402623
0.739637 0.402623
0.739626 0.443339
0.687399 0.443339
0.687399 0.437379
0.739626 0.437379
0.674393 0.342894
0.674393 0.336990
0.685883 0.336990
0.685883 0.342894
0.685892 0.336858
0.674402 0.336858
0.739628 0.261976
0.687399 0.261976
0.687399 0.227420
0.739628 0.227420
0.685892 0.315263
0.674402 0.315263
0.674402 0.309598
0.685892 0.309598
0.774355 0.287287
0.739799 0.287287
0.739799 0.260969
0.774355 0.260969
0.687408 0.262102
0.739637 0.262102
0.739637 0.287272
0.687408 0.287272
0.687346 0.288403
0.652790 0.288403
0.652790 0.262085
0.687346 0.262085
0.612271 0.380177
0.807180 0.387321
0.814874 0.379061
0.619965 0.388437
0.585433 0.380175
0.841728 0.385018
0.841711 0.379059
0.585416 0.386134
0.739645 0.402674
0.739645 0.437299
0.687417 0.437299
0.687417 0.402674
0.687408 0.402623
0.739637 0.402623
0.739626 0.443339
0.687399 0.443339
0.687399 0.437379
0.739626 0.437379
0.674393 0.342894
0.674393 0.336990
0.685883 0.336990
0.685883 0.342894
0.685892 0.336858
0.674402 0.336858
67.662712 171.703018
0.351280 0.063250
0.346340 0.060398
67.589310 171.424118
67.859406 171.916092
0.348656 0.051752
68.142288 171.985428
0.354361 0.051752
68.425217 171.916428
22.352139 39.264858
68.621429 171.702927
0.342863 0.071667
21.869354 39.389427
0.340011 0.066727
0.331365 0.074748
0.331365 0.069043
20.934483 38.808102
0.319866 0.071668
68.142288 170.862717
20.858410 38.317493
67.859428 170.932190
0.322718 0.066726
67.662712 171.145233
20.995815 37.856586
67.658707 171.701431
67.587852 171.424118
68.011833 171.424118
67.997620 171.652756
67.854706 171.921555
67.982826 171.837463
68.142258 171.991425
68.142250 171.830307
68.429825 171.921738
68.301636 171.837509
68.625572 171.701401
68.286789 171.652786
68.696541 171.424118
68.272560 171.424118
68.625580 171.146851
68.286781 171.195450
68.429817 170.926544
68.301613 171.011002
68.142258 170.856705
68.142242 171.017303
67.854713 170.926727
67.982849 171.011047
67.658707 171.146820
67.997620 171.195480
68.026543 171.424118
68.037956 171.541748
68.081642 171.625031
68.142433 171.654358
68.202950 171.624939
68.246483 171.541748
68.257866 171.424118
68.246468 171.306473
68.202805 171.223175
68.142227 171.193893
68.081635 171.223190
68.037956 171.306488
68.142105 171.424118
0.311443 0.063252
21.325703 37.506653
0.316376 0.060407
21.787365 37.324997
0.308387 0.051752
0.314111 0.051752
0.311443 0.040252
0.316376 0.043098
0.319866 0.031837
0.322718 0.036778
0.331365 0.028757
0.331365 0.034461
0.342863 0.031837
22.321648 39.352833
21.938398 39.451881
0.340011 0.036778
0.351280 0.040254
0.346340 0.043107
20.841196 38.744198
20.803230 38.302643
0.345296 0.059795
20.948563 37.829632
0.347451 0.051752
21.284798 37.466690
0.339408 0.065682
21.685213 37.276955
0.331365 0.067837
0.323320 0.065683
0.317426 0.059804
0.315309 0.051752
0.317426 0.043701
0.323320 0.037822
0.331365 0.035667
0.339408 0.037822
0.345296 0.043710
0.331366 0.051752
0.090327 0.569808
0.428370 0.569808
0.426912 0.647753
0.088870 0.647753
0.089915 0.910832
0.427959 0.910832
0.429416 0.988776
0.091373 0.988776
0.011496 0.909111
0.011496 0.649500
0.089454 0.649500
0.089454 0.909111
0.427986 0.909202
0.089944 0.909202
0.089944 0.649591
0.427986 0.649591
0.428323 0.909262
0.428323 0.649652
0.506280 0.649652
0.506280 0.909262
0.038552 0.034280
0.232505 0.033658
0.261693 0.072164
0.038552 0.072454
0.261713 0.365841
0.038552 0.366472
0.012021 0.366475
0.012021 0.072457
0.038355 0.072457
0.038355 0.366475
0.012021 0.034284
0.038562 0.007723
0.038355 0.034284
0.261692 0.393008
0.038530 0.392973
0.038533 0.366639
0.261696 0.366673
0.288207 0.072180
0.288207 0.365856
0.261873 0.365856
0.261873 0.072180
0.254002 0.017503
0.283058 0.056110
0.262016 0.071945
0.232961 0.033338
0.232516 0.007723
0.232516 0.034058
0.038562 0.034058
</float_array>
          <technique_common>
            <accessor source="#large_inside-UV0-array" count="421" stride="2">
              <param name="S" type="float"/>
              <param name="T" type="float"/>
            </accessor>
          </technique_common>
        </source>
        <vertices id="large_inside-VERTEX">
          <input semantic="POSITION" source="#large_inside-POSITION"/>
        </vertices>
        <triangles count="338" material="_01 - Default"><input semantic="VERTEX" offset="0" source="#large_inside-VERTEX"/><input semantic="NORMAL" offset="1" source="#large_inside-Normal0"/><input semantic="TEXCOORD" offset="2" set="0" source="#large_inside-UV0"/><p> 2 0 37 3 1 87 0 2 0 0 3 0 1 4 1 2 5 37 6 6 21 7 7 22 4 8 4 4 9 4 5 10 7 6 11 21 5 12 11 10 13 23 8 14 8 8 15 8 9 16 10 5 17 11 3 18 3 2 19 2 9 20 6 9 21 6 11 22 9 3 23 3 11 24 29 9 25 10 8 26 8 8 27 8 12 28 24 11 29 29 14 30 14 3 31 39 11 32 12 11 33 12 13 34 13 14 35 14 1 36 15 0 37 16 15 38 17 16 39 40 17 40 41 18 41 42 21 42 92 7 43 93 19 44 20 19 45 20 20 46 76 21 47 92 7 48 78 21 49 77 22 50 79 22 51 79 4 52 80 7 53 78 6 54 90 23 55 82 19 56 81 19 57 81 7 58 91 6 59 90 4 60 30 24 61 31 10 62 23 10 63 23 5 64 11 4 65 30 25 66 43 26 67 44 27 68 45 23 69 26 20 70 27 19 71 28 11 72 29 12 73 24 28 74 65 28 75 65 13 76 66 11 77 29 13 78 72 22 79 73 21 80 38 21 81 38 14 82 71 13 83 72 29 84 68 24 85 31 4 86 30 4 87 30 22 88 67 29 89 68 26 90 44 16 91 40 18 92 42 18 93 42 27 94 45 26 95 44 29 96 68 22 97 67 13 98 66 13 99 66 28 100 65 29 101 68 23 102 26 1 103 15 15 104 17 15 105 17 20 106 27 23 107 26 2 108 89 1 109 84 23 110 5 23 111 5 6 112 88 2 113 89 24 114 56 29 115 57 18 116 19 18 117 19 17 118 55 24 119 56 29 120 53 28 121 54 27 122 33 27 123 33 18 124 34 29 125 53 26 126 48 25 127 49 12 128 46 12 129 46 8 130 47 26 131 48 8 132 63 10 133 64 16 134 61 16 135 61 26 136 62 8 137 63 17 138 59 16 139 60 10 140 18 10 141 18 24 142 58 17 143 59 6 144 32 5 145 86 9 146 85 9 147 85 2 148 83 6 149 32 28 150 51 12 151 52 25 152 25 25 153 25 27 154 50 28 155 51 20 156 74 15 157 75 14 158 95 14 159 95 21 160 94 20 161 74 15 162 69 0 163 70 3 164 36 3 165 36 14 166 35 15 167 69 32 168 97 33 169 98 31 170 99 31 171 99 30 172 96 32 173 97 42 174 131 43 175 132 44 176 133 44 177 133 45 178 130 42 179 131 34 180 100 30 181 101 31 182 102 31 183 102 35 184 103 34 185 100 35 186 105 31 187 106 33 188 107 33 189 107 37 190 104 35 191 105 37 192 140 33 193 109 32 194 110 32 195 110 36 196 141 37 197 140 34 198 112 36 199 113 32 200 114 32 201 114 30 202 115 34 203 112 39 204 122 35 205 105 37 206 104 37 207 104 40 208 118 39 209 122 41 210 123 36 211 113 34 212 112 34 213 112 38 214 119 41 215 123 39 216 117 43 217 120 42 218 121 42 219 121 38 220 116 39 221 117 44 222 136 43 223 137 39 224 122 39 225 122 40 226 118 44 227 136 41 228 127 45 229 128 44 230 129 44 231 129 40 232 126 41 233 127 45 234 135 41 235 123 38 236 119 38 237 119 42 238 134 45 239 135 38 240 139 34 241 100 35 242 103 35 243 103 39 244 138 38 245 139 40 246 125 37 247 108 36 248 111 36 249 111 41 250 124 40 251 125 48 252 143 46 253 142 47 254 145 47 255 145 49 256 144 48 257 143 58 258 177 61 259 176 60 260 179 60 261 179 59 262 178 58 263 177 50 264 146 51 265 149 47 266 148 47 267 148 46 268 147 50 269 146 51 270 151 53 271 150 49 272 153 49 273 153 47 274 152 51 275 151 53 276 186 52 277 187 48 278 156 48 279 156 49 280 155 53 281 186 50 282 158 46 283 161 48 284 160 48 285 160 52 286 159 50 287 158 55 288 168 56 289 164 53 290 150 53 291 150 51 292 151 55 293 168 57 294 169 54 295 165 50 296 158 50 297 158 52 298 159 57 299 169 55 300 163 54 301 162 58 302 167 58 303 167 59 304 166 55 305 163 60 306 182 56 307 164 55 308 168 55 309 168 59 310 183 60 311 182 57 312 173 56 313 172 60 314 175 60 315 175 61 316 174 57 317 173 61 318 181 58 319 180 54 320 165 54 321 165 57 322 169 61 323 181 54 324 185 55 325 184 51 326 149 51 327 149 50 328 146 54 329 185 56 330 171 57 331 170 52 332 157 52 333 157 53 334 154 56 335 171 67 336 196 63 337 199 65 338 198 65 339 198 69 340 197 67 341 196 68 342 204 64 343 207 62 344 206 62 345 206 66 346 205 68 347 204 71 348 210 67 349 196 69 350 197 69 351 197 72 352 209 71 353 210 73 354 211 68 355 204 66 356 205 66 357 205 70 358 208 73 359 211 75 360 214 71 361 210 72 362 209 72 363 209 76 364 213 75 365 214 77 366 215 73 367 211 70 368 208 70 369 208 74 370 212 77 371 215 65 372 188 63 373 191 62 374 190 62 375 190 64 376 189 65 377 188 75 378 222 76 379 225 77 380 224 77 381 224 74 382 223 75 383 222 62 384 195 63 385 194 67 386 193 67 387 193 66 388 192 62 389 195 68 390 203 69 391 202 65 392 201 65 393 201 64 394 200 68 395 203 73 396 220 72 397 221 69 398 202 69 399 202 68 400 203 73 401 220 74 402 229 70 403 228 71 404 227 71 405 227 75 406 226 74 407 229 73 408 219 77 409 218 76 410 217 76 411 217 72 412 216 73 413 219 70 414 230 66 415 192 67 416 193 67 417 193 71 418 231 70 419 230 83 420 240 85 421 241 81 422 242 81 423 242 79 424 243 83 425 240 84 426 248 82 427 249 78 428 250 78 429 250 80 430 251 84 431 248 87 432 254 88 433 253 85 434 241 85 435 241 83 436 240 87 437 254 89 438 255 86 439 252 82 440 249 82 441 249 84 442 248 89 443 255 91 444 258 92 445 257 88 446 253 88 447 253 87 448 254 91 449 258 93 450 259 90 451 256 86 452 252 86 453 252 89 454 255 93 455 259 81 456 232 80 457 233 78 458 234 78 459 234 79 460 235 81 461 232 91 462 266 90 463 267 93 464 268 93 465 268 92 466 269 91 467 266 78 468 239 82 469 236 83 470 237 83 471 237 79 472 238 78 473 239 84 474 247 80 475 244 81 476 245 81 477 245 85 478 246 84 479 247 89 480 264 84 481 247 85 482 246 85 483 246 88 484 265 89 485 264 90 486 273 91 487 270 87 488 271 87 489 271 86 490 272 90 491 273 89 492 263 88 493 260 92 494 261 92 495 261 93 496 262 89 497 263 86 498 274 87 499 275 83 500 237 83 501 237 82 502 236 86 503 274 144 504 278 145 505 281 146 506 283 146 507 283 143 508 277 144 509 278 148 510 289 144 511 278 143 512 277 143 513 277 147 514 287 148 515 289 150 516 291 148 517 289 147 518 287 147 519 287 149 520 290 150 521 291 152 522 297 150 523 291 149 524 290 149 525 290 151 526 293 152 527 297 154 528 339 152 529 297 151 530 293 151 531 293 153 532 337 154 533 339 156 534 342 154 535 339 153 536 337 153 537 337 155 538 341 156 539 342 158 540 344 156 541 342 155 542 341 155 543 341 157 544 343 158 545 344 160 546 346 158 547 344 157 548 343 157 549 343 159 550 345 160 551 346 162 552 348 160 553 346 159 554 345 159 555 345 161 556 347 162 557 348 164 558 352 162 559 348 161 560 347 161 561 347 163 562 349 164 563 352 166 564 354 164 565 352 163 566 349 163 567 349 165 568 353 166 569 354 145 570 281 166 571 354 165 572 353 165 573 353 146 574 283 145 575 281 95 576 300 94 577 301 118 578 302 118 579 302 119 580 303 95 581 300 96 582 304 95 583 300 119 584 303 119 585 303 120 586 305 96 587 304 97 588 306 96 589 304 120 590 305 120 591 305 121 592 307 97 593 306 98 594 308 97 595 306 121 596 307 121 597 307 122 598 309 98 599 308 99 600 310 98 601 308 122 602 309 122 603 309 123 604 311 99 605 310 100 606 312 99 607 310 123 608 311 123 609 311 124 610 313 100 611 312 101 612 314 100 613 312 124 614 313 124 615 313 125 616 315 101 617 314 102 618 316 101 619 314 125 620 315 125 621 315 126 622 317 102 623 316 103 624 318 102 625 316 126 626 317 126 627 317 127 628 319 103 629 318 104 630 320 103 631 318 127 632 319 127 633 319 128 634 321 104 635 320 105 636 322 104 637 320 128 638 321 128 639 321 129 640 323 105 641 322 94 642 301 105 643 322 129 644 323 129 645 323 118 646 302 94 647 301 119 648 303 118 649 302 130 650 324 130 651 324 131 652 325 119 653 303 120 654 305 119 655 303 131 656 325 131 657 325 132 658 326 120 659 305 121 660 307 120 661 305 132 662 326 132 663 326 133 664 327 121 665 307 122 666 309 121 667 307 133 668 327 133 669 327 134 670 328 122 671 309 123 672 311 122 673 309 134 674 328 134 675 328 135 676 329 123 677 311 124 678 313 123 679 311 135 680 329 135 681 329 136 682 330 124 683 313 125 684 315 124 685 313 136 686 330 136 687 330 137 688 331 125 689 315 126 690 317 125 691 315 137 692 331 137 693 331 138 694 332 126 695 317 127 696 319 126 697 317 138 698 332 138 699 332 139 700 333 127 701 319 128 702 321 127 703 319 139 704 333 139 705 333 140 706 334 128 707 321 129 708 323 128 709 321 140 710 334 140 711 334 141 712 335 129 713 323 118 714 302 129 715 323 141 716 335 141 717 335 130 718 324 118 719 302 131 720 325 130 721 324 142 722 336 132 723 326 131 724 325 142 725 336 133 726 327 132 727 326 142 728 336 134 729 328 133 730 327 142 731 336 135 732 329 134 733 328 142 734 336 136 735 330 135 736 329 142 737 336 137 738 331 136 739 330 142 740 336 138 741 332 137 742 331 142 743 336 139 744 333 138 745 332 142 746 336 140 747 334 139 748 333 142 749 336 141 750 335 140 751 334 142 752 336 130 753 324 141 754 335 142 755 336 107 756 357 106 757 359 145 758 281 145 759 281 144 760 278 107 761 357 94 762 301 95 763 300 143 764 276 143 765 276 146 766 279 94 767 301 108 768 361 107 769 357 144 770 278 144 771 278 148 772 289 108 773 361 95 774 300 96 775 304 147 776 280 147 777 280 143 778 276 95 779 300 109 780 363 108 781 361 148 782 289 148 783 289 150 784 291 109 785 363 96 786 350 97 787 351 149 788 288 149 789 288 147 790 285 96 791 350 110 792 364 109 793 363 150 794 291 150 795 291 152 796 297 110 797 364 97 798 306 98 799 308 151 800 284 151 801 284 149 802 282 97 803 306 111 804 365 110 805 364 152 806 297 152 807 297 154 808 339 111 809 365 98 810 308 99 811 310 153 812 286 153 813 286 151 814 284 98 815 308 112 816 366 111 817 365 154 818 339 154 819 339 156 820 342 112 821 366 99 822 355 100 823 356 155 824 295 155 825 295 153 826 292 99 827 355 113 828 367 112 829 366 156 830 342 156 831 342 158 832 344 113 833 367 100 834 356 101 835 358 157 836 299 157 837 299 155 838 295 100 839 356 114 840 368 113 841 367 158 842 344 158 843 344 160 844 346 114 845 368 101 846 358 102 847 360 159 848 338 159 849 338 157 850 299 101 851 358 115 852 369 114 853 368 160 854 346 160 855 346 162 856 348 115 857 369 102 858 360 103 859 362 161 860 340 161 861 340 159 862 338 102 863 360 116 864 370 115 865 369 162 866 348 162 867 348 164 868 352 116 869 370 103 870 318 104 871 320 163 872 296 163 873 296 161 874 294 103 875 318 117 876 371 116 877 370 164 878 352 164 879 352 166 880 354 117 881 371 104 882 320 105 883 322 165 884 298 165 885 298 163 886 296 104 887 320 106 888 359 117 889 371 166 890 354 166 891 354 145 892 281 106 893 359 105 894 322 94 895 301 146 896 279 146 897 279 165 898 298 105 899 322 106 900 359 107 901 357 167 902 372 107 903 357 108 904 361 167 905 372 108 906 361 109 907 363 167 908 372 109 909 363 110 910 364 167 911 372 110 912 364 111 913 365 167 914 372 111 915 365 112 916 366 167 917 372 112 918 366 113 919 367 167 920 372 113 921 367 114 922 368 167 923 372 114 924 368 115 925 369 167 926 372 115 927 369 116 928 370 167 929 372 116 930 370 117 931 371 167 932 372 117 933 371 106 934 359 167 935 372 169 936 373 168 937 374 170 938 375 170 939 375 171 940 376 169 941 373 175 942 377 174 943 378 172 944 379 172 945 379 173 946 380 175 947 377 169 948 382 171 949 383 175 950 384 175 951 384 173 952 381 169 953 382 175 954 386 171 955 387 170 956 388 170 957 388 174 958 385 175 959 386 170 960 390 168 961 391 172 962 392 172 963 392 174 964 389 170 965 390 181 966 394 178 967 395 179 968 396 179 969 396 177 970 393 181 971 394 176 972 398 179 973 396 178 974 395 178 975 395 180 976 397 176 977 398 185 978 400 179 979 401 176 980 402 176 981 402 182 982 399 185 983 400 187 984 418 181 985 419 177 986 420 177 987 420 183 988 404 187 989 418 186 990 411 180 991 412 178 992 413 178 993 413 184 994 410 186 995 411 183 996 403 177 997 405 179 998 401 179 999 401 185 1000 400 183 1001 403 182 1002 407 176 1003 408 180 1004 409 180 1005 409 186 1006 406 182 1007 407 184 1008 415 178 1009 416 181 1010 417 181 1011 417 187 1012 414 184 1013 415</p></triangles>
      </mesh>
    </geometry>
  </library_geometries>
  <library_visual_scenes>
    <visual_scene id="" name="">
      <node name="large_inside" id="large_inside" layer="large_inside_lp" sid="large_inside"><matrix sid="matrix">1.000000 0.000000 0.000000 0.000000 0.000000 0.000000 1.000000 0.000000 0.000000 -1.000000 0.000000 0.000000 0.000000 0.000000 0.000000 1.000000</matrix><instance_geometry url="#large_inside-lib"><bind_material><technique_common><instance_material symbol="_01 - Default" target="#_01 - Default"/></technique_common></bind_material></instance_geometry><extra><technique profile="FCOLLADA"><visibility>1.000000</visibility></technique></extra></node>
      <extra><technique profile="MAX3D"><frame_rate>30.000000</frame_rate></technique><technique profile="FCOLLADA"><start_time>0.000000</start_time><end_time>3.333333</end_time></technique></extra>
    </visual_scene>
  </library_visual_scenes>
  <scene>
    <instance_visual_scene url="#"></instance_visual_scene>
  </scene>
</COLLADA>
