<?xml version="1.0" encoding="utf-8"?>
<COLLADA xmlns="http://www.collada.org/2005/11/COLLADASchema" version="1.4.0">
  <asset>
    <contributor>
      <author></author>
      <authoring_tool>FBX COLLADA exporter</authoring_tool>
      <comments></comments>
    </contributor>
    <created>2015-01-11T09:59:38Z</created>
    <modified>2015-01-11T09:59:38Z</modified>
    <revision></revision>
    <title></title>
    <subject></subject>
    <keywords></keywords>
    <unit meter="1.000000"/>
    <up_axis>Y_UP</up_axis>
  </asset>
  <library_images>
    <image id="Map__45-image" name="Map__45">
      <init_from>file://C:\Program Files\Autodesk\3ds Max Design 2011\sceneassets\scenes\Frictional_Games\Props\Station_batch_14\cutlery_Asset_Files\cutlery_WIP_Files\cutlery\station\cutlery\cutlery_knife.dds</init_from>
    </image>
  </library_images>
  <library_materials>
    <material id="cutlery_knife" name="cutlery_knife">
      <instance_effect url="#cutlery_knife-fx"/>
    </material>
  </library_materials>
  <library_effects>
    <effect id="cutlery_knife-fx" name="cutlery_knife">
      <profile_COMMON>
        <technique sid="standard">
          <phong>
            <emission>
              <color sid="emission">0.000000  0.000000 0.000000 1.000000</color>
            </emission>
            <ambient>
              <color sid="ambient">0.588000  0.588000 0.588000 1.000000</color>
            </ambient>
            <diffuse>
              <texture texture="Map__45-image" texcoord="CHANNEL0">
                <extra>
                  <technique profile="MAYA">
                    <wrapU sid="wrapU0">TRUE</wrapU>
                    <wrapV sid="wrapV0">TRUE</wrapV>
                    <blend_mode>ADD</blend_mode>
                  </technique>
                </extra>
              </texture>
            </diffuse>
            <specular>
              <color sid="specular">0.000000  0.000000 0.000000 1.000000</color>
            </specular>
            <shininess>
              <float sid="shininess">2.000000</float>
            </shininess>
            <reflective>
              <color sid="reflective">0.000000  0.000000 0.000000 1.000000</color>
            </reflective>
            <reflectivity>
              <float sid="reflectivity">1.000000</float>
            </reflectivity>
            <transparent>
              <color sid="transparent">1.000000  1.000000 1.000000 1.000000</color>
            </transparent>
            <transparency>
              <float sid="transparency">0.000000</float>
            </transparency>
          </phong>
        </technique>
      </profile_COMMON>
    </effect>
  </library_effects>
  <library_geometries>
    <geometry id="cutlery_knife-lib" name="cutlery_knifeMesh">
      <mesh>
        <source id="cutlery_knife-lib-Position">
          <float_array id="cutlery_knife-lib-Position-array" count="438">
0.096116 0.007247 0.002765
0.096116 0.001376 0.002385
0.002284 0.006162 0.000479
0.071988 -0.004960 0.002374
0.071988 0.007247 0.001146
0.071988 -0.004960 0.001876
0.055512 -0.006997 0.002374
0.055512 0.007247 0.003205
0.055512 0.007247 0.001045
0.055512 -0.006997 0.001876
0.039037 -0.007586 0.002374
0.039037 0.007247 0.003221
0.039037 0.007247 0.001028
0.039037 -0.007586 0.001876
0.022562 -0.006726 0.002374
0.022562 0.007247 0.003438
0.022562 -0.006726 0.001876
0.096116 0.007247 0.001485
0.096116 0.001376 0.001865
0.002284 0.004910 0.000483
0.022562 0.004823 0.000842
0.002284 0.006162 0.003770
0.002284 -0.003332 0.000614
0.002284 -0.003332 0.003636
0.002284 0.004910 0.003767
0.006086 0.007247 0.004147
0.006086 -0.004417 0.001267
0.006086 -0.004417 0.002983
0.006086 0.004880 0.004115
0.002284 -0.002887 0.000607
0.006086 -0.003916 0.001206
0.022562 -0.006103 0.001854
0.039037 -0.006917 0.001860
0.055512 -0.006360 0.001869
0.071988 -0.004430 0.001871
0.096116 0.001573 0.001855
0.096116 0.001573 0.002395
0.071988 -0.004430 0.002379
0.055512 -0.006360 0.002381
0.039037 -0.006917 0.002390
0.022562 -0.006103 0.002396
0.002284 -0.002887 0.003643
0.071988 0.004866 0.002791
0.055512 0.004817 0.002858
0.039037 0.004802 0.003197
0.022562 0.004823 0.003407
0.039037 0.004802 0.001052
0.055512 0.004817 0.001391
0.071988 0.004866 0.001459
0.097392 0.005021 0.001687
0.097392 0.005021 0.002563
0.006086 0.007247 0.000103
0.006086 0.004880 0.000135
0.006086 -0.003916 0.003044
-0.055281 -0.003916 0.000103
-0.055281 -0.004417 0.000103
0.002284 0.001400 0.000539
0.006086 0.000920 0.000617
0.022562 -0.000095 0.001298
0.039037 -0.000474 0.001416
0.055512 -0.000215 0.001606
0.071988 0.000681 0.001644
0.097392 0.003469 0.001763
0.097392 0.003469 0.002487
0.071988 0.000681 0.002605
0.055512 -0.000215 0.002643
0.039037 -0.000474 0.002834
0.022562 -0.000095 0.002952
0.006086 0.000920 0.003633
0.002284 0.001400 0.003711
-0.002191 0.000920 0.004147
-0.087421 -0.004417 0.000103
-0.097330 -0.004781 -0.000173
-0.096470 -0.004776 -0.000235
-0.096470 -0.004768 0.000565
-0.097330 -0.004781 0.004423
-0.096470 -0.003916 0.004625
-0.097392 -0.003916 0.004485
-0.097392 -0.003916 -0.000235
-0.096470 -0.003916 -0.000375
-0.097392 0.004880 0.004485
-0.097392 0.004880 -0.000235
-0.097392 0.000920 0.004485
-0.097392 0.000920 -0.000235
-0.096470 0.000920 -0.000375
-0.097330 0.007524 0.004423
-0.055281 0.000920 -0.000375
-0.083079 0.000920 0.004625
-0.087421 -0.004768 0.003702
-0.087421 -0.004768 0.000565
-0.055281 -0.003916 0.004147
-0.055281 -0.004417 0.004147
-0.052428 0.007247 0.000103
-0.002191 -0.003916 0.004147
-0.002191 -0.004417 0.004147
-0.002191 -0.004417 0.000103
-0.002191 -0.003916 0.000103
-0.002191 0.000920 0.000103
-0.087421 -0.003916 0.004625
-0.087421 -0.004784 0.004386
-0.087421 -0.004784 -0.000136
-0.087421 -0.003916 -0.000375
-0.083090 0.004880 0.004625
-0.083091 0.007586 -0.000235
-0.083090 0.004880 -0.000375
-0.083079 0.000920 -0.000375
-0.087421 -0.003916 0.000103
-0.087421 -0.004417 0.000565
-0.087421 -0.004417 0.003702
-0.087421 -0.003916 0.004147
-0.083079 0.000920 0.004147
-0.096470 0.000920 0.004625
-0.096470 0.007586 -0.000235
-0.096470 -0.004768 0.003702
-0.052605 0.004880 0.004147
-0.052428 0.007247 0.004147
-0.052605 0.004880 0.000103
-0.055281 0.000920 0.000103
-0.083079 0.000920 0.000103
-0.096470 -0.004417 0.000565
-0.096470 -0.004417 0.003702
-0.087421 -0.004417 0.004147
-0.055281 0.000920 0.004147
-0.055281 0.000920 0.004625
-0.052605 0.004880 0.004625
-0.052605 0.004880 -0.000375
-0.083091 0.007586 0.004485
-0.096470 -0.004776 0.004485
-0.002191 0.007247 0.000103
-0.096470 0.004880 0.004625
-0.096470 0.004880 -0.000375
-0.096470 0.007586 0.004485
-0.052428 0.007487 0.004386
-0.002191 0.007247 0.004147
0.071988 0.007247 0.003104
0.022562 0.007247 0.000812
-0.052428 0.007487 -0.000136
-0.097330 0.007524 -0.000173
-0.002191 0.004880 0.000103
-0.002191 0.004880 0.004147
-0.003241 -0.003244 0.003755
-0.003235 0.000856 0.003755
-0.003228 0.004324 0.003755
-0.053736 -0.003244 0.004057
-0.053488 0.000856 0.004057
-0.051660 0.004322 0.004057
</float_array>
          <technique_common>
            <accessor source="#cutlery_knife-lib-Position-array" count="146" stride="3">
              <param name="X" type="float"/>
              <param name="Y" type="float"/>
              <param name="Z" type="float"/>
            </accessor>
          </technique_common>
        </source>
        <source id="cutlery_knife-lib-Normal0">
          <float_array id="cutlery_knife-lib-Normal0-array" count="2592">
0.013210 -0.999913 -0.000000
0.006208 -0.999949 0.008006
0.008624 -0.999949 0.005244
0.008624 -0.999949 0.005244
0.008624 -0.999948 -0.005367
0.013210 -0.999913 -0.000000
0.013210 -0.999913 -0.000000
0.008624 -0.999948 -0.005367
0.013210 -0.999913 -0.000000
0.008624 -0.999948 -0.005367
0.006207 -0.999947 -0.008194
0.013210 -0.999913 -0.000000
-0.111622 -0.119597 0.986528
-0.053606 -0.167208 0.984463
-0.064384 -0.083878 0.994394
-0.064384 -0.083878 0.994394
-0.131570 -0.058753 0.989564
-0.111622 -0.119597 0.986528
-0.035179 0.999381 0.000001
-0.072000 0.997405 0.000000
-0.072000 0.997405 0.000000
-0.072000 0.997405 0.000000
-0.035179 0.999381 0.000001
-0.035179 0.999381 0.000001
-0.131566 -0.058752 -0.989565
-0.064384 -0.083873 -0.994394
-0.053601 -0.167205 -0.984464
-0.053601 -0.167205 -0.984464
-0.111619 -0.119594 -0.986529
-0.131566 -0.058752 -0.989565
1.000000 0.000000 0.000000
0.953855 -0.300267 0.000000
0.953856 -0.300264 0.000000
0.953856 -0.300264 0.000000
1.000000 0.000000 0.000000
1.000000 0.000000 0.000000
-0.999389 -0.034952 0.000000
-0.997439 -0.071524 0.000000
-0.997439 -0.071524 0.000000
-0.997439 -0.071524 0.000000
-0.999389 -0.034952 0.000000
-0.999389 -0.034952 0.000000
0.052638 -0.003418 -0.998608
0.055421 -0.003719 -0.998456
0.106203 -0.039444 -0.993562
0.106203 -0.039444 -0.993562
0.128823 -0.039654 -0.990875
0.052638 -0.003418 -0.998608
-0.021130 0.999777 0.000000
0.115543 0.993302 0.000000
0.115543 0.993302 0.000000
0.115543 0.993302 0.000000
-0.021130 0.999777 0.000000
-0.021130 0.999777 0.000000
0.106205 -0.039438 0.993562
-0.001650 0.064201 0.997936
0.053797 0.104679 0.993050
0.053797 0.104679 0.993050
0.128824 -0.039639 0.990875
0.106205 -0.039438 0.993562
0.071907 -0.081067 0.994111
0.106205 -0.039438 0.993562
0.128824 -0.039639 0.990875
0.128824 -0.039639 0.990875
0.077151 -0.072610 0.994372
0.071907 -0.081067 0.994111
-0.136214 0.990679 0.000000
-0.021130 0.999777 0.000000
-0.021130 0.999777 0.000000
-0.021130 0.999777 0.000000
-0.136215 0.990679 0.000000
-0.136214 0.990679 0.000000
0.128823 -0.039654 -0.990875
0.106203 -0.039444 -0.993562
0.071907 -0.081068 -0.994111
0.071907 -0.081068 -0.994111
0.077150 -0.072610 -0.994372
0.128823 -0.039654 -0.990875
0.005150 -0.029805 0.999542
0.002712 -0.014469 0.999892
0.004562 -0.020047 0.999789
0.004562 -0.020047 0.999789
0.008369 -0.037662 0.999255
0.005150 -0.029805 0.999542
0.000000 1.000000 0.000000
0.000000 1.000000 0.000000
0.000000 1.000000 0.000000
0.000000 1.000000 0.000000
0.000000 1.000000 0.000000
0.000000 1.000000 0.000000
0.002715 -0.014484 -0.999891
0.005152 -0.029813 -0.999542
0.008370 -0.037666 -0.999255
0.008370 -0.037666 -0.999255
0.004567 -0.020067 -0.999788
0.002715 -0.014484 -0.999891
0.188786 -0.982018 0.000000
0.254015 -0.967200 0.000000
0.254015 -0.967200 0.000000
0.254015 -0.967200 0.000000
0.188786 -0.982018 0.000000
0.188786 -0.982018 0.000000
0.003604 -0.031395 0.999501
0.001076 -0.014067 0.999900
0.002712 -0.014469 0.999892
0.002712 -0.014469 0.999892
0.005150 -0.029805 0.999542
0.003604 -0.031395 0.999501
0.000000 1.000000 0.000000
0.000000 1.000000 0.000000
0.000000 1.000000 0.000000
0.000000 1.000000 0.000000
0.000000 1.000000 0.000000
0.000000 1.000000 0.000000
0.001076 -0.014076 -0.999900
0.003605 -0.031400 -0.999500
0.005152 -0.029813 -0.999542
0.005152 -0.029813 -0.999542
0.002715 -0.014484 -0.999891
0.001076 -0.014076 -0.999900
0.079267 -0.996853 0.000000
0.188786 -0.982018 0.000000
0.188786 -0.982018 0.000000
0.188786 -0.982018 0.000000
0.079267 -0.996853 0.000000
0.079267 -0.996853 0.000000
0.001914 -0.045197 0.998976
-0.000208 -0.023488 0.999724
0.001076 -0.014067 0.999900
0.001076 -0.014067 0.999900
0.003604 -0.031395 0.999501
0.001914 -0.045197 0.998976
0.000000 1.000000 0.000000
0.000000 1.000000 0.000000
0.000000 1.000000 0.000000
0.000000 1.000000 0.000000
0.000000 1.000000 0.000000
0.000000 1.000000 0.000000
-0.000208 -0.023492 -0.999724
0.001914 -0.045199 -0.998976
0.003605 -0.031400 -0.999500
0.003605 -0.031400 -0.999500
0.001076 -0.014076 -0.999900
-0.000208 -0.023492 -0.999724
-0.008225 -0.999966 0.000000
0.079267 -0.996853 0.000000
0.079267 -0.996853 0.000000
0.079267 -0.996853 0.000000
-0.008225 -0.999966 0.000000
-0.008225 -0.999966 0.000000
0.014334 -0.071764 0.997319
0.012421 -0.050117 0.998666
-0.000208 -0.023488 0.999724
-0.000208 -0.023488 0.999724
0.001914 -0.045197 0.998976
0.014334 -0.071764 0.997319
0.000000 1.000000 0.000000
0.000000 1.000000 0.000000
0.000000 1.000000 0.000000
0.000000 1.000000 0.000000
0.000000 1.000000 0.000000
0.000000 1.000000 0.000000
0.012422 -0.050113 -0.998666
0.014335 -0.071761 -0.997319
0.001914 -0.045199 -0.998976
0.001914 -0.045199 -0.998976
-0.000208 -0.023492 -0.999724
0.012422 -0.050113 -0.998666
-0.096030 -0.995378 0.000000
-0.008225 -0.999966 0.000000
-0.008225 -0.999966 0.000000
-0.008225 -0.999966 0.000000
-0.096030 -0.995378 0.000000
-0.096030 -0.995378 0.000000
-0.131570 -0.058753 0.989564
-0.064384 -0.083878 0.994394
-0.075337 -0.000000 0.997158
-0.075337 -0.000000 0.997158
-0.150247 -0.000000 0.988649
-0.131570 -0.058753 0.989564
-1.000000 0.000000 0.000000
-0.999389 -0.034952 0.000000
-0.999389 -0.034952 0.000000
-0.999389 -0.034952 0.000000
-1.000000 0.000000 0.000000
-1.000000 0.000000 0.000000
-0.150243 0.000000 -0.988649
-0.075336 0.000000 -0.997158
-0.064384 -0.083873 -0.994394
-0.064384 -0.083873 -0.994394
-0.131566 -0.058752 -0.989565
-0.150243 0.000000 -0.988649
0.106203 -0.039444 -0.993562
0.055421 -0.003719 -0.998456
0.049529 -0.003718 -0.998766
0.049529 -0.003718 -0.998766
0.055349 -0.039649 -0.997680
0.106203 -0.039444 -0.993562
0.071907 -0.081068 -0.994111
0.106203 -0.039444 -0.993562
0.055349 -0.039649 -0.997680
0.055349 -0.039649 -0.997680
0.028054 -0.088408 -0.995689
0.071907 -0.081068 -0.994111
0.001914 -0.045199 -0.998976
0.014335 -0.071761 -0.997319
0.019483 -0.092537 -0.995519
0.019483 -0.092537 -0.995519
0.008388 -0.068061 -0.997646
0.001914 -0.045199 -0.998976
0.003605 -0.031400 -0.999500
0.001914 -0.045199 -0.998976
0.008388 -0.068061 -0.997646
0.008388 -0.068061 -0.997646
0.008358 -0.049727 -0.998728
0.003605 -0.031400 -0.999500
0.005152 -0.029813 -0.999542
0.003605 -0.031400 -0.999500
0.008358 -0.049727 -0.998728
0.008358 -0.049727 -0.998728
0.007337 -0.044950 -0.998962
0.005152 -0.029813 -0.999542
0.008370 -0.037666 -0.999255
0.005152 -0.029813 -0.999542
0.007337 -0.044950 -0.998962
0.007337 -0.044950 -0.998962
0.009785 -0.046117 -0.998888
0.008370 -0.037666 -0.999255
0.953855 -0.300267 0.000000
0.958916 -0.283690 0.000000
0.958916 -0.283689 0.000000
0.958916 -0.283689 0.000000
0.953856 -0.300264 0.000000
0.953855 -0.300267 0.000000
0.007337 -0.044952 0.998962
0.005150 -0.029805 0.999542
0.008369 -0.037662 0.999255
0.008369 -0.037662 0.999255
0.009785 -0.046118 0.998888
0.007337 -0.044952 0.998962
0.008358 -0.049727 0.998728
0.003604 -0.031395 0.999501
0.005150 -0.029805 0.999542
0.005150 -0.029805 0.999542
0.007337 -0.044952 0.998962
0.008358 -0.049727 0.998728
0.008389 -0.068060 0.997646
0.001914 -0.045197 0.998976
0.003604 -0.031395 0.999501
0.003604 -0.031395 0.999501
0.008358 -0.049727 0.998728
0.008389 -0.068060 0.997646
0.019482 -0.092537 0.995519
0.014334 -0.071764 0.997319
0.001914 -0.045197 0.998976
0.001914 -0.045197 0.998976
0.008389 -0.068060 0.997646
0.019482 -0.092537 0.995519
0.028053 -0.088409 0.995689
0.055350 -0.039650 0.997679
0.106205 -0.039438 0.993562
0.106205 -0.039438 0.993562
0.071907 -0.081067 0.994111
0.028053 -0.088409 0.995689
-0.129687 -0.003667 0.991548
-0.001650 0.064201 0.997936
0.106205 -0.039438 0.993562
0.106205 -0.039438 0.993562
0.055350 -0.039650 0.997679
-0.129687 -0.003667 0.991548
0.000000 1.000000 0.000000
-0.136214 0.990679 0.000000
-0.136215 0.990679 0.000000
-0.136215 0.990679 0.000000
0.000000 1.000000 0.000000
0.000000 1.000000 0.000000
0.014335 -0.071761 -0.997319
0.071907 -0.081068 -0.994111
0.028054 -0.088408 -0.995689
0.028054 -0.088408 -0.995689
0.019483 -0.092537 -0.995519
0.014335 -0.071761 -0.997319
0.077150 -0.072610 -0.994372
0.071907 -0.081068 -0.994111
0.014335 -0.071761 -0.997319
0.014335 -0.071761 -0.997319
0.012422 -0.050113 -0.998666
0.077150 -0.072610 -0.994372
-0.211318 -0.977417 0.000000
-0.096030 -0.995378 0.000000
-0.096030 -0.995378 0.000000
-0.096030 -0.995378 0.000000
-0.211318 -0.977417 0.000000
-0.211318 -0.977417 0.000000
0.003356 -0.999994 0.000000
0.003356 -0.999994 0.000000
-0.211318 -0.977417 0.000000
-0.211318 -0.977417 0.000000
-0.211318 -0.977417 0.000000
0.003356 -0.999994 0.000000
0.003356 -0.999994 0.000000
0.114379 -0.993437 0.000000
0.114379 -0.993437 0.000000
0.114379 -0.993437 0.000000
0.003356 -0.999994 0.000000
0.003356 -0.999994 0.000000
0.071907 -0.081067 0.994111
0.077151 -0.072610 0.994372
0.012421 -0.050117 0.998666
0.012421 -0.050117 0.998666
0.014334 -0.071764 0.997319
0.071907 -0.081067 0.994111
0.028053 -0.088409 0.995689
0.071907 -0.081067 0.994111
0.014334 -0.071764 0.997319
0.014334 -0.071764 0.997319
0.019482 -0.092537 0.995519
0.028053 -0.088409 0.995689
-0.150247 -0.000000 0.988649
-0.075337 -0.000000 0.997158
-0.066169 0.022669 0.997551
-0.066169 0.022669 0.997551
-0.132282 0.019299 0.991024
-0.150247 -0.000000 0.988649
-1.000000 0.000000 0.000000
-1.000000 0.000000 0.000000
-0.999932 0.011639 0.000000
-0.999932 0.011639 0.000000
-0.999932 0.011639 0.000000
-1.000000 0.000000 0.000000
-0.132279 0.019298 -0.991025
-0.066168 0.022668 -0.997551
-0.075336 0.000000 -0.997158
-0.075336 0.000000 -0.997158
-0.150243 0.000000 -0.988649
-0.132279 0.019298 -0.991025
0.055349 -0.039649 -0.997680
0.049529 -0.003718 -0.998766
0.043883 -0.002122 -0.999034
0.043883 -0.002122 -0.999034
0.010373 -0.022511 -0.999693
0.055349 -0.039649 -0.997680
0.028054 -0.088408 -0.995689
0.055349 -0.039649 -0.997680
0.010373 -0.022511 -0.999693
0.010373 -0.022511 -0.999693
-0.013055 -0.049933 -0.998667
0.028054 -0.088408 -0.995689
0.019483 -0.092537 -0.995519
0.028054 -0.088408 -0.995689
-0.013055 -0.049933 -0.998667
-0.013055 -0.049933 -0.998667
0.025849 -0.052409 -0.998291
0.019483 -0.092537 -0.995519
0.008388 -0.068061 -0.997646
0.019483 -0.092537 -0.995519
0.025849 -0.052409 -0.998291
0.025849 -0.052409 -0.998291
0.012302 -0.055797 -0.998366
0.008388 -0.068061 -0.997646
0.008358 -0.049727 -0.998728
0.008388 -0.068061 -0.997646
0.012302 -0.055797 -0.998366
0.012302 -0.055797 -0.998366
0.009257 -0.077777 -0.996928
0.008358 -0.049727 -0.998728
0.007337 -0.044950 -0.998962
0.008358 -0.049727 -0.998728
0.009257 -0.077777 -0.996928
0.009257 -0.077777 -0.996928
0.007726 -0.083209 -0.996502
0.007337 -0.044950 -0.998962
0.009785 -0.046117 -0.998888
0.007337 -0.044950 -0.998962
0.007726 -0.083209 -0.996502
0.007726 -0.083209 -0.996502
0.010359 -0.070672 -0.997446
0.009785 -0.046117 -0.998888
0.958916 -0.283689 0.000000
0.958916 -0.283690 0.000000
0.963521 0.267633 0.000000
0.963521 0.267633 0.000000
0.963521 0.267632 0.000000
0.958916 -0.283689 0.000000
0.007726 -0.083211 0.996502
0.007337 -0.044952 0.998962
0.009785 -0.046118 0.998888
0.009785 -0.046118 0.998888
0.010360 -0.070673 0.997446
0.007726 -0.083211 0.996502
0.009257 -0.077779 0.996928
0.008358 -0.049727 0.998728
0.007337 -0.044952 0.998962
0.007337 -0.044952 0.998962
0.007726 -0.083211 0.996502
0.009257 -0.077779 0.996928
0.012302 -0.055796 0.998366
0.008389 -0.068060 0.997646
0.008358 -0.049727 0.998728
0.008358 -0.049727 0.998728
0.009257 -0.077779 0.996928
0.012302 -0.055796 0.998366
0.025849 -0.052408 0.998291
0.019482 -0.092537 0.995519
0.008389 -0.068060 0.997646
0.008389 -0.068060 0.997646
0.012302 -0.055796 0.998366
0.025849 -0.052408 0.998291
-0.013055 -0.049935 0.998667
0.028053 -0.088409 0.995689
0.019482 -0.092537 0.995519
0.019482 -0.092537 0.995519
0.025849 -0.052408 0.998291
-0.013055 -0.049935 0.998667
-0.013055 -0.049935 0.998667
0.010375 -0.022514 0.999693
0.055350 -0.039650 0.997679
0.055350 -0.039650 0.997679
0.028053 -0.088409 0.995689
-0.013055 -0.049935 0.998667
-0.017994 -0.038845 0.999083
-0.129687 -0.003667 0.991548
0.055350 -0.039650 0.997679
0.055350 -0.039650 0.997679
0.010375 -0.022514 0.999693
-0.017994 -0.038845 0.999083
0.999317 -0.035060 -0.011687
0.999237 -0.037049 -0.012350
0.999237 -0.037049 0.012350
0.999237 -0.037049 0.012350
0.999317 -0.035061 0.011687
0.999317 -0.035060 -0.011687
1.000000 0.000000 0.000000
1.000000 0.000000 0.000000
1.000000 0.000000 0.000000
1.000000 0.000000 0.000000
1.000000 0.000000 0.000000
1.000000 0.000000 0.000000
0.945235 -0.326166 -0.012100
0.828554 -0.559910 0.000000
0.828554 -0.559910 0.000000
0.828554 -0.559910 0.000000
0.942592 -0.333742 -0.011737
0.945235 -0.326166 -0.012100
0.828554 -0.559910 0.000000
0.945235 -0.326166 0.012100
0.942592 -0.333742 0.011738
0.942592 -0.333742 0.011738
0.828554 -0.559910 0.000000
0.828554 -0.559910 0.000000
0.933829 -0.357719 0.000000
0.744074 -0.668097 0.000000
0.744074 -0.668097 0.000000
0.744074 -0.668097 0.000000
0.920417 -0.390938 0.000000
0.933829 -0.357719 0.000000
1.000000 0.000000 0.000000
0.933829 -0.357719 0.000000
0.920417 -0.390938 0.000000
0.920417 -0.390938 0.000000
1.000000 0.000000 0.000000
1.000000 0.000000 0.000000
1.000000 0.000000 0.000000
1.000000 0.000000 0.000000
1.000000 0.000000 0.000000
1.000000 0.000000 0.000000
1.000000 0.000000 0.000000
1.000000 0.000000 0.000000
0.933829 -0.357719 0.000000
1.000000 0.000000 0.000000
1.000000 0.000000 0.000000
1.000000 0.000000 0.000000
0.920417 -0.390937 0.000000
0.933829 -0.357719 0.000000
0.744074 -0.668097 0.000000
0.933829 -0.357719 0.000000
0.920417 -0.390937 0.000000
0.920417 -0.390937 0.000000
0.744074 -0.668097 0.000000
0.744074 -0.668097 0.000000
0.034514 -0.011954 0.999333
0.019851 0.086201 0.996080
-0.119686 0.081949 0.989424
-0.119686 0.081949 0.989424
-0.175601 -0.000315 0.984461
0.034514 -0.011954 0.999333
0.010570 0.062588 0.997983
0.000813 0.099777 0.995010
0.053797 0.104679 0.993050
0.053797 0.104679 0.993050
-0.001650 0.064201 0.997936
0.010570 0.062588 0.997983
0.010570 0.062588 0.997983
-0.001650 0.064201 0.997936
0.019851 0.086201 0.996080
-0.001650 0.064201 0.997936
-0.119686 0.081949 0.989424
0.019851 0.086201 0.996080
0.000000 -1.000000 0.000000
0.000000 -1.000000 0.000000
0.114379 -0.993437 0.000000
0.114379 -0.993437 0.000000
0.114379 -0.993437 0.000000
0.000000 -1.000000 0.000000
0.000000 0.000000 -1.000000
0.000000 0.000000 -1.000000
0.055421 -0.003719 -0.998456
0.055421 -0.003719 -0.998456
0.052638 -0.003418 -0.998608
0.000000 0.000000 -1.000000
0.000000 0.000000 -1.000000
0.000000 0.000000 -1.000000
0.049529 -0.003718 -0.998766
0.049529 -0.003718 -0.998766
0.055421 -0.003719 -0.998456
0.000000 0.000000 -1.000000
0.043883 -0.002122 -0.999034
0.049529 -0.003718 -0.998766
0.000000 0.000000 -1.000000
0.000000 0.000000 -1.000000
0.000000 0.000000 -1.000000
0.043883 -0.002122 -0.999034
0.115543 0.993302 0.000000
0.000000 1.000000 0.000000
0.000000 1.000000 0.000000
0.000000 1.000000 0.000000
0.115543 0.993302 0.000000
0.115543 0.993302 0.000000
0.018390 -0.177849 0.983886
0.034514 -0.011954 0.999333
-0.175601 -0.000315 0.984461
-0.175601 -0.000315 0.984461
-0.117839 -0.171181 0.978167
0.018390 -0.177849 0.983886
0.000433 0.030724 0.999528
0.000000 0.000000 1.000000
0.000000 0.000000 1.000000
0.000000 0.000000 1.000000
0.001085 0.044598 0.999004
0.000433 0.030724 0.999528
0.001614 0.999999 0.000002
0.001614 0.999999 0.000002
0.003230 0.999995 0.000002
0.003230 0.999995 0.000002
0.003230 0.999995 0.000002
0.001614 0.999999 0.000002
0.000000 0.000000 -1.000000
0.000000 0.000000 -1.000000
0.000433 0.030722 -0.999528
0.000433 0.030722 -0.999528
0.001085 0.044596 -0.999005
0.000000 0.000000 -1.000000
0.000000 -1.000000 0.000000
0.000000 -1.000000 0.000000
0.000000 -1.000000 0.000000
0.000000 -1.000000 0.000000
0.000000 -1.000000 0.000000
0.000000 -1.000000 0.000000
0.000000 0.000000 -1.000000
0.000000 0.000000 -1.000000
0.000000 0.000000 -1.000000
0.000000 0.000000 -1.000000
0.000000 0.000000 -1.000000
0.000000 0.000000 -1.000000
0.000000 0.000000 -1.000000
0.000000 0.000000 -1.000000
0.000000 0.000000 -1.000000
0.000000 0.000000 -1.000000
0.000000 0.000000 -1.000000
0.000000 0.000000 -1.000000
0.000000 -1.000000 0.000000
0.000000 -1.000000 0.000000
0.000000 -1.000000 0.000000
0.000000 -1.000000 0.000000
0.000000 -1.000000 0.000000
0.000000 -1.000000 0.000000
0.000000 -1.000000 0.000000
0.000000 -1.000000 0.000000
0.000000 -1.000000 0.000000
0.000000 0.000000 1.000000
0.000000 0.000000 1.000000
0.000813 0.099777 0.995010
0.000813 0.099777 0.995010
0.010570 0.062588 0.997983
0.000000 0.000000 1.000000
0.034401 -0.009174 0.999366
0.000000 0.000000 1.000000
0.000000 0.000000 1.000000
0.000000 0.000000 1.000000
0.010570 0.062588 0.997983
0.034401 -0.009174 0.999366
0.000000 -1.000000 0.000000
0.000000 -1.000000 0.000000
0.000000 -1.000000 0.000000
0.000000 -1.000000 0.000000
0.000000 -1.000000 0.000000
0.000000 -1.000000 0.000000
-0.053606 -0.167208 0.984463
0.005252 -0.214304 0.976753
0.002142 -0.087402 0.996171
0.002142 -0.087402 0.996171
-0.064384 -0.083878 0.994394
-0.053606 -0.167208 0.984463
0.000000 0.000000 1.000000
-0.075337 -0.000000 0.997158
-0.064384 -0.083878 0.994394
-0.064384 -0.083878 0.994394
0.002142 -0.087402 0.996171
0.000000 0.000000 1.000000
-0.066169 0.022669 0.997551
-0.075337 -0.000000 0.997158
0.000000 0.000000 1.000000
0.000000 0.000000 1.000000
0.000433 0.030724 0.999528
-0.066169 0.022669 0.997551
-0.035179 0.999381 0.000001
-0.035179 0.999381 0.000001
0.001614 0.999999 0.000002
0.001614 0.999999 0.000002
0.001614 0.999999 0.000002
-0.035179 0.999381 0.000001
0.000433 0.030722 -0.999528
0.000000 0.000000 -1.000000
-0.075336 0.000000 -0.997158
-0.075336 0.000000 -0.997158
-0.066168 0.022668 -0.997551
0.000433 0.030722 -0.999528
-0.064384 -0.083873 -0.994394
-0.075336 0.000000 -0.997158
0.000000 0.000000 -1.000000
0.000000 0.000000 -1.000000
0.002142 -0.087399 -0.996171
-0.064384 -0.083873 -0.994394
-0.053601 -0.167205 -0.984464
-0.064384 -0.083873 -0.994394
0.002142 -0.087399 -0.996171
0.002142 -0.087399 -0.996171
0.005253 -0.214296 -0.976755
-0.053601 -0.167205 -0.984464
0.008624 -0.999949 0.005244
0.006208 -0.999949 0.008006
-0.000520 -0.999877 0.015699
-0.000520 -0.999877 0.015699
-0.000520 -0.999877 0.015699
0.008624 -0.999949 0.005244
0.000000 0.000000 1.000000
0.000000 0.000000 1.000000
0.000000 0.000000 1.000000
0.000000 0.000000 1.000000
0.000000 0.000000 1.000000
0.000000 0.000000 1.000000
0.000000 -1.000000 0.000000
0.000000 -1.000000 0.000000
0.000000 -1.000000 0.000000
0.000000 -1.000000 0.000000
0.000000 -1.000000 0.000000
0.000000 -1.000000 0.000000
0.000000 0.000000 -1.000000
0.000000 0.000000 -1.000000
0.000000 0.000000 -1.000000
0.000000 0.000000 -1.000000
0.000000 0.000000 -1.000000
0.000000 0.000000 -1.000000
-0.000522 -0.999871 -0.016066
0.006207 -0.999947 -0.008194
0.008624 -0.999948 -0.005367
0.008624 -0.999948 -0.005367
-0.000522 -0.999871 -0.016066
-0.000522 -0.999871 -0.016066
1.000000 0.000000 0.000000
1.000000 0.000000 0.000000
1.000000 0.000000 0.000000
1.000000 0.000000 0.000000
1.000000 0.000000 0.000000
1.000000 0.000000 0.000000
0.000000 -1.000000 0.000000
0.000000 -1.000000 0.000000
0.000000 -1.000000 0.000000
-0.132282 0.019299 0.991024
-0.066169 0.022669 0.997551
-0.055829 0.045480 0.997404
-0.055829 0.045480 0.997404
-0.113995 0.038828 0.992722
-0.132282 0.019299 0.991024
0.000864 0.061408 0.998112
-0.055829 0.045480 0.997404
-0.066169 0.022669 0.997551
-0.066169 0.022669 0.997551
0.000433 0.030724 0.999528
0.000864 0.061408 0.998112
0.001731 0.071135 0.997465
0.000864 0.061408 0.998112
0.000433 0.030724 0.999528
0.000433 0.030724 0.999528
0.001085 0.044598 0.999004
0.001731 0.071135 0.997465
0.945235 -0.326166 0.012100
0.999317 -0.035061 0.011687
0.999237 -0.037049 0.012350
0.999237 -0.037049 0.012350
0.942592 -0.333742 0.011738
0.945235 -0.326166 0.012100
0.038657 -0.000470 0.999252
0.000000 0.000000 1.000000
0.026368 -0.074711 0.996857
0.026368 -0.074711 0.996857
-0.017994 -0.038845 0.999083
0.038657 -0.000470 0.999252
-0.005682 -0.005495 0.999969
0.038657 -0.000470 0.999252
-0.017994 -0.038845 0.999083
-0.017994 -0.038845 0.999083
0.010375 -0.022514 0.999693
-0.005682 -0.005495 0.999969
-0.018727 -0.011583 0.999758
-0.005682 -0.005495 0.999969
0.010375 -0.022514 0.999693
0.010375 -0.022514 0.999693
-0.013055 -0.049935 0.998667
-0.018727 -0.011583 0.999758
0.027935 -0.012074 0.999537
-0.018727 -0.011583 0.999758
-0.013055 -0.049935 0.998667
-0.013055 -0.049935 0.998667
0.025849 -0.052408 0.998291
0.027935 -0.012074 0.999537
0.011870 -0.043489 0.998983
0.027935 -0.012074 0.999537
0.025849 -0.052408 0.998291
0.025849 -0.052408 0.998291
0.012302 -0.055796 0.998366
0.011870 -0.043489 0.998983
0.008032 -0.105847 0.994350
0.011870 -0.043489 0.998983
0.012302 -0.055796 0.998366
0.012302 -0.055796 0.998366
0.009257 -0.077779 0.996928
0.008032 -0.105847 0.994350
0.008494 -0.121898 0.992506
0.008032 -0.105847 0.994350
0.009257 -0.077779 0.996928
0.009257 -0.077779 0.996928
0.007726 -0.083211 0.996502
0.008494 -0.121898 0.992506
0.011720 -0.107899 0.994093
0.008494 -0.121898 0.992506
0.007726 -0.083211 0.996502
0.007726 -0.083211 0.996502
0.010360 -0.070673 0.997446
0.011720 -0.107899 0.994093
0.963521 0.267633 0.000000
0.867566 0.497323 0.000000
0.867566 0.497323 0.000000
0.867566 0.497323 0.000000
0.963521 0.267632 0.000000
0.963521 0.267633 0.000000
0.010359 -0.070672 -0.997446
0.007726 -0.083209 -0.996502
0.008495 -0.121896 -0.992507
0.008495 -0.121896 -0.992507
0.011720 -0.107898 -0.994093
0.010359 -0.070672 -0.997446
0.007726 -0.083209 -0.996502
0.009257 -0.077777 -0.996928
0.008032 -0.105843 -0.994350
0.008032 -0.105843 -0.994350
0.008495 -0.121896 -0.992507
0.007726 -0.083209 -0.996502
0.009257 -0.077777 -0.996928
0.012302 -0.055797 -0.998366
0.011870 -0.043487 -0.998983
0.011870 -0.043487 -0.998983
0.008032 -0.105843 -0.994350
0.009257 -0.077777 -0.996928
0.012302 -0.055797 -0.998366
0.025849 -0.052409 -0.998291
0.027934 -0.012075 -0.999537
0.027934 -0.012075 -0.999537
0.011870 -0.043487 -0.998983
0.012302 -0.055797 -0.998366
0.025849 -0.052409 -0.998291
-0.013055 -0.049933 -0.998667
-0.018728 -0.011581 -0.999758
-0.018728 -0.011581 -0.999758
0.027934 -0.012075 -0.999537
0.025849 -0.052409 -0.998291
-0.013055 -0.049933 -0.998667
0.010373 -0.022511 -0.999693
-0.005683 -0.005491 -0.999969
-0.005683 -0.005491 -0.999969
-0.018728 -0.011581 -0.999758
-0.013055 -0.049933 -0.998667
0.010373 -0.022511 -0.999693
0.043883 -0.002122 -0.999034
0.038657 -0.000469 -0.999252
0.038657 -0.000469 -0.999252
-0.005683 -0.005491 -0.999969
0.010373 -0.022511 -0.999693
0.000000 0.000000 -1.000000
0.038657 -0.000469 -0.999252
0.043883 -0.002122 -0.999034
0.043883 -0.002122 -0.999034
0.000000 0.000000 -1.000000
0.000000 0.000000 -1.000000
0.999237 -0.037049 -0.012350
0.999317 -0.035060 -0.011687
0.945235 -0.326166 -0.012100
0.945235 -0.326166 -0.012100
0.942592 -0.333742 -0.011737
0.999237 -0.037049 -0.012350
0.001085 0.044596 -0.999005
0.000433 0.030722 -0.999528
0.000865 0.061404 -0.998113
0.000865 0.061404 -0.998113
0.001731 0.071132 -0.997465
0.001085 0.044596 -0.999005
-0.055826 0.045477 -0.997404
0.000865 0.061404 -0.998113
0.000433 0.030722 -0.999528
0.000433 0.030722 -0.999528
-0.066168 0.022668 -0.997551
-0.055826 0.045477 -0.997404
-0.113992 0.038827 -0.992723
-0.055826 0.045477 -0.997404
-0.066168 0.022668 -0.997551
-0.066168 0.022668 -0.997551
-0.132279 0.019298 -0.991025
-0.113992 0.038827 -0.992723
-0.999725 0.023453 0.000000
-0.999725 0.023453 0.000000
-0.999932 0.011639 0.000000
-0.999932 0.011639 0.000000
-0.999932 0.011639 0.000000
-0.999725 0.023453 0.000000
-0.001650 0.064201 0.997936
-0.129687 -0.003667 0.991548
-0.175601 -0.000315 0.984461
-0.175601 -0.000315 0.984461
-0.119686 0.081949 0.989424
-0.001650 0.064201 0.997936
-0.129687 -0.003667 0.991548
-0.017994 -0.038845 0.999083
-0.117839 -0.171181 0.978167
-0.117839 -0.171181 0.978167
-0.175601 -0.000315 0.984461
-0.129687 -0.003667 0.991548
0.034401 -0.009174 0.999366
0.010570 0.062588 0.997983
0.019851 0.086201 0.996080
0.019851 0.086201 0.996080
0.034514 -0.011954 0.999333
0.034401 -0.009174 0.999366
0.026368 -0.074711 0.996857
0.034401 -0.009174 0.999366
0.034514 -0.011954 0.999333
0.034514 -0.011954 0.999333
0.018390 -0.177849 0.983886
0.026368 -0.074711 0.996857
-0.017994 -0.038845 0.999083
0.026368 -0.074711 0.996857
0.018390 -0.177849 0.983886
0.018390 -0.177849 0.983886
-0.117839 -0.171181 0.978167
-0.017994 -0.038845 0.999083
</float_array>
          <technique_common>
            <accessor source="#cutlery_knife-lib-Normal0-array" count="864" stride="3">
              <param name="X" type="float"/>
              <param name="Y" type="float"/>
              <param name="Z" type="float"/>
            </accessor>
          </technique_common>
        </source>
        <source id="cutlery_knife-lib-UV0">
          <float_array id="cutlery_knife-lib-UV0-array" count="348">
0.843308 0.037717
0.973279 0.171603
0.766146 0.352657
0.839013 0.041781
0.835174 0.037646
0.013847 0.988248
0.839417 0.033727
0.425504 0.459395
0.427712 0.461598
0.969019 0.175072
0.994130 0.195987
0.965306 0.170856
0.990095 0.199794
0.411959 0.486286
0.409974 0.484255
0.969846 0.166962
0.986685 0.195924
0.014665 0.987303
0.389549 0.498581
0.017139 0.989667
0.387262 0.496323
0.091134 0.790044
0.093574 0.792420
0.518415 0.594134
0.972267 0.178931
0.013796 0.931879
0.891558 0.095202
0.012884 0.931007
0.156190 0.706271
0.541799 0.576261
0.046331 0.962861
0.159052 0.709134
0.895588 0.091314
0.227021 0.630387
0.230017 0.633360
0.543943 0.578431
0.984662 0.195275
0.916745 0.112910
0.303665 0.560305
0.306482 0.563074
0.865555 0.060268
0.520571 0.596194
0.503642 0.615872
0.505760 0.618267
0.861236 0.064483
0.448914 0.482673
0.431593 0.506098
0.411385 0.520391
0.333730 0.589770
0.258936 0.662038
0.186667 0.736617
0.117136 0.815300
0.017021 0.946299
0.016234 0.990530
0.209398 0.905986
0.211812 0.908362
0.073169 0.989899
0.072272 0.989003
0.290808 0.839944
0.293657 0.842747
0.883627 0.078733
0.879326 0.082829
0.466267 0.499670
0.448865 0.523399
0.428686 0.538114
0.356098 0.611638
0.282656 0.685563
0.209297 0.759004
0.136423 0.833919
0.024022 0.976665
0.365377 0.770034
0.368282 0.773020
0.436193 0.696191
0.438843 0.699060
0.943402 0.147565
0.947748 0.143378
0.186153 0.883006
0.057789 0.986118
0.263371 0.812785
0.024280 0.953169
0.685667 0.280362
0.679812 0.250551
0.682212 0.252040
0.912888 0.116843
0.455464 0.530021
0.476559 0.509555
0.493707 0.526771
0.473336 0.548334
0.438162 0.548391
0.687972 0.279170
0.791581 0.083360
0.788817 0.084470
0.787963 0.082479
0.792085 0.080710
0.793715 0.085567
0.337330 0.741176
0.410453 0.668402
0.482431 0.593075
0.747276 0.335246
0.861078 0.012262
0.865301 0.015944
0.778061 0.351362
0.796462 0.084773
0.497343 0.573033
0.797076 0.125586
0.799521 0.127213
0.520299 0.555342
0.925244 0.129171
0.929429 0.124895
0.656163 0.227578
0.658411 0.229764
0.817720 0.144550
0.927358 0.217852
0.454857 0.565373
0.167212 0.864132
0.924973 0.215700
0.925893 0.213111
0.040542 0.957197
0.927393 0.215930
0.213578 0.911002
0.074854 0.992777
0.230002 0.779472
0.147482 0.844541
0.303390 0.706323
0.220339 0.769875
0.293628 0.696468
0.378753 0.634312
0.367108 0.622385
0.972616 0.181001
0.295706 0.845112
0.050750 0.979019
0.240936 0.790416
0.314173 0.717370
0.795246 0.369503
0.389223 0.645565
0.464957 0.575140
0.479926 0.555055
0.370470 0.775233
0.714176 0.310312
0.942094 0.234297
0.696092 0.291896
0.697243 0.290499
0.829979 0.156449
0.945032 0.237726
0.715648 0.309157
0.503511 0.537081
0.755988 0.327184
0.725482 0.320918
0.940630 0.232586
0.441138 0.701181
0.775897 0.349075
0.513730 0.625634
0.525682 0.550622
0.862972 0.189634
0.543156 0.568372
0.880375 0.207711
0.882025 0.210141
0.034394 0.973291
0.726900 0.318631
0.754463 0.324779
0.156395 0.853286
0.030381 0.969403
0.027352 0.979879
0.922568 0.213460
0.533911 0.611511
0.887793 0.038665
0.906023 0.057512
0.723825 0.327525
0.917691 0.070424
0.922634 0.210302
0.510975 0.535559
0.851027 0.177427
0.942583 0.234723
0.560822 0.596484
</float_array>
          <technique_common>
            <accessor source="#cutlery_knife-lib-UV0-array" count="174" stride="2">
              <param name="S" type="float"/>
              <param name="T" type="float"/>
            </accessor>
          </technique_common>
        </source>
        <vertices id="cutlery_knife-lib-Vertex">
          <input semantic="POSITION" source="#cutlery_knife-lib-Position"/>
        </vertices>
        <polygons material="cutlery_knife" count="288">
          <input semantic="VERTEX" offset="0" source="#cutlery_knife-lib-Vertex"/>
          <input semantic="NORMAL" offset="1" source="#cutlery_knife-lib-Normal0"/>
          <input semantic="TEXCOORD" offset="2" set="0" source="#cutlery_knife-lib-UV0"/>
          <p>72 0 10 73 1 12 74 2 16</p>
          <p>74 3 16 113 4 24 72 5 10</p>
          <p>72 6 10 113 7 24 75 8 1</p>
          <p>113 9 24 127 10 9 75 11 1</p>
          <p>75 12 1 127 13 9 76 14 11</p>
          <p>76 15 11 77 16 15 75 17 1</p>
          <p>112 18 26 137 19 32 85 20 37</p>
          <p>85 21 37 131 22 83 112 23 26</p>
          <p>78 24 0 79 25 3 73 26 4</p>
          <p>73 27 4 72 28 6 78 29 0</p>
          <p>18 30 5 35 31 17 36 32 19</p>
          <p>36 33 19 1 34 53 18 35 5</p>
          <p>78 36 0 72 37 6 75 38 99</p>
          <p>75 39 99 77 40 100 78 41 0</p>
          <p>95 42 7 96 43 8 29 44 13</p>
          <p>29 45 13 22 46 14 95 47 7</p>
          <p>2 48 84 128 49 85 133 50 86</p>
          <p>133 51 86 21 52 87 2 53 84</p>
          <p>41 54 23 93 55 29 94 56 35</p>
          <p>94 57 35 23 58 41 41 59 23</p>
          <p>53 60 42 41 61 23 23 62 41</p>
          <p>23 63 41 27 64 43 53 65 42</p>
          <p>51 66 88 2 67 84 21 68 87</p>
          <p>21 69 87 25 70 113 51 71 88</p>
          <p>22 72 14 29 73 13 30 74 18</p>
          <p>30 75 18 26 76 20 22 77 14</p>
          <p>37 78 54 3 79 55 1 80 56</p>
          <p>1 81 56 36 82 57 37 83 54</p>
          <p>17 84 117 4 85 122 134 86 160</p>
          <p>134 87 160 0 88 30 17 89 117</p>
          <p>5 90 21 34 91 22 35 92 25</p>
          <p>35 93 25 18 94 27 5 95 21</p>
          <p>5 96 119 18 97 120 1 98 56</p>
          <p>1 99 56 3 100 55 5 101 119</p>
          <p>38 102 58 6 103 59 3 104 55</p>
          <p>3 105 55 37 106 54 38 107 58</p>
          <p>4 108 122 8 109 124 7 110 121</p>
          <p>7 111 121 134 112 160 4 113 122</p>
          <p>9 114 28 33 115 31 34 116 22</p>
          <p>34 117 22 5 118 21 9 119 28</p>
          <p>9 120 129 5 121 119 3 122 55</p>
          <p>3 123 55 6 124 59 9 125 129</p>
          <p>39 126 70 10 127 71 6 128 59</p>
          <p>6 129 59 38 130 58 39 131 70</p>
          <p>8 132 124 12 133 125 11 134 123</p>
          <p>11 135 123 7 136 121 8 137 124</p>
          <p>13 138 33 32 139 34 33 140 31</p>
          <p>33 141 31 9 142 28 13 143 33</p>
          <p>13 144 137 9 145 129 6 146 59</p>
          <p>6 147 59 10 148 71 13 149 137</p>
          <p>40 150 72 14 151 73 10 152 71</p>
          <p>10 153 71 39 154 70 40 155 72</p>
          <p>12 156 125 135 157 127 15 158 126</p>
          <p>15 159 126 11 160 123 12 161 125</p>
          <p>16 162 38 31 163 39 32 164 34</p>
          <p>32 165 34 13 166 33 16 167 38</p>
          <p>16 168 149 13 169 137 10 170 71</p>
          <p>10 171 71 14 172 73 16 173 149</p>
          <p>77 174 15 76 175 11 111 176 74</p>
          <p>111 177 74 82 178 75 77 179 15</p>
          <p>83 180 40 78 181 0 77 182 100</p>
          <p>77 183 100 82 184 165 83 185 40</p>
          <p>83 186 40 84 187 44 79 188 3</p>
          <p>79 189 3 78 190 0 83 191 40</p>
          <p>29 192 13 96 193 8 97 194 45</p>
          <p>97 195 45 56 196 46 29 197 13</p>
          <p>30 198 18 29 199 13 56 200 46</p>
          <p>56 201 46 57 202 47 30 203 18</p>
          <p>32 204 34 31 205 39 58 206 48</p>
          <p>58 207 48 59 208 49 32 209 34</p>
          <p>33 210 31 32 211 34 59 212 49</p>
          <p>59 213 49 60 214 50 33 215 31</p>
          <p>34 216 22 33 217 31 60 218 50</p>
          <p>60 219 50 61 220 51 34 221 22</p>
          <p>35 222 25 34 223 22 61 224 51</p>
          <p>61 225 51 62 226 52 35 227 25</p>
          <p>35 228 17 62 229 69 63 230 162</p>
          <p>63 231 162 36 232 19 35 233 17</p>
          <p>64 234 76 37 235 54 36 236 57</p>
          <p>36 237 57 63 238 77 64 239 76</p>
          <p>65 240 78 38 241 58 37 242 54</p>
          <p>37 243 54 64 244 76 65 245 78</p>
          <p>66 246 95 39 247 70 38 248 58</p>
          <p>38 249 58 65 250 78 66 251 95</p>
          <p>67 252 96 40 253 72 39 254 70</p>
          <p>39 255 70 66 256 95 67 257 96</p>
          <p>68 258 97 69 259 103 41 260 23</p>
          <p>41 261 23 53 262 42 68 263 97</p>
          <p>70 264 106 93 265 29 41 266 23</p>
          <p>41 267 23 69 268 103 70 269 106</p>
          <p>135 270 127 51 271 88 25 272 113</p>
          <p>25 273 113 15 274 126 135 275 127</p>
          <p>31 276 39 30 277 18 57 278 47</p>
          <p>57 279 47 58 280 48 31 281 39</p>
          <p>26 282 20 30 283 18 31 284 39</p>
          <p>31 285 39 16 286 38 26 287 20</p>
          <p>26 288 151 16 289 149 14 290 73</p>
          <p>14 291 73 27 292 43 26 293 151</p>
          <p>23 294 41 22 295 164 26 296 151</p>
          <p>26 297 151 27 298 43 23 299 41</p>
          <p>23 300 41 94 301 35 95 302 173</p>
          <p>95 303 173 22 304 164 23 305 41</p>
          <p>53 306 42 27 307 43 14 308 73</p>
          <p>14 309 73 40 310 72 53 311 42</p>
          <p>68 312 97 53 313 42 40 314 72</p>
          <p>40 315 72 67 316 96 68 317 97</p>
          <p>82 318 75 111 319 74 129 320 107</p>
          <p>129 321 107 80 322 108 82 323 75</p>
          <p>83 324 40 82 325 165 80 326 166</p>
          <p>80 327 166 81 328 60 83 329 40</p>
          <p>81 330 60 130 331 61 84 332 44</p>
          <p>84 333 44 83 334 40 81 335 60</p>
          <p>56 336 46 97 337 45 138 338 62</p>
          <p>138 339 62 19 340 63 56 341 46</p>
          <p>57 342 47 56 343 46 19 344 63</p>
          <p>19 345 63 52 346 64 57 347 47</p>
          <p>58 348 48 57 349 47 52 350 64</p>
          <p>52 351 64 20 352 65 58 353 48</p>
          <p>59 354 49 58 355 48 20 356 65</p>
          <p>20 357 65 46 358 66 59 359 49</p>
          <p>60 360 50 59 361 49 46 362 66</p>
          <p>46 363 66 47 364 67 60 365 50</p>
          <p>61 366 51 60 367 50 47 368 67</p>
          <p>47 369 67 48 370 68 61 371 51</p>
          <p>62 372 52 61 373 51 48 374 68</p>
          <p>48 375 68 49 376 79 62 377 52</p>
          <p>63 378 162 62 379 69 49 380 161</p>
          <p>49 381 161 50 382 157 63 383 162</p>
          <p>42 384 114 64 385 76 63 386 77</p>
          <p>63 387 77 50 388 130 42 389 114</p>
          <p>43 390 131 65 391 78 64 392 76</p>
          <p>64 393 76 42 394 114 43 395 131</p>
          <p>44 396 132 66 397 95 65 398 78</p>
          <p>65 399 78 43 400 131 44 401 132</p>
          <p>45 402 134 67 403 96 66 404 95</p>
          <p>66 405 95 44 406 132 45 407 134</p>
          <p>28 408 135 68 409 97 67 410 96</p>
          <p>67 411 96 45 412 134 28 413 135</p>
          <p>28 414 135 24 415 136 69 416 103</p>
          <p>69 417 103 68 418 97 28 419 135</p>
          <p>139 420 145 70 421 106 69 422 103</p>
          <p>69 423 103 24 424 136 139 425 145</p>
          <p>92 426 140 136 427 141 132 428 144</p>
          <p>132 429 144 115 430 138 92 431 140</p>
          <p>119 432 36 120 433 128 113 434 24</p>
          <p>113 435 24 74 436 16 119 437 36</p>
          <p>116 438 80 117 439 81 86 440 82</p>
          <p>86 441 82 125 442 89 116 443 80</p>
          <p>122 444 146 114 445 147 124 446 158</p>
          <p>124 447 158 123 448 159 122 449 146</p>
          <p>109 450 163 110 451 156 87 452 155</p>
          <p>87 453 155 98 454 169 109 455 163</p>
          <p>121 456 115 109 457 163 98 458 169</p>
          <p>98 459 169 99 460 116 121 461 115</p>
          <p>71 462 90 107 463 91 89 464 92</p>
          <p>89 465 92 100 466 93 71 467 90</p>
          <p>106 468 94 71 469 90 100 470 93</p>
          <p>100 471 93 101 472 102 106 473 94</p>
          <p>118 474 104 106 475 94 101 476 102</p>
          <p>101 477 102 105 478 105 118 479 104</p>
          <p>144 480 98 143 481 2 140 482 154</p>
          <p>140 483 154 141 484 152 144 485 98</p>
          <p>90 486 150 91 487 101 94 488 35</p>
          <p>94 489 35 93 490 29 90 491 150</p>
          <p>90 492 150 93 493 29 143 494 2</p>
          <p>93 495 29 140 496 154 143 497 2</p>
          <p>91 498 101 55 499 133 95 500 173</p>
          <p>95 501 173 94 502 35 91 503 101</p>
          <p>55 504 109 54 505 110 96 506 8</p>
          <p>96 507 8 95 508 7 55 509 109</p>
          <p>54 510 110 117 511 81 97 512 45</p>
          <p>97 513 45 96 514 8 54 515 110</p>
          <p>138 516 62 97 517 45 117 518 81</p>
          <p>117 519 81 116 520 80 138 521 62</p>
          <p>128 522 85 92 523 140 115 524 138</p>
          <p>115 525 138 133 526 86 128 527 85</p>
          <p>145 528 167 144 529 98 141 530 152</p>
          <p>141 531 152 142 532 170 145 533 167</p>
          <p>102 534 153 87 535 155 123 536 159</p>
          <p>123 537 159 124 538 158 102 539 153</p>
          <p>103 540 142 126 541 171 132 542 144</p>
          <p>132 543 144 136 544 141 103 545 142</p>
          <p>86 546 82 105 547 105 104 548 111</p>
          <p>104 549 111 125 550 89 86 551 82</p>
          <p>86 552 82 117 553 81 118 554 104</p>
          <p>118 555 104 105 556 105 86 557 82</p>
          <p>106 558 94 118 559 104 117 560 81</p>
          <p>117 561 81 54 562 110 106 563 94</p>
          <p>71 564 90 106 565 94 54 566 110</p>
          <p>54 567 110 55 568 109 71 569 90</p>
          <p>107 570 148 71 571 172 55 572 133</p>
          <p>108 573 112 107 574 148 55 575 133</p>
          <p>55 576 133 91 577 101 108 578 112</p>
          <p>109 579 163 121 580 115 91 581 101</p>
          <p>91 582 101 90 583 150 109 584 163</p>
          <p>122 585 146 110 586 156 109 587 163</p>
          <p>109 588 163 90 589 150 122 590 146</p>
          <p>110 591 156 122 592 146 123 593 159</p>
          <p>123 594 159 87 595 155 110 596 156</p>
          <p>127 597 9 99 598 116 98 599 169</p>
          <p>98 600 169 76 601 11 127 602 9</p>
          <p>87 603 155 111 604 74 76 605 11</p>
          <p>76 606 11 98 607 169 87 608 155</p>
          <p>129 609 107 111 610 74 87 611 155</p>
          <p>87 612 155 102 613 153 129 614 107</p>
          <p>112 615 26 131 616 83 126 617 171</p>
          <p>126 618 171 103 619 142 112 620 26</p>
          <p>104 621 111 105 622 105 84 623 44</p>
          <p>84 624 44 130 625 61 104 626 111</p>
          <p>79 627 3 84 628 44 105 629 105</p>
          <p>105 630 105 101 631 102 79 632 3</p>
          <p>73 633 4 79 634 3 101 635 102</p>
          <p>101 636 102 100 637 93 73 638 4</p>
          <p>74 639 16 73 640 12 100 641 143</p>
          <p>100 642 143 89 643 139 74 644 16</p>
          <p>89 645 139 107 646 148 119 647 36</p>
          <p>119 648 36 74 649 16 89 650 139</p>
          <p>120 651 128 119 652 36 107 653 148</p>
          <p>107 654 148 108 655 112 120 656 128</p>
          <p>120 657 128 108 658 112 88 659 118</p>
          <p>88 660 118 113 661 24 120 662 128</p>
          <p>99 663 116 127 664 9 113 665 24</p>
          <p>113 666 24 88 667 118 99 668 116</p>
          <p>108 669 112 121 670 115 99 671 116</p>
          <p>99 672 116 88 673 118 108 674 112</p>
          <p>91 675 101 121 676 115 108 677 112</p>
          <p>80 678 108 129 679 107 131 680 83</p>
          <p>131 681 83 85 682 37 80 683 108</p>
          <p>126 684 171 131 685 83 129 686 107</p>
          <p>129 687 107 102 688 153 126 689 171</p>
          <p>132 690 144 126 691 171 102 692 153</p>
          <p>102 693 153 124 694 158 132 695 144</p>
          <p>114 696 147 115 697 138 132 698 144</p>
          <p>132 699 144 124 700 158 114 701 147</p>
          <p>133 702 86 115 703 138 114 704 147</p>
          <p>114 705 147 139 706 145 133 707 86</p>
          <p>21 708 87 133 709 86 139 710 145</p>
          <p>139 711 145 24 712 136 21 713 87</p>
          <p>25 714 113 21 715 87 24 716 136</p>
          <p>24 717 136 28 718 135 25 719 113</p>
          <p>15 720 126 25 721 113 28 722 135</p>
          <p>28 723 135 45 724 134 15 725 126</p>
          <p>11 726 123 15 727 126 45 728 134</p>
          <p>45 729 134 44 730 132 11 731 123</p>
          <p>7 732 121 11 733 123 44 734 132</p>
          <p>44 735 132 43 736 131 7 737 121</p>
          <p>134 738 160 7 739 121 43 740 131</p>
          <p>43 741 131 42 742 114 134 743 160</p>
          <p>0 744 30 134 745 160 42 746 114</p>
          <p>42 747 114 50 748 130 0 749 30</p>
          <p>49 750 161 17 751 117 0 752 30</p>
          <p>0 753 30 50 754 157 49 755 161</p>
          <p>49 756 79 48 757 68 4 758 122</p>
          <p>4 759 122 17 760 117 49 761 79</p>
          <p>48 762 68 47 763 67 8 764 124</p>
          <p>8 765 124 4 766 122 48 767 68</p>
          <p>47 768 67 46 769 66 12 770 125</p>
          <p>12 771 125 8 772 124 47 773 67</p>
          <p>46 774 66 20 775 65 135 776 127</p>
          <p>135 777 127 12 778 125 46 779 66</p>
          <p>20 780 65 52 781 64 51 782 88</p>
          <p>51 783 88 135 784 127 20 785 65</p>
          <p>52 786 64 19 787 63 2 788 84</p>
          <p>2 789 84 51 790 88 52 791 64</p>
          <p>19 792 63 138 793 62 128 794 85</p>
          <p>128 795 85 2 796 84 19 797 63</p>
          <p>92 798 140 128 799 85 138 800 62</p>
          <p>138 801 62 116 802 80 92 803 140</p>
          <p>136 804 141 92 805 140 116 806 80</p>
          <p>116 807 80 125 808 89 136 809 141</p>
          <p>125 810 89 104 811 111 103 812 142</p>
          <p>103 813 142 136 814 141 125 815 89</p>
          <p>112 816 26 103 817 142 104 818 111</p>
          <p>104 819 111 130 820 61 112 821 26</p>
          <p>137 822 32 112 823 26 130 824 61</p>
          <p>130 825 61 81 826 60 137 827 32</p>
          <p>85 828 168 137 829 32 81 830 60</p>
          <p>81 831 60 80 832 166 85 833 168</p>
          <p>93 834 29 70 835 106 141 836 152</p>
          <p>141 837 152 140 838 154 93 839 29</p>
          <p>70 840 106 139 841 145 142 842 170</p>
          <p>142 843 170 141 844 152 70 845 106</p>
          <p>122 846 146 90 847 150 143 848 2</p>
          <p>143 849 2 144 850 98 122 851 146</p>
          <p>114 852 147 122 853 146 144 854 98</p>
          <p>144 855 98 145 856 167 114 857 147</p>
          <p>139 858 145 114 859 147 145 860 167</p>
          <p>145 861 167 142 862 170 139 863 145</p>
        </polygons>
      </mesh>
    </geometry>
  </library_geometries>
  <library_visual_scenes>
    <visual_scene id="RootNode" name="RootNode">
      <node id="cutlery_knife" name="cutlery_knife">
        <matrix sid="matrix">1.000000 0.000000 0.000000 0.000000 0.000000 0.000000 1.000000 0.000032 0.000000 -1.000000 0.000000 0.000000 0.000000 0.000000 0.000000 1.000000</matrix>
        <instance_geometry url="#cutlery_knife-lib">
          <bind_material>
            <technique_common>
              <instance_material symbol="cutlery_knife" target="#cutlery_knife"/>
            </technique_common>
          </bind_material>
        </instance_geometry>
      </node>
    </visual_scene>
  </library_visual_scenes>
  <scene>
    <instance_visual_scene url="#RootNode"/>
  </scene>
</COLLADA>

