<?xml version="1.0" encoding="utf-8" ?>
<COLLADA xmlns="http://www.collada.org/2005/11/COLLADASchema" version="1.4.1">
    <asset>
        <contributor>
            <authoring_tool>modo 601 [Build 48460], Microsoft Windows 7 Service Pack 1 (6.1.7601 Service Pack 1)</authoring_tool>
            <comments>
                Plug-in: [Build 48460];
                Use Absolute Path: No;
                Merge Reference Items: No;
                Save Hidden Items: Yes;
                Save Cameras: Yes;
                Save Lights: Yes;
                Save Locators: Yes;
                Save Triangles as Triangles: No;
                Bake Matrices: No;
                Save Vertex Normals: Yes;
                Save UV Texture Coordinates: Yes;
                Save Vertex Colors: Yes;
                Save Vertex Weights: Yes;
                Save Animation: Yes;
                Sample Animation: No;
                Sample Animation Start: 0;
                Sample Animation End: 120;
                Save modo Profile: Yes;
                Save Maya Profile: Yes;
                Save 3ds Max Profile: Yes;
                Formatted Arrays: Yes;
            </comments>
            <source_data>file:///D:/Work/Google%20Drive/Work%20-%20Studio/Station_batch06/assets/door_hatch_slide_ventilation/door_hatch_slide_ventilation_low.lxo</source_data>
        </contributor>
        <created>2012-05-18T20:28:16Z</created>
        <modified>2012-05-18T20:28:16Z</modified>
        <unit name="game" meter="1" />
        <up_axis>Y_UP</up_axis>
    </asset>
    <library_images>
        <image id="Image0001" name="Image0001">
            <init_from>file:///D:/Work/Google%20Drive/Work%20-%20Studio/Station_batch06/assets/door_hatch_slide_ventilation/door_hatch_slide_ventilation.psd</init_from>
        </image>
        <image id="Image0002" name="Image0002">
            <init_from>file:///D:/Work/Google%20Drive/Work%20-%20Studio/Station_batch06/assets/door_hatch_slide_ventilation/door_hatch_slide_ventilation_nrm.tga</init_from>
        </image>
    </library_images>
    <library_materials>
        <material id="Material-door_hatch_slide_ventilation" name="door_hatch_slide_ventilation">
            <instance_effect url="#Effect-door_hatch_slide_ventilation" />
        </material>
    </library_materials>
    <library_effects>
        <effect id="Effect-door_hatch_slide_ventilation" name="door_hatch_slide_ventilation">
            <profile_COMMON>
                <newparam sid="Image0001-surface">
                    <surface type="2D">
                        <init_from>Image0001</init_from>
                        <format>A8R8G8B8</format>
                    </surface>
                </newparam>
                <newparam sid="Image0001-sampler">
                    <sampler2D>
                        <source>Image0001-surface</source>
                        <minfilter>LINEAR_MIPMAP_LINEAR</minfilter>
                        <magfilter>LINEAR</magfilter>
                    </sampler2D>
                </newparam>
                <newparam sid="Image0001-surface">
                    <surface type="2D">
                        <init_from>Image0001</init_from>
                        <format>A8R8G8B8</format>
                    </surface>
                </newparam>
                <newparam sid="Image0001-sampler">
                    <sampler2D>
                        <source>Image0001-surface</source>
                        <minfilter>LINEAR_MIPMAP_LINEAR</minfilter>
                        <magfilter>LINEAR</magfilter>
                    </sampler2D>
                </newparam>
                <technique sid="common">
                    <phong>
                        <diffuse>
                            <texture texture="Image0001-sampler" texcoord="uvSet1" />
                        </diffuse>
                        <specular>
                            <texture texture="Image0001-sampler" texcoord="uvSet1" />
                        </specular>
                        <shininess>
                            <float sid="specular_effect_rgb">0.000396608</float>
                        </shininess>
                    </phong>
                </technique>
            </profile_COMMON>
        </effect>
    </library_effects>
    <library_geometries>
        <geometry id="Geometry-mesh008" name="door_hatch_slide_ventilation">
            <mesh>
                <source id="Geometry-mesh008-positions" name="positions">
                    <float_array id="Geometry-mesh008-positions-array" count="420">
                        -1.48875 -0.581016 -0.09375
                        -1.48875 0.581016 -0.09375
                        -1.48875 -0.581016 0.0722656
                        -1.48875 0.581016 0.0722656
                        -1.59458 -0.0885354 -0.061213
                        -1.59458 0.0843167 -0.061213
                        -1.49995 -0.0885354 0.0271056
                        -1.59458 -0.0885354 -0.0470189
                        -1.59458 0.0843167 -0.0470189
                        -1.49995 0.0843167 0.0271056
                        -1.51178 -0.0885354 0.0265142
                        -1.51178 0.0843167 0.0265142
                        -1.49995 -0.0885354 -0.061213
                        -1.49995 0.0843167 -0.061213
                        -0.126562 0.5 0.0650024
                        -0.120726 0.5053 0.0722656
                        -0.126562 0.5 -0.0864868
                        -0.120726 0.5053 -0.09375
                        -1.37344 0.5 -0.0864868
                        -1.37927 0.5053 -0.09375
                        -1.37927 0.5053 0.0722656
                        -1.37344 0.5 0.0650024
                        -1.37927 -0.506032 0.0722656
                        -1.37344 -0.5 0.0650024
                        -1.37344 -0.5 -0.0864868
                        -1.37927 -0.506032 -0.09375
                        -0.120726 -0.506032 -0.09375
                        -0.126562 -0.5 -0.0864868
                        -0.126562 -0.5 0.0650024
                        -0.120726 -0.506032 0.0722656
                        -1.50098 -0.59375 -0.0820313
                        -1.50098 0.59375 -0.0820313
                        -1.50098 -0.59375 0.0605469
                        -1.50098 0.59375 0.0605469
                        1.25 -0.59375 -0.0820313
                        1.25 0.59375 -0.0820313
                        1.25 -0.59375 0.0605469
                        1.25 0.59375 0.0605469
                        -1.48778 -0.234375 -0.09375
                        -1.63671 -0.234375 -0.09375
                        -1.63671 0.234375 -0.09375
                        -1.48778 0.234375 -0.09375
                        -1.50096 -0.234375 -0.0615234
                        -1.63671 -0.234375 -0.0615234
                        -1.63671 0.234375 -0.0615234
                        -1.50096 0.234375 -0.0615234
                        1.23777 -0.581016 0.0722656
                        1.23777 0.581016 0.0722656
                        1.23777 0.581016 -0.09375
                        1.23777 -0.581016 -0.09375
                        0.713535 -0.687382 -0.061213
                        0.540683 -0.687382 -0.061213
                        0.713535 -0.592755 0.0271056
                        0.713535 -0.687382 -0.0470189
                        0.540683 -0.687382 -0.0470189
                        0.540683 -0.592755 0.0271056
                        0.713535 -0.604583 0.0265142
                        0.540683 -0.604583 0.0265142
                        0.713535 -0.592755 -0.061213
                        0.540683 -0.592755 -0.061213
                        0.859375 -0.58205 -0.09375
                        0.859375 -0.729511 -0.09375
                        0.390625 -0.729511 -0.09375
                        0.390625 -0.58205 -0.09375
                        0.859375 -0.593769 -0.0615234
                        0.859375 -0.729511 -0.0615234
                        0.390625 -0.729511 -0.0615234
                        0.390625 -0.593769 -0.0615234
                        0.536465 0.687363 -0.061213
                        0.709317 0.687363 -0.061213
                        0.536465 0.592736 0.0271056
                        0.536465 0.687363 -0.0470189
                        0.709317 0.687363 -0.0470189
                        0.709317 0.592736 0.0271056
                        0.536465 0.604564 0.0265142
                        0.709317 0.604564 0.0265142
                        0.536465 0.592736 -0.061213
                        0.709317 0.592736 -0.061213
                        0.390625 0.581055 -0.09375
                        0.390625 0.729492 -0.09375
                        0.859375 0.729492 -0.09375
                        0.859375 0.581055 -0.09375
                        0.390625 0.59375 -0.0615234
                        0.390625 0.729492 -0.0615234
                        0.859375 0.729492 -0.0615234
                        0.859375 0.59375 -0.0615234
                        -0.837559 0.687363 -0.061213
                        -0.664707 0.687363 -0.061213
                        -0.837559 0.592736 0.0271056
                        -0.837559 0.687363 -0.0470189
                        -0.664707 0.687363 -0.0470189
                        -0.664707 0.592736 0.0271056
                        -0.837559 0.604564 0.0265142
                        -0.664707 0.604564 0.0265142
                        -0.837559 0.592736 -0.061213
                        -0.664707 0.592736 -0.061213
                        -0.983398 0.581055 -0.09375
                        -0.983398 0.729492 -0.09375
                        -0.514648 0.729492 -0.09375
                        -0.514648 0.581055 -0.09375
                        -0.983398 0.59375 -0.0615234
                        -0.983398 0.729492 -0.0615234
                        -0.514648 0.729492 -0.0615234
                        -0.514648 0.59375 -0.0615234
                        -0.660488 -0.687382 -0.061213
                        -0.83334 -0.687382 -0.061213
                        -0.660488 -0.592755 0.0271056
                        -0.660488 -0.687382 -0.0470189
                        -0.83334 -0.687382 -0.0470189
                        -0.83334 -0.592755 0.0271056
                        -0.660488 -0.604583 0.0265142
                        -0.83334 -0.604583 0.0265142
                        -0.660488 -0.592755 -0.061213
                        -0.83334 -0.592755 -0.061213
                        -0.514648 -0.58205 -0.09375
                        -0.514648 -0.729511 -0.09375
                        -0.983398 -0.729511 -0.09375
                        -0.983398 -0.58205 -0.09375
                        -0.514648 -0.593769 -0.0615234
                        -0.514648 -0.729511 -0.0615234
                        -0.983398 -0.729511 -0.0615234
                        -0.983398 -0.593769 -0.0615234
                        1.3436 -0.0885354 -0.061213
                        1.3436 0.0843167 -0.061213
                        1.24897 -0.0885354 0.0271056
                        1.3436 -0.0885354 -0.0470189
                        1.3436 0.0843167 -0.0470189
                        1.24897 0.0843167 0.0271056
                        1.2608 -0.0885354 0.0265142
                        1.2608 0.0843167 0.0265142
                        1.24897 -0.0885354 -0.061213
                        1.24897 0.0843167 -0.061213
                        1.23778 -0.234375 -0.09375
                        1.38573 -0.234375 -0.09375
                        1.38573 0.234375 -0.09375
                        1.23778 0.234375 -0.09375
                        1.24999 -0.234375 -0.0615234
                        1.38573 -0.234375 -0.0615234
                        1.38573 0.234375 -0.0615234
                        1.24999 0.234375 -0.0615234
                    </float_array>
                    <technique_common>
                        <accessor count="140" source="#Geometry-mesh008-positions-array" stride="3">
                            <param name="X" type="float" />
                            <param name="Y" type="float" />
                            <param name="Z" type="float" />
                        </accessor>
                    </technique_common>
                </source>
                <source id="Geometry-mesh008-normals" name="normals">
                    <float_array id="Geometry-mesh008-normals-array" count="303">
                        -0.0353141 -0.707107 0.706224
                        -0.184628 -0.725058 0.663478
                        0 -1 0
                        -0.0446692 0.447214 0.893311
                        0 1 0
                        -0.395826 0.574491 0.716437
                        0.707107 -0.0353141 0.706224
                        0.725058 -0.184628 0.663478
                        1 0 0
                        -0.447214 -0.0446692 0.893311
                        -1 0 0
                        -0.574491 -0.395826 0.716437
                        -0.707107 0.0353141 0.706224
                        -0.725058 0.184628 0.663478
                        0.447214 0.0446692 0.893311
                        0.574491 0.395826 0.716437
                        -0.707107 0.0353141 0.706224
                        0.447214 0.0446692 0.893311
                        0.574491 0.395826 0.716437
                        0.707107 -0.0353141 0.706224
                        0.725058 -0.184628 0.663478
                        -0.447214 -0.0446692 0.893311
                        -0.574491 -0.395826 0.716437
                        0.0353141 -0.707107 0.706224
                        0.219431 -0.574491 0.788549
                        0.0446692 0.447214 0.893311
                        0.333045 0.725058 0.602804
                        -0.707107 0.707107 0
                        -0.707107 -0.707107 0
                        -0.780301 0.585805 0.219004
                        -0.791285 -0.33989 0.508274
                        0.465816 0.459702 0.756101
                        0.471057 -0.488155 0.734718
                        0.265259 -0.274887 0.924161
                        0.177016 0.174692 0.96858
                        -0.12787 -0.250256 0.959698
                        -0.149946 0.295955 0.943359
                        0.256105 -0.125307 0.958493
                        0.155125 -0.303599 -0.940087
                        0.518493 -0.253688 -0.816583
                        -0.259246 -0.507377 -0.821803
                        -0.217305 -0.106323 -0.970296
                        -0.585805 -0.780301 0.219004
                        0.408248 0.816497 0.408248
                        0.707107 0 0.707107
                        0.816497 0.408248 -0.408248
                        0.447214 0 -0.894427
                        0.585805 0.780301 0.219004
                        0.707107 0.707107 0
                        -0.408248 -0.816497 0.408248
                        -0.707107 0 0.707107
                        -0.816497 -0.408248 -0.408248
                        -0.447214 0 -0.894427
                        0.447214 0.894427 0
                        0.905477 0.33989 0.254137
                        -0.465816 0.459702 -0.756101
                        -0.471057 -0.488155 -0.734718
                        -0.265259 -0.274887 -0.924161
                        -0.144946 0.143043 -0.979045
                        0 -0.894427 0.447214
                        0 0.707107 0.707107
                        -0.408248 -0.408248 0.816497
                        -0.816497 0.408248 0.408248
                        0.259246 0.507375 -0.821804
                        0.256105 0.125307 -0.958493
                        -0.33989 0.791285 0.508274
                        -0.408248 0.408248 0.816497
                        -0.57735 0.57735 -0.57735
                        0.707107 -0.707107 0
                        -0.585805 -0.780301 0.219004
                        0.33989 -0.791285 0.508274
                        0.408248 -0.408248 0.816497
                        0.57735 -0.57735 -0.57735
                        0.302681 -0.156834 -0.9401
                        0.306296 -0.634829 -0.709348
                        0.606815 0.299425 -0.736288
                        0.182633 0.360472 -0.914716
                        -0.408248 0.816497 -0.408248
                        0 0.447214 -0.894427
                        0.33989 -0.791285 0.508274
                        -0.894427 0 0.447214
                        -0.707107 0 -0.707107
                        0.894427 0 0.447214
                        0.707107 0 -0.707107
                        0.681895 -0.585805 0.438009
                        0.894427 -0.447214 0
                        -0.606815 0.299425 0.736288
                        -0.518492 0.253688 -0.816583
                        -0.127869 0.250256 -0.959699
                        -0.57735 -0.57735 -0.57735
                        -0.518493 -0.253688 0.816583
                        0.259246 -0.507377 0.821803
                        0.816497 0.408248 0.408248
                        -0.306296 -0.634829 0.709348
                        -0.302681 -0.156834 0.9401
                        0 -0.707107 -0.707107
                        0.518492 0.253688 0.816583
                        0.127869 0.250256 0.959699
                        0.408248 0.816497 -0.408248
                        -0.259246 0.507375 0.821804
                        -0.256105 0.125307 0.958493
                    </float_array>
                    <technique_common>
                        <accessor count="101" source="#Geometry-mesh008-normals-array" stride="3">
                            <param name="X" type="float" />
                            <param name="Y" type="float" />
                            <param name="Z" type="float" />
                        </accessor>
                    </technique_common>
                </source>
                <source id="Geometry-mesh008-uvSet1" name="uvSet1">
                    <float_array id="Geometry-mesh008-uvSet1-array" count="176">
                        0.995658 0.477808
                        0.990304 0.479057
                        0.969243 0.444651
                        0.995722 0.558836
                        0.9695 0.592137
                        0.990305 0.55763
                        0.933362 0.558423
                        0.933091 0.478502
                        0.939871 0.55841
                        0.9396 0.478471
                        0.0844393 0.0717477
                        0.0816614 0.363958
                        0.079292 0.366292
                        0.0820934 0.0692537
                        0.9452 0.296229
                        0.901799 0.296317
                        0.945186 0.00783011
                        0.901799 0.00774977
                        0.0506029 0.0474492
                        0.450086 0.0714368
                        0.846369 0.0522681
                        0.00629296 0.442789
                        0.0022828 0.438138
                        0.807424 0.442191
                        0.803438 0.446803
                        0.935687 0.563401
                        0.946959 0.774912
                        0.99523 0.774911
                        0.946959 0.786373
                        0.995231 0.786371
                        0.405676 0.468865
                        0.406701 0.757897
                        0.404561 0.760035
                        0.403515 0.46656
                        0.995743 0.300591
                        0.95237 0.30036
                        0.995743 0.00836703
                        0.952324 0.00860664
                        0.896387 0.0476067
                        0.896387 0.389582
                        0.855521 0.0475529
                        0.855526 0.389646
                        0.995231 0.608245
                        0.946958 0.608245
                        0.00315163 0.785284
                        0.00714142 0.780665
                        0.935498 0.608244
                        0.935498 0.774914
                        0.77285 0.761355
                        0.7707 0.759207
                        0.769355 0.470748
                        0.771506 0.46846
                        0.0843959 0.362493
                        0.0844165 0.319105
                        0.443525 0.360981
                        0.443146 0.31758
                        -0.000525794 0.392255
                        0.00260187 0.042555
                        0.0403336 0.392887
                        0.043446 0.0426744
                        0.935418 0.473468
                        0.946959 0.596784
                        0.995231 0.596785
                        0.447714 0.0738827
                        0.808933 0.788096
                        0.804919 0.783454
                        0.0463757 0.0426744
                        0.850638 0.0475529
                        0.887227 0.608242
                        0.887226 0.774917
                        0.44626 0.362446
                        0.448625 0.364769
                        0.850643 0.389646
                        0.846365 0.384928
                        0.0466966 0.000365106
                        0.850801 0.00524548
                        0.0463757 0.0412095
                        0.850638 0.046088
                        0.0432633 0.392887
                        0.0475298 0.388138
                        0.0870694 0.117102
                        0.0871631 0.0737008
                        0.444571 0.119219
                        0.444988 0.0758358
                        0.0435254 0.436666
                        0.0432633 0.395817
                        0.850732 0.433416
                        0.850643 0.392576
                    </float_array>
                    <technique_common>
                        <accessor count="88" source="#Geometry-mesh008-uvSet1-array" stride="2">
                            <param name="S" type="float" />
                            <param name="T" type="float" />
                        </accessor>
                    </technique_common>
                </source>
                <vertices id="Geometry-mesh008-vertices">
                    <input semantic="POSITION" source="#Geometry-mesh008-positions" />
                </vertices>
                <polylist count="196" material="Material-door_hatch_slide_ventilation">
                    <input semantic="VERTEX" source="#Geometry-mesh008-vertices" offset="0" />
                    <input semantic="NORMAL" source="#Geometry-mesh008-normals" offset="1" />
                    <input semantic="TEXCOORD" source="#Geometry-mesh008-uvSet1" offset="2" set="0" />
                    <vcount>3 3 3 3 3 3 3 3 3 3 3 3 3 3 3 3 3 3 3 3 3 3 3 3 3 3 3 3 3 3 3 3 3 3 3 3 3 3 3 3 3 3 3 3 3 3 3 3 3 3 3 3 3 3 3 3 3 3 3 3 3 3 3 3 3 3 3 3 3 3 3 3 3 3 3 3 3 3 3 3 3 3 3 3 3 3 3 3 3 3 3 3 3 3 3 3 3 3 3 3 3 3 3 3 3 3 3 3 3 3 3 3 3 3 3 3 3 3 3 3 3 3 3 3 3 3 3 3 3 3 3 3 3 3 3 3 3 3 3 3 3 3 3 3 3 3 3 3 3 3 3 3 3 3 3 3 3 3 3 3 3 3 3 3 3 3 3 3 3 3 3 3 3 3 3 3 3 3 3 3 3 3 3 3 3 3 3 3 3 3 3 3 3 3 3 3</vcount>
                    <p>6 0 0 10 1 1 12 2 2 9 3 3 13 4 4 11 5 5 52 6 0 56 7 1 58 8 2 55 9 3 59 10 4 57 11 5 70 12 0 74 13 1 76 10 2 73 14 3 77 8 4 75 15 5 88 16 0 92 13 1 94 10 2 91 17 3 95 8 4 93 18 5 106 19 0 110 20 1 112 8 2 109 21 3 113 10 4 111 22 5 124 23 0 130 2 2 128 24 1 127 25 3 129 26 5 131 4 4 5 27 6 4 28 7 8 29 8 7 30 9 8 29 8 4 28 7 23 31 10 21 32 11 20 33 12 20 33 12 22 34 13 23 31 10 27 10 14 28 10 15 16 10 16 14 10 17 16 10 16 28 10 15 22 34 13 2 35 18 29 36 19 46 37 20 29 36 19 2 35 18 49 38 21 34 39 22 30 40 23 0 41 24 49 38 21 30 40 23 57 11 5 59 10 4 54 42 8 51 28 25 54 42 8 59 10 4 75 15 5 74 13 1 73 14 3 70 12 0 73 14 3 74 13 1 84 43 26 85 44 27 80 45 28 81 46 29 80 45 28 85 44 27 93 18 5 95 8 4 90 47 8 87 48 25 90 47 8 95 8 4 111 22 5 110 20 1 109 21 3 106 19 0 109 21 3 110 20 1 120 49 26 121 50 27 116 51 28 117 52 29 116 51 28 121 50 27 131 4 4 129 26 5 123 53 25 126 54 8 123 53 25 129 26 5 8 29 8 7 30 9 11 5 5 10 1 1 11 5 5 7 30 9 27 55 30 16 56 31 17 57 32 17 57 32 26 58 33 27 55 30 23 8 34 24 8 35 21 8 36 18 8 37 21 8 36 24 8 35 34 8 38 35 8 39 36 8 40 37 8 41 36 8 40 35 8 39 42 59 42 45 60 27 43 61 43 44 62 26 43 61 43 45 60 27 35 63 44 34 39 22 48 64 45 49 38 21 48 64 45 34 39 22 69 48 6 68 27 7 72 47 8 71 65 9 72 47 8 68 27 7 83 66 43 84 43 26 79 67 46 80 45 47 79 67 46 84 43 26 105 28 6 104 68 7 108 69 8 107 70 9 108 69 8 104 68 7 119 71 43 120 49 26 115 72 46 116 51 47 115 72 46 120 49 26 19 73 48 18 74 49 24 75 50 25 76 51 19 73 48 24 75 50 21 2 52 18 2 53 14 2 54 16 2 55 14 2 54 18 2 53 31 10 56 30 10 57 33 10 58 32 10 59 33 10 58 30 10 57 44 62 26 45 60 27 40 77 28 41 78 29 40 77 28 45 60 27 49 38 21 26 58 33 48 64 45 17 57 32 48 64 45 26 58 33 58 8 2 56 7 1 50 68 60 53 79 9 50 68 60 56 7 1 72 47 8 71 65 9 75 15 5 74 13 1 75 15 5 71 65 9 83 66 43 79 67 61 82 80 42 78 81 62 82 80 42 79 67 61 94 10 2 92 13 1 86 27 60 89 65 9 86 27 60 92 13 1 108 69 8 107 70 9 111 22 5 110 20 1 111 22 5 107 70 9 119 71 43 115 72 61 118 82 42 114 83 62 118 82 42 115 72 61 128 24 1 130 2 2 125 84 9 122 85 60 125 84 9 130 2 2 11 5 5 13 4 4 8 29 8 5 27 25 8 29 8 13 4 4 23 31 10 22 34 13 29 36 19 29 36 19 28 86 63 23 31 10 30 40 23 31 87 64 0 41 24 1 88 65 0 41 24 31 87 64 43 61 43 44 62 26 39 89 46 40 77 47 39 89 46 44 62 26 25 76 51 26 58 33 0 41 24 49 38 21 0 41 24 26 58 33 2 35 18 32 90 66 36 91 67 46 37 20 2 35 18 36 91 67 64 82 42 67 50 27 65 71 43 66 49 26 65 71 43 67 50 27 78 81 68 79 67 46 81 46 69 80 45 47 81 46 69 79 67 46 100 80 42 103 44 27 101 66 43 102 43 26 101 66 43 103 44 27 114 83 68 115 72 46 117 52 69 116 51 47 117 52 69 115 72 46 136 59 42 137 71 43 139 60 27 138 92 26 139 60 27 137 71 43 12 2 2 10 1 1 4 28 60 7 30 9 4 28 60 10 1 1 14 93 70 15 94 71 20 33 12 20 33 12 21 32 11 14 93 70 1 88 65 19 73 48 0 41 24 25 76 51 0 41 24 19 73 48 38 95 68 39 89 46 41 78 69 40 77 47 41 78 69 39 89 46 36 91 67 37 96 72 46 37 20 47 97 73 46 37 20 37 96 72 30 2 74 34 2 75 32 2 76 36 2 77 32 2 76 34 2 75 51 28 6 50 68 7 54 42 8 53 79 9 54 42 8 50 68 7 65 71 43 66 49 26 61 72 46 62 51 47 61 72 46 66 49 26 87 48 6 86 27 7 90 47 8 89 65 9 90 47 8 86 27 7 101 66 43 102 43 26 97 67 46 98 45 47 97 67 46 102 43 26 123 53 6 126 54 8 122 85 7 125 84 9 122 85 7 126 54 8 137 71 43 133 72 46 138 92 26 134 98 47 138 92 26 133 72 46 27 55 30 26 58 33 25 76 51 25 76 51 24 75 50 27 55 30 33 99 78 32 90 66 3 100 79 2 35 18 3 100 79 32 90 66 43 61 43 39 89 61 42 59 42 38 95 62 42 59 42 39 89 61 19 73 48 1 88 65 17 57 32 48 64 45 17 57 32 1 88 65 1 88 65 31 87 64 35 63 44 48 64 45 1 88 65 35 63 44 57 11 5 56 7 1 55 9 3 52 6 0 55 9 3 56 7 1 66 49 26 67 50 27 62 51 28 63 52 29 62 51 28 67 50 27 75 15 5 77 8 4 72 47 8 69 48 25 72 47 8 77 8 4 93 18 5 92 13 1 91 17 3 88 16 0 91 17 3 92 13 1 102 43 26 103 44 27 98 45 28 99 46 29 98 45 28 103 44 27 111 22 5 113 10 4 108 69 8 105 28 25 108 69 8 113 10 4 129 26 5 127 25 3 128 24 1 124 23 0 128 24 1 127 25 3 138 92 26 134 98 28 139 60 27 135 78 29 139 60 27 134 98 28 18 74 49 19 73 48 17 57 32 17 57 32 16 56 31 18 74 49 2 35 18 22 34 13 3 100 79 20 33 12 3 100 79 22 34 13 47 97 73 15 94 71 46 37 20 29 36 19 46 37 20 15 94 71 47 97 73 37 96 72 33 99 78 3 100 79 47 97 73 33 99 78 54 42 8 53 79 9 57 11 5 56 7 1 57 11 5 53 79 9 65 71 43 61 72 61 64 82 42 60 83 62 64 82 42 61 72 61 76 10 2 74 13 1 68 27 60 71 65 9 68 27 60 74 13 1 90 47 8 89 65 9 93 18 5 92 13 1 93 18 5 89 65 9 101 66 43 97 67 61 100 80 42 96 81 62 100 80 42 97 67 61 112 8 2 110 20 1 104 68 60 107 70 9 104 68 60 110 20 1 126 54 8 129 26 5 125 84 9 128 24 1 125 84 9 129 26 5 137 71 43 136 59 42 133 72 61 132 95 62 133 72 61 136 59 42 11 5 5 10 1 1 9 3 3 6 0 0 9 3 3 10 1 1 15 94 71 14 93 70 28 86 63 29 36 19 15 94 71 28 86 63 24 4 80 23 4 81 27 4 82 28 4 83 27 4 82 23 4 81 3 100 79 20 33 12 47 97 73 15 94 71 47 97 73 20 33 12 31 4 84 33 4 85 35 4 86 37 4 87 35 4 86 33 4 85 60 83 68 61 72 46 63 52 69 62 51 47 63 52 69 61 72 46 82 80 42 85 44 27 83 66 43 84 43 26 83 66 43 85 44 27 99 46 69 97 67 46 98 45 47 97 67 46 99 46 69 96 81 68 118 82 42 121 50 27 119 71 43 120 49 26 119 71 43 121 50 27 132 95 68 135 78 69 133 72 46 134 98 47 133 72 46 135 78 69</p>
                </polylist>
                <extra>
                    <technique profile="modo401">
                        <param sid="render" name="Render" type="Name">default</param>
                        <param sid="dissolve" name="Dissolve" type="float">0</param>
                        <param sid="curves" name="Render_Curves" type="bool">false</param>
                        <param sid="radius" name="Curve_Radius" type="float">0.05</param>
                    </technique>
                </extra>
            </mesh>
        </geometry>
        <geometry id="Geometry-mesh044" name="Mesh">
            <mesh>
                <source id="Geometry-mesh044-positions" name="positions">
                    <float_array id="Geometry-mesh044-positions-array" count="456">
                        -1.26849 0.0217596 0.00646913
                        -0.174866 0.0217596 0.00646913
                        -0.174866 0.0308832 -0.00265431
                        -1.26849 0.0308832 -0.00265431
                        -0.174866 0.0308832 -0.0285957
                        -1.26849 0.0308832 -0.0285957
                        -0.174866 0.0217596 -0.037719
                        -1.26849 0.0217596 -0.037719
                        -0.174866 -0.0217597 -0.037719
                        -1.26849 -0.0217597 -0.037719
                        -1.26849 -0.0308831 -0.00265431
                        -0.174866 -0.0308831 -0.00265431
                        -1.26849 -0.0217597 0.00646913
                        -0.174866 -0.0217597 0.00646913
                        -1.32469 0.381465 0.0253556
                        -0.175061 0.381465 0.0253556
                        -0.175061 0.377344 0.0212338
                        -1.32469 0.377344 0.0212338
                        -0.175061 0.458949 -0.0521284
                        -1.32469 0.458949 -0.0521284
                        -1.32469 0.311641 0.0253556
                        -0.175061 0.311641 0.0253556
                        -0.175061 0.307519 0.0212338
                        -1.32469 0.307519 0.0212338
                        -0.175061 0.389125 -0.0521284
                        -1.32469 0.389125 -0.0521284
                        -1.32469 0.241817 0.0253556
                        -0.175061 0.241817 0.0253556
                        -0.175061 0.237695 0.0212338
                        -1.32469 0.237695 0.0212338
                        -0.175061 0.319301 -0.0521284
                        -1.32469 0.319301 -0.0521284
                        -1.32469 0.171993 0.0253556
                        -0.175061 0.171993 0.0253556
                        -0.175061 0.167871 0.0212338
                        -1.32469 0.167871 0.0212338
                        -0.175061 0.249477 -0.0521284
                        -1.32469 0.249477 -0.0521284
                        -1.32469 0.102168 0.0253556
                        -0.175061 0.102168 0.0253556
                        -0.175061 0.0980468 0.0212338
                        -1.32469 0.0980468 0.0212338
                        -0.175061 0.179652 -0.0521284
                        -1.32469 0.179652 -0.0521284
                        -1.26708 0.0323442 0.0253556
                        -0.175061 0.0323442 0.0253556
                        -0.175061 0.0282226 0.0212338
                        -1.26708 0.0282226 0.0212338
                        -0.175061 0.109828 -0.0521284
                        -1.26708 0.109828 -0.0521284
                        -1.26708 -0.107304 0.0253556
                        -0.175061 -0.107304 0.0253556
                        -0.175061 -0.111426 0.0212338
                        -1.26708 -0.111426 0.0212338
                        -0.175061 -0.0298203 -0.0521284
                        -1.26708 -0.0298203 -0.0521284
                        -1.32469 -0.177128 0.0253556
                        -0.175061 -0.177128 0.0253556
                        -0.175061 -0.18125 0.0212338
                        -1.32469 -0.18125 0.0212338
                        -0.175061 -0.0996445 -0.0521284
                        -1.32469 -0.0996445 -0.0521284
                        -1.32469 -0.246953 0.0253556
                        -0.175061 -0.246953 0.0253556
                        -0.175061 -0.251074 0.0212338
                        -1.32469 -0.251074 0.0212338
                        -0.175061 -0.169469 -0.0521284
                        -1.32469 -0.169469 -0.0521284
                        -1.32469 -0.316777 0.0253556
                        -0.175061 -0.316777 0.0253556
                        -0.175061 -0.320899 0.0212338
                        -1.32469 -0.320899 0.0212338
                        -0.175061 -0.239293 -0.0521284
                        -1.32469 -0.239293 -0.0521284
                        -1.32469 -0.386601 0.0253556
                        -0.175061 -0.386601 0.0253556
                        -0.175061 -0.390723 0.0212338
                        -1.32469 -0.390723 0.0212338
                        -0.175061 -0.309117 -0.0521284
                        -1.32469 -0.309117 -0.0521284
                        -1.32469 -0.456425 0.0253556
                        -0.175061 -0.456425 0.0253556
                        -0.175061 -0.460547 0.0212338
                        -1.32469 -0.460547 0.0212338
                        -0.175061 -0.378941 -0.0521284
                        -1.32469 -0.378941 -0.0521284
                        -1.325 -0.10144 0.0227051
                        -1.33127 -0.0928955 0.03125
                        -1.33127 0.0931396 0.03125
                        -1.325 0.101685 0.0227051
                        -1.325 -0.10144 -0.0539551
                        -1.33127 -0.0928955 -0.0625
                        -1.325 0.101685 -0.0539551
                        -1.33127 0.0931396 -0.0625
                        -1.2675 0.101685 -0.0539551
                        -1.27604 0.0931396 -0.0625
                        -1.2675 0.101685 0.0227051
                        -1.27604 0.0931396 0.03125
                        -1.2675 -0.10144 0.0227051
                        -1.27604 -0.0928955 0.03125
                        -1.2675 -0.10144 -0.0539551
                        -1.27604 -0.0928955 -0.0625
                        -1.375 -0.499878 0.03125
                        -1.375 -0.499878 -0.0625
                        -1.325 -0.460034 0.0227051
                        -1.33127 -0.465359 0.03125
                        -1.325 -0.460034 -0.0539551
                        -1.33127 -0.465359 -0.0625
                        -0.125 -0.499878 0.03125
                        -0.125 -0.499878 -0.0625
                        -0.168317 -0.465359 -0.0625
                        -0.175 -0.460034 -0.0539551
                        -0.168317 -0.465359 0.03125
                        -0.175 -0.460034 0.0227051
                        -1.375 0.500122 -0.0625
                        -1.375 0.500122 0.03125
                        -1.33127 0.465604 0.03125
                        -1.325 0.460278 0.0227051
                        -1.325 0.460278 -0.0539551
                        -1.33127 0.465604 -0.0625
                        -0.125 0.500122 0.03125
                        -0.125 0.500122 -0.0625
                        -0.175 0.460278 0.0227051
                        -0.168317 0.465604 0.03125
                        -0.168317 0.465604 -0.0625
                        -0.175 0.460278 -0.0539551
                        -1.32469 -0.313239 -0.0562501
                        -1.32469 -0.383063 -0.0562501
                        -0.175061 -0.313239 -0.0562501
                        -0.175061 -0.383063 -0.0562501
                        -1.26849 -0.0308831 -0.0285957
                        -1.26708 -0.0339419 -0.0562501
                        -1.32469 -0.103766 -0.0562501
                        -1.32469 -0.17359 -0.0562501
                        -1.32469 -0.243415 -0.0562501
                        -0.174866 -0.0308831 -0.0285957
                        -0.175061 -0.0339419 -0.0562501
                        -0.175061 -0.103766 -0.0562501
                        -0.175061 -0.17359 -0.0562501
                        -0.175061 -0.243415 -0.0562501
                        -1.32469 0.245355 -0.0562501
                        -1.32469 0.175531 -0.0562501
                        -1.26708 0.105707 -0.0562501
                        -0.175061 0.245355 -0.0562501
                        -0.175061 0.175531 -0.0562501
                        -0.175061 0.105707 -0.0562501
                        -1.32469 0.454828 -0.0562501
                        -1.32469 0.385003 -0.0562501
                        -1.32469 0.315179 -0.0562501
                        -0.175061 0.454828 -0.0562501
                        -0.175061 0.385003 -0.0562501
                        -0.175061 0.315179 -0.0562501
                    </float_array>
                    <technique_common>
                        <accessor count="152" source="#Geometry-mesh044-positions-array" stride="3">
                            <param name="X" type="float" />
                            <param name="Y" type="float" />
                            <param name="Z" type="float" />
                        </accessor>
                    </technique_common>
                </source>
                <source id="Geometry-mesh044-normals" name="normals">
                    <float_array id="Geometry-mesh044-normals-array" count="216">
                        0.332837 0.350379 0.875473
                        0.149124 -0.130796 0.98013
                        -0.371391 0 0.928477
                        0.280893 -0.295697 0.913051
                        -0.316228 0 0.948683
                        0.149124 0.130796 0.98013
                        0 0 -1
                        0.594066 0 -0.804416
                        0.149124 0.130796 -0.98013
                        0.149124 -0.130796 -0.98013
                        0 -0.316239 0.94868
                        0 -1 -7.45994e-006
                        0 0.316226 0.948684
                        0 -0.316239 0.94868
                        0 0.316226 0.948684
                        0.408248 0.408248 -0.816497
                        0.534522 -0.267261 -0.801784
                        0.327413 0.327413 -0.886342
                        0.160189 -0.320377 -0.933648
                        0.447214 -0.894427 0
                        0.894427 -0.447214 0
                        0.894427 0.447214 0
                        0.447214 0.894427 0
                        -0.438155 0 0.898899
                        -0.438155 0 0.898899
                        -0.94544 0 0.325795
                        -0.94544 0 0.325795
                        -0.94544 0 -0.325795
                        -0.94544 0 -0.325795
                        1.50127e-008 -0.930972 -0.365092
                        0 -0.983198 -0.182545
                        1.24373e-008 -0.485334 -0.874329
                        2.48747e-008 -0.485333 -0.87433
                        0 0 1
                        0 0.318155 0.948039
                        0 3.83538e-006 -1
                        0 0.948685 -0.316222
                        0 0.948683 0.316228
                        -0.438155 0 -0.898899
                        -0.438155 0 -0.898899
                        1 0 0
                        0 0.930972 0.365092
                        0 0.961427 -0.275061
                        0.254678 0.899907 0.353987
                        0 -0.92388 0.382683
                        0 -0.923878 -0.382686
                        0 -0.382683 0.92388
                        -0.894427 0 -0.447214
                        -0.707107 0 -0.707107
                        0 -0.252723 -0.967539
                        0 -0.505446 -0.862858
                        0 0.38268 0.923881
                        0.478663 0.419833 -0.771117
                        0 0.485334 -0.874329
                        0 0.948685 -0.316222
                        0 3.83538e-006 -1
                        0 0.948683 0.316229
                        0 0.252721 -0.967539
                        0 0.923877 -0.38269
                        0 0.505442 -0.862861
                        0.160189 0.320377 0.933648
                        0.478663 0.419833 0.771117
                        0.534522 0.267261 0.801784
                        0.806192 0 -0.591654
                        0.478663 -0.419833 -0.771117
                        2.48747e-008 -0.485333 0.87433
                        0 0.923878 0.382686
                        0.478663 -0.419833 0.771117
                        0.327413 -0.327413 0.886342
                        0.408248 -0.408248 0.816497
                        0.349423 -0.801264 0.485675
                        1.13106e-008 -0.961427 0.275061
                    </float_array>
                    <technique_common>
                        <accessor count="72" source="#Geometry-mesh044-normals-array" stride="3">
                            <param name="X" type="float" />
                            <param name="Y" type="float" />
                            <param name="Z" type="float" />
                        </accessor>
                    </technique_common>
                </source>
                <source id="Geometry-mesh044-uvSet1" name="uvSet1">
                    <float_array id="Geometry-mesh044-uvSet1-array" count="432">
                        0.423174 0.493874
                        0.529796 0.493474
                        0.413329 0.506308
                        0.689758 0.492949
                        0.699673 0.505313
                        0.583106 0.493285
                        0.412377 0.59851
                        0.422072 0.586303
                        0.527168 0.585909
                        0.579694 0.585729
                        0.684729 0.585385
                        0.694532 0.597525
                        0.334198 0.964874
                        0.334198 0.963196
                        0.664149 0.963196
                        0.664149 0.964874
                        0.109864 0.282256
                        0.109864 0.280576
                        0.425237 0.280576
                        0.425237 0.282256
                        0.666313 0.964871
                        0.666313 0.963193
                        0.996265 0.963193
                        0.996265 0.964871
                        0.525361 0.566942
                        0.581415 0.566967
                        0.528032 0.570216
                        0.578748 0.570256
                        0.588803 0.538772
                        0.588805 0.560879
                        0.530177 0.538976
                        0.530179 0.561083
                        0.689685 0.643832
                        0.423036 0.643833
                        0.68817 0.640729
                        0.424571 0.640729
                        0.424643 0.6188
                        0.688241 0.6188
                        0.754953 0.671247
                        0.423421 0.671247
                        0.421644 0.668353
                        0.756911 0.668353
                        0.408996 0.755991
                        0.421386 0.746085
                        0.768302 0.755991
                        0.755671 0.746085
                        0.664149 0.86223
                        0.664149 0.893777
                        0.334198 0.86223
                        0.334198 0.893777
                        0.332027 0.931551
                        0.332027 0.963098
                        0.00207496 0.931551
                        0.00207502 0.963098
                        0.996265 0.862227
                        0.996265 0.893774
                        0.666313 0.862228
                        0.666313 0.893774
                        0.664149 0.927001
                        0.334198 0.927001
                        0.664149 0.895455
                        0.334198 0.895455
                        0.332027 0.996322
                        0.00207502 0.996322
                        0.332027 0.964776
                        0.00207502 0.964776
                        0.996265 0.926999
                        0.666313 0.926999
                        0.996265 0.895452
                        0.666313 0.895452
                        0.605398 0.538714
                        0.605401 0.560821
                        0.423127 0.615697
                        0.689777 0.615696
                        0.708895 0.538351
                        0.708898 0.560458
                        0.423289 0.743196
                        0.423153 0.721198
                        0.753851 0.743196
                        0.753714 0.721198
                        0.425632 0.129324
                        0.110259 0.129324
                        0.425632 0.121799
                        0.110259 0.121799
                        0.332027 0.858088
                        0.332027 0.859766
                        0.00207496 0.859766
                        0.00207496 0.858088
                        0.332027 0.927508
                        0.332027 0.929186
                        0.00207496 0.929186
                        0.00207496 0.927508
                        0.664149 0.857582
                        0.664149 0.85926
                        0.334198 0.85926
                        0.334198 0.857582
                        0.110259 0.133067
                        0.425632 0.133067
                        0.513581 0.539034
                        0.513584 0.56114
                        0.699726 0.531935
                        0.413463 0.532934
                        0.410085 0.539394
                        0.410087 0.561501
                        0.425632 0.173327
                        0.425632 0.17707
                        0.110259 0.173327
                        0.110259 0.17707
                        0.332027 0.793317
                        0.332027 0.824863
                        0.00207496 0.793317
                        0.00207496 0.824863
                        0.332027 0.862736
                        0.332027 0.894284
                        0.00207496 0.862738
                        0.00207496 0.894284
                        0.664149 0.792811
                        0.664149 0.824358
                        0.334198 0.792811
                        0.334198 0.824358
                        0.425632 0.145692
                        0.110259 0.145691
                        0.332027 0.826541
                        0.00207496 0.826541
                        0.332027 0.895962
                        0.00207496 0.895962
                        0.664149 0.826036
                        0.334198 0.826036
                        0.524474 0.583029
                        0.699704 0.603305
                        0.413281 0.603305
                        0.755499 0.718309
                        0.421214 0.718309
                        0.881174 0.451811
                        0.882852 0.451811
                        0.882852 0.783421
                        0.881174 0.783421
                        0.425237 0.243955
                        0.425237 0.245635
                        0.109864 0.245635
                        0.109864 0.243955
                        0.996265 0.857579
                        0.996265 0.859257
                        0.666313 0.859258
                        0.666313 0.85758
                        0.110259 0.160702
                        0.110259 0.156959
                        0.425632 0.160702
                        0.425632 0.156959
                        0.849627 0.451811
                        0.849627 0.783421
                        0.425237 0.212377
                        0.109864 0.212378
                        0.996265 0.826033
                        0.666313 0.826033
                        0.582144 0.477513
                        0.585827 0.490337
                        0.584855 0.47416
                        0.683218 0.582435
                        0.582371 0.582834
                        0.409144 0.658431
                        0.769504 0.658431
                        0.664149 0.99642
                        0.664149 0.998098
                        0.334198 0.998098
                        0.334198 0.99642
                        0.425237 0.313833
                        0.425237 0.315513
                        0.109864 0.315513
                        0.109864 0.313833
                        0.996265 0.996417
                        0.996265 0.998096
                        0.666313 0.998096
                        0.666313 0.996417
                        0.423562 0.583343
                        0.408635 0.706099
                        0.421348 0.696176
                        0.768996 0.706098
                        0.756614 0.696176
                        0.816403 0.451811
                        0.84795 0.451811
                        0.816403 0.783421
                        0.84795 0.783421
                        0.425237 0.179121
                        0.425237 0.210698
                        0.109864 0.179121
                        0.109864 0.210698
                        0.996265 0.792808
                        0.996265 0.824355
                        0.666313 0.792808
                        0.666313 0.824355
                        0.110259 0.149434
                        0.425632 0.149434
                        0.527054 0.490542
                        0.530629 0.477486
                        0.527905 0.474153
                        0.688225 0.489945
                        0.423186 0.693282
                        0.754719 0.693282
                        0.664149 0.931649
                        0.334198 0.93165
                        0.425237 0.248999
                        0.109864 0.248999
                        0.996265 0.931647
                        0.666313 0.931647
                        0.424687 0.490859
                        0.413109 0.656224
                        0.699532 0.656224
                        0.768007 0.708404
                        0.408701 0.708403
                        0.664149 0.928679
                        0.334198 0.928679
                        0.332027 0.998
                        0.00207502 0.998
                        0.996265 0.928677
                        0.666313 0.928677
                    </float_array>
                    <technique_common>
                        <accessor count="216" source="#Geometry-mesh044-uvSet1-array" stride="2">
                            <param name="S" type="float" />
                            <param name="T" type="float" />
                        </accessor>
                    </technique_common>
                </source>
                <vertices id="Geometry-mesh044-vertices">
                    <input semantic="POSITION" source="#Geometry-mesh044-positions" />
                </vertices>
                <polylist count="186" material="Material-door_hatch_slide_ventilation">
                    <input semantic="VERTEX" source="#Geometry-mesh044-vertices" offset="0" />
                    <input semantic="NORMAL" source="#Geometry-mesh044-normals" offset="1" />
                    <input semantic="TEXCOORD" source="#Geometry-mesh044-uvSet1" offset="2" set="0" />
                    <vcount>3 3 3 3 3 3 3 3 3 3 3 3 3 3 3 3 3 3 3 3 3 3 3 3 3 3 3 3 3 3 3 3 3 3 3 3 3 3 3 3 3 3 3 3 3 3 3 3 3 3 3 3 3 3 3 3 3 3 3 3 3 3 3 3 3 3 3 3 3 3 3 3 3 3 3 3 3 3 3 3 3 3 3 3 3 3 3 3 3 3 3 3 3 3 3 3 3 3 3 3 3 3 3 3 3 3 3 3 3 3 3 3 3 3 3 3 3 3 3 3 3 3 3 3 3 3 3 3 3 3 3 3 3 3 3 3 3 3 3 3 3 3 3 3 3 3 3 3 3 3 3 3 3 3 3 3 3 3 3 3 3 3 3 3 3 3 3 3 3 3 3 3 3 3 3 3 3 3 3 3 3 3 3 3 3 3</vcount>
                    <p>105 0 0 87 1 1 102 2 2 116 3 3 115 4 4 88 5 5 114 6 6 119 7 7 93 8 8 91 9 9 107 7 10 103 6 11 20 10 12 23 11 13 22 11 14 22 11 14 21 12 15 20 10 12 44 13 16 47 11 17 46 11 18 46 11 18 45 14 19 44 13 16 68 10 20 71 11 21 70 11 22 70 11 22 69 12 23 68 10 20 94 15 24 100 16 25 95 17 26 101 18 27 95 17 26 100 16 25 98 19 28 100 20 29 96 21 30 94 22 31 96 21 30 100 20 29 112 23 32 123 24 33 113 25 34 122 26 35 113 25 34 123 24 33 122 26 35 125 27 36 113 25 34 111 28 37 113 25 34 125 27 36 125 29 38 118 30 39 119 31 40 125 29 38 119 31 40 124 32 41 108 33 42 112 34 43 102 2 44 105 0 45 102 2 44 112 34 43 149 35 46 16 11 47 146 35 48 17 11 49 146 35 48 16 11 47 144 35 50 40 11 51 141 35 52 41 11 53 141 35 52 40 11 51 138 35 54 64 11 55 133 35 56 65 11 57 133 35 56 64 11 55 18 36 58 19 37 59 15 12 60 14 10 61 15 12 60 19 37 59 42 36 62 43 37 63 39 12 64 38 10 65 39 12 64 43 37 63 66 36 66 67 37 67 63 12 68 62 10 69 63 12 68 67 37 67 86 20 70 90 19 71 98 19 28 100 20 29 98 19 28 90 19 71 124 38 72 110 39 73 125 27 36 111 28 37 125 27 36 110 39 73 104 40 74 106 40 75 86 20 70 90 19 71 86 20 70 106 40 75 103 6 11 114 6 6 91 9 9 93 8 8 91 9 9 114 6 6 113 41 76 111 42 77 104 43 78 106 42 79 104 43 78 111 42 77 11 44 80 10 44 81 135 45 82 130 45 83 135 45 82 10 44 81 36 36 84 143 35 85 140 35 86 140 35 86 37 37 87 36 36 84 60 36 88 137 35 89 132 35 90 132 35 90 61 37 91 60 36 88 84 36 92 129 35 93 127 35 94 127 35 94 85 37 95 84 36 92 12 46 96 10 44 81 13 46 97 11 44 80 13 46 97 10 44 81 14 10 61 17 11 49 16 11 47 16 11 47 15 12 60 14 10 61 38 10 65 41 11 53 40 11 51 40 11 51 39 12 64 38 10 65 62 10 69 65 11 57 64 11 55 64 11 55 63 12 68 62 10 69 96 21 30 94 22 31 89 22 98 92 21 99 89 22 98 94 22 31 115 4 4 114 47 100 102 2 2 103 48 101 102 2 2 114 47 100 89 22 98 92 21 99 117 40 102 118 40 103 117 40 102 92 21 99 113 41 76 104 43 78 105 0 45 113 41 76 105 0 45 112 34 43 8 49 104 135 45 105 9 50 106 130 45 107 9 50 106 135 45 105 143 35 108 34 11 109 140 35 110 35 11 111 140 35 110 34 11 109 137 35 112 58 11 113 132 35 114 59 11 115 132 35 114 58 11 113 129 35 116 82 11 117 127 35 118 83 11 119 127 35 118 82 11 117 1 51 120 0 51 121 13 46 97 12 46 96 13 46 97 0 51 121 36 36 84 37 37 87 33 12 122 32 10 123 33 12 122 37 37 87 60 36 88 61 37 91 57 12 124 56 10 125 57 12 124 61 37 91 84 36 92 85 37 95 81 12 126 80 10 127 81 12 126 85 37 95 93 8 8 92 52 128 95 17 26 94 15 24 95 17 26 92 52 128 109 6 129 110 39 73 121 6 130 124 38 72 121 6 130 110 39 73 107 53 131 106 42 79 111 42 77 111 42 77 110 53 132 107 53 131 30 36 133 151 35 134 148 35 135 148 35 135 31 37 136 30 36 133 54 54 137 136 55 138 131 55 139 131 55 139 55 56 140 54 54 137 78 36 141 128 35 142 126 35 143 126 35 143 79 37 144 78 36 141 7 57 145 5 58 146 6 59 147 4 58 148 6 59 147 5 58 146 30 36 133 31 37 136 27 12 149 26 10 150 27 12 149 31 37 136 54 54 137 55 56 140 51 14 151 50 13 152 51 14 151 55 56 140 78 36 141 79 37 144 75 12 153 74 10 154 75 12 153 79 37 144 88 5 5 97 60 155 89 61 156 96 62 157 89 61 156 97 60 155 106 63 158 107 7 10 90 64 159 91 9 9 90 64 159 107 7 10 114 47 160 121 6 161 119 31 40 124 32 41 119 31 40 121 6 161 24 36 162 150 35 163 147 35 164 147 35 164 25 37 165 24 36 162 48 54 166 145 55 167 142 55 168 142 55 168 49 56 169 48 54 166 72 36 170 139 35 171 134 35 172 134 35 172 73 37 173 72 36 170 6 59 147 8 49 104 7 57 145 9 50 106 7 57 145 8 49 104 32 10 123 35 11 111 34 11 109 34 11 109 33 12 122 32 10 123 56 10 125 59 11 115 58 11 113 58 11 113 57 12 124 56 10 125 80 10 127 83 11 119 82 11 117 82 11 117 81 12 126 80 10 127 91 9 9 101 18 27 90 64 159 100 16 25 90 64 159 101 18 27 118 63 174 92 52 128 119 7 7 93 8 8 119 7 7 92 52 128 115 4 4 102 2 2 88 5 5 87 1 1 88 5 5 102 2 2 115 4 175 116 3 176 120 33 177 123 65 178 120 33 177 116 3 176 151 35 179 28 11 180 148 35 181 29 11 182 148 35 181 28 11 180 136 55 183 52 11 184 131 55 185 53 11 186 131 55 185 52 11 184 128 35 187 76 11 188 126 35 189 77 11 190 126 35 189 76 11 188 3 66 191 2 66 192 5 58 146 4 58 148 5 58 146 2 66 192 26 10 150 29 11 182 28 11 180 28 11 180 27 12 149 26 10 150 50 13 152 53 11 186 52 11 184 52 11 184 51 14 151 50 13 152 74 10 154 77 11 190 76 11 188 76 11 188 75 12 153 74 10 154 87 1 1 86 67 193 99 68 194 98 69 195 99 68 194 86 67 193 88 5 5 87 1 1 97 60 155 99 68 194 97 60 155 87 1 1 117 70 196 116 3 3 89 61 156 88 5 5 89 61 156 116 3 3 117 70 197 118 30 39 122 71 198 125 29 38 122 71 198 118 30 39 150 35 199 22 11 14 147 35 200 23 11 13 147 35 200 22 11 14 145 55 201 46 11 18 142 55 202 47 11 17 142 55 202 46 11 18 139 35 203 70 11 22 134 35 204 71 11 21 134 35 204 70 11 22 1 51 120 2 66 192 0 51 121 3 66 191 0 51 121 2 66 192 24 36 162 25 37 165 21 12 15 20 10 12 21 12 15 25 37 165 48 54 166 49 56 169 45 14 19 44 13 16 45 14 19 49 56 169 72 36 170 73 37 173 69 12 23 68 10 20 69 12 23 73 37 173 98 69 195 96 62 157 99 68 194 97 60 155 99 68 194 96 62 157 91 9 9 93 8 8 101 18 27 95 17 26 101 18 27 93 8 8 104 43 205 86 67 193 105 0 0 87 1 1 105 0 0 86 67 193 120 33 206 123 24 33 108 33 207 112 23 32 108 33 207 123 24 33 116 3 176 117 70 197 122 71 198 122 71 198 123 65 178 116 3 176 103 48 208 107 53 131 109 6 209 110 53 132 109 6 209 107 53 131 18 36 58 149 35 210 146 35 211 146 35 211 19 37 59 18 36 58 42 36 62 144 35 212 141 35 213 141 35 213 43 37 63 42 36 62 66 36 66 138 35 214 133 35 215 133 35 215 67 37 67 66 36 66</p>
                </polylist>
                <extra>
                    <technique profile="modo401">
                        <param sid="render" name="Render" type="Name">default</param>
                        <param sid="dissolve" name="Dissolve" type="float">0</param>
                        <param sid="curves" name="Render_Curves" type="bool">false</param>
                        <param sid="radius" name="Curve_Radius" type="float">0.05</param>
                    </technique>
                </extra>
            </mesh>
        </geometry>
    </library_geometries>
    <library_lights>
        <light id="Light-polyRender007" name="Render">
            <technique_common>
                <ambient>
                    <color sid="ambient_light_rgb">0.05 0.05 0.05</color>
                </ambient>
            </technique_common>
        </light>
    </library_lights>
    <library_nodes id="shader_tree" name="Shader_Tree">
        <node sid="shader_tree_render" name="Render">
            <extra>
                <technique profile="modo401">
                    <param sid="first" name="Frame_Range_First" type="int">1</param>
                    <param sid="last" name="Frame_Range_Last" type="int">120</param>
                    <param sid="dpi" name="Frame_DPI" type="float">300</param>
                    <param sid="resUnit" name="Resolution_Unit" type="Name">pixels</param>
                    <param sid="pAspect" name="Frame_Pixel_Aspect_Ratio" type="float">1</param>
                    <param sid="bucketX" name="Bucket_Width" type="int">32</param>
                    <param sid="bucketY" name="Bucket_Height" type="int">32</param>
                    <param sid="bktOrder" name="Bucket_Order" type="Name">hilbert</param>
                    <param sid="bktSkip" name="Skip_Existing_Buckets" type="bool">false</param>
                    <param sid="region" name="Render_Region" type="bool">false</param>
                    <param sid="regX0" name="Render_Region_Left" type="float">0</param>
                    <param sid="regX1" name="Render_Region_Right" type="float">1</param>
                    <param sid="regY0" name="Render_Region_Top" type="float">0</param>
                    <param sid="regY1" name="Render_Region_Bottom" type="float">1</param>
                    <param sid="aa" name="Render_Antialiasing" type="Name">s8</param>
                    <param sid="aaFilter" name="Render_Antialiasing_Filter" type="Name">gaussian</param>
                    <param sid="fineRate" name="Refinement_Shading_Rate" type="float">0.25</param>
                    <param sid="fineThresh" name="Refinement_Threshold" type="float">0.1</param>
                    <param sid="bktRefine" name="Refine_Bucket_Borders" type="bool">false</param>
                    <param sid="dof" name="Render_Depth_of_Field" type="bool">false</param>
                    <param sid="mBlur" name="Render_Motion_Blur" type="bool">false</param>
                    <param sid="stereo" name="Render_Stereoscopic" type="bool">false</param>
                    <param sid="rayShadow" name="Ray_Tracing_Shadows" type="bool">true</param>
                    <param sid="reflDepth" name="Reflection_Depth" type="int">8</param>
                    <param sid="refrDepth" name="Refraction_Depth" type="int">8</param>
                    <param sid="rayThresh" name="Ray_Threshold" type="float">0.001</param>
                    <param sid="subdAdapt" name="Adaptive_Subdivision" type="bool">false</param>
                    <param sid="subdRate" name="Subdivision_Rate" type="float">10</param>
                    <param sid="dispEnable" name="Micropoly_Displacement" type="bool">true</param>
                    <param sid="dispRate" name="Displacement_Rate" type="float">1</param>
                    <param sid="dispRatio" name="Displacement_Ratio" type="float">4</param>
                    <param sid="edgeMin" name="Minimum_Edge_Length" type="float">0.0001</param>
                    <param sid="dispSmooth" name="Smooth_Positions" type="bool">true</param>
                    <param sid="ambRad" name="Ambient_Intensity" type="float">0.05</param>
                    <param sid="ambColor" name="Ambient_Color" type="color">1 1 1</param>
                    <param sid="globEnable" name="Enable_Indirect_Illumination" type="bool">true</param>
                    <param sid="globScope" name="Indirect_Illumination_Scope" type="Name">all</param>
                    <param sid="globRays" name="Indirect_Rays" type="int">256</param>
                    <param sid="globLimit" name="Indirect_Bounces" type="int">1</param>
                    <param sid="globRange" name="Indirect_Range" type="float">0</param>
                    <param sid="globSubs" name="Subsurface_Scattering" type="int">0</param>
                    <param sid="globVols" name="Volumetrics_Affect_Indirect" type="bool">false</param>
                    <param sid="irrCache" name="Enable_Irradiance_Caching" type="bool">true</param>
                    <param sid="irrRays" name="Irradiance_Rays" type="int">256</param>
                    <param sid="globSuper" name="Indirect_Supersampling" type="bool">true</param>
                    <param sid="irrRate" name="Irradiance_Rate" type="float">2.5</param>
                    <param sid="irrRatio" name="Irradiance_Ratio" type="float">6</param>
                    <param sid="irrVals" name="Interpolation_Values" type="int">1</param>
                    <param sid="irrGrads" name="Irradiance_Gradients" type="Name">both</param>
                    <param sid="irrWalk" name="Walkthrough_Mode" type="bool">false</param>
                    <param sid="irrLEnable" name="Load_Irradiance_before_Render" type="bool">false</param>
                    <param sid="irrLName" name="Load_Irradiance_File" type="Name"></param>
                    <param sid="irrSEnable" name="Save_Irradiance_after_Render" type="bool">false</param>
                    <param sid="irrSName" name="Save_Irradiance_File" type="Name"></param>
                    <param sid="causEnable" name="Enable_Direct_Caustics" type="bool">false</param>
                    <param sid="causTotal" name="Caustics_Total_Photons" type="int">100000</param>
                    <param sid="causLocal" name="Caustics_Local_Photons" type="int">32</param>
                    <param sid="globCaus" name="Indirect_Caustics" type="Name">refraction</param>
                </technique>
            </extra>
        </node>
        <node sid="shader_tree_environment" name="Environment">
            <extra>
                <technique profile="modo401">
                    <param sid="radiance" name="Environment_Intensity" type="float">1</param>
                    <param sid="visCam" name="Environment_Visible_to_Camera" type="bool">true</param>
                    <param sid="visInd" name="Environment_Visible_to_Indirect_Rays" type="bool">true</param>
                    <param sid="visRefl" name="Environment_Visible_to_Reflection_Rays" type="bool">true</param>
                    <param sid="visRefr" name="Environment_Visible_to_Refraction_Rays" type="bool">true</param>
                </technique>
            </extra>
        </node>
    </library_nodes>
    <library_visual_scenes>
        <visual_scene id="DefaultScene">
            <node id="polyRender007" name="Render" type="NODE">
                <instance_light url="#Light-polyRender007" />
            </node>
            <node id="Geometry-mesh008Node" name="door_hatch_slide_ventilation" type="NODE">
                <instance_geometry url="#Geometry-mesh008">
                    <bind_material>
                        <technique_common>
                            <instance_material symbol="Material-door_hatch_slide_ventilation" target="#Material-door_hatch_slide_ventilation">
                                <bind_vertex_input semantic="uvSet1" input_semantic="TEXCOORD" input_set="0" />
                            </instance_material>
                        </technique_common>
                    </bind_material>
                </instance_geometry>
            </node>
            <node id="Geometry-mesh044Node" name="Mesh" type="NODE">
                <instance_geometry url="#Geometry-mesh044">
                    <bind_material>
                        <technique_common>
                            <instance_material symbol="Material-door_hatch_slide_ventilation" target="#Material-door_hatch_slide_ventilation">
                                <bind_vertex_input semantic="uvSet1" input_semantic="TEXCOORD" input_set="0" />
                            </instance_material>
                        </technique_common>
                    </bind_material>
                </instance_geometry>
            </node>
            <node id="groupLocator009Node" name="Texture_Group" type="NODE">
                <node id="txtrLocator031Node" name="door_hatch_slide_ventilation__3___Image___Texture_" type="NODE">
                    <translate sid="translation034">0 0 0</translate>
                    <rotate sid="rotation033Y">0 1 0 0</rotate>
                    <rotate sid="rotation033X">1 0 0 0</rotate>
                    <rotate sid="rotation033Z">0 0 1 0</rotate>
                    <scale sid="scale032">1 1 1</scale>
                </node>
                <node id="txtrLocator040Node" name="_none___Texture_" type="NODE">
                    <translate sid="translation043">0 0 0</translate>
                    <rotate sid="rotation042Y">0 1 0 0</rotate>
                    <rotate sid="rotation042X">1 0 0 0</rotate>
                    <rotate sid="rotation042Z">0 0 1 0</rotate>
                    <scale sid="scale041">1 1 1</scale>
                </node>
                <node id="txtrLocator016Node" name="door_hatch_slide_ventilation_nrm__Image___Texture_" type="NODE">
                    <translate sid="translation019">0 0 0</translate>
                    <rotate sid="rotation018Y">0 1 0 0</rotate>
                    <rotate sid="rotation018X">1 0 0 0</rotate>
                    <rotate sid="rotation018Z">0 0 1 0</rotate>
                    <scale sid="scale017">1 1 1</scale>
                </node>
            </node>
            <extra>
                <technique profile="modo401">
                    <param sid="fps" name="Scene_FPS" type="float">24</param>
                    <param sid="sceneS" name="Scene_Start_Time" type="float">0</param>
                    <param sid="sceneE" name="Scene_End_Time" type="float">5</param>
                    <param sid="currentS" name="Scene_Current_Start_Time" type="float">0</param>
                    <param sid="currentE" name="Scene_Current_End_Time" type="float">5</param>
                    <param sid="timeSys" name="Scene_Time_System" type="Name">frames</param>
                </technique>
            </extra>
            <extra>
                <technique profile="MAX3D">
                    <frame_rate>24</frame_rate>
                </technique>
            </extra>
            <extra>
                <technique profile="MAYA">
                    <start_time>0</start_time>
                    <end_time>5</end_time>
                </technique>
            </extra>
            <extra>
                <technique profile="OKINO" />
            </extra>
            <extra>
                <technique profile="XSI">
                    <SI_Scene>
                        <frame_rate>24</frame_rate>
                    </SI_Scene>
                </technique>
            </extra>
        </visual_scene>
    </library_visual_scenes>
    <scene>
        <instance_visual_scene url="#DefaultScene" />
    </scene>
</COLLADA>
