<?xml version="1.0" encoding="utf-8"?>
<COLLADA xmlns="http://www.collada.org/2005/11/COLLADASchema" version="1.4.1">
  <asset><contributor><author></author><authoring_tool>FBX COLLADA exporter</authoring_tool><comments></comments></contributor><created>2015-08-03T14:48:53Z</created><keywords></keywords><modified>2015-08-03T14:48:53Z</modified><revision></revision><subject></subject><title></title><unit meter="0.010000" name="centimeter"></unit><up_axis>Y_UP</up_axis></asset>
  <library_images>
    <image id="file2-image" name="file2"><init_from>file://D:/work/svn_soma/redist/entities/station/special/02_05_photos_extra/02_05_brandon_family.dds</init_from></image>
    <image id="file1-image" name="file1"><init_from>file://D:\work\svn_soma\redist\entities\station\special\02_05_brandon_alice_photo\02_05_brandon_alice_photo.dds</init_from></image>
  </library_images>
  <library_materials>
    <material id="brandon_family" name="brandon_family">
      <instance_effect url="#brandon_family-fx"/>
    </material>
    <material id="lambert2" name="lambert2">
      <instance_effect url="#lambert2-fx"/>
    </material>
  </library_materials>
  <library_effects>
    <effect id="brandon_family-fx" name="brandon_family">
      <profile_COMMON>
        <technique sid="standard">
          <lambert>
            <emission>
              <color sid="emission">0.000000  0.000000 0.000000 1.000000</color>
            </emission>
            <ambient>
              <color sid="ambient">0.000000  0.000000 0.000000 1.000000</color>
            </ambient>
            <diffuse>
              <texture texture="file2-image" texcoord="CHANNEL0">
                <extra>
                  <technique profile="MAYA">
                    <wrapU sid="wrapU0">TRUE</wrapU>
                    <wrapV sid="wrapV0">TRUE</wrapV>
                    <blend_mode>NONE</blend_mode>
                  </technique>
                </extra>
              </texture>
            </diffuse>
            <transparent opaque="RGB_ZERO">
              <color sid="transparent">0.000000  0.000000 0.000000 1.000000</color>
            </transparent>
            <transparency>
              <float sid="transparency">1.000000</float>
            </transparency>
          </lambert>
        </technique>
      </profile_COMMON>
    </effect>
    <effect id="lambert2-fx" name="lambert2">
      <profile_COMMON>
        <technique sid="standard">
          <lambert>
            <emission>
              <color sid="emission">0.000000  0.000000 0.000000 1.000000</color>
            </emission>
            <ambient>
              <color sid="ambient">0.000000  0.000000 0.000000 1.000000</color>
            </ambient>
            <diffuse>
              <texture texture="file1-image" texcoord="CHANNEL0">
                <extra>
                  <technique profile="MAYA">
                    <wrapU sid="wrapU0">TRUE</wrapU>
                    <wrapV sid="wrapV0">TRUE</wrapV>
                    <blend_mode>NONE</blend_mode>
                  </technique>
                </extra>
              </texture>
            </diffuse>
            <transparent opaque="RGB_ZERO">
              <color sid="transparent">0.000000  0.000000 0.000000 1.000000</color>
            </transparent>
            <transparency>
              <float sid="transparency">1.000000</float>
            </transparency>
          </lambert>
        </technique>
      </profile_COMMON>
    </effect>
  </library_effects>
  <library_geometries>
    <geometry id="photo-lib" name="photoMesh">
      <mesh>
        <source id="photo-POSITION">
          <float_array id="photo-POSITION-array" count="12">
16.869036 0.884388 12.194647
16.869034 0.884389 -12.194648
-16.869030 0.884388 -12.194647
-16.869030 0.884388 12.194648
</float_array>
          <technique_common>
            <accessor source="#photo-POSITION-array" count="4" stride="3">
              <param name="X" type="float"/>
              <param name="Y" type="float"/>
              <param name="Z" type="float"/>
            </accessor>
          </technique_common>
        </source>
        <source id="photo-Normal0">
          <float_array id="photo-Normal0-array" count="18">
0.000000 1.000000 0.000000
0.000000 1.000000 0.000000
0.000000 1.000000 0.000000
0.000000 1.000000 0.000000
0.000000 1.000000 0.000000
0.000000 1.000000 0.000000
</float_array>
          <technique_common>
            <accessor source="#photo-Normal0-array" count="6" stride="3">
              <param name="X" type="float"/>
              <param name="Y" type="float"/>
              <param name="Z" type="float"/>
            </accessor>
          </technique_common>
        </source>
        <source id="photo-UV0">
          <float_array id="photo-UV0-array" count="8">
0.705270 0.988821
0.001452 0.988821
0.001452 0.012014
0.705270 0.012014
</float_array>
          <technique_common>
            <accessor source="#photo-UV0-array" count="4" stride="2">
              <param name="S" type="float"/>
              <param name="T" type="float"/>
            </accessor>
          </technique_common>
        </source>
        <vertices id="photo-VERTEX">
          <input semantic="POSITION" source="#photo-POSITION"/>
        </vertices>
        <triangles count="2" material="brandon_family"><input semantic="VERTEX" offset="0" source="#photo-VERTEX"/><input semantic="NORMAL" offset="1" source="#photo-Normal0"/><input semantic="TEXCOORD" offset="2" set="0" source="#photo-UV0"/><p> 3 0 0 0 1 1 2 2 3 2 3 3 0 4 1 1 5 2</p></triangles>
      </mesh>
    </geometry>
    <geometry id="frame-lib" name="frameMesh">
      <mesh>
        <source id="frame-POSITION">
          <float_array id="frame-POSITION-array" count="96">
5.237766 -14.875720 -6.762420
5.237767 0.197842 5.597994
-5.237766 0.197844 5.597992
-5.237766 -14.875720 -6.762419
-5.237768 -15.490379 -6.015513
-5.237766 0.092350 6.762417
5.237768 0.092350 6.762418
5.237766 -15.490376 -6.015513
17.958191 1.727685 -13.357760
17.958193 -0.000002 -13.357759
-17.958191 1.727688 -13.357759
-17.958191 -0.000002 -13.357759
-17.958187 1.727684 13.357761
-17.958187 0.000000 13.357760
17.958193 1.727685 13.357761
17.958193 0.000000 13.357759
17.048111 1.727685 12.422909
17.048107 1.727684 -12.422910
-17.048107 1.727686 -12.422909
-17.048107 1.727688 12.422910
16.702013 0.884388 12.073908
16.702011 0.884389 -12.073909
-16.702007 0.884388 -12.073908
-16.702007 0.884388 12.073909
-18.291534 1.382147 13.634063
-18.291531 1.382147 -13.634062
18.291534 1.382148 -13.634062
18.291534 1.382149 13.634062
-18.291531 0.345533 13.634064
-18.291531 0.345535 -13.634064
18.291533 0.345538 -13.634064
18.291533 0.345534 13.634064
</float_array>
          <technique_common>
            <accessor source="#frame-POSITION-array" count="32" stride="3">
              <param name="X" type="float"/>
              <param name="Y" type="float"/>
              <param name="Z" type="float"/>
            </accessor>
          </technique_common>
        </source>
        <source id="frame-Normal0">
          <float_array id="frame-Normal0-array" count="486">
0.773265 0.634083 -0.000000
0.773265 0.634083 -0.000000
0.773265 0.634083 -0.000000
0.773265 0.634083 -0.000000
0.773265 0.634083 -0.000000
0.773265 0.634083 -0.000000
0.000002 0.000001 -1.000000
-0.000000 0.000000 -1.000000
0.000002 0.000001 -1.000000
0.000002 0.000001 -1.000000
-0.000000 0.000000 -1.000000
-0.000000 -0.000001 -1.000000
-0.090226 0.995921 0.000000
-0.090229 0.995921 0.000000
-0.090226 0.995921 0.000000
-0.090226 0.995921 0.000000
-0.090229 0.995921 0.000000
-0.090229 0.995921 0.000000
0.000000 0.000000 1.000000
0.000000 0.000000 1.000000
0.000000 0.000000 1.000000
0.000000 0.000000 1.000000
0.000000 0.000000 1.000000
0.000000 0.000000 1.000000
0.635434 -0.772155 -0.000000
0.635436 -0.772154 -0.000000
0.635434 -0.772155 -0.000000
0.635434 -0.772155 -0.000000
0.635436 -0.772154 -0.000000
0.635436 -0.772154 -0.000000
-0.773266 -0.634082 0.000000
-0.773265 -0.634083 0.000000
-0.773266 -0.634082 0.000000
-0.773266 -0.634082 0.000000
-0.773265 -0.634083 0.000000
-0.773265 -0.634083 0.000000
-0.000000 -0.624520 -0.781009
-0.000001 -0.624519 -0.781009
-0.000000 -0.624520 -0.781009
-0.000000 -0.624520 -0.781009
-0.000001 -0.624519 -0.781009
-0.000001 -0.624519 -0.781009
-0.719692 -0.694293 0.000000
-0.719691 -0.694294 0.000000
-0.719692 -0.694293 0.000000
-0.719692 -0.694293 0.000000
-0.719691 -0.694294 0.000000
-0.719691 -0.694294 0.000000
-0.000002 -0.624524 0.781005
0.000002 -0.624523 0.781007
-0.000002 -0.624524 0.781005
-0.000002 -0.624524 0.781005
0.000002 -0.624523 0.781007
0.000002 -0.624523 0.781007
0.719697 -0.694288 -0.000000
0.719690 -0.694295 -0.000000
0.719697 -0.694288 -0.000000
0.719697 -0.694288 -0.000000
0.719690 -0.694295 -0.000000
0.719690 -0.694295 -0.000000
0.000000 -1.000000 0.000000
0.000000 -1.000000 0.000000
0.000000 -1.000000 0.000000
0.000000 -1.000000 0.000000
0.000000 -1.000000 0.000000
0.000000 -1.000000 0.000000
0.000000 1.000000 0.000000
0.000000 1.000000 0.000000
-0.000001 1.000000 0.000000
-0.000001 1.000000 0.000000
0.000000 1.000000 0.000000
-0.000001 1.000000 0.000000
0.000000 1.000000 0.000001
0.000000 1.000000 0.000001
0.000000 1.000000 0.000001
0.000000 1.000000 0.000001
0.000000 1.000000 0.000001
0.000000 1.000000 0.000001
0.000003 1.000000 -0.000000
0.000003 1.000000 -0.000000
-0.000001 1.000000 0.000000
-0.000001 1.000000 0.000000
0.000003 1.000000 -0.000000
-0.000001 1.000000 0.000000
0.000000 1.000000 0.000006
0.000000 1.000000 0.000006
-0.000001 1.000000 -0.000001
-0.000001 1.000000 -0.000001
0.000000 1.000000 0.000006
-0.000001 1.000000 -0.000001
-0.925118 0.379680 0.000000
-0.925118 0.379680 0.000000
-0.925118 0.379680 0.000000
-0.925118 0.379680 0.000000
-0.925118 0.379680 0.000000
-0.925118 0.379680 0.000000
0.000000 0.382400 0.923997
0.000000 0.382400 0.923997
0.000000 0.382398 0.923998
0.000000 0.382398 0.923998
0.000000 0.382400 0.923997
0.000000 0.382399 0.923997
0.925117 0.379682 -0.000000
0.925117 0.379682 -0.000000
0.925119 0.379677 -0.000000
0.925119 0.379677 -0.000000
0.925117 0.379682 -0.000000
0.925119 0.379677 -0.000000
-0.000000 0.382398 -0.923998
-0.000000 0.382398 -0.923998
-0.000000 0.382398 -0.923998
-0.000000 0.382398 -0.923998
-0.000000 0.382398 -0.923998
-0.000000 0.382399 -0.923997
-0.719696 0.694289 0.000000
-0.719699 0.694286 0.000000
-0.719696 0.694289 0.000000
-0.719696 0.694289 0.000000
-0.719699 0.694286 0.000000
-0.719699 0.694286 0.000000
0.000001 0.624515 -0.781013
-0.000000 0.624518 -0.781011
0.000001 0.624515 -0.781013
0.000001 0.624515 -0.781013
-0.000000 0.624518 -0.781011
-0.000000 0.624518 -0.781011
0.719694 0.694292 -0.000000
0.719692 0.694293 -0.000000
0.719694 0.694292 -0.000000
0.719694 0.694292 -0.000000
0.719692 0.694293 -0.000000
0.719692 0.694293 -0.000000
-0.000001 0.624519 0.781010
0.000001 0.624519 0.781009
-0.000001 0.624519 0.781010
-0.000001 0.624519 0.781010
0.000001 0.624519 0.781009
0.000001 0.624519 0.781009
-1.000000 0.000005 0.000000
-1.000000 0.000005 0.000000
-1.000000 -0.000004 0.000000
-1.000000 -0.000004 0.000000
-1.000000 0.000005 0.000000
-1.000000 -0.000005 0.000000
-0.000002 0.000003 -1.000000
0.000001 0.000002 -1.000000
-0.000002 0.000003 -1.000000
-0.000002 0.000003 -1.000000
0.000001 0.000002 -1.000000
0.000001 0.000002 -1.000000
1.000000 0.000000 -0.000000
1.000000 0.000000 -0.000000
1.000000 0.000000 -0.000000
1.000000 0.000000 -0.000000
1.000000 0.000000 -0.000000
1.000000 0.000000 -0.000000
0.000000 0.000001 1.000000
0.000000 0.000001 1.000000
0.000000 0.000001 1.000000
0.000000 0.000001 1.000000
0.000000 0.000001 1.000000
0.000000 0.000001 1.000000
</float_array>
          <technique_common>
            <accessor source="#frame-Normal0-array" count="162" stride="3">
              <param name="X" type="float"/>
              <param name="Y" type="float"/>
              <param name="Z" type="float"/>
            </accessor>
          </technique_common>
        </source>
        <source id="frame-UV0">
          <float_array id="frame-UV0-array" count="152">
0.007176 0.118046
0.329394 0.118046
0.329394 0.986461
0.007176 0.986461
0.276796 0.013539
0.728192 0.013539
0.728192 0.056966
0.276796 0.056965
0.660450 0.014163
0.996209 0.014162
0.996209 0.057590
0.660450 0.057590
0.005283 0.056966
0.005283 0.013540
0.456679 0.013540
0.456679 0.056966
0.446248 0.014161
0.782008 0.014161
0.782007 0.057588
0.446248 0.057587
0.007176 0.986461
0.007176 0.118046
0.329394 0.118046
0.329394 0.986461
0.728192 0.022224
0.276796 0.022224
0.276796 0.013539
0.728192 0.013539
0.996209 0.022848
0.660450 0.022848
0.660450 0.014163
0.996209 0.014162
0.456679 0.022225
0.005283 0.022225
0.005283 0.013540
0.456679 0.013540
0.782008 0.022846
0.446248 0.022846
0.446248 0.014161
0.782008 0.014161
0.007176 0.986461
0.007176 0.118046
0.329394 0.118046
0.329394 0.986461
0.457997 0.080464
0.446248 0.057587
0.782007 0.057588
0.770258 0.080463
0.288234 0.080464
0.276796 0.056965
0.728192 0.056966
0.716754 0.080464
0.672198 0.080466
0.660450 0.057590
0.996209 0.057590
0.984460 0.080466
0.016721 0.080464
0.005283 0.056966
0.456679 0.056966
0.445241 0.080464
0.462383 0.101661
0.765872 0.101661
0.292584 0.101662
0.712404 0.101661
0.676585 0.101662
0.980074 0.101663
0.021071 0.101662
0.440891 0.101662
0.660450 0.048904
0.996209 0.048904
0.276796 0.048280
0.728192 0.048280
0.446248 0.048902
0.782007 0.048902
0.005283 0.048280
0.456679 0.048281
</float_array>
          <technique_common>
            <accessor source="#frame-UV0-array" count="76" stride="2">
              <param name="S" type="float"/>
              <param name="T" type="float"/>
            </accessor>
          </technique_common>
        </source>
        <vertices id="frame-VERTEX">
          <input semantic="POSITION" source="#frame-POSITION"/>
        </vertices>
        <triangles count="54" material="lambert2"><input semantic="VERTEX" offset="0" source="#frame-VERTEX"/><input semantic="NORMAL" offset="1" source="#frame-Normal0"/><input semantic="TEXCOORD" offset="2" set="0" source="#frame-UV0"/><p> 1 0 3 0 1 0 2 2 2 2 3 2 0 4 0 3 5 1 4 6 4 5 7 5 3 8 7 3 9 7 5 10 5 2 11 6 5 12 8 6 13 9 2 14 11 2 15 11 6 16 9 1 17 10 1 18 12 6 19 13 0 20 15 0 21 15 6 22 13 7 23 14 7 24 16 4 25 17 0 26 19 0 27 19 4 28 17 3 29 18 5 30 20 4 31 21 6 32 23 6 33 23 4 34 21 7 35 22 29 36 24 30 37 25 11 38 27 11 39 27 30 40 25 9 41 26 28 42 28 29 43 29 13 44 31 13 45 31 29 46 29 11 47 30 31 48 32 28 49 33 15 50 35 15 51 35 28 52 33 13 53 34 30 54 36 31 55 37 9 56 39 9 57 39 31 58 37 15 59 38 11 60 40 9 61 41 13 62 43 13 63 43 9 64 41 15 65 42 16 66 44 14 67 45 17 68 47 17 69 47 14 70 45 8 71 46 17 72 48 8 73 49 18 74 51 18 75 51 8 76 49 10 77 50 18 78 52 10 79 53 19 80 55 19 81 55 10 82 53 12 83 54 19 84 56 12 85 57 16 86 59 16 87 59 12 88 57 14 89 58 20 90 60 16 91 44 21 92 61 21 93 61 16 94 44 17 95 47 21 96 62 17 97 48 22 98 63 22 99 63 17 100 48 18 101 51 22 102 64 18 103 52 23 104 65 23 105 65 18 106 52 19 107 55 23 108 66 19 109 56 20 110 67 20 111 67 19 112 56 16 113 59 12 114 54 10 115 53 24 116 69 24 117 69 10 118 53 25 119 68 10 120 50 8 121 49 25 122 71 25 123 71 8 124 49 26 125 70 8 126 46 14 127 45 26 128 73 26 129 73 14 130 45 27 131 72 14 132 58 12 133 57 27 134 75 27 135 75 12 136 57 24 137 74 25 138 68 29 139 29 24 140 69 24 141 69 29 142 29 28 143 28 30 144 25 29 145 24 26 146 70 26 147 70 29 148 24 25 149 71 27 150 72 31 151 37 26 152 73 26 153 73 31 154 37 30 155 36 24 156 74 28 157 33 27 158 75 27 159 75 28 160 33 31 161 32</p></triangles>
      </mesh>
    </geometry>
  </library_geometries>
  <library_visual_scenes>
    <visual_scene id="02_05_brandon_family" name="02_05_brandon_family">
      <node name="photo" id="photo" sid="photo"><matrix sid="matrix">1.000000 0.000000 0.000000 0.000000 0.000000 1.000000 0.000000 0.000000 0.000000 0.000000 1.000000 0.000000 0.000000 0.000000 0.000000 1.000000</matrix><instance_geometry url="#photo-lib"><bind_material><technique_common><instance_material symbol="brandon_family" target="#brandon_family"/></technique_common></bind_material></instance_geometry><extra><technique profile="FCOLLADA"><visibility>1.000000</visibility></technique></extra></node>
      <node name="frame" id="frame" sid="frame"><matrix sid="matrix">1.000000 0.000000 0.000000 0.000000 0.000000 1.000000 0.000000 0.000000 0.000000 0.000000 1.000000 0.000000 0.000000 0.000000 0.000000 1.000000</matrix><instance_geometry url="#frame-lib"><bind_material><technique_common><instance_material symbol="lambert2" target="#lambert2"/></technique_common></bind_material></instance_geometry><extra><technique profile="FCOLLADA"><visibility>1.000000</visibility></technique></extra></node>
      <extra><technique profile="MAX3D"><frame_rate>24.000000</frame_rate></technique><technique profile="FCOLLADA"><start_time>0.041667</start_time><end_time>2.000000</end_time></technique></extra>
    </visual_scene>
  </library_visual_scenes>
  <scene>
    <instance_visual_scene url="#02_05_brandon_family"></instance_visual_scene>
  </scene>
</COLLADA>
