<?xml version="1.0" encoding="utf-8"?>
<COLLADA xmlns="http://www.collada.org/2005/11/COLLADASchema" version="1.4.0">
  <asset>
    <contributor>
      <author></author>
      <authoring_tool>FBX COLLADA exporter</authoring_tool>
      <comments></comments>
    </contributor>
    <created>2012-11-07T10:03:19Z</created>
    <modified>2012-11-07T10:03:19Z</modified>
    <revision></revision>
    <title></title>
    <subject></subject>
    <keywords></keywords>
    <unit meter="0.010000"/>
    <up_axis>Z_UP</up_axis>
  </asset>
  <library_images>
    <image id="Map__5-image" name="Map__5">
      <init_from>file://D:\Work\artbully\frictional\Project_Depth_Tools\tools\entities\Machine\generator_habitat\Generator_Habitat.dds</init_from>
    </image>
    <image id="Map__6-image" name="Map__6">
      <init_from>file://D:\Work\artbully\frictional\Project_Depth_Tools\tools\entities\Machine\generator_habitat\generator_habitat_illum.dds</init_from>
    </image>
    <image id="Map__7-image" name="Map__7">
      <init_from>file://D:\Work\artbully\frictional\Project_Depth_Tools\tools\entities\Machine\generator_habitat\generator_habitat_spec.dds</init_from>
    </image>
  </library_images>
  <library_materials>
    <material id="Material__82" name="Material__82">
      <instance_effect url="#Material__82-fx"/>
    </material>
  </library_materials>
  <library_effects>
    <effect id="Material__82-fx" name="Material__82">
      <profile_COMMON>
        <technique sid="standard">
          <phong>
            <emission>
              <texture texture="Map__6-image" texcoord="CHANNEL0">
                <extra>
                  <technique profile="MAYA">
                    <wrapU sid="wrapU0">TRUE</wrapU>
                    <wrapV sid="wrapV0">TRUE</wrapV>
                    <blend_mode>ADD</blend_mode>
                  </technique>
                </extra>
              </texture>
            </emission>
            <ambient>
              <color sid="ambient">0.588000  0.588000 0.588000 1.000000</color>
            </ambient>
            <diffuse>
              <texture texture="Map__5-image" texcoord="CHANNEL0">
                <extra>
                  <technique profile="MAYA">
                    <wrapU sid="wrapU0">TRUE</wrapU>
                    <wrapV sid="wrapV0">TRUE</wrapV>
                    <blend_mode>ADD</blend_mode>
                  </technique>
                </extra>
              </texture>
            </diffuse>
            <specular>
              <texture texture="Map__7-image" texcoord="CHANNEL0">
                <extra>
                  <technique profile="MAYA">
                    <wrapU sid="wrapU0">TRUE</wrapU>
                    <wrapV sid="wrapV0">TRUE</wrapV>
                    <blend_mode>ADD</blend_mode>
                  </technique>
                </extra>
              </texture>
            </specular>
            <shininess>
              <float sid="shininess">2.000000</float>
            </shininess>
            <reflective>
              <color sid="reflective">0.000000  0.000000 0.000000 1.000000</color>
            </reflective>
            <reflectivity>
              <float sid="reflectivity">1.000000</float>
            </reflectivity>
            <transparent>
              <color sid="transparent">1.000000  1.000000 1.000000 1.000000</color>
            </transparent>
            <transparency>
              <float sid="transparency">0.000000</float>
            </transparency>
          </phong>
        </technique>
      </profile_COMMON>
    </effect>
  </library_effects>
  <library_geometries>
    <geometry id="generator_habitat_lever-lib" name="generator_habitat_leverMesh">
      <mesh>
        <source id="generator_habitat_lever-lib-Position">
          <float_array id="generator_habitat_lever-lib-Position-array" count="252">
74.777191 -117.046204 118.375641
74.777191 -115.759239 118.720490
74.777191 -114.817123 119.662598
74.777191 -114.472282 120.949570
74.777191 -114.817123 122.236526
74.777191 -115.759239 123.178650
74.777191 -117.046204 123.523483
74.777191 -118.333168 123.178650
74.777191 -119.275284 122.236526
74.777191 -119.620125 120.949570
74.777191 -119.275291 119.662598
74.777191 -118.333168 118.720490
87.449234 -117.046204 119.057541
87.449234 -116.100189 119.311035
87.449234 -115.407661 120.003555
87.449234 -115.154182 120.949570
87.449234 -115.407661 121.895584
87.449234 -116.100189 122.588104
87.449234 -117.046204 122.841583
87.449234 -117.992210 122.588104
87.449234 -118.684738 121.895584
87.449234 -118.938225 120.949570
87.449234 -118.684746 120.003555
87.449234 -117.992218 119.311035
85.654343 -115.759239 118.720490
85.654343 -117.046204 118.375641
85.654343 -114.817123 119.662598
85.654343 -114.472282 120.949570
85.654343 -114.817123 122.236526
85.654343 -115.759239 123.178650
85.654343 -117.046204 123.523483
85.654343 -118.333168 123.178650
85.654343 -119.275284 122.236526
85.654343 -119.620125 120.949570
85.654343 -119.275291 119.662613
85.654343 -118.333168 118.720490
89.724854 -125.505508 117.782822
88.141487 -125.505508 118.207092
86.982376 -125.505508 119.366196
86.558121 -125.505508 120.949570
86.982376 -125.505508 122.532944
88.141487 -125.505508 123.692047
89.724854 -125.505508 124.116302
91.308228 -125.505508 123.692047
92.467331 -125.505508 122.532944
92.891594 -125.505508 120.949570
92.467331 -125.505508 119.366196
91.308228 -125.505508 118.207092
89.724854 -108.593575 117.782822
88.141487 -108.593575 118.207092
86.982376 -108.593575 119.366196
86.558113 -108.593575 120.949570
86.982376 -108.593575 122.532944
88.141487 -108.593575 123.692047
89.724854 -108.593575 124.116302
91.308228 -108.593575 123.692047
92.467331 -108.593575 122.532944
92.891594 -108.593575 120.949570
92.467331 -108.593575 119.366196
91.308228 -108.593575 118.207092
88.761993 -126.351669 119.281845
89.724854 -126.351669 119.023849
90.687721 -126.351669 119.281845
91.392578 -126.351669 119.986710
91.650581 -126.351669 120.949570
91.392578 -126.351669 121.912430
90.687714 -126.351669 122.617294
89.724854 -126.351669 122.875290
88.761993 -126.351669 122.617294
88.057129 -126.351669 121.912430
87.799133 -126.351669 120.949570
88.057129 -126.351669 119.986710
89.724854 -107.747406 119.023849
88.761993 -107.747406 119.281845
88.057129 -107.747406 119.986710
87.799133 -107.747406 120.949570
88.057129 -107.747406 121.912430
88.761993 -107.747406 122.617294
89.724854 -107.747406 122.875290
90.687714 -107.747406 122.617294
91.392578 -107.747406 121.912430
91.650581 -107.747406 120.949570
91.392578 -107.747406 119.986710
90.687714 -107.747406 119.281845
</float_array>
          <technique_common>
            <accessor source="#generator_habitat_lever-lib-Position-array" count="84" stride="3">
              <param name="X" type="float"/>
              <param name="Y" type="float"/>
              <param name="Z" type="float"/>
            </accessor>
          </technique_common>
        </source>
        <source id="generator_habitat_lever-lib-Normal0">
          <float_array id="generator_habitat_lever-lib-Normal0-array" count="1260">
0.000000 0.000000 -1.000000
0.000000 0.500001 -0.866025
0.175471 0.492243 -0.852588
0.175471 0.492243 -0.852588
0.175471 0.000000 -0.984485
0.000000 0.000000 -1.000000
0.000000 0.500001 -0.866025
0.000000 0.866025 -0.500001
0.175471 0.852588 -0.492244
0.175471 0.852588 -0.492244
0.175471 0.492243 -0.852588
0.000000 0.500001 -0.866025
0.000000 0.866025 -0.500001
0.000000 1.000000 0.000001
0.175470 0.984485 0.000001
0.175470 0.984485 0.000001
0.175471 0.852588 -0.492244
0.000000 0.866025 -0.500001
0.000000 1.000000 0.000001
0.000000 0.866026 0.499999
0.175470 0.852589 0.492241
0.175470 0.852589 0.492241
0.175470 0.984485 0.000001
0.000000 1.000000 0.000001
0.000000 0.866026 0.499999
0.000000 0.499999 0.866026
0.175470 0.492241 0.852590
0.175470 0.492241 0.852590
0.175470 0.852589 0.492241
0.000000 0.866026 0.499999
0.000000 0.499999 0.866026
0.000000 0.000000 1.000000
0.175471 -0.000000 0.984485
0.175471 -0.000000 0.984485
0.175470 0.492241 0.852590
0.000000 0.499999 0.866026
0.000000 0.000000 1.000000
0.000000 -0.499999 0.866026
0.175471 -0.492241 0.852589
0.175471 -0.492241 0.852589
0.175471 -0.000000 0.984485
0.000000 0.000000 1.000000
0.000000 -0.499999 0.866026
0.000000 -0.866026 0.499999
0.175471 -0.852589 0.492242
0.175471 -0.852589 0.492242
0.175471 -0.492241 0.852589
0.000000 -0.499999 0.866026
0.000000 -0.866026 0.499999
0.000000 -1.000000 0.000003
0.175470 -0.984485 0.000003
0.175470 -0.984485 0.000003
0.175471 -0.852589 0.492242
0.000000 -0.866026 0.499999
0.000000 -1.000000 0.000003
0.000000 -0.866026 -0.499999
0.175471 -0.852589 -0.492241
0.175471 -0.852589 -0.492241
0.175470 -0.984485 0.000003
0.000000 -1.000000 0.000003
0.000000 -0.866026 -0.499999
0.000000 -0.500001 -0.866025
0.175470 -0.492244 -0.852588
0.175470 -0.492244 -0.852588
0.175471 -0.852589 -0.492241
0.000000 -0.866026 -0.499999
0.000000 -0.500001 -0.866025
0.000000 0.000000 -1.000000
0.175471 0.000000 -0.984485
0.175471 0.000000 -0.984485
0.175470 -0.492244 -0.852588
0.000000 -0.500001 -0.866025
0.175471 0.492243 -0.852588
0.355146 0.467407 -0.809569
0.355147 0.000000 -0.934810
0.355147 0.000000 -0.934810
0.175471 0.000000 -0.984485
0.175471 0.492243 -0.852588
0.175471 0.852588 -0.492244
0.355146 0.809570 -0.467406
0.355146 0.467407 -0.809569
0.355146 0.467407 -0.809569
0.175471 0.492243 -0.852588
0.175471 0.852588 -0.492244
0.175470 0.984485 0.000001
0.355144 0.934812 0.000001
0.355146 0.809570 -0.467406
0.355146 0.809570 -0.467406
0.175471 0.852588 -0.492244
0.175470 0.984485 0.000001
0.175470 0.852589 0.492241
0.355144 0.809571 0.467406
0.355144 0.934812 0.000001
0.355144 0.934812 0.000001
0.175470 0.984485 0.000001
0.175470 0.852589 0.492241
0.175470 0.492241 0.852590
0.355145 0.467403 0.809572
0.355144 0.809571 0.467406
0.355144 0.809571 0.467406
0.175470 0.852589 0.492241
0.175470 0.492241 0.852590
0.175471 -0.000000 0.984485
0.355146 -0.000000 0.934811
0.355145 0.467403 0.809572
0.355145 0.467403 0.809572
0.175470 0.492241 0.852590
0.175471 -0.000000 0.984485
0.175471 -0.492241 0.852589
0.355147 -0.467403 0.809571
0.355146 -0.000000 0.934811
0.355146 -0.000000 0.934811
0.175471 -0.000000 0.984485
0.175471 -0.492241 0.852589
0.175471 -0.852589 0.492242
0.355146 -0.809569 0.467407
0.355147 -0.467403 0.809571
0.355147 -0.467403 0.809571
0.175471 -0.492241 0.852589
0.175471 -0.852589 0.492242
0.175470 -0.984485 0.000003
0.355146 -0.934811 0.000003
0.355146 -0.809569 0.467407
0.355146 -0.809569 0.467407
0.175471 -0.852589 0.492242
0.175470 -0.984485 0.000003
0.175471 -0.852589 -0.492241
0.355146 -0.809570 -0.467405
0.355146 -0.934811 0.000003
0.355146 -0.934811 0.000003
0.175470 -0.984485 0.000003
0.175471 -0.852589 -0.492241
0.175470 -0.492244 -0.852588
0.355145 -0.467408 -0.809569
0.355146 -0.809570 -0.467405
0.355146 -0.809570 -0.467405
0.175471 -0.852589 -0.492241
0.175470 -0.492244 -0.852588
0.175471 0.000000 -0.984485
0.355147 0.000000 -0.934810
0.355145 -0.467408 -0.809569
0.355145 -0.467408 -0.809569
0.175470 -0.492244 -0.852588
0.175471 0.000000 -0.984485
-0.000001 0.000000 -1.000000
-0.500001 0.000000 -0.866025
-0.500001 0.000000 -0.866025
-0.500001 0.000000 -0.866025
-0.000001 0.000000 -1.000000
-0.000001 0.000000 -1.000000
-0.500001 0.000000 -0.866025
-0.866025 -0.000000 -0.500000
-0.866025 -0.000000 -0.500000
-0.866025 -0.000000 -0.500000
-0.500001 0.000000 -0.866025
-0.500001 0.000000 -0.866025
-0.866025 -0.000000 -0.500000
-1.000000 -0.000000 0.000000
-1.000000 -0.000000 0.000000
-1.000000 -0.000000 0.000000
-0.866025 -0.000000 -0.500000
-0.866025 -0.000000 -0.500000
-1.000000 -0.000000 0.000000
-0.866025 -0.000000 0.500000
-0.866025 -0.000000 0.500000
-0.866025 -0.000000 0.500000
-1.000000 -0.000000 0.000000
-1.000000 -0.000000 0.000000
-0.866025 -0.000000 0.500000
-0.499997 0.000000 0.866027
-0.499997 0.000000 0.866027
-0.499997 0.000000 0.866027
-0.866025 -0.000000 0.500000
-0.866025 -0.000000 0.500000
-0.499997 0.000000 0.866027
-0.000001 0.000000 1.000000
-0.000001 0.000000 1.000000
-0.000001 0.000000 1.000000
-0.499997 0.000000 0.866027
-0.499997 0.000000 0.866027
-0.000001 0.000000 1.000000
0.499998 0.000000 0.866027
0.499998 0.000000 0.866027
0.499998 0.000000 0.866027
-0.000001 0.000000 1.000000
-0.000001 0.000000 1.000000
0.499998 0.000000 0.866027
0.866026 0.000000 0.500000
0.866026 0.000000 0.500000
0.866026 0.000000 0.500000
0.499998 0.000000 0.866027
0.499998 0.000000 0.866027
0.866026 0.000000 0.500000
1.000000 0.000000 0.000000
1.000000 0.000000 0.000000
1.000000 0.000000 0.000000
0.866026 0.000000 0.500000
0.866026 0.000000 0.500000
1.000000 0.000000 0.000000
0.866026 0.000000 -0.500000
0.866026 0.000000 -0.500000
0.866026 0.000000 -0.500000
1.000000 0.000000 0.000000
1.000000 0.000000 0.000000
0.866026 0.000000 -0.500000
0.500002 0.000000 -0.866024
0.500002 0.000000 -0.866024
0.500002 0.000000 -0.866024
0.866026 0.000000 -0.500000
0.866026 0.000000 -0.500000
0.500002 0.000000 -0.866024
-0.000001 0.000000 -1.000000
-0.000001 0.000000 -1.000000
-0.000001 0.000000 -1.000000
0.500002 0.000000 -0.866024
0.500002 0.000000 -0.866024
0.169123 -0.941058 -0.292928
0.292928 -0.941059 -0.169122
0.292928 -0.941058 0.169122
0.292928 -0.941058 0.169122
-0.000000 -0.941059 -0.338243
0.169123 -0.941058 -0.292928
-0.000000 0.941058 -0.338245
-0.169123 0.941058 -0.292930
-0.338246 0.941058 0.000000
-0.338246 0.941058 0.000000
0.169123 0.941058 -0.292930
-0.000000 0.941058 -0.338245
-0.281671 -0.826224 -0.487868
-0.000000 -0.826225 -0.563341
-0.000000 -0.941059 -0.338243
-0.000000 -0.941059 -0.338243
-0.169122 -0.941058 -0.292928
-0.281671 -0.826224 -0.487868
-0.000000 -0.826225 -0.563341
0.281671 -0.826224 -0.487868
0.169123 -0.941058 -0.292928
0.169123 -0.941058 -0.292928
-0.000000 -0.941059 -0.338243
-0.000000 -0.826225 -0.563341
0.281671 -0.826224 -0.487868
0.487869 -0.826223 -0.281672
0.292928 -0.941059 -0.169122
0.292928 -0.941059 -0.169122
0.169123 -0.941058 -0.292928
0.281671 -0.826224 -0.487868
0.487869 -0.826223 -0.281672
0.563343 -0.826223 0.000000
0.338246 -0.941058 0.000000
0.338246 -0.941058 0.000000
0.292928 -0.941059 -0.169122
0.487869 -0.826223 -0.281672
0.563343 -0.826223 0.000000
0.487868 -0.826224 0.281672
0.292928 -0.941058 0.169122
0.292928 -0.941058 0.169122
0.338246 -0.941058 0.000000
0.563343 -0.826223 0.000000
0.487868 -0.826224 0.281672
0.281670 -0.826224 0.487869
0.169121 -0.941058 0.292929
0.169121 -0.941058 0.292929
0.292928 -0.941058 0.169122
0.487868 -0.826224 0.281672
0.281670 -0.826224 0.487869
-0.000000 -0.826223 0.563344
-0.000000 -0.941058 0.338245
-0.000000 -0.941058 0.338245
0.169121 -0.941058 0.292929
0.281670 -0.826224 0.487869
-0.000000 -0.826223 0.563344
-0.281670 -0.826223 0.487870
-0.169122 -0.941058 0.292929
-0.169122 -0.941058 0.292929
-0.000000 -0.941058 0.338245
-0.000000 -0.826223 0.563344
-0.281670 -0.826223 0.487870
-0.487869 -0.826223 0.281671
-0.292929 -0.941058 0.169122
-0.292929 -0.941058 0.169122
-0.169122 -0.941058 0.292929
-0.281670 -0.826223 0.487870
-0.487869 -0.826223 0.281671
-0.563343 -0.826223 0.000000
-0.338245 -0.941058 0.000000
-0.338245 -0.941058 0.000000
-0.292929 -0.941058 0.169122
-0.487869 -0.826223 0.281671
-0.563343 -0.826223 0.000000
-0.487869 -0.826224 -0.281671
-0.292929 -0.941058 -0.169122
-0.292929 -0.941058 -0.169122
-0.338245 -0.941058 0.000000
-0.563343 -0.826223 0.000000
-0.487869 -0.826224 -0.281671
-0.281671 -0.826224 -0.487868
-0.169122 -0.941058 -0.292928
-0.169122 -0.941058 -0.292928
-0.292929 -0.941058 -0.169122
-0.487869 -0.826224 -0.281671
-0.000000 0.826222 -0.563344
-0.281673 0.826222 -0.487871
-0.169123 0.941058 -0.292930
-0.169123 0.941058 -0.292930
-0.000000 0.941058 -0.338245
-0.000000 0.826222 -0.563344
-0.281673 0.826222 -0.487871
-0.487871 0.826221 -0.281673
-0.292930 0.941058 -0.169123
-0.292930 0.941058 -0.169123
-0.169123 0.941058 -0.292930
-0.281673 0.826222 -0.487871
-0.487871 0.826221 -0.281673
-0.563345 0.826221 0.000000
-0.338246 0.941058 0.000000
-0.338246 0.941058 0.000000
-0.292930 0.941058 -0.169123
-0.487871 0.826221 -0.281673
-0.563345 0.826221 0.000000
-0.487871 0.826221 0.281673
-0.292930 0.941058 0.169123
-0.292930 0.941058 0.169123
-0.338246 0.941058 0.000000
-0.563345 0.826221 0.000000
-0.487871 0.826221 0.281673
-0.281672 0.826221 0.487873
-0.169123 0.941057 0.292931
-0.169123 0.941057 0.292931
-0.292930 0.941058 0.169123
-0.487871 0.826221 0.281673
-0.281672 0.826221 0.487873
-0.000000 0.826220 0.563347
-0.000000 0.941057 0.338247
-0.000000 0.941057 0.338247
-0.169123 0.941057 0.292931
-0.281672 0.826221 0.487873
-0.000000 0.826220 0.563347
0.281672 0.826221 0.487872
0.169123 0.941058 0.292931
0.169123 0.941058 0.292931
-0.000000 0.941057 0.338247
-0.000000 0.826220 0.563347
0.281672 0.826221 0.487872
0.487871 0.826221 0.281673
0.292930 0.941058 0.169123
0.292930 0.941058 0.169123
0.169123 0.941058 0.292931
0.281672 0.826221 0.487872
0.487871 0.826221 0.281673
0.563346 0.826221 0.000000
0.338248 0.941057 0.000000
0.338248 0.941057 0.000000
0.292930 0.941058 0.169123
0.487871 0.826221 0.281673
0.563346 0.826221 0.000000
0.487871 0.826221 -0.281673
0.292930 0.941058 -0.169123
0.292930 0.941058 -0.169123
0.338248 0.941057 0.000000
0.563346 0.826221 0.000000
0.487871 0.826221 -0.281673
0.281673 0.826222 -0.487870
0.169123 0.941058 -0.292930
0.169123 0.941058 -0.292930
0.292930 0.941058 -0.169123
0.487871 0.826221 -0.281673
0.281673 0.826222 -0.487870
-0.000000 0.826222 -0.563344
-0.000000 0.941058 -0.338245
-0.000000 0.941058 -0.338245
0.169123 0.941058 -0.292930
0.281673 0.826222 -0.487870
0.292928 -0.941059 -0.169122
0.338246 -0.941058 0.000000
0.292928 -0.941058 0.169122
0.292928 -0.941058 0.169122
-0.292929 -0.941058 0.169122
-0.292929 -0.941058 -0.169122
-0.292929 -0.941058 -0.169122
-0.000000 -0.941059 -0.338243
0.292928 -0.941058 0.169122
-0.169123 0.941058 -0.292930
-0.292930 0.941058 -0.169123
-0.338246 0.941058 0.000000
-0.338246 0.941058 0.000000
0.169123 0.941058 0.292931
0.338248 0.941057 0.000000
0.338248 0.941057 0.000000
0.169123 0.941058 -0.292930
-0.338246 0.941058 0.000000
0.292928 -0.941058 0.169122
0.169121 -0.941058 0.292929
-0.000000 -0.941058 0.338245
0.292928 -0.941058 0.169122
-0.000000 -0.941058 0.338245
-0.169122 -0.941058 0.292929
-0.169122 -0.941058 0.292929
-0.292929 -0.941058 0.169122
0.292928 -0.941058 0.169122
-0.292929 -0.941058 0.169122
-0.338245 -0.941058 0.000000
-0.292929 -0.941058 -0.169122
-0.292929 -0.941058 -0.169122
-0.169122 -0.941058 -0.292928
-0.000000 -0.941059 -0.338243
-0.338246 0.941058 0.000000
-0.292930 0.941058 0.169123
-0.169123 0.941057 0.292931
-0.338246 0.941058 0.000000
-0.169123 0.941057 0.292931
-0.000000 0.941057 0.338247
-0.000000 0.941057 0.338247
0.169123 0.941058 0.292931
-0.338246 0.941058 0.000000
0.169123 0.941058 0.292931
0.292930 0.941058 0.169123
0.338248 0.941057 0.000000
0.338248 0.941057 0.000000
0.292930 0.941058 -0.169123
0.169123 0.941058 -0.292930
</float_array>
          <technique_common>
            <accessor source="#generator_habitat_lever-lib-Normal0-array" count="420" stride="3">
              <param name="X" type="float"/>
              <param name="Y" type="float"/>
              <param name="Z" type="float"/>
            </accessor>
          </technique_common>
        </source>
        <source id="generator_habitat_lever-lib-UV0">
          <float_array id="generator_habitat_lever-lib-UV0-array" count="226">
0.497123 0.278290
0.497124 0.341963
0.520480 0.341962
0.520479 0.278290
0.497124 0.336173
0.520480 0.336173
0.497124 0.330381
0.520480 0.330381
0.497124 0.324598
0.520479 0.324598
0.497123 0.318809
0.520479 0.318809
0.497123 0.313018
0.520479 0.313018
0.497123 0.307235
0.520479 0.307235
0.497123 0.301444
0.520479 0.301444
0.497123 0.295661
0.520479 0.295661
0.497123 0.289870
0.520479 0.289870
0.497123 0.284088
0.520479 0.284088
0.524333 0.341962
0.524333 0.278290
0.524333 0.336173
0.524333 0.330381
0.524333 0.324598
0.524333 0.318809
0.524333 0.313018
0.524333 0.307235
0.524333 0.301444
0.524333 0.295661
0.524333 0.289870
0.524333 0.284088
0.497124 0.347746
0.520480 0.347746
0.524333 0.347746
0.528884 0.277368
0.528884 0.342712
0.528884 0.336765
0.528884 0.330831
0.528884 0.324891
0.528884 0.318951
0.528884 0.313004
0.528884 0.307070
0.528884 0.301131
0.528884 0.295189
0.528884 0.289249
0.528884 0.283309
0.584116 0.277368
0.584116 0.342711
0.584116 0.336765
0.584116 0.330831
0.584116 0.324891
0.584116 0.318950
0.584116 0.313004
0.584116 0.307070
0.584116 0.301131
0.584116 0.295188
0.584116 0.289248
0.584116 0.283308
0.572170 0.248646
0.573684 0.245617
0.575752 0.244512
0.577819 0.245617
0.579333 0.248646
0.579887 0.252780
0.579333 0.256913
0.577819 0.259941
0.575752 0.261047
0.573684 0.259941
0.572170 0.256913
0.571616 0.252780
0.571616 0.252780
0.572170 0.256913
0.573684 0.259941
0.575752 0.261047
0.577819 0.259941
0.579333 0.256913
0.579887 0.252780
0.579333 0.248646
0.577819 0.245617
0.575752 0.244512
0.573684 0.245617
0.572170 0.248646
0.569862 0.259584
0.568952 0.252780
0.569862 0.245975
0.572354 0.240999
0.575752 0.239185
0.579155 0.240999
0.581641 0.245974
0.582552 0.252780
0.581641 0.259584
0.579155 0.264560
0.575752 0.266380
0.572354 0.264561
0.568952 0.252780
0.569862 0.259584
0.572354 0.264561
0.575752 0.266380
0.579155 0.264560
0.581641 0.259584
0.582552 0.252780
0.581641 0.245974
0.579155 0.240999
0.575752 0.239185
0.572354 0.240999
0.569862 0.245975
0.528884 0.348653
0.584116 0.348653
</float_array>
          <technique_common>
            <accessor source="#generator_habitat_lever-lib-UV0-array" count="113" stride="2">
              <param name="S" type="float"/>
              <param name="T" type="float"/>
            </accessor>
          </technique_common>
        </source>
        <source id="generator_habitat_lever-lib-UV1">
          <float_array id="generator_habitat_lever-lib-UV1-array" count="226">
0.497123 0.278290
0.497124 0.341963
0.520480 0.341962
0.520479 0.278290
0.497124 0.336173
0.520480 0.336173
0.497124 0.330381
0.520480 0.330381
0.497124 0.324598
0.520479 0.324598
0.497123 0.318809
0.520479 0.318809
0.497123 0.313018
0.520479 0.313018
0.497123 0.307235
0.520479 0.307235
0.497123 0.301444
0.520479 0.301444
0.497123 0.295661
0.520479 0.295661
0.497123 0.289870
0.520479 0.289870
0.497123 0.284088
0.520479 0.284088
0.524333 0.341962
0.524333 0.278290
0.524333 0.336173
0.524333 0.330381
0.524333 0.324598
0.524333 0.318809
0.524333 0.313018
0.524333 0.307235
0.524333 0.301444
0.524333 0.295661
0.524333 0.289870
0.524333 0.284088
0.497124 0.347746
0.520480 0.347746
0.524333 0.347746
0.528884 0.277368
0.528884 0.342712
0.528884 0.336765
0.528884 0.330831
0.528884 0.324891
0.528884 0.318951
0.528884 0.313004
0.528884 0.307070
0.528884 0.301131
0.528884 0.295189
0.528884 0.289249
0.528884 0.283309
0.584116 0.277368
0.584116 0.342711
0.584116 0.336765
0.584116 0.330831
0.584116 0.324891
0.584116 0.318950
0.584116 0.313004
0.584116 0.307070
0.584116 0.301131
0.584116 0.295188
0.584116 0.289248
0.584116 0.283308
0.572170 0.248646
0.573684 0.245617
0.575752 0.244512
0.577819 0.245617
0.579333 0.248646
0.579887 0.252780
0.579333 0.256913
0.577819 0.259941
0.575752 0.261047
0.573684 0.259941
0.572170 0.256913
0.571616 0.252780
0.571616 0.252780
0.572170 0.256913
0.573684 0.259941
0.575752 0.261047
0.577819 0.259941
0.579333 0.256913
0.579887 0.252780
0.579333 0.248646
0.577819 0.245617
0.575752 0.244512
0.573684 0.245617
0.572170 0.248646
0.569862 0.259584
0.568952 0.252780
0.569862 0.245975
0.572354 0.240999
0.575752 0.239185
0.579155 0.240999
0.581641 0.245974
0.582552 0.252780
0.581641 0.259584
0.579155 0.264560
0.575752 0.266380
0.572354 0.264561
0.568952 0.252780
0.569862 0.259584
0.572354 0.264561
0.575752 0.266380
0.579155 0.264560
0.581641 0.259584
0.582552 0.252780
0.581641 0.245974
0.579155 0.240999
0.575752 0.239185
0.572354 0.240999
0.569862 0.245975
0.528884 0.348653
0.584116 0.348653
</float_array>
          <technique_common>
            <accessor source="#generator_habitat_lever-lib-UV1-array" count="113" stride="2">
              <param name="S" type="float"/>
              <param name="T" type="float"/>
            </accessor>
          </technique_common>
        </source>
        <vertices id="generator_habitat_lever-lib-Vertex">
          <input semantic="POSITION" source="#generator_habitat_lever-lib-Position"/>
        </vertices>
        <polygons material="Material__82" count="140">
          <input semantic="VERTEX" offset="0" source="#generator_habitat_lever-lib-Vertex"/>
          <input semantic="NORMAL" offset="1" source="#generator_habitat_lever-lib-Normal0"/>
          <input semantic="TEXCOORD" offset="2" set="0" source="#generator_habitat_lever-lib-UV0"/>
          <input semantic="TEXCOORD" offset="3" set="1" source="#generator_habitat_lever-lib-UV1"/>
          <p>0 0 36 36 1 1 1 1 24 2 2 2</p>
          <p>24 3 2 2 25 4 37 37 0 5 36 36</p>
          <p>1 6 1 1 2 7 4 4 26 8 5 5</p>
          <p>26 9 5 5 24 10 2 2 1 11 1 1</p>
          <p>2 12 4 4 3 13 6 6 27 14 7 7</p>
          <p>27 15 7 7 26 16 5 5 2 17 4 4</p>
          <p>3 18 6 6 4 19 8 8 28 20 9 9</p>
          <p>28 21 9 9 27 22 7 7 3 23 6 6</p>
          <p>4 24 8 8 5 25 10 10 29 26 11 11</p>
          <p>29 27 11 11 28 28 9 9 4 29 8 8</p>
          <p>5 30 10 10 6 31 12 12 30 32 13 13</p>
          <p>30 33 13 13 29 34 11 11 5 35 10 10</p>
          <p>6 36 12 12 7 37 14 14 31 38 15 15</p>
          <p>31 39 15 15 30 40 13 13 6 41 12 12</p>
          <p>7 42 14 14 8 43 16 16 32 44 17 17</p>
          <p>32 45 17 17 31 46 15 15 7 47 14 14</p>
          <p>8 48 16 16 9 49 18 18 33 50 19 19</p>
          <p>33 51 19 19 32 52 17 17 8 53 16 16</p>
          <p>9 54 18 18 10 55 20 20 34 56 21 21</p>
          <p>34 57 21 21 33 58 19 19 9 59 18 18</p>
          <p>10 60 20 20 11 61 22 22 35 62 23 23</p>
          <p>35 63 23 23 34 64 21 21 10 65 20 20</p>
          <p>11 66 22 22 0 67 0 0 25 68 3 3</p>
          <p>25 69 3 3 35 70 23 23 11 71 22 22</p>
          <p>24 72 2 2 13 73 24 24 12 74 38 38</p>
          <p>12 75 38 38 25 76 37 37 24 77 2 2</p>
          <p>26 78 5 5 14 79 26 26 13 80 24 24</p>
          <p>13 81 24 24 24 82 2 2 26 83 5 5</p>
          <p>27 84 7 7 15 85 27 27 14 86 26 26</p>
          <p>14 87 26 26 26 88 5 5 27 89 7 7</p>
          <p>28 90 9 9 16 91 28 28 15 92 27 27</p>
          <p>15 93 27 27 27 94 7 7 28 95 9 9</p>
          <p>29 96 11 11 17 97 29 29 16 98 28 28</p>
          <p>16 99 28 28 28 100 9 9 29 101 11 11</p>
          <p>30 102 13 13 18 103 30 30 17 104 29 29</p>
          <p>17 105 29 29 29 106 11 11 30 107 13 13</p>
          <p>31 108 15 15 19 109 31 31 18 110 30 30</p>
          <p>18 111 30 30 30 112 13 13 31 113 15 15</p>
          <p>32 114 17 17 20 115 32 32 19 116 31 31</p>
          <p>19 117 31 31 31 118 15 15 32 119 17 17</p>
          <p>33 120 19 19 21 121 33 33 20 122 32 32</p>
          <p>20 123 32 32 32 124 17 17 33 125 19 19</p>
          <p>34 126 21 21 22 127 34 34 21 128 33 33</p>
          <p>21 129 33 33 33 130 19 19 34 131 21 21</p>
          <p>35 132 23 23 23 133 35 35 22 134 34 34</p>
          <p>22 135 34 34 34 136 21 21 35 137 23 23</p>
          <p>25 138 3 3 12 139 25 25 23 140 35 35</p>
          <p>23 141 35 35 35 142 23 23 25 143 3 3</p>
          <p>36 144 111 111 37 145 40 40 49 146 52 52</p>
          <p>49 147 52 52 48 148 112 112 36 149 111 111</p>
          <p>37 150 40 40 38 151 41 41 50 152 53 53</p>
          <p>50 153 53 53 49 154 52 52 37 155 40 40</p>
          <p>38 156 41 41 39 157 42 42 51 158 54 54</p>
          <p>51 159 54 54 50 160 53 53 38 161 41 41</p>
          <p>39 162 42 42 40 163 43 43 52 164 55 55</p>
          <p>52 165 55 55 51 166 54 54 39 167 42 42</p>
          <p>40 168 43 43 41 169 44 44 53 170 56 56</p>
          <p>53 171 56 56 52 172 55 55 40 173 43 43</p>
          <p>41 174 44 44 42 175 45 45 54 176 57 57</p>
          <p>54 177 57 57 53 178 56 56 41 179 44 44</p>
          <p>42 180 45 45 43 181 46 46 55 182 58 58</p>
          <p>55 183 58 58 54 184 57 57 42 185 45 45</p>
          <p>43 186 46 46 44 187 47 47 56 188 59 59</p>
          <p>56 189 59 59 55 190 58 58 43 191 46 46</p>
          <p>44 192 47 47 45 193 48 48 57 194 60 60</p>
          <p>57 195 60 60 56 196 59 59 44 197 47 47</p>
          <p>45 198 48 48 46 199 49 49 58 200 61 61</p>
          <p>58 201 61 61 57 202 60 60 45 203 48 48</p>
          <p>46 204 49 49 47 205 50 50 59 206 62 62</p>
          <p>59 207 62 62 58 208 61 61 46 209 49 49</p>
          <p>47 210 50 50 36 211 39 39 48 212 51 51</p>
          <p>48 213 51 51 59 214 62 62 47 215 50 50</p>
          <p>62 216 63 63 63 217 64 64 65 218 66 66</p>
          <p>65 219 66 66 61 220 74 74 62 221 63 63</p>
          <p>72 222 75 75 73 223 76 76 75 224 78 78</p>
          <p>75 225 78 78 83 226 86 86 72 227 75 75</p>
          <p>37 228 87 87 36 229 88 88 61 230 74 74</p>
          <p>61 231 74 74 60 232 73 73 37 233 87 87</p>
          <p>36 234 88 88 47 235 89 89 62 236 63 63</p>
          <p>62 237 63 63 61 238 74 74 36 239 88 88</p>
          <p>47 240 89 89 46 241 90 90 63 242 64 64</p>
          <p>63 243 64 64 62 244 63 63 47 245 89 89</p>
          <p>46 246 90 90 45 247 91 91 64 248 65 65</p>
          <p>64 249 65 65 63 250 64 64 46 251 90 90</p>
          <p>45 252 91 91 44 253 92 92 65 254 66 66</p>
          <p>65 255 66 66 64 256 65 65 45 257 91 91</p>
          <p>44 258 92 92 43 259 93 93 66 260 67 67</p>
          <p>66 261 67 67 65 262 66 66 44 263 92 92</p>
          <p>43 264 93 93 42 265 94 94 67 266 68 68</p>
          <p>67 267 68 68 66 268 67 67 43 269 93 93</p>
          <p>42 270 94 94 41 271 95 95 68 272 69 69</p>
          <p>68 273 69 69 67 274 68 68 42 275 94 94</p>
          <p>41 276 95 95 40 277 96 96 69 278 70 70</p>
          <p>69 279 70 70 68 280 69 69 41 281 95 95</p>
          <p>40 282 96 96 39 283 97 97 70 284 71 71</p>
          <p>70 285 71 71 69 286 70 70 40 287 96 96</p>
          <p>39 288 97 97 38 289 98 98 71 290 72 72</p>
          <p>71 291 72 72 70 292 71 71 39 293 97 97</p>
          <p>38 294 98 98 37 295 87 87 60 296 73 73</p>
          <p>60 297 73 73 71 298 72 72 38 299 98 98</p>
          <p>48 300 99 99 49 301 100 100 73 302 76 76</p>
          <p>73 303 76 76 72 304 75 75 48 305 99 99</p>
          <p>49 306 100 100 50 307 101 101 74 308 77 77</p>
          <p>74 309 77 77 73 310 76 76 49 311 100 100</p>
          <p>50 312 101 101 51 313 102 102 75 314 78 78</p>
          <p>75 315 78 78 74 316 77 77 50 317 101 101</p>
          <p>51 318 102 102 52 319 103 103 76 320 79 79</p>
          <p>76 321 79 79 75 322 78 78 51 323 102 102</p>
          <p>52 324 103 103 53 325 104 104 77 326 80 80</p>
          <p>77 327 80 80 76 328 79 79 52 329 103 103</p>
          <p>53 330 104 104 54 331 105 105 78 332 81 81</p>
          <p>78 333 81 81 77 334 80 80 53 335 104 104</p>
          <p>54 336 105 105 55 337 106 106 79 338 82 82</p>
          <p>79 339 82 82 78 340 81 81 54 341 105 105</p>
          <p>55 342 106 106 56 343 107 107 80 344 83 83</p>
          <p>80 345 83 83 79 346 82 82 55 347 106 106</p>
          <p>56 348 107 107 57 349 108 108 81 350 84 84</p>
          <p>81 351 84 84 80 352 83 83 56 353 107 107</p>
          <p>57 354 108 108 58 355 109 109 82 356 85 85</p>
          <p>82 357 85 85 81 358 84 84 57 359 108 108</p>
          <p>58 360 109 109 59 361 110 110 83 362 86 86</p>
          <p>83 363 86 86 82 364 85 85 58 365 109 109</p>
          <p>59 366 110 110 48 367 99 99 72 368 75 75</p>
          <p>72 369 75 75 83 370 86 86 59 371 110 110</p>
          <p>63 372 64 64 64 373 65 65 65 374 66 66</p>
          <p>65 375 66 66 69 376 70 70 71 377 72 72</p>
          <p>71 378 72 72 61 379 74 74 65 380 66 66</p>
          <p>73 381 76 76 74 382 77 77 75 383 78 78</p>
          <p>75 384 78 78 79 385 82 82 81 386 84 84</p>
          <p>81 387 84 84 83 388 86 86 75 389 78 78</p>
          <p>65 390 66 66 66 391 67 67 67 392 68 68</p>
          <p>65 393 66 66 67 394 68 68 68 395 69 69</p>
          <p>68 396 69 69 69 397 70 70 65 398 66 66</p>
          <p>69 399 70 70 70 400 71 71 71 401 72 72</p>
          <p>71 402 72 72 60 403 73 73 61 404 74 74</p>
          <p>75 405 78 78 76 406 79 79 77 407 80 80</p>
          <p>75 408 78 78 77 409 80 80 78 410 81 81</p>
          <p>78 411 81 81 79 412 82 82 75 413 78 78</p>
          <p>79 414 82 82 80 415 83 83 81 416 84 84</p>
          <p>81 417 84 84 82 418 85 85 83 419 86 86</p>
        </polygons>
      </mesh>
    </geometry>
  </library_geometries>
  <library_visual_scenes>
    <visual_scene id="RootNode" name="RootNode">
      <node id="generator_habitat_lever" name="generator_habitat_lever">
        <instance_geometry url="#generator_habitat_lever-lib">
          <bind_material>
            <technique_common>
              <instance_material symbol="Material__82" target="#Material__82"/>
            </technique_common>
          </bind_material>
        </instance_geometry>
      </node>
    </visual_scene>
  </library_visual_scenes>
  <scene>
    <instance_visual_scene url="#RootNode"/>
  </scene>
</COLLADA>

