<?xml version="1.0" encoding="utf-8"?>
<COLLADA xmlns="http://www.collada.org/2005/11/COLLADASchema" version="1.4.0">
  <asset>
    <contributor>
      <author></author>
      <authoring_tool>FBX COLLADA exporter</authoring_tool>
      <comments></comments>
    </contributor>
    <created>2012-11-07T10:03:38Z</created>
    <modified>2012-11-07T10:03:38Z</modified>
    <revision></revision>
    <title></title>
    <subject></subject>
    <keywords></keywords>
    <unit meter="0.010000"/>
    <up_axis>Z_UP</up_axis>
  </asset>
  <library_images>
    <image id="Map__5-image" name="Map__5">
      <init_from>file://D:\Work\artbully\frictional\Project_Depth_Tools\tools\entities\Machine\generator_habitat\Generator_Habitat.dds</init_from>
    </image>
    <image id="Map__6-image" name="Map__6">
      <init_from>file://D:\Work\artbully\frictional\Project_Depth_Tools\tools\entities\Machine\generator_habitat\generator_habitat_illum.dds</init_from>
    </image>
    <image id="Map__7-image" name="Map__7">
      <init_from>file://D:\Work\artbully\frictional\Project_Depth_Tools\tools\entities\Machine\generator_habitat\generator_habitat_spec.dds</init_from>
    </image>
  </library_images>
  <library_materials>
    <material id="Material__82" name="Material__82">
      <instance_effect url="#Material__82-fx"/>
    </material>
  </library_materials>
  <library_effects>
    <effect id="Material__82-fx" name="Material__82">
      <profile_COMMON>
        <technique sid="standard">
          <phong>
            <emission>
              <texture texture="Map__6-image" texcoord="CHANNEL0">
                <extra>
                  <technique profile="MAYA">
                    <wrapU sid="wrapU0">TRUE</wrapU>
                    <wrapV sid="wrapV0">TRUE</wrapV>
                    <blend_mode>ADD</blend_mode>
                  </technique>
                </extra>
              </texture>
            </emission>
            <ambient>
              <color sid="ambient">0.588000  0.588000 0.588000 1.000000</color>
            </ambient>
            <diffuse>
              <texture texture="Map__5-image" texcoord="CHANNEL0">
                <extra>
                  <technique profile="MAYA">
                    <wrapU sid="wrapU0">TRUE</wrapU>
                    <wrapV sid="wrapV0">TRUE</wrapV>
                    <blend_mode>ADD</blend_mode>
                  </technique>
                </extra>
              </texture>
            </diffuse>
            <specular>
              <texture texture="Map__7-image" texcoord="CHANNEL0">
                <extra>
                  <technique profile="MAYA">
                    <wrapU sid="wrapU0">TRUE</wrapU>
                    <wrapV sid="wrapV0">TRUE</wrapV>
                    <blend_mode>ADD</blend_mode>
                  </technique>
                </extra>
              </texture>
            </specular>
            <shininess>
              <float sid="shininess">2.000000</float>
            </shininess>
            <reflective>
              <color sid="reflective">0.000000  0.000000 0.000000 1.000000</color>
            </reflective>
            <reflectivity>
              <float sid="reflectivity">1.000000</float>
            </reflectivity>
            <transparent>
              <color sid="transparent">1.000000  1.000000 1.000000 1.000000</color>
            </transparent>
            <transparency>
              <float sid="transparency">0.000000</float>
            </transparency>
          </phong>
        </technique>
      </profile_COMMON>
    </effect>
  </library_effects>
  <library_geometries>
    <geometry id="generator_habitat_fan-lib" name="generator_habitat_fanMesh">
      <mesh>
        <source id="generator_habitat_fan-lib-Position">
          <float_array id="generator_habitat_fan-lib-Position-array" count="723">
13.611558 213.439423 108.141495
10.891957 213.439423 101.575790
5.253862 213.439423 97.249512
-1.792001 213.439423 96.321930
-8.357699 213.439423 99.041519
-12.683965 213.439423 104.679611
-13.611573 213.439423 111.725479
-10.891973 213.439423 118.291183
-5.253879 213.439423 122.617447
1.791985 213.439423 123.545044
8.357685 213.439423 120.825455
12.683950 213.439423 115.187363
13.611558 195.064194 108.141495
10.891957 195.064194 101.575790
5.253862 195.064194 97.249512
-1.792001 195.064194 96.321930
-8.357699 195.064194 99.041519
-12.683965 195.064194 104.679611
-13.611573 195.064194 111.725479
-10.891973 195.064194 118.291183
-5.253879 195.064194 122.617447
1.791985 195.064194 123.545044
8.357685 195.064194 120.825455
12.683950 195.064194 115.187363
12.676335 213.439423 104.682770
8.352672 213.439423 99.048065
1.790915 213.439423 96.330093
-5.250716 213.439423 97.257156
-10.885425 213.439423 101.580811
-13.603395 213.439423 108.142563
-12.676351 213.439423 115.184204
-8.352688 213.439423 120.818909
-1.790932 213.439423 123.536865
5.250700 213.439423 122.609833
10.885410 213.439423 118.286163
13.603380 213.439423 111.724411
12.676335 195.064194 104.682770
8.352672 195.064194 99.048065
1.790915 195.064194 96.330093
-5.250716 195.064194 97.257156
-10.885425 195.064194 101.580811
-13.603395 195.064194 108.142563
-12.676351 195.064194 115.184204
-8.352688 195.064194 120.818909
-1.790932 195.064194 123.536865
5.250700 195.064194 122.609833
10.885410 195.064194 118.286163
13.603380 195.064194 111.724411
-0.000008 213.439407 109.933487
9.321743 206.828964 119.784348
-9.020316 210.969482 119.784348
9.932716 206.665375 156.347290
-8.841336 211.573837 156.347290
16.128414 205.005249 148.442062
-12.165735 212.500534 154.357285
4.984464 207.991257 157.390823
16.120514 204.366531 151.787552
-15.834434 212.795410 148.442062
-4.133274 209.660095 158.020813
9.110069 203.531387 119.784363
-9.695834 208.448425 119.784363
10.496504 203.160019 156.347305
-11.082264 208.820007 156.347275
15.924193 201.705688 148.442062
-14.573997 209.654617 154.002487
4.223032 204.840988 158.020844
15.414340 201.743393 151.800186
-16.509951 210.274353 148.442062
-4.808793 207.139038 158.020828
9.785588 206.052444 119.784348
-8.230358 211.410034 119.784348
11.172019 205.681076 156.347305
-10.406749 211.341064 156.347290
16.599712 204.226746 148.442062
-15.349541 212.676880 151.787506
4.898549 207.362045 158.020828
13.275056 205.805710 154.357330
-15.037023 213.233978 148.442062
-3.893075 210.247955 157.390808
13.419686 205.783524 134.033142
-12.302052 212.553604 134.033142
13.200024 202.299103 134.033142
-13.854025 209.426193 134.033142
13.913600 204.962189 134.033142
-13.140450 212.089279 134.033142
-14.419129 213.106277 151.768845
14.491742 204.802979 154.110611
-16.049545 210.052109 151.800156
13.937732 202.136932 154.002518
-13.720769 212.240463 154.110565
15.529449 205.203583 151.768906
15.081924 205.332397 141.237610
14.865442 201.867783 141.237610
15.574864 204.515350 141.237610
-13.967154 212.994034 141.237610
-15.511990 209.885361 141.237595
-14.802572 212.532928 141.237610
9.850876 206.828964 100.611740
9.850876 210.969482 118.953796
46.413815 206.665359 100.000763
46.413815 211.573822 118.774811
38.508598 205.005234 93.805054
44.423805 212.500519 122.099213
47.457348 207.991241 104.949005
41.854073 204.366516 93.812958
38.508591 212.795395 125.767914
48.087345 209.660080 114.066742
9.850891 203.531387 100.823410
9.850883 208.448425 119.629303
46.413834 203.160004 99.436966
46.413811 208.819992 121.015732
38.508598 201.705673 94.009277
44.069008 209.654602 124.507477
48.087368 204.840973 105.710449
41.866711 201.743378 94.519135
38.508583 210.274338 126.443420
48.087353 207.139023 114.742264
9.850883 206.052444 100.147888
9.850876 211.410034 118.163834
46.413830 205.681061 98.761459
46.413815 211.341049 120.340225
38.508598 204.226730 93.333755
41.854031 212.676865 125.283020
48.087349 207.362030 105.034927
44.423855 205.805695 96.658417
38.508591 213.233963 124.970490
47.457340 210.247940 113.826553
24.099678 205.783508 96.513794
24.099663 212.553589 122.235519
24.099678 202.299088 96.733459
24.099663 209.426178 123.787506
24.099670 204.962173 96.019882
24.099663 212.089264 123.073929
41.835377 213.106262 124.352600
44.177139 204.802963 95.441727
41.866676 210.052094 125.983017
44.069042 202.136917 95.995743
44.177097 212.240448 123.654236
41.835423 205.203568 94.404022
31.304138 205.332382 94.851547
31.304138 201.867767 95.068039
31.304138 204.515335 94.358612
31.304131 212.994019 123.900635
31.304123 209.885345 125.445465
31.304131 212.532913 124.736053
-9.321754 206.828964 100.082596
9.020304 210.969482 100.082596
-9.932732 206.665375 63.519665
8.841321 211.573837 63.519661
-16.128428 205.005249 71.424881
12.165719 212.500534 65.509674
-4.984480 207.991257 62.476131
-16.120527 204.366531 68.079407
15.834417 212.795410 71.424881
4.133258 209.660095 61.846130
-9.110081 203.531387 100.082596
9.695822 208.448425 100.082596
-10.496518 203.160019 63.519646
11.082249 208.820007 63.519665
-15.924208 201.705688 71.424881
14.573982 209.654617 65.864471
-4.223047 204.840988 61.846111
-15.414354 201.743393 68.066772
16.509937 210.274353 71.424896
4.808777 207.139038 61.846123
-9.785600 206.052444 100.082596
8.230346 211.410034 100.082596
-11.172034 205.681076 63.519650
10.406734 211.341064 63.519661
-16.599726 204.226746 71.424881
15.349524 212.676880 68.079445
-4.898564 207.362045 61.846130
-13.275071 205.805710 65.509628
15.037006 213.233978 71.424881
3.893058 210.247955 62.476135
-13.419700 205.783524 85.833801
12.302037 212.553604 85.833817
-13.200036 202.299103 85.833801
13.854012 209.426193 85.833817
-13.913613 204.962189 85.833817
13.140436 212.089279 85.833817
14.419113 213.106277 68.098099
-14.491756 204.802979 65.756340
16.049532 210.052109 68.066803
-13.937746 202.136932 65.864441
13.720753 212.240463 65.756378
-15.529463 205.203583 68.098053
-15.081938 205.332397 78.629349
-14.865456 201.867783 78.629349
-15.574878 204.515350 78.629349
13.967138 212.994034 78.629349
15.511975 209.885361 78.629349
14.802557 212.532928 78.629349
-9.850891 206.828964 119.255219
-9.850891 210.969482 100.913162
-46.413826 206.665359 119.866196
-46.413826 211.573822 101.092148
-38.508606 205.005234 126.061890
-44.423817 212.500519 97.767746
-47.457359 207.991241 114.917938
-41.854084 204.366516 126.054001
-38.508606 212.795395 94.099045
-48.087357 209.660080 105.800201
-9.850899 203.531387 119.043549
-9.850899 208.448425 100.237640
-46.413845 203.160004 120.429977
-46.413822 208.819992 98.851212
-38.508606 201.705673 125.857666
-44.069019 209.654602 95.359482
-48.087379 204.840973 114.156509
-41.866722 201.743378 125.347824
-38.508598 210.274338 93.423523
-48.087364 207.139023 105.124680
-9.850891 206.052444 119.719070
-9.850891 211.410034 101.703125
-46.413841 205.681061 121.105499
-46.413826 211.341049 99.526733
-38.508606 204.226730 126.533188
-41.854042 212.676865 94.583939
-48.087360 207.362030 114.832031
-44.423866 205.805695 123.208542
-38.508606 213.233963 94.896454
-47.457352 210.247940 106.040405
-24.099686 205.783508 123.353165
-24.099678 212.553589 97.631424
-24.099686 202.299088 123.133499
-24.099678 209.426178 96.079453
-24.099678 204.962173 123.847076
-24.099678 212.089264 96.793030
-41.835388 213.106262 95.514343
-44.177151 204.802963 124.425217
-41.866688 210.052094 93.883942
-44.069054 202.136917 123.871216
-44.177109 212.240448 96.212708
-41.835434 205.203568 125.462921
-31.304146 205.332382 125.015396
-31.304146 201.867767 124.798920
-31.304146 204.515335 125.508347
-31.304146 212.994019 95.966324
-31.304138 209.885345 94.421494
-31.304146 212.532913 95.130905
</float_array>
          <technique_common>
            <accessor source="#generator_habitat_fan-lib-Position-array" count="241" stride="3">
              <param name="X" type="float"/>
              <param name="Y" type="float"/>
              <param name="Z" type="float"/>
            </accessor>
          </technique_common>
        </source>
        <source id="generator_habitat_fan-lib-Normal0">
          <float_array id="generator_habitat_fan-lib-Normal0-array" count="3312">
0.793353 0.000000 -0.608762
0.923880 0.000000 -0.382683
0.923880 0.000000 -0.382683
0.923880 0.000000 -0.382683
0.793353 0.000000 -0.608762
0.793353 0.000000 -0.608762
0.991445 0.000000 -0.130525
0.991445 0.000000 -0.130525
0.923880 0.000000 -0.382683
0.923880 0.000000 -0.382683
0.923880 0.000000 -0.382683
0.991445 0.000000 -0.130525
0.382684 -0.000000 -0.923879
0.608763 0.000000 -0.793352
0.608763 0.000000 -0.793352
0.608763 0.000000 -0.793352
0.382684 -0.000000 -0.923879
0.382684 -0.000000 -0.923879
0.793353 0.000000 -0.608762
0.793353 0.000000 -0.608762
0.608763 0.000000 -0.793352
0.608763 0.000000 -0.793352
0.608763 0.000000 -0.793352
0.793353 0.000000 -0.608762
-0.130528 -0.000000 -0.991445
0.130523 -0.000000 -0.991445
0.130523 -0.000000 -0.991445
0.130523 -0.000000 -0.991445
-0.130528 -0.000000 -0.991445
-0.130528 -0.000000 -0.991445
0.382684 -0.000000 -0.923879
0.382684 -0.000000 -0.923879
0.130523 -0.000000 -0.991445
0.130523 -0.000000 -0.991445
0.130523 -0.000000 -0.991445
0.382684 -0.000000 -0.923879
-0.608760 0.000000 -0.793354
-0.382682 0.000000 -0.923880
-0.382682 0.000000 -0.923880
-0.382682 0.000000 -0.923880
-0.608760 0.000000 -0.793354
-0.608760 0.000000 -0.793354
-0.130528 -0.000000 -0.991445
-0.130528 -0.000000 -0.991445
-0.382682 0.000000 -0.923880
-0.382682 0.000000 -0.923880
-0.382682 0.000000 -0.923880
-0.130528 -0.000000 -0.991445
-0.923879 0.000000 -0.382684
-0.793353 0.000000 -0.608762
-0.793353 0.000000 -0.608762
-0.793353 0.000000 -0.608762
-0.923879 0.000000 -0.382684
-0.923879 0.000000 -0.382684
-0.608760 0.000000 -0.793354
-0.608760 0.000000 -0.793354
-0.793353 0.000000 -0.608762
-0.793353 0.000000 -0.608762
-0.793353 0.000000 -0.608762
-0.608760 0.000000 -0.793354
-0.991445 0.000000 0.130525
-0.991445 0.000000 -0.130526
-0.991445 0.000000 -0.130526
-0.991445 0.000000 -0.130526
-0.991445 0.000000 0.130525
-0.991445 0.000000 0.130525
-0.923879 0.000000 -0.382684
-0.923879 0.000000 -0.382684
-0.991445 0.000000 -0.130526
-0.991445 0.000000 -0.130526
-0.991445 0.000000 -0.130526
-0.923879 0.000000 -0.382684
-0.793353 0.000000 0.608761
-0.923880 0.000000 0.382683
-0.923880 0.000000 0.382683
-0.923880 0.000000 0.382683
-0.793353 0.000000 0.608761
-0.793353 0.000000 0.608761
-0.991445 0.000000 0.130525
-0.991445 0.000000 0.130525
-0.923880 0.000000 0.382683
-0.923880 0.000000 0.382683
-0.923880 0.000000 0.382683
-0.991445 0.000000 0.130525
-0.382682 0.000000 0.923880
-0.608761 0.000000 0.793353
-0.608761 0.000000 0.793353
-0.608761 0.000000 0.793353
-0.382682 0.000000 0.923880
-0.382682 0.000000 0.923880
-0.793353 0.000000 0.608761
-0.793353 0.000000 0.608761
-0.608761 0.000000 0.793353
-0.608761 0.000000 0.793353
-0.608761 0.000000 0.793353
-0.793353 0.000000 0.608761
0.130524 0.000000 0.991445
-0.130525 0.000000 0.991445
-0.130525 0.000000 0.991445
-0.130525 0.000000 0.991445
0.130524 0.000000 0.991445
0.130524 0.000000 0.991445
-0.382682 0.000000 0.923880
-0.382682 0.000000 0.923880
-0.130525 0.000000 0.991445
-0.130525 0.000000 0.991445
-0.130525 0.000000 0.991445
-0.382682 0.000000 0.923880
0.608762 0.000000 0.793353
0.382682 0.000000 0.923880
0.382682 0.000000 0.923880
0.382682 0.000000 0.923880
0.608762 0.000000 0.793353
0.608762 0.000000 0.793353
0.130524 0.000000 0.991445
0.130524 0.000000 0.991445
0.382682 0.000000 0.923880
0.382682 0.000000 0.923880
0.382682 0.000000 0.923880
0.130524 0.000000 0.991445
0.923879 0.000000 0.382684
0.793353 0.000000 0.608762
0.793353 0.000000 0.608762
0.793353 0.000000 0.608762
0.923879 0.000000 0.382684
0.923879 0.000000 0.382684
0.608762 0.000000 0.793353
0.608762 0.000000 0.793353
0.793353 0.000000 0.608762
0.793353 0.000000 0.608762
0.793353 0.000000 0.608762
0.608762 0.000000 0.793353
0.991445 0.000000 -0.130525
0.991445 0.000000 0.130526
0.991445 0.000000 0.130526
0.991445 0.000000 0.130526
0.991445 0.000000 -0.130525
0.991445 0.000000 -0.130525
0.923879 0.000000 0.382684
0.923879 0.000000 0.382684
0.991445 0.000000 0.130526
0.991445 0.000000 0.130526
0.991445 0.000000 0.130526
0.923879 0.000000 0.382684
-0.000001 1.000000 0.000000
-0.000001 1.000000 0.000001
-0.000000 1.000000 -0.000000
-0.000001 1.000000 0.000000
-0.000001 1.000000 0.000000
-0.000000 1.000000 -0.000000
-0.000001 1.000000 0.000001
-0.000000 1.000000 0.000001
-0.000000 1.000000 -0.000000
-0.000001 1.000000 0.000001
-0.000001 1.000000 0.000001
-0.000000 1.000000 -0.000000
-0.000000 1.000000 0.000001
0.000000 1.000000 0.000001
-0.000000 1.000000 -0.000000
-0.000000 1.000000 0.000001
-0.000000 1.000000 0.000001
-0.000000 1.000000 -0.000000
0.000000 1.000000 0.000001
0.000001 1.000000 0.000001
-0.000000 1.000000 -0.000000
0.000000 1.000000 0.000001
0.000000 1.000000 0.000001
-0.000000 1.000000 -0.000000
0.000001 1.000000 0.000001
0.000001 1.000000 0.000000
-0.000000 1.000000 -0.000000
0.000001 1.000000 0.000001
0.000001 1.000000 0.000001
-0.000000 1.000000 -0.000000
0.000001 1.000000 0.000000
0.000001 1.000000 -0.000000
-0.000000 1.000000 -0.000000
0.000001 1.000000 0.000000
0.000001 1.000000 0.000000
-0.000000 1.000000 -0.000000
0.000001 1.000000 -0.000000
0.000001 1.000000 -0.000001
-0.000000 1.000000 -0.000000
0.000001 1.000000 -0.000000
0.000001 1.000000 -0.000000
-0.000000 1.000000 -0.000000
0.000001 1.000000 -0.000001
0.000000 1.000000 -0.000001
-0.000000 1.000000 -0.000000
0.000001 1.000000 -0.000001
0.000001 1.000000 -0.000001
-0.000000 1.000000 -0.000000
0.000000 1.000000 -0.000001
-0.000000 1.000000 -0.000001
-0.000000 1.000000 -0.000000
0.000000 1.000000 -0.000001
0.000000 1.000000 -0.000001
-0.000000 1.000000 -0.000000
-0.000000 1.000000 -0.000001
-0.000001 1.000000 -0.000001
-0.000000 1.000000 -0.000000
-0.000000 1.000000 -0.000001
-0.000000 1.000000 -0.000001
-0.000000 1.000000 -0.000000
-0.000001 1.000000 -0.000001
-0.000001 1.000000 -0.000000
-0.000000 1.000000 -0.000000
-0.000001 1.000000 -0.000001
-0.000001 1.000000 -0.000001
-0.000000 1.000000 -0.000000
-0.000001 1.000000 -0.000000
-0.000001 1.000000 0.000000
-0.000000 1.000000 -0.000000
-0.000001 1.000000 -0.000000
-0.000001 1.000000 -0.000000
-0.000000 1.000000 -0.000000
0.351865 0.819189 0.452902
0.459056 0.825113 0.329326
0.010891 0.944268 0.328998
0.010891 0.944268 0.328998
0.099536 0.886142 0.452598
0.351865 0.819189 0.452902
0.620427 0.784263 0.001200
0.603621 0.793981 -0.072356
-0.129585 0.988933 -0.072241
-0.129585 0.988933 -0.072241
-0.148506 0.988911 0.001198
0.620427 0.784263 0.001200
0.724407 0.224534 0.651782
0.481186 0.246219 0.841330
0.390451 -0.105205 0.914593
0.390451 -0.105205 0.914593
0.677557 -0.175143 0.714311
0.724407 0.224534 0.651782
0.481186 0.246219 0.841330
0.199439 0.303390 0.931761
0.120988 -0.032414 0.992125
0.120988 -0.032414 0.992125
0.390451 -0.105205 0.914593
0.481186 0.246219 0.841330
-0.293614 0.453821 0.841330
-0.515092 0.556651 0.651782
-0.674354 0.187103 0.714311
-0.674354 0.187103 0.714311
-0.390745 0.104115 0.914592
-0.293614 0.453821 0.841330
-0.026111 0.360855 0.932256
-0.293614 0.453821 0.841330
-0.390745 0.104115 0.914592
-0.390745 0.104115 0.914592
-0.121966 0.032684 0.991996
-0.026111 0.360855 0.932256
0.199439 0.303390 0.931761
-0.026111 0.360855 0.932256
-0.121966 0.032684 0.991996
-0.121966 0.032684 0.991996
0.120988 -0.032414 0.992125
0.199439 0.303390 0.931761
0.990785 0.135430 0.002032
0.926734 0.168243 0.335943
0.896551 -0.233579 0.376347
0.896551 -0.233579 0.376347
0.965893 -0.258939 0.001337
0.990785 0.135430 0.002032
0.950948 0.162910 -0.262979
0.961369 0.136469 -0.239053
0.932787 -0.249942 -0.259687
0.932787 -0.249942 -0.259687
0.925280 -0.247930 -0.287033
0.950948 0.162910 -0.262979
-0.790332 0.612676 0.002031
-0.776697 0.605632 -0.173065
-0.948395 0.254123 -0.189652
-0.948395 0.254123 -0.189652
-0.965956 0.258701 0.001337
-0.790332 0.612676 0.002031
-0.718456 0.609067 0.335943
-0.790332 0.612676 0.002031
-0.965956 0.258701 0.001337
-0.965956 0.258701 0.001337
-0.893225 0.245993 0.376347
-0.718456 0.609067 0.335943
0.572549 0.801645 0.171911
0.620427 0.784263 0.001200
-0.148506 0.988911 0.001198
-0.148506 0.988911 0.001198
-0.098280 0.980235 0.171701
0.572549 0.801645 0.171911
0.099536 0.886142 0.452598
0.176383 0.885439 0.429985
0.277040 0.859612 0.429321
0.277040 0.859612 0.429321
0.351865 0.819189 0.452902
0.099536 0.886142 0.452598
0.351865 0.819189 0.452902
0.481186 0.246219 0.841330
0.724407 0.224534 0.651782
0.724407 0.224534 0.651782
0.459056 0.825113 0.329326
0.351865 0.819189 0.452902
0.277040 0.859612 0.429321
0.199439 0.303390 0.931761
0.481186 0.246219 0.841330
0.481186 0.246219 0.841330
0.351865 0.819189 0.452902
0.277040 0.859612 0.429321
0.010891 0.944268 0.328998
-0.515092 0.556651 0.651782
-0.293614 0.453821 0.841330
-0.293614 0.453821 0.841330
0.099536 0.886142 0.452598
0.010891 0.944268 0.328998
0.099536 0.886142 0.452598
-0.293614 0.453821 0.841330
-0.026111 0.360855 0.932256
-0.026111 0.360855 0.932256
0.176383 0.885439 0.429985
0.099536 0.886142 0.452598
0.176383 0.885439 0.429985
-0.026111 0.360855 0.932256
0.199439 0.303390 0.931761
0.199439 0.303390 0.931761
0.277040 0.859612 0.429321
0.176383 0.885439 0.429985
0.572549 0.801645 0.171911
0.926734 0.168243 0.335943
0.990785 0.135430 0.002032
0.990785 0.135430 0.002032
0.620427 0.784263 0.001200
0.572549 0.801645 0.171911
0.620427 0.784263 0.001200
0.990785 0.135430 0.002032
0.975456 0.136141 -0.173064
0.975456 0.136141 -0.173064
0.603621 0.793981 -0.072356
0.620427 0.784263 0.001200
-0.059747 0.993597 -0.095887
-0.742086 0.616563 -0.262980
-0.764332 0.598874 -0.239054
-0.764332 0.598874 -0.239054
-0.125641 0.986740 -0.102755
-0.059747 0.993597 -0.095887
-0.148506 0.988911 0.001198
-0.790332 0.612676 0.002031
-0.718456 0.609067 0.335943
-0.718456 0.609067 0.335943
-0.098280 0.980235 0.171701
-0.148506 0.988911 0.001198
0.598528 0.794460 -0.102947
0.543318 0.834010 -0.096084
-0.059747 0.993597 -0.095887
-0.059747 0.993597 -0.095887
-0.125641 0.986740 -0.102755
0.598528 0.794460 -0.102947
0.961369 0.136469 -0.239053
0.975456 0.136141 -0.173064
0.948395 -0.254124 -0.189651
0.948395 -0.254124 -0.189651
0.932787 -0.249942 -0.259687
0.961369 0.136469 -0.239053
-0.764332 0.598874 -0.239054
-0.742086 0.616563 -0.262980
-0.925280 0.247928 -0.287035
-0.925280 0.247928 -0.287035
-0.932787 0.249940 -0.259689
-0.764332 0.598874 -0.239054
0.961369 0.136469 -0.239053
0.950948 0.162910 -0.262979
0.543318 0.834010 -0.096084
0.543318 0.834010 -0.096084
0.598528 0.794460 -0.102947
0.961369 0.136469 -0.239053
-0.764332 0.598874 -0.239054
-0.776697 0.605632 -0.173065
-0.129585 0.988933 -0.072241
-0.129585 0.988933 -0.072241
-0.125641 0.986740 -0.102755
-0.764332 0.598874 -0.239054
0.677557 -0.175143 0.714311
0.896551 -0.233579 0.376347
0.926734 0.168243 0.335943
0.926734 0.168243 0.335943
0.724407 0.224534 0.651782
0.677557 -0.175143 0.714311
-0.515092 0.556651 0.651782
-0.718456 0.609067 0.335943
-0.893225 0.245993 0.376347
-0.893225 0.245993 0.376347
-0.674354 0.187103 0.714311
-0.515092 0.556651 0.651782
0.459056 0.825113 0.329326
0.572549 0.801645 0.171911
-0.098280 0.980235 0.171701
-0.098280 0.980235 0.171701
0.010891 0.944268 0.328998
0.459056 0.825113 0.329326
-0.718456 0.609067 0.335943
-0.515092 0.556651 0.651782
0.010891 0.944268 0.328998
0.010891 0.944268 0.328998
-0.098280 0.980235 0.171701
-0.718456 0.609067 0.335943
0.572549 0.801645 0.171911
0.459056 0.825113 0.329326
0.724407 0.224534 0.651782
0.724407 0.224534 0.651782
0.926734 0.168243 0.335943
0.572549 0.801645 0.171911
0.603621 0.793981 -0.072356
0.598528 0.794460 -0.102947
-0.125641 0.986740 -0.102755
-0.125641 0.986740 -0.102755
-0.129585 0.988933 -0.072241
0.603621 0.793981 -0.072356
-0.776697 0.605632 -0.173065
-0.764332 0.598874 -0.239054
-0.932787 0.249940 -0.259689
-0.932787 0.249940 -0.259689
-0.948395 0.254123 -0.189652
-0.776697 0.605632 -0.173065
0.975456 0.136141 -0.173064
0.961369 0.136469 -0.239053
0.598528 0.794460 -0.102947
0.598528 0.794460 -0.102947
0.603621 0.793981 -0.072356
0.975456 0.136141 -0.173064
0.975456 0.136141 -0.173064
0.990785 0.135430 0.002032
0.965893 -0.258939 0.001337
0.965893 -0.258939 0.001337
0.948395 -0.254124 -0.189651
0.975456 0.136141 -0.173064
-0.776697 0.605632 -0.173065
-0.790332 0.612676 0.002031
-0.148506 0.988911 0.001198
-0.148506 0.988911 0.001198
-0.129585 0.988933 -0.072241
-0.776697 0.605632 -0.173065
0.452903 0.819189 -0.351865
0.329326 0.825113 -0.459056
0.328997 0.944268 -0.010892
0.328997 0.944268 -0.010892
0.452597 0.886142 -0.099536
0.452903 0.819189 -0.351865
0.001201 0.784263 -0.620427
-0.072357 0.793980 -0.603622
-0.072241 0.988933 0.129584
-0.072241 0.988933 0.129584
0.001198 0.988911 0.148504
0.001201 0.784263 -0.620427
0.651781 0.224535 -0.724407
0.841331 0.246219 -0.481185
0.914593 -0.105204 -0.390451
0.914593 -0.105204 -0.390451
0.714311 -0.175143 -0.677558
0.651781 0.224535 -0.724407
0.841331 0.246219 -0.481185
0.931761 0.303389 -0.199439
0.992125 -0.032414 -0.120988
0.992125 -0.032414 -0.120988
0.914593 -0.105204 -0.390451
0.841331 0.246219 -0.481185
0.841330 0.453823 0.293614
0.651782 0.556651 0.515091
0.714310 0.187103 0.674354
0.714310 0.187103 0.674354
0.914592 0.104115 0.390744
0.841330 0.453823 0.293614
0.932256 0.360855 0.026110
0.841330 0.453823 0.293614
0.914592 0.104115 0.390744
0.914592 0.104115 0.390744
0.991996 0.032684 0.121966
0.932256 0.360855 0.026110
0.931761 0.303389 -0.199439
0.932256 0.360855 0.026110
0.991996 0.032684 0.121966
0.991996 0.032684 0.121966
0.992125 -0.032414 -0.120988
0.931761 0.303389 -0.199439
0.002032 0.135428 -0.990785
0.335943 0.168243 -0.926734
0.376347 -0.233580 -0.896551
0.376347 -0.233580 -0.896551
0.001337 -0.258940 -0.965892
0.002032 0.135428 -0.990785
-0.262979 0.162912 -0.950948
-0.239054 0.136468 -0.961369
-0.259688 -0.249943 -0.932787
-0.259688 -0.249943 -0.932787
-0.287033 -0.247931 -0.925280
-0.262979 0.162912 -0.950948
0.002032 0.612676 0.790332
-0.173065 0.605632 0.776697
-0.189651 0.254122 0.948396
-0.189651 0.254122 0.948396
0.001337 0.258698 0.965957
0.002032 0.612676 0.790332
0.335943 0.609067 0.718456
0.002032 0.612676 0.790332
0.001337 0.258698 0.965957
0.001337 0.258698 0.965957
0.376347 0.245991 0.893225
0.335943 0.609067 0.718456
0.171910 0.801645 -0.572549
0.001201 0.784263 -0.620427
0.001198 0.988911 0.148504
0.001198 0.988911 0.148504
0.171701 0.980235 0.098279
0.171910 0.801645 -0.572549
0.452597 0.886142 -0.099536
0.429985 0.885439 -0.176383
0.429321 0.859611 -0.277040
0.429321 0.859611 -0.277040
0.452903 0.819189 -0.351865
0.452597 0.886142 -0.099536
0.452903 0.819189 -0.351865
0.841331 0.246219 -0.481185
0.651781 0.224535 -0.724407
0.651781 0.224535 -0.724407
0.329326 0.825113 -0.459056
0.452903 0.819189 -0.351865
0.429321 0.859611 -0.277040
0.931761 0.303389 -0.199439
0.841331 0.246219 -0.481185
0.841331 0.246219 -0.481185
0.452903 0.819189 -0.351865
0.429321 0.859611 -0.277040
0.328997 0.944268 -0.010892
0.651782 0.556651 0.515091
0.841330 0.453823 0.293614
0.841330 0.453823 0.293614
0.452597 0.886142 -0.099536
0.328997 0.944268 -0.010892
0.452597 0.886142 -0.099536
0.841330 0.453823 0.293614
0.932256 0.360855 0.026110
0.932256 0.360855 0.026110
0.429985 0.885439 -0.176383
0.452597 0.886142 -0.099536
0.429985 0.885439 -0.176383
0.932256 0.360855 0.026110
0.931761 0.303389 -0.199439
0.931761 0.303389 -0.199439
0.429321 0.859611 -0.277040
0.429985 0.885439 -0.176383
0.171910 0.801645 -0.572549
0.335943 0.168243 -0.926734
0.002032 0.135428 -0.990785
0.002032 0.135428 -0.990785
0.001201 0.784263 -0.620427
0.171910 0.801645 -0.572549
0.001201 0.784263 -0.620427
0.002032 0.135428 -0.990785
-0.173065 0.136139 -0.975456
-0.173065 0.136139 -0.975456
-0.072357 0.793980 -0.603622
0.001201 0.784263 -0.620427
-0.095886 0.993598 0.059746
-0.262979 0.616564 0.742085
-0.239053 0.598875 0.764331
-0.239053 0.598875 0.764331
-0.102754 0.986740 0.125639
-0.095886 0.993598 0.059746
0.001198 0.988911 0.148504
0.002032 0.612676 0.790332
0.335943 0.609067 0.718456
0.335943 0.609067 0.718456
0.171701 0.980235 0.098279
0.001198 0.988911 0.148504
-0.102946 0.794460 -0.598528
-0.096082 0.834012 -0.543316
-0.095886 0.993598 0.059746
-0.095886 0.993598 0.059746
-0.102754 0.986740 0.125639
-0.102946 0.794460 -0.598528
-0.239054 0.136468 -0.961369
-0.173065 0.136139 -0.975456
-0.189652 -0.254125 -0.948395
-0.189652 -0.254125 -0.948395
-0.259688 -0.249943 -0.932787
-0.239054 0.136468 -0.961369
-0.239053 0.598875 0.764331
-0.262979 0.616564 0.742085
-0.287035 0.247927 0.925280
-0.287035 0.247927 0.925280
-0.259689 0.249940 0.932787
-0.239053 0.598875 0.764331
-0.239054 0.136468 -0.961369
-0.262979 0.162912 -0.950948
-0.096082 0.834012 -0.543316
-0.096082 0.834012 -0.543316
-0.102946 0.794460 -0.598528
-0.239054 0.136468 -0.961369
-0.239053 0.598875 0.764331
-0.173065 0.605632 0.776697
-0.072241 0.988933 0.129584
-0.072241 0.988933 0.129584
-0.102754 0.986740 0.125639
-0.239053 0.598875 0.764331
0.714311 -0.175143 -0.677558
0.376347 -0.233580 -0.896551
0.335943 0.168243 -0.926734
0.335943 0.168243 -0.926734
0.651781 0.224535 -0.724407
0.714311 -0.175143 -0.677558
0.651782 0.556651 0.515091
0.335943 0.609067 0.718456
0.376347 0.245991 0.893225
0.376347 0.245991 0.893225
0.714310 0.187103 0.674354
0.651782 0.556651 0.515091
0.329326 0.825113 -0.459056
0.171910 0.801645 -0.572549
0.171701 0.980235 0.098279
0.171701 0.980235 0.098279
0.328997 0.944268 -0.010892
0.329326 0.825113 -0.459056
0.335943 0.609067 0.718456
0.651782 0.556651 0.515091
0.328997 0.944268 -0.010892
0.328997 0.944268 -0.010892
0.171701 0.980235 0.098279
0.335943 0.609067 0.718456
0.171910 0.801645 -0.572549
0.329326 0.825113 -0.459056
0.651781 0.224535 -0.724407
0.651781 0.224535 -0.724407
0.335943 0.168243 -0.926734
0.171910 0.801645 -0.572549
-0.072357 0.793980 -0.603622
-0.102946 0.794460 -0.598528
-0.102754 0.986740 0.125639
-0.102754 0.986740 0.125639
-0.072241 0.988933 0.129584
-0.072357 0.793980 -0.603622
-0.173065 0.605632 0.776697
-0.239053 0.598875 0.764331
-0.259689 0.249940 0.932787
-0.259689 0.249940 0.932787
-0.189651 0.254122 0.948396
-0.173065 0.605632 0.776697
-0.173065 0.136139 -0.975456
-0.239054 0.136468 -0.961369
-0.102946 0.794460 -0.598528
-0.102946 0.794460 -0.598528
-0.072357 0.793980 -0.603622
-0.173065 0.136139 -0.975456
-0.173065 0.136139 -0.975456
0.002032 0.135428 -0.990785
0.001337 -0.258940 -0.965892
0.001337 -0.258940 -0.965892
-0.189652 -0.254125 -0.948395
-0.173065 0.136139 -0.975456
-0.173065 0.605632 0.776697
0.002032 0.612676 0.790332
0.001198 0.988911 0.148504
0.001198 0.988911 0.148504
-0.072241 0.988933 0.129584
-0.173065 0.605632 0.776697
-0.351865 0.819189 -0.452902
-0.459056 0.825114 -0.329325
-0.010893 0.944269 -0.328995
-0.010893 0.944269 -0.328995
-0.099536 0.886143 -0.452597
-0.351865 0.819189 -0.452902
-0.620427 0.784263 -0.001201
-0.603621 0.793981 0.072356
0.129585 0.988933 0.072241
0.129585 0.988933 0.072241
0.148507 0.988911 -0.001198
-0.620427 0.784263 -0.001201
-0.724407 0.224535 -0.651781
-0.481185 0.246219 -0.841330
-0.390451 -0.105204 -0.914593
-0.390451 -0.105204 -0.914593
-0.677558 -0.175144 -0.714311
-0.724407 0.224535 -0.651781
-0.481185 0.246219 -0.841330
-0.199439 0.303389 -0.931761
-0.120988 -0.032414 -0.992125
-0.120988 -0.032414 -0.992125
-0.390451 -0.105204 -0.914593
-0.481185 0.246219 -0.841330
0.293613 0.453823 -0.841330
0.515092 0.556651 -0.651782
0.674355 0.187102 -0.714310
0.674355 0.187102 -0.714310
0.390745 0.104115 -0.914592
0.293613 0.453823 -0.841330
0.026111 0.360854 -0.932257
0.293613 0.453823 -0.841330
0.390745 0.104115 -0.914592
0.390745 0.104115 -0.914592
0.121966 0.032684 -0.991996
0.026111 0.360854 -0.932257
-0.199439 0.303389 -0.931761
0.026111 0.360854 -0.932257
0.121966 0.032684 -0.991996
0.121966 0.032684 -0.991996
-0.120988 -0.032414 -0.992125
-0.199439 0.303389 -0.931761
-0.990785 0.135430 -0.002032
-0.926734 0.168243 -0.335943
-0.896551 -0.233579 -0.376346
-0.896551 -0.233579 -0.376346
-0.965893 -0.258939 -0.001338
-0.990785 0.135430 -0.002032
-0.950948 0.162910 0.262980
-0.961369 0.136469 0.239054
-0.932787 -0.249942 0.259688
-0.932787 -0.249942 0.259688
-0.925280 -0.247930 0.287033
-0.950948 0.162910 0.262980
0.790332 0.612676 -0.002032
0.776697 0.605632 0.173065
0.948395 0.254124 0.189652
0.948395 0.254124 0.189652
0.965956 0.258702 -0.001336
0.790332 0.612676 -0.002032
0.718456 0.609067 -0.335943
0.790332 0.612676 -0.002032
0.965956 0.258702 -0.001336
0.965956 0.258702 -0.001336
0.893225 0.245993 -0.376346
0.718456 0.609067 -0.335943
-0.572549 0.801645 -0.171910
-0.620427 0.784263 -0.001201
0.148507 0.988911 -0.001198
0.148507 0.988911 -0.001198
0.098280 0.980235 -0.171701
-0.572549 0.801645 -0.171910
-0.099536 0.886143 -0.452597
-0.176383 0.885439 -0.429985
-0.277040 0.859612 -0.429321
-0.277040 0.859612 -0.429321
-0.351865 0.819189 -0.452902
-0.099536 0.886143 -0.452597
-0.351865 0.819189 -0.452902
-0.481185 0.246219 -0.841330
-0.724407 0.224535 -0.651781
-0.724407 0.224535 -0.651781
-0.459056 0.825114 -0.329325
-0.351865 0.819189 -0.452902
-0.277040 0.859612 -0.429321
-0.199439 0.303389 -0.931761
-0.481185 0.246219 -0.841330
-0.481185 0.246219 -0.841330
-0.351865 0.819189 -0.452902
-0.277040 0.859612 -0.429321
-0.010893 0.944269 -0.328995
0.515092 0.556651 -0.651782
0.293613 0.453823 -0.841330
0.293613 0.453823 -0.841330
-0.099536 0.886143 -0.452597
-0.010893 0.944269 -0.328995
-0.099536 0.886143 -0.452597
0.293613 0.453823 -0.841330
0.026111 0.360854 -0.932257
0.026111 0.360854 -0.932257
-0.176383 0.885439 -0.429985
-0.099536 0.886143 -0.452597
-0.176383 0.885439 -0.429985
0.026111 0.360854 -0.932257
-0.199439 0.303389 -0.931761
-0.199439 0.303389 -0.931761
-0.277040 0.859612 -0.429321
-0.176383 0.885439 -0.429985
-0.572549 0.801645 -0.171910
-0.926734 0.168243 -0.335943
-0.990785 0.135430 -0.002032
-0.990785 0.135430 -0.002032
-0.620427 0.784263 -0.001201
-0.572549 0.801645 -0.171910
-0.620427 0.784263 -0.001201
-0.990785 0.135430 -0.002032
-0.975456 0.136141 0.173064
-0.975456 0.136141 0.173064
-0.603621 0.793981 0.072356
-0.620427 0.784263 -0.001201
0.059747 0.993598 0.095888
0.742086 0.616563 0.262980
0.764332 0.598874 0.239054
0.764332 0.598874 0.239054
0.125641 0.986740 0.102755
0.059747 0.993598 0.095888
0.148507 0.988911 -0.001198
0.790332 0.612676 -0.002032
0.718456 0.609067 -0.335943
0.718456 0.609067 -0.335943
0.098280 0.980235 -0.171701
0.148507 0.988911 -0.001198
-0.598527 0.794460 0.102946
-0.543317 0.834011 0.096084
0.059747 0.993598 0.095888
0.059747 0.993598 0.095888
0.125641 0.986740 0.102755
-0.598527 0.794460 0.102946
-0.961369 0.136469 0.239054
-0.975456 0.136141 0.173064
-0.948395 -0.254124 0.189651
-0.948395 -0.254124 0.189651
-0.932787 -0.249942 0.259688
-0.961369 0.136469 0.239054
0.764332 0.598874 0.239054
0.742086 0.616563 0.262980
0.925279 0.247929 0.287035
0.925279 0.247929 0.287035
0.932787 0.249941 0.259689
0.764332 0.598874 0.239054
-0.961369 0.136469 0.239054
-0.950948 0.162910 0.262980
-0.543317 0.834011 0.096084
-0.543317 0.834011 0.096084
-0.598527 0.794460 0.102946
-0.961369 0.136469 0.239054
0.764332 0.598874 0.239054
0.776697 0.605632 0.173065
0.129585 0.988933 0.072241
0.129585 0.988933 0.072241
0.125641 0.986740 0.102755
0.764332 0.598874 0.239054
-0.677558 -0.175144 -0.714311
-0.896551 -0.233579 -0.376346
-0.926734 0.168243 -0.335943
-0.926734 0.168243 -0.335943
-0.724407 0.224535 -0.651781
-0.677558 -0.175144 -0.714311
0.515092 0.556651 -0.651782
0.718456 0.609067 -0.335943
0.893225 0.245993 -0.376346
0.893225 0.245993 -0.376346
0.674355 0.187102 -0.714310
0.515092 0.556651 -0.651782
-0.459056 0.825114 -0.329325
-0.572549 0.801645 -0.171910
0.098280 0.980235 -0.171701
0.098280 0.980235 -0.171701
-0.010893 0.944269 -0.328995
-0.459056 0.825114 -0.329325
0.718456 0.609067 -0.335943
0.515092 0.556651 -0.651782
-0.010893 0.944269 -0.328995
-0.010893 0.944269 -0.328995
0.098280 0.980235 -0.171701
0.718456 0.609067 -0.335943
-0.572549 0.801645 -0.171910
-0.459056 0.825114 -0.329325
-0.724407 0.224535 -0.651781
-0.724407 0.224535 -0.651781
-0.926734 0.168243 -0.335943
-0.572549 0.801645 -0.171910
-0.603621 0.793981 0.072356
-0.598527 0.794460 0.102946
0.125641 0.986740 0.102755
0.125641 0.986740 0.102755
0.129585 0.988933 0.072241
-0.603621 0.793981 0.072356
0.776697 0.605632 0.173065
0.764332 0.598874 0.239054
0.932787 0.249941 0.259689
0.932787 0.249941 0.259689
0.948395 0.254124 0.189652
0.776697 0.605632 0.173065
-0.975456 0.136141 0.173064
-0.961369 0.136469 0.239054
-0.598527 0.794460 0.102946
-0.598527 0.794460 0.102946
-0.603621 0.793981 0.072356
-0.975456 0.136141 0.173064
-0.975456 0.136141 0.173064
-0.990785 0.135430 -0.002032
-0.965893 -0.258939 -0.001338
-0.965893 -0.258939 -0.001338
-0.948395 -0.254124 0.189651
-0.975456 0.136141 0.173064
0.776697 0.605632 0.173065
0.790332 0.612676 -0.002032
0.148507 0.988911 -0.001198
0.148507 0.988911 -0.001198
0.129585 0.988933 0.072241
0.776697 0.605632 0.173065
-0.452902 0.819189 0.351865
-0.329327 0.825113 0.459057
-0.328996 0.944269 0.010893
-0.328996 0.944269 0.010893
-0.452597 0.886142 0.099536
-0.452902 0.819189 0.351865
-0.001200 0.784265 0.620425
0.072356 0.793983 0.603619
0.072241 0.988933 -0.129586
0.072241 0.988933 -0.129586
-0.001198 0.988911 -0.148507
-0.001200 0.784265 0.620425
-0.651782 0.224536 0.724406
-0.841331 0.246218 0.481185
-0.914593 -0.105204 0.390450
-0.914593 -0.105204 0.390450
-0.714312 -0.175142 0.677557
-0.651782 0.224536 0.724406
-0.841331 0.246218 0.481185
-0.931761 0.303389 0.199439
-0.992125 -0.032414 0.120988
-0.992125 -0.032414 0.120988
-0.914593 -0.105204 0.390450
-0.841331 0.246218 0.481185
-0.841330 0.453823 -0.293613
-0.651782 0.556651 -0.515093
-0.714309 0.187102 -0.674355
-0.714309 0.187102 -0.674355
-0.914592 0.104115 -0.390745
-0.841330 0.453823 -0.293613
-0.932257 0.360855 -0.026111
-0.841330 0.453823 -0.293613
-0.914592 0.104115 -0.390745
-0.914592 0.104115 -0.390745
-0.991996 0.032684 -0.121966
-0.932257 0.360855 -0.026111
-0.931761 0.303389 0.199439
-0.932257 0.360855 -0.026111
-0.991996 0.032684 -0.121966
-0.991996 0.032684 -0.121966
-0.992125 -0.032414 0.120988
-0.931761 0.303389 0.199439
-0.002031 0.135432 0.990785
-0.335942 0.168245 0.926735
-0.376346 -0.233579 0.896551
-0.376346 -0.233579 0.896551
-0.001336 -0.258940 0.965892
-0.002031 0.135432 0.990785
0.262979 0.162911 0.950948
0.239053 0.136470 0.961369
0.259688 -0.249943 0.932787
0.259688 -0.249943 0.932787
0.287033 -0.247931 0.925280
0.262979 0.162911 0.950948
-0.002032 0.612675 -0.790332
0.173065 0.605631 -0.776698
0.189652 0.254123 -0.948395
0.189652 0.254123 -0.948395
-0.001337 0.258701 -0.965957
-0.002032 0.612675 -0.790332
-0.335943 0.609066 -0.718457
-0.002032 0.612675 -0.790332
-0.001337 0.258701 -0.965957
-0.001337 0.258701 -0.965957
-0.376347 0.245991 -0.893225
-0.335943 0.609066 -0.718457
-0.171909 0.801646 0.572547
-0.001200 0.784265 0.620425
-0.001198 0.988911 -0.148507
-0.001198 0.988911 -0.148507
-0.171701 0.980234 -0.098281
-0.171909 0.801646 0.572547
-0.452597 0.886142 0.099536
-0.429985 0.885439 0.176383
-0.429321 0.859612 0.277040
-0.429321 0.859612 0.277040
-0.452902 0.819189 0.351865
-0.452597 0.886142 0.099536
-0.452902 0.819189 0.351865
-0.841331 0.246218 0.481185
-0.651782 0.224536 0.724406
-0.651782 0.224536 0.724406
-0.329327 0.825113 0.459057
-0.452902 0.819189 0.351865
-0.429321 0.859612 0.277040
-0.931761 0.303389 0.199439
-0.841331 0.246218 0.481185
-0.841331 0.246218 0.481185
-0.452902 0.819189 0.351865
-0.429321 0.859612 0.277040
-0.328996 0.944269 0.010893
-0.651782 0.556651 -0.515093
-0.841330 0.453823 -0.293613
-0.841330 0.453823 -0.293613
-0.452597 0.886142 0.099536
-0.328996 0.944269 0.010893
-0.452597 0.886142 0.099536
-0.841330 0.453823 -0.293613
-0.932257 0.360855 -0.026111
-0.932257 0.360855 -0.026111
-0.429985 0.885439 0.176383
-0.452597 0.886142 0.099536
-0.429985 0.885439 0.176383
-0.932257 0.360855 -0.026111
-0.931761 0.303389 0.199439
-0.931761 0.303389 0.199439
-0.429321 0.859612 0.277040
-0.429985 0.885439 0.176383
-0.171909 0.801646 0.572547
-0.335942 0.168245 0.926735
-0.002031 0.135432 0.990785
-0.002031 0.135432 0.990785
-0.001200 0.784265 0.620425
-0.171909 0.801646 0.572547
-0.001200 0.784265 0.620425
-0.002031 0.135432 0.990785
0.173064 0.136142 0.975456
0.173064 0.136142 0.975456
0.072356 0.793983 0.603619
-0.001200 0.784265 0.620425
0.095886 0.993598 -0.059747
0.262979 0.616564 -0.742086
0.239053 0.598874 -0.764332
0.239053 0.598874 -0.764332
0.102755 0.986740 -0.125641
0.095886 0.993598 -0.059747
-0.001198 0.988911 -0.148507
-0.002032 0.612675 -0.790332
-0.335943 0.609066 -0.718457
-0.335943 0.609066 -0.718457
-0.171701 0.980234 -0.098281
-0.001198 0.988911 -0.148507
0.102946 0.794461 0.598527
0.096082 0.834011 0.543317
0.095886 0.993598 -0.059747
0.095886 0.993598 -0.059747
0.102755 0.986740 -0.125641
0.102946 0.794461 0.598527
0.239053 0.136470 0.961369
0.173064 0.136142 0.975456
0.189651 -0.254125 0.948395
0.189651 -0.254125 0.948395
0.259688 -0.249943 0.932787
0.239053 0.136470 0.961369
0.239053 0.598874 -0.764332
0.262979 0.616564 -0.742086
0.287035 0.247930 -0.925279
0.287035 0.247930 -0.925279
0.259689 0.249941 -0.932787
0.239053 0.598874 -0.764332
0.239053 0.136470 0.961369
0.262979 0.162911 0.950948
0.096082 0.834011 0.543317
0.096082 0.834011 0.543317
0.102946 0.794461 0.598527
0.239053 0.136470 0.961369
0.239053 0.598874 -0.764332
0.173065 0.605631 -0.776698
0.072241 0.988933 -0.129586
0.072241 0.988933 -0.129586
0.102755 0.986740 -0.125641
0.239053 0.598874 -0.764332
-0.714312 -0.175142 0.677557
-0.376346 -0.233579 0.896551
-0.335942 0.168245 0.926735
-0.335942 0.168245 0.926735
-0.651782 0.224536 0.724406
-0.714312 -0.175142 0.677557
-0.651782 0.556651 -0.515093
-0.335943 0.609066 -0.718457
-0.376347 0.245991 -0.893225
-0.376347 0.245991 -0.893225
-0.714309 0.187102 -0.674355
-0.651782 0.556651 -0.515093
-0.329327 0.825113 0.459057
-0.171909 0.801646 0.572547
-0.171701 0.980234 -0.098281
-0.171701 0.980234 -0.098281
-0.328996 0.944269 0.010893
-0.329327 0.825113 0.459057
-0.335943 0.609066 -0.718457
-0.651782 0.556651 -0.515093
-0.328996 0.944269 0.010893
-0.328996 0.944269 0.010893
-0.171701 0.980234 -0.098281
-0.335943 0.609066 -0.718457
-0.171909 0.801646 0.572547
-0.329327 0.825113 0.459057
-0.651782 0.224536 0.724406
-0.651782 0.224536 0.724406
-0.335942 0.168245 0.926735
-0.171909 0.801646 0.572547
0.072356 0.793983 0.603619
0.102946 0.794461 0.598527
0.102755 0.986740 -0.125641
0.102755 0.986740 -0.125641
0.072241 0.988933 -0.129586
0.072356 0.793983 0.603619
0.173065 0.605631 -0.776698
0.239053 0.598874 -0.764332
0.259689 0.249941 -0.932787
0.259689 0.249941 -0.932787
0.189652 0.254123 -0.948395
0.173065 0.605631 -0.776698
0.173064 0.136142 0.975456
0.239053 0.136470 0.961369
0.102946 0.794461 0.598527
0.102946 0.794461 0.598527
0.072356 0.793983 0.603619
0.173064 0.136142 0.975456
0.173064 0.136142 0.975456
-0.002031 0.135432 0.990785
-0.001336 -0.258940 0.965892
-0.001336 -0.258940 0.965892
0.189651 -0.254125 0.948395
0.173064 0.136142 0.975456
0.173065 0.605631 -0.776698
-0.002032 0.612675 -0.790332
-0.001198 0.988911 -0.148507
-0.001198 0.988911 -0.148507
0.072241 0.988933 -0.129586
0.173065 0.605631 -0.776698
</float_array>
          <technique_common>
            <accessor source="#generator_habitat_fan-lib-Normal0-array" count="1104" stride="3">
              <param name="X" type="float"/>
              <param name="Y" type="float"/>
              <param name="Z" type="float"/>
            </accessor>
          </technique_common>
        </source>
        <source id="generator_habitat_fan-lib-UV0">
          <float_array id="generator_habitat_fan-lib-UV0-array" count="534">
0.120126 0.669456
0.120126 0.664124
0.106496 0.664124
0.106496 0.669456
0.120126 0.658791
0.106496 0.658791
0.120126 0.680121
0.120126 0.674789
0.106496 0.674789
0.106496 0.680121
0.120126 0.562811
0.120126 0.557481
0.106496 0.557481
0.106496 0.562811
0.120126 0.573476
0.120126 0.568143
0.106496 0.568143
0.106496 0.573476
0.120126 0.584138
0.120126 0.578808
0.106496 0.578808
0.106496 0.584138
0.120126 0.594803
0.120126 0.589471
0.101053 0.512303
0.102497 0.507279
0.111303 0.520795
0.100298 0.517896
0.104550 0.503192
0.107055 0.500283
0.109855 0.498796
0.112752 0.498782
0.115548 0.500296
0.118061 0.503181
0.120104 0.507288
0.121560 0.512298
0.106496 0.589471
0.106496 0.594803
0.120126 0.605468
0.120126 0.600136
0.106496 0.600136
0.106496 0.605469
0.120126 0.616133
0.120126 0.610801
0.106496 0.610801
0.106496 0.616133
0.120126 0.626798
0.120126 0.621466
0.122302 0.517898
0.122308 0.523692
0.121553 0.529285
0.120109 0.534311
0.118057 0.538398
0.115551 0.541306
0.112751 0.542792
0.109854 0.542804
0.107058 0.541292
0.104546 0.538407
0.102503 0.534300
0.101048 0.529292
0.106496 0.621466
0.106496 0.626798
0.120126 0.637464
0.120126 0.632131
0.106496 0.632131
0.106496 0.637464
0.120126 0.648129
0.120126 0.642796
0.106496 0.642796
0.106496 0.648129
0.120126 0.653458
0.106496 0.653459
0.100305 0.523692
0.120126 0.685454
0.106496 0.685454
0.070357 0.670870
0.067801 0.668310
0.087215 0.668192
0.084671 0.670812
0.065558 0.660331
0.066322 0.649875
0.088600 0.649696
0.089414 0.660143
0.066692 0.668283
0.069252 0.671270
0.068542 0.674738
0.065311 0.670988
0.074071 0.673440
0.073860 0.677217
0.085778 0.671176
0.088322 0.668133
0.089720 0.670802
0.086510 0.674623
0.080971 0.673451
0.081215 0.677231
0.064934 0.660489
0.065438 0.665146
0.063740 0.666851
0.063071 0.660831
0.069956 0.618151
0.066845 0.639279
0.064857 0.638296
0.068085 0.617100
0.090036 0.660289
0.089326 0.649728
0.091334 0.649102
0.091902 0.660592
0.089558 0.664963
0.091266 0.666624
0.066068 0.664899
0.088927 0.664732
0.080897 0.672214
0.074134 0.672214
0.065595 0.649918
0.084131 0.618091
0.084831 0.618031
0.088033 0.639106
0.087302 0.639147
0.067577 0.639308
0.070658 0.618201
0.063586 0.649332
0.086698 0.616949
0.090015 0.638088
1.070357 0.670870
1.067801 0.668310
1.087215 0.668192
1.084671 0.670812
1.065558 0.660331
1.066323 0.649875
1.088601 0.649696
1.089414 0.660143
1.066692 0.668283
1.069252 0.671270
1.068542 0.674738
1.065310 0.670988
1.074071 0.673440
1.073860 0.677217
1.085778 0.671176
1.088322 0.668133
1.089720 0.670802
1.086510 0.674623
1.080971 0.673451
1.081215 0.677231
1.064934 0.660489
1.065438 0.665146
1.063740 0.666851
1.063071 0.660831
1.069956 0.618151
1.066845 0.639279
1.064857 0.638296
1.068085 0.617100
1.090036 0.660289
1.089326 0.649728
1.091335 0.649102
1.091902 0.660592
1.089558 0.664963
1.091266 0.666624
1.066069 0.664899
1.088927 0.664732
1.080897 0.672214
1.074134 0.672214
1.065595 0.649918
1.084131 0.618091
1.084831 0.618031
1.088033 0.639106
1.087302 0.639147
1.067577 0.639308
1.070658 0.618201
1.063586 0.649332
1.086699 0.616949
1.090015 0.638088
1.070357 0.670870
1.067801 0.668310
1.087215 0.668192
1.084671 0.670812
1.065558 0.660331
1.066323 0.649875
1.088601 0.649696
1.089414 0.660143
1.066692 0.668283
1.069252 0.671270
1.068542 0.674738
1.065310 0.670988
1.074071 0.673440
1.073860 0.677217
1.085778 0.671176
1.088322 0.668133
1.089720 0.670802
1.086510 0.674623
1.080971 0.673451
1.081215 0.677231
1.064934 0.660489
1.065438 0.665146
1.063740 0.666851
1.063071 0.660831
1.069956 0.618151
1.066845 0.639279
1.064857 0.638296
1.068085 0.617100
1.090036 0.660289
1.089326 0.649728
1.091335 0.649102
1.091902 0.660592
1.089558 0.664963
1.091266 0.666624
1.066069 0.664899
1.088927 0.664732
1.080897 0.672214
1.074134 0.672214
1.065595 0.649918
1.084131 0.618091
1.084831 0.618031
1.088033 0.639106
1.087302 0.639147
1.067577 0.639308
1.070658 0.618201
1.063586 0.649332
1.086699 0.616949
1.090015 0.638088
1.070357 0.670870
1.067801 0.668310
1.087215 0.668192
1.084671 0.670812
1.065558 0.660331
1.066323 0.649875
1.088601 0.649696
1.089414 0.660143
1.066692 0.668283
1.069252 0.671270
1.068542 0.674738
1.065310 0.670988
1.074071 0.673440
1.073860 0.677217
1.085778 0.671176
1.088322 0.668133
1.089720 0.670802
1.086510 0.674623
1.080971 0.673451
1.081215 0.677231
1.064934 0.660489
1.065438 0.665146
1.063740 0.666851
1.063071 0.660831
1.069956 0.618151
1.066845 0.639279
1.064857 0.638296
1.068085 0.617100
1.090036 0.660289
1.089326 0.649728
1.091335 0.649102
1.091902 0.660592
1.089558 0.664963
1.091266 0.666624
1.066069 0.664899
1.088927 0.664732
1.080897 0.672214
1.074134 0.672214
1.065595 0.649918
1.084131 0.618091
1.084831 0.618031
1.088033 0.639106
1.087302 0.639147
1.067577 0.639308
1.070658 0.618201
1.063586 0.649332
1.086699 0.616949
1.090015 0.638088
</float_array>
          <technique_common>
            <accessor source="#generator_habitat_fan-lib-UV0-array" count="267" stride="2">
              <param name="S" type="float"/>
              <param name="T" type="float"/>
            </accessor>
          </technique_common>
        </source>
        <source id="generator_habitat_fan-lib-UV1">
          <float_array id="generator_habitat_fan-lib-UV1-array" count="534">
0.120126 0.669456
0.120126 0.664124
0.106496 0.664124
0.106496 0.669456
0.120126 0.658791
0.106496 0.658791
0.120126 0.680121
0.120126 0.674789
0.106496 0.674789
0.106496 0.680121
0.120126 0.562811
0.120126 0.557481
0.106496 0.557481
0.106496 0.562811
0.120126 0.573476
0.120126 0.568143
0.106496 0.568143
0.106496 0.573476
0.120126 0.584138
0.120126 0.578808
0.106496 0.578808
0.106496 0.584138
0.120126 0.594803
0.120126 0.589471
0.101053 0.512303
0.102497 0.507279
0.111303 0.520795
0.100298 0.517896
0.104550 0.503192
0.107055 0.500283
0.109855 0.498796
0.112752 0.498782
0.115548 0.500296
0.118061 0.503181
0.120104 0.507288
0.121560 0.512298
0.106496 0.589471
0.106496 0.594803
0.120126 0.605468
0.120126 0.600136
0.106496 0.600136
0.106496 0.605469
0.120126 0.616133
0.120126 0.610801
0.106496 0.610801
0.106496 0.616133
0.120126 0.626798
0.120126 0.621466
0.122302 0.517898
0.122308 0.523692
0.121553 0.529285
0.120109 0.534311
0.118057 0.538398
0.115551 0.541306
0.112751 0.542792
0.109854 0.542804
0.107058 0.541292
0.104546 0.538407
0.102503 0.534300
0.101048 0.529292
0.106496 0.621466
0.106496 0.626798
0.120126 0.637464
0.120126 0.632131
0.106496 0.632131
0.106496 0.637464
0.120126 0.648129
0.120126 0.642796
0.106496 0.642796
0.106496 0.648129
0.120126 0.653458
0.106496 0.653459
0.100305 0.523692
0.120126 0.685454
0.106496 0.685454
0.070357 0.670870
0.067801 0.668310
0.087215 0.668192
0.084671 0.670812
0.065558 0.660331
0.066322 0.649875
0.088600 0.649696
0.089414 0.660143
0.066692 0.668283
0.069252 0.671270
0.068542 0.674738
0.065311 0.670988
0.074071 0.673440
0.073860 0.677217
0.085778 0.671176
0.088322 0.668133
0.089720 0.670802
0.086510 0.674623
0.080971 0.673451
0.081215 0.677231
0.064934 0.660489
0.065438 0.665146
0.063740 0.666851
0.063071 0.660831
0.069956 0.618151
0.066845 0.639279
0.064857 0.638296
0.068085 0.617100
0.090036 0.660289
0.089326 0.649728
0.091334 0.649102
0.091902 0.660592
0.089558 0.664963
0.091266 0.666624
0.066068 0.664899
0.088927 0.664732
0.080897 0.672214
0.074134 0.672214
0.065595 0.649918
0.084131 0.618091
0.084831 0.618031
0.088033 0.639106
0.087302 0.639147
0.067577 0.639308
0.070658 0.618201
0.063586 0.649332
0.086698 0.616949
0.090015 0.638088
1.070357 0.670870
1.067801 0.668310
1.087215 0.668192
1.084671 0.670812
1.065558 0.660331
1.066323 0.649875
1.088601 0.649696
1.089414 0.660143
1.066692 0.668283
1.069252 0.671270
1.068542 0.674738
1.065310 0.670988
1.074071 0.673440
1.073860 0.677217
1.085778 0.671176
1.088322 0.668133
1.089720 0.670802
1.086510 0.674623
1.080971 0.673451
1.081215 0.677231
1.064934 0.660489
1.065438 0.665146
1.063740 0.666851
1.063071 0.660831
1.069956 0.618151
1.066845 0.639279
1.064857 0.638296
1.068085 0.617100
1.090036 0.660289
1.089326 0.649728
1.091335 0.649102
1.091902 0.660592
1.089558 0.664963
1.091266 0.666624
1.066069 0.664899
1.088927 0.664732
1.080897 0.672214
1.074134 0.672214
1.065595 0.649918
1.084131 0.618091
1.084831 0.618031
1.088033 0.639106
1.087302 0.639147
1.067577 0.639308
1.070658 0.618201
1.063586 0.649332
1.086699 0.616949
1.090015 0.638088
1.070357 0.670870
1.067801 0.668310
1.087215 0.668192
1.084671 0.670812
1.065558 0.660331
1.066323 0.649875
1.088601 0.649696
1.089414 0.660143
1.066692 0.668283
1.069252 0.671270
1.068542 0.674738
1.065310 0.670988
1.074071 0.673440
1.073860 0.677217
1.085778 0.671176
1.088322 0.668133
1.089720 0.670802
1.086510 0.674623
1.080971 0.673451
1.081215 0.677231
1.064934 0.660489
1.065438 0.665146
1.063740 0.666851
1.063071 0.660831
1.069956 0.618151
1.066845 0.639279
1.064857 0.638296
1.068085 0.617100
1.090036 0.660289
1.089326 0.649728
1.091335 0.649102
1.091902 0.660592
1.089558 0.664963
1.091266 0.666624
1.066069 0.664899
1.088927 0.664732
1.080897 0.672214
1.074134 0.672214
1.065595 0.649918
1.084131 0.618091
1.084831 0.618031
1.088033 0.639106
1.087302 0.639147
1.067577 0.639308
1.070658 0.618201
1.063586 0.649332
1.086699 0.616949
1.090015 0.638088
1.070357 0.670870
1.067801 0.668310
1.087215 0.668192
1.084671 0.670812
1.065558 0.660331
1.066323 0.649875
1.088601 0.649696
1.089414 0.660143
1.066692 0.668283
1.069252 0.671270
1.068542 0.674738
1.065310 0.670988
1.074071 0.673440
1.073860 0.677217
1.085778 0.671176
1.088322 0.668133
1.089720 0.670802
1.086510 0.674623
1.080971 0.673451
1.081215 0.677231
1.064934 0.660489
1.065438 0.665146
1.063740 0.666851
1.063071 0.660831
1.069956 0.618151
1.066845 0.639279
1.064857 0.638296
1.068085 0.617100
1.090036 0.660289
1.089326 0.649728
1.091335 0.649102
1.091902 0.660592
1.089558 0.664963
1.091266 0.666624
1.066069 0.664899
1.088927 0.664732
1.080897 0.672214
1.074134 0.672214
1.065595 0.649918
1.084131 0.618091
1.084831 0.618031
1.088033 0.639106
1.087302 0.639147
1.067577 0.639308
1.070658 0.618201
1.063586 0.649332
1.086699 0.616949
1.090015 0.638088
</float_array>
          <technique_common>
            <accessor source="#generator_habitat_fan-lib-UV1-array" count="267" stride="2">
              <param name="S" type="float"/>
              <param name="T" type="float"/>
            </accessor>
          </technique_common>
        </source>
        <vertices id="generator_habitat_fan-lib-Vertex">
          <input semantic="POSITION" source="#generator_habitat_fan-lib-Position"/>
        </vertices>
        <polygons material="Material__82" count="368">
          <input semantic="VERTEX" offset="0" source="#generator_habitat_fan-lib-Vertex"/>
          <input semantic="NORMAL" offset="1" source="#generator_habitat_fan-lib-Normal0"/>
          <input semantic="TEXCOORD" offset="2" set="0" source="#generator_habitat_fan-lib-UV0"/>
          <input semantic="TEXCOORD" offset="3" set="1" source="#generator_habitat_fan-lib-UV1"/>
          <p>1 0 0 0 24 1 1 1 36 2 2 2</p>
          <p>36 3 2 2 13 4 3 3 1 5 0 0</p>
          <p>0 6 4 4 12 7 5 5 36 8 2 2</p>
          <p>36 9 2 2 24 10 1 1 0 11 4 4</p>
          <p>2 12 6 6 25 13 7 7 37 14 8 8</p>
          <p>37 15 8 8 14 16 9 9 2 17 6 6</p>
          <p>1 18 0 0 13 19 3 3 37 20 8 8</p>
          <p>37 21 8 8 25 22 7 7 1 23 0 0</p>
          <p>3 24 10 10 26 25 11 11 38 26 12 12</p>
          <p>38 27 12 12 15 28 13 13 3 29 10 10</p>
          <p>2 30 6 6 14 31 9 9 38 32 74 74</p>
          <p>38 33 74 74 26 34 73 73 2 35 6 6</p>
          <p>4 36 14 14 27 37 15 15 39 38 16 16</p>
          <p>39 39 16 16 16 40 17 17 4 41 14 14</p>
          <p>3 42 10 10 15 43 13 13 39 44 16 16</p>
          <p>39 45 16 16 27 46 15 15 3 47 10 10</p>
          <p>5 48 18 18 28 49 19 19 40 50 20 20</p>
          <p>40 51 20 20 17 52 21 21 5 53 18 18</p>
          <p>4 54 14 14 16 55 17 17 40 56 20 20</p>
          <p>40 57 20 20 28 58 19 19 4 59 14 14</p>
          <p>6 60 22 22 29 61 23 23 41 62 36 36</p>
          <p>41 63 36 36 18 64 37 37 6 65 22 22</p>
          <p>5 66 18 18 17 67 21 21 41 68 36 36</p>
          <p>41 69 36 36 29 70 23 23 5 71 18 18</p>
          <p>7 72 38 38 30 73 39 39 42 74 40 40</p>
          <p>42 75 40 40 19 76 41 41 7 77 38 38</p>
          <p>6 78 22 22 18 79 37 37 42 80 40 40</p>
          <p>42 81 40 40 30 82 39 39 6 83 22 22</p>
          <p>8 84 42 42 31 85 43 43 43 86 44 44</p>
          <p>43 87 44 44 20 88 45 45 8 89 42 42</p>
          <p>7 90 38 38 19 91 41 41 43 92 44 44</p>
          <p>43 93 44 44 31 94 43 43 7 95 38 38</p>
          <p>9 96 46 46 32 97 47 47 44 98 60 60</p>
          <p>44 99 60 60 21 100 61 61 9 101 46 46</p>
          <p>8 102 42 42 20 103 45 45 44 104 60 60</p>
          <p>44 105 60 60 32 106 47 47 8 107 42 42</p>
          <p>10 108 62 62 33 109 63 63 45 110 64 64</p>
          <p>45 111 64 64 22 112 65 65 10 113 62 62</p>
          <p>9 114 46 46 21 115 61 61 45 116 64 64</p>
          <p>45 117 64 64 33 118 63 63 9 119 46 46</p>
          <p>11 120 66 66 34 121 67 67 46 122 68 68</p>
          <p>46 123 68 68 23 124 69 69 11 125 66 66</p>
          <p>10 126 62 62 22 127 65 65 46 128 68 68</p>
          <p>46 129 68 68 34 130 67 67 10 131 62 62</p>
          <p>0 132 4 4 35 133 70 70 47 134 71 71</p>
          <p>47 135 71 71 12 136 5 5 0 137 4 4</p>
          <p>11 138 66 66 23 139 69 69 47 140 71 71</p>
          <p>47 141 71 71 35 142 70 70 11 143 66 66</p>
          <p>24 144 24 24 1 145 25 25 48 146 26 26</p>
          <p>0 147 27 27 24 148 24 24 48 149 26 26</p>
          <p>25 150 28 28 2 151 29 29 48 152 26 26</p>
          <p>1 153 25 25 25 154 28 28 48 155 26 26</p>
          <p>26 156 30 30 3 157 31 31 48 158 26 26</p>
          <p>2 159 29 29 26 160 30 30 48 161 26 26</p>
          <p>27 162 32 32 4 163 33 33 48 164 26 26</p>
          <p>3 165 31 31 27 166 32 32 48 167 26 26</p>
          <p>28 168 34 34 5 169 35 35 48 170 26 26</p>
          <p>4 171 33 33 28 172 34 34 48 173 26 26</p>
          <p>29 174 48 48 6 175 49 49 48 176 26 26</p>
          <p>5 177 35 35 29 178 48 48 48 179 26 26</p>
          <p>30 180 50 50 7 181 51 51 48 182 26 26</p>
          <p>6 183 49 49 30 184 50 50 48 185 26 26</p>
          <p>31 186 52 52 8 187 53 53 48 188 26 26</p>
          <p>7 189 51 51 31 190 52 52 48 191 26 26</p>
          <p>32 192 54 54 9 193 55 55 48 194 26 26</p>
          <p>8 195 53 53 32 196 54 54 48 197 26 26</p>
          <p>33 198 56 56 10 199 57 57 48 200 26 26</p>
          <p>9 201 55 55 33 202 56 56 48 203 26 26</p>
          <p>34 204 58 58 11 205 59 59 48 206 26 26</p>
          <p>10 207 57 57 34 208 58 58 48 209 26 26</p>
          <p>35 210 72 72 0 211 27 27 48 212 26 26</p>
          <p>11 213 59 59 35 214 72 72 48 215 26 26</p>
          <p>51 216 75 75 76 217 76 76 54 218 77 77</p>
          <p>54 219 77 77 52 220 78 78 51 221 75 75</p>
          <p>53 222 79 79 91 223 80 80 94 224 81 81</p>
          <p>94 225 81 81 77 226 82 82 53 227 79 79</p>
          <p>86 228 83 83 71 229 84 84 61 230 85 85</p>
          <p>61 231 85 85 88 232 86 86 86 233 83 83</p>
          <p>71 234 84 84 75 235 87 87 65 236 88 88</p>
          <p>65 237 88 88 61 238 85 85 71 239 84 84</p>
          <p>72 240 89 89 89 241 90 90 64 242 91 91</p>
          <p>64 243 91 91 62 244 92 92 72 245 89 89</p>
          <p>58 246 93 93 72 247 89 89 62 248 92 92</p>
          <p>62 249 92 92 68 250 94 94 58 251 93 93</p>
          <p>75 252 87 87 58 253 93 93 68 254 94 94</p>
          <p>68 255 94 94 65 256 88 88 75 257 87 87</p>
          <p>73 258 95 95 56 259 96 96 66 260 97 97</p>
          <p>66 261 97 97 63 262 98 98 73 263 95 95</p>
          <p>69 264 99 99 83 265 100 100 81 266 101 101</p>
          <p>81 267 101 101 59 268 102 102 69 269 99 99</p>
          <p>57 270 103 103 96 271 104 104 95 272 105 105</p>
          <p>95 273 105 105 67 274 106 106 57 275 103 103</p>
          <p>74 276 107 107 57 277 103 103 67 278 106 106</p>
          <p>67 279 106 106 87 280 108 108 74 281 107 107</p>
          <p>90 282 109 109 53 283 79 79 77 284 82 82</p>
          <p>77 285 82 82 85 286 110 110 90 287 109 109</p>
          <p>52 288 78 78 78 289 111 111 55 290 112 112</p>
          <p>55 291 112 112 51 292 75 75 52 293 78 78</p>
          <p>51 294 75 75 71 295 84 84 86 296 83 83</p>
          <p>86 297 83 83 76 298 76 76 51 299 75 75</p>
          <p>55 300 112 112 75 301 87 87 71 302 84 84</p>
          <p>71 303 84 84 51 304 75 75 55 305 112 112</p>
          <p>54 306 77 77 89 307 90 90 72 308 89 89</p>
          <p>72 309 89 89 52 310 78 78 54 311 77 77</p>
          <p>52 312 78 78 72 313 89 89 58 314 93 93</p>
          <p>58 315 93 93 78 316 111 111 52 317 78 78</p>
          <p>78 318 111 111 58 319 93 93 75 320 87 87</p>
          <p>75 321 87 87 55 322 112 112 78 323 111 111</p>
          <p>90 324 109 109 56 325 96 96 73 326 95 95</p>
          <p>73 327 95 95 53 328 79 79 90 329 109 109</p>
          <p>53 330 79 79 73 331 95 95 93 332 113 113</p>
          <p>93 333 113 113 91 334 80 80 53 335 79 79</p>
          <p>70 336 114 114 50 337 115 115 84 338 116 116</p>
          <p>84 339 116 116 80 340 117 117 70 341 114 114</p>
          <p>77 342 82 82 57 343 103 103 74 344 107 107</p>
          <p>74 345 107 107 85 346 110 110 77 347 82 82</p>
          <p>79 348 118 118 49 349 119 119 70 350 114 114</p>
          <p>70 351 114 114 80 352 117 117 79 353 118 118</p>
          <p>83 354 100 100 93 355 113 113 92 356 120 120</p>
          <p>92 357 120 120 81 358 101 101 83 359 100 100</p>
          <p>84 360 116 116 50 361 115 115 60 362 121 121</p>
          <p>60 363 121 121 82 364 122 122 84 365 116 116</p>
          <p>83 366 100 100 69 367 99 99 49 368 119 119</p>
          <p>49 369 119 119 79 370 118 118 83 371 100 100</p>
          <p>84 372 116 116 96 373 104 104 94 374 81 81</p>
          <p>94 375 81 81 80 376 117 117 84 377 116 116</p>
          <p>88 378 86 86 66 379 97 97 56 380 96 96</p>
          <p>56 381 96 96 86 382 83 83 88 383 86 86</p>
          <p>89 384 90 90 74 385 107 107 87 386 108 108</p>
          <p>87 387 108 108 64 388 91 91 89 389 90 90</p>
          <p>76 390 76 76 90 391 109 109 85 392 110 110</p>
          <p>85 393 110 110 54 394 77 77 76 395 76 76</p>
          <p>74 396 107 107 89 397 90 90 54 398 77 77</p>
          <p>54 399 77 77 85 400 110 110 74 401 107 107</p>
          <p>90 402 109 109 76 403 76 76 86 404 83 83</p>
          <p>86 405 83 83 56 406 96 96 90 407 109 109</p>
          <p>91 408 80 80 79 409 118 118 80 410 117 117</p>
          <p>80 411 117 117 94 412 81 81 91 413 80 80</p>
          <p>96 414 104 104 84 415 116 116 82 416 122 122</p>
          <p>82 417 122 122 95 418 105 105 96 419 104 104</p>
          <p>93 420 113 113 83 421 100 100 79 422 118 118</p>
          <p>79 423 118 118 91 424 80 80 93 425 113 113</p>
          <p>93 426 113 113 73 427 95 95 63 428 98 98</p>
          <p>63 429 98 98 92 430 120 120 93 431 113 113</p>
          <p>96 432 104 104 57 433 103 103 77 434 82 82</p>
          <p>77 435 82 82 94 436 81 81 96 437 104 104</p>
          <p>99 438 123 123 124 439 124 124 102 440 125 125</p>
          <p>102 441 125 125 100 442 126 126 99 443 123 123</p>
          <p>101 444 127 127 139 445 128 128 142 446 129 129</p>
          <p>142 447 129 129 125 448 130 130 101 449 127 127</p>
          <p>134 450 131 131 119 451 132 132 109 452 133 133</p>
          <p>109 453 133 133 136 454 134 134 134 455 131 131</p>
          <p>119 456 132 132 123 457 135 135 113 458 136 136</p>
          <p>113 459 136 136 109 460 133 133 119 461 132 132</p>
          <p>120 462 137 137 137 463 138 138 112 464 139 139</p>
          <p>112 465 139 139 110 466 140 140 120 467 137 137</p>
          <p>106 468 141 141 120 469 137 137 110 470 140 140</p>
          <p>110 471 140 140 116 472 142 142 106 473 141 141</p>
          <p>123 474 135 135 106 475 141 141 116 476 142 142</p>
          <p>116 477 142 142 113 478 136 136 123 479 135 135</p>
          <p>121 480 143 143 104 481 144 144 114 482 145 145</p>
          <p>114 483 145 145 111 484 146 146 121 485 143 143</p>
          <p>117 486 147 147 131 487 148 148 129 488 149 149</p>
          <p>129 489 149 149 107 490 150 150 117 491 147 147</p>
          <p>105 492 151 151 144 493 152 152 143 494 153 153</p>
          <p>143 495 153 153 115 496 154 154 105 497 151 151</p>
          <p>122 498 155 155 105 499 151 151 115 500 154 154</p>
          <p>115 501 154 154 135 502 156 156 122 503 155 155</p>
          <p>138 504 157 157 101 505 127 127 125 506 130 130</p>
          <p>125 507 130 130 133 508 158 158 138 509 157 157</p>
          <p>100 510 126 126 126 511 159 159 103 512 160 160</p>
          <p>103 513 160 160 99 514 123 123 100 515 126 126</p>
          <p>99 516 123 123 119 517 132 132 134 518 131 131</p>
          <p>134 519 131 131 124 520 124 124 99 521 123 123</p>
          <p>103 522 160 160 123 523 135 135 119 524 132 132</p>
          <p>119 525 132 132 99 526 123 123 103 527 160 160</p>
          <p>102 528 125 125 137 529 138 138 120 530 137 137</p>
          <p>120 531 137 137 100 532 126 126 102 533 125 125</p>
          <p>100 534 126 126 120 535 137 137 106 536 141 141</p>
          <p>106 537 141 141 126 538 159 159 100 539 126 126</p>
          <p>126 540 159 159 106 541 141 141 123 542 135 135</p>
          <p>123 543 135 135 103 544 160 160 126 545 159 159</p>
          <p>138 546 157 157 104 547 144 144 121 548 143 143</p>
          <p>121 549 143 143 101 550 127 127 138 551 157 157</p>
          <p>101 552 127 127 121 553 143 143 141 554 161 161</p>
          <p>141 555 161 161 139 556 128 128 101 557 127 127</p>
          <p>118 558 162 162 98 559 163 163 132 560 164 164</p>
          <p>132 561 164 164 128 562 165 165 118 563 162 162</p>
          <p>125 564 130 130 105 565 151 151 122 566 155 155</p>
          <p>122 567 155 155 133 568 158 158 125 569 130 130</p>
          <p>127 570 166 166 97 571 167 167 118 572 162 162</p>
          <p>118 573 162 162 128 574 165 165 127 575 166 166</p>
          <p>131 576 148 148 141 577 161 161 140 578 168 168</p>
          <p>140 579 168 168 129 580 149 149 131 581 148 148</p>
          <p>132 582 164 164 98 583 163 163 108 584 169 169</p>
          <p>108 585 169 169 130 586 170 170 132 587 164 164</p>
          <p>131 588 148 148 117 589 147 147 97 590 167 167</p>
          <p>97 591 167 167 127 592 166 166 131 593 148 148</p>
          <p>132 594 164 164 144 595 152 152 142 596 129 129</p>
          <p>142 597 129 129 128 598 165 165 132 599 164 164</p>
          <p>136 600 134 134 114 601 145 145 104 602 144 144</p>
          <p>104 603 144 144 134 604 131 131 136 605 134 134</p>
          <p>137 606 138 138 122 607 155 155 135 608 156 156</p>
          <p>135 609 156 156 112 610 139 139 137 611 138 138</p>
          <p>124 612 124 124 138 613 157 157 133 614 158 158</p>
          <p>133 615 158 158 102 616 125 125 124 617 124 124</p>
          <p>122 618 155 155 137 619 138 138 102 620 125 125</p>
          <p>102 621 125 125 133 622 158 158 122 623 155 155</p>
          <p>138 624 157 157 124 625 124 124 134 626 131 131</p>
          <p>134 627 131 131 104 628 144 144 138 629 157 157</p>
          <p>139 630 128 128 127 631 166 166 128 632 165 165</p>
          <p>128 633 165 165 142 634 129 129 139 635 128 128</p>
          <p>144 636 152 152 132 637 164 164 130 638 170 170</p>
          <p>130 639 170 170 143 640 153 153 144 641 152 152</p>
          <p>141 642 161 161 131 643 148 148 127 644 166 166</p>
          <p>127 645 166 166 139 646 128 128 141 647 161 161</p>
          <p>141 648 161 161 121 649 143 143 111 650 146 146</p>
          <p>111 651 146 146 140 652 168 168 141 653 161 161</p>
          <p>144 654 152 152 105 655 151 151 125 656 130 130</p>
          <p>125 657 130 130 142 658 129 129 144 659 152 152</p>
          <p>147 660 171 171 172 661 172 172 150 662 173 173</p>
          <p>150 663 173 173 148 664 174 174 147 665 171 171</p>
          <p>149 666 175 175 187 667 176 176 190 668 177 177</p>
          <p>190 669 177 177 173 670 178 178 149 671 175 175</p>
          <p>182 672 179 179 167 673 180 180 157 674 181 181</p>
          <p>157 675 181 181 184 676 182 182 182 677 179 179</p>
          <p>167 678 180 180 171 679 183 183 161 680 184 184</p>
          <p>161 681 184 184 157 682 181 181 167 683 180 180</p>
          <p>168 684 185 185 185 685 186 186 160 686 187 187</p>
          <p>160 687 187 187 158 688 188 188 168 689 185 185</p>
          <p>154 690 189 189 168 691 185 185 158 692 188 188</p>
          <p>158 693 188 188 164 694 190 190 154 695 189 189</p>
          <p>171 696 183 183 154 697 189 189 164 698 190 190</p>
          <p>164 699 190 190 161 700 184 184 171 701 183 183</p>
          <p>169 702 191 191 152 703 192 192 162 704 193 193</p>
          <p>162 705 193 193 159 706 194 194 169 707 191 191</p>
          <p>165 708 195 195 179 709 196 196 177 710 197 197</p>
          <p>177 711 197 197 155 712 198 198 165 713 195 195</p>
          <p>153 714 199 199 192 715 200 200 191 716 201 201</p>
          <p>191 717 201 201 163 718 202 202 153 719 199 199</p>
          <p>170 720 203 203 153 721 199 199 163 722 202 202</p>
          <p>163 723 202 202 183 724 204 204 170 725 203 203</p>
          <p>186 726 205 205 149 727 175 175 173 728 178 178</p>
          <p>173 729 178 178 181 730 206 206 186 731 205 205</p>
          <p>148 732 174 174 174 733 207 207 151 734 208 208</p>
          <p>151 735 208 208 147 736 171 171 148 737 174 174</p>
          <p>147 738 171 171 167 739 180 180 182 740 179 179</p>
          <p>182 741 179 179 172 742 172 172 147 743 171 171</p>
          <p>151 744 208 208 171 745 183 183 167 746 180 180</p>
          <p>167 747 180 180 147 748 171 171 151 749 208 208</p>
          <p>150 750 173 173 185 751 186 186 168 752 185 185</p>
          <p>168 753 185 185 148 754 174 174 150 755 173 173</p>
          <p>148 756 174 174 168 757 185 185 154 758 189 189</p>
          <p>154 759 189 189 174 760 207 207 148 761 174 174</p>
          <p>174 762 207 207 154 763 189 189 171 764 183 183</p>
          <p>171 765 183 183 151 766 208 208 174 767 207 207</p>
          <p>186 768 205 205 152 769 192 192 169 770 191 191</p>
          <p>169 771 191 191 149 772 175 175 186 773 205 205</p>
          <p>149 774 175 175 169 775 191 191 189 776 209 209</p>
          <p>189 777 209 209 187 778 176 176 149 779 175 175</p>
          <p>166 780 210 210 146 781 211 211 180 782 212 212</p>
          <p>180 783 212 212 176 784 213 213 166 785 210 210</p>
          <p>173 786 178 178 153 787 199 199 170 788 203 203</p>
          <p>170 789 203 203 181 790 206 206 173 791 178 178</p>
          <p>175 792 214 214 145 793 215 215 166 794 210 210</p>
          <p>166 795 210 210 176 796 213 213 175 797 214 214</p>
          <p>179 798 196 196 189 799 209 209 188 800 216 216</p>
          <p>188 801 216 216 177 802 197 197 179 803 196 196</p>
          <p>180 804 212 212 146 805 211 211 156 806 217 217</p>
          <p>156 807 217 217 178 808 218 218 180 809 212 212</p>
          <p>179 810 196 196 165 811 195 195 145 812 215 215</p>
          <p>145 813 215 215 175 814 214 214 179 815 196 196</p>
          <p>180 816 212 212 192 817 200 200 190 818 177 177</p>
          <p>190 819 177 177 176 820 213 213 180 821 212 212</p>
          <p>184 822 182 182 162 823 193 193 152 824 192 192</p>
          <p>152 825 192 192 182 826 179 179 184 827 182 182</p>
          <p>185 828 186 186 170 829 203 203 183 830 204 204</p>
          <p>183 831 204 204 160 832 187 187 185 833 186 186</p>
          <p>172 834 172 172 186 835 205 205 181 836 206 206</p>
          <p>181 837 206 206 150 838 173 173 172 839 172 172</p>
          <p>170 840 203 203 185 841 186 186 150 842 173 173</p>
          <p>150 843 173 173 181 844 206 206 170 845 203 203</p>
          <p>186 846 205 205 172 847 172 172 182 848 179 179</p>
          <p>182 849 179 179 152 850 192 192 186 851 205 205</p>
          <p>187 852 176 176 175 853 214 214 176 854 213 213</p>
          <p>176 855 213 213 190 856 177 177 187 857 176 176</p>
          <p>192 858 200 200 180 859 212 212 178 860 218 218</p>
          <p>178 861 218 218 191 862 201 201 192 863 200 200</p>
          <p>189 864 209 209 179 865 196 196 175 866 214 214</p>
          <p>175 867 214 214 187 868 176 176 189 869 209 209</p>
          <p>189 870 209 209 169 871 191 191 159 872 194 194</p>
          <p>159 873 194 194 188 874 216 216 189 875 209 209</p>
          <p>192 876 200 200 153 877 199 199 173 878 178 178</p>
          <p>173 879 178 178 190 880 177 177 192 881 200 200</p>
          <p>195 882 219 219 220 883 220 220 198 884 221 221</p>
          <p>198 885 221 221 196 886 222 222 195 887 219 219</p>
          <p>197 888 223 223 235 889 224 224 238 890 225 225</p>
          <p>238 891 225 225 221 892 226 226 197 893 223 223</p>
          <p>230 894 227 227 215 895 228 228 205 896 229 229</p>
          <p>205 897 229 229 232 898 230 230 230 899 227 227</p>
          <p>215 900 228 228 219 901 231 231 209 902 232 232</p>
          <p>209 903 232 232 205 904 229 229 215 905 228 228</p>
          <p>216 906 233 233 233 907 234 234 208 908 235 235</p>
          <p>208 909 235 235 206 910 236 236 216 911 233 233</p>
          <p>202 912 237 237 216 913 233 233 206 914 236 236</p>
          <p>206 915 236 236 212 916 238 238 202 917 237 237</p>
          <p>219 918 231 231 202 919 237 237 212 920 238 238</p>
          <p>212 921 238 238 209 922 232 232 219 923 231 231</p>
          <p>217 924 239 239 200 925 240 240 210 926 241 241</p>
          <p>210 927 241 241 207 928 242 242 217 929 239 239</p>
          <p>213 930 243 243 227 931 244 244 225 932 245 245</p>
          <p>225 933 245 245 203 934 246 246 213 935 243 243</p>
          <p>201 936 247 247 240 937 248 248 239 938 249 249</p>
          <p>239 939 249 249 211 940 250 250 201 941 247 247</p>
          <p>218 942 251 251 201 943 247 247 211 944 250 250</p>
          <p>211 945 250 250 231 946 252 252 218 947 251 251</p>
          <p>234 948 253 253 197 949 223 223 221 950 226 226</p>
          <p>221 951 226 226 229 952 254 254 234 953 253 253</p>
          <p>196 954 222 222 222 955 255 255 199 956 256 256</p>
          <p>199 957 256 256 195 958 219 219 196 959 222 222</p>
          <p>195 960 219 219 215 961 228 228 230 962 227 227</p>
          <p>230 963 227 227 220 964 220 220 195 965 219 219</p>
          <p>199 966 256 256 219 967 231 231 215 968 228 228</p>
          <p>215 969 228 228 195 970 219 219 199 971 256 256</p>
          <p>198 972 221 221 233 973 234 234 216 974 233 233</p>
          <p>216 975 233 233 196 976 222 222 198 977 221 221</p>
          <p>196 978 222 222 216 979 233 233 202 980 237 237</p>
          <p>202 981 237 237 222 982 255 255 196 983 222 222</p>
          <p>222 984 255 255 202 985 237 237 219 986 231 231</p>
          <p>219 987 231 231 199 988 256 256 222 989 255 255</p>
          <p>234 990 253 253 200 991 240 240 217 992 239 239</p>
          <p>217 993 239 239 197 994 223 223 234 995 253 253</p>
          <p>197 996 223 223 217 997 239 239 237 998 257 257</p>
          <p>237 999 257 257 235 1000 224 224 197 1001 223 223</p>
          <p>214 1002 258 258 194 1003 259 259 228 1004 260 260</p>
          <p>228 1005 260 260 224 1006 261 261 214 1007 258 258</p>
          <p>221 1008 226 226 201 1009 247 247 218 1010 251 251</p>
          <p>218 1011 251 251 229 1012 254 254 221 1013 226 226</p>
          <p>223 1014 262 262 193 1015 263 263 214 1016 258 258</p>
          <p>214 1017 258 258 224 1018 261 261 223 1019 262 262</p>
          <p>227 1020 244 244 237 1021 257 257 236 1022 264 264</p>
          <p>236 1023 264 264 225 1024 245 245 227 1025 244 244</p>
          <p>228 1026 260 260 194 1027 259 259 204 1028 265 265</p>
          <p>204 1029 265 265 226 1030 266 266 228 1031 260 260</p>
          <p>227 1032 244 244 213 1033 243 243 193 1034 263 263</p>
          <p>193 1035 263 263 223 1036 262 262 227 1037 244 244</p>
          <p>228 1038 260 260 240 1039 248 248 238 1040 225 225</p>
          <p>238 1041 225 225 224 1042 261 261 228 1043 260 260</p>
          <p>232 1044 230 230 210 1045 241 241 200 1046 240 240</p>
          <p>200 1047 240 240 230 1048 227 227 232 1049 230 230</p>
          <p>233 1050 234 234 218 1051 251 251 231 1052 252 252</p>
          <p>231 1053 252 252 208 1054 235 235 233 1055 234 234</p>
          <p>220 1056 220 220 234 1057 253 253 229 1058 254 254</p>
          <p>229 1059 254 254 198 1060 221 221 220 1061 220 220</p>
          <p>218 1062 251 251 233 1063 234 234 198 1064 221 221</p>
          <p>198 1065 221 221 229 1066 254 254 218 1067 251 251</p>
          <p>234 1068 253 253 220 1069 220 220 230 1070 227 227</p>
          <p>230 1071 227 227 200 1072 240 240 234 1073 253 253</p>
          <p>235 1074 224 224 223 1075 262 262 224 1076 261 261</p>
          <p>224 1077 261 261 238 1078 225 225 235 1079 224 224</p>
          <p>240 1080 248 248 228 1081 260 260 226 1082 266 266</p>
          <p>226 1083 266 266 239 1084 249 249 240 1085 248 248</p>
          <p>237 1086 257 257 227 1087 244 244 223 1088 262 262</p>
          <p>223 1089 262 262 235 1090 224 224 237 1091 257 257</p>
          <p>237 1092 257 257 217 1093 239 239 207 1094 242 242</p>
          <p>207 1095 242 242 236 1096 264 264 237 1097 257 257</p>
          <p>240 1098 248 248 201 1099 247 247 221 1100 226 226</p>
          <p>221 1101 226 226 238 1102 225 225 240 1103 248 248</p>
        </polygons>
      </mesh>
    </geometry>
  </library_geometries>
  <library_visual_scenes>
    <visual_scene id="RootNode" name="RootNode">
      <node id="generator_habitat_fan" name="generator_habitat_fan">
        <instance_geometry url="#generator_habitat_fan-lib">
          <bind_material>
            <technique_common>
              <instance_material symbol="Material__82" target="#Material__82"/>
            </technique_common>
          </bind_material>
        </instance_geometry>
      </node>
    </visual_scene>
  </library_visual_scenes>
  <scene>
    <instance_visual_scene url="#RootNode"/>
  </scene>
</COLLADA>

