<?xml version="1.0" encoding="utf-8" ?>
<COLLADA xmlns="http://www.collada.org/2005/11/COLLADASchema" version="1.4.1">
    <asset>
        <contributor>
            <authoring_tool>modo 701 [Build 68192], Microsoft Windows 7 Service Pack 1 (6.1.7601 Service Pack 1)</authoring_tool>
            <comments>Plug-in: [Build 68192]; Use Absolute Path: No; Merge Reference Items: No; Save Hidden Items: No; Save Cameras: No; Save Lights: No; Save Locators: Yes; Save Triangles as Triangles: Yes; Order Vertex Maps Alphabetically: Yes; Bake Matrices: No; Save Vertex Normals: Yes; Save UV Texture Coordinates: Yes; Save Vertex Colors: Yes; Save Vertex Weights: Yes; Save Animation: No; Sample Animation: No; Sample Animation Start: 0; Sample Animation End: 1; Save modo Profile: No; Save Maya Profile: No; Save 3ds Max Profile: No; Formatted Arrays: No;</comments>
            <source_data>file:///D:/Work/Dropbox/Frictional%20Games%20-%20Team/Aaron/models/entities/station/machines/generator_habitat/Generator_Habitat.lxo</source_data>
        </contributor>
        <created>2014-09-22T15:16:21Z</created>
        <modified>2014-09-22T15:16:21Z</modified>
        <unit name="game" meter="1" />
        <up_axis>Y_UP</up_axis>
    </asset>
    <library_images>
        <image id="Image0001" name="Image0001">
            <init_from>file:///D:/Work/Dropbox/Frictional%20Games%20-%20Team/Aaron/models/entities/station/machines/generator_habitat/generator_habitat.tga</init_from>
        </image>
    </library_images>
    <library_materials>
        <material id="Material-generator_habitat" name="generator_habitat">
            <instance_effect url="#Effect-generator_habitat" />
        </material>
    </library_materials>
    <library_effects>
        <effect id="Effect-generator_habitat" name="generator_habitat">
            <profile_COMMON>
                <newparam sid="Image0001-surface">
                    <surface type="2D">
                        <init_from>Image0001</init_from>
                        <format>A8R8G8B8</format>
                    </surface>
                </newparam>
                <newparam sid="Image0001-sampler">
                    <sampler2D>
                        <source>Image0001-surface</source>
                        <minfilter>LINEAR_MIPMAP_LINEAR</minfilter>
                        <magfilter>LINEAR</magfilter>
                    </sampler2D>
                </newparam>
                <technique sid="common">
                    <phong>
                        <diffuse>
                            <texture texture="Image0001-sampler" texcoord="Generator_Habitat-lib-UV0" />
                        </diffuse>
                        <specular>
                            <color sid="specular_effect_rgb">0.2 0.2 0.2 1</color>
                        </specular>
                        <shininess>
                            <float sid="specular_effect_rgb">256</float>
                        </shininess>
                        <reflective>
                            <color sid="reflective_effect_rgb">0 0 0 1</color>
                        </reflective>
                        <reflectivity>
                            <float sid="reflectivity_effect_float">1</float>
                        </reflectivity>
                    </phong>
                </technique>
            </profile_COMMON>
        </effect>
    </library_effects>
    <library_geometries>
        <geometry id="Geometry-mesh026" name="fan_unit">
            <mesh>
                <source id="Geometry-mesh026-positions" name="positions">
                    <float_array id="Geometry-mesh026-positions-array" count="780">-0.130684 8.9407e-008 -0.434553 -0.130684 -0.11146 -0.419879 0.130684 -0.11146 -0.419879 0.130684 8.9407e-008 -0.434553 -0.130684 -0.215323 -0.376857 0.130684 -0.215323 -0.376857 -0.130684 -0.304513 -0.308419 0.130684 -0.304513 -0.308419 -0.130684 -0.372951 -0.21923 0.130684 -0.372951 -0.21923 -0.130684 -0.415973 -0.115366 0.130684 -0.415973 -0.115366 -0.130684 -0.430647 -0.00390625 0.130684 -0.430647 -0.00390625 -0.130684 -0.415973 0.107553 0.130684 -0.415973 0.107553 -0.130684 -0.372951 0.211417 0.130684 -0.372951 0.211417 -0.130684 -0.304513 0.300607 0.130684 -0.304513 0.300607 -0.130684 -0.215323 0.369045 0.130684 -0.215323 0.369045 -0.130684 -0.11146 0.412066 0.130684 -0.11146 0.412066 -0.130684 -2.68221e-007 0.42674 0.130684 -2.68221e-007 0.42674 -0.130684 0.111459 0.412066 0.130684 0.111459 0.412066 -0.130684 0.215323 0.369045 0.130684 0.215323 0.369045 -0.130684 0.304513 0.300607 0.130684 0.304513 0.300607 -0.130684 0.372951 0.211417 0.130684 0.372951 0.211417 -0.130684 0.415973 0.107554 0.130684 0.415973 0.107554 -0.130684 0.430647 -0.00390607 0.130684 0.430647 -0.00390607 -0.130684 0.415973 -0.115366 0.130684 0.415973 -0.115366 -0.130684 0.372951 -0.219229 0.130684 0.372951 -0.219229 -0.130684 0.304513 -0.308419 0.130684 0.304513 -0.308419 -0.130684 0.215324 -0.376857 0.130684 0.215324 -0.376857 -0.130684 0.11146 -0.419879 0.130684 0.11146 -0.419879 0.130684 -0.0980844 -0.369962 0.130684 8.9407e-008 -0.382875 0.130684 -0.189485 -0.332103 0.130684 -0.267971 -0.271878 0.130684 -0.328197 -0.193391 0.130684 -0.366056 -0.101991 0.130684 -0.378969 -0.00390625 0.130684 -0.366056 0.094178 0.130684 -0.328197 0.185578 0.130684 -0.267972 0.264065 0.130684 -0.189485 0.32429 0.130684 -0.0980846 0.36215 0.130684 -2.68221e-007 0.375063 0.130684 0.0980842 0.36215 0.130684 0.189484 0.324291 0.130684 0.267971 0.264065 0.130684 0.328197 0.185578 0.130684 0.366056 0.0941783 0.130684 0.378969 -0.00390609 0.130684 0.366056 -0.10199 0.130684 0.328197 -0.193391 0.130684 0.267972 -0.271878 0.130684 0.189485 -0.332103 0.130684 0.0980847 -0.369962 0.130684 0.279715 0.24876 0.130684 0.278511 -0.258142 0.130684 -0.24992 -0.28573 0.130684 0.249527 -0.286031 0.130684 -0.279414 0.249153 0.130684 -0.280318 -0.255788 0.130684 0.250794 0.277246 0.130684 -0.24992 0.277917 0.130684 0.153735 0.149414 0.130684 0.153735 -0.158203 0.130684 -0.152905 0.149414 0.130684 -0.152905 -0.158203 0.130684 0.186938 -0.161133 0.130684 0.158618 -0.194336 0.130684 -0.159741 -0.194336 0.130684 -0.190503 -0.167969 0.130684 -0.190991 0.156738 0.130684 -0.159253 0.184082 0.130684 0.187427 0.154297 0.130684 0.157641 0.183105 0.107247 0.189484 0.324291 0.107247 0.250794 0.277246 0.107247 0.157641 0.183105 0.107247 -0.159253 0.184082 0.107247 -0.24992 0.277917 0.107247 -0.189485 0.32429 0.107247 -0.0980846 0.36215 0.107247 -2.68221e-007 0.375063 0.107247 0.0980842 0.36215 0.107247 -0.152905 -0.158203 0.107247 -0.152905 0.149414 0.107247 0.153735 -0.158203 0.107247 0.153735 0.149414 0.107247 -0.190503 -0.167969 0.107247 -0.280318 -0.255788 0.107247 -0.190991 0.156738 0.107247 -0.279414 0.249153 0.107247 -0.328197 0.185578 0.107247 -0.366056 0.094178 0.107247 -0.378969 -0.00390625 0.107247 -0.366056 -0.101991 0.107247 -0.328197 -0.193391 0.107247 -0.189485 -0.332103 0.107247 -0.24992 -0.28573 0.107247 -0.159741 -0.194336 0.107247 0.158618 -0.194336 0.107247 0.249527 -0.286031 0.107247 0.189485 -0.332103 0.107247 0.0980847 -0.369962 0.107247 8.9407e-008 -0.382875 0.107247 -0.0980844 -0.369962 0.107247 0.187427 0.154297 0.107247 0.279715 0.24876 0.107247 0.186938 -0.161133 0.107247 0.278511 -0.258142 0.107247 0.328197 -0.193391 0.107247 0.366056 -0.10199 0.107247 0.378969 -0.00390609 0.107247 0.366056 0.0941783 0.107247 0.328197 0.185578 -0.0779501 8.27014e-008 -0.398348 -0.0779501 -0.1031 -0.384775 0.130684 -0.1031 -0.384775 0.130684 8.27014e-008 -0.398348 -0.0779501 -0.199174 -0.344979 0.130684 -0.199174 -0.344979 -0.0779501 -0.281675 -0.281675 0.130684 -0.281675 -0.281675 -0.0779501 -0.34498 -0.199174 0.130684 -0.34498 -0.199174 -0.0779501 -0.384775 -0.1031 0.130684 -0.384775 -0.1031 -0.0779501 -0.398348 2.75671e-008 0.130684 -0.398348 2.75671e-008 -0.0779501 -0.384775 0.1031 0.130684 -0.384775 0.1031 -0.0779501 -0.34498 0.199174 0.130684 -0.34498 0.199174 -0.0779501 -0.281675 0.281675 0.130684 -0.281675 0.281675 -0.0779501 -0.199174 0.34498 0.130684 -0.199174 0.34498 -0.0779501 -0.1031 0.384775 0.130684 -0.1031 0.384775 -0.0779501 -2.48104e-007 0.398348 0.130684 -2.48104e-007 0.398348 -0.0779501 0.1031 0.384775 0.130684 0.1031 0.384775 -0.0779501 0.199174 0.34498 0.130684 0.199174 0.34498 -0.0779501 0.281675 0.281675 0.130684 0.281675 0.281675 -0.0779501 0.344979 0.199174 0.130684 0.344979 0.199174 -0.0779501 0.384775 0.1031 0.130684 0.384775 0.1031 -0.0779501 0.398348 1.9297e-007 0.130684 0.398348 1.9297e-007 -0.0779501 0.384775 -0.1031 0.130684 0.384775 -0.1031 -0.0779501 0.34498 -0.199174 0.130684 0.34498 -0.199174 -0.0779501 0.281675 -0.281674 0.130684 0.281675 -0.281674 -0.0779501 0.199174 -0.344979 0.130684 0.199174 -0.344979 -0.0779501 0.1031 -0.384775 0.130684 0.1031 -0.384775 0.107422 -0.359375 -0.21 0.107422 -0.359375 0.21 0.0932617 -0.328125 0.21 0.0932617 -0.328125 -0.21 0.107422 -0.28125 -0.2975 0.107422 -0.28125 0.2975 0.0932617 -0.25 0.2975 0.0932617 -0.25 -0.2975 0.107422 -0.203125 -0.345625 0.107422 -0.203125 0.345625 0.0932617 -0.171875 0.345625 0.0932617 -0.171875 -0.345625 0.107422 -0.125 -0.391562 0.107422 -0.125 0.391562 0.0932617 -0.09375 0.391562 0.0932617 -0.09375 -0.391562 0.107422 -0.046875 -0.400313 0.107422 -0.046875 0.400313 0.0932617 -0.015625 0.400313 0.0932617 -0.015625 -0.400313 0.107422 0.03125 -0.389375 0.107422 0.03125 0.389375 0.0932617 0.0625 0.389375 0.0932617 0.0625 -0.389375 0.107422 0.109375 -0.374063 0.107422 0.109375 0.374063 0.0932617 0.140625 0.374063 0.0932617 0.140625 -0.374063 0.107422 0.1875 -0.343437 0.107422 0.1875 0.343437 0.0932617 0.21875 0.343437 0.0932617 0.21875 -0.343437 0.107422 0.265625 -0.295312 0.107422 0.265625 0.295312 0.0932617 0.296875 0.295312 0.0932617 0.296875 -0.295312 0.107422 0.34375 -0.18375 0.107422 0.34375 0.18375 0.0932617 0.375 0.18375 0.0932617 0.375 -0.18375 0.107422 -0.359375 -0.21 0.107422 -0.359375 0.21 0.0932617 -0.328125 0.21 0.0932617 -0.328125 -0.21 0.107422 -0.28125 -0.2975 0.107422 -0.28125 0.2975 0.0932617 -0.25 0.2975 0.0932617 -0.25 -0.2975 0.107422 -0.203125 -0.345625 0.107422 -0.203125 0.345625 0.0932617 -0.171875 0.345625 0.0932617 -0.171875 -0.345625 0.107422 -0.125 -0.391562 0.107422 -0.125 0.391562 0.0932617 -0.09375 0.391562 0.0932617 -0.09375 -0.391562 0.107422 -0.046875 -0.400313 0.107422 -0.046875 0.400313 0.0932617 -0.015625 0.400313 0.0932617 -0.015625 -0.400313 0.107422 0.03125 -0.389375 0.107422 0.03125 0.389375 0.0932617 0.0625 0.389375 0.0932617 0.0625 -0.389375 0.107422 0.109375 -0.374063 0.107422 0.109375 0.374063 0.0932617 0.140625 0.374063 0.0932617 0.140625 -0.374063 0.107422 0.1875 -0.343437 0.107422 0.1875 0.343437 0.0932617 0.21875 0.343437 0.0932617 0.21875 -0.343437 0.107422 0.265625 -0.295312 0.107422 0.265625 0.295312 0.0932617 0.296875 0.295312 0.0932617 0.296875 -0.295312 0.107422 0.34375 -0.18375 0.107422 0.34375 0.18375 0.0932617 0.375 0.18375 0.0932617 0.375 -0.18375</float_array>
                    <technique_common>
                        <accessor count="260" source="#Geometry-mesh026-positions-array" stride="3">
                            <param name="X" type="float" />
                            <param name="Y" type="float" />
                            <param name="Z" type="float" />
                        </accessor>
                    </technique_common>
                </source>
                <source id="Geometry-mesh026-normals" name="normals">
                    <float_array id="Geometry-mesh026-normals-array" count="486">1 0 0 0 -0.675426 -0.737428 0 -0.737428 -0.675426 0 -0.843272 -0.537487 0 -0.887114 -0.461551 0 -0.737428 0.675426 0 -0.675426 0.737428 0 -0.537488 0.843271 0 -0.461552 0.887113 0 -0.461551 -0.887114 0 -0.537487 -0.843272 7.07675e-008 -0.887114 0.461551 0 -0.843272 0.537487 0 0.887114 -0.46155 0 0.843272 -0.537487 0 0.737428 -0.675425 0 0.675426 -0.737427 0 -0.300919 0.95365 0 -0.216223 0.976344 0 0.719144 0.694861 0 0.0438421 -0.999038 0 -0.043842 -0.999038 0 -0.216222 -0.976344 0 -0.300918 -0.95365 0 -1 0 0 -0.722538 -0.691331 0 0.95365 0.300918 0 0.976344 0.216222 0 0.999038 0.0438421 0 0.999039 -0.0438417 0 0.711825 -0.702357 0 -0.537488 0.843272 0 -0.461551 0.887114 0 -0.300919 0.95365 0 -0.216223 0.976344 0 0.715293 -0.698825 0 -0.976344 0.216221 0 -0.95365 0.300918 0 -0.887114 0.46155 0 -0.843272 0.537487 0 -0.793354 -0.608761 0 -0.887114 -0.461551 0 0.675426 0.737428 0 0.843272 0.537487 0 0.737428 0.675426 0 0.887114 0.461551 0 0.737428 -0.675426 0 0.537488 -0.843271 0 0.675426 -0.737428 0 0.461552 -0.887113 0 0.461551 0.887114 0 0.537487 0.843272 -4.43273e-008 0.887114 -0.461551 0 0.843272 -0.537487 0 -0.887114 0.46155 0 -0.737428 0.675425 0 -0.843272 0.537487 0 -0.675426 0.737427 0 0.300919 -0.95365 0 0.216223 -0.976344 -0.910853 -0.41273 0 -0.910853 -0.41273 0 0.910853 0.41273 0 0.910853 0.41273 0 0 0.976344 -0.216221 0 0.95365 -0.300918 0 -1 -1.65327e-007 1.10139e-007 -0.965926 0.258819 5.7012e-008 -1 -2.96837e-007 2.20277e-007 -0.965926 0.258819 0 0.999038 0.0438423 0 0.999039 -0.0438414 0 -0.95365 -0.300918 0 -0.976344 -0.216222 0 0.95365 0.300919 0 0.976344 0.216222 0 0.00308165 0.999995 0 0.300919 -0.95365 0 0.216223 -0.976344 0 0 1 0 -0.999999 -0.00150376 0 0.976344 -0.216222 0 0.95365 -0.300918 0 0.461551 0.887114 0 0.537487 0.843272 0 0.608761 0.793353 0 -0.608762 0.793353 0 0.216222 0.976344 0 0.300918 0.95365 0 -0.793354 0.60876 0 -0.95365 -0.300919 0 -0.976344 -0.216223 0 -0.976344 0.216221 0 -0.95365 0.300917 0 1 1.42783e-007 -3.57111e-008 1 2.14174e-007 -6.89886e-008 0.965926 -0.258819 -1.37977e-007 0.965926 -0.258819 0 -0.999038 -0.0438423 0 -0.999039 0.0438416 0 0.95365 0.300918 0 0.976344 0.216222 0 -0.95365 -0.300919 0 -0.976344 -0.216222 0 0.843272 0.537487 0 0.887114 0.461551 7.8622e-008 0.216223 -0.976344 7.8622e-008 0.300919 -0.95365 5.86257e-008 0.461551 -0.887114 0 0.675425 0.737428 0 0.737428 0.675426 0 0.46155 0.887114 0 0.537487 0.843272 0 -0.216222 -0.976344 0 -0.300918 -0.95365 0 -0.710826 0.703368 0 0.537488 -0.843271 0 0.461552 -0.887113 0 1 0 0 -0.69912 0.715004 0 0.887114 -0.461551 0 0.843272 -0.537488 0 0.793353 0.608761 0 0.843272 0.537488 0 0.887114 0.461551 0 -0.710141 -0.704059 0 -0.0438426 0.999038 0 0.0438419 0.999038 0 0.72719 0.686436 0 -0.999038 -0.0438425 0 -0.999039 0.0438414 0 -0.843272 -0.537487 0 -0.887114 -0.461551 -9.23386e-008 -0.216223 0.976344 -6.88535e-008 -0.461551 0.887114 -9.23386e-008 -0.300919 0.95365 0 -0.537488 0.843271 0 -0.675425 -0.737428 0 -0.737428 -0.675426 0 -0.46155 -0.887114 0 -0.537486 -0.843272 0 0.216223 0.976344 0 0.300919 0.95365 0 0.216222 0.976344 0 0.300918 0.95365 1.99963e-008 0.0438425 -0.999038 0 -0.0438419 -0.999038 0 -0.0438421 0.999038 0 0.043842 0.999038 0 -0.46155 -0.887114 0 -0.537487 -0.843272 0 -0.608761 -0.793354 0 0.608762 -0.793353 0 0 -1 0 0.793353 -0.608762 0 0.999999 -0.00154799 0 -0.216222 -0.976344 0 -0.300918 -0.95365 -2.3485e-008 -0.0438429 0.999038 0 0.043842 0.999038 0 0.0438421 -0.999038 0 -0.043842 -0.999038</float_array>
                    <technique_common>
                        <accessor count="162" source="#Geometry-mesh026-normals-array" stride="3">
                            <param name="X" type="float" />
                            <param name="Y" type="float" />
                            <param name="Z" type="float" />
                        </accessor>
                    </technique_common>
                </source>
                <source id="Geometry-mesh026-Generator_Habitat-lib-UV0" name="Generator_Habitat-lib-UV0">
                    <float_array id="Geometry-mesh026-Generator_Habitat-lib-UV0-array" count="496">0.734737 0.734761 0.739041 0.735926 0.735087 0.742673 0.734736 0.66169 0.7359 0.65273 0.739038 0.660063 0.698082 0.661686 0.693952 0.660173 0.697209 0.652609 0.698082 0.734761 0.697501 0.74279 0.694069 0.735692 0.684419 0.761988 0.682848 0.757894 0.686243 0.764786 0.682768 0.638572 0.684419 0.634271 0.686197 0.631543 0.748282 0.634271 0.749931 0.638572 0.746364 0.631328 0.748282 0.761988 0.746645 0.764499 0.749967 0.757592 0.667836 0.08522 0.64003 0.08522 0.667836 0.061301 0.64003 0.061301 0.667836 0.515786 0.64003 0.515786 0.667836 0.491865 0.64003 0.491865 0.667836 0.109139 0.64003 0.109139 0.667836 0.539705 0.64003 0.539705 0.667836 0.252662 0.64003 0.252662 0.667836 0.228741 0.64003 0.228741 0.667836 0.467945 0.64003 0.467945 0.703069 0.797256 0.690692 0.787005 0.704661 0.785363 0.693775 0.776336 0.666784 0.671567 0.671912 0.646814 0.672736 0.674747 0.67724 0.652972 0.742006 0.60925 0.738926 0.619916 0.72963 0.598999 0.728038 0.610888 0.760789 0.74944 0.755452 0.743284 0.765914 0.724689 0.759969 0.721498 0.752633 0.770695 0.680066 0.625558 0.860397 0.379063 0.851026 0.379063 0.860397 0.315079 0.851026 0.315079 0.864903 0.395233 0.874807 0.395233 0.864903 0.443678 0.874807 0.443678 0.850655 0.316752 0.860528 0.316752 0.850655 0.467116 0.860528 0.467116 0.852681 0.315079 0.860805 0.315079 0.852679 0.379063 0.860804 0.379063 0.852008 0.315079 0.860886 0.315079 0.852008 0.379063 0.860886 0.379063 0.874807 0.492126 0.864903 0.492126 0.859863 0.379063 0.851741 0.379063 0.859864 0.315079 0.851742 0.315079 0.864903 0.259212 0.874807 0.259212 0.864903 0.298354 0.874807 0.298354 0.801848 0.86647 0.749267 0.86647 0.801848 0.876274 0.749267 0.876274 0.804012 0.885269 0.747104 0.885269 0.804012 0.895073 0.747104 0.895073 0.791532 0.86647 0.791532 0.876274 0.759584 0.86647 0.759584 0.876274 0.806008 0.885269 0.806008 0.895073 0.745107 0.885269 0.745107 0.895073 0.798021 0.86647 0.798021 0.876274 0.753094 0.86647 0.753094 0.876274 0.667836 0.276581 0.64003 0.276581 0.64003 0.587547 0.64003 0.563626 0.667836 0.587547 0.667836 0.563626 0.667836 0.300503 0.64003 0.300503 0.667836 0.03738 0.64003 0.03738 0.667836 0.013458 0.64003 0.013458 0.667836 0.324424 0.64003 0.324424 0.71635 0.800753 0.716348 0.788437 0.665036 0.698126 0.671192 0.698133 0.71635 0.5955 0.716348 0.607823 0.767663 0.698126 0.761504 0.698133 0.752633 0.625558 0.760789 0.646814 0.755452 0.652972 0.680066 0.770695 0.671912 0.74944 0.67724 0.743284 0.860396 0.469014 0.851025 0.469014 0.860397 0.313643 0.851026 0.313643 0.864903 0.346793 0.874807 0.346793 0.852679 0.313643 0.860804 0.313643 0.852681 0.469014 0.860805 0.469014 0.874807 0.530648 0.864903 0.530648 0.798188 0.875747 0.752928 0.875747 0.798188 0.885552 0.752928 0.885552 0.805176 0.856948 0.745939 0.856948 0.805176 0.866753 0.745939 0.866753 0.789535 0.875747 0.761581 0.875747 0.789535 0.885552 0.761581 0.885552 0.805343 0.875747 0.805343 0.885552 0.745773 0.875747 0.745773 0.885552 0.801682 0.875747 0.801682 0.885552 0.749434 0.875747 0.749434 0.885552 0.667836 0.348344 0.64003 0.348344 0.64003 0.180901 0.667836 0.180901 0.64003 0.204822 0.667836 0.204822 0.667836 0.372263 0.64003 0.372263 0.667836 0.396184 0.64003 0.396184 0.667836 0.13306 0.64003 0.13306 0.72963 0.797256 0.728038 0.785363 0.666784 0.724689 0.672736 0.721498 0.703069 0.598999 0.704661 0.610888 0.765914 0.671567 0.759969 0.674747 0.742006 0.787005 0.738926 0.776336 0.860397 0.467784 0.851025 0.467784 0.860396 0.402466 0.851025 0.402466 0.852681 0.402466 0.860805 0.402466 0.852681 0.467784 0.860805 0.467784 0.852009 0.402466 0.860887 0.402466 0.852008 0.467784 0.860886 0.467784 0.859864 0.467784 0.851742 0.467784 0.859864 0.402466 0.851741 0.402466 0.667836 0.420105 0.64003 0.420105 0.667836 0.156982 0.64003 0.156982 0.667836 0.444024 0.64003 0.444024 0.690692 0.60925 0.693775 0.619916 0.852008 0.313643 0.860886 0.313643 0.852009 0.469014 0.860887 0.469014 0.859864 0.469014 0.851741 0.469014 0.859863 0.313643 0.851741 0.313643 0.810172 0.883789 0.80902 0.90231 0.80902 0.865267 0.805643 0.848008 0.805643 0.919569 0.800271 0.833187 0.800271 0.93439 0.79327 0.821815 0.79327 0.945762 0.785117 0.814666 0.785116 0.952911 0.776367 0.812228 0.776367 0.95535 0.767618 0.814666 0.767618 0.952911 0.759465 0.821815 0.759465 0.945762 0.752463 0.833187 0.752463 0.93439 0.747091 0.848008 0.747091 0.919569 0.743714 0.865267 0.743714 0.90231 0.742562 0.883789</float_array>
                    <technique_common>
                        <accessor count="248" source="#Geometry-mesh026-Generator_Habitat-lib-UV0-array" stride="2">
                            <param name="S" type="float" />
                            <param name="T" type="float" />
                        </accessor>
                    </technique_common>
                </source>
                <vertices id="Geometry-mesh026-vertices">
                    <input semantic="POSITION" source="#Geometry-mesh026-positions" />
                </vertices>
                <triangles count="318" material="Material-generator_habitat">
                    <input semantic="VERTEX" source="#Geometry-mesh026-vertices" offset="0" />
                    <input semantic="NORMAL" source="#Geometry-mesh026-normals" offset="1" />
                    <input semantic="TEXCOORD" source="#Geometry-mesh026-Generator_Habitat-lib-UV0" offset="2" set="0" />
                    <p>81 0 0 85 0 1 84 0 2 83 0 3 87 0 4 86 0 5 82 0 6 89 0 7 88 0 8 80 0 9 90 0 10 91 0 11 91 0 11 90 0 10 63 0 12 63 0 12 78 0 13 91 0 11 90 0 10 72 0 14 63 0 12 89 0 7 79 0 15 57 0 16 57 0 16 88 0 8 89 0 7 88 0 8 57 0 16 76 0 17 86 0 5 87 0 4 51 0 18 51 0 18 74 0 19 86 0 5 87 0 4 77 0 20 51 0 18 84 0 2 85 0 1 69 0 21 69 0 21 73 0 22 84 0 2 85 0 1 75 0 23 69 0 21 6 1 24 7 2 25 8 3 26 9 4 27 8 3 26 7 2 25 18 5 28 19 6 29 20 7 30 21 8 31 20 7 30 19 6 29 4 9 32 5 10 33 6 1 24 7 2 25 6 1 24 5 10 33 16 11 34 17 12 35 18 5 28 19 6 29 18 5 28 17 12 35 40 13 36 41 14 37 42 15 38 43 16 39 42 15 38 41 14 37 20 7 30 21 8 31 22 17 40 23 18 41 22 17 40 21 8 31 35 0 42 33 0 43 65 0 44 64 0 45 65 0 44 33 0 43 23 0 46 21 0 47 59 0 48 58 0 49 59 0 48 21 0 47 9 0 50 52 0 51 11 0 52 53 0 53 11 0 52 52 0 51 45 0 54 70 0 55 47 0 56 71 0 57 47 0 56 70 0 55 70 0 55 45 0 54 43 0 58 43 0 58 69 0 21 75 0 23 43 0 58 75 0 23 70 0 55 21 0 47 19 0 59 57 0 16 79 0 15 58 0 49 21 0 47 57 0 16 79 0 15 21 0 47 88 0 8 87 0 4 82 0 6 83 0 3 82 0 6 87 0 4 89 19 60 95 19 61 79 19 62 96 19 63 79 19 62 95 19 61 60 20 64 99 21 65 61 22 66 100 23 67 61 22 66 99 21 65 80 24 68 104 24 69 81 24 70 103 24 71 81 24 70 104 24 69 76 25 72 108 25 73 88 25 74 107 25 75 88 25 74 108 25 73 53 26 67 112 27 66 54 28 65 111 29 64 54 28 65 112 27 66 74 30 76 115 30 77 86 30 78 116 30 79 86 30 78 115 30 77 70 31 80 119 32 81 71 33 67 120 34 66 71 33 67 119 32 81 90 35 82 123 35 83 72 35 84 124 35 85 72 35 84 123 35 83 67 36 66 128 37 67 68 38 81 127 39 80 68 38 81 128 37 67 72 40 86 124 40 87 64 3 88 131 41 89 64 3 88 124 40 87 138 42 24 140 43 26 139 44 25 141 45 27 139 44 25 140 43 26 150 46 28 152 47 30 151 48 29 153 49 31 151 48 29 152 47 30 136 50 32 138 42 24 137 51 33 139 44 25 137 51 33 138 42 24 148 52 34 150 46 28 149 53 35 151 48 29 149 53 35 150 46 28 172 54 36 174 55 38 173 56 37 175 57 39 173 56 37 174 55 38 152 47 30 154 58 40 153 49 31 155 59 41 153 49 31 154 58 40 188 60 90 189 60 91 191 60 92 190 60 93 191 60 92 189 60 91 204 61 94 205 61 95 207 61 96 206 61 97 207 61 96 205 61 95 220 62 98 223 62 99 221 62 100 222 62 101 221 62 100 223 62 99 236 63 102 239 63 103 237 63 104 238 63 105 237 63 104 239 63 103 252 63 106 255 63 107 253 63 108 254 63 109 253 63 108 255 63 107 38 64 110 39 65 111 40 13 36 41 14 37 40 13 36 39 65 111 13 66 112 15 67 113 12 68 114 14 69 115 12 68 114 15 67 113 36 70 116 37 71 117 38 64 110 39 65 111 38 64 110 37 71 117 10 72 118 11 73 119 12 68 120 13 66 121 12 68 120 11 73 119 34 74 122 35 75 123 36 70 116 37 71 117 36 70 116 35 75 123 14 69 115 15 67 113 16 11 34 17 12 35 16 11 34 15 67 113 35 0 42 65 0 44 37 0 124 66 0 125 37 0 124 65 0 44 25 0 126 23 0 46 60 0 127 59 0 48 60 0 127 23 0 46 13 0 128 11 0 52 54 0 129 53 0 53 54 0 129 11 0 52 3 0 130 47 0 56 49 0 131 71 0 57 49 0 131 47 0 56 51 0 18 7 0 132 5 0 133 5 0 133 50 0 134 74 0 19 5 0 133 74 0 19 51 0 18 63 0 12 31 0 135 29 0 136 29 0 136 62 0 137 78 0 13 29 0 136 78 0 13 63 0 12 89 0 7 82 0 6 91 0 11 80 0 9 91 0 11 82 0 6 91 76 138 94 76 139 89 76 140 95 76 141 89 76 140 94 76 139 59 77 142 98 78 143 60 20 64 99 21 65 60 20 64 98 78 143 81 79 71 103 79 70 83 79 69 101 79 68 83 79 69 103 79 70 88 80 144 107 80 145 87 80 146 105 80 147 87 80 146 107 80 145 54 28 65 111 29 64 55 81 143 110 82 142 55 81 143 111 29 64 50 83 89 114 84 88 74 85 87 115 85 86 74 85 87 114 84 88 75 86 148 118 86 149 70 31 80 119 32 81 70 31 80 118 86 149 48 87 143 122 88 142 50 83 89 114 84 88 50 83 89 122 88 142 68 38 81 127 39 80 73 89 149 126 89 148 73 89 149 127 39 80 64 3 88 131 41 89 65 90 142 130 91 143 65 90 142 131 41 89 170 92 110 172 54 36 171 93 111 173 56 37 171 93 111 172 54 36 145 94 112 144 95 114 147 96 113 146 97 115 147 96 113 144 95 114 168 98 116 170 92 110 169 99 117 171 93 111 169 99 117 170 92 110 142 100 118 144 95 120 143 101 119 145 94 121 143 101 119 144 95 120 166 102 122 168 98 116 167 103 123 169 99 117 167 103 123 168 98 116 146 97 115 148 52 34 147 96 113 149 53 35 147 96 113 148 52 34 184 60 150 185 60 151 187 60 152 186 60 153 187 60 152 185 60 151 200 61 154 201 61 155 203 61 156 202 61 157 203 61 156 201 61 155 216 60 158 217 60 159 219 60 160 218 60 161 219 60 160 217 60 159 232 63 162 235 63 163 233 63 164 234 63 165 233 63 164 235 63 163 248 63 166 251 63 167 249 63 168 250 63 169 249 63 168 251 63 167 32 104 170 33 105 171 34 74 122 35 75 123 34 74 122 33 105 171 47 106 172 46 107 173 45 108 174 44 47 175 45 108 174 46 107 173 30 109 176 31 110 177 32 104 170 33 105 171 32 104 170 31 110 177 42 15 38 43 16 39 44 47 175 45 108 174 44 47 175 43 16 39 28 111 178 29 112 179 30 109 176 31 110 177 30 109 176 29 112 179 1 113 180 2 114 181 4 9 32 5 10 33 4 9 32 2 114 181 39 0 182 37 0 124 67 0 183 66 0 125 67 0 183 37 0 124 27 0 184 25 0 126 61 0 185 60 0 127 61 0 185 25 0 126 13 0 128 54 0 129 15 0 186 55 0 187 15 0 186 54 0 129 2 0 188 3 0 130 48 0 189 49 0 131 48 0 189 3 0 130 43 0 58 41 0 190 68 0 191 43 0 58 68 0 191 73 0 22 73 0 22 69 0 21 43 0 58 9 0 50 7 0 132 51 0 18 77 0 20 52 0 51 9 0 50 51 0 18 77 0 20 9 0 50 86 0 5 85 0 1 83 0 3 81 0 0 83 0 3 85 0 1 90 0 10 80 0 9 84 0 2 81 0 0 84 0 2 80 0 9 78 115 192 93 115 193 91 115 194 94 115 195 91 115 194 93 115 193 58 116 88 97 117 89 59 77 142 98 78 143 59 77 142 97 117 89 83 118 68 101 118 69 82 118 70 102 118 71 82 118 70 101 118 69 87 119 196 105 119 197 77 119 198 106 119 199 77 119 198 105 119 197 55 81 143 110 82 142 56 120 89 109 121 88 56 120 89 110 82 142 77 122 148 106 122 149 52 123 80 113 124 81 52 123 80 106 122 149 85 125 200 117 125 201 75 125 202 118 125 203 75 125 202 117 125 201 49 126 65 121 127 64 48 87 143 122 88 142 48 87 143 121 127 64 73 128 204 126 128 205 84 128 206 125 128 207 84 128 206 126 128 205 65 90 142 130 91 143 66 129 64 129 130 65 66 129 64 130 91 143 164 131 170 166 102 122 165 132 171 167 103 123 165 132 171 166 102 122 179 133 172 177 134 174 178 135 173 176 136 175 178 135 173 177 134 174 162 137 176 164 131 170 163 138 177 165 132 171 163 138 177 164 131 170 174 55 38 176 136 175 175 57 39 177 134 174 175 57 39 176 136 175 160 139 178 162 137 176 161 140 179 163 138 177 161 140 179 162 137 176 133 141 180 136 50 32 134 142 181 137 51 33 134 142 181 136 50 32 180 61 98 181 61 100 183 61 99 182 61 101 183 61 99 181 61 100 196 60 102 197 60 104 199 60 103 198 60 105 199 60 103 197 60 104 212 60 106 213 60 108 215 60 107 214 60 109 215 60 107 213 60 108 228 63 90 231 63 92 229 63 91 230 63 93 229 63 91 231 63 92 244 62 94 247 62 96 245 62 95 246 62 97 245 62 95 247 62 96 26 143 208 27 144 209 28 111 178 29 112 179 28 111 178 27 144 209 0 145 210 3 146 211 1 113 180 2 114 181 1 113 180 3 146 211 24 147 212 25 148 213 26 143 208 27 144 209 26 143 208 25 148 213 46 107 173 47 106 172 0 145 210 3 146 211 0 145 210 47 106 172 22 17 40 23 18 41 24 147 212 25 148 213 24 147 212 23 18 41 8 3 26 9 4 27 10 72 118 11 73 119 10 72 118 9 4 27 41 0 190 39 0 182 68 0 191 67 0 183 68 0 191 39 0 182 29 0 136 27 0 184 62 0 137 61 0 185 62 0 137 27 0 184 17 0 214 15 0 186 56 0 215 55 0 187 56 0 215 15 0 186 5 0 133 2 0 188 50 0 134 48 0 189 50 0 134 2 0 188 33 0 43 31 0 135 63 0 12 72 0 14 64 0 45 33 0 43 33 0 43 63 0 12 72 0 14 19 0 59 17 0 214 56 0 215 19 0 59 56 0 215 76 0 17 19 0 59 76 0 17 57 0 16 62 149 81 92 150 80 78 151 149 93 151 148 78 151 149 92 150 80 79 152 86 96 152 87 58 116 88 97 117 89 58 116 88 96 152 87 61 22 66 100 23 67 62 149 81 92 150 80 62 149 81 100 23 67 82 153 68 102 153 69 80 153 70 104 153 71 80 153 70 102 153 69 56 120 89 109 121 88 76 154 87 108 154 86 76 154 87 109 121 88 52 123 80 113 124 81 53 26 67 112 27 66 53 26 67 113 124 81 86 153 216 116 153 217 85 153 218 117 153 219 85 153 218 116 153 217 71 33 67 120 34 66 49 126 65 121 127 64 49 126 65 120 34 66 84 155 220 125 155 221 90 155 222 123 155 223 90 155 222 125 155 221 66 129 64 129 130 65 67 36 66 128 37 67 67 36 66 129 130 65 158 156 208 160 139 178 159 157 209 161 140 179 159 157 209 160 139 178 132 158 210 133 141 180 135 159 211 134 142 181 135 159 211 133 141 180 156 160 212 158 156 208 157 161 213 159 157 209 157 161 213 158 156 208 178 135 173 132 158 210 179 133 172 135 159 211 179 133 172 132 158 210 154 58 40 156 160 212 155 59 41 157 161 213 155 59 41 156 160 212 140 43 26 142 100 118 141 45 27 143 101 119 141 45 27 142 100 118 132 0 224 178 0 225 133 0 226 136 0 227 133 0 226 178 0 225 178 0 225 176 0 228 136 0 227 138 0 229 136 0 227 176 0 228 176 0 228 174 0 230 138 0 229 140 0 231 138 0 229 174 0 230 174 0 230 172 0 232 140 0 231 142 0 233 140 0 231 172 0 232 172 0 232 170 0 234 142 0 233 144 0 235 142 0 233 170 0 234 170 0 234 168 0 236 144 0 235 146 0 237 144 0 235 168 0 236 168 0 236 166 0 238 146 0 237 148 0 239 146 0 237 166 0 238 166 0 238 164 0 240 148 0 239 150 0 241 148 0 239 164 0 240 164 0 240 162 0 242 150 0 241 152 0 243 150 0 241 162 0 242 162 0 242 160 0 244 152 0 243 154 0 245 152 0 243 160 0 244 160 0 244 158 0 246 154 0 245 156 0 247 154 0 245 158 0 246 192 60 162 193 60 164 195 60 163 194 60 165 195 60 163 193 60 164 208 60 166 209 60 168 211 60 167 210 60 169 211 60 167 209 60 168 224 63 150 227 63 152 225 63 151 226 63 153 225 63 151 227 63 152 240 62 154 243 62 156 241 62 155 242 62 157 241 62 155 243 62 156 256 63 158 259 63 160 257 63 159 258 63 161 257 63 159 259 63 160</p>
                </triangles>
            </mesh>
        </geometry>
    </library_geometries>
    <library_visual_scenes>
        <visual_scene id="DefaultScene">
            <node id="Geometry-mesh026Node" name="fan_unit" type="NODE">
                <instance_geometry url="#Geometry-mesh026">
                    <bind_material>
                        <technique_common>
                            <instance_material symbol="Material-generator_habitat" target="#Material-generator_habitat">
                                <bind_vertex_input semantic="Generator_Habitat-lib-UV0" input_semantic="TEXCOORD" input_set="0" />
                            </instance_material>
                        </technique_common>
                    </bind_material>
                </instance_geometry>
            </node>
            <node id="groupLocator025Node" name="Texture_Group" type="NODE">
                <node id="txtrLocator021Node" name="generator_habitat__Image___Texture_" type="NODE">
                    <translate sid="translation024">0 0 0</translate>
                    <rotate sid="rotation023Y">0 1 0 0</rotate>
                    <rotate sid="rotation023X">1 0 0 0</rotate>
                    <rotate sid="rotation023Z">0 0 1 0</rotate>
                    <scale sid="scale022">1 1 1</scale>
                </node>
            </node>
        </visual_scene>
    </library_visual_scenes>
    <scene>
        <instance_visual_scene url="#DefaultScene" />
    </scene>
</COLLADA>
