<?xml version="1.0" encoding="utf-8"?>
<COLLADA xmlns="http://www.collada.org/2005/11/COLLADASchema" version="1.4.0">
  <asset>
    <contributor>
      <author></author>
      <authoring_tool>FBX COLLADA exporter</authoring_tool>
      <comments></comments>
    </contributor>
    <created>2012-11-07T10:03:28Z</created>
    <modified>2012-11-07T10:03:28Z</modified>
    <revision></revision>
    <title></title>
    <subject></subject>
    <keywords></keywords>
    <unit meter="0.010000"/>
    <up_axis>Z_UP</up_axis>
  </asset>
  <library_images>
    <image id="Map__5-image" name="Map__5">
      <init_from>file://D:\Work\artbully\frictional\Project_Depth_Tools\tools\entities\Machine\generator_habitat\Generator_Habitat.dds</init_from>
    </image>
    <image id="Map__6-image" name="Map__6">
      <init_from>file://D:\Work\artbully\frictional\Project_Depth_Tools\tools\entities\Machine\generator_habitat\generator_habitat_illum.dds</init_from>
    </image>
    <image id="Map__7-image" name="Map__7">
      <init_from>file://D:\Work\artbully\frictional\Project_Depth_Tools\tools\entities\Machine\generator_habitat\generator_habitat_spec.dds</init_from>
    </image>
  </library_images>
  <library_materials>
    <material id="Material__82" name="Material__82">
      <instance_effect url="#Material__82-fx"/>
    </material>
  </library_materials>
  <library_effects>
    <effect id="Material__82-fx" name="Material__82">
      <profile_COMMON>
        <technique sid="standard">
          <phong>
            <emission>
              <texture texture="Map__6-image" texcoord="CHANNEL0">
                <extra>
                  <technique profile="MAYA">
                    <wrapU sid="wrapU0">TRUE</wrapU>
                    <wrapV sid="wrapV0">TRUE</wrapV>
                    <blend_mode>ADD</blend_mode>
                  </technique>
                </extra>
              </texture>
            </emission>
            <ambient>
              <color sid="ambient">0.588000  0.588000 0.588000 1.000000</color>
            </ambient>
            <diffuse>
              <texture texture="Map__5-image" texcoord="CHANNEL0">
                <extra>
                  <technique profile="MAYA">
                    <wrapU sid="wrapU0">TRUE</wrapU>
                    <wrapV sid="wrapV0">TRUE</wrapV>
                    <blend_mode>ADD</blend_mode>
                  </technique>
                </extra>
              </texture>
            </diffuse>
            <specular>
              <texture texture="Map__7-image" texcoord="CHANNEL0">
                <extra>
                  <technique profile="MAYA">
                    <wrapU sid="wrapU0">TRUE</wrapU>
                    <wrapV sid="wrapV0">TRUE</wrapV>
                    <blend_mode>ADD</blend_mode>
                  </technique>
                </extra>
              </texture>
            </specular>
            <shininess>
              <float sid="shininess">2.000000</float>
            </shininess>
            <reflective>
              <color sid="reflective">0.000000  0.000000 0.000000 1.000000</color>
            </reflective>
            <reflectivity>
              <float sid="reflectivity">1.000000</float>
            </reflectivity>
            <transparent>
              <color sid="transparent">1.000000  1.000000 1.000000 1.000000</color>
            </transparent>
            <transparency>
              <float sid="transparency">0.000000</float>
            </transparency>
          </phong>
        </technique>
      </profile_COMMON>
    </effect>
  </library_effects>
  <library_geometries>
    <geometry id="generator_habitat_button-lib" name="generator_habitat_buttonMesh">
      <mesh>
        <source id="generator_habitat_button-lib-Position">
          <float_array id="generator_habitat_button-lib-Position-array" count="24">
113.711723 103.017784 94.369202
113.711723 103.017784 102.303925
113.711723 92.589539 102.303925
113.711723 92.589539 94.369202
116.180725 102.291779 95.095200
116.180725 102.291779 101.577911
116.180725 93.315544 101.577911
116.180725 93.315544 95.095200
</float_array>
          <technique_common>
            <accessor source="#generator_habitat_button-lib-Position-array" count="8" stride="3">
              <param name="X" type="float"/>
              <param name="Y" type="float"/>
              <param name="Z" type="float"/>
            </accessor>
          </technique_common>
        </source>
        <source id="generator_habitat_button-lib-Normal0">
          <float_array id="generator_habitat_button-lib-Normal0-array" count="90">
0.721860 0.489345 -0.489346
0.721861 0.489345 0.489344
0.721861 -0.489345 0.489344
0.721861 -0.489345 0.489344
0.721860 -0.489345 -0.489346
0.721860 0.489345 -0.489346
0.383969 0.652905 -0.652904
0.383972 0.652903 0.652904
0.721861 0.489345 0.489344
0.721861 0.489345 0.489344
0.721860 0.489345 -0.489346
0.383969 0.652905 -0.652904
0.383972 0.652903 0.652904
0.383972 -0.652903 0.652904
0.721861 -0.489345 0.489344
0.721861 -0.489345 0.489344
0.721861 0.489345 0.489344
0.383972 0.652903 0.652904
0.383972 -0.652903 0.652904
0.383969 -0.652905 -0.652904
0.721860 -0.489345 -0.489346
0.721860 -0.489345 -0.489346
0.721861 -0.489345 0.489344
0.383972 -0.652903 0.652904
0.383969 -0.652905 -0.652904
0.383969 0.652905 -0.652904
0.721860 0.489345 -0.489346
0.721860 0.489345 -0.489346
0.721860 -0.489345 -0.489346
0.383969 -0.652905 -0.652904
</float_array>
          <technique_common>
            <accessor source="#generator_habitat_button-lib-Normal0-array" count="30" stride="3">
              <param name="X" type="float"/>
              <param name="Y" type="float"/>
              <param name="Z" type="float"/>
            </accessor>
          </technique_common>
        </source>
        <source id="generator_habitat_button-lib-UV0">
          <float_array id="generator_habitat_button-lib-UV0-array" count="16">
0.232910 0.606638
0.232910 0.621988
0.222024 0.621988
0.222024 0.606638
0.234866 0.602727
0.234866 0.625899
0.220067 0.625899
0.220067 0.602727
</float_array>
          <technique_common>
            <accessor source="#generator_habitat_button-lib-UV0-array" count="8" stride="2">
              <param name="S" type="float"/>
              <param name="T" type="float"/>
            </accessor>
          </technique_common>
        </source>
        <source id="generator_habitat_button-lib-UV1">
          <float_array id="generator_habitat_button-lib-UV1-array" count="16">
0.232910 0.606638
0.232910 0.621988
0.222024 0.621988
0.222024 0.606638
0.234866 0.602727
0.234866 0.625899
0.220067 0.625899
0.220067 0.602727
</float_array>
          <technique_common>
            <accessor source="#generator_habitat_button-lib-UV1-array" count="8" stride="2">
              <param name="S" type="float"/>
              <param name="T" type="float"/>
            </accessor>
          </technique_common>
        </source>
        <vertices id="generator_habitat_button-lib-Vertex">
          <input semantic="POSITION" source="#generator_habitat_button-lib-Position"/>
        </vertices>
        <polygons material="Material__82" count="10">
          <input semantic="VERTEX" offset="0" source="#generator_habitat_button-lib-Vertex"/>
          <input semantic="NORMAL" offset="1" source="#generator_habitat_button-lib-Normal0"/>
          <input semantic="TEXCOORD" offset="2" set="0" source="#generator_habitat_button-lib-UV0"/>
          <input semantic="TEXCOORD" offset="3" set="1" source="#generator_habitat_button-lib-UV1"/>
          <p>4 0 0 0 5 1 1 1 6 2 2 2</p>
          <p>6 3 2 2 7 4 3 3 4 5 0 0</p>
          <p>0 6 4 4 1 7 5 5 5 8 1 1</p>
          <p>5 9 1 1 4 10 0 0 0 11 4 4</p>
          <p>1 12 5 5 2 13 6 6 6 14 2 2</p>
          <p>6 15 2 2 5 16 1 1 1 17 5 5</p>
          <p>2 18 6 6 3 19 7 7 7 20 3 3</p>
          <p>7 21 3 3 6 22 2 2 2 23 6 6</p>
          <p>3 24 7 7 0 25 4 4 4 26 0 0</p>
          <p>4 27 0 0 7 28 3 3 3 29 7 7</p>
        </polygons>
      </mesh>
    </geometry>
  </library_geometries>
  <library_visual_scenes>
    <visual_scene id="RootNode" name="RootNode">
      <node id="generator_habitat_button" name="generator_habitat_button">
        <instance_geometry url="#generator_habitat_button-lib">
          <bind_material>
            <technique_common>
              <instance_material symbol="Material__82" target="#Material__82"/>
            </technique_common>
          </bind_material>
        </instance_geometry>
      </node>
    </visual_scene>
  </library_visual_scenes>
  <scene>
    <instance_visual_scene url="#RootNode"/>
  </scene>
</COLLADA>

