<?xml version="1.0" encoding="utf-8"?>
<COLLADA xmlns="http://www.collada.org/2005/11/COLLADASchema" version="1.4.1">
  <asset>
    <contributor>
      <author>akshat</author>
      <authoring_tool>OpenCOLLADA2013 x64</authoring_tool>
      <comments>
			ColladaMaya export options: 
			bakeTransforms=0;relativePaths=0;copyTextures=0;exportTriangles=1;exportCgfxFileReferences=1;
			isSampling=0;curveConstrainSampling=0;removeStaticCurves=1;exportPolygonMeshes=1;exportLights=1;
			exportCameras=1;exportJointsAndSkin=0;exportAnimations=0;exportInvisibleNodes=0;exportDefaultCameras=0;
			exportTexCoords=1;exportNormals=1;exportNormalsPerVertex=1;exportVertexColors=1;exportVertexColorsPerVertex=1;
			exportTexTangents=0;exportTangents=0;exportReferencedMaterials=0;exportMaterialsOnly=0;
			exportXRefs=1;dereferenceXRefs=1;exportCameraAsLookat=0;cameraXFov=0;cameraYFov=1;doublePrecision=0
		</comments>
      <source_data>file:///C:/Users/akshat/Documents/maya/projects/default/untitled</source_data>
    </contributor>
    <created>2014-12-04T18:06:41</created>
    <modified>2014-12-04T18:06:41</modified>
    <unit name="centimeter" meter="0.01"/>
    <up_axis>Y_UP</up_axis>
  </asset>
  <library_materials>
    <material id="lambert2SG1" name="lambert2SG1">
      <instance_effect url="#lambert2SG1-fx"/>
    </material>
  </library_materials>
  <library_effects>
    <effect id="lambert2SG1-fx">
      <profile_COMMON>
        <newparam sid="file1-surface">
          <surface type="2D">
            <init_from>file1</init_from>
          </surface>
        </newparam>
        <newparam sid="file1-sampler">
          <sampler2D>
            <source>file1-surface</source>
          </sampler2D>
        </newparam>
        <newparam sid="file2-surface">
          <surface type="2D">
            <init_from>file2</init_from>
          </surface>
        </newparam>
        <newparam sid="file2-sampler">
          <sampler2D>
            <source>file2-surface</source>
          </sampler2D>
        </newparam>
        <technique sid="common">
          <phong>
            <emission>
              <color>0 0 0 1</color>
            </emission>
            <ambient>
              <color>0 0 0 1</color>
            </ambient>
            <diffuse>
              <texture texture="file1-sampler" texcoord="TEX0">
                <extra>
                  <technique profile="OpenCOLLADAMaya">
                    <blend_mode>NONE</blend_mode>
                    <coverageU>1</coverageU>
                    <coverageV>1</coverageV>
                    <fast>0</fast>
                    <mirrorU>0</mirrorU>
                    <mirrorV>0</mirrorV>
                    <noiseU>0</noiseU>
                    <noiseV>0</noiseV>
                    <offsetU>0</offsetU>
                    <offsetV>0</offsetV>
                    <repeatU>1</repeatU>
                    <repeatV>1</repeatV>
                    <rotateFrame>0</rotateFrame>
                    <rotateUV>0</rotateUV>
                    <stagger>0</stagger>
                    <translateFrameU>0</translateFrameU>
                    <translateFrameV>0</translateFrameV>
                    <wrapU>1</wrapU>
                    <wrapV>1</wrapV>
                  </technique>
                </extra>
              </texture>
            </diffuse>
            <specular>
              <texture texture="file2-sampler" texcoord="TEX1">
                <extra>
                  <technique profile="OpenCOLLADAMaya">
                    <blend_mode>NONE</blend_mode>
                    <coverageU>1</coverageU>
                    <coverageV>1</coverageV>
                    <fast>0</fast>
                    <mirrorU>0</mirrorU>
                    <mirrorV>0</mirrorV>
                    <noiseU>0</noiseU>
                    <noiseV>0</noiseV>
                    <offsetU>0</offsetU>
                    <offsetV>0</offsetV>
                    <repeatU>1</repeatU>
                    <repeatV>1</repeatV>
                    <rotateFrame>0</rotateFrame>
                    <rotateUV>0</rotateUV>
                    <stagger>0</stagger>
                    <translateFrameU>0</translateFrameU>
                    <translateFrameV>0</translateFrameV>
                    <wrapU>1</wrapU>
                    <wrapV>1</wrapV>
                  </technique>
                </extra>
              </texture>
            </specular>
            <shininess>
              <float>20</float>
            </shininess>
            <reflective>
              <color>0 0 0 1</color>
            </reflective>
            <reflectivity>
              <float>0.5</float>
            </reflectivity>
            <transparent opaque="RGB_ZERO">
              <color>0 0 0 1</color>
            </transparent>
            <transparency>
              <float>1</float>
            </transparency>
          </phong>
        </technique>
      </profile_COMMON>
    </effect>
  </library_effects>
  <library_images>
    <image id="file1" name="file1">
      <init_from>file:///D:/Shrike%20work/Project_Depth/surgery_operatingscissor/station/surgery_operatingscissor/surgery_operatingscissor.dds</init_from>
      <extra>
        <technique profile="OpenCOLLADAMaya">
          <dgnode_type>kFile</dgnode_type>
          <image_sequence>0</image_sequence>
          <originalMayaNodeId>file1</originalMayaNodeId>
        </technique>
      </extra>
    </image>
    <image id="file2" name="file2">
      <init_from>file:///D:/Shrike%20work/Project_Depth/surgery_operatingscissor/station/surgery_operatingscissor/surgery_operatingscissor_spec.dds</init_from>
      <extra>
        <technique profile="OpenCOLLADAMaya">
          <dgnode_type>kFile</dgnode_type>
          <image_sequence>0</image_sequence>
          <originalMayaNodeId>file2</originalMayaNodeId>
        </technique>
      </extra>
    </image>
  </library_images>
  <library_geometries>
    <geometry id="polySurface6Shape" name="polySurface6Shape">
      <mesh>
        <source id="polySurface6Shape-positions" name="polySurface6Shape-positions">
          <float_array id="polySurface6Shape-positions-array" count="744">6.873127 -0.110976 0.584531 6.871999 -0.110976 0.163021 6.873127 0.110976 0.584531 6.871999 0.110976 0.163021 9.431209 -0.110976 0.571292 9.466393 -0.110976 0.149782 9.431209 0.110976 0.571292 9.466393 0.110976 0.149782 7.574461 0.110976 1.378785 7.574461 -0.110976 1.378785 8.253888 0.110976 1.427631 8.253888 -0.110976 1.427631 7.509902 0.110976 2.33885 7.509902 -0.110976 2.33885 7.938905 0.110976 2.35766 7.938905 -0.110976 2.35766 8.051201 0.110976 1.871408 7.564724 0.110976 1.831675 7.564724 -0.110976 1.831675 8.051201 -0.110976 1.871408 8.762316 0.110976 0.941828 7.462531 0.110976 0.905755 7.462531 -0.110976 0.905755 8.762316 -0.110976 0.941828 7.566232 0.110976 2.973341 7.770492 0.110976 3.641268 8.128004 0.110976 4.217574 8.790482 0.110976 4.720822 9.425997 0.110976 4.981967 10.28746 0.110976 5.072754 11.12658 0.110976 4.848671 11.8087 0.110976 4.368411 12.27507 0.110976 3.757187 12.5592 0.110976 3.024083 12.524 0.110976 2.163862 12.34983 0.110976 1.551296 11.86216 0.110976 0.878003 11.10833 0.110976 0.316065 10.30538 0.110976 0.143556 7.566232 -0.110976 2.973341 7.770492 -0.110976 3.641268 8.128004 -0.110976 4.217574 8.790482 -0.110976 4.720822 9.425997 -0.110976 4.981967 10.28746 -0.110976 5.072754 11.12658 -0.110976 4.848671 11.8087 -0.110976 4.368411 12.27507 -0.110976 3.757187 12.5592 -0.110976 3.024083 12.524 -0.110976 2.163862 12.34983 -0.110976 1.551296 11.86216 -0.110976 0.878003 11.10833 -0.110976 0.316065 10.30538 -0.110976 0.143556 7.996069 0.110976 2.967786 8.179805 0.110976 3.519921 8.483398 0.110976 3.978823 9.04138 0.110976 4.381728 9.570935 0.110976 4.593551 10.28687 0.110976 4.654717 10.99473 0.110976 4.454457 11.55182 0.110976 4.035608 11.92121 0.110976 3.527411 12.14696 0.110976 2.909025 12.10324 0.110976 2.188504 11.9451 0.110976 1.685318 11.51827 0.110976 1.122974 10.87863 0.110976 0.671669 10.2154 0.110976 0.553204 7.996069 -0.110976 2.967786 8.179805 -0.110976 3.519921 8.483398 -0.110976 3.978823 9.04138 -0.110976 4.381728 9.570935 -0.110976 4.593551 10.28687 -0.110976 4.654717 10.99473 -0.110976 4.454457 11.55182 -0.110976 4.035608 11.92121 -0.110976 3.527411 12.14696 -0.110976 2.909025 12.10324 -0.110976 2.188504 11.9451 -0.110976 1.685318 11.51827 -0.110976 1.122974 10.87863 -0.110976 0.671669 10.2154 -0.110976 0.553204 -3.723715 0.110976 0.14213 -3.726786 0.110976 0.576598 -3.726786 -0.110976 0.576598 -3.723715 -0.110976 0.14213 -4.334145 0.110976 -0.582979 -4.334459 0.110976 0.482576 -4.334459 -0.110976 0.482576 -4.334145 -0.110976 -0.582979 -4.593818 0.110976 -0.583059 -4.594132 0.110976 0.482496 -4.593818 -0.110976 -0.583059 -4.594132 -0.110976 0.482496 -12.24114 0.110976 2.903177 -12.48168 0.110976 3.946798 -12.24114 -0.110976 2.903177 -12.48168 -0.110976 3.946798 -11.67443 0.110976 2.644827 -11.89717 0.110976 3.690073 -11.89717 -0.110976 3.690073 -11.67443 -0.110976 2.644827 -12.50939 0.110976 3.390406 -12.5118 -0.110976 3.40086 6.873127 -0.110976 -0.546553 6.871999 -0.110976 -0.125043 6.873127 0.110976 -0.546553 6.871999 0.110976 -0.125043 9.431209 -0.110976 -0.533314 9.466393 -0.110976 -0.111804 9.431209 0.110976 -0.533314 9.466393 0.110976 -0.111804 7.574461 0.110976 -1.340806 7.574461 -0.110976 -1.340806 8.253888 0.110976 -1.389653 8.253888 -0.110976 -1.389653 7.509902 0.110976 -2.300872 7.509902 -0.110976 -2.300872 7.938905 0.110976 -2.319682 7.938905 -0.110976 -2.319682 8.051201 0.110976 -1.833429 7.564724 0.110976 -1.793697 7.564724 -0.110976 -1.793697 8.051201 -0.110976 -1.833429 8.762316 0.110976 -0.90385 7.462531 0.110976 -0.867777 7.462531 -0.110976 -0.867777 8.762316 -0.110976 -0.90385 7.566232 0.110976 -2.935362 7.770492 0.110976 -3.60329 8.128004 0.110976 -4.179595 8.790482 0.110976 -4.682844 9.425997 0.110976 -4.943989 10.28746 0.110976 -5.034776 11.12658 0.110976 -4.810693 11.8087 0.110976 -4.330433 12.27507 0.110976 -3.719208 12.5592 0.110976 -2.986105 12.524 0.110976 -2.125884 12.34983 0.110976 -1.513317 11.86216 0.110976 -0.840025 11.10833 0.110976 -0.278086 10.30538 0.110976 -0.105578 7.566232 -0.110976 -2.935362 7.770492 -0.110976 -3.60329 8.128004 -0.110976 -4.179595 8.790482 -0.110976 -4.682844 9.425997 -0.110976 -4.943989 10.28746 -0.110976 -5.034776 11.12658 -0.110976 -4.810693 11.8087 -0.110976 -4.330433 12.27507 -0.110976 -3.719208 12.5592 -0.110976 -2.986105 12.524 -0.110976 -2.125884 12.34983 -0.110976 -1.513317 11.86216 -0.110976 -0.840025 11.10833 -0.110976 -0.278086 10.30538 -0.110976 -0.105578 7.996069 0.110976 -2.929808 8.179805 0.110976 -3.481943 8.483398 0.110976 -3.940845 9.04138 0.110976 -4.34375 9.570935 0.110976 -4.555573 10.28687 0.110976 -4.616739 10.99473 0.110976 -4.416479 11.55182 0.110976 -3.997629 11.92121 0.110976 -3.489433 12.14696 0.110976 -2.871047 12.10324 0.110976 -2.150526 11.9451 0.110976 -1.64734 11.51827 0.110976 -1.084996 10.87863 0.110976 -0.633691 10.2154 0.110976 -0.515226 7.996069 -0.110976 -2.929808 8.179805 -0.110976 -3.481943 8.483398 -0.110976 -3.940845 9.04138 -0.110976 -4.34375 9.570935 -0.110976 -4.555573 10.28687 -0.110976 -4.616739 10.99473 -0.110976 -4.416479 11.55182 -0.110976 -3.997629 11.92121 -0.110976 -3.489433 12.14696 -0.110976 -2.871047 12.10324 -0.110976 -2.150526 11.9451 -0.110976 -1.64734 11.51827 -0.110976 -1.084996 10.87863 -0.110976 -0.633691 10.2154 -0.110976 -0.515226 -4.334145 -0.136135 0.620957 -4.334459 -0.136135 -0.532135 -4.334459 -0.358087 -0.532135 -4.334145 -0.358087 0.620957 -4.593818 -0.136135 0.759302 -4.594132 -0.136135 -0.444517 -4.593818 -0.358087 0.759302 -4.594132 -0.358087 -0.444517 -12.47309 -0.136135 3.944927 -12.47309 -0.358087 3.944927 -11.93375 -0.136135 4.137597 -12.15649 -0.136135 3.092352 -12.15649 -0.358087 3.092352 -11.93375 -0.358087 4.137597 -12.50521 -0.136135 3.398952 -12.50762 -0.358087 3.388499 -3.700371 -0.131989 -0.034061 -4.082673 -0.131989 -0.536763 -4.082673 -0.353941 -0.536763 -3.700371 -0.353941 -0.034061 -3.944762 0.110976 -0.538647 -3.596867 0.110976 -0.104223 -3.596867 -0.110976 -0.104223 -3.944762 -0.110976 -0.538647 -4.274602 0.110999 -0.119832 -4.42861 0.110999 -0.183624 -4.582618 0.110999 -0.119832 -4.64641 0.110999 0.034176 -4.582618 0.110999 0.188184 -4.42861 0.110999 0.251976 -4.274602 0.110999 0.188184 -4.21081 0.110999 0.034176 -4.345261 0.177768 -0.049173 -4.42861 0.177768 -0.083697 -4.511959 0.177768 -0.049173 -4.546483 0.177768 0.034176 -4.511959 0.177768 0.117525 -4.42861 0.177768 0.152049 -4.345261 0.177768 0.117525 -4.310738 0.177768 0.034176 -4.42861 0.201215 0.034176 -4.274602 -0.354608 -0.119832 -4.42861 -0.354608 -0.183624 -4.582618 -0.354608 -0.119832 -4.64641 -0.354608 0.034176 -4.582618 -0.354608 0.188184 -4.42861 -0.354608 0.251976 -4.274602 -0.354608 0.188184 -4.21081 -0.354608 0.034176 -4.345261 -0.421378 -0.049173 -4.42861 -0.421378 -0.083697 -4.511959 -0.421378 -0.049173 -4.546483 -0.421378 0.034176 -4.511959 -0.421378 0.117525 -4.42861 -0.421378 0.152049 -4.345261 -0.421378 0.117525 -4.310738 -0.421378 0.034176 -4.42861 -0.444824 0.034176</float_array>
          <technique_common>
            <accessor source="#polySurface6Shape-positions-array" count="248" stride="3">
              <param name="X" type="float"/>
              <param name="Y" type="float"/>
              <param name="Z" type="float"/>
            </accessor>
          </technique_common>
        </source>
        <source id="polySurface6Shape-normals" name="polySurface6Shape-normals">
          <float_array id="polySurface6Shape-normals-array" count="1398">0 -1 0 0 -1 0 0 -1 0 0 -1 0 0 1 0 0 1 0 0 1 0 0 1 0 -0.005669252 0 -0.999984 5.80132e-4 0 -0.9999998 5.80132e-4 0 -0.9999998 -0.005669252 0 -0.999984 -0.02940436 0 0.9995676 -0.02940436 0 0.9995676 -0.7495936 0 0.6618984 -0.7495936 0 0.6618984 0 1 0 0 1 0 0.2583672 0 0.9660468 0.5882193 0 0.8087014 0.5882193 0 0.8087014 0.2583672 0 0.9660468 0 -1 0 0 -1 0 -0.9939645 0 0.1097029 -0.9939645 0 0.1097029 0 1 0 0 1 0 0.7942508 0 0.6075901 0.7942508 0 0.6075901 0 -1 0 0 -1 0 -0.9977468 0 -0.06709287 -0.9977468 0 -0.06709287 0 1 0 0 0.9999999 0 0.9471528 0 0.3207829 0.9471528 0 0.3207829 0 -0.9999999 0 0 -1 0 0 1 0 0 1 0 -0.999999 0 0.001321084 -0.999999 0 0.001321084 0 -1 0 0 -1 0 0.9987381 0 0.05022204 0.9987381 0 0.05022204 -0.9805652 0 0.1961932 -0.9805652 0 0.1961932 -0.911409 0 0.4115016 -0.911409 0 0.4115016 -0.7268751 0 0.6867698 -0.7268751 0 0.6867698 -0.5074481 0 0.8616824 -0.5074481 0 0.8616824 -0.2288552 0 0.9734604 -0.2288552 0 0.9734604 0.07814313 0 0.9969422 0.07814313 0 0.9969422 0.4201563 0 0.9074517 0.4201563 0 0.9074517 0.6888872 0 0.7248687 0.6888872 0 0.7248687 0.8731487 0 0.4874538 0.8731487 0 0.4874538 0.9880142 0 0.1543628 0.9880142 0 0.1543628 0.9900461 0 -0.1407438 0.9900461 0 -0.1407438 0.8891333 0 -0.4576482 0.8891333 0 -0.4576482 0.7053153 0 -0.7088937 0.7053153 0 -0.7088937 0.4266748 0 -0.9044051 0.4266748 0 -0.9044051 0.1007571 0 -0.994911 0.1007571 0 -0.994911 0 1 0 0 1 0 0 1 0 0 1 0 0 0.9999999 0 0 1 0 0 0.9999999 0 0 1 0 0 0.9999999 0 0 1 0 0 1 0 0 1 0 0 1 0 0 1 0 0 1 0 0 1 0 0 1 0 0 1 0 0 1 0 0 1 0 0 1 0 0 1 0 0 1 0 0 1 0 0 1 0 0 1 0 0 1 0 0 1 0 0 1 0 0 1 0 0.9791881 0 -0.2029548 0.9791881 0 -0.2029548 0.9008157 0 -0.4342018 0.9008157 0 -0.4342018 0.707202 0 -0.7070116 0.707202 0 -0.7070116 0.4920777 0 -0.8705512 0.4920777 0 -0.8705512 0.2140985 0 -0.976812 0.2140985 0 -0.976812 -0.09722981 0 -0.995262 -0.09722981 0 -0.995262 -0.4396066 0 -0.8981904 -0.4396066 0 -0.8981904 -0.7073243 0 -0.7068891 -0.7073243 0 -0.7068891 -0.8842048 0 -0.4670993 -0.8842048 0 -0.4670993 -0.9908836 0 -0.1347209 -0.9908836 0 -0.1347209 -0.9866666 0 0.1627541 -0.9866666 0 0.1627541 -0.8765854 0 0.4812464 -0.8765854 0 0.4812464 -0.6889276 0 0.7248302 -0.6889276 0 0.7248302 -0.4006801 0 0.916218 -0.4006801 0 0.916218 -0.06918264 0 0.997604 -0.06918264 0 0.997604 0 -1 0 0 -1 0 0 -1 0 0 -1 0 0 -1 0 0 -1 0 0 -1 0 0 -0.9999999 0 0 -1 0 0 -1 0 0 -1 0 0 -1 0 0 -1 0 0 -1 0 0 -1 0 0 -1 0 0 -1 0 0 -1 0 0 -1 0 0 -1 0 0 -1 0 0 -1 0 0 -1 0 0 -1 0 0 -1 0 0 -1 0 0 -1 0 0 -1 0 0 -1 0 0 -1 0 0 1 0 0 1 0 -0.009096586 0 0.9999586 -0.009096586 0 0.9999586 0 -1 0 0 -1 0 0.06642362 0 -0.9977915 0.06642362 0 -0.9977915 0 1 0 0 1 0 0.6402382 0 -0.7681765 0.6402382 0 -0.7681765 0 -1 0 0 -1 0 -0.1078612 0 0.994166 -0.1078612 0 0.994166 -0.4327218 0.005395913 0.9015115 -0.9725329 -2.0274e-4 -0.2327658 -0.9763029 2.02849e-4 -0.216408 -0.4327218 0.005395913 0.9015115 0 1 0 0 0.9999999 0 -0.4025379 0 -0.9154032 -0.4025379 0 -0.9154032 0 -1 0 0 -1 0 0.3904543 0 0.9206223 0.3904543 0 0.9206223 0 1 0 0 1 0 -0.4148064 0 -0.9099097 -0.4148064 0 -0.9099097 0 -0.9999999 0 0 -1 0 0.4021336 0 0.915581 0.4021336 0 0.915581 0 1 0 0 1 0 0 -1 0 0 -1 0 -0.6681062 -0.003267163 -0.7440587 -0.6681062 -0.003267163 -0.7440587 0 1 0 0 -1 0 0 -1 0 0 -1 0 0 -1 0 0 -1 0 0 1 0 0 1 0 0 1 0 0 1 0 -0.005669252 0 0.999984 -0.005669252 0 0.999984 5.8033e-4 0 0.9999998 5.8033e-4 0 0.9999998 -0.02884059 0 -0.999584 -0.7495931 0 -0.6618988 -0.7495931 0 -0.6618988 -0.02884059 0 -0.999584 0 1 0 0 1 0 0.2583672 0 -0.9660468 0.2583672 0 -0.9660468 0.5882193 0 -0.8087014 0.5882193 0 -0.8087014 0 -1 0 0 -1 0 -0.9939645 0 -0.1097029 -0.9939645 0 -0.1097029 0 0.9999999 0 0 1 0 0.7942505 0 -0.6075905 0.7942505 0 -0.6075905 0 -1 0 0 -1 0 -0.9977468 0 0.0670928 -0.9977468 0 0.0670928 0 1 0 0 1 0 0.9471527 0 -0.3207829 0.9471527 0 -0.3207829 0 -1 0 0 -1 0 0 1 0 0 1 0 -0.999999 0 -0.001321084 -0.999999 0 -0.001321084 0 -1 0 0 -1 0 0.9987381 0 -0.05022199 0.9987381 0 -0.05022199 -0.9805652 0 -0.1961932 -0.9805652 0 -0.1961932 -0.911409 0 -0.4115018 -0.911409 0 -0.4115018 -0.7268751 0 -0.6867698 -0.7268751 0 -0.6867698 -0.5074484 0 -0.8616821 -0.5074484 0 -0.8616821 -0.2288556 0 -0.9734604 -0.2288556 0 -0.9734604 0.07814282 0 -0.9969421 0.07814282 0 -0.9969421 0.4201567 0 -0.9074515 0.4201567 0 -0.9074515 0.6888874 0 -0.7248685 0.6888874 0 -0.7248685 0.8731487 0 -0.4874539 0.8731487 0 -0.4874539 0.9880142 0 -0.1543629 0.9880142 0 -0.1543629 0.9900461 0 0.1407437 0.9900461 0 0.1407437 0.8891333 0 0.4576483 0.8891333 0 0.4576483 0.7053152 0 0.7088937 0.7053152 0 0.7088937 0.4266748 0 0.9044051 0.4266748 0 0.9044051 0.1007565 0 0.9949111 0.1007565 0 0.9949111 0 1 0 0 1 0 0 1 0 0 1 0 0 1 0 0 0.9999999 0 0 1 0 0 1 0 0 1 0 0 1 0 0 0.9999999 0 0 1 0 0 1 0 0 0.9999999 0 0 1 0 0 1 0 0 1 0 0 1 0 0 1 0 0 1 0 0 1 0 0 0.9999999 0 0 0.9999999 0 0 1 0 0 1 0 0 1 0 0 1 0 0 1 0 0 1 0 0 1 0 0.9791881 0 0.2029548 0.9791881 0 0.2029548 0.9008157 0 0.4342017 0.9008157 0 0.4342017 0.707202 0 0.7070116 0.707202 0 0.7070116 0.4920774 0 0.8705514 0.4920774 0 0.8705514 0.2140985 0 0.976812 0.2140985 0 0.976812 -0.09722924 0 0.995262 -0.09722924 0 0.995262 -0.4396071 0 0.8981902 -0.4396071 0 0.8981902 -0.7073245 0 0.7068891 -0.7073245 0 0.7068891 -0.8842046 0 0.4670996 -0.8842046 0 0.4670996 -0.9908835 0 0.1347209 -0.9908835 0 0.1347209 -0.9866667 0 -0.1627541 -0.9866667 0 -0.1627541 -0.8765854 0 -0.4812463 -0.8765854 0 -0.4812463 -0.6889277 0 -0.7248302 -0.6889277 0 -0.7248302 -0.4006801 0 -0.916218 -0.4006801 0 -0.916218 -0.06918266 0 -0.997604 -0.06918266 0 -0.997604 0 -1 0 0 -1 0 0 -1 0 0 -1 0 0 -0.9999999 0 0 -1 0 0 -1 0 0 -1 0 0 -0.9999999 0 0 -1 0 0 -1 0 0 -1 0 0 -1 0 0 -1 0 0 -1 0 0 -1 0 0 -1 0 0 -1 0 0 -1 0 0 -1 0 0 -1 0 0 -1 0 0 -0.9999999 0 0 -0.9999999 0 0 -1 0 0 -1 0 0 -1 0 0 -1 0 0 -1 0 0 -1 0 -0.7102947 0.4349386 0.5534528 -0.1448702 0.9834347 0.1089441 -0.2123321 0.963713 0.1617782 -0.7102947 0.4349385 0.5534528 -0.00100057 0 -0.9999995 -0.0176641 0 -0.999844 -0.01611036 0 -0.9998703 -7.8478e-4 0 -0.9999996 0.01689986 -0.9997705 -0.01316816 0.7102946 -0.4349386 -0.5534527 0.7102947 -0.4349386 -0.5534527 0.05063462 -0.9979376 -0.03945386 0.004004669 0 0.999992 0.6910832 0 0.7227753 0.7129786 0 0.7011858 0.01314304 0 0.9999136 -0.005126012 0.9999862 0.0011845 0 1 0 0 1 0 -0.002747445 0.9999961 6.3487e-4 0.6641086 0 0.747636 0.4199569 0 0.9075441 0.4199569 0 0.9075441 0.6638588 0 0.747858 0.002747453 -0.999996 -6.34885e-4 0 -1 0 0 -1 0 0.005126028 -0.9999862 -0.001184523 -0.1782953 0 -0.9839771 -0.420427 0 -0.9073263 -0.420427 0 -0.9073263 -0.1767022 0 -0.9842644 0 1 0 0 1 0 0.3748283 0 0.9270943 0.3748283 0 0.9270943 0 -0.9999999 0 0 -1 0 -0.436456 0.001122868 -0.8997248 -0.436456 0.001122868 -0.8997248 -0.7923881 0.002351863 0.6100127 -0.7923881 0.002351863 0.6100127 0 1 0 0 0.9999999 0 -0.9334779 0.01350525 -0.3583806 -0.9411087 0.01306335 -0.3378516 0 -1 0 0 -1 0 0.007988273 -0.9999664 -0.001845928 0.007988274 -0.9999664 -0.001845928 0 1 0 0 0.9999999 0 0.3928475 0.8314704 -0.3928458 0 0.8314696 -0.5555702 0 0.8681969 -0.4962198 0.3508814 0.868197 -0.3508794 -0.3928464 0.8314703 -0.392847 -0.3508795 0.8681972 -0.3508804 -0.5555691 0.8314704 0 -0.496219 0.8681975 0 -0.3928455 0.8314713 0.3928459 -0.3508791 0.8681979 0.3508796 0 0.8314697 0.5555704 0 0.868197 0.4962197 0.3928483 0.8314698 0.3928465 0.3508819 0.8681965 0.3508799 0.5555705 0.8314694 0 0.4962206 0.8681964 0 0 1 0 0.3928514 -0.8314666 -0.3928497 0.3508842 -0.8681947 -0.3508821 0 -0.8681951 -0.496223 0 -0.8314664 -0.555575 -0.3508821 -0.8681955 -0.3508825 -0.39285 -0.8314672 -0.3928501 -0.4962229 -0.8681951 0 -0.5555747 -0.8314666 0 -0.3508819 -0.8681955 0.3508824 -0.3928496 -0.8314674 0.3928498 0 -0.8681947 0.4962237 0 -0.8314658 0.555576 0.3508852 -0.868194 0.3508827 0.3928527 -0.8314657 0.3928505 0.4962251 -0.8681939 0 0.5555766 -0.8314653 0 0 -1 0</float_array>
          <technique_common>
            <accessor source="#polySurface6Shape-normals-array" count="466" stride="3">
              <param name="X" type="float"/>
              <param name="Y" type="float"/>
              <param name="Z" type="float"/>
            </accessor>
          </technique_common>
        </source>
        <source id="polySurface6Shape-map1" name="polySurface6Shape-map1">
          <float_array id="polySurface6Shape-map1-array" count="710">0.654464 0.767849 0.654974 0.867621 0.638764 0.866268 0.638255 0.767893 0.194961 0.232118 0.195265 0.132978 0.211609 0.131295 0.211158 0.232034 0.219956 0.131223 0.219824 0.231975 0.18636 0.2325 0.176995 0.215168 0.182425 0.208873 0.181191 0.159028 0.174247 0.15409 0.187004 0.13101 0.624514 0.840545 0.625901 0.790559 0.162014 0.212351 0.1633 0.20387 0.162336 0.178345 0.1574 0.171398 0.605832 0.820992 0.60771 0.794864 0.145701 0.213334 0.145411 0.20464 0.144594 0.186136 0.142028 0.177936 0.588766 0.813198 0.590294 0.794489 0.125779 0.206523 0.125294 0.190051 0.125715 0.215169 0.570066 0.808879 0.570789 0.792381 0.124781 0.181392 0.099501 0.213219 0.101192 0.204751 0.071479 0.204695 0.075185 0.196886 0.047316 0.189212 0.053153 0.182916 0.025763 0.161699 0.033249 0.157407 0.014876 0.13485 0.02325 0.13286 0.011418 0.098643 0.019947 0.099408 0.020832 0.063362 0.028594 0.066994 0.040821 0.034509 0.047026 0.040466 0.066545 0.01476 0.070662 0.022337 0.097759 0.00334 0.099093 0.011794 0.133957 0.004075 0.132558 0.012603 0.159813 0.011941 0.155958 0.01962 0.188321 0.032283 0.18224 0.038304 0.211328 0.064196 0.203562 0.067789 0.219442 0.097397 0.210973 0.098526 0.101406 0.188276 0.079943 0.181207 0.062125 0.169177 0.046282 0.147795 0.038157 0.127195 0.036003 0.09946 0.043754 0.072016 0.059819 0.050295 0.079464 0.035942 0.103621 0.027547 0.131481 0.028752 0.15102 0.0352 0.172862 0.051605 0.189938 0.076701 0.195381 0.102494 0.103105 0.17981 0.083731 0.17346 0.06803 0.162865 0.053807 0.143589 0.046548 0.12518 0.044524 0.100238 0.05148 0.075732 0.065924 0.056367 0.083513 0.043533 0.104944 0.03605 0.129933 0.037215 0.14712 0.042922 0.166737 0.057558 0.182094 0.080163 0.186861 0.103392 0.546603 0.811077 0.546389 0.794547 0.525369 0.818143 0.520703 0.802402 0.507721 0.829818 0.49854 0.816151 0.492227 0.851277 0.479187 0.841628 0.484081 0.871642 0.469144 0.866068 0.481729 0.899174 0.465653 0.899197 0.48943 0.926396 0.47427 0.931466 0.505538 0.947819 0.492739 0.957698 0.525081 0.962025 0.516245 0.975633 0.548862 0.970707 0.544438 0.98656 0.576571 0.969025 0.577519 0.985206 0.595922 0.962944 0.601076 0.978508 0.617548 0.946529 0.626969 0.959754 0.634903 0.921931 0.648579 0.930764 0.639459 0.896425 0.655213 0.899886 0.196415 0.64334 0.213502 0.643188 0.187792 0.643399 0.63856 0.360256 0.655268 0.360374 0.222055 0.642546 0.237132 0.670285 0.197849 0.667132 0.245349 0.668898 0.642175 0.336887 0.683153 0.336899 0.189216 0.666134 0.067884 0.980913 0.08517 0.982294 0.08576 0.990802 0.061275 0.984452 0.237511 0.678428 0.196208 0.677823 0.245124 0.681187 0.642178 0.3269 0.683156 0.326913 0.188508 0.674856 0.112781 0.951939 0.072301 0.960239 0.120396 0.955543 0.518826 0.04605 0.559022 0.054616 0.064667 0.957172 0.529948 0.022414 0.508953 0.023572 0.107752 0.978645 0.102 0.972452 0.549087 0.032822 0.756322 0.760419 0.772566 0.760462 0.772055 0.859039 0.755812 0.860395 0.320171 0.23451 0.30351 0.234487 0.302934 0.132688 0.31959 0.134386 0.294728 0.132556 0.294937 0.234478 0.332498 0.210956 0.33799 0.217135 0.328667 0.234865 0.33353 0.160657 0.327814 0.132346 0.340445 0.155814 0.784944 0.783175 0.786334 0.833263 0.351576 0.205695 0.352988 0.214098 0.352543 0.180196 0.357564 0.173421 0.803173 0.787488 0.805055 0.813671 0.369667 0.20644 0.369466 0.215038 0.370477 0.188093 0.373145 0.18005 0.820625 0.787113 0.822156 0.80586 0.39003 0.19203 0.389533 0.208383 0.389614 0.216912 0.840169 0.785 0.840894 0.801532 0.390573 0.183508 0.414296 0.206581 0.415979 0.214921 0.44048 0.198664 0.444136 0.206348 0.46271 0.184598 0.468467 0.190797 0.482727 0.15892 0.49011 0.163137 0.492833 0.134166 0.501084 0.136129 0.496178 0.100478 0.5046 0.099721 0.487468 0.067816 0.495125 0.064219 0.468883 0.041104 0.474993 0.035217 0.445063 0.02284 0.449121 0.015372 0.416426 0.012195 0.417732 0.00385 0.382756 0.013035 0.381356 0.004638 0.359127 0.020101 0.35533 0.012536 0.332661 0.038906 0.326653 0.03296 0.311154 0.068583 0.303481 0.065049 0.303719 0.099606 0.295358 0.098482 0.414156 0.190198 0.435824 0.183048 0.453795 0.170895 0.469767 0.149303 0.477971 0.128484 0.480128 0.100505 0.472304 0.072811 0.456095 0.050879 0.43626 0.036383 0.411889 0.027912 0.383768 0.029132 0.36402 0.035632 0.342007 0.052225 0.32476 0.077517 0.319297 0.103565 0.412466 0.181851 0.432075 0.175412 0.447953 0.164677 0.462344 0.145154 0.469684 0.126517 0.47171 0.101276 0.464672 0.07648 0.450075 0.056875 0.432273 0.043882 0.410585 0.036309 0.385285 0.03748 0.367893 0.043238 0.348072 0.058102 0.332503 0.080938 0.327713 0.10438 0.86462 0.787171 0.864406 0.803735 0.890359 0.795043 0.885683 0.810816 0.912567 0.808819 0.903367 0.822515 0.93196 0.834348 0.918893 0.844017 0.942024 0.858838 0.927055 0.864424 0.945522 0.892035 0.929413 0.892013 0.936887 0.924371 0.921696 0.919291 0.91838 0.950657 0.905555 0.940758 0.894826 0.968629 0.885971 0.954993 0.866575 0.979578 0.862141 0.963692 0.833426 0.978222 0.834376 0.962008 0.80982 0.97151 0.814985 0.955914 0.783875 0.952717 0.793315 0.939465 0.76222 0.923668 0.775923 0.914817 0.755572 0.892726 0.771358 0.889259 0.319298 0.657332 0.322724 0.663462 0.296266 0.64964 0.303515 0.64387 0.32712 0.658141 0.330643 0.666855 0.75552 0.356994 0.752816 0.353006 0.772188 0.338274 0.772261 0.343588 0.288147 0.645495 0.295416 0.644271 0.320761 0.672874 0.317121 0.683411 0.269944 0.684479 0.275347 0.675226 0.262175 0.680798 0.268202 0.670564 0.727575 0.328583 0.722244 0.318576 0.768634 0.318564 0.77201 0.328571 0.328369 0.676279 0.324943 0.686937 0.178337 0.979503 0.138803 0.970795 0.130834 0.968071 0.592059 0.035727 0.632338 0.027144 0.185762 0.983506 0.146186 0.98799 0.141985 0.994496 0.165725 0.990422 0.168717 0.99776 0.599484 0.014944 0.620926 0.013613 0.844605 0.629579 0.821319 0.57336 0.857796 0.57336 0.870399 0.603785 0.844605 0.51714 0.870399 0.542935 0.900826 0.493854 0.900826 0.530332 0.957044 0.517141 0.93125 0.542934 0.98033 0.57336 0.943852 0.57336 0.957043 0.629579 0.93125 0.603785 0.900826 0.652867 0.900824 0.616388 0.900826 0.57336 0.956856 0.322283 0.931062 0.348076 0.900637 0.335474 0.900637 0.298996 0.870211 0.348076 0.844417 0.322283 0.857609 0.378503 0.821132 0.378503 0.87021 0.408929 0.844418 0.434722 0.900637 0.421531 0.900637 0.458008 0.931062 0.408929 0.956856 0.434722 0.943665 0.378503 0.980142 0.378503 0.900637 0.378503</float_array>
          <technique_common>
            <accessor source="#polySurface6Shape-map1-array" count="355" stride="2">
              <param name="S" type="float"/>
              <param name="T" type="float"/>
            </accessor>
          </technique_common>
        </source>
        <vertices id="polySurface6Shape-vertices" name="polySurface6Shape-vertices">
          <input semantic="POSITION" source="#polySurface6Shape-positions"/>
        </vertices>
        <triangles material="lambert2SG" count="476">
          <input semantic="VERTEX" source="#polySurface6Shape-vertices" offset="0"/>
          <input semantic="NORMAL" source="#polySurface6Shape-normals" offset="1"/>
          <input semantic="TEXCOORD" source="#polySurface6Shape-map1" offset="2" set="0"/>
          <p>5 1 1 4 2 2 1 0 0 1 0 0 4 2 2 0 3 3 2 4 4 6 5 5 3 7 7 3 7 7 6 5 5 7 6 6 5 8 8 1 9 9 7 11 6 7 11 6 1 9 9 3 10 7 2 12 4 0 13 10 21 15 12 21 15 12 0 13 10 22 14 11 21 16 12 20 17 13 2 4 4 2 4 4 20 17 13 6 5 5 6 18 5 20 19 13 4 21 15 4 21 15 20 19 13 23 20 14 4 2 2 23 22 16 0 3 3 0 3 3 23 22 16 22 23 17 21 15 12 22 14 11 8 25 19 8 25 19 22 14 11 9 24 18 8 26 19 10 27 20 21 16 12 21 16 12 10 27 20 20 17 13 20 19 13 10 28 20 23 20 14 23 20 14 10 28 20 11 29 21 23 22 16 11 30 22 22 23 17 22 23 17 11 30 22 9 31 23 8 25 19 9 24 18 17 33 25 17 33 25 9 24 18 18 32 24 17 34 25 16 35 26 8 26 19 8 26 19 16 35 26 10 27 20 10 28 20 16 36 26 11 29 21 11 29 21 16 36 26 19 37 27 11 30 22 19 38 28 9 31 23 9 31 23 19 38 28 18 39 29 12 40 30 14 41 31 17 34 25 17 34 25 14 41 31 16 35 26 17 33 25 18 32 24 12 43 30 12 43 30 18 32 24 13 42 32 19 38 28 15 44 33 18 39 29 18 39 29 15 44 33 13 45 34 16 36 26 14 46 31 19 37 27 19 37 27 14 46 31 15 47 35 12 43 30 13 42 32 24 49 37 24 49 37 13 42 32 39 48 36 24 49 37 39 48 36 25 51 39 25 51 39 39 48 36 40 50 38 25 51 39 40 50 38 26 53 41 26 53 41 40 50 38 41 52 40 26 53 41 41 52 40 27 55 43 27 55 43 41 52 40 42 54 42 27 55 43 42 54 42 28 57 45 28 57 45 42 54 42 43 56 44 28 57 45 43 56 44 29 59 47 29 59 47 43 56 44 44 58 46 29 59 47 44 58 46 30 61 49 30 61 49 44 58 46 45 60 48 30 61 49 45 60 48 31 63 51 31 63 51 45 60 48 46 62 50 31 63 51 46 62 50 32 65 53 32 65 53 46 62 50 47 64 52 32 65 53 47 64 52 33 67 55 33 67 55 47 64 52 48 66 54 33 67 55 48 66 54 34 69 57 34 69 57 48 66 54 49 68 56 34 69 57 49 68 56 35 71 59 35 71 59 49 68 56 50 70 58 35 71 59 50 70 58 36 73 61 36 73 61 50 70 58 51 72 60 36 73 61 51 72 60 37 75 63 37 75 63 51 72 60 52 74 62 37 75 63 52 74 62 38 77 65 38 77 65 52 74 62 53 76 64 38 77 65 53 76 64 7 11 6 7 11 6 53 76 64 5 8 8 12 40 30 24 78 37 14 41 31 14 41 31 24 78 37 54 79 66 24 78 37 25 80 39 54 79 66 54 79 66 25 80 39 55 81 67 25 80 39 26 82 41 55 81 67 55 81 67 26 82 41 56 83 68 26 82 41 27 84 43 56 83 68 56 83 68 27 84 43 57 85 69 27 84 43 28 86 45 57 85 69 57 85 69 28 86 45 58 87 70 28 86 45 29 88 47 58 87 70 58 87 70 29 88 47 59 89 71 29 88 47 30 90 49 59 89 71 59 89 71 30 90 49 60 91 72 30 90 49 31 92 51 60 91 72 60 91 72 31 92 51 61 93 73 31 92 51 32 94 53 61 93 73 61 93 73 32 94 53 62 95 74 32 94 53 33 96 55 62 95 74 62 95 74 33 96 55 63 97 75 33 96 55 34 98 57 63 97 75 63 97 75 34 98 57 64 99 76 34 98 57 35 100 59 64 99 76 64 99 76 35 100 59 65 101 77 35 100 59 36 102 61 65 101 77 65 101 77 36 102 61 66 103 78 36 102 61 37 104 63 66 103 78 66 103 78 37 104 63 67 105 79 37 104 63 38 106 65 67 105 79 67 105 79 38 106 65 68 107 80 38 106 65 7 6 6 68 107 80 68 107 80 7 6 6 6 5 5 14 46 31 54 108 66 15 47 35 15 47 35 54 108 66 69 109 81 54 108 66 55 110 67 69 109 81 69 109 81 55 110 67 70 111 82 55 110 67 56 112 68 70 111 82 70 111 82 56 112 68 71 113 83 56 112 68 57 114 69 71 113 83 71 113 83 57 114 69 72 115 84 57 114 69 58 116 70 72 115 84 72 115 84 58 116 70 73 117 85 58 116 70 59 118 71 73 117 85 73 117 85 59 118 71 74 119 86 59 118 71 60 120 72 74 119 86 74 119 86 60 120 72 75 121 87 60 120 72 61 122 73 75 121 87 75 121 87 61 122 73 76 123 88 61 122 73 62 124 74 76 123 88 76 123 88 62 124 74 77 125 89 62 124 74 63 126 75 77 125 89 77 125 89 63 126 75 78 127 90 63 126 75 64 128 76 78 127 90 78 127 90 64 128 76 79 129 91 64 128 76 65 130 77 79 129 91 79 129 91 65 130 77 80 131 92 65 130 77 66 132 78 80 131 92 80 131 92 66 132 78 81 133 93 66 132 78 67 134 79 81 133 93 81 133 93 67 134 79 82 135 94 67 134 79 68 136 80 82 135 94 82 135 94 68 136 80 83 137 95 68 136 80 6 18 5 83 137 95 83 137 95 6 18 5 4 21 15 69 138 96 39 139 97 15 44 33 15 44 33 39 139 97 13 45 34 70 140 98 40 141 99 69 138 96 69 138 96 40 141 99 39 139 97 71 142 100 41 143 101 70 140 98 70 140 98 41 143 101 40 141 99 72 144 102 42 145 103 71 142 100 71 142 100 42 145 103 41 143 101 73 146 104 43 147 105 72 144 102 72 144 102 43 147 105 42 145 103 74 148 106 44 149 107 73 146 104 73 146 104 44 149 107 43 147 105 75 150 108 45 151 109 74 148 106 74 148 106 45 151 109 44 149 107 76 152 110 46 153 111 75 150 108 75 150 108 46 153 111 45 151 109 77 154 112 47 155 113 76 152 110 76 152 110 47 155 113 46 153 111 78 156 114 48 157 115 77 154 112 77 154 112 48 157 115 47 155 113 79 158 116 49 159 117 78 156 114 78 156 114 49 159 117 48 157 115 80 160 118 50 161 119 79 158 116 79 158 116 50 161 119 49 159 117 81 162 120 51 163 121 80 160 118 80 160 118 51 163 121 50 161 119 82 164 122 52 165 123 81 162 120 81 162 120 52 165 123 51 163 121 83 166 124 53 167 125 82 164 122 82 164 122 53 167 125 52 165 123 4 2 2 5 1 1 83 166 124 83 166 124 5 1 1 53 167 125 85 168 126 2 4 4 84 169 127 84 169 127 2 4 4 3 7 7 86 170 128 0 13 10 85 171 126 85 171 126 0 13 10 2 12 4 1 0 0 0 3 3 87 173 130 87 173 130 0 3 3 86 172 129 3 10 7 1 9 9 84 175 127 84 175 127 1 9 9 87 174 131 88 176 132 89 177 133 84 169 127 84 169 127 89 177 133 85 168 126 84 175 127 87 174 131 88 179 132 88 179 132 87 174 131 91 178 134 86 172 129 90 180 135 87 173 130 87 173 130 90 180 135 91 181 136 86 170 128 85 171 126 90 183 137 90 183 137 85 171 126 89 182 133 104 185 139 105 186 140 97 184 138 97 184 138 105 186 140 99 187 141 89 177 133 88 176 132 93 189 143 93 189 143 88 176 132 92 188 142 88 179 132 91 178 134 92 191 142 92 191 142 91 178 134 94 190 144 91 181 136 90 180 135 94 193 146 94 193 146 90 180 135 95 192 145 90 183 137 89 182 133 95 195 147 95 195 147 89 182 133 93 194 143 92 188 142 100 196 148 93 189 143 93 189 143 100 196 148 101 197 149 92 191 142 94 190 144 100 199 148 100 199 148 94 190 144 103 198 150 94 193 146 95 192 145 103 201 152 103 201 152 95 192 145 102 200 151 95 195 147 93 194 143 102 203 153 102 203 153 93 194 143 101 202 149 101 197 149 104 204 139 97 205 138 102 203 153 101 202 149 99 187 141 99 187 141 101 202 149 97 184 138 105 206 154 102 200 151 99 207 155 100 199 148 103 198 150 96 209 157 96 209 157 103 198 150 98 208 156 100 196 148 96 210 157 101 197 149 101 197 149 96 210 157 104 204 139 105 186 140 104 185 139 98 208 156 98 208 156 104 185 139 96 209 157 103 201 152 102 200 151 98 211 158 98 211 158 102 200 151 105 206 154 106 213 160 110 214 161 107 212 159 107 212 159 110 214 161 111 215 162 108 216 163 109 217 164 112 219 166 112 219 166 109 217 164 113 218 165 111 220 167 113 221 165 107 223 168 107 223 168 113 221 165 109 222 164 108 224 163 127 225 169 106 227 171 106 227 171 127 225 169 128 226 170 112 219 166 126 228 172 108 216 163 108 216 163 126 228 172 127 229 169 112 230 166 110 231 173 126 233 172 126 233 172 110 231 173 129 232 174 110 214 161 106 213 160 129 235 176 129 235 176 106 213 160 128 234 175 127 225 169 114 236 177 128 226 170 128 226 170 114 236 177 115 237 178 126 228 172 116 238 179 127 229 169 127 229 169 116 238 179 114 239 177 126 233 172 129 232 174 116 241 179 116 241 179 129 232 174 117 240 180 129 235 176 128 234 175 117 243 182 117 243 182 128 234 175 115 242 181 114 236 177 123 244 183 115 237 178 115 237 178 123 244 183 124 245 184 116 238 179 122 246 185 114 239 177 114 239 177 122 246 185 123 247 183 116 241 179 117 240 180 122 249 185 122 249 185 117 240 180 125 248 186 117 243 182 115 242 181 125 251 188 125 251 188 115 242 181 124 250 187 122 246 185 120 252 189 123 247 183 123 247 183 120 252 189 118 253 190 123 244 183 118 254 190 124 245 184 124 245 184 118 254 190 119 255 191 125 251 188 124 250 187 121 257 193 121 257 193 124 250 187 119 256 192 122 249 185 125 248 186 120 259 189 120 259 189 125 248 186 121 258 194 118 254 190 130 260 195 119 255 191 119 255 191 130 260 195 145 261 196 130 260 195 131 262 197 145 261 196 145 261 196 131 262 197 146 263 198 131 262 197 132 264 199 146 263 198 146 263 198 132 264 199 147 265 200 132 264 199 133 266 201 147 265 200 147 265 200 133 266 201 148 267 202 133 266 201 134 268 203 148 267 202 148 267 202 134 268 203 149 269 204 134 268 203 135 270 205 149 269 204 149 269 204 135 270 205 150 271 206 135 270 205 136 272 207 150 271 206 150 271 206 136 272 207 151 273 208 136 272 207 137 274 209 151 273 208 151 273 208 137 274 209 152 275 210 137 274 209 138 276 211 152 275 210 152 275 210 138 276 211 153 277 212 138 276 211 139 278 213 153 277 212 153 277 212 139 278 213 154 279 214 139 278 213 140 280 215 154 279 214 154 279 214 140 280 215 155 281 216 140 280 215 141 282 217 155 281 216 155 281 216 141 282 217 156 283 218 141 282 217 142 284 219 156 283 218 156 283 218 142 284 219 157 285 220 142 284 219 143 286 221 157 285 220 157 285 220 143 286 221 158 287 222 143 286 221 144 288 223 158 287 222 158 287 222 144 288 223 159 289 224 144 288 223 113 221 165 159 289 224 159 289 224 113 221 165 111 220 167 118 253 190 120 252 189 130 291 195 130 291 195 120 252 189 160 290 225 130 291 195 160 290 225 131 293 197 131 293 197 160 290 225 161 292 226 131 293 197 161 292 226 132 295 199 132 295 199 161 292 226 162 294 227 132 295 199 162 294 227 133 297 201 133 297 201 162 294 227 163 296 228 133 297 201 163 296 228 134 299 203 134 299 203 163 296 228 164 298 229 134 299 203 164 298 229 135 301 205 135 301 205 164 298 229 165 300 230 135 301 205 165 300 230 136 303 207 136 303 207 165 300 230 166 302 231 136 303 207 166 302 231 137 305 209 137 305 209 166 302 231 167 304 232 137 305 209 167 304 232 138 307 211 138 307 211 167 304 232 168 306 233 138 307 211 168 306 233 139 309 213 139 309 213 168 306 233 169 308 234 139 309 213 169 308 234 140 311 215 140 311 215 169 308 234 170 310 235 140 311 215 170 310 235 141 313 217 141 313 217 170 310 235 171 312 236 141 313 217 171 312 236 142 315 219 142 315 219 171 312 236 172 314 237 142 315 219 172 314 237 143 317 221 143 317 221 172 314 237 173 316 238 143 317 221 173 316 238 144 319 223 144 319 223 173 316 238 174 318 239 144 319 223 174 318 239 113 218 165 113 218 165 174 318 239 112 219 166 120 259 189 121 258 194 160 321 225 160 321 225 121 258 194 175 320 240 160 321 225 175 320 240 161 323 226 161 323 226 175 320 240 176 322 241 161 323 226 176 322 241 162 325 227 162 325 227 176 322 241 177 324 242 162 325 227 177 324 242 163 327 228 163 327 228 177 324 242 178 326 243 163 327 228 178 326 243 164 329 229 164 329 229 178 326 243 179 328 244 164 329 229 179 328 244 165 331 230 165 331 230 179 328 244 180 330 245 165 331 230 180 330 245 166 333 231 166 333 231 180 330 245 181 332 246 166 333 231 181 332 246 167 335 232 167 335 232 181 332 246 182 334 247 167 335 232 182 334 247 168 337 233 168 337 233 182 334 247 183 336 248 168 337 233 183 336 248 169 339 234 169 339 234 183 336 248 184 338 249 169 339 234 184 338 249 170 341 235 170 341 235 184 338 249 185 340 250 170 341 235 185 340 250 171 343 236 171 343 236 185 340 250 186 342 251 171 343 236 186 342 251 172 345 237 172 345 237 186 342 251 187 344 252 172 345 237 187 344 252 173 347 238 173 347 238 187 344 252 188 346 253 173 347 238 188 346 253 174 349 239 174 349 239 188 346 253 189 348 254 174 349 239 189 348 254 112 230 166 112 230 166 189 348 254 110 231 173 119 256 192 145 350 255 121 257 193 121 257 193 145 350 255 175 351 256 145 350 255 146 352 257 175 351 256 175 351 256 146 352 257 176 353 258 146 352 257 147 354 259 176 353 258 176 353 258 147 354 259 177 355 260 147 354 259 148 356 261 177 355 260 177 355 260 148 356 261 178 357 262 148 356 261 149 358 263 178 357 262 178 357 262 149 358 263 179 359 264 149 358 263 150 360 265 179 359 264 179 359 264 150 360 265 180 361 266 150 360 265 151 362 267 180 361 266 180 361 266 151 362 267 181 363 268 151 362 267 152 364 269 181 363 268 181 363 268 152 364 269 182 365 270 152 364 269 153 366 271 182 365 270 182 365 270 153 366 271 183 367 272 153 366 271 154 368 273 183 367 272 183 367 272 154 368 273 184 369 274 154 368 273 155 370 275 184 369 274 184 369 274 155 370 275 185 371 276 155 370 275 156 372 277 185 371 276 185 371 276 156 372 277 186 373 278 156 372 277 157 374 279 186 373 278 186 373 278 157 374 279 187 375 280 157 374 279 158 376 281 187 375 280 187 375 280 158 376 281 188 377 282 158 376 281 159 378 283 188 377 282 188 377 282 159 378 283 189 379 284 159 378 283 111 215 162 189 379 284 189 379 284 111 215 162 110 214 161 207 381 286 206 382 287 210 380 285 210 380 285 206 382 287 211 383 288 208 385 290 207 386 286 213 384 289 213 384 289 207 386 286 210 387 285 212 388 291 209 389 292 213 391 294 213 391 294 209 389 292 208 390 293 211 392 288 206 393 287 212 395 296 212 395 296 206 393 287 209 394 295 191 396 297 195 397 298 190 399 300 190 399 300 195 397 298 194 398 299 190 400 300 194 401 299 193 403 302 193 403 302 194 401 299 196 402 301 196 405 304 197 406 305 193 404 303 193 404 303 197 406 305 192 407 306 192 408 307 197 409 308 191 411 297 191 411 297 197 409 308 195 410 298 195 397 298 201 412 309 194 398 299 194 398 299 201 412 309 200 413 310 194 401 299 200 414 310 196 402 301 196 402 301 200 414 310 203 415 311 203 416 312 202 417 313 196 405 304 196 405 304 202 417 313 197 406 305 197 409 308 202 418 314 195 410 298 195 410 298 202 418 314 201 419 309 200 414 310 198 420 315 203 415 311 203 415 311 198 420 315 199 421 316 204 422 317 198 423 315 201 412 309 201 412 309 198 423 315 200 413 310 205 424 318 199 421 316 204 425 317 204 425 317 199 421 316 198 420 315 203 416 312 199 426 319 202 417 313 202 417 313 199 426 319 205 427 320 204 425 317 201 419 309 205 424 318 205 424 318 201 419 309 202 418 314 207 381 286 191 396 297 206 382 287 206 382 287 191 396 297 190 399 300 192 408 307 191 411 297 208 385 290 208 385 290 191 411 297 207 386 286 193 404 303 192 407 306 209 428 292 209 428 292 192 407 306 208 429 293 206 393 287 190 400 300 209 394 295 209 394 295 190 400 300 193 403 302 210 430 285 211 431 288 108 216 163 108 216 163 211 431 288 109 217 164 109 222 164 211 392 288 107 223 168 107 223 168 211 392 288 212 395 296 107 212 159 212 388 291 106 213 160 106 213 160 212 388 291 213 391 294 210 387 285 108 224 163 213 384 289 213 384 289 108 224 163 106 227 171 214 432 321 215 433 322 222 435 324 222 435 324 215 433 322 223 434 323 215 433 322 216 436 325 223 434 323 223 434 323 216 436 325 224 437 326 216 436 325 217 438 327 224 437 326 224 437 326 217 438 327 225 439 328 217 438 327 218 440 329 225 439 328 225 439 328 218 440 329 226 441 330 218 440 329 219 442 331 226 441 330 226 441 330 219 442 331 227 443 332 219 442 331 220 444 333 227 443 332 227 443 332 220 444 333 228 445 334 220 444 333 221 446 335 228 445 334 228 445 334 221 446 335 229 447 336 221 446 335 214 432 321 229 447 336 229 447 336 214 432 321 222 435 324 222 435 324 223 434 323 230 448 337 223 434 323 224 437 326 230 448 337 224 437 326 225 439 328 230 448 337 225 439 328 226 441 330 230 448 337 226 441 330 227 443 332 230 448 337 227 443 332 228 445 334 230 448 337 228 445 334 229 447 336 230 448 337 229 447 336 222 435 324 230 448 337 231 449 338 239 450 339 232 452 341 232 452 341 239 450 339 240 451 340 232 452 341 240 451 340 233 454 343 233 454 343 240 451 340 241 453 342 233 454 343 241 453 342 234 456 345 234 456 345 241 453 342 242 455 344 234 456 345 242 455 344 235 458 347 235 458 347 242 455 344 243 457 346 235 458 347 243 457 346 236 460 349 236 460 349 243 457 346 244 459 348 236 460 349 244 459 348 237 462 351 237 462 351 244 459 348 245 461 350 237 462 351 245 461 350 238 464 353 238 464 353 245 461 350 246 463 352 238 464 353 246 463 352 231 449 338 231 449 338 246 463 352 239 450 339 239 450 339 247 465 354 240 451 340 240 451 340 247 465 354 241 453 342 241 453 342 247 465 354 242 455 344 242 455 344 247 465 354 243 457 346 243 457 346 247 465 354 244 459 348 244 459 348 247 465 354 245 461 350 245 461 350 247 465 354 246 463 352 246 463 352 247 465 354 239 450 339</p>
        </triangles>
      </mesh>
      <extra>
        <technique profile="OpenCOLLADAMaya">
          <originalMayaNodeId>polySurface6Shape</originalMayaNodeId>
          <double_sided>1</double_sided>
        </technique>
      </extra>
    </geometry>
  </library_geometries>
  <library_visual_scenes>
    <visual_scene id="VisualSceneNode" name="untitled">
      <node id="polySurface6" name="polySurface6" type="NODE">
        <translate sid="translate">0 0 0</translate>
        <rotate sid="rotateZ">0 0 1 0</rotate>
        <rotate sid="rotateY">0 1 0 0</rotate>
        <rotate sid="rotateX">1 0 0 0</rotate>
        <scale sid="scale">1 1 1</scale>
        <instance_geometry url="#polySurface6Shape">
          <bind_material>
            <technique_common>
              <instance_material symbol="lambert2SG" target="#lambert2SG1">
                <bind_vertex_input semantic="TEX0" input_semantic="TEXCOORD" input_set="0"/>
                <bind_vertex_input semantic="TEX1" input_semantic="TEXCOORD" input_set="0"/>
              </instance_material>
            </technique_common>
          </bind_material>
        </instance_geometry>
        <extra>
          <technique profile="OpenCOLLADAMaya">
            <originalMayaNodeId>polySurface6</originalMayaNodeId>
          </technique>
        </extra>
      </node>
    </visual_scene>
  </library_visual_scenes>
  <scene>
    <instance_visual_scene url="#VisualSceneNode"/>
  </scene>
</COLLADA>