<?xml version="1.0" encoding="utf-8"?>
<COLLADA xmlns="http://www.collada.org/2005/11/COLLADASchema" version="1.4.1">
  <asset>
    <contributor>
      <author>Marc</author>
      <authoring_tool>OpenCOLLADA2008</authoring_tool>
      <comments>
			ColladaMaya export options: 
			bakeTransforms=0;relativePaths=0;copyTextures=0;exportTriangles=1;exportCgfxFileReferences=1;
			isSampling=1;curveConstrainSampling=0;removeStaticCurves=1;exportPolygonMeshes=1;exportLights=0;
			exportCameras=1;exportJointsAndSkin=1;exportAnimations=1;exportInvisibleNodes=0;exportDefaultCameras=0;
			exportTexCoords=1;exportNormals=1;exportNormalsPerVertex=1;exportVertexColors=1;exportVertexColorsPerVertex=1;
			exportTexTangents=0;exportTangents=0;exportReferencedMaterials=0;exportMaterialsOnly=0;
			exportXRefs=1;dereferenceXRefs=1;exportCameraAsLookat=0;cameraXFov=0;cameraYFov=1;doublePrecision=0
		</comments>
      <source_data>file:///E:/depth/redist/static_objects/station/special/tau_8sided_room_2doors.dae</source_data>
    </contributor>
    <created>2015-06-18T12:54:05</created>
    <modified>2015-06-18T12:54:05</modified>
    <unit name="meter" meter="1"/>
    <up_axis>Y_UP</up_axis>
  </asset>
  <library_materials>
    <material id="lambert9" name="lambert9">
      <instance_effect url="#lambert9-fx"/>
    </material>
  </library_materials>
  <library_effects>
    <effect id="lambert9-fx">
      <profile_COMMON>
        <newparam sid="file8-surface">
          <surface type="2D">
            <init_from>file8</init_from>
          </surface>
        </newparam>
        <newparam sid="file8-sampler">
          <sampler2D>
            <source>file8-surface</source>
          </sampler2D>
        </newparam>
        <technique sid="common">
          <lambert>
            <emission>
              <color sid="emission">0 0 0 1</color>
            </emission>
            <ambient>
              <color sid="ambient">0 0 0 1</color>
            </ambient>
            <diffuse>
              <texture texture="file8-sampler" texcoord="TEX0">
                <extra>
                  <technique profile="OpenCOLLADAMaya">
                    <blend_mode>NONE</blend_mode>
                    <coverageU sid="coverageU">1</coverageU>
                    <coverageV sid="coverageV">1</coverageV>
                    <fast sid="fast">0</fast>
                    <mirrorU sid="mirrorU">0</mirrorU>
                    <mirrorV sid="mirrorV">0</mirrorV>
                    <noiseU sid="noiseU">0</noiseU>
                    <noiseV sid="noiseV">0</noiseV>
                    <offsetU sid="offsetU">0</offsetU>
                    <offsetV sid="offsetV">0</offsetV>
                    <repeatU sid="repeatU">1</repeatU>
                    <repeatV sid="repeatV">1</repeatV>
                    <rotateFrame sid="rotateFrame">0</rotateFrame>
                    <rotateUV sid="rotateUV">0</rotateUV>
                    <stagger sid="stagger">0</stagger>
                    <translateFrameU sid="translateFrameU">0</translateFrameU>
                    <translateFrameV sid="translateFrameV">0</translateFrameV>
                    <wrapU sid="wrapU">1</wrapU>
                    <wrapV sid="wrapV">1</wrapV>
                  </technique>
                </extra>
              </texture>
            </diffuse>
            <transparent opaque="A_ONE">
              <texture texture="file8-sampler" texcoord="TEX1">
                <extra>
                  <technique profile="OpenCOLLADAMaya">
                    <blend_mode>NONE</blend_mode>
                    <coverageU sid="coverageU">1</coverageU>
                    <coverageV sid="coverageV">1</coverageV>
                    <fast sid="fast">0</fast>
                    <mirrorU sid="mirrorU">0</mirrorU>
                    <mirrorV sid="mirrorV">0</mirrorV>
                    <noiseU sid="noiseU">0</noiseU>
                    <noiseV sid="noiseV">0</noiseV>
                    <offsetU sid="offsetU">0</offsetU>
                    <offsetV sid="offsetV">0</offsetV>
                    <repeatU sid="repeatU">1</repeatU>
                    <repeatV sid="repeatV">1</repeatV>
                    <rotateFrame sid="rotateFrame">0</rotateFrame>
                    <rotateUV sid="rotateUV">0</rotateUV>
                    <stagger sid="stagger">0</stagger>
                    <translateFrameU sid="translateFrameU">0</translateFrameU>
                    <translateFrameV sid="translateFrameV">0</translateFrameV>
                    <wrapU sid="wrapU">1</wrapU>
                    <wrapV sid="wrapV">1</wrapV>
                  </technique>
                </extra>
              </texture>
            </transparent>
            <transparency>
              <float>1</float>
            </transparency>
          </lambert>
        </technique>
      </profile_COMMON>
    </effect>
  </library_effects>
  <library_images>
    <image id="file8" name="file8">
      <init_from>file:///E:/depth/redist/static_objects/robot/robot_metal01.dds</init_from>
      <extra>
        <technique profile="OpenCOLLADAMaya">
          <dgnode_type>kFile</dgnode_type>
          <image_sequence>0</image_sequence>
          <originalMayaNodeId>file8</originalMayaNodeId>
        </technique>
      </extra>
    </image>
  </library_images>
  <library_geometries>
    <geometry id="pPlaneShape1" name="pPlaneShape1">
      <mesh>
        <source id="pPlaneShape1-positions" name="pPlaneShape1-positions">
          <float_array id="pPlaneShape1-positions-array" count="363">-4.392417 0 -4.392417 -3.513934 0 -4.392417 -2.63545 0 -4.392417 -1.756967 0 -4.392417 -0.8784835 0 -4.392417 0 0 -4.392417 0.8784835 0 -4.392417 1.756967 0 -4.392417 2.63545 0 -4.392417 3.513934 0 -4.392417 4.392417 0 -4.392417 -4.392417 0 -3.513934 -3.513934 0 -3.513934 -2.478533 0.1672604 -3.272558 -1.756967 0.3373965 -3.513934 -0.8784835 0.3373965 -3.513934 0 0.3373965 -3.513934 0.8784835 0.3373965 -3.513934 1.756967 0.3373965 -3.513934 2.49743 0.2612515 -3.315517 3.513934 0 -3.513934 4.392417 0 -3.513934 -4.392417 0 -2.63545 -3.342316 0.3198853 -2.509219 -2.623282 0.8757477 -2.623282 -1.755381 0.8847778 -2.626007 -0.8784835 0.8221893 -2.588031 0 0.8994928 -2.633683 0.8784835 0.8610785 -2.610997 1.749483 0.8188959 -2.590871 2.564162 0.7458447 -2.564162 3.273825 0.1700333 -2.47909 4.392417 0 -2.63545 -4.392417 0 -1.756967 -3.485498 0.28073 -1.755555 -2.598365 0.8329474 -1.750741 -1.738615 1.296159 -1.738615 -0.8748193 1.256843 -1.715364 0 1.215099 -1.6959 0.8770126 1.328788 -1.740266 1.743365 1.317094 -1.743365 2.592813 0.8225385 -1.749809 3.447031 0.2040741 -1.753644 4.392417 0 -1.756967 -4.392417 0 -0.8784835 -3.470424 0.2515622 -0.8784835 -2.543577 0.7469147 -0.8784835 -1.724622 1.283589 -0.8756348 -0.8619839 1.408181 -0.8619839 0 1.560897 -0.8760358 0.8617723 1.405991 -0.8617723 1.721208 1.273727 -0.8753341 2.576373 0.8024493 -0.8784835 3.497122 0.3042297 -0.8784835 4.392417 0 -0.8784835 -4.392417 0 0 -3.486534 0.2833447 0 -2.634505 0.9008832 0 -1.73133 1.309054 0 -0.8564856 1.416579 0 0 1.585876 0 0.8612779 1.451957 0 1.735156 1.319201 0 2.536352 0.734682 0 3.429843 0.171506 0 4.392417 0 0 -4.392417 0 0.8784835 -3.493043 0.2961841 0.8784835 -2.632495 0.8974792 0.8784834 -1.736377 1.317551 0.8766699 -0.8734971 1.527352 0.8734969 0 1.433124 0.8587267 0.8745997 1.538765 0.8745996 1.747099 1.348527 0.8776143 2.629207 0.8919128 0.8784834 3.494158 0.2983847 0.8784835 4.392417 0 0.8784835 -4.392417 0 1.756967 -3.430407 0.1709467 1.752819 -2.579754 0.7980524 1.747616 -1.740497 1.304451 1.740497 -0.8776357 1.349231 1.747342 0 1.204993 1.692088 0.8772061 1.335136 1.742463 1.722404 1.224713 1.722404 2.586032 0.8098242 1.74867 3.49831 0.3062622 1.756191 4.392417 0 1.756967 -4.392417 0 2.63545 -3.341859 0.3188843 2.509018 -2.617571 0.8631976 2.617571 -1.745311 0.7723022 2.566021 -0.8784835 0.8659906 2.613898 0 0.7903888 2.56925 0.8784835 0.8244342 2.589357 1.752746 0.8553424 2.610309 2.613207 0.8536096 2.613207 3.324972 0.2819382 2.50159 4.392417 0 2.63545 -4.392417 0 3.513934 -3.513934 0 3.513934 -2.498215 0.2651566 3.317302 -1.756585 0.3220935 3.506254 -0.8784835 0.2643253 3.476893 0 0.2767731 3.483203 0.8784835 0.261095 3.475256 1.756655 0.3248706 3.507648 2.501311 0.2805524 3.324339 3.513934 0 3.513934 4.392417 0 3.513934 -4.392417 0 4.392417 -3.513934 0 4.392417 -2.63545 0 4.392417 -1.756967 0 4.392417 -0.8784835 0 4.392417 0 0 4.392417 0.8784835 0 4.392417 1.756967 0 4.392417 2.63545 0 4.392417 3.513934 0 4.392417 4.392417 0 4.392417</float_array>
          <technique_common>
            <accessor source="#pPlaneShape1-positions-array" count="121" stride="3">
              <param name="X" type="float"/>
              <param name="Y" type="float"/>
              <param name="Z" type="float"/>
            </accessor>
          </technique_common>
        </source>
        <source id="pPlaneShape1-normals" name="pPlaneShape1-normals">
          <float_array id="pPlaneShape1-normals-array" count="363">0 -0.9999999 0 0.03862883 -0.9985066 0.03862885 0.107677 -0.9819794 0.1553135 0.06902728 -0.9524489 0.2967767 0 -0.933517 0.3585329 0 -0.933517 0.3585329 0 -0.933517 0.3585329 -0.04007641 -0.9455265 0.3230689 -0.101842 -0.9733381 0.2055262 -0.0616841 -0.9961878 0.06168414 0 -0.9999999 0 0.07646584 -0.9941358 0.07646576 0.07955347 -0.9882597 0.1304382 0.2112887 -0.8889092 0.406445 0.07077862 -0.8963854 0.4375883 0.002352505 -0.9030477 0.4295338 0.006437731 -0.8998303 0.4361925 -0.0130542 -0.9021724 0.4311779 -0.065584 -0.9102237 0.4088905 -0.2441445 -0.9189569 0.3096961 -0.1078458 -0.9911636 0.07722586 -0.03929632 -0.9984546 0.0392963 0.2238277 -0.9715164 0.07782739 0.3453867 -0.9068677 0.2414517 0.408201 -0.8181243 0.4050242 0.08471461 -0.8893725 0.4492662 -0.0085288 -0.8910487 0.4538276 0.02364246 -0.8920197 0.4513775 -0.009930388 -0.8809984 0.4730149 -0.1318555 -0.8830324 0.4504086 -0.4288129 -0.8250248 0.3680401 -0.351505 -0.9196644 0.1751042 -0.1270226 -0.9901305 0.0592169 0.2863446 -0.958095 -0.007781028 0.4140618 -0.9099488 -0.02336955 0.4654051 -0.8850199 0.01174054 0.1955786 -0.9665052 0.1661826 0.01626442 -0.9543932 0.2981093 0.02760391 -0.9445496 0.3272067 -0.02276065 -0.9562095 0.2917966 -0.2396227 -0.9492936 0.2035261 -0.492721 -0.8624217 0.1159953 -0.4027745 -0.9123617 0.07327203 -0.2206456 -0.974008 0.05122459 0.28016 -0.959953 7.91961e-4 0.4007461 -0.9161159 0.01159011 0.5058931 -0.8622932 0.02286018 0.2998314 -0.9532571 0.03744189 0.1068807 -0.9891186 0.1010978 0.01528894 -0.9888387 0.1482035 -0.1050547 -0.9905127 0.08859051 -0.3235146 -0.9462202 0.002383271 -0.5168465 -0.8553528 -0.03523125 -0.3916726 -0.9197615 -0.02512328 -0.2570763 -0.9663399 -0.009959796 0.2932558 -0.9559312 0.0140128 0.4283132 -0.9027796 0.03920037 0.5025389 -0.8623478 0.06173189 0.30592 -0.9506032 0.05259577 0.1350443 -0.9906211 0.0208078 0.01159555 -0.9999323 -8.07276e-4 -0.1287704 -0.9911941 0.03085874 -0.3552296 -0.933046 0.05689643 -0.5292005 -0.847597 0.03906411 -0.3907756 -0.9204003 0.0125652 -0.2464458 -0.9691548 -0.001838034 0.2744772 -0.9609606 -0.03488521 0.4335087 -0.8996312 -0.05228674 0.5138123 -0.8563852 -0.05100125 0.3072461 -0.9512554 -0.02670381 0.05766732 -0.9955925 -0.0739606 0.006390344 -0.9907982 -0.1351974 -0.05851715 -0.9930648 -0.1019706 -0.3366041 -0.9411225 -0.03140011 -0.5116578 -0.8585628 0.03280829 -0.4129291 -0.9090977 0.05505314 -0.2822643 -0.95842 0.04193026 0.242153 -0.9702367 -0.001602059 0.422455 -0.9062608 -0.01493503 0.4740971 -0.8751307 -0.09684166 0.2363457 -0.9408617 -0.2427344 -0.01189445 -0.9426312 -0.3336238 -0.009426998 -0.9348323 -0.3549646 0.006893555 -0.939012 -0.3438153 -0.2250221 -0.9448467 -0.2379705 -0.4418383 -0.8918654 -0.09671946 -0.4242475 -0.9049735 -0.03220387 -0.302031 -0.9530915 -0.01984389 0.1974253 -0.9795508 -0.03877245 0.3651928 -0.9129007 -0.1823362 0.3715061 -0.8587825 -0.3528113 0.08994191 -0.8847595 -0.4572867 -0.01764969 -0.8646075 -0.5021378 -0.01623977 -0.8691449 -0.4942909 0.0336307 -0.8708996 -0.4903088 -0.07520317 -0.8967431 -0.4361151 -0.381978 -0.8519332 -0.3581933 -0.3688638 -0.9050345 -0.2117827 -0.2094507 -0.9737371 -0.08925435 0.07621121 -0.9941748 -0.07621118 0.118688 -0.9834851 -0.1366387 0.198883 -0.9037794 -0.3789831 0.02054055 -0.9108837 -0.4121516 -0.01196739 -0.9118675 -0.4103101 -0.007947603 -0.913646 -0.4064331 0.02639133 -0.9117284 -0.4099448 -0.01119385 -0.9039427 -0.4275071 -0.2234647 -0.900314 -0.3734944 -0.1225028 -0.9848208 -0.1229669 -0.06686775 -0.9955186 -0.06686772 0 -0.9999999 0 0.06265986 -0.996066 -0.0626599 0.0960184 -0.9742278 -0.204109 0.01506949 -0.955059 -0.2960325 -0.01430864 -0.9548029 -0.2968947 -0.001012 -0.9590009 -0.2834011 0.01518531 -0.9551079 -0.2958685 -0.00942922 -0.9536314 -0.300829 -0.09611945 -0.9723101 -0.2130119 -0.06651934 -0.9955653 -0.06651942 0 -0.9999999 0</float_array>
          <technique_common>
            <accessor source="#pPlaneShape1-normals-array" count="121" stride="3">
              <param name="X" type="float"/>
              <param name="Y" type="float"/>
              <param name="Z" type="float"/>
            </accessor>
          </technique_common>
        </source>
        <source id="pPlaneShape1-map1" name="pPlaneShape1-map1">
          <float_array id="pPlaneShape1-map1-array" count="242">-0.5973667 -0.5973667 -0.3778934 -0.5973667 -0.15842 -0.5973667 0.06105335 -0.5973667 0.2805267 -0.5973667 0.5 -0.5973667 0.7194734 -0.5973667 0.9389467 -0.5973667 1.15842 -0.5973667 1.377893 -0.5973667 1.597367 -0.5973667 -0.5973667 -0.3778934 -0.3778934 -0.3778934 -0.15842 -0.3778934 0.06105335 -0.3778934 0.2805267 -0.3778934 0.5 -0.3778934 0.7194734 -0.3778934 0.9389467 -0.3778934 1.15842 -0.3778934 1.377893 -0.3778934 1.597367 -0.3778934 -0.5973667 -0.15842 -0.3778934 -0.15842 -0.15842 -0.15842 0.06105335 -0.15842 0.2805267 -0.15842 0.5 -0.15842 0.7194734 -0.15842 0.9389467 -0.15842 1.15842 -0.15842 1.377893 -0.15842 1.597367 -0.15842 -0.5973667 0.06105335 -0.3778934 0.06105335 -0.15842 0.06105335 0.06105335 0.06105335 0.2805267 0.06105335 0.5 0.06105335 0.7194734 0.06105335 0.9389467 0.06105335 1.15842 0.06105335 1.377893 0.06105335 1.597367 0.06105335 -0.5973667 0.2805267 -0.3778934 0.2805267 -0.15842 0.2805267 0.06105335 0.2805267 0.2805267 0.2805267 0.5 0.2805267 0.7194734 0.2805267 0.9389467 0.2805267 1.15842 0.2805267 1.377893 0.2805267 1.597367 0.2805267 -0.5973667 0.5 -0.3778934 0.5 -0.15842 0.5 0.06105335 0.5 0.2805267 0.5 0.5 0.5 0.7194734 0.5 0.9389467 0.5 1.15842 0.5 1.377893 0.5 1.597367 0.5 -0.5973667 0.7194734 -0.3778934 0.7194734 -0.15842 0.7194734 0.06105335 0.7194734 0.2805267 0.7194734 0.5 0.7194734 0.7194734 0.7194734 0.9389467 0.7194734 1.15842 0.7194734 1.377893 0.7194734 1.597367 0.7194734 -0.5973667 0.9389467 -0.3778934 0.9389467 -0.15842 0.9389467 0.06105335 0.9389467 0.2805267 0.9389467 0.5 0.9389467 0.7194734 0.9389467 0.9389467 0.9389467 1.15842 0.9389467 1.377893 0.9389467 1.597367 0.9389467 -0.5973667 1.15842 -0.3778934 1.15842 -0.15842 1.15842 0.06105335 1.15842 0.2805267 1.15842 0.5 1.15842 0.7194734 1.15842 0.9389467 1.15842 1.15842 1.15842 1.377893 1.15842 1.597367 1.15842 -0.5973667 1.377893 -0.3778934 1.377893 -0.15842 1.377893 0.06105335 1.377893 0.2805267 1.377893 0.5 1.377893 0.7194734 1.377893 0.9389467 1.377893 1.15842 1.377893 1.377893 1.377893 1.597367 1.377893 -0.5973667 1.597367 -0.3778934 1.597367 -0.15842 1.597367 0.06105335 1.597367 0.2805267 1.597367 0.5 1.597367 0.7194734 1.597367 0.9389467 1.597367 1.15842 1.597367 1.377893 1.597367 1.597367 1.597367</float_array>
          <technique_common>
            <accessor source="#pPlaneShape1-map1-array" count="121" stride="2">
              <param name="S" type="float"/>
              <param name="T" type="float"/>
            </accessor>
          </technique_common>
        </source>
        <vertices id="pPlaneShape1-vertices" name="pPlaneShape1-vertices">
          <input semantic="POSITION" source="#pPlaneShape1-positions"/>
          <input semantic="NORMAL" source="#pPlaneShape1-normals"/>
        </vertices>
        <triangles material="lambert9SG" count="200">
          <input semantic="VERTEX" source="#pPlaneShape1-vertices" offset="0"/>
          <input semantic="TEXCOORD" source="#pPlaneShape1-map1" offset="1" set="0"/>
          <p>0 0 1 1 11 11 11 11 1 1 12 12 1 1 2 2 12 12 12 12 2 2 13 13 3 3 14 14 2 2 2 2 14 14 13 13 3 3 4 4 14 14 14 14 4 4 15 15 4 4 5 5 15 15 15 15 5 5 16 16 5 5 6 6 16 16 16 16 6 6 17 17 6 6 7 7 17 17 17 17 7 7 18 18 7 7 8 8 18 18 18 18 8 8 19 19 9 9 20 20 8 8 8 8 20 20 19 19 9 9 10 10 20 20 20 20 10 10 21 21 11 11 12 12 22 22 22 22 12 12 23 23 12 12 13 13 23 23 14 14 25 25 13 13 13 13 25 25 24 24 14 14 15 15 25 25 25 25 15 15 26 26 15 15 16 16 26 26 26 26 16 16 27 27 16 16 17 17 27 27 27 27 17 17 28 28 18 18 29 29 17 17 17 17 29 29 28 28 18 18 19 19 29 29 29 29 19 19 30 30 19 19 31 31 30 30 21 21 32 32 20 20 20 20 32 32 31 31 23 23 34 34 22 22 22 22 34 34 33 33 24 24 35 35 23 23 23 23 35 35 34 34 24 24 25 25 35 35 35 35 25 25 36 36 25 25 26 26 36 36 36 36 26 26 37 37 27 27 38 38 26 26 26 26 38 38 37 37 27 27 28 28 38 38 38 38 28 28 39 39 29 29 40 40 28 28 28 28 40 40 39 39 30 30 41 41 29 29 29 29 41 41 40 40 30 30 31 31 41 41 41 41 31 31 42 42 31 31 32 32 42 42 42 42 32 32 43 43 33 33 34 34 44 44 44 44 34 34 45 45 34 34 35 35 45 45 45 45 35 35 46 46 35 35 36 36 46 46 46 46 36 36 47 47 36 36 37 37 47 47 47 47 37 37 48 48 37 37 38 38 48 48 48 48 38 38 49 49 39 39 50 50 38 38 38 38 50 50 49 49 40 40 51 51 39 39 39 39 51 51 50 50 41 41 52 52 40 40 40 40 52 52 51 51 42 42 53 53 41 41 41 41 53 53 52 52 42 42 43 43 53 53 53 53 43 43 54 54 45 45 56 56 44 44 44 44 56 56 55 55 45 45 46 46 56 56 56 56 46 46 57 57 46 46 47 47 57 57 57 57 47 47 58 58 47 47 48 48 58 58 58 58 48 48 59 59 49 49 60 60 48 48 48 48 60 60 59 59 49 49 50 50 60 60 60 60 50 50 61 61 51 51 62 62 50 50 50 50 62 62 61 61 52 52 63 63 51 51 51 51 63 63 62 62 52 52 53 53 63 63 63 63 53 53 64 64 54 54 65 65 53 53 53 53 65 65 64 64 56 56 67 67 55 55 55 55 67 67 66 66 56 56 57 57 67 67 67 67 57 57 68 68 58 58 69 69 57 57 57 57 69 69 68 68 59 59 70 70 58 58 58 58 70 70 69 69 60 60 71 71 59 59 59 59 71 71 70 70 60 60 61 61 71 71 71 71 61 61 72 72 61 61 62 62 72 72 72 72 62 62 73 73 63 63 74 74 62 62 62 62 74 74 73 73 64 64 75 75 63 63 63 63 75 75 74 74 64 64 65 65 75 75 75 75 65 65 76 76 66 66 67 67 77 77 77 77 67 67 78 78 68 68 79 79 67 67 67 67 79 79 78 78 69 69 80 80 68 68 68 68 80 80 79 79 70 70 81 81 69 69 69 69 81 81 80 80 71 71 82 82 70 70 70 70 82 82 81 81 71 71 72 72 82 82 82 82 72 72 83 83 72 72 73 73 83 83 83 83 73 73 84 84 73 73 74 74 84 84 84 84 74 74 85 85 74 74 75 75 85 85 85 85 75 75 86 86 75 75 76 76 86 86 86 86 76 76 87 87 77 77 78 78 88 88 88 88 78 78 89 89 78 78 79 79 89 89 89 89 79 79 90 90 80 80 91 91 79 79 79 79 91 91 90 90 81 81 92 92 80 80 80 80 92 92 91 91 81 81 82 82 92 92 92 92 82 82 93 93 83 83 94 94 82 82 82 82 94 94 93 93 83 83 84 84 94 94 94 94 84 84 95 95 84 84 85 85 95 95 95 95 85 85 96 96 86 86 97 97 85 85 85 85 97 97 96 96 87 87 98 98 86 86 86 86 98 98 97 97 89 89 100 100 88 88 88 88 100 100 99 99 89 89 90 90 101 101 90 90 91 91 101 101 101 101 91 91 102 102 92 92 103 103 91 91 91 91 103 103 102 102 92 92 93 93 103 103 103 103 93 93 104 104 93 93 94 94 104 104 104 104 94 94 105 105 94 94 95 95 105 105 105 105 95 95 106 106 96 96 107 107 95 95 95 95 107 107 106 106 96 96 97 97 107 107 97 97 98 98 108 108 108 108 98 98 109 109 99 99 100 100 110 110 110 110 100 100 111 111 101 101 112 112 100 100 100 100 112 112 111 111 101 101 102 102 112 112 112 112 102 102 113 113 103 103 114 114 102 102 102 102 114 114 113 113 103 103 104 104 114 114 114 114 104 104 115 115 105 105 116 116 104 104 104 104 116 116 115 115 105 105 106 106 116 116 116 116 106 106 117 117 107 107 118 118 106 106 106 106 118 118 117 117 107 107 108 108 118 118 118 118 108 108 119 119 108 108 109 109 119 119 119 119 109 109 120 120 23 23 13 13 24 24 89 89 101 101 100 100 107 107 97 97 108 108 19 19 20 20 31 31</p>
        </triangles>
      </mesh>
      <extra>
        <technique profile="OpenCOLLADAMaya">
          <originalMayaNodeId>pPlaneShape1</originalMayaNodeId>
          <double_sided>1</double_sided>
        </technique>
      </extra>
    </geometry>
  </library_geometries>
  <library_visual_scenes>
    <visual_scene id="VisualSceneNode" name="tau_8sided_room_2doors">
      <node id="pPlane1" name="pPlane1" type="NODE">
        <translate sid="translate">0 0 0</translate>
        <rotate sid="rotateZ">0 0 1 0</rotate>
        <rotate sid="rotateY">0 1 0 0</rotate>
        <rotate sid="rotateX">1 0 0 0</rotate>
        <scale sid="scale">1 1 1</scale>
        <instance_geometry url="#pPlaneShape1">
          <bind_material>
            <technique_common>
              <instance_material symbol="lambert9SG" target="#lambert9">
                <bind_vertex_input semantic="TEX0" input_semantic="TEXCOORD" input_set="0"/>
                <bind_vertex_input semantic="TEX1" input_semantic="TEXCOORD" input_set="0"/>
              </instance_material>
            </technique_common>
          </bind_material>
        </instance_geometry>
        <extra>
          <technique profile="OpenCOLLADAMaya">
            <originalMayaNodeId>pPlane1</originalMayaNodeId>
          </technique>
        </extra>
      </node>
    </visual_scene>
  </library_visual_scenes>
  <scene>
    <instance_visual_scene url="#VisualSceneNode"/>
  </scene>
</COLLADA>