<?xml version="1.0" encoding="utf-8"?>
<COLLADA xmlns="http://www.collada.org/2005/11/COLLADASchema" version="1.4.1">
  <asset>
    <contributor>
      <author>marcus</author>
      <authoring_tool>OpenCOLLADA2008 x64</authoring_tool>
      <comments>
			ColladaMaya export options: 
			bakeTransforms=0;relativePaths=0;copyTextures=0;exportTriangles=1;exportCgfxFileReferences=1;
			isSampling=0;curveConstrainSampling=0;removeStaticCurves=1;exportPolygonMeshes=1;exportLights=1;
			exportCameras=1;exportJointsAndSkin=0;exportAnimations=0;exportInvisibleNodes=0;exportDefaultCameras=0;
			exportTexCoords=1;exportNormals=1;exportNormalsPerVertex=1;exportVertexColors=1;exportVertexColorsPerVertex=1;
			exportTexTangents=0;exportTangents=0;exportReferencedMaterials=0;exportMaterialsOnly=0;
			exportXRefs=1;dereferenceXRefs=1;exportCameraAsLookat=0;cameraXFov=0;cameraYFov=1;doublePrecision=0
		</comments>
      <source_data>file:///D:/work/DropBox/Team/Depth_marcus/models/Levels/02_05/floor/catwalk_white.ma</source_data>
    </contributor>
    <created>2013-11-07T08:56:23</created>
    <modified>2013-11-07T08:56:23</modified>
    <unit name="meter" meter="1"/>
    <up_axis>Y_UP</up_axis>
  </asset>
  <library_materials>
    <material id="lambert2" name="MAT">
      <instance_effect url="#lambert2-fx"/>
    </material>
  </library_materials>
  <library_effects>
    <effect id="lambert2-fx">
      <profile_COMMON>
        <newparam sid="file1-surface">
          <surface type="2D">
            <init_from>file1</init_from>
          </surface>
        </newparam>
        <newparam sid="file1-sampler">
          <sampler2D>
            <source>file1-surface</source>
          </sampler2D>
        </newparam>
        <technique sid="common">
          <lambert>
            <emission>
              <color>0 0 0 1</color>
            </emission>
            <ambient>
              <color>0 0 0 1</color>
            </ambient>
            <diffuse>
              <texture texture="file1-sampler" texcoord="TEX0">
                <extra>
                  <technique profile="OpenCOLLADAMaya">
                    <blend_mode>NONE</blend_mode>
                    <coverageU>1</coverageU>
                    <coverageV>1</coverageV>
                    <fast>0</fast>
                    <mirrorU>0</mirrorU>
                    <mirrorV>0</mirrorV>
                    <noiseU>0</noiseU>
                    <noiseV>0</noiseV>
                    <offsetU>0</offsetU>
                    <offsetV>0</offsetV>
                    <repeatU>1</repeatU>
                    <repeatV>1</repeatV>
                    <rotateFrame>0</rotateFrame>
                    <rotateUV>0</rotateUV>
                    <stagger>0</stagger>
                    <translateFrameU>0</translateFrameU>
                    <translateFrameV>0</translateFrameV>
                    <wrapU>1</wrapU>
                    <wrapV>1</wrapV>
                  </technique>
                </extra>
              </texture>
            </diffuse>
            <transparent opaque="RGB_ZERO">
              <color>0 0 0 1</color>
            </transparent>
            <transparency>
              <float>1</float>
            </transparency>
          </lambert>
        </technique>
      </profile_COMMON>
    </effect>
  </library_effects>
  <library_images>
    <image id="file1" name="catwalk_white_straight_nohandrail_file1">
      <init_from>file:///D:/work/depth/redist/static_objects/station/floor/catwalk_white.mat</init_from>
      <extra>
        <technique profile="OpenCOLLADAMaya">
          <dgnode_type>kFile</dgnode_type>
          <image_sequence>0</image_sequence>
          <originalMayaNodeId>catwalk_white_straight_nohandrail_file1</originalMayaNodeId>
        </technique>
      </extra>
    </image>
  </library_images>
  <library_geometries>
    <geometry id="polySurfaceShape18" name="polySurfaceShape18">
      <mesh>
        <source id="polySurfaceShape18-positions" name="polySurfaceShape18-positions">
          <float_array id="polySurfaceShape18-positions-array" count="312">-0.061625 0.8208286 0 -0.061625 1.133464 0 -0.061625 0.8208286 -0.06043518 -0.061625 1.999638 0 -0.061625 1.133464 -0.06043518 -0.061625 1.53121 -0.06043518 -0.061625 1.576418 0 -0.08604231 0.85039 -0.08861115 -0.08604231 0.85039 0 -0.08604231 1.103902 0 -0.08604231 1.103902 -0.08861237 -0.08604231 1.554875 -0.08861237 -0.08604231 1.618862 -3.479e-5 -0.08604231 1.970077 -3.479e-5 -0.08604231 1.970077 -0.1446371 -0.08604231 1.103902 -0.1446371 -0.08604231 0.85039 -0.1446371 0.061625 0.8208286 0 0.061625 1.133464 0 0.061625 0.8208286 -0.06043518 0.061625 1.999638 0 0.061625 1.133464 -0.06043518 0.061625 1.53121 -0.06043518 0.061625 1.576418 0 0.08604231 0.85039 -0.1446371 0.08604231 1.103902 -0.1446371 0.08604231 1.970077 -0.1446371 0.08604231 1.970077 3.479e-5 0.08604231 1.618862 3.479e-5 0.08604231 1.554875 -0.08861237 0.08604231 1.103902 -0.08861237 0.08604231 1.103902 0 0.08604231 0.85039 0 0.08604231 0.85039 -0.08861115 -0.061625 1.103902 -0.2067429 -0.061625 0.85039 -0.2067429 0.061625 1.103902 -0.2067429 0.061625 0.85039 -0.2067429 -0.061625 0.8208286 -0.1728137 0.061625 0.8208286 -0.1728137 -0.061625 1.133464 -0.1728137 0.061625 1.133464 -0.1728137 0.061625 1.999638 -0.1728137 -0.061625 1.999638 -0.1728137 0.061625 0.8208286 0.06043518 0.061625 1.133464 0.06043518 0.061625 1.53121 0.06043518 0.08604231 0.85039 0.08861115 0.08604231 1.103902 0.08861237 0.08604231 1.554875 0.08861237 0.08604231 1.970077 0.1446371 0.08604231 1.103902 0.1446371 0.08604231 0.85039 0.1446371 -0.061625 0.8208286 0.06043518 -0.061625 1.133464 0.06043518 -0.061625 1.53121 0.06043518 -0.08604231 0.85039 0.1446371 -0.08604231 1.103902 0.1446371 -0.08604231 1.970077 0.1446371 -0.08604231 1.554875 0.08861237 -0.08604231 1.103902 0.08861237 -0.08604231 0.85039 0.08861115 0.061625 1.103902 0.2067429 0.061625 0.85039 0.2067429 -0.061625 1.103902 0.2067429 -0.061625 0.85039 0.2067429 0.061625 0.8208286 0.1728137 -0.061625 0.8208286 0.1728137 0.061625 1.133464 0.1728137 -0.061625 1.133464 0.1728137 -0.061625 1.999638 0.1728137 0.061625 1.999638 0.1728137 -0.061625 0 0 -0.061625 0.4541013 -0.06043518 -0.061625 0.398382 0 -0.08604231 0.02607666 0 -0.08604231 0.3542935 0 -0.08604231 0.4306178 -0.08861237 -0.08604231 0.02607666 -0.1446371 0.061625 0 0 0.061625 0.4541013 -0.06043518 0.061625 0.398382 0 0.08604231 0.4306178 -0.08861237 0.08604231 0.3542935 0 0.08604231 0.02607666 0 0.08604231 0.02607666 -0.1446371 -0.061625 0 -0.1728137 0.061625 0 -0.1728137 0.061625 0.4541013 0.06043518 0.08604231 0.4306178 0.08861237 0.08604231 0.02607666 0.1446371 -0.061625 0.4541013 0.06043518 -0.08604231 0.4306178 0.08861237 -0.08604231 0.02607666 0.1446371 0.06162499 0 0.1728137 -0.061625 0 0.1728137 0.061625 0.3426666 -0.07273376 0.061625 0.3426666 0.07273331 0.061625 1.657333 -0.07273376 0.061625 1.657333 0.07273331 -0.061625 0.3426666 0.07273376 -0.061625 0.3426666 -0.07273315 -0.061625 1.657333 0.07273376 -0.061625 1.657333 -0.07273315</float_array>
          <technique_common>
            <accessor source="#polySurfaceShape18-positions-array" count="104" stride="3">
              <param name="X" type="float"/>
              <param name="Y" type="float"/>
              <param name="Z" type="float"/>
            </accessor>
          </technique_common>
        </source>
        <source id="polySurfaceShape18-normals" name="polySurfaceShape18-normals">
          <float_array id="polySurfaceShape18-normals-array" count="1080">-0.9306564 0 -0.3658943 -0.9306564 0 -0.3658943 -0.9306564 0 -0.3658943 -0.9306564 0 -0.3658943 -0.8580622 0.3871983 -0.3373525 -0.8580622 0.3871983 -0.3373525 -0.8580622 0.3871983 -0.3373525 -0.7710006 -0.6368344 0 -0.7710006 -0.6368344 0 -0.7710006 -0.6368344 0 -0.7710006 -0.6368344 0 -0.7709998 0.6368355 0 -0.7709998 0.6368355 0 -0.7709998 0.6368355 0 -0.7709998 0.6368355 0 -0.7557278 0 0.6548858 -0.7557278 0 0.6548858 -0.7557278 0 0.6548858 -0.7557278 0 0.6548858 -0.8201398 -0.461516 0.3381918 -0.8201398 -0.461516 0.3381918 -0.8201398 -0.461516 0.3381918 -0.8201398 -0.461516 0.3381918 -1 0 0 -1 0 0 -1 0 0 -1 0 0 -1 0 0 -1 0 0 -1 0 0 -1 0 0 -1 0 0 -1 0 0 -1 0 0 -1 0 0 -1 0 0 -1 0 0 -1 0 0 -1 0 0 1 0 0 1 0 0 1 0 0 1 0 0 0.8199959 -0.4617577 0.3382109 0.8199959 -0.4617577 0.3382109 0.8199959 -0.4617577 0.3382109 0.8199959 -0.4617577 0.3382109 0.7557278 0 0.6548859 0.7557278 0 0.6548859 0.7557278 0 0.6548859 0.7557278 0 0.6548859 0.7709998 0.6368355 0 0.7709998 0.6368355 0 0.7709998 0.6368355 0 0.7709998 0.6368355 0 0.7710006 -0.6368344 0 0.7710006 -0.6368344 0 0.7710006 -0.6368344 0 0.7710006 -0.6368344 0 1 0 0 1 0 0 1 0 0 1 0 0 1 0 0 1 0 0 1 0 0 1 0 0 0 0.75397 -0.6569088 0 0.75397 -0.6569088 0 0.75397 -0.6569088 0 0.75397 -0.6569088 0 0 -1 0 0 -1 0 0 -1 0 0 -1 0.8580622 0.3871983 -0.3373525 0.8580622 0.3871983 -0.3373525 0.8580622 0.3871983 -0.3373525 0.9306564 0 -0.3658943 0.9306564 0 -0.3658943 0.9306564 0 -0.3658943 0.9306564 0 -0.3658943 0 1 0 0 1 0 0 1 0 0 1 0 -0.8580625 -0.3871973 -0.3373532 -0.8580625 -0.3871973 -0.3373532 -0.8580625 -0.3871973 -0.3373532 0 -0.7539685 -0.6569107 0 -0.7539685 -0.6569107 0 -0.7539685 -0.6569107 0 -0.7539685 -0.6569107 0.8580624 -0.3871974 -0.3373531 0.8580624 -0.3871974 -0.3373531 0.8580624 -0.3871974 -0.3373531 0.7557207 0 -0.6548941 0.7557207 0 -0.6548941 0.7557207 0 -0.6548941 0.7557207 0 -0.6548941 1 0 0 1 0 0 1 0 0 1 0 0 0 0 -1 0 0 -1 0 0 -1 0 0 -1 -0.7557206 0 -0.6548942 -0.7557206 0 -0.6548942 -0.7557206 0 -0.6548942 -0.7557206 0 -0.6548942 0.7709974 0.6368384 0 0.7709974 0.6368384 0 0.7709974 0.6368384 0 0.7709974 0.6368384 0 -0.7709973 0.6368384 0 -0.7709973 0.6368384 0 -0.7709973 0.6368384 0 -0.7709973 0.6368384 0 0.9306564 0 0.3658943 0.9306564 0 0.3658943 0.9306564 0 0.3658943 0.9306564 0 0.3658943 0.8580622 0.3871983 0.3373525 0.8580622 0.3871983 0.3373525 0.8580622 0.3871983 0.3373525 0.7710006 -0.6368344 0 0.7710006 -0.6368344 0 0.7710006 -0.6368344 0 0.7710006 -0.6368344 0 0.7709998 0.6368355 0 0.7709998 0.6368355 0 0.7709998 0.6368355 0 0.7709998 0.6368355 0 0.7557278 0 -0.6548858 0.7557278 0 -0.6548858 0.7557278 0 -0.6548858 0.7557278 0 -0.6548858 0.8201398 -0.461516 -0.3381918 0.8201398 -0.461516 -0.3381918 0.8201398 -0.461516 -0.3381918 0.8201398 -0.461516 -0.3381918 1 0 0 1 0 0 1 0 0 1 0 0 1 0 0 1 0 0 1 0 0 1 0 0 1 0 0 1 0 0 1 0 0 1 0 0 1 0 0 1 0 0 1 0 0 1 0 0 -1 0 0 -1 0 0 -1 0 0 -1 0 0 -0.8199959 -0.4617577 -0.3382109 -0.8199959 -0.4617577 -0.3382109 -0.8199959 -0.4617577 -0.3382109 -0.8199959 -0.4617577 -0.3382109 -0.7557278 0 -0.6548859 -0.7557278 0 -0.6548859 -0.7557278 0 -0.6548859 -0.7557278 0 -0.6548859 -0.7709998 0.6368355 0 -0.7709998 0.6368355 0 -0.7709998 0.6368355 0 -0.7709998 0.6368355 0 -0.7710006 -0.6368344 0 -0.7710006 -0.6368344 0 -0.7710006 -0.6368344 0 -0.7710006 -0.6368344 0 -1 0 0 -1 0 0 -1 0 0 -1 0 0 -1 0 0 -1 0 0 -1 0 0 -1 0 0 0 0.75397 0.6569088 0 0.75397 0.6569088 0 0.75397 0.6569088 0 0.75397 0.6569088 0 0 1 0 0 1 0 0 1 0 0 1 -0.8580622 0.3871983 0.3373525 -0.8580622 0.3871983 0.3373525 -0.8580622 0.3871983 0.3373525 -0.9306564 0 0.3658943 -0.9306564 0 0.3658943 -0.9306564 0 0.3658943 -0.9306564 0 0.3658943 0 1 0 0 1 0 0 1 0 0 1 0 0.8580625 -0.3871973 0.3373532 0.8580625 -0.3871973 0.3373532 0.8580625 -0.3871973 0.3373532 0 -0.7539685 0.6569107 0 -0.7539685 0.6569107 0 -0.7539685 0.6569107 0 -0.7539685 0.6569107 -0.8580624 -0.3871974 0.3373531 -0.8580624 -0.3871974 0.3373531 -0.8580624 -0.3871974 0.3373531 -0.7557207 0 0.6548941 -0.7557207 0 0.6548941 -0.7557207 0 0.6548941 -0.7557207 0 0.6548941 -1 0 0 -1 0 0 -1 0 0 -1 0 0 0 0 1 0 0 1 0 0 1 0 0 1 0.7557206 0 0.6548942 0.7557206 0 0.6548942 0.7557206 0 0.6548942 0.7557206 0 0.6548942 -0.7709974 0.6368384 0 -0.7709974 0.6368384 0 -0.7709974 0.6368384 0 -0.7709974 0.6368384 0 0.7709973 0.6368384 0 0.7709973 0.6368384 0 0.7709973 0.6368384 0 0.7709973 0.6368384 0 -1 0 0 -1 0 0 -1 0 0 -1 0 0 -0.8172853 0.4313183 0.3821118 -0.8172853 0.4313183 0.3821118 -0.8172853 0.4313183 0.3821118 -0.8172853 0.4313183 0.3821118 -0.7557209 0 0.6548939 -0.7557209 0 0.6548939 -0.7557209 0 0.6548939 -0.7557209 0 0.6548939 -1 0 0 -1 0 0 -1 0 0 -1 0 0 0.7299499 -0.6835006 0 0.7299499 -0.6835006 0 0.7299499 -0.6835006 0 0.7299499 -0.6835006 0 0.7557209 0 0.6548939 0.7557209 0 0.6548939 0.7557209 0 0.6548939 0.7557209 0 0.6548939 0.8172853 0.4313183 0.3821118 0.8172853 0.4313183 0.3821118 0.8172853 0.4313183 0.3821118 0.8172853 0.4313183 0.3821118 1 0 0 1 0 0 1 0 0 1 0 0 1 0 0 1 0 0 1 0 0 1 0 0 -0.7557209 0 -0.6548939 -0.7557209 0 -0.6548939 -0.7557209 0 -0.6548939 -0.7557209 0 -0.6548939 -0.7299499 -0.6835006 0 -0.7299499 -0.6835006 0 -0.7299499 -0.6835006 0 -0.7299499 -0.6835006 0 0.7557208 0 -0.6548939 0.7557208 0 -0.6548939 0.7557208 0 -0.6548939 0.7557208 0 -0.6548939 0 0 -1 0 0 -1 0 0 -1 0 0 -1 0 -1 0 0 -1 0 0 -1 0 0 -1 0 1 0 0 1 0 0 1 0 0 1 0 0 0.8172853 0.4313183 -0.3821118 0.8172853 0.4313183 -0.3821118 0.8172853 0.4313183 -0.3821118 0.8172853 0.4313183 -0.3821118 0.7557209 0 -0.6548939 0.7557209 0 -0.6548939 0.7557209 0 -0.6548939 0.7557209 0 -0.6548939 1 0 0 1 0 0 1 0 0 1 0 0 -0.7299499 -0.6835006 0 -0.7299499 -0.6835006 0 -0.7299499 -0.6835006 0 -0.7299499 -0.6835006 0 -0.7557209 0 -0.6548939 -0.7557209 0 -0.6548939 -0.7557209 0 -0.6548939 -0.7557209 0 -0.6548939 -0.8172853 0.4313183 -0.3821118 -0.8172853 0.4313183 -0.3821118 -0.8172853 0.4313183 -0.3821118 -0.8172853 0.4313183 -0.3821118 -1 0 0 -1 0 0 -1 0 0 -1 0 0 -1 0 0 -1 0 0 -1 0 0 -1 0 0 0.7557208 0 0.6548939 0.7557208 0 0.6548939 0.7557208 0 0.6548939 0.7557208 0 0.6548939 0.7299498 -0.6835007 0 0.7299498 -0.6835007 0 0.7299498 -0.6835007 0 0.7299498 -0.6835007 0 -0.7557208 0 0.6548939 -0.7557208 0 0.6548939 -0.7557208 0 0.6548939 -0.7557208 0 0.6548939 0 0 1 0 0 1 0 0 1 0 0 1 0 -1 0 0 -1 0 0 -1 0 0 -1 0 1 0 0 1 0 0 1 0 0 1 0 0 -1 0 0 -1 0 0 -1 0 0 -1 0 0</float_array>
          <technique_common>
            <accessor source="#polySurfaceShape18-normals-array" count="360" stride="3">
              <param name="X" type="float"/>
              <param name="Y" type="float"/>
              <param name="Z" type="float"/>
            </accessor>
          </technique_common>
        </source>
        <source id="polySurfaceShape18-map1" name="polySurfaceShape18-map1">
          <float_array id="polySurfaceShape18-map1-array" count="356">0.440553 0.275776 0.449553 0.281838 0.449553 0.275776 0.440553 0.210351 0.449553 0.210351 0.449553 0.202886 0.419768 0.281838 0.426405 0.275776 0.400014 0.281838 0.402715 0.275776 0.402715 0.21 0.400014 0.202886 0.419289 0.202886 0.426405 0.21 0.419289 0.106191 0.426405 0.101475 0.3949789 0.086501 0.4011956 0.080286 0.440553 0 0.4011956 0 0.03634767 0.08428401 0.014172 0.101475 0 0 0.03634767 0 0.04253779 0.08653599 0.020416 0.105227 0.020416 0.202886 0.014172 0.21 0.039434 0.202886 0.036042 0.21 0.036042 0.275776 0.039434 0.281838 0.01983 0.281838 0.012967 0.275776 0 0.275776 0 0.21 0.48806 0.210351 0.48806 0.202886 0.488012 0.275776 0.488012 0.281838 0.49777 0.210351 0.49777 0.275776 0.941341 0.416166 0.9420872 0.4593396 0.9093934 0.4593729 0.909714 0.416166 0.4906179 0 0.49777 0 0.4482553 0 0.947607 0.4223 0.947607 0.459334 0.903449 0.459379 0.903449 0.422255 0.440553 0.275776 0.449553 0.281838 0.449553 0.275776 0.440553 0.210351 0.449553 0.210351 0.449553 0.202886 0.419768 0.281838 0.426405 0.275776 0.400014 0.281838 0.402715 0.275776 0.402715 0.21 0.400014 0.202886 0.419289 0.202886 0.426405 0.21 0.419289 0.106191 0.426405 0.101475 0.3949789 0.086501 0.4011956 0.080286 0.440553 0 0.4011956 0 0.03634767 0.08428401 0.014172 0.101475 0 0 0.03634767 0 0.04253779 0.08653599 0.020416 0.105227 0.020416 0.202886 0.014172 0.21 0.039434 0.202886 0.036042 0.21 0.036042 0.275776 0.039434 0.281838 0.01983 0.281838 0.012967 0.275776 0 0.275776 0 0.21 0.48806 0.210351 0.48806 0.202886 0.488012 0.275776 0.488012 0.281838 0.49777 0.210351 0.49777 0.275776 0.941341 0.416166 0.9420872 0.4593396 0.9093934 0.4593729 0.909714 0.416166 0.4906179 0 0.49777 0 0.4482553 0 0.947607 0.4223 0.947607 0.459334 0.903449 0.459379 0.903449 0.422255 0.440553 1 0.4014503 1 0.4014503 0.915208 0.426405 0.895798 0.3950835 0.911827 0.419289 0.892702 0.419289 0.795784 0.426405 0.789199 0.440553 0.789199 0.903449 0.459379 0.903449 0.422255 0.909714 0.416166 0.9103248 0.459372 0.01983 0.795784 0.01983 0.892702 0.013207 0.895798 0.013207 0.789199 0.04259899 0.911827 0.03671679 0.915208 0 0.789199 0 1 0.03671679 1 0.449553 0.795784 0.4472844 1 0.947607 0.459334 0.942412 0.4593393 0.941341 0.416166 0.947607 0.4223 0.488012 0.795784 0.49777 0.789199 0.49777 1 0.4888608 1 0.440553 1 0.4014503 1 0.4014503 0.915208 0.426405 0.895798 0.3950835 0.911827 0.419289 0.892702 0.419289 0.795784 0.426405 0.789199 0.440553 0.789199 0.903449 0.459379 0.903449 0.422255 0.909714 0.416166 0.9103248 0.459372 0.01983 0.795784 0.01983 0.892702 0.013207 0.895798 0.013207 0.789199 0.040267 0.911827 0.034307 0.915208 0 0.789199 0 1 0.034307 1 0.449553 0.795784 0.4472844 1 0.947607 0.459334 0.942412 0.4593393 0.941341 0.416166 0.947607 0.4223 0.488012 0.795784 0.49777 0.789199 0.49777 1 0.4888608 1 0.2255422 0.3490634 0.1926129 0.3489746 0.2255421 0.6449329 0.1926129 0.6448442 0.2255422 0.3490634 0.1926129 0.3489746 0.2255421 0.6449329 0.1926129 0.6448442</float_array>
          <technique_common>
            <accessor source="#polySurfaceShape18-map1-array" count="178" stride="2">
              <param name="S" type="float"/>
              <param name="T" type="float"/>
            </accessor>
          </technique_common>
        </source>
        <vertices id="polySurfaceShape18-vertices" name="polySurfaceShape18-vertices">
          <input semantic="POSITION" source="#polySurfaceShape18-positions"/>
        </vertices>
        <triangles material="lambert2SG" count="176">
          <input semantic="VERTEX" source="#polySurfaceShape18-vertices" offset="0"/>
          <input semantic="NORMAL" source="#polySurfaceShape18-normals" offset="1"/>
          <input semantic="TEXCOORD" source="#polySurfaceShape18-map1" offset="2" set="0"/>
          <p>35 0 2 16 1 0 34 3 4 34 3 4 16 1 0 15 2 3 15 4 3 40 5 5 34 6 4 0 8 8 8 9 9 2 7 6 2 7 6 8 9 9 7 10 7 1 12 11 4 13 12 9 11 10 9 11 10 4 13 12 10 14 13 5 16 14 11 17 15 4 15 12 4 15 12 11 17 15 10 18 13 5 19 14 6 20 16 11 22 15 11 22 15 6 20 16 12 21 17 10 24 13 11 25 15 15 23 3 15 23 3 11 25 15 14 26 18 11 28 15 12 29 17 14 27 18 14 27 18 12 29 17 13 30 19 15 31 3 16 32 0 10 34 13 10 34 13 16 32 0 7 33 7 9 35 10 10 36 13 8 38 9 8 38 9 10 36 13 7 37 7 29 40 21 26 41 22 28 39 20 28 39 20 26 41 22 27 42 23 28 43 20 23 44 24 29 46 21 29 46 21 23 44 24 22 45 25 22 48 25 21 49 26 29 47 21 29 47 21 21 49 26 30 50 27 18 52 28 31 53 29 21 51 26 21 51 26 31 53 29 30 54 27 17 56 31 19 57 32 32 55 30 32 55 30 19 57 32 33 58 33 30 59 27 33 60 33 25 62 35 25 62 35 33 60 33 24 61 34 30 64 27 25 65 35 29 63 21 29 63 21 25 65 35 26 66 22 36 67 36 34 68 4 41 70 37 41 70 37 34 68 4 40 69 5 37 71 38 35 72 2 36 74 36 36 74 36 35 72 2 34 73 4 36 75 36 41 76 37 25 77 40 24 78 41 37 79 38 25 81 40 25 81 40 37 79 38 36 80 36 20 82 42 42 83 43 3 85 45 3 85 45 42 83 43 43 84 44 38 86 1 16 87 0 35 88 2 37 89 38 39 90 39 35 92 2 35 92 2 39 90 39 38 91 1 24 93 41 39 94 39 37 95 38 42 97 46 26 98 47 41 96 37 41 96 37 26 98 47 25 99 40 32 100 30 33 101 33 31 103 29 31 103 29 33 101 33 30 102 27 41 104 37 40 105 5 42 107 46 42 107 46 40 105 5 43 106 48 43 108 48 40 109 5 14 111 18 14 111 18 40 109 5 15 110 3 27 112 49 26 113 50 20 115 42 20 115 42 26 113 50 42 114 43 43 117 44 14 118 51 3 116 45 3 116 45 14 118 51 13 119 52 63 120 55 52 121 53 62 123 57 62 123 57 52 121 53 51 122 56 51 124 56 68 125 58 62 126 57 17 128 61 32 129 62 44 127 59 44 127 59 32 129 62 47 130 60 18 132 64 45 133 65 31 131 63 31 131 63 45 133 65 48 134 66 46 136 67 49 137 68 45 135 65 45 135 65 49 137 68 48 138 66 46 139 67 23 140 69 49 142 68 49 142 68 23 140 69 28 141 70 48 144 66 49 145 68 51 143 56 51 143 56 49 145 68 50 146 71 49 148 68 28 149 70 50 147 71 50 147 71 28 149 70 27 150 72 51 151 56 52 152 53 48 154 66 48 154 66 52 152 53 47 153 60 31 155 63 48 156 66 32 158 62 32 158 62 48 156 66 47 157 60 59 160 74 58 161 75 12 159 73 12 159 73 58 161 75 13 162 76 12 163 73 6 164 77 59 166 74 59 166 74 6 164 77 55 165 78 55 168 78 54 169 79 59 167 74 59 167 74 54 169 79 60 170 80 1 172 81 9 173 82 54 171 79 54 171 79 9 173 82 60 174 80 0 176 84 53 177 85 8 175 83 8 175 83 53 177 85 61 178 86 60 179 80 61 180 86 57 182 88 57 182 88 61 180 86 56 181 87 60 184 80 57 185 88 59 183 74 59 183 74 57 185 88 58 186 75 64 187 89 62 188 57 69 190 90 69 190 90 62 188 57 68 189 58 65 191 91 63 192 55 64 194 89 64 194 89 63 192 55 62 193 57 64 195 89 69 196 90 57 197 93 56 198 94 65 199 91 57 201 93 57 201 93 65 199 91 64 200 89 3 202 95 70 203 96 20 205 98 20 205 98 70 203 96 71 204 97 66 206 54 52 207 53 63 208 55 65 209 91 67 210 92 63 212 55 63 212 55 67 210 92 66 211 54 56 213 94 67 214 92 65 215 91 70 217 99 58 218 100 69 216 90 69 216 90 58 218 100 57 219 93 8 220 83 61 221 86 9 223 82 9 223 82 61 221 86 60 222 80 69 224 90 68 225 58 70 227 99 70 227 99 68 225 58 71 226 101 71 228 101 68 229 58 50 231 71 50 231 71 68 229 58 51 230 56 13 232 102 58 233 103 3 235 95 3 235 95 58 233 103 70 234 96 71 237 97 50 238 104 20 236 98 20 236 98 50 238 104 27 239 105 75 241 107 76 242 108 78 240 106 78 240 106 76 242 108 77 243 109 76 244 108 74 245 110 77 247 109 77 247 109 74 245 110 73 246 111 73 249 111 2 250 112 77 248 109 77 248 109 2 250 112 7 251 113 78 253 106 77 254 109 16 252 114 16 252 114 77 254 109 7 255 113 84 257 116 79 258 117 85 256 115 85 256 115 79 258 117 87 259 118 80 261 120 82 262 121 19 260 119 19 260 119 82 262 121 33 263 122 80 264 120 81 265 123 82 267 121 82 267 121 81 265 123 83 266 124 33 269 122 82 270 121 24 268 125 24 268 125 82 270 121 85 271 126 82 273 121 83 274 124 85 272 126 85 272 126 83 274 124 84 275 127 86 277 129 78 278 106 38 276 128 38 276 128 78 278 106 16 279 114 86 281 131 72 282 132 78 280 130 78 280 130 72 282 132 75 283 133 24 285 135 85 286 136 39 284 134 39 284 134 85 286 136 87 287 137 87 288 137 86 289 129 39 291 134 39 291 134 86 289 129 38 290 128 72 292 132 86 293 131 79 295 117 79 295 117 86 293 131 87 294 118 84 297 139 83 298 140 90 296 138 90 296 138 83 298 140 89 299 141 83 300 140 81 301 142 89 303 141 89 303 141 81 301 142 88 302 143 88 305 143 44 306 144 89 304 141 89 304 141 44 306 144 47 307 145 90 309 138 89 310 141 52 308 146 52 308 146 89 310 141 47 311 145 75 313 148 72 314 149 93 312 147 93 312 147 72 314 149 95 315 150 91 317 152 92 318 153 53 316 151 53 316 151 92 318 153 61 319 154 91 320 152 74 321 155 92 323 153 92 323 153 74 321 155 76 322 156 61 325 154 92 326 153 56 324 157 56 324 157 92 326 153 93 327 158 92 329 153 76 330 156 93 328 158 93 328 158 76 330 156 75 331 159 94 333 161 90 334 138 66 332 160 66 332 160 90 334 138 52 335 146 94 337 163 79 338 164 90 336 162 90 336 162 79 338 164 84 339 165 56 341 167 93 342 168 67 340 166 67 340 166 93 342 168 95 343 169 95 344 169 94 345 161 67 347 166 67 347 166 94 345 161 66 346 160 79 348 164 94 349 163 72 351 149 72 351 149 94 349 163 95 350 150 96 352 170 98 353 172 97 355 171 97 355 171 98 353 172 99 354 173 100 356 174 102 357 176 101 359 175 101 359 175 102 357 176 103 358 177</p>
        </triangles>
      </mesh>
      <extra>
        <technique profile="OpenCOLLADAMaya">
          <originalMayaNodeId>polySurfaceShape18</originalMayaNodeId>
          <double_sided>1</double_sided>
        </technique>
      </extra>
    </geometry>
  </library_geometries>
  <library_visual_scenes>
    <visual_scene id="VisualSceneNode" name="catwalk_white">
      <node id="polySurface18" name="polySurface18" type="NODE">
        <translate sid="translate">0 0 0</translate>
        <rotate sid="rotateZ">0 0 1 0</rotate>
        <rotate sid="rotateY">0 1 0 0</rotate>
        <rotate sid="rotateX">1 0 0 0</rotate>
        <scale sid="scale">1 1 1</scale>
        <instance_geometry url="#polySurfaceShape18">
          <bind_material>
            <technique_common>
              <instance_material symbol="lambert2SG" target="#lambert2">
                <bind_vertex_input semantic="TEX0" input_semantic="TEXCOORD" input_set="0"/>
              </instance_material>
            </technique_common>
          </bind_material>
        </instance_geometry>
        <extra>
          <technique profile="OpenCOLLADAMaya">
            <originalMayaNodeId>polySurface18</originalMayaNodeId>
          </technique>
        </extra>
      </node>
    </visual_scene>
  </library_visual_scenes>
  <scene>
    <instance_visual_scene url="#VisualSceneNode"/>
  </scene>
</COLLADA>