<?xml version="1.0" encoding="utf-8" ?>
<COLLADA xmlns="http://www.collada.org/2005/11/COLLADASchema" version="1.4.1">
    <asset>
        <contributor>
            <author>Marc</author>
            <authoring_tool>modo 601 [Build 48460], Microsoft Windows 7 Service Pack 1 (6.1.7601 Service Pack 1)</authoring_tool>
            <comments>Plug-in: [Build 48460]; Use Absolute Path: No; Merge Reference Items: No; Save Hidden Items: No; Save Cameras: No; Save Lights: No; Save Locators: Yes; Save Triangles as Triangles: No; Bake Matrices: Yes; Save Vertex Normals: Yes; Save UV Texture Coordinates: Yes; Save Vertex Colors: Yes; Save Vertex Weights: Yes; Save Animation: No; Sample Animation: No; Sample Animation Start: 0; Sample Animation End: 235; Save modo Profile: No; Save Maya Profile: No; Save 3ds Max Profile: No; Formatted Arrays: No;</comments>
            <source_data>file:///D:/Work/Dropbox/Frictional%20Games%20-%20Team/Aaron/models/static_objects/station/floor/living_area_welder.lxo</source_data>
        </contributor>
        <created>2013-11-21T11:55:55Z</created>
        <modified>2013-11-21T11:55:55Z</modified>
        <unit name="game" meter="1" />
        <up_axis>Y_UP</up_axis>
    </asset>
    <library_images>
        <image id="Image0001" name="Image0001">
            <init_from>file:///D:/Work/Dropbox/Frictional%20Games%20-%20Team/Aaron/models/static_objects/station/floor/living_area_welder.tga</init_from>
        </image>
        <image id="Image0002" name="Image0002">
            <init_from>file:///D:/Work/Dropbox/Frictional%20Games%20-%20Team/Aaron/models/static_objects/station/floor/living_area_welder_nrm.tga</init_from>
        </image>
    </library_images>
    <library_materials>
        <material id="Material-lambert2" name="lambert2">
            <instance_effect url="#Effect-lambert2" />
        </material>
    </library_materials>
    <library_effects>
        <effect id="Effect-lambert2" name="lambert2">
            <profile_COMMON>
                <newparam sid="Image0001-surface">
                    <surface type="2D">
                        <init_from>Image0001</init_from>
                        <format>A8R8G8B8</format>
                    </surface>
                </newparam>
                <newparam sid="Image0001-sampler">
                    <sampler2D>
                        <source>Image0001-surface</source>
                        <minfilter>LINEAR_MIPMAP_LINEAR</minfilter>
                        <magfilter>LINEAR</magfilter>
                    </sampler2D>
                </newparam>
                <technique sid="common">
                    <phong>
                        <diffuse>
                            <texture texture="Image0001-sampler" texcoord="uvSet1" />
                        </diffuse>
                        <specular>
                            <color sid="specular_effect_rgb">0.2 0.2 0.2 1</color>
                        </specular>
                        <shininess>
                            <float sid="specular_effect_rgb">256</float>
                        </shininess>
                        <transparent opaque="RGB_ZERO">
                            <color sid="transparent_effect_rgb">0 0 0 1</color>
                        </transparent>
                        <transparency>
                            <float sid="transparency_effect_float">1</float>
                        </transparency>
                    </phong>
                </technique>
            </profile_COMMON>
        </effect>
    </library_effects>
    <library_geometries>
        <geometry id="Geometry-mesh034" name="short">
            <mesh>
                <source id="Geometry-mesh034-positions" name="positions">
                    <float_array id="Geometry-mesh034-positions-array" count="132">1.74446 0.0275727 0.0174729 1.74446 0 0 1.74446 0.0275727 0.0861111 1.69473 0.00348495 0.265848 1.69473 0.00348495 0.105723 1.74446 0.0162497 0.27862 1.7025 0.0162497 0.328194 1.69473 0 0.344444 1.81268 0 0.516667 1.82125 0.0162497 0.500417 1.90284 0.0275727 0.0861111 1.87223 0.0162497 0.234426 1.91833 0.0103781 0.121527 1.90284 0.0275727 0.0174729 1.90284 0 0 2 0 0.516667 2 0.0162497 0.500417 2 0.0162497 0.234426 2 0.0103781 0.121527 2 0.0275727 0.0861111 2 0.0275727 0.0174729 2 0 0 0.255544 0.0275727 0.0174729 0.255544 0 0 0.255544 0.0275727 0.0861111 0.305268 0.00348495 0.105723 0.305268 0.00348495 0.265848 0.255544 0.0162497 0.27862 0.297498 0.0162497 0.328194 0.305268 0 0.344444 0.178752 0.0162497 0.500417 0.187319 0 0.516667 0.0971624 0.0275727 0.0861111 0.127772 0.0162497 0.234426 0.0816696 0.0103781 0.121527 0.0971624 0.0275727 0.0174729 0.0971624 0 0 0 0 0.516667 0 0.0162497 0.500417 0 0.0162497 0.234426 0 0.0103781 0.121527 0 0.0275727 0.0861111 0 0.0275727 0.0174729 0 0 0</float_array>
                    <technique_common>
                        <accessor count="44" source="#Geometry-mesh034-positions-array" stride="3">
                            <param name="X" type="float" />
                            <param name="Y" type="float" />
                            <param name="Z" type="float" />
                        </accessor>
                    </technique_common>
                </source>
                <source id="Geometry-mesh034-normals" name="normals">
                    <float_array id="Geometry-mesh034-normals-array" count="108">0.0699007 0.997023 0.0325401 0.111173 0.973826 0.198252 0.0778827 0.99183 0.101037 -0.0699014 0.997023 0.0325402 -0.109916 0.98366 0.142592 -0.111174 0.973826 0.198252 0 0.967538 0.252726 0 0.707104 0.70711 0.21667 0.886322 0.409253 0.308984 0.748998 0.586115 -0.114449 0.987833 -0.105297 -0.070671 0.982709 0.171141 -0.308979 0.749004 0.586111 -0.216669 0.886322 0.409253 -0.3118 0.74561 0.588937 -0.107014 0.973671 0.20128 0 0.535276 -0.844677 0 0.535276 -0.844677 0 0.81817 -0.574977 0 0.94873 -0.316088 0.0894802 0.962953 -0.25439 -0.0539104 0.950332 -0.306534 0.144017 0.973254 0.178986 -0.148591 0.922033 0.357459 0 0.911226 -0.411906 0 0.774825 -0.632176 0.108793 0.936186 0.334244 0.412927 0.739339 0.531854 0 0.9546 0.297891 0 0.980064 0.198681 0 0.535276 -0.844677 0.0476142 0.976949 0.208094 0 0.974572 0.224073 0.0870044 0.980686 -0.175169 0 0.9994 -0.0346354 0 0.980064 0.198681</float_array>
                    <technique_common>
                        <accessor count="36" source="#Geometry-mesh034-normals-array" stride="3">
                            <param name="X" type="float" />
                            <param name="Y" type="float" />
                            <param name="Z" type="float" />
                        </accessor>
                    </technique_common>
                </source>
                <source id="Geometry-mesh034-uvSet1" name="uvSet1">
                    <float_array id="Geometry-mesh034-uvSet1-array" count="118">0.720762 0.446716 0.743953 0.56092 0.730829 0.597479 0.84886 0.446508 0.839016 0.597331 0.82584 0.560851 0.00849888 0.470179 0.00836083 0.4463 0.0963345 0.470179 0.100365 0.4463 0.86741 0.687963 0.930145 0.731363 0.867171 0.877432 0.945011 0.87792 0.900119 0.451094 0.906776 0.470179 0.841978 0.617827 0.847022 0.638995 0.135728 0.976116 0.0578833 0.976116 0.13573 0.944295 0.0578794 0.944295 0.159166 0.70952 0.843855 0.70997 0.159142 0.844348 0.843829 0.84482 0.867137 0.944768 0.944988 0.945206 0.156003 0.638243 0.161059 0.617085 0.736236 0.603107 0.784716 0.603115 0.784716 0.560765 0.0101294 0.944295 0.010132 0.976116 0.867122 0.976639 0.0578929 0.876964 0.135732 0.876638 0.992781 0.878075 0.992738 0.945355 0.0101242 0.877014 0.135732 0.876638 0.135589 0.687167 0.867171 0.877432 0.86741 0.687963 0.784716 0.446458 0.994611 0.470179 0.994761 0.446726 0.902758 0.446726 0.944967 0.977072 0.0728316 0.731363 0.135589 0.687168 0.992937 0.731363 0.992718 0.97722 0.135589 0.687168 0.135731 0.876638 0.0100395 0.731363 0.833623 0.602991 0.103002 0.450236</float_array>
                    <technique_common>
                        <accessor count="59" source="#Geometry-mesh034-uvSet1-array" stride="2">
                            <param name="S" type="float" />
                            <param name="T" type="float" />
                        </accessor>
                    </technique_common>
                </source>
                <vertices id="Geometry-mesh034-vertices">
                    <input semantic="POSITION" source="#Geometry-mesh034-positions" />
                </vertices>
                <polylist count="64" material="Material-lambert2">
                    <input semantic="VERTEX" source="#Geometry-mesh034-vertices" offset="0" />
                    <input semantic="NORMAL" source="#Geometry-mesh034-normals" offset="1" />
                    <input semantic="TEXCOORD" source="#Geometry-mesh034-uvSet1" offset="2" set="0" />
                    <vcount>3 3 3 3 3 3 3 3 3 3 3 3 3 3 3 3 3 3 3 3 3 3 3 3 3 3 3 3 3 3 3 3 3 3 3 3 3 3 3 3 3 3 3 3 3 3 3 3 3 3 3 3 3 3 3 3 3 3 3 3 3 3 3 3</vcount>
                    <p>11 0 0 12 1 1 10 2 2 33 3 3 32 4 4 34 5 5 38 6 6 37 7 7 30 8 8 31 9 9 30 8 8 37 7 7 5 10 10 11 0 11 2 11 12 10 2 13 2 11 12 11 0 11 8 12 14 9 13 15 7 14 16 6 15 17 7 14 16 9 13 15 23 16 18 36 17 19 22 18 20 35 19 21 22 18 20 36 17 19 26 20 22 3 21 23 25 22 24 4 23 25 25 22 24 3 21 23 2 11 12 10 2 13 0 24 26 13 25 27 0 24 26 10 2 13 6 15 17 28 26 28 7 14 16 29 27 29 7 14 16 28 26 28 10 2 30 12 1 1 19 28 31 18 29 32 19 28 31 12 1 1 35 19 21 36 17 19 42 25 33 43 30 34 42 25 33 36 17 19 1 16 35 23 16 18 0 24 26 22 18 20 0 24 26 23 16 18 32 4 36 24 31 37 35 19 21 22 18 20 35 19 21 24 31 37 19 28 38 20 19 39 10 2 13 13 25 27 10 2 13 20 19 39 32 4 36 35 19 21 41 32 40 42 25 33 41 32 40 35 19 21 24 31 41 27 33 42 25 22 24 26 20 22 25 22 24 27 33 42 2 11 43 4 23 25 5 10 44 3 21 23 5 10 44 4 23 25 33 3 3 34 5 5 39 34 45 40 35 32 39 34 45 34 5 5 16 6 46 9 13 15 15 7 47 8 12 48 15 7 47 9 13 15 14 17 49 1 16 35 13 25 27 0 24 26 13 25 27 1 16 35 32 4 36 33 3 50 24 31 37 27 33 51 24 31 37 33 3 50 9 13 15 11 0 11 6 15 17 5 10 10 6 15 17 11 0 11 9 13 15 16 6 46 11 0 11 17 34 52 11 0 11 16 6 46 22 18 20 24 31 37 0 24 26 2 11 12 0 24 26 24 31 37 11 0 0 17 34 45 12 1 1 18 29 32 12 1 1 17 34 45 20 19 39 21 30 53 13 25 27 14 17 49 13 25 27 21 30 53 5 10 10 27 33 51 6 15 17 28 26 28 6 15 17 27 33 51 30 8 8 28 26 28 33 3 50 27 33 51 33 3 50 28 26 28 5 10 44 3 21 23 27 33 54 26 20 22 27 33 54 3 21 23 2 11 12 24 31 55 4 23 25 25 22 24 4 23 25 24 31 55 30 8 8 33 3 50 38 6 6 39 34 56 38 6 6 33 3 50 32 4 57 41 32 31 34 5 5 40 35 32 34 5 5 41 32 31 31 9 58 29 27 29 30 8 8 28 26 28 30 8 8 29 27 29</p>
                </polylist>
            </mesh>
        </geometry>
    </library_geometries>
    <library_visual_scenes>
        <visual_scene id="DefaultScene">
            <node id="Geometry-mesh034Node" name="short" type="NODE">
                <matrix sid="transform">1 0 0 0 0 1 0 0 0 0 1 0 0 0 0 1</matrix>
                <instance_geometry url="#Geometry-mesh034">
                    <bind_material>
                        <technique_common>
                            <instance_material symbol="Material-lambert2" target="#Material-lambert2">
                                <bind_vertex_input semantic="uvSet1" input_semantic="TEXCOORD" input_set="0" />
                            </instance_material>
                        </technique_common>
                    </bind_material>
                </instance_geometry>
            </node>
            <node id="groupLocator025Node" name="Texture_Group" type="NODE">
                <matrix sid="transform">1 0 0 0 0 1 0 0 0 0 1 0 0 0 0 1</matrix>
                <node id="txtrLocator027Node" name="living_area_welder_nrm__Image___Texture_" type="NODE">
                    <matrix sid="transform">1 0 0 0 0 1 0 0 0 0 1 0 0 0 0 1</matrix>
                </node>
                <node id="txtrLocator021Node" name="living_area_welder__Image___Texture_" type="NODE">
                    <matrix sid="transform">1 0 0 0 0 1 0 0 0 0 1 0 0 0 0 1</matrix>
                </node>
            </node>
        </visual_scene>
    </library_visual_scenes>
    <scene>
        <instance_visual_scene url="#DefaultScene" />
    </scene>
</COLLADA>
