<?xml version="1.0" encoding="utf-8" ?>
<COLLADA xmlns="http://www.collada.org/2005/11/COLLADASchema" version="1.4.1">
    <asset>
        <contributor>
            <author>Marc</author>
            <authoring_tool>modo 601 [Build 48460], Microsoft Windows 7 Service Pack 1 (6.1.7601 Service Pack 1)</authoring_tool>
            <comments>Plug-in: [Build 48460]; Use Absolute Path: No; Merge Reference Items: No; Save Hidden Items: No; Save Cameras: No; Save Lights: No; Save Locators: Yes; Save Triangles as Triangles: No; Bake Matrices: Yes; Save Vertex Normals: Yes; Save UV Texture Coordinates: Yes; Save Vertex Colors: Yes; Save Vertex Weights: Yes; Save Animation: No; Sample Animation: No; Sample Animation Start: 0; Sample Animation End: 235; Save modo Profile: No; Save Maya Profile: No; Save 3ds Max Profile: No; Formatted Arrays: No;</comments>
            <source_data>file:///D:/Work/Dropbox/Frictional%20Games%20-%20Team/Aaron/models/static_objects/station/floor/living_area_welder.lxo</source_data>
        </contributor>
        <created>2013-11-21T11:57:32Z</created>
        <modified>2013-11-21T11:57:32Z</modified>
        <unit name="game" meter="1" />
        <up_axis>Y_UP</up_axis>
    </asset>
    <library_images>
        <image id="Image0001" name="Image0001">
            <init_from>file:///D:/Work/Dropbox/Frictional%20Games%20-%20Team/Aaron/models/static_objects/station/floor/living_area_welder.tga</init_from>
        </image>
        <image id="Image0002" name="Image0002">
            <init_from>file:///D:/Work/Dropbox/Frictional%20Games%20-%20Team/Aaron/models/static_objects/station/floor/living_area_welder_nrm.tga</init_from>
        </image>
    </library_images>
    <library_materials>
        <material id="Material-lambert2" name="lambert2">
            <instance_effect url="#Effect-lambert2" />
        </material>
    </library_materials>
    <library_effects>
        <effect id="Effect-lambert2" name="lambert2">
            <profile_COMMON>
                <newparam sid="Image0001-surface">
                    <surface type="2D">
                        <init_from>Image0001</init_from>
                        <format>A8R8G8B8</format>
                    </surface>
                </newparam>
                <newparam sid="Image0001-sampler">
                    <sampler2D>
                        <source>Image0001-surface</source>
                        <minfilter>LINEAR_MIPMAP_LINEAR</minfilter>
                        <magfilter>LINEAR</magfilter>
                    </sampler2D>
                </newparam>
                <technique sid="common">
                    <phong>
                        <diffuse>
                            <texture texture="Image0001-sampler" texcoord="uvSet1" />
                        </diffuse>
                        <specular>
                            <color sid="specular_effect_rgb">0.2 0.2 0.2 1</color>
                        </specular>
                        <shininess>
                            <float sid="specular_effect_rgb">256</float>
                        </shininess>
                        <transparent opaque="RGB_ZERO">
                            <color sid="transparent_effect_rgb">0 0 0 1</color>
                        </transparent>
                        <transparency>
                            <float sid="transparency_effect_float">1</float>
                        </transparency>
                    </phong>
                </technique>
            </profile_COMMON>
        </effect>
    </library_effects>
    <library_geometries>
        <geometry id="Geometry-mesh035" name="concave_tiny">
            <mesh>
                <source id="Geometry-mesh035-positions" name="positions">
                    <float_array id="Geometry-mesh035-positions-array" count="153">0.507935 0.0162497 0.234426 0.489421 0.0103781 0.121527 0.483267 0.0275727 0.0861111 0.471851 0.0275727 0.0174729 0.468945 0.0214844 0 0.5625 0.0162497 0.234426 0.5625 0.0103781 0.121527 0.5625 0.0275727 0.0861111 0.5625 0.0275727 0.0174729 0.5625 0 0 0.5625 0.0162497 0.500417 0.5625 0 0.516667 0.516667 0 0.5625 0.500417 0.0162497 0.5625 0.234426 0.0162497 0.5625 0.121527 0.0103781 0.5625 0.0861111 0.0275727 0.5625 0.017473 0.0275727 0.5625 0 0 0.5625 0.234426 0.0162497 0.506915 0.123112 0.0103781 0.487787 0.0861111 0.0275727 0.481787 0.017473 0.0275727 0.470157 0 0.0214844 0.467197 0.1546 0.00824117 0.38335 0.12011 0.0248534 0.369081 0.0525266 0.0316987 0.339346 0.0361774 0.0257427 0.332192 0.212345 0.00700891 0.289132 0.182674 0.0233172 0.267383 0.123277 0.0337412 0.220925 0.109196 0.0278507 0.209975 0.290977 0.00684512 0.210507 0.267953 0.0231406 0.18247 0.221939 0.0337207 0.122642 0.211021 0.0278296 0.10854 0.385126 0.00791359 0.152847 0.3701 0.0245002 0.12012 0.340726 0.0316577 0.0522424 0.333616 0.0257004 0.0358841 0.430567 0.0167987 0.258313 0.302243 0.0170897 0.359613 0.360738 0.0170815 0.30131 0.258874 0.0168152 0.429417 0.544842 0.0162497 0.502694 0.549336 -0.000378629 0.518043 0.518748 0.0162497 0.518636 0.529539 -0.00114132 0.529477 0.502717 0.0162497 0.544662 0.518053 -0.000382254 0.549209 0 0.0250259 0</float_array>
                    <technique_common>
                        <accessor count="51" source="#Geometry-mesh035-positions-array" stride="3">
                            <param name="X" type="float" />
                            <param name="Y" type="float" />
                            <param name="Z" type="float" />
                        </accessor>
                    </technique_common>
                </source>
                <source id="Geometry-mesh035-normals" name="normals">
                    <float_array id="Geometry-mesh035-normals-array" count="171">-0.00786683 0.99925 -0.0379228 -0.0199095 0.998846 -0.0437179 0.073367 0.957576 0.278684 -0.0268359 0.99908 -0.0334431 -0.0319274 0.99919 -0.0244871 0.25714 0.914306 0.312928 -0.0363985 0.999226 -0.0148945 -0.0313226 0.999509 -0.000595928 0.273138 0.954998 0.11565 -0.05829 0.998291 0.00419404 -0.0233755 0.999453 -0.0234051 -0.0890611 0.995998 0.00755012 -0.0180775 0.999828 -0.00404954 -0.00386722 0.999825 -0.0183071 0.00424133 0.998296 -0.0581949 0.00752225 0.996034 -0.0886553 0.122005 0.531277 -0.838367 0.0234073 0.85179 -0.52336 0.0332579 0.94743 -0.318229 -0.0142441 0.98862 -0.149757 -0.838593 0.531422 0.1198 -0.318279 0.947435 0.0326556 -0.473008 0.881056 0.00207482 -0.115357 0.993309 -0.00541232 0.224704 0.971124 0.0801625 0.1559 0.985629 0.065035 0.217414 0.963841 0.154084 0.127605 0.986408 0.103518 -0.0698132 0.990573 -0.117857 -0.0716757 0.99592 -0.0548355 0.160239 0.96812 0.192527 -0.198611 0.949501 -0.242902 -0.102686 0.948182 -0.300676 -0.00594061 0.997839 -0.0654387 0.219956 0.975221 0.0237363 0.0285916 0.960819 0.275699 0.0434432 0.991623 0.121642 0.015564 0.984172 0.176534 0 0.9546 0.297891 0.17008 0.985303 0.0158716 0.292417 0.956286 0.00315752 -0.30019 0.948255 -0.103429 -0.135632 0.99013 -0.0353178 0.0955996 0.985666 0.139009 0.100417 0.962655 0.25142 0.0491947 0.923088 0.381431 0.0735225 0.694938 0.715301 0.270564 0.678487 0.682972 -0.0173177 0.99985 0 0.510773 0.858121 0.0523422 0.561201 0.673001 0.481792 0.694955 0.699701 0.165698 0 0.993463 0.114157 0.113968 0.993481 0.00279604 -0.26087 0.949339 -0.175223 0.706102 0.706099 0.0533284 0 0.99985 -0.0173177</float_array>
                    <technique_common>
                        <accessor count="57" source="#Geometry-mesh035-normals-array" stride="3">
                            <param name="X" type="float" />
                            <param name="Y" type="float" />
                            <param name="Z" type="float" />
                        </accessor>
                    </technique_common>
                </source>
                <source id="Geometry-mesh035-uvSet1" name="uvSet1">
                    <float_array id="Geometry-mesh035-uvSet1-array" count="60">0.0560768 0.731363 0.0231785 0.731363 0.0560768 0.470179 0.0396276 0.470179 0.526929 0.0946232 0.516742 0.309692 0.514671 0.00693818 0.551447 0.172749 0.586019 0.237985 0.627341 0.286098 0.672829 0.309845 0.0627387 0.976116 0.0165166 0.976116 0.0627387 0.944295 0.0165166 0.944295 0.785357 0.60323 0.785357 0.56092 0.820469 0.60323 0.820469 0.56092 0.0627387 0.876964 0.0165166 0.876964 0.749997 0.56092 0.785357 0.446207 0.749997 0.446207 0.749997 0.60323 0.820469 0.446207 0.0231785 0.470179 0.0560768 0.446326 0.0396276 0.446326 0.0231785 0.446326</float_array>
                    <technique_common>
                        <accessor count="30" source="#Geometry-mesh035-uvSet1-array" stride="2">
                            <param name="S" type="float" />
                            <param name="T" type="float" />
                        </accessor>
                    </technique_common>
                </source>
                <vertices id="Geometry-mesh035-vertices">
                    <input semantic="POSITION" source="#Geometry-mesh035-positions" />
                </vertices>
                <polylist count="80" material="Material-lambert2">
                    <input semantic="VERTEX" source="#Geometry-mesh035-vertices" offset="0" />
                    <input semantic="NORMAL" source="#Geometry-mesh035-normals" offset="1" />
                    <input semantic="TEXCOORD" source="#Geometry-mesh035-uvSet1" offset="2" set="0" />
                    <vcount>3 3 3 3 3 3 3 3 3 3 3 3 3 3 3 3 3 3 3 3 3 3 3 3 3 3 3 3 3 3 3 3 3 3 3 3 3 3 3 3 3 3 3 3 3 3 3 3 3 3 3 3 3 3 3 3 3 3 3 3 3 3 3 3 3 3 3 3 3 3 3 3 3 3 3 3 3 3 3 3</vcount>
                    <p>0 0 0 40 1 1 44 2 2 42 3 0 41 4 1 46 5 2 43 6 0 19 7 1 48 8 3 27 9 4 50 10 5 23 11 6 31 12 7 50 10 5 27 9 4 35 13 8 50 10 5 31 12 7 39 14 9 50 10 5 35 13 8 4 15 10 50 10 5 39 14 9 9 16 11 4 17 12 8 18 13 3 19 14 8 18 13 4 17 12 18 20 12 17 21 14 23 22 11 22 23 13 23 22 11 17 21 14 25 24 15 24 25 16 29 26 17 28 27 18 29 26 17 24 25 16 34 28 13 30 29 14 33 30 19 29 26 20 33 30 19 30 29 14 35 31 12 34 28 14 39 32 11 38 33 13 39 32 11 34 28 14 24 25 16 20 34 21 43 6 22 19 7 23 43 6 22 20 34 21 1 35 16 36 36 21 0 0 22 40 1 23 0 0 22 36 36 21 3 19 14 2 37 20 8 18 13 7 38 19 8 18 13 2 37 20 22 23 13 17 21 14 21 39 19 16 40 20 21 39 19 17 21 14 27 41 11 23 22 12 26 42 13 22 23 14 26 42 13 23 22 12 29 26 24 28 27 21 33 30 15 32 43 16 33 30 15 28 27 21 34 28 14 33 30 20 38 33 13 37 44 19 38 33 13 33 30 20 4 17 11 39 32 12 3 19 13 38 33 14 3 19 13 39 32 12 36 36 18 32 43 16 40 1 25 42 3 22 40 1 25 32 43 16 10 45 2 44 2 26 11 46 27 45 47 28 11 46 27 44 2 26 19 7 0 14 48 1 48 8 3 13 49 26 48 8 3 14 48 1 46 5 2 48 8 3 47 50 27 49 51 29 47 50 27 48 8 3 2 37 15 1 35 16 7 38 17 6 52 18 7 38 17 1 35 16 21 39 17 16 40 15 20 34 18 15 53 16 20 34 18 16 40 15 26 42 13 22 23 14 25 24 19 21 39 20 25 24 19 22 23 14 27 41 12 26 42 14 31 54 11 30 29 13 31 54 11 26 42 14 33 30 15 32 43 16 37 44 17 36 36 18 37 44 17 32 43 16 38 33 14 37 44 20 3 19 13 2 37 19 3 19 13 37 44 20 32 43 16 28 27 21 42 3 22 41 4 23 42 3 22 28 27 21 44 2 2 46 5 26 45 47 28 47 50 29 45 47 28 46 5 26 48 8 3 13 49 26 49 51 27 12 55 29 49 51 27 13 49 26 1 35 16 0 0 22 6 52 18 5 56 25 6 52 18 0 0 22 20 34 18 15 53 16 19 7 25 14 48 22 19 7 25 15 53 16 21 39 24 20 34 21 25 24 15 24 25 16 25 24 15 20 34 21 30 29 13 26 42 14 29 26 19 25 24 20 29 26 19 26 42 14 31 54 12 30 29 14 35 31 11 34 28 13 35 31 11 30 29 14 2 37 15 37 44 24 1 35 16 36 36 21 1 35 16 37 44 24 28 27 18 24 25 16 41 4 25 43 6 22 41 4 25 24 25 16 0 0 1 44 2 26 5 56 0 10 45 2 5 56 0 44 2 26 40 1 0 42 3 1 44 2 2 46 5 26 44 2 2 42 3 1 43 6 1 48 8 3 41 4 0 46 5 2 41 4 0 48 8 3</p>
                </polylist>
            </mesh>
        </geometry>
    </library_geometries>
    <library_visual_scenes>
        <visual_scene id="DefaultScene">
            <node id="Geometry-mesh035Node" name="concave_tiny" type="NODE">
                <matrix sid="transform">1 0 0 0 0 1 0 0 0 0 1 0 0 0 0 1</matrix>
                <instance_geometry url="#Geometry-mesh035">
                    <bind_material>
                        <technique_common>
                            <instance_material symbol="Material-lambert2" target="#Material-lambert2">
                                <bind_vertex_input semantic="uvSet1" input_semantic="TEXCOORD" input_set="0" />
                            </instance_material>
                        </technique_common>
                    </bind_material>
                </instance_geometry>
            </node>
            <node id="groupLocator025Node" name="Texture_Group" type="NODE">
                <matrix sid="transform">1 0 0 0 0 1 0 0 0 0 1 0 0 0 0 1</matrix>
                <node id="txtrLocator027Node" name="living_area_welder_nrm__Image___Texture_" type="NODE">
                    <matrix sid="transform">1 0 0 0 0 1 0 0 0 0 1 0 0 0 0 1</matrix>
                </node>
                <node id="txtrLocator021Node" name="living_area_welder__Image___Texture_" type="NODE">
                    <matrix sid="transform">1 0 0 0 0 1 0 0 0 0 1 0 0 0 0 1</matrix>
                </node>
            </node>
        </visual_scene>
    </library_visual_scenes>
    <scene>
        <instance_visual_scene url="#DefaultScene" />
    </scene>
</COLLADA>
