<?xml version="1.0" encoding="utf-8" ?>
<COLLADA xmlns="http://www.collada.org/2005/11/COLLADASchema" version="1.4.1">
    <asset>
        <contributor>
            <authoring_tool>modo 601 [Build 48460], Microsoft Windows 7 Service Pack 1 (6.1.7601 Service Pack 1)</authoring_tool>
            <comments>
                Plug-in: [Build 48460];
                Use Absolute Path: No;
                Merge Reference Items: No;
                Save Hidden Items: No;
                Save Cameras: Yes;
                Save Lights: Yes;
                Save Locators: Yes;
                Save Triangles as Triangles: No;
                Bake Matrices: No;
                Save Vertex Normals: Yes;
                Save UV Texture Coordinates: Yes;
                Save Vertex Colors: Yes;
                Save Vertex Weights: Yes;
                Save Animation: Yes;
                Sample Animation: No;
                Sample Animation Start: 0;
                Sample Animation End: 120;
                Save modo Profile: Yes;
                Save Maya Profile: Yes;
                Save 3ds Max Profile: Yes;
                Formatted Arrays: Yes;
            </comments>
            <source_data>file:///D:/Work/My%20Dropbox/Frictional%20Games%20-%20Team/Aaron/models/static_objects/station/floor/pplant_floor.lxo</source_data>
        </contributor>
        <created>2012-10-10T12:23:56Z</created>
        <modified>2012-10-10T12:23:56Z</modified>
        <unit name="game" meter="1" />
        <up_axis>Y_UP</up_axis>
    </asset>
    <library_cameras>
        <camera id="Camera-camera004" name="Camera">
            <optics>
                <technique_common>
                    <perspective>
                        <xfov sid="HFOV">39.5978</xfov>
                        <yfov sid="YFOV">26.9915</yfov>
                        <znear sid="near_clip">0.01</znear>
                        <zfar sid="far_clip">10000</zfar>
                    </perspective>
                </technique_common>
                <technique profile="modo401">
                    <param sid="projType" name="Projection_Type" type="Name">persp</param>
                    <param sid="focalLen" name="Focal_Length" type="float">0.05</param>
                    <param sid="distort" name="Lens_Distortion" type="float">0</param>
                    <param sid="squeeze" name="Lens_Squeeze" type="float">1</param>
                    <param sid="focusDist" name="Focus_Distance" type="float">4</param>
                    <param sid="fStop" name="F-Stop" type="float">4</param>
                    <param sid="blurLen" name="Blur_Length" type="float">0.5</param>
                    <param sid="blurOff" name="Blur_Offset" type="float">0</param>
                    <param sid="ioDist" name="Interocular_Distance" type="float">0.065</param>
                    <param sid="convDist" name="Convergence_Distance" type="float">2</param>
                </technique>
            </optics>
            <imager>
                <technique profile="modo401">
                    <param sid="apertureX" name="Film_Width" type="float">0.036</param>
                    <param sid="apertureY" name="Film_Height" type="float">0.024</param>
                    <param sid="offsetX" name="Film_Offset_X" type="float">0</param>
                    <param sid="offsetY" name="Film_Offset_Y" type="float">0</param>
                    <param sid="filmFit" name="Film_Fit" type="Name">fill</param>
                </technique>
            </imager>
        </camera>
    </library_cameras>
    <library_images>
        <image id="Image0001" name="Image0001">
            <init_from>file:///D:/Work/My%20Dropbox/Frictional%20Games%20-%20Team/Aaron/models/static_objects/station/floor/pplant_floor.psd</init_from>
        </image>
        <image id="Image0002" name="Image0002">
            <init_from>file:///D:/Work/My%20Dropbox/Frictional%20Games%20-%20Team/Aaron/models/static_objects/station/floor/pplant_floor_nrm.tga</init_from>
        </image>
    </library_images>
    <library_materials>
        <material id="Material-Default" name="Default">
            <instance_effect url="#Effect-Default" />
        </material>
        <material id="Material-pplant_floor" name="pplant_floor">
            <instance_effect url="#Effect-pplant_floor" />
        </material>
    </library_materials>
    <library_effects>
        <effect id="Effect-Default" name="Default">
            <profile_COMMON>
                <technique sid="common">
                    <phong>
                        <diffuse>
                            <color sid="diffuse_effect_rgb">0.8 0.8 0.8 1</color>
                        </diffuse>
                        <specular>
                            <color sid="specular_effect_rgb">0.2 0.2 0.2 1</color>
                        </specular>
                        <shininess>
                            <float sid="specular_effect_rgb">256</float>
                        </shininess>
                    </phong>
                </technique>
            </profile_COMMON>
        </effect>
        <effect id="Effect-pplant_floor" name="pplant_floor">
            <profile_COMMON>
                <newparam sid="Image0001-surface">
                    <surface type="2D">
                        <init_from>Image0001</init_from>
                        <format>A8R8G8B8</format>
                    </surface>
                </newparam>
                <newparam sid="Image0001-sampler">
                    <sampler2D>
                        <source>Image0001-surface</source>
                        <minfilter>LINEAR_MIPMAP_LINEAR</minfilter>
                        <magfilter>LINEAR</magfilter>
                    </sampler2D>
                </newparam>
                <technique sid="common">
                    <phong>
                        <diffuse>
                            <texture texture="Image0001-sampler" texcoord="uvSet1" />
                        </diffuse>
                        <specular>
                            <color sid="specular_effect_rgb">0.2 0.2 0.2 1</color>
                        </specular>
                        <shininess>
                            <float sid="specular_effect_rgb">256</float>
                        </shininess>
                    </phong>
                </technique>
            </profile_COMMON>
        </effect>
    </library_effects>
    <library_geometries>
        <geometry id="Geometry-mesh025" name="ground_default_damaged03">
            <mesh>
                <source id="Geometry-mesh025-positions" name="positions">
                    <float_array id="Geometry-mesh025-positions-array" count="156">
                        -0.0145843 -0.00358542 -2.01433
                        2.00122 -0.418036 -1.97102
                        1.99332 -0.00627666 -0.00733438
                        0.0703749 0.25949 -0.0345949
                        0.520917 -0.0280403 -1.99771
                        1.02246 -0.11685 -2.00781
                        1.50818 -0.229851 -1.99093
                        1.02761 0.061161 0.00261278
                        1.50818 0.00232888 -0.00980428
                        0.0303391 0.158763 -0.520652
                        0.0120224 0.0608562 -1.00437
                        0.0199684 0.0263676 -1.48861
                        2.02414 -0.226879 -1.47084
                        2.01656 -0.125401 -1.01103
                        2.01934 -0.0269813 -0.48711
                        0.494878 0.0059391 -1.50272
                        0.498645 0.00500735 -1.0105
                        1.02864 -0.0164705 -1.50084
                        1.00379 -0.0118112 -1.00125
                        1.02462 0.0046788 -0.501815
                        1.527 -0.119927 -1.51151
                        1.50016 -0.0255121 -0.995494
                        1.48791 -0.0117886 -0.497691
                        0.497949 -0.0724968 -1.51275
                        0.496118 -0.0619555 -0.991633
                        0.994099 -0.0975533 -1.48821
                        0.999224 -0.0764948 -0.996019
                        1.01554 -0.0665197 -0.494276
                        1.51176 -0.175192 -1.48802
                        1.49706 -0.118862 -0.986228
                        1.50484 -0.0858983 -0.509359
                        0.00899255 -0.0984043 -2.01465
                        0.501278 -0.10018 -1.97873
                        0.993131 -0.181488 -1.99483
                        0.00889122 -0.0806576 -1.49732
                        1.96598 -0.485322 -1.92199
                        1.48381 -0.310076 -1.94831
                        1.99842 -0.315666 -1.45318
                        -0.000828482 -0.0297579 -0.992804
                        1.98956 -0.179348 -0.970751
                        0.0240703 0.0541786 -0.504851
                        2.00352 -0.104078 -0.494833
                        0.0439289 0.184495 -0.0197904
                        0.999855 -0.0110178 0.00653462
                        2.00428 -0.0759447 -0.00335145
                        1.4953 -0.0753254 -0.00293398
                        0.443593 0.16996 -0.0242402
                        0.650401 0.123768 -0.0173394
                        0.431186 0.0856791 0.00175335
                        0.585867 0.0538962 0.00609422
                        0.547507 0.128368 -0.225554
                        0.528092 0.0575747 -0.166802
                    </float_array>
                    <technique_common>
                        <accessor count="52" source="#Geometry-mesh025-positions-array" stride="3">
                            <param name="X" type="float" />
                            <param name="Y" type="float" />
                            <param name="Z" type="float" />
                        </accessor>
                    </technique_common>
                </source>
                <source id="Geometry-mesh025-normals" name="normals">
                    <float_array id="Geometry-mesh025-normals-array" count="297">
                        0.0804727 0.993519 -0.080273
                        0.128413 0.988553 -0.0792004
                        0.0502366 0.997687 -0.0458034
                        0.0559551 0.997807 -0.0353639
                        0.0315172 0.0111867 -0.999441
                        -0.00524187 -0.168906 -0.985618
                        0.0508144 -0.131475 -0.990016
                        -0.000827124 -0.254258 -0.967136
                        -0.999835 -0.0128662 0.0128534
                        -0.991629 0.128729 -0.0100071
                        -0.993529 0.113571 0.00130846
                        -0.993347 0.114866 0.00823411
                        -0.210378 -0.964408 0.160182
                        -0.12139 -0.986372 0.11106
                        -0.0493278 -0.995665 0.078848
                        -0.0172182 -0.999064 0.0396733
                        0.00652968 0.065658 0.997821
                        0.00102367 0.176983 0.984213
                        0.00903236 0.13296 0.99108
                        0.0431409 0.281634 0.958552
                        -0.0925429 -0.993245 0.0699986
                        -0.153761 -0.984889 0.0796995
                        -0.166381 -0.978906 0.11858
                        -0.154868 -0.987457 0.0307424
                        0.0307414 0.999306 -0.0210387
                        0.0979046 0.991297 -0.0880024
                        -0.0755159 -0.995996 0.0478432
                        -0.124256 -0.986472 0.106927
                        -0.0556273 -0.996159 0.067623
                        -0.987729 0.154989 0.0192098
                        -0.995609 0.0902514 0.0248533
                        -0.0578252 -0.994795 0.0838974
                        -0.00871544 -0.998541 0.0532863
                        -0.0643753 -0.988651 0.13574
                        0.0212588 0.291791 0.956246
                        0.0195364 0.240047 0.970565
                        0.0177576 0.18761 0.982083
                        -0.108593 -0.97496 0.194063
                        -0.210551 -0.967265 0.141657
                        -0.248186 -0.96853 0.0188029
                        0.117331 0.987188 -0.108139
                        0.230005 0.946746 -0.225323
                        -0.216438 -0.956344 0.196371
                        -0.979529 0.200645 0.0162689
                        -0.942524 0.334033 0.00841197
                        -0.00610613 -0.999394 0.0342825
                        -0.0262915 -0.996581 0.0783312
                        -0.0508721 -0.997413 0.0507873
                        -0.00116776 -0.998365 0.0571493
                        0.198097 0.961053 -0.192706
                        0.259902 0.941611 -0.214056
                        0.0205415 0.0716369 0.997219
                        -0.00157912 0.0722156 0.997388
                        0.0108818 0.0755495 0.997083
                        -0.00408189 0.0564362 0.998398
                        0.979437 -0.201641 0.00658045
                        0.985591 -0.165809 0.033424
                        0.999332 -0.022418 0.0288443
                        0.986355 0.157872 0.0466882
                        -0.0970914 -0.981369 0.165795
                        0.0420158 0.998593 -0.0323617
                        0.0746533 0.992503 -0.0967712
                        0.064699 0.995396 -0.070714
                        0.195299 0.963003 -0.185699
                        -0.101828 -0.442441 -0.890998
                        -0.13879 -0.483316 -0.864374
                        -0.0793987 -0.41151 -0.90794
                        -0.147403 -0.530876 -0.834531
                        0.961852 -0.265478 0.0660392
                        0.933759 -0.346646 0.0890526
                        0.940412 -0.329187 0.0852155
                        0.942807 -0.326829 0.0655601
                        -0.25062 -0.936849 0.243933
                        -0.312416 -0.896628 0.313774
                        -0.232383 -0.942878 0.238703
                        0.179805 0.974835 -0.131782
                        0.0857009 0.993133 -0.0796412
                        0.11129 0.98454 -0.135258
                        0.06111 0.996957 -0.0483902
                        0.223796 0.932759 -0.282622
                        -0.0295066 -0.281834 -0.959009
                        -0.0282199 -0.207935 -0.977736
                        0.937391 -0.340668 0.0724114
                        0.907027 -0.412118 0.0863724
                        0.145994 0.97035 -0.19263
                        0.207062 0.967252 -0.146794
                        0.234611 0.968868 -0.0790696
                        0.868455 0.0248646 0.495144
                        0.881684 0.0712317 0.466433
                        0.892136 0.117375 0.436252
                        0.0179342 0.998951 -0.0421367
                        0.16655 0.984172 -0.0605608
                        0.0473927 0.997077 -0.0599235
                        0.291186 0.911405 -0.290779
                        -0.996755 -0.0727667 0.0344116
                        -0.970411 -0.241322 0.00808837
                        -0.671899 0.700873 0.239434
                        -0.719673 0.618809 0.314874
                        -0.756863 0.527643 0.385683
                    </float_array>
                    <technique_common>
                        <accessor count="99" source="#Geometry-mesh025-normals-array" stride="3">
                            <param name="X" type="float" />
                            <param name="Y" type="float" />
                            <param name="Z" type="float" />
                        </accessor>
                    </technique_common>
                </source>
                <source id="Geometry-mesh025-uvSet1" name="uvSet1">
                    <float_array id="Geometry-mesh025-uvSet1-array" count="156">
                        0.375 0.625
                        0.375 0.5
                        0.4375 0.625
                        0.4375 0.5
                        0.25 0.966797
                        0.3125 0.966797
                        0.25 0.949453
                        0.3125 0.949453
                        0.268262 0.875
                        0.268262 0.75
                        0.28125 0.875
                        0.28125 0.75
                        0.375 1
                        0.375 0.875
                        0.3125 1
                        0.3125 0.875
                        0.375 0.533203
                        0.322748 0.533203
                        0.375 0.550547
                        0.322424 0.550547
                        0.307481 0.634756
                        0.322424 0.5
                        0.375 0.75
                        0.4375 0.75
                        0.28125 0.625
                        0.268262 0.625
                        0.3125 0.75
                        0.25 0.875
                        0.25 0.75
                        0.302186 0.550547
                        0.302547 0.533203
                        0.25 0.550547
                        0.25 0.533203
                        0.25 0.625
                        0.302462 0.625
                        0.25 0.5
                        0.302186 0.5
                        0.4375 0.875
                        0.268262 0.5
                        0.28125 0.5
                        0.25 1
                        0.5 0.625
                        0.5 0.5
                        0.4375 1
                        0.4375 0.550547
                        0.5 0.550547
                        0.4375 0.533203
                        0.5 0.533203
                        0.479785 0.625
                        0.466797 0.625
                        0.479785 0.5
                        0.466797 0.5
                        0.5 0.75
                        0.4375 0.966797
                        0.5 0.966797
                        0.4375 0.949453
                        0.5 0.949453
                        0.466797 0.875
                        0.466797 0.75
                        0.479785 0.875
                        0.479785 0.75
                        0.5 1
                        0.5 0.875
                        0.313034 0.55957
                        0.375 0.966797
                        0.375 0.949453
                        0.466797 1
                        0.479785 1
                        0.302547 0.5
                        0.361009 0.668424
                        0.358885 0.619751
                        0.365229 0.666143
                        0.362781 0.619767
                        0.322748 0.5
                        0.28125 1
                        0.268262 1
                        0.360111 0.571115
                        0.364433 0.572218
                    </float_array>
                    <technique_common>
                        <accessor count="78" source="#Geometry-mesh025-uvSet1-array" stride="2">
                            <param name="S" type="float" />
                            <param name="T" type="float" />
                        </accessor>
                    </technique_common>
                </source>
                <vertices id="Geometry-mesh025-vertices">
                    <input semantic="POSITION" source="#Geometry-mesh025-positions" />
                </vertices>
                <polylist count="100" material="Material-pplant_floor">
                    <input semantic="VERTEX" source="#Geometry-mesh025-vertices" offset="0" />
                    <input semantic="NORMAL" source="#Geometry-mesh025-normals" offset="1" />
                    <input semantic="TEXCOORD" source="#Geometry-mesh025-uvSet1" offset="2" set="0" />
                    <vcount>3 3 3 3 3 3 3 3 3 3 3 3 3 3 3 3 3 3 3 3 3 3 3 3 3 3 3 3 3 3 3 3 3 3 3 3 3 3 3 3 3 3 3 3 3 3 3 3 3 3 3 3 3 3 3 3 3 3 3 3 3 3 3 3 3 3 3 3 3 3 3 3 3 3 3 3 3 3 3 3 3 3 3 3 3 3 3 3 3 3 3 3 3 3 3 3 3 3 3 3</vcount>
                    <p>19 0 0 7 1 1 22 2 2 8 3 3 22 2 2 7 1 1 0 4 4 4 5 5 31 6 6 32 7 7 31 6 6 4 5 5 34 8 8 38 9 9 11 10 10 10 11 11 11 10 10 38 9 9 33 12 12 25 13 13 32 14 14 23 15 15 32 14 14 25 13 13 7 16 16 47 17 17 43 18 18 49 19 19 43 18 18 47 17 17 27 20 0 43 21 1 51 22 20 49 23 21 51 22 20 43 21 1 18 24 22 19 0 0 21 25 23 22 2 2 21 25 23 19 0 0 26 26 22 29 27 23 27 20 0 30 28 2 27 20 0 29 27 23 9 29 24 10 11 11 40 30 25 38 9 9 40 30 25 10 11 11 23 15 15 24 31 26 34 32 27 38 33 28 34 32 27 24 31 26 48 34 29 46 35 30 42 35 31 3 36 32 42 35 31 46 35 30 40 37 33 51 22 34 42 38 35 48 39 36 42 38 35 51 22 34 18 24 22 21 25 23 17 40 13 20 41 37 17 40 13 21 25 23 25 13 13 28 42 37 26 26 22 29 27 23 26 26 22 28 42 37 40 30 25 42 43 38 9 29 24 3 44 39 9 29 24 42 43 38 31 45 40 32 14 14 34 32 27 23 15 15 34 32 27 32 14 14 30 28 2 41 46 41 45 47 3 44 48 42 45 47 3 41 46 41 51 22 20 40 37 33 24 31 26 38 33 28 24 31 26 40 37 33 5 49 12 17 40 13 6 50 43 20 41 37 6 50 43 17 40 13 23 15 15 25 13 13 24 31 26 26 26 22 24 31 26 25 13 13 45 51 44 44 52 45 8 53 46 2 54 47 8 53 46 44 52 45 41 55 48 14 56 49 44 57 50 2 58 51 44 57 50 14 56 49 29 27 23 39 59 52 30 28 2 41 46 41 30 28 2 39 59 52 51 22 20 24 31 26 27 20 0 26 26 22 27 20 0 24 31 26 15 60 15 17 40 13 4 61 14 5 49 12 4 61 14 17 40 13 22 2 2 14 62 41 21 25 23 13 63 52 21 25 23 14 62 41 6 64 53 1 65 54 36 66 55 35 67 56 36 66 55 1 65 54 12 68 57 13 69 58 37 70 59 39 71 60 37 70 59 13 69 58 36 72 43 35 73 61 28 42 37 37 74 62 28 42 37 35 73 61 50 75 63 19 0 0 16 76 26 18 24 22 16 76 26 19 0 0 10 77 28 16 76 26 11 78 27 15 60 15 11 78 27 16 76 26 21 25 23 13 63 52 20 41 37 12 79 62 20 41 37 13 63 52 6 64 53 36 66 55 5 80 64 33 81 65 5 80 64 36 66 55 12 68 57 37 70 59 1 82 66 35 83 67 1 82 66 37 70 59 30 28 2 45 47 3 27 20 0 43 21 1 27 20 0 45 47 3 9 84 33 3 85 35 50 75 63 46 86 68 50 75 63 3 85 35 48 87 69 51 88 70 46 88 71 50 89 72 46 88 71 51 88 70 15 60 15 16 76 26 17 40 13 18 24 22 17 40 13 16 76 26 22 2 2 8 3 3 14 62 41 2 90 42 14 62 41 8 3 3 8 53 46 7 16 16 45 51 44 43 18 18 45 51 44 7 16 16 41 55 48 39 71 60 14 56 49 13 69 58 14 56 49 39 71 60 28 42 37 37 74 62 29 27 23 39 59 52 29 27 23 37 74 62 19 0 0 50 75 63 7 1 1 47 91 73 7 1 1 50 75 63 0 92 40 11 78 27 4 61 14 15 60 15 4 61 14 11 78 27 12 79 62 1 93 61 20 41 37 6 50 43 20 41 37 1 93 61 32 7 7 4 5 5 33 81 65 5 80 64 33 81 65 4 5 5 11 10 10 0 94 74 34 8 8 31 95 75 34 8 8 0 94 74 33 12 12 36 72 43 25 13 13 28 42 37 25 13 13 36 72 43 50 75 63 16 76 26 9 84 33 10 77 28 9 84 33 16 76 26 49 96 76 47 97 77 51 97 70 50 98 72 51 97 70 47 97 77</p>
                </polylist>
                <extra>
                    <technique profile="modo401">
                        <param sid="render" name="Render" type="Name">default</param>
                        <param sid="dissolve" name="Dissolve" type="float">0</param>
                        <param sid="curves" name="Render_Curves" type="bool">false</param>
                        <param sid="radius" name="Curve_Radius" type="float">0.05</param>
                    </technique>
                </extra>
            </mesh>
        </geometry>
    </library_geometries>
    <library_lights>
        <light id="Light-polyRender007" name="Render">
            <technique_common>
                <ambient>
                    <color sid="ambient_light_rgb">0.05 0.05 0.05</color>
                </ambient>
            </technique_common>
        </light>
        <light id="Light-sunLight008" name="Directional_Light">
            <technique_common>
                <directional>
                    <color sid="directional_light_rgb">1 1 1</color>
                </directional>
            </technique_common>
            <extra>
                <technique profile="modo401">
                    <param sid="lightType" name="Light_Type" type="Name">sun_light</param>
                    <param sid="render" name="Render" type="Name">default</param>
                    <param sid="visible" name="Display_Visible" type="Name">default</param>
                    <param sid="size" name="Display_Size" type="float">1</param>
                    <param sid="dissolve" name="Dissolve" type="float">0</param>
                    <param sid="radiance" name="Radiant_Intensity" type="float">3</param>
                    <param sid="samples" name="Samples" type="int">64</param>
                    <param sid="shadType" name="Shadow_Type" type="Name">raytrace</param>
                    <param sid="shadRes" name="Shadow_Resolution" type="int">1024</param>
                    <param sid="fast" name="Simple_Shading" type="bool">true</param>
                    <param sid="azimuth" name="Azimuth" type="float">0</param>
                    <param sid="clamp" name="Clamp_Intensity" type="bool">true</param>
                    <param sid="day" name="Day" type="int">2012173</param>
                    <param sid="elevation" name="Elevation" type="float">0</param>
                    <param sid="haze" name="Haze" type="float">2</param>
                    <param sid="height" name="Height" type="float">10</param>
                    <param sid="lat" name="Latitude" type="float">0.655057</param>
                    <param sid="lon" name="Longitude" type="float">-2.13456</param>
                    <param sid="mapSize" name="Map_Size" type="float">2</param>
                    <param sid="north" name="North" type="float">0</param>
                    <param sid="radius" name="Radius" type="float">0.5</param>
                    <param sid="spread" name="Spread" type="float">0</param>
                    <param sid="sunPos" name="Sun_Position" type="bool">false</param>
                    <param sid="time" name="Time" type="float">12</param>
                    <param sid="timeZone" name="Time_Zone" type="float">-8</param>
                    <param sid="volumetrics" name="Volumetrics" type="bool">false</param>
                    <param sid="vdissolve" name="Volumetrics_Dissolve" type="float">0</param>
                    <param sid="vsamples" name="Volumetric_Samples" type="int">40</param>
                </technique>
            </extra>
        </light>
    </library_lights>
    <library_nodes id="shader_tree" name="Shader_Tree">
        <node sid="shader_tree_render" name="Render">
            <extra>
                <technique profile="modo401">
                    <param sid="first" name="Frame_Range_First" type="int">1</param>
                    <param sid="last" name="Frame_Range_Last" type="int">120</param>
                    <param sid="dpi" name="Frame_DPI" type="float">300</param>
                    <param sid="resUnit" name="Resolution_Unit" type="Name">pixels</param>
                    <param sid="pAspect" name="Frame_Pixel_Aspect_Ratio" type="float">1</param>
                    <param sid="bucketX" name="Bucket_Width" type="int">32</param>
                    <param sid="bucketY" name="Bucket_Height" type="int">32</param>
                    <param sid="bktOrder" name="Bucket_Order" type="Name">hilbert</param>
                    <param sid="bktSkip" name="Skip_Existing_Buckets" type="bool">false</param>
                    <param sid="region" name="Render_Region" type="bool">false</param>
                    <param sid="regX0" name="Render_Region_Left" type="float">0</param>
                    <param sid="regX1" name="Render_Region_Right" type="float">1</param>
                    <param sid="regY0" name="Render_Region_Top" type="float">0</param>
                    <param sid="regY1" name="Render_Region_Bottom" type="float">1</param>
                    <param sid="aa" name="Render_Antialiasing" type="Name">s8</param>
                    <param sid="aaFilter" name="Render_Antialiasing_Filter" type="Name">gaussian</param>
                    <param sid="fineRate" name="Refinement_Shading_Rate" type="float">0.25</param>
                    <param sid="fineThresh" name="Refinement_Threshold" type="float">0.1</param>
                    <param sid="bktRefine" name="Refine_Bucket_Borders" type="bool">false</param>
                    <param sid="dof" name="Render_Depth_of_Field" type="bool">false</param>
                    <param sid="mBlur" name="Render_Motion_Blur" type="bool">false</param>
                    <param sid="stereo" name="Render_Stereoscopic" type="bool">false</param>
                    <param sid="rayShadow" name="Ray_Tracing_Shadows" type="bool">true</param>
                    <param sid="reflDepth" name="Reflection_Depth" type="int">8</param>
                    <param sid="refrDepth" name="Refraction_Depth" type="int">8</param>
                    <param sid="rayThresh" name="Ray_Threshold" type="float">0.001</param>
                    <param sid="subdAdapt" name="Adaptive_Subdivision" type="bool">false</param>
                    <param sid="subdRate" name="Subdivision_Rate" type="float">10</param>
                    <param sid="dispEnable" name="Micropoly_Displacement" type="bool">true</param>
                    <param sid="dispRate" name="Displacement_Rate" type="float">1</param>
                    <param sid="dispRatio" name="Displacement_Ratio" type="float">4</param>
                    <param sid="edgeMin" name="Minimum_Edge_Length" type="float">0.0001</param>
                    <param sid="dispSmooth" name="Smooth_Positions" type="bool">true</param>
                    <param sid="ambRad" name="Ambient_Intensity" type="float">0.05</param>
                    <param sid="ambColor" name="Ambient_Color" type="color">1 1 1</param>
                    <param sid="globEnable" name="Enable_Indirect_Illumination" type="bool">false</param>
                    <param sid="globScope" name="Indirect_Illumination_Scope" type="Name">all</param>
                    <param sid="globRays" name="Indirect_Rays" type="int">64</param>
                    <param sid="globLimit" name="Indirect_Bounces" type="int">1</param>
                    <param sid="globRange" name="Indirect_Range" type="float">0</param>
                    <param sid="globSubs" name="Subsurface_Scattering" type="int">0</param>
                    <param sid="globVols" name="Volumetrics_Affect_Indirect" type="bool">false</param>
                    <param sid="irrCache" name="Enable_Irradiance_Caching" type="bool">true</param>
                    <param sid="irrRays" name="Irradiance_Rays" type="int">256</param>
                    <param sid="globSuper" name="Indirect_Supersampling" type="bool">true</param>
                    <param sid="irrRate" name="Irradiance_Rate" type="float">2.5</param>
                    <param sid="irrRatio" name="Irradiance_Ratio" type="float">6</param>
                    <param sid="irrVals" name="Interpolation_Values" type="int">1</param>
                    <param sid="irrGrads" name="Irradiance_Gradients" type="Name">both</param>
                    <param sid="irrWalk" name="Walkthrough_Mode" type="bool">false</param>
                    <param sid="irrLEnable" name="Load_Irradiance_before_Render" type="bool">false</param>
                    <param sid="irrLName" name="Load_Irradiance_File" type="Name"></param>
                    <param sid="irrSEnable" name="Save_Irradiance_after_Render" type="bool">false</param>
                    <param sid="irrSName" name="Save_Irradiance_File" type="Name"></param>
                    <param sid="causEnable" name="Enable_Direct_Caustics" type="bool">false</param>
                    <param sid="causTotal" name="Caustics_Total_Photons" type="int">100000</param>
                    <param sid="causLocal" name="Caustics_Local_Photons" type="int">32</param>
                    <param sid="globCaus" name="Indirect_Caustics" type="Name">refraction</param>
                </technique>
            </extra>
        </node>
        <node sid="shader_tree_environment" name="Environment">
            <extra>
                <technique profile="modo401">
                    <param sid="radiance" name="Environment_Intensity" type="float">1</param>
                    <param sid="visCam" name="Environment_Visible_to_Camera" type="bool">true</param>
                    <param sid="visInd" name="Environment_Visible_to_Indirect_Rays" type="bool">true</param>
                    <param sid="visRefl" name="Environment_Visible_to_Reflection_Rays" type="bool">true</param>
                    <param sid="visRefr" name="Environment_Visible_to_Refraction_Rays" type="bool">true</param>
                </technique>
            </extra>
        </node>
    </library_nodes>
    <library_visual_scenes>
        <visual_scene id="DefaultScene">
            <node id="polyRender007" name="Render" type="NODE">
                <instance_light url="#Light-polyRender007" />
            </node>
            <node id="Camera-camera004Node" name="Camera" type="NODE">
                <translate sid="translation005">0 0.75 4</translate>
                <rotate sid="rotation006Y">0 1 0 0</rotate>
                <rotate sid="rotation006X">1 0 0 -5</rotate>
                <rotate sid="rotation006Z">0 0 1 0</rotate>
                <instance_camera url="#Camera-camera004" />
            </node>
            <node id="groupLocator031Node" name="low__2_" type="NODE">
                <node id="Geometry-mesh025Node" name="ground_default_damaged03" type="NODE">
                    <translate sid="translation027">0 0 0</translate>
                    <rotate sid="rotation026Y">0 1 0 0</rotate>
                    <rotate sid="rotation026X">1 0 0 0</rotate>
                    <rotate sid="rotation026Z">0 0 1 0</rotate>
                    <scale sid="scale029">1 1 1</scale>
                    <instance_geometry url="#Geometry-mesh025">
                        <bind_material>
                            <technique_common>
                                <instance_material symbol="Material-pplant_floor" target="#Material-pplant_floor">
                                    <bind_vertex_input semantic="uvSet1" input_semantic="TEXCOORD" input_set="0" />
                                </instance_material>
                            </technique_common>
                        </bind_material>
                    </instance_geometry>
                </node>
            </node>
            <node id="groupLocator042Node" name="Texture_Group" type="NODE">
                <node id="txtrLocator050Node" name="pplant_floor_nrm__Image___Texture_" type="NODE">
                    <translate sid="translation053">0 0 0</translate>
                    <rotate sid="rotation052Y">0 1 0 0</rotate>
                    <rotate sid="rotation052X">1 0 0 0</rotate>
                    <rotate sid="rotation052Z">0 0 1 0</rotate>
                    <scale sid="scale051">1 1 1</scale>
                </node>
                <node id="txtrLocator045Node" name="pplant_floor__Image___Texture_" type="NODE">
                    <translate sid="translation048">0 0 0</translate>
                    <rotate sid="rotation047Y">0 1 0 0</rotate>
                    <rotate sid="rotation047X">1 0 0 0</rotate>
                    <rotate sid="rotation047Z">0 0 1 0</rotate>
                    <scale sid="scale046">1 1 1</scale>
                </node>
                <node id="txtrLocator036Node" name="_none___Texture_" type="NODE">
                    <translate sid="translation043">0 0 0</translate>
                    <rotate sid="rotation042Y">0 1 0 0</rotate>
                    <rotate sid="rotation042X">1 0 0 0</rotate>
                    <rotate sid="rotation042Z">0 0 1 0</rotate>
                    <scale sid="scale041">1 1 1</scale>
                </node>
            </node>
            <node id="Light-sunLight008Node" name="Directional_Light" type="NODE">
                <translate sid="translation009">-2 2 2</translate>
                <rotate sid="rotation010Y">0 1 0 -45</rotate>
                <rotate sid="rotation010X">1 0 0 -30</rotate>
                <rotate sid="rotation010Z">0 0 1 0</rotate>
                <instance_light url="#Light-sunLight008" />
            </node>
            <extra>
                <technique profile="modo401">
                    <param sid="fps" name="Scene_FPS" type="float">24</param>
                    <param sid="sceneS" name="Scene_Start_Time" type="float">0</param>
                    <param sid="sceneE" name="Scene_End_Time" type="float">5</param>
                    <param sid="currentS" name="Scene_Current_Start_Time" type="float">0</param>
                    <param sid="currentE" name="Scene_Current_End_Time" type="float">5</param>
                    <param sid="timeSys" name="Scene_Time_System" type="Name">frames</param>
                </technique>
            </extra>
            <extra>
                <technique profile="MAX3D">
                    <frame_rate>24</frame_rate>
                </technique>
            </extra>
            <extra>
                <technique profile="MAYA">
                    <start_time>0</start_time>
                    <end_time>5</end_time>
                </technique>
            </extra>
            <extra>
                <technique profile="OKINO" />
            </extra>
            <extra>
                <technique profile="XSI">
                    <SI_Scene>
                        <frame_rate>24</frame_rate>
                    </SI_Scene>
                </technique>
            </extra>
        </visual_scene>
    </library_visual_scenes>
    <scene>
        <instance_visual_scene url="#DefaultScene" />
    </scene>
</COLLADA>
