<?xml version="1.0" encoding="utf-8"?>
<COLLADA xmlns="http://www.collada.org/2005/11/COLLADASchema" version="1.4.1">
  <asset><contributor><author></author><authoring_tool>FBX COLLADA exporter</authoring_tool><comments></comments></contributor><created>2014-11-21T19:06:04Z</created><keywords></keywords><modified>2014-11-21T19:06:04Z</modified><revision></revision><subject></subject><title></title><unit meter="0.025400" name="centimeter"></unit><up_axis>Y_UP</up_axis></asset>
  <library_images>
    <image id="Map #2-image" name="Map #2"><init_from>file://F:\MaxScenes\scenes\ABP\Depth\acetone\acetone\station\acetone\acetone.dds</init_from></image>
  </library_images>
  <library_materials>
    <material id="acetone" name="acetone">
      <instance_effect url="#acetone-fx"/>
    </material>
  </library_materials>
  <library_effects>
    <effect id="acetone-fx" name="acetone">
      <profile_COMMON>
        <technique sid="standard">
          <phong>
            <emission>
              <color sid="emission">0.000000  0.000000 0.000000 1.000000</color>
            </emission>
            <ambient>
              <color sid="ambient">0.588235  0.588235 0.588235 1.000000</color>
            </ambient>
            <diffuse>
              <texture texture="Map #2-image" texcoord="CHANNEL0">
                <extra>
                  <technique profile="MAYA">
                    <wrapU sid="wrapU0">TRUE</wrapU>
                    <wrapV sid="wrapV0">TRUE</wrapV>
                    <blend_mode>ADD</blend_mode>
                  </technique>
                </extra>
              </texture>
            </diffuse>
            <specular>
              <color sid="specular">0.000000  0.000000 0.000000 1.000000</color>
            </specular>
            <shininess>
              <float sid="shininess">2.000000</float>
            </shininess>
            <reflective>
              <color sid="reflective">0.000000  0.000000 0.000000 1.000000</color>
            </reflective>
            <reflectivity>
              <float sid="reflectivity">1.000000</float>
            </reflectivity>
            <transparent opaque="RGB_ZERO">
              <color sid="transparent">1.000000  1.000000 1.000000 1.000000</color>
            </transparent>
            <transparency>
              <float sid="transparency">0.000000</float>
            </transparency>
          </phong>
        </technique>
      </profile_COMMON>
    </effect>
  </library_effects>
  <library_geometries>
    <geometry id="acetone-lib" name="acetoneMesh">
      <mesh>
        <source id="acetone-POSITION">
          <float_array id="acetone-POSITION-array" count="600">
-1.245229 1.448676 -4.080436
1.245229 1.448676 -4.080436
-0.491054 1.023058 4.080436
0.491054 1.023058 4.080436
-2.640639 -0.520677 -4.080436
2.640639 -0.520677 -4.080436
-1.199490 -0.095060 4.080436
1.199490 -0.095060 4.080436
-2.640639 0.520678 2.094360
1.245229 1.448676 2.094360
2.640639 -0.520678 2.094360
-1.245229 -1.448676 2.094359
-2.640639 0.520678 -4.080436
2.640639 0.520678 -4.080436
-1.199490 0.095060 4.080436
1.199490 0.095060 4.080436
-1.245229 -1.448676 -4.080436
1.245229 -1.448676 -4.080436
-0.491054 -1.023058 4.080436
0.491054 -1.023058 4.080436
-1.245229 1.448676 2.094360
2.640639 0.520678 2.094360
1.245229 -1.448676 2.094359
-2.640639 -0.520678 2.094360
-2.330802 1.071676 -4.080436
-1.816028 1.390676 -4.080436
1.816028 1.390676 -4.080436
2.330802 1.071676 -4.080436
-0.771185 0.965058 4.080436
-1.041898 0.646059 4.080436
1.041898 0.646059 4.080436
0.771185 0.965058 4.080436
-1.816028 -1.390676 -4.080436
-2.330802 -1.071676 -4.080436
2.330802 -1.071676 -4.080436
1.816028 -1.390676 -4.080436
-1.041898 -0.646059 4.080436
-0.771185 -0.965058 4.080436
0.771185 -0.965058 4.080436
1.041898 -0.646059 4.080436
-2.330802 1.071676 2.094360
-1.816028 1.390676 2.094360
1.816028 1.390676 2.094360
2.330802 1.071676 2.094360
2.330802 -1.071676 2.094359
1.816028 -1.390676 2.094359
-1.816028 -1.390676 2.094359
-2.330802 -1.071676 2.094359
0.704534 1.179633 3.628886
-1.146705 -1.420547 2.438017
-0.704534 1.179633 3.628886
0.704534 -1.179633 3.628886
1.661872 0.217826 3.583999
-1.661872 -0.217827 3.583999
-2.450383 0.454323 2.460340
1.661872 -0.217827 3.584000
1.085701 1.126183 3.607282
1.449687 0.796506 3.589140
-1.085701 -1.126184 3.607282
-1.449687 -0.796507 3.589140
-1.085701 1.126183 3.607282
-1.449687 0.796506 3.589140
1.085701 -1.126184 3.607282
1.449687 -0.796507 3.589140
1.146705 1.420547 2.438017
-0.704534 -1.179633 3.628886
-1.146705 1.420547 2.438017
1.146705 -1.420547 2.438017
2.450383 0.454323 2.460340
-2.450383 -0.454323 2.460340
-1.661872 0.217826 3.584000
2.450383 -0.454323 2.460340
1.679702 1.359689 2.446218
2.161947 1.027566 2.454874
-1.679702 -1.359689 2.446218
-2.161947 -1.027566 2.454874
-1.679702 1.359689 2.446218
-2.161947 1.027566 2.454874
1.679702 -1.359689 2.446218
2.161947 -1.027566 2.454874
0.867442 1.289851 3.255906
1.014832 1.370155 2.858950
-1.014832 -1.370155 2.858950
-0.867442 -1.289851 3.255906
-0.867442 1.289850 3.255906
-1.014832 1.370155 2.858950
0.867442 -1.289851 3.255906
1.014832 -1.370155 2.858950
1.955055 0.298685 3.238436
2.217893 0.377517 2.863883
-1.955055 -0.298685 3.238436
-2.217893 -0.377517 2.863883
-2.217892 0.377517 2.863884
-1.955055 0.298685 3.238437
1.955055 -0.298685 3.238437
2.217892 -0.377517 2.863884
1.305291 1.230812 3.247216
1.503291 1.308647 2.860194
1.713775 0.890520 3.240114
1.951195 0.967540 2.862025
-1.305291 -1.230812 3.247215
-1.503291 -1.308647 2.860194
-1.713775 -0.890520 3.240114
-1.951195 -0.967540 2.862025
-1.305291 1.230812 3.247216
-1.503291 1.308647 2.860194
-1.713775 0.890520 3.240114
-1.951195 0.967540 2.862025
1.305291 -1.230812 3.247215
1.503291 -1.308647 2.860194
1.713775 -0.890520 3.240114
1.951195 -0.967540 2.862025
1.089379 0.000000 4.080435
0.834513 0.700239 4.080435
0.189169 1.072829 4.080435
-0.544689 0.943430 4.080435
-1.023681 0.372590 4.080435
-1.023681 -0.372589 4.080435
-0.544690 -0.943429 4.080435
0.189168 -1.072829 4.080435
0.834512 -0.700240 4.080435
1.089379 0.000000 4.661407
0.834513 0.700239 4.661407
0.192694 1.072829 4.664381
-0.540863 0.943430 4.664635
-1.023681 0.372590 4.661407
-1.023681 -0.372589 4.661407
-0.540863 -0.943429 4.664635
0.192693 -1.072829 4.664381
0.834512 -0.700240 4.661407
1.008438 0.000000 4.661407
0.772508 0.648211 4.661407
0.179737 0.993118 4.665308
-0.499275 0.873333 4.665578
-0.947622 0.344906 4.661407
-0.947622 -0.344906 4.661407
-0.499275 -0.873333 4.665578
0.179737 -0.993118 4.665308
0.772508 -0.648212 4.661407
-4.787208 -0.000000 3.391817
0.984659 0.000000 5.347920
0.769839 0.615898 5.355806
0.228015 0.943610 5.377560
-0.420706 0.829797 5.370539
-0.902911 0.327712 5.295282
-0.877470 -0.327712 5.341754
-0.416356 -0.829796 5.378485
0.228014 -0.943610 5.377560
0.769839 -0.615898 5.355806
0.498729 0.000000 6.292634
0.353759 0.444773 6.220592
-0.016511 0.681432 6.032344
-0.502026 0.599241 5.727331
-0.838577 0.236659 5.521082
-0.801864 -0.236659 5.588143
-0.458020 -0.599241 5.807714
-0.013319 -0.681432 6.038175
0.353758 -0.444773 6.220592
-0.265775 -0.000000 6.788484
-0.324732 0.318451 6.695048
-0.492574 0.487896 6.428897
-0.722387 0.429048 6.077884
-0.961013 0.171084 5.733349
-0.927144 -0.171084 5.795217
-0.667374 -0.429048 6.178372
-0.468626 -0.487896 6.472642
-0.321958 -0.318451 6.700115
-4.817727 -0.000000 3.473218
-4.810587 0.055881 3.454174
-4.792507 0.085614 3.405952
-4.771948 0.075288 3.351116
-4.758529 0.029734 3.315324
-4.758529 -0.029734 3.315324
-4.771948 -0.075288 3.351116
-4.792507 -0.085614 3.405952
-4.810587 -0.055881 3.454174
-1.107962 -0.000000 6.644941
-1.112016 0.263312 6.550251
-1.122200 0.403417 6.321081
-1.139897 0.354759 6.056722
-1.222759 0.141461 5.791804
-1.200222 -0.141461 5.832971
-1.091905 -0.354759 6.144386
-1.085854 -0.403417 6.387471
-1.095002 -0.263312 6.581328
0.816465 0.000000 5.862595
0.630573 0.539236 5.825081
0.158064 0.827477 5.730061
0.157195 -0.827282 5.729900
0.630237 -0.539226 5.824603
0.158606 -0.000000 6.624858
0.055137 0.373784 6.536055
-0.217648 0.572163 6.289943
-0.202942 -0.572281 6.313918
0.056905 -0.373896 6.536525
-0.699799 -0.000000 6.792183
-0.728776 0.284548 6.694540
-0.811874 0.434594 6.434505
-0.780033 -0.434851 6.491686
-0.718462 -0.284674 6.711812
</float_array>
          <technique_common>
            <accessor source="#acetone-POSITION-array" count="200" stride="3">
              <param name="X" type="float"/>
              <param name="Y" type="float"/>
              <param name="Z" type="float"/>
            </accessor>
          </technique_common>
        </source>
        <source id="acetone-Normal0">
          <float_array id="acetone-Normal0-array" count="3465">
0.056377 0.997055 0.051991
0.050610 0.998718 0.000000
-0.056377 0.997055 0.051991
-0.056377 0.997055 0.051991
0.050610 0.998718 0.000000
-0.050610 0.998718 0.000000
-0.056377 -0.997055 0.051991
-0.050610 -0.998718 -0.000000
0.056377 -0.997055 0.051991
0.056377 -0.997055 0.051991
-0.050610 -0.998718 -0.000000
0.050610 -0.998718 -0.000000
0.941273 -0.244940 0.232400
0.967379 -0.253335 -0.000000
0.941273 0.244940 0.232400
0.941273 0.244940 0.232400
0.967379 -0.253335 -0.000000
0.967379 0.253335 0.000000
-0.734518 0.126234 0.666744
-0.720962 -0.107972 0.684511
-0.720962 0.107972 0.684511
-0.720962 -0.107972 0.684511
-0.734518 0.126234 0.666744
-0.734518 -0.126234 0.666744
-0.056377 0.997055 0.051991
0.056255 0.991072 0.120878
0.056377 0.997055 0.051991
0.056255 0.991072 0.120878
-0.056377 0.997055 0.051991
-0.056255 0.991072 0.120878
0.056377 -0.997055 0.051991
-0.056254 -0.991072 0.120878
-0.056377 -0.997055 0.051991
-0.056254 -0.991072 0.120878
0.056377 -0.997055 0.051991
0.056254 -0.991072 0.120878
0.850082 0.204036 0.485521
0.941273 -0.244940 0.232400
0.941273 0.244940 0.232400
0.941273 -0.244940 0.232400
0.850082 0.204036 0.485521
0.850082 -0.204036 0.485520
-0.941273 0.244940 0.232400
-0.967379 -0.253335 -0.000000
-0.941273 -0.244940 0.232400
-0.967379 -0.253335 -0.000000
-0.941273 0.244940 0.232400
-0.967379 0.253335 0.000000
-0.050610 0.998718 0.000000
-0.345869 0.930779 0.118430
-0.056377 0.997055 0.051991
-0.345869 0.930779 0.118430
-0.050610 0.998718 0.000000
-0.322167 0.946683 0.000000
0.348228 0.787493 0.508520
0.078738 0.936169 0.342618
0.063069 0.931608 0.357952
0.078738 0.936169 0.342618
0.348228 0.787493 0.508520
0.375301 0.782493 0.496844
0.056377 -0.997055 0.051991
0.050610 -0.998718 -0.000000
0.345869 -0.930779 0.118430
0.345869 -0.930779 0.118430
0.050610 -0.998718 -0.000000
0.322167 -0.946683 -0.000000
-0.348228 -0.787493 0.508520
-0.078738 -0.936169 0.342618
-0.063069 -0.931608 0.357952
-0.078738 -0.936169 0.342618
-0.348228 -0.787493 0.508520
-0.375301 -0.782493 0.496844
-0.334066 0.910079 0.245268
-0.056255 0.991072 0.120878
-0.056377 0.997055 0.051991
-0.056377 0.997055 0.051991
-0.345869 0.930779 0.118430
-0.334066 0.910079 0.245268
0.345869 0.930779 0.118430
0.322167 0.946683 0.000000
0.056377 0.997055 0.051991
0.056377 0.997055 0.051991
0.322167 0.946683 0.000000
0.050610 0.998718 0.000000
0.334066 -0.910079 0.245267
0.056254 -0.991072 0.120878
0.056377 -0.997055 0.051991
0.056377 -0.997055 0.051991
0.345869 -0.930779 0.118430
0.334066 -0.910079 0.245267
-0.345869 -0.930779 0.118430
-0.322167 -0.946683 -0.000000
-0.056377 -0.997055 0.051991
-0.056377 -0.997055 0.051991
-0.322167 -0.946683 -0.000000
-0.050610 -0.998718 -0.000000
-0.345869 0.930779 0.118430
-0.322167 0.946683 0.000000
-0.722817 0.661798 0.198893
-0.722817 0.661798 0.198893
-0.322167 0.946683 0.000000
-0.721979 0.691915 0.000000
-0.722817 0.661798 0.198893
-0.721979 0.691915 0.000000
-0.941273 0.244940 0.232400
-0.941273 0.244940 0.232400
-0.721979 0.691915 0.000000
-0.967379 0.253335 0.000000
0.644277 0.400781 0.651369
0.375301 0.782493 0.496844
0.348228 0.787493 0.508520
0.375301 0.782493 0.496844
0.644277 0.400781 0.651369
0.647964 0.428512 0.629698
0.720962 0.107972 0.684511
0.734518 0.126234 0.666744
0.644277 0.400781 0.651369
0.644277 0.400781 0.651369
0.734518 0.126234 0.666744
0.647964 0.428512 0.629698
0.345869 -0.930779 0.118430
0.322167 -0.946683 -0.000000
0.722817 -0.661798 0.198893
0.722817 -0.661798 0.198893
0.322167 -0.946683 -0.000000
0.721979 -0.691915 -0.000000
0.722817 -0.661798 0.198893
0.967379 -0.253335 -0.000000
0.941273 -0.244940 0.232400
0.967379 -0.253335 -0.000000
0.722817 -0.661798 0.198893
0.721979 -0.691915 -0.000000
-0.375301 -0.782493 0.496844
-0.644277 -0.400781 0.651369
-0.647964 -0.428513 0.629698
-0.644277 -0.400781 0.651369
-0.375301 -0.782493 0.496844
-0.348228 -0.787493 0.508520
-0.720962 -0.107972 0.684511
-0.734518 -0.126234 0.666744
-0.644277 -0.400781 0.651369
-0.644277 -0.400781 0.651369
-0.734518 -0.126234 0.666744
-0.647964 -0.428513 0.629698
-0.678051 0.607684 0.413482
-0.334066 0.910079 0.245268
-0.345869 0.930779 0.118430
-0.345869 0.930779 0.118430
-0.722817 0.661798 0.198893
-0.678051 0.607684 0.413482
-0.678051 0.607684 0.413482
-0.941273 0.244940 0.232400
-0.850082 0.204036 0.485521
-0.941273 0.244940 0.232400
-0.678051 0.607684 0.413482
-0.722817 0.661798 0.198893
0.722817 0.661798 0.198893
0.721979 0.691915 0.000000
0.345869 0.930779 0.118430
0.345869 0.930779 0.118430
0.721979 0.691915 0.000000
0.322167 0.946683 0.000000
0.941273 0.244940 0.232400
0.721979 0.691915 0.000000
0.722817 0.661798 0.198893
0.721979 0.691915 0.000000
0.941273 0.244940 0.232400
0.967379 0.253335 0.000000
0.678051 -0.607684 0.413481
0.334066 -0.910079 0.245267
0.345869 -0.930779 0.118430
0.345869 -0.930779 0.118430
0.722817 -0.661798 0.198893
0.678051 -0.607684 0.413481
0.678051 -0.607684 0.413481
0.941273 -0.244940 0.232400
0.850082 -0.204036 0.485520
0.941273 -0.244940 0.232400
0.678051 -0.607684 0.413481
0.722817 -0.661798 0.198893
-0.722817 -0.661798 0.198893
-0.721979 -0.691915 -0.000000
-0.345869 -0.930779 0.118430
-0.345869 -0.930779 0.118430
-0.721979 -0.691915 -0.000000
-0.322167 -0.946683 -0.000000
-0.941273 -0.244940 0.232400
-0.967379 -0.253335 -0.000000
-0.722817 -0.661798 0.198893
-0.722817 -0.661798 0.198893
-0.967379 -0.253335 -0.000000
-0.721979 -0.691915 -0.000000
-0.941273 0.244940 0.232400
-0.941273 -0.244940 0.232400
-0.850082 0.204036 0.485521
-0.850082 -0.204036 0.485520
-0.850082 0.204036 0.485521
-0.941273 -0.244940 0.232400
-0.078738 0.936169 0.342618
0.063069 0.931608 0.357952
0.078738 0.936169 0.342618
0.063069 0.931608 0.357952
-0.078738 0.936169 0.342618
-0.063069 0.931608 0.357952
0.078738 -0.936169 0.342618
-0.063069 -0.931608 0.357952
-0.078738 -0.936169 0.342618
-0.063069 -0.931608 0.357952
0.078738 -0.936169 0.342618
0.063069 -0.931608 0.357952
0.734518 -0.126234 0.666744
0.720962 0.107972 0.684511
0.720962 -0.107972 0.684511
0.720962 0.107972 0.684511
0.734518 -0.126234 0.666744
0.734518 0.126234 0.666744
0.056255 0.991072 0.120878
0.334066 0.910079 0.245268
0.056377 0.997055 0.051991
0.334066 0.910079 0.245268
0.345869 0.930779 0.118430
0.056377 0.997055 0.051991
-0.056254 -0.991072 0.120878
-0.334066 -0.910079 0.245267
-0.056377 -0.997055 0.051991
-0.334066 -0.910079 0.245267
-0.345869 -0.930779 0.118430
-0.056377 -0.997055 0.051991
-0.078738 0.936169 0.342618
-0.348228 0.787493 0.508520
-0.063069 0.931608 0.357952
-0.348228 0.787493 0.508520
-0.078738 0.936169 0.342618
-0.375301 0.782493 0.496844
0.078738 -0.936169 0.342618
0.348228 -0.787493 0.508520
0.063069 -0.931608 0.357952
0.348228 -0.787493 0.508520
0.078738 -0.936169 0.342618
0.375301 -0.782493 0.496844
0.334066 0.910079 0.245268
0.678051 0.607684 0.413482
0.345869 0.930779 0.118430
0.678051 0.607684 0.413482
0.722817 0.661798 0.198893
0.345869 0.930779 0.118430
0.678051 0.607684 0.413482
0.941273 0.244940 0.232400
0.722817 0.661798 0.198893
0.941273 0.244940 0.232400
0.678051 0.607684 0.413482
0.850082 0.204036 0.485521
-0.334066 -0.910079 0.245267
-0.678051 -0.607684 0.413481
-0.345869 -0.930779 0.118430
-0.678051 -0.607684 0.413481
-0.722817 -0.661798 0.198893
-0.345869 -0.930779 0.118430
-0.678051 -0.607684 0.413481
-0.941273 -0.244940 0.232400
-0.722817 -0.661798 0.198893
-0.941273 -0.244940 0.232400
-0.678051 -0.607684 0.413481
-0.850082 -0.204036 0.485520
-0.375301 0.782493 0.496844
-0.644277 0.400781 0.651369
-0.348228 0.787493 0.508520
-0.644277 0.400781 0.651369
-0.375301 0.782493 0.496844
-0.647964 0.428512 0.629699
-0.644277 0.400781 0.651369
-0.734518 0.126234 0.666744
-0.720962 0.107972 0.684511
-0.734518 0.126234 0.666744
-0.644277 0.400781 0.651369
-0.647964 0.428512 0.629699
0.375301 -0.782493 0.496844
0.644277 -0.400781 0.651369
0.348228 -0.787493 0.508520
0.644277 -0.400781 0.651369
0.375301 -0.782493 0.496844
0.647964 -0.428513 0.629698
0.644277 -0.400781 0.651369
0.734518 -0.126234 0.666744
0.720962 -0.107972 0.684511
0.734518 -0.126234 0.666744
0.644277 -0.400781 0.651369
0.647964 -0.428513 0.629698
-0.775019 0.151699 0.613460
-0.734518 -0.126234 0.666744
-0.734518 0.126234 0.666744
-0.734518 -0.126234 0.666744
-0.775019 0.151699 0.613460
-0.775019 -0.151700 0.613460
0.056255 0.991072 0.120878
-0.062265 0.981111 0.183153
0.062265 0.981111 0.183153
-0.062265 0.981111 0.183153
0.056255 0.991072 0.120878
-0.056255 0.991072 0.120878
0.056254 -0.991072 0.120878
-0.062265 -0.981111 0.183153
-0.056254 -0.991072 0.120878
-0.062265 -0.981111 0.183153
0.056254 -0.991072 0.120878
0.062265 -0.981111 0.183153
0.822162 0.178705 0.540475
0.850082 -0.204036 0.485520
0.850082 0.204036 0.485521
0.850082 -0.204036 0.485520
0.822162 0.178705 0.540475
0.822162 -0.178705 0.540475
0.078738 0.936169 0.342618
0.375301 0.782493 0.496844
0.068721 0.960126 0.270992
0.375301 0.782493 0.496844
0.360931 0.834549 0.416241
0.068721 0.960126 0.270992
-0.078738 -0.936169 0.342618
-0.375301 -0.782493 0.496844
-0.068721 -0.960126 0.270991
-0.375301 -0.782493 0.496844
-0.360931 -0.834549 0.416241
-0.068721 -0.960126 0.270991
-0.056255 0.991072 0.120878
-0.351458 0.880345 0.318543
-0.062265 0.981111 0.183153
-0.351458 0.880345 0.318543
-0.056255 0.991072 0.120878
-0.334066 0.910079 0.245268
0.056254 -0.991072 0.120878
0.351458 -0.880345 0.318543
0.062265 -0.981111 0.183153
0.351458 -0.880345 0.318543
0.056254 -0.991072 0.120878
0.334066 -0.910079 0.245267
0.360931 0.834549 0.416241
0.375301 0.782493 0.496844
0.647964 0.428512 0.629698
0.647964 0.428512 0.629698
0.661545 0.493402 0.564724
0.360931 0.834549 0.416241
0.775019 0.151699 0.613460
0.647964 0.428512 0.629698
0.734518 0.126234 0.666744
0.647964 0.428512 0.629698
0.775019 0.151699 0.613460
0.661545 0.493402 0.564724
-0.360931 -0.834549 0.416241
-0.375301 -0.782493 0.496844
-0.647964 -0.428513 0.629698
-0.647964 -0.428513 0.629698
-0.661545 -0.493402 0.564724
-0.360931 -0.834549 0.416241
-0.775019 -0.151700 0.613460
-0.647964 -0.428513 0.629698
-0.734518 -0.126234 0.666744
-0.647964 -0.428513 0.629698
-0.775019 -0.151700 0.613460
-0.661545 -0.493402 0.564724
-0.334066 0.910079 0.245268
-0.678776 0.556302 0.479365
-0.351458 0.880345 0.318543
-0.678776 0.556302 0.479365
-0.334066 0.910079 0.245268
-0.678051 0.607684 0.413482
-0.678776 0.556302 0.479365
-0.850082 0.204036 0.485521
-0.822162 0.178705 0.540475
-0.850082 0.204036 0.485521
-0.678776 0.556302 0.479365
-0.678051 0.607684 0.413482
0.334066 -0.910079 0.245267
0.678776 -0.556302 0.479365
0.351458 -0.880345 0.318543
0.678776 -0.556302 0.479365
0.334066 -0.910079 0.245267
0.678051 -0.607684 0.413481
0.678776 -0.556302 0.479365
0.850082 -0.204036 0.485520
0.822162 -0.178705 0.540475
0.850082 -0.204036 0.485520
0.678776 -0.556302 0.479365
0.678051 -0.607684 0.413481
-0.822162 0.178705 0.540475
-0.775019 -0.151700 0.613460
-0.775019 0.151699 0.613460
-0.775019 -0.151700 0.613460
-0.822162 0.178705 0.540475
-0.822162 -0.178705 0.540475
-0.850082 0.204036 0.485521
-0.822162 -0.178705 0.540475
-0.822162 0.178705 0.540475
-0.822162 -0.178705 0.540475
-0.850082 0.204036 0.485521
-0.850082 -0.204036 0.485520
-0.062265 0.981111 0.183153
0.068721 0.960126 0.270992
0.062265 0.981111 0.183153
0.068721 0.960126 0.270992
-0.062265 0.981111 0.183153
-0.068721 0.960126 0.270992
0.068721 0.960126 0.270992
-0.078738 0.936169 0.342618
0.078738 0.936169 0.342618
-0.078738 0.936169 0.342618
0.068721 0.960126 0.270992
-0.068721 0.960126 0.270992
0.062265 -0.981111 0.183153
-0.068721 -0.960126 0.270991
-0.062265 -0.981111 0.183153
-0.068721 -0.960126 0.270991
0.062265 -0.981111 0.183153
0.068721 -0.960126 0.270991
0.068721 -0.960126 0.270991
-0.078738 -0.936169 0.342618
-0.068721 -0.960126 0.270991
-0.078738 -0.936169 0.342618
0.068721 -0.960126 0.270991
0.078738 -0.936169 0.342618
0.822162 -0.178705 0.540475
0.775019 0.151699 0.613460
0.775019 -0.151699 0.613460
0.775019 0.151699 0.613460
0.822162 -0.178705 0.540475
0.822162 0.178705 0.540475
0.775019 -0.151699 0.613460
0.734518 0.126234 0.666744
0.734518 -0.126234 0.666744
0.734518 0.126234 0.666744
0.775019 -0.151699 0.613460
0.775019 0.151699 0.613460
0.068721 0.960126 0.270992
0.360931 0.834549 0.416241
0.062265 0.981111 0.183153
0.360931 0.834549 0.416241
0.351458 0.880345 0.318543
0.062265 0.981111 0.183153
0.062265 0.981111 0.183153
0.351458 0.880345 0.318543
0.056255 0.991072 0.120878
0.351458 0.880345 0.318543
0.334066 0.910079 0.245268
0.056255 0.991072 0.120878
-0.068721 -0.960126 0.270991
-0.360931 -0.834549 0.416241
-0.062265 -0.981111 0.183153
-0.360931 -0.834549 0.416241
-0.351458 -0.880345 0.318543
-0.062265 -0.981111 0.183153
-0.062265 -0.981111 0.183153
-0.351458 -0.880345 0.318543
-0.056254 -0.991072 0.120878
-0.351458 -0.880345 0.318543
-0.334066 -0.910079 0.245267
-0.056254 -0.991072 0.120878
-0.062265 0.981111 0.183153
-0.360931 0.834549 0.416241
-0.068721 0.960126 0.270992
-0.360931 0.834549 0.416241
-0.062265 0.981111 0.183153
-0.351458 0.880345 0.318543
-0.068721 0.960126 0.270992
-0.375301 0.782493 0.496844
-0.078738 0.936169 0.342618
-0.375301 0.782493 0.496844
-0.068721 0.960126 0.270992
-0.360931 0.834549 0.416241
0.062265 -0.981111 0.183153
0.360931 -0.834549 0.416241
0.068721 -0.960126 0.270991
0.360931 -0.834549 0.416241
0.062265 -0.981111 0.183153
0.351458 -0.880345 0.318543
0.068721 -0.960126 0.270991
0.375301 -0.782493 0.496844
0.078738 -0.936169 0.342618
0.375301 -0.782493 0.496844
0.068721 -0.960126 0.270991
0.360931 -0.834549 0.416241
0.351458 0.880345 0.318543
0.360931 0.834549 0.416241
0.661545 0.493402 0.564724
0.661545 0.493402 0.564724
0.678776 0.556302 0.479366
0.351458 0.880345 0.318543
0.351458 0.880345 0.318543
0.678776 0.556302 0.479366
0.334066 0.910079 0.245268
0.678776 0.556302 0.479366
0.678051 0.607684 0.413482
0.334066 0.910079 0.245268
0.822162 0.178705 0.540475
0.661545 0.493402 0.564724
0.775019 0.151699 0.613460
0.661545 0.493402 0.564724
0.822162 0.178705 0.540475
0.678776 0.556302 0.479366
0.678776 0.556302 0.479366
0.850082 0.204036 0.485521
0.678051 0.607684 0.413482
0.850082 0.204036 0.485521
0.678776 0.556302 0.479366
0.822162 0.178705 0.540475
-0.351458 -0.880345 0.318543
-0.360931 -0.834549 0.416241
-0.661545 -0.493402 0.564724
-0.661545 -0.493402 0.564724
-0.678776 -0.556302 0.479366
-0.351458 -0.880345 0.318543
-0.351458 -0.880345 0.318543
-0.678776 -0.556302 0.479366
-0.334066 -0.910079 0.245267
-0.678776 -0.556302 0.479366
-0.678051 -0.607684 0.413481
-0.334066 -0.910079 0.245267
-0.822162 -0.178705 0.540475
-0.661545 -0.493402 0.564724
-0.775019 -0.151700 0.613460
-0.661545 -0.493402 0.564724
-0.822162 -0.178705 0.540475
-0.678776 -0.556302 0.479366
-0.678776 -0.556302 0.479366
-0.850082 -0.204036 0.485520
-0.678051 -0.607684 0.413481
-0.850082 -0.204036 0.485520
-0.678776 -0.556302 0.479366
-0.822162 -0.178705 0.540475
-0.351458 0.880345 0.318543
-0.661545 0.493402 0.564724
-0.360931 0.834549 0.416241
-0.661545 0.493402 0.564724
-0.351458 0.880345 0.318543
-0.678776 0.556302 0.479365
-0.360931 0.834549 0.416241
-0.647964 0.428512 0.629699
-0.375301 0.782493 0.496844
-0.647964 0.428512 0.629699
-0.360931 0.834549 0.416241
-0.661545 0.493402 0.564724
-0.661545 0.493402 0.564724
-0.822162 0.178705 0.540475
-0.775019 0.151699 0.613460
-0.822162 0.178705 0.540475
-0.661545 0.493402 0.564724
-0.678776 0.556302 0.479365
-0.647964 0.428512 0.629699
-0.775019 0.151699 0.613460
-0.734518 0.126234 0.666744
-0.775019 0.151699 0.613460
-0.647964 0.428512 0.629699
-0.661545 0.493402 0.564724
0.351458 -0.880345 0.318543
0.661544 -0.493402 0.564724
0.360931 -0.834549 0.416241
0.661544 -0.493402 0.564724
0.351458 -0.880345 0.318543
0.678776 -0.556302 0.479365
0.360931 -0.834549 0.416241
0.647964 -0.428513 0.629698
0.375301 -0.782493 0.496844
0.647964 -0.428513 0.629698
0.360931 -0.834549 0.416241
0.661544 -0.493402 0.564724
0.661544 -0.493402 0.564724
0.822162 -0.178705 0.540475
0.775019 -0.151699 0.613460
0.822162 -0.178705 0.540475
0.661544 -0.493402 0.564724
0.678776 -0.556302 0.479365
0.647964 -0.428513 0.629698
0.775019 -0.151699 0.613460
0.734518 -0.126234 0.666744
0.775019 -0.151699 0.613460
0.647964 -0.428513 0.629698
0.661544 -0.493402 0.564724
0.000000 0.000000 -1.000000
0.000000 0.000000 -1.000000
0.000000 0.000000 -1.000000
0.000000 0.000000 -1.000000
0.000000 0.000000 -1.000000
0.000000 0.000000 -1.000000
0.000000 0.000000 -1.000000
0.000000 0.000000 -1.000000
0.000000 0.000000 -1.000000
0.000000 0.000000 -1.000000
0.000000 0.000000 -1.000000
0.000000 0.000000 -1.000000
0.000000 0.000000 -1.000000
0.000000 0.000000 -1.000000
0.000000 0.000000 -1.000000
0.000000 0.000000 -1.000000
0.000000 0.000000 -1.000000
0.000000 0.000000 -1.000000
0.000000 0.000000 -1.000000
0.000000 0.000000 -1.000000
0.000000 0.000000 -1.000000
0.000000 0.000000 -1.000000
0.000000 0.000000 -1.000000
0.000000 0.000000 -1.000000
0.000000 0.000000 -1.000000
0.000000 0.000000 -1.000000
0.000000 0.000000 -1.000000
0.000000 0.000000 -1.000000
0.000000 0.000000 -1.000000
0.000000 0.000000 -1.000000
0.000000 0.000000 -1.000000
0.000000 0.000000 -1.000000
0.000000 0.000000 -1.000000
0.000000 0.000000 -1.000000
0.000000 0.000000 -1.000000
0.000000 0.000000 -1.000000
0.000000 0.000000 -1.000000
0.000000 0.000000 -1.000000
0.000000 0.000000 -1.000000
0.000000 0.000000 -1.000000
0.000000 0.000000 -1.000000
0.000000 0.000000 -1.000000
0.000000 0.000000 1.000000
0.000000 0.000000 1.000000
0.000000 0.000000 1.000000
0.000000 0.000000 1.000000
0.000000 0.000000 1.000000
0.000000 0.000000 1.000000
0.000000 0.000000 1.000000
0.000000 0.000000 1.000000
0.000000 0.000000 1.000000
0.000000 0.000000 1.000000
0.000000 0.000000 1.000000
0.000000 0.000000 1.000000
0.000000 0.000000 1.000000
0.000000 0.000000 1.000000
0.000000 0.000000 1.000000
0.000000 0.000000 1.000000
0.000000 0.000000 1.000000
0.000000 0.000000 1.000000
0.000000 0.000000 1.000000
0.000000 0.000000 1.000000
0.000000 0.000000 1.000000
0.000000 0.000000 1.000000
0.000000 0.000000 1.000000
0.000000 0.000000 1.000000
0.000000 0.000000 1.000000
0.000000 0.000000 1.000000
0.000000 0.000000 1.000000
0.000000 0.000000 1.000000
0.000000 0.000000 1.000000
0.000000 0.000000 1.000000
0.000000 0.000000 1.000000
0.000000 0.000000 1.000000
0.000000 0.000000 1.000000
0.000000 0.000000 1.000000
0.000000 0.000000 1.000000
0.000000 0.000000 1.000000
0.000000 0.000000 1.000000
0.000000 0.000000 1.000000
0.000000 0.000000 1.000000
0.000000 0.000000 1.000000
0.000000 0.000000 1.000000
0.000000 0.000000 1.000000
0.766127 0.642689 -0.000808
1.000000 -0.000000 0.000000
0.766424 0.642334 -0.000807
1.000000 -0.000000 0.000000
1.000000 -0.000000 0.000000
0.766424 0.642334 -0.000807
0.174993 0.984570 -0.000228
0.766424 0.642334 -0.000807
0.172936 0.984933 -0.000220
0.766424 0.642334 -0.000807
0.174993 0.984570 -0.000228
0.766127 0.642689 -0.000808
-0.497697 0.867349 0.001914
0.172936 0.984933 -0.000220
-0.500233 0.865889 0.001920
0.172936 0.984933 -0.000220
-0.497697 0.867349 0.001914
0.174993 0.984570 -0.000228
-0.939185 0.343410 0.001339
-0.500233 0.865889 0.001920
-0.939357 0.342939 0.001337
-0.500233 0.865889 0.001920
-0.939185 0.343410 0.001339
-0.497697 0.867349 0.001914
-0.939185 -0.343410 0.001339
-0.939185 0.343410 0.001339
-0.939357 -0.342939 0.001337
-0.939185 0.343410 0.001339
-0.939357 0.342939 0.001337
-0.939357 -0.342939 0.001337
-0.497697 -0.867349 0.001914
-0.939185 -0.343410 0.001339
-0.500233 -0.865889 0.001920
-0.939185 -0.343410 0.001339
-0.939357 -0.342939 0.001337
-0.500233 -0.865889 0.001920
0.174993 -0.984570 -0.000228
-0.497697 -0.867349 0.001914
0.172935 -0.984933 -0.000220
-0.497697 -0.867349 0.001914
-0.500233 -0.865889 0.001920
0.172935 -0.984933 -0.000220
0.766126 -0.642689 -0.000808
0.174993 -0.984570 -0.000228
0.766424 -0.642335 -0.000807
0.174993 -0.984570 -0.000228
0.172935 -0.984933 -0.000220
0.766424 -0.642335 -0.000807
1.000000 -0.000000 0.000000
0.766126 -0.642689 -0.000808
1.000000 -0.000000 0.000000
0.766126 -0.642689 -0.000808
0.766424 -0.642335 -0.000807
1.000000 -0.000000 0.000000
0.000000 0.000000 1.000000
0.003624 0.001451 0.999992
0.000000 0.000000 1.000000
0.003624 0.001451 0.999992
0.000000 0.000000 1.000000
0.003631 0.001454 0.999992
0.002778 0.007485 0.999968
0.003624 0.001451 0.999992
0.003631 0.001454 0.999992
0.003631 0.001454 0.999992
0.002689 0.007576 0.999968
0.002778 0.007485 0.999968
-0.004854 0.006132 0.999969
0.002689 0.007576 0.999968
-0.004913 0.006018 0.999970
0.002689 0.007576 0.999968
-0.004854 0.006132 0.999969
0.002778 0.007485 0.999968
-0.004913 0.006018 0.999970
-0.003998 0.000017 0.999992
-0.004854 0.006132 0.999969
-0.003998 0.000017 0.999992
-0.004913 0.006018 0.999970
-0.003986 0.000017 0.999992
-0.003998 -0.000017 0.999992
-0.003998 0.000017 0.999992
-0.003986 0.000017 0.999992
-0.003986 0.000017 0.999992
-0.003986 -0.000017 0.999992
-0.003998 -0.000017 0.999992
-0.004913 -0.006018 0.999970
-0.003998 -0.000017 0.999992
-0.003986 -0.000017 0.999992
-0.003998 -0.000017 0.999992
-0.004913 -0.006018 0.999970
-0.004854 -0.006132 0.999969
-0.004854 -0.006132 0.999969
0.002689 -0.007576 0.999968
0.002778 -0.007485 0.999968
0.002689 -0.007576 0.999968
-0.004854 -0.006132 0.999969
-0.004913 -0.006018 0.999970
0.002778 -0.007485 0.999968
0.003631 -0.001454 0.999992
0.003624 -0.001451 0.999992
0.003631 -0.001454 0.999992
0.002778 -0.007485 0.999968
0.002689 -0.007576 0.999968
0.000000 0.000000 1.000000
0.003624 -0.001451 0.999992
0.003631 -0.001454 0.999992
0.003624 -0.001451 0.999992
0.000000 0.000000 1.000000
0.000000 0.000000 1.000000
-0.936353 -0.000000 -0.351061
-0.936351 -0.000003 -0.351066
-0.936352 -0.000000 -0.351062
-0.936351 -0.000003 -0.351066
-0.936351 0.000002 -0.351065
-0.936352 -0.000000 -0.351062
-0.936351 0.000002 -0.351065
-0.936353 0.000001 -0.351060
-0.936352 -0.000000 -0.351062
-0.936353 0.000001 -0.351060
-0.936353 0.000000 -0.351060
-0.936352 -0.000000 -0.351062
-0.936353 0.000000 -0.351060
-0.936353 -0.000000 -0.351060
-0.936352 -0.000000 -0.351062
-0.936353 -0.000000 -0.351060
-0.936353 -0.000001 -0.351060
-0.936352 -0.000000 -0.351062
-0.936353 -0.000001 -0.351060
-0.936351 -0.000002 -0.351065
-0.936352 -0.000000 -0.351062
-0.936351 -0.000002 -0.351065
-0.936351 0.000003 -0.351066
-0.936352 -0.000000 -0.351062
-0.936351 0.000003 -0.351066
-0.936353 -0.000000 -0.351061
-0.936352 -0.000000 -0.351062
0.765121 0.619658 0.174967
0.985340 -0.000080 0.170604
0.999622 -0.000000 0.027482
0.765121 0.619658 0.174967
0.999622 -0.000000 0.027482
0.767522 0.640242 0.031610
0.181053 0.960152 0.212905
0.765121 0.619658 0.174967
0.767522 0.640242 0.031610
0.181053 0.960152 0.212905
0.767522 0.640242 0.031610
0.163156 0.984676 0.061592
-0.457880 0.857940 0.232992
0.181053 0.960152 0.212905
0.163156 0.984676 0.061592
-0.457880 0.857940 0.232992
0.163156 0.984676 0.061592
-0.496807 0.862674 0.094746
-0.913411 0.356072 0.197215
-0.457880 0.857940 0.232992
-0.496807 0.862674 0.094746
-0.913411 0.356072 0.197215
-0.496807 0.862674 0.094746
-0.932729 0.346582 0.099488
-0.913411 0.356072 0.197215
-0.929289 -0.354073 0.105138
-0.907139 -0.365368 0.208817
-0.929289 -0.354073 0.105138
-0.913411 0.356072 0.197215
-0.932729 0.346582 0.099488
-0.466382 -0.853930 0.230852
-0.907139 -0.365368 0.208817
-0.929289 -0.354073 0.105138
-0.466382 -0.853930 0.230852
-0.929289 -0.354073 0.105138
-0.501215 -0.859321 0.101741
-0.466382 -0.853930 0.230852
0.163111 -0.984680 0.061643
0.184187 -0.960624 0.208031
0.163111 -0.984680 0.061643
-0.466382 -0.853930 0.230852
-0.501215 -0.859321 0.101741
0.184187 -0.960624 0.208031
0.767522 -0.640243 0.031610
0.765009 -0.619700 0.175312
0.767522 -0.640243 0.031610
0.184187 -0.960624 0.208031
0.163111 -0.984680 0.061643
0.765009 -0.619700 0.175312
0.999622 -0.000000 0.027482
0.985340 -0.000080 0.170604
0.999622 -0.000000 0.027482
0.765009 -0.619700 0.175312
0.767522 -0.640243 0.031610
0.673328 0.590705 0.444631
0.886121 -0.000209 0.463454
0.985340 -0.000080 0.170604
0.673328 0.590705 0.444631
0.985340 -0.000080 0.170604
0.765121 0.619658 0.174967
0.673328 0.590705 0.444631
0.181053 0.960152 0.212905
0.107677 0.910493 0.399258
0.181053 0.960152 0.212905
0.673328 0.590705 0.444631
0.765121 0.619658 0.174967
0.107677 0.910493 0.399258
-0.457880 0.857940 0.232992
-0.511471 0.833733 0.208057
-0.457880 0.857940 0.232992
0.107677 0.910493 0.399258
0.181053 0.960152 0.212905
-0.511471 0.833733 0.208057
-0.913411 0.356072 0.197215
-0.933531 0.353513 0.059569
-0.913411 0.356072 0.197215
-0.511471 0.833733 0.208057
-0.457880 0.857940 0.232992
-0.907139 -0.365368 0.208817
-0.933531 0.353513 0.059569
-0.913411 0.356072 0.197215
-0.933531 0.353513 0.059569
-0.907139 -0.365368 0.208817
-0.897487 -0.439040 0.041958
-0.897487 -0.439040 0.041958
-0.907139 -0.365368 0.208817
-0.497908 -0.842012 0.207613
-0.907139 -0.365368 0.208817
-0.466382 -0.853930 0.230852
-0.497908 -0.842012 0.207613
0.114870 -0.911596 0.394712
-0.497908 -0.842012 0.207613
-0.466382 -0.853930 0.230852
-0.466382 -0.853930 0.230852
0.184187 -0.960624 0.208031
0.114870 -0.911596 0.394712
0.674006 -0.590575 0.443776
0.114870 -0.911596 0.394712
0.184187 -0.960624 0.208031
0.184187 -0.960624 0.208031
0.765009 -0.619700 0.175312
0.674006 -0.590575 0.443776
0.674006 -0.590575 0.443776
0.985340 -0.000080 0.170604
0.886121 -0.000209 0.463454
0.985340 -0.000080 0.170604
0.674006 -0.590575 0.443776
0.765009 -0.619700 0.175312
0.545268 0.002355 0.838258
0.537674 0.598933 0.593453
0.373369 0.601153 0.706548
0.537674 0.598933 0.593453
0.545268 0.002355 0.838258
0.748119 0.000229 0.663565
0.010640 0.924075 0.382064
0.373369 0.601153 0.706548
0.537674 0.598933 0.593453
0.373369 0.601153 0.706548
0.010640 0.924075 0.382064
-0.046210 0.924610 0.378102
0.010640 0.924075 0.382064
-0.511471 0.833733 0.208057
-0.046210 0.924610 0.378102
-0.615244 0.419886 -0.667211
-0.511471 0.833733 0.208057
-0.933531 0.353513 0.059569
-0.511471 0.833733 0.208057
-0.615244 0.419886 -0.667211
-0.335974 0.937407 -0.091595
-0.897487 -0.439040 0.041958
-0.615244 0.419886 -0.667211
-0.933531 0.353513 0.059569
-0.615244 0.419886 -0.667211
-0.897487 -0.439040 0.041958
-0.542727 -0.606483 -0.581056
-0.497908 -0.842012 0.207613
-0.542727 -0.606483 -0.581056
-0.897487 -0.439040 0.041958
-0.542727 -0.606483 -0.581056
-0.497908 -0.842012 0.207613
-0.325451 -0.941766 -0.084606
-0.027673 -0.922091 0.385982
-0.325451 -0.941766 -0.084606
-0.497908 -0.842012 0.207613
-0.325451 -0.941766 -0.084606
-0.027673 -0.922091 0.385982
-0.115072 -0.916819 0.382363
0.019324 -0.923989 0.381930
0.544496 -0.595856 0.590321
0.389353 -0.589682 0.707587
0.019324 -0.923989 0.381930
0.389353 -0.589682 0.707587
-0.027673 -0.922091 0.385982
0.545268 0.002355 0.838258
0.544496 -0.595856 0.590321
0.748119 0.000229 0.663565
0.544496 -0.595856 0.590321
0.545268 0.002355 0.838258
0.389353 -0.589682 0.707587
-0.162096 0.021933 0.986531
0.095210 0.587057 0.803927
-0.180613 0.576580 0.796828
0.095210 0.587057 0.803927
-0.162096 0.021933 0.986531
0.193474 0.009546 0.981059
-0.133959 0.923877 0.358479
-0.180613 0.576580 0.796828
0.095210 0.587057 0.803927
-0.180613 0.576580 0.796828
-0.133959 0.923877 0.358479
-0.180794 0.943277 0.278464
-0.133959 0.923877 0.358479
-0.335974 0.937407 -0.091595
-0.180794 0.943277 0.278464
-0.615244 0.419886 -0.667211
0.001279 0.936158 -0.351578
-0.335974 0.937407 -0.091595
0.001279 0.936158 -0.351578
-0.615244 0.419886 -0.667211
0.246331 0.380071 -0.891553
0.216661 -0.519542 -0.826519
-0.615244 0.419886 -0.667211
-0.542727 -0.606483 -0.581056
-0.615244 0.419886 -0.667211
0.216661 -0.519542 -0.826519
0.246331 0.380071 -0.891553
-0.325451 -0.941766 -0.084606
0.005627 -0.941614 -0.336647
-0.542727 -0.606483 -0.581056
-0.542727 -0.606483 -0.581056
0.005627 -0.941614 -0.336647
0.216661 -0.519542 -0.826519
-0.325451 -0.941766 -0.084606
-0.251229 -0.937454 0.240964
0.005627 -0.941614 -0.336647
-0.251229 -0.937454 0.240964
-0.325451 -0.941766 -0.084606
-0.174505 -0.936747 0.303401
0.116480 -0.561469 0.819259
-0.165876 -0.534795 0.828540
-0.115072 -0.916819 0.382363
-0.115072 -0.916819 0.382363
-0.165876 -0.534795 0.828540
-0.174505 -0.936747 0.303401
-0.162096 0.021933 0.986531
0.116480 -0.561469 0.819259
0.193474 0.009546 0.981059
0.116480 -0.561469 0.819259
-0.162096 0.021933 0.986531
-0.165876 -0.534795 0.828540
-0.544884 0.573510 0.611708
-0.493620 0.024134 0.869343
-0.437337 0.555123 0.707513
-0.493620 0.024134 0.869343
-0.544884 0.573510 0.611708
-0.650464 0.018446 0.759313
-0.249109 0.941886 0.225377
-0.158498 0.982901 0.093723
-0.544884 0.573510 0.611708
-0.544884 0.573510 0.611708
-0.437337 0.555123 0.707513
-0.249109 0.941886 0.225377
0.001279 0.936158 -0.351578
0.293483 0.826979 -0.479556
-0.158498 0.982901 0.093723
-0.158498 0.982901 0.093723
-0.249109 0.941886 0.225377
0.001279 0.936158 -0.351578
0.293483 0.826979 -0.479556
0.001279 0.936158 -0.351578
0.246331 0.380071 -0.891553
0.293483 0.826979 -0.479556
0.246331 0.380071 -0.891553
0.544956 0.281174 -0.789914
0.529935 -0.365157 -0.765395
0.246331 0.380071 -0.891553
0.216661 -0.519542 -0.826519
0.246331 0.380071 -0.891553
0.529935 -0.365157 -0.765395
0.544956 0.281174 -0.789914
0.285517 -0.840123 -0.461166
0.216661 -0.519542 -0.826519
0.005627 -0.941614 -0.336647
0.216661 -0.519542 -0.826519
0.285517 -0.840123 -0.461166
0.529935 -0.365157 -0.765395
-0.159310 -0.982643 0.095045
0.005627 -0.941614 -0.336647
-0.251229 -0.937454 0.240964
0.005627 -0.941614 -0.336647
-0.159310 -0.982643 0.095045
0.285517 -0.840123 -0.461166
-0.557430 -0.546111 0.625327
-0.251229 -0.937454 0.240964
-0.438731 -0.515538 0.736027
-0.251229 -0.937454 0.240964
-0.557430 -0.546111 0.625327
-0.159310 -0.982643 0.095045
-0.493620 0.024134 0.869343
-0.650464 0.018446 0.759313
-0.557430 -0.546111 0.625327
-0.493620 0.024134 0.869343
-0.557430 -0.546111 0.625327
-0.438731 -0.515538 0.736027
0.886121 -0.000209 0.463454
0.537674 0.598933 0.593453
0.748119 0.000229 0.663565
0.537674 0.598933 0.593453
0.886121 -0.000209 0.463454
0.673328 0.590705 0.444631
0.010640 0.924075 0.382064
0.537674 0.598933 0.593453
0.107677 0.910493 0.399258
0.107677 0.910493 0.399258
0.537674 0.598933 0.593453
0.673328 0.590705 0.444631
0.114870 -0.911596 0.394712
0.544496 -0.595856 0.590321
0.019324 -0.923989 0.381930
0.544496 -0.595856 0.590321
0.114870 -0.911596 0.394712
0.674006 -0.590575 0.443776
0.544496 -0.595856 0.590321
0.886121 -0.000209 0.463454
0.748119 0.000229 0.663565
0.886121 -0.000209 0.463454
0.544496 -0.595856 0.590321
0.674006 -0.590575 0.443776
0.193474 0.009546 0.981059
0.373369 0.601153 0.706548
0.095210 0.587057 0.803927
0.373369 0.601153 0.706548
0.193474 0.009546 0.981059
0.545268 0.002355 0.838258
0.373369 0.601153 0.706548
-0.046210 0.924610 0.378102
0.095210 0.587057 0.803927
-0.046210 0.924610 0.378102
-0.133959 0.923877 0.358479
0.095210 0.587057 0.803927
-0.027673 -0.922091 0.385982
0.116480 -0.561469 0.819259
-0.115072 -0.916819 0.382363
0.116480 -0.561469 0.819259
-0.027673 -0.922091 0.385982
0.389353 -0.589682 0.707587
0.193474 0.009546 0.981059
0.389353 -0.589682 0.707587
0.545268 0.002355 0.838258
0.389353 -0.589682 0.707587
0.193474 0.009546 0.981059
0.116480 -0.561469 0.819259
-0.511471 0.833733 0.208057
0.010640 0.924075 0.382064
0.107677 0.910493 0.399258
-0.335974 0.937407 -0.091595
-0.046210 0.924610 0.378102
-0.511471 0.833733 0.208057
-0.046210 0.924610 0.378102
-0.335974 0.937407 -0.091595
-0.133959 0.923877 0.358479
0.114870 -0.911596 0.394712
0.019324 -0.923989 0.381930
-0.497908 -0.842012 0.207613
-0.497908 -0.842012 0.207613
0.019324 -0.923989 0.381930
-0.027673 -0.922091 0.385982
-0.493620 0.024134 0.869343
-0.180613 0.576580 0.796828
-0.437337 0.555123 0.707513
-0.180613 0.576580 0.796828
-0.493620 0.024134 0.869343
-0.162096 0.021933 0.986531
-0.437337 0.555123 0.707513
-0.180613 0.576580 0.796828
-0.180794 0.943277 0.278464
-0.437337 0.555123 0.707513
-0.180794 0.943277 0.278464
-0.249109 0.941886 0.225377
-0.438731 -0.515538 0.736027
-0.174505 -0.936747 0.303401
-0.165876 -0.534795 0.828540
-0.174505 -0.936747 0.303401
-0.438731 -0.515538 0.736027
-0.251229 -0.937454 0.240964
-0.493620 0.024134 0.869343
-0.438731 -0.515538 0.736027
-0.162096 0.021933 0.986531
-0.162096 0.021933 0.986531
-0.438731 -0.515538 0.736027
-0.165876 -0.534795 0.828540
-0.335974 0.937407 -0.091595
-0.249109 0.941886 0.225377
-0.180794 0.943277 0.278464
-0.249109 0.941886 0.225377
-0.335974 0.937407 -0.091595
0.001279 0.936158 -0.351578
-0.325451 -0.941766 -0.084606
-0.115072 -0.916819 0.382363
-0.174505 -0.936747 0.303401
</float_array>
          <technique_common>
            <accessor source="#acetone-Normal0-array" count="1155" stride="3">
              <param name="X" type="float"/>
              <param name="Y" type="float"/>
              <param name="Z" type="float"/>
            </accessor>
          </technique_common>
        </source>
        <source id="acetone-UV0">
          <float_array id="acetone-UV0-array" count="582">
0.063762 0.196692
0.760612 0.814571
0.590136 0.815115
0.055067 0.155604
0.259951 0.817742
0.101162 0.192891
0.044741 0.119502
0.089484 0.818391
0.087592 0.395368
0.258551 0.394714
0.253327 0.840975
0.096264 0.841569
0.264339 0.192891
0.044741 0.107045
0.301739 0.196692
0.055067 0.070943
0.299007 0.817984
0.298099 0.395056
0.141128 0.956986
0.120886 0.958123
0.174107 0.050002
0.335467 0.217593
0.191844 0.070903
0.355768 0.253695
0.588403 0.392102
0.911885 0.979282
0.759345 0.391539
0.453086 0.816429
0.100192 0.923390
0.382800 0.816433
0.126726 0.924135
0.903571 0.932840
0.290058 0.841875
0.048038 0.396014
0.050453 0.818911
0.340295 0.819817
0.339697 0.395057
0.094159 0.969068
0.067713 0.932346
0.329868 0.847069
0.753975 0.837805
0.596902 0.838276
0.799682 0.814849
0.798860 0.391916
0.006434 0.396626
0.009189 0.820855
0.223426 0.923778
0.209262 0.956733
0.091098 0.046253
0.191844 0.155564
0.621606 0.954736
0.355768 0.321925
0.059537 0.842715
0.174107 0.176466
0.249952 0.922845
0.335467 0.358028
0.301739 0.378929
0.229506 0.957724
0.019751 0.848116
0.282492 0.931573
0.101162 0.382729
0.256309 0.968480
0.264339 0.382729
0.244364 0.869624
0.063762 0.378929
0.105415 0.870144
0.085442 0.897677
0.115601 0.897570
0.277969 0.870162
0.155814 0.046193
0.050104 0.906164
0.315837 0.877146
0.234365 0.897129
0.155691 0.180276
0.071808 0.870909
0.264520 0.897027
0.033982 0.878134
0.091220 0.180296
0.299914 0.905273
0.030034 0.358027
0.382639 0.394253
0.009733 0.321925
0.453249 0.394237
0.449326 0.843210
0.386506 0.843205
0.009733 0.253695
0.463321 0.989659
0.424563 0.982397
0.432886 0.935956
0.030034 0.217593
0.474026 0.945809
0.072804 0.050042
0.496193 0.394746
0.072804 0.176506
0.495591 0.820018
0.202170 0.107005
0.342937 0.850529
0.202170 0.119462
0.411182 0.982396
0.402869 0.935954
0.492874 0.850651
0.372416 0.989643
0.361723 0.945786
0.933589 0.932842
0.925266 0.979283
0.600818 0.920057
0.627326 0.920748
0.790713 0.838744
0.548851 0.392716
0.443980 0.874257
0.391812 0.874253
0.551099 0.815610
0.840986 0.816706
0.438446 0.905134
0.481107 0.915361
0.348298 0.883787
0.397323 0.905132
0.487477 0.883858
0.354651 0.915320
0.840421 0.391938
0.594890 0.965736
0.568360 0.929058
0.830521 0.843979
0.883342 0.391138
0.953950 0.391122
0.507247 0.393308
0.509833 0.817534
0.723978 0.920553
0.560168 0.839408
0.750475 0.919702
0.729889 0.954514
0.520379 0.844796
0.782985 0.928509
0.953788 0.813314
0.883501 0.813319
0.756675 0.965348
0.744989 0.866447
0.606034 0.866832
0.586048 0.894356
0.616203 0.894228
0.778596 0.867033
0.550720 0.902868
0.816454 0.874073
0.734962 0.893934
0.572423 0.867596
0.765109 0.893896
0.534596 0.874823
0.800481 0.902212
0.964025 0.986544
0.974729 0.942694
0.887206 0.840090
0.843637 0.847417
0.996895 0.391632
0.996292 0.816904
0.950027 0.840095
0.993575 0.847536
0.873120 0.986530
0.862426 0.942672
0.898025 0.902018
0.939148 0.902020
0.981809 0.912246
0.892513 0.871139
0.848999 0.880675
0.944682 0.871142
0.988179 0.880743
0.855354 0.912207
0.671432 0.008799
0.994129 0.200611
0.723410 0.008799
0.979684 0.264018
0.775388 0.008799
0.938125 0.245653
0.359595 0.008682
0.949581 0.200457
0.411573 0.008682
0.942982 0.314004
0.463551 0.008682
0.908874 0.280195
0.515524 0.008682
0.897052 0.347636
0.567492 0.008772
0.869865 0.305547
0.619459 0.008799
0.852151 0.372132
0.671432 0.049323
0.828448 0.331582
0.723410 0.049323
0.848753 0.031305
0.775175 0.049531
0.827779 0.075895
0.359423 0.049431
0.896321 0.052817
0.411573 0.049206
0.870768 0.095888
0.463551 0.049206
0.943572 0.086368
0.515706 0.049431
0.909870 0.120368
0.567673 0.049504
0.980290 0.136939
0.619449 0.049323
0.938678 0.155144
0.882260 0.229773
0.887501 0.200287
0.867318 0.257374
0.841912 0.288189
0.813519 0.312687
0.813011 0.093896
0.843742 0.118102
0.868164 0.143271
0.882721 0.170727
0.328330 0.192624
0.834463 0.220708
0.302578 0.147474
0.836704 0.200219
0.308143 0.146523
0.826662 0.242188
0.331982 0.188319
0.811689 0.267260
0.311714 0.096521
0.792356 0.295655
0.316539 0.099428
0.793950 0.108737
0.351700 0.063344
0.815878 0.139430
0.353551 0.068719
0.828326 0.160636
0.403850 0.063432
0.834701 0.179813
0.364351 0.087834
0.786860 0.223835
0.788143 0.200576
0.783282 0.244841
0.778004 0.264026
0.765119 0.284539
0.769164 0.118042
0.783637 0.140463
0.787170 0.158566
0.788575 0.177912
0.449203 0.200651
0.451385 0.207654
0.456429 0.213793
0.461883 0.219380
0.463684 0.224001
0.466079 0.175805
0.461586 0.181110
0.455562 0.187093
0.450834 0.193518
0.401890 0.068726
0.443486 0.097057
0.438582 0.099854
0.452073 0.148496
0.446467 0.147545
0.425857 0.193355
0.422201 0.189068
0.377073 0.210672
0.377105 0.205027
0.364351 0.093898
0.360453 0.092479
0.358379 0.088887
0.359100 0.084802
0.362277 0.082135
0.366425 0.082135
0.369603 0.084802
0.370323 0.088887
0.368249 0.092479
0.307466 0.049529
0.307617 0.008797
0.803673 0.013109
0.787353 0.054816
0.786142 0.072776
0.778642 0.089009
0.761638 0.099346
0.467243 0.171300
0.641880 0.953542
0.709579 0.953480
0.917866 0.200376
0.910300 0.236469
0.889115 0.267777
0.890082 0.132689
0.910820 0.164200
0.861580 0.200154
0.857998 0.223355
0.847302 0.247089
0.848396 0.154716
0.858394 0.176986
0.812732 0.200459
0.811043 0.221018
0.805088 0.241500
0.807827 0.161929
0.811854 0.180225
</float_array>
          <technique_common>
            <accessor source="#acetone-UV0-array" count="291" stride="2">
              <param name="S" type="float"/>
              <param name="T" type="float"/>
            </accessor>
          </technique_common>
        </source>
        <vertices id="acetone-VERTEX">
          <input semantic="POSITION" source="#acetone-POSITION"/>
        </vertices>
        <triangles count="385" material="acetone"><input semantic="VERTEX" offset="0" source="#acetone-VERTEX"/><input semantic="NORMAL" offset="1" source="#acetone-Normal0"/><input semantic="TEXCOORD" offset="2" set="0" source="#acetone-UV0"/><p> 9 0 2 1 1 24 20 2 1 20 3 1 1 4 24 0 5 26 11 6 7 16 7 8 22 8 4 22 9 4 16 10 8 17 11 9 10 12 29 5 13 80 21 14 27 21 15 27 5 16 80 13 17 82 70 18 31 6 19 104 14 20 25 6 21 104 70 22 31 53 23 103 20 24 1 64 25 41 9 26 2 64 27 41 20 28 1 66 29 40 22 30 4 49 31 11 11 32 7 49 33 11 22 34 4 67 35 10 68 36 83 10 37 29 21 38 27 10 39 29 68 40 83 71 41 84 8 42 134 4 43 124 23 44 133 4 45 124 8 46 134 12 47 123 0 48 26 41 49 42 20 50 1 41 51 42 0 52 26 25 53 43 31 54 50 48 55 106 3 56 274 48 57 106 31 58 50 56 59 105 22 60 4 17 61 9 45 62 16 45 63 16 17 64 9 35 65 17 37 66 19 65 67 30 18 68 18 65 69 30 37 70 19 58 71 28 76 72 107 66 73 40 20 74 1 20 75 1 41 76 42 76 77 107 42 78 111 26 79 108 9 80 2 9 81 2 26 82 108 1 83 24 78 84 32 67 85 10 22 86 4 22 87 4 45 88 16 78 89 32 46 90 34 32 91 33 11 92 7 11 93 7 32 94 33 16 95 8 41 96 42 25 97 43 40 98 112 40 99 112 25 100 43 24 101 119 40 102 112 24 103 119 8 104 134 8 105 134 24 106 119 12 107 123 30 108 120 56 109 105 31 110 50 56 111 105 30 112 120 57 113 121 15 114 87 52 115 88 30 116 86 30 117 86 52 118 88 57 119 90 45 120 16 35 121 17 44 122 35 44 123 35 35 124 17 34 125 36 44 126 35 5 127 80 10 128 29 5 129 80 44 130 35 34 131 36 58 132 28 36 133 37 59 134 38 36 135 37 58 136 28 37 137 19 6 138 104 53 139 103 36 140 148 36 141 148 53 142 103 59 143 149 77 144 122 76 145 107 41 146 42 41 147 42 40 148 112 77 149 122 77 150 151 8 151 134 54 152 150 8 153 134 77 154 151 40 155 112 43 156 126 27 157 125 42 158 111 42 159 111 27 160 125 26 161 108 21 162 27 27 163 92 43 164 94 27 165 92 21 166 27 13 167 82 79 168 39 78 169 32 45 170 16 45 171 16 44 172 35 79 173 39 79 174 96 10 175 29 71 176 84 10 177 29 79 178 96 44 179 35 47 180 45 33 181 44 46 182 34 46 183 34 33 184 44 32 185 33 23 186 133 4 187 124 47 188 153 47 189 153 4 190 124 33 191 152 8 192 134 23 193 133 54 194 150 69 195 154 54 196 150 23 197 133 50 198 127 3 199 274 48 200 106 3 201 274 50 202 127 2 203 275 51 204 46 18 205 18 65 206 30 18 207 18 51 208 46 19 209 47 55 210 99 15 211 87 7 212 98 15 213 87 55 214 99 52 215 88 64 216 41 72 217 128 9 218 2 72 219 128 42 220 111 9 221 2 49 222 11 74 223 52 11 224 7 74 225 52 46 226 34 11 227 7 50 228 127 28 229 130 2 230 275 28 231 130 50 232 127 60 233 129 51 234 46 38 235 57 19 236 47 38 237 57 51 238 46 62 239 54 72 240 128 73 241 131 42 242 111 73 243 131 43 244 126 42 245 111 73 246 100 21 247 27 43 248 94 21 249 27 73 250 100 68 251 83 74 252 52 75 253 58 46 254 34 75 255 58 47 256 45 46 257 34 75 258 155 23 259 133 47 260 153 23 261 133 75 262 155 69 263 154 60 264 129 29 265 135 28 266 130 29 267 135 60 268 129 61 269 132 29 270 156 70 271 31 14 272 25 70 273 31 29 274 156 61 275 157 62 276 54 39 277 61 38 278 57 39 279 61 62 280 54 63 281 59 39 282 101 55 283 99 7 284 98 55 285 99 39 286 101 63 287 102 93 288 158 53 289 103 70 290 31 53 291 103 93 292 158 90 293 159 64 294 41 85 295 136 81 296 137 85 297 136 64 298 41 66 299 40 67 300 10 82 301 65 49 302 11 82 303 65 67 304 10 87 305 63 89 306 109 71 307 84 68 308 83 71 309 84 89 310 109 95 311 110 48 312 106 56 313 105 80 314 139 56 315 105 96 316 138 80 317 139 65 318 30 58 319 28 83 320 67 58 321 28 100 322 66 83 323 67 66 324 40 105 325 140 85 326 136 105 327 140 66 328 40 76 329 107 67 330 10 109 331 68 87 332 63 109 333 68 67 334 10 78 335 32 96 336 138 56 337 105 57 338 121 57 339 121 98 340 141 96 341 138 88 342 113 57 343 90 52 344 88 57 345 90 88 346 113 98 347 114 100 348 66 58 349 28 59 350 38 59 351 38 102 352 70 100 353 66 90 354 159 59 355 149 53 356 103 59 357 149 90 358 159 102 359 160 76 360 107 107 361 142 105 362 140 107 363 142 76 364 107 77 365 122 107 366 162 54 367 150 92 368 161 54 369 150 107 370 162 77 371 151 78 372 32 111 373 71 109 374 68 111 375 71 78 376 32 79 377 39 111 378 115 71 379 84 95 380 110 71 381 84 111 382 115 79 383 96 92 384 161 90 385 159 93 386 158 90 387 159 92 388 161 91 389 163 54 390 150 91 391 163 92 392 161 91 393 163 54 394 150 69 395 154 85 396 136 80 397 139 81 398 137 80 399 139 85 400 136 84 401 143 80 402 139 50 403 127 48 404 106 50 405 127 80 406 139 84 407 143 87 408 63 83 409 67 82 410 65 83 411 67 87 412 63 86 413 72 86 414 72 65 415 30 83 416 67 65 417 30 86 418 72 51 419 46 95 420 110 88 421 113 94 422 116 88 423 113 95 424 110 89 425 109 94 426 116 52 427 88 55 428 99 52 429 88 94 430 116 88 431 113 80 432 139 96 433 138 81 434 137 96 435 138 97 436 144 81 437 137 81 438 137 97 439 144 64 440 41 97 441 144 72 442 128 64 443 41 83 444 67 100 445 66 82 446 65 100 447 66 101 448 74 82 449 65 82 450 65 101 451 74 49 452 11 101 453 74 74 454 52 49 455 11 85 456 136 104 457 145 84 458 143 104 459 145 85 460 136 105 461 140 84 462 143 60 463 129 50 464 127 60 465 129 84 466 143 104 467 145 87 468 63 108 469 75 86 470 72 108 471 75 87 472 63 109 473 68 86 474 72 62 475 54 51 476 46 62 477 54 86 478 72 108 479 75 97 480 144 96 481 138 98 482 141 98 483 141 99 484 146 97 485 144 97 486 144 99 487 146 72 488 128 99 489 146 73 490 131 72 491 128 89 492 109 98 493 114 88 494 113 98 495 114 89 496 109 99 497 117 99 498 117 68 499 83 73 500 100 68 501 83 99 502 117 89 503 109 101 504 74 100 505 66 102 506 70 102 507 70 103 508 76 101 509 74 101 510 74 103 511 76 74 512 52 103 513 76 75 514 58 74 515 52 91 516 163 102 517 160 90 518 159 102 519 160 91 520 163 103 521 164 103 522 164 69 523 154 75 524 155 69 525 154 103 526 164 91 527 163 105 528 140 106 529 147 104 530 145 106 531 147 105 532 140 107 533 142 104 534 145 61 535 132 60 536 129 61 537 132 104 538 145 106 539 147 106 540 165 92 541 161 93 542 158 92 543 161 106 544 165 107 545 162 61 546 157 93 547 158 70 548 31 93 549 158 61 550 157 106 551 165 109 552 68 110 553 78 108 554 75 110 555 78 109 556 68 111 557 71 108 558 75 63 559 59 62 560 54 63 561 59 108 562 75 110 563 78 110 564 118 95 565 110 94 566 116 95 567 110 110 568 118 111 569 115 63 570 102 94 571 116 55 572 99 94 573 116 63 574 102 110 575 118 4 576 81 0 577 5 16 578 60 4 579 81 32 580 64 33 581 79 1 582 12 17 583 62 16 584 60 5 585 51 17 586 62 1 587 12 12 588 85 25 589 0 0 590 5 25 591 0 12 592 85 24 593 89 1 594 12 16 595 60 0 596 5 13 597 23 1 598 12 26 599 14 13 600 23 26 601 14 27 602 21 5 603 51 1 604 12 13 605 23 35 606 56 5 607 51 34 608 55 17 609 62 5 610 51 35 611 56 32 612 64 4 613 81 16 614 60 12 615 85 0 616 5 4 617 81 30 618 15 39 619 3 15 620 13 15 621 13 39 622 3 7 623 6 29 624 22 37 625 53 28 626 20 37 627 53 29 628 22 36 629 49 2 630 69 18 631 73 3 632 48 3 633 48 18 634 73 19 635 77 3 636 48 38 637 93 31 638 91 38 639 93 3 640 48 19 641 77 37 642 53 2 643 69 28 644 20 2 645 69 37 646 53 18 647 73 31 648 91 38 649 93 30 650 15 30 651 15 38 652 93 39 653 3 14 654 95 36 655 49 29 656 22 36 657 49 14 658 95 6 659 97 122 660 186 121 661 184 113 662 168 121 663 184 112 664 166 113 665 168 123 666 188 113 667 168 114 668 170 113 669 168 123 670 188 122 671 186 124 672 190 114 673 267 115 674 172 114 675 267 124 676 190 123 677 266 125 678 192 115 679 172 116 680 174 115 681 172 125 682 192 124 683 190 126 684 194 125 685 192 117 686 176 125 687 192 116 688 174 117 689 176 127 690 196 126 691 194 118 692 178 126 693 194 117 694 176 118 695 178 128 696 198 127 697 196 119 698 180 127 699 196 118 700 178 119 701 180 129 702 200 128 703 198 120 704 182 128 705 198 119 706 180 120 707 182 121 708 184 129 709 200 112 710 166 129 711 200 120 712 182 112 713 166 121 714 211 131 715 215 130 716 217 131 717 215 121 718 211 122 719 213 132 720 221 131 721 215 122 722 213 122 723 213 123 724 219 132 725 221 133 726 225 123 727 219 124 728 223 123 729 219 133 730 225 132 731 221 124 732 223 134 733 248 133 734 225 134 735 248 124 736 223 125 737 227 135 738 250 134 739 248 125 740 227 125 741 227 126 742 249 135 743 250 127 744 251 135 745 250 126 746 249 135 747 250 127 748 251 136 749 252 136 750 252 128 751 253 137 752 254 128 753 253 136 754 252 127 755 251 137 756 254 129 757 255 138 758 256 129 759 255 137 760 254 128 761 253 121 762 211 138 763 256 129 764 255 138 765 256 121 766 211 130 767 217 167 768 257 168 769 258 139 770 229 168 771 258 169 772 259 139 773 229 169 774 259 170 775 260 139 776 229 170 777 260 171 778 261 139 779 229 171 780 261 172 781 262 139 782 229 172 783 262 173 784 263 139 785 229 173 786 263 174 787 264 139 788 229 174 789 264 175 790 265 139 791 229 175 792 265 167 793 257 139 794 229 141 795 171 140 796 173 130 797 167 141 798 171 130 799 167 131 800 169 142 801 177 141 802 171 131 803 169 142 804 177 131 805 169 132 806 175 143 807 181 142 808 177 132 809 175 143 810 181 132 811 175 133 812 179 144 813 185 143 814 181 133 815 179 144 816 185 133 817 179 134 818 183 144 819 269 135 820 187 145 821 189 135 822 187 144 823 269 134 824 268 146 825 193 145 826 189 135 827 187 146 828 193 135 829 187 136 830 191 146 831 193 137 832 195 147 833 197 137 834 195 146 835 193 136 836 191 147 837 197 138 838 199 148 839 201 138 840 199 147 841 197 137 842 195 148 843 201 130 844 167 140 845 173 130 846 167 148 847 201 138 848 199 186 849 277 185 850 276 140 851 173 186 852 277 140 853 173 141 854 171 186 855 277 142 856 177 187 857 278 142 858 177 186 859 277 141 860 171 187 861 278 143 862 181 152 863 205 143 864 181 187 865 278 142 866 177 152 867 205 144 868 185 153 869 206 144 870 185 152 871 205 143 872 181 145 873 189 153 874 270 144 875 269 153 876 270 145 877 189 154 878 207 154 879 207 145 880 189 155 881 208 145 882 189 146 883 193 155 884 208 188 885 279 155 886 208 146 887 193 146 888 193 147 889 197 188 890 279 189 891 280 188 892 279 147 893 197 147 894 197 148 895 201 189 896 280 189 897 280 140 898 173 185 899 276 140 900 173 189 901 280 148 902 201 190 903 281 150 904 202 191 905 282 150 906 202 190 907 281 149 908 203 151 909 204 191 910 282 150 911 202 191 912 282 151 913 204 192 914 283 151 915 204 152 916 205 192 917 283 162 918 220 152 919 205 153 920 206 152 921 205 162 922 220 161 923 218 154 924 207 162 925 271 153 926 270 162 927 271 154 928 207 163 929 222 155 930 208 163 931 222 154 932 207 163 933 222 155 934 208 164 935 224 193 936 284 164 937 224 155 938 208 164 939 224 193 940 284 165 941 226 156 942 209 157 943 210 194 944 285 156 945 209 194 946 285 193 947 284 190 948 281 157 949 210 149 950 203 157 951 210 190 952 281 194 953 285 195 954 286 159 955 212 196 956 287 159 957 212 195 958 286 158 959 214 160 960 216 196 961 287 159 962 212 196 963 287 160 964 216 197 965 288 160 966 216 161 967 218 197 968 288 162 969 220 179 970 233 161 971 218 179 972 233 162 973 220 180 974 234 181 975 235 162 976 271 163 977 222 162 978 271 181 979 235 180 980 272 164 981 224 182 982 236 163 983 222 163 984 222 182 985 236 181 986 235 164 987 224 183 988 237 182 989 236 183 990 237 164 991 224 198 992 289 166 993 228 199 994 290 165 995 226 165 996 226 199 997 290 198 998 289 195 999 286 166 1000 228 158 1001 214 166 1002 228 195 1003 286 199 1004 290 168 1005 240 176 1006 231 177 1007 230 176 1008 231 168 1009 240 167 1010 239 178 1011 232 169 1012 241 168 1013 240 168 1014 240 177 1015 230 178 1016 232 179 1017 233 170 1018 242 169 1019 241 169 1020 241 178 1021 232 179 1022 233 170 1023 242 179 1024 233 180 1025 234 170 1026 242 180 1027 234 171 1028 243 172 1029 244 180 1030 272 181 1031 235 180 1032 272 172 1033 244 171 1034 273 173 1035 245 181 1036 235 182 1037 236 181 1038 235 173 1039 245 172 1040 244 174 1041 246 182 1042 236 183 1043 237 182 1044 236 174 1045 246 173 1046 245 175 1047 247 183 1048 237 184 1049 238 183 1050 237 175 1051 247 174 1052 246 176 1053 231 167 1054 239 175 1055 247 176 1056 231 175 1057 247 184 1058 238 185 1059 276 150 1060 202 149 1061 203 150 1062 202 185 1063 276 186 1064 277 151 1065 204 150 1066 202 187 1067 278 187 1068 278 150 1069 202 186 1070 277 188 1071 279 157 1072 210 156 1073 209 157 1074 210 188 1075 279 189 1076 280 157 1077 210 185 1078 276 149 1079 203 185 1080 276 157 1081 210 189 1082 280 158 1083 214 191 1084 282 159 1085 212 191 1086 282 158 1087 214 190 1088 281 191 1089 282 192 1090 283 159 1091 212 192 1092 283 160 1093 216 159 1094 212 193 1095 284 166 1096 228 165 1097 226 166 1098 228 193 1099 284 194 1100 285 158 1101 214 194 1102 285 190 1103 281 194 1104 285 158 1105 214 166 1106 228 152 1107 205 151 1108 204 187 1109 278 161 1110 218 192 1111 283 152 1112 205 192 1113 283 161 1114 218 160 1115 216 188 1116 279 156 1117 209 155 1118 208 155 1119 208 156 1120 209 193 1121 284 176 1122 231 196 1123 287 177 1124 230 196 1125 287 176 1126 231 195 1127 286 177 1128 230 196 1129 287 197 1130 288 177 1131 230 197 1132 288 178 1133 232 184 1134 238 198 1135 289 199 1136 290 198 1137 289 184 1138 238 183 1139 237 176 1140 231 184 1141 238 195 1142 286 195 1143 286 184 1144 238 199 1145 290 161 1146 218 178 1147 232 197 1148 288 178 1149 232 161 1150 218 179 1151 233 164 1152 224 165 1153 226 198 1154 289</p></triangles>
      </mesh>
    </geometry>
  </library_geometries>
  <library_visual_scenes>
    <visual_scene id="" name="">
      <node name="acetone" id="acetone" sid="acetone"><matrix sid="matrix">1.000000 0.000000 0.000000 0.000000 0.000000 0.000000 1.000000 4.055131 0.000000 -1.000000 0.000000 0.000000 0.000000 0.000000 0.000000 1.000000</matrix><instance_geometry url="#acetone-lib"><bind_material><technique_common><instance_material symbol="acetone" target="#acetone"/></technique_common></bind_material></instance_geometry><extra><technique profile="FCOLLADA"><visibility>1.000000</visibility></technique></extra></node>
      <extra><technique profile="MAX3D"><frame_rate>30.000000</frame_rate></technique><technique profile="FCOLLADA"><start_time>0.000000</start_time><end_time>3.333333</end_time></technique></extra>
    </visual_scene>
  </library_visual_scenes>
  <scene>
    <instance_visual_scene url="#"></instance_visual_scene>
  </scene>
</COLLADA>
