<?xml version="1.0" encoding="utf-8"?>
<COLLADA xmlns="http://www.collada.org/2005/11/COLLADASchema" version="1.4.1">
  <asset><contributor><author></author><authoring_tool>FBX COLLADA exporter</authoring_tool><comments></comments></contributor><created>2014-01-31T11:17:04Z</created><keywords></keywords><modified>2014-01-31T11:17:04Z</modified><revision></revision><subject></subject><title></title><unit meter="1.000000" name="centimeter"></unit><up_axis>Y_UP</up_axis></asset>
  <library_images>
    <image id="Map #17-image" name="Map #17"><init_from>file://E:\FG_S\trunk\redist\entities\station\toilet\towel\towel.dds</init_from></image>
  </library_images>
  <library_materials>
    <material id="Material #80" name="Material #80">
      <instance_effect url="#Material #80-fx"/>
    </material>
  </library_materials>
  <library_effects>
    <effect id="Material #80-fx" name="Material #80">
      <profile_COMMON>
        <technique sid="standard">
          <phong>
            <emission>
              <color sid="emission">0.000000  0.000000 0.000000 1.000000</color>
            </emission>
            <ambient>
              <color sid="ambient">0.588000  0.588000 0.588000 1.000000</color>
            </ambient>
            <diffuse>
              <texture texture="Map #17-image" texcoord="CHANNEL0">
                <extra>
                  <technique profile="MAYA">
                    <wrapU sid="wrapU0">TRUE</wrapU>
                    <wrapV sid="wrapV0">TRUE</wrapV>
                    <blend_mode>ADD</blend_mode>
                  </technique>
                </extra>
              </texture>
            </diffuse>
            <specular>
              <color sid="specular">0.000000  0.000000 0.000000 1.000000</color>
            </specular>
            <shininess>
              <float sid="shininess">2.000000</float>
            </shininess>
            <reflective>
              <color sid="reflective">0.000000  0.000000 0.000000 1.000000</color>
            </reflective>
            <reflectivity>
              <float sid="reflectivity">1.000000</float>
            </reflectivity>
            <transparent opaque="RGB_ZERO">
              <color sid="transparent">1.000000  1.000000 1.000000 1.000000</color>
            </transparent>
            <transparency>
              <float sid="transparency">0.000000</float>
            </transparency>
          </phong>
        </technique>
      </profile_COMMON>
    </effect>
  </library_effects>
  <library_geometries>
    <geometry id="floor2-lib" name="floor2Mesh">
      <mesh>
        <source id="floor2-POSITION">
          <float_array id="floor2-POSITION-array" count="603">
5.423365 7.547952 0.932019
3.770431 15.320755 0.789058
2.089289 11.805858 0.842379
6.976611 11.877726 1.435858
7.630752 8.182775 1.146460
5.771491 16.845024 0.652666
-9.971556 12.873425 0.328880
-7.229027 14.190595 0.769353
-7.973588 11.049711 0.457158
-5.022034 15.469510 1.070343
-2.493557 12.681396 1.034023
-6.433474 12.282265 0.373700
5.898226 4.838655 1.618230
3.867411 8.526263 1.573023
3.507693 7.808371 4.177224
3.007337 3.475120 1.575728
5.422591 3.891637 1.765440
3.650652 6.577751 3.591859
3.933096 19.841402 0.202533
6.564351 10.657536 0.338926
3.405299 18.647488 1.644117
1.442104 19.401316 1.943562
2.537491 16.360891 1.578819
1.717208 23.423145 1.914970
-1.678293 25.533552 0.989203
2.412697 21.901581 3.014220
3.938900 20.725826 2.219437
4.860028 19.651688 1.177370
-1.565855 24.443960 1.374810
-0.397451 18.008415 0.924291
-12.053368 21.604067 0.319607
-4.489211 24.754995 0.844697
-4.176246 24.991461 0.233057
2.362470 7.685889 4.183405
-2.116446 7.968333 2.847304
-0.332145 7.234598 1.413062
0.337444 9.242227 3.693091
-6.922626 18.749493 0.631415
-5.813337 13.055798 2.289372
-0.953064 15.152680 0.609005
-3.412754 23.498877 0.631415
9.439782 -5.842820 0.772058
8.384583 -2.618092 1.532067
8.900396 -11.308164 1.557182
5.630083 -2.450789 0.362881
7.589796 -9.901355 0.383359
3.072628 -0.281266 2.528541
2.869392 1.659907 1.299466
3.542853 -6.261269 0.851265
8.964155 -10.800460 1.078071
2.237665 6.066570 0.874835
2.695142 -1.120483 0.628324
-7.766482 -4.218864 0.621756
3.588832 -11.895846 0.617892
-6.933839 9.429622 0.648030
-0.254871 4.268358 0.601664
-0.153251 3.152493 0.369450
-4.093559 -2.730529 0.353994
-7.980153 7.352056 0.112507
-7.486356 -3.551973 0.370222
-8.906689 -4.540332 0.238853
-2.874525 -11.070154 0.665417
-5.121717 -12.405097 1.334241
-9.188361 -5.887252 0.606687
-6.970932 -10.415239 1.082321
2.664226 -23.033249 0.401133
6.545418 -19.809683 0.563412
5.822879 -25.857302 0.387609
7.046932 -0.544004 0.175873
0.805746 14.775575 0.102075
2.828049 -22.699802 0.705214
5.457752 -19.463099 1.226827
3.297895 -20.408569 1.557568
-1.764068 -21.067347 2.259620
-2.350984 -19.379639 1.386015
-3.087035 -22.395721 1.410744
0.580095 -2.881603 0.376791
-4.403436 -17.822918 1.428517
5.787343 -6.483051 1.100867
4.276207 -13.417799 0.763557
1.815740 -15.487248 0.675849
4.788543 -17.111206 0.613255
-6.108523 9.227930 1.702074
-10.282977 12.936019 1.427358
-7.656371 10.054399 0.928541
-2.753977 -11.136610 0.399974
5.122766 -12.838228 0.417747
-0.794256 -13.585873 1.213690
9.043743 -17.039724 0.413497
-12.101281 14.360214 0.750420
-13.044434 16.596970 0.835424
-8.862642 17.774654 0.437452
-11.811880 15.278254 0.195965
10.170045 -28.461889 0.603596
5.336042 -21.321972 0.661553
5.904792 -25.530035 0.695554
-8.983586 15.815707 0.194806
-1.210396 14.590498 0.408088
7.161301 -14.292563 0.979544
8.134598 -17.052086 1.246146
7.334402 -22.706371 0.694009
6.319377 -24.015041 1.124050
7.734306 -29.756649 0.576936
-9.645837 17.520031 0.889131
-14.133644 18.035849 2.105841
5.384346 2.319458 3.404077
4.905233 -3.257551 2.698935
4.133627 -8.912221 1.194371
6.144357 -0.292085 2.403354
-2.208021 -13.595532 0.821514
-4.272066 -14.548731 0.092415
-6.359291 -9.155253 0.191715
6.733579 5.725783 2.841122
6.757534 10.112353 1.986836
5.239062 17.456665 1.108595
-1.109551 -14.877543 0.021708
1.611723 -15.454021 0.423929
-3.057284 8.776640 2.671115
8.181730 -2.406356 0.612096
7.096002 4.533028 0.689372
-3.913121 -18.060926 2.132888
3.120924 -17.690392 0.707918
1.088566 -19.097198 1.676187
-6.200481 18.827152 0.376018
-1.164023 20.826283 0.342789
9.070026 -14.880631 0.993067
9.241960 -13.354818 0.525547
-0.300463 11.261837 2.713617
-1.800397 12.483954 1.452086
2.473740 10.014602 1.269715
1.577724 14.362147 1.568387
-0.002572 12.489752 2.048657
0.925513 -13.400410 1.180461
-2.726547 -13.909271 2.258848
-4.398801 -13.986547 1.487633
-4.963682 -15.021662 0.701736
2.658817 9.377072 0.130667
1.733827 2.984804 0.694395
5.423752 -15.325741 1.191280
-6.969773 -7.267015 0.623301
-11.555718 20.338673 0.661939
7.361832 7.040248 2.514631
6.114605 1.626678 3.211273
-12.309153 18.616190 0.980703
-1.568184 25.109306 0.377564
-3.352868 -18.082951 0.938587
3.185457 -18.022676 0.498887
7.120731 -0.316040 1.661891
2.253116 7.860147 2.373216
0.258235 6.262464 0.911927
-4.418887 7.955968 0.808764
-1.158614 -17.079905 0.811855
1.088960 -16.557522 0.328880
2.170432 -19.399347 0.127576
-1.113409 -21.150419 0.240785
2.651473 22.042608 1.492270
-1.237819 -15.557186 1.454404
-0.299309 19.732443 0.150758
2.571494 21.177502 0.974134
5.740970 -18.549309 0.675462
3.104697 -20.081692 1.446291
-0.698440 -18.229385 2.293622
-8.166780 7.654979 0.558389
-1.069744 -22.067686 0.625620
-0.059366 -21.967226 0.868266
0.217286 -20.288019 1.785532
1.781733 -21.046873 1.049092
0.827759 -25.130520 0.429339
0.318511 25.599237 0.104007
2.535954 22.527128 0.323470
5.930682 -17.971285 1.670004
1.654622 25.495300 0.889131
2.253890 25.117033 0.168532
3.649108 24.056808 1.207894
9.869829 -18.344528 1.063774
9.989990 -28.817743 1.173120
8.422057 -19.736269 0.876380
-14.844188 20.059319 1.471792
-15.248346 20.116505 2.421900
-14.265004 17.050192 1.545204
7.207287 -29.876040 0.140713
-16.711958 19.227058 0.761239
6.035003 -28.695263 0.778240
-12.285972 21.270237 0.915018
2.226464 3.205813 0.980316
0.753189 8.251549 0.745011
-0.852218 10.129356 0.442862
-3.152338 -21.207605 0.703668
0.299578 -24.943127 0.828469
-0.358808 -0.786651 0.755830
-1.694521 -20.346363 2.753801
4.340728 1.148726 0.352449
3.819509 -1.819444 2.910285
-8.846031 -4.249002 0.844311
-6.652169 -11.582492 0.613255
1.014390 11.963501 -0.084547
7.035733 -19.969255 1.543658
-16.008743 18.942295 0.217602
-14.087662 18.008802 0.311879
-7.983241 6.205281 0.858220
-1.612612 -18.927576 0.343562
</float_array>
          <technique_common>
            <accessor source="#floor2-POSITION-array" count="201" stride="3">
              <param name="X" type="float"/>
              <param name="Y" type="float"/>
              <param name="Z" type="float"/>
            </accessor>
          </technique_common>
        </source>
        <source id="floor2-Normal0">
          <float_array id="floor2-Normal0-array" count="3582">
-0.120550 0.203648 0.971594
0.119016 -0.112216 0.986531
0.332447 0.080635 0.939669
0.899520 0.240854 0.364489
0.957669 0.047398 -0.283943
0.914701 0.278451 -0.292895
-0.234430 -0.324843 -0.916253
0.106561 0.059718 -0.992511
-0.302410 -0.139992 -0.942842
-0.037407 -0.087243 -0.995484
-0.080169 0.070803 -0.994264
-0.013731 0.125113 -0.992047
-0.314180 0.329351 0.890404
0.684548 0.605829 0.405419
0.483810 0.249308 0.838912
-0.409933 -0.183708 0.893424
-0.450707 0.156355 0.878872
-0.125530 -0.530595 0.838279
0.368389 0.448420 -0.814377
0.914701 0.278451 -0.292895
0.484259 0.074445 -0.871752
0.090554 -0.274567 0.957295
-0.178358 -0.274553 0.944886
0.119289 -0.127311 0.984663
0.302297 0.472368 0.827940
-0.164164 0.924434 0.344198
0.278563 0.268689 0.922068
0.368389 0.448420 -0.814377
0.772925 0.414626 0.480283
0.887720 0.459857 -0.022003
-0.250257 0.106501 0.962304
-0.285723 -0.116963 0.951148
0.278563 0.268689 0.922068
-0.429250 0.644880 -0.632356
-0.272752 0.565903 0.778049
-0.208762 0.696485 -0.686532
-0.222361 -0.467886 0.855358
-0.308246 -0.536725 0.785436
-0.146227 -0.792231 0.592442
-0.048947 0.360389 0.931517
-0.308246 -0.536725 0.785436
-0.222361 -0.467886 0.855358
0.016474 0.093361 0.995496
-0.028611 0.130735 0.991004
-0.091193 0.179666 0.979492
-0.091193 0.179666 0.979492
-0.133357 -0.153389 0.979126
0.016474 0.093361 0.995496
0.954374 0.068554 -0.290637
0.527647 0.094997 0.844135
0.536461 -0.016557 0.843763
0.024218 -0.030302 -0.999247
0.954374 0.068554 -0.290637
0.185645 0.000223 -0.982617
-0.823766 0.030956 0.566085
-0.680878 0.049504 0.730722
-0.754770 -0.105734 0.647413
0.901593 0.038770 -0.430844
0.185645 0.000223 -0.982617
0.954374 0.068554 -0.290637
-0.409933 -0.183708 0.893424
-0.125530 -0.530595 0.838279
-0.444125 -0.269318 0.854530
-0.411606 -0.082701 0.907602
0.121939 0.046239 0.991460
-0.102202 0.047910 0.993609
-0.246825 -0.515982 0.820268
0.121939 0.046239 0.991460
-0.096645 -0.046589 0.994228
-0.013731 0.125113 -0.992047
0.103083 -0.025314 -0.994351
0.006757 -0.012430 -0.999900
-0.442330 0.033265 -0.896235
0.051995 -0.022429 -0.998396
-0.468003 -0.019840 -0.883504
-0.102202 0.047910 0.993609
0.121939 0.046239 0.991460
0.080110 0.223349 0.971441
-0.036083 0.151978 0.987725
-0.923022 -0.382960 -0.037043
-0.880293 -0.093617 0.465101
-0.031640 0.130503 -0.990943
-0.128794 0.052335 -0.990289
-0.569650 -0.568112 -0.593926
0.368389 0.448420 -0.814377
0.203492 -0.007832 -0.979045
-0.051942 0.014857 -0.998540
0.368389 0.448420 -0.814377
0.484259 0.074445 -0.871752
0.203492 -0.007832 -0.979045
0.057885 -0.141845 0.988195
-0.270946 -0.043978 0.961589
0.164309 -0.182004 0.969473
-0.098536 -0.594329 0.798163
-0.758880 -0.088467 -0.645194
-0.688484 -0.693968 0.210709
0.051995 -0.022429 -0.998396
-0.005680 0.019173 -0.999800
0.185645 0.000223 -0.982617
-0.098536 -0.594329 0.798163
-0.913195 -0.319967 -0.252383
-0.758880 -0.088467 -0.645194
0.527647 0.094997 0.844135
0.059068 -0.075700 0.995380
0.536461 -0.016557 0.843763
-0.236761 -0.053667 0.970085
0.177708 0.014833 0.983971
-0.324482 0.054349 0.944329
-0.454418 -0.576480 0.679098
-0.436168 -0.370891 0.819877
-0.652809 -0.442858 0.614587
-0.028611 0.130735 0.991004
0.016474 0.093361 0.995496
-0.436168 -0.370891 0.819877
0.075219 -0.039510 -0.996384
-0.020074 -0.009329 -0.999755
0.086913 0.144449 -0.985688
-0.128794 0.052335 -0.990289
0.137463 -0.001173 -0.990506
-0.569650 -0.568112 -0.593926
-0.652809 -0.442858 0.614587
-0.728675 -0.620132 -0.290636
-0.234430 -0.324843 -0.916253
-0.292027 -0.085719 -0.952561
0.004943 -0.007054 -0.999963
-0.316439 -0.059677 -0.946734
-0.569650 -0.568112 -0.593926
0.137463 -0.001173 -0.990506
0.805034 -0.262674 -0.531905
-0.297733 -0.188548 0.935844
0.057885 -0.141845 0.988195
-0.508039 -0.218996 0.833029
0.004943 -0.007054 -0.999963
0.106561 0.059718 -0.992511
0.172612 0.039402 -0.984201
-0.037407 -0.087243 -0.995484
-0.186633 -0.073596 -0.979669
-0.080169 0.070803 -0.994264
0.536461 -0.016557 0.843763
-0.091392 0.019877 0.995617
0.262811 0.002131 0.964845
0.257241 -0.098468 0.961317
-0.115894 -0.067009 0.990999
0.162357 -0.823726 0.543246
-0.436168 -0.370891 0.819877
-0.728675 -0.620132 -0.290636
-0.652809 -0.442858 0.614587
0.133678 0.125259 0.983077
-0.122842 -0.159283 0.979561
-0.436168 -0.370891 0.819877
-0.255129 0.237669 0.937242
-0.450707 0.156355 0.878872
-0.680878 0.049504 0.730722
0.363124 -0.263869 0.893596
-0.392986 -0.087279 0.915393
0.724438 -0.164942 0.669316
0.177341 0.044159 -0.983158
-0.913195 -0.319967 -0.252383
-0.019134 -0.257436 -0.966106
-0.159044 0.025091 -0.986953
-0.880293 -0.093617 0.465101
-0.923022 -0.382960 -0.037043
-0.255129 0.237669 0.937242
-0.249198 0.161128 0.954955
-0.450707 0.156355 0.878872
-0.114322 0.139255 0.983635
0.448811 -0.013192 0.893529
-0.120550 0.203648 0.971594
0.177341 0.044159 -0.983158
-0.053782 0.218232 -0.974414
-0.913195 -0.319967 -0.252383
0.086913 0.144449 -0.985688
-0.020074 -0.009329 -0.999755
0.024701 0.125285 -0.991813
-0.091193 0.179666 0.979492
-0.028611 0.130735 0.991004
-0.124960 0.039921 0.991358
-0.028611 0.130735 0.991004
-0.436168 -0.370891 0.819877
-0.454418 -0.576480 0.679098
0.203878 -0.000802 -0.978996
0.971837 -0.031271 -0.233569
0.954374 0.068554 -0.290637
0.971837 -0.031271 -0.233569
0.527647 0.094997 0.844135
0.954374 0.068554 -0.290637
-0.913195 -0.319967 -0.252383
-0.098536 -0.594329 0.798163
-0.554703 -0.178177 0.812747
0.128182 0.231499 0.964353
0.177708 0.014833 0.983971
0.255234 0.111352 0.960446
-0.008057 -0.077009 -0.996998
-0.000784 0.011275 -0.999936
-0.186633 -0.073596 -0.979669
-0.008057 -0.077009 -0.996998
-0.186633 -0.073596 -0.979669
-0.037407 -0.087243 -0.995484
0.536461 -0.016557 0.843763
0.570427 0.018807 0.821133
0.849103 0.054057 -0.525454
0.536461 -0.016557 0.843763
0.262811 0.002131 0.964845
0.570427 0.018807 0.821133
0.007905 0.416863 0.908935
0.107346 0.268788 0.957199
-0.308246 -0.536725 0.785436
-0.048947 0.360389 0.931517
0.483810 0.249308 0.838912
0.472495 0.489166 0.733120
0.185645 0.000223 -0.982617
-0.020074 -0.009329 -0.999755
0.075219 -0.039510 -0.996384
0.849103 0.054057 -0.525454
0.185645 0.000223 -0.982617
0.901593 0.038770 -0.430844
-0.285723 -0.116963 0.951148
0.119289 -0.127311 0.984663
-0.178358 -0.274553 0.944886
0.096947 0.026298 0.994942
-0.091193 0.179666 0.979492
0.085847 0.331149 0.939665
0.152526 0.089606 0.984229
0.080110 0.223349 0.971441
0.018752 0.155329 0.987685
-0.554703 -0.178177 0.812747
-0.515790 -0.099594 0.850907
-0.932030 -0.315627 -0.178042
-0.079926 -0.066622 -0.994572
0.203492 -0.007832 -0.979045
-0.012849 -0.010307 -0.999864
-0.012849 -0.010307 -0.999864
-0.005680 0.019173 -0.999800
0.006757 -0.012430 -0.999900
0.096947 0.026298 0.994942
0.085847 0.331149 0.939665
0.332447 0.080635 0.939669
0.119289 -0.127311 0.984663
0.332447 0.080635 0.939669
0.090554 -0.274567 0.957295
-0.236761 -0.053667 0.970085
-0.324482 0.054349 0.944329
-0.240702 0.009493 0.970553
-0.297733 -0.188548 0.935844
-0.508039 -0.218996 0.833029
-0.115894 -0.067009 0.990999
0.036769 0.079164 -0.996183
0.075219 -0.039510 -0.996384
-0.159044 0.025091 -0.986953
0.075219 -0.039510 -0.996384
0.177341 0.044159 -0.983158
-0.019134 -0.257436 -0.966106
-0.133357 -0.153389 0.979126
0.209224 0.039732 0.977060
0.016474 0.093361 0.995496
0.016474 0.093361 0.995496
0.133678 0.125259 0.983077
-0.436168 -0.370891 0.819877
0.731511 0.048801 0.680081
0.724438 -0.164942 0.669316
0.971837 -0.031271 -0.233569
0.586748 -0.134945 0.798446
0.724438 -0.164942 0.669316
0.731511 0.048801 0.680081
-0.068832 0.015974 -0.997500
-0.429250 0.644880 -0.632356
0.004943 -0.007054 -0.999963
-0.429250 0.644880 -0.632356
-0.124016 0.426809 -0.895798
-0.008057 -0.077009 -0.996998
-0.296483 -0.314471 -0.901779
-0.913195 -0.319967 -0.252383
-0.053782 0.218232 -0.974414
0.024701 0.125285 -0.991813
0.137463 -0.001173 -0.990506
0.134669 -0.141348 -0.980758
0.463569 0.052554 0.884501
0.059068 -0.075700 0.995380
0.527647 0.094997 0.844135
0.527647 0.094997 0.844135
0.971837 -0.031271 -0.233569
0.463569 0.052554 0.884501
-0.444125 -0.269318 0.854530
-0.317389 -0.894276 0.315490
-0.146227 -0.792231 0.592442
-0.080245 -0.280593 0.956467
-0.320795 -0.616668 0.718896
-0.096645 -0.046589 0.994228
-0.083220 -0.160792 -0.983474
0.003445 -0.026116 -0.999653
0.390212 -0.237674 -0.889520
-0.083220 -0.160792 -0.983474
0.390212 -0.237674 -0.889520
-0.048390 -0.194641 -0.979680
0.302297 0.472368 0.827940
0.278563 0.268689 0.922068
0.926790 0.200594 0.317524
-0.008057 -0.077009 -0.996998
-0.124016 0.426809 -0.895798
-0.000784 0.011275 -0.999936
-0.246825 -0.515982 0.820268
-0.320795 -0.616668 0.718896
-0.454418 -0.576480 0.679098
-0.320795 -0.616668 0.718896
-0.246825 -0.515982 0.820268
-0.096645 -0.046589 0.994228
0.246802 0.033348 0.968492
0.152526 0.089606 0.984229
0.018752 0.155329 0.987685
-0.515790 -0.099594 0.850907
-0.554703 -0.178177 0.812747
0.018752 0.155329 0.987685
-0.053467 0.116065 -0.991802
0.368389 0.448420 -0.814377
-0.051942 0.014857 -0.998540
0.772925 0.414626 0.480283
0.368389 0.448420 -0.814377
0.511469 0.233712 -0.826909
0.134669 -0.141348 -0.980758
0.137463 -0.001173 -0.990506
-0.078520 -0.151346 -0.985357
-0.078520 -0.151346 -0.985357
0.097451 -0.066472 -0.993018
0.134669 -0.141348 -0.980758
0.018752 0.155329 0.987685
-0.554703 -0.178177 0.812747
0.246802 0.033348 0.968492
0.246802 0.033348 0.968492
-0.554703 -0.178177 0.812747
0.188085 0.202294 0.961094
0.106561 0.059718 -0.992511
-0.013731 0.125113 -0.992047
-0.302410 -0.139992 -0.942842
-0.923022 -0.382960 -0.037043
-0.909459 0.113379 0.400038
-0.442330 0.033265 -0.896235
-0.130155 -0.255654 -0.957967
-0.048390 -0.194641 -0.979680
0.390212 -0.237674 -0.889520
0.102383 -0.277405 0.955282
0.247829 -0.345612 0.905060
-0.688484 -0.693968 0.210709
0.278563 0.268689 0.922068
-0.285723 -0.116963 0.951148
-0.178358 -0.274553 0.944886
0.278563 0.268689 0.922068
-0.178358 -0.274553 0.944886
0.090554 -0.274567 0.957295
0.036769 0.079164 -0.996183
0.051995 -0.022429 -0.998396
0.075219 -0.039510 -0.996384
0.051995 -0.022429 -0.998396
0.185645 0.000223 -0.982617
0.075219 -0.039510 -0.996384
-0.031640 0.130503 -0.990943
0.097451 -0.066472 -0.993018
-0.128794 0.052335 -0.990289
0.237396 -0.057851 -0.969689
-0.130155 -0.255654 -0.957967
0.390212 -0.237674 -0.889520
-0.120550 0.203648 0.971594
-0.314180 0.329351 0.890404
-0.114322 0.139255 0.983635
0.684548 0.605829 0.405419
-0.314180 0.329351 0.890404
-0.120550 0.203648 0.971594
0.237396 -0.057851 -0.969689
-0.031640 0.130503 -0.990943
-0.130155 -0.255654 -0.957967
-0.031640 0.130503 -0.990943
-0.569650 -0.568112 -0.593926
-0.268662 -0.744886 -0.610709
-0.013396 0.717435 -0.696496
0.439814 -0.202805 -0.874891
-0.000784 0.011275 -0.999936
0.511469 0.233712 -0.826909
0.368389 0.448420 -0.814377
-0.053467 0.116065 -0.991802
0.007905 0.416863 0.908935
-0.308246 -0.536725 0.785436
-0.048947 0.360389 0.931517
-0.048947 0.360389 0.931517
0.472495 0.489166 0.733120
0.007905 0.416863 0.908935
0.128182 0.231499 0.964353
0.255234 0.111352 0.960446
-0.270946 -0.043978 0.961589
-0.324482 0.054349 0.944329
-0.270946 -0.043978 0.961589
-0.270430 0.040735 0.961877
0.957669 0.047398 -0.283943
0.731511 0.048801 0.680081
0.971837 -0.031271 -0.233569
0.484259 0.074445 -0.871752
0.971837 -0.031271 -0.233569
0.203492 -0.007832 -0.979045
-0.164164 0.924434 0.344198
0.255845 0.878949 0.402483
-0.013396 0.717435 -0.696496
0.460516 0.547817 -0.698442
0.942273 0.267915 0.200858
0.439814 -0.202805 -0.874891
0.861186 0.067563 0.503780
0.805034 -0.262674 -0.531905
0.849103 0.054057 -0.525454
0.522854 -0.589660 0.615568
0.119045 -0.066065 0.990688
0.162357 -0.823726 0.543246
-0.028611 0.130735 0.991004
-0.454418 -0.576480 0.679098
-0.124960 0.039921 0.991358
-0.308246 -0.536725 0.785436
-0.454418 -0.576480 0.679098
-0.320795 -0.616668 0.718896
0.302297 0.472368 0.827940
0.255845 0.878949 0.402483
-0.164164 0.924434 0.344198
0.942273 0.267915 0.200858
0.302297 0.472368 0.827940
0.926790 0.200594 0.317524
-0.754770 -0.105734 0.647413
-0.411606 -0.082701 0.907602
-0.102202 0.047910 0.993609
-0.392986 -0.087279 0.915393
-0.236761 -0.053667 0.970085
-0.240702 0.009493 0.970553
-0.293643 0.739070 -0.606259
-0.401689 0.497078 0.769129
-0.429250 0.644880 -0.632356
-0.673381 -0.686365 0.274702
-0.436168 -0.370891 0.819877
-0.122842 -0.159283 0.979561
0.805034 -0.262674 -0.531905
0.861186 0.067563 0.503780
0.522854 -0.589660 0.615568
0.805034 -0.262674 -0.531905
0.522854 -0.589660 0.615568
-0.282711 -0.822378 -0.493731
-0.976520 0.140421 -0.163372
-0.673381 -0.686365 0.274702
-0.122842 -0.159283 0.979561
-0.292027 -0.085719 -0.952561
-0.068832 0.015974 -0.997500
0.004943 -0.007054 -0.999963
0.080110 0.223349 0.971441
-0.036083 0.151978 0.987725
0.018752 0.155329 0.987685
0.080110 0.223349 0.971441
0.121939 0.046239 0.991460
-0.036083 0.151978 0.987725
-0.164164 0.924434 0.344198
-0.013396 0.717435 -0.696496
-0.124016 0.426809 -0.895798
-0.000784 0.011275 -0.999936
-0.124016 0.426809 -0.895798
-0.013396 0.717435 -0.696496
-0.508039 -0.218996 0.833029
-0.893114 -0.355993 0.274985
-0.115894 -0.067009 0.990999
-0.569650 -0.568112 -0.593926
0.805034 -0.262674 -0.531905
-0.282711 -0.822378 -0.493731
-0.272752 0.565903 0.778049
-0.429250 0.644880 -0.632356
0.046987 0.555292 0.830327
-0.429250 0.644880 -0.632356
-0.401689 0.497078 0.769129
0.046987 0.555292 0.830327
-0.357136 -0.027484 0.933648
-0.411606 -0.082701 0.907602
-0.680878 0.049504 0.730722
-0.754770 -0.105734 0.647413
-0.680878 0.049504 0.730722
-0.411606 -0.082701 0.907602
-0.053782 0.218232 -0.974414
0.086913 0.144449 -0.985688
0.024701 0.125285 -0.991813
-0.053782 0.218232 -0.974414
0.003445 -0.026116 -0.999653
-0.083220 -0.160792 -0.983474
-0.012849 -0.010307 -0.999864
-0.023699 -0.068394 -0.997377
-0.079926 -0.066622 -0.994572
-0.013731 0.125113 -0.992047
-0.061657 -0.008353 -0.998062
0.103083 -0.025314 -0.994351
-0.091392 0.019877 0.995617
-0.392986 -0.087279 0.915393
-0.240702 0.009493 0.970553
0.536461 -0.016557 0.843763
0.059068 -0.075700 0.995380
-0.091392 0.019877 0.995617
-0.880116 -0.026797 -0.474002
-0.688484 -0.693968 0.210709
-0.758880 -0.088467 -0.645194
-0.130155 -0.255654 -0.957967
-0.688484 -0.693968 0.210709
-0.880116 -0.026797 -0.474002
-0.061657 -0.008353 -0.998062
-0.012849 -0.010307 -0.999864
0.103083 -0.025314 -0.994351
0.006757 -0.012430 -0.999900
0.103083 -0.025314 -0.994351
-0.012849 -0.010307 -0.999864
0.899520 0.240854 0.364489
0.914701 0.278451 -0.292895
0.448811 -0.013192 0.893529
0.887720 0.459857 -0.022003
0.772925 0.414626 0.480283
0.448811 -0.013192 0.893529
0.059068 -0.075700 0.995380
0.463569 0.052554 0.884501
-0.392986 -0.087279 0.915393
0.059068 -0.075700 0.995380
-0.392986 -0.087279 0.915393
-0.091392 0.019877 0.995617
-0.688484 -0.693968 0.210709
0.247829 -0.345612 0.905060
-0.098536 -0.594329 0.798163
0.255234 0.111352 0.960446
0.177708 0.014833 0.983971
0.188085 0.202294 0.961094
-0.302410 -0.139992 -0.942842
-0.013731 0.125113 -0.992047
-0.442330 0.033265 -0.896235
-0.442330 0.033265 -0.896235
-0.013731 0.125113 -0.992047
0.051995 -0.022429 -0.998396
0.102383 -0.277405 0.955282
0.057885 -0.141845 0.988195
0.247829 -0.345612 0.905060
0.057885 -0.141845 0.988195
-0.640389 -0.658290 0.395673
-0.508039 -0.218996 0.833029
0.472495 0.489166 0.733120
0.332447 0.080635 0.939669
0.085847 0.331149 0.939665
-0.120550 0.203648 0.971594
0.332447 0.080635 0.939669
0.472495 0.489166 0.733120
-0.004376 -0.043735 0.999034
0.121939 0.046239 0.991460
-0.411606 -0.082701 0.907602
-0.004376 -0.043735 0.999034
-0.411606 -0.082701 0.907602
-0.357136 -0.027484 0.933648
-0.098536 -0.594329 0.798163
-0.063532 -0.289682 0.955012
-0.554703 -0.178177 0.812747
-0.098536 -0.594329 0.798163
0.247829 -0.345612 0.905060
-0.063532 -0.289682 0.955012
0.024218 -0.030302 -0.999247
0.203878 -0.000802 -0.978996
0.954374 0.068554 -0.290637
-0.012849 -0.010307 -0.999864
0.144685 0.332585 -0.931909
-0.005680 0.019173 -0.999800
-0.096645 -0.046589 0.994228
0.121939 0.046239 0.991460
-0.004376 -0.043735 0.999034
-0.357136 -0.027484 0.933648
-0.096645 -0.046589 0.994228
-0.004376 -0.043735 0.999034
-0.823766 0.030956 0.566085
-0.255129 0.237669 0.937242
-0.680878 0.049504 0.730722
-0.389106 -0.152463 0.908489
-0.392986 -0.087279 0.915393
0.363124 -0.263869 0.893596
-0.020074 -0.009329 -0.999755
0.185645 0.000223 -0.982617
0.137463 -0.001173 -0.990506
-0.020074 -0.009329 -0.999755
0.137463 -0.001173 -0.990506
0.024701 0.125285 -0.991813
0.363124 -0.263869 0.893596
-0.255129 0.237669 0.937242
-0.389106 -0.152463 0.908489
0.363124 -0.263869 0.893596
0.724438 -0.164942 0.669316
0.586748 -0.134945 0.798446
-0.336592 0.049120 0.940369
-0.909459 0.113379 0.400038
-0.923022 -0.382960 -0.037043
-0.336592 0.049120 0.940369
-0.923022 -0.382960 -0.037043
-0.036083 0.151978 0.987725
0.016474 0.093361 0.995496
0.209224 0.039732 0.977060
0.133678 0.125259 0.983077
0.209224 0.039732 0.977060
-0.122842 -0.159283 0.979561
0.133678 0.125259 0.983077
0.003445 -0.026116 -0.999653
0.134669 -0.141348 -0.980758
0.390212 -0.237674 -0.889520
0.237396 -0.057851 -0.969689
0.390212 -0.237674 -0.889520
0.134669 -0.141348 -0.980758
-0.159044 0.025091 -0.986953
-0.019134 -0.257436 -0.966106
-0.868083 -0.329099 -0.371653
-0.159044 0.025091 -0.986953
0.075219 -0.039510 -0.996384
-0.019134 -0.257436 -0.966106
-0.013731 0.125113 -0.992047
-0.080169 0.070803 -0.994264
-0.061657 -0.008353 -0.998062
-0.080169 0.070803 -0.994264
-0.013847 0.000484 -0.999904
-0.061657 -0.008353 -0.998062
0.257241 -0.098468 0.961317
0.225900 -0.111364 0.967764
-0.115894 -0.067009 0.990999
-0.270430 0.040735 0.961877
-0.270946 -0.043978 0.961589
-0.115894 -0.067009 0.990999
0.484259 0.074445 -0.871752
0.914701 0.278451 -0.292895
0.957669 0.047398 -0.283943
0.971837 -0.031271 -0.233569
0.484259 0.074445 -0.871752
0.957669 0.047398 -0.283943
-0.250257 0.106501 0.962304
-0.133357 -0.153389 0.979126
-0.285723 -0.116963 0.951148
-0.133357 -0.153389 0.979126
-0.272752 0.565903 0.778049
0.209224 0.039732 0.977060
0.731511 0.048801 0.680081
0.957669 0.047398 -0.283943
0.899520 0.240854 0.364489
-0.114322 0.139255 0.983635
-0.314180 0.329351 0.890404
-0.249198 0.161128 0.954955
0.225900 -0.111364 0.967764
-0.270430 0.040735 0.961877
-0.115894 -0.067009 0.990999
0.262811 0.002131 0.964845
-0.091392 0.019877 0.995617
-0.240702 0.009493 0.970553
0.511469 0.233712 -0.826909
0.439814 -0.202805 -0.874891
0.942273 0.267915 0.200858
0.439814 -0.202805 -0.874891
0.511469 0.233712 -0.826909
-0.000784 0.011275 -0.999936
-0.292027 -0.085719 -0.952561
-0.376024 -0.010915 -0.926546
0.085064 -0.002930 -0.996371
-0.401689 0.497078 0.769129
-0.293643 0.739070 -0.606259
-0.976520 0.140421 -0.163372
-0.913195 -0.319967 -0.252383
-0.932030 -0.315627 -0.178042
-0.019134 -0.257436 -0.966106
-0.932030 -0.315627 -0.178042
-0.913195 -0.319967 -0.252383
-0.554703 -0.178177 0.812747
-0.293643 0.739070 -0.606259
-0.429250 0.644880 -0.632356
-0.068832 0.015974 -0.997500
-0.376024 -0.010915 -0.926546
-0.293643 0.739070 -0.606259
0.085064 -0.002930 -0.996371
-0.285723 -0.116963 0.951148
-0.133357 -0.153389 0.979126
-0.091193 0.179666 0.979492
0.119289 -0.127311 0.984663
-0.285723 -0.116963 0.951148
-0.091193 0.179666 0.979492
-0.429250 0.644880 -0.632356
-0.008057 -0.077009 -0.996998
0.004943 -0.007054 -0.999963
0.004943 -0.007054 -0.999963
-0.008057 -0.077009 -0.996998
-0.037407 -0.087243 -0.995484
0.861186 0.067563 0.503780
0.570427 0.018807 0.821133
0.522854 -0.589660 0.615568
0.861186 0.067563 0.503780
0.849103 0.054057 -0.525454
0.570427 0.018807 0.821133
0.460516 0.547817 -0.698442
0.255845 0.878949 0.402483
0.942273 0.267915 0.200858
0.255845 0.878949 0.402483
0.302297 0.472368 0.827940
0.942273 0.267915 0.200858
-0.673381 -0.686365 0.274702
-0.976520 0.140421 -0.163372
-0.292027 -0.085719 -0.952561
-0.673381 -0.686365 0.274702
-0.292027 -0.085719 -0.952561
-0.316439 -0.059677 -0.946734
0.086913 0.144449 -0.985688
-0.053782 0.218232 -0.974414
0.177341 0.044159 -0.983158
0.177341 0.044159 -0.983158
0.075219 -0.039510 -0.996384
0.086913 0.144449 -0.985688
0.188085 0.202294 0.961094
0.177708 0.014833 0.983971
0.246802 0.033348 0.968492
0.152526 0.089606 0.984229
0.246802 0.033348 0.968492
0.177708 0.014833 0.983971
-0.728675 -0.620132 -0.290636
-0.436168 -0.370891 0.819877
-0.673381 -0.686365 0.274702
-0.673381 -0.686365 0.274702
-0.316439 -0.059677 -0.946734
-0.728675 -0.620132 -0.290636
-0.357136 -0.027484 0.933648
-0.680878 0.049504 0.730722
-0.409933 -0.183708 0.893424
-0.409933 -0.183708 0.893424
-0.680878 0.049504 0.730722
-0.450707 0.156355 0.878872
-0.186633 -0.073596 -0.979669
-0.053467 0.116065 -0.991802
-0.051942 0.014857 -0.998540
-0.186633 -0.073596 -0.979669
-0.013847 0.000484 -0.999904
-0.080169 0.070803 -0.994264
-0.868083 -0.329099 -0.371653
-0.019134 -0.257436 -0.966106
-0.932030 -0.315627 -0.178042
-0.880293 -0.093617 0.465101
-0.932030 -0.315627 -0.178042
-0.515790 -0.099594 0.850907
-0.320795 -0.616668 0.718896
-0.080245 -0.280593 0.956467
-0.146227 -0.792231 0.592442
-0.308246 -0.536725 0.785436
-0.320795 -0.616668 0.718896
-0.146227 -0.792231 0.592442
0.522854 -0.589660 0.615568
0.570427 0.018807 0.821133
0.119045 -0.066065 0.990688
0.119045 -0.066065 0.990688
0.570427 0.018807 0.821133
0.262811 0.002131 0.964845
0.463569 0.052554 0.884501
0.971837 -0.031271 -0.233569
0.724438 -0.164942 0.669316
-0.392986 -0.087279 0.915393
0.463569 0.052554 0.884501
0.724438 -0.164942 0.669316
0.121939 0.046239 0.991460
-0.262859 0.034116 0.964231
-0.336592 0.049120 0.940369
0.121939 0.046239 0.991460
-0.336592 0.049120 0.940369
-0.036083 0.151978 0.987725
-0.508039 -0.218996 0.833029
-0.282711 -0.822378 -0.493731
-0.893114 -0.355993 0.274985
0.162357 -0.823726 0.543246
-0.115894 -0.067009 0.990999
-0.893114 -0.355993 0.274985
-0.444125 -0.269318 0.854530
-0.125530 -0.530595 0.838279
-0.317389 -0.894276 0.315490
-0.146227 -0.792231 0.592442
-0.317389 -0.894276 0.315490
-0.222361 -0.467886 0.855358
-0.282711 -0.822378 -0.493731
0.162357 -0.823726 0.543246
-0.893114 -0.355993 0.274985
-0.282711 -0.822378 -0.493731
0.522854 -0.589660 0.615568
0.162357 -0.823726 0.543246
-0.125530 -0.530595 0.838279
-0.222361 -0.467886 0.855358
-0.317389 -0.894276 0.315490
-0.314180 0.329351 0.890404
0.483810 0.249308 0.838912
-0.125530 -0.530595 0.838279
-0.293643 0.739070 -0.606259
-0.068832 0.015974 -0.997500
0.085064 -0.002930 -0.996371
0.085064 -0.002930 -0.996371
-0.068832 0.015974 -0.997500
-0.292027 -0.085719 -0.952561
0.057885 -0.141845 0.988195
-0.297733 -0.188548 0.935844
-0.270946 -0.043978 0.961589
-0.270946 -0.043978 0.961589
-0.297733 -0.188548 0.935844
-0.115894 -0.067009 0.990999
-0.048947 0.360389 0.931517
-0.222361 -0.467886 0.855358
0.483810 0.249308 0.838912
0.483810 0.249308 0.838912
-0.222361 -0.467886 0.855358
-0.125530 -0.530595 0.838279
-0.302410 -0.139992 -0.942842
-0.652809 -0.442858 0.614587
-0.234430 -0.324843 -0.916253
-0.909459 0.113379 0.400038
-0.336592 0.049120 0.940369
-0.262859 0.034116 0.964231
0.262811 0.002131 0.964845
-0.240702 0.009493 0.970553
-0.270430 0.040735 0.961877
-0.240702 0.009493 0.970553
-0.324482 0.054349 0.944329
-0.270430 0.040735 0.961877
-0.688484 -0.693968 0.210709
-0.130155 -0.255654 -0.957967
-0.640389 -0.658290 0.395673
-0.130155 -0.255654 -0.957967
-0.031640 0.130503 -0.990943
-0.268662 -0.744886 -0.610709
0.278563 0.268689 0.922068
0.090554 -0.274567 0.957295
0.448811 -0.013192 0.893529
0.119016 -0.112216 0.986531
-0.120550 0.203648 0.971594
0.448811 -0.013192 0.893529
-0.102202 0.047910 0.993609
0.080110 0.223349 0.971441
0.152526 0.089606 0.984229
0.177708 0.014833 0.983971
-0.236761 -0.053667 0.970085
0.152526 0.089606 0.984229
0.057885 -0.141845 0.988195
0.102383 -0.277405 0.955282
-0.640389 -0.658290 0.395673
0.102383 -0.277405 0.955282
-0.688484 -0.693968 0.210709
-0.640389 -0.658290 0.395673
0.772925 0.414626 0.480283
0.278563 0.268689 0.922068
0.448811 -0.013192 0.893529
0.926790 0.200594 0.317524
0.278563 0.268689 0.922068
0.772925 0.414626 0.480283
-0.508039 -0.218996 0.833029
-0.569650 -0.568112 -0.593926
-0.282711 -0.822378 -0.493731
-0.640389 -0.658290 0.395673
-0.569650 -0.568112 -0.593926
-0.508039 -0.218996 0.833029
0.472495 0.489166 0.733120
0.684548 0.605829 0.405419
-0.120550 0.203648 0.971594
0.472495 0.489166 0.733120
0.483810 0.249308 0.838912
0.684548 0.605829 0.405419
-0.823766 0.030956 0.566085
-0.389106 -0.152463 0.908489
-0.255129 0.237669 0.937242
-0.823766 0.030956 0.566085
-0.392986 -0.087279 0.915393
-0.389106 -0.152463 0.908489
0.119016 -0.112216 0.986531
0.448811 -0.013192 0.893529
0.090554 -0.274567 0.957295
0.332447 0.080635 0.939669
0.119016 -0.112216 0.986531
0.090554 -0.274567 0.957295
-0.122842 -0.159283 0.979561
-0.401689 0.497078 0.769129
-0.976520 0.140421 -0.163372
0.046987 0.555292 0.830327
-0.401689 0.497078 0.769129
-0.122842 -0.159283 0.979561
-0.130155 -0.255654 -0.957967
-0.880116 -0.026797 -0.474002
-0.048390 -0.194641 -0.979680
-0.278479 0.281709 -0.918199
-0.048390 -0.194641 -0.979680
-0.880116 -0.026797 -0.474002
-0.450707 0.156355 0.878872
-0.314180 0.329351 0.890404
-0.125530 -0.530595 0.838279
-0.450707 0.156355 0.878872
-0.249198 0.161128 0.954955
-0.314180 0.329351 0.890404
-0.000784 0.011275 -0.999936
0.511469 0.233712 -0.826909
-0.053467 0.116065 -0.991802
-0.186633 -0.073596 -0.979669
-0.000784 0.011275 -0.999936
-0.053467 0.116065 -0.991802
-0.083220 -0.160792 -0.983474
-0.296483 -0.314471 -0.901779
-0.053782 0.218232 -0.974414
-0.758880 -0.088467 -0.645194
-0.278479 0.281709 -0.918199
-0.880116 -0.026797 -0.474002
0.006757 -0.012430 -0.999900
-0.005680 0.019173 -0.999800
0.051995 -0.022429 -0.998396
-0.013731 0.125113 -0.992047
0.006757 -0.012430 -0.999900
0.051995 -0.022429 -0.998396
0.899520 0.240854 0.364489
-0.114322 0.139255 0.983635
0.731511 0.048801 0.680081
0.899520 0.240854 0.364489
0.448811 -0.013192 0.893529
-0.114322 0.139255 0.983635
-0.130155 -0.255654 -0.957967
-0.268662 -0.744886 -0.610709
-0.640389 -0.658290 0.395673
-0.640389 -0.658290 0.395673
-0.268662 -0.744886 -0.610709
-0.569650 -0.568112 -0.593926
-0.278479 0.281709 -0.918199
-0.083220 -0.160792 -0.983474
-0.048390 -0.194641 -0.979680
-0.758880 -0.088467 -0.645194
-0.083220 -0.160792 -0.983474
-0.278479 0.281709 -0.918199
-0.249198 0.161128 0.954955
-0.255129 0.237669 0.937242
0.586748 -0.134945 0.798446
0.586748 -0.134945 0.798446
-0.255129 0.237669 0.937242
0.363124 -0.263869 0.893596
-0.758880 -0.088467 -0.645194
-0.296483 -0.314471 -0.901779
-0.083220 -0.160792 -0.983474
-0.296483 -0.314471 -0.901779
-0.758880 -0.088467 -0.645194
-0.913195 -0.319967 -0.252383
-0.102202 0.047910 0.993609
0.152526 0.089606 0.984229
-0.236761 -0.053667 0.970085
-0.102202 0.047910 0.993609
-0.236761 -0.053667 0.970085
-0.754770 -0.105734 0.647413
0.185645 0.000223 -0.982617
0.849103 0.054057 -0.525454
0.137463 -0.001173 -0.990506
0.137463 -0.001173 -0.990506
0.849103 0.054057 -0.525454
0.805034 -0.262674 -0.531905
0.926790 0.200594 0.317524
0.511469 0.233712 -0.826909
0.942273 0.267915 0.200858
0.511469 0.233712 -0.826909
0.926790 0.200594 0.317524
0.772925 0.414626 0.480283
-0.880293 -0.093617 0.465101
-0.159044 0.025091 -0.986953
-0.868083 -0.329099 -0.371653
-0.868083 -0.329099 -0.371653
-0.932030 -0.315627 -0.178042
-0.880293 -0.093617 0.465101
0.188085 0.202294 0.961094
-0.554703 -0.178177 0.812747
-0.063532 -0.289682 0.955012
0.255234 0.111352 0.960446
0.188085 0.202294 0.961094
-0.063532 -0.289682 0.955012
-0.133357 -0.153389 0.979126
-0.250257 0.106501 0.962304
-0.272752 0.565903 0.778049
-0.272752 0.565903 0.778049
-0.164164 0.924434 0.344198
-0.208762 0.696485 -0.686532
0.004943 -0.007054 -0.999963
-0.037407 -0.087243 -0.995484
0.106561 0.059718 -0.992511
0.106561 0.059718 -0.992511
-0.037407 -0.087243 -0.995484
-0.013731 0.125113 -0.992047
0.119045 -0.066065 0.990688
0.262811 0.002131 0.964845
0.225900 -0.111364 0.967764
0.262811 0.002131 0.964845
-0.270430 0.040735 0.961877
0.225900 -0.111364 0.967764
-0.164164 0.924434 0.344198
-0.250257 0.106501 0.962304
0.278563 0.268689 0.922068
-0.164164 0.924434 0.344198
-0.272752 0.565903 0.778049
-0.250257 0.106501 0.962304
0.004943 -0.007054 -0.999963
0.172612 0.039402 -0.984201
-0.316439 -0.059677 -0.946734
-0.234430 -0.324843 -0.916253
0.172612 0.039402 -0.984201
0.106561 0.059718 -0.992511
-0.392986 -0.087279 0.915393
-0.823766 0.030956 0.566085
-0.754770 -0.105734 0.647413
-0.236761 -0.053667 0.970085
-0.392986 -0.087279 0.915393
-0.754770 -0.105734 0.647413
0.046987 0.555292 0.830327
0.209224 0.039732 0.977060
-0.272752 0.565903 0.778049
0.046987 0.555292 0.830327
-0.122842 -0.159283 0.979561
0.209224 0.039732 0.977060
-0.316439 -0.059677 -0.946734
0.172612 0.039402 -0.984201
-0.234430 -0.324843 -0.916253
-0.728675 -0.620132 -0.290636
-0.316439 -0.059677 -0.946734
-0.234430 -0.324843 -0.916253
0.731511 0.048801 0.680081
-0.114322 0.139255 0.983635
-0.249198 0.161128 0.954955
0.731511 0.048801 0.680081
-0.249198 0.161128 0.954955
0.586748 -0.134945 0.798446
-0.005680 0.019173 -0.999800
0.144685 0.332585 -0.931909
0.024218 -0.030302 -0.999247
-0.005680 0.019173 -0.999800
0.024218 -0.030302 -0.999247
0.185645 0.000223 -0.982617
-0.036083 0.151978 0.987725
-0.515790 -0.099594 0.850907
0.018752 0.155329 0.987685
-0.036083 0.151978 0.987725
-0.880293 -0.093617 0.465101
-0.515790 -0.099594 0.850907
0.887720 0.459857 -0.022003
0.448811 -0.013192 0.893529
0.914701 0.278451 -0.292895
0.368389 0.448420 -0.814377
0.887720 0.459857 -0.022003
0.914701 0.278451 -0.292895
0.536461 -0.016557 0.843763
0.849103 0.054057 -0.525454
0.901593 0.038770 -0.430844
0.901593 0.038770 -0.430844
0.954374 0.068554 -0.290637
0.536461 -0.016557 0.843763
-0.442330 0.033265 -0.896235
-0.468003 -0.019840 -0.883504
-0.923022 -0.382960 -0.037043
-0.468003 -0.019840 -0.883504
0.051995 -0.022429 -0.998396
0.036769 0.079164 -0.996183
0.096947 0.026298 0.994942
0.332447 0.080635 0.939669
0.119289 -0.127311 0.984663
0.119289 -0.127311 0.984663
-0.091193 0.179666 0.979492
0.096947 0.026298 0.994942
-0.324482 0.054349 0.944329
0.128182 0.231499 0.964353
-0.270946 -0.043978 0.961589
-0.324482 0.054349 0.944329
0.177708 0.014833 0.983971
0.128182 0.231499 0.964353
0.036769 0.079164 -0.996183
-0.923022 -0.382960 -0.037043
-0.468003 -0.019840 -0.883504
-0.923022 -0.382960 -0.037043
0.036769 0.079164 -0.996183
-0.159044 0.025091 -0.986953
-0.444125 -0.269318 0.854530
-0.357136 -0.027484 0.933648
-0.409933 -0.183708 0.893424
-0.080245 -0.280593 0.956467
-0.096645 -0.046589 0.994228
-0.357136 -0.027484 0.933648
0.237396 -0.057851 -0.969689
0.097451 -0.066472 -0.993018
-0.031640 0.130503 -0.990943
0.097451 -0.066472 -0.993018
0.237396 -0.057851 -0.969689
0.134669 -0.141348 -0.980758
-0.444125 -0.269318 0.854530
-0.146227 -0.792231 0.592442
-0.080245 -0.280593 0.956467
-0.444125 -0.269318 0.854530
-0.080245 -0.280593 0.956467
-0.357136 -0.027484 0.933648
-0.013396 0.717435 -0.696496
0.255845 0.878949 0.402483
0.460516 0.547817 -0.698442
-0.013396 0.717435 -0.696496
0.460516 0.547817 -0.698442
0.439814 -0.202805 -0.874891
-0.053782 0.218232 -0.974414
0.024701 0.125285 -0.991813
0.003445 -0.026116 -0.999653
0.024701 0.125285 -0.991813
0.134669 -0.141348 -0.980758
0.003445 -0.026116 -0.999653
-0.246825 -0.515982 0.820268
-0.909459 0.113379 0.400038
-0.262859 0.034116 0.964231
-0.246825 -0.515982 0.820268
-0.262859 0.034116 0.964231
0.121939 0.046239 0.991460
-0.208762 0.696485 -0.686532
-0.164164 0.924434 0.344198
-0.124016 0.426809 -0.895798
-0.208762 0.696485 -0.686532
-0.124016 0.426809 -0.895798
-0.429250 0.644880 -0.632356
0.024218 -0.030302 -0.999247
0.203492 -0.007832 -0.979045
0.203878 -0.000802 -0.978996
0.203492 -0.007832 -0.979045
0.971837 -0.031271 -0.233569
0.203878 -0.000802 -0.978996
-0.302410 -0.139992 -0.942842
-0.909459 0.113379 0.400038
-0.652809 -0.442858 0.614587
-0.302410 -0.139992 -0.942842
-0.442330 0.033265 -0.896235
-0.909459 0.113379 0.400038
-0.078520 -0.151346 -0.985357
0.137463 -0.001173 -0.990506
-0.128794 0.052335 -0.990289
-0.128794 0.052335 -0.990289
0.097451 -0.066472 -0.993018
-0.078520 -0.151346 -0.985357
-0.012849 -0.010307 -0.999864
0.203492 -0.007832 -0.979045
0.144685 0.332585 -0.931909
0.024218 -0.030302 -0.999247
0.144685 0.332585 -0.931909
0.203492 -0.007832 -0.979045
-0.246825 -0.515982 0.820268
-0.454418 -0.576480 0.679098
-0.652809 -0.442858 0.614587
-0.652809 -0.442858 0.614587
-0.909459 0.113379 0.400038
-0.246825 -0.515982 0.820268
0.257241 -0.098468 0.961317
0.119045 -0.066065 0.990688
0.225900 -0.111364 0.967764
0.257241 -0.098468 0.961317
0.162357 -0.823726 0.543246
0.119045 -0.066065 0.990688
-0.186633 -0.073596 -0.979669
-0.051942 0.014857 -0.998540
-0.013847 0.000484 -0.999904
-0.079926 -0.066622 -0.994572
-0.061657 -0.008353 -0.998062
-0.013847 0.000484 -0.999904
-0.976520 0.140421 -0.163372
-0.293643 0.739070 -0.606259
-0.376024 -0.010915 -0.926546
-0.976520 0.140421 -0.163372
-0.376024 -0.010915 -0.926546
-0.292027 -0.085719 -0.952561
-0.124960 0.039921 0.991358
-0.454418 -0.576480 0.679098
-0.308246 -0.536725 0.785436
0.107346 0.268788 0.957199
-0.124960 0.039921 0.991358
-0.308246 -0.536725 0.785436
-0.051942 0.014857 -0.998540
-0.079926 -0.066622 -0.994572
-0.013847 0.000484 -0.999904
0.203492 -0.007832 -0.979045
-0.079926 -0.066622 -0.994572
-0.051942 0.014857 -0.998540
0.057885 -0.141845 0.988195
0.164309 -0.182004 0.969473
0.247829 -0.345612 0.905060
0.164309 -0.182004 0.969473
-0.270946 -0.043978 0.961589
0.255234 0.111352 0.960446
0.085847 0.331149 0.939665
-0.091193 0.179666 0.979492
0.107346 0.268788 0.957199
0.107346 0.268788 0.957199
-0.091193 0.179666 0.979492
-0.124960 0.039921 0.991358
-0.023699 -0.068394 -0.997377
-0.012849 -0.010307 -0.999864
-0.061657 -0.008353 -0.998062
-0.079926 -0.066622 -0.994572
-0.023699 -0.068394 -0.997377
-0.061657 -0.008353 -0.998062
0.255234 0.111352 0.960446
0.247829 -0.345612 0.905060
0.164309 -0.182004 0.969473
0.247829 -0.345612 0.905060
0.255234 0.111352 0.960446
-0.063532 -0.289682 0.955012
0.085847 0.331149 0.939665
0.107346 0.268788 0.957199
0.007905 0.416863 0.908935
0.007905 0.416863 0.908935
0.472495 0.489166 0.733120
0.085847 0.331149 0.939665
</float_array>
          <technique_common>
            <accessor source="#floor2-Normal0-array" count="1194" stride="3">
              <param name="X" type="float"/>
              <param name="Y" type="float"/>
              <param name="Z" type="float"/>
            </accessor>
          </technique_common>
        </source>
        <source id="floor2-UV0">
          <float_array id="floor2-UV0-array" count="476">
0.050931 0.687419
0.039706 0.619164
0.070869 0.642599
0.011940 0.663135
0.309837 0.589276
0.342826 0.586101
0.324669 0.610012
0.369613 0.582380
0.386331 0.612393
0.345058 0.604753
0.473342 0.571318
0.485546 0.600090
0.010660 0.700011
0.004653 0.617016
0.055608 0.712003
0.062500 0.673479
0.083374 0.681973
0.091645 0.720448
0.475079 0.654658
0.487332 0.555840
0.063140 0.720248
0.079189 0.689968
0.036506 0.589534
0.056740 0.577492
0.056789 0.605224
0.040100 0.542465
0.486339 0.572608
0.419320 0.761562
0.074808 0.517481
0.038574 0.558854
0.445364 0.801198
0.075152 0.526475
0.409448 0.829375
0.083817 0.583888
0.190796 0.512884
0.104445 0.516082
0.100900 0.510236
0.090217 0.676726
0.135953 0.661886
0.128371 0.681423
0.106365 0.660487
0.421949 0.841281
0.152101 0.558954
0.161651 0.610720
0.378245 0.697965
0.317824 0.735419
0.100654 0.604174
0.098242 0.529573
0.038475 0.842417
0.312019 0.640371
0.036703 0.808939
0.074611 0.886338
0.085836 0.758373
0.094057 0.737236
0.110845 0.806641
0.105380 0.698662
0.280320 0.731748
0.262611 0.735865
0.307307 0.923827
0.358750 0.908201
0.328886 0.955675
0.107153 0.758373
0.215904 0.754825
0.129110 0.850612
0.188679 0.641350
0.441842 0.749309
0.427604 0.605100
0.365397 0.750202
0.299518 0.806853
0.371747 0.845993
0.129307 0.703309
0.189516 0.821631
0.215855 0.826478
0.237172 0.763419
0.309291 0.832748
0.227720 0.801744
0.394616 0.892674
0.288853 0.548499
0.337567 0.551624
0.191584 0.921765
0.148950 0.920066
0.169479 0.912971
0.210636 0.890485
0.221960 0.873247
0.223880 0.889086
0.226046 0.860155
0.298774 0.564075
0.362718 0.989606
0.329332 0.567349
0.406125 0.600735
0.293516 0.829028
0.078943 0.828426
0.250705 0.854030
0.266579 0.826746
0.298874 0.844158
0.325265 0.856560
0.126205 0.868150
0.154611 0.871848
0.446406 0.768656
0.463371 0.708284
0.369266 0.551475
0.139842 0.899230
0.177258 0.641200
0.211375 0.597329
0.200593 0.631256
0.229738 0.580540
0.224766 0.602775
0.165639 0.929660
0.204089 0.949596
0.106956 0.895033
0.117245 0.923614
0.171990 0.948397
0.427753 0.550036
0.411780 0.863158
0.429390 0.654658
0.186021 0.945249
0.216741 0.974580
0.185233 0.561452
0.397741 0.704960
0.273673 0.762752
0.228064 0.541965
0.273772 0.778279
0.305174 0.533418
0.057429 0.741234
0.079435 0.788703
0.108630 0.835422
0.321693 0.509557
0.438369 0.514121
0.054081 0.770764
0.260676 0.860379
0.244163 0.793799
0.036161 0.715001
0.020949 0.676527
0.014844 0.607272
0.144076 0.653542
0.013663 0.741534
0.220433 0.867651
0.154267 0.894133
0.179079 0.893534
0.330672 0.882653
0.287265 0.861818
0.096322 0.923114
0.314450 0.864050
0.314202 0.889697
0.079879 0.916918
0.105577 0.641200
0.113602 0.626460
0.275806 0.896493
0.432416 0.561198
0.467588 0.554799
0.355277 0.895055
0.322735 0.900412
0.072248 0.655391
0.074119 0.618915
0.097159 0.631057
0.157959 0.852511
0.273177 0.904877
0.306116 0.904431
0.281065 0.935435
0.455384 0.512881
0.196901 0.843916
0.470217 0.542397
0.215707 0.837520
0.473938 0.520074
0.488671 0.532972
0.401461 0.906762
0.327447 0.992583
0.231461 0.841468
0.125319 0.892334
0.405331 0.658775
0.191387 0.531372
0.024937 0.708056
0.395409 0.638486
0.418626 0.727829
0.421106 0.628664
0.483413 0.678321
0.270250 0.517940
0.283942 0.532674
0.053195 0.750078
0.039263 0.781008
0.100457 0.684172
0.288208 0.511442
0.273524 0.543290
0.262115 0.515262
0.122907 0.690267
0.166968 0.662686
0.291234 0.571268
0.022327 0.552658
0.254078 0.892872
0.276997 0.876899
0.263007 0.875212
0.185085 0.860006
0.192175 0.880842
0.208372 0.650194
0.412970 0.507870
0.219990 0.650094
0.203547 0.901928
0.189516 0.895132
0.135756 0.914770
0.043300 0.523178
0.054131 0.514084
0.203990 0.980126
0.141270 0.943251
0.022229 0.531322
0.223584 0.521179
0.227818 0.526326
0.233677 0.548761
0.205073 0.985123
0.126451 0.953194
0.227720 0.973681
0.244163 0.518181
0.073823 0.511385
0.213049 0.963837
0.194538 0.520779
0.103460 0.720448
0.226243 0.881741
0.237664 0.890785
0.011546 0.587835
0.022918 0.572745
0.226440 0.913271
0.139793 0.746880
0.209061 0.888837
0.083571 0.773563
0.226833 0.752427
0.244360 0.840418
0.231757 0.810488
0.147227 0.932858
0.035915 0.519730
0.206895 0.664385
0.215264 0.622812
0.211523 0.950846
0.230378 0.916219
0.230870 0.864603
0.010020 0.556805
0.067128 0.886888
0.239929 0.752726
0.247018 0.777460
0.240027 0.510486
</float_array>
          <technique_common>
            <accessor source="#floor2-UV0-array" count="238" stride="2">
              <param name="S" type="float"/>
              <param name="T" type="float"/>
            </accessor>
          </technique_common>
        </source>
        <vertices id="floor2-VERTEX">
          <input semantic="POSITION" source="#floor2-POSITION"/>
        </vertices>
        <triangles count="398" material="Material #80"><input semantic="VERTEX" offset="0" source="#floor2-VERTEX"/><input semantic="NORMAL" offset="1" source="#floor2-Normal0"/><input semantic="TEXCOORD" offset="2" set="0" source="#floor2-UV0"/><p> 0 0 0 1 1 1 2 2 2 3 3 3 4 4 12 5 5 13 6 6 4 7 7 5 8 8 6 9 9 7 10 10 8 11 11 9 12 12 14 13 13 15 14 14 16 15 15 17 16 16 20 17 17 21 18 18 10 5 19 11 19 20 18 20 21 22 21 22 23 22 23 24 23 24 25 24 25 28 25 26 29 18 27 10 26 28 19 27 29 26 28 30 31 29 31 33 25 32 29 30 33 34 31 34 35 32 35 36 33 36 37 34 37 38 35 38 39 36 39 40 34 40 38 33 41 37 37 42 42 38 43 43 39 44 46 39 45 46 40 46 47 37 47 42 41 48 48 42 49 50 43 50 51 44 51 27 41 52 30 45 53 32 46 54 52 47 55 53 48 56 54 49 57 41 45 58 32 41 59 30 15 60 17 17 61 21 50 62 55 51 63 61 52 64 62 53 65 63 54 66 64 52 67 62 55 68 70 11 69 9 56 70 44 57 71 45 58 72 49 59 73 56 60 74 57 53 75 63 52 76 62 61 77 71 62 78 72 63 79 73 64 80 75 65 81 58 66 82 59 67 83 60 18 84 10 68 85 65 69 86 66 18 87 10 19 88 18 68 89 65 70 90 79 71 91 80 72 92 81 73 93 82 74 94 83 75 95 84 59 96 56 76 97 67 45 98 32 73 99 82 77 100 85 74 101 83 42 102 50 78 103 91 43 104 51 79 105 96 80 106 97 81 107 101 82 108 102 83 109 103 84 110 104 38 111 43 37 112 42 83 113 103 85 114 68 86 115 69 87 116 74 66 117 59 88 118 76 67 119 60 84 120 104 89 121 105 6 122 106 90 123 77 91 124 78 92 125 86 67 126 60 88 127 76 93 128 87 94 129 107 70 130 79 95 131 108 91 132 78 7 133 5 96 134 88 9 135 7 97 136 89 10 137 8 43 138 51 98 139 109 99 140 110 100 141 111 101 142 115 102 143 116 83 144 103 89 145 105 84 146 104 103 147 117 104 148 120 83 149 103 105 150 123 16 151 20 47 152 53 106 153 124 107 154 125 108 155 128 109 156 90 77 157 92 110 158 93 111 159 130 64 160 75 63 161 73 105 162 123 112 163 131 16 164 20 113 165 132 114 166 133 0 167 0 109 168 90 115 169 94 77 170 92 87 171 74 86 172 69 116 173 95 39 174 46 38 175 43 117 176 134 38 177 43 83 178 103 82 179 102 118 180 98 119 181 99 41 182 30 119 183 135 42 184 50 41 185 48 77 186 85 73 187 82 120 188 136 121 189 137 80 190 97 122 191 138 123 192 100 124 193 112 97 194 89 123 195 100 97 196 89 9 197 7 43 198 51 125 199 141 126 200 144 43 201 51 99 202 110 125 203 141 127 204 145 128 205 146 34 206 38 36 207 40 14 208 16 129 209 152 45 210 32 86 211 69 85 212 68 126 213 113 45 214 32 49 215 41 29 216 33 22 217 24 21 218 23 130 219 153 39 220 46 131 221 154 132 222 155 61 223 71 133 224 160 120 225 136 134 226 162 135 227 167 136 228 114 68 229 65 137 230 118 137 231 118 76 232 67 57 233 45 130 234 153 131 235 154 2 236 2 22 237 24 2 238 2 20 239 22 79 240 96 81 241 101 138 242 168 94 243 107 95 244 108 101 245 115 139 246 119 85 247 68 111 248 121 85 249 68 109 250 90 110 251 93 40 252 47 140 253 170 37 254 42 37 255 42 103 256 117 83 257 103 141 258 171 108 259 128 119 260 135 142 261 178 108 262 128 141 263 171 143 264 122 30 265 126 91 266 78 30 267 126 144 268 127 123 269 100 145 270 129 77 271 92 115 272 94 116 273 95 88 274 76 146 275 139 147 276 179 78 277 91 42 278 50 42 279 50 119 280 135 147 281 179 50 282 55 148 283 180 35 284 39 149 285 184 150 286 185 55 287 70 151 288 140 152 289 142 153 290 143 151 291 140 153 292 143 154 293 147 23 294 25 25 295 29 155 296 187 123 297 100 144 298 127 124 299 112 54 300 64 150 301 185 82 302 102 150 303 185 54 304 64 55 305 70 156 306 191 132 307 155 133 308 160 134 309 162 120 310 136 133 311 160 157 312 148 18 313 10 69 314 66 26 315 19 18 316 10 158 317 149 146 318 139 88 319 76 159 320 150 159 321 150 160 322 151 146 323 139 133 324 160 120 325 136 156 326 191 156 327 191 120 328 136 161 329 192 7 330 5 11 331 9 8 332 6 63 333 73 162 334 193 58 335 195 163 336 156 154 337 147 153 338 143 164 339 196 165 340 197 75 341 84 25 342 29 29 343 33 21 344 23 25 345 29 21 346 23 20 347 22 139 348 119 59 349 56 85 350 68 59 351 56 45 352 32 85 353 68 65 354 58 160 355 151 66 356 59 166 357 157 163 358 156 153 359 143 0 360 0 12 361 14 113 362 132 13 363 15 12 364 14 0 365 0 166 366 157 65 367 58 163 368 156 65 369 58 67 370 60 167 371 158 168 372 159 169 373 161 124 374 112 158 375 149 18 376 10 157 377 148 127 378 145 34 379 38 36 380 40 36 381 40 129 382 152 127 383 145 121 384 137 122 385 138 71 386 80 81 387 101 71 388 80 170 389 198 4 390 12 141 391 171 119 392 135 19 393 18 119 394 99 68 395 65 24 396 28 171 397 199 168 398 200 172 399 163 173 400 164 169 401 161 174 402 165 93 403 87 126 404 113 175 405 201 176 406 202 102 407 116 38 408 43 82 409 102 117 410 134 34 411 38 82 412 102 150 413 185 23 414 25 171 415 199 24 416 28 173 417 203 23 418 25 155 419 187 48 420 54 51 421 61 53 422 63 107 423 125 79 424 96 138 425 168 177 426 204 178 427 205 30 428 34 179 429 206 83 430 103 104 431 120 93 432 207 174 433 208 175 434 201 93 435 207 175 436 201 180 437 209 181 438 210 179 439 206 104 440 120 90 441 77 143 442 122 91 443 78 61 444 71 62 445 72 133 446 160 61 447 71 52 448 62 62 449 72 24 450 28 168 451 200 144 452 211 124 453 112 144 454 127 168 455 159 95 456 108 182 457 212 101 458 115 67 459 60 93 460 87 180 461 166 31 462 35 30 463 34 183 464 213 30 465 34 178 466 205 183 467 213 184 468 214 51 469 61 47 470 53 48 471 54 47 472 53 51 473 61 115 474 94 87 475 74 116 476 95 115 477 94 152 478 142 151 479 140 137 480 118 185 481 169 136 482 114 11 483 9 186 484 172 56 485 44 98 486 109 107 487 125 138 488 168 43 489 51 78 490 91 98 491 109 187 492 215 75 493 84 74 494 83 163 495 216 75 496 84 187 497 215 186 498 172 137 499 118 56 500 44 57 501 45 56 502 44 137 503 118 3 504 3 5 505 13 114 506 133 27 507 217 26 508 218 114 509 133 78 510 91 147 511 179 107 512 125 78 513 91 107 514 125 98 515 109 75 516 84 165 517 197 73 518 82 122 519 138 80 520 97 161 521 192 8 522 6 11 523 9 58 524 49 58 525 49 11 526 9 59 527 56 164 528 196 70 529 79 165 530 197 70 531 79 188 532 219 95 533 108 129 534 152 2 535 2 131 536 154 0 537 0 2 538 2 129 539 152 189 540 220 52 541 62 51 542 61 189 543 220 51 544 61 184 545 214 73 546 82 190 547 221 120 548 136 73 549 82 165 550 197 190 551 221 44 552 27 118 553 98 41 554 30 137 555 118 191 556 173 76 557 67 55 558 70 52 559 62 189 560 220 184 561 214 55 562 70 189 563 220 46 564 52 105 565 123 47 566 53 192 567 222 107 568 125 106 569 124 86 570 69 45 571 32 88 572 76 86 573 69 88 574 76 116 575 95 106 576 124 105 577 123 192 578 222 106 579 124 108 580 128 142 581 178 193 582 223 162 583 193 63 584 73 193 585 223 63 586 73 62 587 72 37 588 42 140 589 170 103 590 117 140 591 170 104 592 120 103 593 117 152 594 142 146 595 139 153 596 143 166 597 157 153 598 143 146 599 139 111 600 130 110 601 224 194 602 225 111 603 121 85 604 68 110 605 93 11 606 9 10 607 8 186 608 172 10 609 8 195 610 174 186 611 172 100 612 111 196 613 226 101 614 115 170 615 198 71 616 80 101 617 115 19 618 18 5 619 11 4 620 175 119 621 99 19 622 18 4 623 175 28 624 31 40 625 47 29 626 33 40 627 47 31 628 35 140 629 170 141 630 171 4 631 12 3 632 3 113 633 132 12 634 14 112 635 131 196 636 226 170 637 198 101 638 115 99 639 110 98 640 109 138 641 168 158 642 149 169 643 161 173 644 164 169 645 161 158 646 149 124 647 112 90 648 77 197 649 176 198 650 177 178 651 205 177 652 204 181 653 210 77 654 85 135 655 167 110 656 224 135 657 167 77 658 85 120 659 136 177 660 181 30 661 126 143 662 122 197 663 176 177 664 181 198 665 177 29 666 33 40 667 47 39 668 46 22 669 24 29 670 33 39 671 46 30 672 126 123 673 100 91 674 78 91 675 78 123 676 100 9 677 7 174 678 208 125 679 141 175 680 201 174 681 208 126 682 144 125 683 141 172 684 227 171 685 199 173 686 203 171 687 199 23 688 25 173 689 203 179 690 182 181 691 183 90 692 77 179 693 182 90 694 77 92 695 86 87 696 74 115 697 94 109 698 90 109 699 90 85 700 68 87 701 74 161 702 192 80 703 97 156 704 191 132 705 155 156 706 191 80 707 97 89 708 105 83 709 103 179 710 206 179 711 182 92 712 86 89 713 186 184 714 214 47 715 53 15 716 17 15 717 17 47 718 53 16 719 20 97 720 89 157 721 148 69 722 66 97 723 89 195 724 174 10 725 8 194 726 225 110 727 224 135 728 167 64 729 75 135 730 167 134 731 162 150 732 185 149 733 184 35 734 39 34 735 38 150 736 185 35 737 39 175 738 201 125 739 141 176 740 202 176 741 202 125 742 141 99 743 110 147 744 179 119 745 135 108 746 128 107 747 125 147 748 179 108 749 128 52 750 62 199 751 228 193 752 223 52 753 62 193 754 223 62 755 72 95 756 108 180 757 209 182 758 212 102 759 116 101 760 115 182 761 212 50 762 55 17 763 21 148 764 180 35 765 39 148 766 180 33 767 37 180 768 209 102 769 116 182 770 212 180 771 209 175 772 201 102 773 116 17 774 21 33 775 37 148 776 180 12 777 14 14 778 16 17 779 21 177 780 181 143 781 122 198 782 177 198 783 177 143 784 122 90 785 77 70 786 79 94 787 107 71 788 80 71 789 80 94 790 107 101 791 115 36 792 40 33 793 37 14 794 16 14 795 16 33 796 37 17 797 21 8 798 229 84 799 104 6 800 106 162 801 193 193 802 223 199 803 228 99 804 110 138 805 168 170 806 198 138 807 168 81 808 101 170 809 198 75 810 84 163 811 216 188 812 219 163 813 156 65 814 58 167 815 158 25 816 29 20 817 22 114 818 133 1 819 1 0 820 0 114 821 133 53 822 63 61 823 71 132 824 155 80 825 97 79 826 96 132 827 155 70 828 79 164 829 196 188 830 219 164 831 196 75 832 84 188 833 219 26 834 218 25 835 29 114 836 133 155 837 187 25 838 29 26 839 218 95 840 108 67 841 230 180 842 209 188 843 219 67 844 230 95 845 108 129 846 152 13 847 15 0 848 0 129 849 152 14 850 16 13 851 15 46 852 52 192 853 222 105 854 123 46 855 52 107 856 125 192 857 222 1 858 1 114 859 133 20 860 22 2 861 2 1 862 1 20 863 22 104 864 120 178 865 205 181 866 210 183 867 213 178 868 205 104 869 120 163 870 156 187 871 188 154 872 147 200 873 189 154 874 147 187 875 188 16 876 20 12 877 14 17 878 21 16 879 20 112 880 131 12 881 14 124 882 112 158 883 149 157 884 148 97 885 89 124 886 112 157 887 148 151 888 140 145 889 129 115 890 94 74 891 190 200 892 189 187 893 188 57 894 45 76 895 67 59 896 56 11 897 9 57 898 45 59 899 56 3 900 3 113 901 132 141 902 171 3 903 3 114 904 133 113 905 132 163 906 216 167 907 231 188 908 219 188 909 219 167 910 231 67 911 230 200 912 189 151 913 140 154 914 147 74 915 190 151 916 140 200 917 189 112 918 131 105 919 123 142 920 178 142 921 178 105 922 123 106 923 124 74 924 190 145 925 129 151 926 140 145 927 232 74 928 83 77 929 85 53 930 63 132 931 155 79 932 96 53 933 63 79 934 96 48 935 54 45 936 32 126 937 113 88 938 76 88 939 76 126 940 113 93 941 87 155 942 187 158 943 233 173 944 203 158 945 233 155 946 187 26 947 218 64 948 75 111 949 130 194 950 225 194 951 225 135 952 167 64 953 75 161 954 192 120 955 136 190 956 221 122 957 138 161 958 192 190 959 221 40 960 47 28 961 31 31 962 35 31 963 35 24 964 28 32 965 36 91 966 78 9 967 7 7 968 5 7 969 5 9 970 7 11 971 9 176 972 202 99 973 110 196 974 226 99 975 110 170 976 198 196 977 226 24 978 28 28 979 31 25 980 29 24 981 28 31 982 35 28 983 31 91 984 78 96 985 88 92 986 86 6 987 4 96 988 88 7 989 5 107 990 125 46 991 52 48 992 54 79 993 96 107 994 125 48 995 54 183 996 213 140 997 170 31 998 35 183 999 213 104 1000 120 140 1001 170 92 1002 86 96 1003 88 6 1004 4 89 1005 186 92 1006 86 6 1007 4 141 1008 171 113 1009 132 112 1010 131 141 1011 171 112 1012 131 142 1013 178 76 1014 67 191 1015 173 44 1016 27 76 1017 67 44 1018 27 45 1019 32 62 1020 72 134 1021 162 133 1022 160 62 1023 72 64 1024 75 134 1025 162 27 1026 217 114 1027 133 5 1028 13 18 1029 10 27 1030 26 5 1031 11 43 1032 51 126 1033 144 49 1034 234 49 1035 234 41 1036 48 43 1037 51 58 1038 195 60 1039 235 63 1040 73 60 1041 57 59 1042 56 139 1043 119 130 1044 153 2 1045 2 22 1046 24 22 1047 24 39 1048 46 130 1049 153 81 1050 101 121 1051 137 71 1052 80 81 1053 101 80 1054 97 121 1055 137 139 1056 236 63 1057 73 60 1058 235 63 1059 73 139 1060 236 111 1061 130 50 1062 55 184 1063 214 15 1064 17 149 1065 184 55 1066 70 184 1067 214 166 1068 157 160 1069 151 65 1070 58 160 1071 151 166 1072 157 146 1073 139 50 1074 55 35 1075 39 149 1076 184 50 1077 55 149 1078 184 184 1079 214 168 1080 200 171 1081 199 172 1082 227 168 1083 159 172 1084 163 169 1085 161 115 1086 94 116 1087 95 152 1088 142 116 1089 95 146 1090 139 152 1091 142 54 1092 64 162 1093 193 199 1094 228 54 1095 64 199 1096 228 52 1097 62 32 1098 36 24 1099 28 144 1100 211 32 1101 194 144 1102 127 30 1103 126 44 1104 27 68 1105 65 118 1106 98 68 1107 65 119 1108 99 118 1109 98 8 1110 229 162 1111 193 84 1112 104 8 1113 229 58 1114 195 162 1115 193 159 1116 150 88 1117 76 66 1118 59 66 1119 59 160 1120 151 159 1121 150 137 1122 118 68 1123 65 191 1124 173 44 1125 27 191 1126 173 68 1127 65 54 1128 64 82 1129 102 84 1130 104 84 1131 104 162 1132 193 54 1133 64 100 1134 111 176 1135 202 196 1136 226 100 1137 111 102 1138 116 176 1139 202 97 1140 89 69 1141 66 195 1142 174 136 1143 114 186 1144 172 195 1145 174 181 1146 210 177 1147 204 197 1148 237 181 1149 183 197 1150 176 90 1151 77 117 1152 134 82 1153 102 34 1154 38 128 1155 146 117 1156 134 34 1157 38 69 1158 66 136 1159 114 195 1160 174 68 1161 65 136 1162 114 69 1163 66 70 1164 79 72 1165 81 165 1166 197 72 1167 81 71 1168 80 122 1169 138 131 1170 154 39 1171 46 128 1172 146 128 1173 146 39 1174 46 117 1175 134 185 1176 169 137 1177 118 186 1178 172 136 1179 114 185 1180 169 186 1181 172 122 1182 138 165 1183 197 72 1184 81 165 1185 197 122 1186 138 190 1187 221 131 1188 154 128 1189 146 127 1190 145 127 1191 145 129 1192 152 131 1193 154</p></triangles>
      </mesh>
    </geometry>
  </library_geometries>
  <library_visual_scenes>
    <visual_scene id="towel_floor2" name="towel_floor2">
      <node name="floor2" id="floor2" sid="floor2"><matrix sid="matrix">0.025400 0.000000 0.000000 0.000000 0.000000 0.000000 0.025400 0.000000 0.000000 -0.025400 0.000000 0.000000 0.000000 0.000000 0.000000 1.000000</matrix><instance_geometry url="#floor2-lib"><bind_material><technique_common><instance_material symbol="Material #80" target="#Material #80"/></technique_common></bind_material></instance_geometry><extra><technique profile="FCOLLADA"><visibility>1.000000</visibility></technique></extra></node>
      <extra><technique profile="MAX3D"><frame_rate>30.000000</frame_rate></technique><technique profile="FCOLLADA"><start_time>0.000000</start_time><end_time>3.333333</end_time></technique></extra>
    </visual_scene>
  </library_visual_scenes>
  <scene>
    <instance_visual_scene url="#towel_floor2"></instance_visual_scene>
  </scene>
</COLLADA>
