<?xml version="1.0" encoding="utf-8"?>
<COLLADA xmlns="http://www.collada.org/2005/11/COLLADASchema" version="1.4.0">
  <asset>
    <contributor>
      <author></author>
      <authoring_tool>FBX COLLADA exporter</authoring_tool>
      <comments></comments>
    </contributor>
    <created>2015-01-11T01:40:48Z</created>
    <modified>2015-01-11T01:40:48Z</modified>
    <revision></revision>
    <title></title>
    <subject></subject>
    <keywords></keywords>
    <unit meter="1.000000"/>
    <up_axis>Y_UP</up_axis>
  </asset>
  <library_images>
    <image id="Map__33-image" name="Map__33">
      <init_from>file://C:\Program Files\Autodesk\3ds Max Design 2011\sceneassets\scenes\Frictional_Games\Props\Station_batch_14\foodcreator_shelf_Asset_Files\foodcreator_shelf\station\foodcreator_shelf\foodcreator_shelf.dds</init_from>
    </image>
  </library_images>
  <library_materials>
    <material id="foodcreator_shelf" name="foodcreator_shelf">
      <instance_effect url="#foodcreator_shelf-fx"/>
    </material>
  </library_materials>
  <library_effects>
    <effect id="foodcreator_shelf-fx" name="foodcreator_shelf">
      <profile_COMMON>
        <technique sid="standard">
          <phong>
            <emission>
              <color sid="emission">0.000000  0.000000 0.000000 1.000000</color>
            </emission>
            <ambient>
              <color sid="ambient">0.588000  0.588000 0.588000 1.000000</color>
            </ambient>
            <diffuse>
              <texture texture="Map__33-image" texcoord="CHANNEL0">
                <extra>
                  <technique profile="MAYA">
                    <wrapU sid="wrapU0">TRUE</wrapU>
                    <wrapV sid="wrapV0">TRUE</wrapV>
                    <blend_mode>ADD</blend_mode>
                  </technique>
                </extra>
              </texture>
            </diffuse>
            <specular>
              <color sid="specular">0.000000  0.000000 0.000000 1.000000</color>
            </specular>
            <shininess>
              <float sid="shininess">2.000000</float>
            </shininess>
            <reflective>
              <color sid="reflective">0.000000  0.000000 0.000000 1.000000</color>
            </reflective>
            <reflectivity>
              <float sid="reflectivity">1.000000</float>
            </reflectivity>
            <transparent>
              <color sid="transparent">1.000000  1.000000 1.000000 1.000000</color>
            </transparent>
            <transparency>
              <float sid="transparency">0.000000</float>
            </transparency>
          </phong>
        </technique>
      </profile_COMMON>
    </effect>
  </library_effects>
  <library_geometries>
    <geometry id="foodcreator_shelf-lib" name="foodcreator_shelfMesh">
      <mesh>
        <source id="foodcreator_shelf-lib-Position">
          <float_array id="foodcreator_shelf-lib-Position-array" count="534">
-0.343309 -0.073242 0.000018
0.344139 -0.073242 0.000018
-0.343309 -0.073242 0.018753
0.344139 -0.073242 0.018753
-0.343309 0.097679 0.018753
0.344139 0.097679 0.018753
-0.343309 0.097679 0.000018
0.344139 0.043211 0.018753
0.308060 0.043211 0.018753
-0.318463 0.043211 0.018753
-0.343309 0.043211 0.018753
-0.343309 0.043211 0.000018
0.319293 0.043211 0.599484
-0.307231 0.043211 0.599484
-0.318463 -0.018774 0.599484
0.344139 -0.018774 0.000018
0.344139 -0.069953 0.018753
-0.343309 -0.069953 0.018753
-0.343309 -0.069953 0.000018
-0.318463 -0.069953 0.000018
-0.307231 -0.069953 0.000018
0.308060 -0.069953 0.000018
0.319293 -0.069953 0.000018
0.344139 -0.069953 0.000018
-0.318463 0.097679 0.000018
-0.307231 0.097679 0.000018
0.308060 0.097679 0.000018
0.319293 0.097679 0.000018
0.344139 0.097679 0.000018
0.319293 0.043211 0.018753
0.308060 0.043211 0.599484
-0.318463 0.043211 0.599484
0.344139 0.043211 0.000018
0.344139 -0.018774 0.018753
0.319293 -0.018774 0.599484
0.308060 -0.018774 0.018753
-0.307231 -0.018774 0.599484
-0.343309 -0.018774 0.018753
-0.343309 -0.018774 0.000018
0.319293 -0.078595 0.016405
0.319293 -0.018774 0.018753
0.308060 -0.069953 0.018753
0.308060 -0.018774 0.599484
0.308060 0.097679 0.018753
0.308060 0.043211 0.000018
0.308060 -0.018774 0.000018
0.308060 -0.078595 0.002366
-0.307231 -0.078595 0.016405
-0.318463 -0.069953 0.018753
-0.318463 0.097679 0.018753
-0.318463 0.043211 0.000018
-0.318463 -0.018774 0.000018
-0.318463 -0.078595 0.002366
0.308060 -0.078595 0.016405
-0.307231 -0.069953 0.018753
-0.307231 0.097679 0.018753
-0.307231 0.043211 0.000018
-0.307231 -0.018774 0.000018
-0.307231 -0.078595 0.002366
-0.318463 -0.078595 0.016405
-0.342113 -0.078595 0.016405
-0.342113 -0.069953 0.018753
-0.342113 -0.018774 0.018753
-0.342113 0.043211 0.018753
-0.342113 0.097679 0.018753
-0.342113 0.097679 0.000018
-0.342113 0.043211 0.000018
-0.342113 -0.018774 0.000018
-0.342113 -0.069953 0.000018
-0.342113 -0.078595 0.002366
0.343235 -0.078595 0.016405
0.343235 -0.069953 0.018753
0.343235 -0.018774 0.018753
0.343235 0.043211 0.018753
0.343235 0.097679 0.018753
0.343235 0.097679 0.000018
0.343235 0.043211 0.000018
0.343235 -0.018774 0.000018
0.343235 -0.069953 0.000018
0.343235 -0.078595 0.002366
0.319293 -0.069953 0.018753
0.319293 0.097679 0.018753
0.319293 0.043211 0.000018
0.319293 -0.018774 0.000018
0.319293 -0.078595 0.002366
-0.318463 -0.018774 0.018753
-0.307231 0.043211 0.018753
-0.307231 -0.018774 0.018753
-0.307613 0.046689 0.143679
-0.307613 -0.040041 0.066384
0.307976 -0.040041 0.066384
-0.307613 -0.070445 0.112455
-0.307613 -0.080129 0.102782
-0.307613 -0.078549 0.107610
-0.307613 -0.036426 0.067053
0.307976 -0.078549 0.107610
0.307976 -0.070445 0.112455
-0.307613 0.035171 0.155566
-0.307613 0.043788 0.146672
-0.307613 -0.031346 0.073044
-0.307613 -0.039301 0.069477
-0.307613 -0.043255 0.067375
0.307976 -0.043255 0.067375
0.307976 -0.039301 0.069477
-0.307613 -0.049648 0.072266
0.307976 -0.046828 0.075083
0.307976 -0.039964 0.081938
0.307976 -0.080129 0.102782
0.307976 -0.049648 0.072266
0.307976 -0.036426 0.067053
0.307976 0.043788 0.146672
0.307976 0.035171 0.155566
0.307976 0.046689 0.143679
-0.307613 -0.046828 0.075083
-0.307613 -0.039964 0.081938
-0.307613 -0.028446 0.070051
0.307976 -0.028446 0.070051
0.307976 -0.031346 0.073044
-0.307613 0.046689 0.347346
-0.307613 -0.040041 0.270051
0.307976 -0.040041 0.270051
-0.307613 -0.070445 0.316122
-0.307613 -0.080129 0.306449
-0.307613 -0.078549 0.311277
-0.307613 -0.036426 0.270719
0.307976 -0.078549 0.311277
0.307976 -0.070445 0.316122
-0.307613 0.035171 0.359233
-0.307613 0.043788 0.350339
-0.307613 -0.031346 0.276711
-0.307613 -0.039301 0.273144
-0.307613 -0.043255 0.271042
0.307976 -0.043255 0.271042
0.307976 -0.039301 0.273144
-0.307613 -0.049648 0.275933
0.307976 -0.046828 0.278750
0.307976 -0.039964 0.285605
0.307976 -0.080129 0.306449
0.307976 -0.049648 0.275933
0.307976 -0.036426 0.270719
0.307976 0.043788 0.350339
0.307976 0.035171 0.359233
0.307976 0.046689 0.347346
-0.307613 -0.046828 0.278750
-0.307613 -0.039964 0.285605
-0.307613 -0.028446 0.273718
0.307976 -0.028446 0.273718
0.307976 -0.031346 0.276711
-0.307613 0.046689 0.547131
-0.307613 -0.040041 0.469836
0.307976 -0.040041 0.469836
-0.307613 -0.070445 0.515907
-0.307613 -0.080129 0.506234
-0.307613 -0.078549 0.511062
-0.307613 -0.036426 0.470504
0.307976 -0.078549 0.511062
0.307976 -0.070445 0.515907
-0.307613 0.035171 0.559018
-0.307613 0.043788 0.550124
-0.307613 -0.031346 0.476496
-0.307613 -0.039301 0.472929
-0.307613 -0.043255 0.470827
0.307976 -0.043255 0.470827
0.307976 -0.039301 0.472929
-0.307613 -0.049648 0.475718
0.307976 -0.046828 0.478535
0.307976 -0.039964 0.485390
0.307976 -0.080129 0.506234
0.307976 -0.049648 0.475718
0.307976 -0.036426 0.470504
0.307976 0.043788 0.550124
0.307976 0.035171 0.559018
0.307976 0.046689 0.547131
-0.307613 -0.046828 0.478535
-0.307613 -0.039964 0.485390
-0.307613 -0.028446 0.473503
0.307976 -0.028446 0.473503
0.307976 -0.031346 0.476496
</float_array>
          <technique_common>
            <accessor source="#foodcreator_shelf-lib-Position-array" count="178" stride="3">
              <param name="X" type="float"/>
              <param name="Y" type="float"/>
              <param name="Z" type="float"/>
            </accessor>
          </technique_common>
        </source>
        <source id="foodcreator_shelf-lib-Normal0">
          <float_array id="foodcreator_shelf-lib-Normal0-array" count="3060">
-0.975918 -0.218138 0.000000
-0.693675 -0.720288 0.000000
-0.693674 -0.720289 0.000000
-0.693674 -0.720289 0.000000
-0.975918 -0.218138 0.000000
-0.975918 -0.218138 0.000000
0.468852 -0.170571 0.866651
0.065251 -0.253230 0.965203
0.120700 -0.111415 0.986417
0.120700 -0.111415 0.986417
0.242655 -0.088279 0.966088
0.468852 -0.170571 0.866651
0.000000 1.000000 0.000000
0.000000 1.000000 0.000000
0.000000 1.000000 0.000000
0.000000 1.000000 0.000000
0.000000 1.000000 0.000000
0.000000 1.000000 0.000000
0.242659 -0.088281 -0.966086
0.120703 -0.111417 -0.986416
0.065253 -0.253235 -0.965202
0.065253 -0.253235 -0.965202
0.468859 -0.170574 -0.866646
0.242659 -0.088281 -0.966086
1.000000 0.000000 0.000000
1.000000 0.000000 0.000000
1.000000 0.000000 0.000000
1.000000 0.000000 0.000000
1.000000 0.000000 0.000000
1.000000 0.000000 0.000000
-1.000000 0.000000 0.000000
-1.000000 0.000000 0.000000
-1.000000 0.000000 0.000000
-1.000000 0.000000 0.000000
-1.000000 0.000000 0.000000
-1.000000 0.000000 0.000000
0.000000 -0.000000 1.000000
0.000000 -0.000000 1.000000
0.000000 -0.000000 1.000000
0.000000 -0.000000 1.000000
0.000000 -0.000000 1.000000
0.000000 -0.000000 1.000000
-1.000000 0.000000 0.000000
-1.000000 0.000000 0.000000
-1.000000 0.000000 0.000000
-1.000000 0.000000 0.000000
-1.000000 0.000000 0.000000
-1.000000 0.000000 0.000000
0.000000 0.000000 -1.000000
0.000000 0.000000 -1.000000
0.000000 0.000000 -1.000000
0.000000 0.000000 -1.000000
0.000000 0.000000 -1.000000
0.000000 0.000000 -1.000000
1.000000 0.000000 0.000000
1.000000 0.000000 0.000000
1.000000 0.000000 0.000000
1.000000 0.000000 0.000000
1.000000 0.000000 0.000000
1.000000 0.000000 0.000000
0.242655 -0.088279 0.966088
0.120700 -0.111415 0.986417
0.000000 -0.000000 1.000000
0.000000 -0.000000 1.000000
0.000000 -0.000000 1.000000
0.242655 -0.088279 0.966088
-1.000000 0.000000 0.000000
-1.000000 0.000000 0.000000
-1.000000 0.000000 0.000000
-1.000000 0.000000 0.000000
-1.000000 0.000000 0.000000
-1.000000 0.000000 0.000000
0.000000 0.000000 -1.000000
0.000000 0.000000 -1.000000
0.120703 -0.111417 -0.986416
0.120703 -0.111417 -0.986416
0.242659 -0.088281 -0.966086
0.000000 0.000000 -1.000000
1.000000 0.000000 0.000000
1.000000 0.000000 0.000000
1.000000 0.000000 0.000000
1.000000 0.000000 0.000000
1.000000 0.000000 0.000000
1.000000 0.000000 0.000000
1.000000 0.000000 0.000000
1.000000 0.000000 0.000000
1.000000 0.000000 0.000000
1.000000 0.000000 0.000000
1.000000 0.000000 0.000000
1.000000 0.000000 0.000000
-1.000000 0.000000 0.000000
-1.000000 0.000000 0.000000
-1.000000 0.000000 0.000000
-1.000000 0.000000 0.000000
-1.000000 0.000000 0.000000
-1.000000 0.000000 0.000000
0.000000 -0.000000 1.000000
0.000000 -0.000000 1.000000
0.000000 -0.000000 1.000000
0.000000 -0.000000 1.000000
0.000000 -0.000000 1.000000
0.000000 -0.000000 1.000000
-1.000000 0.000000 0.000000
-1.000000 0.000000 0.000000
-1.000000 0.000000 0.000000
-1.000000 0.000000 0.000000
-1.000000 0.000000 0.000000
-1.000000 0.000000 0.000000
0.000000 0.000000 -1.000000
0.000000 0.000000 -1.000000
0.000000 0.000000 -1.000000
0.000000 0.000000 -1.000000
0.000000 0.000000 -1.000000
0.000000 0.000000 -1.000000
1.000000 0.000000 0.000000
1.000000 0.000000 0.000000
1.000000 0.000000 0.000000
1.000000 0.000000 0.000000
1.000000 0.000000 0.000000
1.000000 0.000000 0.000000
0.000000 -0.262212 0.965010
0.000000 -0.262212 0.965010
0.000000 -0.132268 0.991214
0.000000 -0.132268 0.991214
0.000000 -0.132268 0.991214
0.000000 -0.262212 0.965010
0.000000 -0.000000 1.000000
0.000000 -0.132268 0.991214
0.000000 -0.132268 0.991214
0.000000 -0.132268 0.991214
0.000000 -0.000000 1.000000
0.000000 -0.000000 1.000000
0.000000 -1.000000 -0.000000
0.000000 -1.000000 -0.000000
0.000000 -1.000000 -0.000000
0.000000 -1.000000 -0.000000
0.000000 -1.000000 -0.000000
0.000000 -1.000000 -0.000000
0.000000 0.000000 1.000000
0.000000 0.000000 1.000000
0.000000 0.000000 1.000000
0.000000 0.000000 1.000000
0.000000 0.000000 1.000000
0.000000 0.000000 1.000000
0.000000 1.000000 0.000000
0.000000 1.000000 0.000000
0.000000 1.000000 0.000000
0.000000 1.000000 0.000000
0.000000 1.000000 0.000000
0.000000 1.000000 0.000000
0.000000 -0.000000 1.000000
0.000000 -0.000000 1.000000
0.000000 -0.000000 1.000000
0.000000 -0.000000 1.000000
0.000000 -0.000000 1.000000
0.000000 -0.000000 1.000000
0.000000 1.000000 0.000000
0.000000 1.000000 0.000000
0.000000 1.000000 0.000000
0.000000 1.000000 0.000000
0.000000 1.000000 0.000000
0.000000 1.000000 0.000000
0.000000 0.000000 -1.000000
0.000000 0.000000 -1.000000
0.000000 0.000000 -1.000000
0.000000 0.000000 -1.000000
0.000000 0.000000 -1.000000
0.000000 0.000000 -1.000000
0.000000 0.000000 -1.000000
0.000000 0.000000 -1.000000
0.000000 0.000000 -1.000000
0.000000 0.000000 -1.000000
0.000000 0.000000 -1.000000
0.000000 0.000000 -1.000000
0.000000 -0.132271 -0.991214
0.000000 -0.132271 -0.991214
0.000000 0.000000 -1.000000
0.000000 0.000000 -1.000000
0.000000 0.000000 -1.000000
0.000000 -0.132271 -0.991214
0.000000 -0.262217 -0.965009
0.000000 -0.132271 -0.991214
0.000000 -0.132271 -0.991214
0.000000 -0.132271 -0.991214
0.000000 -0.262217 -0.965009
0.000000 -0.262217 -0.965009
0.000000 -1.000000 0.000000
0.000000 -1.000000 0.000000
0.000000 -1.000000 0.000000
0.000000 -1.000000 0.000000
0.000000 -1.000000 0.000000
0.000000 -1.000000 0.000000
0.000000 -0.262212 0.965010
0.000000 -0.262212 0.965010
0.000000 -0.132268 0.991214
0.000000 -0.132268 0.991214
0.000000 -0.132268 0.991214
0.000000 -0.262212 0.965010
0.000000 -0.000000 1.000000
0.000000 -0.132268 0.991214
0.000000 -0.132268 0.991214
0.000000 -0.132268 0.991214
0.000000 -0.000000 1.000000
0.000000 -0.000000 1.000000
0.000000 0.000000 1.000000
0.000000 0.000000 1.000000
0.000000 0.000000 1.000000
0.000000 0.000000 1.000000
0.000000 0.000000 1.000000
0.000000 0.000000 1.000000
0.000000 -0.000000 1.000000
0.000000 -0.000000 1.000000
0.000000 -0.000000 1.000000
0.000000 -0.000000 1.000000
0.000000 -0.000000 1.000000
0.000000 -0.000000 1.000000
0.000000 1.000000 0.000000
0.000000 1.000000 0.000000
0.000000 1.000000 0.000000
0.000000 1.000000 0.000000
0.000000 1.000000 0.000000
0.000000 1.000000 0.000000
0.000000 0.000000 -1.000000
0.000000 0.000000 -1.000000
0.000000 0.000000 -1.000000
0.000000 0.000000 -1.000000
0.000000 0.000000 -1.000000
0.000000 0.000000 -1.000000
0.000000 0.000000 -1.000000
0.000000 0.000000 -1.000000
0.000000 0.000000 -1.000000
0.000000 0.000000 -1.000000
0.000000 0.000000 -1.000000
0.000000 0.000000 -1.000000
0.000000 -0.132271 -0.991214
0.000000 -0.132271 -0.991214
0.000000 0.000000 -1.000000
0.000000 0.000000 -1.000000
0.000000 0.000000 -1.000000
0.000000 -0.132271 -0.991214
0.000000 -0.262217 -0.965009
0.000000 -0.132271 -0.991214
0.000000 -0.132271 -0.991214
0.000000 -0.132271 -0.991214
0.000000 -0.262217 -0.965009
0.000000 -0.262217 -0.965009
0.000000 -1.000000 0.000000
0.000000 -1.000000 0.000000
0.000000 -1.000000 0.000000
0.000000 -1.000000 0.000000
0.000000 -1.000000 0.000000
0.000000 -1.000000 0.000000
0.000000 -0.262212 0.965010
0.000000 -0.262212 0.965010
0.000000 -0.132268 0.991214
0.000000 -0.132268 0.991214
0.000000 -0.132268 0.991214
0.000000 -0.262212 0.965010
0.000000 -0.000000 1.000000
0.000000 -0.132268 0.991214
0.000000 -0.132268 0.991214
0.000000 -0.132268 0.991214
0.000000 -0.000000 1.000000
0.000000 -0.000000 1.000000
0.000000 -0.000000 1.000000
0.000000 -0.000000 1.000000
0.000000 -0.000000 1.000000
0.000000 -0.000000 1.000000
0.000000 -0.000000 1.000000
0.000000 -0.000000 1.000000
0.000000 -0.000000 1.000000
0.000000 -0.000000 1.000000
0.000000 -0.000000 1.000000
0.000000 -0.000000 1.000000
0.000000 -0.000000 1.000000
0.000000 -0.000000 1.000000
0.000000 1.000000 0.000000
0.000000 1.000000 0.000000
0.000000 1.000000 0.000000
0.000000 1.000000 0.000000
0.000000 1.000000 0.000000
0.000000 1.000000 0.000000
0.000000 0.000000 -1.000000
0.000000 0.000000 -1.000000
0.000000 0.000000 -1.000000
0.000000 0.000000 -1.000000
0.000000 0.000000 -1.000000
0.000000 0.000000 -1.000000
0.000000 0.000000 -1.000000
0.000000 0.000000 -1.000000
0.000000 0.000000 -1.000000
0.000000 0.000000 -1.000000
0.000000 0.000000 -1.000000
0.000000 0.000000 -1.000000
0.000000 -0.132271 -0.991214
0.000000 -0.132271 -0.991214
0.000000 0.000000 -1.000000
0.000000 0.000000 -1.000000
0.000000 0.000000 -1.000000
0.000000 -0.132271 -0.991214
0.000000 -0.262217 -0.965009
0.000000 -0.132271 -0.991214
0.000000 -0.132271 -0.991214
0.000000 -0.132271 -0.991214
0.000000 -0.262217 -0.965009
0.000000 -0.262217 -0.965009
0.000000 -1.000000 0.000000
0.000000 -1.000000 0.000000
0.000000 -1.000000 0.000000
0.000000 -1.000000 0.000000
0.000000 -1.000000 0.000000
0.000000 -1.000000 0.000000
0.065251 -0.253230 0.965203
0.000000 -0.262212 0.965010
0.000000 -0.132268 0.991214
0.000000 -0.132268 0.991214
0.120700 -0.111415 0.986417
0.065251 -0.253230 0.965203
0.000000 -0.000000 1.000000
0.120700 -0.111415 0.986417
0.000000 -0.132268 0.991214
0.000000 -0.132268 0.991214
0.000000 -0.000000 1.000000
0.000000 -0.000000 1.000000
0.000000 -0.000000 1.000000
0.000000 -0.000000 1.000000
0.000000 -0.000000 1.000000
0.000000 -0.000000 1.000000
0.000000 -0.000000 1.000000
0.000000 -0.000000 1.000000
0.000000 -0.000000 1.000000
0.000000 -0.000000 1.000000
0.000000 -0.000000 1.000000
0.000000 -0.000000 1.000000
0.000000 -0.000000 1.000000
0.000000 -0.000000 1.000000
0.000000 1.000000 0.000000
0.000000 1.000000 0.000000
0.000000 1.000000 0.000000
0.000000 1.000000 0.000000
0.000000 1.000000 0.000000
0.000000 1.000000 0.000000
0.000000 0.000000 -1.000000
0.000000 0.000000 -1.000000
0.000000 0.000000 -1.000000
0.000000 0.000000 -1.000000
0.000000 0.000000 -1.000000
0.000000 0.000000 -1.000000
0.000000 0.000000 -1.000000
0.000000 0.000000 -1.000000
0.000000 0.000000 -1.000000
0.000000 0.000000 -1.000000
0.000000 0.000000 -1.000000
0.000000 0.000000 -1.000000
0.120703 -0.111417 -0.986416
0.000000 0.000000 -1.000000
0.000000 0.000000 -1.000000
0.000000 0.000000 -1.000000
0.000000 -0.132271 -0.991214
0.120703 -0.111417 -0.986416
0.065253 -0.253235 -0.965202
0.120703 -0.111417 -0.986416
0.000000 -0.132271 -0.991214
0.000000 -0.132271 -0.991214
0.000000 -0.262217 -0.965009
0.065253 -0.253235 -0.965202
-0.693674 -0.720289 0.000000
-0.693675 -0.720288 0.000000
0.000000 -1.000000 0.000000
0.000000 -1.000000 0.000000
0.000000 -1.000000 0.000000
-0.693674 -0.720289 0.000000
-0.069966 -0.254750 0.964473
-0.575004 -0.157994 0.802751
-0.302822 -0.083207 0.949408
-0.302822 -0.083207 0.949408
-0.149956 -0.109586 0.982601
-0.069966 -0.254750 0.964473
0.000000 -0.000000 1.000000
-0.149956 -0.109586 0.982601
-0.302822 -0.083207 0.949408
-0.302822 -0.083207 0.949408
0.000000 -0.000000 1.000000
0.000000 -0.000000 1.000000
0.000000 -0.000000 1.000000
0.000000 -0.000000 1.000000
0.000000 -0.000000 1.000000
0.000000 -0.000000 1.000000
0.000000 -0.000000 1.000000
0.000000 -0.000000 1.000000
0.000000 -0.000000 1.000000
0.000000 -0.000000 1.000000
0.000000 -0.000000 1.000000
0.000000 -0.000000 1.000000
0.000000 -0.000000 1.000000
0.000000 -0.000000 1.000000
0.000000 1.000000 0.000000
0.000000 1.000000 0.000000
0.000000 1.000000 0.000000
0.000000 1.000000 0.000000
0.000000 1.000000 0.000000
0.000000 1.000000 0.000000
0.000000 0.000000 -1.000000
0.000000 0.000000 -1.000000
0.000000 0.000000 -1.000000
0.000000 0.000000 -1.000000
0.000000 0.000000 -1.000000
0.000000 0.000000 -1.000000
0.000000 0.000000 -1.000000
0.000000 0.000000 -1.000000
0.000000 0.000000 -1.000000
0.000000 0.000000 -1.000000
0.000000 0.000000 -1.000000
0.000000 0.000000 -1.000000
-0.302827 -0.083208 -0.949406
-0.149959 -0.109588 -0.982600
0.000000 0.000000 -1.000000
0.000000 0.000000 -1.000000
0.000000 0.000000 -1.000000
-0.302827 -0.083208 -0.949406
-0.069967 -0.254755 -0.964471
-0.149959 -0.109588 -0.982600
-0.302827 -0.083208 -0.949406
-0.302827 -0.083208 -0.949406
-0.575012 -0.157997 -0.802744
-0.069967 -0.254755 -0.964471
0.716442 -0.697647 0.000000
0.716443 -0.697646 0.000000
0.986048 -0.166463 0.000000
0.986048 -0.166463 0.000000
0.986048 -0.166463 0.000000
0.716442 -0.697647 0.000000
0.000000 -0.262212 0.965010
-0.069966 -0.254750 0.964473
-0.149956 -0.109586 0.982601
-0.149956 -0.109586 0.982601
0.000000 -0.132268 0.991214
0.000000 -0.262212 0.965010
0.000000 -0.000000 1.000000
0.000000 -0.132268 0.991214
-0.149956 -0.109586 0.982601
-0.149956 -0.109586 0.982601
0.000000 -0.000000 1.000000
0.000000 -0.000000 1.000000
0.000000 -0.000000 1.000000
0.000000 -0.000000 1.000000
0.000000 -0.000000 1.000000
0.000000 -0.000000 1.000000
0.000000 -0.000000 1.000000
0.000000 -0.000000 1.000000
0.000000 -0.000000 1.000000
0.000000 -0.000000 1.000000
0.000000 -0.000000 1.000000
0.000000 -0.000000 1.000000
0.000000 -0.000000 1.000000
0.000000 -0.000000 1.000000
0.000000 1.000000 0.000000
0.000000 1.000000 0.000000
0.000000 1.000000 0.000000
0.000000 1.000000 0.000000
0.000000 1.000000 0.000000
0.000000 1.000000 0.000000
0.000000 0.000000 -1.000000
0.000000 0.000000 -1.000000
0.000000 0.000000 -1.000000
0.000000 0.000000 -1.000000
0.000000 0.000000 -1.000000
0.000000 0.000000 -1.000000
0.000000 0.000000 -1.000000
0.000000 0.000000 -1.000000
0.000000 0.000000 -1.000000
0.000000 0.000000 -1.000000
0.000000 0.000000 -1.000000
0.000000 0.000000 -1.000000
-0.149959 -0.109588 -0.982600
0.000000 -0.132271 -0.991214
0.000000 0.000000 -1.000000
0.000000 0.000000 -1.000000
0.000000 0.000000 -1.000000
-0.149959 -0.109588 -0.982600
0.000000 -0.262217 -0.965009
0.000000 -0.132271 -0.991214
-0.149959 -0.109588 -0.982600
-0.149959 -0.109588 -0.982600
-0.069967 -0.254755 -0.964471
0.000000 -0.262217 -0.965009
0.000000 -1.000000 0.000000
0.000000 -1.000000 0.000000
0.716443 -0.697646 0.000000
0.716443 -0.697646 0.000000
0.716442 -0.697647 0.000000
0.000000 -1.000000 0.000000
0.000000 -1.000000 -0.000000
0.000000 -1.000000 -0.000000
0.000000 -1.000000 -0.000000
0.000000 -1.000000 -0.000000
0.000000 -1.000000 -0.000000
0.000000 -1.000000 -0.000000
-1.000000 0.000000 0.000000
-1.000000 0.000000 0.000000
-1.000000 0.000000 0.000000
-1.000000 0.000000 0.000000
-1.000000 0.000000 0.000000
-1.000000 0.000000 0.000000
0.000000 1.000000 0.000000
0.000000 1.000000 0.000000
0.000000 1.000000 0.000000
0.000000 1.000000 0.000000
0.000000 1.000000 0.000000
0.000000 1.000000 0.000000
1.000000 0.000000 0.000000
1.000000 0.000000 0.000000
1.000000 0.000000 0.000000
1.000000 0.000000 0.000000
1.000000 0.000000 0.000000
1.000000 0.000000 0.000000
-1.000000 0.000000 0.000000
-1.000000 0.000000 0.000000
-1.000000 0.000000 0.000000
-1.000000 0.000000 0.000000
-1.000000 0.000000 0.000000
-1.000000 0.000000 0.000000
-1.000000 0.000000 0.000000
-1.000000 0.000000 0.000000
-1.000000 0.000000 0.000000
-1.000000 0.000000 0.000000
-1.000000 0.000000 0.000000
-1.000000 0.000000 0.000000
1.000000 0.000000 0.000000
1.000000 0.000000 0.000000
1.000000 0.000000 0.000000
1.000000 0.000000 0.000000
1.000000 0.000000 0.000000
1.000000 0.000000 0.000000
1.000000 0.000000 0.000000
1.000000 0.000000 0.000000
1.000000 0.000000 0.000000
1.000000 0.000000 0.000000
1.000000 0.000000 0.000000
1.000000 0.000000 0.000000
-1.000000 0.000000 0.000000
-1.000000 0.000000 0.000000
-1.000000 0.000000 0.000000
-1.000000 0.000000 0.000000
-1.000000 0.000000 0.000000
-1.000000 0.000000 0.000000
-1.000000 0.000000 0.000000
-1.000000 0.000000 0.000000
-1.000000 0.000000 0.000000
-1.000000 0.000000 0.000000
-1.000000 0.000000 0.000000
-1.000000 0.000000 0.000000
1.000000 0.000000 0.000000
1.000000 0.000000 0.000000
1.000000 0.000000 0.000000
1.000000 0.000000 0.000000
1.000000 0.000000 0.000000
1.000000 0.000000 0.000000
1.000000 0.000000 0.000000
1.000000 0.000000 0.000000
1.000000 0.000000 0.000000
1.000000 0.000000 0.000000
1.000000 0.000000 0.000000
1.000000 0.000000 0.000000
0.000000 -0.781276 0.624186
0.000000 -0.781276 0.624186
0.000000 -0.513121 0.858316
0.000000 -0.513121 0.858316
0.000000 -0.513121 0.858316
0.000000 -0.781276 0.624186
0.000000 -0.950424 0.310956
0.000000 -0.950424 0.310956
0.000000 -0.781276 0.624186
0.000000 -0.781276 0.624186
0.000000 -0.781276 0.624186
0.000000 -0.950424 0.310956
0.000000 -0.458287 -0.888804
0.000000 -0.458287 -0.888804
0.000000 -0.607571 -0.794265
0.000000 -0.607571 -0.794265
0.000000 -0.607571 -0.794265
0.000000 -0.458287 -0.888804
0.000000 -0.294693 -0.955592
0.000000 -0.294693 -0.955592
0.000000 -0.458287 -0.888804
0.000000 -0.458287 -0.888804
0.000000 -0.458287 -0.888804
0.000000 -0.294693 -0.955592
0.000000 0.267824 -0.963468
0.000000 0.267824 -0.963468
0.000000 0.181783 -0.983339
0.000000 0.181783 -0.983339
0.000000 0.181783 -0.983339
0.000000 0.267824 -0.963468
-0.705833 0.249191 -0.663101
0.705833 0.249191 -0.663101
0.000000 0.267824 -0.963468
0.000000 0.267824 -0.963468
0.000000 0.267824 -0.963468
-0.705833 0.249191 -0.663101
0.000000 0.718175 0.695862
0.000000 0.718175 0.695862
0.000000 0.718173 0.695865
0.000000 0.718173 0.695865
0.000000 0.718173 0.695865
0.000000 0.718175 0.695862
0.000000 0.718177 0.695860
0.000000 0.718177 0.695860
0.000000 0.718175 0.695862
0.000000 0.718175 0.695862
0.000000 0.718175 0.695862
0.000000 0.718177 0.695860
1.000000 0.000000 0.000000
1.000000 0.000000 0.000000
1.000000 0.000000 0.000000
1.000000 0.000000 0.000000
1.000000 0.000000 0.000000
1.000000 0.000000 0.000000
1.000000 0.000000 0.000000
1.000000 0.000000 0.000000
1.000000 0.000000 0.000000
1.000000 0.000000 0.000000
1.000000 0.000000 0.000000
1.000000 0.000000 0.000000
0.000000 -0.707520 -0.706693
0.000000 -0.707520 -0.706693
0.000000 -0.707520 -0.706693
0.000000 -0.707520 -0.706693
0.000000 -0.707520 -0.706693
0.000000 -0.707520 -0.706693
-1.000000 0.000000 0.000000
-1.000000 0.000000 0.000000
-1.000000 0.000000 0.000000
-1.000000 0.000000 0.000000
-1.000000 0.000000 0.000000
-1.000000 0.000000 0.000000
-1.000000 0.000000 0.000000
-1.000000 0.000000 0.000000
-1.000000 0.000000 0.000000
-1.000000 0.000000 0.000000
-1.000000 0.000000 0.000000
-1.000000 0.000000 0.000000
0.000000 0.707520 0.706693
0.000000 0.707520 0.706693
0.000000 0.707520 0.706693
0.000000 0.707520 0.706693
0.000000 0.707520 0.706693
0.000000 0.707520 0.706693
0.000000 -0.699907 0.714234
0.000000 -0.699907 0.714234
0.000000 -0.699907 0.714234
0.000000 -0.699907 0.714234
0.000000 -0.699907 0.714234
0.000000 -0.699907 0.714234
-1.000000 0.000000 0.000000
-1.000000 0.000000 0.000000
-1.000000 0.000000 0.000000
-1.000000 0.000000 0.000000
-1.000000 0.000000 0.000000
-1.000000 0.000000 0.000000
-0.705833 0.249191 -0.663101
-1.000000 0.000000 0.000000
-1.000000 0.000000 0.000000
-1.000000 0.000000 0.000000
-1.000000 0.000000 0.000000
-0.705833 0.249191 -0.663101
0.000000 0.699907 -0.714234
0.000000 0.699907 -0.714234
0.000000 0.699907 -0.714234
0.000000 0.699907 -0.714234
0.000000 0.699907 -0.714234
0.000000 0.699907 -0.714234
1.000000 0.000000 0.000000
1.000000 0.000000 0.000000
1.000000 0.000000 0.000000
1.000000 0.000000 0.000000
0.705833 0.249191 -0.663101
1.000000 0.000000 0.000000
1.000000 0.000000 0.000000
1.000000 0.000000 0.000000
1.000000 0.000000 0.000000
1.000000 0.000000 0.000000
1.000000 0.000000 0.000000
1.000000 0.000000 0.000000
-1.000000 0.000000 0.000000
-1.000000 0.000000 0.000000
-1.000000 0.000000 0.000000
-1.000000 0.000000 0.000000
-1.000000 0.000000 0.000000
-1.000000 0.000000 0.000000
-1.000000 0.000000 0.000000
-1.000000 0.000000 0.000000
-1.000000 0.000000 0.000000
-1.000000 0.000000 0.000000
-1.000000 0.000000 0.000000
-1.000000 0.000000 0.000000
1.000000 0.000000 0.000000
1.000000 0.000000 0.000000
1.000000 0.000000 0.000000
1.000000 0.000000 0.000000
1.000000 0.000000 0.000000
1.000000 0.000000 0.000000
1.000000 0.000000 0.000000
1.000000 0.000000 0.000000
1.000000 0.000000 0.000000
1.000000 0.000000 0.000000
1.000000 0.000000 0.000000
1.000000 0.000000 0.000000
-1.000000 0.000000 0.000000
-1.000000 0.000000 0.000000
-1.000000 0.000000 0.000000
-1.000000 0.000000 0.000000
-1.000000 0.000000 0.000000
-1.000000 0.000000 0.000000
-1.000000 0.000000 0.000000
-1.000000 0.000000 0.000000
-1.000000 0.000000 0.000000
-1.000000 0.000000 0.000000
-1.000000 0.000000 0.000000
-1.000000 0.000000 0.000000
1.000000 0.000000 0.000000
1.000000 0.000000 0.000000
1.000000 0.000000 0.000000
1.000000 0.000000 0.000000
1.000000 0.000000 0.000000
1.000000 0.000000 0.000000
1.000000 0.000000 0.000000
1.000000 0.000000 0.000000
1.000000 0.000000 0.000000
1.000000 0.000000 0.000000
1.000000 0.000000 0.000000
1.000000 0.000000 0.000000
0.000000 -0.781277 0.624185
0.000000 -0.781277 0.624185
0.000000 -0.513124 0.858315
0.000000 -0.513124 0.858315
0.000000 -0.513124 0.858315
0.000000 -0.781277 0.624185
0.000000 -0.950424 0.310956
0.000000 -0.950424 0.310956
0.000000 -0.781277 0.624185
0.000000 -0.781277 0.624185
0.000000 -0.781277 0.624185
0.000000 -0.950424 0.310956
0.000000 -0.458288 -0.888804
0.000000 -0.458288 -0.888804
0.000000 -0.607574 -0.794263
0.000000 -0.607574 -0.794263
0.000000 -0.607574 -0.794263
0.000000 -0.458288 -0.888804
0.000000 -0.294693 -0.955592
0.000000 -0.294693 -0.955592
0.000000 -0.458288 -0.888804
0.000000 -0.458288 -0.888804
0.000000 -0.458288 -0.888804
0.000000 -0.294693 -0.955592
0.000000 0.267825 -0.963468
0.000000 0.267825 -0.963468
0.000000 0.181787 -0.983338
0.000000 0.181787 -0.983338
0.000000 0.181787 -0.983338
0.000000 0.267825 -0.963468
-0.705832 0.249189 -0.663103
0.705832 0.249189 -0.663103
0.000000 0.267825 -0.963468
0.000000 0.267825 -0.963468
0.000000 0.267825 -0.963468
-0.705832 0.249189 -0.663103
0.000000 0.718175 0.695862
0.000000 0.718175 0.695862
0.000000 0.718173 0.695865
0.000000 0.718173 0.695865
0.000000 0.718173 0.695865
0.000000 0.718175 0.695862
0.000000 0.718177 0.695860
0.000000 0.718177 0.695860
0.000000 0.718175 0.695862
0.000000 0.718175 0.695862
0.000000 0.718175 0.695862
0.000000 0.718177 0.695860
1.000000 0.000000 0.000000
1.000000 0.000000 0.000000
1.000000 0.000000 0.000000
1.000000 0.000000 0.000000
1.000000 0.000000 0.000000
1.000000 0.000000 0.000000
1.000000 0.000000 0.000000
1.000000 0.000000 0.000000
1.000000 0.000000 0.000000
1.000000 0.000000 0.000000
1.000000 0.000000 0.000000
1.000000 0.000000 0.000000
0.000000 -0.707520 -0.706693
0.000000 -0.707520 -0.706693
0.000000 -0.707520 -0.706693
0.000000 -0.707520 -0.706693
0.000000 -0.707520 -0.706693
0.000000 -0.707520 -0.706693
-1.000000 0.000000 0.000000
-1.000000 0.000000 0.000000
-1.000000 0.000000 0.000000
-1.000000 0.000000 0.000000
-1.000000 0.000000 0.000000
-1.000000 0.000000 0.000000
-1.000000 0.000000 0.000000
-1.000000 0.000000 0.000000
-1.000000 0.000000 0.000000
-1.000000 0.000000 0.000000
-1.000000 0.000000 0.000000
-1.000000 0.000000 0.000000
0.000000 0.707520 0.706693
0.000000 0.707520 0.706693
0.000000 0.707520 0.706693
0.000000 0.707520 0.706693
0.000000 0.707520 0.706693
0.000000 0.707520 0.706693
0.000000 -0.699907 0.714234
0.000000 -0.699907 0.714234
0.000000 -0.699907 0.714234
0.000000 -0.699907 0.714234
0.000000 -0.699907 0.714234
0.000000 -0.699907 0.714234
-1.000000 0.000000 0.000000
-1.000000 0.000000 0.000000
-1.000000 0.000000 0.000000
-1.000000 0.000000 0.000000
-1.000000 0.000000 0.000000
-1.000000 0.000000 0.000000
-0.705832 0.249189 -0.663103
-1.000000 0.000000 0.000000
-1.000000 0.000000 0.000000
-1.000000 0.000000 0.000000
-1.000000 0.000000 0.000000
-0.705832 0.249189 -0.663103
0.000000 0.699907 -0.714234
0.000000 0.699907 -0.714234
0.000000 0.699907 -0.714234
0.000000 0.699907 -0.714234
0.000000 0.699907 -0.714234
0.000000 0.699907 -0.714234
1.000000 0.000000 0.000000
1.000000 0.000000 0.000000
1.000000 0.000000 0.000000
1.000000 0.000000 0.000000
0.705832 0.249189 -0.663103
1.000000 0.000000 0.000000
1.000000 0.000000 0.000000
1.000000 0.000000 0.000000
1.000000 0.000000 0.000000
1.000000 0.000000 0.000000
1.000000 0.000000 0.000000
1.000000 0.000000 0.000000
-1.000000 0.000000 0.000000
-1.000000 0.000000 0.000000
-1.000000 0.000000 0.000000
-1.000000 0.000000 0.000000
-1.000000 0.000000 0.000000
-1.000000 0.000000 0.000000
-1.000000 0.000000 0.000000
-1.000000 0.000000 0.000000
-1.000000 0.000000 0.000000
-1.000000 0.000000 0.000000
-1.000000 0.000000 0.000000
-1.000000 0.000000 0.000000
1.000000 0.000000 0.000000
1.000000 0.000000 0.000000
1.000000 0.000000 0.000000
1.000000 0.000000 0.000000
1.000000 0.000000 0.000000
1.000000 0.000000 0.000000
1.000000 0.000000 0.000000
1.000000 0.000000 0.000000
1.000000 0.000000 0.000000
1.000000 0.000000 0.000000
1.000000 0.000000 0.000000
1.000000 0.000000 0.000000
-1.000000 0.000000 0.000000
-1.000000 0.000000 0.000000
-1.000000 0.000000 0.000000
-1.000000 0.000000 0.000000
-1.000000 0.000000 0.000000
-1.000000 0.000000 0.000000
-1.000000 0.000000 0.000000
-1.000000 0.000000 0.000000
-1.000000 0.000000 0.000000
-1.000000 0.000000 0.000000
-1.000000 0.000000 0.000000
-1.000000 0.000000 0.000000
1.000000 0.000000 0.000000
1.000000 0.000000 0.000000
1.000000 0.000000 0.000000
1.000000 0.000000 0.000000
1.000000 0.000000 0.000000
1.000000 0.000000 0.000000
1.000000 0.000000 0.000000
1.000000 0.000000 0.000000
1.000000 0.000000 0.000000
1.000000 0.000000 0.000000
1.000000 0.000000 0.000000
1.000000 0.000000 0.000000
0.000000 -0.781275 0.624187
0.000000 -0.781275 0.624187
0.000000 -0.513119 0.858317
0.000000 -0.513119 0.858317
0.000000 -0.513119 0.858317
0.000000 -0.781275 0.624187
0.000000 -0.950424 0.310956
0.000000 -0.950424 0.310956
0.000000 -0.781275 0.624187
0.000000 -0.781275 0.624187
0.000000 -0.781275 0.624187
0.000000 -0.950424 0.310956
0.000000 -0.458286 -0.888805
0.000000 -0.458286 -0.888805
0.000000 -0.607569 -0.794267
0.000000 -0.607569 -0.794267
0.000000 -0.607569 -0.794267
0.000000 -0.458286 -0.888805
0.000000 -0.294693 -0.955592
0.000000 -0.294693 -0.955592
0.000000 -0.458286 -0.888805
0.000000 -0.458286 -0.888805
0.000000 -0.458286 -0.888805
0.000000 -0.294693 -0.955592
0.000000 0.267823 -0.963468
0.000000 0.267823 -0.963468
0.000000 0.181787 -0.983338
0.000000 0.181787 -0.983338
0.000000 0.181787 -0.983338
0.000000 0.267823 -0.963468
-0.705832 0.249187 -0.663104
0.705832 0.249187 -0.663104
0.000000 0.267823 -0.963468
0.000000 0.267823 -0.963468
0.000000 0.267823 -0.963468
-0.705832 0.249187 -0.663104
0.000000 0.718174 0.695864
0.000000 0.718174 0.695864
0.000000 0.718169 0.695868
0.000000 0.718169 0.695868
0.000000 0.718169 0.695868
0.000000 0.718174 0.695864
0.000000 0.718178 0.695859
0.000000 0.718178 0.695859
0.000000 0.718174 0.695864
0.000000 0.718174 0.695864
0.000000 0.718174 0.695864
0.000000 0.718178 0.695859
1.000000 0.000000 0.000000
1.000000 0.000000 0.000000
1.000000 0.000000 0.000000
1.000000 0.000000 0.000000
1.000000 0.000000 0.000000
1.000000 0.000000 0.000000
1.000000 0.000000 0.000000
1.000000 0.000000 0.000000
1.000000 0.000000 0.000000
1.000000 0.000000 0.000000
1.000000 0.000000 0.000000
1.000000 0.000000 0.000000
0.000000 -0.707520 -0.706693
0.000000 -0.707520 -0.706693
0.000000 -0.707520 -0.706693
0.000000 -0.707520 -0.706693
0.000000 -0.707520 -0.706693
0.000000 -0.707520 -0.706693
-1.000000 0.000000 0.000000
-1.000000 0.000000 0.000000
-1.000000 0.000000 0.000000
-1.000000 0.000000 0.000000
-1.000000 0.000000 0.000000
-1.000000 0.000000 0.000000
-1.000000 0.000000 0.000000
-1.000000 0.000000 0.000000
-1.000000 0.000000 0.000000
-1.000000 0.000000 0.000000
-1.000000 0.000000 0.000000
-1.000000 0.000000 0.000000
0.000000 0.707519 0.706694
0.000000 0.707519 0.706694
0.000000 0.707519 0.706694
0.000000 0.707519 0.706694
0.000000 0.707519 0.706694
0.000000 0.707519 0.706694
0.000000 -0.699907 0.714234
0.000000 -0.699907 0.714234
0.000000 -0.699907 0.714234
0.000000 -0.699907 0.714234
0.000000 -0.699907 0.714234
0.000000 -0.699907 0.714234
-1.000000 0.000000 0.000000
-1.000000 0.000000 0.000000
-1.000000 0.000000 0.000000
-1.000000 0.000000 0.000000
-1.000000 0.000000 0.000000
-1.000000 0.000000 0.000000
-0.705832 0.249187 -0.663104
-1.000000 0.000000 0.000000
-1.000000 0.000000 0.000000
-1.000000 0.000000 0.000000
-1.000000 0.000000 0.000000
-0.705832 0.249187 -0.663104
0.000000 0.699907 -0.714234
0.000000 0.699907 -0.714234
0.000000 0.699907 -0.714234
0.000000 0.699907 -0.714234
0.000000 0.699907 -0.714234
0.000000 0.699907 -0.714234
1.000000 0.000000 0.000000
1.000000 0.000000 0.000000
1.000000 0.000000 0.000000
1.000000 0.000000 0.000000
0.705832 0.249187 -0.663104
1.000000 0.000000 0.000000
1.000000 0.000000 0.000000
1.000000 0.000000 0.000000
1.000000 0.000000 0.000000
1.000000 0.000000 0.000000
1.000000 0.000000 0.000000
1.000000 0.000000 0.000000
</float_array>
          <technique_common>
            <accessor source="#foodcreator_shelf-lib-Normal0-array" count="1020" stride="3">
              <param name="X" type="float"/>
              <param name="Y" type="float"/>
              <param name="Z" type="float"/>
            </accessor>
          </technique_common>
        </source>
        <source id="foodcreator_shelf-lib-UV0">
          <float_array id="foodcreator_shelf-lib-UV0-array" count="548">
0.961327 0.949430
0.960366 0.956833
0.368117 0.245744
0.369188 0.245744
0.369181 0.253195
0.368118 0.248531
0.959426 0.945129
0.368077 0.103702
0.369148 0.103702
0.961079 0.944782
0.369161 0.149856
0.368090 0.149856
0.961171 0.793099
0.368105 0.202378
0.369176 0.202378
0.959606 0.792998
0.336176 0.674169
0.276728 0.674167
0.958604 0.720013
0.961078 0.720113
0.959572 0.876287
0.276204 0.663855
0.336695 0.663856
0.961152 0.876188
0.960983 0.149856
0.950932 0.149856
0.950919 0.103703
0.960970 0.103703
0.960998 0.202378
0.950947 0.202378
0.090129 0.956441
0.075098 0.956525
0.076081 0.944604
0.091139 0.944455
0.091051 0.875999
0.075966 0.876075
0.961010 0.245744
0.950959 0.245744
0.950952 0.253195
0.961003 0.253195
0.091788 0.720131
0.091035 0.793062
0.075955 0.792971
0.076797 0.720040
0.928707 0.956633
0.913679 0.956543
0.912670 0.944560
0.927729 0.944712
0.400373 0.149856
0.390322 0.149856
0.390309 0.103702
0.400360 0.103702
0.400388 0.202378
0.390337 0.202378
0.400400 0.245744
0.390350 0.245744
0.024674 0.668629
0.024674 0.030648
0.037014 0.030648
0.037172 0.668629
0.117449 0.030648
0.185544 0.030648
0.185544 0.668629
0.117449 0.668629
0.105109 0.030648
0.104951 0.668629
0.042686 0.952135
0.272901 0.035232
0.339997 0.035232
0.016920 0.716975
0.193646 0.035232
0.260742 0.035232
0.260742 0.663856
0.193646 0.663856
0.390343 0.253195
0.400394 0.253195
0.352156 0.035232
0.352156 0.663856
0.983215 0.149856
0.982407 0.149856
0.927853 0.876185
0.912774 0.876103
0.927048 0.720144
0.927887 0.793080
0.912803 0.793165
0.912060 0.720236
0.043051 0.956722
0.042411 0.949314
0.042743 0.946279
0.044012 0.944998
0.043846 0.876172
0.042663 0.876684
0.043843 0.792882
0.042664 0.792397
0.044839 0.719902
0.042751 0.718364
0.982394 0.103703
0.983202 0.103703
0.983230 0.202378
0.982422 0.202378
0.983242 0.245744
0.982434 0.245744
0.982427 0.253195
0.983243 0.248531
0.986181 0.948918
0.983041 0.956076
0.964269 0.956075
0.961130 0.948918
0.986181 0.944521
0.020140 0.959498
0.986183 0.876086
0.039455 0.959499
0.986186 0.793204
0.016917 0.791914
0.986189 0.720372
0.016913 0.877194
0.959384 0.720159
0.914706 0.975381
0.957795 0.695224
0.959387 0.695224
0.929778 0.975383
0.926319 0.695221
0.041898 0.975273
0.911370 0.695219
0.074024 0.975277
0.092480 0.695117
0.089096 0.975279
0.077531 0.695115
0.961512 0.975387
0.045666 0.695111
0.044460 0.720045
0.044463 0.695111
0.016910 0.952134
0.016911 0.947609
0.104793 0.680854
0.037330 0.680854
0.904931 0.329406
0.909683 0.328473
0.911194 0.330676
0.906648 0.330951
0.902848 0.331073
0.904683 0.331112
0.905698 0.669976
0.903975 0.671512
0.901909 0.669816
0.903750 0.669797
0.910241 0.670285
0.908732 0.672450
0.899442 0.328727
0.902060 0.323762
0.898581 0.330939
0.898506 0.672149
0.897650 0.669907
0.901164 0.677188
0.871848 0.330728
0.871052 0.669522
0.865834 0.669443
0.866597 0.330748
0.874681 0.330700
0.873866 0.669588
0.973198 0.330625
0.972471 0.670709
0.968611 0.670555
0.969370 0.330763
0.984690 0.330629
0.983950 0.670755
0.872643 0.672180
0.873986 0.677521
0.873627 0.328022
0.875149 0.322667
0.842191 0.669256
0.842766 0.330734
0.784054 0.669110
0.784456 0.330785
0.843010 0.323693
0.784271 0.323766
0.843053 0.321332
0.784250 0.321406
0.783909 0.678505
0.783920 0.676145
0.842573 0.676223
0.842638 0.678579
0.714689 0.327366
0.719496 0.326421
0.721025 0.328648
0.716426 0.328927
0.712583 0.329052
0.714439 0.329091
0.715547 0.671856
0.713804 0.673409
0.711715 0.671694
0.713577 0.671674
0.720143 0.672166
0.718617 0.674357
0.709137 0.326679
0.711784 0.321656
0.708267 0.328917
0.708274 0.674054
0.707407 0.671788
0.710962 0.679151
0.681227 0.328710
0.680502 0.671405
0.675224 0.671326
0.675914 0.328731
0.684092 0.328682
0.683349 0.671470
0.583225 0.328376
0.582898 0.671403
0.577947 0.671507
0.578274 0.328263
0.592829 0.328403
0.592503 0.671395
0.682112 0.674093
0.683472 0.679495
0.683025 0.325972
0.684563 0.320556
0.651309 0.671143
0.651809 0.328723
0.652055 0.321601
0.592639 0.321689
0.652097 0.319213
0.592617 0.319303
0.779871 0.328713
0.779186 0.672434
0.592358 0.680512
0.592369 0.678125
0.651697 0.678189
0.651764 0.680573
0.508770 0.330671
0.513522 0.329738
0.515033 0.331941
0.510487 0.332216
0.506687 0.332339
0.508522 0.332377
0.509537 0.671241
0.507814 0.672777
0.505748 0.671080
0.507589 0.671062
0.514081 0.671550
0.512571 0.673715
0.503281 0.329992
0.505899 0.325027
0.502421 0.332204
0.502346 0.673414
0.501489 0.671173
0.505002 0.678453
0.475688 0.331993
0.474890 0.670787
0.469673 0.670708
0.470436 0.332013
0.478520 0.331965
0.477705 0.670852
0.378801 0.331640
0.378398 0.670763
0.373503 0.670865
0.373906 0.331526
0.388296 0.331668
0.387893 0.670757
0.476482 0.673445
0.477826 0.678786
0.477467 0.329287
0.478988 0.323932
0.446029 0.670522
0.446605 0.331999
0.446850 0.324958
0.388110 0.325031
0.446892 0.322597
0.388089 0.322671
0.573210 0.332019
0.572451 0.671829
0.387748 0.679770
0.387759 0.677410
0.446413 0.677487
0.446478 0.679845
</float_array>
          <technique_common>
            <accessor source="#foodcreator_shelf-lib-UV0-array" count="274" stride="2">
              <param name="S" type="float"/>
              <param name="T" type="float"/>
            </accessor>
          </technique_common>
        </source>
        <vertices id="foodcreator_shelf-lib-Vertex">
          <input semantic="POSITION" source="#foodcreator_shelf-lib-Position"/>
        </vertices>
        <polygons material="foodcreator_shelf" count="340">
          <input semantic="VERTEX" offset="0" source="#foodcreator_shelf-lib-Vertex"/>
          <input semantic="NORMAL" offset="1" source="#foodcreator_shelf-lib-Normal0"/>
          <input semantic="TEXCOORD" offset="2" set="0" source="#foodcreator_shelf-lib-UV0"/>
          <p>0 0 104 69 1 105 60 2 106</p>
          <p>60 3 106 2 4 107 0 5 104</p>
          <p>2 6 0 60 7 1 61 8 6</p>
          <p>61 9 6 17 10 9 2 11 0</p>
          <p>4 12 116 64 13 18 65 14 118</p>
          <p>65 15 118 6 16 119 4 17 116</p>
          <p>18 18 2 68 19 3 69 20 4</p>
          <p>69 21 4 0 22 5 18 23 2</p>
          <p>1 24 132 23 25 133 16 26 88</p>
          <p>16 27 88 3 28 66 1 29 132</p>
          <p>18 30 108 0 31 104 2 32 107</p>
          <p>2 33 107 17 34 9 18 35 108</p>
          <p>10 36 12 63 37 15 64 38 18</p>
          <p>64 39 18 4 40 19 10 41 12</p>
          <p>6 42 114 11 43 112 10 44 12</p>
          <p>10 45 12 4 46 19 6 47 114</p>
          <p>6 48 7 65 49 8 66 50 10</p>
          <p>66 51 10 11 52 11 6 53 7</p>
          <p>7 54 93 32 55 113 28 56 69</p>
          <p>28 57 69 5 58 95 7 59 93</p>
          <p>17 60 9 61 61 6 62 62 20</p>
          <p>62 63 20 37 64 23 17 65 9</p>
          <p>38 66 110 18 67 108 17 68 9</p>
          <p>17 69 9 37 70 23 38 71 110</p>
          <p>38 72 13 67 73 14 68 74 3</p>
          <p>68 75 3 18 76 2 38 77 13</p>
          <p>16 78 88 23 79 133 15 80 115</p>
          <p>15 81 115 33 82 91 16 83 88</p>
          <p>34 84 21 40 85 67 29 86 68</p>
          <p>29 87 68 12 88 22 34 89 21</p>
          <p>8 90 70 35 91 71 42 92 72</p>
          <p>42 93 72 30 94 73 8 95 70</p>
          <p>37 96 23 62 97 20 63 98 15</p>
          <p>63 99 15 10 100 12 37 101 23</p>
          <p>11 102 112 38 103 110 37 104 23</p>
          <p>37 105 23 10 106 12 11 107 112</p>
          <p>11 108 11 66 109 10 67 110 14</p>
          <p>67 111 14 38 112 13 11 113 11</p>
          <p>33 114 91 15 115 115 32 116 113</p>
          <p>32 117 113 7 118 93 33 119 91</p>
          <p>53 120 30 39 121 31 80 122 32</p>
          <p>80 123 32 41 124 33 53 125 30</p>
          <p>35 126 34 41 127 33 80 128 32</p>
          <p>80 129 32 40 130 35 35 131 34</p>
          <p>42 132 72 35 133 71 40 134 67</p>
          <p>40 135 67 34 136 21 42 137 72</p>
          <p>30 138 16 42 139 17 34 140 21</p>
          <p>34 141 21 12 142 22 30 143 16</p>
          <p>29 144 68 8 145 76 30 146 77</p>
          <p>30 147 77 12 148 22 29 149 68</p>
          <p>43 150 40 8 151 41 29 152 42</p>
          <p>29 153 42 81 154 43 43 155 40</p>
          <p>26 156 125 43 157 40 81 158 43</p>
          <p>81 159 43 27 160 127 26 161 125</p>
          <p>82 162 24 44 163 25 26 164 26</p>
          <p>26 165 26 27 166 27 82 167 24</p>
          <p>83 168 28 45 169 29 44 170 25</p>
          <p>44 171 25 82 172 24 83 173 28</p>
          <p>22 174 36 21 175 37 45 176 29</p>
          <p>45 177 29 83 178 28 22 179 36</p>
          <p>46 180 38 21 181 37 22 182 36</p>
          <p>22 183 36 84 184 39 46 185 38</p>
          <p>53 186 30 46 187 126 84 188 124</p>
          <p>84 189 124 39 190 31 53 191 30</p>
          <p>59 192 44 47 193 45 54 194 46</p>
          <p>54 195 46 48 196 47 59 197 44</p>
          <p>85 198 80 48 199 47 54 200 46</p>
          <p>54 201 46 87 202 81 85 203 80</p>
          <p>31 204 134 14 205 135 36 206 59</p>
          <p>36 207 59 13 208 65 31 209 134</p>
          <p>49 210 82 9 211 83 86 212 84</p>
          <p>86 213 84 55 214 85 49 215 82</p>
          <p>24 216 121 49 217 82 55 218 85</p>
          <p>55 219 85 25 220 123 24 221 121</p>
          <p>56 222 48 50 223 49 24 224 50</p>
          <p>24 225 50 25 226 51 56 227 48</p>
          <p>57 228 52 51 229 53 50 230 49</p>
          <p>50 231 49 56 232 48 57 233 52</p>
          <p>20 234 54 19 235 55 51 236 53</p>
          <p>51 237 53 57 238 52 20 239 54</p>
          <p>52 240 74 19 241 55 20 242 54</p>
          <p>20 243 54 58 244 75 52 245 74</p>
          <p>59 246 44 52 247 120 58 248 117</p>
          <p>58 249 117 47 250 45 59 251 44</p>
          <p>47 252 45 53 253 30 41 254 33</p>
          <p>41 255 33 54 256 46 47 257 45</p>
          <p>87 258 81 54 259 46 41 260 33</p>
          <p>41 261 33 35 262 34 87 263 81</p>
          <p>86 264 84 87 265 81 35 266 34</p>
          <p>35 267 34 8 268 41 86 269 84</p>
          <p>55 270 85 86 271 84 8 272 41</p>
          <p>8 273 41 43 274 40 55 275 85</p>
          <p>25 276 123 55 277 85 43 278 40</p>
          <p>43 279 40 26 280 125 25 281 123</p>
          <p>44 282 25 56 283 48 25 284 51</p>
          <p>25 285 51 26 286 26 44 287 25</p>
          <p>45 288 29 57 289 52 56 290 48</p>
          <p>56 291 48 44 292 25 45 293 29</p>
          <p>21 294 37 20 295 54 57 296 52</p>
          <p>57 297 52 45 298 29 21 299 37</p>
          <p>58 300 75 20 301 54 21 302 37</p>
          <p>21 303 37 46 304 38 58 305 75</p>
          <p>47 306 45 58 307 117 46 308 126</p>
          <p>46 309 126 53 310 30 47 311 45</p>
          <p>60 312 1 59 313 44 48 314 47</p>
          <p>48 315 47 61 316 6 60 317 1</p>
          <p>62 318 20 61 319 6 48 320 47</p>
          <p>48 321 47 85 322 80 62 323 20</p>
          <p>63 324 15 62 325 20 85 326 80</p>
          <p>85 327 80 9 328 83 63 329 15</p>
          <p>64 330 18 63 331 15 9 332 83</p>
          <p>9 333 83 49 334 82 64 335 18</p>
          <p>65 336 118 64 337 18 49 338 82</p>
          <p>49 339 82 24 340 121 65 341 118</p>
          <p>66 342 10 65 343 8 24 344 50</p>
          <p>24 345 50 50 346 49 66 347 10</p>
          <p>67 348 14 66 349 10 50 350 49</p>
          <p>50 351 49 51 352 53 67 353 14</p>
          <p>68 354 3 67 355 14 51 356 53</p>
          <p>51 357 53 19 358 55 68 359 3</p>
          <p>69 360 4 68 361 3 19 362 55</p>
          <p>19 363 55 52 364 74 69 365 4</p>
          <p>60 366 1 69 367 128 52 368 120</p>
          <p>52 369 120 59 370 44 60 371 1</p>
          <p>70 372 86 3 373 87 16 374 88</p>
          <p>16 375 88 71 376 89 70 377 86</p>
          <p>72 378 90 71 379 89 16 380 88</p>
          <p>16 381 88 33 382 91 72 383 90</p>
          <p>73 384 92 72 385 90 33 386 91</p>
          <p>33 387 91 7 388 93 73 389 92</p>
          <p>74 390 94 73 391 92 7 392 93</p>
          <p>7 393 93 5 394 95 74 395 94</p>
          <p>75 396 129 74 397 94 5 398 130</p>
          <p>5 399 130 28 400 131 75 401 129</p>
          <p>32 402 78 76 403 79 75 404 96</p>
          <p>75 405 96 28 406 97 32 407 78</p>
          <p>15 408 98 77 409 99 76 410 79</p>
          <p>76 411 79 32 412 78 15 413 98</p>
          <p>23 414 100 78 415 101 77 416 99</p>
          <p>77 417 99 15 418 98 23 419 100</p>
          <p>79 420 102 78 421 101 23 422 100</p>
          <p>23 423 100 1 424 103 79 425 102</p>
          <p>70 426 111 79 427 109 1 428 132</p>
          <p>1 429 132 3 430 66 70 431 111</p>
          <p>39 432 31 70 433 86 71 434 89</p>
          <p>71 435 89 80 436 32 39 437 31</p>
          <p>40 438 35 80 439 32 71 440 89</p>
          <p>71 441 89 72 442 90 40 443 35</p>
          <p>29 444 42 40 445 35 72 446 90</p>
          <p>72 447 90 73 448 92 29 449 42</p>
          <p>81 450 43 29 451 42 73 452 92</p>
          <p>73 453 92 74 454 94 81 455 43</p>
          <p>27 456 127 81 457 43 74 458 94</p>
          <p>74 459 94 75 460 129 27 461 127</p>
          <p>76 462 79 82 463 24 27 464 27</p>
          <p>27 465 27 75 466 96 76 467 79</p>
          <p>77 468 99 83 469 28 82 470 24</p>
          <p>82 471 24 76 472 79 77 473 99</p>
          <p>78 474 101 22 475 36 83 476 28</p>
          <p>83 477 28 77 478 99 78 479 101</p>
          <p>84 480 39 22 481 36 78 482 101</p>
          <p>78 483 101 79 484 102 84 485 39</p>
          <p>39 486 31 84 487 124 79 488 122</p>
          <p>79 489 122 70 490 86 39 491 31</p>
          <p>14 492 56 85 493 57 87 494 58</p>
          <p>87 495 58 36 496 59 14 497 56</p>
          <p>9 498 60 85 499 61 14 500 62</p>
          <p>14 501 62 31 502 63 9 503 60</p>
          <p>86 504 64 9 505 60 31 506 63</p>
          <p>31 507 63 13 508 65 86 509 64</p>
          <p>36 510 59 87 511 58 86 512 64</p>
          <p>86 513 64 13 514 65 36 515 59</p>
          <p>100 516 136 99 517 137 115 518 138</p>
          <p>115 519 138 94 520 139 100 521 136</p>
          <p>101 522 140 100 523 136 94 524 139</p>
          <p>94 525 139 89 526 141 101 527 140</p>
          <p>109 528 142 103 529 143 102 530 144</p>
          <p>102 531 144 90 532 145 109 533 142</p>
          <p>116 534 146 117 535 147 103 536 143</p>
          <p>103 537 143 109 538 142 116 539 146</p>
          <p>113 540 148 114 541 149 99 542 137</p>
          <p>99 543 137 100 544 136 113 545 148</p>
          <p>104 546 150 113 547 148 100 548 136</p>
          <p>100 549 136 101 550 140 104 551 150</p>
          <p>103 552 143 105 553 151 108 554 152</p>
          <p>108 555 152 102 556 144 103 557 143</p>
          <p>117 558 147 106 559 153 105 560 151</p>
          <p>105 561 151 103 562 143 117 563 147</p>
          <p>93 564 154 95 565 155 96 566 156</p>
          <p>96 567 156 91 568 157 93 569 154</p>
          <p>92 570 158 107 571 159 95 572 155</p>
          <p>95 573 155 93 574 154 92 575 158</p>
          <p>101 576 140 102 577 144 108 578 152</p>
          <p>108 579 152 104 580 150 101 581 140</p>
          <p>89 582 141 90 583 145 102 584 144</p>
          <p>102 585 144 101 586 140 89 587 141</p>
          <p>94 588 139 109 589 142 90 590 145</p>
          <p>90 591 145 89 592 141 94 593 139</p>
          <p>115 594 138 116 595 146 109 596 142</p>
          <p>109 597 142 94 598 139 115 599 138</p>
          <p>98 600 160 110 601 161 112 602 162</p>
          <p>112 603 162 88 604 163 98 605 160</p>
          <p>97 606 164 111 607 165 110 608 161</p>
          <p>110 609 161 98 610 160 97 611 164</p>
          <p>95 612 166 105 613 151 106 614 153</p>
          <p>106 615 153 96 616 167 95 617 166</p>
          <p>108 618 152 105 619 151 95 620 166</p>
          <p>95 621 166 107 622 159 108 623 152</p>
          <p>104 624 150 108 625 152 107 626 159</p>
          <p>107 627 159 92 628 158 104 629 150</p>
          <p>113 630 148 104 631 150 92 632 158</p>
          <p>92 633 158 93 634 168 113 635 148</p>
          <p>114 636 149 113 637 148 93 638 168</p>
          <p>93 639 168 91 640 169 114 641 149</p>
          <p>96 642 156 106 643 170 114 644 171</p>
          <p>114 645 171 91 646 157 96 647 156</p>
          <p>114 648 171 106 649 170 111 650 172</p>
          <p>111 651 172 97 652 173 114 653 171</p>
          <p>99 654 174 114 655 171 97 656 173</p>
          <p>97 657 173 98 658 175 99 659 174</p>
          <p>115 660 176 99 661 174 98 662 175</p>
          <p>98 663 175 88 664 177 115 665 176</p>
          <p>88 666 163 112 667 162 116 668 146</p>
          <p>116 669 146 115 670 138 88 671 163</p>
          <p>112 672 178 110 673 179 117 674 180</p>
          <p>117 675 180 116 676 181 112 677 178</p>
          <p>110 678 179 111 679 172 106 680 170</p>
          <p>106 681 170 117 682 180 110 683 179</p>
          <p>130 684 182 129 685 183 145 686 184</p>
          <p>145 687 184 124 688 185 130 689 182</p>
          <p>131 690 186 130 691 182 124 692 185</p>
          <p>124 693 185 119 694 187 131 695 186</p>
          <p>139 696 188 133 697 189 132 698 190</p>
          <p>132 699 190 120 700 191 139 701 188</p>
          <p>146 702 192 147 703 193 133 704 189</p>
          <p>133 705 189 139 706 188 146 707 192</p>
          <p>143 708 194 144 709 195 129 710 183</p>
          <p>129 711 183 130 712 182 143 713 194</p>
          <p>134 714 196 143 715 194 130 716 182</p>
          <p>130 717 182 131 718 186 134 719 196</p>
          <p>133 720 189 135 721 197 138 722 198</p>
          <p>138 723 198 132 724 190 133 725 189</p>
          <p>147 726 193 136 727 199 135 728 197</p>
          <p>135 729 197 133 730 189 147 731 193</p>
          <p>123 732 200 125 733 201 126 734 202</p>
          <p>126 735 202 121 736 203 123 737 200</p>
          <p>122 738 204 137 739 205 125 740 201</p>
          <p>125 741 201 123 742 200 122 743 204</p>
          <p>131 744 186 132 745 190 138 746 198</p>
          <p>138 747 198 134 748 196 131 749 186</p>
          <p>119 750 187 120 751 191 132 752 190</p>
          <p>132 753 190 131 754 186 119 755 187</p>
          <p>124 756 185 139 757 188 120 758 191</p>
          <p>120 759 191 119 760 187 124 761 185</p>
          <p>145 762 184 146 763 192 139 764 188</p>
          <p>139 765 188 124 766 185 145 767 184</p>
          <p>128 768 206 140 769 207 142 770 208</p>
          <p>142 771 208 118 772 209 128 773 206</p>
          <p>127 774 210 141 775 211 140 776 207</p>
          <p>140 777 207 128 778 206 127 779 210</p>
          <p>125 780 212 135 781 197 136 782 199</p>
          <p>136 783 199 126 784 213 125 785 212</p>
          <p>138 786 198 135 787 197 125 788 212</p>
          <p>125 789 212 137 790 205 138 791 198</p>
          <p>134 792 196 138 793 198 137 794 205</p>
          <p>137 795 205 122 796 204 134 797 196</p>
          <p>143 798 194 134 799 196 122 800 204</p>
          <p>122 801 204 123 802 214 143 803 194</p>
          <p>144 804 195 143 805 194 123 806 214</p>
          <p>123 807 214 121 808 215 144 809 195</p>
          <p>126 810 202 136 811 216 144 812 217</p>
          <p>144 813 217 121 814 203 126 815 202</p>
          <p>144 816 217 136 817 216 141 818 211</p>
          <p>141 819 211 127 820 210 144 821 217</p>
          <p>129 822 218 144 823 217 127 824 210</p>
          <p>127 825 210 128 826 219 129 827 218</p>
          <p>145 828 220 129 829 218 128 830 219</p>
          <p>128 831 219 118 832 221 145 833 220</p>
          <p>118 834 222 142 835 223 146 836 192</p>
          <p>146 837 192 145 838 184 118 839 222</p>
          <p>142 840 224 140 841 225 147 842 226</p>
          <p>147 843 226 146 844 227 142 845 224</p>
          <p>140 846 225 141 847 211 136 848 216</p>
          <p>136 849 216 147 850 226 140 851 225</p>
          <p>160 852 228 159 853 229 175 854 230</p>
          <p>175 855 230 154 856 231 160 857 228</p>
          <p>161 858 232 160 859 228 154 860 231</p>
          <p>154 861 231 149 862 233 161 863 232</p>
          <p>169 864 234 163 865 235 162 866 236</p>
          <p>162 867 236 150 868 237 169 869 234</p>
          <p>176 870 238 177 871 239 163 872 235</p>
          <p>163 873 235 169 874 234 176 875 238</p>
          <p>173 876 240 174 877 241 159 878 229</p>
          <p>159 879 229 160 880 228 173 881 240</p>
          <p>164 882 242 173 883 240 160 884 228</p>
          <p>160 885 228 161 886 232 164 887 242</p>
          <p>163 888 235 165 889 243 168 890 244</p>
          <p>168 891 244 162 892 236 163 893 235</p>
          <p>177 894 239 166 895 245 165 896 243</p>
          <p>165 897 243 163 898 235 177 899 239</p>
          <p>153 900 246 155 901 247 156 902 248</p>
          <p>156 903 248 151 904 249 153 905 246</p>
          <p>152 906 250 167 907 251 155 908 247</p>
          <p>155 909 247 153 910 246 152 911 250</p>
          <p>161 912 232 162 913 236 168 914 244</p>
          <p>168 915 244 164 916 242 161 917 232</p>
          <p>149 918 233 150 919 237 162 920 236</p>
          <p>162 921 236 161 922 232 149 923 233</p>
          <p>154 924 231 169 925 234 150 926 237</p>
          <p>150 927 237 149 928 233 154 929 231</p>
          <p>175 930 230 176 931 238 169 932 234</p>
          <p>169 933 234 154 934 231 175 935 230</p>
          <p>158 936 252 170 937 253 172 938 254</p>
          <p>172 939 254 148 940 255 158 941 252</p>
          <p>157 942 256 171 943 257 170 944 253</p>
          <p>170 945 253 158 946 252 157 947 256</p>
          <p>155 948 258 165 949 243 166 950 245</p>
          <p>166 951 245 156 952 259 155 953 258</p>
          <p>168 954 244 165 955 243 155 956 258</p>
          <p>155 957 258 167 958 251 168 959 244</p>
          <p>164 960 242 168 961 244 167 962 251</p>
          <p>167 963 251 152 964 250 164 965 242</p>
          <p>173 966 240 164 967 242 152 968 250</p>
          <p>152 969 250 153 970 260 173 971 240</p>
          <p>174 972 241 173 973 240 153 974 260</p>
          <p>153 975 260 151 976 261 174 977 241</p>
          <p>156 978 248 166 979 262 174 980 263</p>
          <p>174 981 263 151 982 249 156 983 248</p>
          <p>174 984 263 166 985 262 171 986 257</p>
          <p>171 987 257 157 988 256 174 989 263</p>
          <p>159 990 264 174 991 263 157 992 256</p>
          <p>157 993 256 158 994 265 159 995 264</p>
          <p>175 996 266 159 997 264 158 998 265</p>
          <p>158 999 265 148 1000 267 175 1001 266</p>
          <p>148 1002 268 172 1003 269 176 1004 238</p>
          <p>176 1005 238 175 1006 230 148 1007 268</p>
          <p>172 1008 270 170 1009 271 177 1010 272</p>
          <p>177 1011 272 176 1012 273 172 1013 270</p>
          <p>170 1014 271 171 1015 257 166 1016 262</p>
          <p>166 1017 262 177 1018 272 170 1019 271</p>
        </polygons>
      </mesh>
    </geometry>
  </library_geometries>
  <library_visual_scenes>
    <visual_scene id="RootNode" name="RootNode">
      <node id="foodcreator_shelf" name="foodcreator_shelf">
        <matrix sid="matrix">1.000000 0.000000 0.000000 0.000000 0.000000 0.000000 1.000000 0.000000 0.000000 -1.000000 0.000000 0.000000 0.000000 0.000000 0.000000 1.000000</matrix>
        <instance_geometry url="#foodcreator_shelf-lib">
          <bind_material>
            <technique_common>
              <instance_material symbol="foodcreator_shelf" target="#foodcreator_shelf"/>
            </technique_common>
          </bind_material>
        </instance_geometry>
      </node>
    </visual_scene>
  </library_visual_scenes>
  <scene>
    <instance_visual_scene url="#RootNode"/>
  </scene>
</COLLADA>

