<?xml version="1.0" encoding="utf-8"?>
<COLLADA xmlns="http://www.collada.org/2005/11/COLLADASchema" version="1.4.0">
  <asset>
    <contributor>
      <author></author>
      <authoring_tool>FBX COLLADA exporter</authoring_tool>
      <comments></comments>
    </contributor>
    <created>2014-01-28T22:40:42Z</created>
    <modified>2014-01-28T22:40:42Z</modified>
    <revision></revision>
    <title></title>
    <subject></subject>
    <keywords></keywords>
    <unit meter="1.000000"/>
    <up_axis>Y_UP</up_axis>
  </asset>
  <library_images>
    <image id="Map__1-image" name="Map__1">
      <init_from>file://C:\ABP Work Files\multitool_trolley_ark_room\multitool_trolley_ark_room\tech\multitool_trolley_ark_room\multitool_trolley_ark_room.dds</init_from>
    </image>
  </library_images>
  <library_materials>
    <material id="_02___Default" name="_02___Default">
      <instance_effect url="#_02___Default-fx"/>
    </material>
  </library_materials>
  <library_effects>
    <effect id="_02___Default-fx" name="_02___Default">
      <profile_COMMON>
        <technique sid="standard">
          <phong>
            <emission>
              <color sid="emission">0.000000  0.000000 0.000000 1.000000</color>
            </emission>
            <ambient>
              <color sid="ambient">0.588235  0.588235 0.588235 1.000000</color>
            </ambient>
            <diffuse>
              <texture texture="Map__1-image" texcoord="CHANNEL0">
                <extra>
                  <technique profile="MAYA">
                    <wrapU sid="wrapU0">TRUE</wrapU>
                    <wrapV sid="wrapV0">TRUE</wrapV>
                    <blend_mode>ADD</blend_mode>
                  </technique>
                </extra>
              </texture>
            </diffuse>
            <specular>
              <color sid="specular">0.000000  0.000000 0.000000 1.000000</color>
            </specular>
            <shininess>
              <float sid="shininess">2.000000</float>
            </shininess>
            <reflective>
              <color sid="reflective">0.000000  0.000000 0.000000 1.000000</color>
            </reflective>
            <reflectivity>
              <float sid="reflectivity">1.000000</float>
            </reflectivity>
            <transparent>
              <color sid="transparent">1.000000  1.000000 1.000000 1.000000</color>
            </transparent>
            <transparency>
              <float sid="transparency">0.000000</float>
            </transparency>
          </phong>
        </technique>
      </profile_COMMON>
    </effect>
  </library_effects>
  <library_geometries>
    <geometry id="multitool_trolley_ark_room_wheel3-lib" name="multitool_trolley_ark_room_wheel3Mesh">
      <mesh>
        <source id="multitool_trolley_ark_room_wheel3-lib-Position">
          <float_array id="multitool_trolley_ark_room_wheel3-lib-Position-array" count="60">
0.258641 -0.289924 -0.008031
0.333829 -0.289924 -0.008031
0.333829 -0.228686 0.014258
0.333829 -0.196102 0.070695
0.333829 -0.207418 0.134873
0.333829 -0.257340 0.176762
0.333829 -0.322508 0.176762
0.333829 -0.372429 0.134873
0.333829 -0.383746 0.070695
0.333829 -0.351162 0.014258
0.272722 -0.289924 0.087239
0.319747 -0.289924 0.087239
0.258641 -0.228686 0.014258
0.258641 -0.196102 0.070695
0.258641 -0.207418 0.134873
0.258641 -0.257340 0.176762
0.258641 -0.322508 0.176762
0.258641 -0.372429 0.134873
0.258641 -0.383746 0.070695
0.258641 -0.351162 0.014258
</float_array>
          <technique_common>
            <accessor source="#multitool_trolley_ark_room_wheel3-lib-Position-array" count="20" stride="3">
              <param name="X" type="float"/>
              <param name="Y" type="float"/>
              <param name="Z" type="float"/>
            </accessor>
          </technique_common>
        </source>
        <source id="multitool_trolley_ark_room_wheel3-lib-Normal0">
          <float_array id="multitool_trolley_ark_room_wheel3-lib-Normal0-array" count="324">
0.000000 0.000000 -1.000000
0.000000 0.642788 -0.766044
0.000000 0.642788 -0.766044
0.000000 0.642788 -0.766044
0.000000 0.000000 -1.000000
0.000000 0.000000 -1.000000
0.000000 0.642788 -0.766044
0.000000 0.984808 -0.173648
0.000000 0.984808 -0.173649
0.000000 0.984808 -0.173649
0.000000 0.642788 -0.766044
0.000000 0.642788 -0.766044
0.000000 0.984808 -0.173648
0.000000 0.866025 0.500000
0.000000 0.866025 0.500000
0.000000 0.866025 0.500000
0.000000 0.984808 -0.173649
0.000000 0.984808 -0.173648
0.000000 0.866025 0.500000
0.000000 0.342020 0.939693
0.000000 0.342020 0.939693
0.000000 0.342020 0.939693
0.000000 0.866025 0.500000
0.000000 0.866025 0.500000
0.000000 0.342020 0.939693
0.000000 -0.342020 0.939693
0.000000 -0.342020 0.939693
0.000000 -0.342020 0.939693
0.000000 0.342020 0.939693
0.000000 0.342020 0.939693
0.000000 -0.342020 0.939693
0.000000 -0.866025 0.500000
0.000000 -0.866025 0.500000
0.000000 -0.866025 0.500000
0.000000 -0.342020 0.939693
0.000000 -0.342020 0.939693
0.000000 -0.866025 0.500000
0.000000 -0.984808 -0.173647
0.000000 -0.984808 -0.173648
0.000000 -0.984808 -0.173648
0.000000 -0.866025 0.500000
0.000000 -0.866025 0.500000
0.000000 -0.984808 -0.173647
0.000000 -0.642788 -0.766044
0.000000 -0.642788 -0.766044
0.000000 -0.642788 -0.766044
0.000000 -0.984808 -0.173648
0.000000 -0.984808 -0.173647
0.000000 -0.642788 -0.766044
0.000000 0.000000 -1.000000
0.000000 0.000000 -1.000000
0.000000 0.000000 -1.000000
0.000000 -0.642788 -0.766044
0.000000 -0.642788 -0.766044
-0.989252 -0.093987 0.112009
-0.989252 -0.000000 0.146217
-1.000000 0.000000 0.000000
-0.989252 -0.143996 0.025390
-0.989252 -0.093987 0.112009
-1.000000 0.000000 0.000000
-0.989253 -0.126628 -0.073109
-0.989252 -0.143996 0.025390
-1.000000 0.000000 0.000000
-0.989252 -0.050009 -0.137399
-0.989253 -0.126628 -0.073109
-1.000000 0.000000 0.000000
-0.989252 0.050009 -0.137399
-0.989252 -0.050009 -0.137399
-1.000000 0.000000 0.000000
-0.989253 0.126628 -0.073109
-0.989252 0.050009 -0.137399
-1.000000 0.000000 0.000000
-0.989252 0.143996 0.025390
-0.989253 0.126628 -0.073109
-1.000000 0.000000 0.000000
-0.989253 0.093987 0.112009
-0.989252 0.143996 0.025390
-1.000000 0.000000 0.000000
-1.000000 0.000000 0.000000
-0.989252 -0.000000 0.146217
-0.989253 0.093987 0.112009
1.000000 -0.000000 0.000000
0.989253 -0.000000 0.146217
0.989253 -0.093987 0.112009
1.000000 -0.000000 0.000000
0.989253 -0.093987 0.112009
0.989253 -0.143996 0.025391
1.000000 -0.000000 0.000000
0.989253 -0.143996 0.025391
0.989253 -0.126627 -0.073108
1.000000 -0.000000 0.000000
0.989253 -0.126627 -0.073108
0.989253 -0.050009 -0.137399
1.000000 -0.000000 0.000000
0.989253 -0.050009 -0.137399
0.989253 0.050009 -0.137399
1.000000 -0.000000 0.000000
0.989253 0.050009 -0.137399
0.989253 0.126627 -0.073108
1.000000 -0.000000 0.000000
0.989253 0.126627 -0.073108
0.989253 0.143996 0.025390
1.000000 -0.000000 0.000000
0.989253 0.143996 0.025390
0.989253 0.093987 0.112008
1.000000 -0.000000 0.000000
0.989253 0.093987 0.112008
0.989253 -0.000000 0.146217
</float_array>
          <technique_common>
            <accessor source="#multitool_trolley_ark_room_wheel3-lib-Normal0-array" count="108" stride="3">
              <param name="X" type="float"/>
              <param name="Y" type="float"/>
              <param name="Z" type="float"/>
            </accessor>
          </technique_common>
        </source>
        <source id="multitool_trolley_ark_room_wheel3-lib-UV0">
          <float_array id="multitool_trolley_ark_room_wheel3-lib-UV0-array" count="116">
0.098394 0.482035
0.098394 0.499433
0.098394 0.516830
0.098394 0.377650
0.098394 0.395048
0.098394 0.412445
0.098394 0.429843
0.098394 0.447240
0.098394 0.464638
0.081322 0.482035
0.081322 0.499433
0.081322 0.516830
0.081322 0.377650
0.081322 0.395048
0.081322 0.412445
0.081322 0.429843
0.081322 0.447240
0.081322 0.464638
0.057522 0.403756
0.057522 0.403756
0.098394 0.533703
0.081322 0.533703
0.038403 0.387696
0.032553 0.403770
0.053199 0.379164
0.038386 0.387717
0.070018 0.382140
0.053172 0.379169
0.080989 0.395229
0.069994 0.382126
0.080979 0.412309
0.080979 0.395203
0.069994 0.425386
0.080989 0.412283
0.053172 0.428343
0.070018 0.425372
0.038386 0.419795
0.053199 0.428347
0.032553 0.403742
0.038403 0.419816
0.032553 0.403770
0.038403 0.387696
0.038386 0.387717
0.053199 0.379164
0.053172 0.379169
0.070018 0.382140
0.069994 0.382126
0.080989 0.395229
0.080979 0.395203
0.080979 0.412309
0.080989 0.412283
0.069994 0.425386
0.070018 0.425372
0.053172 0.428343
0.053199 0.428347
0.038386 0.419795
0.038403 0.419816
0.032553 0.403742
</float_array>
          <technique_common>
            <accessor source="#multitool_trolley_ark_room_wheel3-lib-UV0-array" count="58" stride="2">
              <param name="S" type="float"/>
              <param name="T" type="float"/>
            </accessor>
          </technique_common>
        </source>
        <vertices id="multitool_trolley_ark_room_wheel3-lib-Vertex">
          <input semantic="POSITION" source="#multitool_trolley_ark_room_wheel3-lib-Position"/>
        </vertices>
        <polygons material="_02___Default" count="36">
          <input semantic="VERTEX" offset="0" source="#multitool_trolley_ark_room_wheel3-lib-Vertex"/>
          <input semantic="NORMAL" offset="1" source="#multitool_trolley_ark_room_wheel3-lib-Normal0"/>
          <input semantic="TEXCOORD" offset="2" set="0" source="#multitool_trolley_ark_room_wheel3-lib-UV0"/>
          <p>0 0 0 12 1 1 2 2 10</p>
          <p>2 3 10 1 4 9 0 5 0</p>
          <p>12 6 1 13 7 2 3 8 11</p>
          <p>3 9 11 2 10 10 12 11 1</p>
          <p>13 12 2 14 13 20 4 14 21</p>
          <p>4 15 21 3 16 11 13 17 2</p>
          <p>14 18 3 15 19 4 5 20 13</p>
          <p>5 21 13 4 22 12 14 23 3</p>
          <p>15 24 4 16 25 5 6 26 14</p>
          <p>6 27 14 5 28 13 15 29 4</p>
          <p>16 30 5 17 31 6 7 32 15</p>
          <p>7 33 15 6 34 14 16 35 5</p>
          <p>17 36 6 18 37 7 8 38 16</p>
          <p>8 39 16 7 40 15 17 41 6</p>
          <p>18 42 7 19 43 8 9 44 17</p>
          <p>9 45 17 8 46 16 18 47 7</p>
          <p>19 48 8 0 49 0 1 50 9</p>
          <p>1 51 9 9 52 17 19 53 8</p>
          <p>12 54 22 0 55 23 10 56 18</p>
          <p>13 57 24 12 58 25 10 59 18</p>
          <p>14 60 26 13 61 27 10 62 18</p>
          <p>15 63 28 14 64 29 10 65 18</p>
          <p>16 66 30 15 67 31 10 68 18</p>
          <p>17 69 32 16 70 33 10 71 18</p>
          <p>18 72 34 17 73 35 10 74 18</p>
          <p>19 75 36 18 76 37 10 77 18</p>
          <p>10 78 18 0 79 38 19 80 39</p>
          <p>11 81 19 1 82 40 2 83 41</p>
          <p>11 84 19 2 85 42 3 86 43</p>
          <p>11 87 19 3 88 44 4 89 45</p>
          <p>11 90 19 4 91 46 5 92 47</p>
          <p>11 93 19 5 94 48 6 95 49</p>
          <p>11 96 19 6 97 50 7 98 51</p>
          <p>11 99 19 7 100 52 8 101 53</p>
          <p>11 102 19 8 103 54 9 104 55</p>
          <p>11 105 19 9 106 56 1 107 57</p>
        </polygons>
      </mesh>
    </geometry>
  </library_geometries>
  <library_visual_scenes>
    <visual_scene id="RootNode" name="RootNode">
      <node id="multitool_trolley_ark_room_wheel3" name="multitool_trolley_ark_room_wheel3">
        <matrix sid="matrix">1.000000 0.000000 0.000000 0.006338 0.000000 0.000000 1.000000 0.000000 0.000000 -1.000000 0.000000 0.008743 0.000000 0.000000 0.000000 1.000000</matrix>
        <instance_geometry url="#multitool_trolley_ark_room_wheel3-lib">
          <bind_material>
            <technique_common>
              <instance_material symbol="_02___Default" target="#_02___Default"/>
            </technique_common>
          </bind_material>
        </instance_geometry>
      </node>
    </visual_scene>
  </library_visual_scenes>
  <scene>
    <instance_visual_scene url="#RootNode"/>
  </scene>
</COLLADA>

