<?xml version="1.0" encoding="utf-8" ?>
<COLLADA xmlns="http://www.collada.org/2005/11/COLLADASchema" version="1.4.1">
    <asset>
        <contributor>
            <authoring_tool>modo 701 [Build 66614], Microsoft Windows 7 Service Pack 1 (6.1.7601 Service Pack 1)</authoring_tool>
            <comments>Plug-in: [Build 66614]; Use Absolute Path: No; Merge Reference Items: No; Save Hidden Items: No; Save Cameras: No; Save Lights: No; Save Locators: Yes; Save Triangles as Triangles: Yes; Order Vertex Maps Alphabetically: Yes; Bake Matrices: No; Save Vertex Normals: Yes; Save UV Texture Coordinates: Yes; Save Vertex Colors: Yes; Save Vertex Weights: Yes; Save Animation: No; Sample Animation: No; Sample Animation Start: 0; Sample Animation End: 340; Save modo Profile: No; Save Maya Profile: No; Save 3ds Max Profile: No; Formatted Arrays: No;</comments>
            <source_data>file:///D:/Work/Dropbox/Frictional%20Games%20-%20Team/Aaron/models/static_objects/station/details/girder_rusty_support/girder_rusty_support.lxo</source_data>
        </contributor>
        <created>2014-05-29T12:42:44Z</created>
        <modified>2014-05-29T12:42:44Z</modified>
        <unit name="game" meter="1" />
        <up_axis>Y_UP</up_axis>
    </asset>
    <library_images>
        <image id="Image0001" name="Image0001">
            <init_from>file:///D:/Work/Dropbox/Frictional%20Games%20-%20Team/Aaron/models/static_objects/station/details/girder_rusty_support/girder_rusty_support.psd</init_from>
        </image>
        <image id="Image0002" name="Image0002">
            <init_from>file:///D:/Work/Dropbox/Frictional%20Games%20-%20Team/Aaron/models/static_objects/station/details/girder_rusty_support/girder_rusty_support_nrm.tga</init_from>
        </image>
        <image id="Image0003" name="Image0003">
            <init_from>file:///D:/Work/Dropbox/Frictional%20Games%20-%20Team/Aaron/models/static_objects/station/details/girder_rusty_support/girder_rusty_support_spec.tga</init_from>
        </image>
    </library_images>
    <library_materials>
        <material id="Material-girderBridge01" name="girderBridge01">
            <instance_effect url="#Effect-girderBridge01" />
        </material>
    </library_materials>
    <library_effects>
        <effect id="Effect-girderBridge01" name="girderBridge01">
            <profile_COMMON>
                <newparam sid="Image0001-surface">
                    <surface type="2D">
                        <init_from>Image0001</init_from>
                        <format>A8R8G8B8</format>
                    </surface>
                </newparam>
                <newparam sid="Image0001-sampler">
                    <sampler2D>
                        <source>Image0001-surface</source>
                        <minfilter>LINEAR_MIPMAP_LINEAR</minfilter>
                        <magfilter>LINEAR</magfilter>
                    </sampler2D>
                </newparam>
                <newparam sid="Image0003-surface">
                    <surface type="2D">
                        <init_from>Image0003</init_from>
                        <format>A8R8G8B8</format>
                    </surface>
                </newparam>
                <newparam sid="Image0003-sampler">
                    <sampler2D>
                        <source>Image0003-surface</source>
                        <minfilter>LINEAR_MIPMAP_LINEAR</minfilter>
                        <magfilter>LINEAR</magfilter>
                    </sampler2D>
                </newparam>
                <technique sid="common">
                    <phong>
                        <diffuse>
                            <texture texture="Image0001-sampler" texcoord="map1" />
                        </diffuse>
                        <specular>
                            <texture texture="Image0003-sampler" texcoord="map1" />
                        </specular>
                        <shininess>
                            <float sid="specular_effect_rgb">4</float>
                        </shininess>
                    </phong>
                </technique>
            </profile_COMMON>
        </effect>
    </library_effects>
    <library_geometries>
        <geometry id="Geometry-mesh005" name="damage02">
            <mesh>
                <source id="Geometry-mesh005-positions" name="positions">
                    <float_array id="Geometry-mesh005-positions-array" count="1200">-0.127514 0.00611258 -1.64813 -0.22134 0.00703287 -1.64813 -0.130486 0.0126338 -1.64813 -0.22134 0.011713 -1.64813 -0.0851843 0.0591302 -1.64813 -0.0767102 0.0630412 -1.64813 -0.0792894 0.0697055 -1.64813 -0.0902512 0.0641971 -1.64813 0.126467 0.00683975 -1.64813 0.22134 0.00703287 -1.64813 0.131533 0.0119066 -1.64813 0.22134 0.011713 -1.64813 0.0777719 0.0628076 -1.64813 0.0851843 0.0591302 -1.64813 0.0902512 0.0641971 -1.64813 0.0782278 0.0699391 -1.64813 -0.22134 0.00703287 -1.52813 -0.127514 0.00611258 -1.52813 -0.22134 0.011713 -1.52813 -0.130486 0.0126338 -1.52813 -0.0767102 0.0630412 -1.52813 -0.0851843 0.0591302 -1.52813 -0.0902512 0.0641971 -1.52813 -0.0792894 0.0697055 -1.52813 0.22134 0.00703287 -1.52813 0.126467 0.00683975 -1.52813 0.22134 0.011713 -1.52813 0.131533 0.0119066 -1.52813 0.0851843 0.0591302 -1.52813 0.0777719 0.0628076 -1.52813 0.0782278 0.0699391 -1.52813 0.0902512 0.0641971 -1.52813 -0.0899999 0.0507728 -1.27999 -0.0899999 0.00997272 -1.28001 -0.0804002 0.060373 -1.27998 -0.0804002 0.000373032 -1.28001 -0.0804002 0.000373363 -1.81274 -0.0899999 0.00997305 -1.81274 -0.0899999 0.0507731 -1.81274 -0.0804002 0.0603733 -1.81274 -0.0771694 0.00817299 -1.81274 -0.0822001 0.0132036 -1.81274 -0.0822001 0.0475426 -1.81274 -0.0771694 0.0525732 -1.81274 -0.450305 -0.393741 0.781775 -0.454116 -0.393203 0.775728 -0.478668 -0.372112 0.764077 -0.482042 -0.366475 0.766714 -0.000332117 0.0507728 -1.27999 -0.000332117 0.00997272 -1.28001 -0.000332117 0.00997305 -1.81274 -0.000332117 0.0507731 -1.81274 -0.00813198 0.0132036 -1.81274 -0.00813198 0.0475426 -1.81274 -0.450944 -0.355694 0.839517 -0.4754 -0.334664 0.827898 -0.00959992 0.0603733 -1.81274 -0.00959992 0.000373363 -1.81274 -0.0128305 0.0525732 -1.81274 -0.0128305 0.00817299 -1.81274 -0.00959992 0.060373 -1.27998 -0.00959992 0.000373032 -1.28001 -0.479191 -0.333954 0.822156 -0.447563 -0.361151 0.837182 -0.481312 -0.374083 0.756266 -0.452139 -0.399135 0.770112 -0.487744 -0.363287 0.761234 -0.444867 -0.400159 0.781656 -0.477356 -0.32874 0.833531 -0.448311 -0.353719 0.847333 -0.484604 -0.327535 0.822317 -0.44187 -0.364282 0.84262 -0.0771694 0.00817266 -1.28001 -0.0822001 0.0132033 -1.28001 -0.0771694 0.0525729 -1.27998 -0.0128305 0.0525729 -1.27998 -0.00813198 0.0132033 -1.28001 -0.00813198 0.0475422 -1.27999 -0.0822001 0.0475422 -1.27999 -0.0128305 0.00817266 -1.28001 -0.078633 0.0505179 -0.93877 -0.0691954 0.0601243 -0.93877 -0.0895265 0.0445974 -0.595794 -0.0811302 0.0550491 -0.596028 -0.103011 0.0337063 -0.258523 -0.0958816 0.0450791 -0.258382 -0.11376 0.0438673 0.0765909 -0.10788 0.0560349 0.0755629 -0.0780827 0.00979767 -0.938768 -0.0849053 0.00424579 -0.595884 -0.0937959 -0.00571205 -0.258902 -0.100643 0.00592307 0.0817192 -0.068386 0.000216973 -0.938773 -0.0743588 -0.00435394 -0.596219 -0.0823099 -0.0129795 -0.258964 -0.0885577 0.00013234 0.083032 0.0109247 0.0507146 -0.938767 0.011476 0.00983622 -0.938797 -0.000332117 0.053548 -0.59795 0.00417812 0.01281 -0.598284 -0.0155342 0.0533848 -0.257797 -0.00618901 0.0133894 -0.258332 -0.0293978 0.0742118 0.0782573 -0.0160707 0.0356147 0.0828938 0.00232834 0.000218035 -0.938802 -0.0040154 0.002337 -0.598161 -0.0131132 0.0019956 -0.258544 -0.0217424 0.0234548 0.0838696 0.00151774 0.060309 -0.938762 -0.0107102 0.0621873 -0.597697 -0.0268361 0.0607241 -0.25778 -0.0413087 0.0801155 0.0769717 -0.0703306 0.0130266 -0.93877 -0.0652468 0.00800588 -0.938773 -0.077501 0.00818676 -0.596088 -0.0719689 0.00368153 -0.59626 -0.0868887 -0.000926014 -0.258828 -0.0808621 -0.00473204 -0.258857 -0.0943083 0.0115102 0.0813577 -0.0879682 0.00847796 0.082044 -0.00158593 0.0524899 -0.938767 -0.0658458 0.0523438 -0.938769 -0.012981 0.0540886 -0.59766 -0.0769791 0.0476541 -0.596119 -0.0281479 0.0523925 -0.257895 -0.0909104 0.0382544 -0.25842 -0.0417502 0.0716662 0.0777488 -0.102275 0.0498723 0.0765364 0.00364726 0.0130688 -0.938792 0.00318332 0.047462 -0.938769 -0.00391724 0.0152863 -0.598056 -0.00771135 0.0495448 -0.597791 -0.0145314 0.0148901 -0.258347 -0.0223871 0.0485096 -0.257908 -0.0244631 0.0360792 0.0823596 -0.0356644 0.0685166 0.0784201 -0.0707939 0.0473098 -0.938769 -0.0813844 0.0421763 -0.595997 -0.0946539 0.0322924 -0.258497 -0.105363 0.0434937 0.0770763 -0.000986119 0.00802854 -0.938794 -0.0080485 0.0098145 -0.59799 -0.017998 0.00895563 -0.258453 -0.0272791 0.0297621 0.0828722 -0.124852 0.027438 0.308447 -0.176186 -0.0208812 0.444822 -0.174212 -0.00901961 0.451122 -0.120101 0.0397131 0.311684 -0.250436 -0.0878308 0.552637 -0.340308 -0.207886 0.644001 -0.342106 -0.198099 0.653241 -0.249009 -0.0784485 0.562304 -0.108853 -0.00912247 0.303063 -0.154326 -0.0560316 0.44052 -0.229491 -0.119886 0.540935 -0.312596 -0.238771 0.637878 -0.0964627 -0.0141291 0.303399 -0.142216 -0.0607044 0.444893 -0.218264 -0.125498 0.54489 -0.302216 -0.243398 0.644719 -0.0448132 0.0619472 0.329253 -0.114583 0.0110969 0.501557 -0.0941626 -0.0239348 0.498264 -0.0280017 0.0249272 0.321248 -0.191949 -0.0755359 0.619939 -0.299994 -0.187936 0.72188 -0.272811 -0.218501 0.714295 -0.172252 -0.106824 0.60756 -0.0324783 0.0126697 0.317257 -0.0947798 -0.0353276 0.490494 -0.173377 -0.115021 0.59747 -0.271266 -0.227374 0.704908 -0.125276 0.0162293 0.495705 -0.0570599 0.0670458 0.328583 -0.310541 -0.182411 0.715197 -0.202687 -0.0688588 0.615684 -0.103044 -0.00325242 0.304952 -0.150393 -0.0503546 0.445318 -0.144084 -0.0528153 0.447669 -0.0965432 -0.00587165 0.305151 -0.226109 -0.115936 0.547478 -0.311583 -0.234332 0.645009 -0.306148 -0.236798 0.648614 -0.220245 -0.118919 0.549585 -0.0566602 0.0587674 0.326383 -0.123413 0.00838655 0.492873 -0.167714 -0.014562 0.452239 -0.114066 0.0339905 0.31138 -0.201031 -0.0753193 0.610922 -0.306837 -0.188942 0.711106 -0.335716 -0.203245 0.655136 -0.242974 -0.0841302 0.562534 -0.0363064 0.0249051 0.320137 -0.100575 -0.0238421 0.492905 -0.117868 0.00565915 0.495763 -0.0503893 0.056031 0.326664 -0.178769 -0.105186 0.602581 -0.278613 -0.217592 0.708237 -0.301384 -0.191836 0.714436 -0.19551 -0.0787849 0.613016 -0.116562 0.0275539 0.309658 -0.168719 -0.0207707 0.448891 -0.243709 -0.0890027 0.557433 -0.334778 -0.208345 0.650263 -0.100939 -0.0297724 0.489097 -0.0385028 0.0185463 0.318107 -0.277558 -0.22226 0.703308 -0.179264 -0.10951 0.597432 0.0899999 0.050772 -1.27994 0.0899999 0.0099695 -1.28003 0.0804002 0.0603729 -1.27991 0.0804002 0.000364241 -1.28001 0.0804002 0.000373363 -1.81274 0.0899999 0.00997305 -1.81274 0.0899999 0.0507731 -1.81274 0.0804002 0.0603733 -1.81274 0.0771694 0.00817299 -1.81274 0.0822001 0.0132036 -1.81274 0.0822001 0.0475426 -1.81274 0.0771694 0.0525732 -1.81274 0.000332117 0.050772 -1.27994 0.000332117 0.0099695 -1.28003 0.000332117 0.00997305 -1.81274 0.000332117 0.0507731 -1.81274 0.00813198 0.0132036 -1.81274 0.00813198 0.0475426 -1.81274 0.00959992 0.0603733 -1.81274 0.00959992 0.000373363 -1.81274 0.0128305 0.0525732 -1.81274 0.0128305 0.00817299 -1.81274 0.00959992 0.0603729 -1.27991 0.00959992 0.000364241 -1.28001 0.0771694 0.00816855 -1.28003 0.0822001 0.0132015 -1.28003 0.0771694 0.0525722 -1.27994 0.0128305 0.0525722 -1.27994 0.00813198 0.0132015 -1.28003 0.00813198 0.0475412 -1.27995 0.0822001 0.0475412 -1.27995 0.0128305 0.00816855 -1.28003 0.128987 0.0526188 -0.0102919 0.122985 0.0641741 -0.00667446 0.117166 0.0141433 -0.0143344 0.105548 0.00753463 -0.0127165 0.0466318 0.0762966 0.016147 0.0343073 0.0372469 0.0109715 0.0400429 0.0256838 0.00708206 0.0580934 0.0830082 0.0144703 0.11087 0.019207 -0.0118364 0.104776 0.0157457 -0.0109778 0.0586245 0.0746948 0.0125508 0.117705 0.0576947 -0.00643425 0.0424542 0.0383242 0.00912897 0.0527707 0.0711308 0.0133596 0.12085 0.0516265 -0.00836607 0.0453082 0.0323074 0.00714796 0.201503 0.00118677 0.216824 0.197498 0.0134878 0.220891 0.185521 -0.0357752 0.216626 0.173813 -0.0410221 0.220391 0.128743 0.0355345 0.256454 0.111544 -0.00242586 0.254907 0.115178 -0.0148779 0.25036 0.140276 0.0407915 0.252427 0.180288 -0.0299636 0.21992 0.17415 -0.0327042 0.221917 0.139556 0.0323494 0.25082 0.191724 0.0076726 0.22234 0.119259 -0.00235088 0.25163 0.133642 0.0295241 0.252833 0.193826 0.00121715 0.220184 0.12103 -0.00880707 0.249342 0.114634 -0.0202808 -0.427309 0.10701 -0.00970538 -0.430235 0.107327 -0.0590941 -0.418269 0.0962421 -0.0668936 -0.41694 0.0266068 -0.00669876 -0.435182 0.0191555 -0.0461981 -0.426124 0.0265959 -0.0568528 -0.423169 0.0375311 0.00114603 -0.436455 0.100217 -0.054909 -0.41969 0.0943991 -0.0589923 -0.418996 0.0392157 -0.00687837 -0.434484 0.102373 -0.0166468 -0.428838 0.0273942 -0.0442112 -0.42618 0.033655 -0.0110161 -0.433799 0.106378 -0.0221911 -0.4273 0.0311289 -0.0497601 -0.424631 0.254337 -0.052299 0.387398 0.259951 -0.0500344 0.383832 0.273229 -0.0191837 0.377162 0.271463 -0.0124255 0.378715 0.206097 -0.0166457 0.422377 0.218831 0.0139802 0.414961 0.224151 0.01636 0.411467 0.207633 -0.0232653 0.420979 0.280262 -0.0197453 0.372636 0.264425 -0.0564241 0.380477 0.276888 -0.0068534 0.375588 0.253707 -0.0607505 0.38727 0.214299 0.02034 0.418233 0.199279 -0.0159858 0.427209 0.224683 0.0247546 0.411426 0.20243 -0.0287558 0.424376 0.108068 -0.0830104 -0.711851 0.113818 -0.0707448 -0.563151 0.0994036 -0.072772 -0.712443 0.105672 -0.0610227 -0.567466 0.104386 -0.123446 -0.710513 0.108182 -0.107432 -0.546887 0.093986 -0.132283 -0.710505 0.0973789 -0.11505 -0.54365 0.0187218 -0.0761686 -0.714222 0.0250114 -0.0608768 -0.568973 0.0150251 -0.11689 -0.713252 0.0193508 -0.0980189 -0.553202 0.0234262 -0.127156 -0.712785 0.0272352 -0.107709 -0.548762 0.0288606 -0.0673131 -0.714278 0.0355568 -0.0531498 -0.571985 0.0968964 -0.119668 -0.710892 0.100894 -0.103726 -0.54878 0.0914426 -0.124297 -0.710889 0.095229 -0.10772 -0.547095 0.0313439 -0.0753321 -0.713966 0.0376455 -0.0606249 -0.568859 0.0954514 -0.0802511 -0.712271 0.101365 -0.0677197 -0.564695 0.0230823 -0.114234 -0.713116 0.027518 -0.0959177 -0.553953 0.0261923 -0.0799857 -0.71394 0.0322801 -0.064689 -0.567258 0.0999957 -0.0856172 -0.711967 0.105638 -0.0728118 -0.562421 0.0273235 -0.119602 -0.712869 0.0314894 -0.10098 -0.551642 0.0905106 0.00437896 -1.02297 0.096027 -0.0547475 -0.879114 0.0810264 0.013395 -1.01966 0.0868491 -0.0455646 -0.875696 0.0900848 -0.0338315 -1.0371 0.0944395 -0.0927082 -0.893606 0.0804002 -0.0428174 -1.04045 0.0845113 -0.101423 -0.897015 0.000842959 0.00453033 -1.02295 0.00651197 -0.0525914 -0.878483 0.000416963 -0.0338026 -1.0371 0.00490908 -0.0907822 -0.893015 0.00959992 -0.0428174 -1.04045 0.0138176 -0.0999434 -0.896554 0.0102262 0.0135373 -1.01964 0.0161728 -0.0438183 -0.87519 0.0823148 -0.0308038 -1.03598 0.0867702 -0.08954 -0.89239 0.0772379 -0.0355132 -1.03773 0.081564 -0.0941092 -0.894169 0.0133625 0.00620057 -1.02233 0.0190652 -0.0512095 -0.877937 0.0777013 0.00608815 -1.02235 0.0832939 -0.0527641 -0.878392 0.00824669 -0.030772 -1.03598 0.0128164 -0.0879345 -0.891899 0.00860524 0.00148127 -1.02407 0.0141641 -0.0558086 -0.879671 0.0826732 0.00136429 -1.02409 0.0881072 -0.0575743 -0.880189 0.012899 -0.0354964 -1.03773 0.0173233 -0.0927342 -0.893746 0.105554 0.0175059 -0.288733 0.108424 0.0476514 -0.145247 0.0982028 0.0281383 -0.292246 0.10098 0.0585412 -0.147953 0.0973591 -0.0209339 -0.279188 0.100437 0.0096483 -0.133722 0.0861242 -0.0284618 -0.278055 0.0892462 0.00263478 -0.130785 0.0182126 0.0324107 -0.301097 0.0208115 0.0658769 -0.145532 0.00983597 -0.00649808 -0.290598 0.0128942 0.0276678 -0.132559 0.0169857 -0.0171496 -0.286885 0.0201419 0.0168308 -0.129599 0.0292755 0.0399951 -0.302184 0.0318012 0.0729828 -0.148451 0.0903746 -0.0166228 -0.280891 0.0934516 0.0142512 -0.134457 0.0844792 -0.0205657 -0.280304 0.0875811 0.0105764 -0.132921 0.0307605 0.032047 -0.299746 0.0333929 0.0650413 -0.145936 0.093424 0.0213376 -0.290842 0.0962591 0.0519602 -0.145684 0.0180893 -0.00466829 -0.29038 0.0211323 0.0291469 -0.133591 0.0251254 0.0280442 -0.299147 0.0277969 0.0612842 -0.144401 0.0972842 0.0157636 -0.288995 0.100167 0.046249 -0.144261 0.0216735 -0.0102226 -0.288463 0.0247693 0.0234997 -0.132043</float_array>
                    <technique_common>
                        <accessor count="400" source="#Geometry-mesh005-positions-array" stride="3">
                            <param name="X" type="float" />
                            <param name="Y" type="float" />
                            <param name="Z" type="float" />
                        </accessor>
                    </technique_common>
                </source>
                <source id="Geometry-mesh005-normals" name="normals">
                    <float_array id="Geometry-mesh005-normals-array" count="1269">0 0 1 0 0 -1 0.4292 -0.903209 0 0.676801 -0.736166 0 0.553042 -0.833153 0 -0.228971 -0.973433 0 0.21378 -0.976882 0 0.437062 0.899431 0 0.68265 0.730745 0 0.561888 0.827213 0 -0.231451 0.972846 0 0.220211 0.975452 0 -0.634159 0.773202 0 0.00215569 0.999998 0 -0.570218 -0.821494 0 -0.686208 -0.727406 0 -0.435176 -0.900345 0 0.00203553 -0.999998 0 1 0 0 -0.443196 0.896425 0 -0.0101341 0.999949 0 -1 0 0 -0.00980808 -0.999952 0 -0.702676 -0.597618 0.386133 -0.700919 -0.598959 0.387247 -0.702452 -0.597665 0.386469 -0.699478 -0.600121 0.388054 -0.699616 -0.600089 0.387855 -0.699771 -0.60007 0.387604 -0.699701 -0.600105 0.387676 -0.699894 -0.599962 0.387548 -0.699875 -0.599829 0.387789 -0.699936 -0.599848 0.38765 -0.700039 -0.599814 0.387516 -0.700078 -0.599815 0.387444 -0.700046 -0.599838 0.387467 -0.700126 -0.59976 0.387443 -0.699906 -0.599965 0.387523 -0.700935 -0.598976 0.387192 0.544895 -0.0473752 0.837165 0.539718 -0.0546568 0.84007 0.537708 -0.052284 0.841508 0.540833 -0.0533947 0.839434 0.544931 -0.0533746 0.83678 0.549319 -0.0538485 0.833876 0.554469 -0.0536047 0.830476 0.561312 -0.0467646 0.826282 0.558355 -0.0291328 0.82909 0.57009 -0.0358199 0.820801 0.564319 -0.0324378 0.824919 0.575087 -0.0399219 0.817118 0.570853 -0.0413067 0.820013 0.572624 -0.035769 0.819038 0.555044 -0.0311679 0.831237 0.552925 -0.0376989 0.832378 -0.889056 0.457631 0.0123788 -0.96754 0.252717 1.60808e-007 -0.966805 -0.254981 0.0165239 -0.862856 -0.505449 -3.14861e-007 0.902645 0.430028 -0.0175719 0.92757 -0.373335 -0.0153424 0.968899 0.247455 1.5746e-007 0.868935 -0.494926 -3.08306e-007 0.334331 -0.942447 -0.00408556 0.390793 -0.920479 -5.72318e-007 0.889049 -0.457644 -0.0124108 0.966805 0.254981 -0.0165012 0.967538 -0.252725 -1.60813e-007 0.862856 0.505449 3.15895e-007 -0.262442 -0.964939 0.00412228 -0.525705 -0.850667 -5.41293e-007 -0.873774 -0.48612 0.0143841 -0.970154 -0.242491 -1.54301e-007 -0.998199 -0.0405777 -0.0441756 -0.759762 0.649845 -0.0215416 -0.995246 0.0916581 -0.0329359 -0.579098 0.814697 -0.0302429 -0.749746 -0.661672 -0.0083828 -0.809413 -0.586393 -0.0315066 -0.27802 -0.960553 -0.00648644 -0.13783 -0.99043 -0.00710998 0.979854 -0.196657 0.0348039 0.819668 0.572538 0.0185412 0.991224 -0.126277 0.0391127 0.706358 0.706925 0.0362718 0.617454 -0.786482 0.01401 0.542672 -0.839234 0.0345357 0.177309 0.984052 -0.0142424 -0.0752183 0.997167 0.000378753 0.173533 0.984803 -0.00695665 0.749435 0.662025 0.00841654 0.197486 0.980109 0.0196179 0.809299 0.586565 0.0312535 -0.186334 -0.982391 0.0136994 0.068884 -0.997625 -0.000389962 0.578285 -0.815271 0.030325 0.75917 -0.65052 0.022013 -0.99393 0.103333 -0.0377538 -0.760966 -0.647899 -0.0340146 -0.987825 0.151559 -0.0350955 -0.791514 -0.610781 -0.0212839 0.995204 -0.0920325 0.0331395 0.998186 0.0404508 0.044592 -0.493343 0.869401 -0.0274517 -0.613145 0.789552 -0.025702 -0.769118 0.638362 -0.0308544 -0.733745 0.677611 -0.0496094 -0.981266 -0.0148276 -0.192086 -0.874448 -0.0408459 -0.483397 0.192846 0.514938 0.835254 0.675837 -0.0256827 0.736603 0.425953 0.455817 0.781534 0.835001 -0.197493 0.513585 -0.897346 -0.00302339 -0.441318 -0.753145 0.652172 -0.0862774 -0.973832 0.141381 -0.177941 -0.648536 0.761179 -0.00290512 0.441375 0.435553 0.784526 0.141536 0.548034 0.824395 -0.229736 0.815943 0.530527 -0.474976 0.768026 0.429574 -0.139907 -0.548919 -0.824084 -0.670278 -0.00360536 -0.742101 -0.43933 -0.436556 -0.785117 -0.816105 0.086893 -0.571334 -0.215169 0.922047 0.321762 -0.116671 0.977815 0.173969 0.462952 0.671072 0.579083 0.72274 0.649082 0.237358 0.230695 -0.815969 -0.53007 0.477049 -0.767724 -0.427813 -0.788938 0.59736 -0.144008 -0.756946 0.652589 -0.0340567 -0.722922 -0.648698 -0.237853 0.214477 -0.92227 -0.321586 -0.463354 -0.671247 -0.57856 0.407996 0.273109 0.871178 -0.160754 0.720632 0.674424 0.00862956 0.984081 0.177511 0.406359 0.721283 0.560913 -0.256089 0.815563 0.518917 -0.271098 0.91065 0.311805 0.736184 -0.354924 0.576248 0.789127 -0.572869 0.221583 -0.11451 -0.97542 -0.188266 0.625519 -0.780169 -0.00787308 -0.416673 -0.715004 -0.561384 -0.429751 -0.452979 -0.781105 -0.831611 0.18619 -0.523217 0.672058 0.000791138 0.740498 0.410095 0.278982 0.868327 -0.187482 0.722722 0.665225 0.974078 -0.141259 0.176687 -0.776513 0.628957 -0.037954 -0.196505 -0.510942 -0.836854 0.151919 -0.717066 -0.680248 0.318807 -0.79065 -0.522718 0.649017 -0.756699 -0.0786337 0.862969 0.503314 0.0442671 0.922924 -0.383393 -0.034941 0.96754 0.252717 5.47765e-007 0.92388 -0.382683 -2.54902e-006 -0.926579 0.375379 0.0232763 -0.968899 0.247455 5.3636e-007 -0.927197 -0.373912 -0.0222382 -0.927209 -0.374544 -2.49481e-006 -0.334203 -0.937846 -0.0935629 -0.516003 -0.856587 -1.20622e-005 -0.862935 -0.503365 -0.0443441 -0.967538 -0.252725 -6.29077e-007 -0.922919 0.383401 0.0349791 -0.92388 0.382683 1.52541e-006 0.396417 -0.914812 -0.0772856 0.929638 -0.367768 -0.0228166 0.525713 -0.850662 -1.7916e-006 0.970154 -0.242491 -6.03604e-007 -0.632266 0.680485 0.370378 -0.790454 0.561252 0.245312 -0.923042 -0.0118822 0.384515 -0.965524 -0.163442 0.202607 -0.686339 -0.704838 0.17928 -0.574564 -0.815848 0.0653318 -0.630711 0.680609 0.372793 -0.9257 -0.0202386 0.377716 -0.793962 0.572467 0.204712 -0.947723 -0.243688 0.206004 0.794397 -0.555268 -0.246192 0.13945 -0.98466 -0.10487 0.638946 -0.673507 -0.371668 -0.0584275 -0.993023 -0.102427 0.692269 0.698219 -0.182354 0.922888 0.0035766 -0.385052 0.763665 0.548587 -0.340393 0.868683 -0.176056 -0.463027 0.874283 -0.165773 -0.456233 0.925774 0.0200063 -0.377547 0.683076 0.67915 -0.268632 0.675016 0.72637 -0.129385 -0.873925 0.165785 0.456914 -0.682655 -0.679586 0.268597 -0.673945 -0.727452 0.128892 -0.480842 0.811124 0.33297 0.0675068 0.992849 0.0984612 0.10225 0.993697 0.0459454 0.91618 -0.398222 -0.0450866 0.787573 -0.60115 0.135452 0.358316 -0.933415 -0.018609 0.173406 -0.950705 0.25708 -0.172641 0.95121 -0.255723 -0.357766 0.933599 0.0199134 0.423369 0.884438 -0.196287 0.467713 0.883821 0.0102431 -0.451885 -0.892076 0.000598151 -0.950325 -0.306971 0.0514919 -0.496886 -0.8407 0.21524 -0.981118 -0.181478 0.0668838 -0.955789 -0.291887 0.035632 -0.505268 -0.862782 -0.0176369 -0.950512 -0.296442 0.0929998 -0.416993 -0.887074 0.19803 -0.844661 0.495604 -0.202298 -0.866586 0.49166 -0.0854341 -0.978229 -0.204871 0.0331005 -0.480563 -0.832906 0.274456 -0.991819 -0.127579 0.00434859 -0.84262 0.505082 -0.186771 -0.787254 0.601799 -0.134421 0.900539 -0.429089 0.0700906 0.275283 -0.936699 0.216367 0.849226 -0.488728 0.1999 0.234383 -0.916678 0.323675 0.366243 -0.890775 -0.269047 0.920037 -0.359569 -0.155699 0.391509 -0.883614 -0.256801 0.895462 -0.428235 -0.121502 0.38848 0.885227 0.255846 0.412126 0.884224 0.219773 0.927884 0.35893 0.100997 0.93604 0.350077 0.0357167 -0.38824 -0.885288 -0.255997 -0.411735 -0.884315 -0.220138 -0.383757 0.886728 0.257766 -0.358233 0.893945 0.269316 -0.890911 0.436979 0.123803 -0.949622 -0.307313 -0.0614582 -0.474924 -0.84473 -0.246733 -0.927837 -0.359005 -0.101168 -0.917611 0.371104 0.142378 -0.917018 0.392843 0.0689405 -0.922104 -0.382234 -0.0601826 -0.916769 0.366785 0.158122 -0.329991 -0.907904 -0.25849 -0.916066 0.398449 0.0454071 -0.901169 0.409095 0.143304 -0.936011 -0.35011 -0.0361312 0.320172 -0.94626 -0.0456355 0.901951 -0.424648 -0.0784735 0.819859 -0.572552 0.0038622 0.862855 -0.488203 0.130912 0.995711 0.0269039 -0.0885205 0.945092 0.3218 -0.056975 0.674686 0.722792 -0.149569 0.488611 0.851245 -0.191416 0.678021 0.716337 -0.164766 0.528745 0.833496 -0.160354 -0.148048 0.957397 -0.247936 -0.309766 0.946163 -0.0939196 0.794901 -0.580803 0.175504 0.213902 -0.947831 0.236354 0.823197 -0.567721 0.00622725 0.051807 -0.990433 0.127901 0.979954 0.196927 -0.030178 0.998647 0.0509323 0.0105233 -0.668875 -0.724281 0.1674 -0.99838 -0.0561478 -0.00918208 -0.308672 0.899016 -0.310631 -0.862679 0.48842 -0.131268 0.588211 0.775922 -0.227931 -0.20468 0.949762 -0.236765 -0.225378 0.918857 -0.323893 -0.818325 0.574701 -0.00793179 -0.963354 -0.243302 0.112931 -0.522161 -0.837668 0.160189 -0.99569 -0.0268608 0.0887745 -0.819745 0.572713 -0.00414425 -0.384004 0.92329 0.00879818 -0.505464 0.862848 5.4904e-007 0.310981 0.950404 -0.00482946 0.390805 0.920474 5.85708e-007 -0.950234 0.311002 0.0182434 -0.874524 0.484982 3.03103e-007 -0.398419 0.917191 0.00482874 -0.262853 0.964836 6.0216e-007 -0.961118 0.274956 -0.0255234 -0.480615 0.876928 -0.00252117 -0.857563 -0.513161 -0.0353653 -0.286976 -0.957719 -0.0204572 0.87896 0.475928 0.0303494 0.95228 -0.304053 0.0267384 0.483326 -0.875366 0.0114526 0.28912 0.95718 0.0146758 0.286269 0.957929 0.0205317 0.857433 0.513383 0.0352907 -0.29769 -0.954544 -0.0150319 0.479995 -0.877268 0.0025026 -0.882981 -0.468413 -0.0305488 -0.954852 0.295875 -0.0267523 0.961012 -0.275331 0.0254817 -0.49114 0.871003 -0.0116325 0.297542 -0.911429 -0.284195 0.80635 -0.577665 0.126894 -0.719291 -0.626383 -0.300441 -0.325691 0.793586 0.513952 0.897025 0.00226501 0.441973 0.11571 -0.97784 -0.174472 0.789029 -0.597702 0.142078 0.248943 -0.815824 -0.521976 0.756201 -0.653392 0.0352115 0.714526 0.631519 0.30106 -0.773867 0.306821 -0.554067 -0.40891 -0.281203 -0.868169 0.875305 0.0359925 0.482231 0.665604 -0.742618 -0.0740892 0.73099 -0.680644 0.0487575 0.774787 -0.631374 0.0327438 -0.665615 0.74239 0.0762432 0.817177 -0.0884079 0.569566 -0.734409 0.343485 -0.585373 -0.790984 0.566649 -0.230767 0.252904 0.963664 0.0859694 0.505476 0.862841 1.01272e-006 -0.464784 0.880526 0.093004 -0.390814 0.92047 9.66578e-007 0.930256 0.366266 0.0217438 0.930274 0.366866 1.46236e-006 0.475936 0.874708 0.0914949 0.398442 0.917193 6.83878e-006 0.794184 -0.572042 -0.205035 0.581086 -0.731717 -0.356271 0.0914242 -0.990534 -0.102388 -0.0966241 -0.986774 -0.130158 -0.128401 0.986488 0.101753 0.966911 0.153704 -0.203614 0.580637 0.811365 -0.0674355 -0.0952308 -0.994258 -0.0488125 -0.757873 -0.55803 0.337982 -0.0708151 -0.994747 -0.0739149 0.555852 -0.74833 -0.361981 0.452267 0.891883 0.00019432 0.497471 0.840569 -0.2144 0.950357 0.306888 -0.0513954 0.981149 0.181428 -0.0665643 0.958417 0.2848 -0.0180233 0.930994 0.351192 -0.0995745 0.309831 -0.898679 0.310451 0.84297 -0.504592 0.186515 -0.266818 0.939221 -0.216037 0.487458 0.829418 -0.272857 0.322541 -0.91171 -0.254463 0.356726 -0.897953 -0.257735 -0.356327 0.898054 0.257937 -0.376828 0.887414 0.265511 0.951785 0.300865 0.059885 0.943715 0.325556 0.0584382 0.917665 -0.371026 -0.142231 0.382218 -0.920388 -0.0824359 0.405222 0.882854 0.237412 0.901274 -0.408957 -0.143037 -0.311894 0.94899 0.0462573 0.42682 0.875936 0.224857 0.149295 -0.957202 0.247944 0.310394 -0.946017 0.0933158 0.966069 0.233118 -0.111209 -0.487629 -0.851723 0.191799 -0.587432 -0.776349 0.228485 -0.944957 -0.322168 0.0571375 -0.045695 0.990667 -0.128418 -0.504507 -0.863365 0.00862571 -0.252725 -0.967538 -6.01578e-007 0.435727 0.900048 -0.00739606 0.382683 0.92388 5.76599e-007 -0.909151 0.416378 0.00858214 -0.273147 0.961968 0.00286982 -0.883314 -0.468775 -0.0025887 -0.235177 -0.971952 -0.000656272 0.944552 0.328348 0.00311386 0.956772 -0.290641 -0.0107667 0.533305 -0.845923 -0.0009011 0.496571 0.867992 -0.00278276 0.23485 0.972031 0.000887343 0.883257 0.468882 0.00265263 0.459163 -0.888289 -0.0105596 0.27282 -0.96206 -0.00305841 -0.506664 -0.86214 0.00268538 -0.934126 0.356913 0.00466036 -0.963466 -0.26781 0.00342979 0.909085 -0.416518 -0.00877464 -0.543302 0.839536 0.00109903 0.981501 0.00823379 0.191278 0.762012 -0.646917 0.0289309 -0.670286 0.0147386 -0.741957 0.187028 -0.723844 -0.664131 -0.652006 0.754599 0.0739544 -0.404625 -0.278614 -0.871007 0.38275 -0.923852 -1.38177e-005 -0.252478 0.963747 0.086296 -0.505518 0.862816 6.09504e-006 0.947671 0.243727 -0.206198 0.535857 0.840216 -0.0830285 -0.090255 0.990702 0.101798 0.0401474 0.988082 0.148599 0.20723 0.978291 0.00153477 0.490598 -0.803927 -0.336175 -0.869218 0.171255 0.463823 0.991845 0.127386 -0.0040813 -0.674336 -0.723027 0.150011 0.382683 -0.92388 -5.87879e-007 0.773966 -0.308956 0.552741 -0.38269 -0.923877 -1.90526e-006 -0.305118 -0.946642 -0.103791 -0.535053 -0.840748 0.0828352 -0.478251 0.813628 0.330584 -0.788357 0.589005 -0.177671</float_array>
                    <technique_common>
                        <accessor count="423" source="#Geometry-mesh005-normals-array" stride="3">
                            <param name="X" type="float" />
                            <param name="Y" type="float" />
                            <param name="Z" type="float" />
                        </accessor>
                    </technique_common>
                </source>
                <source id="Geometry-mesh005-map1" name="map1">
                    <float_array id="Geometry-mesh005-map1-array" count="744">0.837801 0.522264 0.846296 0.520169 0.92451 0.539628 0.933029 0.537529 0.968137 0.433502 0.959807 0.4314 0.96856 0.394323 0.960829 0.394314 0.827048 0.890631 0.827048 0.869352 0.977601 0.890631 0.977601 0.869352 0.82705 0.817972 0.9776 0.817972 0.827048 0.866425 0.977601 0.866425 0.873138 0.448349 0.881471 0.45045 0.931564 0.57714 0.923746 0.577126 0.97963 0.625221 0.97963 0.646661 0.825156 0.62522 0.825155 0.646661 0.979629 0.701642 0.825153 0.701642 0.97963 0.650949 0.825155 0.650949 0.828457 0.517267 0.840223 0.51709 0.934126 0.43274 0.923497 0.431516 0.933238 0.394444 0.925597 0.394436 0.979629 0.70559 0.825153 0.70559 0.97963 0.596319 0.825156 0.596319 0.872552 0.522906 0.863468 0.518373 0.880937 0.520813 0.874487 0.517312 0.968579 0.538328 0.966977 0.577127 0.957792 0.539555 0.959236 0.577126 0.82705 0.815376 0.9776 0.815376 0.977599 0.794481 0.82705 0.794481 0.977599 0.764725 0.827052 0.764724 0.838977 0.447862 0.847229 0.449942 0.829823 0.452345 0.84079 0.453418 0.97963 0.59155 0.97963 0.593056 0.825156 0.59155 0.825156 0.593056 0.979629 0.726638 0.979629 0.755879 0.825153 0.726638 0.825153 0.755879 0.863584 0.45331 0.875364 0.453505 0.979629 0.759142 0.979629 0.760648 0.825153 0.759142 0.825153 0.760648 0.827048 0.920061 0.977601 0.920061 0.853936 0.332599 0.957071 0.332598 0.862104 0.337528 0.948905 0.337527 0.981338 0.338665 0.961622 0.340707 0.82967 0.338665 0.849387 0.340707 0.82967 0.383408 0.849387 0.381366 0.981339 0.383408 0.961622 0.381366 1.98134 0.383408 1.95707 0.389474 1.96162 0.381366 1.94891 0.384545 1.85394 0.389474 1.82967 0.383408 1.8621 0.384545 1.84939 0.381366 1.82967 0.338665 1.84939 0.340707 1.98134 0.338665 1.96162 0.340707 0.11174 0.203848 0.11174 0.00639723 0.157255 0.203848 0.157254 0.00639723 0.1724 0.203848 0.172399 0.00639723 0.739533 0.186414 0.701247 0.186414 0.739533 0.00665415 0.701247 0.00665423 0.747465 0.186414 0.747465 0.00665411 0.739533 0.186414 0.11174 0.542337 0.0965955 0.542337 0.11174 0.457714 0.0965954 0.457714 0.157255 0.457714 0.157255 0.542337 0.1724 0.457714 0.1724 0.542336 0.251384 0.542336 0.251383 0.457714 0.0176142 0.457714 0.0176142 0.542336 0.693314 0.532263 0.701246 0.532263 0.693314 0.647546 0.701246 0.647546 0.8192 0.532262 0.8192 0.647546 0.747465 0.532262 0.747465 0.647546 0.739532 0.647546 0.739533 0.532263 0.62158 0.532263 0.621579 0.647546 0.693314 0.732096 0.693313 0.793562 0.701245 0.732096 0.701245 0.793562 0.111741 0.73414 0.157256 0.73414 0.111741 0.689021 0.157256 0.689021 0.11174 0.649518 0.0965956 0.649518 0.11174 0.604399 0.0965955 0.604399 0.701245 0.847379 0.701245 0.908845 0.693313 0.847379 0.693313 0.908845 0.172401 0.689021 0.172401 0.734139 0.0965957 0.73414 0.0965956 0.689021 0.157256 0.604399 0.172401 0.649518 0.157256 0.649518 0.157256 0.796202 0.111741 0.796202 0.0176142 0.604399 0.172401 0.796202 0.8192 0.732096 0.747465 0.732096 0.739532 0.793562 0.739532 0.847379 0.739532 0.908845 0.739532 0.993395 0.701245 0.993395 0.739532 0.732096 0.747465 0.908845 0.747465 0.993395 0.1724 0.604399 0.747465 0.793562 0.157255 0.353496 0.157255 0.393327 0.1724 0.353528 0.1724 0.393594 0.693314 0.444616 0.693314 0.390263 0.62158 0.444629 0.62158 0.390116 0.747465 0.389919 0.739533 0.389973 0.747465 0.443026 0.739533 0.443198 0.157255 0.353345 0.1724 0.353407 0.157255 0.39334 0.1724 0.393603 0.11174 0.429847 0.11174 0.392255 0.157255 0.428346 0.1724 0.427891 0.739533 0.493198 0.701246 0.491425 0.701246 0.444428 0.739533 0.443199 0.747465 0.443025 0.739533 0.494052 0.747465 0.494242 0.747465 0.329072 0.739533 0.32904 0.747465 0.274394 0.739533 0.274452 0.0965952 0.268366 0.0965953 0.308501 0.11174 0.268447 0.11174 0.308424 0.8192 0.274394 0.747465 0.274397 0.8192 0.329072 0.747465 0.328926 0.0176143 0.268363 0.0176143 0.308619 0.11174 0.268444 0.157255 0.268785 0.1724 0.268862 0.739533 0.274455 0.701247 0.274844 0.11174 0.353114 0.157255 0.308341 0.11174 0.308573 0.1724 0.308279 0.701246 0.390239 0.701247 0.328604 0.739533 0.328872 0.747465 0.389774 0.739533 0.389806 0.157255 0.508373 0.157255 0.466838 0.11174 0.506212 0.11174 0.466597 0.0965954 0.505555 0.0965954 0.466443 0.62158 0.543504 0.621579 0.599297 0.693314 0.544506 0.693314 0.60106 0.739533 0.543178 0.747465 0.543217 0.739532 0.596404 0.747465 0.59619 0.701246 0.492327 0.701246 0.543396 0.1724 0.465969 0.157255 0.465815 0.693314 0.491217 0.701246 0.544543 0.0965954 0.42952 0.0176142 0.465687 0.0176142 0.430107 0.11174 0.504484 0.157255 0.506573 0.1724 0.507279 0.739532 0.59835 0.701246 0.600819 0.0965952 0.203849 0.096595 0.00639729 0.693315 0.186414 0.693315 0.00665427 0.11174 0.373092 0.0965953 0.373092 0.157255 0.373092 0.1724 0.373092 0.251383 0.373092 0.0176142 0.373092 0.693314 0.41698 0.701246 0.41698 0.8192 0.416979 0.747465 0.416979 0.739533 0.41698 0.739533 0.41698 0.62158 0.41698 0.8192 0.793562 0.8192 0.908845 0.8192 0.847379 0.747465 0.847379 0.0965957 0.796202 0.251385 0.796202 0.251385 0.734139 0.693313 0.993395 0.621579 0.993395 0.621579 0.908845 0.747465 0.793562 0.0176142 0.649518 0.251384 0.649517 0.251384 0.604399 0.0965953 0.353186 0.0965953 0.392017 0.11174 0.353263 0.11174 0.392255 0.701246 0.390071 0.701246 0.444442 0.693314 0.390116 0.693314 0.444629 0.1724 0.427245 0.157255 0.42754 0.0965953 0.392013 0.0965954 0.430107 0.693314 0.492007 0.251382 0.268862 0.251382 0.308279 0.1724 0.308157 0.693314 0.32858 0.693315 0.274899 0.701247 0.274844 0.701247 0.328774 0.157255 0.268786 0.0965952 0.268363 0.693315 0.274899 0.157255 0.308189 0.0965953 0.353069 0.0965953 0.308619 0.693314 0.328728 0.251383 0.465969 0.1724 0.466788 0.251384 0.507279 0.1724 0.508717 0.693314 0.599297 0.693314 0.543504 0.701246 0.598802 0.747465 0.544161 0.747465 0.493506 0.739533 0.544273 0.251383 0.427891 0.0965954 0.504198 0.0176144 0.00639729 0.0176143 0.203848 0.621581 0.0066544 0.62158 0.186414 0.11174 0.28847 0.0965953 0.28847 0.157255 0.28847 0.1724 0.28847 0.251382 0.203848 0.251382 0.28847 0.0176143 0.28847 0.693315 0.301697 0.701247 0.301697 0.747465 0.186414 0.8192 0.186413 0.747465 0.301697 0.8192 0.301696 0.739533 0.301697 0.62158 0.301697 0.747465 0.301697 0.621579 0.732096 0.621579 0.793562 0.621579 0.847379 0.0176141 0.689021 0.8192 0.443025 0.8192 0.389774 0.0176142 0.392013 0.0176143 0.353069 0.11174 0.429092 0.251383 0.393603 0.62158 0.492007 0.62158 0.274899 0.251383 0.353406 0.62158 0.328729 0.8192 0.543217 0.8192 0.59619 0.747465 0.597874 0.8192 0.494242 0.25138 0.00639729 0.8192 0.00665394 0.0176141 0.734139 0.251385 0.689021 0.0176141 0.796202 0.8192 0.993395 0.11174 0.465629 0.0176142 0.504197 0.0965954 0.465688</float_array>
                    <technique_common>
                        <accessor count="372" source="#Geometry-mesh005-map1-array" stride="2">
                            <param name="S" type="float" />
                            <param name="T" type="float" />
                        </accessor>
                    </technique_common>
                </source>
                <source id="Geometry-mesh005-Falloff" name="Falloff">
                    <float_array id="Geometry-mesh005-Falloff-array" count="1">0</float_array>
                    <technique_common>
                        <accessor count="1" source="#Geometry-mesh005-Falloff-array" stride="1">
                            <param name="WEIGHT" type="float" />
                        </accessor>
                    </technique_common>
                </source>
                <vertices id="Geometry-mesh005-vertices">
                    <input semantic="POSITION" source="#Geometry-mesh005-positions" />
                </vertices>
                <triangles count="796" material="Material-girderBridge01">
                    <input semantic="VERTEX" source="#Geometry-mesh005-vertices" offset="0" />
                    <input semantic="NORMAL" source="#Geometry-mesh005-normals" offset="1" />
                    <input semantic="TEXCOORD" source="#Geometry-mesh005-map1" offset="2" set="0" />
                    <input semantic="WEIGHT" source="#Geometry-mesh005-Falloff" offset="3" set="0" />
                    <p>31 0 0 0 28 0 1 0 27 0 2 0 25 0 3 0 27 0 2 0 28 0 1 0 8 1 4 0 10 1 5 0 9 1 6 0 11 1 7 0 9 1 6 0 10 1 5 0 0 2 8 0 4 3 9 0 17 2 10 0 21 4 11 0 17 2 10 0 4 3 9 0 12 5 12 0 29 5 13 0 5 6 14 0 20 6 15 0 5 6 14 0 29 5 13 0 14 1 16 0 10 1 5 0 13 1 17 0 8 1 4 0 13 1 17 0 10 1 5 0 25 0 3 0 24 0 18 0 27 0 2 0 26 0 19 0 27 0 2 0 24 0 18 0 10 7 20 0 14 8 21 0 27 7 22 0 31 9 23 0 27 7 22 0 14 8 21 0 6 10 24 0 23 10 25 0 15 11 26 0 30 11 27 0 15 11 26 0 23 10 25 0 31 0 0 0 30 0 28 0 28 0 1 0 29 0 29 0 28 0 1 0 30 0 28 0 17 0 30 0 19 0 31 0 16 0 32 0 18 0 33 0 16 0 32 0 19 0 31 0 6 10 24 0 7 12 34 0 23 10 25 0 22 12 35 0 23 10 25 0 7 12 34 0 10 7 20 0 27 7 22 0 11 13 36 0 26 13 37 0 11 13 36 0 27 7 22 0 7 1 38 0 6 1 39 0 4 1 40 0 5 1 41 0 4 1 40 0 6 1 39 0 0 1 42 0 1 1 43 0 2 1 44 0 3 1 45 0 2 1 44 0 1 1 43 0 12 5 12 0 13 14 46 0 29 5 13 0 28 15 47 0 29 5 13 0 13 14 46 0 25 16 48 0 8 16 49 0 24 17 50 0 9 17 51 0 24 17 50 0 8 16 49 0 22 0 52 0 21 0 53 0 23 0 54 0 20 0 55 0 23 0 54 0 21 0 53 0 9 18 56 0 11 18 57 0 24 18 58 0 26 18 59 0 24 18 58 0 11 18 57 0 4 3 9 0 5 6 14 0 21 4 11 0 20 6 15 0 21 4 11 0 5 6 14 0 2 19 60 0 3 20 61 0 19 19 62 0 18 20 63 0 19 19 62 0 3 20 61 0 14 1 16 0 13 1 17 0 15 1 64 0 12 1 65 0 15 1 64 0 13 1 17 0 3 21 66 0 1 21 67 0 18 21 68 0 16 21 69 0 18 21 68 0 1 21 67 0 13 14 46 0 8 16 49 0 28 15 47 0 25 16 48 0 28 15 47 0 8 16 49 0 0 2 8 0 17 2 10 0 1 22 70 0 16 22 71 0 1 22 70 0 17 2 10 0 22 0 52 0 19 0 31 0 21 0 53 0 17 0 30 0 21 0 53 0 19 0 31 0 12 1 65 0 5 1 41 0 15 1 64 0 6 1 39 0 15 1 64 0 5 1 41 0 14 8 21 0 15 11 26 0 31 9 23 0 30 11 27 0 31 9 23 0 15 11 26 0 7 1 38 0 4 1 40 0 2 1 44 0 0 1 42 0 2 1 44 0 4 1 40 0 29 0 29 0 30 0 28 0 20 0 55 0 23 0 54 0 20 0 55 0 30 0 28 0 2 19 60 0 19 19 62 0 7 12 34 0 22 12 35 0 7 12 34 0 19 19 62 0 37 1 72 0 38 1 73 0 41 1 74 0 42 1 75 0 41 1 74 0 38 1 73 0 38 1 73 0 39 1 76 0 42 1 75 0 43 1 77 0 42 1 75 0 39 1 76 0 36 1 78 0 37 1 72 0 40 1 79 0 41 1 74 0 40 1 79 0 37 1 72 0 50 1 72 0 52 1 74 0 51 1 73 0 53 1 75 0 51 1 73 0 52 1 74 0 57 1 80 0 36 1 78 0 59 1 81 0 40 1 79 0 59 1 81 0 36 1 78 0 39 1 76 0 56 1 82 0 43 1 77 0 58 1 83 0 43 1 77 0 56 1 82 0 51 1 73 0 53 1 75 0 56 1 76 0 58 1 77 0 56 1 76 0 53 1 75 0 57 1 78 0 59 1 79 0 50 1 72 0 52 1 74 0 50 1 72 0 59 1 79 0 66 23 84 0 64 24 85 0 47 25 86 0 46 26 87 0 47 25 86 0 64 24 85 0 65 27 88 0 67 28 89 0 45 29 90 0 44 30 91 0 45 29 90 0 67 28 89 0 64 24 85 0 65 27 88 0 46 26 87 0 45 29 90 0 46 26 87 0 65 27 88 0 68 31 85 0 55 32 87 0 69 33 88 0 54 34 90 0 69 33 88 0 55 32 87 0 67 28 89 0 71 35 92 0 44 30 91 0 63 36 93 0 44 30 91 0 71 35 92 0 70 37 94 0 66 23 84 0 62 38 95 0 47 25 86 0 62 38 95 0 66 23 84 0 70 37 84 0 62 38 86 0 68 31 85 0 55 32 87 0 68 31 85 0 62 38 86 0 69 33 88 0 54 34 90 0 71 35 89 0 63 36 91 0 71 35 89 0 54 34 90 0 213 1 72 0 217 1 74 0 214 1 73 0 218 1 75 0 214 1 73 0 217 1 74 0 214 1 73 0 218 1 75 0 215 1 76 0 219 1 77 0 215 1 76 0 218 1 75 0 212 1 78 0 216 1 79 0 213 1 72 0 217 1 74 0 213 1 72 0 216 1 79 0 222 1 72 0 223 1 73 0 224 1 74 0 225 1 75 0 224 1 74 0 223 1 73 0 227 1 80 0 229 1 81 0 212 1 78 0 216 1 79 0 212 1 78 0 229 1 81 0 215 1 76 0 219 1 77 0 226 1 82 0 228 1 83 0 226 1 82 0 219 1 77 0 223 1 73 0 226 1 76 0 225 1 75 0 228 1 77 0 225 1 75 0 226 1 76 0 227 1 78 0 222 1 72 0 229 1 79 0 224 1 74 0 229 1 79 0 222 1 72 0 298 39 84 0 291 40 86 0 296 41 85 0 290 42 87 0 296 41 85 0 291 40 86 0 297 43 88 0 289 44 90 0 299 45 89 0 288 46 91 0 299 45 89 0 289 44 90 0 296 41 85 0 290 42 87 0 297 43 88 0 289 44 90 0 297 43 88 0 290 42 87 0 300 47 85 0 301 48 88 0 293 49 87 0 292 50 90 0 293 49 87 0 301 48 88 0 299 45 89 0 288 46 91 0 303 51 92 0 295 52 93 0 303 51 92 0 288 46 91 0 302 53 94 0 294 54 95 0 298 39 84 0 291 40 86 0 298 39 84 0 294 54 95 0 302 53 84 0 300 47 85 0 294 54 86 0 293 49 87 0 294 54 86 0 300 47 85 0 301 48 88 0 303 51 89 0 292 50 90 0 295 52 91 0 292 50 90 0 303 51 89 0 32 55 96 0 38 56 97 0 33 57 98 0 37 58 99 0 33 57 98 0 38 56 97 0 48 59 96 0 49 60 98 0 51 61 97 0 50 62 99 0 51 61 97 0 49 60 98 0 49 60 98 0 61 63 100 0 50 62 99 0 57 64 101 0 50 62 99 0 61 63 100 0 78 65 102 0 73 66 103 0 42 67 104 0 41 68 105 0 42 67 104 0 73 66 103 0 75 69 106 0 58 70 107 0 77 71 108 0 53 72 104 0 77 71 108 0 58 70 107 0 86 73 109 0 87 74 110 0 84 75 111 0 85 76 112 0 84 75 111 0 87 74 110 0 90 77 113 0 91 78 114 0 84 75 111 0 86 73 109 0 84 75 111 0 91 78 114 0 94 79 115 0 95 80 116 0 90 77 113 0 91 78 114 0 90 77 113 0 95 80 116 0 101 81 113 0 100 82 111 0 103 83 114 0 102 84 109 0 103 83 114 0 100 82 111 0 107 85 117 0 95 80 116 0 106 86 118 0 94 79 115 0 106 86 118 0 95 80 116 0 110 87 119 0 85 76 112 0 111 88 120 0 87 74 110 0 111 88 120 0 85 76 112 0 100 82 111 0 110 87 112 0 102 84 109 0 111 88 110 0 102 84 109 0 110 87 112 0 107 85 116 0 106 86 115 0 103 83 114 0 101 81 113 0 103 83 114 0 106 86 115 0 117 89 121 0 116 90 122 0 119 91 123 0 118 92 124 0 119 91 123 0 116 90 122 0 124 93 125 0 126 94 126 0 125 95 127 0 127 96 128 0 125 95 127 0 126 94 126 0 134 97 124 0 135 98 129 0 132 99 122 0 133 100 130 0 132 99 122 0 135 98 129 0 116 90 122 0 138 101 130 0 118 92 124 0 139 102 129 0 118 92 124 0 138 101 130 0 142 103 131 0 117 89 121 0 143 104 132 0 119 91 123 0 143 104 132 0 117 89 121 0 139 102 129 0 138 101 130 0 127 96 128 0 125 95 127 0 127 96 128 0 138 101 130 0 134 97 124 0 132 99 122 0 143 104 123 0 142 103 121 0 143 104 123 0 132 99 122 0 133 100 130 0 135 98 129 0 124 93 127 0 126 94 128 0 124 93 127 0 135 98 129 0 205 105 133 0 204 106 134 0 192 107 135 0 193 108 136 0 192 107 135 0 204 106 134 0 165 109 137 0 166 110 138 0 164 111 139 0 167 112 140 0 164 111 139 0 166 110 138 0 145 113 141 0 146 114 142 0 144 115 143 0 147 116 144 0 144 115 143 0 146 114 142 0 180 117 145 0 181 118 146 0 183 119 147 0 182 120 148 0 183 119 147 0 181 118 146 0 155 121 138 0 149 122 137 0 154 123 140 0 148 124 139 0 154 123 140 0 149 122 137 0 178 125 134 0 179 126 133 0 177 127 136 0 176 128 135 0 177 127 136 0 179 126 133 0 154 123 140 0 158 129 149 0 155 121 138 0 159 130 150 0 155 121 138 0 158 129 149 0 149 122 137 0 150 131 151 0 148 124 139 0 151 132 152 0 148 124 139 0 150 131 151 0 144 115 143 0 86 73 109 0 152 133 153 0 91 78 114 0 152 133 153 0 86 73 109 0 157 134 154 0 158 129 149 0 153 135 155 0 154 123 140 0 153 135 155 0 158 129 149 0 166 110 138 0 165 109 137 0 69 136 156 0 68 137 157 0 69 136 156 0 165 109 137 0 173 138 158 0 111 88 120 0 147 116 144 0 87 74 110 0 147 116 144 0 111 88 120 0 164 111 139 0 161 139 141 0 175 140 152 0 172 141 142 0 175 140 152 0 161 139 141 0 69 136 156 0 71 142 159 0 166 110 138 0 171 143 150 0 166 110 138 0 71 142 159 0 184 144 160 0 187 145 161 0 126 94 126 0 127 96 128 0 126 94 126 0 187 145 161 0 194 146 162 0 193 108 136 0 199 147 163 0 196 148 145 0 199 147 163 0 193 108 136 0 203 149 164 0 46 150 165 0 181 118 146 0 45 151 166 0 181 118 146 0 46 150 165 0 187 145 161 0 200 152 167 0 127 96 128 0 139 102 129 0 127 96 128 0 200 152 167 0 204 106 134 0 207 153 147 0 193 108 136 0 196 148 145 0 193 108 136 0 207 153 147 0 198 154 164 0 55 155 165 0 189 156 168 0 62 157 169 0 189 156 168 0 55 155 165 0 208 158 96 0 209 159 98 0 214 160 97 0 213 161 99 0 214 160 97 0 209 159 98 0 220 162 96 0 223 163 97 0 221 164 98 0 222 165 99 0 221 164 98 0 223 163 97 0 231 166 100 0 221 164 98 0 227 167 101 0 222 165 99 0 227 167 101 0 221 164 98 0 238 168 102 0 218 169 104 0 233 170 103 0 217 171 105 0 233 170 103 0 218 169 104 0 235 172 106 0 237 173 108 0 228 174 107 0 225 175 104 0 228 174 107 0 237 173 108 0 260 176 143 0 244 177 109 0 261 178 153 0 245 179 114 0 261 178 153 0 244 177 109 0 261 178 153 0 245 179 114 0 262 180 170 0 246 181 116 0 262 180 170 0 245 179 114 0 264 182 135 0 270 183 167 0 248 184 124 0 254 185 129 0 248 184 124 0 270 183 167 0 253 186 129 0 250 187 128 0 269 188 167 0 266 189 161 0 269 188 167 0 250 187 128 0 271 190 133 0 268 191 135 0 295 192 134 0 292 193 136 0 295 192 134 0 268 191 135 0 296 194 141 0 256 195 143 0 298 196 142 0 257 197 144 0 298 196 142 0 256 195 143 0 290 198 162 0 291 199 171 0 270 183 167 0 267 200 161 0 270 183 167 0 291 199 171 0 260 176 143 0 300 201 141 0 263 202 144 0 302 203 142 0 263 202 144 0 300 201 141 0 308 204 172 0 309 205 173 0 310 206 174 0 311 207 175 0 310 206 174 0 309 205 173 0 323 208 176 0 322 209 177 0 335 210 178 0 334 211 179 0 335 210 178 0 322 209 177 0 326 212 180 0 332 213 181 0 327 214 182 0 333 215 183 0 327 214 182 0 332 213 181 0 314 216 184 0 316 217 185 0 315 218 186 0 317 219 187 0 315 218 186 0 316 217 185 0 276 220 188 0 313 221 189 0 277 222 190 0 315 218 186 0 277 222 190 0 313 221 189 0 277 222 190 0 315 218 186 0 278 223 191 0 317 219 187 0 278 223 191 0 315 218 186 0 286 224 192 0 333 215 183 0 280 225 193 0 321 226 194 0 280 225 193 0 333 215 183 0 331 227 195 0 325 228 196 0 285 229 197 0 282 230 198 0 285 229 197 0 325 228 196 0 357 231 199 0 363 232 200 0 356 233 201 0 362 234 202 0 356 233 201 0 363 232 200 0 338 235 203 0 339 236 204 0 336 237 205 0 337 238 206 0 336 237 205 0 339 236 204 0 356 233 207 0 358 239 208 0 357 231 209 0 359 240 210 0 357 231 209 0 358 239 208 0 350 241 211 0 351 242 212 0 338 235 203 0 339 236 204 0 338 235 203 0 351 242 212 0 344 243 213 0 220 162 96 0 346 244 214 0 221 164 98 0 346 244 214 0 220 162 96 0 221 164 98 0 231 166 100 0 346 244 214 0 348 245 215 0 346 244 214 0 231 166 100 0 238 168 102 0 233 170 103 0 364 246 216 0 352 247 217 0 364 246 216 0 233 170 103 0 356 233 201 0 362 234 202 0 235 172 106 0 237 173 108 0 235 172 106 0 362 234 202 0 314 216 184 0 312 248 218 0 347 249 219 0 345 250 220 0 347 249 219 0 312 248 218 0 349 251 221 0 316 217 185 0 347 249 219 0 314 216 184 0 347 249 219 0 316 217 185 0 320 252 222 0 332 213 181 0 353 253 223 0 365 254 224 0 353 253 223 0 332 213 181 0 324 255 225 0 330 256 226 0 357 231 199 0 363 232 200 0 357 231 199 0 330 256 226 0 373 257 227 0 372 258 228 0 369 259 229 0 368 260 230 0 369 259 229 0 372 258 228 0 369 259 229 0 368 260 230 0 371 261 231 0 370 262 232 0 371 261 231 0 368 260 230 0 398 263 233 0 399 264 234 0 386 265 235 0 387 266 236 0 386 265 235 0 399 264 234 0 394 267 237 0 388 268 238 0 395 269 239 0 389 270 240 0 395 269 239 0 388 268 238 0 284 271 241 0 285 229 197 0 392 272 242 0 394 267 237 0 392 272 242 0 285 229 197 0 278 223 191 0 380 273 243 0 277 222 190 0 378 274 244 0 277 222 190 0 380 273 243 0 281 275 245 0 386 265 235 0 280 225 193 0 384 276 246 0 280 225 193 0 386 265 235 0 370 262 232 0 273 277 247 0 382 278 248 0 279 279 249 0 382 278 248 0 273 277 247 0 244 177 109 0 377 280 250 0 245 179 114 0 379 281 251 0 245 179 114 0 377 280 250 0 379 281 251 0 381 282 252 0 245 179 114 0 246 181 116 0 245 179 114 0 381 282 252 0 254 185 129 0 397 283 253 0 248 184 124 0 385 284 254 0 248 184 124 0 397 283 253 0 389 270 240 0 250 187 128 0 395 269 239 0 253 186 129 0 395 269 239 0 250 187 128 0 34 285 255 0 39 286 256 0 32 55 96 0 38 56 97 0 32 55 96 0 39 286 256 0 60 287 255 0 48 59 96 0 56 288 256 0 51 61 97 0 56 288 256 0 48 59 96 0 77 71 108 0 53 72 104 0 76 289 103 0 52 290 105 0 76 289 103 0 53 72 104 0 76 289 103 0 52 290 105 0 79 291 257 0 59 292 258 0 79 291 257 0 52 290 105 0 84 75 111 0 85 76 112 0 82 293 259 0 83 294 260 0 82 293 259 0 85 76 112 0 82 293 259 0 89 295 261 0 84 75 111 0 90 77 113 0 84 75 111 0 89 295 261 0 93 296 262 0 94 79 115 0 89 295 261 0 90 77 113 0 89 295 261 0 94 79 115 0 100 82 111 0 101 81 113 0 98 297 259 0 99 298 261 0 98 297 259 0 101 81 113 0 105 299 263 0 106 86 118 0 93 296 262 0 94 79 115 0 93 296 262 0 106 86 118 0 109 300 264 0 83 294 260 0 110 87 119 0 85 76 112 0 110 87 119 0 83 294 260 0 98 297 259 0 109 300 260 0 100 82 111 0 110 87 112 0 100 82 111 0 109 300 260 0 106 86 115 0 105 299 262 0 101 81 113 0 99 298 261 0 101 81 113 0 105 299 262 0 115 301 265 0 114 302 266 0 117 89 121 0 116 90 122 0 117 89 121 0 114 302 266 0 122 303 267 0 124 93 125 0 123 304 268 0 125 95 127 0 123 304 268 0 124 93 125 0 133 100 130 0 131 305 269 0 132 99 122 0 130 306 266 0 132 99 122 0 131 305 269 0 137 307 270 0 138 101 130 0 114 302 266 0 116 90 122 0 114 302 266 0 138 101 130 0 141 308 271 0 115 301 265 0 142 103 131 0 117 89 121 0 142 103 131 0 115 301 265 0 138 101 130 0 137 307 270 0 125 95 127 0 123 304 268 0 125 95 127 0 137 307 270 0 142 103 121 0 132 99 122 0 141 308 265 0 130 306 266 0 141 308 265 0 132 99 122 0 131 305 269 0 133 100 130 0 122 303 268 0 124 93 127 0 122 303 268 0 133 100 130 0 184 144 160 0 185 309 272 0 187 145 161 0 186 310 171 0 187 145 161 0 185 309 272 0 192 107 135 0 193 108 136 0 195 311 167 0 194 146 162 0 195 311 167 0 193 108 136 0 165 109 137 0 164 111 139 0 174 312 151 0 175 140 152 0 174 312 151 0 164 111 139 0 177 127 136 0 176 128 135 0 201 313 162 0 200 152 167 0 201 313 162 0 176 128 135 0 157 134 154 0 153 135 155 0 156 314 170 0 152 133 153 0 156 314 170 0 153 135 155 0 189 156 273 0 190 315 168 0 188 316 274 0 191 317 275 0 188 316 274 0 190 315 168 0 198 154 164 0 189 156 168 0 199 147 163 0 188 316 275 0 199 147 163 0 189 156 168 0 160 318 143 0 173 138 144 0 161 139 141 0 172 141 142 0 161 139 141 0 173 138 144 0 150 131 151 0 149 122 137 0 66 319 276 0 64 320 157 0 66 319 276 0 149 122 137 0 91 78 114 0 95 80 116 0 152 133 153 0 156 314 170 0 152 133 153 0 95 80 116 0 161 139 141 0 164 111 139 0 162 321 155 0 167 112 140 0 162 321 155 0 164 111 139 0 71 142 277 0 67 322 159 0 171 143 278 0 159 130 150 0 171 143 278 0 67 322 159 0 111 88 110 0 173 138 144 0 102 84 109 0 160 318 143 0 102 84 109 0 173 138 144 0 169 323 154 0 162 321 155 0 170 324 149 0 167 112 140 0 170 324 149 0 162 321 155 0 44 325 279 0 182 120 148 0 45 151 166 0 181 118 146 0 45 151 166 0 182 120 148 0 195 311 167 0 135 98 129 0 192 107 135 0 134 97 124 0 192 107 135 0 135 98 129 0 201 313 162 0 202 326 163 0 177 127 136 0 180 117 145 0 177 127 136 0 202 326 163 0 63 327 280 0 206 328 281 0 44 325 279 0 182 120 148 0 44 325 279 0 206 328 281 0 143 104 123 0 205 105 133 0 134 97 124 0 192 107 135 0 134 97 124 0 205 105 133 0 199 147 163 0 188 316 275 0 194 146 162 0 185 309 282 0 194 146 162 0 188 316 275 0 210 329 255 0 208 158 96 0 215 330 256 0 214 160 97 0 215 330 256 0 208 158 96 0 230 331 255 0 226 332 256 0 220 162 96 0 223 163 97 0 220 162 96 0 226 332 256 0 237 173 108 0 236 333 103 0 225 175 104 0 224 334 105 0 225 175 104 0 236 333 103 0 239 335 257 0 229 336 258 0 236 333 103 0 224 334 105 0 236 333 103 0 229 336 258 0 242 337 114 0 258 338 153 0 243 339 116 0 259 340 170 0 243 339 116 0 258 338 153 0 244 177 109 0 260 176 143 0 247 341 110 0 263 202 144 0 247 341 110 0 260 176 143 0 269 188 167 0 268 191 135 0 253 186 129 0 252 342 124 0 253 186 129 0 268 191 135 0 268 191 135 0 271 190 133 0 252 342 124 0 255 343 123 0 252 342 124 0 271 190 133 0 294 344 272 0 266 189 160 0 291 199 171 0 267 200 161 0 291 199 171 0 266 189 160 0 302 203 283 0 298 196 142 0 263 202 158 0 257 197 144 0 263 202 158 0 298 196 142 0 303 345 284 0 262 180 285 0 299 346 154 0 259 340 170 0 299 346 154 0 262 180 285 0 297 347 155 0 258 338 153 0 296 194 141 0 256 195 143 0 296 194 141 0 258 338 153 0 306 348 286 0 307 349 287 0 304 350 288 0 305 351 289 0 304 350 288 0 307 349 287 0 320 252 222 0 322 209 177 0 321 226 194 0 323 208 176 0 321 226 194 0 322 209 177 0 328 352 290 0 329 353 291 0 334 211 292 0 335 210 293 0 334 211 292 0 329 353 291 0 304 350 288 0 305 351 289 0 308 204 172 0 309 205 173 0 308 204 172 0 305 351 289 0 311 207 175 0 309 205 173 0 275 354 294 0 274 355 295 0 275 354 294 0 309 205 173 0 313 221 189 0 276 220 188 0 319 356 296 0 279 279 297 0 319 356 296 0 276 220 188 0 285 229 197 0 284 271 241 0 331 227 195 0 329 353 291 0 331 227 195 0 284 271 241 0 335 210 293 0 329 353 291 0 287 357 298 0 284 271 241 0 287 357 298 0 329 353 291 0 346 244 214 0 348 245 215 0 347 249 219 0 349 251 221 0 347 249 219 0 348 245 215 0 348 245 299 0 342 358 215 0 349 251 300 0 343 359 301 0 349 251 300 0 342 358 215 0 353 253 223 0 352 247 217 0 355 360 302 0 354 361 303 0 355 360 302 0 352 247 217 0 362 234 202 0 363 232 200 0 360 362 304 0 361 363 305 0 360 362 304 0 363 232 200 0 340 364 306 0 342 358 215 0 209 159 98 0 211 365 100 0 209 159 98 0 342 358 215 0 350 241 307 0 230 331 255 0 344 243 213 0 220 162 96 0 344 243 213 0 230 331 255 0 362 234 202 0 360 362 304 0 237 173 108 0 236 333 103 0 237 173 108 0 360 362 304 0 236 333 103 0 360 362 304 0 239 335 257 0 366 366 308 0 239 335 257 0 360 362 304 0 308 204 172 0 310 206 174 0 341 367 309 0 343 359 301 0 341 367 309 0 310 206 174 0 318 368 310 0 351 242 311 0 312 248 218 0 345 250 220 0 312 248 218 0 351 242 311 0 328 352 290 0 361 363 305 0 330 256 226 0 363 232 200 0 330 256 226 0 361 363 305 0 361 363 305 0 328 352 290 0 367 369 312 0 334 211 292 0 367 369 312 0 328 352 290 0 380 273 313 0 374 370 314 0 381 282 315 0 375 371 316 0 381 282 315 0 374 370 314 0 399 264 317 0 398 263 318 0 393 372 319 0 392 272 242 0 393 372 319 0 398 263 318 0 374 370 314 0 372 258 228 0 375 371 316 0 373 257 227 0 375 371 316 0 372 258 228 0 386 265 235 0 387 266 236 0 384 276 246 0 385 284 254 0 384 276 246 0 387 266 236 0 390 373 320 0 283 374 321 0 396 375 322 0 286 224 192 0 396 375 322 0 283 374 321 0 275 354 294 0 274 355 295 0 374 370 314 0 372 258 228 0 374 370 314 0 274 355 295 0 280 225 193 0 384 276 246 0 286 224 192 0 396 375 322 0 286 224 192 0 384 276 246 0 275 354 294 0 374 370 314 0 278 223 323 0 380 273 313 0 278 223 323 0 374 370 314 0 373 257 227 0 242 337 114 0 375 371 316 0 243 339 116 0 375 371 316 0 242 337 114 0 383 376 324 0 377 280 250 0 247 341 110 0 244 177 109 0 247 341 110 0 377 280 250 0 253 186 129 0 252 342 124 0 395 269 239 0 393 372 319 0 395 269 239 0 252 342 124 0 393 372 319 0 252 342 124 0 399 264 317 0 255 343 123 0 399 264 317 0 252 342 124 0 33 57 98 0 37 58 99 0 35 377 100 0 36 378 101 0 35 377 100 0 37 58 99 0 39 286 256 0 34 285 255 0 56 288 325 0 60 287 326 0 56 288 325 0 34 285 255 0 73 66 103 0 72 379 257 0 41 68 105 0 40 380 258 0 41 68 105 0 72 379 257 0 40 380 258 0 72 379 257 0 59 292 327 0 79 291 328 0 59 292 327 0 72 379 257 0 32 55 96 0 80 381 329 0 34 285 255 0 81 382 330 0 34 285 255 0 80 381 329 0 32 55 96 0 33 57 98 0 80 381 329 0 88 383 331 0 80 381 329 0 33 57 98 0 92 384 332 0 88 383 331 0 35 377 100 0 33 57 98 0 35 377 100 0 88 383 331 0 96 385 329 0 97 386 331 0 48 59 96 0 49 60 98 0 48 59 96 0 97 386 331 0 35 377 100 0 61 63 333 0 92 384 332 0 104 387 334 0 92 384 332 0 61 63 333 0 34 285 255 0 81 382 330 0 60 287 326 0 108 388 335 0 60 287 326 0 81 382 330 0 96 385 329 0 48 59 96 0 108 388 330 0 60 287 255 0 108 388 330 0 48 59 96 0 61 63 100 0 49 60 98 0 104 387 332 0 97 386 331 0 104 387 332 0 49 60 98 0 113 389 336 0 72 379 257 0 112 390 337 0 73 66 103 0 112 390 337 0 72 379 257 0 74 391 338 0 75 69 339 0 121 392 340 0 120 393 341 0 121 392 340 0 75 69 339 0 128 394 337 0 129 395 342 0 76 289 103 0 77 71 108 0 76 289 103 0 129 395 342 0 78 65 102 0 136 396 342 0 73 66 103 0 112 390 337 0 73 66 103 0 136 396 342 0 72 379 257 0 113 389 336 0 79 291 328 0 140 397 343 0 79 291 328 0 113 389 336 0 78 65 102 0 74 391 338 0 136 396 342 0 121 392 340 0 136 396 342 0 74 391 338 0 79 291 257 0 140 397 336 0 76 289 103 0 128 394 337 0 76 289 103 0 140 397 336 0 129 395 342 0 120 393 344 0 77 71 108 0 75 69 106 0 77 71 108 0 120 393 344 0 205 105 345 0 179 126 133 0 204 106 346 0 178 125 134 0 204 106 346 0 179 126 133 0 195 311 167 0 194 146 162 0 184 144 161 0 185 309 282 0 184 144 161 0 194 146 162 0 206 328 281 0 207 153 347 0 182 120 148 0 183 119 147 0 182 120 148 0 207 153 347 0 163 398 153 0 160 318 143 0 162 321 155 0 161 139 141 0 162 321 155 0 160 318 143 0 168 399 285 0 169 323 284 0 156 314 170 0 157 134 154 0 156 314 170 0 169 323 284 0 170 324 149 0 167 112 140 0 171 143 150 0 166 110 138 0 171 143 150 0 167 112 140 0 153 135 155 0 145 113 141 0 152 133 153 0 144 115 143 0 152 133 153 0 145 113 141 0 198 154 164 0 199 147 163 0 197 400 146 0 196 148 145 0 197 400 146 0 199 147 163 0 147 116 144 0 87 74 110 0 144 115 143 0 86 73 109 0 144 115 143 0 87 74 110 0 145 113 141 0 153 135 155 0 148 124 139 0 154 123 140 0 148 124 139 0 153 135 155 0 67 322 159 0 65 401 156 0 159 130 150 0 155 121 138 0 159 130 150 0 65 401 156 0 168 399 285 0 156 314 170 0 107 85 117 0 95 80 116 0 107 85 117 0 156 314 170 0 175 140 348 0 172 141 283 0 151 132 152 0 146 114 142 0 151 132 152 0 172 141 283 0 165 109 137 0 174 312 151 0 68 137 157 0 70 402 276 0 68 137 157 0 174 312 151 0 118 92 124 0 176 128 135 0 119 91 123 0 179 126 133 0 119 91 123 0 176 128 135 0 188 316 274 0 191 317 275 0 185 309 272 0 186 310 171 0 185 309 272 0 191 317 275 0 197 400 146 0 54 403 166 0 198 154 164 0 55 155 165 0 198 154 164 0 54 403 166 0 205 105 345 0 143 104 132 0 179 126 133 0 119 91 123 0 179 126 133 0 143 104 132 0 186 310 171 0 191 317 275 0 201 313 162 0 202 326 163 0 201 313 162 0 191 317 275 0 206 328 148 0 63 327 279 0 197 400 146 0 54 403 166 0 197 400 146 0 63 327 279 0 211 365 100 0 212 404 101 0 209 159 98 0 213 161 99 0 209 159 98 0 212 404 101 0 215 330 256 0 226 332 325 0 210 329 255 0 230 331 326 0 210 329 255 0 226 332 325 0 232 405 257 0 233 170 103 0 216 406 258 0 217 171 105 0 216 406 258 0 233 170 103 0 216 406 258 0 229 336 327 0 232 405 257 0 239 335 328 0 232 405 257 0 229 336 327 0 256 195 143 0 240 407 109 0 257 197 144 0 241 408 110 0 257 197 144 0 240 407 109 0 262 180 285 0 246 181 117 0 259 340 170 0 243 339 116 0 259 340 170 0 246 181 117 0 248 184 124 0 249 409 123 0 264 182 135 0 265 410 133 0 264 182 135 0 249 409 123 0 271 190 345 0 265 410 133 0 255 343 132 0 249 409 123 0 255 343 132 0 265 410 133 0 295 192 346 0 288 411 134 0 271 190 345 0 265 410 133 0 271 190 345 0 288 411 134 0 269 188 167 0 266 189 161 0 293 412 162 0 294 344 282 0 293 412 162 0 266 189 161 0 261 178 153 0 301 413 155 0 260 176 143 0 300 201 141 0 260 176 143 0 301 413 155 0 259 340 170 0 258 338 153 0 299 346 154 0 297 347 155 0 299 346 154 0 258 338 153 0 330 256 226 0 324 255 225 0 331 227 195 0 325 228 196 0 331 227 195 0 324 255 225 0 314 216 184 0 315 218 186 0 312 248 218 0 313 221 189 0 312 248 218 0 315 218 186 0 327 214 182 0 325 228 349 0 326 212 180 0 324 255 350 0 326 212 180 0 325 228 349 0 307 349 287 0 306 348 286 0 319 356 351 0 318 368 352 0 319 356 351 0 306 348 286 0 307 349 287 0 273 277 247 0 305 351 289 0 272 414 353 0 305 351 289 0 273 277 247 0 317 219 354 0 311 207 175 0 278 223 323 0 275 354 294 0 278 223 323 0 311 207 175 0 323 208 176 0 281 275 245 0 321 226 194 0 280 225 193 0 321 226 194 0 281 275 245 0 335 210 178 0 287 357 355 0 323 208 176 0 281 275 245 0 323 208 176 0 287 357 355 0 351 242 311 0 350 241 307 0 345 250 220 0 344 243 213 0 345 250 220 0 350 241 307 0 364 246 216 0 352 247 217 0 365 254 224 0 353 253 223 0 365 254 224 0 352 247 217 0 344 243 213 0 346 244 214 0 345 250 220 0 347 249 219 0 345 250 220 0 346 244 214 0 360 362 304 0 361 363 305 0 366 366 308 0 367 369 312 0 366 366 308 0 361 363 305 0 210 329 255 0 338 235 203 0 208 158 96 0 336 237 205 0 208 158 96 0 338 235 203 0 211 365 100 0 342 358 215 0 231 166 333 0 348 245 299 0 231 166 333 0 342 358 215 0 352 247 217 0 233 170 103 0 354 361 303 0 232 405 257 0 354 361 303 0 233 170 103 0 354 361 303 0 232 405 257 0 366 366 356 0 239 335 328 0 366 366 356 0 232 405 257 0 339 236 204 0 306 348 286 0 337 238 206 0 304 350 288 0 337 238 206 0 306 348 286 0 310 206 174 0 316 217 357 0 343 359 301 0 349 251 300 0 343 359 301 0 316 217 357 0 320 252 222 0 353 253 223 0 322 209 177 0 355 360 302 0 322 209 177 0 353 253 223 0 322 209 177 0 355 360 302 0 334 211 179 0 367 369 358 0 334 211 179 0 355 360 302 0 385 284 254 0 397 283 253 0 384 276 246 0 396 375 322 0 384 276 246 0 397 283 253 0 388 268 359 0 390 373 320 0 389 270 360 0 391 415 361 0 389 270 360 0 390 373 320 0 393 372 319 0 392 272 242 0 395 269 239 0 394 267 237 0 395 269 239 0 392 272 242 0 381 282 252 0 379 281 251 0 380 273 243 0 378 274 244 0 380 273 243 0 379 281 251 0 281 275 245 0 287 357 355 0 386 265 235 0 398 263 233 0 386 265 235 0 287 357 355 0 392 272 242 0 398 263 318 0 284 271 241 0 287 357 298 0 284 271 241 0 398 263 318 0 285 229 197 0 282 230 198 0 394 267 237 0 388 268 238 0 394 267 237 0 282 230 198 0 390 373 320 0 388 268 359 0 283 374 321 0 282 230 362 0 283 374 321 0 388 268 359 0 241 408 110 0 240 407 109 0 371 261 231 0 369 259 229 0 371 261 231 0 240 407 109 0 246 181 117 0 381 282 315 0 243 339 116 0 375 371 316 0 243 339 116 0 381 282 315 0 385 284 254 0 387 266 236 0 248 184 124 0 249 409 123 0 248 184 124 0 387 266 236 0 255 343 132 0 249 409 123 0 399 264 234 0 387 266 236 0 399 264 234 0 249 409 123 0 35 377 100 0 36 378 101 0 61 63 333 0 57 64 363 0 61 63 333 0 36 378 101 0 58 70 364 0 75 69 339 0 43 416 107 0 74 391 338 0 43 416 107 0 75 69 339 0 74 391 338 0 78 65 102 0 43 416 107 0 42 67 104 0 43 416 107 0 78 65 102 0 81 382 330 0 80 381 329 0 83 294 260 0 82 293 259 0 83 294 260 0 80 381 329 0 80 381 329 0 88 383 331 0 82 293 259 0 89 295 261 0 82 293 259 0 88 383 331 0 92 384 332 0 93 296 262 0 88 383 331 0 89 295 261 0 88 383 331 0 93 296 262 0 98 297 259 0 99 298 261 0 96 385 329 0 97 386 331 0 96 385 329 0 99 298 261 0 93 296 262 0 92 384 332 0 105 299 263 0 104 387 334 0 105 299 263 0 92 384 332 0 83 294 260 0 109 300 264 0 81 382 330 0 108 388 335 0 81 382 330 0 109 300 264 0 109 300 260 0 98 297 259 0 108 388 330 0 96 385 329 0 108 388 330 0 98 297 259 0 105 299 262 0 104 387 332 0 99 298 261 0 97 386 331 0 99 298 261 0 104 387 332 0 113 389 336 0 112 390 337 0 115 301 265 0 114 302 266 0 115 301 265 0 112 390 337 0 123 304 268 0 121 392 340 0 122 303 267 0 120 393 341 0 122 303 267 0 121 392 340 0 131 305 269 0 129 395 342 0 130 306 266 0 128 394 337 0 130 306 266 0 129 395 342 0 136 396 342 0 137 307 270 0 112 390 337 0 114 302 266 0 112 390 337 0 137 307 270 0 115 301 265 0 141 308 271 0 113 389 336 0 140 397 343 0 113 389 336 0 141 308 271 0 121 392 340 0 123 304 268 0 136 396 342 0 137 307 270 0 136 396 342 0 123 304 268 0 141 308 265 0 130 306 266 0 140 397 336 0 128 394 337 0 140 397 336 0 130 306 266 0 122 303 268 0 120 393 344 0 131 305 269 0 129 395 342 0 131 305 269 0 120 393 344 0 168 399 170 0 163 398 153 0 169 323 154 0 162 321 155 0 169 323 154 0 163 398 153 0 174 312 365 0 175 140 348 0 150 131 151 0 151 132 152 0 150 131 151 0 175 140 348 0 172 141 283 0 173 138 158 0 146 114 142 0 147 116 144 0 146 114 142 0 173 138 158 0 203 149 164 0 202 326 163 0 190 315 168 0 191 317 275 0 190 315 168 0 202 326 163 0 201 313 162 0 200 152 167 0 186 310 171 0 187 145 161 0 186 310 171 0 200 152 167 0 171 143 278 0 159 130 150 0 170 324 366 0 158 129 149 0 170 324 366 0 159 130 150 0 181 118 146 0 180 117 145 0 203 149 164 0 202 326 163 0 203 149 164 0 180 117 145 0 197 400 146 0 196 148 145 0 206 328 148 0 207 153 147 0 206 328 148 0 196 148 145 0 146 114 142 0 145 113 141 0 151 132 152 0 148 124 139 0 151 132 152 0 145 113 141 0 149 122 137 0 155 121 138 0 64 320 157 0 65 401 156 0 64 320 157 0 155 121 138 0 160 318 143 0 163 398 153 0 102 84 109 0 103 83 114 0 102 84 109 0 163 398 153 0 170 324 366 0 158 129 149 0 169 323 284 0 157 134 154 0 169 323 284 0 158 129 149 0 174 312 365 0 150 131 151 0 70 402 367 0 66 319 276 0 70 402 367 0 150 131 151 0 107 85 116 0 103 83 114 0 168 399 170 0 163 398 153 0 168 399 170 0 103 83 114 0 178 125 134 0 177 127 136 0 183 119 147 0 180 117 145 0 183 119 147 0 177 127 136 0 189 156 273 0 62 157 368 0 190 315 168 0 47 417 169 0 190 315 168 0 62 157 368 0 200 152 167 0 176 128 135 0 139 102 129 0 118 92 124 0 139 102 129 0 176 128 135 0 207 153 347 0 204 106 346 0 183 119 147 0 178 125 134 0 183 119 147 0 204 106 346 0 190 315 168 0 47 417 169 0 203 149 164 0 46 150 165 0 203 149 164 0 47 417 169 0 126 94 128 0 135 98 129 0 184 144 161 0 195 311 167 0 184 144 161 0 135 98 129 0 211 365 100 0 231 166 333 0 212 404 101 0 227 167 363 0 212 404 101 0 231 166 333 0 228 174 364 0 219 418 107 0 235 172 339 0 234 419 338 0 235 172 339 0 219 418 107 0 234 419 338 0 219 418 107 0 238 168 102 0 218 169 104 0 238 168 102 0 219 418 107 0 258 338 153 0 242 337 114 0 256 195 143 0 240 407 109 0 256 195 143 0 242 337 114 0 263 202 158 0 257 197 144 0 247 341 120 0 241 408 110 0 247 341 120 0 257 197 144 0 266 189 160 0 250 187 126 0 267 200 161 0 251 420 128 0 267 200 161 0 250 187 126 0 270 183 167 0 267 200 161 0 254 185 129 0 251 420 128 0 254 185 129 0 267 200 161 0 262 180 170 0 303 345 154 0 261 178 153 0 301 413 155 0 261 178 153 0 303 345 154 0 268 191 135 0 269 188 167 0 292 193 136 0 293 412 162 0 292 193 136 0 269 188 167 0 289 421 136 0 290 198 162 0 264 182 135 0 270 183 167 0 264 182 135 0 290 198 162 0 264 182 135 0 265 410 133 0 289 421 136 0 288 411 134 0 289 421 136 0 265 410 133 0 332 213 181 0 320 252 222 0 333 215 183 0 321 226 194 0 333 215 183 0 320 252 222 0 311 207 175 0 317 219 354 0 310 206 174 0 316 217 357 0 310 206 174 0 317 219 354 0 330 256 226 0 331 227 195 0 328 352 290 0 329 353 291 0 328 352 290 0 331 227 195 0 312 248 218 0 313 221 189 0 318 368 310 0 319 356 296 0 318 368 310 0 313 221 189 0 272 414 353 0 274 355 295 0 305 351 289 0 309 205 173 0 305 351 289 0 274 355 295 0 273 277 247 0 307 349 287 0 279 279 249 0 319 356 351 0 279 279 249 0 307 349 287 0 283 374 321 0 282 230 362 0 327 214 182 0 325 228 349 0 327 214 182 0 282 230 362 0 327 214 182 0 333 215 183 0 283 374 321 0 286 224 192 0 283 374 321 0 333 215 183 0 336 237 205 0 337 238 206 0 340 364 306 0 341 367 309 0 340 364 306 0 337 238 206 0 341 367 309 0 343 359 301 0 340 364 306 0 342 358 215 0 340 364 306 0 343 359 301 0 366 366 356 0 367 369 358 0 354 361 303 0 355 360 302 0 354 361 303 0 367 369 358 0 358 239 208 0 364 246 216 0 359 240 210 0 365 254 224 0 359 240 210 0 364 246 216 0 208 158 96 0 336 237 205 0 209 159 98 0 340 364 306 0 209 159 98 0 336 237 205 0 338 235 203 0 210 329 255 0 350 241 211 0 230 331 326 0 350 241 211 0 210 329 255 0 358 239 208 0 356 233 207 0 234 419 338 0 235 172 339 0 234 419 338 0 356 233 207 0 234 419 338 0 238 168 102 0 358 239 208 0 364 246 216 0 358 239 208 0 238 168 102 0 308 204 172 0 341 367 309 0 304 350 288 0 337 238 206 0 304 350 288 0 341 367 309 0 306 348 286 0 339 236 204 0 318 368 352 0 351 242 212 0 318 368 352 0 339 236 204 0 326 212 180 0 324 255 350 0 359 240 210 0 357 231 209 0 359 240 210 0 324 255 350 0 359 240 210 0 365 254 224 0 326 212 180 0 332 213 181 0 326 212 180 0 365 254 224 0 379 281 251 0 377 280 250 0 378 274 244 0 376 422 369 0 378 274 244 0 377 280 250 0 382 278 248 0 383 376 370 0 370 262 232 0 371 261 231 0 370 262 232 0 383 376 370 0 397 283 253 0 391 415 361 0 396 375 322 0 390 373 320 0 396 375 322 0 391 415 361 0 376 422 369 0 377 280 250 0 382 278 371 0 383 376 324 0 382 278 371 0 377 280 250 0 274 355 295 0 272 414 353 0 372 258 228 0 368 260 230 0 372 258 228 0 272 414 353 0 277 222 190 0 378 274 244 0 276 220 188 0 376 422 369 0 276 220 188 0 378 274 244 0 272 414 353 0 273 277 247 0 368 260 230 0 370 262 232 0 368 260 230 0 273 277 247 0 276 220 188 0 376 422 369 0 279 279 297 0 382 278 371 0 279 279 297 0 376 422 369 0 240 407 109 0 242 337 114 0 369 259 229 0 373 257 227 0 369 259 229 0 242 337 114 0 247 341 120 0 241 408 110 0 383 376 370 0 371 261 231 0 383 376 370 0 241 408 110 0 250 187 126 0 389 270 360 0 251 420 128 0 391 415 361 0 251 420 128 0 389 270 360 0 251 420 128 0 391 415 361 0 254 185 129 0 397 283 253 0 254 185 129 0 391 415 361 0</p>
                </triangles>
            </mesh>
        </geometry>
    </library_geometries>
    <library_visual_scenes>
        <visual_scene id="DefaultScene">
            <node id="Geometry-mesh005Node" name="damage02" type="NODE">
                <instance_geometry url="#Geometry-mesh005">
                    <bind_material>
                        <technique_common>
                            <instance_material symbol="Material-girderBridge01" target="#Material-girderBridge01">
                                <bind_vertex_input semantic="map1" input_semantic="TEXCOORD" input_set="0" />
                            </instance_material>
                        </technique_common>
                    </bind_material>
                </instance_geometry>
            </node>
            <node id="groupLocator024Node" name="Texture_Group" type="NODE">
                <node id="txtrLocator012Node" name="girder_rusty_support_spec__Image___Texture_" type="NODE">
                    <translate sid="translation015">0 0 0</translate>
                    <rotate sid="rotation014Y">0 1 0 0</rotate>
                    <rotate sid="rotation014X">1 0 0 0</rotate>
                    <rotate sid="rotation014Z">0 0 1 0</rotate>
                    <scale sid="scale013">1 1 1</scale>
                </node>
                <node id="txtrLocator007Node" name="girder_rusty_support_nrm__Image___Texture_" type="NODE">
                    <translate sid="translation010">0 0 0</translate>
                    <rotate sid="rotation009Y">0 1 0 0</rotate>
                    <rotate sid="rotation009X">1 0 0 0</rotate>
                    <rotate sid="rotation009Z">0 0 1 0</rotate>
                    <scale sid="scale008">1 1 1</scale>
                </node>
                <node id="txtrLocator002Node" name="girder_rusty_support__Image___Texture_" type="NODE">
                    <translate sid="translation005">0 0 0</translate>
                    <rotate sid="rotation004Y">0 1 0 0</rotate>
                    <rotate sid="rotation004X">1 0 0 0</rotate>
                    <rotate sid="rotation004Z">0 0 1 0</rotate>
                    <scale sid="scale003">1 1 1</scale>
                </node>
            </node>
        </visual_scene>
    </library_visual_scenes>
    <scene>
        <instance_visual_scene url="#DefaultScene" />
    </scene>
</COLLADA>
