<?xml version="1.0" encoding="utf-8" ?>
<COLLADA xmlns="http://www.collada.org/2005/11/COLLADASchema" version="1.4.1">
    <asset>
        <contributor>
            <authoring_tool>modo 501 [Build 41321], Microsoft Windows 7 (6.1.7600)</authoring_tool>
            <comments>Plug-in: [Build 41321]; Use Absolute Path: No; Merge Reference Items: No; Save Hidden Items: No; Save Cameras: No; Save Lights: No; Save Locators: No; Save Triangles as Triangles: No; Bake Matrices: No; Save Vertex Normals: Yes; Save UV Texture Coordinates: Yes; Save Vertex Colors: No; Save Vertex Weights: No; Save Animation: Yes; Sample Animation: Yes; Sample Animation Start: 0; Sample Animation End: 39; Save modo Profile: No; Save Maya Profile: No; Save 3ds Max Profile: No; Formatted Arrays: No;</comments>
            <source_data>file:///C:/Users/Rasmus/Desktop/benchexport.lxo</source_data>
        </contributor>
        <created>2011-09-22T13:16:01Z</created>
        <modified>2011-09-22T13:16:01Z</modified>
        <up_axis>Y_UP</up_axis>
    </asset>
    <library_images>
        <image id="Image0001" name="Image0001">
            <init_from>file:///C:/Users/Rasmus/Documents/Dropbox/Team/RasmusModeller/tv%20set/bench_tv_community_room.tga</init_from>
        </image>
    </library_images>
    <library_materials>
        <material id="Material-Default" name="Default">
            <instance_effect url="#Effect-Default" />
        </material>
    </library_materials>
    <library_effects>
        <effect id="Effect-Default" name="Default">
            <profile_COMMON>
                <newparam sid="Image0001-surface">
                    <surface type="2D">
                        <init_from>Image0001</init_from>
                        <format>A8R8G8B8</format>
                    </surface>
                </newparam>
                <newparam sid="Image0001-sampler">
                    <sampler2D>
                        <source>Image0001-surface</source>
                        <minfilter>LINEAR_MIPMAP_LINEAR</minfilter>
                        <magfilter>LINEAR</magfilter>
                    </sampler2D>
                </newparam>
                <technique sid="common">
                    <phong>
                        <diffuse>
                            <texture texture="Image0001-sampler" texcoord="Texture" />
                        </diffuse>
                        <specular>
                            <color sid="specular_effect_rgb">0.2 0.2 0.2 1</color>
                        </specular>
                    </phong>
                </technique>
            </profile_COMMON>
        </effect>
    </library_effects>
    <library_geometries>
        <geometry id="Geometry-Mesh" name="Mesh">
            <mesh>
                <source id="Geometry-Mesh-positions" name="positions">
                    <float_array id="Geometry-Mesh-positions-array" count="366">-1.2265 0.607528 0.378736 1.2265 0.607528 0.378736 1.2265 0.607528 -0.37762 -1.2265 0.607528 -0.37762 -1.2265 0.00025 -0.37762 1.2265 0.00025 -0.37762 1.2265 0.00025 0.378736 -1.2265 0.00025 0.378736 -1.2265 0.570028 -0.34012 -1.2265 0.570028 0.341236 -1.2265 0 -0.34012 -1.2265 0 0.341236 1.2265 0.570028 0.341236 1.2265 0.570028 -0.34012 1.2265 0 0.341236 1.2265 0 -0.34012 1.19815 0.448541 -0.34012 1.2265 0.448541 -0.34012 1.2265 0.448541 0.341236 1.19815 0.448541 0.341236 1.2265 0.476891 -0.34012 1.2265 0.476891 0.341236 1.19815 0.476891 -0.34012 1.19815 0.476891 0.341236 1.21894 0.475981 0.23591 1.21894 0.576797 0.336725 1.21894 0.563433 0.35009 1.21894 0.462617 0.249274 1.2046 0.475981 0.23591 1.2046 0.576797 0.336725 1.2046 0.563433 0.35009 1.2046 0.462617 0.249274 -1.2265 0.448541 -0.34012 -1.19815 0.448541 -0.34012 -1.19815 0.448541 0.341236 -1.2265 0.448541 0.341236 -1.19815 0.476891 -0.34012 -1.19815 0.476891 0.341236 -1.2265 0.476891 -0.34012 -1.2265 0.476891 0.341236 -1.2057 0.475981 0.23591 -1.2057 0.576797 0.336725 -1.2057 0.563433 0.35009 -1.2057 0.462617 0.249274 -1.22005 0.475981 0.23591 -1.22005 0.576797 0.336725 -1.22005 0.563433 0.35009 -1.22005 0.462617 0.249274 1.2265 0.570028 0.000558 -1.2265 0.570028 0.000558 -0.815846 0.294516 -0.407746 -0.815846 0.273011 -0.407746 -0.823626 0.265233 -0.399968 -0.823626 0.302295 -0.399968 -0.68361 0.273011 -0.407746 -0.675831 0.265233 -0.399968 -0.68361 0.294516 -0.407746 -0.675831 0.302295 -0.399968 -0.675831 0.302295 -0.37762 -0.675831 0.265233 -0.37762 -0.823626 0.302295 -0.37762 -0.823626 0.265233 -0.37762 -0.612103 0.290284 -0.378647 -0.645709 0.290284 -0.378647 -0.645709 0.290284 -0.391829 -0.612103 0.290284 -0.391829 -0.645709 0.303716 -0.378647 -0.645709 0.303716 -0.391829 -0.612103 0.303716 -0.391829 -0.612103 0.303716 -0.378647 -0.626103 0.269284 -0.378647 -0.659709 0.269284 -0.378647 -0.659709 0.269284 -0.391829 -0.626103 0.269284 -0.391829 -0.659709 0.282716 -0.378647 -0.659709 0.282716 -0.391829 -0.626103 0.282716 -0.391829 -0.626103 0.282716 -0.378647 0.816117 0.294516 0.407746 0.816117 0.273011 0.407746 0.823897 0.265233 0.399968 0.823897 0.302295 0.399968 0.683881 0.273011 0.407746 0.676102 0.265233 0.399968 0.683881 0.294516 0.407746 0.676102 0.302295 0.399968 0.676102 0.302295 0.37762 0.676102 0.265233 0.37762 0.823897 0.302295 0.37762 0.823897 0.265233 0.37762 0.612374 0.290284 0.378647 0.64598 0.290284 0.378647 0.64598 0.290284 0.391829 0.612374 0.290284 0.391829 0.64598 0.303716 0.378647 0.64598 0.303716 0.391829 0.612374 0.303716 0.391829 0.612374 0.303716 0.378647 0.626374 0.269284 0.378647 0.65998 0.269284 0.378647 0.65998 0.269284 0.391829 0.626374 0.269284 0.391829 0.65998 0.282716 0.378647 0.65998 0.282716 0.391829 0.626374 0.282716 0.391829 0.626374 0.282716 0.378647 1.21894 0.475981 -0.234854 1.21894 0.462617 -0.248218 1.21894 0.563433 -0.349034 1.21894 0.576797 -0.335669 1.2046 0.576797 -0.335669 1.2046 0.475981 -0.234854 1.2046 0.563433 -0.349034 1.2046 0.462617 -0.248218 -1.2057 0.475981 -0.234854 -1.2057 0.462617 -0.248218 -1.2057 0.563433 -0.349034 -1.2057 0.576797 -0.335669 -1.22005 0.576797 -0.335669 -1.22005 0.475981 -0.234854 -1.22005 0.563433 -0.349034 -1.22005 0.462617 -0.248218</float_array>
                    <technique_common>
                        <accessor count="122" source="#Geometry-Mesh-positions-array" stride="3">
                            <param name="X" type="float" />
                            <param name="Y" type="float" />
                            <param name="Z" type="float" />
                        </accessor>
                    </technique_common>
                </source>
                <source id="Geometry-Mesh-normals" name="normals">
                    <float_array id="Geometry-Mesh-normals-array" count="171">0 1 0 0 0 -1 0 0 1 -1 -4e-006 0 -1 0 0 -1 5e-006 0 1 -2e-006 0 1 -1e-006 0 1 0 0 0 -1 0 1 4e-006 0 1 2e-006 0 0 0.707097 -0.707116 0 0.707103 -0.707111 0 0.707108 -0.707106 0 -0.707112 0.707102 0 -0.707108 0.707106 0 -0.707105 0.707109 -1 1e-006 0 -1 3e-006 0 0 0.707105 -0.707109 0 0.707101 -0.707113 0 -0.707106 0.707107 -1 6e-006 0 -0.707017 0 -0.707196 -0.707018 0 -0.707196 -0.707018 0 -0.707195 0 -0.707105 -0.707109 0 -0.707105 -0.707108 0 -0.707106 -0.707108 0 0.707062 -0.707152 0 0.707061 -0.707153 0 0.70706 -0.707153 0.707063 0 -0.70715 0.707061 0 -0.707152 0.707059 0 -0.707154 0.707015 0 0.707198 0 -0.707107 0.707107 0 0.707062 0.707152 0 0.707061 0.707153 0 0.70706 0.707153 -0.707063 0 0.70715 -0.707061 0 0.707152 -0.707059 0 0.707154 0 0.707101 0.707113 0 0.707104 0.707109 0 0.707108 0.707106 0 -0.707108 -0.707106 0 -0.707106 -0.707107 -1 -3e-006 0 -1 -6e-006 0 1 6e-006 0 0 0.707103 0.707111 0 0.707105 0.707109 0 -0.707104 -0.707109 0 -0.707108 -0.707105 -1 -1e-006 0</float_array>
                    <technique_common>
                        <accessor count="57" source="#Geometry-Mesh-normals-array" stride="3">
                            <param name="X" type="float" />
                            <param name="Y" type="float" />
                            <param name="Z" type="float" />
                        </accessor>
                    </technique_common>
                </source>
                <source id="Geometry-Mesh-Texture" name="Texture">
                    <float_array id="Geometry-Mesh-Texture-array" count="148">0.010262 0.433994 0.989738 0.433994 0.010262 0.736006 0.989738 0.736006 0.99 0.747693 0.99 0.990307 0.01 0.747693 0.01 0.990307 0.006126 0.425653 0.382814 0.425653 0.024802 0.406977 0.364138 0.406977 0.692642 0.424358 0.995085 0.424358 0.711318 0.405682 0.995209 0.405682 0.695398 0.424358 0.676722 0.405682 0.392956 0.424358 0.392831 0.405682 0.995 0.164972 0.005 0.164972 0.995 0.395029 0.005 0.395029 0.596703 0.134122 0.596703 0.147878 0.927297 0.134122 0.927297 0.147878 0.58988 0.134098 0.58988 0.147902 0.25812 0.134098 0.25812 0.147902 0.006418 0.13638 0.087582 0.13638 0.006418 0.125621 0.087582 0.125621 0.096491 0.136222 0.20751 0.136222 0.096491 0.124726 0.20751 0.124726 0.005 0.118765 0.995 0.118765 0.005 0.003716 0.995 0.003716 0.054109 0.15333 0.054109 0.146206 0.05698 0.156854 0.05698 0.142674 0.009367 0.146206 0.006455 0.142674 0.009367 0.15333 0.006455 0.156854 0.113979 0.142503 0.113979 0.157497 0.123021 0.142503 0.123021 0.157497 0.060509 0.149146 0.11149 0.149146 0.060509 0.156854 0.11149 0.156854 0.157113 0.157375 0.181967 0.157375 0.157113 0.147626 0.181967 0.147626 0.154555 0.149459 0.146445 0.149459 0.154555 0.157683 0.146445 0.157683 0.144348 0.15713 0.125764 0.15713 0.144348 0.149702 0.125764 0.149702 0.154555 0.149419 0.146445 0.149419</float_array>
                    <technique_common>
                        <accessor count="74" source="#Geometry-Mesh-Texture-array" stride="2">
                            <param name="S" type="float" />
                            <param name="T" type="float" />
                        </accessor>
                    </technique_common>
                </source>
                <vertices id="Geometry-Mesh-vertices">
                    <input semantic="POSITION" source="#Geometry-Mesh-positions" />
                </vertices>
                <polylist count="204" material="Material-Default">
                    <input semantic="VERTEX" source="#Geometry-Mesh-vertices" offset="0" />
                    <input semantic="NORMAL" source="#Geometry-Mesh-normals" offset="1" />
                    <input semantic="TEXCOORD" source="#Geometry-Mesh-Texture" offset="2" set="0" />
                    <vcount>3 3 3 3 3 3 3 3 3 3 3 3 3 3 3 3 3 3 3 3 3 3 3 3 3 3 3 3 3 3 3 3 3 3 3 3 3 3 3 3 3 3 3 3 3 3 3 3 3 3 3 3 3 3 3 3 3 3 3 3 3 3 3 3 3 3 3 3 3 3 3 3 3 3 3 3 3 3 3 3 3 3 3 3 3 3 3 3 3 3 3 3 3 3 3 3 3 3 3 3 3 3 3 3 3 3 3 3 3 3 3 3 3 3 3 3 3 3 3 3 3 3 3 3 3 3 3 3 3 3 3 3 3 3 3 3 3 3 3 3 3 3 3 3 3 3 3 3 3 3 3 3 3 3 3 3 3 3 3 3 3 3 3 3 3 3 3 3 3 3 3 3 3 3 3 3 3 3 3 3 3 3 3 3 3 3 3 3 3 3 3 3 3 3 3 3 3 3 3 3 3 3 3 3</vcount>
                    <p>0 0 0 1 0 1 3 0 2 3 0 2 1 0 1 2 0 3 4 1 4 3 1 5 5 1 6 5 1 6 3 1 5 2 1 7 6 2 4 1 2 5 7 2 6 7 2 6 1 2 5 0 2 7 0 0 0 1 0 1 3 0 2 3 0 2 1 0 1 2 0 3 4 1 4 3 1 5 5 1 6 5 1 6 3 1 5 2 1 7 6 2 4 1 2 5 7 2 6 7 2 6 1 2 5 0 2 7 0 3 8 3 4 9 9 4 10 9 4 10 3 4 9 8 5 11 3 4 12 4 4 13 8 4 14 8 4 14 4 4 13 10 4 15 0 4 16 9 4 17 7 4 18 7 4 18 9 4 17 11 4 19 2 6 9 1 7 8 13 7 11 13 7 11 1 7 8 12 8 10 1 8 16 6 8 18 12 8 17 12 8 17 6 8 18 14 8 19 2 8 12 13 8 14 5 8 13 5 8 13 13 8 14 15 8 15 0 3 8 3 4 9 9 4 10 9 4 10 3 4 9 8 5 11 3 4 12 4 4 13 8 4 14 8 4 14 4 4 13 10 4 15 0 4 16 9 4 17 7 4 18 7 4 18 9 4 17 11 4 19 2 6 9 1 7 8 13 7 11 13 7 11 1 7 8 12 8 10 1 8 16 6 8 18 12 8 17 12 8 17 6 8 18 14 8 19 2 8 12 13 8 14 5 8 13 5 8 13 13 8 14 15 8 15 14 1 20 11 1 21 12 1 22 12 1 22 11 1 21 9 1 23 15 2 20 13 2 22 10 2 21 10 2 21 13 2 22 8 2 23 16 9 24 17 9 25 19 9 26 19 9 26 17 9 25 18 9 27 17 8 28 20 8 29 18 8 30 18 8 30 20 8 29 21 8 31 20 0 25 22 0 24 21 0 27 21 0 27 22 0 24 23 0 26 22 4 29 16 4 28 23 4 31 23 4 31 16 4 28 19 4 30 24 10 32 25 11 33 27 11 34 27 11 34 25 11 33 26 8 35 25 12 36 24 13 37 29 13 38 29 13 38 24 13 37 28 14 39 30 15 38 31 16 39 26 16 36 26 16 36 31 16 39 27 17 37 28 4 32 31 18 34 29 18 33 29 18 33 31 18 34 30 19 35 32 9 24 33 9 25 35 9 26 35 9 26 33 9 25 34 9 27 33 8 28 36 8 29 34 8 30 34 8 30 36 8 29 37 8 31 36 0 25 38 0 24 37 0 27 37 0 27 38 0 24 39 0 26 38 4 29 32 4 28 39 4 31 39 4 31 32 4 28 35 4 30 40 7 32 41 7 33 43 7 34 43 7 34 41 7 33 42 8 35 41 20 36 40 13 37 45 13 38 45 13 38 40 13 37 44 21 39 46 16 38 47 22 39 42 22 36 42 22 36 47 22 39 43 17 37 44 23 32 47 19 34 45 19 33 45 19 33 47 19 34 46 4 35 8 9 40 13 9 41 49 9 42 49 9 42 13 9 41 48 9 43 9 9 42 49 9 40 12 9 43 12 9 43 49 9 40 48 9 41 50 24 44 51 25 45 53 25 46 53 25 46 51 25 45 52 26 47 51 27 45 54 28 48 52 28 47 52 28 47 54 28 48 55 29 49 56 30 50 50 31 44 57 31 51 57 31 51 50 31 44 53 32 46 54 33 48 56 34 50 55 34 49 55 34 49 56 34 50 57 35 51 50 24 44 51 25 45 53 25 46 53 25 46 51 25 45 52 26 47 51 27 45 54 28 48 52 28 47 52 28 47 54 28 48 55 29 49 56 30 50 50 31 44 57 31 51 57 31 51 50 31 44 53 32 46 54 33 48 56 34 50 55 34 49 55 34 49 56 34 50 57 35 51 51 1 45 50 1 44 54 1 48 54 1 48 50 1 44 56 1 50 55 8 52 57 8 53 59 8 54 59 8 54 57 8 53 58 8 55 57 0 56 53 0 57 58 0 58 58 0 58 53 0 57 60 0 59 53 4 53 52 4 52 60 4 55 60 4 55 52 4 52 61 4 54 52 9 57 55 9 56 61 9 59 61 9 59 55 9 56 59 9 58 51 1 45 50 1 44 54 1 48 54 1 48 50 1 44 56 1 50 55 8 52 57 8 53 59 8 54 59 8 54 57 8 53 58 8 55 57 0 56 53 0 57 58 0 58 58 0 58 53 0 57 60 0 59 53 4 53 52 4 52 60 4 55 60 4 55 52 4 52 61 4 54 52 9 57 55 9 56 61 9 59 61 9 59 55 9 56 59 9 58 62 9 60 63 9 61 65 9 62 65 9 62 63 9 61 64 9 63 66 4 64 67 4 65 63 4 66 63 4 66 67 4 65 64 4 67 67 1 68 68 1 69 64 1 70 64 1 70 68 1 69 65 1 71 68 8 65 69 8 64 65 8 67 65 8 67 69 8 64 62 8 66 69 0 60 68 0 62 66 0 61 66 0 61 68 0 62 67 0 63 70 9 60 71 9 61 73 9 62 73 9 62 71 9 61 72 9 63 74 4 66 75 4 67 71 4 72 71 4 72 75 4 67 72 4 73 75 1 68 76 1 69 72 1 70 72 1 70 76 1 69 73 1 71 76 8 67 77 8 66 73 8 73 73 8 73 77 8 66 70 8 72 77 0 60 76 0 62 74 0 61 74 0 61 76 0 62 75 0 63 78 36 44 79 36 45 81 36 46 81 36 46 79 36 45 80 36 47 79 37 45 82 22 48 80 22 47 80 22 47 82 22 48 83 22 49 84 38 50 78 39 44 85 39 51 85 39 51 78 39 44 81 40 46 82 41 48 84 42 50 83 42 49 83 42 49 84 42 50 85 43 51 78 36 44 79 36 45 81 36 46 81 36 46 79 36 45 80 36 47 79 37 45 82 22 48 80 22 47 80 22 47 82 22 48 83 22 49 84 38 50 78 39 44 85 39 51 85 39 51 78 39 44 81 40 46 82 41 48 84 42 50 83 42 49 83 42 49 84 42 50 85 43 51 79 2 45 78 2 44 82 2 48 82 2 48 78 2 44 84 2 50 83 4 52 85 4 53 87 4 54 87 4 54 85 4 53 86 4 55 85 0 56 81 0 57 86 0 58 86 0 58 81 0 57 88 0 59 81 8 53 80 8 52 88 8 55 88 8 55 80 8 52 89 8 54 80 9 57 83 9 56 89 9 59 89 9 59 83 9 56 87 9 58 79 2 45 78 2 44 82 2 48 82 2 48 78 2 44 84 2 50 83 4 52 85 4 53 87 4 54 87 4 54 85 4 53 86 4 55 85 0 56 81 0 57 86 0 58 86 0 58 81 0 57 88 0 59 81 8 53 80 8 52 88 8 55 88 8 55 80 8 52 89 8 54 80 9 57 83 9 56 89 9 59 89 9 59 83 9 56 87 9 58 90 9 60 91 9 61 93 9 62 93 9 62 91 9 61 92 9 63 94 8 64 95 8 65 91 8 66 91 8 66 95 8 65 92 8 67 95 2 68 96 2 69 92 2 70 92 2 70 96 2 69 93 2 71 96 4 65 97 4 64 93 4 67 93 4 67 97 4 64 90 4 66 97 0 60 96 0 62 94 0 61 94 0 61 96 0 62 95 0 63 98 9 60 99 9 61 101 9 62 101 9 62 99 9 61 100 9 63 102 8 66 103 8 67 99 8 72 99 8 72 103 8 67 100 8 73 103 2 68 104 2 69 100 2 70 100 2 70 104 2 69 101 2 71 104 4 67 105 4 66 101 4 73 101 4 73 105 4 66 98 4 72 105 0 60 104 0 62 102 0 61 102 0 61 104 0 62 103 0 63 106 8 32 107 8 34 109 8 33 109 8 33 107 8 34 108 8 35 109 44 36 110 45 38 106 45 37 106 45 37 110 45 38 111 46 39 112 47 38 108 48 36 113 48 39 113 48 39 108 48 36 107 27 37 111 4 32 110 49 33 113 49 34 113 49 34 110 49 33 112 50 35 114 51 32 115 11 34 117 11 33 117 11 33 115 11 34 116 7 35 117 44 36 118 52 38 114 52 37 114 52 37 118 52 38 119 53 39 120 54 38 116 48 36 121 48 39 121 48 39 116 48 36 115 55 37 119 49 32 118 56 33 121 56 34 121 56 34 118 56 33 120 4 35</p>
                </polylist>
            </mesh>
        </geometry>
    </library_geometries>
    <library_visual_scenes>
        <visual_scene id="DefaultScene">
            <node id="Geometry-MeshNode" name="Mesh" type="NODE">
                <translate sid="Position">0 0 0</translate>
                <rotate sid="RotationY">0 1 0 0</rotate>
                <rotate sid="RotationX">1 0 0 0</rotate>
                <rotate sid="RotationZ">0 0 1 0</rotate>
                <scale sid="Scale">1 1 1</scale>
                <instance_geometry url="#Geometry-Mesh">
                    <bind_material>
                        <technique_common>
                            <instance_material symbol="Material-Default" target="#Material-Default">
                                <bind_vertex_input semantic="Texture" input_semantic="TEXCOORD" input_set="0" />
                            </instance_material>
                        </technique_common>
                    </bind_material>
                </instance_geometry>
            </node>
        </visual_scene>
    </library_visual_scenes>
    <scene>
        <instance_visual_scene url="#DefaultScene" />
    </scene>
</COLLADA>
