<?xml version="1.0" encoding="utf-8"?>
<COLLADA xmlns="http://www.collada.org/2005/11/COLLADASchema" version="1.4.1">
  <asset>
    <contributor>
      <author>Marc</author>
      <authoring_tool>OpenCOLLADA2008</authoring_tool>
      <comments>
			ColladaMaya export options: 
			bakeTransforms=0;relativePaths=0;copyTextures=0;exportTriangles=1;exportCgfxFileReferences=1;
			isSampling=1;curveConstrainSampling=0;removeStaticCurves=1;exportPolygonMeshes=1;exportLights=0;
			exportCameras=1;exportJointsAndSkin=1;exportAnimations=1;exportInvisibleNodes=0;exportDefaultCameras=0;
			exportTexCoords=1;exportNormals=1;exportNormalsPerVertex=1;exportVertexColors=1;exportVertexColorsPerVertex=1;
			exportTexTangents=0;exportTangents=0;exportReferencedMaterials=0;exportMaterialsOnly=0;
			exportXRefs=1;dereferenceXRefs=1;exportCameraAsLookat=0;cameraXFov=0;cameraYFov=1;doublePrecision=0
		</comments>
      <source_data>file:///E:/depth/redist/static_objects/station/roof/lab_ceiling_pipes.dae</source_data>
    </contributor>
    <created>2015-07-27T16:54:10</created>
    <modified>2015-07-27T16:54:10</modified>
    <unit name="meter" meter="1"/>
    <up_axis>Y_UP</up_axis>
  </asset>
  <library_materials>
    <material id="lambert1" name="lambert1">
      <instance_effect url="#lambert1-fx"/>
    </material>
    <material id="Material-lab_ceiling_pipes" name="lab_ceiling_pipes_1">
      <instance_effect url="#Effect-lab_ceiling_pipes"/>
    </material>
  </library_materials>
  <library_effects>
    <effect id="Effect-lab_ceiling_pipes">
      <profile_COMMON>
        <newparam sid="Image0002-surface">
          <surface type="2D">
            <init_from>Image0002</init_from>
          </surface>
        </newparam>
        <newparam sid="Image0002-sampler">
          <sampler2D>
            <source>Image0002-surface</source>
          </sampler2D>
        </newparam>
        <technique sid="common">
          <phong>
            <emission>
              <color sid="emission">0 0 0 1</color>
            </emission>
            <ambient>
              <color sid="ambient">0 0 0 1</color>
            </ambient>
            <diffuse>
              <texture texture="Image0002-sampler" texcoord="TEX0">
                <extra>
                  <technique profile="OpenCOLLADAMaya">
                    <blend_mode>NONE</blend_mode>
                    <coverageU sid="coverageU">1</coverageU>
                    <coverageV sid="coverageV">1</coverageV>
                    <fast sid="fast">0</fast>
                    <mirrorU sid="mirrorU">0</mirrorU>
                    <mirrorV sid="mirrorV">0</mirrorV>
                    <noiseU sid="noiseU">0</noiseU>
                    <noiseV sid="noiseV">0</noiseV>
                    <offsetU sid="offsetU">0</offsetU>
                    <offsetV sid="offsetV">0</offsetV>
                    <repeatU sid="repeatU">1</repeatU>
                    <repeatV sid="repeatV">1</repeatV>
                    <rotateFrame sid="rotateFrame">0</rotateFrame>
                    <rotateUV sid="rotateUV">0</rotateUV>
                    <stagger sid="stagger">0</stagger>
                    <translateFrameU sid="translateFrameU">0</translateFrameU>
                    <translateFrameV sid="translateFrameV">0</translateFrameV>
                    <wrapU sid="wrapU">1</wrapU>
                    <wrapV sid="wrapV">1</wrapV>
                  </technique>
                </extra>
              </texture>
            </diffuse>
            <specular>
              <color sid="specular">0.2 0.2 0.2 1</color>
            </specular>
            <shininess>
              <float sid="shininess">16.5642</float>
            </shininess>
            <reflective>
              <color sid="reflective">0 0 0 1</color>
            </reflective>
            <reflectivity>
              <float sid="reflectivity">0</float>
            </reflectivity>
            <transparent opaque="RGB_ZERO">
              <color sid="transparent">0 0 0 1</color>
            </transparent>
            <transparency>
              <float>1</float>
            </transparency>
          </phong>
        </technique>
      </profile_COMMON>
    </effect>
    <effect id="lambert1-fx">
      <profile_COMMON>
        <technique sid="common">
          <lambert>
            <emission>
              <color sid="emission">0 0 0 1</color>
            </emission>
            <ambient>
              <color sid="ambient">0 0 0 1</color>
            </ambient>
            <diffuse>
              <color sid="diffuse">0.4 0.4 0.4 1</color>
            </diffuse>
            <transparent opaque="RGB_ZERO">
              <color sid="transparent">0 0 0 1</color>
            </transparent>
            <transparency>
              <float>1</float>
            </transparency>
          </lambert>
        </technique>
      </profile_COMMON>
    </effect>
  </library_effects>
  <library_images>
    <image id="Image0002" name="Image0002">
      <init_from>file:///E:/depth/redist/static_objects/station/roof/lab_ceiling_pipes.dds</init_from>
      <extra>
        <technique profile="OpenCOLLADAMaya">
          <dgnode_type>kFile</dgnode_type>
          <image_sequence>0</image_sequence>
          <originalMayaNodeId>Image0002</originalMayaNodeId>
        </technique>
      </extra>
    </image>
  </library_images>
  <library_geometries>
    <geometry id="Geometry-mesh001" name="lab_ceiling_pipes">
      <mesh>
        <source id="Geometry-mesh001-positions" name="Geometry-mesh001-positions">
          <float_array id="Geometry-mesh001-positions-array" count="492">-2 -0.019049 -0.532587 -2 0.034615 -0.544836 -2 0.07765 -0.510516 -2 0.07765 -0.455473 -2 0.034615 -0.421153 -2 -0.019049 -0.433402 -2 -0.042931 -0.482995 2 -0.019049 -0.532587 2 0.034615 -0.544836 2 0.07765 -0.510516 2 0.07765 -0.455473 2 0.034615 -0.421153 2 -0.019049 -0.433402 2 -0.042931 -0.482995 2 0.036793 -0.252459 2 0.079766 -0.288063 2 0.078722 -0.34386 2 0.034448 -0.377832 2 -0.019717 -0.364399 2 -0.042986 -0.313675 2 -0.017837 -0.263856 -2 0.036793 -0.252459 -2 0.079766 -0.288064 -2 0.078723 -0.34386 -2 0.034448 -0.377832 -2 -0.019718 -0.364399 -2 -0.042986 -0.313675 -2 -0.017837 -0.263856 2 0.044023 -0.71194 2 -0.01327 -0.702206 2 -0.041381 -0.651342 2 -0.019142 -0.597651 2 0.036702 -0.581563 2 0.084098 -0.615192 2 0.087356 -0.673216 -2 0.044023 -0.71194 -2 -0.01327 -0.702206 -2 -0.041381 -0.651342 -2 -0.019142 -0.597651 -2 0.036702 -0.581564 -2 0.084098 -0.615193 -2 0.087356 -0.673216 -2 -0.014924 -0.743984 -2 -0.041382 -0.794044 -2 -0.018739 -0.84594 -2 0.035953 -0.860595 -2 0.08151 -0.826972 -2 0.083627 -0.770391 -2 0.04071 -0.733458 2 -0.014924 -0.743984 2 -0.041382 -0.794044 2 -0.018739 -0.84594 2 0.035953 -0.860595 2 0.08151 -0.826972 2 0.083627 -0.770391 2 0.04071 -0.733458 -2 -0.013869 0.522942 -2 -0.039589 0.474277 -2 -0.017576 0.423826 -2 0.035592 0.409579 -2 0.07988 0.442265 -2 0.081937 0.497271 -2 0.040216 0.533175 2 -0.013868 0.522942 2 -0.039589 0.474277 2 -0.017577 0.423826 2 0.035591 0.409579 2 0.07988 0.442266 2 0.081938 0.497271 2 0.040216 0.533175 2 0.043188 0.240551 2 -0.01183 0.249899 2 -0.038825 0.298742 2 -0.017469 0.350301 2 0.036157 0.36575 2 0.081671 0.333457 2 0.0848 0.277738 -2 0.043188 0.240551 -2 -0.01183 0.249899 -2 -0.038825 0.298742 -2 -0.017469 0.350301 -2 0.036157 0.36575 -2 0.081671 0.333457 -2 0.0848 0.277738 2 -0.021394 0.685308 2 0.035264 0.698239 2 0.0807 0.662005 2 0.0807 0.60389 2 0.035264 0.567657 2 -0.021394 0.580588 2 -0.046609 0.632948 -2 -0.021394 0.685308 -2 0.035264 0.698239 -2 0.0807 0.662005 -2 0.0807 0.60389 -2 0.035264 0.567657 -2 -0.021394 0.580588 -2 -0.046609 0.632948 -2 0.033282 0.726619 -2 0.076883 0.762743 -2 0.075824 0.819354 -2 0.030903 0.853823 -2 -0.024053 0.840193 -2 -0.047662 0.788729 -2 -0.022145 0.738183 2 0.033282 0.726618 2 0.076883 0.762743 2 0.075824 0.819353 2 0.030904 0.853823 2 -0.024053 0.840194 2 -0.047661 0.788728 2 -0.022145 0.738183 2 -0.065667 -0.19668 -2 -0.065667 -0.19668 2 -0.065667 0.183066 -2 -0.065667 0.183066 2 -0.03682 -0.225067 -2 -0.03682 -0.225067 2 -0.03682 0.211444 -2 -0.03682 0.211444 -1.9021 -0.086964 -0.916738 -1.9021 -0.03682 -0.916738 -1.9021 -0.03682 0.903117 -1.9021 -0.086964 0.903117 -1.925 -0.086964 0.812254 -1.9021 -0.086964 0.838223 -1.9021 -0.03682 0.838223 -1.925 -0.03682 0.812254 -1.925 -0.086964 -0.825875 -1.9021 -0.086964 -0.851844 -1.925 -0.03682 -0.825875 -1.9021 -0.03682 -0.851844 -2 -0.03682 0.903117 -2 -0.086964 0.903117 -2 -0.086964 -0.916738 -2 -0.03682 -0.916738 1.90209 -0.086964 -0.916738 1.90209 -0.03682 -0.916738 1.90209 -0.03682 0.903117 1.90209 -0.086964 0.903117 1.925 -0.03682 0.812254 1.90209 -0.03682 0.838223 1.925 -0.086964 0.812254 1.90209 -0.086964 0.838223 1.90209 -0.03682 -0.851844 1.925 -0.03682 -0.825875 1.925 -0.086964 -0.825875 1.90209 -0.086964 -0.851844 2 -0.03682 0.903117 2 -0.086964 0.903117 2 -0.086964 -0.916738 2 -0.03682 -0.916738 2 0.152796 -0.225067 -2 0.152796 -0.225067 2 0.152796 0.211444 -2 0.152796 0.211444 2 0.152796 -0.827267 -2 0.152796 -0.827267 2 0.152796 0.813644 -2 0.152796 0.813644 2 -0.054268 -0.916738 -2 -0.054268 -0.916738 2 -0.054269 0.916738 -2 -0.054269 0.916738</float_array>
          <technique_common>
            <accessor source="#Geometry-mesh001-positions-array" count="164" stride="3">
              <param name="X" type="float"/>
              <param name="Y" type="float"/>
              <param name="Z" type="float"/>
            </accessor>
          </technique_common>
        </source>
        <source id="Geometry-mesh001-normals" name="Geometry-mesh001-normals">
          <float_array id="Geometry-mesh001-normals-array" count="1530">0 0 -1 0 0 -1 0 0 -1 0 0 -1 0 0 -1 0 0 -1 0 0 1 0 0 1 0 0 1 0 0 1 0 0 1 0 0 1 0 0 -1 0 0 -1 0 0 -1 0 0 -1 0 0 -1 0 0 -1 0 -1 0 0 -1 0 0 -1 0 0 -1 0 0 -1 0 0 -1 0 0 -1 0 0 -1 0 0 -1 0 0 -1 0 0 -1 0 0 -1 0 0 -1 0 0 -1 0 0 -1 0 0 -1 0 0 -1 0 0 -1 0 0 -0.9842231 0.176932 0 -0.6380002 -0.7700363 0 -0.990151 -0.140004 0 -0.6380002 -0.7700363 0 -0.990151 -0.140004 0 -0.6380002 -0.7700363 0 -0.4916933 0.8707685 0 -0.98736 0.158494 0 -0.739527 0.673127 0 -0.9873592 -0.158499 0 -0.739527 0.673127 0 -0.98736 0.158494 0 0.9583496 -0.2855982 0 0.37423 -0.927336 0 0.8208123 -0.5711982 0 0.06518502 -0.9978732 0 0.8208123 -0.5711982 0 0.37423 -0.927336 0 0.8926998 0.4506519 0 0.8927003 0.4506511 0 0.9635218 -0.26763 0 0.8313509 -0.5557479 0 0.9635218 -0.26763 0 0.8927003 0.4506511 0 0.8415919 0.5401139 0 0.9683563 0.2495721 0 0.8841173 -0.4672652 0 0.8841152 -0.4672691 0 0.8841173 -0.4672652 0 0.9683563 0.2495721 0.9354144 0 0.3535532 0.9354144 0 0.3535532 0.9354161 0 -0.353549 0.9354161 0 -0.353549 0.9354161 0 -0.353549 0.9354144 0 0.3535532 0 -0.739527 0.673127 0 0.06518701 0.9978731 0 -0.4916933 0.8707685 0 0.3742341 0.9273344 0 -0.4916933 0.8707685 0 0.06518701 0.9978731 -0.9354199 0 -0.353539 -0.9354199 0 -0.353539 -1 0 0 -1 0 0 -1 0 0 -0.9354199 0 -0.353539 0 0.4086382 0.9126965 0 -0.4587891 0.8885452 0 0.102449 0.9947383 0 -0.7138385 0.7003105 0 0.102449 0.9947383 0 -0.4587891 0.8885452 0 -1 0 0 -1 0 0 -1 0 0 -1 0 0 -1 0 0 -1 0 -0.9354182 0 0.3535431 -0.8838904 0 0.4676942 -0.9354182 0 0.3535431 -0.9722735 0 0.2338471 -0.9354182 0 0.3535431 -0.8838904 0 0.4676942 0 -0.9984271 -0.05606701 0 -0.7761049 0.630604 0 -0.9984271 -0.05606701 0 -0.53974 0.8418319 0 -0.9984271 -0.05606701 0 -0.7761049 0.630604 0 -0.7268078 0.6868408 0 0.08383903 0.9964793 0 -0.4753161 0.8798152 0 0.3915071 0.9201751 0 -0.4753161 0.8798152 0 0.08383903 0.9964793 0 -0.7761063 0.6306022 0 0.009130004 0.9999583 0 -0.539746 0.841828 0 0.321646 0.94686 0 -0.539746 0.841828 0 0.009130004 0.9999583 0 0.06518701 0.9978731 0 0.8208143 0.5711952 0 0.3742341 0.9273344 0 0.9583492 0.2855991 0 0.3742341 0.9273344 0 0.8208143 0.5711952 0 0.7988789 -0.6014919 0 0.9683576 0.2495669 0 0.9469995 -0.3212349 0 0.8415931 0.5401121 0 0.9469995 -0.3212349 0 0.9683576 0.2495669 0 0.06518502 -0.9978732 0 0.8208123 -0.5711982 0 0.37423 -0.927336 0 0.9583492 -0.2855991 0 0.37423 -0.927336 0 0.8208123 -0.5711982 0 0.4256391 -0.9048931 0 -0.4420939 -0.8969688 0 0.121036 -0.9926481 0 -0.7006208 -0.7135338 0 0.121036 -0.9926481 0 -0.4420939 -0.8969688 0 -0.523908 -0.8517749 0 -0.7641759 -0.645008 0 -0.9925954 -0.121468 0 -0.9807416 0.1953099 0 -0.9925954 -0.121468 0 -0.7641759 -0.645008 0 0.37423 -0.927336 0 -0.4916928 -0.8707687 0 0.06518502 -0.9978732 0 -0.739526 -0.673128 0 0.06518502 -0.9978732 0 -0.4916928 -0.8707687 0 0.7874942 0.6163221 0 0.9728552 -0.2314151 0 0.9408281 0.338884 0 0.8515483 -0.5242762 0 0.9408281 0.338884 0 0.9728552 -0.2314151 0 0 1 0 0 1 0 0 1 0 0 1 0 0 1 0 0 1 0 0.9683563 0.2495721 0 0.8415919 0.5401139 0 0.2588211 0.9659253 0 0.2588211 0.9659253 0 0.2588211 0.9659253 0 0.8415919 0.5401139 0 0.9583499 0.285597 0 0.374235 0.9273339 0 0.8208151 0.5711941 0 0.06518701 0.9978731 0 0.8208151 0.5711941 0 0.374235 0.9273339 0 0.8099861 -0.5864491 0 0.952841 -0.30347 0 0.9089243 0.4169612 0 0.9089249 0.4169599 0 0.9089243 0.4169612 0 0.952841 -0.30347 0 -1 0 0 -1 0 0 -0.9390711 -0.343723 0 -0.7262357 -0.6874458 0 -0.9390711 -0.343723 0 -1 0 0 0.1859071 -0.9825674 0 0.185909 -0.982567 0 -0.523908 -0.8517749 0 -0.7641759 -0.645008 0 -0.523908 -0.8517749 0 0.185909 -0.982567 0 -0.7395242 -0.6731302 0 0.06518502 -0.9978732 0 -0.4916921 -0.8707692 0 0.37423 -0.927336 0 -0.4916921 -0.8707692 0 0.06518502 -0.9978732 0 -0.7012972 0.7128692 0 -0.7012972 0.7128692 0 -0.7012972 0.7128692 0 -0.7012972 0.7128692 0 -0.7012972 0.7128692 0 -0.7012972 0.7128692 0 0.9728547 -0.2314169 0 0.8515453 -0.5242812 0 0.276834 -0.9609178 0 0.2768361 -0.9609172 0 0.276834 -0.9609178 0 0.8515453 -0.5242812 0 0.04651598 0.9989175 0 0.8927003 0.4506511 0 0.356826 0.9341709 0 0.8926998 0.4506519 0 0.356826 0.9341709 0 0.8927003 0.4506511 0 -0.9873596 -0.1584959 0 -0.739527 0.673127 0 -0.9873598 0.1584949 0 -0.4916933 0.8707685 0 -0.9873598 0.1584949 0 -0.739527 0.673127 -0.9354199 0 -0.353539 -0.9354199 0 -0.353539 -0.9354182 0 0.3535431 -0.9354182 0 0.3535431 -0.9354182 0 0.3535431 -0.9354199 0 -0.353539 0 0.9683576 0.2495669 0 0.4086382 0.9126965 0 0.8415931 0.5401121 0 0.102449 0.9947383 0 0.8415931 0.5401121 0 0.4086382 0.9126965 -0.9354199 0 -0.353539 -0.9354199 0 -0.353539 -0.9354199 0 -0.353539 -0.9354199 0 -0.353539 -0.9354199 0 -0.353539 -0.9354199 0 -0.353539 0 -0.4420939 -0.8969688 0 -0.9769198 -0.213607 0 -0.7006208 -0.7135338 0 -0.9946933 0.102885 0 -0.7006208 -0.7135338 0 -0.9769198 -0.213607 0.9722725 0 -0.2338509 0.9354161 0 -0.353549 0.8838868 0 -0.4677009 0.9354161 0 -0.353549 0.8838868 0 -0.4677009 0.9354161 0 -0.353549 0 0.356826 0.9341709 0 -0.5078881 0.8614231 0 0.04651598 0.9989175 0 -0.7519833 0.6591823 0 0.04651598 0.9989175 0 -0.5078881 0.8614231 0 -0.701407 -0.712761 0 -0.701407 -0.712761 0 -0.701407 -0.712761 0 -0.701407 -0.712761 0 -0.701407 -0.712761 0 -0.701407 -0.712761 0 -0.9807426 0.1953049 0 -0.7641777 -0.6450058 0 -0.9925954 -0.121468 0 -0.523911 -0.851773 0 -0.9925954 -0.121468 0 -0.7641777 -0.6450058 0 0.374235 0.9273339 0 -0.4916933 0.8707685 0 0.06518701 0.9978731 0 -0.739527 0.673127 0 0.06518701 0.9978731 0 -0.4916933 0.8707685 0 0.8208143 0.5711952 0 0.9583496 -0.2855982 0 0.9583492 0.2855991 0 0.8208123 -0.5711982 0 0.9583492 0.2855991 0 0.9583496 -0.2855982 0 0.9728552 -0.2314151 0 0.4256391 -0.9048931 0 0.8515483 -0.5242762 0 0.121036 -0.9926481 0 0.8515483 -0.5242762 0 0.4256391 -0.9048931 0 0.8208123 -0.5711982 0 0.9583499 0.285597 0 0.9583492 -0.2855991 0 0.8208151 0.5711941 0 0.9583492 -0.2855991 0 0.9583499 0.285597 0 -0.9901511 0.140003 0 -0.7268084 -0.6868403 0 -0.9842224 -0.1769361 0 -0.4753228 -0.8798116 0 -0.9842224 -0.1769361 0 -0.7268084 -0.6868403 0 0.9408281 0.338884 0 0.7874928 0.6163239 0 0.167508 0.9858708 0 0.1675101 0.9858704 0 0.167508 0.9858708 0 0.7874928 0.6163239 0 -0.9390711 -0.343723 0 -0.7262357 -0.6874458 0 -0.4456961 -0.8951843 0 -0.4456961 -0.8951843 0 -0.4456961 -0.8951843 0 -0.7262357 -0.6874458 0 -0.7761049 0.630604 0 0.167508 0.9858708 0 -0.53974 0.8418319 0 0.1675101 0.9858704 0 -0.53974 0.8418319 0 0.167508 0.9858708 0 0.2407159 -0.9705957 0 -0.4753228 -0.8798116 0 0.240714 -0.9705961 0 -0.7268084 -0.6868403 0 0.240714 -0.9705961 0 -0.4753228 -0.8798116 0.9354144 0 0.3535532 0.9354144 0 0.3535532 0.9354144 0 0.3535532 0.9354144 0 0.3535532 0.9354144 0 0.3535532 0.9354144 0 0.3535532 0 -0.4587891 0.8885452 0 -0.9807426 0.1953049 0 -0.7138385 0.7003105 0 -0.9925954 -0.121468 0 -0.7138385 0.7003105 0 -0.9807426 0.1953049 0 0.952841 -0.30347 0 0.8099861 -0.5864491 0 0.3568268 -0.9341706 0 0.04651802 -0.9989175 0 0.3568268 -0.9341706 0 0.8099861 -0.5864491 0 -0.98736 0.158494 0 -0.7395242 -0.6731302 0 -0.9873592 -0.158499 0 -0.4916921 -0.8707692 0 -0.9873592 -0.158499 0 -0.7395242 -0.6731302 0 0.8841152 -0.4672691 0 0.185909 -0.982567 0 0.8841173 -0.4672652 0 0.1859071 -0.9825674 0 0.8841173 -0.4672652 0 0.185909 -0.982567 0 0.7874928 0.6163239 0 0.9408281 0.338884 0 0.9728547 -0.2314169 0 0.8515453 -0.5242812 0 0.9728547 -0.2314169 0 0.9408281 0.338884 0.9354144 0 0.3535532 0.9354144 0 0.3535532 1 0 0 1 0 0 1 0 0 0.9354144 0 0.3535532 0 -0.3966479 0.9179709 0 -0.3966479 0.9179709 0 -0.3966479 0.9179709 0 -0.3966479 0.9179709 0 -0.3966479 0.9179709 0 -0.3966479 0.9179709 0 -1 0 0 -1 0 0 -1 0 0 -1 0 0 -1 0 0 -1 0 0 -0.5938131 0.8046031 0 -0.5938141 0.8046022 0 -0.9807416 0.1953099 0 -0.9925954 -0.121468 0 -0.9807416 0.1953099 0 -0.5938141 0.8046022 0 0 -1 0 0 -1 0 0 -1 0 0 -1 0 0 -1 0 0 -1 0 0.009130004 0.9999583 0 0.7874942 0.6163221 0 0.321646 0.94686 0 0.9408281 0.338884 0 0.321646 0.94686 0 0.7874942 0.6163221 0 0 1 0 0 1 0 0 1 0 0 1 0 0 1 0 0 1 0 -0.578674 -0.815559 0 0.276834 -0.9609178 0 -0.5786722 -0.8155603 0 0.2768361 -0.9609172 0 -0.5786722 -0.8155603 0 0.276834 -0.9609178 0 -0.9769198 -0.213607 0 -0.7761063 0.6306022 0 -0.9946933 0.102885 0 -0.539746 0.841828 0 -0.9946933 0.102885 0 -0.7761063 0.6306022 0 0.2588211 0.9659253 0 -0.5938141 0.8046022 0 0.2588211 0.9659253 0 -0.5938131 0.8046031 0 0.2588211 0.9659253 0 -0.5938141 0.8046022 0 -0.9842224 -0.1769361 0 -0.7519833 0.6591823 0 -0.9901511 0.140003 0 -0.5078881 0.8614231 0 -0.9901511 0.140003 0 -0.7519833 0.6591823 0 -0.4753161 0.8798152 0 -0.9842231 0.176932 0 -0.7268078 0.6868408 0 -0.990151 -0.140004 0 -0.7268078 0.6868408 0 -0.9842231 0.176932 0 -0.7641777 -0.6450058 0 0.027823 -0.9996129 0 -0.523911 -0.851773 0 0.3392912 -0.9406815 0 -0.523911 -0.851773 0 0.027823 -0.9996129 0 -1 0 0 -1 0 0 -1 0 0 -1 0 0 -1 0 0 -1 0 0 -1 0 0 -1 0 0 -1 0 0 -1 0 0 -1 0 0 -1 0 0 -1 0 0 -1 0 0 -1 0 0 -1 0 0 -1 0 0 -1 0 1 0 0 0.9722725 0 -0.2338509 1 0 0 0.8838868 0 -0.4677009 1 0 0 0.9722725 0 -0.2338509 0 0.3568268 -0.9341706 0 0.04651802 -0.9989175 0 -0.6380002 -0.7700363 0 -0.6380002 -0.7700363 0 -0.6380002 -0.7700363 0 0.04651802 -0.9989175 0 -0.9984271 -0.05606701 0 -0.9984271 -0.05606701 0 -0.5786722 -0.8155603 0 -0.578674 -0.815559 0 -0.5786722 -0.8155603 0 -0.9984271 -0.05606701 0 0.2407159 -0.9705957 0 0.240714 -0.9705961 0 0.8313509 -0.5557479 0 0.9635218 -0.26763 0 0.8313509 -0.5557479 0 0.240714 -0.9705961 -1 0 0 -0.9722735 0 0.2338471 -1 0 0 -0.8838904 0 0.4676942 -1 0 0 -0.9722735 0 0.2338471 0 0.9089249 0.4169599 0 0.3915071 0.9201751 0 0.9089243 0.4169612 0 0.08383903 0.9964793 0 0.9089243 0.4169612 0 0.3915071 0.9201751 0 0.027823 -0.9996129 0 0.7988789 -0.6014919 0 0.3392912 -0.9406815 0 0.9469995 -0.3212349 0 0.3392912 -0.9406815 0 0.7988789 -0.6014919 0 -0.4916928 -0.8707687 0 -0.9873596 -0.1584959 0 -0.739526 -0.673128 0 -0.9873598 0.1584949 0 -0.739526 -0.673128 0 -0.9873596 -0.1584959</float_array>
          <technique_common>
            <accessor source="#Geometry-mesh001-normals-array" count="510" stride="3">
              <param name="X" type="float"/>
              <param name="Y" type="float"/>
              <param name="Z" type="float"/>
            </accessor>
          </technique_common>
        </source>
        <source id="Geometry-mesh001-Geometry-mesh001-uvSet1" name="Geometry-mesh001-Geometry-mesh001-uvSet1">
          <float_array id="Geometry-mesh001-Geometry-mesh001-uvSet1-array" count="766">0.749828 0.50218 0.840456 0.502178 0.749807 0.513914 0.840456 0.513913 0.74879 0.095188 0.840456 0.095174 0.748843 0.106922 0.840456 0.106909 0.840456 0.513913 0.840456 0.502178 0.931903 0.513899 0.931849 0.502164 0.931784 0.487978 0.840456 0.106909 0.931061 0.106902 0.931047 0.121088 0.909048 0.126764 0.909764 0.482307 0.529 0.010289 0.556994 0.010289 0.529 0.518766 0.556994 0.518766 0.501007 0.518766 0.501007 0.010289 0.58499 0.518766 0.58499 0.010289 0.612983 0.518766 0.612983 0.010289 0.640976 0.518766 0.640976 0.010289 0.771303 0.482318 0.724639 0.482325 0.770398 0.12678 0.723819 0.126786 0.668969 0.518766 0.668968 0.010289 0.977987 0.121091 0.978 0.106905 0.473015 0.518766 0.473015 0.010289 0.059563 0.008805 0.407596 0.008806 0.059684 0.991195 0.407476 0.991196 0.978686 0.482369 0.978723 0.487964 0.931746 0.482382 0.842539 0.989711 0.842541 0.526854 0.930286 0.989711 0.930288 0.526854 0.582214 0.526853 0.582213 0.989711 0.445817 0.008803 0.445884 0.991196 0.953663 0.12676 0.954378 0.482302 0.97797 0.126687 0.931031 0.126684 0.748909 0.121109 0.748946 0.126704 0.70197 0.121123 0.702007 0.126718 0.021333 0.008804 0.021266 0.991197 0.483565 0.526853 0.483565 0.989711 0.749877 0.482398 0.749855 0.487993 0.702937 0.482392 0.702915 0.487987 0.702888 0.502174 0.582213 0.526853 0.483564 0.989711 0.483566 0.526853 0.842539 0.989712 0.930286 0.989712 0.930288 0.526854 0.840456 0.095174 0.931071 0.095167 0.701904 0.106936 0.978788 0.50215 0.529 0.518766 0.529 0.010289 0.529 0.010289 0.556994 0.518766 0.556994 0.010289 0.556994 0.518766 0.529 0.518766 0.529 0.010289 0.556994 0.518766 0.556994 0.010289 0.556994 0.518766 0.529 0.010289 0.640976 0.518766 0.640976 0.010289 0.640976 0.518766 0.501007 0.518766 0.501007 0.010289 0.501007 0.010289 0.612983 0.518766 0.58499 0.518766 0.612983 0.010289 0.58499 0.010289 0.612983 0.010289 0.58499 0.518766 0.501007 0.518766 0.473015 0.518766 0.501007 0.010289 0.473015 0.010289 0.501007 0.010289 0.473015 0.518766 0.58499 0.518766 0.556994 0.518766 0.58499 0.010289 0.556994 0.010289 0.58499 0.010289 0.556994 0.518766 0.640976 0.518766 0.612983 0.518766 0.640976 0.010289 0.612983 0.010289 0.640976 0.010289 0.612983 0.518766 0.556994 0.518766 0.529 0.518766 0.556994 0.010289 0.529 0.010289 0.556994 0.010289 0.529 0.518766 0.640976 0.518766 0.612983 0.518766 0.640976 0.010289 0.612983 0.010289 0.640976 0.010289 0.612983 0.518766 0.668969 0.518766 0.640976 0.518766 0.668968 0.010289 0.640976 0.010289 0.668968 0.010289 0.640976 0.518766 0.612983 0.518766 0.612983 0.010289 0.640976 0.518766 0.640976 0.010289 0.640976 0.518766 0.612983 0.010289 0.556994 0.518766 0.529 0.518766 0.556994 0.010289 0.529 0.010289 0.556994 0.010289 0.529 0.518766 0.529 0.518766 0.501007 0.518766 0.529 0.010289 0.501007 0.010289 0.529 0.010289 0.501007 0.518766 0.529 0.010289 0.529 0.518766 0.501007 0.010289 0.501007 0.518766 0.501007 0.010289 0.529 0.518766 0.58499 0.518766 0.556994 0.518766 0.58499 0.010289 0.556994 0.010289 0.58499 0.010289 0.556994 0.518766 0.612983 0.518766 0.612983 0.010289 0.640976 0.518766 0.640976 0.010289 0.640976 0.518766 0.612983 0.010289 0.58499 0.518766 0.58499 0.010289 0.612983 0.518766 0.612983 0.010289 0.612983 0.518766 0.58499 0.010289 0.668969 0.518766 0.640976 0.518766 0.668968 0.010289 0.640976 0.010289 0.668968 0.010289 0.640976 0.518766 0.501007 0.010289 0.501007 0.518766 0.473015 0.010289 0.473015 0.518766 0.473015 0.010289 0.501007 0.518766 0.58499 0.010289 0.58499 0.518766 0.58499 0.518766 0.501007 0.518766 0.473015 0.518766 0.501007 0.010289 0.473015 0.010289 0.501007 0.010289 0.473015 0.518766 0.529 0.518766 0.501007 0.518766 0.529 0.010289 0.501007 0.010289 0.529 0.010289 0.501007 0.518766 0.640976 0.518766 0.612983 0.518766 0.640976 0.010289 0.612983 0.010289 0.640976 0.010289 0.612983 0.518766 0.58499 0.518766 0.556994 0.518766 0.58499 0.010289 0.556994 0.010289 0.58499 0.010289 0.556994 0.518766 0.640976 0.518766 0.612983 0.518766 0.640976 0.010289 0.612983 0.010289 0.640976 0.010289 0.612983 0.518766 0.556994 0.518766 0.529 0.518766 0.556994 0.010289 0.529 0.010289 0.556994 0.010289 0.529 0.518766 0.612983 0.518766 0.612983 0.010289 0.612983 0.010289 0.501007 0.518766 0.473015 0.518766 0.501007 0.010289 0.473015 0.010289 0.501007 0.010289 0.473015 0.518766 0.612983 0.518766 0.58499 0.518766 0.612983 0.010289 0.58499 0.010289 0.612983 0.010289 0.58499 0.518766 0.529 0.518766 0.501007 0.518766 0.529 0.010289 0.501007 0.010289 0.529 0.010289 0.501007 0.518766 0.529 0.518766 0.529 0.010289 0.556994 0.518766 0.556994 0.010289 0.556994 0.518766 0.529 0.010289 0.58499 0.518766 0.556994 0.518766 0.58499 0.010289 0.556994 0.010289 0.58499 0.010289 0.556994 0.518766 0.473015 0.010289 0.501007 0.010289 0.473015 0.518766 0.501007 0.518766 0.473015 0.518766 0.501007 0.010289 0.668969 0.518766 0.640976 0.518766 0.668968 0.010289 0.640976 0.010289 0.668968 0.010289 0.640976 0.518766 0.612983 0.010289 0.612983 0.518766 0.58499 0.010289 0.58499 0.518766 0.58499 0.010289 0.612983 0.518766 0.473015 0.518766 0.473015 0.010289 0.473015 0.518766 0.556994 0.010289 0.58499 0.010289 0.556994 0.518766 0.58499 0.518766 0.556994 0.518766 0.58499 0.010289 0.529 0.010289 0.529 0.518766 0.501007 0.010289 0.501007 0.518766 0.501007 0.010289 0.529 0.518766 0.582213 0.989711 0.842541 0.526854 0.582213 0.989711 0.582213 0.989711 0.842541 0.526854 0.668968 0.010289 0.668969 0.518766 0.640976 0.010289 0.640976 0.518766 0.640976 0.010289 0.668969 0.518766 0.842541 0.526854 0.842541 0.526854 0.556994 0.518766 0.529 0.518766 0.556994 0.010289 0.529 0.010289 0.556994 0.010289 0.529 0.518766 0.640976 0.010289 0.668968 0.010289 0.640976 0.518766 0.668969 0.518766 0.640976 0.518766 0.668968 0.010289 0.612983 0.518766 0.58499 0.518766 0.612983 0.010289 0.58499 0.010289 0.612983 0.010289 0.58499 0.518766 0.501007 0.518766 0.473015 0.518766 0.501007 0.010289 0.473015 0.010289 0.501007 0.010289 0.473015 0.518766 0.529 0.010289 0.556994 0.010289 0.529 0.518766 0.556994 0.518766 0.529 0.518766 0.556994 0.010289 0.501007 0.010289 0.501007 0.518766 0.501007 0.518766 0.612983 0.518766 0.58499 0.518766 0.612983 0.010289 0.58499 0.010289 0.612983 0.010289 0.58499 0.518766 0.58499 0.010289 0.58499 0.518766 0.58499 0.518766 0.612983 0.518766 0.612983 0.010289 0.640976 0.518766 0.640976 0.010289 0.640976 0.518766 0.612983 0.010289 0.668968 0.010289 0.668969 0.518766 0.668969 0.518766 0.640976 0.010289 0.668968 0.010289 0.640976 0.518766 0.668969 0.518766 0.640976 0.518766 0.668968 0.010289 0.58499 0.518766 0.556994 0.518766 0.58499 0.010289 0.556994 0.010289 0.58499 0.010289 0.556994 0.518766 0.529 0.518766 0.501007 0.518766 0.529 0.010289 0.501007 0.010289 0.529 0.010289 0.501007 0.518766</float_array>
          <technique_common>
            <accessor source="#Geometry-mesh001-Geometry-mesh001-uvSet1-array" count="383" stride="2">
              <param name="S" type="float"/>
              <param name="T" type="float"/>
            </accessor>
          </technique_common>
        </source>
        <vertices id="Geometry-mesh001-vertices" name="Geometry-mesh001-vertices">
          <input semantic="POSITION" source="#Geometry-mesh001-positions"/>
        </vertices>
        <triangles material="lab_ceiling_pipes_1SG" count="170">
          <input semantic="VERTEX" source="#Geometry-mesh001-vertices" offset="0"/>
          <input semantic="NORMAL" source="#Geometry-mesh001-normals" offset="1"/>
          <input semantic="TEXCOORD" source="#Geometry-mesh001-Geometry-mesh001-uvSet1" offset="2" set="0"/>
          <p>120 0 0 134 1 1 121 2 2 121 3 2 134 4 1 135 5 3 122 6 4 132 7 5 123 8 6 123 9 6 132 10 5 133 11 7 151 12 8 150 13 9 137 14 10 137 15 10 150 16 9 136 17 11 147 18 12 136 19 11 150 20 9 149 21 13 139 22 14 143 23 15 149 24 13 143 25 15 142 26 16 146 27 17 147 28 12 150 29 9 146 30 17 150 31 9 149 32 13 149 33 13 142 34 16 146 35 17 26 36 18 25 37 19 19 38 20 18 39 21 19 40 20 25 41 19 5 42 82 6 43 22 12 44 83 13 45 23 12 46 84 6 47 22 87 48 24 88 49 85 94 50 25 95 51 86 94 52 25 88 53 87 100 54 26 107 55 27 99 56 28 106 57 29 99 58 28 107 59 27 61 60 88 68 61 89 60 62 90 67 63 91 60 64 92 68 65 93 128 66 30 130 67 31 124 68 32 127 69 33 124 70 32 130 71 31 84 72 34 85 73 94 91 74 35 92 75 95 91 76 35 85 77 96 141 78 36 143 79 15 138 80 37 139 81 14 138 82 37 143 83 15 48 84 97 42 85 38 55 86 98 49 87 39 55 88 99 42 89 38 112 90 40 114 91 41 113 92 42 115 93 43 113 94 42 114 95 41 145 96 44 144 97 45 146 98 46 147 99 12 146 100 46 144 101 45 30 102 100 31 103 101 37 104 102 38 105 103 37 106 104 31 107 105 20 108 106 14 109 107 27 110 108 21 111 109 27 112 110 14 113 111 73 114 112 74 115 113 80 116 114 81 117 115 80 118 116 74 119 117 85 120 118 86 121 119 92 122 120 93 123 121 92 124 122 86 125 123 46 126 124 47 127 125 53 128 126 54 129 127 53 130 128 47 131 129 1 132 130 2 133 131 8 134 132 9 135 133 8 136 134 2 137 135 70 138 136 71 139 137 77 140 138 78 141 139 77 142 140 71 143 141 58 144 142 65 145 143 57 146 144 64 147 145 57 148 146 65 149 147 88 150 148 89 151 149 95 152 150 96 153 151 95 154 152 89 155 153 75 156 154 76 157 155 82 158 156 83 159 157 82 160 158 76 161 159 154 162 47 155 163 48 118 164 49 119 165 50 118 166 49 155 167 48 68 168 160 61 169 161 69 170 162 62 171 163 69 172 164 61 173 165 3 174 166 4 175 167 10 176 168 11 177 169 10 178 170 4 179 171 16 180 172 23 181 173 15 182 174 22 183 175 15 184 176 23 185 177 155 186 48 154 187 47 159 188 51 158 189 52 159 190 51 154 191 47 59 192 178 66 193 179 58 194 180 65 195 181 58 196 182 66 197 183 0 198 184 1 199 185 7 200 186 8 201 187 7 202 188 1 203 189 114 204 41 118 205 53 115 206 43 119 207 54 115 208 43 118 209 53 41 210 190 34 211 191 35 212 192 28 213 193 35 214 194 34 215 195 108 216 196 107 217 27 101 218 197 100 219 26 101 220 198 107 221 27 90 222 199 84 223 200 97 224 201 91 225 202 97 226 203 84 227 204 142 228 16 140 229 55 146 230 17 145 231 56 146 232 17 140 233 55 47 234 205 48 235 206 54 236 207 55 237 208 54 238 209 48 239 210 141 240 36 140 241 57 143 242 15 142 243 58 143 244 15 140 245 57 71 246 211 72 247 212 78 248 213 79 249 214 78 250 215 72 251 216 125 252 59 124 253 60 126 254 61 127 255 62 126 256 61 124 257 60 101 258 217 102 259 218 108 260 219 109 261 220 108 262 221 102 263 222 116 264 63 112 265 40 117 266 64 113 267 42 117 268 64 112 269 40 43 270 223 44 271 224 50 272 225 51 273 226 50 274 227 44 275 228 4 276 229 5 277 230 11 278 231 12 279 232 11 280 233 5 281 234 86 282 235 87 283 24 93 284 236 94 285 25 93 286 237 87 287 24 76 288 238 70 289 239 83 290 240 77 291 241 83 292 242 70 293 243 2 294 244 3 295 245 9 296 246 10 297 247 9 298 248 3 299 249 103 300 250 104 301 251 110 302 252 111 303 253 110 304 254 104 305 255 33 306 256 40 307 257 32 308 258 39 309 259 32 310 260 40 311 261 159 312 51 158 313 52 163 314 65 162 315 66 163 316 65 158 317 52 31 318 262 32 319 263 38 320 264 39 321 265 38 322 266 32 323 267 105 324 268 111 325 269 98 326 270 104 327 271 98 328 272 111 329 273 128 330 67 129 331 68 130 332 69 131 333 70 130 334 69 129 335 68 42 336 274 43 337 275 49 338 276 50 339 277 49 340 278 43 341 279 23 342 280 16 343 281 24 344 282 17 345 283 24 346 284 16 347 285 6 348 22 0 349 286 13 350 23 7 351 287 13 352 23 0 353 288 67 354 289 66 355 290 60 356 291 59 357 292 60 358 293 66 359 294 40 360 295 33 361 296 41 362 297 34 363 298 41 364 299 33 365 300 131 366 70 129 367 68 121 368 71 120 369 0 121 370 71 129 371 68 156 372 301 157 373 72 160 374 73 161 375 74 160 376 73 157 377 72 152 378 75 153 379 302 156 380 303 157 381 72 156 382 304 153 383 305 63 384 306 56 385 307 64 386 308 57 387 309 64 388 310 56 389 311 152 390 75 116 391 76 153 392 312 117 393 77 153 394 313 116 395 76 74 396 314 75 397 315 81 398 316 82 399 317 81 400 318 75 401 319 148 402 78 138 403 79 149 404 13 139 405 14 149 406 13 138 407 79 36 408 320 35 409 321 29 410 322 28 411 323 29 412 324 35 413 325 72 414 326 73 415 327 79 416 328 80 417 329 79 418 330 73 419 331 62 420 332 56 421 333 69 422 334 63 423 335 69 424 336 56 425 337 110 426 338 109 427 339 103 428 340 102 429 341 103 430 342 109 431 343 27 432 344 26 433 18 20 434 345 19 435 20 20 436 346 26 437 18 44 438 347 45 439 348 51 440 349 52 441 350 51 442 351 45 443 352 134 444 1 120 445 0 129 446 68 125 447 59 123 448 6 133 449 7 124 450 32 125 451 59 133 452 7 134 453 1 129 454 68 128 455 30 133 456 7 134 457 1 128 458 30 128 459 30 124 460 32 133 461 7 123 462 6 125 463 59 122 464 80 126 465 61 122 466 80 125 467 59 24 468 353 17 469 354 25 470 19 18 471 21 25 472 19 17 473 355 30 474 356 37 475 357 29 476 358 36 477 359 29 478 360 37 479 361 105 480 362 98 481 363 106 482 29 99 483 28 106 484 29 98 485 364 136 486 11 147 487 12 137 488 81 144 489 45 137 490 81 147 491 12 22 492 365 21 493 366 15 494 367 14 495 368 15 496 369 21 497 370 45 498 371 46 499 372 52 500 373 53 501 374 52 502 375 46 503 376 89 504 377 90 505 378 96 506 379 97 507 380 96 508 381 90 509 382</p>
        </triangles>
      </mesh>
      <extra>
        <technique profile="OpenCOLLADAMaya">
          <originalMayaNodeId>lab_ceiling_pipes</originalMayaNodeId>
          <double_sided>1</double_sided>
        </technique>
      </extra>
    </geometry>
  </library_geometries>
  <library_visual_scenes>
    <visual_scene id="VisualSceneNode" name="lab_ceiling_pipes">
      <node id="Geometry-mesh001Node" name="lab_ceiling_pipes" type="NODE">
        <translate sid="translate">0 0 0</translate>
        <rotate sid="rotateZ">0 0 1 0</rotate>
        <rotate sid="rotateY">0 1 0 0</rotate>
        <rotate sid="rotateX">1 0 0 0</rotate>
        <scale sid="scale">1 1 1</scale>
        <instance_geometry url="#Geometry-mesh001">
          <bind_material>
            <technique_common>
              <instance_material symbol="lab_ceiling_pipes_1SG" target="#Material-lab_ceiling_pipes">
                <bind_vertex_input semantic="TEX0" input_semantic="TEXCOORD" input_set="0"/>
              </instance_material>
            </technique_common>
          </bind_material>
        </instance_geometry>
        <extra>
          <technique profile="OpenCOLLADAMaya">
            <originalMayaNodeId>lab_ceiling_pipes</originalMayaNodeId>
          </technique>
        </extra>
      </node>
    </visual_scene>
  </library_visual_scenes>
  <scene>
    <instance_visual_scene url="#VisualSceneNode"/>
  </scene>
</COLLADA>