<?xml version="1.0" encoding="utf-8" ?>
<COLLADA xmlns="http://www.collada.org/2005/11/COLLADASchema" version="1.4.1">
    <asset>
        <contributor>
            <authoring_tool>modo 601 [Build 48460], Microsoft Windows 7 Service Pack 1 (6.1.7601 Service Pack 1)</authoring_tool>
            <comments>Plug-in: [Build 48460]; Use Absolute Path: No; Merge Reference Items: No; Save Hidden Items: No; Save Cameras: No; Save Lights: No; Save Locators: Yes; Save Triangles as Triangles: No; Bake Matrices: Yes; Save Vertex Normals: Yes; Save UV Texture Coordinates: Yes; Save Vertex Colors: Yes; Save Vertex Weights: Yes; Save Animation: No; Sample Animation: No; Sample Animation Start: 0; Sample Animation End: 0; Save modo Profile: No; Save Maya Profile: Yes; Save 3ds Max Profile: No; Formatted Arrays: No;</comments>
            <source_data>file:///D:/Work/My%20Dropbox/Frictional%20Games%20-%20Team/Aaron/models/static_objects/station/pplant.lxo</source_data>
        </contributor>
        <created>2013-02-12T11:34:57Z</created>
        <modified>2013-02-12T11:34:57Z</modified>
        <unit name="game" meter="1" />
        <up_axis>Y_UP</up_axis>
    </asset>
    <library_images>
        <image id="Image0001" name="Image0001">
            <init_from>file:///D:/Work/My%20Dropbox/Frictional%20Games%20-%20Team/Aaron/models/static_objects/robot/robot_tunnel/robot_tunnel.tga</init_from>
        </image>
        <image id="Image0002" name="Image0002">
            <init_from>file:///D:/Work/My%20Dropbox/Frictional%20Games%20-%20Team/Aaron/models/static_objects/station/floor/pplant_first_floor_default_nrm.tga</init_from>
        </image>
        <image id="Image0003" name="Image0003">
            <init_from>file:///D:/Work/My%20Dropbox/Frictional%20Games%20-%20Team/Aaron/models/static_objects/station/floor/pplant_first_floor_tilable.psd</init_from>
        </image>
        <image id="Image0004" name="Image0004">
            <init_from>file:///D:/Work/My%20Dropbox/Frictional%20Games%20-%20Team/Aaron/models/static_objects/station/floor/pplant_floor.psd</init_from>
        </image>
        <image id="Image0005" name="Image0005">
            <init_from>file:///D:/Work/My%20Dropbox/Frictional%20Games%20-%20Team/Aaron/models/static_objects/station/floor/pplant_floor_nrm.tga</init_from>
        </image>
        <image id="Image0006" name="Image0006">
            <init_from>file:///D:/Work/My%20Dropbox/Frictional%20Games%20-%20Team/Aaron/models/static_objects/station/floor/pplant_floor_spec.tga</init_from>
        </image>
        <image id="Image0007" name="Image0007">
            <init_from>file:///D:/Work/My%20Dropbox/Frictional%20Games%20-%20Team/Aaron/models/static_objects/station/pipes/pipe_broken_large.tga</init_from>
        </image>
        <image id="Image0008" name="Image0008">
            <init_from>file:///D:/Work/My%20Dropbox/Frictional%20Games%20-%20Team/Aaron/models/static_objects/station/pipes/pipe_turn_broken_slim.tga</init_from>
        </image>
        <image id="Image0009" name="Image0009">
            <init_from>file:///D:/Work/My%20Dropbox/Frictional%20Games%20-%20Team/Aaron/models/static_objects/station/pplant.psd</init_from>
        </image>
        <image id="Image0010" name="Image0010">
            <init_from>file:///D:/Work/My%20Dropbox/Frictional%20Games%20-%20Team/Aaron/models/static_objects/station/pplant_glass.psd</init_from>
        </image>
        <image id="Image0011" name="Image0011">
            <init_from>file:///D:/Work/My%20Dropbox/Frictional%20Games%20-%20Team/Aaron/models/static_objects/station/pplant_nrm.tga</init_from>
        </image>
        <image id="Image0012" name="Image0012">
            <init_from>file:///D:/Work/My%20Dropbox/Frictional%20Games%20-%20Team/Aaron/models/static_objects/station/roof/pplant_tiling_light.psd</init_from>
        </image>
        <image id="Image0013" name="Image0013">
            <init_from>file:///D:/Work/My%20Dropbox/Frictional%20Games%20-%20Team/Aaron/models/static_objects/station/roof/pplant_tiling_nrm.tga</init_from>
        </image>
        <image id="Image0014" name="Image0014">
            <init_from>file:///D:/Work/My%20Dropbox/Frictional%20Games%20-%20Team/Aaron/models/static_objects/station/walls/comm_room_wall_interior/comm_room_wall_interior.psd</init_from>
        </image>
        <image id="Image0015" name="Image0015">
            <init_from>file:///D:/Work/My%20Dropbox/Frictional%20Games%20-%20Team/Aaron/models/static_objects/station/walls/comm_room_wall_interior/comm_room_wall_interior_nrm.tga</init_from>
        </image>
        <image id="Image0016" name="Image0016">
            <init_from>file:///D:/Work/My%20Dropbox/Frictional%20Games%20-%20Team/Aaron/models/static_objects/station/walls/comm_room_wall_interior/comm_room_wall_interior_spec.tga</init_from>
        </image>
        <image id="Image0017" name="Image0017">
            <init_from>file:///D:/Work/My%20Dropbox/Frictional%20Games%20-%20Team/Aaron/textures/_temp/blob_shadow_generic.tga</init_from>
        </image>
    </library_images>
    <library_materials>
        <material id="Material-Default" name="Default">
            <instance_effect url="#Effect-Default" />
        </material>
        <material id="Material-blank2" name="blank2">
            <instance_effect url="#Effect-blank2" />
        </material>
        <material id="Material-comm_room_wall_interior" name="comm_room_wall_interior">
            <instance_effect url="#Effect-comm_room_wall_interior" />
        </material>
        <material id="Material-door" name="door">
            <instance_effect url="#Effect-door" />
        </material>
        <material id="Material-frame" name="frame">
            <instance_effect url="#Effect-frame" />
        </material>
        <material id="Material-pipe_turn_broken_slim" name="pipe_turn_broken_slim">
            <instance_effect url="#Effect-pipe_turn_broken_slim" />
        </material>
        <material id="Material-pplant" name="pplant">
            <instance_effect url="#Effect-pplant" />
        </material>
        <material id="Material-pplant_first_floor_tileable" name="pplant_first_floor_tileable">
            <instance_effect url="#Effect-pplant_first_floor_tileable" />
        </material>
        <material id="Material-pplant_floor" name="pplant_floor">
            <instance_effect url="#Effect-pplant_floor" />
        </material>
        <material id="Material-pplant_glass" name="pplant_glass">
            <instance_effect url="#Effect-pplant_glass" />
        </material>
        <material id="Material-tunnel" name="tunnel">
            <instance_effect url="#Effect-tunnel" />
        </material>
        <material id="Material-tunnel_MAT" name="tunnel_MAT">
            <instance_effect url="#Effect-tunnel_MAT" />
        </material>
    </library_materials>
    <library_effects>
        <effect id="Effect-Default" name="Default">
            <profile_COMMON>
                <technique sid="common">
                    <phong>
                        <diffuse>
                            <color sid="diffuse_effect_rgb">0.8 0.8 0.8 1</color>
                        </diffuse>
                        <specular>
                            <color sid="specular_effect_rgb">0.2 0.2 0.2 1</color>
                        </specular>
                        <shininess>
                            <float sid="specular_effect_rgb">256</float>
                        </shininess>
                    </phong>
                </technique>
            </profile_COMMON>
        </effect>
        <effect id="Effect-blank2" name="blank2">
            <profile_COMMON>
                <technique sid="common">
                    <phong>
                        <diffuse>
                            <color sid="diffuse_effect_rgb">0.8 0.8 0.8 1</color>
                        </diffuse>
                        <specular>
                            <color sid="specular_effect_rgb">0.2 0.2 0.2 1</color>
                        </specular>
                        <shininess>
                            <float sid="specular_effect_rgb">256</float>
                        </shininess>
                    </phong>
                </technique>
            </profile_COMMON>
        </effect>
        <effect id="Effect-comm_room_wall_interior" name="comm_room_wall_interior">
            <profile_COMMON>
                <newparam sid="Image0014-surface">
                    <surface type="2D">
                        <init_from>Image0014</init_from>
                        <format>A8R8G8B8</format>
                    </surface>
                </newparam>
                <newparam sid="Image0014-sampler">
                    <sampler2D>
                        <source>Image0014-surface</source>
                        <minfilter>LINEAR_MIPMAP_LINEAR</minfilter>
                        <magfilter>LINEAR</magfilter>
                    </sampler2D>
                </newparam>
                <newparam sid="Image0016-surface">
                    <surface type="2D">
                        <init_from>Image0016</init_from>
                        <format>A8R8G8B8</format>
                    </surface>
                </newparam>
                <newparam sid="Image0016-sampler">
                    <sampler2D>
                        <source>Image0016-surface</source>
                        <minfilter>LINEAR_MIPMAP_LINEAR</minfilter>
                        <magfilter>LINEAR</magfilter>
                    </sampler2D>
                </newparam>
                <technique sid="common">
                    <phong>
                        <diffuse>
                            <texture texture="Image0014-sampler" texcoord="uvSet1" />
                        </diffuse>
                        <specular>
                            <texture texture="Image0016-sampler" texcoord="uvSet1" />
                        </specular>
                        <shininess>
                            <float sid="specular_effect_rgb">32</float>
                        </shininess>
                    </phong>
                </technique>
            </profile_COMMON>
        </effect>
        <effect id="Effect-door" name="door">
            <profile_COMMON>
                <technique sid="common">
                    <phong>
                        <diffuse>
                            <color sid="diffuse_effect_rgb">0.8 0.8 0.8 1</color>
                        </diffuse>
                        <specular>
                            <color sid="specular_effect_rgb">0.2 0.2 0.2 1</color>
                        </specular>
                        <shininess>
                            <float sid="specular_effect_rgb">256</float>
                        </shininess>
                    </phong>
                </technique>
            </profile_COMMON>
        </effect>
        <effect id="Effect-frame" name="frame">
            <profile_COMMON>
                <technique sid="common">
                    <phong>
                        <diffuse>
                            <color sid="diffuse_effect_rgb">0.8 0.8 0.8 1</color>
                        </diffuse>
                        <specular>
                            <color sid="specular_effect_rgb">0.2 0.2 0.2 1</color>
                        </specular>
                        <shininess>
                            <float sid="specular_effect_rgb">256</float>
                        </shininess>
                    </phong>
                </technique>
            </profile_COMMON>
        </effect>
        <effect id="Effect-pipe_turn_broken_slim" name="pipe_turn_broken_slim">
            <profile_COMMON>
                <newparam sid="Image0008-surface">
                    <surface type="2D">
                        <init_from>Image0008</init_from>
                        <format>A8R8G8B8</format>
                    </surface>
                </newparam>
                <newparam sid="Image0008-sampler">
                    <sampler2D>
                        <source>Image0008-surface</source>
                        <minfilter>LINEAR_MIPMAP_LINEAR</minfilter>
                        <magfilter>LINEAR</magfilter>
                    </sampler2D>
                </newparam>
                <technique sid="common">
                    <phong>
                        <diffuse>
                            <texture texture="Image0008-sampler" texcoord="map1" />
                        </diffuse>
                        <specular>
                            <color sid="specular_effect_rgb">0.2 0.2 0.2 1</color>
                        </specular>
                        <shininess>
                            <float sid="specular_effect_rgb">256</float>
                        </shininess>
                    </phong>
                </technique>
            </profile_COMMON>
        </effect>
        <effect id="Effect-pplant" name="pplant">
            <profile_COMMON>
                <newparam sid="Image0009-surface">
                    <surface type="2D">
                        <init_from>Image0009</init_from>
                        <format>A8R8G8B8</format>
                    </surface>
                </newparam>
                <newparam sid="Image0009-sampler">
                    <sampler2D>
                        <source>Image0009-surface</source>
                        <minfilter>LINEAR_MIPMAP_LINEAR</minfilter>
                        <magfilter>LINEAR</magfilter>
                    </sampler2D>
                </newparam>
                <technique sid="common">
                    <phong>
                        <diffuse>
                            <texture texture="Image0009-sampler" texcoord="uvSet1" />
                        </diffuse>
                        <specular>
                            <color sid="specular_effect_rgb">0.425 0.425 0.425 1</color>
                        </specular>
                        <shininess>
                            <float sid="specular_effect_rgb">4</float>
                        </shininess>
                    </phong>
                </technique>
            </profile_COMMON>
        </effect>
        <effect id="Effect-pplant_first_floor_tileable" name="pplant_first_floor_tileable">
            <profile_COMMON>
                <newparam sid="Image0003-surface">
                    <surface type="2D">
                        <init_from>Image0003</init_from>
                        <format>A8R8G8B8</format>
                    </surface>
                </newparam>
                <newparam sid="Image0003-sampler">
                    <sampler2D>
                        <source>Image0003-surface</source>
                        <minfilter>LINEAR_MIPMAP_LINEAR</minfilter>
                        <magfilter>LINEAR</magfilter>
                    </sampler2D>
                </newparam>
                <technique sid="common">
                    <phong>
                        <diffuse>
                            <texture texture="Image0003-sampler" texcoord="uvSet1" />
                        </diffuse>
                        <specular>
                            <color sid="specular_effect_rgb">0.2 0.2 0.2 1</color>
                        </specular>
                        <shininess>
                            <float sid="specular_effect_rgb">256</float>
                        </shininess>
                    </phong>
                </technique>
            </profile_COMMON>
        </effect>
        <effect id="Effect-pplant_floor" name="pplant_floor">
            <profile_COMMON>
                <newparam sid="Image0004-surface">
                    <surface type="2D">
                        <init_from>Image0004</init_from>
                        <format>A8R8G8B8</format>
                    </surface>
                </newparam>
                <newparam sid="Image0004-sampler">
                    <sampler2D>
                        <source>Image0004-surface</source>
                        <minfilter>LINEAR_MIPMAP_LINEAR</minfilter>
                        <magfilter>LINEAR</magfilter>
                    </sampler2D>
                </newparam>
                <newparam sid="Image0006-surface">
                    <surface type="2D">
                        <init_from>Image0006</init_from>
                        <format>A8R8G8B8</format>
                    </surface>
                </newparam>
                <newparam sid="Image0006-sampler">
                    <sampler2D>
                        <source>Image0006-surface</source>
                        <minfilter>LINEAR_MIPMAP_LINEAR</minfilter>
                        <magfilter>LINEAR</magfilter>
                    </sampler2D>
                </newparam>
                <technique sid="common">
                    <phong>
                        <diffuse>
                            <texture texture="Image0004-sampler" texcoord="uvSet1" />
                        </diffuse>
                        <specular>
                            <texture texture="Image0006-sampler" texcoord="uvSet1" />
                        </specular>
                        <shininess>
                            <float sid="specular_effect_rgb">14.42</float>
                        </shininess>
                    </phong>
                </technique>
            </profile_COMMON>
        </effect>
        <effect id="Effect-pplant_glass" name="pplant_glass">
            <profile_COMMON>
                <newparam sid="Image0010-surface">
                    <surface type="2D">
                        <init_from>Image0010</init_from>
                        <format>A8R8G8B8</format>
                    </surface>
                </newparam>
                <newparam sid="Image0010-sampler">
                    <sampler2D>
                        <source>Image0010-surface</source>
                        <minfilter>LINEAR_MIPMAP_LINEAR</minfilter>
                        <magfilter>LINEAR</magfilter>
                    </sampler2D>
                </newparam>
                <technique sid="common">
                    <phong>
                        <diffuse>
                            <texture texture="Image0010-sampler" texcoord="uvSet1" />
                        </diffuse>
                        <specular>
                            <color sid="specular_effect_rgb">0.2 0.2 0.2 1</color>
                        </specular>
                        <shininess>
                            <float sid="specular_effect_rgb">256</float>
                        </shininess>
                    </phong>
                </technique>
            </profile_COMMON>
        </effect>
        <effect id="Effect-tunnel" name="tunnel">
            <profile_COMMON>
                <newparam sid="Image0001-surface">
                    <surface type="2D">
                        <init_from>Image0001</init_from>
                        <format>A8R8G8B8</format>
                    </surface>
                </newparam>
                <newparam sid="Image0001-sampler">
                    <sampler2D>
                        <source>Image0001-surface</source>
                        <minfilter>LINEAR_MIPMAP_LINEAR</minfilter>
                        <magfilter>LINEAR</magfilter>
                    </sampler2D>
                </newparam>
                <technique sid="common">
                    <phong>
                        <diffuse>
                            <texture texture="Image0001-sampler" texcoord="uvSet1" />
                        </diffuse>
                        <specular>
                            <color sid="specular_effect_rgb">0.5 0.5 0.5 1</color>
                        </specular>
                        <shininess>
                            <float sid="specular_effect_rgb">256</float>
                        </shininess>
                    </phong>
                </technique>
            </profile_COMMON>
        </effect>
        <effect id="Effect-tunnel_MAT" name="tunnel_MAT">
            <profile_COMMON>
                <newparam sid="Image0001-surface">
                    <surface type="2D">
                        <init_from>Image0001</init_from>
                        <format>A8R8G8B8</format>
                    </surface>
                </newparam>
                <newparam sid="Image0001-sampler">
                    <sampler2D>
                        <source>Image0001-surface</source>
                        <minfilter>LINEAR_MIPMAP_LINEAR</minfilter>
                        <magfilter>LINEAR</magfilter>
                    </sampler2D>
                </newparam>
                <technique sid="common">
                    <phong>
                        <diffuse>
                            <texture texture="Image0001-sampler" texcoord="uvSet1" />
                        </diffuse>
                        <specular>
                            <color sid="specular_effect_rgb">0.5 0.5 0.5 1</color>
                        </specular>
                        <shininess>
                            <float sid="specular_effect_rgb">256</float>
                        </shininess>
                        <reflective>
                            <color sid="reflective_effect_rgb">0 0 0 1</color>
                        </reflective>
                        <reflectivity>
                            <float sid="reflectivity_effect_float">0.5</float>
                        </reflectivity>
                        <transparent opaque="RGB_ZERO">
                            <color sid="transparent_effect_rgb">0 0 0 1</color>
                        </transparent>
                        <transparency>
                            <float sid="transparency_effect_float">1</float>
                        </transparency>
                    </phong>
                </technique>
            </profile_COMMON>
        </effect>
    </library_effects>
    <library_geometries>
        <geometry id="Geometry-mesh078" name="welder_ceiling_concave_pplant">
            <mesh>
                <source id="Geometry-mesh078-positions" name="positions">
                    <float_array id="Geometry-mesh078-positions-array" count="459">-0.84357 0.374982 0.221191 -0.732934 0.422852 0.311523 -0.635434 0.305664 0.311523 -0.822574 0.25 0.25 -0.864566 0.25 0.25 -0.84357 0.270357 0.22716 -0.822574 0.00851858 0.0647048 -0.822574 0.0334936 0.125 -0.822574 0.0732234 0.176777 -0.822574 0.125 0.216506 -0.822574 0.185295 0.241481 -0.84357 0.0320162 0.047727 -0.84357 0.0561559 0.106399 -0.84357 0.0952158 0.156795 -0.84357 0.146443 0.195361 -0.84357 0.206228 0.219381 -0.864566 0.00851858 0.0647048 -0.864566 0.0334936 0.125 -0.864566 0.0732234 0.176777 -0.864566 0.125 0.216506 -0.864566 0.185295 0.241481 -0.864566 0 0 -0.822574 0 0 -0.84357 0.0244992 -0.0151571 -0.84357 0.307457 0.226652 -0.864566 0.307457 0.25 -0.822574 0.307457 0.25 -0.75537 0.375 0.25 -0.65787 0.257813 0.25 -2 0 0 -2 0.375 0.25 -2 0.422852 0.311523 -2 0.5 0.311523 -2 0.25 0.25 -2 0.00851858 0.0647048 -2 0.0334936 0.125 -2 0.0732234 0.176777 -2 0.125 0.216506 -2 0.185295 0.241481 -2 0.307457 0.25 -0.635434 0.5 0.311523 -0.732934 0.5 0.311523 -0.864566 0.422852 0.311523 -0.864566 0.5 0.311523 -0.822574 0.422852 0.311523 -0.822574 0.5 0.311523 -0.864566 0.375 0.25 -0.822574 0.375 0.25 -0.864566 0.5 0.25 -0.84357 0.5 0.224799 -0.822574 0.5 0.25 -2 0.5 0.25 -0.221191 0.374982 0.84357 -0.311523 0.422852 2 -0.311523 0.422852 0.732934 -0.311523 0.305664 0.635434 -0.311523 0.5 2 -0.25 0.25 2 -0.25 0.25 0.864566 -0.25 0.25 0.822574 -0.22716 0.270357 0.84357 -0.0647048 0.00851858 0.864566 -0.047727 0.0320162 0.84357 -0.125 0.0334936 0.864566 -0.106399 0.0561559 0.84357 -0.176777 0.0732234 0.864566 -0.156795 0.0952158 0.84357 -0.216506 0.125 0.864566 -0.195361 0.146443 0.84357 -0.241481 0.185295 0.864566 -0.219381 0.206228 0.84357 -0.0647048 0.00851858 0.822574 -0.125 0.0334936 0.822574 -0.176777 0.0732234 0.822574 -0.216506 0.125 0.822574 -0.241481 0.185295 0.822574 -0.0647048 0.00851858 2 -0.125 0.0334936 2 -0.176777 0.0732234 2 -0.216506 0.125 2 -0.241481 0.185295 2 0 0 0.822574 0 0 0.864566 0.0151571 0.0244992 0.84357 -0.226652 0.307457 0.84357 -0.25 0.307457 0.864566 -0.25 0.307457 2 -0.25 0.307457 0.822574 0 0 2 -0.25 0.375 0.75537 -0.25 0.257813 0.65787 -0.25 0.375 2 -0.311523 0.5 0.635434 -0.311523 0.5 0.732934 -0.311523 0.422852 0.822574 -0.311523 0.5 0.822574 -0.311523 0.422852 0.864566 -0.311523 0.5 0.864566 -0.25 0.375 0.822574 -0.25 0.375 0.864566 -0.25 0.5 0.864566 -0.224799 0.5 0.84357 -0.25 0.5 0.822574 -0.25 0.5 2 -0.375 0 0 -0.375 0.00851858 0.0647048 -0.375 0.125 0.216506 -0.375 0.0732234 0.176777 -0.375 0.185295 0.241481 -0.375 0.25 0.25 -0.375 0.0334936 0.125 -0.375 0.307457 0.25 -0.375 0.257813 0.25 -0.375 0.305664 0.311523 -0.375 0.5 0.311523 -0.375 0.5 0.25 -0.0647048 0.00851858 0.375 0 0 0.375 -0.216506 0.125 0.375 -0.176777 0.0732234 0.375 -0.241481 0.185295 0.375 -0.25 0.25 0.375 -0.125 0.0334936 0.375 -0.25 0.307457 0.375 -0.25 0.257813 0.375 -0.311523 0.305664 0.375 -0.311523 0.5 0.375 -0.25 0.5 0.375 -0.194444 0 0.0555556 -0.225599 0.00851858 0.110674 -0.25463 0.0334936 0.162037 -0.279559 0.0732234 0.206143 -0.298688 0.125 0.239987 -0.310713 0.185295 0.261262 -0.314815 0.25 0.268519 -0.314815 0.307457 0.268519 -0.314815 0.5 0.268519 -0.0555556 0 0.194444 -0.110674 0.00851858 0.225599 -0.162037 0.0334936 0.25463 -0.206143 0.0732234 0.279559 -0.239987 0.125 0.298688 -0.261262 0.185295 0.310713 -0.268519 0.25 0.314815 -0.268519 0.307457 0.314815 -0.268519 0.5 0.314815 -0.320927 0.5 0.344437 -0.320927 0.305664 0.344437 -0.268519 0.257813 0.314815 -0.344437 0.5 0.320927 -0.344437 0.305664 0.320927 -0.314815 0.257813 0.268519 0 0 0</float_array>
                    <technique_common>
                        <accessor count="153" source="#Geometry-mesh078-positions-array" stride="3">
                            <param name="X" type="float" />
                            <param name="Y" type="float" />
                            <param name="Z" type="float" />
                        </accessor>
                    </technique_common>
                </source>
                <source id="Geometry-mesh078-normals" name="normals">
                    <float_array id="Geometry-mesh078-normals-array" count="534">0 -0.877313 0.479918 0 -1 0.000612413 0 -0.877313 0.479918 -0.430087 -0.902787 0 -0.000612413 -1 0 -0.479918 -0.877313 0 -0.0653618 -0.996742 0.0472588 0 -1 0 -0.0980195 -0.994981 0.0201012 -0.0356973 -0.996773 0.0719025 -0.0100501 -0.995132 0.0980409 0 0.526127 0.850406 -0.850406 0.526127 0 0.816374 -0.408146 0.408595 0.816975 -0.406374 0.40916 0.81118 -0.311664 0.494825 0.808134 -0.26721 0.524899 0 -0.976344 0.216222 0 -0.95365 0.300918 0 -0.887114 0.461551 0 -0.843271 0.537488 0 0 1 -0.768273 0.00615971 0.640093 -0.751913 0.00510202 0.659243 -0.756055 0.00308042 0.6545 -0.741116 0.00304801 0.671371 -0.408595 -0.408146 0.816374 -0.313587 -0.49227 0.811994 -0.40916 -0.406374 0.816975 -0.271878 -0.523562 0.807443 -0.95365 -0.300918 0 -0.976344 -0.216222 0 -0.997859 -0.0654034 0 -1 0 0 -0.640093 0.00615971 -0.768273 -0.659243 0.00510202 -0.751913 -0.6545 0.00308042 -0.756055 -0.671371 0.00304801 -0.741116 0 -0.976344 0.216222 -0.0331789 -0.965424 0.258565 0 -0.887114 0.461551 -0.0704535 -0.86391 0.498694 -0.999049 -0.0435918 0 -0.986746 -0.0651723 0.14861 -0.976344 -0.216222 0 -0.955356 -0.25711 0.145568 -0.127109 -0.964605 0.231041 -0.254281 -0.861607 0.439289 -0.243911 -0.959382 0.141753 -0.466904 -0.838196 0.281829 -0.232993 -0.971961 0.0317067 -0.46014 -0.885052 0.0703852 -0.506357 -0.780951 0.365673 -0.611267 -0.785915 0.0932168 -0.557994 -0.782381 0.276626 -0.611267 -0.785915 0.0932169 0.811994 -0.49227 0.313587 0.807443 -0.523562 0.271878 -0.606795 -0.504853 0.61394 0.768273 0.00615971 0.640093 0.756055 0.00308042 0.6545 0.751913 0.00510202 0.659243 0.741116 0.00304801 0.671371 -0.128597 -0.603379 0.787018 -0.180398 -0.580462 0.794053 -0.843271 -0.537488 0 -0.887114 -0.461551 0 -0.613941 -0.504854 0.606795 -0.613941 -0.789352 0 -0.613941 -0.789352 0 0 -0.737428 0.675426 -0.1023 -0.703309 0.703485 -0.887114 -0.461551 0 -0.857809 -0.496476 0.132948 -0.995087 0 0.0990065 -0.896343 0 0.443361 -0.980199 0 0.198013 -0.811225 0 0.584734 0.787018 -0.603379 0.128597 0.794053 -0.580462 0.180398 -0.755656 -0.0540084 0.652738 -0.749769 -0.0227136 0.661309 0 -0.991445 0.130527 0 -0.789352 0.613941 -0.661309 -0.0227136 -0.749769 -0.612744 -0.128396 -0.779782 -0.652738 -0.0540084 -0.755656 -0.586342 -0.179811 -0.789855 -0.675426 -0.737428 0 -0.737428 -0.675426 0 -0.130527 -0.991445 0 -0.216222 -0.976344 0 -0.300918 -0.95365 0 0 -0.300918 0.95365 -0.142388 -0.255482 0.956271 0 -0.0871837 0.996192 -0.148213 -0.0642092 0.986869 -0.737428 -0.675426 0 -0.68801 -0.715363 0.122057 -0.995087 0 0.0990063 -0.988883 0 0.148696 -0.148696 0 0.988883 -0.515806 0 0.856705 -0.198013 0 0.980199 -0.584734 0 0.811225 -0.856705 0 0.515806 -0.896343 0 0.443361 -0.779782 -0.128396 0.612744 -0.789855 -0.179811 0.586342 0.755656 -0.0540084 0.652738 0.749769 -0.0227136 0.661309 0 -0.0654034 0.997859 -0.494825 -0.311664 -0.81118 -0.524899 -0.26721 -0.808134 -0.461551 -0.887114 0 -0.537488 -0.843271 0 -0.652738 -0.0540084 0.755656 -0.661309 -0.0227136 0.749769 -0.671371 0.00304801 0.741116 -0.659243 0.00510202 0.751913 0 -0.537488 0.843271 -0.126693 -0.495608 0.859256 -0.300918 -0.95365 0 -0.51449 -0.0638622 0.855115 -0.854769 -0.0641503 0.515029 -0.81118 -0.311664 0.494825 -0.808134 -0.26721 0.524899 0.779469 -0.622013 0.0743536 0.775824 -0.626028 0.0786502 0 -0.300918 0.95365 0 -0.216222 0.976344 0 -0.789352 0.613941 -0.408595 -0.408146 -0.816374 -0.40916 -0.406374 -0.816975 -0.496835 -0.253683 0.82994 -0.827181 -0.254174 0.501166 -0.0621143 -0.787828 0.612755 -0.276626 -0.782381 0.557994 -0.124229 -0.783238 0.609185 -0.365673 -0.780951 0.506357 -0.816374 -0.408146 0.408595 -0.816975 -0.406374 0.40916 -0.779469 -0.622013 0.0743536 -0.775824 -0.626028 0.0786502 -0.787018 -0.603379 0.128597 -0.794053 -0.580462 0.180398 0 -0.537488 0.843271 0 -0.461551 0.887114 -0.313587 -0.49227 -0.811994 -0.271878 -0.523562 -0.807443 -0.612744 -0.128396 0.779782 -0.586342 -0.179811 0.789855 -0.0990065 0 0.995087 -0.198013 0 0.980199 -0.444936 -0.492232 0.748157 -0.742793 -0.492503 0.453541 -0.584734 0 0.811225 -0.443361 0 0.896343 -0.811994 -0.49227 0.313587 -0.807443 -0.523562 0.271878 0.779782 -0.128396 0.612744 0.789855 -0.179811 0.586342 0 -0.737428 0.675426 0 -0.675426 0.737428 -0.128597 -0.603379 -0.787018 -0.180398 -0.580462 -0.794053 -0.494825 -0.311664 0.81118 -0.524899 -0.26721 0.808134 -0.0743536 -0.622013 0.779469 -0.0786502 -0.626028 0.775824 0 -0.789352 0.613941 -0.537488 -0.843271 0 -0.362564 -0.699847 0.615436 -0.606498 -0.679786 0.412372 -0.0743536 -0.622013 -0.779469 -0.0786502 -0.626028 -0.775824 -0.640093 0.00615971 0.768273 -0.6545 0.00308042 0.756055</float_array>
                    <technique_common>
                        <accessor count="178" source="#Geometry-mesh078-normals-array" stride="3">
                            <param name="X" type="float" />
                            <param name="Y" type="float" />
                            <param name="Z" type="float" />
                        </accessor>
                    </technique_common>
                </source>
                <source id="Geometry-mesh078-uvSet1" name="uvSet1">
                    <float_array id="Geometry-mesh078-uvSet1-array" count="334">0.82693 0.973145 0.829022 0.971875 0.831113 0.973173 0.926778 0.973234 0.92887 0.971932 0.930965 0.973196 0.985313 0.848874 0.995684 0.8548 0.975684 0.8548 0.992721 0.834059 0.995684 0.8148 0.814457 0.96175 0.813229 0.95838 0.815685 0.95838 0.81565 0.962954 0.81439 0.966277 0.813194 0.962861 0.826903 0.877636 0.828973 0.877691 0.826955 0.885168 0.82899 0.886029 0.76037 0.861191 0.826899 0.862606 0.760375 0.868829 0.826896 0.870115 0.760272 0.987937 0.828034 0.988588 0.760256 0.99708 0.828027 0.9973 0.829028 0.928954 0.829031 0.906916 0.830974 0.929387 0.830902 0.906905 0.926738 0.877437 0.926749 0.869826 0.928799 0.877704 0.928804 0.869495 0.930765 0.892735 0.997386 0.891557 0.930696 0.900302 0.997389 0.899172 0.916101 0.975351 0.922295 0.988938 0.916499 0.997586 0.922291 0.997605 0.928809 0.928995 0.928778 0.906948 0.930758 0.929441 0.930652 0.906975 0.830979 0.862196 0.853127 0.862198 0.831013 0.869818 0.853148 0.86982 0.926866 0.900242 0.892296 0.900231 0.92681 0.892641 0.892277 0.892632 0.866169 0.862198 0.866182 0.869821 0.879211 0.862199 0.879216 0.869822 0.892253 0.8622 0.892249 0.869823 0.881389 0.966043 0.896075 0.966086 0.881858 0.975243 0.896848 0.97529 0.828956 0.869487 0.840623 0.965922 0.842054 0.975118 0.834292 0.979362 0.835853 0.988664 0.841639 0.997344 0.835847 0.997325 0.827081 0.929404 0.827159 0.906945 0.928803 0.861676 0.926773 0.862203 0.930828 0.885183 0.997384 0.883936 0.917539 0.96615 0.923863 0.979647 0.997875 0.988707 0.930114 0.988914 0.997614 0.979647 0.930305 0.979647 0.831034 0.877424 0.853161 0.877427 0.926764 0.88504 0.892261 0.885033 0.853102 0.854532 0.866154 0.854532 0.879206 0.854531 0.892257 0.854531 0.897034 0.997523 0.88188 0.997474 0.828945 0.861672 0.830934 0.900213 0.829025 0.902429 0.760365 0.853549 0.826895 0.855076 0.830528 0.988612 0.830314 0.979326 0.928779 0.902459 0.928785 0.894383 0.930869 0.877645 0.997383 0.876308 0.930843 0.855075 0.997371 0.853397 0.93085 0.862608 0.997377 0.861037 0.927828 0.979647 0.927619 0.988922 0.830981 0.892617 0.853138 0.892622 0.853115 0.90022 0.89225 0.877432 0.926862 0.929429 0.892308 0.929414 0.926906 0.906938 0.89231 0.906926 0.853099 0.906912 0.866169 0.906917 0.853144 0.929396 0.866199 0.929402 0.87924 0.906921 0.879254 0.929408 0.829009 0.894358 0.827107 0.900272 0.760408 0.899336 0.760412 0.906036 0.827828 0.979303 0.928793 0.886048 0.930864 0.870121 0.997381 0.868675 0.831018 0.885021 0.853155 0.885026 0.926804 0.85453 0.866175 0.900224 0.879236 0.900228 0.828915 0.855364 0.760399 0.891719 0.827028 0.892713 0.760288 0.978686 0.997395 0.905874 0.866184 0.892625 0.879231 0.892629 0.852016 0.965956 0.866703 0.965999 0.851877 0.975149 0.866867 0.975196 0.830937 0.854533 0.76039 0.884094 0.997882 0.99785 0.930111 0.99763 0.85157 0.997376 0.866191 0.885028 0.879226 0.885031 0.866725 0.997425 0.760382 0.876464 0.830522 0.997308 0.928824 0.855364 0.927616 0.997622 0.997469 0.928326 0.866191 0.877429 0.87922 0.877431 0.760371 0.928486</float_array>
                    <technique_common>
                        <accessor count="167" source="#Geometry-mesh078-uvSet1-array" stride="2">
                            <param name="S" type="float" />
                            <param name="T" type="float" />
                        </accessor>
                    </technique_common>
                </source>
                <vertices id="Geometry-mesh078-vertices">
                    <input semantic="POSITION" source="#Geometry-mesh078-positions" />
                </vertices>
                <polylist count="235" material="Material-pplant">
                    <input semantic="VERTEX" source="#Geometry-mesh078-vertices" offset="0" />
                    <input semantic="NORMAL" source="#Geometry-mesh078-normals" offset="1" />
                    <input semantic="TEXCOORD" source="#Geometry-mesh078-uvSet1" offset="2" set="0" />
                    <vcount>3 3 3 3 3 3 3 3 3 3 3 3 3 3 3 3 3 3 3 3 3 3 3 3 3 3 3 3 3 3 3 3 3 3 3 3 3 3 3 3 3 3 3 3 3 3 3 3 3 3 3 3 3 3 3 3 3 3 3 3 3 3 3 3 3 3 3 3 3 3 3 3 3 3 3 3 3 3 3 3 3 3 3 3 3 3 3 3 3 3 3 3 3 3 3 3 3 3 3 3 3 3 3 3 3 3 3 3 3 3 3 3 3 3 3 3 3 3 3 3 3 3 3 3 3 3 3 3 3 3 3 3 3 3 3 3 3 3 3 3 3 3 3 3 3 3 3 3 3 3 3 3 3 3 3 3 3 3 3 3 3 3 3 3 3 3 3 3 3 3 3 3 3 3 3 3 3 3 3 3 3 3 3 3 3 3 3 3 3 3 3 3 3 3 3 3 3 3 3 3 3 3 3 3 3 3 3 3 3 3 3 3 3 3 3 3 3 3 3 3 3 3 3 3 3 3 3 3 3 3 3 3 3 3 3</vcount>
                    <p>46 0 0 0 1 1 47 2 2 98 3 3 52 4 4 99 5 5 137 6 6 152 7 7 117 8 8 128 9 9 152 7 7 137 6 6 104 10 10 152 7 7 128 9 9 23 11 11 21 11 12 22 11 13 82 12 14 83 12 15 81 12 16 18 13 17 13 14 18 19 15 19 14 16 20 19 15 19 13 14 18 34 17 21 16 18 22 35 19 23 17 20 24 35 19 23 16 18 22 31 21 25 42 21 26 32 21 27 43 21 28 32 21 27 42 21 26 49 22 29 24 23 30 50 24 31 26 25 32 50 24 31 24 23 30 73 26 33 72 27 34 66 28 35 64 29 36 66 28 35 72 27 34 69 30 37 80 31 38 58 32 39 57 32 40 58 32 39 80 31 38 55 33 41 54 33 42 92 33 43 93 33 44 92 33 43 54 33 42 101 34 45 84 35 46 100 36 47 85 37 48 100 36 47 84 35 46 6 38 49 105 39 50 7 40 51 110 41 52 7 40 51 105 39 50 59 42 53 121 43 54 75 44 55 120 45 56 75 44 55 121 43 54 105 39 50 129 46 57 110 41 52 130 47 58 110 41 52 129 46 57 129 46 57 138 48 59 130 47 58 139 49 60 130 47 58 138 48 59 116 50 61 122 51 62 138 48 59 139 49 60 138 48 59 122 51 62 148 52 63 124 53 64 147 54 65 125 55 66 147 54 65 124 53 64 18 13 17 17 56 24 13 14 18 12 57 67 13 14 18 17 56 24 28 58 68 2 58 69 27 58 70 1 58 71 27 58 70 2 58 69 2 21 69 40 21 72 1 21 71 41 21 73 1 21 71 40 21 72 49 59 29 48 60 74 24 61 30 25 62 75 24 61 30 48 60 74 62 63 76 64 29 36 71 64 77 72 27 34 71 64 77 64 29 36 67 65 78 79 66 79 69 30 37 80 31 38 69 30 37 79 66 79 90 67 80 89 67 81 55 67 41 54 67 42 55 67 41 89 67 81 53 68 82 96 69 83 91 68 84 99 5 85 91 68 84 96 69 83 7 40 51 110 41 52 8 70 86 107 71 87 8 70 86 110 41 52 75 44 55 120 45 56 74 72 88 118 73 89 74 72 88 120 45 56 104 10 90 128 9 91 105 39 50 129 46 57 105 39 50 128 9 91 128 9 91 137 6 92 129 46 57 138 48 59 129 46 57 137 6 92 137 6 92 117 8 93 138 48 59 116 50 61 138 48 59 117 8 93 126 74 94 146 75 95 125 76 66 147 77 65 125 76 66 146 75 95 11 78 96 12 57 67 16 79 22 17 56 24 16 79 22 12 57 67 3 80 97 26 25 32 5 81 98 24 23 30 5 81 98 26 25 32 29 82 99 21 82 100 34 17 21 16 18 22 34 17 21 21 82 100 1 83 71 44 83 101 27 83 70 47 2 102 27 83 70 44 83 101 60 84 103 70 85 104 58 86 39 69 87 37 58 86 39 70 85 104 65 88 105 78 89 106 67 65 78 79 66 79 67 65 78 78 89 106 82 90 107 88 90 108 61 91 109 76 92 110 61 91 109 88 90 108 98 3 111 99 5 85 94 69 112 96 69 83 94 69 112 99 5 85 10 93 113 108 94 114 3 95 97 109 96 115 3 95 97 108 94 114 74 72 88 118 73 89 73 97 33 119 98 116 73 97 33 118 73 89 102 33 117 127 99 118 87 33 119 123 100 120 87 33 119 127 99 118 111 101 121 135 102 122 115 103 123 136 104 124 115 103 123 135 102 122 135 102 122 144 105 125 136 104 124 145 106 126 136 104 124 144 105 125 144 105 125 123 100 120 145 106 126 127 99 118 145 106 126 123 100 120 5 81 98 15 107 127 3 80 97 10 108 113 3 80 97 15 107 127 4 109 128 5 110 98 25 62 75 24 61 30 25 62 75 5 110 98 4 111 128 25 21 75 33 111 129 39 21 130 33 111 129 25 21 75 46 0 131 47 2 102 42 83 26 44 83 101 42 83 26 47 2 102 67 112 78 69 87 37 68 113 132 70 85 104 68 113 132 69 87 37 63 114 133 77 115 134 65 88 105 78 89 106 65 88 105 77 115 134 59 116 53 60 117 103 87 118 119 84 119 46 87 118 119 60 117 103 54 68 42 89 68 81 94 69 112 98 3 111 94 69 112 89 68 81 9 120 135 106 121 136 10 93 113 108 94 114 10 93 113 106 121 136 71 122 77 116 50 61 81 90 137 117 8 93 81 90 137 116 50 61 92 33 43 126 74 94 55 33 41 125 76 66 55 33 41 126 74 94 109 96 115 134 123 138 111 101 121 135 102 122 111 101 121 134 123 138 134 123 138 143 124 139 135 102 122 144 105 125 135 102 122 143 124 139 143 124 139 121 43 54 144 105 125 123 100 120 144 105 125 121 43 54 9 125 135 10 108 113 14 126 20 15 107 127 14 126 20 10 108 113 23 127 140 11 78 96 21 128 100 16 79 22 21 128 100 11 78 96 38 129 141 20 130 142 33 111 129 4 111 128 33 111 129 20 130 142 30 131 143 46 0 131 31 131 25 42 83 26 31 131 25 46 0 131 65 132 105 67 112 78 66 133 35 68 113 132 66 133 35 67 112 78 61 91 109 76 92 110 63 114 133 77 115 134 63 114 133 76 92 110 85 33 48 58 32 39 86 33 144 57 32 40 86 33 144 58 32 39 8 70 86 107 71 87 9 120 135 106 121 136 9 120 135 107 71 87 26 21 32 111 101 121 50 21 31 115 103 123 50 21 31 111 101 121 90 69 80 55 69 41 124 53 64 125 55 66 124 53 64 55 69 41 108 94 114 133 134 145 109 96 115 134 123 138 109 96 115 133 134 145 133 134 145 142 135 146 134 123 138 143 124 139 134 123 138 142 135 146 142 135 146 120 45 56 143 124 139 121 43 54 143 124 139 120 45 56 112 136 147 151 137 148 113 138 149 150 139 150 113 138 149 151 137 148 8 140 86 9 125 135 13 141 18 14 126 20 13 141 18 9 125 135 23 142 140 22 143 151 11 144 96 6 145 49 11 144 96 22 143 151 37 146 152 19 147 19 38 129 141 20 130 142 38 129 141 19 147 19 65 132 105 66 133 35 63 148 133 64 149 36 63 148 133 66 133 35 60 117 103 59 116 53 70 150 104 75 151 55 70 150 104 59 116 53 58 86 39 85 37 48 60 84 103 84 35 46 60 84 103 85 37 48 56 33 153 97 33 154 53 33 82 96 33 83 53 33 82 97 33 154 22 82 151 104 10 90 6 38 49 105 39 50 6 38 49 104 10 90 2 21 69 113 152 149 40 21 72 114 153 155 40 21 72 113 152 149 87 33 119 123 100 120 59 42 53 121 43 54 59 42 53 123 100 120 106 121 136 132 154 156 108 94 114 133 134 145 108 94 114 132 154 156 132 154 156 141 155 157 133 134 145 142 135 146 133 134 145 141 155 157 141 155 157 118 73 89 142 135 146 120 45 56 142 135 146 118 73 89 149 156 158 114 153 155 150 157 150 113 152 149 150 157 150 114 153 155 8 140 86 13 141 18 7 158 51 12 159 67 7 158 51 13 141 18 5 110 98 4 109 128 15 160 127 20 161 142 15 160 127 4 109 128 36 162 159 18 163 17 37 146 152 19 147 19 37 146 152 18 163 17 41 21 73 45 21 160 1 21 71 44 21 101 1 21 71 45 21 160 62 164 76 61 165 109 64 149 36 63 148 133 64 149 36 61 165 109 74 166 88 68 167 132 75 151 55 70 150 104 75 151 55 68 167 132 83 168 161 62 63 76 81 169 137 71 64 77 81 169 137 62 63 76 94 33 112 96 33 83 95 33 162 97 33 154 95 33 162 96 33 83 86 33 144 103 33 163 85 33 48 100 33 47 85 33 48 103 33 163 28 83 68 112 136 147 2 170 69 113 138 149 2 170 69 112 136 147 72 171 34 122 51 62 71 122 77 116 50 61 71 122 77 122 51 62 107 71 87 131 172 164 106 121 136 132 154 156 106 121 136 131 172 164 131 172 164 140 173 165 132 154 156 141 155 157 132 154 156 140 173 165 140 173 165 119 98 116 141 155 157 118 73 89 141 155 157 119 98 116 151 137 148 148 52 63 150 139 150 147 54 65 150 139 150 148 52 63 11 144 96 6 145 49 12 159 67 7 158 51 12 159 67 6 145 49 19 15 19 14 16 20 20 161 142 15 160 127 20 161 142 14 16 20 35 19 23 17 20 24 36 162 159 18 163 17 36 162 159 17 20 24 42 21 26 44 21 101 43 21 28 45 21 160 43 21 28 44 21 101 25 21 75 48 21 74 39 21 130 51 21 166 39 21 130 48 21 74 73 26 33 66 28 35 74 166 88 68 167 132 74 166 88 66 28 35 83 174 161 82 175 107 62 164 76 61 165 109 62 164 76 82 175 107 93 33 44 54 33 42 95 33 162 94 33 112 95 33 162 54 33 42 101 176 45 102 177 117 84 119 46 87 118 119 84 119 46 102 177 117 3 95 97 109 96 115 26 21 32 111 101 121 26 21 32 109 96 115 73 97 33 119 98 116 72 171 34 122 51 62 72 171 34 119 98 116 110 41 52 130 47 58 107 71 87 131 172 164 107 71 87 130 47 58 130 47 58 139 49 60 131 172 164 140 173 165 131 172 164 139 49 60 122 51 62 119 98 116 139 49 60 140 173 165 139 49 60 119 98 116 146 75 95 149 156 158 147 77 65 150 157 150 147 77 65 149 156 158</p>
                </polylist>
            </mesh>
        </geometry>
    </library_geometries>
    <library_visual_scenes>
        <visual_scene id="DefaultScene">
            <node id="groupLocator039Node" name="low" type="NODE">
                <matrix sid="transform">1 0 0 0 0 1 0 0 0 0 1 0 0 0 0 1</matrix>
                <node id="groupLocator044Node" name="welders" type="NODE">
                    <matrix sid="transform">1 0 0 0 0 1 0 0 0 0 1 0 0 0 0 1</matrix>
                    <node id="Geometry-mesh078Node" name="welder_ceiling_concave_pplant" type="NODE">
                        <matrix sid="transform">1 0 0 0 0 1 0 0 0 0 1 0 0 0 0 1</matrix>
                        <instance_geometry url="#Geometry-mesh078">
                            <bind_material>
                                <technique_common>
                                    <instance_material symbol="Material-pplant" target="#Material-pplant">
                                        <bind_vertex_input semantic="uvSet1" input_semantic="TEXCOORD" input_set="0" />
                                    </instance_material>
                                </technique_common>
                            </bind_material>
                        </instance_geometry>
                    </node>
                </node>
            </node>
            <extra>
                <technique profile="MAYA">
                    <start_time>0</start_time>
                    <end_time>5</end_time>
                </technique>
            </extra>
        </visual_scene>
    </library_visual_scenes>
    <scene>
        <instance_visual_scene url="#DefaultScene" />
    </scene>
</COLLADA>
