<?xml version="1.0" encoding="utf-8" ?>
<COLLADA xmlns="http://www.collada.org/2005/11/COLLADASchema" version="1.4.1">
    <asset>
        <contributor>
            <authoring_tool>modo 701 [Build 68192], Microsoft Windows 7 Service Pack 1 (6.1.7601 Service Pack 1)</authoring_tool>
            <comments>Plug-in: [Build 68192]; Use Absolute Path: No; Merge Reference Items: No; Save Hidden Items: No; Save Cameras: No; Save Lights: No; Save Locators: Yes; Save Triangles as Triangles: Yes; Order Vertex Maps Alphabetically: Yes; Bake Matrices: Yes; Save Vertex Normals: Yes; Save UV Texture Coordinates: Yes; Save Vertex Colors: Yes; Save Vertex Weights: Yes; Save Animation: Yes; Sample Animation: No; Sample Animation Start: 0; Sample Animation End: 60; Save modo Profile: No; Save Maya Profile: No; Save 3ds Max Profile: No; Formatted Arrays: No;</comments>
            <source_data>file:///D:/Work/Dropbox/Frictional%20Games%20-%20Team/Aaron/models/entities/station/tech/computer_parts_xx/computer_parts_xx.lxo</source_data>
        </contributor>
        <created>2014-09-03T15:14:37Z</created>
        <modified>2014-09-03T15:14:37Z</modified>
        <unit name="game" meter="1" />
        <up_axis>Y_UP</up_axis>
    </asset>
    <library_images>
        <image id="Image0001" name="Image0001">
            <init_from>file:///D:/Work/Dropbox/Frictional%20Games%20-%20Team/Aaron/models/entities/station/tech/computer_parts_xx/computer_parts_xx.psd</init_from>
        </image>
        <image id="Image0002" name="Image0002">
            <init_from>file:///D:/Work/Dropbox/Frictional%20Games%20-%20Team/Aaron/models/entities/station/tech/computer_parts_xx/computer_parts_xx_nrm.tga</init_from>
        </image>
    </library_images>
    <library_materials>
        <material id="Material-computer_parts_xx" name="computer_parts_xx">
            <instance_effect url="#Effect-computer_parts_xx" />
        </material>
        <material id="Material-high" name="high">
            <instance_effect url="#Effect-high" />
        </material>
    </library_materials>
    <library_effects>
        <effect id="Effect-computer_parts_xx" name="computer_parts_xx">
            <profile_COMMON>
                <newparam sid="Image0001-surface">
                    <surface type="2D">
                        <init_from>Image0001</init_from>
                        <format>A8R8G8B8</format>
                    </surface>
                </newparam>
                <newparam sid="Image0001-sampler">
                    <sampler2D>
                        <source>Image0001-surface</source>
                        <minfilter>LINEAR_MIPMAP_LINEAR</minfilter>
                        <magfilter>LINEAR</magfilter>
                    </sampler2D>
                </newparam>
                <technique sid="common">
                    <phong>
                        <diffuse>
                            <texture texture="Image0001-sampler" texcoord="uvSet1" />
                        </diffuse>
                        <specular>
                            <color sid="specular_effect_rgb">0.5 0.5 0.5 1</color>
                        </specular>
                        <shininess>
                            <float sid="specular_effect_rgb">256</float>
                        </shininess>
                    </phong>
                </technique>
            </profile_COMMON>
        </effect>
        <effect id="Effect-high" name="high">
            <profile_COMMON>
                <technique sid="common">
                    <phong>
                        <diffuse>
                            <color sid="diffuse_effect_rgb">0.8 0.8 0.8 1</color>
                        </diffuse>
                        <specular>
                            <color sid="specular_effect_rgb">0.5 0.5 0.5 1</color>
                        </specular>
                        <shininess>
                            <float sid="specular_effect_rgb">4</float>
                        </shininess>
                    </phong>
                </technique>
            </profile_COMMON>
        </effect>
    </library_effects>
    <library_geometries>
        <geometry id="Geometry-mesh010" name="chassis_pplant_control_room">
            <mesh>
                <source id="Geometry-mesh010-positions" name="positions">
                    <float_array id="Geometry-mesh010-positions-array" count="525">-1.5 1.375 0 -1.5 1.375 0.25 -1.5 1.25 0.25 -1.5 0.929375 0.89125 -1.5 0.800781 1 -1.5 0.800781 0.89125 -1.5 1.25 0.125 -1.4541 1.25 0.25 -1.4541 0.929375 0.89125 -1.4541 0.800781 0.954102 -1.4541 0.800781 0.89125 -1.4541 1.25 0.125 -1.5 0 0.125 -1.4541 0 0.954102 -1.5 0 0 -1.4541 1.1875 0.25 -1.4541 0.75 0.832031 -1.47314 -0.0045898 0.25 -1.49365 0.0149415 0.25 -1.49365 1.16797 0.244824 -1.49365 0.730469 0.8125 1.4541 0 0.954102 1.5 0 0 -1.4541 1.16821 0.1875 -1.4541 1.1875 0.206787 -1.4541 -0.0045898 0.206787 -1.4541 0.0146973 0.1875 -1.47314 -0.0045898 0.206787 -1.49365 0.730469 0.974365 -1.47437 0.730469 0.993652 -1.49365 1.14868 0.207031 -1.49365 0.0342286 0.207031 -1.49365 1.16772 0.226074 -1.49365 0.0151856 0.226074 -1.49365 0.0149415 0.520033 -1.49365 0.568151 0.974365 -1.47437 0.568151 0.993652 -1.49365 0.568151 0.520033 -1.47314 0.553502 0.534681 -1.47314 -0.00448608 0.534681 -1.4541 0 0.125 -1.5 0.999327 0.999881 -1.49365 0.887297 0.813636 -1.4541 0.898657 0.833173 1.47344 -0.00438213 0.971979 -1.47293 0.553502 0.971461 -1.47344 -0.00438213 0.971979 -1.4541 0.75 0.954102 1.5 1.25 0.25 1.5 0.929375 0.89125 1.5 0.800781 0.89125 1.5 1.25 0.125 1.4541 1.25 0.25 1.4541 0.929375 0.89125 1.4541 0.800781 0.89125 1.4541 1.25 0.125 1.5 4.84288e-008 0.125 1.4541 4.84288e-008 0.954102 1.5 4.84288e-008 0 1.4541 1.1875 0.25 1.4541 0.75 0.832031 1.47314 -0.0045898 0.25 1.49365 0.0149415 0.25 1.49365 1.16797 0.244824 1.49365 0.730469 0.8125 1.4541 1.16821 0.1875 1.4541 1.1875 0.206787 1.4541 -0.0045898 0.206787 1.4541 0.0146973 0.1875 1.47314 -0.0045898 0.206787 1.49365 0.730469 0.974365 1.49365 1.14868 0.207031 1.49365 0.0342286 0.207031 1.49365 1.16772 0.226074 1.49365 0.0151856 0.226074 1.49365 0.0149415 0.520033 1.49365 0.568151 0.974365 1.49365 0.568151 0.520033 1.47314 0.553502 0.534681 1.47314 -0.00448585 0.534681 1.4541 4.84288e-008 0.125 1.49365 0.887297 0.813636 1.4541 0.898657 0.833173 1.47344 -0.00438213 0.971979 1.5 1.375 0 1.5 1.375 0.25 1.47437 0.568151 0.993652 1.47293 0.553502 0.971461 1.5 0.800781 1 1.4541 0.800781 0.954102 1.47437 0.730469 0.993652 1.5 0.999327 0.999881 1.4541 0.75 0.954102 -3.5 -0.25 4 -3.25 -0.25 4 -1.5 -0.25 0 -1.5 -0.25 0.25 -3.25 -0.25 0.25 -3.5 -0.25 0 -3.5 1.125 0 -1.5 1.125 0 -3.5 1.125 0.25 -3.5 -0.25 0.25 -1.5 1.125 0.25 -3.25 1.125 0.25 -3.5 1.125 4 -3.25 1.125 4 -3.25 -0.25 3.65625 -3.25 1.125 3.65625 -3.5 1.125 3.65625 -3.5 -0.25 3.65625 -1.125 0.943133 -0.0249023 -1.125 0.928484 0 -1.125 1.10545 -0.0249023 -1.125 1.12498 0 1.25 0.943133 -0.0249023 1.25 0.928484 0 1.25 1.10545 -0.0249023 1.25 1.12498 0 1.49365 1.10545 0 1.47437 1.10545 -0.0249023 1.49365 0.943133 0 1.47437 0.943133 -0.0249023 1.47293 0.928484 0 1.4541 1.12498 0 -3.5 0.922468 0.17627 -3.5 0.760149 0.17627 -3.5249 0.760149 0.156982 -3.5 0.745501 0.155543 -3.5249 0.922468 0.156982 -3.5 0.941999 0.136719 1.25 0.943133 -0.0249023 1.25 0.928484 0 1.25 1.10545 -0.0249023 1.25 1.12498 0 -3.5249 0.943133 4 -3.5 0.928484 4 -3.5249 1.10545 4 -3.5 1.12498 4 -3.5249 0.943133 1.5 -3.5 0.928484 1.5 -3.5249 1.10545 1.5 -3.5 1.12498 1.5 -3.5249 0.943133 1.5 -3.5 0.928484 1.5 -3.5249 1.10545 1.5 -3.5 1.12498 1.5 -1.125 0.943133 -0.0249023 -1.125 0.928484 0 -1.125 1.10545 -0.0249023 -1.125 1.12498 0 -3.5249 0.943133 0 -3.5 0.928484 0 -3.5 1.12498 0 -3.5249 1.10545 0 -3.5 0.943133 -0.0249023 -3.5 1.10545 -0.0249023 -3.32593 0.922468 0.00220345 -3.32593 0.760149 0.00220345 -3.34522 0.760149 -0.0226989 -3.34666 0.745501 0.00220345 -3.34522 0.922468 -0.0226989 -3.36548 0.941999 0.00220345 -3.51511 0.760149 -0.0129042 -3.4975 0.745501 0.00470439 -3.51511 0.922468 -0.0129042 -3.4975 0.941999 0.00470439 -3.49146 0.760149 -0.0226989 -3.49146 0.745501 0.00220345 -3.49146 0.922468 -0.0226989 -3.49146 0.941999 0.00220345 -3.5249 0.760149 0.0107422 -3.5 0.745501 0.0107422 -3.5249 0.922468 0.0107422 -3.5 0.941999 0.0107422</float_array>
                    <technique_common>
                        <accessor count="175" source="#Geometry-mesh010-positions-array" stride="3">
                            <param name="X" type="float" />
                            <param name="Y" type="float" />
                            <param name="Z" type="float" />
                        </accessor>
                    </technique_common>
                </source>
                <source id="Geometry-mesh010-normals" name="normals">
                    <float_array id="Geometry-mesh010-normals-array" count="435">-1 0 0 -0.950864 0.217975 0.219874 -0.777156 0.330206 0.535718 -0.983007 -0.129803 0.129803 -0.897911 0.435417 0.0645498 -0.856594 -0.405008 0.319712 -0.880847 -0.453759 0.134947 -0.64405 -0.412795 0.64405 0 -0.707107 -0.707107 -0.577254 -0.604462 -0.549002 -0.380509 -0.263911 -0.88632 -0.861059 -0.158967 -0.483018 -0.938151 -0.337424 -0.07758 -0.708035 0.661966 0.245941 -0.662025 0.351347 0.662025 -0.374776 0.914852 0.150294 1 0 0 0.950864 0.217975 0.219874 0.983007 -0.129803 0.129803 0.777156 0.330206 0.535717 0.897911 0.435417 0.0645498 0.380509 -0.263911 -0.88632 0.577254 -0.604462 -0.549002 0.861059 -0.158967 -0.483018 0.938151 -0.337424 -0.07758 -0.448679 0.85177 0.27051 -0.496001 0.45643 0.738685 -0.558169 0.407559 -0.722733 -0.709319 0.167286 -0.68475 -0.572906 0.577065 0.582044 -0.851499 -0.348785 0.391533 -0.949428 -0.313981 -0.00160192 -0.889433 0.396948 -0.226587 -0.821593 -0.403367 0.40284 -0.948667 -0.210376 0.236165 -0.690321 -0.723501 -0.00178115 -0.515107 0.831598 -0.207629 0.856594 -0.405008 0.319712 0.64405 -0.412795 0.64405 0.880847 -0.453759 0.134947 0.708035 0.661966 0.245941 0.374776 0.914852 0.150294 0.662025 0.351347 0.662025 0.496002 0.45643 0.738684 0.572906 0.577065 0.582044 0.889433 0.396948 -0.226587 0.709319 0.167286 -0.68475 0.999999 0.000929302 -0.000685819 0.948666 -0.210377 0.236165 0.821593 -0.403367 0.40284 0.851498 -0.348786 0.391534 0.949428 -0.313981 -0.00160192 0.69032 -0.723502 -0.001781 0.448679 0.851769 0.27051 0.515107 0.831598 -0.207629 0.558169 0.407559 -0.722733 0 1 0 0.761401 -0.269272 -0.589713 0.526905 -0.74554 -0.408093 0.721674 -0.408375 -0.558943 0.691442 0.484888 -0.535529 0.749596 0.317876 -0.580569 0.418836 0.848143 -0.324392 -0.589713 -0.269272 0.761401 -0.558943 -0.408375 0.721674 -0.408093 -0.74554 0.526905 -0.535529 0.484888 0.691442 -0.324392 0.848143 0.418836 -0.580569 0.317876 0.749596 -0.678898 -0.279633 -0.678898 -0.452216 -0.768767 -0.452216 -0.640221 -0.424541 -0.640221 -0.66006 0.358666 -0.66006 -0.686931 0.237173 -0.686931 -0.52518 0.669605 -0.52518 -0.942809 -0.235702 0.235702 0 -0.707107 0.707107 -0.71555 -0.690369 -0.106668 0 -0.952226 -0.305393 -0.661337 -0.394345 -0.638064 0 -0.525731 -0.850651 0.661337 -0.394345 -0.638064 0 -0.447214 -0.894427 0.408248 -0.816497 -0.408248 0 0 1 0.447214 0 0.894427 0.942809 -0.235702 0.235702 0 0.988234 0.152948 -6.06574e-009 0.952065 0.305895 0.71555 -0.690369 -0.106668 0 -0.473871 0.880594 0 0.527835 0.849347 0 0.786853 -0.61714 0 0.437527 -0.899205 0 -0.496478 -0.86805 0 -0.861934 -0.50702 -0.61714 0.786853 0 -0.899205 0.437527 0 -0.817559 0.575845 0 -0.957654 0.287922 0 -0.94567 -0.325129 0 -0.759713 -0.650258 0 -0.166265 0.775902 -0.608549 -0.141082 0.522846 -0.840671 0 0.287922 -0.957654 -0.846152 -0.498489 -0.188511 -0.597366 -0.603596 -0.52804 -0.502191 -0.853727 -0.137677 -0.308262 -0.85983 -0.407023 -0.622732 0.384258 -0.68158 -0.856928 0.49591 -0.140531 0 -0.525731 -0.850651 -0.894427 0 0.447214 -0.447214 0 0.894427 -0.894427 -0.447214 0 -0.408248 -0.816497 -0.408248 0 0 -1 -0.999999 0.000929302 -0.000685819 0 -0.496478 -0.86805 0 -0.861934 -0.50702 -0.86805 -0.496478 0 -0.50702 -0.861934 0 -0.451401 0.863305 -0.225701 -0.171074 -0.496008 -0.851299 -0.10332 -0.857321 -0.504307 -0.494842 0.784012 -0.374775 -0.612314 0.780701 -0.124811 0 -0.952226 -0.305393 1.40447e-008 -0.706895 0.707318 2.01818e-008 -1 -3.13568e-010 1.42665e-008 -0.706895 0.707318 2.04954e-008 -1 -2.04954e-008 0 -1 0 0.894427 -0.447214 0 0 0.00092994 1 0 -0.310325 0.950631 0 -0.621689 0.783264 0 0.89663 0.44278 0 0.575845 -0.817559 -0.179576 -0.915839 -0.359153 0.707107 0 0.707107 -6.82431e-009 0.343479 0.93916 -6.81975e-009 0.686269 0.727348 -0.94567 -0.325129 0 -0.50702 -0.861934 0</float_array>
                    <technique_common>
                        <accessor count="145" source="#Geometry-mesh010-normals-array" stride="3">
                            <param name="X" type="float" />
                            <param name="Y" type="float" />
                            <param name="Z" type="float" />
                        </accessor>
                    </technique_common>
                </source>
                <source id="Geometry-mesh010-uvSet1" name="uvSet1">
                    <float_array id="Geometry-mesh010-uvSet1-array" count="346">0.480376 0.592861 0.49354 0.592861 0.493539 0.856129 0.452626 0.517853 0.450534 0.57213 0.400998 0.458473 0.352192 0.667259 0.481218 0.460583 0.480882 0.451717 0.485876 0.459563 0.34137 0.254265 0.344701 0.256542 0.338902 0.263711 0.34653 0.270737 0.349835 0.264114 0.48197 0.513975 0.486723 0.514995 0.479724 0.529566 1.48038 0.592861 1.49354 0.856129 1.49354 0.592861 1.45263 0.517853 1.401 0.458473 1.45053 0.57213 1.35219 0.667259 1.34137 0.254265 1.3389 0.263711 1.3447 0.256542 1.34653 0.270737 1.34984 0.264114 0.354581 0.681922 0.456469 0.583033 0.338102 0.667664 0.345704 0.660409 0.459426 0.530928 0.400641 0.265015 0.353984 0.264017 0.348952 0.667039 0.404957 0.450914 0.404751 0.256732 0.353805 0.253772 0.343706 0.67898 1.48122 0.460583 1.48588 0.459563 1.48088 0.451717 1.48197 0.513975 1.47972 0.529566 1.48672 0.514995 1.45647 0.583033 1.45943 0.530928 1.34895 0.667039 1.3457 0.660409 1.48098 0.257118 1.40475 0.256732 1.40496 0.450914 1.40064 0.265015 1.35398 0.264017 1.3538 0.253772 1.35458 0.681922 1.34371 0.67898 1.3381 0.667664 0.99821 0.996791 0.956602 0.996791 0.956602 0.913574 0.435497 0.9386 0.433183 0.923712 0.413547 0.954814 0.412982 0.938253 0.412848 0.660388 0.412848 0.687472 0.423235 0.995352 0.27401 0.995711 0.284866 0.954871 1.28636 0.938008 1.28487 0.954871 1.26957 0.910125 1.26555 0.922386 1.49566 0.918464 1.49566 0.903397 1.2909 0.918362 1.2909 0.903294 0.49891 0.996791 0.99821 0.913574 0.49891 0.913575 1.41355 0.954814 1.4355 0.9386 1.42323 0.995352 1.46465 0.963791 0.997954 0.461481 0.997847 0.517874 0.487629 0.458959 0.487835 0.514775 0.252537 0.682028 0.252537 0.455722 0.0879513 0.682028 0.0879513 0.455722 0.334831 0.682028 0.314257 0.682028 0.334831 0.455722 0.314257 0.455722 0.95898 0.532959 0.526203 0.530377 0.959041 0.517639 0.526642 0.515011 0.487366 0.449734 0.526459 0.459151 0.525987 0.449923 0.699601 0.516062 0.959124 0.461289 0.699525 0.460006 0.974672 0.533053 0.994312 0.53317 0.97478 0.517734 0.974873 0.461367 0.969941 0.461343 0.974862 0.45213 0.969928 0.452106 0.969851 0.517704 0.28636 0.938008 0.406229 0.856127 0.406229 0.687472 0.252652 0.947651 0.265551 0.922386 1.41285 0.687472 1.41285 0.660388 1.49566 0.862362 1.27042 0.86225 1.27401 0.995711 0.480977 0.257118 0.831777 0.913574 0.831777 0.996791 0.540518 0.913575 0.540865 0.913575 0.540865 0.996791 0.9591 0.452053 0.699314 0.53141 0.937421 0.517507 0.937491 0.461183 0.997721 0.452243 0.9698 0.533024 0.269569 0.910125 0.464645 0.963791 1.43318 0.923712 1.41298 0.938253 0.49891 0.568306 0.506549 0.553028 0.99821 0.568302 0.990571 0.553024 1.26017 0.910174 1.25216 0.925332 1.25265 0.947651 0.487036 0.256098 0.99809 0.258446 0.49087 0.530166 0.108696 0.682028 0.108696 0.455722 0.699232 0.450775 0.937341 0.53283 0.260167 0.910174 0.252165 0.925332 0.495661 0.903397 0.290898 0.903294 0.495655 0.862362 0.270419 0.86225 0.49566 0.918464 0.290895 0.918362 0.0999764 0.687476 0.0999779 0.856129 0.49891 0.634395 0.99821 0.634392 1.40623 0.856127 1.40623 0.687472 0.937445 0.451946</float_array>
                    <technique_common>
                        <accessor count="173" source="#Geometry-mesh010-uvSet1-array" stride="2">
                            <param name="S" type="float" />
                            <param name="T" type="float" />
                        </accessor>
                    </technique_common>
                </source>
                <source id="Geometry-mesh010-UV_Distortion" name="UV_Distortion">
                    <float_array id="Geometry-mesh010-UV_Distortion-array" count="318">0.544741 0.50186 0.458843 0.320729 0.350798 0.681776 0.330848 0.361865 0.671737 0.309702 0.338737 0.692717 0.303836 0.332321 0.698538 0.312833 0.342161 0.689611 0.321592 0.351742 0.68092 0.331081 0.36212 0.671505 0.544743 0.501858 0.458842 0.320729 0.350797 0.681777 0.330848 0.361865 0.671737 0.303835 0.332319 0.698539 0.312831 0.342159 0.689613 0.321594 0.351743 0.680919 0.332795 0.363995 0.669805 0.332671 0.363859 0.669928 0.330752 0.36176 0.671832 0.329818 0.360739 0.672758 0.355573 0.388908 0.647205 0.338857 0.370624 0.663791 0.330246 0.361207 0.672334 0.327486 0.358188 0.675073 0.329664 0.36057 0.672912 0.330293 0.361257 0.672288 0.345728 0.37814 0.656973 0.34039 0.372302 0.662269 0.330258 0.36122 0.672322 0.331683 0.362778 0.670908 0.324754 0.3552 0.677783 0.349399 0.382155 0.653331 0.312338 0.34162 0.690102 0.324067 0.354448 0.678465 0.287066 0.313978 0.715177 0.370826 0.40559 0.632072 0.262038 0.286604 0.740009 0.340216 0.372111 0.662442 0.309701 0.338736 0.692718 0.331081 0.36212 0.671506 0.355573 0.388908 0.647205 0.338856 0.370624 0.663791 0.33026 0.361222 0.67232 0.331687 0.362783 0.670904 0.329208 0.360071 0.673364 0.330052 0.360994 0.672527 0.327486 0.358188 0.675072 0.312339 0.341621 0.690101 0.324066 0.354447 0.678466 0.329663 0.360568 0.672913 0.33029 0.361254 0.672291 0.287065 0.313977 0.715178 0.370822 0.405587 0.632075 0.324754 0.3552 0.677783 0.349398 0.382154 0.653331 0.332671 0.363859 0.669928 0.33075 0.361758 0.671834 0.329817 0.360737 0.67276 0.345729 0.378141 0.656973 0.340393 0.372304 0.662267 0.340216 0.372111 0.662442 0.344887 0.37722 0.657808 0.327023 0.357682 0.675532 0.544742 0.501859 0.458843 0.317907 0.34771 0.684577 0.335228 0.366656 0.667391 0.350054 0.382871 0.652681 0.344887 0.37722 0.657807 0.320345 0.350377 0.682158 0.337764 0.369429 0.664875 0.337563 0.36921 0.665074 0.331955 0.363076 0.670639 0.695987 0.335133 0.306407 0.695987 0.335133 0.306407 0.330867 0.361886 0.671718 0.331097 0.362138 0.67149 0.318815 0.348704 0.683676 0.544745 0.501856 0.45884 0.319125 0.349043 0.683368 0.544742 0.50186 0.458843 0.350062 0.38288 0.652673 0.317907 0.34771 0.684577 0.329629 0.360532 0.672946 0.339611 0.37145 0.663042 0.339611 0.37145 0.663042 0.344887 0.37722 0.657807 0.402742 0.440499 0.600404 0.337564 0.36921 0.665073 0.320345 0.350377 0.682158 0.327024 0.357682 0.675531 0.344888 0.377221 0.657806 0.328994 0.359838 0.673576 0.319124 0.349042 0.683369 0.330887 0.361908 0.671698 0.337764 0.369429 0.664875 0.325415 0.355922 0.677128 0.402741 0.440498 0.600405 0.81208 0.207156 0.1894 0.81208 0.207156 0.1894 0.328995 0.359838 0.673575 0.350062 0.38288 0.652673 0.350054 0.382871 0.652681 0.318815 0.348704 0.683676 0.544747 0.501854 0.458838 0.344887 0.377221 0.657807 0.544745 0.501856 0.45884 0.325415 0.355922 0.677128 0.344887 0.377221 0.657807</float_array>
                    <technique_common>
                        <accessor count="106" source="#Geometry-mesh010-UV_Distortion-array" stride="3">
                            <param name="R" type="float" />
                            <param name="G" type="float" />
                            <param name="B" type="float" />
                        </accessor>
                    </technique_common>
                </source>
                <vertices id="Geometry-mesh010-vertices">
                    <input semantic="POSITION" source="#Geometry-mesh010-positions" />
                </vertices>
                <triangles count="235" material="Material-computer_parts_xx">
                    <input semantic="VERTEX" source="#Geometry-mesh010-vertices" offset="0" />
                    <input semantic="NORMAL" source="#Geometry-mesh010-normals" offset="1" />
                    <input semantic="TEXCOORD" source="#Geometry-mesh010-uvSet1" offset="2" set="0" />
                    <input semantic="COLOR" source="#Geometry-mesh010-UV_Distortion" offset="3" set="0" />
                    <p>7 0 0 0 11 0 1 0 40 0 2 0 20 1 3 1 42 2 4 1 37 3 5 1 37 3 5 2 42 2 4 2 19 4 6 2 35 5 7 3 45 6 8 3 36 7 9 3 25 8 10 4 27 9 11 4 26 10 12 4 31 11 13 5 26 10 12 5 27 9 11 5 33 12 14 6 31 11 13 6 27 9 11 6 28 13 15 7 29 14 16 7 47 15 17 7 52 16 18 8 80 16 19 8 55 16 20 8 64 17 21 9 77 18 22 9 81 19 23 9 77 18 22 10 63 20 24 10 81 19 23 10 67 8 25 11 68 21 26 11 69 22 27 11 72 23 28 12 69 22 27 12 68 21 26 12 74 24 29 13 69 22 27 13 72 23 28 13 19 4 6 14 42 2 4 14 15 25 30 14 43 26 31 15 15 25 30 15 42 2 4 15 23 27 32 16 26 10 12 16 30 28 33 16 31 11 13 17 30 28 33 17 26 10 12 17 43 26 31 18 42 2 4 18 16 29 34 18 20 1 3 19 16 29 34 19 42 2 4 19 34 30 35 20 37 3 5 20 18 31 36 20 19 4 6 21 18 31 36 21 37 3 5 21 18 31 36 22 19 4 6 22 33 12 14 22 32 32 37 23 33 12 14 23 19 4 6 23 37 3 5 24 34 30 35 24 38 33 38 24 39 34 39 25 38 33 38 25 34 30 35 25 33 12 14 26 32 32 37 26 31 11 13 26 30 28 33 27 31 11 13 27 32 32 37 27 18 31 36 28 17 35 40 28 34 30 35 28 39 34 39 29 34 30 35 29 17 35 40 29 27 9 11 30 17 35 40 30 33 12 14 30 18 31 36 31 33 12 14 31 17 35 40 31 15 25 30 32 24 36 41 32 19 4 6 32 32 32 37 33 19 4 6 33 24 36 41 33 24 36 41 34 23 27 32 34 32 32 37 34 30 28 33 35 32 32 37 35 23 27 32 35 76 37 42 36 86 38 43 36 87 39 44 36 70 40 45 37 92 41 46 37 90 42 47 37 82 43 48 38 60 44 49 38 81 19 23 38 64 17 21 39 81 19 23 39 60 44 49 39 74 24 29 40 72 23 28 40 73 45 50 40 71 46 51 41 73 45 50 41 72 23 28 41 83 47 52 42 79 48 53 42 87 39 44 42 78 49 54 43 87 39 44 43 79 48 53 43 75 50 55 20 62 51 56 20 77 18 22 20 63 20 24 44 77 18 22 44 62 51 56 44 69 22 27 45 74 24 29 45 61 52 57 45 62 51 56 46 61 52 57 46 74 24 29 46 62 51 56 47 74 24 29 47 63 20 24 47 73 45 50 48 63 20 24 48 74 24 29 48 59 53 58 49 63 20 24 49 66 54 59 49 73 45 50 50 66 54 59 50 63 20 24 50 62 51 56 51 75 50 55 51 61 52 57 51 79 48 53 52 61 52 57 52 75 50 55 52 63 20 24 14 59 53 58 14 81 19 23 14 82 43 48 53 81 19 23 53 59 53 58 53 65 55 60 54 71 46 51 54 68 21 26 54 72 23 28 55 68 21 26 55 71 46 51 55 77 18 22 56 78 49 54 56 75 50 55 56 79 48 53 57 75 50 55 57 78 49 54 57 66 54 59 34 73 45 50 34 65 55 60 34 71 46 51 58 65 55 60 58 73 45 50 58 99 56 61 59 101 56 62 59 104 56 63 59 121 57 7 3 123 58 8 3 122 59 9 3 119 60 15 7 120 61 16 7 124 62 17 7 126 63 42 36 127 64 43 36 128 65 44 36 125 66 45 37 130 67 46 37 129 68 47 37 155 69 7 3 152 70 8 3 151 71 9 3 156 72 15 7 154 73 16 7 153 74 17 7 158 57 42 36 160 58 44 36 159 59 43 36 157 60 45 37 161 61 47 37 162 62 46 37 6 75 64 60 11 76 65 60 2 77 66 60 7 78 67 60 2 77 66 60 11 76 65 60 7 0 0 61 40 0 2 61 8 0 68 61 10 0 69 61 8 0 68 61 40 0 2 61 1 0 70 62 2 77 66 62 41 0 71 62 3 79 72 62 41 0 71 62 2 77 66 62 53 80 73 63 49 81 74 63 54 82 75 63 50 83 76 63 54 82 75 63 49 81 74 63 80 84 77 64 56 85 78 64 55 76 79 64 51 86 80 64 55 76 79 64 56 85 78 64 84 56 61 65 0 56 81 65 85 87 82 65 1 88 83 65 85 87 82 65 0 56 81 65 48 89 84 66 51 86 85 66 85 16 86 66 84 16 87 66 85 16 86 66 51 86 85 66 20 1 3 67 28 13 15 67 16 29 34 67 47 15 17 67 16 29 34 67 28 13 15 67 86 38 43 68 76 37 42 68 90 42 47 68 70 40 45 68 90 42 47 68 76 37 42 68 86 90 88 69 90 91 89 69 36 90 90 69 29 91 91 69 36 90 90 69 90 91 89 69 96 84 92 70 103 84 93 70 102 84 94 70 101 84 95 70 102 84 94 70 103 84 93 70 98 0 96 71 102 0 97 71 99 0 98 71 101 0 99 71 99 0 98 71 102 0 97 71 114 92 100 72 118 92 101 72 113 93 102 72 117 93 103 72 113 93 102 72 118 92 101 72 122 94 90 73 123 95 104 73 131 94 105 73 132 95 106 73 131 94 105 73 123 95 104 73 138 96 100 72 142 96 101 72 137 97 102 72 141 97 103 72 137 97 102 72 142 96 101 72 145 98 102 69 154 99 107 69 143 100 108 69 151 101 109 69 143 100 108 69 154 99 107 69 170 102 110 72 162 92 111 72 169 103 112 72 161 104 89 72 169 103 112 72 162 92 111 72 171 105 113 73 163 106 114 73 172 107 115 73 164 108 116 73 172 107 115 73 163 106 114 73 163 106 114 69 171 105 113 69 165 109 117 69 173 110 112 69 165 109 117 69 171 105 113 69 8 111 118 74 3 79 72 74 7 78 67 74 2 77 66 74 7 78 67 74 3 79 72 74 40 0 2 75 13 112 119 75 10 0 69 75 9 113 120 75 10 0 69 75 13 112 119 75 41 0 71 76 3 79 72 76 4 114 121 76 5 115 122 76 4 114 121 76 3 79 72 76 80 16 19 77 52 16 18 77 54 16 123 77 53 16 124 77 54 16 123 77 52 16 18 77 22 116 96 70 14 116 94 70 84 116 98 70 0 116 95 70 84 116 98 70 14 116 94 70 56 85 78 78 58 16 125 78 51 86 80 78 84 16 126 78 51 86 80 78 58 16 125 78 85 16 86 79 91 16 127 79 48 89 84 79 49 81 74 79 48 89 84 79 91 16 127 79 46 117 128 80 45 6 8 80 39 34 39 80 38 33 38 80 39 34 39 80 45 6 8 80 87 39 44 81 78 49 54 81 76 37 42 81 77 18 22 81 76 37 42 81 78 49 54 81 45 6 8 82 35 5 7 82 38 33 38 82 37 3 5 82 38 33 38 82 35 5 7 82 103 56 129 83 100 56 130 83 104 56 131 83 99 56 81 83 104 56 131 83 100 56 130 83 106 56 83 84 108 56 132 84 105 56 81 84 109 56 133 84 105 56 81 84 108 56 132 84 95 116 92 70 98 116 94 70 100 116 93 70 99 116 95 70 100 116 93 70 98 116 94 70 111 118 108 73 115 118 105 73 112 119 134 73 116 119 106 73 112 119 134 73 115 118 105 73 122 59 9 85 120 61 16 85 121 57 7 85 119 60 15 85 121 57 7 85 120 61 16 85 135 120 108 73 139 120 105 73 136 121 134 73 140 121 106 73 136 121 134 73 139 120 105 73 154 99 107 72 145 98 102 72 153 122 135 72 146 96 100 72 153 122 135 72 145 98 102 72 149 93 103 69 147 118 105 69 156 93 136 69 155 118 137 69 156 93 136 69 147 118 105 69 159 94 88 73 160 95 138 73 167 123 113 73 168 124 115 73 167 123 113 73 160 95 138 73 159 94 88 69 167 123 113 69 161 104 89 69 169 103 112 69 161 104 89 69 167 123 113 69 165 109 117 72 173 110 112 72 166 125 139 72 174 126 110 72 166 125 139 72 173 110 112 72 8 111 118 63 10 82 140 63 3 79 72 63 5 115 122 63 3 79 72 63 10 82 140 63 2 77 66 86 1 0 70 86 6 75 64 86 0 0 141 86 6 75 64 86 1 0 70 86 51 86 85 87 48 89 84 87 55 76 142 87 52 127 143 87 55 76 142 87 48 89 84 87 4 128 144 88 9 129 145 88 88 130 146 88 89 131 147 88 88 130 146 88 9 129 145 88 54 82 148 89 50 83 76 89 89 132 149 89 88 133 150 89 89 132 149 89 50 83 76 89 91 16 127 90 88 133 150 90 49 81 74 90 50 83 76 90 49 81 74 90 88 133 150 90 46 134 151 91 44 134 152 91 45 135 104 91 87 136 138 91 45 135 104 91 44 134 152 91 64 17 21 92 60 44 49 92 70 40 45 92 92 41 46 92 70 40 45 92 60 44 49 92 29 91 91 72 90 91 89 72 47 137 153 72 92 137 111 72 47 137 153 72 90 91 89 72 70 40 45 93 76 37 42 93 64 17 21 93 77 18 22 93 64 17 21 93 76 37 42 93 101 56 62 94 109 56 133 94 104 56 63 94 108 56 132 94 104 56 63 94 109 56 133 94 97 16 97 95 104 16 99 95 107 16 154 95 108 16 155 95 107 16 154 95 104 16 99 95 107 16 154 96 108 16 155 96 94 16 94 96 106 16 95 96 94 16 94 96 108 16 155 96 127 64 43 68 126 63 42 68 129 68 47 68 125 66 45 68 129 68 47 68 126 63 42 68 122 94 90 69 131 94 105 69 120 104 91 69 133 138 103 69 120 104 91 69 131 94 105 69 143 100 108 73 151 101 109 73 144 121 134 73 152 139 156 73 144 121 134 73 151 101 109 73 149 93 103 72 156 93 136 72 150 92 101 72 153 122 157 72 150 92 101 72 156 93 136 72 151 71 9 85 154 73 16 85 155 69 7 85 156 72 15 85 155 69 7 85 154 73 16 85 163 106 114 73 167 123 113 73 164 108 116 73 168 124 115 73 164 108 116 73 167 123 113 73 163 106 114 69 165 109 117 69 167 123 113 69 169 103 112 69 167 123 113 69 165 109 117 69 174 126 110 72 173 110 112 72 130 96 111 72 129 97 89 72 130 96 111 72 173 110 112 72 10 82 158 97 9 132 159 97 5 115 122 97 4 114 121 97 5 115 122 97 9 132 159 97 12 113 160 98 6 75 161 98 14 0 162 98 0 0 163 98 14 0 162 98 6 75 161 98 40 84 164 99 11 76 165 99 12 113 160 99 6 75 161 99 12 113 160 99 11 76 165 99 53 80 73 100 52 127 143 100 49 81 74 100 48 89 84 100 49 81 74 100 52 127 143 100 89 140 166 101 9 113 120 101 21 84 167 101 13 112 119 101 21 84 167 101 9 113 120 101 41 141 168 102 91 142 169 102 1 88 83 102 85 87 82 102 1 88 83 102 91 142 169 102 80 16 19 103 54 16 123 103 57 16 170 103 89 140 171 103 57 16 170 103 54 16 123 103 87 136 138 73 86 90 88 73 36 90 90 73 36 90 90 73 45 135 104 73 87 136 138 73 36 7 9 85 29 14 16 85 35 5 7 85 28 13 15 85 35 5 7 85 29 14 16 85 28 13 15 104 20 1 3 104 35 5 7 104 37 3 5 104 35 5 7 104 20 1 3 104 91 142 169 102 41 141 168 105 88 130 146 105 4 128 144 105 88 130 146 105 41 141 168 105 110 0 154 96 93 0 94 96 109 0 155 96 105 0 95 96 109 0 155 96 93 0 94 96 110 0 154 95 109 0 155 95 102 0 97 95 101 0 99 95 102 0 97 95 109 0 155 95 111 118 108 69 113 93 102 69 115 118 105 69 117 93 103 69 115 118 105 69 113 93 102 69 134 92 101 72 124 92 153 72 133 138 103 72 120 104 91 72 133 138 103 72 124 92 153 72 135 120 108 69 137 97 102 69 139 120 105 69 141 97 103 69 139 120 105 69 137 97 102 69 155 118 137 73 147 118 105 73 152 139 172 73 148 119 106 73 152 139 172 73 147 118 105 73 159 59 43 68 161 61 47 68 158 57 42 68 157 60 45 68 158 57 42 68 161 61 47 68 169 103 112 72 165 109 117 72 170 102 110 72 166 125 139 72 170 102 110 72 165 109 117 72 127 143 88 73 171 105 113 73 128 144 138 73 172 107 115 73 128 144 138 73 171 105 113 73 129 97 89 69 173 110 112 69 127 143 88 69 171 105 113 69 127 143 88 69 173 110 112 69</p>
                </triangles>
            </mesh>
        </geometry>
    </library_geometries>
    <library_visual_scenes>
        <visual_scene id="DefaultScene">
            <node id="groupLocator002Node" name="Texture_Group" type="NODE">
                <matrix sid="transform">1 0 0 0 0 1 0 0 0 0 1 0 0 0 0 1</matrix>
                <node id="txtrLocator005Node" name="computer_parts_xx__Image___Texture_" type="NODE">
                    <matrix sid="transform">1 0 0 0 0 1 0 0 0 0 1 0 0 0 0 1</matrix>
                </node>
                <node id="txtrLocator078Node" name="computer_parts_xx_nrm__Image___Texture_" type="NODE">
                    <matrix sid="transform">1 0 0 0 0 1 0 0 0 0 1 0 0 0 0 1</matrix>
                </node>
            </node>
            <node id="groupLocator007Node" name="low" type="NODE">
                <matrix sid="transform">1 0 0 0 0 1 0 0 0 0 1 0 0 0 0 1</matrix>
                <node id="Geometry-mesh010Node" name="chassis_pplant_control_room" type="NODE">
                    <matrix sid="transform">1 0 0 0 0 1 0 0 0 0 1 0 0 0 0 1</matrix>
                    <instance_geometry url="#Geometry-mesh010">
                        <bind_material>
                            <technique_common>
                                <instance_material symbol="Material-computer_parts_xx" target="#Material-computer_parts_xx">
                                    <bind_vertex_input semantic="uvSet1" input_semantic="TEXCOORD" input_set="0" />
                                </instance_material>
                            </technique_common>
                        </bind_material>
                    </instance_geometry>
                </node>
            </node>
        </visual_scene>
    </library_visual_scenes>
    <scene>
        <instance_visual_scene url="#DefaultScene" />
    </scene>
</COLLADA>
