<?xml version="1.0" encoding="utf-8" ?>
<COLLADA xmlns="http://www.collada.org/2005/11/COLLADASchema" version="1.4.1">
    <asset>
        <contributor>
            <authoring_tool>modo 601 [Build 48460], Microsoft Windows 7 Service Pack 1 (6.1.7601 Service Pack 1)</authoring_tool>
            <comments>
                Plug-in: [Build 48460];
                Use Absolute Path: No;
                Merge Reference Items: No;
                Save Hidden Items: No;
                Save Cameras: No;
                Save Lights: No;
                Save Locators: Yes;
                Save Triangles as Triangles: No;
                Bake Matrices: Yes;
                Save Vertex Normals: Yes;
                Save UV Texture Coordinates: Yes;
                Save Vertex Colors: Yes;
                Save Vertex Weights: Yes;
                Save Animation: Yes;
                Sample Animation: No;
                Sample Animation Start: 0;
                Sample Animation End: 200;
                Save modo Profile: No;
                Save Maya Profile: Yes;
                Save 3ds Max Profile: No;
                Formatted Arrays: Yes;
            </comments>
            <source_data>file:///D:/Work/My%20Dropbox/Frictional%20Games%20-%20Team/Aaron/models/entities/station/tech/computer_parts_xx/computer_parts2_xx_low.lxo</source_data>
        </contributor>
        <created>2013-01-25T11:28:30Z</created>
        <modified>2013-01-25T11:28:30Z</modified>
        <unit name="game" meter="1" />
        <up_axis>Y_UP</up_axis>
    </asset>
    <library_images>
        <image id="Image0001" name="Image0001">
            <init_from>file:///C:/Users/Aaron/Documents/checker_512.gif</init_from>
        </image>
        <image id="Image0002" name="Image0002">
            <init_from>file:///D:/Work/My%20Dropbox/Frictional%20Games%20-%20Team/Aaron/models/entities/station/tech/computer_parts_xx/computer_parts2_xx.psd</init_from>
        </image>
        <image id="Image0003" name="Image0003">
            <init_from>file:///D:/Work/My%20Dropbox/Frictional%20Games%20-%20Team/Aaron/models/entities/station/tech/computer_parts_xx/computer_parts2_xx_nrm.tga</init_from>
        </image>
        <image id="Image0004" name="Image0004">
            <init_from>file:///D:/Work/My%20Dropbox/Frictional%20Games%20-%20Team/Aaron/textures/fx/misc/white_noise.psd</init_from>
        </image>
    </library_images>
    <library_materials>
        <material id="Material-computer_parts2_xx" name="computer_parts2_xx">
            <instance_effect url="#Effect-computer_parts2_xx" />
        </material>
        <material id="Material-white_noise" name="white_noise">
            <instance_effect url="#Effect-white_noise" />
        </material>
    </library_materials>
    <library_effects>
        <effect id="Effect-computer_parts2_xx" name="computer_parts2_xx">
            <profile_COMMON>
                <newparam sid="Image0002-surface">
                    <surface type="2D">
                        <init_from>Image0002</init_from>
                        <format>A8R8G8B8</format>
                    </surface>
                </newparam>
                <newparam sid="Image0002-sampler">
                    <sampler2D>
                        <source>Image0002-surface</source>
                        <minfilter>LINEAR_MIPMAP_LINEAR</minfilter>
                        <magfilter>LINEAR</magfilter>
                    </sampler2D>
                </newparam>
                <technique sid="common">
                    <phong>
                        <diffuse>
                            <texture texture="Image0002-sampler" texcoord="uvSet1" />
                        </diffuse>
                        <specular>
                            <color sid="specular_effect_rgb">0.29 0.29 0.29 1</color>
                        </specular>
                        <shininess>
                            <float sid="specular_effect_rgb">16</float>
                        </shininess>
                    </phong>
                </technique>
            </profile_COMMON>
        </effect>
        <effect id="Effect-white_noise" name="white_noise">
            <profile_COMMON>
                <newparam sid="Image0004-surface">
                    <surface type="2D">
                        <init_from>Image0004</init_from>
                        <format>A8R8G8B8</format>
                    </surface>
                </newparam>
                <newparam sid="Image0004-sampler">
                    <sampler2D>
                        <source>Image0004-surface</source>
                        <minfilter>LINEAR_MIPMAP_LINEAR</minfilter>
                        <magfilter>LINEAR</magfilter>
                    </sampler2D>
                </newparam>
                <technique sid="common">
                    <phong>
                        <diffuse>
                            <texture texture="Image0004-sampler" texcoord="uvSet1" />
                        </diffuse>
                        <specular>
                            <color sid="specular_effect_rgb">0.2 0.2 0.2 1</color>
                        </specular>
                        <shininess>
                            <float sid="specular_effect_rgb">256</float>
                        </shininess>
                    </phong>
                </technique>
            </profile_COMMON>
        </effect>
    </library_effects>
    <library_geometries>
        <geometry id="Geometry-mesh040" name="speaker__2_">
            <mesh>
                <source id="Geometry-mesh040-positions" name="positions">
                    <float_array id="Geometry-mesh040-positions-array" count="72">
                        -0.15625 0.0888672 -0.0760498
                        0.15625 0.0888672 -0.0760498
                        -0.171326 0.015625 0.0911255
                        0.171326 0.015625 0.0911255
                        -0.171326 0 0.0911255
                        0.171326 0 0.0911255
                        0.171326 0.015625 -0.0911255
                        -0.171326 0.015625 -0.0911255
                        0.171326 -4.76281e-011 -0.0911255
                        -0.171326 5.54066e-009 -0.0911255
                        -0.145 0.0857226 -0.0562648
                        0.145 0.0857226 -0.0562648
                        -0.145 0.0211533 0.0665508
                        0.145 0.0211533 0.0665508
                        -0.14065 0.0787095 -0.0549435
                        0.14065 0.0787095 -0.0549435
                        -0.14065 0.0200963 0.0601687
                        0.14065 0.0200963 0.0601687
                        -0.15625 0.015625 -0.0760498
                        0.15625 0.015625 -0.0760498
                        0.15625 0.015625 0.0765381
                        -0.15625 0.015625 0.0765381
                        -0.15625 0.0888672 -0.0623779
                        0.15625 0.0888672 -0.0623779
                    </float_array>
                    <technique_common>
                        <accessor count="24" source="#Geometry-mesh040-positions-array" stride="3">
                            <param name="X" type="float" />
                            <param name="Y" type="float" />
                            <param name="Z" type="float" />
                        </accessor>
                    </technique_common>
                </source>
                <source id="Geometry-mesh040-normals" name="normals">
                    <float_array id="Geometry-mesh040-normals-array" count="90">
                        2.69067e-008 0.707107 -0.707107
                        2.1141e-008 0.707107 -0.707107
                        2.17439e-008 0 -1
                        0.287284 0.66088 0.693329
                        -0.0044635 0.948819 0.315788
                        0.138867 0.927953 0.345861
                        -0.00425598 0.955249 0.295771
                        0 0.89113 0.453748
                        0 0.707107 0.707107
                        0.0070745 0.945444 0.325707
                        -0.0991318 0.949889 0.296451
                        0.416335 0.905279 0.0844724
                        -0.546716 0.819442 0.172098
                        0.478198 0.439858 0.760165
                        -0.707107 0.707107 7.94946e-008
                        -0.707107 0.707107 6.86545e-008
                        -0.707107 0.707107 1.08402e-008
                        -0.707107 0.707107 0
                        0 0.707107 -0.707107
                        0.00666879 0.93487 0.354927
                        -0.277724 0.773292 0.56999
                        -0.311001 0.358738 0.880105
                        0.707107 0.707107 0
                        0.447214 0.894427 0
                        0.894427 0.447214 0
                        5.76572e-009 0.707107 -0.707107
                        1 0 0
                        -1 0 8.17618e-008
                        0 0 1
                        -1 0 0
                    </float_array>
                    <technique_common>
                        <accessor count="30" source="#Geometry-mesh040-normals-array" stride="3">
                            <param name="X" type="float" />
                            <param name="Y" type="float" />
                            <param name="Z" type="float" />
                        </accessor>
                    </technique_common>
                </source>
                <source id="Geometry-mesh040-uvSet1" name="uvSet1">
                    <float_array id="Geometry-mesh040-uvSet1-array" count="88">
                        0.159393 0.785067
                        0.253297 0.785083
                        0.159382 0.793319
                        0.253297 0.793319
                        0.166718 0.727625
                        0.163624 0.731252
                        0.166733 0.653735
                        0.163639 0.647701
                        0.243308 0.723058
                        0.169491 0.72299
                        0.243501 0.658271
                        0.16941 0.658254
                        0.159506 0.640011
                        0.253431 0.640006
                        0.249288 0.647712
                        0.246184 0.65375
                        0.168066 0.656904
                        0.244845 0.656921
                        0.168151 0.724338
                        0.259423 0.726753
                        0.259423 0.631141
                        0.263536 0.718845
                        0.263536 0.638794
                        0.163608 0.738459
                        0.249162 0.738539
                        0.24916 0.731336
                        0.246072 0.7277
                        0.244645 0.724408
                        0.156048 0.743253
                        0.156048 0.647581
                        0.151933 0.735596
                        0.151933 0.655495
                        0.163536 0.777107
                        0.249165 0.777137
                        0.13194 0.662672
                        0.13194 0.655495
                        0.255161 0.631141
                        0.255161 0.726753
                        0.159506 0.631775
                        0.253431 0.63177
                        0.160314 0.743253
                        0.160314 0.647581
                        0.283516 0.711672
                        0.283516 0.718845
                    </float_array>
                    <technique_common>
                        <accessor count="44" source="#Geometry-mesh040-uvSet1-array" stride="2">
                            <param name="S" type="float" />
                            <param name="T" type="float" />
                        </accessor>
                    </technique_common>
                </source>
                <vertices id="Geometry-mesh040-vertices">
                    <input semantic="POSITION" source="#Geometry-mesh040-positions" />
                </vertices>
                <polylist count="42" material="Material-computer_parts2_xx">
                    <input semantic="VERTEX" source="#Geometry-mesh040-vertices" offset="0" />
                    <input semantic="NORMAL" source="#Geometry-mesh040-normals" offset="1" />
                    <input semantic="TEXCOORD" source="#Geometry-mesh040-uvSet1" offset="2" set="0" />
                    <vcount>3 3 3 3 3 3 3 3 3 3 3 3 3 3 3 3 3 3 3 3 3 3 3 3 3 3 3 3 3 3 3 3 3 3 3 3 3 3 3 3 3 3</vcount>
                    <p>7 0 0 6 1 1 9 2 2 8 2 3 9 2 2 6 1 1 10 3 4 22 4 5 12 5 6 21 6 7 12 5 6 22 4 5 15 7 8 14 7 9 17 7 10 16 7 11 17 7 10 14 7 9 2 8 12 3 8 13 21 6 7 20 9 14 21 6 7 3 8 13 12 5 6 13 10 15 16 11 16 17 12 17 16 11 16 13 10 15 20 9 14 13 10 15 21 6 7 12 5 6 21 6 7 13 10 15 14 13 18 10 3 4 16 11 16 12 5 6 16 11 16 10 3 4 7 14 19 2 15 20 18 16 21 21 17 22 18 16 21 2 15 20 0 18 23 22 4 5 1 18 24 23 19 25 1 18 24 22 4 5 11 20 26 10 3 4 15 21 27 14 13 18 15 21 27 10 3 4 3 22 28 6 22 29 20 23 30 19 24 31 20 23 30 6 22 29 23 19 25 22 4 5 11 20 26 10 3 4 11 20 26 22 4 5 15 21 27 17 12 17 11 20 26 13 10 15 11 20 26 17 12 17 0 18 23 1 18 24 18 25 32 19 18 33 18 25 32 1 18 24 20 23 30 19 24 31 23 26 34 1 26 35 23 26 34 19 24 31 4 27 36 2 15 20 9 27 37 7 14 19 9 27 37 2 15 20 2 8 12 4 28 38 3 8 13 5 28 39 3 8 13 4 28 38 11 20 26 13 10 15 23 19 25 20 9 14 23 19 25 13 10 15 3 22 28 5 26 40 6 22 29 8 26 41 6 22 29 5 26 40 7 0 0 18 25 32 6 1 1 19 18 33 6 1 1 18 25 32 21 17 22 22 29 42 18 16 21 0 29 43 18 16 21 22 29 42</p>
                </polylist>
            </mesh>
        </geometry>
    </library_geometries>
    <library_visual_scenes>
        <visual_scene id="DefaultScene">
            <node id="groupLocator023Node" name="Texture_Group" type="NODE">
                <matrix sid="transform">
        1 0 0 0
        0 1 0 0
        0 0 1 0
        0 0 0 1
    </matrix>
                <node id="txtrLocator020Node" name="white_noise__Image___Texture_" type="NODE">
                    <matrix sid="transform">
        1 0 0 0
        0 1 0 0
        0 0 1 0
        0 0 0 1
    </matrix>
                </node>
                <node id="txtrLocator008Node" name="computer_parts2_xx_nrm__Image___Texture_" type="NODE">
                    <matrix sid="transform">
        1 0 0 0
        0 1 0 0
        0 0 1 0
        0 0 0 1
    </matrix>
                </node>
                <node id="txtrLocator002Node" name="computer_parts2_xx__Image___Texture_" type="NODE">
                    <matrix sid="transform">
        1 0 0 0
        0 1 0 0
        0 0 1 0
        0 0 0 1
    </matrix>
                </node>
                <node id="txtrLocator027Node" name="checker_512__Image___Texture_" type="NODE">
                    <matrix sid="transform">
        1 0 0 0
        0 1 0 0
        0 0 1 0
        0 0 0 1
    </matrix>
                </node>
            </node>
            <node id="groupLocator009Node" name="lp" type="NODE">
                <matrix sid="transform">
        1 0 0 0
        0 1 0 0
        0 0 1 0
        0 0 0 1
    </matrix>
                <node id="Geometry-mesh040Node" name="speaker__2_" type="NODE">
                    <matrix sid="transform">
        1 0 0 0
        0 1 0 0
        0 0 1 0
        0 0 0 1
    </matrix>
                    <instance_geometry url="#Geometry-mesh040">
                        <bind_material>
                            <technique_common>
                                <instance_material symbol="Material-computer_parts2_xx" target="#Material-computer_parts2_xx">
                                    <bind_vertex_input semantic="uvSet1" input_semantic="TEXCOORD" input_set="0" />
                                </instance_material>
                            </technique_common>
                        </bind_material>
                    </instance_geometry>
                </node>
            </node>
            <extra>
                <technique profile="MAYA">
                    <start_time>0</start_time>
                    <end_time>5</end_time>
                </technique>
            </extra>
        </visual_scene>
    </library_visual_scenes>
    <scene>
        <instance_visual_scene url="#DefaultScene" />
    </scene>
</COLLADA>
