<?xml version="1.0" encoding="utf-8" ?>
<COLLADA xmlns="http://www.collada.org/2005/11/COLLADASchema" version="1.4.1">
    <asset>
        <contributor>
            <authoring_tool>modo 601 [Build 48460], Microsoft Windows 7 Service Pack 1 (6.1.7601 Service Pack 1)</authoring_tool>
            <comments>
                Plug-in: [Build 48460];
                Use Absolute Path: No;
                Merge Reference Items: No;
                Save Hidden Items: No;
                Save Cameras: No;
                Save Lights: No;
                Save Locators: Yes;
                Save Triangles as Triangles: No;
                Bake Matrices: No;
                Save Vertex Normals: Yes;
                Save UV Texture Coordinates: Yes;
                Save Vertex Colors: Yes;
                Save Vertex Weights: Yes;
                Save Animation: Yes;
                Sample Animation: Yes;
                Sample Animation Start: 0;
                Sample Animation End: 104;
                Save modo Profile: No;
                Save Maya Profile: Yes;
                Save 3ds Max Profile: No;
                Formatted Arrays: Yes;
            </comments>
            <source_data>file:///D:/Work/My%20Dropbox/Frictional%20Games%20-%20Team/Aaron/models/entities/station/tech/computer_parts_xx/computer_parts_xx_low.lxo</source_data>
        </contributor>
        <created>2013-01-10T16:30:13Z</created>
        <modified>2013-01-10T16:30:13Z</modified>
        <unit name="game" meter="1" />
        <up_axis>Y_UP</up_axis>
    </asset>
    <library_images>
        <image id="Image0001" name="Image0001">
            <init_from>file:///C:/Users/Aaron/Documents/checker_512.gif</init_from>
        </image>
        <image id="Image0002" name="Image0002">
            <init_from>file:///D:/Work/My%20Dropbox/Frictional%20Games%20-%20Team/Aaron/models/entities/station/tech/computer_parts_xx/computer_parts_xx.psd</init_from>
        </image>
        <image id="Image0003" name="Image0003">
            <init_from>file:///D:/Work/My%20Dropbox/Frictional%20Games%20-%20Team/Aaron/models/entities/station/tech/computer_parts_xx/computer_parts_xx_nrm.tga</init_from>
        </image>
    </library_images>
    <library_materials>
        <material id="Material-computer_parts_xx" name="computer_parts_xx">
            <instance_effect url="#Effect-computer_parts_xx" />
        </material>
    </library_materials>
    <library_effects>
        <effect id="Effect-computer_parts_xx" name="computer_parts_xx">
            <profile_COMMON>
                <newparam sid="Image0002-surface">
                    <surface type="2D">
                        <init_from>Image0002</init_from>
                        <format>A8R8G8B8</format>
                    </surface>
                </newparam>
                <newparam sid="Image0002-sampler">
                    <sampler2D>
                        <source>Image0002-surface</source>
                        <minfilter>LINEAR_MIPMAP_LINEAR</minfilter>
                        <magfilter>LINEAR</magfilter>
                    </sampler2D>
                </newparam>
                <technique sid="common">
                    <phong>
                        <diffuse>
                            <texture texture="Image0002-sampler" texcoord="uvSet1" />
                        </diffuse>
                        <specular>
                            <color sid="specular_effect_rgb">0.3 0.3 0.3 1</color>
                        </specular>
                        <shininess>
                            <float sid="specular_effect_rgb">25.9921</float>
                        </shininess>
                    </phong>
                </technique>
            </profile_COMMON>
        </effect>
    </library_effects>
    <library_geometries>
        <geometry id="Geometry-mesh008" name="computer_parts_keyboard">
            <mesh>
                <source id="Geometry-mesh008-positions" name="positions">
                    <float_array id="Geometry-mesh008-positions-array" count="120">
                        -0.429844 0.0280943 0.0197301
                        -0.311932 0.0370934 -0.0942216
                        -0.425693 0.0396383 0.0224032
                        -0.31025 0.048449 -0.0891623
                        0.431797 0.0370934 -0.0942216
                        0.431797 0.0283818 0.0160868
                        0.427647 0.048449 -0.0891623
                        0.427647 0.0400643 0.0170083
                        0.427647 0.0293951 0.151495
                        -0.425693 0.0293951 0.151495
                        0.431553 0.017508 0.155891
                        -0.430088 0.017508 0.155891
                        0.450195 -1.45435e-005 0.175293
                        -0.450195 -1.45435e-005 0.175293
                        0.450195 0.0169561 0.174913
                        -0.450195 0.0169561 0.174913
                        -0.412109 -1.45435e-005 -0.13916
                        0.412109 -1.45435e-005 -0.13916
                        -0.412109 0.0408039 -0.138633
                        0.412109 0.0408039 -0.138633
                        0.450195 0.0379155 -0.100657
                        0.450195 -1.45435e-005 -0.101074
                        -0.450195 -1.45435e-005 -0.101074
                        -0.450195 0.0379155 -0.100657
                        -0.3125 0.0408039 -0.138633
                        0.3125 0.0408039 -0.138633
                        0.3125 -1.45435e-005 -0.13916
                        -0.3125 -1.45435e-005 -0.13916
                        -0.26875 0.0435362 -0.174558
                        0.26875 0.0435362 -0.174558
                        0.26875 -1.45435e-005 -0.175293
                        -0.26875 -1.45435e-005 -0.175293
                        -0.235352 0.0380211 -0.103168
                        -0.235352 0.0425749 -0.16373
                        0.142354 0.0425749 -0.16373
                        0.142354 0.0380211 -0.103168
                        -0.231682 0.0482571 -0.106079
                        -0.231682 0.0522606 -0.159322
                        0.138684 0.0522606 -0.159322
                        0.138684 0.0482571 -0.106079
                    </float_array>
                    <technique_common>
                        <accessor count="40" source="#Geometry-mesh008-positions-array" stride="3">
                            <param name="X" type="float" />
                            <param name="Y" type="float" />
                            <param name="Z" type="float" />
                        </accessor>
                    </technique_common>
                </source>
                <source id="Geometry-mesh008-normals" name="normals">
                    <float_array id="Geometry-mesh008-normals-array" count="180">
                        0 0.99712 0.0758405
                        0 0.99712 0.0758384
                        0 0.99712 0.07584
                        0 0.99712 0.0758395
                        0 0.99712 0.0758401
                        0 -1 0
                        0 0.0223883 0.999749
                        0.223269 0.0164388 -0.974618
                        0.337808 0.0129563 -0.941126
                        0.447222 0.0140095 -0.894313
                        0.338333 0.0121407 -0.940948
                        -0.447222 0.012616 -0.894334
                        -0.223953 0.0125739 -0.974519
                        0 0.0129016 -0.999917
                        0.942628 0.332805 0.0263426
                        0.944694 0.326881 0.0265096
                        0.943665 0.329848 0.0263967
                        0.946723 0.320949 0.0266162
                        -0.337808 0.0150615 -0.941094
                        -0.337283 0.0158763 -0.94127
                        -0.706402 0.00913188 -0.707752
                        -0.706744 0.00845049 -0.707419
                        -0.862677 0.00604109 -0.505719
                        -0.967536 0.00277674 -0.252718
                        0 0.997185 0.0749815
                        -0.859537 0.386468 -0.334423
                        -0.856922 0.392265 -0.334383
                        -0.938624 0.343947 0.0261696
                        -0.934484 0.355058 0.0259295
                        0.938668 0.343853 0.0258553
                        0.938667 0.343853 0.0258554
                        0.938667 0.343853 0.0258554
                        0 0.406964 -0.913444
                        -1 0 0
                        -0.938675 0.343833 0.0258538
                        -0.938675 0.343833 0.0258539
                        -0.938675 0.343833 0.0258539
                        -0.656118 0.386066 -0.64843
                        -0.65612 0.386057 -0.648434
                        0 0.99712 0.0758362
                        0 0.99712 0.0758362
                        0 0.414213 -0.91018
                        0 0.346852 0.93792
                        0.862677 0.00604109 -0.505719
                        1 0 0
                        0.967536 0.00277674 -0.252718
                        0 0.273487 0.961876
                        0 0.273487 0.961876
                        0 0.273487 0.961876
                        0.942627 0.332811 0.0262835
                        0.942627 0.332812 0.0262837
                        0.706402 0.00913188 -0.707752
                        0.706744 0.00845049 -0.707419
                        0 0.996896 0.0787287
                        2.68415e-009 0.996896 0.0787287
                        7.5758e-007 0.996887 0.0788472
                        7.5758e-007 0.996877 0.0789707
                        0 0.99712 0.0758391
                        1.13369e-006 0.996867 0.0790917
                        0 0.996867 0.0790991
                    </float_array>
                    <technique_common>
                        <accessor count="60" source="#Geometry-mesh008-normals-array" stride="3">
                            <param name="X" type="float" />
                            <param name="Y" type="float" />
                            <param name="Z" type="float" />
                        </accessor>
                    </technique_common>
                </source>
                <source id="Geometry-mesh008-uvSet1" name="uvSet1">
                    <float_array id="Geometry-mesh008-uvSet1-array" count="188">
                        0.125527 0.0350379
                        0.125508 0.0694346
                        0.118964 0.0218652
                        0.125393 0.285397
                        0.125375 0.319805
                        0.118798 0.332956
                        0.00911736 0.054611
                        0.00911736 0.0200557
                        0.0157236 0.00684351
                        0.00911748 0.305984
                        0.00911748 0.271428
                        0.0157236 0.319196
                        0.0659698 0.0216784
                        0.0689002 0.0216791
                        0.0659628 0.333121
                        0.0688931 0.333122
                        0.13306 0.0850803
                        0.133427 0.0656014
                        0.140557 0.0850996
                        0.140452 0.0655586
                        0.133257 0.289494
                        0.140282 0.289577
                        0.133146 0.323779
                        0.140172 0.323869
                        0.74543 0.127041
                        0.745449 0.0740885
                        0.747869 0.127043
                        0.747833 0.0720028
                        0.140416 0.270035
                        0.132919 0.270008
                        0.128164 0.336885
                        0.127703 0.35092
                        0.118886 0.336494
                        0.11845 0.349535
                        0.145365 0.131621
                        0.145261 0.0107104
                        0.154062 0.131589
                        0.153958 0.010682
                        0.575283 0.124549
                        0.572883 0.125876
                        0.575222 0.0737491
                        0.572802 0.0716653
                        0.154553 0.00464368
                        0.153958 0.00811243
                        0.14466 0.00467587
                        0.145261 0.00814068
                        0.599167 0.171854
                        0.744156 0.17217
                        0.598833 0.176731
                        0.744969 0.17705
                        0.0712793 0.336312
                        0.0709866 0.342131
                        0.140388 0.0312679
                        0.133362 0.0313206
                        0.154663 0.137276
                        0.144771 0.137313
                        0.154062 0.133811
                        0.145365 0.133844
                        0.588942 0.182645
                        0.590893 0.179676
                        0.131615 0.270293
                        0.131714 0.0845664
                        0.0636605 0.319196
                        0.0636605 0.00684339
                        0.157117 0.00947642
                        0.157223 0.132782
                        0.155384 0.010682
                        0.155488 0.131589
                        0.744197 0.0711664
                        0.576474 0.0708271
                        0.744967 0.066195
                        0.575611 0.0658522
                        0.118907 0.0189742
                        0.0712819 0.0191244
                        0.118473 0.00593048
                        0.0709903 0.0133037
                        0.1421 0.00951779
                        0.143835 0.0107104
                        0.142207 0.132826
                        0.143939 0.131621
                        0.745409 0.168831
                        0.747847 0.170464
                        0.128186 0.0185917
                        0.127728 0.00455312
                        0.00285006 0.0697883
                        0.00285012 0.256251
                        0.744156 0.168831
                        0.599167 0.168514
                        0.744178 0.127041
                        0.576536 0.124549
                        0.0712914 0.0218363
                        0.0711357 0.332787
                        0.744197 0.0740885
                        0.576474 0.0737491
                    </float_array>
                    <technique_common>
                        <accessor count="94" source="#Geometry-mesh008-uvSet1-array" stride="2">
                            <param name="S" type="float" />
                            <param name="T" type="float" />
                        </accessor>
                    </technique_common>
                </source>
                <vertices id="Geometry-mesh008-vertices">
                    <input semantic="POSITION" source="#Geometry-mesh008-positions" />
                </vertices>
                <polylist count="62" material="Material-computer_parts_xx">
                    <input semantic="VERTEX" source="#Geometry-mesh008-vertices" offset="0" />
                    <input semantic="NORMAL" source="#Geometry-mesh008-normals" offset="1" />
                    <input semantic="TEXCOORD" source="#Geometry-mesh008-uvSet1" offset="2" set="0" />
                    <vcount>3 3 3 3 3 3 3 3 3 3 3 3 3 3 3 3 3 3 3 3 3 3 3 3 3 3 3 3 3 3 3 3 3 3 3 3 3 3 3 3 3 3 3 3 3 3 3 3 3 3 3 3 3 3 3 3 3 3 3 3 3 3</vcount>
                    <p>19 0 0 25 1 1 20 2 2 24 3 3 18 0 4 23 4 5 26 5 6 17 5 7 21 5 8 16 5 9 27 5 10 22 5 11 12 6 12 14 6 13 13 6 14 15 6 15 13 6 14 14 6 13 29 7 16 25 8 17 30 9 18 26 10 19 30 9 18 25 8 17 24 11 20 27 12 21 18 13 22 16 13 23 18 13 22 27 12 21 7 14 24 8 15 25 5 16 26 10 17 27 5 16 26 8 15 25 30 9 18 31 18 28 29 7 16 28 19 29 29 7 16 31 18 28 23 4 5 20 2 2 24 3 3 25 1 1 24 3 3 20 2 2 18 20 30 16 21 31 23 22 32 22 23 33 23 22 32 16 21 31 36 24 34 39 24 35 37 24 36 38 24 37 37 24 36 39 24 35 2 25 38 0 26 39 9 27 40 11 28 41 9 27 40 0 26 39 34 29 42 38 30 43 35 30 44 39 31 45 35 30 44 38 30 43 3 32 46 6 32 47 1 32 48 4 32 49 1 32 48 6 32 47 23 22 32 22 23 33 15 33 50 13 33 51 15 33 50 22 23 33 26 10 19 25 8 17 17 13 52 19 13 53 17 13 52 25 8 17 33 34 54 32 35 55 37 35 56 36 36 57 37 35 56 32 35 55 1 37 58 0 26 39 3 38 59 2 25 38 3 38 59 0 26 39 24 3 3 25 1 1 28 39 60 29 40 61 28 39 60 25 1 1 13 5 62 22 5 11 12 5 63 21 5 8 12 5 63 22 5 11 34 41 64 33 41 65 38 41 66 37 41 67 38 41 66 33 41 65 8 42 68 9 42 69 10 42 70 11 42 71 10 42 70 9 42 69 20 43 72 14 44 73 21 45 74 12 44 75 21 45 74 14 44 73 35 46 76 39 47 77 32 47 78 36 48 79 32 47 78 39 47 77 7 14 24 5 16 26 6 49 80 4 50 81 6 49 80 5 16 26 19 51 82 20 43 72 17 52 83 21 45 74 17 52 83 20 43 72 26 5 6 27 5 10 30 5 84 31 5 85 30 5 84 27 5 10 6 53 86 3 54 87 7 55 88 2 56 89 7 55 88 3 54 87 14 57 90 20 2 2 15 57 91 23 4 5 15 57 91 20 2 2 28 19 29 31 18 28 24 11 20 27 12 21 24 11 20 31 18 28 21 5 8 22 5 11 26 5 6 27 5 10 26 5 6 22 5 11 7 55 88 2 56 89 8 58 92 9 59 93 8 58 92 2 56 89</p>
                </polylist>
            </mesh>
        </geometry>
    </library_geometries>
    <library_visual_scenes>
        <visual_scene id="DefaultScene">
            <node id="groupLocator002Node" name="Texture_Group" type="NODE">
                <node id="txtrLocator083Node" name="computer_parts_xx__Image___Texture_" type="NODE">
                    <translate sid="translation086">0 0 0</translate>
                    <rotate sid="rotation085Y">0 1 0 0</rotate>
                    <rotate sid="rotation085X">1 0 0 0</rotate>
                    <rotate sid="rotation085Z">0 0 1 0</rotate>
                    <scale sid="scale084">1 1 1</scale>
                </node>
                <node id="txtrLocator078Node" name="computer_parts_xx_nrm__Image___Texture_" type="NODE">
                    <translate sid="translation081">0 0 0</translate>
                    <rotate sid="rotation080Y">0 1 0 0</rotate>
                    <rotate sid="rotation080X">1 0 0 0</rotate>
                    <rotate sid="rotation080Z">0 0 1 0</rotate>
                    <scale sid="scale079">1 1 1</scale>
                </node>
                <node id="txtrLocator029Node" name="checker_512__Image___Texture_" type="NODE">
                    <translate sid="translation032">0 0 0</translate>
                    <rotate sid="rotation031Y">0 1 0 0</rotate>
                    <rotate sid="rotation031X">1 0 0 0</rotate>
                    <rotate sid="rotation031Z">0 0 1 0</rotate>
                    <scale sid="scale030">1 1 1</scale>
                </node>
            </node>
            <node id="groupLocator007Node" name="low" type="NODE">
                <node id="Geometry-mesh008Node" name="computer_parts_keyboard" type="NODE">
                    <translate sid="translation010">0 0 0</translate>
                    <rotate sid="rotation009Y">0 1 0 0</rotate>
                    <rotate sid="rotation009X">1 0 0 0</rotate>
                    <rotate sid="rotation009Z">0 0 1 0</rotate>
                    <scale sid="scale011">1 1 1</scale>
                    <instance_geometry url="#Geometry-mesh008">
                        <bind_material>
                            <technique_common>
                                <instance_material symbol="Material-computer_parts_xx" target="#Material-computer_parts_xx">
                                    <bind_vertex_input semantic="uvSet1" input_semantic="TEXCOORD" input_set="0" />
                                </instance_material>
                            </technique_common>
                        </bind_material>
                    </instance_geometry>
                </node>
            </node>
            <extra>
                <technique profile="MAYA">
                    <start_time>0</start_time>
                    <end_time>5</end_time>
                </technique>
            </extra>
        </visual_scene>
    </library_visual_scenes>
    <scene>
        <instance_visual_scene url="#DefaultScene" />
    </scene>
</COLLADA>
