<?xml version="1.0" encoding="utf-8"?>
<COLLADA xmlns="http://www.collada.org/2005/11/COLLADASchema" version="1.4.1">
  <asset>
    <contributor>
      <author>Marc</author>
      <authoring_tool>OpenCOLLADA2008</authoring_tool>
      <comments>
			ColladaMaya export options: 
			bakeTransforms=0;relativePaths=0;copyTextures=0;exportTriangles=1;exportCgfxFileReferences=1;
			isSampling=0;curveConstrainSampling=1;removeStaticCurves=0;exportPolygonMeshes=1;exportLights=1;
			exportCameras=1;exportJointsAndSkin=1;exportAnimations=1;exportInvisibleNodes=0;exportDefaultCameras=0;
			exportTexCoords=1;exportNormals=1;exportNormalsPerVertex=1;exportVertexColors=1;exportVertexColorsPerVertex=1;
			exportTexTangents=0;exportTangents=0;exportReferencedMaterials=0;exportMaterialsOnly=0;
			exportXRefs=1;dereferenceXRefs=1;exportCameraAsLookat=0;cameraXFov=0;cameraYFov=1;doublePrecision=0
		</comments>
      <source_data>file:///D:/depth/redist/static_objects/station/tunnel/tunnel_theta_3way.dae</source_data>
    </contributor>
    <created>2014-01-10T13:22:15</created>
    <modified>2014-01-10T13:22:15</modified>
    <unit name="meter" meter="1"/>
    <up_axis>Y_UP</up_axis>
  </asset>
  <library_materials>
    <material id="tunnel_MAT" name="tunnel_MAT">
      <instance_effect url="#tunnel_MAT-fx"/>
    </material>
  </library_materials>
  <library_effects>
    <effect id="tunnel_MAT-fx">
      <profile_COMMON>
        <newparam sid="file1-surface">
          <surface type="2D">
            <init_from>file1</init_from>
          </surface>
        </newparam>
        <newparam sid="file1-sampler">
          <sampler2D>
            <source>file1-surface</source>
          </sampler2D>
        </newparam>
        <technique sid="common">
          <blinn>
            <emission>
              <color>0 0 0 1</color>
            </emission>
            <ambient>
              <color>0 0 0 1</color>
            </ambient>
            <diffuse>
              <texture texture="file1-sampler" texcoord="TEX0">
                <extra>
                  <technique profile="OpenCOLLADAMaya">
                    <blend_mode>NONE</blend_mode>
                    <coverageU>1</coverageU>
                    <coverageV>1</coverageV>
                    <fast>0</fast>
                    <mirrorU>0</mirrorU>
                    <mirrorV>0</mirrorV>
                    <noiseU>0</noiseU>
                    <noiseV>0</noiseV>
                    <offsetU>0</offsetU>
                    <offsetV>0</offsetV>
                    <repeatU>1</repeatU>
                    <repeatV>1</repeatV>
                    <rotateFrame>0</rotateFrame>
                    <rotateUV>0</rotateUV>
                    <stagger>0</stagger>
                    <translateFrameU>0</translateFrameU>
                    <translateFrameV>0</translateFrameV>
                    <wrapU>1</wrapU>
                    <wrapV>1</wrapV>
                  </technique>
                </extra>
              </texture>
            </diffuse>
            <specular>
              <color>0.5 0.5 0.5 1</color>
            </specular>
            <shininess>
              <float>0.3</float>
            </shininess>
            <reflective>
              <color>0 0 0 1</color>
            </reflective>
            <reflectivity>
              <float>0.5</float>
            </reflectivity>
            <transparent opaque="RGB_ZERO">
              <color>0 0 0 1</color>
            </transparent>
            <transparency>
              <float>1</float>
            </transparency>
          </blinn>
        </technique>
      </profile_COMMON>
    </effect>
  </library_effects>
  <library_images>
    <image id="file1" name="file1">
      <init_from>file:///D:/depth/redist/static_objects/station/tunnel/tunnel_theta_rock.dds</init_from>
      <extra>
        <technique profile="OpenCOLLADAMaya">
          <dgnode_type>kFile</dgnode_type>
          <image_sequence>0</image_sequence>
          <originalMayaNodeId>file1</originalMayaNodeId>
        </technique>
      </extra>
    </image>
  </library_images>
  <library_geometries>
    <geometry id="polySurfaceShape1" name="polySurfaceShape1">
      <mesh>
        <source id="polySurfaceShape1-positions" name="polySurfaceShape1-positions">
          <float_array id="polySurfaceShape1-positions-array" count="1500">-1 -0.752308 -2 -1 -1.75 -2 -0.400669 -1.75 -2 0.418639 -1.75 -2 1 -1.75 -2 1 -0.746124 -2 1 0.260992 -2 1 1.25 -2 0.415282 1.25 -2 -0.427681 1.25 -2 -1 1.25 -2 -1 0.245817 -2 -2.101625 -0.515414 0 -1.76212 -1.431487 0 -1.178177 -2.140376 0 -0.411799 -2.550661 0 0.411799 -2.550661 0 1.178177 -2.201065 0 1.811806 -1.706872 0 2.600466 -0.5339702 0 2.871032 1.275993 0 1.930368 2.29702 0 1.179994 2.843283 0 0.411799 3.113246 0 -0.411799 2.730886 0 -1.178177 2.140376 0 -1.762119 1.431487 0 -2.101625 0.515414 0 -1.73457 1.39774 -0.6402901 -1.11012 2.12063 -0.6435001 -0.37815 2.573355 -0.6373599 0.437105 2.780163 -0.63741 1.18113 2.629544 -0.6373399 1.947489 2.116886 -0.66645 2.828191 1.173535 -0.6380499 2.567172 -0.4875946 -0.6371001 1.851171 -1.670824 -0.62302 1.19394 -2.084308 -0.63744 0.443377 -2.36796 -0.6375101 -0.353408 -2.3559 -0.63746 -1.11633 -2.04221 -0.6372701 -1.82543 -1.45396 -0.63481 -2.12678 -0.49653 -0.6377699 -2.15325 0.491053 -0.63728 -1.70691 1.17456 -1.514692 -1.22586 1.85202 -1.514834 -0.495912 2.2219 -1.515674 0.304184 2.285006 -1.515032 1.00003 1.906899 -1.513593 1.667902 1.386961 -1.512941 1.918047 0.4540027 -1.514272 1.944741 -0.6434674 -1.515098 1.587957 -1.534356 -1.515426 1.00332 -2.036209 -1.557517 0.295967 -2.05288 -1.557233 -0.460708 -2.05098 -1.55693 -1.18412 -1.90407 -1.557066 -1.70882 -1.51208 -1.514292 -1.90636 -0.628305 -1.512619 -1.89251 0.299772 -1.513552 -1.39575 0.932174 -1.805902 -0.948356 1.59771 -1.810839 -0.342967 1.809177 -1.810793 0.313963 1.816907 -1.811115 0.9188065 1.614976 -1.810715 1.429334 1.01836 -1.806143 1.543256 0.1872473 -1.805879 1.51074 -0.722643 -1.806357 1.317287 -1.516579 -1.805776 0.91824 -1.97306 -1.822589 0.31475 -1.97036 -1.822556 -0.317137 -1.97036 -1.822317 -0.937246 -1.97036 -1.822642 -1.39206 -1.57144 -1.806731 -1.58349 -0.732555 -1.806741 -1.56997 0.148292 -1.807105 -1.84634 1.25742 -1.097305 -1.22178 1.92471 -1.098093 -0.517621 2.358576 -1.090662 0.326976 2.496481 -1.088522 1.04599 2.118982 -1.091065 1.808689 1.72138 -1.089507 2.336283 0.7550223 -1.091211 2.213305 -0.5244315 -1.090926 1.755836 -1.566758 -1.091892 1.03907 -2.02258 -1.091134 0.318517 -2.14773 -1.091072 -0.478989 -2.13723 -1.091124 -1.22694 -1.89034 -1.091067 -1.85998 -1.41614 -1.090159 -2.09997 -0.530823 -1.091037 -2.13104 0.392609 -1.091258 -1.75101 1.39311 -0.30905 -1.20564 2.09594 -0.3077901 -0.431816 2.617092 -0.31034 0.398612 3.035616 -0.3111099 1.17005 2.817665 -0.3084399 1.976973 2.316634 -0.3317 2.947584 1.306116 -0.30882 2.71924 -0.4885228 -0.30925 1.865212 -1.759648 -0.3059399 1.14785 -2.126168 -0.31088 0.408224 -2.43175 -0.3108701 -0.388391 -2.4266 -0.31086 -1.13082 -2.07087 -0.3108299 -1.82655 -1.46154 -0.30737 -2.11562 -0.511371 -0.31007 -2.09281 0.487585 -0.3088901 1.547926 -0.2652676 -1.805847 1.952433 -0.08392917 -1.514023 2.330075 0.1136888 -1.091143 2.688423 0.3249894 -0.63735 2.894462 0.4054189 -0.31037 2.848277 0.3816993 0 1.527991 0.6229144 -1.805937 1.853142 0.9685927 -1.51418 2.188192 1.333913 -1.090224 2.406915 1.739092 -0.65524 2.508425 1.901644 -0.31459 2.478961 1.887796 0 -1.50719 0.557513 -1.806148 -1.82143 0.751239 -1.514143 -2.03843 0.848031 -1.091058 -1.99972 0.965569 -0.63642 -1.95382 0.96249 -0.30924 -1.980402 0.9862 0 -1.58403 -0.295911 -1.80685 -1.95194 -0.166011 -1.512425 -2.15509 -0.071567 -1.091075 -2.13276 -0.011337 -0.63767 -2.12415 -0.010587 -0.30939 -2.173561 0 0 -1.5009 -1.20753 -1.807759 -1.88022 -1.10813 -1.513296 -2.02185 -0.986635 -1.090594 -2.00998 -0.992483 -0.63772 -1.95122 -0.984143 -0.31006 -1.980402 -0.9862 0 -1.29452 -1.84023 -1.761861 -1.51767 -1.71626 -1.515134 -1.64094 -1.74661 -1.09092 -1.60936 -1.81742 -0.63476 -1.55452 -1.86431 -0.3086301 -1.516596 -1.830852 0 1.19316 -1.923055 -1.822632 1.37088 -1.910098 -1.514522 1.46232 -1.860447 -1.091242 1.53097 -1.958907 -0.6238901 1.55178 -2.028122 -0.31599 1.516596 -2.011701 0 1.428715 -1.152172 -1.805332 1.772994 -1.130159 -1.516657 2.040729 -1.082769 -1.09097 2.218471 -1.140141 -0.63632 2.29531 -1.169591 -0.30758 2.231626 -1.168014 0 1.277588 1.424722 -1.806359 1.326826 1.67801 -1.513304 1.417386 1.975228 -1.090276 1.51797 2.419199 -0.6364101 1.52145 2.58247 -0.3093201 1.516596 2.609347 0 -1.25911 1.34377 -1.806055 -1.53238 1.54619 -1.514151 -1.59354 1.65303 -1.096423 -1.47718 1.81458 -0.64061 -1.56858 1.79467 -0.30565 -1.516596 1.830852 0 4 -0.515414 6.101625 4 -1.431487 5.76212 4 -2.140376 5.178177 4 -2.550661 4.411799 4 -2.550661 3.588201 4 -2.140376 2.821823 4 -1.431487 2.23788 4 -0.515414 1.898375 4 0.515414 1.898375 4 1.431487 2.237881 4 2.140376 2.821823 4 2.550661 3.588201 4 2.550661 4.411799 4 2.136603 5.179994 4 1.431487 5.762119 4 0.515414 6.101625 4 0 1.826439 4 0.9862 2.019598 4 0.9862 5.980402 4 0 6.173561 4 -0.9862 5.980402 4 -1.830852 5.516596 4 -1.830852 2.483404 4 -0.9862 2.019598 4 1.830852 2.483404 4 1.830852 5.516596 -0.08644 -2.574633 3.554436 0.262815 -2.607634 4.319842 0.018319 -2.208158 5.106894 0.018319 -1.438816 5.681872 0.018319 -0.462945 6.078762 0.018319 0.619213 5.972522 0.018319 1.618123 5.691227 0.018319 2.348163 5.076879 0.018319 2.889425 4.33706 -4 -0.515414 1.898375 -4 -1.431487 2.23788 -4 -2.140376 2.821823 -4 -2.550661 3.588201 -4 -2.550661 4.411799 -4 -2.140376 5.178177 -4 -1.431487 5.76212 -4 -0.515414 6.101625 -4 0.515414 6.101625 -4 1.431487 5.76212 -4 2.136603 5.179994 -4 2.550661 4.411799 -4 2.550661 3.588201 -4 2.140376 2.821823 -4 1.431487 2.237881 -4 0.515414 1.898375 -2.776022 2.571607 3.586799 -2.775931 2.60851 4.382731 -2.776052 2.199111 5.109121 -2.763779 1.545712 5.795267 -2.774816 0.532119 6.063676 -2.776478 -0.518881 6.022423 -2.778173 -1.52269 5.76411 -2.775879 -2.202704 5.12163 -2.775757 -2.577103 4.388857 -2.775845 -2.564384 3.610959 -2.77618 -2.226058 2.866114 -1.375388 2.774534 3.5606 -1.376486 2.827688 4.407311 -1.37895 2.351203 5.143775 -1.380064 1.627621 5.772894 -1.377784 0.638557 6.061812 -1.376373 -0.439927 6.19577 -1.375811 -1.390955 5.743571 -1.377715 -2.122729 5.14718 -1.3782 -2.503614 4.398734 -1.378718 -2.499064 3.598107 -0.680089 2.775632 3.579474 -0.679539 2.74583 4.387012 -0.680222 2.331477 5.129287 -0.679771 1.614198 5.737633 -0.680222 0.629526 6.024458 -0.679404 -0.434288 6.083842 -0.680399 -1.386035 5.702896 -0.680166 -2.113998 5.129924 -0.680222 -2.471563 4.388039 -2.078029 2.726319 3.605469 -2.081789 2.773137 4.446656 -2.077321 2.281631 5.162499 -2.080056 1.601686 5.800137 -2.077064 0.624321 6.077463 -2.077565 -0.40696 6.069778 -2.075867 -1.410485 5.839883 -2.077197 -2.044035 5.155598 -2.077307 -2.466337 4.438073 -2.077216 -2.449495 3.643911 -3.477563 1.438119 2.271132 -3.479786 2.225318 2.809865 -3.475304 2.625875 3.575132 -3.473942 2.564798 4.395912 -3.475109 2.168147 5.132487 -3.476638 1.548466 5.869162 -3.477981 0.522442 6.12467 -3.477212 -0.52216 6.057371 -3.483021 -1.543211 5.844484 -3.474357 -2.17324 5.136296 -3.474371 -2.559421 4.405378 -3.474385 -2.554037 3.618138 -3.474443 -2.182223 2.884442 -3.480516 -1.545706 2.196089 -3.475771 -0.552303 1.91104 -3.477839 0.491656 1.933297 0.018319 0.089581 6.05165 -0.680277 0.103938 6.11262 -1.378212 0.113092 6.151001 -2.077184 0.106979 6.114784 -2.776038 8.45e-4 6.037279 -3.475242 -0.007653 6.10601 -4 0 6.173561 0.018319 1.147184 5.896982 -0.680123 1.137104 5.906028 -1.377945 1.159951 5.972363 -2.078796 1.146138 6.010377 -2.771913 1.042247 5.919603 -3.479885 1.071485 6.071908 -4 0.9862 5.980402 -3.477233 0.988067 2.070745 -4 0.9862 2.019598 -3.47697 -0.028967 1.90244 -4 0 1.826439 -3.475796 -1.046446 2.07351 -4 -0.9862 2.019598 -2.7766 -1.940211 2.508495 -3.4783 -1.966534 2.46524 -4 -1.830852 2.483404 0.018319 -1.892466 5.459379 -0.680091 -1.813581 5.467881 -1.377358 -1.818598 5.497101 -2.077007 -1.799988 5.54037 -2.776153 -1.892973 5.448909 -3.475615 -1.90785 5.505208 -4 -1.830852 5.516595 0.018319 -0.980457 5.907383 -0.681159 -0.947067 5.9475 -1.373705 -0.9532 5.996508 -2.077488 -0.930494 6.018171 -2.77785 -1.050044 5.977287 -3.480143 -1.044944 6.001769 -4 -0.9862 5.980402 0.018319 2.018761 5.399943 -0.679399 2.074238 5.523471 -1.379443 2.019917 5.471016 -2.078706 1.99442 5.515231 -2.774821 1.894771 5.444081 -3.475607 1.934484 5.546227 -4 1.830852 5.516596 -3.483531 1.910121 2.450671 -4 1.830852 2.483404 1.205659 3.275274 3.485135 1.20575 2.908884 4.330015 1.20563 2.363931 5.101091 1.217904 1.674976 5.829036 1.206864 0.60913 6.114322 1.205204 -0.49704 6.070576 1.203508 -1.55358 5.796439 1.205803 -2.269492 5.114359 1.205923 -2.663593 4.336505 1.205839 -2.650202 3.510765 2.696163 2.134251 2.115531 2.604857 2.475418 2.713581 2.606295 2.664304 3.498217 2.605197 2.717309 4.358123 2.602734 2.243824 5.105911 2.601617 1.524367 5.744838 2.603895 0.540672 6.038544 2.60531 -0.531732 6.174753 2.605871 -1.477315 5.715493 2.603968 -2.205082 5.109505 2.603483 -2.583878 4.349209 2.602964 -2.462534 3.535894 2.564713 -2.182307 2.895455 2.613421 -1.745388 2.112589 3.044723 -0.5340986 1.700481 3.268312 1.13264 1.731381 3.349294 1.694394 2.257188 3.301671 2.213185 2.831309 3.301593 2.565555 3.590442 3.302144 2.573601 4.414284 3.30146 2.177963 5.171295 3.301912 1.479137 5.791919 3.30146 0.519884 6.084415 3.302278 -0.516468 6.145125 3.301283 -1.44374 5.756375 3.301517 -2.15291 5.171957 3.30146 -2.501266 4.415186 3.301052 -2.515006 3.62276 3.301608 -2.198924 2.845232 3.310969 -1.569695 2.242895 3.443141 -0.5441451 1.888784 3.563668 0.7692757 1.867674 1.904133 2.842049 2.629667 1.903654 3.022143 3.441735 1.899895 2.891152 4.323221 1.904363 2.321444 5.073569 1.901627 1.605318 5.741735 1.904617 0.575323 6.03249 1.904118 -0.511191 6.024417 1.905815 -1.568481 5.783541 1.904482 -2.23598 5.06634 1.904374 -2.497968 4.314346 1.904467 -2.480219 3.482039 2.111759 -2.281541 2.794197 0.506378 3.502983 3.437492 0.50774 2.934547 4.289398 0.506573 2.369365 5.054297 0.505044 1.71495 5.819267 0.503703 0.631313 6.084641 0.504469 -0.472162 6.014707 0.49866 -1.550037 5.794302 0.507326 -2.216496 5.058153 3.301404 0.007844 6.174335 2.603469 0.018166 6.129095 1.904498 0.030272 6.071598 1.205645 0.050003 6.086334 0.50644 0.071097 6.065021 3.301559 1.014373 5.963627 2.603739 1.059143 5.947668 1.902885 1.125226 5.962117 1.209769 1.145831 5.961296 0.501798 1.211448 6.030047 3.456994 1.280913 2.044312 2.893557 1.741317 1.991431 3.516283 0.1089226 1.810186 3.168263 0.3231406 1.632414 3.368939 -1.120243 1.978521 2.871176 -1.236327 1.745035 3.303971 -1.977328 2.453626 2.605371 -2.031738 2.399965 3.301591 -1.860228 5.516704 2.604324 -1.902636 5.464979 1.904674 -1.978854 5.4696 1.205529 -1.943452 5.46178 0.506064 -1.936026 5.441316 3.300523 -1.016144 6.005756 2.607978 -1.041987 5.972625 1.904194 -1.062779 5.970333 1.203831 -1.056072 6.022706 0.501538 -1.024053 5.957267 3.302281 1.927263 5.573533 2.602239 1.914435 5.438259 1.902977 2.018989 5.443196 1.206861 2.043454 5.456601 0.506077 2.122596 5.483899 3.301761 2.039354 2.500735 2.603689 2.406183 2.384068 2.284338 2.597315 2.31937 -2.266592 -2.294061 2.794494 -2.959434 -1.507238 2.19723 -2.960005 -1.053651 1.987455 -2.964375 -0.538564 1.911397 -3.012682 -0.024415 1.855708 -2.95325 0.503428 1.852042 -2.930033 1.003235 1.998844 -2.89616 1.496071 2.129259 -2.934158 1.93876 2.443383 -2.860115 2.264387 2.801089 -2.394758 2.43829 2.796123 -0.86763 2.756024 2.794341 0.677417 3.836663 2.79425 0.689285 -2.663593 2.794077 -0.82076 -2.650202 2.794161 -2.033297 1.50484 1.403358 -1.386136 2.269902 1.395143 -0.537602 2.864124 1.393705 0.392331 3.677563 1.394803 1.201017 3.175475 1.397266 2.016703 2.463426 1.398383 3.15549 1.411215 1.327539 2.934013 -0.5608346 1.312415 1.889681 -1.772748 1.394129 1.204903 -2.258174 1.396032 0.382692 -2.583878 1.396517 -0.496857 -2.57941 1.397036 -1.3377 -2.231934 1.396802 -2.036549 -1.529274 1.403502 -2.357127 -0.53117 1.35206 -2.334336 0.516979 1.354305 -1.742812 1.440501 0.6985 -1.168691 2.171024 0.698329 -0.409558 2.796544 0.698407 0.414284 3.298922 0.697856 1.171295 2.988492 0.69854 1.939109 2.385893 0.698088 2.840279 1.27382 0.69854 2.618614 -0.5360653 0.697722 1.797879 -1.720959 0.698717 1.171957 -2.211217 0.698483 0.415186 -2.501266 0.69854 -0.37724 -2.515006 0.698948 -1.154768 -2.19448 0.698392 -1.757105 -1.483181 0.697083 -2.111216 -0.535323 0.697066 -2.132326 0.510064 0.696442 -2.69143 1.559379 1.971413 -1.840042 2.385398 2.095867 -0.731115 2.844024 2.096346 0.472606 3.884052 2.100105 1.49725 3.131843 2.095637 1.487379 -2.281511 2.095518 0.460487 -2.680911 2.095626 -0.676078 -2.663162 2.095533 -1.742008 -2.282505 2.095634 -2.644137 -1.562304 2.023271 2.826165 0.3961678 0.698596 3.112935 0.4672401 1.318846 2.43688 1.913155 0.698441 2.575987 2.015737 1.396261 -1.955688 0.995799 0.69808 -2.218982 1.026816 1.372834 -2.189814 -0.017107 0.696878 -2.431011 -0.009036 1.339872 -2.021479 -1.051208 0.695323 -2.314531 -1.073087 1.358107 -1.546374 -1.933631 0.696029 -1.7299 -1.934118 1.454022 -2.332019 -2.03955 2.095893 1.516704 -2.034854 0.698409 1.589327 -2.071959 1.395676 2.038054 -2.108282 2.095326 2.229626 -1.212582 0.699477 2.452849 -1.277576 1.330112 1.573533 2.855927 0.697719 1.56043 2.776223 1.397761 2.001998 2.758624 2.097023 -1.499265 1.85562 0.698239 -1.74713 1.924601 1.452807 -2.369768 2.068538 2.098799</float_array>
          <technique_common>
            <accessor source="#polySurfaceShape1-positions-array" count="500" stride="3">
              <param name="X" type="float"/>
              <param name="Y" type="float"/>
              <param name="Z" type="float"/>
            </accessor>
          </technique_common>
        </source>
        <source id="polySurfaceShape1-normals" name="polySurfaceShape1-normals">
          <float_array id="polySurfaceShape1-normals-array" count="1500">0.3352395 0.02840947 0.9417045 0.3525184 0.4245859 0.8339409 0 0.6273869 0.7787077 9.48246e-4 0.6253439 0.7803485 -0.3722828 0.3438493 0.8620749 -0.3651859 0.02456177 0.9306105 -0.3384463 -0.003781019 0.9409781 -0.3229895 -0.2580256 0.9105496 -0.03729644 -0.3709166 0.927917 0.03034088 -0.3637263 0.9310115 0.3843598 -0.2710957 0.8824821 0.3304348 -0.01555672 0.9437006 0.9872665 0.1575485 0.02198153 0.8908883 0.4529656 -0.03376665 0.5662681 0.8100299 0.1522887 0.2968096 0.9411477 0.161694 -0.1420399 0.9780456 0.1524845 -0.4264474 0.8967079 0.1185644 -0.7360128 0.6704983 -0.09336641 -0.9006798 0.4114224 -0.1396696 -0.9648715 -0.2298325 -0.1272796 -0.6009755 -0.7992655 0.001687577 -0.4197439 -0.8902614 0.1767762 0.007921587 -0.9804116 0.1968004 0.5223333 -0.8387192 0.1540059 0.6363609 -0.7682104 0.06998239 0.8864089 -0.4628828 0.004345186 0.9758392 -0.2112417 0.055809 0.8675998 -0.4972414 0.004656859 0.5613695 -0.8084685 0.1767559 0.3462035 -0.8660508 0.3606927 -0.08628141 -0.7956613 0.5995655 -0.3407655 -0.7424418 0.5767661 -0.4663359 -0.6450151 0.6053811 -0.7805311 -0.197185 0.5932027 -0.8314316 0.2974836 0.4692815 -0.7509769 0.6035604 0.267859 -0.3298285 0.9254833 0.1862629 -0.2047487 0.9426669 0.2635472 0.1320327 0.9412973 0.3106876 0.3908948 0.9028611 0.1790057 0.9018279 0.4309548 -0.03137431 0.9945793 0.1037267 -0.007245734 0.9878377 -0.1484609 -0.04621465 0.7426974 -0.2843064 0.6062759 0.5115625 -0.6911507 0.5105042 0.276745 -0.7750949 0.5680141 -0.1316707 -0.7712351 0.6227835 -0.3638268 -0.6901815 0.6255234 -0.571546 -0.4236049 0.7027759 -0.6595567 -0.04383846 0.7503753 -0.7274594 0.1393815 0.6718449 -0.7587144 0.4242366 0.4943436 -0.1775554 0.9734033 0.144776 -0.003352634 0.9697591 0.2440409 0.08086581 0.980233 0.1805653 0.3450436 0.9376259 0.04245731 0.7605215 0.4591785 0.4590884 0.8181645 0.06819741 0.5709257 0.7685651 -0.09680851 0.6324047 0.5760707 -0.1758076 0.7982695 0.2367456 -0.4857432 0.8414304 0.07179505 -0.4615808 0.8841882 -0.1029093 -0.4564227 0.8837918 -0.2359224 -0.5478457 0.8026242 -0.5388658 -0.1835777 0.8221453 -0.4970491 -0.01615566 0.8675719 -0.5033296 0.09435829 0.8589271 -0.6932255 0.2377216 0.6803873 -0.05331866 0.8341904 0.5488929 0.001573309 0.791117 0.6116629 4.93724e-4 0.8609447 0.5086984 0.1647658 0.8684845 0.4675328 0.58138 0.271631 0.766951 0.532842 0.04039057 0.8452502 0.5213637 -0.0534704 0.8516576 0.8663911 -0.4744218 0.1558541 0.5452927 -0.8174454 0.1855768 0.3215023 -0.8907086 0.3213637 -0.06229263 -0.8767569 0.4768825 -0.334784 -0.7317616 0.5936704 -0.4819148 -0.5822173 0.6548136 -0.7043313 -0.0474945 0.7082807 -0.8221474 0.2069435 0.5303281 -0.7511224 0.5741418 0.3258469 -0.288554 0.9452041 0.1527279 -0.05220744 0.9552013 0.2913158 0.1749767 0.9581121 0.2267251 0.3635606 0.9233109 0.1237765 0.8987502 0.4291275 0.08998682 0.9655133 0.1482556 0.2140193 0.9573219 -0.09704057 0.272246 0.9032749 -0.4230232 0.07173514 0.6177658 -0.7827801 0.07497236 0.5183377 -0.8357195 0.1813803 0.1768419 -0.9082512 0.3792187 -0.3874517 -0.8747736 0.2909511 -0.5616885 -0.79701 0.2219933 -0.9571376 -0.2766541 0.08573271 -0.9436097 0.3134203 0.1066233 -0.7336054 0.6795753 -7.67993e-4 -0.3442734 0.9309182 0.1219302 -0.1897013 0.9485958 0.2533365 0.207828 0.937162 0.2802407 0.4775097 0.8642856 0.1580985 0.8885974 0.4456531 -0.1085729 0.9798367 0.1961428 -0.03805107 0.9867953 -0.1573318 -0.03849394 -0.4640608 0.0117406 0.8857255 -0.6953291 0.01147208 0.7185999 -0.7693056 0.06253871 0.6358126 -0.825727 0.1159249 0.5520292 -0.9834178 0.112225 0.1424605 -0.9808295 0.1631003 -0.1066378 -0.4948685 -0.06191034 0.8667596 -0.6282541 -0.1701912 0.759165 -0.6025786 -0.3503545 0.717043 -0.5757181 -0.5669448 0.5891707 -0.7462428 -0.6427655 0.17313 -0.7332157 -0.6765839 -0.06803457 0.5261699 -0.1003851 0.8444335 0.7478689 -0.1662063 0.6427034 0.9224882 -0.2956264 0.248235 0.9150298 -0.3961707 -0.0759569 0.9303274 -0.3666559 0.007353822 0.9321887 -0.3588143 0.04771035 0.4892419 0.005989759 0.8721275 0.7905971 0.008373296 0.6122794 0.9737439 0.005480341 0.2275801 0.9988568 -0.001487648 -0.04777772 0.9994928 0.009763512 0.03031435 0.9968219 -0.02891258 0.07423099 0.5219588 0.1480181 0.8400296 0.8264572 0.2085174 0.5229617 0.9600203 0.2195473 0.1736663 0.9542561 0.2930057 -0.05952191 0.9421656 0.3288687 -0.0645709 0.9477462 0.3143107 0.05464131 0.5538574 0.6938713 0.4602006 0.6004621 0.7543471 0.2653407 0.6778218 0.7246773 0.1240981 0.6487401 0.7583971 0.0630082 0.6095098 0.7915738 -0.04369022 0.7648495 0.6442084 -7.65993e-4 -0.4768177 0.6707082 0.5681509 -0.631402 0.7323615 0.2549083 -0.5675725 0.7990977 0.1982529 -0.5605322 0.7912501 0.2443908 -0.4869969 0.8732336 0.01723338 -0.5797781 0.8145604 0.01867206 -0.5689021 0.1499657 0.8086165 -0.7335403 0.2988175 0.6104314 -0.8280094 0.3875618 0.4052114 -0.8181549 0.449881 0.3580918 -0.8389843 0.5400509 0.06671169 -0.8292689 0.5526634 -0.08292232 -0.4614647 -0.448388 0.7655054 -0.4536943 -0.6373072 0.6228973 -0.3827608 -0.6846021 0.620334 -0.4097225 -0.7048913 0.5790126 -0.5295738 -0.8224905 0.2075119 -0.6110701 -0.7766366 0.1530654 0.5058204 -0.3503979 0.7882684 0.7121178 -0.490963 0.5018402 0.7424425 -0.6585037 0.1230933 0.7060936 -0.6974505 0.1224528 0.8133791 -0.5787065 0.05927142 0.7678754 -0.6405061 -0.01091481 -0.06133837 0.1937411 -0.9791332 -0.01843174 0.4895708 -0.8717687 0.002100983 0.8298448 -0.5579903 0.06203788 0.9839839 -0.1671135 0.02003841 0.957064 0.2891827 -0.09928644 0.8315769 0.5464631 -0.1152945 0.4906787 0.8636789 -0.01838839 0.1701328 0.9852495 -0.1788494 -0.1906718 0.9652239 -0.1829071 -0.4778689 0.8591776 -0.1244967 -0.8348076 0.5362805 -0.04253987 -0.9515627 0.3044975 -0.03378903 -0.9704268 -0.2390189 -0.08222079 -0.824938 -0.559211 -0.04406112 -0.4377827 -0.8980005 0.01427028 -0.1870374 -0.982249 -0.06817997 -0.02736847 0.9972975 -0.1842594 -0.3432051 0.9210096 0.01334197 -0.3104417 -0.9504988 -0.02181181 0.01858579 -0.9995893 -0.05300134 0.3203492 -0.9458157 -0.01831454 0.5923692 -0.8054585 -0.1393902 0.5746753 0.8064234 -0.09372395 0.2857549 0.9537086 -0.1803122 -0.6114416 0.7704716 -0.1215776 -0.5701778 -0.8124753 0.06235785 0.9957608 -0.06761535 0.0666155 0.9701172 -0.2333129 0.04201654 0.8373017 -0.5451243 0.1286641 0.4213485 -0.8977254 -0.045035 0.1483234 -0.987913 0.03391721 -0.1620139 -0.9862053 0.1039071 -0.4640162 -0.8797114 0.05990415 -0.7968118 -0.6012508 0.1451941 -0.8746153 -0.4625654 -0.05496372 0.1350766 0.9893095 0.09055725 0.4019113 0.9111897 0.0812212 0.8403856 0.5358686 1.27019e-4 0.9487411 0.3160542 0.01281348 0.9706156 -0.2402938 0.03857023 0.8141441 -0.5793806 0.1812247 0.4162959 -0.8909855 -0.09548983 0.1603335 -0.9824331 0.04587086 -0.1938994 -0.9799484 0.2571563 -0.4376927 -0.8615658 0.06695829 -0.8340734 -0.5475749 0.01581394 -0.9456006 -0.3249453 0.118375 -0.9681487 0.220625 0.1488747 -0.7867777 0.5990134 -0.06223251 -0.4567361 0.8874228 -0.07423387 -0.1935618 0.9782756 0.1133734 -0.979975 0.1636933 0.1621925 -0.9568357 -0.2411614 0.0887375 -0.8147596 -0.5729679 -0.01021681 -0.5078357 -0.8613935 -0.03351121 -0.1022937 -0.9941895 -0.01058142 0.07505163 -0.9971235 -0.04357934 0.5727068 -0.8186012 -0.05934193 0.8352609 -0.5466421 -0.06479755 0.98724 -0.1454588 -0.02498941 0.9754502 0.2187976 0.1041358 0.8562334 0.5059842 0.04162969 -0.9944423 0.09670147 -0.00871115 -0.9816905 -0.1902835 -0.005160847 -0.8018193 -0.5975443 -0.04441043 -0.4914766 -0.8697577 -0.04953043 -0.1711265 -0.9840032 -0.005028661 0.1212857 -0.9926049 -0.07871032 0.5151026 -0.8535069 0.0181786 0.82225 -0.568836 0.005399125 0.9744494 -0.2245425 0.07612158 0.9970171 -0.01274079 0.2451088 -0.9648401 -0.09489679 0.006812593 -0.9489022 -0.3154968 -0.02991855 -0.8095163 -0.5863346 -0.0216415 -0.4222403 -0.9062256 -0.06349076 -0.1902135 -0.9796876 -0.079624 0.1565004 -0.984463 -0.02655291 0.47955 -0.8771127 0.02775512 0.8294266 -0.5579257 0.05266801 0.9699444 -0.2375584 0.1479238 -0.9802665 0.1311336 0.1366999 -0.9351751 -0.3267427 0.1047016 -0.7939059 -0.5989582 0.03310283 -0.5235615 -0.8513446 0.04106187 -0.1398822 -0.9893163 0.102928 0.05316961 -0.9932666 -0.04351643 0.4744171 -0.8792238 -0.03103852 0.8185571 -0.5735858 -0.04636317 0.9452725 -0.322971 -0.04771632 0.9961149 0.07401523 0.09785729 -0.4121229 0.9058579 0.09971022 -0.8188633 0.5652616 0.03852227 -0.9705596 0.2377606 0.03411771 -0.9733474 -0.2267834 -0.009982206 -0.8570516 -0.5151338 0.05531141 -0.4774256 -0.8769296 -0.01705243 -0.06611266 -0.9976664 -0.04185212 0.1300195 -0.9906278 0.04940531 0.4912221 -0.869632 0.001726539 0.8375356 -0.54638 0.01862936 0.9588963 -0.2831444 0.01890169 0.9801742 0.1972335 0.01368298 0.8731709 0.4872222 0.08458962 0.4188766 0.9040945 0.02337122 0.1667441 0.9857232 0.002798718 -0.1509849 0.9885321 0.01618857 -0.05059334 -0.998588 -0.0873061 -0.07580893 -0.9932929 0.0129581 -0.0926101 -0.9956182 0.06655268 0.01588365 -0.9976566 -0.003475679 0.04637272 -0.9989181 -0.09690093 0.0705339 -0.9927915 -0.06936847 0.0112113 -0.9975281 0.1218855 -0.2523582 -0.9599267 -0.05755969 -0.2611053 -0.9635927 -0.06263577 -0.310166 -0.9486167 0.04027173 -0.25285 -0.9666669 -0.02714222 -0.257147 -0.965991 0.02927734 -0.282577 -0.9587977 0.154652 -0.2606421 -0.9529684 0.03102164 -0.3468545 0.9374058 -0.08529116 -0.3189355 0.9439309 -0.02102337 0.01057879 0.999723 -0.1188887 -0.02003586 0.9927053 0.05414152 0.3274249 0.9433248 -0.03656035 0.3349223 0.9415362 0.2515747 0.7570981 0.6029201 0.03777593 0.7117242 0.7014426 0.1876462 0.594159 0.7821534 0.09613423 0.6401535 -0.7622084 0.004419941 0.6189524 -0.7854161 -0.01725047 0.6521375 -0.7579044 -0.03676039 0.6871325 -0.7256016 -0.04736595 0.7380273 -0.6731064 -0.01014096 0.7320089 -0.6812194 0.1409164 0.646911 -0.7494323 0.01087141 0.3535908 -0.9353371 -0.04251974 0.3860959 -0.9214782 -0.07602388 0.3888158 -0.9181735 0.03985045 0.2253727 -0.9734573 -0.01832214 0.2761835 -0.9609301 0.03983614 0.2245028 -0.9736587 0.02043653 0.2675638 -0.9633234 0.07731045 -0.6789693 -0.7300848 -0.04163509 -0.6406098 -0.7667369 0.01898101 -0.6749785 -0.7375932 0.07174518 -0.6821496 -0.7276843 0.0251105 -0.7319925 -0.6808499 0.002316888 -0.7548692 -0.6558714 0.2111613 -0.6259633 -0.7507204 0.09935778 -0.6037732 0.7909399 0.07483047 -0.5467446 0.8339487 -0.2722179 -0.9186171 -0.2864263 -0.01661151 -0.8493377 -0.5275885 -0.03899439 -0.7993256 -0.5996316 -0.0860314 -0.4911031 -0.8668427 -0.0228687 -0.09113672 -0.9955757 0.01860348 0.06967146 -0.9973965 -0.005809366 0.532253 -0.8465654 -0.01181393 0.8423938 -0.5387329 -0.04745787 0.9589779 -0.2794804 -0.1117444 0.9921754 0.05568736 -0.6299033 -0.6605657 0.4085029 -0.4556249 -0.8630323 0.2181313 -0.3149173 -0.9385743 0.1410861 -0.1678284 -0.9484634 -0.268795 -0.06836662 -0.7983217 -0.5983379 0.01018347 -0.4845887 -0.8746828 0.03517193 -0.1660381 -0.9854919 0.07323232 0.1719169 -0.9823857 -0.03509652 0.4804514 -0.8763189 -0.03291461 0.8492233 -0.5270069 0.01891256 0.9864292 -0.1630937 -0.01632887 0.9668152 0.2549542 -0.1149632 0.9322942 0.3429442 -0.4383214 0.6620694 0.6078967 -0.6837512 0.1862916 0.7055351 -0.7984792 -0.4082276 0.4424716 -0.3556052 -0.5533112 0.7532541 -0.1905569 -0.8925685 0.4086679 -0.1030457 -0.9823744 0.155955 -0.09039808 -0.9503659 -0.2977124 -0.007520751 -0.8479478 -0.5300263 -0.03364796 -0.4160693 -0.9087102 0.03947465 -0.2067642 -0.9775941 -0.02756083 0.1372586 -0.9901517 0.00840561 0.5062352 -0.8623545 -0.009744685 0.8279437 -0.5607266 -0.01574518 0.9522531 -0.3049033 0.02543065 0.988838 0.1468084 -0.005965048 0.9095064 0.4156471 -0.1698742 0.5288721 0.831527 -0.2454978 0.17791 0.9529317 -0.3302169 -0.1881112 0.9249708 -0.5264044 -0.847356 0.06990273 -0.4144727 -0.9075695 0.06730557 -0.2177165 -0.9232413 -0.3165833 -0.07143405 -0.7911751 -0.6074036 -0.08842955 -0.4806522 -0.8724412 -0.04783733 -0.08686169 -0.9950712 0.04271158 0.1064469 -0.9934006 -0.05484359 0.5159293 -0.8548736 -0.005987837 0.8987771 -0.4383648 -0.07934844 0.9880849 -0.1318787 -0.1340837 0.982398 0.1300609 -0.2352647 0.9374655 0.2565327 0.196696 -0.8915257 -0.4080348 -0.03905654 -0.8403301 -0.540666 0.01710671 -0.8287364 -0.5593774 0.1259908 -0.5598384 -0.8189672 0.1052438 -0.09682103 -0.9897219 0.01023719 0.1227223 -0.9923882 0.123611 0.471657 -0.8730751 0.03942535 0.8554589 -0.5163678 0.02950132 -0.07497549 -0.9967488 0.07388391 -0.07691811 -0.9942961 0.009874155 -0.01869073 -0.9997765 -0.001965163 0.02971998 -0.9995564 0.005704749 0.04265543 -0.9990736 0.003583354 -0.2980686 -0.9545377 -0.007133468 -0.2716056 -0.9623823 -0.04594298 -0.2962938 -0.9539912 -0.05938774 -0.2577974 -0.964372 0.1100256 -0.2673086 -0.9573089 -0.3874339 -0.4685743 0.7939351 -0.6579224 -0.5493525 0.5151213 -0.2327087 0.07155022 0.969911 -0.8113798 0.07526743 0.579653 -0.2622441 0.4285334 0.8646312 -0.6164322 0.4210773 0.665361 -0.1200194 0.6987746 0.7052015 -0.2134402 0.8235689 0.525526 2.36654e-4 0.6365821 -0.7712089 -0.04572773 0.6585957 -0.7511063 -0.02618776 0.7394558 -0.6726954 0.02824158 0.6749067 -0.7373623 0.02874397 0.7294904 -0.6833868 -0.01559462 0.3945529 -0.9187409 0.04617648 0.3971028 -0.9166118 -0.04970959 0.3053378 -0.9509457 3.15318e-4 0.2348005 -0.9720435 0.1355262 0.2198878 -0.9660652 -0.003686317 -0.6736022 -0.7390849 0.001000968 -0.6874753 -0.7262071 -0.08368438 -0.6916731 -0.717346 -0.06516732 -0.7194512 -0.6914788 0.06005814 -0.7495741 -0.6591902 -0.2983303 -0.7694437 0.5647613 -0.5150748 -0.7426535 0.4279762 -0.5457997 -0.8046167 0.2338685 0.2013502 0.9400517 0.2752469 0.1696922 0.480112 0.8606375 0.3762019 0.3136017 0.8718521 0.4776115 0.1206491 0.8702477 0.2921471 0.02229847 0.9561133 0.4059947 -0.1762092 0.8967267 0.4534216 -0.2744599 0.8479862 0.4580277 -0.3765821 0.8052307 0.2983997 -0.6341484 0.7133116 0.1350031 -0.8572458 0.496894 0.2827335 -0.8935505 0.3487538 0.3983158 -0.9169424 -0.02368893 -0.1963449 -0.9619898 -0.1898008 -0.135432 0.989526 0.04996393 0.1297461 0.9914926 -0.01040596 0.7151915 -0.4412688 0.5420176 0.5855352 -0.7449771 0.3196208 0.6159063 -0.7662296 0.1831715 0.1862837 -0.9176694 0.3509719 -0.5714843 -0.7733544 0.2744607 -0.6082715 -0.7598515 0.2294156 -0.922482 -0.2572766 0.2878118 -0.8778591 0.2890168 0.3818806 -0.6292868 0.6999294 0.3377821 -0.394831 0.9098725 0.1274383 -0.1498623 0.9809766 0.1233948 0.1959505 0.9698364 0.1449855 0.47707 0.8494539 0.2254602 0.6982374 0.5166501 0.495517 0.8498742 0.1090803 0.5155729 0.8128636 -0.1842424 0.5525462 0.8532797 -0.4921713 0.1722822 0.6331633 -0.7592893 0.1502794 0.5574365 -0.8057137 0.2002243 -0.05403924 -0.9356875 0.348667 -0.4110127 -0.896557 0.1650888 -0.6868631 -0.7170585 0.1185165 -0.9297084 -0.3249173 0.1734098 -0.907073 0.3639105 0.211631 -0.7381943 0.670861 0.07081304 -0.4068219 0.9123945 0.04507933 -0.2596184 0.9652979 0.02825001 0.1239912 0.9918549 0.02915579 0.4539978 0.8867863 0.08657945 0.8471797 0.5004683 0.1783761 0.9655362 0.1597605 0.2054658 0.9654245 -0.2151679 0.1471678 0.6048752 -0.3679243 0.7062278 0.4266956 -0.8308856 0.3571554 0.5316494 -0.8364485 0.1330525 0.1506242 -0.9800025 0.1300282 -0.6163242 -0.769908 0.1654874 -0.3308488 0.9224044 0.1992715 -0.1510884 0.9838991 0.09547231 0.2173248 0.9679283 0.1260346 0.3721269 0.8857726 0.2773592 0.5825822 0.4854828 0.651847 -0.9765651 0.08772296 0.196533 -0.9316534 0.1197284 0.3430552 -0.7084031 -0.6850522 0.1699073 -0.7283999 -0.6701285 0.1426935 0.9044168 -0.389945 0.1731267 0.7886161 -0.2753191 0.5498035 0.9785527 0.02596577 0.2043535 0.7710695 0.001687102 0.6367487 0.8921196 0.3917885 0.2249986 0.7780549 0.2669304 0.568664 0.7143962 0.6850038 0.1428562 0.6474641 0.6632965 0.3752706 0.5139397 0.7045832 0.4893145 -0.5614184 0.8254501 0.05866525 -0.5524482 0.8066484 0.2100459 -0.4095278 0.8241096 0.3913185 -0.7790794 0.6105294 0.1424392 -0.6665779 0.5928295 0.4519149 -0.5699203 -0.8124897 0.1226836 -0.6195219 -0.768676 0.1591534 -0.5896464 -0.7773945 0.2190317 0.7460597 -0.6468154 0.1581922 0.6638308 -0.5899498 0.4596607 0.5055944 -0.6357492 0.5832642</float_array>
          <technique_common>
            <accessor source="#polySurfaceShape1-normals-array" count="500" stride="3">
              <param name="X" type="float"/>
              <param name="Y" type="float"/>
              <param name="Z" type="float"/>
            </accessor>
          </technique_common>
        </source>
        <source id="polySurfaceShape1-Geometry-mesh025-Texture" name="polySurfaceShape1-Geometry-mesh025-Texture">
          <float_array id="polySurfaceShape1-Geometry-mesh025-Texture-array" count="1198">-0.021675 0.213721 -0.183855 0 0.059415 0 0.059415 4 -0.183855 4 -0.002305 3.779771 -0.183855 3.779771 -0.002305 3.662815 -0.183855 3.662815 -0.002305 3.53635 -0.183855 3.53635 -0.002305 3.403498 -0.183855 3.403498 -0.002305 3.268125 -0.183855 3.268125 -0.002305 3.134758 -0.183855 3.134758 -0.183855 3.00051 -0.183855 2.864405 -0.002305 3.00051 -0.002305 2.864405 -0.183855 2.731916 -0.183855 2.595197 -0.002305 2.731916 -0.002305 2.595197 -0.183855 2.469794 -0.183855 2.239013 -0.002305 2.469794 -0.002305 2.239013 -0.183855 2.012795 0.121136 2.012795 -0.723728 1.781358 -0.877317 1.781358 -0.740891 1.656847 -0.877317 1.656847 -0.703327 2.012795 -0.877317 2.012795 -0.703327 2.239013 -0.877317 2.239013 -0.877317 2.469794 -0.703327 2.469794 -0.877317 2.731916 -0.877317 2.595197 -0.703327 2.731916 -0.703327 2.595197 -0.877317 3.00051 -0.877317 2.864405 -0.703327 3.00051 -0.703327 2.864405 -0.877317 3.268125 -0.877317 3.134758 -0.703327 3.268125 -0.703327 3.134758 -0.703327 3.53635 -0.877317 3.53635 -0.703327 3.403498 -0.877317 3.403498 -0.703327 3.779771 -0.877317 3.779771 -0.703327 3.662815 -0.877317 3.662815 -0.703327 4 -0.877317 4 -0.703327 0.213721 -0.877317 0.213721 -0.703327 0 -0.877317 0 -0.877317 0.439875 -0.703327 0.439875 -0.877317 0.70641 -0.877317 0.568839 -0.748535 0.70641 -0.703327 0.568839 -0.750292 0.989156 -0.877317 0.989156 -0.749186 0.846328 -0.877317 0.846328 -0.747239 1.274119 -0.877317 1.274119 -0.76216 1.133974 -0.877317 1.133974 -0.731578 1.530265 -0.877317 1.530265 -0.74122 1.404146 -0.877317 1.404146 -0.528848 2.239013 -0.528848 2.012795 -0.352165 2.239013 -0.352165 2.012795 -0.528848 2.469794 -0.352165 2.469794 -0.528848 2.731916 -0.528848 2.595197 -0.352165 2.731916 -0.352165 2.595197 -0.528848 3.00051 -0.528848 2.864405 -0.352165 3.00051 -0.352165 2.864405 -0.352165 3.268125 -0.528848 3.268125 -0.352165 3.134758 -0.528848 3.134758 -0.352165 3.53635 -0.528848 3.53635 -0.352165 3.403498 -0.528848 3.403498 -0.352165 3.779771 -0.528848 3.779771 -0.352165 3.662815 -0.528848 3.662815 -0.352165 4 -0.528848 4 -0.352165 0.213721 -0.528848 0.213721 -0.352165 0 -0.528848 0 -0.564956 0.41524 -1 1.781358 -1 1.656847 -1 2.012795 -1 2.239013 -1 2.469794 -1 2.731916 -1 2.595197 -1 3.00051 -1 2.864405 -1 3.268125 -1 3.134758 -1 3.53635 -1 3.403498 -1 3.779771 -1 3.662815 -1 4 -1 0.213721 -1 0 -1 0.439875 -1 0.70641 -1 0.568839 -1 0.989156 -1 0.846328 -1 1.274119 -1 1.133974 -1 1.530265 -1 1.404146 1 0.989156 0.821092 0.989156 1 0.846328 0.821092 0.846328 1 0.70641 0.821092 0.70641 1 0.568839 0.821092 0.568839 1 0.439875 0.821092 0.439875 1 0.213721 0.821092 0.213721 1 0 0.821092 0 1 4 0.821092 4 1 3.779771 0.821092 3.779771 0.821092 3.662815 1 3.662815 0.821092 3.53635 0.821092 3.403498 1 3.53635 1 3.403498 1 3.268125 0.821092 3.268125 1 3.134758 0.821092 3.134758 1 3.00051 0.821092 3.00051 1 2.864405 0.821092 2.864405 1 2.731916 0.821092 2.731916 1 2.595197 0.821092 2.595197 1 2.469794 0.821092 2.469794 1 2.239013 0.821092 2.239013 0.821092 2.012795 1 2.012795 0.821092 1.781358 1 1.781358 0.821092 1.656847 1 1.656847 0.821092 1.530265 0.821092 1.404146 1 1.530265 1 1.404146 1 1.274119 0.821092 1.274119 1 1.133974 0.821092 1.133974 0.295736 2.239013 0.121136 2.239013 0.295736 2.012795 0.295736 2.469794 0.121136 2.469794 0.295736 2.731916 0.121136 2.731916 0.295736 2.595197 0.121136 2.595197 0.295736 3.00051 0.121136 3.00051 0.295736 2.864405 0.121136 2.864405 0.295736 3.268125 0.121136 3.268125 0.295736 3.134758 0.121136 3.134758 0.295736 3.53635 0.121136 3.53635 0.295736 3.403498 0.121136 3.403498 0.121136 3.779771 0.121136 3.662815 0.295736 3.779771 0.295736 3.662815 0.295736 4 0.295736 0.213721 0.295736 0 0.64519 2.012795 0.470325 2.012795 0.64519 1.781358 0.470325 1.781358 0.64519 2.239013 0.470325 2.239013 0.64519 2.469794 0.470325 2.469794 0.64519 2.731916 0.470325 2.731916 0.64519 2.595197 0.470325 2.595197 0.64519 3.00051 0.470325 3.00051 0.64519 2.864405 0.470325 2.864405 0.64519 3.268125 0.470325 3.268125 0.64519 3.134758 0.470325 3.134758 0.470325 3.53635 0.470325 3.403498 0.64519 3.53635 0.64519 3.403498 0.470325 3.779771 0.470325 3.662815 0.64519 3.779771 0.64519 3.662815 0.470325 4 0.64519 4 0.470325 0.213721 0.470325 0 0.64519 0.213721 0.64519 0 0.64519 0.439875 0.470325 0.439875 0.64519 1.656847 0.64519 0.70641 0.64519 0.568839 0.64519 0.989156 0.64519 0.846328 0.64519 1.274119 0.64519 1.133974 0.64519 1.530265 0.64519 1.404146 0.565696 1.656847 1 0.989156 0.821092 0.989156 1 0.846328 0.821092 0.846328 1 0.70641 0.821092 0.70641 1 0.568839 0.821092 0.568839 1 0.439875 0.821092 0.439875 1 0.213721 0.821092 0.213721 1 0 0.821092 0 1 4 0.821092 4 1 3.779771 0.821092 3.779771 0.821092 3.662815 1 3.662815 0.821092 3.53635 0.821092 3.403498 1 3.53635 1 3.403498 1 3.268125 0.821092 3.268125 1 3.134758 0.821092 3.134758 1 3.00051 0.821092 3.00051 1 2.864405 0.821092 2.864405 1 2.731916 0.821092 2.731916 1 2.595197 0.821092 2.595197 1 2.469794 0.821092 2.469794 1 2.239013 0.821092 2.239013 0.821092 2.012795 1 2.012795 0.821092 1.781358 1 1.781358 0.821092 1.656847 1 1.656847 0.821092 1.530265 0.821092 1.404146 1 1.530265 1 1.404146 1 1.274119 0.821092 1.274119 1 1.133974 0.821092 1.133974 0.170709 2.28566 0.121136 2.184927 0.295736 2.239013 0.321541 2.427588 0.295736 0 0.121136 0.10686 0.121136 0 0.64519 1.781358 0.470325 1.781358 0.64519 1.656847 0.470325 1.656847 0.64519 2.012795 0.470325 2.012795 0.64519 2.239013 0.470325 2.239013 0.470325 2.469794 0.64519 2.469794 0.64519 2.731916 0.470325 2.731916 0.470325 2.595197 0.64519 3.00051 0.503172 3.00051 0.64519 2.864405 0.485134 2.864405 0.510161 3.268125 0.516764 3.134758 0.64519 3.268125 0.64519 3.134758 0.64519 3.53635 0.470325 3.53635 0.64519 3.403498 0.503856 3.403498 0.64519 3.779771 0.470325 3.779771 0.64519 3.662815 0.470325 3.662815 0.64519 4 0.470325 4 0.470325 0.213721 0.470325 0 0.64519 0.213721 0.64519 0 0.470325 0.439875 0.64519 0.439875 0.470325 0.70641 0.470325 0.568839 0.64519 0.70641 0.64519 0.568839 0.64519 0.989156 0.451426 0.989156 0.64519 0.846328 0.470325 0.846328 0.64519 1.274119 0.451426 1.274119 0.64519 1.133974 0.447227 1.133974 0.64519 1.530265 0.470325 1.530265 0.64519 1.404146 0.470325 1.404146 0.64519 2.595197 0.295736 2.012795 0.295736 1.781358 0.410376 2.595197 0.295736 3.779771 0.295736 3.662815 0.295736 4 0.295736 0.213721 0.295736 0.439875 0.422626 0.70641 0.357065 0.568839 0.121136 4 0.121136 0.213721 0.121136 2.080692 0.438671 1.530265 0.343853 1.656847 0.266297 1.740245 0.121136 1.86662 0.121136 2.012795 0.121136 1.939326 -0.133893 1.33793 -0.003311 1.41479 -0.088567 1.50801 -0.26354 1.60741 -0.143554 1.58781 -0.177039 1.64837 -0.25816 1.68127 -0.405319 1.68186 -0.389681 1.75442 -0.524996 1.83065 -0.58154 1.78282 0.255971 -0.725797 0.327808 -0.595741 0.207516 -0.669747 0.276619 -0.544574 0.283361 -0.538304 0.359475 -0.532924 0.389855 -0.427606 0.414741 -0.336834 0.296642 -0.485571 0.304413 -0.237572 0.316635 -0.216907 0.44377 -0.232896 0.470214 -0.125089 0.373001 0.050394 0.490463 -0.018386 0.517678 0.08374 0.464048 0.29903 0.532179 0.183889 0.550648 0.294735 0.459688 0.339091 0.537717 0.402445 0.391861 0.466821 0.505006 0.564755 0.369796 0.502868 0.311981 0.704573 0.454455 0.728445 0.393152 0.885979 0.307375 0.747058 0.294697 0.888549 0.29408 0.915479 0.342857 0.984821 0.257143 0.943598 0.268943 1.07623 0.211211 1.15873 0.048491 1.12526 0.142007 1.24024 0.06785 1.32737 0.708592 1.00444 0.772998 1.06137 0.654395 1.10746 0.717253 1.16494 0.787284 0.825125 0.859846 0.863141 0.837793 0.632737 0.917075 0.664482 0.862246 0.437367 0.942475 0.452003 0.852614 0.215611 0.935814 0.214659 0.864452 0.330027 0.945211 0.332922 0.914933 -0.025161 0.930243 0.095553 0.836328 -0.013106 0.846962 0.106391 0.781898 -0.24727 0.86054 -0.267183 0.809588 -0.131076 0.889915 -0.148924 0.779299 -0.509871 0.822621 -0.389743 0.70761 -0.479157 0.744623 -0.367382 0.689774 -0.718556 0.734511 -0.615097 0.621841 -0.671993 0.665171 -0.583083 0.606197 -0.903673 0.538641 -0.856873 -0.183581 2.0904 -0.354875 2.18603 -0.232277 2.02342 -0.402694 2.11845 -0.01756 1.97193 -0.067075 1.908 0.117667 1.76126 0.16946 1.8221 0.039149 1.82863 0.076033 1.90048 0.291219 1.58822 0.347371 1.64673 0.205094 1.67697 0.259961 1.73743 0.448357 1.40708 0.513738 1.45702 0.370893 1.50096 0.432327 1.55353 0.657447 1.2576 0.589486 1.35666 0.591644 1.21005 0.522075 1.3119 0.584611 0.995728 0.534289 1.09146 0.486623 0.958661 0.437849 1.04605 0.667137 0.823535 0.565535 0.787809 0.721297 0.629325 0.616227 0.608713 0.629768 0.421378 0.73733 0.430667 0.63262 0.2093 0.742369 0.214857 0.631324 0.318303 0.743256 0.324724 0.59559 -0.003752 0.713863 -0.008919 0.618173 0.106757 0.734776 0.103871 0.555649 -0.230641 0.665575 -0.228387 0.577107 -0.11518 0.693065 -0.119505 0.486552 -0.429565 0.595778 -0.445859 0.519559 -0.336408 0.634965 -0.339398 0.395626 -0.610946 0.504234 -0.653126 0.446422 -0.530221 0.554877 -0.543019 0.313412 -0.763098 0.419104 -0.814039 -0.325826 1.79844 -0.263564 1.89937 -0.487628 1.88833 -0.435709 1.99414 -0.103001 1.7939 -0.174797 1.70605 0.051734 1.67142 -0.017863 1.73318 -0.045671 1.61873 -0.095997 1.66055 0.203128 1.51727 0.128092 1.59568 0.099784 1.4598 0.026996 1.54747 0.347602 1.35513 0.277268 1.43788 0.245313 1.28959 0.176261 1.37885 0.47394 1.18301 0.414934 1.27002 0.38039 1.12274 0.315617 1.20477 0.845946 1.08447 0.790069 1.18923 0.935718 0.882954 0.993 0.673647 1.01763 0.454577 1.01763 0.214535 1.02131 0.336791 0.990936 -0.038475 1.00755 0.090077 0.931767 -0.295459 0.964233 -0.167897 0.850248 -0.53598 0.892966 -0.419564 0.76083 -0.752571 0.804496 -0.648167 0.674177 -0.942133 -0.140291 2.15601 -0.316929 2.25443 0.03191 2.03311 0.220688 1.87816 0.124145 1.9598 0.403844 1.69806 0.31362 1.79172 0.575869 1.50081 0.492034 1.60184 0.724698 1.2946 0.654042 1.39802 0.364561 0.030595 0.450761 0.284126 0.066187 1.10743 -0.119185 1.30548 -0.186686 1.36389 0.296733 -0.489785 0.468723 0.326159 0.277231 0.934304 -0.123794 1.32353</float_array>
          <technique_common>
            <accessor source="#polySurfaceShape1-Geometry-mesh025-Texture-array" count="599" stride="2">
              <param name="S" type="float"/>
              <param name="T" type="float"/>
            </accessor>
          </technique_common>
        </source>
        <vertices id="polySurfaceShape1-vertices" name="polySurfaceShape1-vertices">
          <input semantic="POSITION" source="#polySurfaceShape1-positions"/>
          <input semantic="NORMAL" source="#polySurfaceShape1-normals"/>
        </vertices>
        <triangles material="tunnel_MATSG" count="938">
          <input semantic="VERTEX" source="#polySurfaceShape1-vertices" offset="0"/>
          <input semantic="TEXCOORD" source="#polySurfaceShape1-Geometry-mesh025-Texture" offset="1" set="1"/>
          <p>0 407 74 408 132 409 1 410 73 411 138 412 1 410 72 413 2 414 2 414 72 413 71 415 71 415 70 416 2 414 2 414 70 416 3 417 70 418 69 419 3 420 3 420 69 419 4 421 4 422 69 419 144 423 68 424 150 425 4 426 4 426 150 425 5 427 5 428 67 429 108 430 6 431 66 432 114 433 7 434 65 435 156 436 7 437 64 438 8 439 8 439 64 438 63 440 8 441 63 440 9 442 9 442 63 440 62 443 62 443 61 444 9 445 9 445 61 444 10 446 10 447 61 444 162 448 10 449 60 450 120 451 11 452 75 453 126 454 29 455 93 456 165 457 165 457 93 456 166 458 30 459 94 460 29 455 29 455 94 460 93 456 31 461 95 462 30 459 30 459 95 462 94 460 32 463 96 464 31 461 31 461 96 464 95 462 33 465 97 466 159 467 159 467 97 466 160 468 98 469 118 470 34 471 34 471 118 470 117 472 35 473 99 474 111 475 111 475 99 474 112 476 100 477 154 478 36 479 36 479 154 478 153 480 101 481 148 482 37 483 37 483 148 482 147 484 102 485 101 481 38 486 38 486 101 481 37 483 103 487 102 488 39 489 39 489 102 488 38 490 104 491 103 487 40 492 40 492 103 487 39 489 41 493 105 494 141 495 141 495 105 494 142 496 42 497 106 498 135 499 135 499 106 498 136 500 43 501 107 502 129 503 129 503 107 502 130 504 92 505 124 506 28 507 28 507 124 506 123 508 77 509 164 510 45 511 45 511 164 510 163 512 78 513 77 509 46 514 46 514 77 509 45 511 79 515 78 513 47 516 47 516 78 513 46 514 48 517 80 518 47 516 47 516 80 518 79 515 49 519 81 520 157 521 157 521 81 520 158 522 50 523 82 524 115 525 115 525 82 524 116 526 51 527 83 528 109 529 109 529 83 528 110 530 52 531 84 532 151 533 151 533 84 532 152 534 53 535 85 536 145 537 145 537 85 536 146 538 54 539 86 540 53 535 53 535 86 540 85 536 55 541 87 542 54 543 54 543 87 542 86 544 88 545 87 542 56 546 56 546 87 542 55 541 89 547 140 548 57 549 57 549 140 548 139 550 90 551 134 552 58 553 58 553 134 552 133 554 91 555 128 556 59 557 59 557 128 556 127 558 76 559 122 560 44 561 44 561 122 560 121 562 61 444 45 511 162 448 162 448 45 511 163 512 62 443 46 514 61 444 61 444 46 514 45 511 63 440 47 516 62 443 62 443 47 516 46 514 64 438 48 517 63 440 63 440 48 517 47 516 65 435 49 519 156 436 156 436 49 519 157 521 66 432 50 523 114 433 114 433 50 523 115 525 67 429 51 527 108 430 108 430 51 527 109 529 68 424 52 531 150 425 150 425 52 531 151 533 69 419 53 535 144 423 70 418 54 539 69 419 69 419 54 539 53 535 55 541 54 543 71 415 71 415 54 543 70 416 56 546 55 541 72 413 72 413 55 541 71 415 57 549 139 550 73 411 73 411 139 550 138 412 58 553 133 554 74 408 74 408 133 554 132 409 59 557 127 558 75 453 75 453 127 558 126 454 44 561 121 562 60 450 60 450 121 562 120 451 29 455 165 457 77 509 77 509 165 457 164 510 30 459 29 455 78 513 78 513 29 455 77 509 31 461 30 459 79 515 79 515 30 459 78 513 32 463 31 461 80 518 80 518 31 461 79 515 81 520 33 465 158 522 158 522 33 465 159 467 82 524 34 471 116 526 116 526 34 471 117 472 83 528 35 473 110 530 110 530 35 473 111 475 84 532 36 479 152 534 152 534 36 479 153 480 85 536 37 483 146 538 146 538 37 483 147 484 86 540 38 486 85 536 85 536 38 486 37 483 87 542 39 489 86 544 86 544 39 489 38 490 88 545 40 492 87 542 87 542 40 492 39 489 89 547 41 493 140 548 140 548 41 493 141 495 42 497 135 499 90 551 90 551 135 499 134 552 43 501 129 503 91 555 91 555 129 503 128 556 28 507 123 508 76 559 76 559 123 508 122 560 25 563 167 564 93 456 93 456 167 564 166 458 24 565 25 563 94 460 94 460 25 563 93 456 23 566 24 565 95 462 95 462 24 565 94 460 22 567 23 566 96 464 96 464 23 566 95 462 97 466 21 568 160 468 160 468 21 568 161 569 98 469 20 570 118 470 118 470 20 570 119 571 19 572 113 573 99 474 99 474 113 573 112 476 18 574 155 575 100 477 100 477 155 575 154 478 17 576 149 577 101 481 101 481 149 577 148 482 16 578 17 576 102 485 102 485 17 576 101 481 15 579 16 580 103 487 103 487 16 580 102 488 14 581 15 579 104 491 104 491 15 579 103 487 13 582 143 583 105 494 105 494 143 583 142 496 12 584 137 585 106 498 106 498 137 585 136 500 27 586 131 587 107 502 107 502 131 587 130 504 26 588 125 589 92 505 92 505 125 589 124 506 6 590 108 430 66 432 50 523 66 432 109 529 109 529 66 432 108 430 82 524 50 523 110 530 110 530 50 523 109 529 34 471 82 524 111 475 111 475 82 524 110 530 98 469 34 471 112 476 112 476 34 471 111 475 113 573 20 570 112 476 112 476 20 570 98 469 7 591 114 433 65 435 49 519 65 435 115 525 115 525 65 435 114 433 81 520 49 519 116 526 116 526 49 519 115 525 33 465 81 520 117 472 117 472 81 520 116 526 118 470 97 466 117 472 117 472 97 466 33 465 21 568 97 466 119 571 119 571 97 466 118 470 10 449 120 451 11 592 121 562 59 557 120 451 120 451 59 557 75 453 122 560 91 555 121 562 121 562 91 555 59 557 123 508 43 501 122 560 122 560 43 501 91 555 124 506 107 502 123 508 123 508 107 502 43 501 125 589 27 586 124 506 124 506 27 586 107 502 11 452 126 454 0 593 127 558 58 553 126 454 126 454 58 553 74 408 128 556 90 551 127 558 127 558 90 551 58 553 129 503 42 497 128 556 128 556 42 497 90 551 106 498 42 497 130 504 130 504 42 497 129 503 131 587 12 584 130 504 130 504 12 584 106 498 0 594 132 409 73 411 133 554 57 549 132 409 132 409 57 549 73 411 134 552 89 547 133 554 133 554 89 547 57 549 41 493 89 547 135 499 135 499 89 547 134 552 105 494 41 493 136 500 136 500 41 493 135 499 137 585 13 582 136 500 136 500 13 582 105 494 1 410 138 412 72 413 139 550 56 546 138 412 140 548 88 545 139 550 139 550 88 545 56 546 40 492 88 545 141 495 141 495 88 545 140 548 104 491 40 492 142 496 142 496 40 492 141 495 14 581 104 491 143 583 143 583 104 491 142 496 4 595 144 423 68 424 52 531 68 424 145 537 145 537 68 424 144 423 84 532 52 531 146 538 146 538 52 531 145 537 36 479 84 532 147 484 147 484 84 532 146 538 148 482 100 477 147 484 147 484 100 477 36 479 149 577 18 574 148 482 148 482 18 574 100 477 5 428 150 425 67 429 51 527 67 429 151 533 151 533 67 429 150 425 83 528 51 527 152 534 152 534 51 527 151 533 35 473 83 528 153 480 153 480 83 528 152 534 99 474 35 473 154 478 154 478 35 473 153 480 155 575 19 572 154 478 154 478 19 572 99 474 7 596 156 436 64 438 48 517 64 438 157 521 157 521 64 438 156 436 80 518 48 517 158 522 158 522 48 517 157 521 32 463 80 518 159 467 159 467 80 518 158 522 96 464 32 463 160 468 160 468 32 463 159 467 22 567 96 464 161 569 161 569 96 464 160 468 10 597 162 448 60 450 163 512 44 561 162 448 162 448 44 561 60 450 164 510 76 559 163 512 163 512 76 559 44 561 165 457 28 507 164 510 164 510 28 507 76 559 92 505 28 507 166 458 166 458 28 507 165 457 167 564 26 588 166 458 166 458 26 588 92 505 11 592 120 451 75 453 6 431 114 433 7 591 5 428 108 430 6 590 0 598 126 454 74 408 0 594 73 411 1 410 144 423 53 535 145 537 138 412 56 546 72 413 194 0 248 1 195 2 195 3 248 4 196 5 196 5 248 4 247 6 196 5 247 6 298 7 298 7 247 6 299 8 197 9 246 10 305 11 305 11 246 10 306 12 198 13 245 14 275 15 275 15 245 14 276 16 244 17 283 18 199 19 199 19 283 18 282 20 243 21 313 22 200 23 200 23 313 22 312 24 242 25 241 26 201 27 201 27 241 26 202 28 202 28 240 29 375 30 428 31 260 32 427 33 427 33 260 32 319 34 219 35 261 36 428 31 428 31 261 36 260 32 220 37 262 38 219 35 219 35 262 38 261 36 263 39 262 38 221 40 221 40 262 38 220 37 264 41 317 42 222 43 222 43 317 42 316 44 265 45 287 46 223 47 223 47 287 46 286 48 266 49 280 50 224 51 224 51 280 50 279 52 225 53 267 54 309 55 309 55 267 54 310 56 226 57 268 58 302 59 302 59 268 58 303 60 227 61 269 62 226 57 226 57 269 62 268 58 228 63 270 64 227 65 227 65 270 64 269 66 271 67 270 64 229 68 229 68 270 64 228 63 272 69 296 70 420 71 420 71 296 70 295 72 422 73 273 74 421 75 421 75 273 74 293 76 424 77 274 78 423 79 423 79 274 78 291 80 426 81 259 82 425 83 425 83 259 82 289 84 250 85 249 86 231 87 231 87 249 86 230 88 251 89 250 85 232 90 232 90 250 85 231 87 252 91 315 92 233 93 233 93 315 92 314 94 253 95 285 96 234 97 234 97 285 96 284 98 235 99 254 100 277 101 277 101 254 100 278 102 236 103 255 104 307 105 307 105 255 104 308 106 237 107 256 108 300 109 300 109 256 108 301 110 238 111 257 112 237 107 237 107 257 112 256 108 239 113 258 114 238 115 238 115 258 114 257 116 239 113 419 117 258 114 231 87 230 88 241 26 241 26 230 88 240 29 242 25 232 90 241 26 241 26 232 90 231 87 233 93 314 94 243 21 243 21 314 94 313 22 244 17 234 97 283 18 283 18 234 97 284 98 245 14 235 99 276 16 276 16 235 99 277 101 246 10 236 103 306 12 306 12 236 103 307 105 247 6 237 107 299 8 299 8 237 107 300 109 248 4 238 111 247 6 247 6 238 111 237 107 194 0 239 113 248 1 248 1 239 113 238 115 250 85 220 37 249 86 249 86 220 37 219 35 221 40 220 37 251 89 251 89 220 37 250 85 222 43 316 44 252 91 252 91 316 44 315 92 223 47 286 48 253 95 253 95 286 48 285 96 224 51 279 52 254 100 254 100 279 52 278 102 225 53 309 55 255 104 255 104 309 55 308 106 226 57 302 59 256 108 256 108 302 59 301 110 227 61 226 57 257 112 257 112 226 57 256 108 228 63 227 65 258 114 258 114 227 65 257 116 229 68 228 63 419 117 419 117 228 63 258 114 260 32 216 118 319 34 319 34 216 118 320 119 261 36 215 120 260 32 260 32 215 120 216 118 214 121 215 120 262 38 262 38 215 120 261 36 213 122 214 121 263 39 263 39 214 121 262 38 212 123 318 124 264 41 264 41 318 124 317 42 211 125 288 126 265 45 265 45 288 126 287 46 266 49 210 127 280 50 280 50 210 127 281 128 267 54 209 129 310 56 310 56 209 129 311 130 268 58 208 131 303 60 303 60 208 131 304 132 269 62 207 133 268 58 268 58 207 133 208 131 206 134 207 135 270 64 270 64 207 135 269 66 205 136 206 134 271 67 271 67 206 134 270 64 204 137 297 138 272 69 272 69 297 138 296 70 203 139 294 140 273 74 273 74 294 140 293 76 218 141 292 142 274 78 274 78 292 142 291 80 259 82 217 143 289 84 289 84 217 143 290 144 275 15 276 16 199 19 199 19 276 16 244 17 234 97 244 17 277 101 277 101 244 17 276 16 278 102 253 95 277 101 277 101 253 95 234 97 279 52 223 47 278 102 278 102 223 47 253 95 280 50 265 45 279 52 279 52 265 45 223 47 211 125 265 45 281 128 281 128 265 45 280 50 283 18 243 21 282 20 282 20 243 21 200 23 284 98 233 93 283 18 283 18 233 93 243 21 285 96 252 91 284 98 284 98 252 91 233 93 286 48 222 43 285 96 285 96 222 43 252 91 287 46 264 41 286 48 286 48 264 41 222 43 288 126 212 123 287 46 287 46 212 123 264 41 274 78 424 77 289 84 289 84 424 77 425 83 218 141 274 78 290 144 290 144 274 78 289 84 291 80 273 74 423 79 423 79 273 74 422 73 292 142 203 139 291 80 291 80 203 139 273 74 272 69 420 71 293 76 293 76 420 71 421 75 294 140 204 137 293 76 293 76 204 137 272 69 295 72 229 68 419 117 296 70 271 67 295 72 295 72 271 67 229 68 297 138 205 136 296 70 296 70 205 136 271 67 298 7 299 8 197 9 197 9 299 8 246 10 236 103 246 10 300 109 300 109 246 10 299 8 255 104 236 103 301 110 301 110 236 103 300 109 302 59 225 53 301 110 301 110 225 53 255 104 267 54 225 53 303 60 303 60 225 53 302 59 209 129 267 54 304 132 304 132 267 54 303 60 305 11 306 12 198 13 198 13 306 12 245 14 235 99 245 14 307 105 307 105 245 14 306 12 254 100 235 99 308 106 308 106 235 99 307 105 309 55 224 51 308 106 308 106 224 51 254 100 266 49 224 51 310 56 310 56 224 51 309 55 210 127 266 49 311 130 311 130 266 49 310 56 313 22 242 25 312 24 312 24 242 25 201 27 232 90 242 25 314 94 314 94 242 25 313 22 315 92 251 89 314 94 314 94 251 89 232 90 316 44 221 40 315 92 315 92 221 40 251 89 317 42 263 39 316 44 316 44 263 39 221 40 318 124 213 122 317 42 317 42 213 122 263 39 319 34 259 82 427 33 427 33 259 82 426 81 217 143 259 82 320 119 320 119 259 82 319 34 175 145 361 146 191 147 191 147 361 146 397 148 174 149 360 150 190 151 190 151 360 150 399 152 173 153 359 154 172 155 172 155 359 154 358 156 172 155 358 156 171 157 171 157 358 156 357 158 171 159 357 160 170 161 170 161 357 160 356 162 356 162 401 163 170 161 170 161 401 163 189 164 355 165 406 166 169 167 169 167 406 166 188 168 168 169 354 170 187 171 187 171 354 170 383 172 183 173 353 174 186 175 186 175 353 174 388 176 182 177 352 178 193 179 193 179 352 178 411 180 181 181 351 182 180 183 180 183 351 182 350 184 350 184 349 185 180 183 180 183 349 185 179 186 349 185 348 187 179 186 179 186 348 187 178 188 348 187 416 189 178 188 178 188 416 189 192 190 347 191 393 192 177 193 177 193 393 192 185 194 176 195 362 196 184 197 184 197 362 196 395 198 322 199 376 200 321 201 321 201 376 200 375 30 323 202 377 203 322 199 322 199 377 203 376 200 324 204 378 205 414 206 414 206 378 205 415 207 325 208 379 209 391 210 391 210 379 209 392 211 326 212 380 213 386 214 386 214 380 213 387 215 327 216 381 217 409 218 409 218 381 217 410 219 382 220 405 221 328 222 328 222 405 221 404 223 195 3 382 220 329 224 329 224 382 220 328 222 194 0 195 2 330 225 330 225 195 2 329 226 333 227 364 228 332 229 332 229 364 228 363 230 334 231 365 232 333 227 333 227 365 232 364 228 335 233 366 234 334 231 334 231 366 234 365 232 336 235 367 236 412 237 412 237 367 236 413 238 337 239 368 240 389 241 389 241 368 240 390 242 338 243 369 244 384 245 384 245 369 244 385 246 370 247 408 248 339 249 339 249 408 248 407 250 371 251 403 252 340 253 340 253 403 252 402 254 372 255 371 251 341 256 341 256 371 251 340 253 373 257 372 258 342 259 342 259 372 258 341 260 343 261 374 262 342 259 342 259 374 262 373 257 348 187 332 229 416 189 416 189 332 229 417 263 349 185 333 227 348 187 348 187 333 227 332 229 350 184 334 231 349 185 349 185 334 231 333 227 351 182 335 233 350 184 350 184 335 233 334 231 352 178 336 235 411 180 411 180 336 235 412 237 353 174 337 239 388 176 388 176 337 239 389 241 338 243 384 245 354 170 354 170 384 245 383 172 339 249 407 250 355 165 355 165 407 250 406 166 340 253 402 254 356 162 356 162 402 254 401 163 341 256 340 253 357 160 357 160 340 253 356 162 342 259 341 260 358 156 358 156 341 260 357 158 343 261 342 259 359 154 359 154 342 259 358 156 344 264 400 265 360 150 360 150 400 265 399 152 345 266 398 267 361 146 361 146 398 267 397 148 346 268 396 269 362 196 362 196 396 269 395 198 331 270 394 271 347 191 347 191 394 271 393 192 322 199 321 201 365 232 365 232 321 201 364 228 323 202 322 199 366 234 366 234 322 199 365 232 367 236 324 204 413 238 413 238 324 204 414 206 368 240 325 208 390 242 390 242 325 208 391 210 369 244 326 212 385 246 385 246 326 212 386 214 370 247 327 216 408 248 408 248 327 216 409 218 371 251 328 222 403 252 403 252 328 222 404 223 329 224 328 222 372 255 372 255 328 222 371 251 373 257 330 225 372 258 372 258 330 225 329 226 374 262 330 225 373 257 201 27 202 28 377 203 377 203 202 28 376 200 200 23 312 24 378 205 378 205 312 24 415 207 199 19 282 20 379 209 379 209 282 20 392 211 380 213 198 13 387 215 387 215 198 13 275 15 381 217 197 9 410 219 410 219 197 9 305 11 382 220 196 5 405 221 405 221 196 5 298 7 195 3 196 5 382 220 187 171 383 172 183 173 183 173 383 172 353 174 337 239 353 174 384 245 384 245 353 174 383 172 368 240 337 239 385 246 385 246 337 239 384 245 325 208 368 240 386 214 386 214 368 240 385 246 379 209 325 208 387 215 387 215 325 208 386 214 199 19 379 209 275 15 275 15 379 209 387 215 186 175 388 176 182 177 182 177 388 176 352 178 336 235 352 178 389 241 389 241 352 178 388 176 367 236 336 235 390 242 390 242 336 235 389 241 324 204 367 236 391 210 391 210 367 236 390 242 378 205 324 204 392 211 392 211 324 204 391 210 282 20 200 23 392 211 392 211 200 23 378 205 393 192 362 196 185 194 185 194 362 196 176 195 394 271 346 268 393 192 393 192 346 268 362 196 184 197 395 198 175 145 175 145 395 198 361 146 396 269 345 266 395 198 395 198 345 266 361 146 191 147 397 148 174 149 174 149 397 148 360 150 398 267 344 264 397 148 397 148 344 264 360 150 190 151 399 152 173 153 173 153 399 152 359 154 343 261 359 154 400 265 400 265 359 154 399 152 400 265 374 262 343 261 401 163 355 165 189 164 189 164 355 165 169 167 402 254 339 249 401 163 401 163 339 249 355 165 403 252 370 247 402 254 402 254 370 247 339 249 327 216 370 247 404 223 404 223 370 247 403 252 381 217 327 216 405 221 405 221 327 216 404 223 197 9 381 217 298 7 298 7 381 217 405 221 406 166 354 170 188 168 188 168 354 170 168 169 407 250 338 243 406 166 406 166 338 243 354 170 408 248 369 244 407 250 407 250 369 244 338 243 326 212 369 244 409 218 409 218 369 244 408 248 380 213 326 212 410 219 410 219 326 212 409 218 198 13 380 213 305 11 305 11 380 213 410 219 193 179 411 180 181 181 181 181 411 180 351 182 335 233 351 182 412 237 412 237 351 182 411 180 366 234 335 233 413 238 413 238 335 233 412 237 323 202 366 234 414 206 414 206 366 234 413 238 377 203 323 202 415 207 415 207 323 202 414 206 312 24 201 27 415 207 415 207 201 27 377 203 416 189 347 191 192 190 192 190 347 191 177 193 331 270 347 191 417 263 417 263 347 191 416 189 418 272 331 270 417 263 363 230 418 272 332 229 332 229 418 272 417 263 364 228 321 201 363 230 202 28 375 30 376 200 202 28 241 26 240 29 12 273 464 274 137 275 137 275 464 274 484 276 13 277 463 278 143 279 143 279 463 278 486 280 14 281 462 282 15 283 15 283 462 282 461 284 15 283 461 284 16 285 16 285 461 284 460 286 16 287 460 288 17 289 17 289 460 288 459 290 459 290 489 291 17 289 17 289 489 291 149 292 458 293 492 294 18 295 18 295 492 294 155 296 19 297 457 298 113 299 113 299 457 298 476 300 20 301 456 302 119 303 119 303 456 302 478 304 21 305 455 306 161 307 161 307 455 306 494 308 22 309 454 310 23 311 23 311 454 310 453 312 453 312 452 313 23 311 23 311 452 313 24 314 452 313 451 315 24 314 24 314 451 315 25 316 451 315 497 317 25 316 25 316 497 317 167 318 450 319 480 320 26 321 26 321 480 320 125 322 27 323 465 324 131 325 131 325 465 324 482 326 321 327 375 328 431 329 363 330 321 327 431 329 432 331 194 332 330 333 435 334 467 335 498 336 498 336 467 335 499 337 436 338 468 339 435 334 435 334 468 339 467 335 437 340 469 341 436 338 436 338 469 341 468 339 470 342 469 341 438 343 438 343 469 341 437 340 439 344 331 345 496 346 440 347 346 348 479 349 479 349 346 348 394 350 345 351 396 352 441 353 441 353 396 352 477 354 442 355 344 356 493 357 493 357 344 356 398 358 443 359 471 360 490 361 490 361 471 360 491 362 444 363 472 364 443 359 443 359 472 364 471 360 473 365 472 366 445 367 445 367 472 366 444 368 474 369 473 365 446 370 446 370 473 365 445 367 475 371 488 372 447 373 447 373 488 372 487 374 448 375 422 376 485 377 485 377 422 376 421 378 449 379 424 380 483 381 483 381 424 380 423 382 434 383 466 384 481 385 481 385 466 384 425 386 451 315 435 334 497 317 497 317 435 334 498 336 452 313 436 338 451 315 451 315 436 338 435 334 453 312 437 340 452 313 452 313 437 340 436 338 454 310 438 343 453 312 453 312 438 343 437 340 439 344 495 387 455 306 455 306 495 387 494 308 456 302 440 347 478 304 478 304 440 347 479 349 441 353 477 354 457 298 457 298 477 354 476 300 458 293 442 355 492 294 492 294 442 355 493 357 459 290 443 359 489 291 489 291 443 359 490 361 444 363 443 359 460 288 460 288 443 359 459 290 445 367 444 368 461 284 461 284 444 368 460 286 446 370 445 367 462 282 462 282 445 367 461 284 447 373 487 374 463 278 463 278 487 374 486 280 448 375 485 377 464 274 464 274 485 377 484 276 465 324 449 379 482 326 482 326 449 379 483 381 450 319 434 383 480 320 480 320 434 383 481 385 468 339 430 388 467 335 467 335 430 388 429 389 431 329 430 388 469 341 469 341 430 388 468 339 363 330 431 329 470 342 470 342 431 329 469 341 331 345 418 390 496 346 471 360 374 391 491 362 491 362 374 391 400 392 472 364 432 393 471 360 471 360 432 393 374 391 473 365 433 394 472 366 472 366 433 394 432 331 419 395 433 394 474 369 474 369 433 394 473 365 420 396 295 397 475 371 475 371 295 397 488 372 113 299 476 300 20 301 20 301 476 300 456 302 477 354 440 347 476 300 476 300 440 347 456 302 346 348 440 347 396 352 396 352 440 347 477 354 119 303 478 304 21 305 21 305 478 304 455 306 479 349 439 344 478 304 478 304 439 344 455 306 394 350 331 345 479 349 479 349 331 345 439 344 480 320 465 324 125 322 125 322 465 324 27 323 449 379 465 324 481 385 481 385 465 324 480 320 424 380 449 379 425 386 425 386 449 379 481 385 131 325 482 326 12 273 12 273 482 326 464 274 483 381 448 375 482 326 482 326 448 375 464 274 423 382 422 376 483 381 483 381 422 376 448 375 137 275 484 276 13 277 13 277 484 276 463 278 485 377 447 373 484 276 484 276 447 373 463 278 421 378 475 371 485 377 485 377 475 371 447 373 421 378 420 396 475 371 143 279 486 280 14 281 14 281 486 280 462 282 487 374 446 370 486 280 486 280 446 370 462 282 488 372 474 369 487 374 487 374 474 369 446 370 295 397 419 395 488 372 488 372 419 395 474 369 489 291 458 293 149 292 149 292 458 293 18 295 442 355 458 293 490 361 490 361 458 293 489 291 344 356 442 355 491 362 491 362 442 355 490 361 492 294 457 298 155 296 155 296 457 298 19 297 441 353 457 298 493 357 493 357 457 298 492 294 345 351 441 353 398 358 398 358 441 353 493 357 161 307 494 308 22 309 22 309 494 308 454 310 438 343 454 310 495 387 495 387 454 310 494 308 496 346 470 342 495 387 495 387 470 342 438 343 418 390 363 330 496 346 496 346 363 330 470 342 497 317 450 319 167 318 167 318 450 319 26 321 434 383 450 319 498 336 498 336 450 319 497 317 466 384 434 383 499 337 499 337 434 383 498 336 432 393 330 398 374 391 419 395 239 399 433 394 433 394 239 399 194 332 433 394 194 332 432 331 400 392 344 356 491 362 439 344 496 346 495 387 431 329 375 328 430 388 430 388 375 328 240 400 466 384 426 401 425 386 426 401 466 384 427 402 427 402 466 384 499 337 499 337 429 389 427 402 427 402 429 389 428 403 429 389 219 404 428 403 467 335 429 389 499 337 430 388 230 405 429 389 429 389 230 405 249 406 429 389 249 406 219 404 430 388 240 400 230 405</p>
        </triangles>
      </mesh>
      <extra>
        <technique profile="OpenCOLLADAMaya">
          <originalMayaNodeId>polySurfaceShape1</originalMayaNodeId>
          <double_sided>1</double_sided>
        </technique>
      </extra>
    </geometry>
  </library_geometries>
  <library_visual_scenes>
    <visual_scene id="VisualSceneNode" name="tunnel_theta_3way">
      <node id="polySurface1" name="polySurface1" type="NODE">
        <translate sid="translate">0 0 0</translate>
        <rotate sid="rotateZ">0 0 1 0</rotate>
        <rotate sid="rotateY">0 1 0 0</rotate>
        <rotate sid="rotateX">1 0 0 0</rotate>
        <scale sid="scale">1 1 1</scale>
        <instance_geometry url="#polySurfaceShape1">
          <bind_material>
            <technique_common>
              <instance_material symbol="tunnel_MATSG" target="#tunnel_MAT">
                <bind_vertex_input semantic="TEX0" input_semantic="TEXCOORD" input_set="1"/>
              </instance_material>
            </technique_common>
          </bind_material>
        </instance_geometry>
        <extra>
          <technique profile="OpenCOLLADAMaya">
            <originalMayaNodeId>polySurface1</originalMayaNodeId>
          </technique>
        </extra>
      </node>
    </visual_scene>
  </library_visual_scenes>
  <scene>
    <instance_visual_scene url="#VisualSceneNode"/>
  </scene>
</COLLADA>