<?xml version="1.0" encoding="utf-8"?>
<COLLADA xmlns="http://www.collada.org/2005/11/COLLADASchema" version="1.4.1">
  <asset><contributor><author></author><authoring_tool>FBX COLLADA exporter</authoring_tool><comments></comments></contributor><created>2015-02-13T12:55:38Z</created><keywords></keywords><modified>2015-02-13T12:55:38Z</modified><revision></revision><subject></subject><title></title><unit meter="1.000000" name="centimeter"></unit><up_axis>Y_UP</up_axis></asset>
  <library_images>
    <image id="Map #4-image" name="Map #4"><init_from>file://D:\SOMA\trunk\redist\static_objects\station\tunnel\phi_tunnel_railing_orange.dds</init_from></image>
  </library_images>
  <library_materials>
    <material id="_01 - Default" name="_01 - Default">
      <instance_effect url="#_01 - Default-fx"/>
    </material>
  </library_materials>
  <library_effects>
    <effect id="_01 - Default-fx" name="_01 - Default">
      <profile_COMMON>
        <technique sid="standard">
          <phong>
            <emission>
              <color sid="emission">0.000000  0.000000 0.000000 1.000000</color>
            </emission>
            <ambient>
              <color sid="ambient">0.588235  0.588235 0.588235 1.000000</color>
            </ambient>
            <diffuse>
              <texture texture="Map #4-image" texcoord="CHANNEL0">
                <extra>
                  <technique profile="MAYA">
                    <wrapU sid="wrapU0">TRUE</wrapU>
                    <wrapV sid="wrapV0">TRUE</wrapV>
                    <blend_mode>ADD</blend_mode>
                  </technique>
                </extra>
              </texture>
            </diffuse>
            <specular>
              <color sid="specular">0.000000  0.000000 0.000000 1.000000</color>
            </specular>
            <shininess>
              <float sid="shininess">2.000000</float>
            </shininess>
            <reflective>
              <color sid="reflective">0.000000  0.000000 0.000000 1.000000</color>
            </reflective>
            <reflectivity>
              <float sid="reflectivity">1.000000</float>
            </reflectivity>
            <transparent opaque="RGB_ZERO">
              <color sid="transparent">1.000000  1.000000 1.000000 1.000000</color>
            </transparent>
            <transparency>
              <float sid="transparency">0.000000</float>
            </transparency>
          </phong>
        </technique>
      </profile_COMMON>
    </effect>
  </library_effects>
  <library_geometries>
    <geometry id="Object019-Pivot-lib" name="Object019-PivotMesh">
      <mesh>
        <source id="Object019-Pivot-POSITION">
          <float_array id="Object019-Pivot-POSITION-array" count="48">
4.267002 1.561755 -1.303044
4.267002 1.535535 -1.292183
-7.060707 1.561755 -1.303044
-7.060707 1.535535 -1.292183
4.267002 1.587975 -1.292183
-7.060707 1.587975 -1.292183
4.267002 1.598835 -1.265964
-7.060707 1.598835 -1.265964
4.267002 1.535535 -1.239744
-7.060707 1.535535 -1.239744
4.267002 1.524675 -1.265964
-7.060707 1.524675 -1.265964
4.267002 1.587975 -1.239744
-7.060707 1.587975 -1.239744
4.267002 1.561755 -1.228884
-7.060707 1.561755 -1.228884
</float_array>
          <technique_common>
            <accessor source="#Object019-Pivot-POSITION-array" count="16" stride="3">
              <param name="X" type="float"/>
              <param name="Y" type="float"/>
              <param name="Z" type="float"/>
            </accessor>
          </technique_common>
        </source>
        <source id="Object019-Pivot-Normal0">
          <float_array id="Object019-Pivot-Normal0-array" count="144">
0.000000 0.000001 -1.000000
0.000000 -0.707111 -0.707103
0.000000 -0.000001 -1.000000
0.000000 -0.000001 -1.000000
0.000000 -0.707111 -0.707103
0.000000 -0.707111 -0.707102
0.000000 0.707115 -0.707099
0.000000 0.000001 -1.000000
0.000000 0.707115 -0.707099
0.000000 0.707115 -0.707099
0.000000 0.000001 -1.000000
0.000000 -0.000001 -1.000000
0.000000 0.707115 -0.707099
0.000000 0.707115 -0.707099
0.000000 1.000000 -0.000007
0.000000 1.000000 -0.000005
0.000000 1.000000 -0.000007
0.000000 0.707115 -0.707099
0.000000 -0.707104 0.707109
0.000000 -0.707106 0.707108
0.000000 -1.000000 -0.000006
0.000000 -1.000000 -0.000008
0.000000 -1.000000 -0.000006
0.000000 -0.707106 0.707108
0.000000 1.000000 -0.000007
0.000000 1.000000 -0.000005
0.000000 0.707106 0.707108
0.000000 0.707104 0.707109
0.000000 0.707106 0.707108
0.000000 1.000000 -0.000005
0.000000 -0.000002 1.000000
0.000000 -0.000005 1.000000
0.000000 -0.707104 0.707109
0.000000 -0.707106 0.707108
0.000000 -0.707104 0.707109
0.000000 -0.000005 1.000000
0.000000 0.707106 0.707108
0.000000 0.707104 0.707109
0.000000 -0.000002 1.000000
0.000000 -0.000005 1.000000
0.000000 -0.000002 1.000000
0.000000 0.707104 0.707109
0.000000 -1.000000 -0.000006
0.000000 -1.000000 -0.000008
0.000000 -0.707111 -0.707103
0.000000 -0.707111 -0.707102
0.000000 -0.707111 -0.707103
0.000000 -1.000000 -0.000008
</float_array>
          <technique_common>
            <accessor source="#Object019-Pivot-Normal0-array" count="48" stride="3">
              <param name="X" type="float"/>
              <param name="Y" type="float"/>
              <param name="Z" type="float"/>
            </accessor>
          </technique_common>
        </source>
        <source id="Object019-Pivot-UV0">
          <float_array id="Object019-Pivot-UV0-array" count="38">
0.311724 0.945123
0.311751 0.972424
-4.531202 0.950239
-4.530375 0.994904
0.311724 0.917730
-4.531042 0.900524
0.311733 0.890198
-4.531221 0.890216
0.311736 0.807853
-4.531219 0.807870
0.311730 0.780425
-4.530642 0.780400
0.311736 0.862750
-4.531219 0.862768
0.311736 0.835302
-4.531219 0.835319
0.311748 0.999989
-4.532378 1.000042
-4.487679 1.019571
</float_array>
          <technique_common>
            <accessor source="#Object019-Pivot-UV0-array" count="19" stride="2">
              <param name="S" type="float"/>
              <param name="T" type="float"/>
            </accessor>
          </technique_common>
        </source>
        <vertices id="Object019-Pivot-VERTEX">
          <input semantic="POSITION" source="#Object019-Pivot-POSITION"/>
        </vertices>
        <triangles count="16" material="_01 - Default"><input semantic="VERTEX" offset="0" source="#Object019-Pivot-VERTEX"/><input semantic="NORMAL" offset="1" source="#Object019-Pivot-Normal0"/><input semantic="TEXCOORD" offset="2" set="0" source="#Object019-Pivot-UV0"/><p> 0 0 0 1 1 1 2 2 2 2 3 2 1 4 1 3 5 3 4 6 4 0 7 0 5 8 5 5 9 5 0 10 0 2 11 2 4 12 4 5 13 5 6 14 6 7 15 7 6 16 6 5 17 5 8 18 8 9 19 9 10 20 10 11 21 11 10 22 10 9 23 9 6 24 6 7 25 7 12 26 12 13 27 13 12 28 12 7 29 7 14 30 14 15 31 15 8 32 8 9 33 9 8 34 8 15 35 15 12 36 12 13 37 13 14 38 14 15 39 15 14 40 14 13 41 13 10 42 16 11 43 17 1 44 1 3 45 3 1 46 1 11 47 18</p></triangles>
      </mesh>
    </geometry>
  </library_geometries>
  <library_visual_scenes>
    <visual_scene id="05_01_adon_railing" name="05_01_adon_railing">
      <node name="Object019-Pivot" id="Object019-Pivot" sid="Object019-Pivot"><translate sid="translate">0.987928 -1.075523 0.877767</translate><rotate sid="jointOrientX">1 0 0 -90.000000</rotate><rotate sid="rotateX">1 0 0 90.000009</rotate><scale sid="scale">0.692018 0.692018 0.692018</scale><instance_geometry url="#Object019-Pivot-lib"><bind_material><technique_common><instance_material symbol="_01 - Default" target="#_01 - Default"/></technique_common></bind_material></instance_geometry><extra><technique profile="FCOLLADA"><visibility>1.000000</visibility></technique></extra></node>
      <extra><technique profile="MAX3D"><frame_rate>30.000000</frame_rate></technique><technique profile="FCOLLADA"><start_time>0.000000</start_time><end_time>3.333333</end_time></technique></extra>
    </visual_scene>
  </library_visual_scenes>
  <scene>
    <instance_visual_scene url="#05_01_adon_railing"></instance_visual_scene>
  </scene>
</COLLADA>
