<?xml version="1.0" encoding="utf-8"?>
<COLLADA xmlns="http://www.collada.org/2005/11/COLLADASchema" version="1.4.1">
  <asset><contributor><author></author><authoring_tool>FBX COLLADA exporter</authoring_tool><comments></comments></contributor><created>2015-02-02T10:00:33Z</created><keywords></keywords><modified>2015-02-02T10:00:33Z</modified><revision></revision><subject></subject><title></title><unit meter="1.000000" name="centimeter"></unit><up_axis>Y_UP</up_axis></asset>
  <library_images>
    <image id="Map #3-image" name="Map #3"><init_from>file://D:\SOMA\trunk\redist\static_objects\station\tunnel\phi_tunnel_addons.DDS</init_from></image>
  </library_images>
  <library_materials>
    <material id="_07 - Default" name="_07 - Default">
      <instance_effect url="#_07 - Default-fx"/>
    </material>
  </library_materials>
  <library_effects>
    <effect id="_07 - Default-fx" name="_07 - Default">
      <profile_COMMON>
        <technique sid="standard">
          <phong>
            <emission>
              <color sid="emission">0.000000  0.000000 0.000000 1.000000</color>
            </emission>
            <ambient>
              <color sid="ambient">0.588235  0.588235 0.588235 1.000000</color>
            </ambient>
            <diffuse>
              <texture texture="Map #3-image" texcoord="CHANNEL0">
                <extra>
                  <technique profile="MAYA">
                    <wrapU sid="wrapU0">TRUE</wrapU>
                    <wrapV sid="wrapV0">TRUE</wrapV>
                    <blend_mode>ADD</blend_mode>
                  </technique>
                </extra>
              </texture>
            </diffuse>
            <specular>
              <color sid="specular">0.000000  0.000000 0.000000 1.000000</color>
            </specular>
            <shininess>
              <float sid="shininess">2.000000</float>
            </shininess>
            <reflective>
              <color sid="reflective">0.000000  0.000000 0.000000 1.000000</color>
            </reflective>
            <reflectivity>
              <float sid="reflectivity">1.000000</float>
            </reflectivity>
            <transparent opaque="RGB_ZERO">
              <color sid="transparent">1.000000  1.000000 1.000000 1.000000</color>
            </transparent>
            <transparency>
              <float sid="transparency">0.000000</float>
            </transparency>
          </phong>
        </technique>
      </profile_COMMON>
    </effect>
  </library_effects>
  <library_geometries>
    <geometry id="box3-lib" name="box3Mesh">
      <mesh>
        <source id="box3-POSITION">
          <float_array id="box3-POSITION-array" count="384">
-0.355025 -0.392948 -0.751837
-0.355023 0.151281 -0.751838
0.355026 0.151282 -0.751837
0.355025 -0.392948 -0.751837
-0.355025 -0.542948 0.694687
0.355024 -0.542948 0.694687
0.355024 0.151282 0.694686
-0.355026 0.151282 0.694686
-0.315024 -0.594261 -0.498385
0.315025 -0.594261 -0.498385
0.315024 -0.594261 0.164360
-0.315024 -0.594261 0.164360
0.365027 0.152735 0.159133
0.365024 0.152254 0.690384
0.365024 -0.542948 0.684687
0.365025 -0.545228 0.158004
-0.355022 0.161282 -0.542037
-0.355022 0.161282 0.159133
0.355027 0.161282 0.159132
0.355026 0.161282 -0.540522
-0.365023 0.153561 -0.745482
-0.365025 -0.397897 -0.741838
-0.365025 -0.542948 -0.545097
-0.365022 0.153329 -0.542002
0.355025 -0.408882 -0.743788
0.355025 -0.547014 -0.556434
-0.355024 -0.547014 -0.556434
-0.355025 -0.408882 -0.743788
0.357953 -0.552948 0.687616
-0.357954 -0.552948 0.687616
-0.325026 -0.552948 0.654687
0.325024 -0.552948 0.654687
-0.355024 -0.552948 0.164359
-0.325025 -0.552948 0.164360
-0.357954 -0.552948 -0.541314
0.357954 -0.552948 -0.541314
0.325025 -0.552948 -0.508385
-0.325025 -0.552948 -0.508385
0.355025 -0.552948 0.164359
0.325025 -0.552948 0.164360
-0.325025 -0.584261 0.654687
0.325024 -0.584261 0.654687
-0.325025 -0.584261 0.164360
0.325025 -0.584261 -0.508385
-0.325025 -0.584261 -0.508385
0.325025 -0.584261 0.164360
0.293024 -0.574261 0.196360
0.293024 -0.574261 0.622687
-0.293025 -0.574261 0.622687
-0.293025 -0.574261 0.196360
0.317953 -0.594261 0.647616
-0.317954 -0.594261 0.647616
-0.293025 -0.594261 0.622687
0.293024 -0.594261 0.622687
-0.293025 -0.594261 0.196360
0.293024 -0.594261 0.196360
0.365025 -0.397897 -0.741837
-0.355022 0.161282 -0.741838
0.355027 0.161282 -0.741837
0.365026 0.153562 -0.745482
-0.365025 -0.542948 0.684687
-0.365026 0.152254 0.690385
-0.355025 0.161282 0.684687
0.355024 0.161282 0.684686
0.365025 -0.542948 -0.545097
-0.365025 -0.545228 0.158004
0.365026 0.153342 -0.540696
-0.365022 0.152781 0.159133
0.175417 -0.557735 0.397973
0.166674 -0.557734 0.453170
0.166675 -0.598571 0.453170
0.175417 -0.598571 0.397973
0.141302 -0.557734 0.502964
0.141302 -0.598572 0.502964
0.101785 -0.557734 0.542481
0.101785 -0.598571 0.542481
0.051991 -0.557734 0.567852
0.051991 -0.598571 0.567852
-0.003207 -0.557734 0.576595
-0.003207 -0.598571 0.576595
-0.058403 -0.557734 0.567852
-0.058403 -0.598572 0.567852
-0.108197 -0.557735 0.542480
-0.108197 -0.598572 0.542481
-0.147714 -0.557734 0.502964
-0.147714 -0.598572 0.502964
-0.173084 -0.557734 0.453170
-0.173083 -0.598572 0.453170
-0.181826 -0.557734 0.397973
-0.181826 -0.598571 0.397973
-0.173083 -0.557734 0.342776
-0.173083 -0.598571 0.342776
-0.147713 -0.557734 0.292982
-0.147713 -0.598572 0.292982
-0.108195 -0.557734 0.253465
-0.108195 -0.598571 0.253466
-0.058401 -0.557734 0.228094
-0.058401 -0.598571 0.228094
-0.003205 -0.557734 0.219352
-0.003203 -0.598571 0.219352
0.051992 -0.557734 0.228094
0.051992 -0.598571 0.228094
0.101787 -0.557734 0.253465
0.101787 -0.598572 0.253465
0.141303 -0.557734 0.292982
0.141303 -0.598571 0.292982
0.166675 -0.557734 0.342776
0.166675 -0.598571 0.342777
0.123734 -0.621142 0.397973
0.117521 -0.621142 0.437199
0.099491 -0.621142 0.472586
0.071408 -0.621142 0.500669
0.036021 -0.621142 0.518699
-0.003206 -0.621142 0.524911
-0.042432 -0.621142 0.518699
-0.077818 -0.621142 0.500669
-0.105900 -0.621142 0.472586
-0.123931 -0.621142 0.437199
-0.130144 -0.621142 0.397973
-0.123931 -0.621142 0.358747
-0.105900 -0.621142 0.323361
-0.077818 -0.621142 0.295278
-0.042431 -0.621142 0.277247
-0.003205 -0.621142 0.271034
0.036022 -0.621142 0.277247
0.071408 -0.621142 0.295278
0.099491 -0.621142 0.323360
0.117521 -0.621142 0.358747
</float_array>
          <technique_common>
            <accessor source="#box3-POSITION-array" count="128" stride="3">
              <param name="X" type="float"/>
              <param name="Y" type="float"/>
              <param name="Z" type="float"/>
            </accessor>
          </technique_common>
        </source>
        <source id="box3-Normal0">
          <float_array id="box3-Normal0-array" count="2070">
-0.341128 -0.195386 -0.919487
-0.295233 0.000000 -0.955425
0.297355 -0.003026 -0.954762
0.297355 -0.003026 -0.954762
0.342449 -0.193946 -0.919301
-0.341128 -0.195386 -0.919487
-0.334430 -0.248429 0.909087
0.333369 -0.249918 0.909069
0.207316 0.000000 0.978274
0.207316 0.000000 0.978274
-0.209911 -0.003905 0.977713
-0.334430 -0.248429 0.909087
0.300189 -0.905412 -0.300194
0.382680 -0.923881 -0.000021
-0.382044 -0.924143 -0.001157
-0.382044 -0.924143 -0.001157
-0.300190 -0.905412 -0.300193
0.300189 -0.905412 -0.300194
0.845741 -0.000047 0.533593
0.909178 -0.251149 0.332144
0.897783 -0.440436 0.001578
0.897783 -0.440436 0.001578
1.000000 -0.000003 0.000002
0.845741 -0.000047 0.533593
-0.345040 0.938588 -0.000001
0.346174 0.938170 0.000175
0.329257 0.944240 0.000000
0.329257 0.944240 0.000000
-0.329603 0.944120 0.000388
-0.345040 0.938588 -0.000001
-0.871869 -0.221809 -0.436630
-0.911460 -0.377309 -0.163946
-1.000000 0.000004 0.000001
-1.000000 0.000004 0.000001
-0.892864 -0.000043 -0.450327
-0.871869 -0.221809 -0.436630
0.342449 -0.624848 -0.701636
0.350111 -0.803614 -0.481276
-0.350111 -0.803613 -0.481278
-0.350111 -0.803613 -0.481278
-0.342448 -0.624847 -0.701638
0.342449 -0.624848 -0.701636
0.435398 -0.788946 0.433582
-0.434174 -0.788770 0.435127
-0.301511 -0.904535 0.301507
-0.301511 -0.904535 0.301507
0.301512 -0.904533 0.301513
0.435398 -0.788946 0.433582
-0.321968 -0.946749 -0.001625
-0.707108 -0.707106 -0.000000
-0.301511 -0.904535 0.301507
-0.301511 -0.904535 0.301507
-0.434174 -0.788770 0.435127
-0.321968 -0.946749 -0.001625
-0.435123 -0.883180 -0.175101
0.433728 -0.883534 -0.176773
0.301512 -0.904533 -0.301512
0.301512 -0.904533 -0.301512
-0.301512 -0.904533 -0.301512
-0.435123 -0.883180 -0.175101
0.323720 -0.946152 0.001610
0.707106 -0.707108 0.000001
0.301512 -0.904533 -0.301512
0.301512 -0.904533 -0.301512
0.433728 -0.883534 -0.176773
0.323720 -0.946152 0.001610
0.301512 -0.904533 0.301513
-0.301511 -0.904535 0.301507
-0.666892 -0.332427 0.666894
-0.666892 -0.332427 0.666894
0.667241 -0.333191 0.666163
0.301512 -0.904533 0.301513
-0.707108 -0.707106 -0.000000
-0.924137 -0.382061 -0.001142
-0.666892 -0.332427 0.666894
-0.666892 -0.332427 0.666894
-0.301511 -0.904535 0.301507
-0.707108 -0.707106 -0.000000
-0.301512 -0.904533 -0.301512
0.301512 -0.904533 -0.301512
0.650706 -0.391363 -0.650705
0.650706 -0.391363 -0.650705
-0.650706 -0.391363 -0.650705
-0.301512 -0.904533 -0.301512
0.707106 -0.707108 0.000001
0.923878 -0.382687 0.000001
0.650706 -0.391363 -0.650705
0.650706 -0.391363 -0.650705
0.301512 -0.904533 -0.301512
0.707106 -0.707108 0.000001
-0.000000 -1.000000 -0.000000
-0.000000 -1.000000 -0.000000
-0.000000 -1.000000 -0.000000
-0.000000 -1.000000 -0.000000
-0.000000 -1.000000 -0.000000
-0.000000 -1.000000 -0.000000
-0.321968 -0.946749 -0.001625
-0.435123 -0.883180 -0.175101
-0.301512 -0.904533 -0.301512
-0.301512 -0.904533 -0.301512
-0.707108 -0.707106 -0.000000
-0.321968 -0.946749 -0.001625
0.323720 -0.946152 0.001610
0.435398 -0.788946 0.433582
0.301512 -0.904533 0.301513
0.301512 -0.904533 0.301513
0.707106 -0.707108 0.000001
0.323720 -0.946152 0.001610
-0.301512 -0.904533 -0.301512
-0.650706 -0.391363 -0.650705
-0.924137 -0.382061 -0.001142
-0.924137 -0.382061 -0.001142
-0.707108 -0.707106 -0.000000
-0.301512 -0.904533 -0.301512
0.301512 -0.904533 0.301513
0.667241 -0.333191 0.666163
0.923878 -0.382687 0.000001
0.923878 -0.382687 0.000001
0.707106 -0.707108 0.000001
0.301512 -0.904533 0.301513
0.368644 -0.854884 0.365068
-0.366576 -0.855137 0.366556
0.301514 -0.904531 -0.301518
0.301514 -0.904531 -0.301518
-0.301513 -0.904534 -0.301511
0.368644 -0.854884 0.365068
-0.366576 -0.855137 0.366556
-0.382044 -0.924143 -0.001157
0.301509 -0.904535 0.301510
0.301509 -0.904535 0.301510
0.301514 -0.904531 -0.301518
-0.366576 -0.855137 0.366556
-0.382044 -0.924143 -0.001157
0.382680 -0.923881 -0.000021
-0.301513 -0.904533 0.301511
-0.301513 -0.904533 0.301511
0.301509 -0.904535 0.301510
-0.382044 -0.924143 -0.001157
0.382680 -0.923881 -0.000021
0.368644 -0.854884 0.365068
-0.301513 -0.904534 -0.301511
-0.301513 -0.904534 -0.301511
-0.301513 -0.904533 0.301511
0.382680 -0.923881 -0.000021
-0.301513 -0.904534 -0.301511
0.301514 -0.904531 -0.301518
0.707113 0.000017 -0.707101
0.707113 0.000017 -0.707101
-0.707103 0.000008 -0.707110
-0.301513 -0.904534 -0.301511
0.301514 -0.904531 -0.301518
0.301509 -0.904535 0.301510
0.707107 0.000001 0.707106
0.707107 0.000001 0.707106
0.707113 0.000017 -0.707101
0.301514 -0.904531 -0.301518
0.301509 -0.904535 0.301510
-0.301513 -0.904533 0.301511
-0.707105 0.000008 0.707109
-0.707105 0.000008 0.707109
0.707107 0.000001 0.707106
0.301509 -0.904535 0.301510
-0.301513 -0.904533 0.301511
-0.301513 -0.904534 -0.301511
-0.707103 0.000008 -0.707110
-0.707103 0.000008 -0.707110
-0.707105 0.000008 0.707109
-0.301513 -0.904533 0.301511
0.368644 -0.854884 0.365068
0.667241 -0.333191 0.666163
-0.666892 -0.332427 0.666894
-0.666892 -0.332427 0.666894
-0.366576 -0.855137 0.366556
0.368644 -0.854884 0.365068
-0.366576 -0.855137 0.366556
-0.666892 -0.332427 0.666894
-0.924137 -0.382061 -0.001142
-0.924137 -0.382061 -0.001142
-0.382044 -0.924143 -0.001157
-0.366576 -0.855137 0.366556
-0.300190 -0.905412 -0.300193
-0.650706 -0.391363 -0.650705
0.650706 -0.391363 -0.650705
0.650706 -0.391363 -0.650705
0.300189 -0.905412 -0.300194
-0.300190 -0.905412 -0.300193
0.300189 -0.905412 -0.300194
0.650706 -0.391363 -0.650705
0.923878 -0.382687 0.000001
0.923878 -0.382687 0.000001
0.382680 -0.923881 -0.000021
0.300189 -0.905412 -0.300194
-0.382044 -0.924143 -0.001157
-0.924137 -0.382061 -0.001142
-0.650706 -0.391363 -0.650705
-0.650706 -0.391363 -0.650705
-0.300190 -0.905412 -0.300193
-0.382044 -0.924143 -0.001157
0.382680 -0.923881 -0.000021
0.923878 -0.382687 0.000001
0.667241 -0.333191 0.666163
0.667241 -0.333191 0.666163
0.368644 -0.854884 0.365068
0.382680 -0.923881 -0.000021
-0.350111 -0.803613 -0.481278
-0.435123 -0.883180 -0.175101
-0.911460 -0.377309 -0.163946
0.871852 -0.220844 -0.437151
0.342449 -0.624848 -0.701636
0.342449 -0.193946 -0.919301
-0.111389 0.702703 -0.702710
-0.488359 0.798302 -0.352448
-0.263308 0.906779 -0.329273
0.111375 0.702700 -0.702715
0.263571 0.906787 -0.329041
0.488230 0.798547 -0.352070
-0.334430 -0.248429 0.909087
-0.909018 -0.247769 0.335108
-0.434174 -0.788770 0.435127
0.435398 -0.788946 0.433582
0.909178 -0.251149 0.332144
0.333369 -0.249918 0.909069
-0.495739 0.784421 0.372729
-0.100963 0.703494 0.703493
-0.288978 0.903009 0.317910
0.289006 0.903006 0.317892
0.100966 0.703496 0.703491
0.495772 0.784414 0.372699
-0.871869 -0.221809 -0.436630
-0.341128 -0.195386 -0.919487
-0.342448 -0.624847 -0.701638
0.350111 -0.803614 -0.481276
0.911494 -0.376745 -0.165049
0.433728 -0.883534 -0.176773
-0.341128 -0.195386 -0.919487
-0.871869 -0.221809 -0.436630
-0.892864 -0.000043 -0.450327
-0.892864 -0.000043 -0.450327
-0.295233 0.000000 -0.955425
-0.341128 -0.195386 -0.919487
-0.111389 0.702703 -0.702710
-0.263308 0.906779 -0.329273
0.263571 0.906787 -0.329041
0.263571 0.906787 -0.329041
0.111375 0.702700 -0.702715
-0.111389 0.702703 -0.702710
0.297355 -0.003026 -0.954762
0.892243 -0.002986 -0.451546
0.871852 -0.220844 -0.437151
0.871852 -0.220844 -0.437151
0.342449 -0.193946 -0.919301
0.297355 -0.003026 -0.954762
0.342449 -0.193946 -0.919301
0.342449 -0.624848 -0.701636
-0.342448 -0.624847 -0.701638
-0.342448 -0.624847 -0.701638
-0.341128 -0.195386 -0.919487
0.342449 -0.193946 -0.919301
0.435398 -0.788946 0.433582
0.333369 -0.249918 0.909069
-0.334430 -0.248429 0.909087
-0.334430 -0.248429 0.909087
-0.434174 -0.788770 0.435127
0.435398 -0.788946 0.433582
0.333369 -0.249918 0.909069
0.909178 -0.251149 0.332144
0.845741 -0.000047 0.533593
0.845741 -0.000047 0.533593
0.207316 0.000000 0.978274
0.333369 -0.249918 0.909069
0.100966 0.703496 0.703491
0.289006 0.903006 0.317892
-0.288978 0.903009 0.317910
-0.288978 0.903009 0.317910
-0.100963 0.703494 0.703493
0.100966 0.703496 0.703491
-0.209911 -0.003905 0.977713
-0.844607 -0.004387 0.535369
-0.909018 -0.247769 0.335108
-0.909018 -0.247769 0.335108
-0.334430 -0.248429 0.909087
-0.209911 -0.003905 0.977713
0.433728 -0.883534 -0.176773
0.911494 -0.376745 -0.165049
0.897783 -0.440436 0.001578
0.897783 -0.440436 0.001578
0.323720 -0.946152 0.001610
0.433728 -0.883534 -0.176773
-0.434174 -0.788770 0.435127
-0.909018 -0.247769 0.335108
-0.897266 -0.441488 -0.001577
-0.897266 -0.441488 -0.001577
-0.321968 -0.946749 -0.001625
-0.434174 -0.788770 0.435127
0.346174 0.938170 0.000175
0.649865 0.760049 0.000337
0.621758 0.783210 0.000021
0.621758 0.783210 0.000021
0.329257 0.944240 0.000000
0.346174 0.938170 0.000175
-0.488359 0.798302 -0.352448
-0.622439 0.782668 0.000753
-0.329603 0.944120 0.000388
-0.329603 0.944120 0.000388
-0.263308 0.906779 -0.329273
-0.488359 0.798302 -0.352448
-0.350111 -0.803613 -0.481278
-0.911460 -0.377309 -0.163946
-0.871869 -0.221809 -0.436630
-0.871869 -0.221809 -0.436630
-0.342448 -0.624847 -0.701638
-0.350111 -0.803613 -0.481278
0.342449 -0.624848 -0.701636
0.871852 -0.220844 -0.437151
0.911494 -0.376745 -0.165049
0.911494 -0.376745 -0.165049
0.350111 -0.803614 -0.481276
0.342449 -0.624848 -0.701636
-0.435123 -0.883180 -0.175101
-0.350111 -0.803613 -0.481278
0.350111 -0.803614 -0.481276
0.350111 -0.803614 -0.481276
0.433728 -0.883534 -0.176773
-0.435123 -0.883180 -0.175101
0.323720 -0.946152 0.001610
0.897783 -0.440436 0.001578
0.909178 -0.251149 0.332144
0.909178 -0.251149 0.332144
0.435398 -0.788946 0.433582
0.323720 -0.946152 0.001610
-0.321968 -0.946749 -0.001625
-0.897266 -0.441488 -0.001577
-0.911460 -0.377309 -0.163946
-0.911460 -0.377309 -0.163946
-0.435123 -0.883180 -0.175101
-0.321968 -0.946749 -0.001625
0.871852 -0.220844 -0.437151
0.892243 -0.002986 -0.451546
1.000000 -0.000002 -0.000001
1.000000 -0.000002 -0.000001
0.911494 -0.376745 -0.165049
0.871852 -0.220844 -0.437151
-0.897266 -0.441488 -0.001577
-1.000000 0.000003 -0.000003
-1.000000 0.000004 0.000001
-1.000000 0.000004 0.000001
-0.911460 -0.377309 -0.163946
-0.897266 -0.441488 -0.001577
0.621758 0.783210 0.000021
0.488230 0.798547 -0.352070
0.263571 0.906787 -0.329041
0.263571 0.906787 -0.329041
0.329257 0.944240 0.000000
0.621758 0.783210 0.000021
0.263571 0.906787 -0.329041
-0.263308 0.906779 -0.329273
-0.329603 0.944120 0.000388
-0.329603 0.944120 0.000388
0.329257 0.944240 0.000000
0.263571 0.906787 -0.329041
-0.647740 0.761861 0.000008
-0.345040 0.938588 -0.000001
-0.329603 0.944120 0.000388
-0.329603 0.944120 0.000388
-0.622439 0.782668 0.000753
-0.647740 0.761861 0.000008
-0.897266 -0.441488 -0.001577
-0.909018 -0.247769 0.335108
-0.844607 -0.004387 0.535369
-0.844607 -0.004387 0.535369
-1.000000 0.000003 -0.000003
-0.897266 -0.441488 -0.001577
1.000000 -0.000002 -0.000001
1.000000 -0.000003 0.000002
0.897783 -0.440436 0.001578
0.897783 -0.440436 0.001578
0.911494 -0.376745 -0.165049
1.000000 -0.000002 -0.000001
-0.647740 0.761861 0.000008
-0.495739 0.784421 0.372729
-0.288978 0.903009 0.317910
-0.288978 0.903009 0.317910
-0.345040 0.938588 -0.000001
-0.647740 0.761861 0.000008
-0.288978 0.903009 0.317910
0.289006 0.903006 0.317892
0.346174 0.938170 0.000175
0.346174 0.938170 0.000175
-0.345040 0.938588 -0.000001
-0.288978 0.903009 0.317910
0.289006 0.903006 0.317892
0.495772 0.784414 0.372699
0.649865 0.760049 0.000337
0.649865 0.760049 0.000337
0.346174 0.938170 0.000175
0.289006 0.903006 0.317892
1.000000 0.000002 0.000001
0.951052 0.000008 0.309029
0.810046 -0.523971 0.263209
0.810046 -0.523971 0.263209
0.851733 -0.523976 -0.000000
1.000000 0.000002 0.000001
0.951052 0.000008 0.309029
0.809014 -0.000004 0.587789
0.689063 -0.523979 0.500638
0.689063 -0.523979 0.500638
0.810046 -0.523971 0.263209
0.951052 0.000008 0.309029
0.809014 -0.000004 0.587789
0.587783 0.000003 0.809018
0.500635 -0.523974 0.689069
0.500635 -0.523974 0.689069
0.689063 -0.523979 0.500638
0.809014 -0.000004 0.587789
0.587783 0.000003 0.809018
0.309017 -0.000003 0.951056
0.263199 -0.523977 0.810046
0.263199 -0.523977 0.810046
0.500635 -0.523974 0.689069
0.587783 0.000003 0.809018
0.309017 -0.000003 0.951056
-0.000006 0.000002 1.000000
-0.000004 -0.523975 0.851734
-0.000004 -0.523975 0.851734
0.263199 -0.523977 0.810046
0.309017 -0.000003 0.951056
-0.000006 0.000002 1.000000
-0.309016 -0.000007 0.951057
-0.263200 -0.523981 0.810043
-0.263200 -0.523981 0.810043
-0.000004 -0.523975 0.851734
-0.000006 0.000002 1.000000
-0.309016 -0.000007 0.951057
-0.587788 0.000007 0.809015
-0.500637 -0.523976 0.689066
-0.500637 -0.523976 0.689066
-0.263200 -0.523981 0.810043
-0.309016 -0.000007 0.951057
-0.587788 0.000007 0.809015
-0.809021 -0.000005 0.587779
-0.689071 -0.523977 0.500629
-0.689071 -0.523977 0.500629
-0.500637 -0.523976 0.689066
-0.587788 0.000007 0.809015
-0.809021 -0.000005 0.587779
-0.951060 -0.000008 0.309005
-0.810046 -0.523982 0.263190
-0.810046 -0.523982 0.263190
-0.689071 -0.523977 0.500629
-0.809021 -0.000005 0.587779
-0.951060 -0.000008 0.309005
-1.000000 0.000001 -0.000005
-0.851735 -0.523972 -0.000002
-0.851735 -0.523972 -0.000002
-0.810046 -0.523982 0.263190
-0.951060 -0.000008 0.309005
-1.000000 0.000001 -0.000005
-0.951058 0.000000 -0.309012
-0.810048 -0.523975 -0.263198
-0.810048 -0.523975 -0.263198
-0.851735 -0.523972 -0.000002
-1.000000 0.000001 -0.000005
-0.951058 0.000000 -0.309012
-0.809017 -0.000006 -0.587785
-0.689066 -0.523981 -0.500633
-0.689066 -0.523981 -0.500633
-0.810048 -0.523975 -0.263198
-0.951058 0.000000 -0.309012
-0.809017 -0.000006 -0.587785
-0.587780 -0.000004 -0.809021
-0.500632 -0.523978 -0.689068
-0.500632 -0.523978 -0.689068
-0.689066 -0.523981 -0.500633
-0.809017 -0.000006 -0.587785
-0.587780 -0.000004 -0.809021
-0.309016 -0.000004 -0.951057
-0.263198 -0.523974 -0.810048
-0.263198 -0.523974 -0.810048
-0.500632 -0.523978 -0.689068
-0.587780 -0.000004 -0.809021
-0.309016 -0.000004 -0.951057
-0.000007 -0.000012 -1.000000
0.000004 -0.523980 -0.851731
0.000004 -0.523980 -0.851731
-0.263198 -0.523974 -0.810048
-0.309016 -0.000004 -0.951057
-0.000007 -0.000012 -1.000000
0.309016 -0.000004 -0.951057
0.263198 -0.523979 -0.810045
0.263198 -0.523979 -0.810045
0.000004 -0.523980 -0.851731
-0.000007 -0.000012 -1.000000
0.309016 -0.000004 -0.951057
0.587786 -0.000001 -0.809016
0.500636 -0.523977 -0.689066
0.500636 -0.523977 -0.689066
0.263198 -0.523979 -0.810045
0.309016 -0.000004 -0.951057
0.587786 -0.000001 -0.809016
0.809017 -0.000004 -0.587785
0.689068 -0.523975 -0.500634
0.689068 -0.523975 -0.500634
0.500636 -0.523977 -0.689066
0.587786 -0.000001 -0.809016
0.809017 -0.000004 -0.587785
0.951056 -0.000003 -0.309020
0.810047 -0.523976 -0.263199
0.810047 -0.523976 -0.263199
0.689068 -0.523975 -0.500634
0.809017 -0.000004 -0.587785
0.951056 -0.000003 -0.309020
1.000000 0.000002 0.000001
0.851733 -0.523976 -0.000000
0.851733 -0.523976 -0.000000
0.810047 -0.523976 -0.263199
0.951056 -0.000003 -0.309020
0.212889 -0.974625 0.069173
0.181094 -0.974625 0.131576
0.131572 -0.974625 0.181092
0.131572 -0.974625 0.181092
0.069173 -0.974624 0.212893
0.000001 -0.974627 0.223837
0.000001 -0.974627 0.223837
-0.069172 -0.974627 0.212881
-0.131572 -0.974626 0.181090
0.131572 -0.974625 0.181092
0.000001 -0.974627 0.223837
-0.131572 -0.974626 0.181090
-0.131572 -0.974626 0.181090
-0.181085 -0.974628 0.131566
-0.212886 -0.974625 0.069171
-0.212886 -0.974625 0.069171
-0.223846 -0.974625 -0.000001
-0.212891 -0.974624 -0.069176
-0.131572 -0.974626 0.181090
-0.212886 -0.974625 0.069171
-0.212891 -0.974624 -0.069176
-0.212891 -0.974624 -0.069176
-0.181092 -0.974625 -0.131570
-0.131573 -0.974625 -0.181093
-0.131573 -0.974625 -0.181093
-0.069170 -0.974626 -0.212882
-0.000001 -0.974625 -0.223844
-0.212891 -0.974624 -0.069176
-0.131573 -0.974625 -0.181093
-0.000001 -0.974625 -0.223844
-0.000001 -0.974625 -0.223844
0.069175 -0.974623 -0.212898
0.131570 -0.974625 -0.181094
0.131570 -0.974625 -0.181094
0.181101 -0.974622 -0.131581
0.212891 -0.974624 -0.069171
-0.000001 -0.974625 -0.223844
0.131570 -0.974625 -0.181094
0.212891 -0.974624 -0.069171
-0.212891 -0.974624 -0.069176
-0.000001 -0.974625 -0.223844
0.212891 -0.974624 -0.069171
-0.131572 -0.974626 0.181090
-0.212891 -0.974624 -0.069176
0.212891 -0.974624 -0.069171
0.131572 -0.974625 0.181092
-0.131572 -0.974626 0.181090
0.212891 -0.974624 -0.069171
0.212889 -0.974625 0.069173
0.131572 -0.974625 0.181092
0.212891 -0.974624 -0.069171
0.223845 -0.974625 0.000001
0.212889 -0.974625 0.069173
0.212891 -0.974624 -0.069171
0.851733 -0.523976 -0.000000
0.810046 -0.523971 0.263209
0.212889 -0.974625 0.069173
0.212889 -0.974625 0.069173
0.223845 -0.974625 0.000001
0.851733 -0.523976 -0.000000
0.810046 -0.523971 0.263209
0.689063 -0.523979 0.500638
0.181094 -0.974625 0.131576
0.181094 -0.974625 0.131576
0.212889 -0.974625 0.069173
0.810046 -0.523971 0.263209
0.689063 -0.523979 0.500638
0.500635 -0.523974 0.689069
0.131572 -0.974625 0.181092
0.131572 -0.974625 0.181092
0.181094 -0.974625 0.131576
0.689063 -0.523979 0.500638
0.500635 -0.523974 0.689069
0.263199 -0.523977 0.810046
0.069173 -0.974624 0.212893
0.069173 -0.974624 0.212893
0.131572 -0.974625 0.181092
0.500635 -0.523974 0.689069
0.263199 -0.523977 0.810046
-0.000004 -0.523975 0.851734
0.000001 -0.974627 0.223837
0.000001 -0.974627 0.223837
0.069173 -0.974624 0.212893
0.263199 -0.523977 0.810046
-0.000004 -0.523975 0.851734
-0.263200 -0.523981 0.810043
-0.069172 -0.974627 0.212881
-0.069172 -0.974627 0.212881
0.000001 -0.974627 0.223837
-0.000004 -0.523975 0.851734
-0.263200 -0.523981 0.810043
-0.500637 -0.523976 0.689066
-0.131572 -0.974626 0.181090
-0.131572 -0.974626 0.181090
-0.069172 -0.974627 0.212881
-0.263200 -0.523981 0.810043
-0.500637 -0.523976 0.689066
-0.689071 -0.523977 0.500629
-0.181085 -0.974628 0.131566
-0.181085 -0.974628 0.131566
-0.131572 -0.974626 0.181090
-0.500637 -0.523976 0.689066
-0.689071 -0.523977 0.500629
-0.810046 -0.523982 0.263190
-0.212886 -0.974625 0.069171
-0.212886 -0.974625 0.069171
-0.181085 -0.974628 0.131566
-0.689071 -0.523977 0.500629
-0.810046 -0.523982 0.263190
-0.851735 -0.523972 -0.000002
-0.223846 -0.974625 -0.000001
-0.223846 -0.974625 -0.000001
-0.212886 -0.974625 0.069171
-0.810046 -0.523982 0.263190
-0.851735 -0.523972 -0.000002
-0.810048 -0.523975 -0.263198
-0.212891 -0.974624 -0.069176
-0.212891 -0.974624 -0.069176
-0.223846 -0.974625 -0.000001
-0.851735 -0.523972 -0.000002
-0.810048 -0.523975 -0.263198
-0.689066 -0.523981 -0.500633
-0.181092 -0.974625 -0.131570
-0.181092 -0.974625 -0.131570
-0.212891 -0.974624 -0.069176
-0.810048 -0.523975 -0.263198
-0.689066 -0.523981 -0.500633
-0.500632 -0.523978 -0.689068
-0.131573 -0.974625 -0.181093
-0.131573 -0.974625 -0.181093
-0.181092 -0.974625 -0.131570
-0.689066 -0.523981 -0.500633
-0.500632 -0.523978 -0.689068
-0.263198 -0.523974 -0.810048
-0.069170 -0.974626 -0.212882
-0.069170 -0.974626 -0.212882
-0.131573 -0.974625 -0.181093
-0.500632 -0.523978 -0.689068
-0.263198 -0.523974 -0.810048
0.000004 -0.523980 -0.851731
-0.000001 -0.974625 -0.223844
-0.000001 -0.974625 -0.223844
-0.069170 -0.974626 -0.212882
-0.263198 -0.523974 -0.810048
0.000004 -0.523980 -0.851731
0.263198 -0.523979 -0.810045
0.069175 -0.974623 -0.212898
0.069175 -0.974623 -0.212898
-0.000001 -0.974625 -0.223844
0.000004 -0.523980 -0.851731
0.263198 -0.523979 -0.810045
0.500636 -0.523977 -0.689066
0.131570 -0.974625 -0.181094
0.131570 -0.974625 -0.181094
0.069175 -0.974623 -0.212898
0.263198 -0.523979 -0.810045
0.500636 -0.523977 -0.689066
0.689068 -0.523975 -0.500634
0.181101 -0.974622 -0.131581
0.181101 -0.974622 -0.131581
0.131570 -0.974625 -0.181094
0.500636 -0.523977 -0.689066
0.689068 -0.523975 -0.500634
0.810047 -0.523976 -0.263199
0.212891 -0.974624 -0.069171
0.212891 -0.974624 -0.069171
0.181101 -0.974622 -0.131581
0.689068 -0.523975 -0.500634
0.810047 -0.523976 -0.263199
0.851733 -0.523976 -0.000000
0.223845 -0.974625 0.000001
0.223845 -0.974625 0.000001
0.212891 -0.974624 -0.069171
0.810047 -0.523976 -0.263199
</float_array>
          <technique_common>
            <accessor source="#box3-Normal0-array" count="690" stride="3">
              <param name="X" type="float"/>
              <param name="Y" type="float"/>
              <param name="Z" type="float"/>
            </accessor>
          </technique_common>
        </source>
        <source id="box3-UV0">
          <float_array id="box3-UV0-array" count="352">
0.254755 0.142170
0.255088 0.060286
0.392878 0.060310
0.393068 0.142193
0.249391 0.431928
0.388540 0.431534
0.393774 0.589082
0.244611 0.585183
0.265103 0.212127
0.375083 0.212143
0.375083 0.327893
0.265103 0.327877
0.555109 0.330972
0.554058 0.432772
0.391456 0.429994
0.392755 0.329613
0.988452 0.284430
0.988452 0.325064
0.953896 0.325046
0.953896 0.285068
0.077777 0.129308
0.221268 0.149409
0.249829 0.189913
0.077492 0.195200
0.392996 0.145528
0.391686 0.189481
0.252528 0.189477
0.254627 0.145521
0.388231 0.429330
0.249704 0.429719
0.256089 0.423429
0.381921 0.423071
0.250087 0.329392
0.256068 0.329444
0.251972 0.192339
0.392089 0.192369
0.385529 0.198495
0.257485 0.198829
0.390251 0.330729
0.384378 0.330629
0.376755 0.421469
0.263283 0.421469
0.263336 0.413535
0.376808 0.413551
0.258435 0.413714
0.258435 0.328139
0.263336 0.327898
0.263219 0.201841
0.376691 0.201841
0.376808 0.210947
0.263336 0.210930
0.380931 0.210485
0.380931 0.327734
0.376808 0.327915
0.369986 0.334719
0.369986 0.406795
0.269920 0.406795
0.269920 0.334719
0.259371 0.210529
0.380931 0.413371
0.375595 0.412295
0.264592 0.412279
0.268943 0.407925
0.371243 0.407940
0.268943 0.333466
0.371243 0.333481
0.373770 0.333412
0.267323 0.333412
0.267323 0.329923
0.373770 0.329923
0.395650 0.144380
0.104816 0.140993
0.029789 0.129996
0.576684 0.153292
0.627725 0.158324
0.565910 0.155712
0.244766 0.433166
0.252624 0.568034
0.246340 0.620186
0.399514 0.628870
0.409785 0.588727
0.252046 0.144224
0.394312 0.191145
0.219434 0.147160
0.255091 0.036832
0.392631 0.036856
0.424629 0.157438
0.425700 0.154725
0.391547 0.431551
0.244991 0.433448
0.247537 0.329286
0.602776 0.198485
0.597073 0.331194
0.558270 0.199060
0.028424 0.196507
0.076887 0.336092
0.953896 0.269337
0.988452 0.269337
0.027644 0.338276
0.079018 0.442564
0.030081 0.440519
0.988452 0.363550
0.953896 0.363550
0.590249 0.430345
0.085343 0.041597
0.083428 0.053300
0.075557 0.051028
0.077119 0.041589
0.077852 0.064021
0.071012 0.059646
0.069002 0.072848
0.063828 0.066676
0.057460 0.078954
0.054549 0.071413
0.043948 0.081558
0.043954 0.073198
0.030442 0.078938
0.033362 0.071401
0.018910 0.072822
0.024086 0.066655
0.010072 0.063996
0.016909 0.059626
0.004505 0.053286
0.012369 0.051016
0.002590 0.041597
0.010806 0.041586
0.004468 0.029901
0.012333 0.032158
0.010028 0.019173
0.016868 0.023543
0.018880 0.010342
0.024053 0.016515
0.030429 0.004239
0.033340 0.011786
0.043948 0.001632
0.043951 0.010005
0.057467 0.004232
0.054560 0.011781
0.069023 0.010329
0.063853 0.016507
0.077886 0.019158
0.071046 0.023533
0.083458 0.029887
0.075587 0.032148
0.066860 0.041590
0.065750 0.048179
0.062526 0.054150
0.057487 0.058956
0.051083 0.062117
0.043925 0.063203
0.036789 0.062087
0.030405 0.058910
0.025379 0.054108
0.022163 0.048143
0.021058 0.041561
0.022108 0.034986
0.025343 0.029030
0.030390 0.024227
0.036801 0.021096
0.043983 0.020040
0.051149 0.021115
0.057546 0.024251
0.062583 0.029054
0.065813 0.035011
0.269774 0.407575
0.266142 0.407575
0.373845 0.407352
0.373845 0.410841
0.269774 0.333189
0.266141 0.333189
0.267398 0.407352
0.267398 0.410841
0.371469 0.407574
0.375102 0.407575
0.371469 0.333189
0.375101 0.333189
</float_array>
          <technique_common>
            <accessor source="#box3-UV0-array" count="176" stride="2">
              <param name="S" type="float"/>
              <param name="T" type="float"/>
            </accessor>
          </technique_common>
        </source>
        <vertices id="box3-VERTEX">
          <input semantic="POSITION" source="#box3-POSITION"/>
        </vertices>
        <triangles count="230" material="_07 - Default"><input semantic="VERTEX" offset="0" source="#box3-VERTEX"/><input semantic="NORMAL" offset="1" source="#box3-Normal0"/><input semantic="TEXCOORD" offset="2" set="0" source="#box3-UV0"/><p> 0 0 0 1 1 1 2 2 2 2 3 2 3 4 3 0 5 0 4 6 4 5 7 5 6 8 6 6 9 6 7 10 7 4 11 4 9 12 9 10 13 10 11 14 11 11 15 11 8 16 8 9 17 9 13 18 13 14 19 14 15 20 15 15 21 15 12 22 12 13 23 13 17 24 17 18 25 18 19 26 19 19 27 19 16 28 16 17 29 17 21 30 21 22 31 22 23 32 23 23 33 23 20 34 20 21 35 21 24 36 24 25 37 25 26 38 26 26 39 26 27 40 27 24 41 24 28 42 28 29 43 29 30 44 30 30 45 30 31 46 31 28 47 28 32 48 32 33 49 33 30 50 30 30 51 30 29 52 29 32 53 32 34 54 34 35 55 35 36 56 36 36 57 36 37 58 37 34 59 34 38 60 38 39 61 39 36 62 36 36 63 36 35 64 35 38 65 38 31 66 40 30 67 41 40 68 42 40 69 42 41 70 43 31 71 40 33 72 45 42 73 46 40 74 42 40 75 42 30 76 44 33 77 45 37 78 47 36 79 48 43 80 49 43 81 49 44 82 50 37 83 47 39 84 52 45 85 53 43 86 49 43 87 49 36 88 51 39 89 52 47 90 55 48 91 56 49 92 57 49 93 57 46 94 54 47 95 55 32 96 32 34 97 34 37 98 37 37 99 37 33 100 33 32 101 32 38 102 38 28 103 28 31 104 31 31 105 31 39 106 39 38 107 38 37 108 58 44 109 50 42 110 46 42 111 46 33 112 45 37 113 58 31 114 59 41 115 43 45 116 53 45 117 53 39 118 52 31 119 59 50 120 60 51 121 61 52 122 62 52 123 62 53 124 63 50 125 60 51 126 61 11 127 11 54 128 64 54 129 64 52 130 62 51 131 61 11 132 11 10 133 10 55 134 65 55 135 65 54 136 64 11 137 11 10 138 10 50 139 60 53 140 63 53 141 63 55 142 65 10 143 10 53 144 66 52 145 67 48 146 68 48 147 68 47 148 69 53 149 66 52 150 168 54 151 164 49 152 165 49 153 165 48 154 169 52 155 168 54 156 170 55 157 166 46 158 167 46 159 167 49 160 171 54 161 170 55 162 172 53 163 174 47 164 175 47 165 175 46 166 173 55 167 172 50 168 60 41 169 43 40 170 42 40 171 42 51 172 61 50 173 60 51 174 61 40 175 42 42 176 46 42 177 46 11 178 11 51 179 61 8 180 8 44 181 50 43 182 49 43 183 49 9 184 9 8 185 8 9 186 9 43 187 49 45 188 53 45 189 53 10 190 10 9 191 9 11 192 11 42 193 46 44 194 50 44 195 50 8 196 8 11 197 11 10 198 10 45 199 53 41 200 43 41 201 43 50 202 60 10 203 10 26 204 26 34 205 34 22 206 22 56 207 70 24 208 24 3 209 3 1 210 71 20 211 20 57 212 72 2 213 73 58 214 74 59 215 75 4 216 4 60 217 76 29 218 29 28 219 28 14 220 14 5 221 5 61 222 77 7 223 7 62 224 78 63 225 79 6 226 6 13 227 80 21 228 81 0 229 0 27 230 27 25 231 25 64 232 82 35 233 35 0 234 83 21 235 21 20 236 20 20 237 20 1 238 71 0 239 83 1 240 1 57 241 84 58 242 85 58 243 85 2 244 2 1 245 1 2 246 73 59 247 75 56 248 86 56 249 86 3 250 87 2 251 73 3 252 3 24 253 24 27 254 27 27 255 27 0 256 0 3 257 3 28 258 28 5 259 5 4 260 4 4 261 4 29 262 29 28 263 28 5 264 5 14 265 88 13 266 80 13 267 80 6 268 6 5 269 5 6 270 6 63 271 79 62 272 78 62 273 78 7 274 7 6 275 6 7 276 7 61 277 77 60 278 89 60 279 89 4 280 4 7 281 7 35 282 35 64 283 82 15 284 15 15 285 15 38 286 38 35 287 35 29 288 29 60 289 76 65 290 90 65 291 90 32 292 32 29 293 29 18 294 92 12 295 12 66 296 93 66 297 93 19 298 91 18 299 92 20 300 20 23 301 23 16 302 94 16 303 94 57 304 72 20 305 20 26 306 26 22 307 22 21 308 81 21 309 81 27 310 27 26 311 26 24 312 24 56 313 70 64 314 82 64 315 82 25 316 25 24 317 24 34 318 34 26 319 26 25 320 25 25 321 25 35 322 35 34 323 34 38 324 38 15 325 15 14 326 14 14 327 14 28 328 28 38 329 38 32 330 32 65 331 90 22 332 22 22 333 22 34 334 34 32 335 32 56 336 86 59 337 75 66 338 93 66 339 93 64 340 82 56 341 86 65 342 90 67 343 95 23 344 23 23 345 23 22 346 22 65 347 90 66 348 93 59 349 75 58 350 74 58 351 74 19 352 91 66 353 93 58 354 96 57 355 97 16 356 16 16 357 16 19 358 19 58 359 96 67 360 95 17 361 98 16 362 94 16 363 94 23 364 23 67 365 95 65 366 90 60 367 76 61 368 99 61 369 99 67 370 95 65 371 90 66 372 93 12 373 12 15 374 15 15 375 15 64 376 82 66 377 93 67 378 95 61 379 99 62 380 100 62 381 100 17 382 98 67 383 95 62 384 101 63 385 102 18 386 18 18 387 18 17 388 17 62 389 101 63 390 103 13 391 13 12 392 12 12 393 12 18 394 92 63 395 103 68 396 104 69 397 105 70 398 106 70 399 106 71 400 107 68 401 104 69 402 105 72 403 108 73 404 109 73 405 109 70 406 106 69 407 105 72 408 108 74 409 110 75 410 111 75 411 111 73 412 109 72 413 108 74 414 110 76 415 112 77 416 113 77 417 113 75 418 111 74 419 110 76 420 112 78 421 114 79 422 115 79 423 115 77 424 113 76 425 112 78 426 114 80 427 116 81 428 117 81 429 117 79 430 115 78 431 114 80 432 116 82 433 118 83 434 119 83 435 119 81 436 117 80 437 116 82 438 118 84 439 120 85 440 121 85 441 121 83 442 119 82 443 118 84 444 120 86 445 122 87 446 123 87 447 123 85 448 121 84 449 120 86 450 122 88 451 124 89 452 125 89 453 125 87 454 123 86 455 122 88 456 124 90 457 126 91 458 127 91 459 127 89 460 125 88 461 124 90 462 126 92 463 128 93 464 129 93 465 129 91 466 127 90 467 126 92 468 128 94 469 130 95 470 131 95 471 131 93 472 129 92 473 128 94 474 130 96 475 132 97 476 133 97 477 133 95 478 131 94 479 130 96 480 132 98 481 134 99 482 135 99 483 135 97 484 133 96 485 132 98 486 134 100 487 136 101 488 137 101 489 137 99 490 135 98 491 134 100 492 136 102 493 138 103 494 139 103 495 139 101 496 137 100 497 136 102 498 138 104 499 140 105 500 141 105 501 141 103 502 139 102 503 138 104 504 140 106 505 142 107 506 143 107 507 143 105 508 141 104 509 140 106 510 142 68 511 104 71 512 107 71 513 107 107 514 143 106 515 142 109 516 145 110 517 146 111 518 147 111 519 147 112 520 148 113 521 149 113 522 149 114 523 150 115 524 151 111 525 147 113 526 149 115 527 151 115 528 151 116 529 152 117 530 153 117 531 153 118 532 154 119 533 155 115 534 151 117 535 153 119 536 155 119 537 155 120 538 156 121 539 157 121 540 157 122 541 158 123 542 159 119 543 155 121 544 157 123 545 159 123 546 159 124 547 160 125 548 161 125 549 161 126 550 162 127 551 163 123 552 159 125 553 161 127 554 163 119 555 155 123 556 159 127 557 163 115 558 151 119 559 155 127 560 163 111 561 147 115 562 151 127 563 163 109 564 145 111 565 147 127 566 163 108 567 144 109 568 145 127 569 163 71 570 107 70 571 106 109 572 145 109 573 145 108 574 144 71 575 107 70 576 106 73 577 109 110 578 146 110 579 146 109 580 145 70 581 106 73 582 109 75 583 111 111 584 147 111 585 147 110 586 146 73 587 109 75 588 111 77 589 113 112 590 148 112 591 148 111 592 147 75 593 111 77 594 113 79 595 115 113 596 149 113 597 149 112 598 148 77 599 113 79 600 115 81 601 117 114 602 150 114 603 150 113 604 149 79 605 115 81 606 117 83 607 119 115 608 151 115 609 151 114 610 150 81 611 117 83 612 119 85 613 121 116 614 152 116 615 152 115 616 151 83 617 119 85 618 121 87 619 123 117 620 153 117 621 153 116 622 152 85 623 121 87 624 123 89 625 125 118 626 154 118 627 154 117 628 153 87 629 123 89 630 125 91 631 127 119 632 155 119 633 155 118 634 154 89 635 125 91 636 127 93 637 129 120 638 156 120 639 156 119 640 155 91 641 127 93 642 129 95 643 131 121 644 157 121 645 157 120 646 156 93 647 129 95 648 131 97 649 133 122 650 158 122 651 158 121 652 157 95 653 131 97 654 133 99 655 135 123 656 159 123 657 159 122 658 158 97 659 133 99 660 135 101 661 137 124 662 160 124 663 160 123 664 159 99 665 135 101 666 137 103 667 139 125 668 161 125 669 161 124 670 160 101 671 137 103 672 139 105 673 141 126 674 162 126 675 162 125 676 161 103 677 139 105 678 141 107 679 143 127 680 163 127 681 163 126 682 162 105 683 141 107 684 143 71 685 107 108 686 144 108 687 144 127 688 163 107 689 143</p></triangles>
      </mesh>
    </geometry>
  </library_geometries>
  <library_visual_scenes>
    <visual_scene id="05_01_adon_box_large_01" name="05_01_adon_box_large_01">
      <node name="box3" id="box3" layer="addons" sid="box3"><translate sid="translate">0.000998 0.754328 0.174375</translate><rotate sid="jointOrientX">1 0 0 -90.000000</rotate><instance_geometry url="#box3-lib"><bind_material><technique_common><instance_material symbol="_07 - Default" target="#_07 - Default"/></technique_common></bind_material></instance_geometry><extra><technique profile="FCOLLADA"><visibility>1.000000</visibility></technique></extra></node>
      <extra><technique profile="MAX3D"><frame_rate>30.000000</frame_rate></technique><technique profile="FCOLLADA"><start_time>0.000000</start_time><end_time>3.333333</end_time></technique></extra>
    </visual_scene>
  </library_visual_scenes>
  <scene>
    <instance_visual_scene url="#05_01_adon_box_large_01"></instance_visual_scene>
  </scene>
</COLLADA>
