<?xml version="1.0" encoding="utf-8"?>
<COLLADA xmlns="http://www.collada.org/2005/11/COLLADASchema" version="1.4.1">
  <asset>
    <contributor>
      <author>Marc</author>
      <authoring_tool>OpenCOLLADA2008</authoring_tool>
      <comments>
			ColladaMaya export options: 
			bakeTransforms=0;relativePaths=0;copyTextures=0;exportTriangles=1;exportCgfxFileReferences=0;
			isSampling=0;curveConstrainSampling=0;removeStaticCurves=1;exportPolygonMeshes=1;exportLights=0;
			exportCameras=0;exportJointsAndSkin=1;exportAnimations=0;exportInvisibleNodes=0;exportDefaultCameras=0;
			exportTexCoords=1;exportNormals=1;exportNormalsPerVertex=1;exportVertexColors=1;exportVertexColorsPerVertex=1;
			exportTexTangents=0;exportTangents=0;exportReferencedMaterials=0;exportMaterialsOnly=0;
			exportXRefs=0;dereferenceXRefs=1;exportCameraAsLookat=0;cameraXFov=0;cameraYFov=1;doublePrecision=0
		</comments>
      <source_data>file:///H:/Dropbox%20(Frictional%20Games)/Team/depth_marc/models/station/entities/04_02_door_swing_bulkhead/04_02_door_swing_bulkhead.mb</source_data>
    </contributor>
    <created>2014-08-07T11:19:19</created>
    <modified>2014-08-07T11:19:19</modified>
    <unit name="meter" meter="1"/>
    <up_axis>Y_UP</up_axis>
  </asset>
  <library_materials>
    <material id="lambert2" name="lambert2">
      <instance_effect url="#lambert2-fx"/>
    </material>
  </library_materials>
  <library_effects>
    <effect id="lambert2-fx">
      <profile_COMMON>
        <newparam sid="file1-surface">
          <surface type="2D">
            <init_from>file1</init_from>
          </surface>
        </newparam>
        <newparam sid="file1-sampler">
          <sampler2D>
            <source>file1-surface</source>
          </sampler2D>
        </newparam>
        <technique sid="common">
          <lambert>
            <emission>
              <color>0 0 0 1</color>
            </emission>
            <ambient>
              <color>0 0 0 1</color>
            </ambient>
            <diffuse>
              <texture texture="file1-sampler" texcoord="TEX0">
                <extra>
                  <technique profile="OpenCOLLADAMaya">
                    <blend_mode>NONE</blend_mode>
                    <coverageU>1</coverageU>
                    <coverageV>1</coverageV>
                    <fast>0</fast>
                    <mirrorU>0</mirrorU>
                    <mirrorV>0</mirrorV>
                    <noiseU>0</noiseU>
                    <noiseV>0</noiseV>
                    <offsetU>0</offsetU>
                    <offsetV>0</offsetV>
                    <repeatU>1</repeatU>
                    <repeatV>1</repeatV>
                    <rotateFrame>0</rotateFrame>
                    <rotateUV>0</rotateUV>
                    <stagger>0</stagger>
                    <translateFrameU>0</translateFrameU>
                    <translateFrameV>0</translateFrameV>
                    <wrapU>1</wrapU>
                    <wrapV>1</wrapV>
                  </technique>
                </extra>
              </texture>
            </diffuse>
            <transparent opaque="RGB_ZERO">
              <color>0 0 0 1</color>
            </transparent>
            <transparency>
              <float>1</float>
            </transparency>
          </lambert>
        </technique>
      </profile_COMMON>
    </effect>
  </library_effects>
  <library_images>
    <image id="file1" name="file1">
      <init_from>file:///E:/depth/redist/entities/station/doors/swingdoor_tau_large/swingdoor_tau_large.dds</init_from>
      <extra>
        <technique profile="OpenCOLLADAMaya">
          <dgnode_type>kFile</dgnode_type>
          <image_sequence>0</image_sequence>
          <originalMayaNodeId>file1</originalMayaNodeId>
        </technique>
      </extra>
    </image>
  </library_images>
  <library_geometries>
    <geometry id="polySurfaceShape719" name="polySurfaceShape719">
      <mesh>
        <source id="polySurfaceShape719-positions" name="polySurfaceShape719-positions">
          <float_array id="polySurfaceShape719-positions-array" count="1488">0.5209717 1.951851 1.094122 0.5209717 0.6885085 1.094122 0.5209717 0.9932027 1.220373 0.5209717 1.32018 1.263435 0.5209717 1.647157 1.220373 0.8215747 1.967584 1.121381 0.8215747 0.672776 1.121381 0.8215747 0.9850589 1.250777 0.8215747 1.32018 1.294911 0.8215747 1.655301 1.250777 0.8215747 0.6777821 1.640966 0.8215747 0.9547301 1.640966 0.5209717 0.6881612 1.640966 0.5209717 0.9601028 1.640966 0.8215747 1.32018 1.640966 0.5209717 1.32018 1.640966 0.8215747 1.68563 1.640966 0.5209717 1.680257 1.640966 0.8215747 1.962578 1.640966 0.5209717 1.952199 1.640966 0.5209717 1.951851 -1.094419 0.5209717 1.647157 -1.220627 0.5209717 1.32018 -1.263675 0.5209717 0.9932027 -1.220627 0.5209717 0.6885085 -1.094419 0.8215747 1.967584 -1.121669 0.8215747 1.655301 -1.251021 0.8215747 1.32018 -1.29514 0.8215747 0.9850589 -1.251021 0.8215747 0.672776 -1.121669 0.8215747 1.962516 -1.641281 0.8215747 1.685587 -1.641281 0.5209717 1.952137 -1.641281 0.5209717 1.680214 -1.641281 0.8215747 1.32018 -1.641281 0.5209717 1.32018 -1.641281 0.8215747 0.9547727 -1.641281 0.5209717 0.9601453 -1.641281 0.8215747 0.677843 -1.641281 0.5209717 0.6882221 -1.641281 1.0174 3.230432 -0.5121826 1.0174 3.032866 -0.989151 1.0174 2.718582 -1.398734 1.0174 2.309 -1.713017 1.017401 1.832031 -1.910584 1.0174 1.32018 -1.977971 1.0174 0.8083293 -1.910584 1.0174 0.3313605 -1.713018 1.0174 -0.07822198 -1.398734 1.0174 -0.3925057 -0.9891516 1.0174 -0.5900726 -0.5121826 1.0174 -0.6574585 -3.32031e-4 1.0174 3.297818 -3.32031e-4 0.0173999 3.230432 -0.5121826 0.0173999 3.032865 -0.989151 0.0173999 2.718582 -1.398734 0.0173999 2.309 -1.713017 0.0173999 1.832031 -1.910584 0.0173999 1.320179 -1.977971 0.0173999 0.8083293 -1.910584 0.0173999 0.3313604 -1.713018 0.0173999 -0.07822198 -1.398734 0.0173999 -0.3925057 -0.9891516 0.0173999 -0.5900726 -0.5121826 0.0173999 -0.6574585 -3.32031e-4 0.0173999 3.297819 -3.32031e-4 1.048545 2.616404 -0.3476541 0.9874036 2.587635 -0.3399454 1.048545 2.482343 -0.6713068 0.9874036 2.456549 -0.6564148 1.048545 2.269082 -0.9492334 0.9874036 2.248021 -0.9281732 1.048545 1.991155 -1.162495 0.9874036 1.976263 -1.136701 1.048545 1.667502 -1.296556 0.9874036 1.659793 -1.267787 1.048545 1.32018 -1.342281 0.9874036 1.32018 -1.312498 1.048545 0.9728577 -1.296556 0.9874036 0.9805663 -1.267787 1.048545 0.649205 -1.162495 0.9874036 0.664097 -1.136701 1.048545 0.3712779 -0.949234 0.9874036 0.3923382 -0.9281732 1.048545 0.158017 -0.6713068 0.9874036 0.1838106 -0.6564148 1.048545 0.02395571 -0.3476541 0.9874036 0.05272479 -0.3399457 1.048545 -0.02177022 -3.32031e-4 0.9874036 0.008013791 -3.32031e-4 1.048545 2.66213 -3.32031e-4 0.9874036 2.632346 -3.32031e-4 0.0173999 2.553152 -0.3307056 0.04739746 2.525787 -0.3233731 0.0173999 2.425632 -0.6385651 0.04739746 2.401098 -0.6244 0.0173999 2.222778 -0.9029297 0.04739746 2.202745 -0.8828973 0.0173999 1.958414 -1.105784 0.04739746 1.944248 -1.081249 0.0173999 1.650554 -1.233304 0.04739746 1.643221 -1.205939 0.0173999 1.32018 -1.276798 0.04739746 1.32018 -1.248468 0.0173999 0.989806 -1.233304 0.04739746 0.9971385 -1.205939 0.0173999 0.6819467 -1.105784 0.04739746 0.6961119 -1.081249 0.0173999 0.4175816 -0.9029303 0.04739746 0.4376142 -0.8828973 0.0173999 0.2147272 -0.6385651 0.04739746 0.2392622 -0.6244 0.0173999 0.08720773 -0.3307059 0.04739746 0.1145729 -0.3233734 0.0173999 0.0437131 -3.32031e-4 0.04739746 0.07204369 -3.32031e-4 0.0173999 2.596647 -3.32031e-4 0.04739746 2.568316 -3.32031e-4 0.1265967 2.506721 -3.32031e-4 0.1068274 2.521215 -3.32031e-4 0.1265967 2.46629 -0.307431 0.1068274 2.480291 -0.3111826 0.1265967 2.347754 -0.593602 0.1068274 2.360306 -0.600849 0.1265967 2.159191 -0.8393427 0.1068274 2.16944 -0.8495917 0.1265967 1.91345 -1.027906 0.1068274 1.920697 -1.040458 0.1265967 1.627279 -1.146442 0.1068274 1.63103 -1.160442 0.1265967 1.32018 -1.186873 0.1068274 1.32018 -1.201367 0.1265967 1.013081 -1.146442 0.1068274 1.009329 -1.160442 0.1265967 0.7269095 -1.027906 0.1068274 0.7196626 -1.040458 0.1265967 0.481169 -0.8393427 0.1068274 0.4709201 -0.8495917 0.1265967 0.2926056 -0.5936023 0.1068274 0.2800533 -0.6008493 0.1265967 0.1740696 -0.3074313 0.1068274 0.1600694 -0.3111826 0.1265967 0.1336391 -3.32031e-4 0.1068274 0.1191452 -3.32031e-4 0.1002124 2.55655 -3.32031e-4 0.08535889 2.568316 -3.32031e-4 0.1002124 2.514421 -0.3203278 0.08535889 2.525787 -0.3233731 0.1002124 2.390907 -0.6185165 0.08535889 2.401098 -0.6244 0.1002124 2.194425 -0.874577 0.08535889 2.202745 -0.8828973 0.1002124 1.938365 -1.071059 0.08535889 1.944248 -1.081249 0.1002124 1.640175 -1.194573 0.08535889 1.643221 -1.205939 0.1002124 1.32018 -1.236701 0.08535889 1.32018 -1.248468 0.1002124 1.000184 -1.194573 0.08535889 0.9971385 -1.205939 0.1002124 0.7019952 -1.071059 0.08535889 0.6961119 -1.081249 0.1002124 0.4459344 -0.874577 0.08535889 0.4376142 -0.8828973 0.1002124 0.2494523 -0.6185168 0.08535889 0.2392622 -0.6244 0.1002124 0.1259385 -0.3203281 0.08535889 0.1145729 -0.3233734 0.1002124 0.08381027 -3.32031e-4 0.08535889 0.07204369 -3.32031e-4 0.0173999 0.6500784 -1.160981 0.0173999 0.3725131 -0.9479987 0.0173999 0.15953 -0.6704333 0.0173999 0.02564324 -0.3472021 0.0173999 -0.02002309 -3.32031e-4 0.0173999 2.660383 -3.32031e-4 0.0173999 2.614716 -0.3472018 0.0173999 2.48083 -0.6704333 0.0173999 2.267846 -0.947998 0.0173999 1.990282 -1.160981 0.0173999 1.66705 -1.294868 0.0173999 1.32018 -1.340535 0.0173999 0.9733099 -1.294868 0 0.6616546 -1.140931 0 0.3888843 -0.9316272 0 0.1795805 -0.6588574 0 0.04800661 -0.3412097 0 0.003129242 -3.32031e-4 0 2.637231 -3.32031e-4 0 2.592353 -0.3412097 0 2.460779 -0.6588574 0 2.251475 -0.9316272 0 1.978705 -1.140931 0 1.661057 -1.272505 0 1.32018 -1.317382 0 0.9793021 -1.272505 0.1934692 2.511506 -3.32031e-4 0.1934692 2.470912 -0.3086697 0.1934692 2.351898 -0.5959946 0.1934692 2.162574 -0.8427264 0.1934692 1.915843 -1.03205 0.1934692 1.628517 -1.151064 0.1934692 1.32018 -1.191658 0.1934692 1.011842 -1.151064 0.1934692 0.7245171 -1.03205 0.1934692 0.4777853 -0.8427264 0.1934692 0.2884615 -0.5959949 0.1934692 0.1694476 -0.3086697 0.1934692 0.1288541 -3.32031e-4 0.3103296 2.561474 -3.32031e-4 0.3103296 2.519178 -0.3216025 0.3103296 2.395172 -0.620979 0.3103296 2.197907 -0.8780591 0.3103296 1.940827 -1.075324 0.3103296 1.64145 -1.19933 0.3103296 1.32018 -1.241626 0.3103296 0.9989094 -1.19933 0.3103296 0.6995329 -1.075324 0.3103296 0.4424523 -0.8780597 0.3103296 0.2451875 -0.620979 0.3103296 0.1211819 -0.3216025 0.3103296 0.07888569 -3.32031e-4 0.2454553 2.546685 -3.32031e-4 0.2454553 2.504892 -0.3177747 0.2454553 2.382364 -0.613584 0.2454553 2.18745 -0.8676013 0.2454553 1.933432 -1.062516 0.2454553 1.637622 -1.185045 0.2454553 1.32018 -1.226837 0.2454553 1.002737 -1.185045 0.2454553 0.7069276 -1.062516 0.2454553 0.45291 -0.8676019 0.2454553 0.2579956 -0.6135843 0.2454553 0.1354674 -0.3177747 0.2454553 0.09367516 -3.32031e-4 1.0174 3.230432 0.5116907 1.0174 3.032866 0.9888196 1.0174 2.718582 1.398539 1.0174 2.309 1.712929 1.017401 1.832031 1.910562 1.0174 1.32018 1.977971 1.0174 0.8083293 1.910562 1.0174 0.3313605 1.712929 1.0174 -0.07822198 1.39854 1.0174 -0.3925057 0.9888196 1.0174 -0.5900726 0.5116907 0.0173999 3.230432 0.5116907 0.0173999 3.032865 0.9888193 0.0173999 2.718582 1.398539 0.0173999 2.309 1.712929 0.0173999 1.832031 1.910562 0.0173999 1.320179 1.977971 0.0173999 0.8083293 1.910562 0.0173999 0.3313604 1.712929 0.0173999 -0.07822198 1.39854 0.0173999 -0.3925057 0.9888196 0.0173999 -0.5900726 0.5116907 1.048545 2.616404 0.3471066 0.9874036 2.587635 0.3393954 1.048545 2.482343 0.6708682 0.9874036 2.456549 0.6559714 1.048545 2.269082 0.9488885 0.9874036 2.248021 0.927821 1.048545 1.991155 1.162221 0.9874036 1.976263 1.136419 1.048545 1.667502 1.296328 0.9874036 1.659793 1.267549 1.048545 1.32018 1.342068 0.9874036 1.32018 1.312275 1.048545 0.9728577 1.296328 0.9874036 0.9805663 1.267549 1.048545 0.649205 1.162221 0.9874036 0.664097 1.136419 1.048545 0.3712779 0.9488885 0.9874036 0.3923382 0.9278214 1.048545 0.158017 0.6708682 0.9874036 0.1838106 0.6559714 1.048545 0.02395571 0.3471069 0.9874036 0.05272479 0.3393958 0.0173999 2.553152 0.3301526 0.04739746 2.525787 0.3228177 0.0173999 2.425632 0.6381155 0.04739746 2.401098 0.6239456 0.0173999 2.222778 0.9025693 0.04739746 2.202745 0.8825299 0.0173999 1.958414 1.105492 0.04739746 1.944248 1.080949 0.0173999 1.650554 1.233054 0.04739746 1.643221 1.20568 0.0173999 1.32018 1.276563 0.04739746 1.32018 1.248223 0.0173999 0.989806 1.233054 0.04739746 0.9971385 1.20568 0.0173999 0.6819467 1.105492 0.04739746 0.6961119 1.080949 0.0173999 0.4175816 0.9025693 0.04739746 0.4376142 0.8825299 0.0173999 0.2147272 0.6381155 0.04739746 0.2392622 0.6239456 0.0173999 0.08720773 0.3301529 0.04739746 0.1145729 0.322818 0.1265967 2.46629 0.3068704 0.1068274 2.480291 0.3106229 0.1265967 2.347754 0.5931375 0.1379724 2.360306 0.600387 0.1265967 2.159191 0.8389606 0.1379724 2.16944 0.849213 0.1265967 1.91345 1.027587 0.1068274 1.920697 1.040144 0.1265967 1.627279 1.146163 0.1068274 1.63103 1.160168 0.1265967 1.32018 1.186607 0.1068274 1.32018 1.201106 0.1265967 1.013081 1.146163 0.1068274 1.009329 1.160168 0.1265967 0.7269095 1.027587 0.1068274 0.7196626 1.040144 0.1265967 0.481169 0.8389609 0.1068274 0.4709201 0.849213 0.1265967 0.2926056 0.5931375 0.1068274 0.2800533 0.600387 0.1265967 0.1740696 0.3068704 0.1068274 0.1600694 0.3106229 0.1002124 2.514421 0.3197714 0.08535889 2.525787 0.3228177 0.1313574 2.390907 0.6180603 0.08535889 2.401098 0.6239456 0.1313574 2.194425 0.8742068 0.08535889 2.202745 0.8825299 0.1002124 1.938365 1.070755 0.08535889 1.944248 1.080949 0.1002124 1.640175 1.194311 0.08535889 1.643221 1.20568 0.1002124 1.32018 1.236453 0.08535889 1.32018 1.248223 0.1002124 1.000184 1.194311 0.08535889 0.9971385 1.20568 0.1002124 0.7019952 1.070755 0.08535889 0.6961119 1.080949 0.1002124 0.4459344 0.8742072 0.08535889 0.4376142 0.8825299 0.1002124 0.2494523 0.6180603 0.08535889 0.2392622 0.6239456 0.1002124 0.1259385 0.3197714 0.08535889 0.1145729 0.322818 0.0173999 0.6500784 1.160708 0.0173999 0.3725131 0.9476529 0.0173999 0.15953 0.6699945 0.0173999 0.02564324 0.3466547 0.0173999 2.614716 0.3466544 0.0173999 2.48083 0.6699945 0.0173999 2.267846 0.9476526 0.0173999 1.990282 1.160707 0.0173999 1.66705 1.294639 0.0173999 1.32018 1.340321 0.0173999 0.9733099 1.29464 0 0.6616546 1.14065 0 0.3888843 0.9312762 0 0.1795805 0.6584143 0 0.04800661 0.3406604 0 2.592353 0.3406601 0 2.460779 0.6584143 0 2.251475 0.9312759 0 1.978705 1.14065 0 1.661057 1.272268 0 1.32018 1.317161 0 0.9793021 1.272269 0.1934692 2.470912 0.3081091 0.1934692 2.351898 0.5955307 0.1934692 2.162574 0.8423453 0.1934692 1.915843 1.031733 0.1934692 1.628517 1.150787 0.1934692 1.32018 1.191394 0.1934692 1.011842 1.150787 0.1934692 0.7245171 1.031733 0.1934692 0.4777853 0.8423456 0.1934692 0.2884615 0.595531 0.1934692 0.1694476 0.3081094 0.3103296 2.519178 0.3210464 0.3103296 2.395172 0.6205234 0.3103296 2.197907 0.8776901 0.3103296 1.940827 1.075021 0.3103296 1.64145 1.199069 0.3103296 1.32018 1.241379 0.3103296 0.9989094 1.199069 0.3103296 0.6995329 1.075021 0.3103296 0.4424523 0.8776904 0.3103296 0.2451875 0.6205237 0.3103296 0.1211819 0.3210464 0.2454553 2.504892 0.3172171 0.2454553 2.382364 0.6131262 0.2454553 2.18745 0.867229 0.2454553 1.933432 1.062209 0.2454553 1.637622 1.184778 0.2454553 1.32018 1.226584 0.2454553 1.002737 1.184778 0.2454553 0.7069276 1.062209 0.2454553 0.45291 0.8672293 0.2454553 0.2579956 0.6131262 0.2454553 0.1354674 0.3172174 1.048545 2.710174 0.3722406 1.048545 2.566414 0.7194233 1.048545 2.337726 1.017556 1.048545 2.039694 1.246321 1.048545 1.692628 1.390129 1.048545 1.32018 1.439179 1.048545 0.9477322 1.390129 1.048545 0.6006663 1.246321 1.048545 0.3026338 1.017556 1.048545 0.07394546 0.7194233 1.048545 -0.06981394 0.3722409 1.048545 -0.1188476 -3.32031e-4 1.048545 -0.06981394 -0.3727797 1.048545 0.07394546 -0.7198456 1.048545 0.3026338 -1.017878 1.048545 0.6006663 -1.246566 1.048545 0.9477322 -1.390325 1.048545 1.32018 -1.439359 1.048545 1.692628 -1.390325 1.048545 2.039694 -1.246566 1.048545 2.337726 -1.017878 1.048545 2.566414 -0.7198455 1.048545 2.710174 -0.3727797 1.048545 2.759208 -3.32031e-4 1.0174 2.740714 0.3804264 1.0174 2.593795 0.735237 1.0174 2.360082 1.03992 1.0174 2.055502 1.273711 1.0174 1.700811 1.420678 1.0174 1.32018 1.470806 1.0174 0.9395491 1.420679 1.0174 0.5848579 1.273711 1.0174 0.2802774 1.03992 1.0174 0.04656457 0.735237 1.0174 -0.1003534 0.3804267 1.0174 -0.1504643 -3.32031e-4 1.0174 -0.1003534 -0.3809627 1.0174 0.04656457 -0.735654 1.0174 0.2802774 -1.040235 1.0174 0.5848579 -1.273947 1.0174 0.9395491 -1.420865 1.0174 1.32018 -1.470976 1.0174 1.700811 -1.420865 1.0174 2.055502 -1.273947 1.0174 2.360082 -1.040234 1.0174 2.593795 -0.7356538 1.0174 2.740714 -0.3809627 1.0174 2.790824 -3.32031e-4 0.5209717 2.213498 0.8932862 0.5209717 2.414267 0.6315515 0.5209717 2.540475 0.3267549 0.5209717 2.583523 -3.32031e-4 0.5209717 2.540475 -0.3273091 0.5209717 2.414267 -0.6320033 0.5209717 2.213498 -0.8936499 0.5209717 0.4268615 -0.8936504 0.5209717 0.2260928 -0.6320033 0.5209717 0.09988445 -0.3273092 0.5209717 0.05683699 -3.32031e-4 0.5209717 0.09988445 0.326755 0.5209717 0.2260928 0.6315517 0.5209717 0.4268615 0.8932864 0.8215747 2.235747 0.9155431 0.8215747 2.441517 0.6472894 0.8215747 2.570869 0.3349014 0.8215747 2.614988 -3.32031e-4 0.8215747 2.570869 -0.3354528 0.8215747 2.441517 -0.6477359 0.8215747 2.235747 -0.9158993 0.8215747 0.4046121 -0.9158995 0.8215747 0.198843 -0.6477359 0.8215747 0.06949127 -0.3354531 0.8215747 0.0253717 -3.32031e-4 0.8215747 0.06949127 0.3349017 0.8215747 0.198843 0.6472896 0.8215747 0.4046121 0.9155433 0.5209717 1.951851 1.094122 0.5209717 1.951851 -1.094419 0.5209717 1.647157 -1.220627 0.5209717 1.32018 -1.263675 0.5209717 0.9932027 -1.220627 0.5209717 0.6885085 -1.094419 0.5209717 0.6885085 1.094122 0.5209717 0.9932027 1.220373 0.5209717 1.32018 1.263435 0.5209717 1.647157 1.220373 0.8215747 1.967584 1.121381 0.8215747 1.967584 -1.121669 0.8215747 1.655301 -1.251021 0.8215747 1.32018 -1.29514 0.8215747 0.9850589 -1.251021 0.8215747 0.672776 -1.121669 0.8215747 0.672776 1.121381 0.8215747 0.9850589 1.250777 0.8215747 1.32018 1.294911 0.8215747 1.655301 1.250777</float_array>
          <technique_common>
            <accessor source="#polySurfaceShape719-positions-array" count="496" stride="3">
              <param name="X" type="float"/>
              <param name="Y" type="float"/>
              <param name="Z" type="float"/>
            </accessor>
          </technique_common>
        </source>
        <source id="polySurfaceShape719-normals" name="polySurfaceShape719-normals">
          <float_array id="polySurfaceShape719-normals-array" count="1488">0.7223533 -0.6915175 -0.00302105 0.7223532 0.6915177 -0.003020997 0.9999999 0 0 0.9999999 0 0 0.9999999 0 0 -0.691524 -0.7223466 -0.003155732 -0.6915243 0.7223463 -0.003155676 -0.9999999 0 0 -0.9999999 0 0 -0.9999999 0 0 -0.5595489 0.5844887 -0.5876036 -0.7071068 0 -0.7071067 0.5931101 0.5677917 -0.5708177 0.7071068 0 -0.7071067 -0.7071068 0 -0.7071068 0.7071068 0 -0.7071067 -0.7071067 0 -0.7071068 0.7071068 0 -0.7071067 -0.5595485 -0.584489 -0.5876036 0.5931102 -0.5677918 -0.5708176 0.7223553 -0.6915152 0.003100534 0.9999999 0 0 0.9999999 0 0 0.9999999 0 0 0.7223549 0.6915154 0.003099851 -0.6915224 -0.7223479 0.003238778 -0.9999999 0 0 -0.9999999 0 0 -0.9999999 0 0 -0.6915223 0.7223478 0.003238062 -0.5595247 -0.5844663 0.587649 -0.7071066 0 0.7071068 0.5930904 -0.5677691 0.5708609 0.7071068 0 0.7071066 -0.7071067 0 0.7071068 0.7071069 0 0.7071066 -0.7071068 0 0.7071066 0.7071068 0 0.7071068 -0.559525 0.5844667 0.5876482 0.5930901 0.5677697 0.5708605 0.9999999 0 0 0.9999999 0 0 0.9999999 0 0 0.9999999 0 0 0.9999999 0 0 0.9999999 0 0 0.9999999 0 0 0.9999999 0 0 0.9999999 0 0 0.9999999 0 0 0.9999999 0 0 0.9999999 0 0 0.9999999 0 0 -0.9999999 0 0 -0.9999999 0 0 -0.9999999 0 0 -0.9999999 0 0 -0.9999999 0 0 -0.9999999 0 0 -0.9999999 0 0 -0.9999999 0 0 -0.9999999 0 0 -0.9999999 0 0 -0.9999999 0 0 -0.9999999 0 0 -0.9999999 0 0 0.8490704 -0.5102789 0.1367292 0.2753305 -0.9285923 0.248816 0.8490698 -0.4575044 0.2641406 0.2753296 -0.8325532 0.4806752 0.8490694 -0.3735514 0.3735513 0.2753289 -0.6797773 0.679777 0.8490695 -0.2641402 0.4575049 0.2753292 -0.4806748 0.8325536 0.8490697 -0.1367285 0.5102802 0.2753293 -0.2488149 0.928593 0.8490698 0 0.5282806 0.2753295 0 0.9613499 0.8490698 0.136729 0.51028 0.2753293 0.2488154 0.9285929 0.84907 0.26414 0.4575042 0.2753298 0.4806747 0.8325534 0.8490704 0.3735502 0.37355 0.2753304 0.679777 0.6797767 0.8490701 0.4575041 0.2641399 0.2753301 0.8325534 0.4806747 0.8490701 0.5102794 0.136729 0.2753303 0.9285924 0.2488157 0.8490699 0.5282805 0 0.2753305 0.9613497 0 0.8490701 -0.5282801 0 0.2753304 -0.9613495 0 -0.8201242 -0.5526887 0.1480926 -0.3701906 -0.8973023 0.2404319 -0.8201239 -0.4955273 0.2860932 -0.3701899 -0.8044996 0.4644782 -0.8201229 -0.4045975 0.4045976 -0.3701889 -0.6568716 0.6568713 -0.820123 -0.2860937 0.4955285 -0.3701897 -0.4644782 0.8044996 -0.8201232 -0.1480926 0.5526902 -0.3701893 -0.2404311 0.897303 -0.8201228 0 0.5721874 -0.3701884 0 0.9289567 -0.8201232 0.1480928 0.5526901 -0.3701897 0.2404316 0.8973028 -0.8201237 0.2860929 0.4955279 -0.3701908 0.4644777 0.8044994 -0.820124 0.4045961 0.4045965 -0.3701909 0.6568707 0.656871 -0.8201241 0.4955273 0.2860927 -0.3701906 0.8044994 0.4644778 -0.820124 0.5526888 0.1480925 -0.3701907 0.8973024 0.2404315 -0.8201242 0.5721856 0 -0.3701908 0.9289557 0 -0.8201239 -0.5721859 0 -0.3701903 -0.928956 0 -0.2774516 -0.9607397 0 -0.846955 -0.5316646 0 -0.2774525 -0.9280027 0.2486583 -0.8469557 -0.5135473 0.137605 -0.2774519 -0.8320248 0.48037 -0.8469554 -0.4604344 0.2658322 -0.2774527 -0.6793457 0.6793448 -0.846956 -0.3759428 0.375942 -0.2774544 -0.4803688 0.8320244 -0.8469577 -0.26583 0.4604314 -0.2774525 -0.2486575 0.928003 -0.8469565 -0.137604 0.5135463 -0.2774515 0 0.9607396 -0.8469557 0 0.5316635 -0.2774521 0.248658 0.9280029 -0.8469563 0.1376045 0.5135465 -0.277454 0.4803689 0.8320246 -0.8469571 0.2658303 0.4604323 -0.2774543 0.6793447 0.679345 -0.8469571 0.3759412 0.3759414 -0.2774529 0.8320245 0.4803697 -0.8469563 0.4604332 0.2658313 -0.2774525 0.928003 0.2486577 -0.8469557 0.5135474 0.1376046 -0.2774521 0.9607394 0 -0.8469552 0.5316641 0 -0.8566684 -0.5158674 0 -0.3292884 -0.9442294 0 -0.8566691 -0.4982885 0.133516 -0.3292897 -0.9120551 0.2443845 -0.8566706 -0.4467512 0.2579318 -0.3292924 -0.8177255 0.4721138 -0.8566715 -0.3647698 0.3647697 -0.329294 -0.6676697 0.6676695 -0.8566698 -0.2579324 0.4467522 -0.3292909 -0.4721141 0.8177261 -0.8566689 -0.133516 0.498289 -0.3292884 -0.2443843 0.9120556 -0.8566694 0 0.5158658 -0.3292895 0 0.9442289 -0.856669 0.1335161 0.4982887 -0.3292888 0.2443847 0.9120553 -0.8566691 0.2579331 0.4467533 -0.3292893 0.4721143 0.8177264 -0.8566689 0.3647726 0.3647728 -0.3292891 0.6676707 0.667671 -0.8566681 0.4467547 0.257934 -0.3292871 0.817727 0.472115 -0.8566681 0.4982902 0.1335165 -0.3292871 0.9120561 0.2443847 -0.8566679 0.5158682 0 -0.329287 0.9442298 0 -0.9486924 -0.1580999 -0.2738376 -0.9486924 -0.2235872 -0.2235873 -0.9486923 -0.2738384 -0.1581006 -0.9486922 -0.3054271 -0.08183894 -0.948692 -0.3162015 0 -0.948692 0.3162013 0 -0.948692 0.3054275 -0.08183915 -0.9486917 0.2738394 -0.1581015 -0.9486919 0.2235885 -0.2235885 -0.9486924 0.1581004 -0.2738377 -0.9486922 0.08183869 -0.3054266 -0.9486922 0 -0.3162008 -0.9486923 -0.08183885 -0.3054263 -0.9929028 -0.05946444 -0.1029959 -0.9929027 -0.08409602 -0.0840959 -0.9929026 -0.1029974 -0.05946554 -0.9929026 -0.1148786 -0.03078165 -0.9929024 -0.118931 0 -0.9929025 0.118931 0 -0.9929024 0.1148793 -0.03078206 -0.9929022 0.1029989 -0.0594665 -0.9929025 0.08409744 -0.08409721 -0.9929026 0.05946472 -0.1029958 -0.9929026 0.0307813 -0.114878 -0.9929025 0 -0.1189307 -0.9929027 -0.0307814 -0.1148774 0.3273789 -0.9448932 0 0.3273793 -0.9126964 0.2445569 0.3273796 -0.8183013 0.4724465 0.3273796 -0.6681402 0.6681401 0.3273809 -0.4724459 0.818301 0.3273814 -0.2445561 0.9126959 0.3273808 0 0.9448925 0.3273808 0.2445565 0.9126959 0.3273805 0.4724458 0.8183012 0.3273803 0.6681398 0.6681404 0.3273797 0.8183013 0.4724464 0.3273787 0.9126967 0.2445564 0.3273785 0.9448934 0 0.163489 -0.9865451 0 0.1634893 -0.9529292 0.2553371 0.1634895 -0.8543729 0.4932729 0.1634896 -0.6975927 0.6975926 0.1634897 -0.4932727 0.8543729 0.1634891 -0.2553365 0.9529294 0.163489 0 0.9865451 0.1634894 0.2553368 0.9529293 0.1634901 0.493272 0.8543733 0.1634903 0.6975923 0.6975929 0.1634899 0.8543733 0.4932721 0.1634899 0.9529293 0.2553366 0.16349 0.986545 0 0.3983701 -0.9172248 0 0.3983704 -0.8859709 0.2373957 0.3983709 -0.7943395 0.4586124 0.3983705 -0.6485758 0.6485757 0.3983711 -0.4586124 0.7943395 0.3983717 -0.237395 0.8859705 0.3983713 0 0.9172242 0.3983713 0.2373954 0.8859705 0.3983717 0.4586117 0.7943396 0.3983719 0.6485749 0.6485755 0.3983714 0.7943396 0.4586118 0.3983711 0.8859708 0.2373951 0.3983712 0.9172243 0 0.9999999 0 0 0.9999999 0 0 0.9999999 0 0 0.9999999 0 0 0.9999999 0 0 0.9999999 0 0 0.9999999 0 0 0.9999999 0 0 0.9999999 0 0 0.9999999 0 0 0.9999999 0 0 -0.9999999 0 0 -0.9999999 0 0 -0.9999999 0 0 -0.9999999 0 0 -0.9999999 0 0 -0.9999999 0 0 -0.9999999 0 0 -0.9999999 0 0 -0.9999999 0 0 -0.9999999 0 0 -0.9999999 0 0 0.8490719 -0.5102879 -0.1366868 0.2753354 -0.9286112 -0.2487399 0.849078 -0.4575304 -0.2640691 0.2753497 -0.8326162 -0.4805547 0.8490871 -0.3735921 -0.3734702 0.2753699 -0.6798794 -0.6796582 0.8490965 -0.2641834 -0.45743 0.2753907 -0.4807834 -0.8324705 0.8491032 -0.1367566 -0.510217 0.2754056 -0.2488854 -0.9285515 0.8491053 0 -0.5282236 0.2754104 0 -0.9613267 0.8491031 0.1367568 -0.5102172 0.2754053 0.2488856 -0.9285515 0.8490964 0.2641834 -0.4574302 0.2753905 0.4807833 -0.8324707 0.8490869 0.3735922 -0.3734705 0.2753695 0.6798793 -0.6796585 0.8490779 0.4575305 -0.2640691 0.2753496 0.8326162 -0.4805547 0.8490717 0.5102882 -0.1366866 0.2753356 0.9286112 -0.2487396 -0.8201295 -0.5526937 -0.1480449 -0.3701954 -0.8973202 -0.2403581 -0.8201444 -0.4955431 -0.2860075 -0.3702097 -0.8045584 -0.4643602 -0.8201647 -0.4046224 -0.4044881 -0.3702292 -0.6569676 -0.6567525 -0.8201854 -0.28612 -0.4954101 -0.3702492 -0.4645801 -0.8044133 -0.8202008 -0.1481095 -0.5525704 -0.3702636 -0.2404965 -0.8972549 -0.8202069 0 -0.5720668 -0.3702688 0 -0.9289246 -0.8202015 0.1481095 -0.5525694 -0.3702638 0.2404969 -0.8972546 -0.8201861 0.2861194 -0.4954092 -0.3702494 0.4645799 -0.8044133 -0.8201655 0.4046215 -0.4044875 -0.3702295 0.6569673 -0.6567527 -0.8201448 0.4955428 -0.286007 -0.3702099 0.8045584 -0.4643602 -0.8201296 0.5526935 -0.1480448 -0.3701956 0.8973201 -0.2403577 -0.4166526 -0.8864123 -0.2016771 -0.9212827 -0.3861722 -0.04592585 -0.6981308 -0.6529241 -0.2937748 -0.9975442 -0.0374576 0.05918293 -0.698148 -0.452902 -0.5544989 -0.9975439 0.04748961 -0.05148798 -0.4166948 -0.4243824 -0.803906 -0.9213141 -0.1443383 -0.3610359 -0.277514 -0.2487284 -0.9279656 -0.8470113 -0.1376239 -0.5134506 -0.2775185 0 -0.9607202 -0.8470151 0 -0.5315686 -0.277513 0.2487289 -0.9279656 -0.8470105 0.1376245 -0.5134516 -0.2775005 0.48048 -0.8319451 -0.8469993 0.2658626 -0.460336 -0.277484 0.6794495 -0.6792282 -0.8469847 0.3759722 -0.3758483 -0.2774678 0.8320888 -0.4802499 -0.8469701 0.4604523 -0.2657545 -0.2774562 0.9280222 -0.2485817 -0.8469592 0.5135534 -0.1375608 -0.8148132 -0.5660955 -0.1249614 -0.2555884 -0.9337168 -0.2506942 -0.7529438 -0.5850415 -0.3013335 -0.1542705 -0.8573033 -0.4911533 -0.7529693 -0.4426109 -0.4869626 -0.1542859 -0.6965145 -0.7007591 -0.8148628 -0.2672968 -0.5143452 -0.2556373 -0.4839972 -0.8368968 -0.8567218 -0.133534 -0.4981929 -0.329359 -0.2444518 -0.9120122 -0.8567245 0 -0.5157743 -0.3293615 0 -0.9442039 -0.8567218 0.1335344 -0.4981931 -0.3293585 0.2444523 -0.912012 -0.8567119 0.2579613 -0.4466549 -0.3293461 0.4722201 -0.8176426 -0.8566967 0.3648003 -0.3646798 -0.3293254 0.6677709 -0.6675529 -0.8566822 0.4467714 -0.2578584 -0.329306 0.8177881 -0.4719961 -0.8566719 0.4982951 -0.1334737 -0.3292924 0.9120741 -0.2443098 -0.9487115 -0.1581111 0.2737656 -0.9487048 -0.2235982 0.223524 -0.9486984 -0.2738447 0.1580519 -0.9486938 -0.3054291 0.08181235 -0.9486937 0.3054292 0.08181242 -0.9486984 0.2738446 0.1580519 -0.9487047 0.2235984 0.2235244 -0.948711 0.1581118 0.2737667 -0.9487154 0.081846 0.3053529 -0.9487168 0 0.3161272 -0.9487157 -0.08184568 0.305352 -0.9929043 -0.05947261 0.1029758 -0.9929038 -0.084104 0.08407647 -0.992903 -0.1030017 0.05944863 -0.9929026 -0.11488 0.03077191 -0.9929026 0.1148801 0.03077212 -0.9929032 0.1030013 0.05944828 -0.9929038 0.08410344 0.08407609 -0.9929042 0.05947277 0.102976 -0.9929046 0.0307864 0.1148597 -0.9929044 0 0.1189146 -0.9929045 -0.03078629 0.1148597 0.3273845 -0.9127146 -0.2444819 0.3274007 -0.8183616 -0.4723272 0.3274226 -0.6682386 -0.6680207 0.3274441 -0.4725507 -0.8182153 0.3274595 -0.2446231 -0.9126498 0.3274649 0 -0.9448633 0.3274594 0.2446235 -0.9126499 0.3274438 0.4725505 -0.8182155 0.3274225 0.6682384 -0.668021 0.3274008 0.8183616 -0.4723271 0.3273844 0.9127147 -0.2444815 0.1634928 -0.9529494 -0.2552596 0.1635019 -0.8544405 -0.4931515 0.1635142 -0.6977031 -0.6974766 0.1635283 -0.4933894 -0.8542982 0.1635392 -0.2554119 -0.9529006 0.1635428 0 -0.9865363 0.1635391 0.2554122 -0.9529006 0.1635291 0.493389 -0.8542983 0.1635161 0.6977025 -0.6974767 0.1635034 0.8544406 -0.4931509 0.1634936 0.9529495 -0.255259 0.3983774 -0.8859872 -0.2373226 0.398397 -0.7943947 -0.4584942 0.3984226 -0.6486655 -0.6484538 0.3984488 -0.4587075 -0.7942455 0.3984689 -0.2374562 -0.8859104 0.3984762 0 -0.9171787 0.3984693 0.2374565 -0.8859102 0.3984498 0.4587069 -0.7942454 0.3984238 0.6486649 -0.6484538 0.3983976 0.7943946 -0.4584938 0.3983781 0.8859871 -0.2373221 0.9256429 0.3655127 0.09790642 0.9256491 0.3277161 0.1891447 0.9256572 0.2675874 0.2674993 0.9256648 0.1892188 0.3276286 0.9256708 0.09794899 0.3654304 0.9256728 0 0.3783249 0.9256706 -0.09794925 0.3654307 0.9256649 -0.189219 0.3276284 0.9256571 -0.2675876 0.2674993 0.9256488 -0.3277165 0.1891448 0.9256428 -0.3655126 0.09790656 0.9256408 -0.3784035 0 0.9256409 -0.3655092 -0.09793792 0.9256411 -0.3277062 -0.1892013 0.9256411 -0.2675709 -0.2675711 0.925641 -0.1892011 -0.3277063 0.9256412 -0.09793767 -0.3655086 0.9256412 0 -0.3784022 0.9256409 0.0979381 -0.3655091 0.9256409 0.1892017 -0.3277064 0.9256412 0.2675708 -0.2675709 0.9256412 0.3277055 -0.1892014 0.9256411 0.3655088 -0.09793787 0.9256406 0.3784037 0 0.9256429 0.3655127 0.09790642 0.925649 0.3277163 0.1891446 0.9256572 0.2675874 0.2674993 0.925665 0.189219 0.3276283 0.9256712 0.09794875 0.3654297 0.9256729 0 0.3783247 0.9256706 -0.09794921 0.3654307 0.925665 -0.1892189 0.3276285 0.9256571 -0.2675874 0.2674993 0.9256488 -0.3277166 0.1891448 0.9256427 -0.3655128 0.09790655 0.9256406 -0.3784035 0 0.9256409 -0.3655092 -0.0979379 0.9256411 -0.3277062 -0.1892013 0.9256411 -0.2675709 -0.2675711 0.925641 -0.1892012 -0.3277063 0.9256412 -0.09793777 -0.3655086 0.9256412 0 -0.378402 0.9256411 0.0979379 -0.3655084 0.925641 0.1892019 -0.327706 0.9256412 0.2675708 -0.2675709 0.9256413 0.3277057 -0.1892014 0.9256409 0.3655089 -0.09793786 0.9256406 0.3784035 0 0.1041226 -0.7033772 -0.7031493 0.104114 -0.8613887 -0.4971618 0.1041076 -0.9606978 -0.2573352 0.1041053 -0.9945663 0 0.1041052 -0.9606771 0.2574131 0.1041052 -0.8613195 0.4972834 0.1041052 -0.7032645 0.7032645 0.104105 0.7032644 0.7032647 0.1041051 0.8613199 0.4972828 0.1041052 0.9606772 0.2574126 0.1041052 0.9945663 0 0.1041075 0.9606979 -0.2573346 0.1041138 0.861389 -0.4971615 0.1041224 0.703377 -0.7031495 0.1041225 -0.7033773 -0.7031492 0.1041137 -0.8613889 -0.4971615 0.1041072 -0.9606979 -0.257335 0.1041049 -0.9945663 0 0.1041048 -0.9606771 0.257413 0.1041049 -0.8613197 0.4972831 0.1041052 -0.7032646 0.7032644 0.1041047 0.7032645 0.7032647 0.1041049 0.8613198 0.497283 0.1041051 0.9606773 0.2574127 0.1041051 0.9945663 0 0.1041074 0.9606979 -0.2573346 0.1041137 0.8613889 -0.4971614 0.1041225 0.7033771 -0.7031494 0.1040309 -0.534695 -0.8386172 0.1040061 -0.5345728 0.8386981 0.1041047 -0.2574124 0.9606774 0.1041049 0 0.9945663 0.1041051 0.2574127 0.9606773 0.1040061 0.534572 0.8386987 0.1040307 0.5346946 -0.8386175 0.1041373 0.2574902 -0.9606531 0.1041398 0 -0.9945626 0.1041376 -0.2574899 -0.9606531 0.1040308 -0.5346951 -0.8386172 0.104006 -0.5345727 0.8386982 0.1041044 -0.257412 0.9606775 0.1041044 0 0.9945663 0.1041044 0.2574123 0.9606774 0.1040056 0.5345723 0.8386986 0.1040309 0.5346946 -0.8386174 0.1041374 0.2574899 -0.9606531 0.1041396 0 -0.9945627 0.1041373 -0.2574896 -0.9606531</float_array>
          <technique_common>
            <accessor source="#polySurfaceShape719-normals-array" count="496" stride="3">
              <param name="X" type="float"/>
              <param name="Y" type="float"/>
              <param name="Z" type="float"/>
            </accessor>
          </technique_common>
        </source>
        <source id="polySurfaceShape719-map1" name="polySurfaceShape719-map1">
          <float_array id="polySurfaceShape719-map1-array" count="1292">0.1176287 0.3901746 0.1176287 0.4082572 0.09800184 0.4075795 0.09800184 0.3898237 0.1176287 0.3663133 0.09800184 0.3663133 0.1176287 0.3424521 0.09800184 0.3428029 0.1176287 0.3243694 0.09800184 0.3250471 0.1579618 0.3881943 0.1660001 0.4085841 0.05264807 0.4271851 0.05264902 0.4075568 0.09798944 0.4272066 0.05264902 0.4075568 0.06068707 0.3876626 0.1545846 0.3663133 0.1579618 0.3881943 0.06068707 0.3876626 0.06406426 0.3663134 0.1579618 0.3444324 0.1545846 0.3663133 0.06406426 0.3663134 0.06068707 0.3449641 0.1660001 0.3240426 0.1579618 0.3444324 0.06068707 0.3449641 0.05264902 0.3250698 0.05264902 0.3250698 0.05264807 0.3054415 0.09798944 0.30542 -0.8823713 0.3901746 -0.8823713 0.4082572 -0.9019982 0.4075795 -0.9019979 0.3898237 -0.8823708 0.3663133 -0.9019982 0.3663133 -0.8823713 0.3424521 -0.9019979 0.3428029 -0.8823713 0.3243694 -0.9019982 0.3250471 -0.8420382 0.3881944 -0.8339999 0.4085841 -0.9473519 0.4271856 -0.947351 0.4075568 -0.9020106 0.4272071 -0.947351 0.4075568 -0.9393127 0.3876626 -0.8454154 0.3663134 -0.8420382 0.3881944 -0.9393127 0.3876626 -0.9359355 0.3663133 -0.8420386 0.3444324 -0.8454154 0.3663134 -0.9359355 0.3663133 -0.9393127 0.3449641 -0.8339999 0.3240426 -0.8420386 0.3444324 -0.9393127 0.3449641 -0.947351 0.3250698 -0.947351 0.3250698 -0.9473517 0.3054417 -0.9020103 0.3054202 -0.8761003 0.9177471 -0.8761003 0.950499 -0.8934567 0.950499 -0.8934566 0.9177471 -0.8761002 0.8848968 -0.8934566 0.8848968 -0.8761002 0.8518738 -0.8934566 0.8518738 -0.8761002 0.8187058 -0.8934566 0.8518738 -0.8934566 0.8187058 -0.8761002 0.7853751 -0.8934566 0.8187058 -0.8934566 0.7853751 -0.8761002 0.7522002 -0.8934566 0.7853751 -0.8934566 0.7522002 -0.8761002 0.7190161 -0.8934566 0.7522002 -0.8934566 0.7190161 -0.8761002 0.6859655 -0.8934566 0.7190161 -0.8934566 0.6859655 -0.8761003 0.6530777 -0.8934566 0.6530776 -0.8761003 0.6202767 -0.8934567 0.6202767 -0.8761003 0.5873927 -0.8934567 0.5873927 -0.8761003 0.9833262 -0.8934567 0.9833262 -0.8689811 0.950499 -0.8689811 0.9177471 -0.8588549 0.9177471 -0.858855 0.950499 -0.868981 0.8848968 -0.8588549 0.8848968 -0.868981 0.8518738 -0.8588549 0.8518738 -0.868981 0.8187058 -0.8588549 0.8187058 -0.868981 0.7853751 -0.8588549 0.7853751 -0.868981 0.7522002 -0.8588549 0.7522002 -0.868981 0.7190161 -0.8588549 0.7190161 -0.868981 0.6859655 -0.8588549 0.6859655 -0.8588549 0.6530776 -0.8689811 0.6530776 -0.8689811 0.6202767 -0.858855 0.6202767 -0.8689811 0.5873927 -0.858855 0.5873927 -0.8689811 0.9833262 -0.858855 0.9833262 -0.9799705 0.9177471 -0.9799705 0.950499 -0.9845841 0.950499 -0.9845841 0.9177471 -0.9799705 0.8848968 -0.9845841 0.8848968 -0.9799705 0.8518738 -0.9845841 0.8518738 -0.9799705 0.8187058 -0.9845841 0.8187058 -0.9799705 0.7853751 -0.9845841 0.7853751 -0.9799705 0.7522002 -0.9845841 0.7522002 -0.9799705 0.7190161 -0.9845841 0.7190161 -0.9799705 0.6859655 -0.9845841 0.6859655 -0.9799705 0.6530777 -0.9845841 0.6530777 -0.9799705 0.6202767 -0.9845841 0.6202767 -0.9799705 0.5873927 -0.9845841 0.5873927 -0.9799705 0.9833262 -0.9845841 0.9833262 -0.9756806 0.950499 -0.9756806 0.9177471 -0.9756806 0.9833262 -0.9756806 0.8848968 -0.9756806 0.8518738 -0.9756806 0.8187058 -0.9756806 0.7853751 -0.9756806 0.7522002 -0.9756806 0.7190161 -0.9756806 0.6859655 -0.9756806 0.6530777 -0.9756806 0.6202767 -0.9756806 0.5873927 -0.9717559 0.950499 -0.9717559 0.9833262 -0.9717559 0.9177471 -0.9717559 0.8848968 -0.9717559 0.8518738 -0.9717559 0.8187058 -0.9717559 0.7853751 -0.9717559 0.7522002 -0.9717559 0.7190161 -0.9717559 0.6859655 -0.9717559 0.6530777 -0.9717559 0.6202767 -0.9717559 0.5873927 -0.9644727 0.950499 -0.9644727 0.9833262 -0.9682213 0.9833262 -0.9682213 0.950499 -0.9644727 0.9177471 -0.9682213 0.9177471 -0.9644727 0.8848968 -0.9682213 0.8848968 -0.9644727 0.8518738 -0.9682213 0.8518738 -0.9644727 0.8187058 -0.9682213 0.8187058 -0.9644727 0.7853751 -0.9682213 0.7853751 -0.9644727 0.7522002 -0.9682213 0.7522002 -0.9644727 0.7190161 -0.9682213 0.7190161 -0.9644727 0.6859655 -0.9682213 0.6859655 -0.9644727 0.6530777 -0.9682213 0.6530777 -0.9644727 0.6202767 -0.9682213 0.6202767 -0.9644727 0.5873927 -0.9682213 0.5873927 -0.9608417 0.9833262 -0.9608417 0.950499 -0.9608417 0.9177471 -0.9608417 0.8848968 -0.9608417 0.8518738 -0.9608417 0.8187058 -0.9608417 0.7853751 -0.9608417 0.7522002 -0.9608417 0.7190161 -0.9608417 0.6859655 -0.9608417 0.6530777 -0.9608417 0.6202767 -0.9608417 0.5873927 0.7802348 0.1167991 0.7160797 0.1167994 0.7160797 0.02271053 0.7802348 0.02271029 0.844723 0.1167989 0.844723 0.02271 0.9113271 0.1167989 0.9113271 0.02270994 0.9763193 0.1167988 0.9763193 0.02270982 -0.3482373 0.1167993 -0.4080239 0.1167993 -0.4080239 0.02271006 -0.3482359 0.02271 -0.2839203 0.1167994 -0.2839203 0.02270994 -0.2197652 0.1167994 -0.2197655 0.02271 -0.1552771 0.1167993 -0.1552771 0.02271011 -0.08867294 0.1167993 -0.08867294 0.02271029 -0.02368075 0.1167994 -0.02368075 0.02271041 0.6517627 0.1167995 0.5919762 0.1167994 0.5919762 0.02271041 0.6517627 0.02271047 -0.9876111 0.7190161 -0.9876111 0.6859655 -0.9876111 0.6530777 -0.9876111 0.6202767 -0.9876111 0.5873927 -0.9876111 0.9833262 -0.9876111 0.950499 -0.9876111 0.9177471 -0.9876111 0.8848968 -0.9876111 0.8518738 -0.9876111 0.8187058 -0.9876111 0.7853751 -0.9876111 0.7522002 -0.953874 0.950499 -0.953874 0.9833262 -0.953874 0.9177471 -0.953874 0.8848968 -0.953874 0.8518738 -0.953874 0.8187058 -0.953874 0.7853751 -0.953874 0.7522002 -0.953874 0.7190161 -0.953874 0.6859655 -0.953874 0.6530777 -0.953874 0.6202767 -0.953874 0.5873927 -0.9420455 0.950499 -0.9420455 0.9833262 -0.9465398 0.9833262 -0.9465398 0.950499 -0.9420455 0.9177471 -0.9465398 0.9177471 -0.9420453 0.8848968 -0.9465398 0.8848968 -0.9420453 0.8518738 -0.9465398 0.8518738 -0.9420453 0.8187058 -0.9465398 0.8187058 -0.9420453 0.7853751 -0.9465398 0.7853751 -0.9420453 0.7522002 -0.9465398 0.7522002 -0.9420453 0.7190161 -0.9465398 0.7190161 -0.9420453 0.6859655 -0.9465398 0.6859655 -0.9420455 0.6530777 -0.9465398 0.6530777 -0.9420455 0.6202767 -0.9465398 0.6202767 -0.9420455 0.5873927 -0.9465398 0.5873927 0.1238997 0.9176337 0.1065434 0.9176337 0.1065433 0.9503856 0.1238997 0.9503856 0.1238998 0.8847833 0.1065434 0.8847833 0.1238998 0.8517603 0.1065434 0.8517603 0.1238998 0.8185924 0.1065434 0.8185924 0.1065434 0.8517603 0.1238998 0.7852617 0.1065434 0.7852617 0.1065434 0.8185924 0.1238998 0.7520868 0.1065434 0.7520868 0.1065434 0.7852617 0.1238998 0.7189027 0.1065434 0.7189027 0.1065434 0.7520868 0.1238998 0.685852 0.1065434 0.6858521 0.1065434 0.7189027 0.1238997 0.6529642 0.1065434 0.6529642 0.1238997 0.6201633 0.1065433 0.6201632 0.1238997 0.5872792 0.1065433 0.5872792 0.1065433 0.9832126 0.1238997 0.9832126 0.1310189 0.9503856 0.141145 0.9503856 0.1411451 0.9176337 0.1310189 0.9176337 0.1411451 0.8847833 0.131019 0.8847833 0.1411451 0.8517603 0.131019 0.8517603 0.1411451 0.8185924 0.131019 0.8185924 0.131019 0.7852617 0.1411451 0.7852617 0.131019 0.7520868 0.1411451 0.7520868 0.131019 0.7189027 0.1411451 0.7189027 0.131019 0.685852 0.1411451 0.685852 0.1411451 0.6529642 0.1310189 0.6529642 0.141145 0.6201633 0.1310189 0.6201632 0.141145 0.5872792 0.1310189 0.5872792 0.1310189 0.9832126 0.141145 0.9832126 0.02002954 0.9176412 0.01541579 0.9176412 0.01541591 0.9504421 0.02002943 0.9504421 0.02002954 0.8847532 0.01541579 0.8847532 0.02002954 0.8517026 0.01541579 0.8517026 0.02002954 0.8185183 0.01541579 0.8185183 0.02002954 0.7853435 0.01541579 0.7853435 0.02002954 0.7520128 0.01541579 0.7520128 0.02002954 0.718845 0.01541579 0.718845 0.02002954 0.685822 0.01541579 0.685822 0.02002954 0.6529717 0.01541579 0.6529717 0.02002954 0.6202198 0.01541579 0.6202198 0.02002943 0.5873926 0.01541579 0.5873926 0.01541591 0.9833262 0.02002954 0.9833262 0.02431953 0.9504421 0.02431941 0.9176412 0.02431941 0.9833262 0.02431941 0.8847532 0.02431941 0.8517026 0.02431941 0.8185183 0.02431941 0.7853435 0.02431941 0.7520128 0.02431941 0.718845 0.02431941 0.685822 0.02431941 0.6529717 0.02431941 0.6202198 0.02431941 0.5873926 0.02824414 0.9504421 0.02824414 0.9833262 0.02824402 0.9176412 0.02824414 0.8847532 0.02824414 0.8517026 0.02824414 0.8185183 0.02824402 0.7853435 0.02824414 0.7520128 0.02824414 0.718845 0.02824414 0.685822 0.02824414 0.6529717 0.02824414 0.6202198 0.02824414 0.5873926 0.03552735 0.9504421 0.03177869 0.9504421 0.03177869 0.9833262 0.03552735 0.9833262 0.03552735 0.9176412 0.03177869 0.9176412 0.03552735 0.8847532 0.03177869 0.8847532 0.03552735 0.8517026 0.03177869 0.8517026 0.03552735 0.8185183 0.03177869 0.8185183 0.03552735 0.7853435 0.03177869 0.7853435 0.03552735 0.7520128 0.03177869 0.7520128 0.03552735 0.718845 0.03177869 0.718845 0.03552735 0.685822 0.03177869 0.685822 0.03552735 0.6529717 0.03177869 0.6529717 0.03552735 0.6202198 0.03177869 0.6202198 0.03552735 0.5873926 0.03177869 0.5873926 0.03915834 0.9833262 0.03915834 0.9504421 0.03915834 0.9176412 0.03915834 0.8847532 0.03915834 0.8517026 0.03915834 0.8185183 0.03915834 0.7853435 0.03915834 0.7520128 0.03915834 0.718845 0.03915834 0.685822 0.03915834 0.6529717 0.03915834 0.6202198 0.03915834 0.5873926 0.7802376 0.1167992 0.7802367 0.02271035 0.844726 0.0227105 0.844726 0.1167994 0.7160825 0.1167989 0.716082 0.02271 0.6517627 0.1167989 0.6517629 0.02270991 0.5919761 0.1167988 0.5919761 0.02270982 0.9113271 0.1167993 0.9113271 0.02271 0.9763193 0.02271 0.9763193 0.1167993 0.844723 0.1167994 0.844723 0.02271 0.7802348 0.1167994 0.7802348 0.02271 0.7160797 0.1167993 0.7160797 0.02271014 0.6517627 0.1167993 0.6517627 0.02271035 0.5919762 0.1167994 0.5919762 0.02271035 0.9113297 0.1167995 0.9113302 0.02271047 0.9763193 0.02271035 0.9763193 0.1167994 0.01238883 0.685822 0.01238883 0.718845 0.01238883 0.6529717 0.01238883 0.6202198 0.01238894 0.5873926 0.01238883 0.9504421 0.01238894 0.9833262 0.01238883 0.9176412 0.01238883 0.8847532 0.01238883 0.8517026 0.01238883 0.8185183 0.01238883 0.7853435 0.01238883 0.7520128 0.04612601 0.9504421 0.04612601 0.9833262 0.04612601 0.9176412 0.04612601 0.8847532 0.04612601 0.8517026 0.04612601 0.8185183 0.04612601 0.7853435 0.04612601 0.7520128 0.04612601 0.718845 0.04612601 0.685822 0.04612601 0.6529717 0.04612601 0.6202198 0.04612601 0.5873926 0.05795453 0.9503856 0.05346017 0.9504138 0.05346017 0.9832695 0.05795453 0.9832126 0.05795453 0.9176337 0.05346017 0.9176374 0.05795465 0.8847833 0.05346017 0.8847683 0.05795465 0.8517603 0.05346017 0.8517314 0.05795465 0.8185924 0.05346017 0.8185554 0.05795465 0.7852617 0.05346017 0.7853026 0.05795465 0.7520868 0.05346017 0.7520498 0.05795465 0.7189027 0.05346017 0.7188739 0.05795465 0.6858521 0.05346017 0.685837 0.05795453 0.6529642 0.05346017 0.6529679 0.05795453 0.6201632 0.05346017 0.6201915 0.05795453 0.5872792 0.05346017 0.5873358 0.1457915 0.9503856 0.1457916 0.9176337 0.1457916 0.8847833 0.1457916 0.8517603 0.1457916 0.8185924 0.1457916 0.7852617 0.1457916 0.7520868 0.1457916 0.7189027 0.1457916 0.685852 0.1457916 0.6529642 0.1457915 0.6201633 0.1457915 0.5872792 -0.8542085 0.5873927 -0.8542085 0.6202767 -0.8542084 0.6530777 -0.8542084 0.6859654 -0.8542084 0.7190161 -0.8542084 0.7522002 -0.8542084 0.7853751 -0.8542084 0.8187058 -0.8542084 0.8518738 -0.8542084 0.8848968 -0.8542084 0.9177471 -0.8542085 0.950499 -0.8542085 0.9833262 0.1457915 0.9832126 0.2358527 0.1363456 0.2358527 0.06151091 0.3001696 0.06151091 0.3001696 0.1363457 0.3643247 0.1363456 0.3643245 0.06151102 0.4288129 0.1363456 0.4288129 0.06151091 0.4954171 0.1363448 0.4954171 0.06151091 0.5604092 0.1363448 0.5604092 0.06151031 -0.7641473 0.1363449 -0.8239338 0.1363448 -0.8239338 0.06151031 -0.7641473 0.06151031 -0.6998303 0.136345 -0.6998303 0.06151025 -0.6356752 0.1363447 -0.6356752 0.06151001 -0.571187 0.06151001 -0.571187 0.1363447 -0.5045829 0.1363446 -0.5045829 0.06151001 -0.4395907 0.1363447 -0.4395907 0.06151001 0.2358527 0.1363447 0.1760661 0.1363447 0.1760661 0.06151001 0.2358527 0.06151001 0.3001696 0.1363447 0.300172 0.06150995 0.3643267 0.06151001 0.3643247 0.1363447 0.4288129 0.136345 0.428816 0.06151037 0.4954171 0.1363449 0.4954202 0.06151031 0.5604092 0.1363448 0.5604092 0.06151031 0.2358527 0.1363449 0.1760662 0.1363448 0.1760662 0.06151031 0.2358527 0.06151091 0.3001697 0.1363456 0.3001697 0.06151091 0.3643248 0.1363456 0.3643248 0.06151091 0.428813 0.1363456 0.428813 0.06151091 0.4954171 0.1363456 0.4954171 0.06151091 0.5604093 0.1363456 0.5604093 0.06151091 0.1760661 0.1363457 0.1760661 0.06151091 0.07508123 0.8517603 0.07508123 0.8847833 0.07508123 0.9176337 0.07508111 0.9503856 0.07508111 0.9832126 -0.9249189 0.950499 -0.9249189 0.9833262 -0.9249188 0.9177471 -0.9249188 0.8848968 -0.9249188 0.8518738 -0.9249188 0.8187058 -0.9249188 0.8518738 -0.9249188 0.7853751 -0.9249188 0.8187058 -0.9249188 0.7522002 -0.9249188 0.7853751 -0.9249188 0.7190161 -0.9249188 0.7522002 -0.9249188 0.6859655 -0.9249188 0.7190161 -0.9249188 0.6530777 -0.9249189 0.6202767 -0.9249189 0.5873927 0.07508111 0.6201632 0.07508111 0.5872791 0.07508123 0.6529642 0.07508123 0.6858521 0.07508123 0.7189027 0.07508123 0.7520868 0.07508123 0.7189027 0.07508123 0.7852617 0.07508123 0.7520868 0.07508123 0.8185924 0.07508123 0.7852617 0.07508123 0.8517603 0.07508123 0.8185924 0.1065434 0.8517603 0.07508123 0.8517603 -0.8934566 0.8518738 -0.9249188 0.8518738 -0.8934566 0.7190161 -0.9249188 0.7190161 0.1065434 0.7189027 0.07508123 0.7189027</float_array>
          <technique_common>
            <accessor source="#polySurfaceShape719-map1-array" count="646" stride="2">
              <param name="S" type="float"/>
              <param name="T" type="float"/>
            </accessor>
          </technique_common>
        </source>
        <vertices id="polySurfaceShape719-vertices" name="polySurfaceShape719-vertices">
          <input semantic="POSITION" source="#polySurfaceShape719-positions"/>
          <input semantic="NORMAL" source="#polySurfaceShape719-normals"/>
        </vertices>
        <triangles material="lambert2SG" count="904">
          <input semantic="VERTEX" source="#polySurfaceShape719-vertices" offset="0"/>
          <input semantic="TEXCOORD" source="#polySurfaceShape719-map1" offset="1" set="0"/>
          <p>10 1 12 2 11 0 11 0 12 2 13 3 11 0 13 3 14 4 14 4 13 3 15 5 16 6 14 4 17 7 17 7 14 4 15 5 18 8 16 6 19 9 19 9 16 6 17 7 6 11 10 1 7 10 7 10 10 1 11 0 1 13 12 2 6 12 6 12 12 2 10 14 1 15 2 16 12 2 12 2 2 16 13 3 7 18 11 0 8 17 8 17 11 0 14 4 2 19 3 20 13 3 13 3 3 20 15 5 9 21 8 22 16 6 16 6 8 22 14 4 4 24 17 7 3 23 3 23 17 7 15 5 5 25 9 26 18 8 18 8 9 26 16 6 0 28 19 9 4 27 4 27 19 9 17 7 0 29 5 30 19 9 19 9 5 30 18 31 30 33 32 34 31 32 31 32 32 34 33 35 31 32 33 35 34 36 34 36 33 35 35 37 36 38 34 36 37 39 37 39 34 36 35 37 38 40 36 38 39 41 39 41 36 38 37 39 25 43 30 33 26 42 26 42 30 33 31 32 20 45 32 34 25 44 25 44 32 34 30 46 20 47 21 48 32 34 32 34 21 48 33 35 26 50 31 32 27 49 27 49 31 32 34 36 21 51 22 52 33 35 33 35 22 52 35 37 28 53 27 54 36 38 36 38 27 54 34 36 23 56 37 39 22 55 22 55 37 39 35 37 29 57 28 58 38 40 38 40 28 58 36 38 24 60 39 41 23 59 23 59 39 41 37 39 24 61 29 62 39 41 39 41 29 62 38 63 69 64 67 65 467 67 467 67 67 65 466 66 71 68 69 64 468 69 468 69 69 64 467 67 73 70 71 68 487 71 487 71 71 68 468 69 75 72 73 70 488 74 488 74 73 70 487 73 77 75 75 72 489 77 489 77 75 72 488 76 79 78 77 75 490 80 490 80 77 75 489 79 81 81 79 78 491 83 491 83 79 78 490 82 83 84 81 81 469 86 469 86 81 81 491 85 85 87 83 84 470 88 470 88 83 84 469 86 87 89 85 87 471 90 471 90 85 87 470 88 89 91 87 89 472 92 472 92 87 89 471 90 67 65 91 93 466 66 466 66 91 93 465 94 66 95 68 96 422 98 422 98 68 96 421 97 68 96 70 99 421 97 421 97 70 99 420 100 70 99 72 101 420 100 420 100 72 101 419 102 72 101 74 103 419 102 419 102 74 103 418 104 76 105 417 106 74 103 74 103 417 106 418 104 78 107 416 108 76 105 76 105 416 108 417 106 80 109 415 110 78 107 78 107 415 110 416 108 82 111 414 112 80 109 80 109 414 112 415 110 413 113 414 112 84 114 84 114 414 112 82 111 84 114 86 115 413 113 413 113 86 115 412 116 86 115 88 117 412 116 412 116 88 117 411 118 90 119 66 95 423 120 423 120 66 95 422 98 94 121 92 122 190 124 190 124 92 122 189 123 96 125 94 121 191 126 191 126 94 121 190 124 98 127 96 125 192 128 192 128 96 125 191 126 100 129 98 127 193 130 193 130 98 127 192 128 102 131 100 129 194 132 194 132 100 129 193 130 104 133 102 131 195 134 195 134 102 131 194 132 106 135 104 133 183 136 183 136 104 133 195 134 108 137 106 135 184 138 184 138 106 135 183 136 110 139 108 137 185 140 185 140 108 137 184 138 112 141 110 139 186 142 186 142 110 139 185 140 114 143 112 141 187 144 187 144 112 141 186 142 92 122 116 145 189 123 189 123 116 145 188 146 67 65 66 95 91 93 91 93 66 95 90 119 66 95 67 65 68 96 68 96 67 65 69 64 68 96 69 64 70 99 70 99 69 64 71 68 70 99 71 68 72 101 72 101 71 68 73 70 72 101 73 70 74 103 74 103 73 70 75 72 74 103 75 72 76 105 76 105 75 72 77 75 76 105 77 75 78 107 78 107 77 75 79 78 78 107 79 78 80 109 80 109 79 78 81 81 80 109 81 81 82 111 82 111 81 81 83 84 82 111 83 84 84 114 84 114 83 84 85 87 84 114 85 87 86 115 86 115 85 87 87 89 86 115 87 89 88 117 88 117 87 89 89 91 93 147 92 122 95 148 95 148 92 122 94 121 92 122 93 147 116 145 116 145 93 147 117 149 95 148 94 121 97 150 97 150 94 121 96 125 97 150 96 125 99 151 99 151 96 125 98 127 99 151 98 127 101 152 101 152 98 127 100 129 101 152 100 129 103 153 103 153 100 129 102 131 103 153 102 131 105 154 105 154 102 131 104 133 105 154 104 133 107 155 107 155 104 133 106 135 107 155 106 135 109 156 109 156 106 135 108 137 109 156 108 137 111 157 111 157 108 137 110 139 111 157 110 139 113 158 113 158 110 139 112 141 113 158 112 141 115 159 115 159 112 141 114 143 147 160 145 161 93 147 93 147 145 161 117 149 149 162 147 160 95 148 95 148 147 160 93 147 151 163 149 162 97 150 97 150 149 162 95 148 153 164 151 163 99 151 99 151 151 163 97 150 155 165 153 164 101 152 101 152 153 164 99 151 157 166 155 165 103 153 103 153 155 165 101 152 159 167 157 166 105 154 105 154 157 166 103 153 161 168 159 167 107 155 107 155 159 167 105 154 163 169 161 168 109 156 109 156 161 168 107 155 165 170 163 169 111 157 111 157 163 169 109 156 167 171 165 170 113 158 113 158 165 170 111 157 169 172 167 171 115 159 115 159 167 171 113 158 121 173 119 174 146 176 146 176 119 174 144 175 123 177 121 173 148 178 148 178 121 173 146 176 125 179 123 177 150 180 150 180 123 177 148 178 127 181 125 179 152 182 152 182 125 179 150 180 129 183 127 181 154 184 154 184 127 181 152 182 131 185 129 183 156 186 156 186 129 183 154 184 133 187 131 185 158 188 158 188 131 185 156 186 135 189 133 187 160 190 160 190 133 187 158 188 137 191 135 189 162 192 162 192 135 189 160 190 139 193 137 191 164 194 164 194 137 191 162 192 141 195 139 193 166 196 166 196 139 193 164 194 143 197 141 195 168 198 168 198 141 195 166 196 118 199 119 174 120 200 120 200 119 174 121 173 120 200 121 173 122 201 122 201 121 173 123 177 122 201 123 177 124 202 124 202 123 177 125 179 124 202 125 179 126 203 126 203 125 179 127 181 126 203 127 181 128 204 128 204 127 181 129 183 128 204 129 183 130 205 130 205 129 183 131 185 130 205 131 185 132 206 132 206 131 185 133 187 132 206 133 187 134 207 134 207 133 187 135 189 134 207 135 189 136 208 136 208 135 189 137 191 136 208 137 191 138 209 138 209 137 191 139 193 138 209 139 193 140 210 140 210 139 193 141 195 140 210 141 195 142 211 142 211 141 195 143 197 144 175 145 161 146 176 146 176 145 161 147 160 146 176 147 160 148 178 148 178 147 160 149 162 148 178 149 162 150 180 150 180 149 162 151 163 150 180 151 163 152 182 152 182 151 163 153 164 152 182 153 164 154 184 154 184 153 164 155 165 154 184 155 165 156 186 156 186 155 165 157 166 156 186 157 166 158 188 158 188 157 166 159 167 158 188 159 167 160 190 160 190 159 167 161 168 160 190 161 168 162 192 162 192 161 168 163 169 162 192 163 169 164 194 164 194 163 169 165 170 164 194 165 170 166 196 166 196 165 170 167 171 166 196 167 171 168 198 168 198 167 171 169 172 171 212 170 213 61 215 61 215 170 213 60 214 172 216 171 212 62 217 62 217 171 212 61 215 173 218 172 216 63 219 63 219 172 216 62 217 174 220 173 218 64 221 64 221 173 218 63 219 176 222 175 223 53 225 53 225 175 223 65 224 177 226 176 222 54 227 54 227 176 222 53 225 178 228 177 226 55 229 55 229 177 226 54 227 179 230 178 228 56 231 56 231 178 228 55 229 180 232 179 230 57 233 57 233 179 230 56 231 181 234 180 232 58 235 58 235 180 232 57 233 182 236 181 237 59 239 59 239 181 237 58 238 170 213 182 236 60 214 60 214 182 236 59 239 184 138 183 136 171 241 171 241 183 136 170 240 185 140 184 138 172 242 172 242 184 138 171 241 186 142 185 140 173 243 173 243 185 140 172 242 187 144 186 142 174 244 174 244 186 142 173 243 189 123 188 146 176 246 176 246 188 146 175 245 190 124 189 123 177 247 177 247 189 123 176 246 191 126 190 124 178 248 178 248 190 124 177 247 192 128 191 126 179 249 179 249 191 126 178 248 193 130 192 128 180 250 180 250 192 128 179 249 194 132 193 130 181 251 181 251 193 130 180 250 195 134 194 132 182 252 182 252 194 132 181 251 183 136 195 134 170 240 170 240 195 134 182 252 197 253 196 254 120 200 120 200 196 254 118 199 198 255 197 253 122 201 122 201 197 253 120 200 199 256 198 255 124 202 124 202 198 255 122 201 200 257 199 256 126 203 126 203 199 256 124 202 201 258 200 257 128 204 128 204 200 257 126 203 202 259 201 258 130 205 130 205 201 258 128 204 203 260 202 259 132 206 132 206 202 259 130 205 204 261 203 260 134 207 134 207 203 260 132 206 205 262 204 261 136 208 136 208 204 261 134 207 206 263 205 262 138 209 138 209 205 262 136 208 207 264 206 263 140 210 140 210 206 263 138 209 208 265 207 264 142 211 142 211 207 264 140 210 210 266 209 267 223 269 223 269 209 267 222 268 211 270 210 266 224 271 224 271 210 266 223 269 212 272 211 270 225 273 225 273 211 270 224 271 213 274 212 272 226 275 226 275 212 272 225 273 214 276 213 274 227 277 227 277 213 274 226 275 215 278 214 276 228 279 228 279 214 276 227 277 216 280 215 278 229 281 229 281 215 278 228 279 217 282 216 280 230 283 230 283 216 280 229 281 218 284 217 282 231 285 231 285 217 282 230 283 219 286 218 284 232 287 232 287 218 284 231 285 220 288 219 286 233 289 233 289 219 286 232 287 221 290 220 288 234 291 234 291 220 288 233 289 223 269 222 268 197 253 197 253 222 268 196 254 224 271 223 269 198 255 198 255 223 269 197 253 225 273 224 271 199 256 199 256 224 271 198 255 226 275 225 273 200 257 200 257 225 273 199 256 227 277 226 275 201 258 201 258 226 275 200 257 228 279 227 277 202 259 202 259 227 277 201 258 229 281 228 279 203 260 203 260 228 279 202 259 230 283 229 281 204 261 204 261 229 281 203 260 231 285 230 283 205 262 205 262 230 283 204 261 232 287 231 285 206 263 206 263 231 285 205 262 233 289 232 287 207 264 207 264 232 287 206 263 234 291 233 289 208 265 208 265 233 289 207 264 260 292 463 293 258 295 258 295 463 293 464 294 262 296 462 297 260 292 260 292 462 297 463 293 264 298 486 299 262 296 262 296 486 299 462 297 266 300 495 301 264 298 264 298 495 301 486 302 268 303 494 304 266 300 266 300 494 304 495 305 270 306 493 307 268 303 268 303 493 307 494 308 272 309 492 310 270 306 270 306 492 310 493 311 274 312 475 313 272 309 272 309 475 313 492 314 276 315 474 316 274 312 274 312 474 316 475 313 278 317 473 318 276 315 276 315 473 318 474 316 89 319 472 320 278 317 278 317 472 320 473 318 258 295 464 294 91 322 91 322 464 294 465 321 257 323 400 324 259 326 259 326 400 324 401 325 259 326 401 325 261 328 261 328 401 325 402 327 261 328 402 327 263 330 263 330 402 327 403 329 263 330 403 329 265 332 265 332 403 329 404 331 267 333 265 332 405 334 405 334 265 332 404 331 269 335 267 333 406 336 406 336 267 333 405 334 271 337 269 335 407 338 407 338 269 335 406 336 273 339 271 337 408 340 408 340 271 337 407 338 409 341 275 342 408 340 408 340 275 342 273 339 275 342 409 341 277 344 277 344 409 341 410 343 277 344 410 343 88 346 88 346 410 343 411 345 90 347 423 348 257 323 257 323 423 348 400 324 281 349 361 350 279 352 279 352 361 350 360 351 283 353 362 354 281 349 281 349 362 354 361 350 285 355 363 356 283 353 283 353 363 356 362 354 287 357 364 358 285 355 285 355 364 358 363 356 289 359 365 360 287 357 287 357 365 360 364 358 291 361 366 362 289 359 289 359 366 362 365 360 293 363 356 364 291 361 291 361 356 364 366 362 295 365 357 366 293 363 293 363 357 366 356 364 297 367 358 368 295 365 295 365 358 368 357 366 299 369 359 370 297 367 297 367 359 370 358 368 114 371 187 372 299 369 299 369 187 372 359 370 279 352 360 351 116 374 116 374 360 351 188 373 258 295 91 322 257 323 257 323 91 322 90 347 257 323 259 326 258 295 258 295 259 326 260 292 259 326 261 328 260 292 260 292 261 328 262 296 261 328 263 330 262 296 262 296 263 330 264 298 263 330 265 332 264 298 264 298 265 332 266 300 265 332 267 333 266 300 266 300 267 333 268 303 267 333 269 335 268 303 268 303 269 335 270 306 269 335 271 337 270 306 270 306 271 337 272 309 271 337 273 339 272 309 272 309 273 339 274 312 273 339 275 342 274 312 274 312 275 342 276 315 275 342 277 344 276 315 276 315 277 344 278 317 277 344 88 346 278 317 278 317 88 346 89 319 280 375 282 376 279 352 279 352 282 376 281 349 279 352 116 374 280 375 280 375 116 374 117 377 282 376 284 378 281 349 281 349 284 378 283 353 284 378 286 379 283 353 283 353 286 379 285 355 286 379 288 380 285 355 285 355 288 380 287 357 288 380 290 381 287 357 287 357 290 381 289 359 290 381 292 382 289 359 289 359 292 382 291 361 292 382 294 383 291 361 291 361 294 383 293 363 294 383 296 384 293 363 293 363 296 384 295 365 296 384 298 385 295 365 295 365 298 385 297 367 298 385 300 386 297 367 297 367 300 386 299 369 300 386 115 387 299 369 299 369 115 387 114 371 324 388 280 375 145 389 145 389 280 375 117 377 326 390 282 376 324 388 324 388 282 376 280 375 328 391 284 378 326 390 326 390 284 378 282 376 330 392 286 379 328 391 328 391 286 379 284 378 332 393 288 380 330 392 330 392 288 380 286 379 334 394 290 381 332 393 332 393 290 381 288 380 336 395 292 382 334 394 334 394 292 382 290 381 338 396 294 383 336 395 336 395 294 383 292 382 340 397 296 384 338 396 338 396 296 384 294 383 342 398 298 385 340 397 340 397 298 385 296 384 344 399 300 386 342 398 342 398 300 386 298 385 169 400 115 387 344 399 344 399 115 387 300 386 302 401 323 402 119 404 119 404 323 402 144 403 304 405 325 406 302 401 302 401 325 406 323 402 306 407 327 408 304 405 304 405 327 408 325 406 329 410 327 408 308 409 308 409 327 408 306 407 310 411 331 412 308 409 308 409 331 412 329 410 312 413 333 414 310 411 310 411 333 414 331 412 314 415 335 416 312 413 312 413 335 416 333 414 316 417 337 418 314 415 314 415 337 418 335 416 318 419 339 420 316 417 316 417 339 420 337 418 320 421 341 422 318 419 318 419 341 422 339 420 322 423 343 424 320 421 320 421 343 424 341 422 143 425 168 426 322 423 322 423 168 426 343 424 118 427 301 428 119 404 119 404 301 428 302 401 304 405 302 401 303 429 301 428 303 429 302 401 303 429 305 430 304 405 304 405 305 430 306 407 306 407 305 430 308 409 305 430 307 431 308 409 307 431 309 432 308 409 308 409 309 432 310 411 309 432 311 433 310 411 310 411 311 433 312 413 311 433 313 434 312 413 312 413 313 434 314 415 313 434 315 435 314 415 314 415 315 435 316 417 315 435 317 436 316 417 316 417 317 436 318 419 317 436 319 437 318 419 318 419 319 437 320 421 319 437 321 438 320 421 320 421 321 438 322 423 321 438 142 439 322 423 322 423 142 439 143 425 144 403 323 402 145 389 145 389 323 402 324 388 325 406 326 390 323 402 323 402 326 390 324 388 325 406 327 408 326 390 326 390 327 408 328 391 327 408 329 410 328 391 328 391 329 410 330 392 329 410 331 412 330 392 330 392 331 412 332 393 331 412 333 414 332 393 332 393 333 414 334 394 333 414 335 416 334 394 334 394 335 416 336 395 335 416 337 418 336 395 336 395 337 418 338 396 337 418 339 420 338 396 338 396 339 420 340 397 339 420 341 422 340 397 340 397 341 422 342 398 341 422 343 424 342 398 342 398 343 424 344 399 343 424 168 426 344 399 344 399 168 426 169 400 346 440 254 441 345 443 345 443 254 441 253 442 347 444 255 445 346 440 346 440 255 445 254 441 348 446 256 447 347 444 347 444 256 447 255 445 174 448 64 449 348 446 348 446 64 449 256 447 349 450 246 451 175 453 175 453 246 451 65 452 350 454 247 455 349 450 349 450 247 455 246 451 351 456 248 457 350 454 350 454 248 457 247 455 352 458 249 459 351 456 351 456 249 459 248 457 353 460 250 461 352 458 352 458 250 461 249 459 354 462 251 463 353 460 353 460 251 463 250 461 355 464 252 465 354 467 354 467 252 465 251 466 345 443 253 442 355 464 355 464 253 442 252 465 357 366 346 468 356 364 356 364 346 468 345 469 358 368 347 470 357 366 357 366 347 470 346 468 359 370 348 471 358 368 358 368 348 471 347 470 187 372 174 472 359 370 359 370 174 472 348 471 360 351 349 473 188 373 188 373 349 473 175 474 361 350 350 475 360 351 360 351 350 475 349 473 362 354 351 476 361 350 361 350 351 476 350 475 363 356 352 477 362 354 362 354 352 477 351 476 364 358 353 478 363 356 363 356 353 478 352 477 365 360 354 479 364 358 364 358 354 479 353 478 366 362 355 480 365 360 365 360 355 480 354 479 356 364 345 469 366 362 366 362 345 469 355 480 367 481 301 428 196 482 196 482 301 428 118 427 368 483 303 429 367 481 367 481 303 429 301 428 369 484 305 430 368 483 368 483 305 430 303 429 370 485 307 431 369 484 369 484 307 431 305 430 371 486 309 432 370 485 370 485 309 432 307 431 372 487 311 433 371 486 371 486 311 433 309 432 373 488 313 434 372 487 372 487 313 434 311 433 374 489 315 435 373 488 373 488 315 435 313 434 375 490 317 436 374 489 374 489 317 436 315 435 376 491 319 437 375 490 375 490 319 437 317 436 377 492 321 438 376 491 376 491 321 438 319 437 208 493 142 439 377 492 377 492 142 439 321 438 378 494 389 495 209 497 209 497 389 495 222 496 379 498 390 499 378 494 378 494 390 499 389 495 380 500 391 501 379 498 379 498 391 501 390 499 381 502 392 503 380 500 380 500 392 503 391 501 382 504 393 505 381 502 381 502 393 505 392 503 383 506 394 507 382 504 382 504 394 507 393 505 384 508 395 509 383 506 383 506 395 509 394 507 385 510 396 511 384 508 384 508 396 511 395 509 386 512 397 513 385 510 385 510 397 513 396 511 387 514 398 515 386 512 386 512 398 515 397 513 388 516 399 517 387 514 387 514 399 517 398 515 221 518 234 519 388 516 388 516 234 519 399 517 389 495 367 481 222 496 222 496 367 481 196 482 390 499 368 483 389 495 389 495 368 483 367 481 391 501 369 484 390 499 390 499 369 484 368 483 392 503 370 485 391 501 391 501 370 485 369 484 393 505 371 486 392 503 392 503 371 486 370 485 394 507 372 487 393 505 393 505 372 487 371 486 395 509 373 488 394 507 394 507 373 488 372 487 396 511 374 489 395 509 395 509 374 489 373 488 397 513 375 490 396 511 396 511 375 490 374 489 398 515 376 491 397 513 397 513 376 491 375 490 399 517 377 492 398 515 398 515 377 492 376 491 234 519 208 493 399 517 399 517 208 493 377 492 400 324 424 520 401 325 401 325 424 520 425 521 402 327 401 325 426 522 426 522 401 325 425 521 403 329 402 327 427 523 427 523 402 327 426 522 404 331 403 329 428 524 428 524 403 329 427 523 405 334 404 331 429 525 429 525 404 331 428 524 406 336 405 334 430 526 430 526 405 334 429 525 407 338 406 336 431 527 431 527 406 336 430 526 408 340 407 338 432 528 432 528 407 338 431 527 433 529 409 341 432 528 432 528 409 341 408 340 410 343 409 341 434 530 434 530 409 341 433 529 411 345 410 343 435 531 435 531 410 343 434 530 412 116 411 118 436 533 436 533 411 118 435 532 413 113 412 116 437 534 437 534 412 116 436 533 437 534 438 535 413 113 413 113 438 535 414 112 415 110 414 112 439 536 439 536 414 112 438 535 416 108 415 110 440 537 440 537 415 110 439 536 417 106 416 108 441 538 441 538 416 108 440 537 418 104 417 106 442 539 442 539 417 106 441 538 419 102 418 104 443 540 443 540 418 104 442 539 420 100 419 102 444 541 444 541 419 102 443 540 421 97 420 100 445 542 445 542 420 100 444 541 422 98 421 97 446 543 446 543 421 97 445 542 423 120 422 98 447 544 447 544 422 98 446 543 400 324 423 348 424 520 424 520 423 348 447 545 424 546 235 547 425 549 425 549 235 547 236 548 426 550 425 549 237 551 237 551 425 549 236 548 427 552 426 550 238 553 238 553 426 550 237 551 428 554 427 552 239 555 239 555 427 552 238 553 429 556 428 554 240 557 240 557 428 554 239 555 430 558 429 559 241 561 241 561 429 559 240 560 431 562 430 558 242 563 242 563 430 558 241 561 432 564 431 562 243 565 243 565 431 562 242 563 244 566 433 567 243 565 243 565 433 567 432 564 434 568 433 567 245 569 245 569 433 567 244 566 435 570 434 568 51 571 51 571 434 568 245 569 436 572 435 573 50 575 50 575 435 573 51 574 437 576 436 572 49 577 49 577 436 572 50 575 49 577 48 578 437 576 437 576 48 578 438 579 439 580 438 579 47 581 47 581 438 579 48 578 440 582 439 580 46 583 46 583 439 580 47 581 441 584 440 582 45 585 45 585 440 582 46 583 442 586 441 587 44 589 44 589 441 587 45 588 443 590 442 586 43 591 43 591 442 586 44 589 444 592 443 590 42 593 42 593 443 590 43 591 445 594 444 592 41 595 41 595 444 592 42 593 446 596 445 594 40 597 40 597 445 594 41 595 447 598 446 596 52 599 52 599 446 596 40 597 424 546 447 600 235 547 235 547 447 600 52 601 476 602 381 502 448 603 448 603 381 502 380 500 449 604 448 603 379 498 379 498 448 603 380 500 450 605 449 604 378 494 378 494 449 604 379 498 451 606 450 605 209 497 209 497 450 605 378 494 452 607 451 608 210 266 210 266 451 608 209 267 453 609 452 607 211 270 211 270 452 607 210 266 454 610 453 609 212 272 212 272 453 609 211 270 477 611 454 610 213 274 213 274 454 610 212 272 478 612 477 613 214 276 214 276 477 613 213 274 479 614 478 615 215 278 215 278 478 615 214 276 480 616 479 617 216 280 216 280 479 617 215 278 481 618 480 619 217 282 217 282 480 619 216 280 455 620 481 621 218 284 218 284 481 621 217 282 456 622 455 620 219 286 219 286 455 620 218 284 457 623 456 622 220 288 220 288 456 622 219 286 458 624 457 623 221 290 221 290 457 623 220 288 459 625 458 626 388 516 388 516 458 626 221 518 460 627 459 625 387 514 387 514 459 625 388 516 461 628 460 627 386 512 386 512 460 627 387 514 482 629 461 628 385 510 385 510 461 628 386 512 483 630 482 631 384 508 384 508 482 631 385 510 484 632 483 633 383 506 383 506 483 633 384 508 485 634 484 635 382 504 382 504 484 635 383 506 476 636 485 637 381 502 381 502 485 637 382 504 486 638 476 639 462 297 462 297 476 639 448 603 463 293 462 297 449 604 449 604 462 297 448 603 464 294 463 293 450 605 450 605 463 293 449 604 465 321 464 294 451 606 451 606 464 294 450 605 466 66 465 94 452 607 452 607 465 94 451 608 467 67 466 66 453 609 453 609 466 66 452 607 468 69 467 67 454 610 454 610 467 67 453 609 487 640 468 69 477 641 477 641 468 69 454 610 469 86 491 642 455 620 455 620 491 642 481 643 470 88 469 86 456 622 456 622 469 86 455 620 471 90 470 88 457 623 457 623 470 88 456 622 472 92 471 90 458 624 458 624 471 90 457 623 473 318 472 320 459 625 459 625 472 320 458 626 474 316 473 318 460 627 460 627 473 318 459 625 475 313 474 316 461 628 461 628 474 316 460 627 492 644 475 313 482 645 482 645 475 313 461 628</p>
        </triangles>
      </mesh>
      <extra>
        <technique profile="OpenCOLLADAMaya">
          <originalMayaNodeId>polySurfaceShape719</originalMayaNodeId>
          <double_sided>1</double_sided>
        </technique>
      </extra>
    </geometry>
  </library_geometries>
  <library_visual_scenes>
    <visual_scene id="VisualSceneNode" name="_4_02_door_swing_bulkhead">
      <node id="polySurface669" name="polySurface669" type="NODE">
        <translate sid="translate">0 0 0</translate>
        <rotate sid="rotateZ">0 0 1 0</rotate>
        <rotate sid="rotateY">0 1 0 0</rotate>
        <rotate sid="rotateX">1 0 0 0</rotate>
        <scale sid="scale">1 1 1</scale>
        <instance_geometry url="#polySurfaceShape719">
          <bind_material>
            <technique_common>
              <instance_material symbol="lambert2SG" target="#lambert2">
                <bind_vertex_input semantic="TEX0" input_semantic="TEXCOORD" input_set="0"/>
              </instance_material>
            </technique_common>
          </bind_material>
        </instance_geometry>
        <extra>
          <technique profile="OpenCOLLADAMaya">
            <originalMayaNodeId>polySurface669</originalMayaNodeId>
          </technique>
        </extra>
      </node>
    </visual_scene>
  </library_visual_scenes>
  <scene>
    <instance_visual_scene url="#VisualSceneNode"/>
  </scene>
</COLLADA>