<?xml version="1.0" encoding="utf-8" ?>
<COLLADA xmlns="http://www.collada.org/2005/11/COLLADASchema" version="1.4.1">
    <asset>
        <contributor>
            <author>marcus</author>
            <authoring_tool>modo 601 [Build 48460], Microsoft Windows 7 Service Pack 1 (6.1.7601 Service Pack 1)</authoring_tool>
            <comments>Plug-in: [Build 48460]; Use Absolute Path: No; Merge Reference Items: No; Save Hidden Items: No; Save Cameras: No; Save Lights: No; Save Locators: Yes; Save Triangles as Triangles: No; Bake Matrices: Yes; Save Vertex Normals: Yes; Save UV Texture Coordinates: Yes; Save Vertex Colors: Yes; Save Vertex Weights: Yes; Save Animation: No; Sample Animation: No; Sample Animation Start: 0; Sample Animation End: 235; Save modo Profile: No; Save Maya Profile: No; Save 3ds Max Profile: No; Formatted Arrays: No;</comments>
            <source_data>file:///D:/Work/Dropbox/Frictional%20Games%20-%20Team/Aaron/models/static_objects/station/tunnel/tunnel_theta.lxo</source_data>
        </contributor>
        <created>2013-11-05T13:43:10Z</created>
        <modified>2013-11-05T13:43:10Z</modified>
        <unit name="game" meter="1" />
        <up_axis>Y_UP</up_axis>
    </asset>
    <library_images>
        <image id="Image0001" name="Image0001">
            <init_from>file:///D:/Work/Dropbox/Frictional%20Games%20-%20Team/Aaron/models/static_objects/station/stairs/../stairs/stairs_datasite.tga</init_from>
        </image>
        <image id="Image0002" name="Image0002">
            <init_from>file:///D:/Work/Dropbox/Frictional%20Games%20-%20Team/Aaron/models/static_objects/station/tunnel/tunnel_theta_rock.tga</init_from>
        </image>
    </library_images>
    <library_materials>
        <material id="Material-stairs" name="stairs">
            <instance_effect url="#Effect-stairs" />
        </material>
        <material id="Material-tunnel_MAT" name="tunnel_MAT">
            <instance_effect url="#Effect-tunnel_MAT" />
        </material>
    </library_materials>
    <library_effects>
        <effect id="Effect-stairs" name="stairs">
            <profile_COMMON>
                <newparam sid="Image0001-surface">
                    <surface type="2D">
                        <init_from>Image0001</init_from>
                        <format>A8R8G8B8</format>
                    </surface>
                </newparam>
                <newparam sid="Image0001-sampler">
                    <sampler2D>
                        <source>Image0001-surface</source>
                        <minfilter>LINEAR_MIPMAP_LINEAR</minfilter>
                        <magfilter>LINEAR</magfilter>
                    </sampler2D>
                </newparam>
                <technique sid="common">
                    <phong>
                        <diffuse>
                            <texture texture="Image0001-sampler" texcoord="uvSet1" />
                        </diffuse>
                        <specular>
                            <color sid="specular_effect_rgb">0.2 0.2 0.2 1</color>
                        </specular>
                        <shininess>
                            <float sid="specular_effect_rgb">256</float>
                        </shininess>
                        <transparent opaque="RGB_ZERO">
                            <color sid="transparent_effect_rgb">0 0 0 1</color>
                        </transparent>
                        <transparency>
                            <float sid="transparency_effect_float">1</float>
                        </transparency>
                    </phong>
                </technique>
            </profile_COMMON>
        </effect>
        <effect id="Effect-tunnel_MAT" name="tunnel_MAT">
            <profile_COMMON>
                <newparam sid="Image0002-surface">
                    <surface type="2D">
                        <init_from>Image0002</init_from>
                        <format>A8R8G8B8</format>
                    </surface>
                </newparam>
                <newparam sid="Image0002-sampler">
                    <sampler2D>
                        <source>Image0002-surface</source>
                        <minfilter>LINEAR_MIPMAP_LINEAR</minfilter>
                        <magfilter>LINEAR</magfilter>
                    </sampler2D>
                </newparam>
                <technique sid="common">
                    <phong>
                        <diffuse>
                            <texture texture="Image0002-sampler" texcoord="uvSet1" />
                        </diffuse>
                        <specular>
                            <color sid="specular_effect_rgb">0.5 0.5 0.5 1</color>
                        </specular>
                        <shininess>
                            <float sid="specular_effect_rgb">256</float>
                        </shininess>
                        <reflective>
                            <color sid="reflective_effect_rgb">0 0 0 1</color>
                        </reflective>
                        <reflectivity>
                            <float sid="reflectivity_effect_float">0.5</float>
                        </reflectivity>
                        <transparent opaque="RGB_ZERO">
                            <color sid="transparent_effect_rgb">0 0 0 1</color>
                        </transparent>
                        <transparency>
                            <float sid="transparency_effect_float">1</float>
                        </transparency>
                    </phong>
                </technique>
            </profile_COMMON>
        </effect>
    </library_effects>
    <library_geometries>
        <geometry id="Geometry-mesh010" name="end">
            <mesh>
                <source id="Geometry-mesh010-positions" name="positions">
                    <float_array id="Geometry-mesh010-positions-array" count="516">-1.17018 -0.971533 0.0156553 -1.01653 -1.64636 0.0878216 1.08133 -1.58137 0.0899285 1.01858 -0.73208 -0.0276252 1.0888 0.373272 -0.00563066 1.09375 1.11413 0.0777011 -1.08677 1.10871 0.0528386 -1.03964 0.249851 -0.0410252 -2.12593 -0.507735 2 -1.79036 -1.43949 2 -1.17596 -2.13179 2 -0.409654 -2.49762 2 0.409654 -2.49762 2 1.17596 -2.13179 2 1.79036 -1.43949 2 2.12593 -0.507735 2 2.10527 0.506448 2 1.76833 1.42608 2 1.17999 2.1366 2 0.421481 2.54674 2 -0.421481 2.54674 2 -1.17999 2.1366 2 -1.76833 1.42608 2 -2.10527 0.506448 2 -1.75017 1.42932 1.37272 -0.887694 2.20303 1.30454 -0.150777 2.38264 1.31578 0.612027 2.28418 1.33774 1.16958 2.0283 1.40586 1.70922 1.45301 1.24063 2.05779 0.550624 1.37068 2.06869 -0.504782 1.3256 1.86471 -1.26097 1.32967 1.25911 -1.9568 1.32478 0.645591 -2.20794 1.32612 -0.13934 -2.28978 1.32977 -0.997598 -2.09185 1.37771 -1.84476 -1.39057 1.31136 -2.13187 -0.346328 1.31898 -2.09549 0.532504 1.25679 -1.6884 1.16361 0.508648 -1.21182 1.75976 0.490656 -0.653731 2.00478 0.462497 0.151309 2.09113 0.523505 0.872604 1.85897 0.483714 1.58614 1.17538 0.512161 1.77561 0.300539 0.503498 1.75041 -0.641598 0.48853 1.53524 -1.51977 0.501248 0.867172 -2.05033 0.467277 0.187582 -2.13144 0.393532 -0.529506 -2.09822 0.388836 -1.07112 -1.99091 0.497661 -1.66283 -1.50911 0.526787 -1.87622 -0.646305 0.496812 -1.87517 0.270282 0.499294 -1.48771 1.04735 0.231933 -0.824251 1.62235 0.164115 -0.266792 1.81587 0.189007 0.317886 1.71868 0.157085 0.897103 1.54814 0.182267 1.43064 1.04539 0.254372 1.5392 0.178384 0.227878 1.50907 -0.797387 0.220311 1.33873 -1.63855 0.26372 0.750643 -1.92506 0.172252 0.249364 -1.92588 0.101956 -0.234024 -1.99836 0.170457 -0.791858 -1.91416 0.190259 -1.38759 -1.55767 0.23603 -1.62362 -0.843406 0.229289 -1.60414 0.162681 0.21345 -1.80031 1.27761 0.924291 -1.11683 2.01181 0.891899 -0.470402 2.23783 0.889681 0.207848 2.28171 0.977623 0.892981 2.05876 0.960213 1.69511 1.31798 0.894736 1.96631 0.403612 0.914833 1.95294 -0.541799 0.894589 1.7131 -1.4164 0.908706 1.01822 -2.04992 0.893978 0.339892 -2.21162 0.888052 -0.55916 -2.16793 0.848934 -1.29995 -1.94096 0.921227 -1.87906 -1.31635 0.906452 -2.06347 -0.538407 0.907922 -2.05973 0.378028 0.901768 -1.75101 1.39311 1.69095 -1.20564 2.09594 1.69221 -0.431816 2.4788 1.68966 0.398612 2.54493 1.68889 1.17005 2.14464 1.69156 1.7974 1.42219 1.6683 2.14813 0.517051 1.69118 2.16184 -0.48244 1.69075 1.82115 -1.45902 1.69406 1.14785 -2.06228 1.68912 0.408224 -2.43175 1.68913 -0.388391 -2.4266 1.68914 -1.13082 -2.07087 1.68917 -1.82655 -1.46154 1.69263 -2.11562 -0.511371 1.68993 -2.09281 0.487585 1.69111 1.48253 -0.295506 0.180266 1.78223 -0.16479 0.494379 1.98539 -0.0730074 0.903091 2.10393 -0.0135769 1.32926 2.19513 0.00968904 1.68963 2.16588 0.0003605 2 1.45948 0.642859 0.204856 1.72084 0.749013 0.511389 1.87737 0.878315 0.918063 1.8973 1.09544 1.31092 2.00058 0.985055 1.68541 1.98122 0.990384 2 -1.50185 0.628218 0.17706 -1.807 0.726577 0.48844 -1.96728 0.833031 0.897733 -1.98457 0.918469 1.3245 -1.95382 0.96249 1.69076 -1.98122 0.990384 2 -1.57546 -0.329623 0.177699 -1.89698 -0.183789 0.505904 -2.08921 -0.0756153 0.919379 -2.13849 0.136868 1.31839 -2.12415 -0.0105869 1.69061 -2.16588 0.0003605 2 -1.55688 -1.22429 0.245451 -1.80985 -1.11337 0.511229 -1.98901 -0.939427 0.835901 -2.03507 -0.89753 1.26088 -1.95122 -0.984143 1.68994 -1.97721 -0.990697 2 -1.20814 -1.82307 0.274647 -1.44338 -1.78953 0.528373 -1.66239 -1.66835 0.919579 -1.5658 -1.75896 1.32946 -1.55452 -1.86431 1.69137 -1.53316 -1.84502 2 1.11897 -1.85303 0.254091 1.2818 -1.84549 0.501382 1.45014 -1.77413 0.90597 1.62847 -1.64844 1.33032 1.55178 -1.84056 1.68401 1.53316 -1.84502 2 1.41872 -1.24683 0.205601 1.67866 -1.10885 0.495079 1.86806 -1.001 0.900029 1.98831 -0.887949 1.27223 2.02386 -0.982447 1.69242 1.97721 -0.990697 2 1.25437 1.34856 0.245001 1.31051 1.5525 0.488853 1.38947 1.70402 0.883869 1.46748 1.75612 1.32042 1.52145 1.81516 1.69068 1.50751 1.82219 2 -1.31733 1.4182 0.266588 -1.54486 1.49893 0.571998 -1.53444 1.67995 0.920424 -1.40041 1.88614 1.31694 -1.56858 1.79467 1.69435 -1.50751 1.82219 2 -0.517786 -0.610642 -0.13286 -0.27116 0.138604 -0.153689 0.162238 -0.736721 -0.145944 0.370224 0.296 -0.141269 -0.331155 -1.53404 -0.0332272 0.54384 -1.54193 -0.0245311 -0.306195 1.15749 -0.0504002 0.548088 1.16953 -0.0287405</float_array>
                    <technique_common>
                        <accessor count="172" source="#Geometry-mesh010-positions-array" stride="3">
                            <param name="X" type="float" />
                            <param name="Y" type="float" />
                            <param name="Z" type="float" />
                        </accessor>
                    </technique_common>
                </source>
                <source id="Geometry-mesh010-normals" name="normals">
                    <float_array id="Geometry-mesh010-normals-array" count="516">0.326401 0.105716 0.939301 0.638424 0.0924575 0.764111 0.629181 0.226199 0.743617 0.274811 0.345486 0.897284 0.561548 0.37183 0.739193 0.440653 0.653974 0.614933 -0.340629 0.290571 0.89417 -0.188194 0.665392 0.722383 -0.439265 0.682047 0.584687 -0.6596 0.443028 0.607169 -0.637046 0.17882 0.749797 -0.299227 0.054463 0.952626 -0.649559 0.0782073 0.756278 -0.599913 0.016239 0.7999 -0.340258 -0.0528 0.938848 -0.641269 -0.0341341 0.766556 -0.60889 -0.102537 0.7866 -0.368162 -0.218499 0.903723 -0.644924 -0.236903 0.726602 -0.55101 -0.431846 0.714071 0.308888 -0.20718 0.928259 0.250211 -0.494508 0.83238 0.5254 -0.436372 0.730434 0.602075 -0.229339 0.764793 0.558826 -0.0908106 0.824298 0.276838 -0.0418087 0.960007 0.60309 -0.0396349 0.796688 0.575072 0.00343144 0.818095 0.38022 -0.902375 0.202861 0.566954 -0.819943 0.0791034 0.656095 -0.741289 0.141527 0.803447 -0.594542 0.0315061 0.0490629 -0.948002 0.314461 0.29243 -0.931393 0.216777 -0.309956 -0.892889 0.326613 -0.150372 -0.955512 0.253744 -0.549715 -0.789047 0.274261 -0.559069 -0.816084 0.146453 -0.812441 -0.551656 0.188718 -0.861649 -0.504053 0.0590894 -0.683119 -0.699485 0.209929 -0.747908 -0.655989 0.101554 -0.978838 -0.197317 0.054239 -0.943986 -0.326133 0.0502796 -0.956372 -0.18208 0.228471 -0.914553 -0.360146 0.184087 -0.964821 0.13567 0.225197 -0.988125 0.136361 0.0708117 -0.968411 -0.00624274 0.249281 -0.996393 -0.0447497 0.0720984 -0.879557 0.475715 0.0086141 -0.95149 0.305541 0.0362053 -0.89942 0.407353 0.158454 -0.950787 0.241071 0.19465 -0.472156 0.866903 0.15984 -0.695378 0.716398 0.0567754 -0.510471 0.851823 0.117548 -0.768391 0.621886 0.15111 -0.234161 0.926373 0.29496 -0.274044 0.942932 0.189153 0.185583 0.942725 0.277179 0.0516801 0.958215 0.281342 0.462638 0.874587 0.145134 0.378735 0.912327 0.155624 0.890741 0.454307 -0.0135961 0.883885 0.467027 -0.0251672 0.682423 0.728225 0.063144 0.623016 0.779448 0.0656696 0.996099 0.0718335 0.0512511 0.980969 0.194113 0.00435284 0.964913 0.262501 0.00598956 0.948152 0.316249 -0.0315425 0.978701 -0.191774 0.0732537 0.985276 -0.17061 0.0110964 0.997628 -0.0485892 0.048767 0.99961 7.27972e-005 0.0279111 0.904896 -0.423366 0.0438566 0.937377 -0.347258 0.0271315 0.870726 -0.490201 0.0392323 0.940135 -0.340007 0.023252 0.467478 -0.840074 0.27521 0.72539 -0.655734 0.209338 0.497624 -0.69408 0.520214 0.723104 -0.535726 0.436026 0.161386 -0.933248 0.32094 0.224085 -0.803333 0.551762 -0.13353 -0.938309 0.318975 -0.103383 -0.84709 0.521298 -0.372958 -0.76365 0.527012 -0.419567 -0.851291 0.315067 -0.781187 -0.376646 0.49788 -0.823562 -0.47338 0.312502 -0.613955 -0.607365 0.50415 -0.645317 -0.70238 0.300381 -0.827067 -0.0678592 0.557992 -0.934443 -0.109905 0.33873 -0.82507 -0.175808 0.536983 -0.911119 -0.265562 0.31518 -0.836975 0.0931762 0.539251 -0.93353 0.115274 0.339461 -0.826099 0.0206124 0.563147 -0.935961 0.0117891 0.351905 -0.816741 0.444168 0.368305 -0.864447 0.451626 0.220829 -0.847698 0.226818 0.479543 -0.920491 0.254072 0.296891 -0.285977 0.918543 0.272939 -0.398265 0.911707 0.100872 -0.613017 0.750464 0.247008 -0.68914 0.711482 0.137399 -0.0421369 0.928589 0.368709 -0.104683 0.98399 0.144242 0.144575 0.919951 0.364401 0.168825 0.977394 0.127277 0.469842 0.880296 0.0657854 0.341079 0.899599 0.27274 0.903268 0.398252 0.159693 0.753332 0.651141 0.0922261 0.783966 0.447481 0.430299 0.624927 0.709266 0.326203 0.961559 0.0936329 0.258142 0.942319 0.206875 0.263131 0.834825 0.0711491 0.545899 0.835528 0.235272 0.496528 0.949241 -0.115018 0.292768 0.959161 -0.00536784 0.282809 0.81471 -0.0698447 0.575647 0.825121 0.00352262 0.564945 0.874705 -0.44289 0.196824 0.926634 -0.273945 0.257496 0.792605 -0.344431 0.503135 0.811359 -0.167979 0.559893 0.0466211 -0.589841 0.806173 -0.117967 -0.545353 0.829864 -0.319601 -0.515932 0.794776 -0.0397723 0.578926 0.814409 0.0627541 0.700045 0.711336 0.199144 0.675909 0.709569 0.540056 -0.835827 0.0986525 0.726848 -0.685243 -0.0461887 0.187114 -0.973182 0.13381 -0.320449 -0.94718 0.0127461 -0.589419 -0.807825 -0.00203689 -0.851912 -0.520826 -0.0546475 -0.74152 -0.670823 -0.0120186 -0.97574 -0.189979 -0.10881 -0.926726 -0.371022 -0.0593395 -0.97074 0.212418 -0.111998 -0.995006 0.00888416 -0.0994169 -0.861182 0.499757 -0.0927834 -0.926547 0.354107 -0.126963 -0.491829 0.843124 0.217361 -0.664208 0.745349 0.0572915 -0.141928 0.967112 0.21107 0.285818 0.929485 0.233164 0.516857 0.822801 0.236341 0.917471 0.393011 -0.0615535 0.70236 0.711536 -0.0201856 0.989319 0.130721 0.0645041 0.939806 0.335174 0.0665089 0.973857 -0.215976 0.0704126 0.99388 -0.0346237 0.104896 0.883045 -0.468613 0.0251642 0.922522 -0.370575 0.107831 0.0727861 0.265786 0.96128 -0.108671 0.243154 0.963881 -0.131563 -0.225881 0.96523 0.0562061 -0.215957 0.974784 -0.0894393 -0.0501839 0.994727 0.0566673 -0.0393308 0.997618 -0.0398369 0.0647697 0.997105 0.113201 0.0551811 0.992039</float_array>
                    <technique_common>
                        <accessor count="172" source="#Geometry-mesh010-normals-array" stride="3">
                            <param name="X" type="float" />
                            <param name="Y" type="float" />
                            <param name="Z" type="float" />
                        </accessor>
                    </technique_common>
                </source>
                <source id="Geometry-mesh010-uvSet1" name="uvSet1">
                    <float_array id="Geometry-mesh010-uvSet1-array" count="344">0.173433 0.284802 0.0424604 0.328417 0.052295 0.223548 0.194107 0.102546 0.0914702 0.131483 0.129533 0.0544817 0.738069 0.0319019 0.639023 -0.0481351 0.738108 -0.0494286 0.806941 -0.00773179 0.853511 0.0903556 0.770239 0.253515 0.910204 0.200887 0.929621 0.338811 0.839137 0.536367 0.969886 0.46396 0.960988 0.594864 0.865778 0.732417 0.966001 0.706336 0.925208 0.794211 0.280079 0.822433 0.372302 0.949811 0.226515 0.924253 0.161483 0.832694 0.135535 0.720888 0.252265 0.59731 0.0806894 0.601247 0.0728603 0.466696 0.33303 1.30015 0.177467 1.37026 0.127648 1.2273 0.0111434 1.27705 0.603689 1.32326 0.509366 1.44215 0.869813 1.25054 0.823382 1.3958 1.06909 1.1422 1.10744 1.2237 1.20666 0.889182 1.32773 0.919315 1.15115 1.02105 1.23571 1.08559 1.42322 0.54798 1.39459 0.73893 1.32977 0.56168 1.2783 0.761622 1.26766 0.183092 1.37295 0.161077 1.30925 0.356235 1.41517 0.350201 1.17027 -0.2005 1.29168 -0.0283248 1.13846 -0.0742805 1.19901 0.0572991 0.85963 -0.420489 1.02665 -0.327928 0.872816 -0.303259 1.02505 -0.200776 0.533635 -0.495623 0.630735 -0.373546 0.221077 -0.447359 0.336301 -0.363229 -0.0693691 -0.285045 0.0258273 -0.245091 -0.229213 0.0941702 -0.31382 0.0230461 -0.147944 -0.0623127 -0.207533 -0.150777 -0.292867 0.488212 -0.399623 0.423581 -0.26803 0.28615 -0.377903 0.218233 -0.207995 0.793359 -0.329529 0.824228 -0.267253 0.6619 -0.382844 0.627853 -0.122284 1.15781 -0.239511 1.00476 -0.0488665 1.10723 -0.162433 0.933096 0.272963 1.16477 0.119436 1.09024 0.259497 1.03364 0.144952 0.9857 0.488751 1.20446 0.429162 1.07582 0.707829 1.20154 0.663915 1.07791 0.859877 0.97332 0.919831 1.10016 1.04252 0.748542 1.13633 0.813465 0.972422 0.865775 1.05277 0.948126 1.0733 0.487136 1.2 0.510864 1.07127 0.620244 1.18646 0.667667 1.017 0.215334 1.14482 0.207459 1.05454 0.350741 1.18388 0.355894 0.892201 -0.0174726 1.00674 -0.0552423 0.963428 0.0871771 1.08614 0.0671228 0.67376 -0.130837 0.74442 -0.228759 0.800074 -0.0933029 0.898583 -0.155864 0.481796 -0.120845 0.516808 -0.259339 0.284411 -0.07321 0.234945 -0.191455 0.0106163 -0.0742138 0.13468 -0.0275043 -0.138087 0.164519 -0.0844454 0.0413076 -0.0132002 0.132475 0.0397613 0.0458734 -0.178672 0.421297 -0.149228 0.293038 -0.055311 0.386636 -0.0464853 0.249737 -0.131367 0.712611 -0.17002 0.570736 -0.0205157 0.651721 -0.0490182 0.521443 0.00596802 0.982268 -0.0728461 0.849941 0.0881619 0.894813 0.0276315 0.777318 0.53002 0.979756 0.683415 0.930044 0.833201 0.860081 0.508232 -0.0260596 0.378584 -0.0304184 0.237278 0.0164116 0.165142 1.46082 -0.0181502 1.36522 0.517807 1.53563 0.863549 1.47778 1.16611 1.29042 1.41172 0.967295 1.30338 1.14547 1.51544 0.552223 1.48236 0.766543 1.45463 0.119429 1.50479 0.333961 1.23677 -0.260292 1.36428 -0.0831568 0.886694 -0.509658 1.0724 -0.407343 0.531323 -0.588671 0.187867 -0.534724 -0.126951 -0.357165 -0.396026 -0.012666 -0.278307 -0.207931 -0.489942 0.424687 -0.466328 0.199946 -0.410937 0.863308 -0.471654 0.648231 -0.181091 1.22729 -0.312462 1.0592 0.376451 0.106768 0.600837 0.069232 0.719893 0.767744 0.491934 0.799577 0.638361 0.548308 0.458721 0.535873 0.539174 0.293835 0.363613 0.353906</float_array>
                    <technique_common>
                        <accessor count="172" source="#Geometry-mesh010-uvSet1-array" stride="2">
                            <param name="S" type="float" />
                            <param name="T" type="float" />
                        </accessor>
                    </technique_common>
                </source>
                <vertices id="Geometry-mesh010-vertices">
                    <input semantic="POSITION" source="#Geometry-mesh010-positions" />
                </vertices>
                <polylist count="316" material="Material-tunnel_MAT">
                    <input semantic="VERTEX" source="#Geometry-mesh010-vertices" offset="0" />
                    <input semantic="NORMAL" source="#Geometry-mesh010-normals" offset="1" />
                    <input semantic="TEXCOORD" source="#Geometry-mesh010-uvSet1" offset="2" set="0" />
                    <vcount>3 3 3 3 3 3 3 3 3 3 3 3 3 3 3 3 3 3 3 3 3 3 3 3 3 3 3 3 3 3 3 3 3 3 3 3 3 3 3 3 3 3 3 3 3 3 3 3 3 3 3 3 3 3 3 3 3 3 3 3 3 3 3 3 3 3 3 3 3 3 3 3 3 3 3 3 3 3 3 3 3 3 3 3 3 3 3 3 3 3 3 3 3 3 3 3 3 3 3 3 3 3 3 3 3 3 3 3 3 3 3 3 3 3 3 3 3 3 3 3 3 3 3 3 3 3 3 3 3 3 3 3 3 3 3 3 3 3 3 3 3 3 3 3 3 3 3 3 3 3 3 3 3 3 3 3 3 3 3 3 3 3 3 3 3 3 3 3 3 3 3 3 3 3 3 3 3 3 3 3 3 3 3 3 3 3 3 3 3 3 3 3 3 3 3 3 3 3 3 3 3 3 3 3 3 3 3 3 3 3 3 3 3 3 3 3 3 3 3 3 3 3 3 3 3 3 3 3 3 3 3 3 3 3 3 3 3 3 3 3 3 3 3 3 3 3 3 3 3 3 3 3 3 3 3 3 3 3 3 3 3 3 3 3 3 3 3 3 3 3 3 3 3 3 3 3 3 3 3 3 3 3 3 3 3 3 3 3 3 3 3 3 3 3 3 3 3 3 3 3 3 3 3 3 3 3 3 3 3 3 3 3 3 3 3 3</vcount>
                    <p>0 0 0 70 1 1 128 2 2 1 3 3 69 4 4 134 5 5 2 6 6 65 7 7 140 8 8 64 9 9 146 10 10 2 6 6 2 6 6 146 10 10 3 11 11 3 11 11 63 12 12 104 13 13 4 14 14 62 15 15 110 16 16 5 17 17 61 18 18 152 19 19 6 20 20 57 21 21 158 22 22 6 20 20 56 23 23 116 24 24 7 25 25 71 26 26 122 27 27 25 28 28 89 29 29 161 30 30 161 30 30 89 29 29 162 31 31 26 32 32 90 33 33 25 28 28 25 28 28 90 33 33 89 29 29 27 34 34 91 35 35 26 32 32 26 32 32 91 35 35 90 33 33 28 36 36 92 37 37 27 34 34 27 34 34 92 37 37 91 35 35 29 38 38 93 39 39 155 40 40 155 40 40 93 39 39 156 41 41 94 42 42 114 43 43 30 44 44 30 44 44 114 43 43 113 45 45 31 46 46 95 47 47 107 48 48 107 48 48 95 47 47 108 49 49 96 50 50 150 51 51 32 52 52 32 52 52 150 51 51 149 53 53 97 54 54 144 55 55 33 56 56 33 56 56 144 55 55 143 57 57 98 58 58 97 54 54 34 59 59 34 59 59 97 54 54 33 56 56 99 60 60 98 58 58 35 61 61 35 61 61 98 58 58 34 59 59 100 62 62 99 60 60 36 63 63 36 63 63 99 60 60 35 61 61 37 64 64 101 65 65 137 66 66 137 66 66 101 65 65 138 67 67 38 68 68 102 69 69 131 70 70 131 70 70 102 69 69 132 71 71 39 72 72 103 73 73 125 74 74 125 74 74 103 73 73 126 75 75 88 76 76 120 77 77 24 78 78 24 78 78 120 77 77 119 79 79 73 80 80 160 81 81 41 82 82 41 82 82 160 81 81 159 83 83 74 84 84 73 80 80 42 85 85 42 85 85 73 80 80 41 82 82 75 86 86 74 84 84 43 87 87 43 87 87 74 84 84 42 85 85 44 88 88 76 89 89 43 87 87 43 87 87 76 89 89 75 86 86 45 90 90 77 91 91 153 92 92 153 92 92 77 91 91 154 93 93 46 94 94 78 95 95 111 96 96 111 96 96 78 95 95 112 97 97 47 98 98 79 99 99 105 100 100 105 100 100 79 99 99 106 101 101 48 102 102 80 103 103 147 104 104 147 104 104 80 103 103 148 105 105 49 106 106 81 107 107 141 108 108 141 108 108 81 107 107 142 109 109 50 110 110 82 111 111 49 106 106 49 106 106 82 111 111 81 107 107 51 112 112 83 113 113 50 110 110 50 110 110 83 113 113 82 111 111 84 114 114 83 113 113 52 115 115 52 115 115 83 113 113 51 112 112 85 116 116 136 117 117 53 118 118 53 118 118 136 117 117 135 119 119 86 120 120 130 121 121 54 122 122 54 122 122 130 121 121 129 123 123 87 124 124 124 125 125 55 126 126 55 126 126 124 125 125 123 127 127 72 128 128 118 129 129 40 130 130 40 130 130 118 129 129 117 131 131 57 21 21 41 82 82 158 22 22 158 22 22 41 82 82 159 83 83 58 132 132 42 85 85 57 21 21 57 21 21 42 85 85 41 82 82 59 133 133 43 87 87 58 132 132 58 132 132 43 87 87 42 85 85 60 134 134 44 88 88 59 133 133 59 133 133 44 88 88 43 87 87 61 18 18 45 90 90 152 19 19 152 19 19 45 90 90 153 92 92 62 15 15 46 94 94 110 16 16 110 16 16 46 94 94 111 96 96 63 12 12 47 98 98 104 13 13 104 13 13 47 98 98 105 100 100 64 9 9 48 102 102 146 10 10 146 10 10 48 102 102 147 104 104 65 7 7 49 106 106 140 8 8 66 135 135 50 110 110 65 7 7 65 7 7 50 110 110 49 106 106 51 112 112 50 110 110 67 136 136 67 136 136 50 110 110 66 135 135 52 115 115 51 112 112 68 137 137 68 137 137 51 112 112 67 136 136 53 118 118 135 119 119 69 4 4 69 4 4 135 119 119 134 5 5 54 122 122 129 123 123 70 1 1 70 1 1 129 123 123 128 2 2 55 126 126 123 127 127 71 26 26 71 26 26 123 127 127 122 27 27 40 130 130 117 131 131 56 23 23 56 23 23 117 131 131 116 24 24 25 28 28 161 30 30 73 80 80 73 80 80 161 30 30 160 81 81 26 32 32 25 28 28 74 84 84 74 84 84 25 28 28 73 80 80 27 34 34 26 32 32 75 86 86 75 86 86 26 32 32 74 84 84 28 36 36 27 34 34 76 89 89 76 89 89 27 34 34 75 86 86 77 91 91 29 38 38 154 93 93 154 93 93 29 38 38 155 40 40 78 95 95 30 44 44 112 97 97 112 97 97 30 44 44 113 45 45 79 99 99 31 46 46 106 101 101 106 101 101 31 46 46 107 48 48 80 103 103 32 52 52 148 105 105 148 105 105 32 52 52 149 53 53 81 107 107 33 56 56 142 109 109 142 109 109 33 56 56 143 57 57 82 111 111 34 59 59 81 107 107 81 107 107 34 59 59 33 56 56 83 113 113 35 61 61 82 111 111 82 111 111 35 61 61 34 59 59 84 114 114 36 63 63 83 113 113 83 113 113 36 63 63 35 61 61 85 116 116 37 64 64 136 117 117 136 117 117 37 64 64 137 66 66 38 68 68 131 70 70 86 120 120 86 120 120 131 70 70 130 121 121 39 72 72 125 74 74 87 124 124 87 124 124 125 74 74 124 125 125 24 78 78 119 79 79 72 128 128 72 128 128 119 79 79 118 129 129 21 138 138 163 139 139 89 29 29 89 29 29 163 139 139 162 31 31 20 140 140 21 138 138 90 33 33 90 33 33 21 138 138 89 29 29 19 141 141 20 140 140 91 35 35 91 35 35 20 140 140 90 33 33 18 142 142 19 141 141 92 37 37 92 37 37 19 141 141 91 35 35 93 39 39 17 143 143 156 41 41 156 41 41 17 143 143 157 144 144 94 42 42 16 145 145 114 43 43 114 43 43 16 145 145 115 146 146 15 147 147 109 148 148 95 47 47 95 47 47 109 148 148 108 49 49 14 149 149 151 150 150 96 50 50 96 50 50 151 150 150 150 51 51 13 151 151 145 152 152 97 54 54 97 54 54 145 152 152 144 55 55 12 153 153 13 151 151 98 58 58 98 58 58 13 151 151 97 54 54 11 154 154 12 153 153 99 60 60 99 60 60 12 153 153 98 58 58 10 155 155 11 154 154 100 62 62 100 62 62 11 154 154 99 60 60 9 156 156 139 157 157 101 65 65 101 65 65 139 157 157 138 67 67 8 158 158 133 159 159 102 69 69 102 69 69 133 159 159 132 71 71 23 160 160 127 161 161 103 73 73 103 73 73 127 161 161 126 75 75 22 162 162 121 163 163 88 76 76 88 76 76 121 163 163 120 77 77 4 14 14 104 13 13 62 15 15 46 94 94 62 15 15 105 100 100 105 100 100 62 15 15 104 13 13 78 95 95 46 94 94 106 101 101 106 101 101 46 94 94 105 100 100 30 44 44 78 95 95 107 48 48 107 48 48 78 95 95 106 101 101 94 42 42 30 44 44 108 49 49 108 49 49 30 44 44 107 48 48 109 148 148 16 145 145 108 49 49 108 49 49 16 145 145 94 42 42 5 17 17 110 16 16 61 18 18 45 90 90 61 18 18 111 96 96 111 96 96 61 18 18 110 16 16 77 91 91 45 90 90 112 97 97 112 97 97 45 90 90 111 96 96 29 38 38 77 91 91 113 45 45 113 45 45 77 91 91 112 97 97 114 43 43 93 39 39 113 45 45 113 45 45 93 39 39 29 38 38 17 143 143 93 39 39 115 146 146 115 146 146 93 39 39 114 43 43 6 20 20 116 24 24 7 25 25 117 131 131 55 126 126 116 24 24 116 24 24 55 126 126 71 26 26 118 129 129 87 124 124 117 131 131 117 131 131 87 124 124 55 126 126 119 79 79 39 72 72 118 129 129 118 129 129 39 72 72 87 124 124 120 77 77 103 73 73 119 79 79 119 79 79 103 73 73 39 72 72 121 163 163 23 160 160 120 77 77 120 77 77 23 160 160 103 73 73 7 25 25 122 27 27 0 0 0 123 127 127 54 122 122 122 27 27 122 27 27 54 122 122 70 1 1 124 125 125 86 120 120 123 127 127 123 127 127 86 120 120 54 122 122 125 74 74 38 68 68 124 125 125 124 125 125 38 68 68 86 120 120 102 69 69 38 68 68 126 75 75 126 75 75 38 68 68 125 74 74 127 161 161 8 158 158 126 75 75 126 75 75 8 158 158 102 69 69 0 0 0 128 2 2 69 4 4 129 123 123 53 118 118 128 2 2 128 2 2 53 118 118 69 4 4 130 121 121 85 116 116 129 123 123 129 123 123 85 116 116 53 118 118 37 64 64 85 116 116 131 70 70 131 70 70 85 116 116 130 121 121 101 65 65 37 64 64 132 71 71 132 71 71 37 64 64 131 70 70 133 159 159 9 156 156 132 71 71 132 71 71 9 156 156 101 65 65 1 3 3 134 5 5 68 137 137 135 119 119 52 115 115 134 5 5 136 117 117 84 114 114 135 119 119 135 119 119 84 114 114 52 115 115 36 63 63 84 114 114 137 66 66 137 66 66 84 114 114 136 117 117 100 62 62 36 63 63 138 67 67 138 67 67 36 63 63 137 66 66 10 155 155 100 62 62 139 157 157 139 157 157 100 62 62 138 67 67 2 6 6 140 8 8 64 9 9 48 102 102 64 9 9 141 108 108 141 108 108 64 9 9 140 8 8 80 103 103 48 102 102 142 109 109 142 109 109 48 102 102 141 108 108 32 52 52 80 103 103 143 57 57 143 57 57 80 103 103 142 109 109 144 55 55 96 50 50 143 57 57 143 57 57 96 50 50 32 52 52 145 152 152 14 149 149 144 55 55 144 55 55 14 149 149 96 50 50 3 11 11 146 10 10 63 12 12 47 98 98 63 12 12 147 104 104 147 104 104 63 12 12 146 10 10 79 99 99 47 98 98 148 105 105 148 105 105 47 98 98 147 104 104 31 46 46 79 99 99 149 53 53 149 53 53 79 99 99 148 105 105 95 47 47 31 46 46 150 51 51 150 51 51 31 46 46 149 53 53 151 150 150 15 147 147 150 51 51 150 51 51 15 147 147 95 47 47 5 17 17 152 19 19 60 134 134 44 88 88 60 134 134 153 92 92 153 92 92 60 134 134 152 19 19 76 89 89 44 88 88 154 93 93 154 93 93 44 88 88 153 92 92 28 36 36 76 89 89 155 40 40 155 40 40 76 89 89 154 93 93 92 37 37 28 36 36 156 41 41 156 41 41 28 36 36 155 40 40 18 142 142 92 37 37 157 144 144 157 144 144 92 37 37 156 41 41 6 20 20 158 22 22 56 23 23 159 83 83 40 130 130 158 22 22 158 22 22 40 130 130 56 23 23 160 81 81 72 128 128 159 83 83 159 83 83 72 128 128 40 130 130 161 30 30 24 78 78 160 81 81 160 81 81 24 78 78 72 128 128 88 76 76 24 78 78 162 31 31 162 31 31 24 78 78 161 30 30 163 139 139 22 162 162 162 31 31 162 31 31 22 162 162 88 76 76 7 25 25 116 24 24 71 26 26 4 14 14 110 16 16 5 17 17 3 11 11 104 13 13 4 14 14 0 0 0 122 27 27 70 1 1 0 0 0 69 4 4 1 3 3 140 8 8 49 106 106 141 108 108 134 5 5 52 115 115 68 137 137 1 3 3 68 137 137 168 164 164 168 164 164 68 137 137 67 136 136 67 136 136 66 135 135 168 164 164 168 164 164 66 135 135 169 165 165 66 135 135 65 7 7 169 165 165 169 165 165 65 7 7 2 6 6 5 17 17 60 134 134 171 166 166 171 166 166 60 134 134 59 133 133 171 166 166 59 133 133 170 167 167 170 167 167 59 133 133 58 132 132 58 132 132 57 21 21 170 167 167 170 167 167 57 21 21 6 20 20 167 168 168 165 169 169 166 170 170 164 171 171 166 170 170 165 169 169 169 165 165 166 170 170 168 164 164 164 171 171 168 164 164 166 170 170 165 169 169 7 25 25 164 171 171 0 0 0 164 171 171 7 25 25 165 169 169 170 167 167 7 25 25 6 20 20 7 25 25 170 167 167 167 168 168 4 14 14 171 166 166 5 17 17 171 166 166 4 14 14 164 171 171 0 0 0 168 164 164 1 3 3 168 164 164 0 0 0 166 170 170 169 165 165 3 11 11 2 6 6 3 11 11 169 165 165 4 14 14 167 168 168 3 11 11 166 170 170 3 11 11 167 168 168 171 166 166 170 167 167 167 168 168 165 169 169 167 168 168 170 167 167</p>
                </polylist>
            </mesh>
        </geometry>
    </library_geometries>
    <library_visual_scenes>
        <visual_scene id="DefaultScene">
            <node id="Geometry-mesh010Node" name="end" type="NODE">
                <matrix sid="transform">1 0 0 0 0 1 0 0 0 0 1 0 0 0 0 1</matrix>
                <instance_geometry url="#Geometry-mesh010">
                    <bind_material>
                        <technique_common>
                            <instance_material symbol="Material-tunnel_MAT" target="#Material-tunnel_MAT">
                                <bind_vertex_input semantic="uvSet1" input_semantic="TEXCOORD" input_set="0" />
                            </instance_material>
                        </technique_common>
                    </bind_material>
                </instance_geometry>
            </node>
            <node id="groupLocator015Node" name="Texture_Group" type="NODE">
                <matrix sid="transform">1 0 0 0 0 1 0 0 0 0 1 0 0 0 0 1</matrix>
                <node id="txtrLocator010Node" name="stairs_datasite__Image___Texture_" type="NODE">
                    <matrix sid="transform">1 0 0 0 0 1 0 0 0 0 1 0 0 0 0 1</matrix>
                </node>
            </node>
        </visual_scene>
    </library_visual_scenes>
    <scene>
        <instance_visual_scene url="#DefaultScene" />
    </scene>
</COLLADA>
