<?xml version="1.0" encoding="utf-8"?>
<COLLADA xmlns="http://www.collada.org/2005/11/COLLADASchema" version="1.4.1">
  <asset>
    <contributor>
      <author>marcus</author>
      <authoring_tool>OpenCOLLADA2008 x64</authoring_tool>
      <comments>
			ColladaMaya export options: 
			bakeTransforms=0;relativePaths=0;copyTextures=0;exportTriangles=1;exportCgfxFileReferences=1;
			isSampling=0;curveConstrainSampling=0;removeStaticCurves=1;exportPolygonMeshes=1;exportLights=1;
			exportCameras=1;exportJointsAndSkin=0;exportAnimations=0;exportInvisibleNodes=0;exportDefaultCameras=0;
			exportTexCoords=1;exportNormals=1;exportNormalsPerVertex=1;exportVertexColors=1;exportVertexColorsPerVertex=1;
			exportTexTangents=0;exportTangents=0;exportReferencedMaterials=0;exportMaterialsOnly=0;
			exportXRefs=1;dereferenceXRefs=1;exportCameraAsLookat=0;cameraXFov=0;cameraYFov=1;doublePrecision=0
		</comments>
      <source_data>file:///D:/work/DropBox/Team/Depth_marcus/models/Levels/02_05/tunnels/tunnels_WIP02.ma</source_data>
    </contributor>
    <created>2013-11-01T17:08:07</created>
    <modified>2013-11-01T17:08:07</modified>
    <unit name="meter" meter="1"/>
    <up_axis>Y_UP</up_axis>
  </asset>
  <library_materials>
    <material id="tunnel_MAT" name="tunnel_MAT">
      <instance_effect url="#tunnel_MAT-fx"/>
    </material>
  </library_materials>
  <library_effects>
    <effect id="tunnel_MAT-fx">
      <profile_COMMON>
        <newparam sid="file1-surface">
          <surface type="2D">
            <init_from>file1</init_from>
          </surface>
        </newparam>
        <newparam sid="file1-sampler">
          <sampler2D>
            <source>file1-surface</source>
          </sampler2D>
        </newparam>
        <technique sid="common">
          <blinn>
            <emission>
              <color>0 0 0 1</color>
            </emission>
            <ambient>
              <color>0 0 0 1</color>
            </ambient>
            <diffuse>
              <texture texture="file1-sampler" texcoord="TEX0">
                <extra>
                  <technique profile="OpenCOLLADAMaya">
                    <blend_mode>NONE</blend_mode>
                    <coverageU>1</coverageU>
                    <coverageV>1</coverageV>
                    <fast>0</fast>
                    <mirrorU>0</mirrorU>
                    <mirrorV>0</mirrorV>
                    <noiseU>0</noiseU>
                    <noiseV>0</noiseV>
                    <offsetU>0</offsetU>
                    <offsetV>0</offsetV>
                    <repeatU>1</repeatU>
                    <repeatV>1</repeatV>
                    <rotateFrame>0</rotateFrame>
                    <rotateUV>0</rotateUV>
                    <stagger>0</stagger>
                    <translateFrameU>0</translateFrameU>
                    <translateFrameV>0</translateFrameV>
                    <wrapU>1</wrapU>
                    <wrapV>1</wrapV>
                  </technique>
                </extra>
              </texture>
            </diffuse>
            <specular>
              <color>0.5 0.5 0.5 1</color>
            </specular>
            <shininess>
              <float>0.3</float>
            </shininess>
            <reflective>
              <color>0 0 0 1</color>
            </reflective>
            <reflectivity>
              <float>0.5</float>
            </reflectivity>
            <transparent opaque="RGB_ZERO">
              <color>0 0 0 1</color>
            </transparent>
            <transparency>
              <float>1</float>
            </transparency>
          </blinn>
        </technique>
      </profile_COMMON>
    </effect>
  </library_effects>
  <library_images>
    <image id="file1" name="file1">
      <init_from>file:///D:/work/depth/redist/static_objects/station/tunnel/tunnel_theta_rock.dds</init_from>
      <extra>
        <technique profile="OpenCOLLADAMaya">
          <dgnode_type>kFile</dgnode_type>
          <image_sequence>0</image_sequence>
          <originalMayaNodeId>file1</originalMayaNodeId>
        </technique>
      </extra>
    </image>
  </library_images>
  <library_geometries>
    <geometry id="straightShape" name="straightShape">
      <mesh>
        <source id="straightShape-positions" name="straightShape-positions">
          <float_array id="straightShape-positions-array" count="1014">2.101625 -0.5154139 0 1.76212 -1.431487 0 1.178177 -2.140376 0 0.4117986 -2.550661 0 -0.4117986 -2.550661 0 -1.178177 -2.140376 0 -1.76212 -1.431487 0 -2.101625 -0.5154139 0 -2.101625 0.5154139 0 -1.762119 1.431487 0 -1.178177 2.140376 0 -0.4117986 2.550661 0 0.4117986 2.550661 0 1.179994 2.136603 0 1.762119 1.431487 0 2.101625 0.5154139 0 -2.173561 0 0 -1.980402 0.9862 0 1.980402 0.9862 0 2.173561 0 0 1.980402 -0.9862 0 1.516596 -1.830852 0 -1.516596 -1.830852 0 -1.980402 -0.9862 0 -1.516596 1.830852 0 1.516596 1.830852 0 -2.138991 -0.471022 3.981681 -1.870126 -1.486315 3.981681 -1.226161 -2.196407 3.981681 -0.472343 -2.595483 3.981681 0.34039 -2.590851 3.981681 1.106894 -2.208158 3.981681 1.681872 -1.438816 3.981681 2.078762 -0.462945 3.981681 1.972522 0.619213 3.981681 1.691227 1.618123 3.981681 1.076879 2.348163 3.981681 0.33706 2.812451 3.981681 -0.499139 2.780966 3.981681 -1.264175 2.368796 3.981681 -1.817067 1.580455 3.981681 -2.204229 0.614119 3.981681 -2.101625 -0.5154139 8 -1.76212 -1.431487 8 -1.178177 -2.140376 8 -0.4117987 -2.550661 8 0.4117986 -2.550661 8 1.178177 -2.140376 8 1.76212 -1.431487 8 2.101625 -0.5154139 8 2.101625 0.5154139 8 1.76212 1.431487 8 1.179994 2.136603 8 0.4117986 2.550661 8 -0.4117986 2.550661 8 -1.178177 2.140376 8 -1.762119 1.431487 8 -2.101625 0.5154139 8 -1.809948 1.507304 6.783458 -1.200076 2.269576 6.777805 -0.4132011 2.571607 6.776022 0.3827309 2.60851 6.775931 1.109121 2.199111 6.776052 1.795267 1.545712 6.763779 2.063676 0.5321187 6.774816 2.022423 -0.5188814 6.776478 1.76411 -1.52269 6.778173 1.12163 -2.202704 6.775879 0.3888565 -2.577103 6.775757 -0.3890406 -2.564384 6.775845 -1.133886 -2.226058 6.77618 -1.702449 -1.493733 6.776512 -1.987169 -0.5334846 6.775298 -2.076463 0.5074018 6.776155 -1.800433 1.60824 5.377067 -1.211691 2.377683 5.376826 -0.4393999 2.774534 5.375388 0.4073111 2.827688 5.376486 1.143775 2.351203 5.37895 1.772894 1.627621 5.380064 2.061811 0.638557 5.377784 2.19577 -0.439927 5.376373 1.743571 -1.390955 5.375811 1.14718 -2.122729 5.377715 0.3987341 -2.503614 5.3782 -0.4018929 -2.499064 5.378718 -1.167377 -2.149661 5.378485 -1.803236 -1.443095 5.377752 -2.09839 -0.43931 5.380615 -2.077817 0.614686 5.379019 -1.727555 1.574505 4.680183 -1.16476 2.324382 4.680011 -0.420526 2.729346 4.680089 0.387012 2.737691 4.679539 1.129287 2.331477 4.680222 1.737633 1.614198 4.679771 2.024458 0.6295259 4.680222 2.083842 -0.434288 4.679404 1.702896 -1.386035 4.680399 1.129924 -2.113998 4.680166 0.388039 -2.471563 4.680222 -0.388719 -2.485591 4.680629 -1.151094 -2.156681 4.680074 -1.741943 -1.426705 4.678765 -2.089112 -0.453675 4.678745 -2.10998 0.619487 4.678125 -1.791283 1.603241 6.078931 -1.169391 2.342308 6.077548 -0.3945306 2.726319 6.078029 0.4466564 2.773137 6.081789 1.162499 2.281631 6.077321 1.800137 1.601686 6.080056 2.077463 0.624321 6.077064 2.069778 -0.40696 6.077565 1.839883 -1.410485 6.075867 1.155598 -2.044035 6.077197 0.4380734 -2.466337 6.077307 -0.3560896 -2.449495 6.077216 -1.100895 -2.088191 6.077315 -1.731228 -1.404608 6.07891 -1.970266 -0.424147 6.07737 -2.001223 0.598555 6.076981 -1.728868 1.438119 7.477563 -1.190135 2.225318 7.479786 -0.4248679 2.625875 7.475304 0.3959126 2.564798 7.473942 1.132486 2.168147 7.475109 1.869162 1.548466 7.476638 2.12467 0.5224421 7.477981 2.057371 -0.5221595 7.477212 1.844483 -1.543211 7.483021 1.136296 -2.17324 7.474357 0.405378 -2.559421 7.474371 -0.3818616 -2.554037 7.474385 -1.115558 -2.182223 7.474443 -1.803911 -1.545706 7.480516 -2.08896 -0.5523032 7.475771 -2.066703 0.491656 7.477839 2.05165 0.089581 3.981681 2.11262 0.103938 4.680277 2.151001 0.113092 5.378212 2.114784 0.106979 6.077184 2.037279 8.44755e-4 6.776038 2.10601 -0.007652836 7.475242 2.173561 0 8 1.896982 1.147184 3.981681 1.906028 1.137104 4.680123 1.972363 1.159951 5.377945 2.010378 1.146138 6.078796 1.919603 1.042247 6.771913 2.071908 1.071485 7.479885 1.980402 0.9862 8 -2.033668 1.120316 3.981681 -1.936361 1.118057 4.679761 -1.971606 1.127438 5.37801 -1.908985 1.102921 6.077333 -1.926625 1.007458 6.777676 -1.929255 0.9880669 7.477233 -1.980402 0.9862 8 -2.245354 0.062247 3.981681 -2.166219 0.078299 4.67856 -2.166509 0.085702 5.380947 -2.025155 0.084475 6.077303 -2.056425 -0.02209028 6.775483 -2.09756 -0.02896665 7.47697 -2.173561 0 8 -2.01531 -0.985596 3.981681 -2.001609 -0.98341 4.677006 -2.059403 -0.984262 5.379459 -1.892447 -0.92895 6.078146 -1.942917 -1.05623 6.775398 -1.92649 -1.046446 7.475796 -1.980402 -0.9862 8 -1.58234 -1.899275 3.981681 -1.535619 -1.889268 4.67771 -1.520513 -1.850343 5.37631 -1.513155 -1.857586 6.077574 -1.491505 -1.940211 6.7766 -1.53476 -1.966534 7.4783 -1.516596 -1.830852 8 1.459379 -1.892466 3.981681 1.467881 -1.813581 4.680092 1.497101 -1.818598 5.377358 1.54037 -1.799988 6.077007 1.448909 -1.892973 6.776153 1.505208 -1.90785 7.475615 1.516596 -1.830852 8 1.907383 -0.980457 3.981681 1.9475 -0.947067 4.681159 1.996507 -0.9532 5.373705 2.018171 -0.930494 6.077488 1.977287 -1.050044 6.77785 2.001769 -1.044944 7.480143 1.980402 -0.9862 8 1.399943 2.018761 3.981681 1.523471 2.074238 4.679399 1.471015 2.019917 5.379443 1.515231 1.99442 6.078706 1.444081 1.894771 6.774821 1.546228 1.934484 7.475607 1.516596 1.830852 8 -1.590884 2.026297 3.981681 -1.488862 2.000638 4.679922 -1.535934 2.030292 5.377993 -1.539492 2.041271 6.080483 -1.558623 1.946646 6.782892 -1.549329 1.910121 7.483531 -1.516596 1.830852 8 -1.996604 1.636431 2.801776 -1.349947 2.43829 2.796122 -0.5148651 2.756024 2.794341 0.330015 2.794857 2.79425 1.101091 2.363931 2.79437 1.829036 1.674976 2.782096 2.114322 0.60913 2.793136 2.070576 -0.49704 2.794796 1.796439 -1.55358 2.796492 1.114359 -2.269492 2.794197 0.336505 -2.663593 2.794077 -0.4892351 -2.650202 2.794161 -1.279862 -2.294061 2.794494 -1.883351 -1.523187 2.794829 -2.185735 -0.512489 2.793616 -2.280411 0.583221 2.794473 -1.884469 1.50484 1.395386 -1.286419 2.269902 1.395143 -0.5017825 2.664304 1.393705 0.3581225 2.717309 1.394803 1.105911 2.243824 1.397266 1.744838 1.524367 1.398383 2.038544 0.5406716 1.396105 2.174753 -0.5317316 1.39469 1.715493 -1.477315 1.394129 1.109505 -2.205082 1.396032 0.3492088 -2.583878 1.396517 -0.4641062 -2.57941 1.397036 -1.24163 -2.231934 1.396802 -1.887411 -1.529274 1.396071 -2.187629 -0.53117 1.398933 -2.166503 0.5169792 1.397337 -1.742812 1.440501 0.6985004 -1.168691 2.171024 0.6983292 -0.4095581 2.565555 0.6984073 0.414284 2.573601 0.6978555 1.171295 2.177963 0.69854 1.791919 1.479137 0.6980881 2.084415 0.519884 0.69854 2.145125 -0.5164683 0.6977216 1.756375 -1.44374 0.698717 1.171957 -2.15291 0.6984833 0.4151862 -2.501266 0.69854 -0.3772398 -2.515006 0.6989478 -1.154768 -2.19448 0.6983923 -1.757105 -1.483181 0.6970825 -2.111216 -0.5353228 0.6970657 -2.132326 0.510064 0.696442 -2.022111 1.606854 2.09725 -1.370333 2.385398 2.095867 -0.5582651 2.790047 2.096346 0.323221 2.83986 2.100106 1.073569 2.321444 2.095637 1.741735 1.605318 2.098373 2.03249 0.575323 2.095383 2.024417 -0.511191 2.095881 1.783541 -1.568481 2.094185 1.06634 -2.23598 2.095518 0.314346 -2.680911 2.095626 -0.5179611 -2.663162 2.095533 -1.298543 -2.282505 2.095634 -1.959173 -1.562304 2.097229 -2.209673 -0.529304 2.095688 -2.242113 0.548172 2.095299 -1.915742 1.598484 3.495884 -1.355976 2.430202 3.498103 -0.562508 2.852878 3.493622 0.289398 2.788233 3.49226 1.054297 2.369365 3.493427 1.819267 1.71495 3.494956 2.084641 0.631313 3.496297 2.014707 -0.472162 3.495531 1.794302 -1.550037 3.50134 1.058153 -2.216496 3.492674 0.299294 -2.624417 3.492689 -0.518038 -2.618728 3.492703 -1.279771 -2.225975 3.492761 -1.992891 -1.552951 3.498834 -2.29003 -0.504156 3.494088 -2.266374 0.598779 3.496156 2.174335 0.007843983 0.6985956 2.129095 0.01816559 1.396531 2.071598 0.030272 2.095502 2.086334 0.050003 2.794355 2.065021 0.071097 3.49356 1.963627 1.014373 0.6984406 1.947669 1.059143 1.396261 1.962117 1.125226 2.097115 1.961296 1.145831 2.790231 2.030047 1.211448 3.498202 -1.955688 0.9957987 0.6980798 -2.058473 1.026816 1.396326 -2.145448 1.079581 2.095651 -2.121167 1.109722 2.795993 -2.123849 1.123069 3.495552 -2.189814 -0.01710666 0.6968777 -2.256872 -0.009035513 1.399265 -2.267199 0.006567 2.095621 -2.259227 0.025819 2.793799 -2.298639 0.048764 3.495288 -2.021479 -1.051208 0.6953226 -2.14786 -1.073087 1.397775 -2.128125 -1.061146 2.096464 -2.138748 -1.062726 2.793717 -2.121353 -1.026113 3.494112 -1.546374 -1.933631 0.6960287 -1.600035 -1.934118 1.394629 -1.730609 -2.03955 2.095893 -1.659426 -1.993154 2.794916 -1.71406 -1.99771 3.496615 1.516704 -1.860228 0.6984091 1.46498 -1.902636 1.395676 1.4696 -1.978854 2.095327 1.46178 -1.943452 2.794471 1.441316 -1.936026 3.493936 2.005756 -1.016144 0.6994766 1.972625 -1.041987 1.392022 1.970333 -1.062779 2.095806 2.022706 -1.056072 2.796169 1.957267 -1.024053 3.498462 1.573533 1.927263 0.6977188 1.438259 1.914435 1.397761 1.443196 2.018989 2.097023 1.456601 2.043454 2.793139 1.483899 2.122596 3.493923 -1.499265 1.85562 0.6982394 -1.615932 1.924601 1.396311 -1.758252 2.068538 2.098799 -1.729935 2.098878 2.801208 -1.727905 2.097632 3.501849</float_array>
          <technique_common>
            <accessor source="#straightShape-positions-array" count="338" stride="3">
              <param name="X" type="float"/>
              <param name="Y" type="float"/>
              <param name="Z" type="float"/>
            </accessor>
          </technique_common>
        </source>
        <source id="straightShape-normals" name="straightShape-normals">
          <float_array id="straightShape-normals-array" count="1014">-0.9830248 0.1785253 0.04231972 -0.8705378 0.4917274 0.01918847 -0.558275 0.8296523 -0.002474109 -0.2330959 0.9714742 -0.043637 0.215178 0.9759815 -0.0340372 0.5241833 0.8505214 0.04295477 0.876716 0.4765332 0.06546204 0.9836637 0.1765323 0.03524404 0.977298 -0.2110774 0.01829793 0.8794004 -0.4758033 -0.01631142 0.5796252 -0.8146234 0.02058158 0.242647 -0.9697455 0.02675987 -0.2390565 -0.9704159 0.03383496 -0.5354621 -0.8417294 0.06907969 -0.8972551 -0.4364229 0.06684607 -0.9797804 -0.199579 -0.01409445 0.9995781 0.01057828 0.02704818 0.9299217 -0.3676523 -0.008798747 -0.9475561 -0.3195324 0.006037074 -0.9995046 -0.02967029 0.01049827 -0.928951 0.368013 0.04020584 -0.7696198 0.6383051 0.01587814 0.7622975 0.6421049 0.08126353 0.935549 0.348693 0.05622504 0.7775077 -0.6288666 0.002953203 -0.7522436 -0.6506876 0.1036113 0.970653 0.1840303 -0.154808 0.886371 0.4177086 -0.1996646 0.5108804 0.8493 -0.1330061 0.2259267 0.9670129 -0.1176568 -0.2338164 0.9685963 -0.08456402 -0.5525153 0.8321925 -0.0467162 -0.8803579 0.4638232 -0.09918708 -0.9909837 0.130543 0.03016382 -0.9897099 -0.1278686 -0.06421755 -0.8760842 -0.4695142 -0.1096947 -0.5645704 -0.8253722 -0.00457467 -0.2614754 -0.9647148 -0.03091707 0.242561 -0.9631079 -0.1165643 0.5856004 -0.7907363 -0.1783487 0.8909292 -0.4201474 -0.1723988 0.9729369 -0.1920707 -0.1284623 0.9819094 0.1804535 0.05736263 0.8937581 0.4347017 -0.1105932 0.5158406 0.854843 -0.05614452 0.2396214 0.9708556 -0.004584712 -0.240363 0.9705985 -0.01280846 -0.5524207 0.8329734 -0.03141058 -0.8586223 0.4874736 -0.1585475 -0.9876581 0.1457637 0.05730871 -0.9931892 -0.1093827 -0.04013385 -0.8393794 -0.4897726 -0.2357223 -0.5292462 -0.846867 -0.05210376 -0.2626525 -0.9636992 -0.04793211 0.2202767 -0.9682209 -0.1184331 0.5651852 -0.8118975 -0.1462464 0.9022515 -0.4308785 0.01690867 0.9791026 -0.1784016 0.09762654 0.9279265 -0.3688583 -0.05381401 0.537241 -0.8411265 -0.06227588 0.2169642 -0.9722932 -0.08701899 -0.2524526 -0.9608161 -0.1144549 -0.5617614 -0.8232692 -0.08156052 -0.8641722 -0.5030335 0.01279792 -0.9959368 -0.08809433 0.01868542 -0.9970672 0.07647875 -0.002836056 -0.856943 0.5140486 0.03745354 -0.5499285 0.8331997 0.05793852 -0.2352136 0.9696132 0.0672674 0.2265059 0.9713801 0.07152604 0.4895853 0.8692771 0.06828982 0.905188 0.4191756 0.07018973 0.9892107 0.1280909 0.07109857 0.9907347 -0.1324515 0.03002434 0.9056114 -0.4229636 0.03113892 0.5866095 -0.8097206 0.01555354 0.2596067 -0.9656951 0.006109624 -0.2547887 -0.966908 0.01309695 -0.5949609 -0.8037264 -0.006745275 -0.8801965 -0.4739259 0.02546685 -0.9866744 -0.1582416 0.03785922 -0.9909129 0.1343794 0.005806033 -0.868668 0.4909295 0.06636472 -0.5487007 0.8359944 -0.006391949 -0.2361875 0.971617 -0.0132554 0.2142913 0.9762615 -0.03150561 0.5047689 0.8620654 -0.04529347 0.8793881 0.4748086 -0.03512003 0.9888584 0.1200475 -0.08802025 0.9820865 -0.1751436 -0.06950297 0.8953617 -0.4449539 -0.01853233 0.6014914 -0.7985969 -0.02123528 0.2579216 -0.9661313 -0.008182762 -0.2497053 -0.9681736 0.01694594 -0.5723685 -0.819394 0.03142959 -0.8967777 -0.4394068 0.05206904 -0.9822882 -0.1759262 0.06449776 -0.9864631 0.1472905 0.07208367 -0.8784793 0.4772176 0.0231831 -0.5573886 0.8296324 -0.03206364 -0.2314117 0.9713922 -0.05334618 0.2100048 0.9754184 -0.06676049 0.5159518 0.854516 -0.05996827 0.8828559 0.4682739 -0.03584562 0.9876109 0.1552419 -0.02290152 0.9766542 -0.2038668 -0.06771181 0.922874 -0.3841681 -0.02680288 0.5507639 -0.8308908 -0.07924353 0.2441526 -0.9609316 -0.1303838 -0.2541165 -0.9567111 -0.1418761 -0.601095 -0.7922603 -0.1049205 -0.8640866 -0.5015417 -0.04254762 -0.9920456 -0.1201548 -0.03752915 -0.992024 0.09632588 -0.08130027 -0.8649402 0.500579 0.03604273 -0.5447975 0.8378711 0.0341693 -0.2404419 0.9695289 0.04692096 0.2252218 0.9732873 0.04457469 0.4957945 0.867637 0.03733423 0.8990318 0.4363975 -0.03604438 0.9906584 0.1166675 -0.07060231 0.9901522 -0.1348647 -0.03755192 0.9152249 -0.4016195 -0.032637 0.5558452 -0.8269449 -0.08484244 0.2123429 -0.9756311 -0.05526864 -0.2595052 -0.9652486 -0.03085558 -0.531854 -0.8465937 -0.02026194 -0.8614805 -0.5051196 -0.05201492 -0.9951134 -0.08985861 0.04092387 -0.992021 0.1120647 0.05775496 -0.8616558 0.5060152 -0.0387007 -0.5523275 0.8335002 -0.01455054 -0.236015 0.9716061 -0.01668778 0.2335476 0.9721697 -0.01848203 0.50232 0.8638011 -0.03901539 0.9025307 0.4305292 -0.009108119 0.9848624 0.1587254 0.06965814 0.9854473 -0.1619513 0.0516266 -0.9988022 -0.04704316 0.01345977 -0.9937527 -0.08415174 0.0733077 -0.9970998 -0.07569794 0.007876495 -0.9974 -0.01828971 -0.06970352 -0.9992744 0.03775017 0.005063314 -0.9960274 0.04215553 0.07843724 -0.9967677 0.03257396 0.07343757 -0.9565947 -0.2650993 -0.1210322 -0.9586267 -0.2787385 0.05778934 -0.9583586 -0.2801498 0.05536186 -0.9614912 -0.2726012 -0.03497416 -0.9659336 -0.25753 0.02550662 -0.962446 -0.271004 -0.01595536 -0.9394321 -0.2878871 -0.1859795 0.9220234 -0.3589965 -0.144895 0.9369365 -0.3470306 -0.04146926 0.9599121 -0.2797223 -0.01800413 0.9716496 -0.2341556 -0.03268194 0.9644028 -0.2640412 -0.01447125 0.9474371 -0.3194712 0.01734519 0.9367584 -0.3413093 0.07740644 0.9902276 0.02972924 -0.1362551 0.9980308 0.02089918 -0.05914125 0.9957933 0.002928821 -0.09158081 0.9979892 0.03201779 -0.05470253 0.9969585 0.04535394 0.06337706 0.996838 0.01076091 0.0787285 0.995421 -0.01067269 0.09499029 0.9459584 0.2768655 -0.1688441 0.9523129 0.3050142 -0.008142852 0.955411 0.287346 -0.06798626 0.9628581 0.26256 -0.062979 0.9599167 0.271763 0.06859079 0.9547151 0.2960694 0.02936302 0.9504641 0.3107855 -0.005490419 0.7178908 0.6711113 -0.1850469 0.7535706 0.6549919 -0.05583053 0.7447901 0.6665149 -0.03233741 0.7459168 0.6659849 0.008495413 0.7421477 0.6665793 0.06992054 0.7254475 0.6868317 -0.04458752 0.7143258 0.684182 -0.1470833 -0.7607069 0.6454984 -0.0682409 -0.7832707 0.6216475 -0.006421943 -0.7510667 0.6594508 0.03198987 -0.7123592 0.7009785 0.03425434 -0.6963836 0.7159164 0.05013354 -0.7050583 0.7087184 -0.02472081 -0.7123079 0.6937287 -0.1065738 -0.9419505 0.3326809 -0.04530806 -0.9193582 0.39018 0.05039912 -0.928813 0.3681866 0.04177428 -0.9581884 0.2856195 -0.01721537 -0.9723423 0.2331671 0.01354344 -0.9680634 0.2506195 -0.006569565 -0.9595233 0.2724658 -0.07125622 -0.7311757 -0.6802346 -0.05160422 -0.7564738 -0.6527298 0.04112297 -0.747461 -0.6641151 -0.01591657 -0.7228177 -0.6876695 -0.06815635 -0.6857508 -0.7273876 -0.02555985 -0.6834964 -0.7289678 -0.03792845 -0.6954381 -0.7002817 -0.1611558 0.7980848 -0.5694662 -0.1968984 0.8008556 -0.5985016 -0.02064436 0.7857227 -0.6173657 0.03872146 0.7733046 -0.6329827 -0.03650747 0.7837021 -0.6177596 -0.06468596 0.7965266 -0.5989355 -0.08259293 0.7948707 -0.5997092 -0.09235432 0.9285131 -0.3690822 -0.04051992 0.5389234 -0.8420684 0.02196338 0.2174489 -0.9758963 0.01850327 -0.2541555 -0.9671561 -0.003765031 -0.5641908 -0.8254201 0.01924635 -0.8619779 -0.5008057 0.07866223 -0.9955122 -0.08831607 0.0339973 -0.997075 0.07590099 -0.008971189 -0.8575619 0.5142009 -0.01360416 -0.5511819 0.8339565 -0.02673616 -0.2355072 0.9713173 -0.03284788 0.2274142 0.9731123 -0.03653902 0.4910641 0.8703784 -0.03602031 0.9074656 0.4201261 -3.47828e-4 0.9913481 0.1278924 0.0295362 0.9911063 -0.1322453 0.01481438 0.8833538 -0.4205132 0.2070137 0.5658153 -0.797788 0.2082971 0.2500915 -0.9496747 0.1886059 -0.2500445 -0.9582233 0.1388731 -0.5864089 -0.8084135 0.05091491 -0.8766177 -0.4811718 0.003870654 -0.9864153 -0.1615729 -0.02965286 -0.9884755 0.1367946 -0.06483306 -0.865728 0.499432 0.03290468 -0.5404707 0.8405761 0.03637843 -0.2320989 0.9688835 0.0859933 0.2095268 0.9704533 0.1196617 0.4936866 0.8611603 0.1211461 0.8688655 0.4775347 0.1305119 0.990189 0.1229801 0.06634462 0.9797998 -0.1780553 0.09104223 0.8811949 -0.4641849 0.08959866 0.58057 -0.8068026 0.1095818 0.2455678 -0.9633702 0.1077702 -0.2402665 -0.9669981 0.08477456 -0.5487373 -0.8349696 0.04138901 -0.8952174 -0.4456066 0.004540882 -0.9805572 -0.1938338 -0.03059337 -0.9857886 0.1667671 0.0202364 -0.8670199 0.4982576 -0.003987682 -0.5513678 0.8341981 0.01034466 -0.2290677 0.9732612 0.01704558 0.2067653 0.9776011 0.03929646 0.5108339 0.8567352 0.07108828 0.8654754 0.4887064 0.1100834 0.9850409 0.1534309 0.07844359 0.9765048 -0.2089369 0.05276256 0.918189 -0.3830009 0.1011892 0.5462402 -0.8298082 0.1141926 0.2433303 -0.9667413 0.07875007 -0.2558893 -0.9649286 0.05859626 -0.6011226 -0.7968387 0.060826 -0.8612077 -0.5021366 0.07861344 -0.9923235 -0.1205647 0.02753574 -0.9946679 0.09679734 -0.0355813 -0.8633661 0.5019823 0.05111606 -0.5426854 0.8390976 0.03752086 -0.2397761 0.9695193 0.05039513 0.2247885 0.9729023 0.05414084 0.4928934 0.8684296 0.05372308 0.8992512 0.4373291 0.009515436 0.9930589 0.1175633 -0.003616705 0.9891373 -0.1349415 0.05829513 0.9121081 -0.3851424 -0.1404424 0.5644729 -0.8198128 -0.09631838 0.2177044 -0.9756553 -0.02648658 -0.2646447 -0.9643244 0.006449487 -0.546697 -0.8370265 -0.02256236 -0.8561707 -0.5031403 -0.1175653 -0.9924223 -0.07729794 -0.09551401 -0.9950657 0.09648029 -0.02314653 -0.863661 0.490954 -0.1142542 -0.5503743 0.8340513 -0.03803318 -0.2341784 0.9709228 -0.04969323 0.232909 0.9702457 -0.06615739 0.4972517 0.8624437 -0.0945081 0.9052856 0.4138208 -0.09597086 0.9835151 0.1616573 -0.08102433 0.9849259 -0.1616036 -0.06168693 -0.9980048 -0.06183141 -0.0127827 -0.9949214 -0.07673772 -0.06513719 -0.9996549 -0.01789277 -0.01923428 -0.9992802 0.0376985 0.004226224 -0.9989302 0.01761614 -0.04275621 -0.9523352 -0.3048926 -0.009910841 -0.9582596 -0.2858736 0.003871716 -0.9604431 -0.2733082 0.05340109 -0.9644145 -0.2570681 0.06181162 -0.9611133 -0.2512438 -0.1146197 0.9348019 -0.3487036 0.06746344 0.9478769 -0.2818539 0.1486191 0.9691542 -0.2344562 0.07596426 0.9644423 -0.2637942 -0.01623681 0.9415722 -0.3224092 -0.09743749 0.9983577 0.005668646 0.05700639 0.9978683 0.003344537 0.06517385 0.9992582 0.03247883 0.02069106 0.9985476 0.04560915 0.02867888 0.9983134 0.02567754 -0.05206673 0.9363168 0.3333446 0.1104177 0.9522132 0.2910456 0.09264219 0.9645836 0.2637093 -0.006006832 0.9621307 0.2723044 0.01244672 0.957205 0.2711404 -0.1012006 0.7518665 0.6525071 0.09450619 0.7313478 0.6674429 0.1401794 0.7431833 0.6677912 0.04163651 0.7439561 0.6679035 -0.0208385 0.7151726 0.6906839 -0.1071625 -0.768297 0.6400935 0 -0.7441388 0.6672908 0.03131056 -0.7099749 0.7031857 0.03828083 -0.6974834 0.7162553 -0.02225534 -0.7133448 0.6979227 -0.06358484 -0.9198452 0.3919647 0.01576762 -0.9271796 0.3744374 -0.01160301 -0.958001 0.2861037 0.01946697 -0.9724607 0.2328729 -0.009512734 -0.9624677 0.2565041 -0.08866617 -0.7502735 -0.6610231 0.01175756 -0.7408997 -0.6716132 0.001850769 -0.7200522 -0.689292 0.08000733 -0.6850105 -0.7255691 0.06565119 -0.6821163 -0.7267638 -0.08081954 0.777195 -0.6206633 0.1036581 0.7600351 -0.609543 0.2253971 0.7659134 -0.6301054 0.1278431 0.7855931 -0.6185666 -0.01479326 0.8021885 -0.5784767 -0.1478451</float_array>
          <technique_common>
            <accessor source="#straightShape-normals-array" count="338" stride="3">
              <param name="X" type="float"/>
              <param name="Y" type="float"/>
              <param name="Z" type="float"/>
            </accessor>
          </technique_common>
        </source>
        <source id="straightShape-map1" name="straightShape-map1">
          <float_array id="straightShape-map1-array" count="702">-0.002305453 0.9891555 -0.1790929 0.9891555 -0.1800662 0.8463284 -0.002305453 0.8463284 -0.002305453 0.7064097 -0.1838552 0.7064097 -0.1838552 0.5688393 -0.002305453 0.5688393 -0.002305453 0.4398753 -0.1838552 0.4398753 -0.1838552 0.2137207 -0.002305453 0.2137207 -0.1838552 0 -0.002305453 0 -0.002305453 4 -0.1838552 4 -0.1838552 3.779771 -0.002305453 3.779771 -0.1838552 3.662815 -0.002305453 3.662815 -0.002305453 3.53635 -0.1838552 3.53635 -0.1838552 3.403498 -0.002305453 3.403498 -0.002305453 3.268125 -0.1838552 3.268125 -0.1838552 3.134758 -0.002305453 3.134758 -0.002305453 3.00051 -0.1838552 3.00051 -0.1838552 2.864405 -0.002305453 2.864405 -0.002305453 2.731916 -0.1838552 2.731916 -0.1838552 2.595197 -0.002305453 2.595197 -0.002305453 2.469794 -0.1838552 2.469794 -0.1838552 2.239013 -0.002305453 2.239013 -0.1838552 2.012795 -0.002305453 2.012795 -0.1838552 1.781358 -0.002305453 1.781358 -0.1827324 1.656847 -0.002305453 1.656847 -0.002305453 1.530265 -0.1821655 1.530265 -0.1803426 1.404146 -0.002305453 1.404146 -0.002305453 1.274119 -0.1772 1.274119 -0.1768811 1.133974 -0.002305453 1.133974 -0.7033268 1.781358 -0.8773172 1.781358 -0.8773172 1.656847 -0.7033268 1.656847 -0.7033268 2.012795 -0.8773172 2.012795 -0.7033268 2.239013 -0.8773172 2.239013 -0.7033268 2.469794 -0.8773172 2.469794 -0.7033268 2.731916 -0.8773172 2.731916 -0.8773172 2.595197 -0.7033268 2.595197 -0.7033268 3.00051 -0.8773172 3.00051 -0.8773172 2.864405 -0.7033268 2.864405 -0.7033268 3.268125 -0.8773172 3.268125 -0.8773172 3.134758 -0.7033268 3.134758 -0.7033268 3.53635 -0.8773172 3.53635 -0.8773172 3.403498 -0.7033268 3.403498 -0.7033268 3.779771 -0.8773172 3.779771 -0.8773172 3.662815 -0.7033268 3.662815 -0.7033268 4 -0.8773172 4 -0.7033268 0.2137207 -0.8773172 0.2137207 -0.8773172 0 -0.7033268 0 -0.7033268 0.4398753 -0.8773172 0.4398753 -0.7033268 0.7064097 -0.8773172 0.7064097 -0.8773172 0.5688393 -0.7033268 0.5688393 -0.7033268 0.9891555 -0.8773172 0.9891555 -0.8773172 0.8463284 -0.7033268 0.8463284 -0.7033268 1.274119 -0.8773172 1.274119 -0.8773172 1.133974 -0.7033268 1.133974 -0.7033268 1.530265 -0.8773172 1.530265 -0.8773172 1.404146 -0.7033268 1.404146 -0.3521655 1.781358 -0.5288484 1.781358 -0.5288484 1.656847 -0.3521655 1.656847 -0.3521655 2.012795 -0.5288484 2.012795 -0.3521655 2.239013 -0.5288484 2.239013 -0.3521655 2.469794 -0.5288484 2.469794 -0.3521655 2.731916 -0.5288484 2.731916 -0.5288484 2.595197 -0.3521655 2.595197 -0.3521655 3.00051 -0.5288484 3.00051 -0.5288484 2.864405 -0.3521655 2.864405 -0.3521655 3.268125 -0.5288484 3.268125 -0.5288484 3.134758 -0.3521655 3.134758 -0.3521655 3.53635 -0.5288484 3.53635 -0.5288484 3.403498 -0.3521655 3.403498 -0.3521655 3.779771 -0.5288484 3.779771 -0.5288484 3.662815 -0.3521655 3.662815 -0.3521655 4 -0.5288484 4 -0.3521655 0.2137207 -0.5288484 0.2137207 -0.5288484 0 -0.3521655 0 -0.3521655 0.4398753 -0.5288484 0.4398753 -0.3521655 0.7064097 -0.5288484 0.7064097 -0.5288484 0.5688393 -0.3521655 0.5688393 -0.3521655 0.9891555 -0.5288484 0.9891555 -0.5288484 0.8463284 -0.3521655 0.8463284 -0.3521655 1.274119 -0.5288484 1.274119 -0.5288484 1.133974 -0.3521655 1.133974 -0.3521655 1.530265 -0.5288484 1.530265 -0.5288484 1.404146 -0.3521655 1.404146 -1 1.781358 -1 1.656847 -1 2.012795 -1 2.239013 -1 2.469794 -1 2.731916 -1 2.595197 -1 3.00051 -1 2.864405 -1 3.268125 -1 3.134758 -1 3.53635 -1 3.403498 -1 3.779771 -1 3.662815 -1 4 -1 0.2137207 -1 0 -1 0.4398753 -1 0.7064097 -1 0.5688393 -1 0.9891555 -1 0.8463284 -1 1.274119 -1 1.133974 -1 1.530265 -1 1.404146 1 0.9891555 0.8210919 0.9891555 0.8210919 0.8463284 1 0.8463284 1 0.7064097 0.8210919 0.7064097 0.8210919 0.5688393 1 0.5688393 1 0.4398753 0.8210919 0.4398753 0.8210919 0.2137207 1 0.2137207 0.8210919 0 1 0 1 4 0.8210919 4 0.8210919 3.779771 1 3.779771 0.8210919 3.662815 1 3.662815 1 3.53635 0.8210919 3.53635 0.8210919 3.403498 1 3.403498 1 3.268125 0.8210919 3.268125 0.8210919 3.134758 1 3.134758 1 3.00051 0.8210919 3.00051 0.8210919 2.864405 1 2.864405 1 2.731916 0.8210919 2.731916 0.8210919 2.595197 1 2.595197 1 2.469794 0.8210919 2.469794 0.8210919 2.239013 1 2.239013 0.8210919 2.012795 1 2.012795 0.8210919 1.781358 1 1.781358 0.8210919 1.656847 1 1.656847 1 1.530265 0.8210919 1.530265 0.8210919 1.404146 1 1.404146 1 1.274119 0.8210919 1.274119 0.8210919 1.133974 1 1.133974 0.2957362 1.781358 0.1211359 1.781358 0.1211359 1.656847 0.2957362 1.656847 0.2957362 2.012795 0.1211359 2.012795 0.2957362 2.239013 0.1211359 2.239013 0.2957362 2.469794 0.1211359 2.469794 0.2957362 2.731916 0.1211359 2.731916 0.1211359 2.595197 0.2957362 2.595197 0.2957362 3.00051 0.1211359 3.00051 0.1211359 2.864405 0.2957362 2.864405 0.2957362 3.268125 0.1211359 3.268125 0.1211359 3.134758 0.2957362 3.134758 0.2957362 3.53635 0.1211359 3.53635 0.1211359 3.403498 0.2957362 3.403498 0.2957362 3.779771 0.1211359 3.779771 0.1211359 3.662815 0.2957362 3.662815 0.2957362 4 0.1211359 4 0.2957362 0.2137207 0.1211359 0.2137207 0.1211359 0 0.2957362 0 0.2957362 0.4398753 0.1211359 0.4398753 0.2957362 0.7064097 0.1211359 0.7064097 0.1211359 0.5688393 0.2957362 0.5688393 0.2957362 0.9891555 0.1211359 0.9891555 0.1211359 0.8463284 0.2957362 0.8463284 0.2957362 1.274119 0.1211359 1.274119 0.1211359 1.133974 0.2957362 1.133974 0.2957362 1.530265 0.1211359 1.530265 0.1211359 1.404146 0.2957362 1.404146 0.6451902 1.781358 0.470325 1.781358 0.470325 1.656847 0.6451902 1.656847 0.6451902 2.012795 0.470325 2.012795 0.6451902 2.239013 0.470325 2.239013 0.6451902 2.469794 0.470325 2.469794 0.6451902 2.731916 0.470325 2.731916 0.470325 2.595197 0.6451902 2.595197 0.6451902 3.00051 0.470325 3.00051 0.470325 2.864405 0.6451902 2.864405 0.6451902 3.268125 0.470325 3.268125 0.470325 3.134758 0.6451902 3.134758 0.6451902 3.53635 0.470325 3.53635 0.470325 3.403498 0.6451902 3.403498 0.6451902 3.779771 0.470325 3.779771 0.470325 3.662815 0.6451902 3.662815 0.6451902 4 0.470325 4 0.6451902 0.2137207 0.470325 0.2137207 0.470325 0 0.6451902 0 0.6451902 0.4398753 0.470325 0.4398753 0.6451902 0.7064097 0.470325 0.7064097 0.470325 0.5688393 0.6451902 0.5688393 0.6451902 0.9891555 0.470325 0.9891555 0.470325 0.8463284 0.6451902 0.8463284 0.6451902 1.274119 0.470325 1.274119 0.470325 1.133974 0.6451902 1.133974 0.6451902 1.530265 0.470325 1.530265 0.470325 1.404146 0.6451902 1.404146</float_array>
          <technique_common>
            <accessor source="#straightShape-map1-array" count="351" stride="2">
              <param name="S" type="float"/>
              <param name="T" type="float"/>
            </accessor>
          </technique_common>
        </source>
        <vertices id="straightShape-vertices" name="straightShape-vertices">
          <input semantic="POSITION" source="#straightShape-positions"/>
          <input semantic="NORMAL" source="#straightShape-normals"/>
        </vertices>
        <triangles material="blinn1SG" count="624">
          <input semantic="VERTEX" source="#straightShape-vertices" offset="0"/>
          <input semantic="TEXCOORD" source="#straightShape-map1" offset="1" set="0"/>
          <p>104 1 167 2 26 0 26 0 167 2 166 3 27 4 103 5 173 7 173 7 103 5 174 6 28 8 102 9 29 11 29 11 102 9 101 10 29 11 101 10 30 13 30 13 101 10 100 12 30 14 100 15 31 17 31 17 100 15 99 16 31 17 99 16 180 19 180 19 99 16 181 18 32 20 98 21 187 23 187 23 98 21 188 22 33 24 97 25 138 27 138 27 97 25 139 26 96 29 146 30 34 28 34 28 146 30 145 31 95 33 195 34 35 32 35 32 195 34 194 35 94 37 93 38 36 36 36 36 93 38 37 39 93 38 92 40 37 39 37 39 92 40 38 41 92 40 91 42 38 41 38 41 91 42 39 43 91 42 202 44 39 43 39 43 202 44 201 45 90 47 153 48 40 46 40 46 153 48 152 49 105 51 160 52 41 50 41 50 160 52 159 53 59 54 123 55 205 57 205 57 123 55 206 56 60 58 124 59 59 54 59 54 124 59 123 55 61 60 125 61 60 58 60 58 125 61 124 59 126 63 125 61 62 62 62 62 125 61 61 60 127 65 199 66 63 64 63 64 199 66 198 67 128 69 150 70 64 68 64 68 150 70 149 71 129 73 143 74 65 72 65 72 143 74 142 75 66 76 130 77 191 79 191 79 130 77 192 78 67 80 131 81 184 83 184 83 131 81 185 82 68 84 132 85 67 80 67 80 132 85 131 81 69 86 133 87 68 89 68 89 133 87 132 88 134 91 133 87 70 90 70 90 133 87 69 86 135 93 178 94 71 92 71 92 178 94 177 95 136 97 171 98 72 96 72 96 171 98 170 99 73 100 137 101 163 103 163 103 137 101 164 102 58 104 122 105 156 107 156 107 122 105 157 106 107 109 204 110 75 108 75 108 204 110 203 111 108 113 107 109 76 112 76 112 107 109 75 108 109 115 108 113 77 114 77 114 108 113 76 112 110 117 109 115 78 116 78 116 109 115 77 114 111 119 197 120 79 118 79 118 197 120 196 121 112 123 148 124 80 122 80 122 148 124 147 125 81 126 113 127 140 129 140 129 113 127 141 128 82 130 114 131 189 133 189 133 114 131 190 132 83 134 115 135 182 137 182 137 115 135 183 136 84 138 116 139 83 134 83 134 116 139 115 135 85 140 117 141 84 143 84 143 117 141 116 142 86 144 118 145 85 140 85 140 118 145 117 141 87 146 119 147 175 149 175 149 119 147 176 148 120 151 169 152 88 150 88 150 169 152 168 153 121 155 162 156 89 154 89 154 162 156 161 157 74 158 106 159 154 161 154 161 106 159 155 160 91 42 75 108 202 44 202 44 75 108 203 111 92 40 76 112 91 42 91 42 76 112 75 108 77 114 76 112 93 38 93 38 76 112 92 40 94 37 78 116 93 38 93 38 78 116 77 114 79 118 196 121 95 33 95 33 196 121 195 34 96 29 80 122 146 30 146 30 80 122 147 125 97 25 81 126 139 26 139 26 81 126 140 129 98 21 82 130 188 22 188 22 82 130 189 133 99 16 83 134 181 18 181 18 83 134 182 137 100 15 84 138 99 16 99 16 84 138 83 134 85 140 84 143 101 10 101 10 84 143 100 12 86 144 85 140 102 9 102 9 85 140 101 10 87 146 175 149 103 5 103 5 175 149 174 6 88 150 168 153 104 1 104 1 168 153 167 2 89 154 161 157 105 51 105 51 161 157 160 52 90 47 74 158 153 48 153 48 74 158 154 161 107 109 59 54 204 110 204 110 59 54 205 57 108 113 60 58 107 109 107 109 60 58 59 54 109 115 61 60 108 113 108 113 61 60 60 58 62 62 61 60 110 117 110 117 61 60 109 115 63 64 198 67 111 119 111 119 198 67 197 120 64 68 149 71 112 123 112 123 149 71 148 124 65 72 142 75 113 127 113 127 142 75 141 128 66 76 191 79 114 131 114 131 191 79 190 132 67 80 184 83 115 135 115 135 184 83 183 136 68 84 67 80 116 139 116 139 67 80 115 135 69 86 68 89 117 141 117 141 68 89 116 142 118 145 70 90 117 141 117 141 70 90 69 86 119 147 71 92 176 148 176 148 71 92 177 95 120 151 72 96 169 152 169 152 72 96 170 99 121 155 73 100 162 156 162 156 73 100 163 103 106 159 58 104 155 160 155 160 58 104 156 107 123 55 55 162 206 56 206 56 55 162 207 163 124 59 54 164 123 55 123 55 54 164 55 162 53 165 54 164 125 61 125 61 54 164 124 59 52 166 53 165 126 63 126 63 53 165 125 61 51 167 200 168 127 65 127 65 200 168 199 66 50 169 151 170 128 69 128 69 151 170 150 70 129 73 49 171 143 74 143 74 49 171 144 172 130 77 48 173 192 78 192 78 48 173 193 174 131 81 47 175 185 82 185 82 47 175 186 176 132 85 46 177 131 81 131 81 46 177 47 175 45 178 46 179 133 87 133 87 46 179 132 88 44 180 45 178 134 91 134 91 45 178 133 87 43 181 179 182 135 93 135 93 179 182 178 94 42 183 172 184 136 97 136 97 172 184 171 98 57 185 165 186 137 101 137 101 165 186 164 102 122 105 56 187 157 106 157 106 56 187 158 188 138 27 139 26 34 28 34 28 139 26 96 29 80 122 96 29 140 129 140 129 96 29 139 26 141 128 112 123 140 129 140 129 112 123 80 122 142 75 64 68 141 128 141 128 64 68 112 123 143 74 128 69 142 75 142 75 128 69 64 68 50 169 128 69 144 172 144 172 128 69 143 74 146 30 95 33 145 31 145 31 95 33 35 32 147 125 79 118 146 30 146 30 79 118 95 33 148 124 111 119 147 125 147 125 111 119 79 118 149 71 63 64 148 124 148 124 63 64 111 119 150 70 127 65 149 71 149 71 127 65 63 64 151 170 51 167 150 70 150 70 51 167 127 65 153 48 105 51 152 49 152 49 105 51 41 50 154 161 89 154 153 48 153 48 89 154 105 51 121 155 89 154 155 160 155 160 89 154 154 161 73 100 121 155 156 107 156 107 121 155 155 160 137 101 73 100 157 106 157 106 73 100 156 107 57 185 137 101 158 188 158 188 137 101 157 106 160 52 104 1 159 53 159 53 104 1 26 0 161 157 88 150 160 52 160 52 88 150 104 1 120 151 88 150 162 156 162 156 88 150 161 157 72 96 120 151 163 103 163 103 120 151 162 156 136 97 72 96 164 102 164 102 72 96 163 103 165 186 42 183 164 102 164 102 42 183 136 97 166 3 167 2 27 4 27 4 167 2 103 5 168 153 87 146 167 2 167 2 87 146 103 5 119 147 87 146 169 152 169 152 87 146 168 153 71 92 119 147 170 99 170 99 119 147 169 152 135 93 71 92 171 98 171 98 71 92 170 99 172 184 43 181 171 98 171 98 43 181 135 93 173 7 174 6 28 8 28 8 174 6 102 9 175 149 86 144 174 6 174 6 86 144 102 9 118 145 86 144 176 148 176 148 86 144 175 149 70 90 118 145 177 95 177 95 118 145 176 148 178 94 134 91 177 95 177 95 134 91 70 90 179 182 44 180 178 94 178 94 44 180 134 91 180 19 181 18 32 20 32 20 181 18 98 21 82 130 98 21 182 137 182 137 98 21 181 18 114 131 82 130 183 136 183 136 82 130 182 137 184 83 66 76 183 136 183 136 66 76 114 131 130 77 66 76 185 82 185 82 66 76 184 83 48 173 130 77 186 176 186 176 130 77 185 82 187 23 188 22 33 24 33 24 188 22 97 25 81 126 97 25 189 133 189 133 97 25 188 22 113 127 81 126 190 132 190 132 81 126 189 133 191 79 65 72 190 132 190 132 65 72 113 127 129 73 65 72 192 78 192 78 65 72 191 79 49 171 129 73 193 174 193 174 129 73 192 78 195 34 94 37 194 35 194 35 94 37 36 36 78 116 94 37 196 121 196 121 94 37 195 34 197 120 110 117 196 121 196 121 110 117 78 116 198 67 62 62 197 120 197 120 62 62 110 117 199 66 126 63 198 67 198 67 126 63 62 62 200 168 52 166 199 66 199 66 52 166 126 63 202 44 90 47 201 45 201 45 90 47 40 46 74 158 90 47 203 111 203 111 90 47 202 44 204 110 106 159 203 111 203 111 106 159 74 158 58 104 106 159 205 57 205 57 106 159 204 110 122 105 58 104 206 56 206 56 58 104 205 57 56 187 122 105 207 163 207 163 122 105 206 56 7 189 254 190 23 192 23 192 254 190 308 191 6 193 253 194 22 196 22 196 253 194 313 195 5 197 252 198 4 200 4 200 252 198 251 199 4 200 251 199 3 202 3 202 251 199 250 201 3 203 250 204 2 206 2 206 250 204 249 205 249 205 318 207 2 206 2 206 318 207 21 208 248 210 323 211 1 209 1 209 323 211 20 212 0 213 247 214 19 216 19 216 247 214 288 215 15 217 246 218 18 220 18 220 246 218 293 219 14 221 245 222 25 224 25 224 245 222 328 223 13 225 244 226 12 228 12 228 244 226 243 227 243 227 242 229 12 228 12 228 242 229 11 230 242 229 241 231 11 230 11 230 241 231 10 232 241 231 333 233 10 232 10 232 333 233 24 234 240 236 298 237 9 235 9 235 298 237 17 238 8 239 255 240 16 242 16 242 255 240 303 241 209 243 273 244 336 246 336 246 273 244 337 245 210 247 274 248 209 243 209 243 274 248 273 244 211 249 275 250 210 247 210 247 275 250 274 248 212 251 276 252 211 249 211 249 276 252 275 250 213 253 277 254 331 256 331 256 277 254 332 255 214 257 278 258 296 260 296 260 278 258 297 259 215 261 279 262 291 264 291 264 279 262 292 263 216 265 280 266 326 268 326 268 280 266 327 267 281 270 322 271 217 269 217 269 322 271 321 272 282 274 281 270 218 273 218 273 281 270 217 269 283 276 282 277 219 275 219 275 282 277 218 278 284 280 283 276 220 279 220 279 283 276 219 275 285 282 317 283 221 281 221 281 317 283 316 284 286 286 312 287 222 285 222 285 312 287 311 288 287 290 307 291 223 289 223 289 307 291 306 292 272 294 302 295 208 293 208 293 302 295 301 296 257 298 335 299 225 297 225 297 335 299 334 300 226 301 258 302 225 297 225 297 258 302 257 298 227 303 259 304 226 301 226 301 259 304 258 302 228 305 260 306 227 303 227 303 260 306 259 304 229 307 261 308 329 310 329 310 261 308 330 309 230 311 262 312 294 314 294 314 262 312 295 313 231 315 263 316 289 318 289 318 263 316 290 317 264 320 325 321 232 319 232 319 325 321 324 322 265 324 320 325 233 323 233 323 320 325 319 326 266 328 265 324 234 327 234 327 265 324 233 323 267 330 266 331 235 329 235 329 266 331 234 332 268 334 267 330 236 333 236 333 267 330 235 329 237 335 269 336 314 338 314 338 269 336 315 337 270 340 310 341 238 339 238 339 310 341 309 342 271 344 305 345 239 343 239 343 305 345 304 346 256 348 300 349 224 347 224 347 300 349 299 350 241 231 225 297 333 233 333 233 225 297 334 300 242 229 226 301 241 231 241 231 226 301 225 297 243 227 227 303 242 229 242 229 227 303 226 301 244 226 228 305 243 227 243 227 228 305 227 303 245 222 229 307 328 223 328 223 229 307 329 310 246 218 230 311 293 219 293 219 230 311 294 314 231 315 289 318 247 214 247 214 289 318 288 215 232 319 324 322 248 210 248 210 324 322 323 211 233 323 319 326 249 205 249 205 319 326 318 207 234 327 233 323 250 204 250 204 233 323 249 205 235 329 234 332 251 199 251 199 234 332 250 201 236 333 235 329 252 198 252 198 235 329 251 199 237 335 314 338 253 194 253 194 314 338 313 195 238 339 309 342 254 190 254 190 309 342 308 191 255 240 239 343 303 241 303 241 239 343 304 346 240 236 224 347 298 237 298 237 224 347 299 350 209 243 336 246 257 298 257 298 336 246 335 299 210 247 209 243 258 302 258 302 209 243 257 298 211 249 210 247 259 304 259 304 210 247 258 302 212 251 211 249 260 306 260 306 211 249 259 304 261 308 213 253 330 309 330 309 213 253 331 256 262 312 214 257 295 313 295 313 214 257 296 260 263 316 215 261 290 317 290 317 215 261 291 264 264 320 216 265 325 321 325 321 216 265 326 268 265 324 217 269 320 325 320 325 217 269 321 272 266 328 218 273 265 324 265 324 218 273 217 269 267 330 219 275 266 331 266 331 219 275 218 278 268 334 220 279 267 330 267 330 220 279 219 275 221 281 316 284 269 336 269 336 316 284 315 337 222 285 311 288 270 340 270 340 311 288 310 341 223 289 306 292 271 344 271 344 306 292 305 345 208 293 301 296 256 348 256 348 301 296 300 349 39 43 201 45 273 244 273 244 201 45 337 245 38 41 39 43 274 248 274 248 39 43 273 244 37 39 38 41 275 250 275 250 38 41 274 248 36 36 37 39 276 252 276 252 37 39 275 250 35 32 194 35 277 254 277 254 194 35 332 255 34 28 145 31 278 258 278 258 145 31 297 259 279 262 33 24 292 263 292 263 33 24 138 27 280 266 32 20 327 267 327 267 32 20 187 23 281 270 31 17 322 271 322 271 31 17 180 19 282 274 30 14 281 270 281 270 30 14 31 17 283 276 29 11 282 277 282 277 29 11 30 13 284 280 28 8 283 276 283 276 28 8 29 11 285 282 27 4 317 283 317 283 27 4 173 7 26 0 166 3 286 286 286 286 166 3 312 287 41 50 159 53 287 290 287 290 159 53 307 291 40 46 152 49 272 294 272 294 152 49 302 295 19 216 288 215 15 217 15 217 288 215 246 218 230 311 246 218 289 318 289 318 246 218 288 215 262 312 230 311 290 317 290 317 230 311 289 318 214 257 262 312 291 264 291 264 262 312 290 317 278 258 214 257 292 263 292 263 214 257 291 264 34 28 278 258 138 27 138 27 278 258 292 263 18 220 293 219 14 221 14 221 293 219 245 222 229 307 245 222 294 314 294 314 245 222 293 219 261 308 229 307 295 313 295 313 229 307 294 314 213 253 261 308 296 260 296 260 261 308 295 313 277 254 213 253 297 259 297 259 213 253 296 260 145 31 35 32 297 259 297 259 35 32 277 254 298 237 255 240 17 238 17 238 255 240 8 239 299 350 239 343 298 237 298 237 239 343 255 240 300 349 271 344 299 350 299 350 271 344 239 343 301 296 223 289 300 349 300 349 223 289 271 344 302 295 287 290 301 296 301 296 287 290 223 289 152 49 41 50 302 295 302 295 41 50 287 290 16 242 303 241 7 189 7 189 303 241 254 190 304 346 238 339 303 241 303 241 238 339 254 190 305 345 270 340 304 346 304 346 270 340 238 339 306 292 222 285 305 345 305 345 222 285 270 340 307 291 286 286 306 292 306 292 286 286 222 285 159 53 26 0 307 291 307 291 26 0 286 286 23 192 308 191 6 193 6 193 308 191 253 194 309 342 237 335 308 191 308 191 237 335 253 194 310 341 269 336 309 342 309 342 269 336 237 335 311 288 221 281 310 341 310 341 221 281 269 336 312 287 285 282 311 288 311 288 285 282 221 281 166 3 27 4 312 287 312 287 27 4 285 282 22 196 313 195 5 197 5 197 313 195 252 198 314 338 236 333 313 195 313 195 236 333 252 198 315 337 268 334 314 338 314 338 268 334 236 333 220 279 268 334 316 284 316 284 268 334 315 337 317 283 284 280 316 284 316 284 284 280 220 279 28 8 284 280 173 7 173 7 284 280 317 283 318 207 248 210 21 208 21 208 248 210 1 209 319 326 232 319 318 207 318 207 232 319 248 210 320 325 264 320 319 326 319 326 264 320 232 319 216 265 264 320 321 272 321 272 264 320 320 325 280 266 216 265 322 271 322 271 216 265 321 272 32 20 280 266 180 19 180 19 280 266 322 271 323 211 247 214 20 212 20 212 247 214 0 213 324 322 231 315 323 211 323 211 231 315 247 214 325 321 263 316 324 322 324 322 263 316 231 315 215 261 263 316 326 268 326 268 263 316 325 321 279 262 215 261 327 267 327 267 215 261 326 268 33 24 279 262 187 23 187 23 279 262 327 267 25 224 328 223 13 225 13 225 328 223 244 226 228 305 244 226 329 310 329 310 244 226 328 223 260 306 228 305 330 309 330 309 228 305 329 310 212 251 260 306 331 256 331 256 260 306 330 309 276 252 212 251 332 255 332 255 212 251 331 256 194 35 36 36 332 255 332 255 36 36 276 252 333 233 240 236 24 234 24 234 240 236 9 235 224 347 240 236 334 300 334 300 240 236 333 233 335 299 256 348 334 300 334 300 256 348 224 347 336 246 208 293 335 299 335 299 208 293 256 348 337 245 272 294 336 246 336 246 272 294 208 293 201 45 40 46 337 245 337 245 40 46 272 294</p>
        </triangles>
      </mesh>
      <extra>
        <technique profile="OpenCOLLADAMaya">
          <originalMayaNodeId>straightShape</originalMayaNodeId>
          <double_sided>1</double_sided>
        </technique>
      </extra>
    </geometry>
  </library_geometries>
  <library_visual_scenes>
    <visual_scene id="VisualSceneNode" name="tunnels_WIP02">
      <node id="straight" name="straight" type="NODE">
        <translate sid="translate">0 0 0</translate>
        <rotate sid="rotateZ">0 0 1 0</rotate>
        <rotate sid="rotateY">0 1 0 0</rotate>
        <rotate sid="rotateX">1 0 0 0</rotate>
        <scale sid="scale">1 1 1</scale>
        <instance_geometry url="#straightShape">
          <bind_material>
            <technique_common>
              <instance_material symbol="blinn1SG" target="#tunnel_MAT">
                <bind_vertex_input semantic="TEX0" input_semantic="TEXCOORD" input_set="0"/>
              </instance_material>
            </technique_common>
          </bind_material>
        </instance_geometry>
        <extra>
          <technique profile="OpenCOLLADAMaya">
            <originalMayaNodeId>straight</originalMayaNodeId>
          </technique>
        </extra>
      </node>
    </visual_scene>
  </library_visual_scenes>
  <scene>
    <instance_visual_scene url="#VisualSceneNode"/>
  </scene>
</COLLADA>