<?xml version="1.0" encoding="utf-8"?>
<COLLADA xmlns="http://www.collada.org/2005/11/COLLADASchema" version="1.4.1">
  <asset>
    <contributor>
      <author>marcus</author>
      <authoring_tool>OpenCOLLADA2008 x64</authoring_tool>
      <comments>
			ColladaMaya export options: 
			bakeTransforms=0;relativePaths=0;copyTextures=0;exportTriangles=1;exportCgfxFileReferences=1;
			isSampling=0;curveConstrainSampling=0;removeStaticCurves=1;exportPolygonMeshes=1;exportLights=1;
			exportCameras=1;exportJointsAndSkin=0;exportAnimations=0;exportInvisibleNodes=0;exportDefaultCameras=0;
			exportTexCoords=1;exportNormals=1;exportNormalsPerVertex=1;exportVertexColors=1;exportVertexColorsPerVertex=1;
			exportTexTangents=0;exportTangents=0;exportReferencedMaterials=0;exportMaterialsOnly=0;
			exportXRefs=1;dereferenceXRefs=1;exportCameraAsLookat=0;cameraXFov=0;cameraYFov=1;doublePrecision=0
		</comments>
      <source_data>file:///D:/work/DropBox/Team/Depth_marcus/models/Levels/02_05/special/ventilations_hatch_broken.ma</source_data>
    </contributor>
    <created>2013-11-14T16:45:50</created>
    <modified>2013-11-14T16:45:50</modified>
    <unit name="meter" meter="1"/>
    <up_axis>Y_UP</up_axis>
  </asset>
  <library_materials>
    <material id="DDS" name="DDS">
      <instance_effect url="#DDS-fx"/>
    </material>
  </library_materials>
  <library_effects>
    <effect id="DDS-fx">
      <profile_COMMON>
        <newparam sid="file1-surface">
          <surface type="2D">
            <init_from>file1</init_from>
          </surface>
        </newparam>
        <newparam sid="file1-sampler">
          <sampler2D>
            <source>file1-surface</source>
          </sampler2D>
        </newparam>
        <technique sid="common">
          <blinn>
            <emission>
              <color>0 0 0 1</color>
            </emission>
            <ambient>
              <color>0 0 0 1</color>
            </ambient>
            <diffuse>
              <texture texture="file1-sampler" texcoord="TEX0">
                <extra>
                  <technique profile="OpenCOLLADAMaya">
                    <blend_mode>NONE</blend_mode>
                    <coverageU>1</coverageU>
                    <coverageV>1</coverageV>
                    <fast>0</fast>
                    <mirrorU>0</mirrorU>
                    <mirrorV>0</mirrorV>
                    <noiseU>0</noiseU>
                    <noiseV>0</noiseV>
                    <offsetU>0</offsetU>
                    <offsetV>0</offsetV>
                    <repeatU>1</repeatU>
                    <repeatV>1</repeatV>
                    <rotateFrame>0</rotateFrame>
                    <rotateUV>0</rotateUV>
                    <stagger>0</stagger>
                    <translateFrameU>0</translateFrameU>
                    <translateFrameV>0</translateFrameV>
                    <wrapU>1</wrapU>
                    <wrapV>1</wrapV>
                  </technique>
                </extra>
              </texture>
            </diffuse>
            <specular>
              <color>0.5 0.5 0.5 1</color>
            </specular>
            <shininess>
              <float>0.3</float>
            </shininess>
            <reflective>
              <color>0 0 0 1</color>
            </reflective>
            <reflectivity>
              <float>0.5</float>
            </reflectivity>
            <transparent opaque="RGB_ZERO">
              <color>0 0 0 1</color>
            </transparent>
            <transparency>
              <float>1</float>
            </transparency>
          </blinn>
        </technique>
      </profile_COMMON>
    </effect>
  </library_effects>
  <library_images>
    <image id="file1" name="file1">
      <init_from>file:///D:/work/depth/redist/entities/station/doors/door_hatch_slide_ventilation/door_hatch_slide_ventilation.dds</init_from>
      <extra>
        <technique profile="OpenCOLLADAMaya">
          <dgnode_type>kFile</dgnode_type>
          <image_sequence>0</image_sequence>
          <originalMayaNodeId>file1</originalMayaNodeId>
        </technique>
      </extra>
    </image>
  </library_images>
  <library_geometries>
    <geometry id="Geometry-mesh008" name="door_hatch_slide_ventilation">
      <mesh>
        <source id="Geometry-mesh008-positions" name="Geometry-mesh008-positions">
          <float_array id="Geometry-mesh008-positions-array" count="744">-1.48875 -0.581016 -0.09375 -1.485115 0.5805639 -0.09375 -1.484805 -0.5786221 0.09840602 -1.485115 0.5805639 0.072266 -1.61367 -0.09277393 -0.061213 -1.622063 0.07987418 -0.061213 -1.519151 -0.08817914 0.05695823 -1.61367 -0.09277393 -0.01716677 -1.622063 0.07987418 -0.01716677 -1.527544 0.08446898 0.05695823 -1.530968 -0.08875355 0.05636623 -1.53936 0.08389457 0.05636623 -1.519151 -0.08817914 -0.061213 -1.527544 0.08446898 -0.061213 -0.126562 0.5 0.065002 -0.120726 0.5053 0.072266 -0.126562 0.5 -0.086487 -0.120726 0.5053 -0.09375 -1.371579 0.4970802 -0.086487 -1.377294 0.5025047 -0.09375 -1.377294 0.5025047 0.072266 -1.371579 0.4970802 0.065002 -1.377171 -0.5042124 0.07635062 -1.372455 -0.4989053 0.06782205 -1.37344 -0.5 -0.086487 -1.37927 -0.506032 -0.09375 -0.120506 -0.5302761 -0.07133931 -0.1262314 -0.524139 -0.06407631 -0.1262314 -0.524139 0.08741268 -0.120506 -0.5302761 0.09467669 -1.50098 -0.59375 -0.082031 -1.497068 0.5935587 -0.082031 -1.498386 -0.5923779 0.08972227 -1.497068 0.5935587 0.060547 1.25 -0.59375 -0.082031 1.266019 0.5947523 -0.082031 1.25 -0.6036054 0.08058777 1.255615 0.5885979 0.03734235 -1.499915 -0.2332562 -0.09375 -1.648669 -0.2404876 -0.09375 -1.671429 0.2277095 -0.09375 -1.522675 0.2349409 -0.09375 -1.513079 -0.2338962 -0.061523 -1.648669 -0.2404876 -0.03167077 -1.671429 0.2277095 -0.03167077 -1.535839 0.2343009 -0.061523 1.23777 -0.5908714 0.09230678 1.243118 0.5761256 0.04906135 1.253522 0.5822801 -0.09375 1.23777 -0.581016 -0.09375 0.713535 -0.687382 -0.061213 0.540683 -0.687382 -0.061213 0.713535 -0.592755 0.027106 0.713535 -0.687382 -0.047019 0.540683 -0.687382 -0.047019 0.540683 -0.592755 0.027106 0.713535 -0.604583 0.026514 0.540683 -0.604583 0.026514 0.713535 -0.592755 -0.061213 0.540683 -0.592755 -0.061213 0.859375 -0.58205 -0.09375 0.859375 -0.729511 -0.09375 0.390625 -0.729511 -0.09375 0.390625 -0.58205 -0.09375 0.859375 -0.593769 -0.061523 0.859375 -0.729511 -0.061523 0.390625 -0.729511 -0.061523 0.390625 -0.593769 -0.061523 0.536465 0.687363 -0.061213 0.709317 0.687363 -0.061213 0.536465 0.5849421 0.027106 0.536465 0.687363 -0.047019 0.709317 0.687363 -0.047019 0.709317 0.5849421 0.027106 0.536465 0.5967701 0.026514 0.709317 0.5967701 0.026514 0.536465 0.5849421 -0.061213 0.709317 0.5849421 -0.061213 0.390625 0.5732611 -0.09375 0.390625 0.729492 -0.09375 0.859375 0.729492 -0.09375 0.859375 0.5732611 -0.09375 0.390625 0.5859561 -0.061523 0.390625 0.729492 -0.061523 0.859375 0.729492 -0.061523 0.859375 0.5859561 -0.061523 -0.8318888 0.7112257 -0.061213 -0.6596055 0.6972169 -0.061213 -0.8397125 0.6150077 0.027106 -0.8318888 0.7112257 -0.047019 -0.6596055 0.6972169 -0.047019 -0.6674292 0.6009989 0.027106 -0.838754 0.6267968 0.026514 -0.6664706 0.612788 0.026514 -0.8397125 0.6150077 -0.061213 -0.6674292 0.6009989 -0.061213 -0.9860185 0.6151847 -0.09375 -0.9738337 0.7650357 -0.09375 -0.5066257 0.7270458 -0.09375 -0.5188105 0.5771947 -0.09375 -0.9849896 0.6278379 -0.061523 -0.9738337 0.7650357 -0.061523 -0.5066257 0.7270458 -0.061523 -0.5177816 0.589848 -0.061523 -0.66518 -0.725728 -0.06100164 -0.8379329 -0.7198766 -0.06093869 -0.6619347 -0.6308642 0.02700312 -0.6651732 -0.7256812 -0.04680772 -0.8379261 -0.7198297 -0.04674477 -0.8346877 -0.6250128 0.02706607 -0.6623354 -0.6426873 0.02645034 -0.8350883 -0.6368359 0.0265133 -0.6619768 -0.6311558 -0.06131539 -0.8347297 -0.6253043 -0.06125244 -0.5158735 -0.6255014 -0.09394082 -0.5208652 -0.7728771 -0.09345189 -0.9893465 -0.7570088 -0.09328116 -0.9843548 -0.6096332 -0.09377009 -0.5162548 -0.6371072 -0.06167514 -0.5208498 -0.7727707 -0.06122507 -0.9893311 -0.7569025 -0.06105434 -0.9847361 -0.621239 -0.06150442 1.331637 -0.090213 -0.061213 1.340434 0.08241502 -0.061213 1.23713 -0.0853972 0.027106 1.331637 -0.090213 -0.047019 1.340434 0.08241502 -0.047019 1.245926 0.08723083 0.027106 1.248944 -0.08599923 0.026514 1.257741 0.08662879 0.026514 1.23713 -0.0853972 -0.061213 1.245926 0.08723083 -0.061213 1.218532 -0.2304787 -0.09375 1.36629 -0.2380081 -0.09375 1.390145 0.2301345 -0.09375 1.242387 0.2376639 -0.09375 1.230726 -0.2311001 -0.061523 1.36629 -0.2380081 -0.061523 1.390145 0.2301345 -0.061523 1.254581 0.2370425 -0.061523 -0.08158862 -0.545275 -0.02620406 -0.08154228 0.5203208 -0.04861475 -1.397684 0.5179688 -0.04861475 -1.399989 -0.5203208 -0.04861475 -0.08158862 -0.545275 0.04954044 -0.08154228 0.5203208 0.02712975 -1.397684 0.5179688 0.02712975 -1.403717 -0.5226494 0.03602541 -0.1262314 -0.524139 0.06847656 -0.126562 0.5 0.04606587 -1.371579 0.4970802 0.04606587 -1.375046 -0.5006914 0.04914931 -0.1262314 -0.524139 -0.04514019 -0.126562 0.5 -0.06755087 -1.371579 0.4970802 -0.06755087 -1.37344 -0.5 -0.06755087 -1.110781 -0.5253758 0.09826812 -1.116265 -0.6085944 0.06026392 -1.122188 -0.6166323 -0.08196228 -1.122129 -0.6039319 -0.0937233 -1.119215 0.5490982 0.118625 -1.125706 0.5471354 -0.086487 -1.110701 -0.5175943 0.09291586 -1.120289 -0.5178123 -0.07620136 -1.117568 -0.6176155 0.0455458 -1.118518 0.5552899 0.125114 -1.119461 -0.5117797 -0.06898085 -1.125512 0.5524371 -0.09375 -1.119102 0.6278818 -0.09375 -1.117613 0.6405367 -0.082031 -1.113415 0.64123 0.1016834 -1.113657 0.6301698 0.1149964 -1.122656 0.5672752 -0.04861475 -1.118859 -0.5319635 -0.03101926 -1.11977 0.5642401 0.07838517 -1.114931 -0.5266715 0.0510956 -1.120145 0.5466209 0.09986278 -1.111904 -0.512389 0.07473674 -1.125041 0.5470814 -0.06755087 -1.118431 -0.5117376 -0.05006106 -0.4725895 0.4969605 0.07333785 -0.4755351 0.4942683 -0.086487 -0.4719661 0.503288 0.07969736 -0.4751985 0.4995584 -0.09375 -0.4732984 0.5144742 -0.04861475 -0.4723447 0.5112224 0.03279118 -0.4732077 0.4940797 0.05463033 -0.4752624 0.4942461 -0.06755087 -0.4630405 -0.5655291 0.1202833 -0.4645628 -0.6285842 0.1037143 -0.4687748 -0.6387645 -0.0822004 -0.4684907 -0.6260718 -0.09396151 -0.463119 -0.5585031 0.1139754 -0.4680261 -0.5624534 -0.08857086 -0.4650068 -0.6394628 0.09026112 -0.4673569 -0.55641 -0.08134732 -0.4688964 0.5750119 -0.09375 -0.4676677 0.587688 -0.082031 -0.4659017 0.5886606 0.05448877 -0.4664473 0.5778958 0.06802872 -0.4675108 -0.576542 -0.04337141 -0.4657014 -0.5730531 0.07361176 -0.4639837 -0.5557332 0.09526094 -0.466719 -0.5563409 -0.0624201 -1.42519 0.3249767 0.1376987 -1.431895 0.3237833 0.1440579 -0.1015082 0.329705 -0.086487 -0.1015082 0.3247252 0.05405524 -0.09567221 0.3299673 -0.09375 -1.412854 0.3306836 -0.086487 1.278645 0.3311036 0.08330338 -1.418688 0.3306154 -0.09375 -1.540212 0.3238303 -0.082031 -1.550646 0.3168877 0.1157499 -1.528017 0.3248583 -0.09375 1.266409 0.3309281 0.09502239 -1.540084 0.3164182 0.1289874 -0.09567221 0.32451 0.06131924 -0.05648849 0.3286418 -0.04861475 -1.439307 0.3280439 -0.04861475 -0.05648849 0.3261518 0.01618299 -1.446504 0.3273672 0.09670525 -0.1015082 0.3253476 0.03511912 -1.422729 0.327065 0.1190293 -0.1015082 0.3290826 -0.06755087 -1.412824 0.3300618 -0.06755087 1.227822 -0.2936517 0.060547 -1.510311 -0.2912546 -0.082031 -1.511166 -0.2915467 0.08006968 -1.498084 -0.2908951 -0.09375 1.2156 -0.2931583 0.072266 -1.50098 -0.2909476 0.09359138 -0.08066021 -0.3191095 -0.05006638 -0.07414453 -0.3184288 0.04412508 -0.1017853 -0.3136406 0.06881613 -0.126866 -0.3181223 -0.06586057 -1.386398 -0.2812726 0.1048448 -1.393277 -0.2819975 0.1110835 -0.1281745 -0.3183252 -0.08475332 -0.09152199 -0.3190591 0.08378254 -0.1228563 -0.3185574 -0.09240137 -1.382904 -0.2854184 -0.086487 -1.388721 -0.2858175 -0.09375 -0.08281256 -0.321356 0.08617173 -1.409457 -0.2859785 -0.04861475 -1.406551 -0.2821481 0.06321977 -1.383415 -0.2806251 0.08615326 -1.38292 -0.2850827 -0.06755087</float_array>
          <technique_common>
            <accessor source="#Geometry-mesh008-positions-array" count="248" stride="3">
              <param name="X" type="float"/>
              <param name="Y" type="float"/>
              <param name="Z" type="float"/>
            </accessor>
          </technique_common>
        </source>
        <source id="Geometry-mesh008-normals" name="Geometry-mesh008-normals">
          <float_array id="Geometry-mesh008-normals-array" count="1914">0.04855697 -0.9988204 0 0.04855697 -0.9988204 0 0.04855697 -0.9988204 0 -0.04855574 0.9988205 0 -0.04855574 0.9988205 0 -0.04855574 0.9988205 0 1 0 0 1 0 0 1 0 0 -1 0 0 -1 0 0 -1 0 0 -1 0 0 -1 0 0 -1 0 0 1 0 0 1 0 0 1 0 0 -0.996712 0.08102687 0 -0.996712 0.08102687 0 -0.996712 0.08102687 0 0.9967105 -0.08104482 0 0.9967105 -0.08104482 0 0.9967105 -0.08104482 0 0.9994268 -0.03385276 -3.64805e-4 0.9994268 -0.03385276 -3.64805e-4 0.9994268 -0.03385276 -3.64805e-4 -0.9994271 0.03384253 3.63983e-4 -0.9994271 0.03384253 3.63983e-4 -0.9994271 0.03384253 3.63983e-4 -0.05089082 -0.9987043 0 -0.05089082 -0.9987043 0 -0.05089082 -0.9987043 0 0.05088835 0.9987044 0 0.05088835 0.9987044 0 0.05088835 0.9987044 0 -0.9988205 -0.04855569 0 -0.9988205 -0.04855569 0 -0.9988205 -0.04855569 0 -0.9988205 -0.04855569 0 0.7944833 -0.0445262 0.6056516 0.7400359 -0.02055933 0.6722531 0.7400359 -0.02055933 0.6722531 0.7944833 -0.0445262 0.6056516 -0.9893858 -0.145293 -0.002387926 -0.9984717 -0.0527832 0.01637318 -0.9984717 -0.0527832 0.01637318 -0.9893858 -0.145293 -0.002387926 0.03713702 -0.0422166 0.9984181 0.01757008 -0.3019885 0.9531496 0.01360094 -0.1791655 0.983725 0.01780125 -0.6737911 -0.7387075 0.01780125 -0.6737911 -0.7387075 -0.002736665 -0.676648 -0.7363017 -0.002736665 -0.676648 -0.7363017 -1 0 0 -1 0 0 -1 0 0 -1 0 0 0 0.04998814 0.9987499 0 0.04998814 0.9987499 0 0.04998814 0.9987499 0 0.04998814 0.9987499 1 0 0 1 0 0 1 0 0 1 0 0 0.9967104 -0.08104501 0 0.9967104 -0.08104501 0 0.9967104 -0.08104501 0 0.9967104 -0.08104501 0 -0.001216497 -0.04666198 0.99891 -0.001216497 -0.04666198 0.99891 -0.001216497 -0.04666198 0.99891 -0.001216497 -0.04666198 0.99891 -0.9994268 0.03385321 3.64551e-4 -0.9994268 0.03385321 3.64551e-4 -0.9994268 0.03385321 3.64551e-4 -0.9994268 0.03385321 3.64551e-4 0.05089096 0.9987043 0 0.05089096 0.9987043 0 0.05089096 0.9987043 0 0.05089096 0.9987043 0 -0.663243 -0.03224184 0.7477093 -0.663243 -0.03224184 0.7477093 -0.663243 -0.03224184 0.7477093 -0.663243 -0.03224184 0.7477093 -0.8151123 -0.06591626 -0.5755408 -0.8087856 -0.01707058 -0.5878559 -0.8087856 -0.01707058 -0.5878559 -0.8151123 -0.06591626 -0.5755408 0.8604893 -0.2082008 0.4649845 0.8813486 -0.08276307 0.4651612 0.9346881 -0.08953361 -0.3440084 0.9096439 -0.2239099 -0.3498747 0.9999867 -0.004830847 -0.00184901 0.9995949 0.00643011 0.0277259 0.9986057 0.01635325 -0.05018906 0.2145206 0.01042842 0.9766638 0.2145206 0.01042842 0.9766638 0.2145206 0.01042842 0.9766638 0.2145206 0.01042842 0.9766638 0.6878582 -0.009292195 -0.7257856 0.6878582 -0.009292195 -0.7257856 0.6878582 -0.009292195 -0.7257856 0.6878582 -0.009292195 -0.7257856 0 1 0 0 1 0 0 1 0 0 1 0 0 1 0 0 1 0 0 1 0 0 1 0 -0.0338509 -0.9994214 0.003318612 -0.0338509 -0.9994214 0.003318612 -0.0338509 -0.9994214 0.003318612 -0.0338509 -0.9994214 0.003318612 -0.0338509 -0.9994214 0.003316318 -0.0338509 -0.9994214 0.003316318 -0.0338509 -0.9994214 0.003316318 -0.0338509 -0.9994214 0.003316318 0.4052375 -0.09903014 -0.908832 0.4193299 -0.03932872 -0.9069817 0.01646053 -0.9998643 -7.03984e-4 -0.03233083 -0.9994772 -3.51422e-4 -0.03233083 -0.9994772 -3.51422e-4 0.01646053 -0.9998643 -7.03984e-4 -0.9848 0.1716294 -0.02669069 -0.9848 0.1716294 -0.02669069 -0.9978514 0.05837275 -0.0297504 -0.9978514 0.05837275 -0.0297504 -0.04855536 0.9988205 0 -0.04855536 0.9988205 0 -0.04855536 0.9988205 0 -0.04855536 0.9988205 0 -1.66807e-4 -2.44164e-4 -0.9999999 -2.50211e-4 -3.66246e-4 -1 0 0 -1 1 0 0 1 0 0 1 0 0 1 0 0 0 0.6302119 0.7764233 0 0.6302119 0.7764233 0 0.6302119 0.7764233 0 0.6302119 0.7764233 -1 0 0 -1 0 0 -1 0 0 -1 0 0 -0.9967105 0.08104551 0 -0.9967105 0.08104551 0 -0.9967105 0.08104551 0 -0.9967105 0.08104551 0 -0.02212187 -0.6611776 0.7499032 -0.02212187 -0.6611776 0.7499032 -0.02212187 -0.6611776 0.7499032 -0.02212187 -0.6611776 0.7499032 0.9994268 -0.03385268 -3.64462e-4 0.9994268 -0.03385268 -3.64462e-4 0.9994268 -0.03385268 -3.64462e-4 0.9994268 -0.03385268 -3.64462e-4 -0.05089083 -0.9987043 0 -0.05089083 -0.9987043 0 -0.05089083 -0.9987043 0 -0.05089083 -0.9987043 0 -0.04855547 0.9988205 0 -0.04855547 0.9988205 0 -0.04855547 0.9988205 0 -0.04855547 0.9988205 0 -0.005990317 0.7285818 0.6849326 -0.005990317 0.7285818 0.6849326 0.003308726 0.6755068 0.7373464 0.003308726 0.6755068 0.7373464 -0.68569 -0.02159551 -0.7275733 -0.68569 -0.02159551 -0.7275733 -0.6883835 -0.02759518 -0.724822 -0.6883835 -0.02759518 -0.724822 -0.9988206 -0.04855544 0 -0.9988206 -0.04855544 0 -0.9988206 -0.04855544 0 -0.9988206 -0.04855544 0 0.03272739 0.0856893 -0.9957843 0.03272739 0.0856893 -0.9957843 0.01547097 0.118569 -0.9928253 0.01547097 0.118569 -0.9928253 0.02248117 -0.72354 0.6899163 0.02248117 -0.72354 0.6899163 -0.02142642 -0.7710504 0.6364136 -0.02142642 -0.7710504 0.6364136 0 0 1 0 0 1 0 0 1 0 0 1 0 0 -1 0 0 -1 0 0 -1 0 0 -1 0 0 1 0 0 1 0 0 1 0 0 1 -4.76225e-4 -0.003301426 -0.9999945 -4.76225e-4 -0.003301426 -0.9999945 -4.76225e-4 -0.003301426 -0.9999945 -4.76225e-4 -0.003301426 -0.9999945 0 0 1 0 0 1 0 0 1 0 0 1 0.0485554 -0.9988206 0 0.0485554 -0.9988206 0 0.0485554 -0.9988206 0 0.0485554 -0.9988206 0 0.02009533 -0.7651599 0.6435266 0.02009533 -0.7651599 0.6435266 0.005721663 -0.7410367 0.6714402 0.005721663 -0.7410367 0.6714402 0 0 -1 0 0 -1 0 0 -1 0 0 -1 0 0 -1 0 0 -1 0 0 -1 0 0 -1 0.7157325 0.09784491 0.6914865 0.7157325 0.09784491 0.6914865 0.7053574 0.007799288 0.7088088 0.7053574 0.007799288 0.7088088 -0.06305826 -0.9980059 0.002816726 -0.06305826 -0.9980059 0.002816726 -0.04828351 -0.9988332 -9.2465e-4 -0.04828351 -0.9988332 -9.2465e-4 0 -1 0 0 -1 0 0 -1 0 0 -1 0 0 -1 0 0 -1 0 0 -1 0 0 -1 0 0.08104502 0.9967104 0 0.08104502 0.9967104 0 0.08104502 0.9967104 0 0.08104502 0.9967104 0 0.0810451 0.9967104 0 0.0810451 0.9967104 0 0.0810451 0.9967104 0 0.0810451 0.9967104 0 0.9987042 -0.05089121 0 0.9987042 -0.05089121 0 0.9987042 -0.05089121 0 0.9987042 -0.05089121 0 0.9987043 -0.05089083 0 0.9987043 -0.05089083 0 0.9987043 -0.05089083 0 0.9987043 -0.05089083 0 -0.03834664 0.7582034 -0.6508896 -0.03834664 0.7582034 -0.6508896 8.89384e-4 0.7619598 -0.6476237 8.89384e-4 0.7619598 -0.6476237 -0.6344852 0.2767065 0.7217078 -0.6344852 0.2767065 0.7217078 -0.7261685 0.09712056 0.6806225 -0.7261685 0.09712056 0.6806225 0.04855536 -0.9988205 0 0.04855536 -0.9988205 0 0.04855536 -0.9988205 0 0.04855536 -0.9988205 0 0 0 -1 -0.08268307 0.6536617 -0.7522565 -0.08268307 0.6536617 -0.7522565 -0.013935 0.6659412 -0.7458742 -0.013935 0.6659412 -0.7458742 0 -0.04998796 0.9987499 0 -0.04998796 0.9987499 0 -0.04998796 0.9987499 0 -0.04998796 0.9987499 -1 0 0 -1 0 0 -1 0 0 -1 0 0 1 0 0 1 0 0 1 0 0 1 0 0 0.004051297 0.04982352 0.9987499 0.004051297 0.04982352 0.9987499 0.004051297 0.04982352 0.9987499 0.004051297 0.04982352 0.9987499 0.9967105 -0.08104511 0 0.9967105 -0.08104511 0 0.9967105 -0.08104511 0 0.9967105 -0.08104511 0 -0.9994268 0.03385241 3.64731e-4 -0.9994268 0.03385241 3.64731e-4 -0.9994268 0.03385241 3.64731e-4 -0.9994268 0.03385241 3.64731e-4 0.04991475 -0.002543542 0.9987503 0.04991475 -0.002543542 0.9987503 0.04991475 -0.002543542 0.9987503 0.04991475 -0.002543542 0.9987503 0.05089099 0.9987043 0 0.05089099 0.9987043 0 0.05089099 0.9987043 0 0.05089099 0.9987043 0 0.1539057 -0.7660141 -0.6241277 0.1539057 -0.7660141 -0.6241277 0.04450287 -0.7906164 -0.6106924 0.04450287 -0.7906164 -0.6106924 0.02241901 0.273498 0.9616113 -0.06192268 0.1062244 0.9924121 -0.06192268 0.1062244 0.9924121 0.02241901 0.273498 0.9616113 0.005921536 0.06504049 0.9978651 -0.002634845 0.02010435 0.9997945 0.008331326 0.04734726 0.9988437 0.00754022 0.7339851 0.6791237 0.00754022 0.7339851 0.6791237 0.05791398 0.7532607 0.6551673 0.05791398 0.7532607 0.6551673 0 -0.6640304 0.7477056 0 -0.6640304 0.7477056 0 -0.6640304 0.7477056 0 -0.6640304 0.7477056 1 0 0 1 0 0 1 0 0 1 0 0 -1 0 0 -1 0 0 -1 0 0 -1 0 0 0.05312833 0.6533837 0.7551605 0.05312833 0.6533837 0.7551605 0.05312833 0.6533837 0.7551605 0.05312833 0.6533837 0.7551605 -0.9967105 0.08104544 0 -0.9967105 0.08104544 0 -0.9967105 0.08104544 0 -0.9967105 0.08104544 0 0.9994268 -0.03385175 -3.64704e-4 0.9994268 -0.03385175 -3.64704e-4 0.9994268 -0.03385175 -3.64704e-4 0.9994268 -0.03385175 -3.64704e-4 0.6631655 -0.03379311 0.7477095 0.6631655 -0.03379311 0.7477095 0.6631655 -0.03379311 0.7477095 0.6631655 -0.03379311 0.7477095 -0.05089099 -0.9987043 0 -0.05089099 -0.9987043 0 -0.05089099 -0.9987043 0 -0.05089099 -0.9987043 0 -0.04992025 -0.002426767 0.9987503 -0.04992025 -0.002426767 0.9987503 -0.04992025 -0.002426767 0.9987503 -0.04992025 -0.002426767 0.9987503 -0.745951 -0.1449439 0.6500372 -0.745951 -0.1449439 0.6500372 -0.6562337 -0.06044659 0.7521327 -0.6562337 -0.06044659 0.7521327 -0.09415681 0.9955574 -2.31876e-4 -0.0130378 0.9999102 -0.003094151 -0.0130378 0.9999102 -0.003094151 -0.09415681 0.9955574 -2.31876e-4 0.002500526 0.096156 0.9953632 0.03762008 0.1341819 0.9902424 0.008346683 0.1151666 0.9933112 -0.001925812 0.9997945 0.02018064 0.0394441 0.999199 0.00675225 0.0394441 0.999199 0.00675225 -0.001925812 0.9997945 0.02018064 0 0 -1 0 0 -1 0 0 -1 0 0 -1 0 0 1 0 0 1 0 0 1 0 0 1 0 0 -1 0 0 -1 0 0 -1 0 0 -1 4.76254e-4 0.003301417 0.9999945 4.76254e-4 0.003301417 0.9999945 4.76254e-4 0.003301417 0.9999945 4.76254e-4 0.003301417 0.9999945 0 0 -1 0 0 -1 0 0 -1 0 0 -1 -0.9916787 -0.1287182 -0.00228046 -0.998658 -0.0479445 0.01957971 -0.998658 -0.0479445 0.01957971 -0.9916787 -0.1287182 -0.00228046 0.1718491 -0.9849733 -0.01719159 0.1718491 -0.9849733 -0.01719159 0.04514489 -0.9987144 -0.02305156 0.04514489 -0.9987144 -0.02305156 0.9996625 0.0256715 0.003979856 0.9991053 0.04109855 0.009973736 0.9991053 0.04109855 0.009973736 0.9996625 0.0256715 0.003979856 -0.07659688 0.9969116 -0.01732803 -0.07659688 0.9969116 -0.01732803 -0.003281876 0.9994909 -0.03173633 -0.003281876 0.9994909 -0.03173633 -0.3881109 0.001979267 -0.9216107 -0.4532145 -0.01600452 -0.8912578 -0.4532145 -0.01600452 -0.8912578 -0.3881109 0.001979267 -0.9216107 0.001991575 -0.7374936 -0.6753513 -0.05256588 -0.7572209 -0.6510402 -0.05256588 -0.7572209 -0.6510402 0.001991575 -0.7374936 -0.6753513 0.4577611 -0.4336783 -0.7761301 0.5991517 -0.1823531 -0.7795926 0.5991517 -0.1823531 -0.7795926 0.4577611 -0.4336783 -0.7761301 -0.1067312 0.6629322 -0.7410327 -0.01582288 0.7462898 -0.6654332 -0.01582288 0.7462898 -0.6654332 -0.1067312 0.6629322 -0.7410327 -0.9899204 -0.1416055 -0.002327321 -0.9868889 -0.06816886 0.1462987 -0.9868889 -0.06816886 0.1462987 -0.9899204 -0.1416055 -0.002327321 0.01475182 -0.9969946 0.07605328 -0.0275653 -0.9935264 0.1102063 -0.0275653 -0.9935264 0.1102063 0.01475182 -0.9969946 0.07605328 0.960591 -0.2738498 0.04765813 0.9888672 -0.1108285 0.09929116 0.9888672 -0.1108285 0.09929116 0.960591 -0.2738498 0.04765813 -0.0911414 0.9929985 0.07514909 -0.01724007 0.989683 0.1422331 -0.01724007 0.989683 0.1422331 -0.0911414 0.9929985 0.07514909 -0.3773839 -0.05215112 0.9245873 -0.3667046 -0.01920124 0.9301392 -0.3667046 -0.01920124 0.9301392 -0.3773839 -0.05215112 0.9245873 0.01079725 -0.6891879 0.7245022 -0.02223985 -0.6847293 0.7284581 -0.02223985 -0.6847293 0.7284581 0.01079725 -0.6891879 0.7245022 0.5491001 -0.1274784 0.8259771 0.5663404 -0.04979964 0.8226655 -0.09111074 0.6196796 0.7795487 -0.01532476 0.6540472 0.7562985 -0.01532476 0.6540472 0.7562985 -0.09111074 0.6196796 0.7795487 -0.02360708 -0.2310946 0.9726449 -0.02360708 -0.2310946 0.9726449 0.01634746 -0.1122581 0.9935447 0.01634746 -0.1122581 0.9935447 -0.0320819 -0.6731579 -0.7388026 -0.0320819 -0.6731579 -0.7388026 -0.04088587 -0.6670106 -0.7439256 -0.04088587 -0.6670106 -0.7439256 0.05963015 -0.9982176 -0.002469994 0.05963015 -0.9982176 -0.002469994 0.199125 -0.979962 -0.004893065 0.199125 -0.979962 -0.004893065 -0.003382614 0.6675314 0.744574 -0.003382614 0.6675314 0.744574 0.01990401 0.1177655 -0.9928418 0.0111081 0.1629768 -0.9865674 -0.02274514 -0.7714697 0.6358594 -0.02274514 -0.7714697 0.6358594 0.005951919 -0.7384003 0.6743365 0.005951919 -0.7384003 0.6743365 0.02055707 -0.7600883 0.6494946 0.02055707 -0.7600883 0.6494946 -0.005028413 -0.9998215 -0.01820967 -0.005028413 -0.9998215 -0.01820967 0.05977543 0.7562965 -0.6514927 0.05977543 0.7562965 -0.6514927 0.07939574 0.7476749 -0.6593017 0.07939574 0.7476749 -0.6593017 0 0 -1 0 0 -1 0 0 -1 0 0 -1 0.02603651 0.6790723 -0.7336096 0.02603651 0.6790723 -0.7336096 -0.02614325 -0.8085237 -0.5878826 -0.02614325 -0.8085237 -0.5878826 -0.02964776 0.7290003 0.6838709 -0.02964776 0.7290003 0.6838709 -0.16668 0.6708376 0.7226304 -0.16668 0.6708376 0.7226304 0.05724596 0.9983515 -0.004155163 0.05724596 0.9983515 -0.004155163 0.04631753 0.998924 -0.002373834 0.04631753 0.998924 -0.002373834 -0.03189862 0.05361211 0.9980523 -0.03189862 0.05361211 0.9980523 -0.1447736 -0.03204031 0.9889459 -0.1447736 -0.03204031 0.9889459 -0.02127131 0.9997671 -0.003625872 -0.02127131 0.9997671 -0.003625872 -0.1230602 0.9923992 -5.2503e-4 -0.1230602 0.9923992 -5.2503e-4 -0.03171825 -0.9991916 -0.02469979 -0.03171825 -0.9991916 -0.02469979 0.04928664 0.9982754 -0.03189112 0.04928664 0.9982754 -0.03189112 0.02849065 0.9994357 -0.01779483 0.02849065 0.9994357 -0.01779483 0.07779595 -0.7084599 -0.7014503 0.07779595 -0.7084599 -0.7014503 0.2590545 -0.6115245 -0.7476153 0.2590545 -0.6115245 -0.7476153 0.074703 0.7500223 -0.6571804 0.074703 0.7500223 -0.6571804 0.07318988 0.6779884 -0.7314199 0.07318988 0.6779884 -0.7314199 0.05810933 -0.9929936 0.1028938 0.05810933 -0.9929936 0.1028938 0.1849682 -0.9809178 0.0598943 0.1849682 -0.9809178 0.0598943 0.05310353 0.9875826 0.1478526 0.05310353 0.9875826 0.1478526 0.04917517 0.9949717 0.08725329 0.04917517 0.9949717 0.08725329 0.03289548 -0.6596867 0.7508205 0.03289548 -0.6596867 0.7508205 0.1207622 -0.6342459 0.7636418 0.1207622 -0.6342459 0.7636418 0.02165247 0.6870992 0.7262409 0.02165247 0.6870992 0.7262409 -0.01730377 0.6896156 0.7239689 -0.01730377 0.6896156 0.7239689 0 0 -1 0.05084888 0.145687 0.9880231 -0.01933965 0.7135574 0.7003298 -0.01933965 0.7135574 0.7003298 0.005027996 0.07990684 -0.9967896 -0.009156153 0.05135407 -0.9986385 0.0198482 -0.7245399 0.6889471 0.0198482 -0.7245399 0.6889471 0.02344567 -0.9992213 -0.03173543 0.02344567 -0.9992213 -0.03173543 -0.002830826 0.682619 -0.730769 -0.002830826 0.682619 -0.730769 0.01322189 -0.8106513 -0.58538 0.01322189 -0.8106513 -0.58538 0.01893953 -0.9996043 -0.02079949 0.01893953 -0.9996043 -0.02079949 0.7133235 0.02395338 0.7004254 0.7133235 0.02395338 0.7004254 0.7450768 0.04427203 0.6655077 0.7450768 0.04427203 0.6655077 -0.9992192 0.01871541 0.03479382 -0.9992192 0.01871541 0.03479382 -0.7795762 -0.03886539 -0.6251004 -0.7795762 -0.03886539 -0.6251004 -0.7540007 -0.1093117 -0.6477144 -0.7540007 -0.1093117 -0.6477144 0.9989271 0.04631006 0 0.9989271 0.04631006 0 0.9902406 0.10494 0.09171203 0.7756774 0.03573432 -0.6301172 0.7756774 0.03573432 -0.6301172 -0.9988448 -0.0461009 -0.01355233 -0.9988448 -0.0461009 -0.01355233 -0.6793751 0.0376794 -0.7328232 -0.6793751 0.0376794 -0.7328232 -0.6640857 0.1087513 -0.7397049 -0.6640857 0.1087513 -0.7397049 0 0 -1 0 0 -1 0.6613625 0.05748007 0.7478607 0.6613625 0.05748007 0.7478607 0.6198109 0.1960615 0.7598647 0.6198109 0.1960615 0.7598647 -0.7353925 -0.05113181 0.6757096 -0.7353925 -0.05113181 0.6757096 -0.05086519 -0.0606173 0.9968642 -0.05086519 -0.0606173 0.9968642 -0.006954532 0.02851512 0.9995692 -0.01537626 0.02343731 0.999607 -0.5283362 0.06963567 0.8461748 -0.5283362 0.06963567 0.8461748 -0.998843 0.02705145 0.03976257 -0.998843 0.02705145 0.03976257 0.996057 -0.08548391 0.02372797 0.996057 -0.08548391 0.02372797 0.9736909 -0.2257529 0.03101108 0.9736909 -0.2257529 0.03101108 -0.5128512 -0.003371517 -0.8584709 -0.5128512 -0.003371517 -0.8584709 0.6117742 0.1076383 -0.7836749 0.6117742 0.1076383 -0.7836749 -0.9513541 0.07197742 0.2995736 -0.9513541 0.07197742 0.2995736 0.9955154 0.05258734 0.07863651 0.9955154 0.05258734 0.07863651 -0.3454669 0.05539642 0.9367945 -0.3454669 0.05539642 0.9367945 0.5770791 0.02620543 0.8162678 0.5770791 0.02620543 0.8162678 -0.9993979 -0.002779074 0.03458452 -0.9993979 -0.002779074 0.03458452 0.9990287 0.04406463 0 0.9990287 0.04406463 0 0.7724111 0.03360229 -0.6342335 0.7724111 0.03360229 -0.6342335 -0.9993181 -0.03653804 0.005324559 -0.9993181 -0.03653804 0.005324559 -0.677686 -0.01526879 0.7351929 -0.677686 -0.01526879 0.7351929 0.04274909 -0.05582414 0.997525 0.04274909 -0.05582414 0.997525 -0.5056314 0.1134969 0.8552516 -0.5056314 0.1134969 0.8552516 -0.99905 0.02093454 0.03822171 -0.99905 0.02093454 0.03822171 -0.5093838 0.02716071 -0.8601108 -0.5093838 0.02716071 -0.8601108 0.526065 0.1299473 -0.8404579 0.526065 0.1299473 -0.8404579 -0.9418844 0.136503 0.3069541 -0.9418844 0.136503 0.3069541 0.9987392 0.04939595 0.008948145 0.9987392 0.04939595 0.008948145 -0.3347241 0.09691864 0.9373188 -0.3347241 0.09691864 0.9373188 0.5741595 0.02421541 0.8183853 0.5741595 0.02421541 0.8183853 0.9974206 0.07164812 0.004342165 0.9952286 0.02933863 0.09305439 -0.01032332 -0.05002638 -0.9986945</float_array>
          <technique_common>
            <accessor source="#Geometry-mesh008-normals-array" count="638" stride="3">
              <param name="X" type="float"/>
              <param name="Y" type="float"/>
              <param name="Z" type="float"/>
            </accessor>
          </technique_common>
        </source>
        <source id="Geometry-mesh008-Geometry-mesh008-uvSet1" name="Geometry-mesh008-Geometry-mesh008-uvSet1">
          <float_array id="Geometry-mesh008-Geometry-mesh008-uvSet1-array" count="944">0.995658 0.477808 0.990304 0.479057 0.969243 0.444651 0.995722 0.558836 0.9695 0.592137 0.990305 0.55763 0.933362 0.558423 0.933091 0.478502 0.939871 0.55841 0.9396 0.478471 0.084439 0.071748 0.081661 0.363958 0.079292 0.366292 0.082093 0.069254 0.9452 0.296229 0.901799 0.296317 0.945186 0.00783 0.901799 0.00775 0.050603 0.047449 0.450086 0.071437 0.846369 0.052268 0.006293 0.442789 0.002283 0.438138 0.807424 0.442191 0.803438 0.446803 0.935687 0.563401 0.946959 0.774912 0.99523 0.774911 0.946959 0.786373 0.995231 0.786371 0.405676 0.468865 0.406701 0.757897 0.404561 0.760035 0.403515 0.46656 0.995743 0.300591 0.95237 0.30036 0.995743 0.008367 0.952324 0.008607 0.896387 0.047607 0.896387 0.389582 0.855521 0.047553 0.855526 0.389646 0.995231 0.608245 0.946958 0.608245 0.003152 0.785284 0.007141 0.780665 0.935498 0.608244 0.935498 0.774914 0.77285 0.761355 0.7707 0.759207 0.769355 0.470748 0.771506 0.46846 0.084396 0.362493 0.084417 0.319105 0.443525 0.360981 0.443146 0.31758 -5.26e-4 0.392255 0.002602 0.042555 0.040334 0.392887 0.043446 0.042674 0.935418 0.473468 0.946959 0.596784 0.995231 0.596785 0.447714 0.073883 0.808933 0.788096 0.804919 0.783454 0.046376 0.042674 0.850638 0.047553 0.887227 0.608242 0.887226 0.774917 0.44626 0.362446 0.448625 0.364769 0.850643 0.389646 0.846365 0.384928 0.046697 3.65e-4 0.850801 0.005245 0.046376 0.04121 0.850638 0.046088 0.043263 0.392887 0.04753 0.388138 0.087069 0.117102 0.087163 0.073701 0.444571 0.119219 0.444988 0.075836 0.043525 0.436666 0.043263 0.395817 0.850732 0.433416 0.850643 0.392576 0.995658 0.477808 0.990304 0.479057 0.969243 0.444651 0.995722 0.558836 0.9695 0.592137 0.990305 0.55763 0.995658 0.477808 0.990304 0.479057 0.969243 0.444651 0.995722 0.558836 0.9695 0.592137 0.990305 0.55763 0.995658 0.477808 0.990304 0.479057 0.969243 0.444651 0.995722 0.558836 0.9695 0.592137 0.990305 0.55763 0.995658 0.477808 0.990304 0.479057 0.969243 0.444651 0.995722 0.558836 0.9695 0.592137 0.990305 0.55763 0.995658 0.477808 0.969243 0.444651 0.990304 0.479057 0.995722 0.558836 0.990305 0.55763 0.9695 0.592137 0.990305 0.55763 0.939871 0.55841 0.9695 0.592137 0.990305 0.55763 0.995722 0.558836 0.995658 0.477808 0.990304 0.479057 0.990305 0.55763 0.939871 0.55841 0.935687 0.563401 0.9695 0.592137 0.990305 0.55763 0.995722 0.558836 0.995658 0.477808 0.990304 0.479057 0.946959 0.774912 0.946959 0.786373 0.995231 0.786371 0.99523 0.774911 0.9695 0.592137 0.935687 0.563401 0.939871 0.55841 0.990305 0.55763 0.946959 0.774912 0.99523 0.774911 0.933362 0.558423 0.939871 0.55841 0.9396 0.478471 0.933091 0.478502 0.946958 0.608245 0.933362 0.558423 0.939871 0.55841 0.9396 0.478471 0.933091 0.478502 0.946958 0.608245 0.935498 0.608244 0.935498 0.774914 0.946959 0.774912 0.946959 0.774912 0.946959 0.786373 0.995231 0.786371 0.99523 0.774911 0.969243 0.444651 0.9396 0.478471 0.990304 0.479057 0.939871 0.55841 0.990305 0.55763 0.990304 0.479057 0.9396 0.478471 0.946958 0.608245 0.995231 0.608245 0.969243 0.444651 0.935418 0.473468 0.9396 0.478471 0.990304 0.479057 0.939871 0.55841 0.990305 0.55763 0.990304 0.479057 0.9396 0.478471 0.946958 0.608245 0.995231 0.608245 0.995231 0.596785 0.946959 0.596784 0.990304 0.479057 0.9396 0.478471 0.935418 0.473468 0.969243 0.444651 0.935687 0.563401 0.935498 0.608244 0.935498 0.774914 0.946959 0.774912 0.995231 0.608245 0.946958 0.608245 0.946959 0.774912 0.99523 0.774911 0.995231 0.608245 0.946958 0.608245 0.946959 0.774912 0.99523 0.774911 0.887227 0.608242 0.887226 0.774917 0.935498 0.774914 0.935498 0.608244 0.995231 0.608245 0.99523 0.774911 0.946959 0.774912 0.946958 0.608245 0.935418 0.473468 0.887227 0.608242 0.887226 0.774917 0.935498 0.774914 0.935498 0.608244 0.933362 0.558423 0.939871 0.55841 0.9396 0.478471 0.933091 0.478502 0.946958 0.608245 0.935498 0.608244 0.935498 0.774914 0.946959 0.774912 0.933362 0.558423 0.939871 0.55841 0.9396 0.478471 0.933091 0.478502 0.946958 0.608245 0.935498 0.608244 0.935498 0.774914 0.946959 0.774912 0.933362 0.558423 0.933091 0.478502 0.9396 0.478471 0.939871 0.55841 0.946958 0.608245 0.946959 0.774912 0.935498 0.774914 0.935498 0.608244 0.995231 0.596785 0.946959 0.596784 0.990305 0.55763 0.995722 0.558836 0.995658 0.477808 0.990304 0.479057 0.946959 0.774912 0.946959 0.786373 0.995231 0.786371 0.99523 0.774911 0.990305 0.55763 0.939871 0.55841 0.935687 0.563401 0.9695 0.592137 0.990305 0.55763 0.995722 0.558836 0.995658 0.477808 0.990304 0.479057 0.946959 0.774912 0.946959 0.786373 0.995231 0.786371 0.99523 0.774911 0.990305 0.55763 0.939871 0.55841 0.935687 0.563401 0.9695 0.592137 0.990305 0.55763 0.990304 0.479057 0.995658 0.477808 0.995722 0.558836 0.946959 0.774912 0.99523 0.774911 0.995231 0.786371 0.946959 0.786373 0.939871 0.55841 0.990305 0.55763 0.990304 0.479057 0.9396 0.478471 0.946958 0.608245 0.995231 0.608245 0.995231 0.596785 0.946959 0.596784 0.969243 0.444651 0.935418 0.473468 0.9396 0.478471 0.990304 0.479057 0.939871 0.55841 0.990305 0.55763 0.990304 0.479057 0.9396 0.478471 0.946958 0.608245 0.995231 0.608245 0.995231 0.596785 0.946959 0.596784 0.969243 0.444651 0.935418 0.473468 0.9396 0.478471 0.990304 0.479057 0.939871 0.55841 0.9396 0.478471 0.990304 0.479057 0.990305 0.55763 0.946958 0.608245 0.946959 0.596784 0.995231 0.596785 0.995231 0.608245 0.887227 0.608242 0.887226 0.774917 0.935498 0.774914 0.935498 0.608244 0.995231 0.608245 0.946958 0.608245 0.935498 0.608244 0.935498 0.774914 0.887226 0.774917 0.887227 0.608242 0.995231 0.608245 0.946958 0.608245 0.946959 0.774912 0.99523 0.774911 0.887227 0.608242 0.935498 0.608244 0.935498 0.774914 0.887226 0.774917 0.9343498 0.296251 0.4446753 0.1083733 0.9343393 0.007809999 0.4432407 0.3284302 0.9631788 0.008547001 0.08441175 0.329952 0.9632132 0.3004177 0.0870925 0.1062517 0.9126493 0.296295 0.4448838 0.08668175 0.9126458 0.00777 0.4434302 0.3501307 0.9848882 0.008427 0.08440125 0.351646 0.9848998 0.3005332 0.0871395 0.08455124 0.9072242 0.296306 0.4449359 0.08125888 0.9072224 0.00776 0.4434776 0.3555559 0.9903156 0.008397 0.08439863 0.3570695 0.9903214 0.3005621 0.08715125 0.07912612 0.9397749 0.29624 0.4446231 0.1137961 0.9397627 0.007819999 0.4431934 0.3230051 0.9577514 0.008577 0.08441438 0.3245285 0.9577916 0.3003889 0.08708075 0.1116769 0.1593155 0.06971209 0.159558 0.04810881 0.1577877 0.001039194 0.6961901 0.441631 0.6960036 0.446262 0.1597612 0.3621757 0.1581741 0.3636407 0.6958703 0.7589377 0.1581633 0.3187915 0.1612141 0.07414284 0.1596179 0.07218984 0.6959935 0.4680701 0.1589565 0.04335696 0.1589565 0.04189282 0.1578717 0.365968 0.6956486 0.4703664 0.1595236 0.1175311 0.6962033 0.7610803 0.6961665 0.7830738 0.6963496 0.7877032 0.1563078 0.4362119 0.1575436 0.3953582 0.1575436 0.3924282 0.1581396 0.3876935 0.1617832 0.3296239 0.1631719 0.1067031 0.1625422 0.3513162 0.163977 0.08500884 0.1595613 0.3567527 0.1610026 0.07956635 0.1583629 0.3242145 0.1597347 0.1121075 0.3467368 0.3613885 0.3479977 0.3628535 0.5054406 0.7582524 0.345836 0.3179937 0.3483311 0.3651826 0.5052733 0.7603959 0.3390958 0.3288719 0.3395253 0.3505692 0.3466242 0.3559642 0.3459485 0.323418 0.3495066 0.07084034 0.3494327 0.04925865 0.3488881 0.002198957 0.5048432 0.4406678 0.5047916 0.4452991 0.3479211 0.07525684 0.3491687 0.07330384 0.5047952 0.4670829 0.3492287 0.04451124 0.3492287 0.04304686 0.5049692 0.4693791 0.3469642 0.118641 0.5052888 0.7824065 0.5053479 0.7870365 0.3476474 0.4354415 0.3480551 0.3945935 0.3480551 0.3916635 0.3482599 0.3869295 0.3402723 0.1077538 0.3407305 0.08606148 0.3478014 0.08067986 0.3470838 0.113218 0.995743 0.06105718 0.0821619 0.3112704 0.07980679 0.3117002 0.9451884 0.0569429 0.4065264 0.7086763 0.4465148 0.3118682 0.901799 0.05832852 0.4043797 0.7091558 0.7704642 0.7086322 0.9523321 0.05975937 0.8506419 0.3137886 0.8555249 0.3137886 0.7726102 0.7091051 0.8085902 0.7095242 1.84521e-4 0.3128211 0.04105317 0.3119543 0.0439824 0.3119543 0.804592 0.7091233 0.8463659 0.3130666 0.04822293 0.3113157 0.4488862 0.3123317 0.9343412 0.06093884 0.9631853 0.06380013 0.9126465 0.06160466 0.9848904 0.06442363 0.9072227 0.05815525 0.9903166 0.0608947 0.9397647 0.05711599 0.9577584 0.05992134 0.8506392 0.1335405 0.8555223 0.1335405 0.8078077 0.5301455 0.001806633 0.1314744 0.04264807 0.1324699 0.04557782 0.1324699 0.8038063 0.5305234 0.846368 0.1341387 0.049831 0.1330372 0.9343475 0.2336033 0.9126485 0.2332565 0.9072238 0.236439 0.9397724 0.2369805 0.995743 0.2390689 0.08385415 0.1332671 0.08149281 0.1329021 0.9451971 0.2370707 0.4058863 0.5281532 0.4474118 0.1338505 0.901799 0.2363486 0.4037333 0.5277943 0.7696345 0.5307022 0.9523605 0.2397212 0.7717901 0.5303673 0.4497769 0.1334958 0.9632056 0.2362195 0.9848971 0.235906 0.9903202 0.2391506 0.9577832 0.2396398</float_array>
          <technique_common>
            <accessor source="#Geometry-mesh008-Geometry-mesh008-uvSet1-array" count="472" stride="2">
              <param name="S" type="float"/>
              <param name="T" type="float"/>
            </accessor>
          </technique_common>
        </source>
        <vertices id="Geometry-mesh008-vertices" name="Geometry-mesh008-vertices">
          <input semantic="POSITION" source="#Geometry-mesh008-positions"/>
        </vertices>
        <triangles material="blinn1SG" count="412">
          <input semantic="VERTEX" source="#Geometry-mesh008-vertices" offset="0"/>
          <input semantic="NORMAL" source="#Geometry-mesh008-normals" offset="1"/>
          <input semantic="TEXCOORD" source="#Geometry-mesh008-Geometry-mesh008-uvSet1" offset="2" set="0"/>
          <p>6 0 0 10 1 1 12 2 2 9 3 3 13 4 4 11 5 5 52 6 88 56 7 89 58 8 90 55 9 91 59 10 92 57 11 93 70 12 94 74 13 95 76 14 96 73 15 97 77 16 98 75 17 99 88 18 100 92 19 101 94 20 102 91 21 103 95 22 104 93 23 105 106 24 106 110 25 107 112 26 108 109 27 109 113 28 110 111 29 111 124 30 112 130 31 113 128 32 114 127 33 115 129 34 116 131 35 117 8 36 8 5 37 6 7 39 9 7 39 9 5 37 6 4 38 7 236 41 457 237 42 458 23 40 10 23 40 10 237 42 458 22 43 13 16 44 16 206 45 417 153 47 344 153 47 344 206 45 417 224 46 441 29 48 19 188 49 392 189 50 393 34 52 22 190 53 395 49 51 21 49 51 21 190 53 395 191 54 396 57 56 118 59 57 120 54 55 119 54 55 119 59 57 120 51 58 25 73 59 122 75 60 121 70 62 123 70 62 123 75 60 121 74 61 124 84 64 26 85 65 27 80 63 28 80 63 28 85 65 27 81 66 29 93 68 125 95 69 128 90 67 126 90 67 126 95 69 128 87 70 127 109 71 130 111 72 129 106 74 131 106 74 131 111 72 129 110 73 132 120 76 133 121 77 136 116 75 134 116 75 134 121 77 136 117 78 135 123 79 138 131 80 137 126 82 139 126 82 139 131 80 137 129 81 140 11 83 5 8 84 8 10 86 1 10 86 1 8 84 8 7 85 9 238 88 460 240 89 463 27 87 30 27 87 30 240 89 463 26 90 33 225 92 442 209 93 423 154 91 346 154 91 346 209 93 423 18 94 37 226 95 444 35 96 39 210 97 425 43 98 43 42 99 42 44 101 141 44 101 141 42 99 42 45 100 142 48 102 45 35 103 44 49 105 21 49 105 21 35 103 44 34 104 22 72 106 144 69 107 143 71 109 145 71 109 145 69 107 143 68 108 146 79 110 46 83 111 147 80 113 47 80 113 47 83 111 147 84 112 26 108 114 149 105 115 148 107 117 150 107 117 150 105 115 148 104 116 151 115 118 153 119 119 152 116 121 154 116 121 154 119 119 152 120 120 155 19 122 48 18 94 49 211 123 426 211 123 426 18 94 49 209 93 422 153 124 345 187 125 391 16 127 55 16 127 55 187 125 391 181 126 385 31 129 56 212 130 428 33 128 58 33 128 58 212 130 428 213 131 429 44 133 156 45 134 159 40 132 157 40 132 157 45 134 159 41 135 158 48 136 45 208 137 421 17 138 32 50 139 60 58 140 160 53 142 161 53 142 161 58 140 160 56 141 162 75 143 164 72 144 163 74 146 165 74 146 165 72 144 163 71 145 166 83 148 167 79 149 61 82 147 168 82 147 168 79 149 61 78 150 62 86 151 170 94 152 169 89 154 171 89 154 171 94 152 169 92 153 172 111 155 174 108 156 173 110 158 175 110 158 175 108 156 173 107 157 176 119 160 177 115 161 180 118 159 178 118 159 178 115 161 180 114 162 179 128 164 181 130 165 184 125 163 182 125 163 182 130 165 184 122 166 183 11 168 5 13 169 4 8 167 8 8 167 8 13 169 4 5 170 185 22 172 13 156 173 350 23 171 10 23 171 10 156 173 350 162 174 360 30 176 23 227 177 445 0 175 24 0 175 24 227 177 445 229 178 449 39 179 186 43 180 43 40 182 187 40 182 187 43 180 43 44 181 188 0 183 24 25 184 51 159 186 354 159 186 354 25 184 51 163 185 361 32 188 66 164 189 362 2 187 18 2 187 18 164 189 362 157 190 351 65 191 190 64 192 189 66 194 191 66 194 191 64 192 189 67 193 192 81 195 69 78 196 68 80 198 47 80 198 47 78 196 68 79 197 46 101 199 194 100 200 193 102 202 195 102 202 195 100 200 193 103 201 196 117 203 198 114 204 197 116 206 199 116 206 199 114 204 197 115 205 200 139 207 202 136 208 201 138 210 203 138 210 203 136 208 201 137 209 204 4 211 205 12 212 2 7 214 9 7 214 9 12 212 2 10 213 1 15 216 71 182 217 386 14 215 70 14 215 70 182 217 386 180 218 383 0 219 24 229 220 449 25 222 51 25 222 51 229 220 449 242 221 466 41 223 207 38 224 206 40 226 208 40 226 208 38 224 206 39 225 209 36 228 67 226 229 443 46 227 20 46 227 20 226 229 443 230 230 450 32 231 76 30 232 74 164 234 363 164 234 363 30 232 74 158 233 352 54 235 211 51 236 210 53 238 212 53 238 212 51 236 210 50 237 213 61 239 215 65 240 214 62 242 216 62 242 216 65 240 214 66 241 217 90 243 219 87 244 218 89 246 220 89 246 220 87 244 218 86 245 221 97 247 223 101 248 222 98 250 224 98 250 224 101 248 222 102 249 225 122 251 227 123 252 226 125 254 228 125 254 228 123 252 226 126 253 229 138 255 231 137 256 230 134 258 232 134 258 232 137 256 230 133 257 233 26 260 33 193 261 399 27 259 30 27 259 30 193 261 399 195 262 402 33 264 78 213 265 430 3 263 79 3 263 79 213 265 430 216 266 433 43 268 43 39 269 235 42 267 42 42 267 42 39 269 235 38 270 234 17 138 32 196 271 404 48 136 45 31 273 64 169 274 369 1 272 65 1 272 65 169 274 369 168 275 368 55 276 237 57 277 236 52 279 238 52 279 238 57 277 236 56 278 239 66 281 240 67 282 243 62 280 241 62 280 241 67 282 243 63 283 242 75 285 244 77 286 247 72 284 245 72 284 245 77 286 247 69 287 246 91 288 249 93 289 248 88 291 250 88 291 250 93 289 248 92 290 251 102 293 252 103 294 255 98 292 253 98 292 253 103 294 255 99 295 254 111 297 256 113 298 259 108 296 257 108 296 257 113 298 259 105 299 258 128 300 261 129 301 260 124 303 262 124 303 262 129 301 260 127 302 263 138 305 264 134 306 267 139 304 265 139 304 265 134 306 267 135 307 266 19 309 48 167 310 367 18 308 49 18 308 49 167 310 367 161 311 357 3 312 79 216 313 433 20 315 12 20 315 12 216 313 433 205 314 416 230 317 450 243 318 467 46 316 20 46 316 20 243 318 467 29 48 19 37 320 72 198 321 408 47 319 73 47 319 73 198 321 408 199 322 409 57 323 269 54 324 268 56 326 270 56 326 270 54 324 268 53 325 271 65 328 272 61 329 275 64 327 273 64 327 273 61 329 275 60 330 274 68 331 277 76 332 276 71 334 278 71 334 278 76 332 276 74 333 279 93 335 281 90 336 280 92 338 282 92 338 282 90 336 280 89 337 283 101 340 284 97 341 287 100 339 285 100 339 285 97 341 287 96 342 286 104 343 289 112 344 288 107 346 290 107 346 290 112 344 288 110 345 291 125 347 293 126 348 292 128 350 294 128 350 294 126 348 292 129 349 295 137 352 296 136 353 299 133 351 297 133 351 297 136 353 299 132 354 298 9 355 3 11 356 5 6 358 0 6 358 0 11 356 5 10 357 1 15 359 71 14 360 70 217 362 434 217 362 434 14 360 70 207 361 419 195 364 403 203 365 413 27 363 82 27 363 82 203 365 413 152 366 343 47 367 73 199 368 409 15 369 71 35 370 86 197 371 406 37 373 87 37 373 87 197 371 406 198 372 407 63 374 301 60 375 300 62 377 302 62 377 302 60 375 300 61 376 303 83 378 305 82 379 304 84 381 26 84 381 26 82 379 304 85 380 27 97 382 306 98 383 307 96 385 309 96 385 309 98 383 307 99 384 308 119 386 311 118 387 310 120 389 312 120 389 312 118 387 310 121 388 313 133 390 315 132 391 314 134 393 316 134 393 316 132 391 314 135 392 317 218 395 435 220 396 437 141 394 320 141 394 320 220 396 437 145 397 328 142 399 323 172 400 374 146 398 331 146 398 331 172 400 374 174 401 376 143 402 324 244 403 468 147 405 332 147 405 332 244 403 468 245 404 469 144 406 327 140 407 319 201 409 411 201 409 411 140 407 319 200 408 410 145 410 328 220 411 437 149 413 336 149 413 336 220 411 437 222 412 439 186 415 390 185 416 389 149 414 337 149 414 337 185 416 389 145 417 329 223 419 440 221 420 438 150 418 338 150 418 338 221 420 438 146 421 330 144 422 327 201 423 411 148 425 335 148 425 335 201 423 411 202 424 412 222 427 439 207 428 420 149 426 336 149 426 336 207 428 420 14 429 17 180 431 382 186 432 390 14 430 54 14 430 54 186 432 390 149 433 337 204 435 414 223 436 440 21 434 36 21 434 36 223 436 440 150 437 338 148 438 335 202 439 412 28 441 83 28 441 83 202 439 412 192 440 397 224 443 441 218 444 435 153 442 344 153 442 344 218 444 435 141 445 320 141 446 321 184 447 388 153 449 345 153 449 345 184 447 388 187 448 391 142 450 322 219 451 436 154 91 346 154 91 346 219 451 436 225 92 442 203 453 413 200 454 410 152 452 343 152 452 343 200 454 410 140 455 319 156 457 350 22 458 13 157 456 351 157 456 351 22 458 13 2 459 18 159 460 354 158 461 353 0 463 24 0 463 24 158 461 353 30 462 23 178 465 380 154 466 347 161 464 358 161 464 358 154 466 347 18 467 53 162 174 360 156 173 350 192 469 398 192 469 398 156 173 350 188 468 392 163 185 361 193 470 399 159 186 354 159 186 354 193 470 399 191 471 396 164 189 362 194 472 400 157 190 351 157 190 351 194 472 400 189 473 393 165 475 364 20 476 12 160 474 356 160 474 356 20 476 12 21 477 11 158 233 352 190 478 394 164 234 363 164 234 363 190 478 394 194 479 401 166 480 365 163 481 361 24 483 50 24 483 50 163 481 361 25 482 51 167 485 367 19 486 48 168 484 368 168 484 368 19 486 48 1 487 65 168 275 368 169 274 369 196 489 404 196 489 404 169 274 369 197 488 405 167 310 367 183 490 387 161 311 357 161 311 357 183 490 387 181 491 384 171 492 373 170 493 372 3 495 79 3 495 79 170 493 372 33 494 78 179 496 381 166 497 366 155 499 349 155 499 349 166 497 366 24 498 80 165 500 364 171 501 373 20 503 12 20 503 12 171 501 373 3 502 79 170 504 371 169 505 370 33 507 85 33 507 85 169 505 370 31 506 84 174 401 376 172 400 374 185 509 389 185 509 389 172 400 374 184 508 388 175 510 377 173 511 375 147 513 333 147 513 333 173 511 375 143 512 325 176 515 378 150 516 339 174 514 376 174 514 376 150 516 339 146 517 331 177 518 379 175 519 377 151 521 341 151 521 341 175 519 377 147 520 333 160 523 355 21 524 52 176 522 378 176 522 378 21 524 52 150 525 339 162 526 359 177 527 379 23 529 81 23 529 81 177 527 379 151 528 341 178 530 380 172 531 374 154 533 347 154 533 347 172 531 374 142 532 323 179 535 381 155 536 349 173 534 375 173 534 375 155 536 349 143 537 325 188 49 392 156 457 350 189 50 393 189 50 393 156 457 350 157 456 351 190 53 395 158 461 353 191 54 396 191 54 396 158 461 353 159 460 354 187 125 391 178 465 380 181 126 385 181 126 385 178 465 380 161 464 358 180 218 383 182 217 386 160 474 356 160 474 356 182 217 386 165 475 364 195 262 402 193 261 399 166 480 365 166 480 365 193 261 399 163 481 361 196 271 404 183 538 387 168 484 368 168 484 368 183 538 387 167 485 367 198 321 408 170 493 372 199 322 409 199 322 409 170 493 372 171 492 373 203 365 413 195 364 403 179 496 381 179 496 381 195 364 403 166 497 366 182 539 386 199 368 409 165 500 364 165 500 364 199 368 409 171 501 373 197 371 406 169 505 370 198 372 407 198 372 407 169 505 370 170 504 371 201 409 411 200 408 410 175 510 377 175 510 377 200 408 410 173 511 375 185 416 389 186 415 390 174 514 376 174 514 376 186 415 390 176 515 378 202 424 412 201 423 411 177 518 379 177 518 379 201 423 411 175 519 377 186 432 390 180 431 382 176 522 378 176 522 378 180 431 382 160 523 355 192 440 397 202 439 412 162 526 359 162 526 359 202 439 412 177 527 379 184 447 388 172 531 374 187 448 391 187 448 391 172 531 374 178 530 380 200 454 410 203 453 413 173 534 375 173 534 375 203 453 413 179 535 381 192 469 398 188 468 392 28 541 63 28 541 63 188 468 392 29 540 19 191 471 396 26 542 33 49 543 21 189 473 393 194 472 400 46 545 20 46 545 20 194 472 400 36 544 67 190 478 394 34 546 75 194 479 401 194 479 401 34 546 75 36 547 77 196 489 404 197 488 405 48 549 45 48 549 45 197 488 405 35 548 44 181 491 384 183 490 387 16 551 31 16 551 31 183 490 387 17 550 32 185 509 389 184 508 388 145 553 329 145 553 329 184 508 388 141 552 321 205 554 416 204 555 415 20 557 12 20 557 12 204 555 415 21 556 11 206 45 417 238 558 459 224 46 441 224 46 441 238 558 459 235 559 455 206 561 418 16 562 31 208 560 421 208 560 421 16 562 31 17 563 32 209 93 423 225 92 442 241 565 465 241 565 465 225 92 442 247 564 471 210 97 425 35 96 39 37 566 41 211 123 426 209 93 422 242 568 466 242 568 466 209 93 422 241 567 464 213 131 429 212 130 428 228 570 447 228 570 447 212 130 428 227 569 446 214 571 431 212 572 427 1 574 65 1 574 65 212 572 427 31 573 64 211 123 426 214 575 431 19 122 48 19 122 48 214 575 431 1 576 65 215 577 432 210 578 424 47 580 73 47 580 73 210 578 424 37 579 72 216 266 433 213 265 430 231 582 451 231 582 451 213 265 430 228 581 448 205 314 416 216 313 433 237 584 458 237 584 458 216 313 433 231 583 451 215 586 432 47 367 73 217 585 434 217 585 434 47 367 73 15 369 71 207 361 419 239 587 461 217 362 434 217 362 434 239 587 461 243 588 467 218 395 435 232 589 452 220 396 437 220 396 437 232 589 452 233 590 453 221 591 438 219 592 436 146 594 330 146 594 330 219 592 436 142 593 322 222 412 439 220 411 437 234 596 454 234 596 454 220 411 437 233 595 453 223 419 440 246 597 470 221 420 438 221 420 438 246 597 470 245 598 469 222 427 439 234 599 454 207 428 420 207 428 420 234 599 454 239 600 462 223 436 440 204 435 414 246 602 470 246 602 470 204 435 414 236 601 456 218 444 435 224 443 441 232 604 452 232 604 452 224 443 441 235 603 455 225 92 442 219 451 436 247 606 471 247 606 471 219 451 436 244 605 468 237 42 458 236 41 457 205 554 416 205 554 416 236 41 457 204 555 415 238 88 460 206 561 418 240 89 463 240 89 463 206 561 418 208 560 421 229 178 449 227 177 445 214 571 431 214 571 431 227 177 445 212 572 427 242 221 466 229 220 449 211 123 426 211 123 426 229 220 449 214 575 431 230 230 450 226 229 443 215 577 432 215 577 432 226 229 443 210 578 424 217 585 434 230 317 450 215 586 432 244 403 468 219 592 436 245 404 469 245 404 469 219 592 436 221 591 438 238 558 459 27 607 14 235 559 455 235 559 455 27 607 14 152 608 342 247 564 471 155 609 348 241 565 465 241 565 465 155 609 348 24 610 35 241 567 464 24 611 50 242 568 466 242 568 466 24 611 50 25 612 51 227 569 446 30 613 57 228 570 447 228 570 447 30 613 57 32 614 59 231 582 451 228 581 448 2 616 18 2 616 18 228 581 448 32 615 66 237 584 458 231 583 451 22 618 13 22 618 13 231 583 451 2 617 18 239 587 461 28 619 63 243 588 467 243 588 467 28 619 63 29 620 19 232 589 452 140 621 318 233 590 453 233 590 453 140 621 318 144 622 326 234 596 454 233 595 453 148 624 334 148 624 334 233 595 453 144 623 326 246 597 470 151 625 340 245 598 469 245 598 469 151 625 340 147 626 332 234 599 454 148 627 334 239 600 462 239 600 462 148 627 334 28 628 15 236 601 456 23 629 34 246 602 470 246 602 470 23 629 34 151 630 340 235 603 455 152 631 342 232 604 452 232 604 452 152 631 342 140 632 318 247 606 471 244 605 468 155 634 348 155 634 348 244 605 468 143 633 324 243 318 467 230 317 450 217 585 434 29 48 19 189 50 393 46 316 20 191 471 396 193 470 399 26 542 33 15 369 71 199 368 409 182 539 386 17 138 32 183 538 387 196 271 404 36 635 40 34 636 38 226 95 444 240 637 463 208 137 421 49 543 21 49 543 21 208 137 421 48 136 45 240 637 463 49 543 21 26 542 33 226 95 444 34 636 38 35 96 39</p>
        </triangles>
      </mesh>
      <extra>
        <technique profile="OpenCOLLADAMaya">
          <originalMayaNodeId>door_hatch_slide_ventilation</originalMayaNodeId>
          <double_sided>1</double_sided>
        </technique>
      </extra>
    </geometry>
  </library_geometries>
  <library_visual_scenes>
    <visual_scene id="VisualSceneNode" name="ventilations_hatch_broken">
      <node id="Geometry-mesh008Node" name="door_hatch_slide_ventilation" type="NODE">
        <translate sid="translate">0 0 0</translate>
        <rotate sid="rotateZ">0 0 1 0</rotate>
        <rotate sid="rotateY">0 1 0 0</rotate>
        <rotate sid="rotateX">1 0 0 0</rotate>
        <scale sid="scale">1 1 1</scale>
        <instance_geometry url="#Geometry-mesh008">
          <bind_material>
            <technique_common>
              <instance_material symbol="blinn1SG" target="#DDS">
                <bind_vertex_input semantic="TEX0" input_semantic="TEXCOORD" input_set="0"/>
              </instance_material>
            </technique_common>
          </bind_material>
        </instance_geometry>
        <extra>
          <technique profile="OpenCOLLADAMaya">
            <originalMayaNodeId>door_hatch_slide_ventilation</originalMayaNodeId>
          </technique>
        </extra>
      </node>
    </visual_scene>
  </library_visual_scenes>
  <scene>
    <instance_visual_scene url="#VisualSceneNode"/>
  </scene>
</COLLADA>