<?xml version="1.0" encoding="utf-8"?>
<COLLADA xmlns="http://www.collada.org/2005/11/COLLADASchema" version="1.4.1">
  <asset><contributor><author></author><authoring_tool>FBX COLLADA exporter</authoring_tool><comments></comments></contributor><created>2015-03-04T15:45:32Z</created><keywords></keywords><modified>2015-03-04T15:45:32Z</modified><revision></revision><subject></subject><title></title><unit meter="1.000000" name="centimeter"></unit><up_axis>Y_UP</up_axis></asset>
  <library_images>
    <image id="MapFBXASC032FBXASC0352-image" name="MapFBXASC032FBXASC0352"><init_from>file://F:\MaxScenes\scenes\ABP\Depth\111_Batch1-22-2015\drill_precision\drill_precision\station\drill_precision\drill_precision.dds</init_from></image>
  </library_images>
  <library_materials>
    <material id="Default_material" name="Default_material">
      <instance_effect url="#Default_material-fx"/>
    </material>
  </library_materials>
  <library_effects>
    <effect id="Default_material-fx" name="Default_material">
      <profile_COMMON>
        <technique sid="standard">
          <phong>
            <emission>
              <color sid="emission">0.000000  0.000000 0.000000 1.000000</color>
            </emission>
            <ambient>
              <color sid="ambient">0.588235  0.588235 0.588235 1.000000</color>
            </ambient>
            <diffuse>
              <texture texture="MapFBXASC032FBXASC0352-image" texcoord="CHANNEL0">
                <extra>
                  <technique profile="MAYA">
                    <wrapU sid="wrapU0">TRUE</wrapU>
                    <wrapV sid="wrapV0">TRUE</wrapV>
                    <blend_mode>NONE</blend_mode>
                  </technique>
                </extra>
              </texture>
            </diffuse>
            <specular>
              <color sid="specular">0.000000  0.000000 0.000000 1.000000</color>
            </specular>
            <shininess>
              <float sid="shininess">2.000000</float>
            </shininess>
            <reflective>
              <color sid="reflective">0.000000  0.000000 0.000000 1.000000</color>
            </reflective>
            <reflectivity>
              <float sid="reflectivity">1.000000</float>
            </reflectivity>
            <transparent opaque="RGB_ZERO">
              <color sid="transparent">0.000000  0.000000 0.000000 1.000000</color>
            </transparent>
            <transparency>
              <float sid="transparency">1.000000</float>
            </transparency>
          </phong>
        </technique>
      </profile_COMMON>
    </effect>
  </library_effects>
  <library_geometries>
    <geometry id="drill_precision-lib" name="drill_precisionMesh">
      <mesh>
        <source id="drill_precision-POSITION">
          <float_array id="drill_precision-POSITION-array" count="996">
0.472882 3.262934 11.352181
0.251615 3.526629 11.352181
-0.087386 3.586403 11.352181
-0.385498 3.414290 11.352181
-0.503230 3.090818 11.352181
-0.385498 2.767347 11.352181
-0.087386 2.595234 11.352181
0.251615 2.655008 11.352181
0.472882 2.918703 11.352181
0.472882 3.262934 19.977192
0.251615 3.526629 19.977192
-0.087386 3.586403 19.977192
-0.385498 3.414288 19.977192
-0.503230 3.090818 19.977192
-0.385498 2.767347 19.977190
-0.087386 2.595232 19.977192
0.251615 2.655008 19.977192
0.472882 2.918703 19.977192
0.000000 3.090818 20.288364
2.028932 3.090818 11.378986
1.906572 3.784754 11.378986
1.554251 4.394989 11.378986
1.014466 4.847924 11.378986
0.352321 5.088925 11.378986
-0.352321 5.088925 11.378986
-1.014466 4.847924 11.378986
-1.554251 4.394989 11.378986
-1.906572 3.784754 11.378986
-2.028932 3.090818 11.378986
-1.906572 2.396883 11.378986
-1.554251 1.786648 11.378986
-1.014466 1.333712 11.378985
-0.352321 1.092712 11.378985
0.352318 1.092712 11.378985
1.014463 1.333712 11.378985
1.554251 1.786645 11.378985
1.906572 2.396880 11.378986
2.028932 3.090818 11.545031
1.906572 3.784754 11.545031
1.554251 4.394989 11.545031
1.014466 4.847924 11.545032
0.352321 5.088925 11.545032
-0.352321 5.088925 11.545032
-1.014466 4.847924 11.545032
-1.554251 4.394989 11.545031
-1.906572 3.784754 11.545031
-2.028932 3.090818 11.545031
-1.906572 2.396883 11.545031
-1.554251 1.786648 11.545031
-1.014466 1.333712 11.545031
-0.352321 1.092712 11.545031
0.352318 1.092712 11.545031
1.014463 1.333712 11.545031
1.554251 1.786645 11.545031
1.906572 2.396880 11.545031
0.798226 3.090818 13.694852
0.750087 3.363827 13.694851
0.611477 3.603908 13.694852
0.399113 3.782102 13.694851
0.138610 3.876918 13.694852
-0.138610 3.876918 13.694852
-0.399113 3.782102 13.694851
-0.611477 3.603908 13.694852
-0.750087 3.363827 13.694851
-0.798226 3.090818 13.694852
-0.750087 2.817809 13.694852
-0.611477 2.577728 13.694851
-0.399113 2.399534 13.694852
-0.138610 2.304719 13.694851
0.138610 2.304719 13.694851
0.399113 2.399534 13.694852
0.611477 2.577728 13.694851
0.750087 2.817809 13.694852
0.000000 3.090818 13.694852
2.028932 3.090818 8.574161
1.906572 3.784754 8.574161
1.554251 4.394989 8.574162
1.014466 4.847924 8.574161
0.352321 5.088925 8.574161
-0.352321 5.088925 8.574161
-1.014466 4.847924 8.574161
-1.554251 4.394989 8.574162
-1.906572 3.784754 8.574161
-2.028932 3.090818 8.574161
-1.906572 2.396883 8.574161
-1.554251 1.786648 8.574162
-1.014466 1.333712 8.574161
-0.352321 1.092712 8.574161
0.352318 1.092712 8.574161
1.014463 1.333712 8.574161
1.554251 1.786645 8.574161
1.906572 2.396883 8.574161
1.906572 3.784754 11.453205
2.028932 3.090818 11.453205
1.554251 4.394989 11.453205
1.014466 4.847924 11.453205
0.352321 5.088924 11.453205
-0.352321 5.088924 11.453205
-1.014466 4.847924 11.453205
-1.554251 4.394989 11.453205
-1.906572 3.784754 11.453205
-2.028932 3.090818 11.453205
-1.906572 2.396883 11.453205
-1.554251 1.786648 11.453205
-1.014466 1.333712 11.453204
-0.352321 1.092712 11.453204
0.352318 1.092712 11.453204
1.014463 1.333712 11.453204
1.554251 1.786645 11.453204
1.906572 2.396880 11.453205
2.128932 3.090818 8.574161
2.000540 3.818958 8.574161
1.630855 4.459269 8.574161
1.064466 4.934525 8.574161
0.369684 5.187406 8.574161
-0.369684 5.187406 8.574161
-1.064466 4.934525 8.574161
-1.630858 4.459266 8.574161
-2.000542 3.818955 8.574161
-2.128932 3.090818 8.574161
-2.000542 2.362682 8.574161
-1.630855 1.722368 8.574161
-1.064468 1.247111 8.574161
-0.369684 0.994231 8.574161
0.369684 0.994231 8.574161
1.064466 1.247109 8.574161
1.630855 1.722365 8.574161
2.000542 2.362682 8.574161
2.000540 3.818957 11.453204
2.128932 3.090818 11.453205
2.000542 2.362682 11.453205
1.630855 1.722365 11.453204
1.064466 1.247108 11.453204
0.369684 0.994229 11.453205
-0.369684 0.994229 11.453205
-1.064468 1.247111 11.453204
-1.630855 1.722368 11.453204
-2.000542 2.362682 11.453205
-2.128932 3.090818 11.453205
-2.000542 3.818955 11.453204
-1.630858 4.459266 11.453205
-1.064466 4.934525 11.453205
-0.369684 5.187406 11.453205
0.369684 5.187406 11.453205
1.064466 4.934525 11.453205
1.630855 4.459269 11.453205
0.612328 3.735821 8.556373
-0.612318 3.735821 8.556373
-0.612318 2.684027 8.556370
0.612328 2.684027 8.556373
0.652038 5.643343 8.126202
-0.652028 5.643341 8.126202
-0.652028 0.776505 8.126204
0.652036 0.776505 8.126204
-2.433414 3.861957 8.126199
-2.433414 2.557891 8.126199
2.433422 2.557891 8.126204
2.433424 3.861955 8.126204
-1.781381 4.991310 8.126201
1.781391 4.991310 8.126201
1.781391 1.428536 8.126204
-1.781381 1.428536 8.126199
0.652038 5.643341 7.761706
-0.652028 5.643341 7.761706
-0.652028 0.776505 7.761706
0.652036 0.776505 7.761706
-2.433414 3.861957 7.761706
-2.433414 2.557891 7.761706
2.433422 2.557891 7.761706
2.433424 3.861955 7.761706
-1.781381 4.991310 7.761706
1.781391 4.991310 7.761706
1.781391 1.428536 7.761706
-1.781381 1.428536 7.761706
0.612127 5.494390 7.660731
-0.612117 5.494390 7.660731
-0.612117 0.925456 7.660731
0.612125 0.925456 7.660731
-2.284463 3.822044 7.660731
-2.284463 2.597802 7.660731
2.284471 2.597802 7.660731
2.284473 3.822044 7.660731
-1.672341 4.882270 7.660731
1.672351 4.882270 7.660731
1.672351 1.537575 7.660730
-1.672341 1.537575 7.660730
0.584878 5.379915 8.229608
-0.584868 5.379915 8.229608
-1.596504 4.795847 8.229605
-2.177839 3.788948 8.229602
-2.177839 2.630901 8.229602
-1.596504 1.623999 8.229602
-0.584868 1.039931 8.229607
0.584876 1.039931 8.229607
1.596514 1.623999 8.229608
2.177847 2.630900 8.229607
2.177847 3.788945 8.229607
1.596514 4.795847 8.229608
0.584876 5.379915 8.487758
-0.584868 5.379915 8.487758
-1.596504 4.795847 8.487752
-2.177839 3.788948 8.487749
-2.177839 2.630901 8.487749
-1.596504 1.623999 8.487750
-0.584868 1.039931 8.487758
0.584876 1.039931 8.487758
1.596514 1.623999 8.487758
2.177847 2.630900 8.487757
2.177847 3.788945 8.487757
1.596514 4.795847 8.487758
0.538028 5.206100 8.556370
-0.538020 5.206100 8.556370
-1.468623 4.668814 8.556368
-2.003395 3.742567 8.556365
-2.003395 2.677281 8.556365
-1.468623 1.751032 8.556365
-0.538018 1.213748 8.556371
0.538028 1.213748 8.556371
1.468633 1.751032 8.556370
2.003402 2.677281 8.556370
2.003402 3.742567 8.556370
1.468633 4.668814 8.556371
2.521725 1.105379 -20.033783
-2.812100 0.579335 -20.033783
2.521725 6.285707 -20.033783
-2.812100 6.810059 -20.033783
1.689186 1.411906 7.639883
-1.808427 1.411906 7.639877
1.687622 5.030985 7.644650
-1.806859 5.030985 7.644648
2.521727 1.105379 -10.616202
-2.533038 0.579335 -10.616197
-2.533038 6.810061 -10.616203
2.521727 6.285707 -10.616203
-3.905133 6.596351 -20.033783
-3.905133 0.794737 -20.033779
-3.905131 0.794737 -11.583292
-3.905131 6.596349 -11.583295
-2.247874 1.014607 4.584135
-2.247874 6.376481 4.584136
2.521727 6.285709 4.584136
2.521727 1.105379 4.584136
-2.952105 6.126263 -20.288363
-2.952105 1.310050 -20.288363
3.076072 4.577272 -20.033781
3.076072 2.813813 -20.033781
2.444049 2.545254 7.634158
2.376955 3.791132 7.722224
-2.443452 3.899631 7.639044
-2.376947 2.628716 7.722219
-2.981947 2.640288 -10.487054
-2.981947 4.750800 -10.487059
3.319531 4.577274 -10.616200
3.319531 2.813814 -10.616203
-4.230881 5.283445 -20.033781
-4.230881 2.107643 -20.033783
-4.230881 2.107643 -11.583298
-4.230881 5.283445 -11.583297
-2.812098 2.640288 4.584128
-2.812098 4.750800 4.584128
3.319534 4.577275 4.584136
3.319534 2.813814 4.584136
1.028939 0.327078 -20.033783
-0.744385 0.327078 -20.033783
-1.026356 6.979190 -20.033781
1.310907 6.979190 -20.033781
0.959927 5.668407 7.639689
-0.589186 5.585081 7.722222
-0.676011 0.776998 7.637403
0.873747 0.834765 7.722225
1.400995 0.327077 -10.616197
-1.116442 0.327077 -10.616197
-0.903163 6.979190 -10.616200
1.187719 6.979190 -10.616197
1.116447 0.327077 4.584136
-1.116439 0.327077 4.584133
-0.903163 6.979190 4.584133
1.187722 6.979193 4.584136
-1.031400 5.927795 -20.288361
1.460998 5.927795 -20.288364
1.460998 1.902294 -20.288361
-1.031400 1.902294 -20.288361
1.779682 2.685099 7.722224
0.293058 4.767152 7.722222
-1.495120 3.734746 7.722214
-0.008496 1.652696 7.722222
1.617327 1.519554 7.722227
-1.736567 1.519554 7.722219
1.617327 4.900294 7.722224
-1.736567 4.900294 7.722219
2.360841 2.533794 7.722224
2.443460 3.899631 7.639052
-2.360831 3.886054 7.722219
-2.444041 2.545257 7.634152
0.965190 5.542985 7.722224
-0.675366 5.668407 7.639687
-0.680629 0.876863 7.722225
0.960572 0.776998 7.637406
2.521727 1.105379 -17.745750
-2.672570 0.579335 -17.745750
-2.672570 6.810059 -17.745750
2.521727 6.285709 -17.745750
-3.905133 0.794737 -17.747503
-3.905133 6.596351 -17.747505
-4.230883 2.107643 -17.747505
-4.230883 5.283445 -17.747503
3.319531 4.577272 -17.745750
3.319531 2.813814 -17.745750
1.214966 0.327078 -17.745750
-0.930412 0.327078 -17.745750
-0.964761 6.979193 -17.745752
1.249312 6.979193 -17.745752
-2.976850 3.174511 4.869654
-3.728527 3.174511 1.375331
-2.976850 4.276892 4.869654
-3.728527 4.276892 1.375331
-2.976850 3.174511 3.122493
-2.976850 4.276892 3.122493
-2.541374 3.174511 1.375331
-2.472652 3.174511 4.869654
-2.472652 4.276892 4.869654
-2.541374 4.276892 1.375331
-2.472652 3.174511 3.122493
-2.472652 4.276892 3.122493
-2.714876 2.989213 4.946822
-2.714876 4.410409 4.946822
-2.714876 2.989213 1.305351
-2.714876 4.410409 1.305351
-2.908920 2.989213 1.305351
-2.908920 2.989213 4.946822
-2.908920 4.410409 4.946822
-2.908920 4.410409 1.305351
</float_array>
          <technique_common>
            <accessor source="#drill_precision-POSITION-array" count="332" stride="3">
              <param name="X" type="float"/>
              <param name="Y" type="float"/>
              <param name="Z" type="float"/>
            </accessor>
          </technique_common>
        </source>
        <source id="drill_precision-Normal0">
          <float_array id="drill_precision-Normal0-array" count="996">
0.939693 0.342020 -0.000000
0.499998 0.866027 -0.000000
-0.173646 0.984808 0.000000
-0.766045 0.642786 0.000000
-1.000000 -0.000000 0.000000
-0.766045 -0.642787 -0.000000
-0.173647 -0.984808 -0.000000
0.499998 -0.866027 -0.000000
0.939693 -0.342020 0.000000
0.938699 0.341658 0.045984
0.499469 0.865111 0.045984
-0.173467 0.983766 0.045985
-0.765235 0.642107 0.045985
-0.998942 0.000001 0.045985
-0.765236 -0.642105 0.045984
-0.173462 -0.983766 0.045985
0.499472 -0.865109 0.045985
0.938699 -0.341658 0.045985
0.000001 -0.000001 1.000000
1.000000 0.000000 0.000000
0.939692 0.342021 0.000000
0.766045 0.642787 0.000000
0.499998 0.866026 0.000000
0.173646 0.984808 0.000000
-0.173646 0.984808 0.000000
-0.499998 0.866026 0.000000
-0.766045 0.642787 0.000000
-0.939692 0.342021 0.000000
-1.000000 0.000000 0.000000
-0.939692 -0.342021 0.000000
-0.766043 -0.642789 0.000000
-0.500000 -0.866025 0.000000
-0.173649 -0.984808 0.000000
0.173649 -0.984808 0.000000
0.500000 -0.866026 0.000000
0.766042 -0.642791 0.000000
0.939692 -0.342021 0.000000
0.884544 -0.000000 0.466456
0.831998 0.299303 0.467116
0.677076 0.568134 0.467752
0.439231 0.767385 0.467116
0.153599 0.871106 0.466456
-0.150280 0.871332 0.467115
-0.439231 0.767385 0.467116
-0.677076 0.568134 0.467752
-0.831998 0.299303 0.467116
-0.884544 0.000000 0.466456
-0.831998 -0.299303 0.467116
-0.677076 -0.568134 0.467752
-0.439232 -0.767384 0.467115
-0.150281 -0.871332 0.467115
0.153600 -0.871106 0.466456
0.439230 -0.767386 0.467115
0.677074 -0.568136 0.467752
0.831998 -0.299303 0.467116
0.748738 0.000001 0.662866
0.721618 0.246020 0.647102
0.592312 0.497009 0.634151
0.367592 0.667934 0.647102
0.130019 0.737364 0.662865
-0.116979 0.753376 0.647102
-0.367592 0.667933 0.647102
-0.592312 0.497010 0.634151
-0.721618 0.246020 0.647102
-0.748738 0.000001 0.662866
-0.721617 -0.246021 0.647103
-0.592312 -0.497010 0.634150
-0.367590 -0.667934 0.647103
-0.116975 -0.753376 0.647102
0.130015 -0.737364 0.662865
0.367590 -0.667934 0.647103
0.592312 -0.497011 0.634151
0.721617 -0.246021 0.647103
-0.000000 -0.000000 1.000000
0.000000 0.000000 -1.000000
0.000000 0.000001 -1.000000
-0.000012 -0.000006 -1.000000
-0.000000 -0.000000 -1.000000
-0.000002 0.000000 -1.000000
-0.000001 0.000000 -1.000000
0.000002 -0.000000 -1.000000
0.000013 -0.000005 -1.000000
-0.000006 -0.000000 -1.000000
-0.000000 0.000000 -1.000000
-0.000001 0.000000 -1.000000
0.000010 0.000005 -1.000000
0.000002 0.000000 -1.000000
0.000000 0.000000 -1.000000
-0.000002 0.000000 -1.000000
-0.000000 0.000000 -1.000000
0.000006 0.000000 -1.000000
0.000001 0.000000 -1.000000
0.000000 0.000004 1.000000
0.000001 0.000000 1.000000
0.000005 -0.000000 1.000000
-0.000003 0.000000 1.000000
0.000000 0.000000 1.000000
0.000000 0.000000 1.000000
0.000000 0.000000 1.000000
0.000003 0.000000 1.000000
-0.000005 0.000003 1.000000
-0.000001 0.000000 1.000000
-0.000007 -0.000001 1.000000
-0.000006 -0.000006 1.000000
0.000005 -0.000000 1.000000
0.000001 0.000009 1.000000
-0.000003 0.000009 1.000000
0.000000 0.000000 1.000000
-0.000003 -0.000001 1.000000
0.000007 -0.000001 1.000000
0.999544 0.000002 -0.030206
0.939264 0.341865 -0.030206
0.765679 0.642482 -0.030860
0.499772 0.865630 -0.030206
0.173569 0.984358 -0.030206
-0.173570 0.984358 -0.030206
-0.499782 0.865647 -0.029552
-0.765694 0.642495 -0.030206
-0.939245 0.341857 -0.030860
-0.999544 0.000000 -0.030206
-0.939264 -0.341865 -0.030206
-0.765695 -0.642494 -0.030206
-0.499782 -0.865647 -0.029552
-0.173569 -0.984358 -0.030207
0.173564 -0.984339 -0.030860
0.499770 -0.865631 -0.030207
0.765710 -0.642506 -0.029552
0.939264 -0.341864 -0.030206
0.939264 0.341865 0.030206
0.999544 0.000002 0.030206
0.939264 -0.341864 0.030206
0.765710 -0.642507 0.029552
0.499771 -0.865631 0.030206
0.173566 -0.984339 0.030860
-0.173570 -0.984358 0.030206
-0.499782 -0.865647 0.029552
-0.765695 -0.642494 0.030206
-0.939264 -0.341865 0.030206
-0.999544 -0.000000 0.030206
-0.939245 0.341857 0.030860
-0.765694 0.642495 0.030206
-0.499782 0.865647 0.029552
-0.173569 0.984358 0.030206
0.173569 0.984358 0.030206
0.499772 0.865631 0.030206
0.765679 0.642482 0.030860
0.000001 0.000001 1.000000
-0.000003 0.000000 1.000000
-0.000003 -0.000001 1.000000
0.000000 -0.000001 1.000000
0.230363 0.861254 0.452962
-0.233974 0.866921 0.440119
-0.230364 -0.861253 0.452963
0.233973 -0.866921 0.440119
-0.871777 0.231921 0.431530
-0.877552 -0.235726 0.417535
0.877554 -0.235726 0.417531
0.871777 0.231920 0.431530
-0.637166 0.635515 0.436051
0.637167 0.635516 0.436048
0.637166 -0.635516 0.436050
-0.637165 -0.635514 0.436054
0.248302 0.926673 -0.282175
-0.250057 0.927948 -0.276378
-0.247417 -0.928655 -0.276377
0.249170 -0.929918 -0.270492
-0.928654 0.247418 -0.276380
-0.927947 -0.250058 -0.276379
0.929918 -0.249171 -0.270492
0.928655 0.247417 -0.276377
-0.680530 0.678597 -0.276378
0.680531 0.678596 -0.276378
0.678373 -0.678373 -0.282169
-0.678598 -0.680528 -0.276379
0.141785 0.529149 -0.836600
-0.145915 0.528037 -0.836592
-0.137650 -0.530253 -0.836591
0.141784 -0.529150 -0.836599
-0.530249 0.137649 -0.836593
-0.528036 -0.145917 -0.836592
0.529148 -0.141785 -0.836600
0.530247 0.137650 -0.836595
-0.390389 0.384335 -0.836590
0.390389 0.384335 -0.836590
0.387368 -0.387365 -0.836597
-0.384343 -0.390386 -0.836588
0.193890 0.722330 0.663812
-0.199582 0.731319 0.652181
-0.540883 0.535415 0.648673
-0.739377 0.194297 0.644648
-0.749533 -0.200692 0.630812
-0.540881 -0.535413 0.648676
-0.193891 -0.722330 0.663811
0.199581 -0.731317 0.652183
0.540881 -0.535417 0.648673
0.749537 -0.200692 0.630807
0.739378 0.194296 0.644647
0.540883 0.535420 0.648669
0.232863 0.875607 0.423188
-0.235635 0.879876 0.412668
-0.639079 0.641960 0.423634
-0.869939 0.233536 0.434358
-0.874226 -0.236310 0.424130
-0.639080 -0.641961 0.423631
-0.235633 -0.879875 0.412671
0.232865 -0.875605 0.423189
0.639077 -0.641962 0.423633
0.874227 -0.236309 0.424129
0.869942 0.233533 0.434353
0.639076 0.641963 0.423634
0.014527 0.056608 0.998291
-0.014135 0.052827 0.998504
-0.045241 0.046270 0.997904
-0.060587 0.016286 0.998030
-0.058739 -0.016433 0.998138
-0.045240 -0.046269 0.997904
-0.014135 -0.052826 0.998504
0.014528 -0.056608 0.998291
0.045236 -0.046268 0.997904
0.058734 -0.016431 0.998138
0.060584 0.016285 0.998030
0.045236 0.046268 0.997904
0.702465 -0.585480 -0.404668
-0.122141 -0.917710 -0.378008
0.744043 0.566434 -0.354335
-0.114731 0.948985 -0.293707
0.735077 -0.637371 0.231127
-0.728290 -0.658196 0.190715
0.708880 0.583413 0.396382
-0.700396 0.621519 0.350940
0.791752 -0.610843 -0.000000
-0.647245 -0.759576 0.064178
-0.588731 0.805940 0.062108
0.748295 0.663366 0.000520
-0.710924 0.642416 -0.286162
-0.709593 -0.642438 -0.289398
-0.610595 -0.779292 0.140990
-0.610014 0.779758 0.140922
-0.806066 -0.590615 0.037841
-0.751412 0.656231 0.068851
0.743664 0.664502 0.073498
0.752032 -0.657415 0.047475
-0.069091 0.051305 -0.996290
-0.051905 -0.057668 -0.996986
0.695807 0.099036 -0.711368
0.832913 -0.128543 -0.538269
0.918675 -0.305459 0.250461
0.098907 0.019837 0.994899
-0.964459 0.189016 0.184640
-0.088684 -0.016662 0.995920
-0.988201 -0.109855 0.106728
-0.989467 0.111625 0.092171
0.974600 0.223953 -0.000000
0.974600 -0.223953 -0.000000
-0.809937 0.052912 -0.584126
-0.879339 -0.060006 -0.472400
-0.984680 -0.073608 0.158076
-0.986950 0.074996 0.142495
-0.987962 -0.151499 0.031283
-0.986967 0.155429 0.041697
0.972002 0.228002 0.056809
0.973932 -0.222586 0.043718
0.172556 -0.843479 -0.508692
-0.053199 -0.859217 -0.508838
-0.038780 0.925818 -0.375976
0.177542 0.915709 -0.360495
0.248128 0.875965 0.413665
-0.017752 0.099698 0.994859
-0.189046 -0.963600 0.189041
0.024452 -0.123470 0.992047
0.211467 -0.977385 -0.000055
-0.069269 -0.997568 0.007750
-0.050288 0.998697 0.008669
0.198070 0.980188 0.000545
0.207517 -0.977756 0.030477
-0.202088 -0.978987 0.027284
-0.172797 0.982414 0.070744
0.199143 0.977509 0.069418
-0.000803 0.046378 -0.998924
0.054592 0.050692 -0.997221
0.049214 -0.046442 -0.997708
-0.000407 -0.036586 -0.999330
-0.000001 -0.000000 1.000000
-0.000003 -0.000000 1.000000
-0.000001 -0.000002 1.000000
-0.000002 0.000002 1.000000
0.044673 -0.038839 0.998246
-0.040544 -0.036415 0.998514
0.052984 0.040057 0.997792
-0.042821 0.039532 0.998300
0.127384 -0.048025 0.990690
0.909997 0.246053 0.333712
-0.083358 0.024676 0.996214
-0.957781 -0.256349 0.130156
0.025081 0.067682 0.997392
-0.199798 0.888828 0.412390
-0.019008 -0.065769 0.997654
0.259200 -0.950492 0.171406
0.765865 -0.642988 -0.004166
-0.155629 -0.987815 0.001240
-0.126554 0.991956 0.002686
0.758284 0.651924 0.000933
-0.702761 -0.711425 0.001165
-0.702366 0.711815 0.001157
-0.997377 -0.072380 0.000000
-0.997377 0.072381 0.000000
0.976072 0.216698 -0.018011
0.976072 -0.216699 -0.018011
0.215184 -0.976555 -0.005968
-0.064705 -0.997904 -0.001350
-0.043010 0.999074 0.000866
0.195665 0.980670 0.001430
-0.879610 -0.402309 0.253839
-0.767078 -0.612402 -0.191192
-0.879610 0.402309 0.253839
-0.767078 0.612402 -0.191192
-0.827023 -0.533276 0.177904
-0.827023 0.533276 0.177904
0.000000 -0.825022 -0.565100
0.000000 -0.845727 0.533616
0.000000 0.845727 0.533616
0.000000 0.825023 -0.565100
0.000000 -1.000000 0.000000
0.000000 1.000000 -0.000000
0.000000 -0.931566 0.363572
0.000000 0.931566 0.363572
0.000000 -0.931566 -0.363572
0.000000 0.931566 -0.363572
-0.989429 -0.135092 -0.052724
-0.989429 -0.135092 0.052724
-0.989429 0.135092 0.052724
-0.989429 0.135092 -0.052724
</float_array>
          <technique_common>
            <accessor source="#drill_precision-Normal0-array" count="332" stride="3">
              <param name="X" type="float"/>
              <param name="Y" type="float"/>
              <param name="Z" type="float"/>
            </accessor>
          </technique_common>
        </source>
        <source id="drill_precision-UV0">
          <float_array id="drill_precision-UV0-array" count="1004">
0.689754 0.379161
0.946389 0.800048
0.760262 0.379161
0.960038 0.800048
0.760262 0.523767
0.850845 0.800048
0.689754 0.523767
0.864494 0.800048
0.716848 0.008898
0.878143 0.800048
0.082163 0.867967
0.891792 0.800048
0.771000 0.008997
0.905441 0.800048
0.760262 0.070859
0.919091 0.800048
0.689754 0.070859
0.932740 0.800048
0.828571 0.379161
0.828571 0.523767
0.689754 0.570174
0.621446 0.570174
0.621446 0.523767
0.621446 0.379161
0.165410 0.898120
0.621446 0.070859
0.816315 0.008881
0.124131 0.934389
0.040885 0.904236
0.828571 0.070859
0.671613 0.008784
0.771459 0.007211
0.799791 0.627732
0.799791 0.670539
0.009900 0.818004
0.009900 0.753591
0.749855 0.681342
0.749855 0.616929
0.009980 0.676790
0.009785 0.649320
0.131929 0.632056
0.131929 0.674863
0.817740 0.712306
0.256363 0.753591
0.256363 0.818004
0.009900 0.726962
0.256363 0.726962
0.762879 0.707971
0.734520 0.632056
0.762879 0.590300
0.817739 0.585931
0.734520 0.674863
0.739683 0.716664
0.131929 0.707836
0.196430 0.884487
0.009561 0.626373
0.131929 0.599083
0.198113 0.916014
0.347775 0.818004
0.347775 0.844633
0.457723 0.199797
0.374124 0.199797
0.371661 0.055191
0.460186 0.055191
0.534048 0.008784
0.577751 0.008784
0.577751 0.055155
0.528470 0.055191
0.448615 0.570073
0.383232 0.570073
0.374124 0.508099
0.457723 0.508099
0.320786 0.199797
0.320786 0.055191
0.462649 0.008784
0.522891 0.199797
0.511489 0.508099
0.354136 0.570174
0.320786 0.508099
0.493856 0.570174
0.009864 0.917869
0.008181 0.886342
0.369198 0.008784
0.577751 0.180182
0.320786 0.008784
0.064937 0.379161
0.165591 0.379161
0.158153 0.523767
0.072375 0.523767
0.222231 0.379161
0.277091 0.398776
0.946389 0.971387
0.277091 0.523802
0.960038 0.971387
0.227810 0.523767
0.850845 0.971387
0.082546 0.008931
0.864494 0.971387
0.147981 0.008931
0.878143 0.971387
0.165591 0.070859
0.891792 0.971387
0.076314 0.070859
0.905441 0.971387
0.079812 0.570174
0.919091 0.971387
0.020126 0.570174
0.932740 0.971387
0.020126 0.523767
0.020126 0.379161
0.020126 0.070859
0.193259 0.008881
0.210829 0.070859
0.053414 0.008881
0.130181 0.951947
0.148166 0.007211
0.086018 0.007210
0.150715 0.570174
0.277091 0.570174
0.233389 0.570174
0.079908 0.952274
0.076113 0.856180
0.126385 0.855853
0.170733 0.939286
0.170733 0.871260
0.035561 0.871260
0.871818 0.981178
0.973687 0.800048
0.035561 0.939286
0.031257 0.869803
0.076572 0.854492
0.175959 0.869834
0.973687 0.971387
0.201444 0.884594
0.878483 0.971889
0.878483 0.971889
0.175959 0.940711
0.130724 0.953623
0.888693 0.976236
0.888693 0.976236
0.031257 0.940743
0.005871 0.917775
0.891008 0.982894
0.891008 0.982894
0.130724 0.854504
0.349585 0.873784
0.884343 0.988750
0.884343 0.988750
0.449238 0.873784
0.449238 0.955432
0.871818 0.991062
0.871818 0.991062
0.349585 0.955432
0.272789 0.869758
0.859293 0.988750
0.859293 0.988750
0.272789 0.967444
0.221660 0.951266
0.852629 0.982894
0.852629 0.982894
0.221660 0.886853
0.349786 0.852459
0.854944 0.976236
0.854944 0.976236
0.443237 0.852459
0.431963 0.987381
0.865154 0.971889
0.865154 0.971889
0.361060 0.987381
0.278387 0.982264
0.234684 0.977896
0.234684 0.860224
0.278387 0.855889
0.513813 0.901176
0.513813 0.936943
0.491649 0.866525
0.491649 0.971595
0.912592 0.116632
0.881925 0.116632
0.881925 0.061926
0.912592 0.061926
0.881925 0.007221
0.912592 0.007221
0.964123 0.270551
0.964123 0.156531
0.969521 0.156531
0.969521 0.270551
0.864642 0.115350
0.850627 0.115071
0.854854 0.060407
0.868869 0.060686
0.838187 0.005327
0.871187 0.005984
0.934212 0.041168
0.948238 0.041168
0.948238 0.056725
0.934212 0.056725
0.936334 0.145108
0.905667 0.145108
0.905667 0.128355
0.936334 0.128355
0.932188 0.158289
0.932188 0.272308
0.892652 0.272308
0.892652 0.158289
0.883845 0.216781
0.869829 0.217046
0.560948 0.935678
0.560948 0.946341
0.560948 0.957003
0.560948 0.967665
0.560948 0.978327
0.560948 0.797072
0.560948 0.807734
0.560948 0.818396
0.560948 0.829058
0.560948 0.839720
0.560948 0.850382
0.560948 0.861044
0.560948 0.871706
0.560948 0.882368
0.560948 0.893030
0.560948 0.903692
0.560948 0.914355
0.560948 0.925016
0.551508 0.935678
0.551508 0.946341
0.551508 0.957003
0.551508 0.967665
0.551508 0.978327
0.551508 0.797072
0.551508 0.807734
0.551508 0.818396
0.551508 0.829058
0.551508 0.839720
0.551508 0.850382
0.551508 0.861044
0.551508 0.871706
0.551508 0.882368
0.551508 0.893030
0.551508 0.903692
0.551508 0.914355
0.551508 0.925016
0.692487 0.829175
0.695863 0.819460
0.705586 0.810918
0.720481 0.804578
0.738753 0.801204
0.758198 0.801204
0.776470 0.804578
0.791366 0.810918
0.801088 0.819460
0.804465 0.829175
0.801088 0.838889
0.791366 0.847431
0.776470 0.853771
0.758198 0.857145
0.738753 0.857145
0.720481 0.853771
0.705586 0.847431
0.695863 0.838889
0.748476 0.829175
0.560948 0.988989
0.551508 0.988989
0.578101 0.977294
0.578101 0.798163
0.681359 0.798163
0.681359 0.977294
0.578101 0.808787
0.681359 0.808787
0.578101 0.819305
0.681359 0.819305
0.578101 0.829730
0.681359 0.829730
0.578101 0.840118
0.681359 0.840118
0.578101 0.850543
0.681359 0.850543
0.578101 0.861061
0.681359 0.861061
0.578101 0.871685
0.681359 0.871685
0.578101 0.882381
0.681359 0.882381
0.578101 0.893076
0.681359 0.893076
0.578101 0.903701
0.681359 0.903701
0.578101 0.914218
0.681359 0.914218
0.578101 0.924643
0.681359 0.924643
0.578101 0.935032
0.681359 0.935032
0.578101 0.945457
0.681359 0.945457
0.578101 0.955974
0.681359 0.955974
0.578101 0.966599
0.681359 0.966599
0.865801 0.162379
0.879817 0.162113
0.885964 0.271485
0.852962 0.272110
0.969522 0.036849
0.969521 0.150868
0.964123 0.150868
0.964124 0.036849
0.952958 0.130812
0.952958 0.150868
0.947560 0.150868
0.947560 0.130812
0.952958 0.225977
0.952958 0.246033
0.947560 0.246033
0.947560 0.225977
0.076572 0.953635
0.201444 0.917762
0.005871 0.884581
0.009752 0.699777
0.739683 0.590289
0.006459 0.649595
0.006459 0.675098
0.853478 0.661607
0.853478 0.645869
0.879711 0.645869
0.879711 0.661607
0.973496 0.604515
0.973496 0.588154
0.834976 0.722849
0.863734 0.722849
0.973496 0.509858
0.973497 0.683689
0.892491 0.722849
0.973496 0.555838
0.921248 0.722849
0.973496 0.540110
0.950005 0.722849
0.973496 0.652904
0.978762 0.722849
0.973496 0.637004
0.461135 0.722849
0.489892 0.722849
0.973496 0.571885
0.973496 0.620842
0.518649 0.722849
0.973497 0.668501
0.547406 0.722849
0.973496 0.524748
0.576163 0.722849
0.944476 0.588154
0.604920 0.722849
0.944476 0.604515
0.633677 0.722849
0.937632 0.604515
0.662434 0.722849
0.937632 0.588154
0.691191 0.722849
0.944477 0.683689
0.719948 0.722849
0.944476 0.509858
0.748705 0.722849
0.937632 0.509858
0.777462 0.722849
0.937632 0.683689
0.806219 0.722849
0.944476 0.540110
0.863734 0.791383
0.834976 0.791383
0.892491 0.791383
0.921248 0.791383
0.950005 0.791383
0.978762 0.791383
0.489892 0.791383
0.461135 0.791383
0.518649 0.791383
0.547406 0.791383
0.576163 0.791383
0.604920 0.791383
0.633677 0.791383
0.662434 0.791383
0.691191 0.791383
0.719948 0.791383
0.748705 0.791383
0.777462 0.791383
0.806219 0.791383
0.834976 0.726254
0.863734 0.726254
0.892491 0.726254
0.921248 0.726254
0.950005 0.726254
0.461135 0.726254
0.978762 0.726254
0.489892 0.726254
0.518649 0.726254
0.547406 0.726254
0.576163 0.726254
0.604920 0.726254
0.633677 0.726254
0.662434 0.726254
0.691191 0.726254
0.719948 0.726254
0.748705 0.726254
0.777462 0.726254
0.806219 0.726254
0.863734 0.788501
0.834976 0.788501
0.806219 0.788501
0.777462 0.788501
0.748705 0.788501
0.719948 0.788501
0.691191 0.788501
0.662434 0.788501
0.633677 0.788501
0.604920 0.788501
0.576163 0.788501
0.547406 0.788501
0.518649 0.788501
0.489892 0.788501
0.461135 0.788501
0.978762 0.788501
0.950005 0.788501
0.921248 0.788501
0.892491 0.788501
0.944476 0.555838
0.937632 0.555838
0.937632 0.540110
0.944476 0.637004
0.944476 0.652904
0.937632 0.652904
0.937632 0.637004
0.944476 0.571885
0.937632 0.571885
0.944476 0.620842
0.937632 0.620842
0.944477 0.668501
0.937632 0.668501
0.944476 0.524748
0.937632 0.524748
0.926392 0.604515
0.926392 0.588154
0.926392 0.509858
0.926392 0.683689
0.926392 0.555838
0.926392 0.540110
0.926392 0.652904
0.926392 0.637004
0.926392 0.571885
0.926392 0.620842
0.926392 0.668501
0.926392 0.524748
0.952479 0.588154
0.952479 0.604515
0.952479 0.571885
0.952479 0.555838
0.952479 0.540110
0.952479 0.524748
0.952479 0.509858
0.952479 0.683689
0.952479 0.668501
0.952479 0.652904
0.952479 0.637004
0.952479 0.620842
0.961175 0.588154
0.961175 0.604515
0.961175 0.571885
0.961175 0.555838
0.961175 0.540110
0.961175 0.524748
0.961175 0.509858
0.961175 0.683689
0.961175 0.668501
0.961175 0.652904
0.961175 0.637004
0.961175 0.620842
0.814963 0.660415
0.814963 0.647062
0.918227 0.647062
0.918227 0.660415
0.853568 0.627533
0.879622 0.627533
0.879622 0.679944
0.853567 0.679944
0.831640 0.635919
0.831640 0.671557
0.901549 0.671557
0.901549 0.635919
0.973497 0.698338
0.944477 0.698338
0.937632 0.698338
0.926392 0.698338
0.952479 0.698338
0.961175 0.698338
0.578101 0.987990
0.681359 0.987990
0.721187 0.007211
0.760262 0.570174
0.828571 0.570174
0.256363 0.844633
0.347775 0.753591
0.347775 0.726962
0.009900 0.844633
</float_array>
          <technique_common>
            <accessor source="#drill_precision-UV0-array" count="502" stride="2">
              <param name="S" type="float"/>
              <param name="T" type="float"/>
            </accessor>
          </technique_common>
        </source>
        <vertices id="drill_precision-VERTEX">
          <input semantic="POSITION" source="#drill_precision-POSITION"/>
          <input semantic="NORMAL" source="#drill_precision-Normal0"/>
        </vertices>
        <triangles count="565" material="Default_material"><input semantic="VERTEX" offset="0" source="#drill_precision-VERTEX"/><input semantic="TEXCOORD" offset="1" set="0" source="#drill_precision-UV0"/><p> 17 107 8 17 9 91 0 1 9 91 8 17 10 93 0 1 1 3 0 1 10 93 9 91 1 3 11 132 10 93 11 132 1 3 2 127 3 7 11 95 2 5 11 95 3 7 12 97 12 97 3 7 4 9 12 97 4 9 13 99 13 99 4 9 5 11 13 99 5 11 14 101 15 103 5 11 6 13 5 11 15 103 14 101 7 15 16 105 15 103 15 103 6 13 7 15 17 107 7 15 8 17 7 15 17 107 16 105 9 134 18 126 17 167 9 135 10 138 18 126 10 139 11 142 18 126 11 143 12 146 18 126 12 147 13 150 18 126 13 151 14 154 18 126 14 155 15 158 18 126 15 159 16 162 18 126 16 163 17 166 18 126 38 226 19 207 20 208 19 207 38 226 37 225 39 227 20 208 21 209 20 208 39 227 38 226 22 210 39 227 21 209 39 227 22 210 40 228 23 211 40 228 22 210 40 228 23 211 41 229 24 262 41 229 23 211 41 229 24 262 42 263 24 212 25 213 43 231 24 212 43 231 42 230 25 213 26 214 44 232 25 213 44 232 43 231 44 232 27 215 45 233 27 215 44 232 26 214 45 233 28 216 46 234 28 216 45 233 27 215 46 234 29 217 47 235 29 217 46 234 28 216 48 236 47 235 29 217 29 217 30 218 48 236 48 236 31 219 49 237 31 219 48 236 30 218 49 237 32 220 50 238 32 220 49 237 31 219 51 239 50 238 32 220 51 239 32 220 33 221 52 240 51 239 33 221 52 240 33 221 34 222 53 241 52 240 34 222 53 241 34 222 35 223 54 242 35 223 36 224 35 223 54 242 53 241 37 225 36 224 19 207 36 224 37 225 54 242 56 494 37 264 38 493 37 264 56 494 55 267 57 269 38 265 39 268 56 266 38 265 57 269 40 270 57 269 39 268 57 269 40 270 58 271 41 272 58 271 40 270 58 271 41 272 59 273 42 274 60 275 41 272 41 272 60 275 59 273 43 276 61 277 42 274 42 274 61 277 60 275 44 278 62 279 43 276 43 276 62 279 61 277 45 280 62 279 44 278 62 279 45 280 63 281 46 282 63 281 45 280 63 281 46 282 64 283 47 284 65 285 46 282 64 283 46 282 65 285 48 286 66 287 47 284 65 285 47 284 66 287 66 287 49 288 67 289 49 288 66 287 48 286 67 289 50 290 68 291 50 290 67 289 49 288 68 291 51 292 69 293 51 292 68 291 50 290 52 294 70 295 51 292 69 293 51 292 70 295 53 296 71 297 52 294 70 295 52 294 71 297 54 298 71 297 53 296 71 297 54 298 72 299 37 264 72 299 54 298 72 299 37 264 55 267 55 243 56 244 73 261 56 244 57 245 73 261 57 245 58 246 73 261 58 246 59 247 73 261 59 247 60 248 73 261 60 248 61 249 73 261 61 249 62 250 73 261 62 250 63 251 73 261 63 251 64 252 73 261 64 252 65 253 73 261 65 253 66 254 73 261 66 254 67 255 73 261 67 255 68 256 73 261 68 256 69 257 73 261 69 257 70 258 73 261 70 258 71 259 73 261 71 259 72 260 73 261 72 260 55 243 73 261 128 405 110 386 111 387 110 386 128 405 129 406 145 423 111 387 112 388 111 387 145 423 128 405 113 389 144 422 112 388 112 388 144 422 145 423 114 390 143 421 113 389 113 389 143 421 144 422 115 392 142 420 114 390 114 390 142 420 143 421 141 418 115 391 116 393 115 391 141 418 142 419 117 394 140 417 116 393 116 393 140 417 141 418 118 395 140 417 117 394 140 417 118 395 139 416 119 396 139 416 118 395 139 416 119 396 138 415 120 397 138 415 119 396 138 415 120 397 137 414 121 398 137 414 120 397 137 414 121 398 136 413 136 413 121 398 135 412 135 412 121 398 122 399 135 412 122 399 134 411 134 411 122 399 123 400 134 411 123 400 133 410 133 410 123 400 124 401 133 410 124 401 132 409 132 409 124 401 125 402 132 409 125 402 131 408 131 408 125 402 126 403 130 407 126 403 127 404 126 403 130 407 131 408 129 406 127 404 110 386 127 404 129 406 130 407 75 330 110 386 74 329 110 386 75 330 111 387 76 333 111 387 75 330 111 387 76 333 112 388 113 389 112 388 76 333 76 333 77 335 113 389 114 390 113 389 77 335 114 390 77 335 78 337 115 392 114 390 78 337 115 392 78 337 79 339 116 393 115 391 79 341 116 393 79 341 80 342 81 345 116 393 80 342 116 393 81 345 117 394 82 347 117 394 81 345 117 394 82 347 118 395 119 396 118 395 82 347 82 347 83 349 119 396 120 397 119 396 83 349 120 397 83 349 84 351 121 398 120 397 84 351 121 398 84 351 85 353 122 399 121 398 85 353 122 399 85 353 86 355 87 357 122 399 86 355 122 399 87 357 123 400 88 359 123 400 87 357 123 400 88 359 124 401 125 402 124 401 88 359 88 359 89 361 125 402 126 403 125 402 89 361 126 403 89 361 90 363 126 403 91 365 127 404 91 365 126 403 90 363 127 404 74 329 110 386 74 329 127 404 91 365 129 406 128 405 92 367 92 367 93 368 129 406 130 407 129 406 93 368 130 407 93 368 109 385 131 408 130 407 109 385 131 408 109 385 108 384 131 408 107 383 132 409 107 383 131 408 108 384 106 382 132 409 107 383 132 409 106 382 133 410 106 382 105 381 134 411 106 382 134 411 133 410 135 412 134 411 105 381 105 381 104 380 135 412 135 412 103 379 136 413 103 379 135 412 104 380 136 413 102 378 137 414 102 378 136 413 103 379 137 414 101 377 138 415 101 377 137 414 102 378 100 376 138 415 101 377 138 415 100 376 139 416 140 417 100 376 99 375 100 376 140 417 139 416 141 418 140 417 99 375 99 375 98 373 141 418 141 418 97 374 142 419 97 374 141 418 98 373 142 420 96 371 143 421 96 371 142 420 97 372 143 421 95 370 144 422 95 370 143 421 96 371 94 369 144 422 95 370 144 422 94 369 145 423 94 369 92 367 128 405 94 369 128 405 145 423 147 324 149 326 146 323 149 326 147 324 148 325 211 476 146 323 210 475 146 323 211 476 147 324 149 326 148 325 216 477 149 326 216 477 217 478 213 479 214 480 147 324 147 324 214 480 148 325 146 323 219 481 220 482 219 481 146 323 149 326 212 483 147 324 211 476 147 324 212 483 213 479 221 484 210 475 146 323 146 323 220 482 221 484 149 326 218 485 219 481 218 485 149 326 217 478 214 480 215 486 148 325 216 477 148 325 215 486 163 356 150 352 162 354 150 352 163 356 151 350 153 358 152 488 164 489 153 358 164 489 165 364 166 425 155 366 154 424 155 366 166 425 167 426 169 430 156 428 168 429 156 428 169 430 157 427 163 356 170 432 158 431 163 356 158 431 151 350 170 432 154 424 158 431 154 424 170 432 166 425 169 430 171 434 159 433 159 433 157 427 169 430 162 354 159 433 171 434 159 433 162 354 150 352 160 435 153 358 165 364 160 435 165 364 172 436 168 429 160 435 172 436 160 435 168 429 156 428 167 426 161 437 155 366 161 437 167 426 173 438 161 437 164 362 152 360 164 362 161 437 173 438 163 356 162 354 174 439 163 356 174 439 175 440 165 364 164 489 176 490 165 364 176 490 177 442 178 443 167 426 166 425 167 426 178 443 179 444 181 446 168 429 180 445 168 429 181 446 169 430 175 440 182 447 170 432 170 432 163 356 175 440 166 425 170 432 182 447 166 425 182 447 178 443 169 430 183 448 171 434 183 448 169 430 181 446 171 434 174 439 162 354 174 439 171 434 183 448 165 364 184 449 172 436 184 449 165 364 177 442 184 449 168 429 172 436 168 429 184 449 180 445 173 438 167 426 179 444 173 438 179 444 185 450 185 450 176 441 164 362 164 362 173 438 185 450 151 350 186 452 150 352 186 452 151 350 187 451 158 431 187 451 151 350 187 451 158 431 188 453 154 424 188 453 158 431 188 453 154 424 189 454 189 454 155 366 190 455 155 366 189 454 154 424 191 456 155 366 161 437 155 366 191 456 190 455 192 457 161 437 152 360 161 437 192 457 191 456 153 358 192 491 152 488 192 491 153 358 193 458 193 458 160 435 194 459 160 435 193 458 153 358 156 428 194 459 160 435 194 459 156 428 195 460 196 461 156 428 157 427 156 428 196 461 195 460 157 427 159 433 197 462 157 427 197 462 196 461 186 452 197 462 159 433 159 433 150 352 186 452 187 451 198 464 186 452 198 464 187 451 199 463 187 451 188 453 200 465 187 451 200 465 199 463 201 466 200 465 188 453 188 453 189 454 201 466 201 466 190 455 202 467 190 455 201 466 189 454 202 467 191 456 203 468 191 456 202 467 190 455 203 468 192 457 204 469 192 457 203 468 191 456 205 470 204 492 192 491 205 470 192 491 193 458 205 470 194 459 206 471 194 459 205 470 193 458 207 472 194 459 195 460 194 459 207 472 206 471 208 473 195 460 196 461 195 460 208 473 207 472 197 462 208 473 196 461 208 473 197 462 209 474 197 462 186 452 198 464 197 462 198 464 209 474 199 463 210 327 198 464 210 327 199 463 211 328 212 343 199 463 200 465 199 463 212 343 211 328 200 465 201 466 213 334 200 465 213 334 212 343 213 334 202 467 214 336 202 467 213 334 201 466 203 468 214 336 202 467 214 336 203 468 215 348 204 469 215 348 203 468 215 348 204 469 216 331 204 492 205 470 217 332 204 492 217 332 216 487 218 346 217 332 205 470 205 470 206 471 218 346 206 471 207 472 219 338 206 471 219 338 218 346 220 340 207 472 208 473 207 472 220 340 219 338 209 474 220 340 208 473 220 340 209 474 221 344 221 344 198 464 210 327 198 464 221 344 209 474 279 148 281 152 278 145 281 152 279 148 280 149 285 28 283 24 284 27 283 24 285 28 282 10 271 86 308 88 270 85 308 88 271 86 309 87 305 43 256 34 257 35 256 34 305 43 304 44 310 63 272 60 311 62 311 62 272 60 273 61 253 2 306 6 252 0 306 6 253 2 307 4 254 160 243 156 255 157 243 156 254 160 242 153 236 90 299 94 231 89 299 94 236 90 302 92 257 36 250 32 251 33 257 36 256 37 250 32 234 65 303 66 225 64 225 64 303 66 300 67 268 98 274 102 297 96 274 102 268 98 275 100 248 39 258 41 293 38 258 41 248 39 259 40 277 70 276 71 295 68 277 70 295 68 266 69 246 12 261 14 291 8 260 16 291 8 261 14 275 100 271 86 274 102 274 102 271 86 270 85 259 40 250 51 258 41 250 51 259 40 251 48 272 60 276 71 273 61 273 61 276 71 277 70 261 14 252 0 260 16 252 0 261 14 253 2 265 164 278 145 264 161 278 145 265 164 279 148 281 152 280 149 262 165 281 152 262 165 263 168 267 57 283 24 294 54 282 10 294 54 283 24 285 28 284 27 296 80 296 80 269 81 285 28 303 46 257 35 237 45 257 35 303 46 305 43 235 59 304 44 255 58 304 44 235 59 302 498 230 18 307 4 253 2 307 4 230 18 298 19 224 21 306 6 244 20 306 6 224 21 301 22 231 52 238 53 250 51 258 41 250 51 238 53 240 25 252 0 233 23 252 0 240 25 260 16 255 157 243 156 235 170 243 156 223 169 235 170 242 153 234 171 225 172 234 171 242 153 254 160 237 47 251 33 232 42 251 33 237 47 257 36 236 49 250 32 256 37 250 32 236 49 231 50 229 55 259 40 248 39 259 40 229 55 239 56 238 53 227 319 258 41 293 38 258 41 227 319 226 26 261 14 246 12 261 14 226 26 241 29 228 30 260 16 240 25 260 16 228 30 291 8 239 56 251 48 259 40 251 48 239 56 232 320 241 29 253 2 261 14 253 2 241 29 230 18 244 173 280 149 279 148 280 149 244 173 245 174 278 145 281 152 242 153 242 153 281 152 243 156 283 24 292 114 284 27 292 114 249 120 284 27 285 28 290 121 282 10 290 121 247 122 282 10 231 89 299 94 271 86 271 86 299 94 309 87 308 88 222 106 298 108 222 106 308 88 262 104 311 62 233 72 301 73 233 72 311 62 273 61 225 64 300 67 264 74 264 74 300 67 310 63 274 102 270 85 241 110 241 110 270 85 230 109 232 75 239 76 272 60 272 60 239 76 276 71 227 111 275 100 268 98 275 100 227 111 238 112 297 96 274 102 226 113 274 102 241 110 226 113 277 70 228 77 240 78 228 77 277 70 266 69 239 76 229 79 276 71 276 71 229 79 295 68 238 112 271 86 275 100 271 86 238 112 231 89 273 61 240 78 233 72 240 78 273 61 277 70 224 175 279 148 265 164 279 148 224 175 244 173 225 172 264 161 278 145 278 145 242 153 225 172 281 152 223 169 243 156 223 169 281 152 263 168 245 174 222 176 280 149 262 165 280 149 222 176 289 123 283 24 267 57 283 24 289 123 292 114 288 124 282 10 247 122 294 54 282 10 288 124 286 125 285 28 269 81 290 121 285 28 286 125 287 128 284 27 249 120 296 80 284 27 287 128 226 129 290 121 286 125 290 121 226 129 246 130 228 131 294 54 288 124 294 54 228 131 266 133 229 136 248 137 289 123 289 123 248 137 292 114 296 80 227 140 268 141 227 140 296 80 287 128 246 12 247 495 290 31 247 495 246 12 291 8 291 144 288 124 247 122 288 124 291 144 228 131 248 39 249 322 292 321 249 322 248 39 293 38 287 128 293 316 227 140 293 316 287 128 249 120 266 133 267 57 294 54 267 57 266 133 295 317 289 123 295 317 229 136 295 317 289 123 267 57 268 98 269 116 296 115 269 116 268 98 297 96 297 318 286 125 269 81 286 125 297 318 226 129 308 88 309 87 262 104 309 87 263 117 262 104 254 499 304 44 305 43 304 44 254 499 255 58 265 82 310 63 311 62 310 63 265 82 264 74 244 20 306 6 307 4 244 20 307 4 245 496 223 119 299 94 302 92 302 92 235 118 223 119 300 67 237 83 232 75 237 83 300 67 303 66 234 500 305 43 303 46 305 43 234 500 254 499 256 34 304 44 302 498 256 34 302 498 236 501 307 4 222 497 245 496 222 497 307 4 298 19 233 23 306 6 301 22 306 6 233 23 252 0 309 87 223 119 263 117 223 119 309 87 299 94 270 85 298 108 230 109 298 108 270 85 308 88 265 82 301 73 224 84 301 73 265 82 311 62 310 63 232 75 272 60 232 75 310 63 300 67 312 188 316 189 319 187 319 187 316 189 322 190 317 206 314 300 323 205 323 205 314 300 320 301 312 195 320 193 314 194 320 193 312 195 319 196 315 200 321 197 313 199 321 197 318 198 313 199 317 180 315 177 316 179 315 177 313 178 316 179 316 189 318 192 322 190 318 192 316 189 313 191 321 302 317 206 323 205 317 206 321 302 315 303 317 180 312 181 314 182 312 181 317 180 316 179 328 203 330 201 331 202 330 201 328 203 329 204 326 306 324 307 329 304 329 304 328 305 326 306 324 310 325 311 330 308 330 308 329 309 324 310 325 185 327 186 331 183 331 183 330 184 325 185 327 314 328 312 331 313 328 312 327 314 326 315</p></triangles>
      </mesh>
    </geometry>
  </library_geometries>
  <library_visual_scenes>
    <visual_scene id="drill_precision" name="drill_precision">
      <node name="drill_precision" id="drill_precision" layer="drill_precision_LP" sid="drill_precision"><matrix sid="matrix">0.010000 0.000000 0.000000 -0.000000 0.000000 0.010000 0.000000 0.000000 0.000000 0.000000 0.010000 0.000000 0.000000 0.000000 0.000000 1.000000</matrix><instance_geometry url="#drill_precision-lib"><bind_material><technique_common><instance_material symbol="Default_material" target="#Default_material"/></technique_common></bind_material></instance_geometry><extra><technique profile="FCOLLADA"><visibility>1.000000</visibility></technique></extra></node>
      <extra><technique profile="MAX3D"><frame_rate>24.000000</frame_rate></technique><technique profile="FCOLLADA"><start_time>0.041667</start_time><end_time>2.000000</end_time></technique></extra>
    </visual_scene>
  </library_visual_scenes>
  <scene>
    <instance_visual_scene url="#drill_precision"></instance_visual_scene>
  </scene>
</COLLADA>
