<?xml version="1.0" encoding="utf-8" ?>
<COLLADA xmlns="http://www.collada.org/2005/11/COLLADASchema" version="1.4.1">
    <asset>
        <contributor>
            <authoring_tool>modo 601 [Build 48460], Microsoft Windows 7 Service Pack 1 (6.1.7601 Service Pack 1)</authoring_tool>
            <comments>
                Plug-in: [Build 48460];
                Use Absolute Path: No;
                Merge Reference Items: No;
                Save Hidden Items: No;
                Save Cameras: No;
                Save Lights: No;
                Save Locators: Yes;
                Save Triangles as Triangles: No;
                Bake Matrices: Yes;
                Save Vertex Normals: Yes;
                Save UV Texture Coordinates: Yes;
                Save Vertex Colors: Yes;
                Save Vertex Weights: Yes;
                Save Animation: Yes;
                Sample Animation: No;
                Sample Animation Start: 0;
                Sample Animation End: 60;
                Save modo Profile: No;
                Save Maya Profile: Yes;
                Save 3ds Max Profile: No;
                Formatted Arrays: Yes;
            </comments>
            <source_data>file:///D:/Work/My%20Dropbox/Frictional%20Games%20-%20Team/Aaron/models/static_objects/station/pipes/pipe_lab.lxo</source_data>
        </contributor>
        <created>2013-04-18T14:26:41Z</created>
        <modified>2013-04-18T14:26:41Z</modified>
        <unit name="game" meter="1" />
        <up_axis>Y_UP</up_axis>
    </asset>
    <library_images>
        <image id="Image0001" name="Image0001">
            <init_from>file:///C:/Users/Aaron/Documents/checker_512.gif</init_from>
        </image>
        <image id="Image0002" name="Image0002">
            <init_from>file:///D:/Work/My%20Dropbox/Frictional%20Games%20-%20Team/Aaron/models/static_objects/station/pipes/pipe_lab.psd</init_from>
        </image>
        <image id="Image0003" name="Image0003">
            <init_from>file:///D:/Work/My%20Dropbox/Frictional%20Games%20-%20Team/Aaron/models/static_objects/station/pipes/pipe_lab_nrm.tga</init_from>
        </image>
        <image id="Image0004" name="Image0004">
            <init_from>file:///D:/Work/My%20Dropbox/Frictional%20Games%20-%20Team/Aaron/models/static_objects/station/pipes/pipe_lab_spec.tga</init_from>
        </image>
    </library_images>
    <library_materials>
        <material id="Material-pipe_lab" name="pipe_lab">
            <instance_effect url="#Effect-pipe_lab" />
        </material>
    </library_materials>
    <library_effects>
        <effect id="Effect-pipe_lab" name="pipe_lab">
            <profile_COMMON>
                <newparam sid="Image0002-surface">
                    <surface type="2D">
                        <init_from>Image0002</init_from>
                        <format>A8R8G8B8</format>
                    </surface>
                </newparam>
                <newparam sid="Image0002-sampler">
                    <sampler2D>
                        <source>Image0002-surface</source>
                        <minfilter>LINEAR_MIPMAP_LINEAR</minfilter>
                        <magfilter>LINEAR</magfilter>
                    </sampler2D>
                </newparam>
                <newparam sid="Image0004-surface">
                    <surface type="2D">
                        <init_from>Image0004</init_from>
                        <format>A8R8G8B8</format>
                    </surface>
                </newparam>
                <newparam sid="Image0004-sampler">
                    <sampler2D>
                        <source>Image0004-surface</source>
                        <minfilter>LINEAR_MIPMAP_LINEAR</minfilter>
                        <magfilter>LINEAR</magfilter>
                    </sampler2D>
                </newparam>
                <technique sid="common">
                    <phong>
                        <diffuse>
                            <texture texture="Image0002-sampler" texcoord="uvSet1" />
                        </diffuse>
                        <specular>
                            <texture texture="Image0004-sampler" texcoord="uvSet1" />
                        </specular>
                        <shininess>
                            <float sid="specular_effect_rgb">11.3137</float>
                        </shininess>
                    </phong>
                </technique>
            </profile_COMMON>
        </effect>
    </library_effects>
    <library_geometries>
        <geometry id="Geometry-mesh031" name="split_y">
            <mesh>
                <source id="Geometry-mesh031-positions" name="positions">
                    <float_array id="Geometry-mesh031-positions-array" count="762">
                        0.260885 0.0441942 -0.0162026
                        0.245759 0.0617305 -0.0471181
                        0.228993 0.0556879 -0.0813882
                        0.218166 0.0310512 -0.103518
                        0.193404 0.0617305 -0.0247309
                        0.148828 0.0617305 -0.0103905
                        0.180209 0.0556879 -0.0605283
                        0.138675 0.0556879 -0.0471662
                        0.0961686 0.0556879 -0.0373256
                        0.0529878 0.0556879 -0.0310756
                        0.171689 0.0310512 -0.0836448
                        0.132118 0.0310512 -0.0709145
                        0.0916216 0.0310512 -0.0615392
                        0.0504826 0.0310512 -0.0555846
                        0.260885 -0.0441943 -0.0162026
                        0.245759 -0.0617306 -0.0471181
                        0.228993 -0.055688 -0.0813882
                        0.218214 -0.0311605 -0.10342
                        0.193404 -0.0617306 -0.0247309
                        0.148828 -0.0617306 -0.0103905
                        0.180209 -0.055688 -0.0605283
                        0.138675 -0.055688 -0.0471662
                        0.0961686 -0.055688 -0.0373256
                        0.0529878 -0.055688 -0.0310756
                        0.171727 -0.0311605 -0.0835423
                        0.132147 -0.0311605 -0.0708092
                        0.0916418 -0.0311605 -0.0614318
                        0.0504937 -0.0311605 -0.0554759
                        0.215112 0 -0.111385
                        0.169164 0 -0.0917121
                        0.0902982 0 -0.0696156
                        0.13021 0 -0.0789941
                        0.0497532 0 -0.063659
                        0.0200195 0.0556879 -0.0294093
                        0.0200195 0.0310512 -0.0540518
                        0.0200195 -0.055688 -0.0294093
                        0.0200195 -0.0311605 -0.0539425
                        0.0200195 0 -0.0621425
                        6.24908e-017 0.0639207 -0.0329103
                        1.15771e-016 0.0358517 -0.0609699
                        6.24908e-017 -0.0639208 -0.0329103
                        1.15535e-016 -0.0359762 -0.0608455
                        1.33402e-016 0 -0.0702551
                        0.0158439 0.0639485 -0.0338709
                        0.0156356 0.0358557 -0.0619601
                        0.0158439 -0.0639486 -0.0338709
                        0.0156364 -0.0359803 -0.0618355
                        0.0155547 0 -0.0712674
                        0.193404 0.0617305 0.0247309
                        0.148828 0.0617305 0.0103905
                        0.180209 0.0556879 0.0605283
                        0.138675 0.0556879 0.0471662
                        0.0961686 0.0556879 0.0373256
                        0.0529878 0.0556879 0.0310756
                        0.171689 0.0310512 0.0836448
                        0.132118 0.0310512 0.0709145
                        0.0916216 0.0310512 0.0615392
                        0.0504826 0.0310512 0.0555846
                        0.193404 -0.0617306 0.0247309
                        0.148828 -0.0617306 0.0103905
                        0.180209 -0.055688 0.0605283
                        0.138675 -0.055688 0.0471662
                        0.0961686 -0.055688 0.0373256
                        0.0529878 -0.055688 0.0310756
                        0.171727 -0.0311605 0.0835423
                        0.132147 -0.0311605 0.0708092
                        0.0916418 -0.0311605 0.0614318
                        0.0504937 -0.0311605 0.0554759
                        0.169164 0 0.0917121
                        0.0902982 0 0.0696156
                        0.13021 0 0.0789941
                        0.0497532 0 0.063659
                        0.0200195 0.0556879 0.0294093
                        0.0200195 0.0310512 0.0540518
                        0.0200195 -0.055688 0.0294093
                        0.0200195 -0.0311605 0.0539425
                        0.0200195 0 0.0621425
                        0.0158439 0.0639485 0.0338709
                        0.0156356 0.0358557 0.0619601
                        0.0158439 -0.0639486 0.0338709
                        0.0156364 -0.0359803 0.0618355
                        0.0155547 0 0.0712674
                        0.223445 -0.0441943 4.24282e-016
                        0.202519 -0.0500498 3.84548e-016
                        0.148828 -0.0617306 2.82599e-016
                        0.10321 -0.0617306 1.95977e-016
                        0.0568675 -0.0617306 1.07981e-016
                        0.0200195 -0.0617306 3.80135e-017
                        7.76184e-025 -0.0709259 -4.08772e-010
                        0.0161133 -0.0709102 -3.75469e-010
                        0.223445 0.0441942 4.24282e-016
                        0.202519 0.0500498 3.84548e-016
                        0.148828 0.0617305 2.82599e-016
                        0.10321 0.0617305 1.95977e-016
                        0.0568675 0.0617305 1.07981e-016
                        0.0200195 0.0617305 3.80135e-017
                        7.76184e-025 0.0709257 -4.08772e-010
                        0.0161133 0.0709101 -3.75469e-010
                        -6.24908e-017 -0.0639208 0.0329103
                        -1.15535e-016 -0.0359762 0.0608455
                        -1.33402e-016 0 0.0702551
                        -6.24908e-017 0.0639207 0.0329103
                        -1.15771e-016 0.0358517 0.0609699
                        0.260885 -0.0441943 0.0162026
                        0.245759 -0.0617306 0.0471181
                        0.228993 -0.055688 0.0813882
                        0.218214 -0.0311605 0.10342
                        0.215112 0 0.111385
                        0.268591 -0.00977713 5.10007e-016
                        0.260885 0.0441942 0.0162026
                        0.245759 0.0617305 0.0471181
                        0.228993 0.0556879 0.0813882
                        0.218166 0.0310512 0.103518
                        0.268591 0.00977707 5.10007e-016
                        0.269502 -9.38454e-010 -0.00133172
                        0.264173 0.0375999 0.00966178
                        0.250222 0.0608379 0.0384431
                        0.232978 0.0608379 0.0740188
                        0.219027 0.0375999 0.1028
                        0.213698 -9.38454e-010 0.113794
                        0.219027 -0.0375999 0.1028
                        0.232978 -0.0608379 0.0740188
                        0.264173 -0.0375999 0.00966178
                        0.250222 -0.0608379 0.0384431
                        0.446875 0 0.375
                        0.433148 -0.0422471 0.375
                        0.433148 0.0422471 0.375
                        0.397211 0.0683572 0.375
                        0.352789 0.0683572 0.375
                        0.352789 -0.0683572 0.375
                        0.316852 -0.0422471 0.375
                        0.316852 0.0422471 0.375
                        0.303125 0 0.375
                        0.397211 -0.0683572 0.375
                        0.307721 0.0375999 0.0307705
                        0.31305 -9.38454e-010 0.019777
                        0.433148 0.0422471 0.320625
                        0.446875 0 0.320625
                        0.262574 0.0375999 0.123909
                        0.276525 0.0608379 0.0951275
                        0.316852 0.0422471 0.320625
                        0.352789 0.0683572 0.320625
                        0.257245 -9.38454e-010 0.134902
                        0.303125 0 0.320625
                        0.276525 -0.0608379 0.0951275
                        0.262574 -0.0375999 0.123909
                        0.352789 -0.0683572 0.320625
                        0.316852 -0.0422471 0.320625
                        0.29377 0.0608379 0.0595518
                        0.397211 0.0683572 0.320625
                        0.307721 -0.0375999 0.0307705
                        0.433148 -0.0422471 0.320625
                        0.29377 -0.0608379 0.0595518
                        0.397211 -0.0683572 0.320625
                        0.350647 0.0618632 0.115773
                        0.377226 0.0382336 0.0970282
                        0.380822 0.062205 0.185345
                        0.411968 0.0384448 0.175376
                        0.389627 0.0642335 0.251281
                        0.422998 0.0396985 0.246112
                        0.317795 -0.0618633 0.138943
                        0.291216 -0.0382336 0.157688
                        0.342323 -0.0622051 0.197668
                        0.311176 -0.0384448 0.207638
                        0.348377 -0.0642336 0.257669
                        0.315005 -0.0396985 0.262838
                        0.281064 -1.41561e-009 0.164848
                        0.291216 0.0382336 0.157688
                        0.299279 -1.3411e-009 0.211446
                        0.311176 0.0384448 0.207638
                        0.302258 -8.98912e-010 0.264812
                        0.315005 0.0396985 0.262838
                        0.350647 -0.0618633 0.115773
                        0.380822 -0.0622051 0.185345
                        0.389627 -0.0642336 0.251281
                        0.317795 0.0618632 0.138943
                        0.342323 0.062205 0.197668
                        0.348377 0.0642335 0.257669
                        0.387378 -1.41561e-009 0.0898683
                        0.423865 -1.3411e-009 0.171568
                        0.435745 -8.98912e-010 0.244138
                        0.377226 -0.0382336 0.0970282
                        0.411968 -0.0384448 0.175376
                        0.422998 -0.0396985 0.246112
                        0.269502 -9.38454e-010 0.00133172
                        0.264173 0.0375999 -0.00966178
                        0.250222 0.0608379 -0.0384431
                        0.232978 0.0608379 -0.0740188
                        0.219027 0.0375999 -0.1028
                        0.213698 -9.38454e-010 -0.113794
                        0.219027 -0.0375999 -0.1028
                        0.232978 -0.0608379 -0.0740188
                        0.264173 -0.0375999 -0.00966178
                        0.250222 -0.0608379 -0.0384431
                        0.446875 1.38778e-017 -0.375
                        0.433148 -0.0422471 -0.375
                        0.433148 0.0422471 -0.375
                        0.397211 0.0683572 -0.375
                        0.352789 0.0683572 -0.375
                        0.352789 -0.0683572 -0.375
                        0.316852 -0.0422471 -0.375
                        0.316852 0.0422471 -0.375
                        0.303125 2.77556e-017 -0.375
                        0.397211 -0.0683572 -0.375
                        0.307721 0.0375999 -0.0307705
                        0.31305 -9.38454e-010 -0.019777
                        0.433148 0.0422471 -0.320625
                        0.446875 0 -0.320625
                        0.262574 0.0375999 -0.123909
                        0.276525 0.0608379 -0.0951275
                        0.316852 0.0422471 -0.320625
                        0.352789 0.0683572 -0.320625
                        0.257245 -9.38454e-010 -0.134902
                        0.303125 1.38778e-017 -0.320625
                        0.276525 -0.0608379 -0.0951275
                        0.262574 -0.0375999 -0.123909
                        0.352789 -0.0683572 -0.320625
                        0.316852 -0.0422471 -0.320625
                        0.29377 0.0608379 -0.0595518
                        0.397211 0.0683572 -0.320625
                        0.307721 -0.0375999 -0.0307705
                        0.433148 -0.0422471 -0.320625
                        0.29377 -0.0608379 -0.0595518
                        0.397211 -0.0683572 -0.320625
                        0.350647 0.0618632 -0.115773
                        0.377226 0.0382336 -0.0970282
                        0.380822 0.062205 -0.185345
                        0.411968 0.0384448 -0.175376
                        0.389627 0.0642335 -0.251281
                        0.422998 0.0396985 -0.246112
                        0.317795 -0.0618633 -0.138943
                        0.291216 -0.0382336 -0.157688
                        0.342323 -0.0622051 -0.197668
                        0.311176 -0.0384448 -0.207638
                        0.348377 -0.0642336 -0.257669
                        0.315005 -0.0396985 -0.262838
                        0.281064 -1.41561e-009 -0.164848
                        0.291216 0.0382336 -0.157688
                        0.299279 -1.3411e-009 -0.211446
                        0.311176 0.0384448 -0.207638
                        0.302258 -8.98912e-010 -0.264812
                        0.315005 0.0396985 -0.262838
                        0.350647 -0.0618633 -0.115773
                        0.380822 -0.0622051 -0.185345
                        0.389627 -0.0642336 -0.251281
                        0.317795 0.0618632 -0.138943
                        0.342323 0.062205 -0.197668
                        0.348377 0.0642335 -0.257669
                        0.387378 -1.41561e-009 -0.0898683
                        0.423865 -1.3411e-009 -0.171568
                        0.435745 -8.98912e-010 -0.244138
                        0.377226 -0.0382336 -0.0970282
                        0.411968 -0.0384448 -0.175376
                        0.422998 -0.0396985 -0.246112
                    </float_array>
                    <technique_common>
                        <accessor count="254" source="#Geometry-mesh031-positions-array" stride="3">
                            <param name="X" type="float" />
                            <param name="Y" type="float" />
                            <param name="Z" type="float" />
                        </accessor>
                    </technique_common>
                </source>
                <source id="Geometry-mesh031-normals" name="normals">
                    <float_array id="Geometry-mesh031-normals-array" count="897">
                        0.93202 0.000148076 -0.362407
                        0.910231 4.95524e-005 -0.414101
                        0.915952 7.43359e-005 -0.401288
                        -0.0207456 0.996917 -0.0756657
                        -0.0177239 0.999843 0
                        0.0680013 0.997685 0
                        -0.0207456 -0.996917 -0.0756657
                        0.0680013 -0.997685 0
                        -0.0177239 -0.999843 0
                        -0.0207456 0.996917 0.0756657
                        -0.0207456 -0.996917 0.0756657
                        -1 0 -1.89882e-015
                        -1 -4.02788e-023 -1.89882e-015
                        -1 0 -1.89882e-015
                        -1 -1.12429e-022 -1.89882e-015
                        -1 -3.44121e-023 -1.89882e-015
                        0.279628 0.710146 0.646143
                        0.30766 0.949875 -0.055531
                        0.606264 0.795263 0
                        0.279628 0.710146 -0.646143
                        0.606264 -0.795263 0
                        0.30766 -0.949875 0.055531
                        0.279628 -0.710146 0.646143
                        0.279628 -0.710146 -0.646143
                        0.93202 0.000148076 0.362407
                        0.915952 7.43359e-005 0.401288
                        0.910231 4.95524e-005 0.414101
                        -0.113903 -0.911077 -0.396188
                        -0.0875576 -0.866573 -0.491309
                        -0.219295 -0.500199 -0.837682
                        -0.156844 -0.451591 -0.878331
                        0.654159 -0.677943 -0.335365
                        0.443716 -0.462155 -0.767808
                        -0.0365808 -0.882291 -0.469281
                        -0.0880544 -0.544368 -0.834212
                        0.898261 0 -0.439463
                        0.898261 1.16115e-007 -0.439461
                        0.898261 0 -0.439463
                        0.898261 0 -0.439462
                        -0.290462 0.533525 -0.794344
                        -0.356459 0.422664 -0.833242
                        -0.366032 -0.0011876 -0.930602
                        -0.393592 -0.00118619 -0.919285
                        -0.113903 0.911077 0.396188
                        -0.0875576 0.866573 0.491309
                        -0.219447 0.499159 0.838262
                        -0.156959 0.450282 0.878982
                        -0.0880544 -0.544368 0.834212
                        -0.156844 -0.451591 0.878331
                        -0.097547 -0.00121082 0.99523
                        -0.200028 -0.00120349 0.979789
                        0.509203 -0.00104581 0.860646
                        0.688621 -0.000891173 0.725121
                        0.514974 0.355014 0.780235
                        0.443829 0.46128 0.768268
                        -0.00919909 -0.999958 0
                        0.135218 0.950062 0.281245
                        0.226015 0.968769 0.101998
                        0.0204885 0.999563 0.0213283
                        -0.0875576 -0.866573 0.491309
                        -0.0365808 -0.882291 0.469281
                        -1 -6.12213e-023 -1.89882e-015
                        -1 4.78222e-024 -1.89882e-015
                        -1 -4.44466e-023 -1.89882e-015
                        -1 -7.18138e-023 -1.89882e-015
                        -0.290462 0.533525 0.794344
                        -0.366032 -0.0011876 0.930602
                        -0.356459 0.422664 0.833242
                        -0.393592 -0.00118619 0.919285
                        0.898261 0 0.439463
                        0.898261 0 0.439463
                        0.89987 0 0.436158
                        0.901468 0 0.432847
                        -0.899856 0 -0.436187
                        -0.899856 2.6452e-007 -0.436187
                        -0.899856 0 -0.436187
                        -0.899856 1.23602e-007 -0.436187
                        -0.809772 0.586741 -0.00201867
                        -0.741022 0.67148 0
                        -0.310714 0.950206 -0.0237964
                        -0.204814 0.978801 0
                        0.30681 0.950524 -0.0487021
                        0.409627 0.912253 0
                        0.407582 -0.911883 -0.0484286
                        0.204814 -0.978801 0
                        -0.206559 -0.978148 -0.0236628
                        -0.409627 -0.912253 0
                        -0.741901 -0.670506 -0.00200719
                        -0.415873 -0.909341 -0.0122323
                        -0.869118 -0.493915 0.0261116
                        0.197175 -0.977885 -0.0697278
                        -0.99888 -0.0463566 0.00946387
                        -0.999365 7.83025e-009 0.0356328
                        -0.415872 0.909341 -0.0122323
                        -0.869118 0.493915 0.0261116
                        0.865262 -0.496844 -0.0668389
                        0.731853 -0.669951 -0.124727
                        0 0 -1
                        -0.206559 -0.978148 0.0236628
                        -0.741901 -0.670506 0.00200719
                        -0.867604 -0.497255 -2.74817e-017
                        0.30681 0.950524 0.0487021
                        0.806452 0.587465 0.0672221
                        0.867604 0.497256 2.74817e-017
                        0.731853 0.669951 0.124727
                        0.197175 0.977885 0.0697277
                        -0.809772 0.586741 0.00201867
                        -0.99888 -0.0463566 -0.00946387
                        -0.869118 0.493915 -0.0261116
                        -0.999365 7.83025e-009 -0.0356328
                        -0.310714 0.950206 0.0237964
                        -0.415872 0.909341 0.0122323
                        0.996219 0.0649837 0.0576555
                        0.98826 1.56606e-008 0.152781
                        0.865262 -0.496844 0.0668389
                        0.731853 -0.669951 0.124727
                        0.654159 0.677943 -0.335365
                        -0.0365806 0.882291 -0.469281
                        0.443829 0.46128 -0.768268
                        -0.0881064 0.543569 -0.834727
                        0.89987 0 -0.436158
                        0.901468 0 -0.432847
                        -0.139781 -0.918598 -0.369647
                        -0.290279 -0.534378 -0.793838
                        -0.21534 -0.836665 -0.503607
                        -0.356192 -0.42412 -0.832616
                        -0.0365806 0.882291 0.469281
                        -0.0881064 0.543569 0.834727
                        -0.281995 -0.00119437 0.959415
                        0.535486 0.698375 0.474898
                        0.654159 0.677943 0.335365
                        0.0618342 -0.987748 0.143284
                        0.0703228 -0.992583 0.099163
                        0.226015 -0.968769 -0.101998
                        -0.139781 -0.918598 0.369647
                        -0.21534 -0.836665 0.503607
                        -0.290279 -0.534378 0.793838
                        -0.356192 -0.42412 0.832616
                        0.903053 0 -0.429529
                        -0.899856 4.90141e-007 -0.436187
                        -0.899856 1.07708e-006 -0.436187
                        -0.378437 0.497256 0.780719
                        -0.514229 0.586396 0.625866
                        -0.178674 0.912253 0.368605
                        -0.181041 0.963791 0.195783
                        0.0893369 0.978801 -0.184303
                        0.231704 0.912021 -0.338425
                        0.134789 -0.951056 -0.278071
                        0.199463 -0.935595 -0.291334
                        -0.134789 -0.951056 0.278071
                        -0.155274 -0.968564 0.194354
                        -0.30171 -0.950707 0.071604
                        -0.788345 -0.587703 0.18198
                        0.29594 -0.951429 -0.0848612
                        -0.986742 1.58221e-008 0.162298
                        -0.788345 0.587703 0.18198
                        -0.30171 0.950707 0.0716039
                        0.77688 -0.588059 -0.225042
                        -0.378437 -0.497255 -0.780719
                        -0.454542 -0.671667 -0.585026
                        -0.134789 -0.951056 -0.278071
                        -0.155274 -0.968564 -0.194354
                        0.0893369 0.978801 0.184303
                        0.352882 0.587785 0.727999
                        0.231704 0.912021 0.338425
                        0.506562 0.531295 0.679059
                        0.77688 0.58806 0.225042
                        0.29594 0.95143 0.0848611
                        -0.788345 0.587703 -0.18198
                        -0.986742 1.58221e-008 -0.162298
                        -0.30171 0.950707 -0.0716039
                        0.944833 1.57657e-008 0.327552
                        0.77688 -0.588059 0.225042
                        -0.281995 -0.00119437 -0.959415
                        0.514835 -0.356304 -0.779739
                        0.535496 -0.698371 -0.474892
                        -0.17864 0.890814 -0.417778
                        -0.158913 0.891043 -0.425193
                        0.0534777 0.996253 -0.0679747
                        -0.158913 0.891043 0.425193
                        0.443716 -0.462155 0.767808
                        0.535486 0.698375 -0.474898
                        0.549176 0.835707 -1.3549e-008
                        0.359889 0.932995 0
                        -0.0197439 -0.922159 0.386308
                        0.535496 -0.698371 0.474892
                        -0.0516563 -0.572803 0.818064
                        0.514835 -0.356304 0.779739
                        0.103424 0.965219 -0.240117
                        -0.17864 0.890814 0.417778
                        -0.899856 -2.03404e-007 -0.436187
                        -0.899856 -8.09464e-008 -0.436187
                        0.806452 0.587465 -0.0672221
                        0.867604 0.497256 0
                        0.996219 0.0649837 -0.0576555
                        0.994186 -0.107677 0
                        -0.867604 -0.497255 0
                        -0.994186 0.107677 0
                        0.741023 -0.67148 0
                        -0.260773 -0.949603 0.173929
                        -0.69328 -0.585659 0.41996
                        0.258293 -0.951971 -0.164429
                        -0.873669 0.0425021 0.484661
                        -0.211669 0.969212 0.125792
                        -0.637635 0.66722 0.385018
                        0.667023 -0.588035 -0.457487
                        0.667023 0.588036 0.457487
                        0.258293 0.951971 0.164428
                        -0.69328 0.585659 -0.41996
                        -0.889705 1.05375e-008 -0.456536
                        -0.260772 0.949603 -0.173929
                        0.775727 1.05988e-008 0.631069
                        0.667023 -0.588035 0.457487
                        -0.113903 0.911077 -0.396188
                        -0.219447 0.499159 -0.838262
                        -0.0875576 0.866573 -0.491309
                        -0.156959 0.450282 -0.878982
                        -0.097547 -0.00121082 -0.99523
                        -0.200028 -0.00120349 -0.979789
                        0.509203 -0.00104581 -0.860646
                        0.514974 0.355014 -0.780235
                        0.688621 -0.000891173 -0.725121
                        -0.0197442 -0.922159 -0.386308
                        -0.0516565 -0.572803 -0.818064
                        -0.113903 -0.911077 0.396188
                        -0.219295 -0.500199 0.837682
                        0.654159 -0.677943 0.335365
                        -0.00919909 0.999958 0
                        0.359889 -0.932995 0
                        -0.0641029 -0.00119792 0.997943
                        0.0345674 -0.998163 -0.049762
                        0.0964077 -0.975616 -0.197177
                        0.903053 0 0.429529
                        0 0 1
                        0.731853 0.669951 -0.124727
                        0.197175 0.977885 -0.0697277
                        0.98826 1.56606e-008 -0.152781
                        -0.899856 0 0.436187
                        -0.899856 0 0.436187
                        -0.899856 2.6452e-007 0.436187
                        -0.899856 1.23602e-007 0.436187
                        0.407582 -0.911883 0.0484286
                        -0.415873 -0.909341 0.0122323
                        -0.869118 -0.493915 -0.0261116
                        0.197175 -0.977885 0.0697278
                        0.549177 -0.835706 -1.3549e-008
                        -0.0516859 0.57217 0.818505
                        -0.899856 5.05834e-008 -0.436187
                        -0.899856 6.3358e-007 -0.436187
                        0.506562 0.531295 -0.679059
                        0.525132 1.58084e-008 -0.851021
                        0.352882 0.587785 -0.727999
                        0.436187 1.5668e-008 -0.899856
                        -0.454542 -0.671667 0.585026
                        -0.596012 -0.0477922 0.801552
                        -0.378437 -0.497255 0.780719
                        -0.436187 1.5668e-008 0.899856
                        0.506562 -0.531295 -0.679059
                        0.352882 -0.587785 -0.727999
                        -0.454542 0.671667 -0.585025
                        -0.619999 1.2009e-008 -0.784603
                        -0.378437 0.497256 -0.780719
                        -0.436187 1.5668e-008 -0.899856
                        0.436187 1.5668e-008 0.899856
                        0.352882 -0.587785 0.727999
                        0.525132 1.58084e-008 0.851021
                        0.506562 -0.531295 0.679059
                        -0.128829 0.978468 -0.161253
                        -0.0516861 0.57217 -0.818505
                        -0.0641029 -0.00119792 -0.997943
                        -0.0197464 0.922159 0.386306
                        0.898261 0 0.439462
                        0.898261 1.16115e-007 0.439461
                        0.77688 0.58806 -0.225042
                        0.29594 0.95143 -0.0848611
                        0.944833 1.57657e-008 -0.327552
                        -0.899856 4.90141e-007 0.436187
                        -0.899856 1.07708e-006 0.436187
                        -0.178674 0.912253 -0.368605
                        0.134789 -0.951056 0.278071
                        0.199463 -0.935595 0.291334
                        -0.30171 -0.950707 -0.071604
                        -0.788345 -0.587703 -0.18198
                        0.29594 -0.951429 0.0848612
                        0.000976562 -1 -4.5705e-008
                        -1 5.10849e-023 -1.89882e-015
                        -1 4.43134e-023 -1.89882e-015
                        0.667023 0.588036 -0.457487
                        0.258293 0.951971 -0.164428
                        0.775727 1.05988e-008 -0.631069
                        -0.899856 -2.03404e-007 0.436187
                        -0.899856 -8.09464e-008 0.436187
                        -0.260773 -0.949603 -0.173929
                        -0.69328 -0.585659 -0.41996
                        0.258293 -0.951971 0.164429
                        -0.0197467 0.922159 -0.386306
                        0.000969164 1 -4.57049e-008
                        -0.899856 5.05834e-008 0.436187
                        -0.899856 6.3358e-007 0.436187
                    </float_array>
                    <technique_common>
                        <accessor count="299" source="#Geometry-mesh031-normals-array" stride="3">
                            <param name="X" type="float" />
                            <param name="Y" type="float" />
                            <param name="Z" type="float" />
                        </accessor>
                    </technique_common>
                </source>
                <source id="Geometry-mesh031-uvSet1" name="uvSet1">
                    <float_array id="Geometry-mesh031-uvSet1-array" count="508">
                        0.181655 0.113978
                        0.154499 0.106618
                        0.208896 0.106486
                        0.322587 0.364784
                        0.312467 0.41034
                        0.311942 0.364731
                        0.531976 0.408785
                        0.541018 0.41341
                        0.523072 0.450616
                        0.301301 0.365032
                        0.092984 0.413844
                        0.102853 0.45546
                        0.0840536 0.418683
                        0.00361799 0.0896423
                        0.0095987 0.060548
                        0.0100044 0.11865
                        0.128836 0.088768
                        0.122855 0.117862
                        0.122449 0.0597602
                        0.335362 0.25108
                        0.311027 0.285182
                        0.310346 0.226074
                        0.285913 0.251649
                        0.621351 0.315294
                        0.579671 0.351795
                        0.583543 0.312223
                        0.00147055 0.322445
                        0.0391964 0.318504
                        0.043983 0.35797
                        1.18166 0.113978
                        1.2089 0.106486
                        1.1545 0.106618
                        0.494241 0.402032
                        0.486011 0.443184
                        0.460051 0.396247
                        0.452139 0.436647
                        0.47388 0.516396
                        0.44016 0.507093
                        0.478952 0.484647
                        0.445109 0.477302
                        0.23559 0.0516623
                        0.230329 0.085025
                        0.127637 0.0517343
                        0.132943 0.0850901
                        0.405948 0.344003
                        0.420267 0.296676
                        0.43704 0.350608
                        0.448059 0.302228
                        0.263382 0.376278
                        0.273386 0.418191
                        0.228689 0.385469
                        0.238057 0.42573
                        0.181401 0.480338
                        0.17344 0.439856
                        0.213215 0.472702
                        0.20557 0.432664
                        0.220244 0.51175
                        0.2183 0.501754
                        0.250934 0.505694
                        0.249709 0.495891
                        0.509657 0.489815
                        0.361705 0.270731
                        0.311291 0.308168
                        0.337045 0.320418
                        0.139731 0.447174
                        0.117162 0.494334
                        0.147738 0.488459
                        0.0657938 0.0271883
                        0.0666597 0.151222
                        0.0342033 0.0356056
                        0.0349549 0.143247
                        0.217483 0.346172
                        0.186552 0.35349
                        0.202078 0.299186
                        0.174422 0.305378
                        1.12764 0.0517343
                        1.23559 0.0516623
                        1.14295 0.0216301
                        1.22024 0.0215786
                        1.00106 0.233129
                        1.0162 0.186517
                        1.15966 0.233129
                        1.14451 0.186517
                        0.943516 0.285145
                        0.997556 0.285145
                        0.943516 0.329293
                        0.997556 0.329293
                        0.943516 0.37344
                        0.997556 0.37344
                        0.943515 0.108555
                        0.997555 0.108555
                        0.943515 0.152703
                        0.997555 0.152703
                        0.943515 0.19685
                        0.877363 0.152703
                        0.877363 0.19685
                        0.877363 0.108555
                        0.943515 0.240998
                        0.877363 0.240998
                        0.877363 0.329293
                        0.877363 0.285145
                        0.943515 0.505883
                        0.943515 0.55003
                        0.877363 0.505883
                        0.877363 0.55003
                        1.15138 0.186703
                        1.30998 0.186703
                        1.16653 0.140091
                        1.29484 0.140091
                        0.997555 0.19685
                        0.943516 0.417588
                        0.997556 0.417588
                        0.877363 0.417588
                        0.877363 0.37344
                        0.943515 0.461735
                        0.877363 0.461735
                        0.342978 0.492029
                        0.34539 0.459762
                        0.377181 0.494424
                        0.380706 0.464772
                        0.142951 0.0216301
                        0.220236 0.0215786
                        0.502373 0.360518
                        0.468389 0.356191
                        0.508954 0.309436
                        0.476699 0.307373
                        0.280693 0.460506
                        0.2455 0.466329
                        0.196561 0.392812
                        0.284443 0.502459
                        0.283846 0.492714
                        0.546037 0.310574
                        0.540022 0.365235
                        0.568015 0.369294
                        0.121465 0.364903
                        0.113711 0.313979
                        0.15534 0.359793
                        0.145913 0.311176
                        0.173034 0.00627647
                        0.190132 0.00626509
                        1.10486 0.157709
                        1.05585 0.157709
                        0.624866 0.285145
                        0.678906 0.285145
                        0.624866 0.329293
                        0.678906 0.329293
                        0.624866 0.37344
                        0.678906 0.37344
                        0.624866 0.108555
                        0.678906 0.108555
                        0.624866 0.152703
                        0.678906 0.152703
                        0.811211 0.152703
                        0.811211 0.19685
                        0.811211 0.108555
                        0.811211 0.240998
                        0.811211 0.285145
                        0.811211 0.329293
                        0.811211 0.505883
                        0.811211 0.55003
                        1.25519 0.111284
                        1.20618 0.111284
                        0.624866 0.19685
                        0.678906 0.19685
                        0.624866 0.417588
                        0.678906 0.417588
                        0.811211 0.417588
                        0.811211 0.37344
                        0.811211 0.461735
                        0.427938 0.390149
                        0.438219 0.5168
                        0.472277 0.52607
                        0.391604 0.286712
                        0.373 0.33376
                        0.285826 0.321006
                        0.250187 0.335172
                        0.187033 0.510007
                        0.342606 0.501784
                        0.313507 0.500561
                        0.3134 0.491347
                        0.158258 0.544917
                        0.155361 0.529717
                        0.192603 0.53468
                        0.189203 0.519667
                        0.260028 0.271899
                        0.230502 0.288563
                        1.0162 0.27974
                        1.14451 0.27974
                        0.997555 0.461735
                        0.997555 0.240997
                        0.997555 0.505883
                        0.997555 0.55003
                        0.745058 0.152703
                        0.745058 0.19685
                        0.745058 0.108555
                        0.745058 0.240998
                        0.745058 0.329293
                        0.745058 0.285145
                        0.745058 0.505883
                        0.745058 0.55003
                        1.16653 0.233314
                        1.29484 0.233314
                        0.745058 0.417588
                        0.745058 0.37344
                        0.745058 0.461735
                        0.360755 0.37516
                        0.39565 0.383548
                        0.35172 0.417289
                        0.387214 0.424013
                        0.413126 0.470398
                        0.419848 0.430196
                        0.407005 0.509599
                        0.37618 0.504253
                        0.408718 0.499562
                        0.469731 0.541333
                        0.435162 0.531886
                        0.130551 0.406219
                        0.164598 0.399647
                        0.153542 0.520084
                        0.312991 0.455775
                        0.502873 0.522612
                        0.124699 0.526966
                        0.223348 0.526588
                        0.0839343 0.370491
                        0.0766563 0.315985
                        1.17303 0.00627647
                        1.19013 0.00626509
                        0.503762 0.532129
                        0.12403 0.5365
                        0.253456 0.520794
                        1.05585 0.308548
                        1.10486 0.308548
                        0.678906 0.461735
                        0.624866 0.461735
                        0.678906 0.240998
                        0.624866 0.240998
                        0.678906 0.505883
                        0.678906 0.55003
                        0.624866 0.505883
                        0.624866 0.55003
                        1.20618 0.262122
                        1.25519 0.262122
                        0.374005 0.519404
                        0.404246 0.524506
                        0.286168 0.517783
                        1.13294 0.0850901
                        1.23033 0.085025
                        0.501129 0.547554
                        0.0560418 0.375202
                        0.0976092 0.0352729
                        0.0983592 0.142694
                        0.127017 0.551862
                        0.341235 0.517147
                        0.31369 0.516458
                    </float_array>
                    <technique_common>
                        <accessor count="254" source="#Geometry-mesh031-uvSet1-array" stride="2">
                            <param name="S" type="float" />
                            <param name="T" type="float" />
                        </accessor>
                    </technique_common>
                </source>
                <vertices id="Geometry-mesh031-vertices">
                    <input semantic="POSITION" source="#Geometry-mesh031-positions" />
                </vertices>
                <polylist count="496" material="Material-pipe_lab">
                    <input semantic="VERTEX" source="#Geometry-mesh031-vertices" offset="0" />
                    <input semantic="NORMAL" source="#Geometry-mesh031-normals" offset="1" />
                    <input semantic="TEXCOORD" source="#Geometry-mesh031-uvSet1" offset="2" set="0" />
                    <vcount>3 3 3 3 3 3 3 3 3 3 3 3 3 3 3 3 3 3 3 3 3 3 3 3 3 3 3 3 3 3 3 3 3 3 3 3 3 3 3 3 3 3 3 3 3 3 3 3 3 3 3 3 3 3 3 3 3 3 3 3 3 3 3 3 3 3 3 3 3 3 3 3 3 3 3 3 3 3 3 3 3 3 3 3 3 3 3 3 3 3 3 3 3 3 3 3 3 3 3 3 3 3 3 3 3 3 3 3 3 3 3 3 3 3 3 3 3 3 3 3 3 3 3 3 3 3 3 3 3 3 3 3 3 3 3 3 3 3 3 3 3 3 3 3 3 3 3 3 3 3 3 3 3 3 3 3 3 3 3 3 3 3 3 3 3 3 3 3 3 3 3 3 3 3 3 3 3 3 3 3 3 3 3 3 3 3 3 3 3 3 3 3 3 3 3 3 3 3 3 3 3 3 3 3 3 3 3 3 3 3 3 3 3 3 3 3 3 3 3 3 3 3 3 3 3 3 3 3 3 3 3 3 3 3 3 3 3 3 3 3 3 3 3 3 3 3 3 3 3 3 3 3 3 3 3 3 3 3 3 3 3 3 3 3 3 3 3 3 3 3 3 3 3 3 3 3 3 3 3 3 3 3 3 3 3 3 3 3 3 3 3 3 3 3 3 3 3 3 3 3 3 3 3 3 3 3 3 3 3 3 3 3 3 3 3 3 3 3 3 3 3 3 3 3 3 3 3 3 3 3 3 3 3 3 3 3 3 3 3 3 3 3 3 3 3 3 3 3 3 3 3 3 3 3 3 3 3 3 3 3 3 3 3 3 3 3 3 3 3 3 3 3 3 3 3 3 3 3 3 3 3 3 3 3 3 3 3 3 3 3 3 3 3 3 3 3 3 3 3 3 3 3 3 3 3 3 3 3 3 3 3 3 3 3 3 3 3 3 3 3 3 3 3 3 3 3 3 3 3 3 3 3 3 3 3 3 3 3 3 3 3 3 3 3 3 3 3 3 3 3 3 3 3 3 3 3 3 3 3 3 3 3 3 3 3 3 3 3 3 3 3 3 3 3 3 3 3 3 3 3 3 3 3 3 3 3 3 3 3 3 3 3 3 3 3 3</vcount>
                    <p>28 0 0 3 1 1 17 2 2 5 3 3 93 4 4 92 5 5 19 6 6 84 7 7 85 8 8 49 9 9 92 5 5 93 4 4 59 10 10 85 8 11 84 7 12 96 11 13 38 12 14 101 11 15 88 13 16 98 14 17 40 15 18 0 16 19 90 17 20 113 18 21 109 19 22 113 18 21 90 17 20 108 20 23 82 21 24 14 22 25 108 20 26 103 23 27 82 21 28 107 24 29 106 25 30 112 26 31 21 27 32 22 28 33 25 29 34 26 30 35 25 29 34 22 28 33 35 31 36 36 32 37 23 33 38 27 34 39 23 33 38 36 32 37 15 35 40 16 36 41 1 37 42 2 38 43 1 37 42 16 36 41 10 39 44 3 40 45 29 41 46 28 42 47 29 41 46 3 40 45 51 43 48 52 44 49 55 45 50 56 46 51 55 45 50 52 44 49 67 47 52 66 48 53 71 49 54 69 50 55 71 49 54 66 48 53 81 51 56 76 52 57 78 53 58 73 54 59 78 53 58 76 52 57 85 8 8 86 55 60 22 28 33 23 33 38 22 28 33 86 55 60 0 16 19 1 56 61 90 17 20 91 57 62 90 17 20 1 56 61 1 56 61 4 58 63 91 57 62 85 8 11 62 59 64 86 55 65 63 60 66 86 55 65 62 59 64 42 61 67 100 62 68 39 63 69 102 64 70 39 63 69 100 62 68 54 65 71 68 66 72 112 67 73 107 68 74 112 67 73 68 66 72 110 69 75 104 70 76 109 71 77 103 72 78 109 71 77 104 70 76 114 73 79 122 74 80 119 75 81 120 76 82 119 75 81 122 74 80 140 77 83 131 78 84 141 79 85 128 80 86 141 79 85 131 78 84 141 79 85 128 80 86 149 81 87 127 82 88 149 81 87 128 80 86 153 83 89 133 84 90 146 85 91 129 86 92 146 85 91 133 84 90 146 85 91 147 87 93 164 88 94 165 89 95 164 88 94 147 87 93 153 83 89 146 85 91 174 90 96 164 88 94 174 90 96 146 85 91 147 87 93 143 91 97 165 89 95 170 92 98 165 89 95 143 91 97 141 79 85 177 93 99 140 77 83 171 94 100 140 77 83 177 93 99 151 95 101 153 83 102 183 96 103 174 90 104 183 96 103 153 83 102 202 97 105 194 97 106 200 97 107 195 97 108 200 97 107 194 97 106 216 98 91 217 99 93 199 86 92 200 100 109 199 86 92 217 99 93 219 101 87 206 102 110 197 82 88 196 103 111 197 82 88 206 102 110 206 102 110 219 101 87 229 104 112 228 105 113 229 104 112 219 101 87 210 106 83 213 107 97 241 108 100 240 109 98 241 108 100 213 107 97 219 101 87 211 110 85 228 105 113 247 111 99 228 105 113 211 110 85 207 112 114 206 102 110 250 113 115 229 104 112 250 113 115 206 102 110 207 112 114 250 113 115 221 114 101 253 115 103 221 114 101 250 113 115 23 33 38 27 34 39 22 28 33 26 30 35 22 28 33 27 34 39 33 116 116 9 117 117 34 118 118 13 119 119 34 118 118 9 117 117 1 37 42 0 120 120 15 35 40 14 121 121 15 35 40 0 120 120 20 122 122 24 123 123 16 124 124 17 125 125 16 124 124 24 123 123 53 126 126 57 127 127 52 44 49 56 46 51 52 44 49 57 127 127 55 45 50 70 128 128 54 65 71 68 66 72 54 65 71 70 128 128 78 53 58 73 54 59 77 129 129 72 130 130 77 129 129 73 54 59 14 22 25 82 21 24 15 131 131 18 132 132 15 131 131 82 21 24 82 21 24 83 133 133 18 132 132 39 63 69 102 64 70 38 12 14 101 11 15 38 12 14 102 64 70 60 134 134 105 135 135 64 136 136 106 137 137 64 136 136 105 135 135 0 120 120 113 138 138 14 121 121 108 138 139 14 121 121 113 138 138 120 76 82 122 74 80 121 139 140 123 140 141 121 139 140 122 74 80 118 141 142 138 142 143 117 143 144 139 144 145 117 143 144 138 142 143 117 143 144 139 144 145 116 145 146 148 146 147 116 145 146 139 144 145 123 147 148 152 148 149 121 149 150 144 150 151 121 149 150 152 148 149 162 151 152 164 88 94 163 152 153 165 89 95 163 152 153 164 88 94 173 153 154 174 90 96 162 151 152 164 88 94 162 151 152 174 90 96 163 152 153 165 89 95 168 154 155 170 92 98 168 154 155 165 89 95 171 94 100 177 93 99 169 155 156 176 156 157 169 155 156 177 93 99 182 157 158 183 96 103 173 153 159 174 90 104 173 153 159 183 96 103 195 97 108 203 97 160 200 97 107 199 97 161 200 97 107 203 97 160 190 158 162 215 159 163 191 160 150 214 161 151 191 160 150 215 159 163 186 162 146 185 163 164 218 164 147 204 165 165 218 164 147 185 163 164 227 166 166 229 104 112 226 167 167 228 105 113 226 167 167 229 104 112 239 168 156 241 108 100 238 169 155 240 109 98 238 169 155 241 108 100 226 167 167 228 105 113 246 170 157 247 111 99 246 170 157 228 105 113 229 104 112 227 166 166 250 113 115 249 171 168 250 113 115 227 166 166 253 115 103 250 113 115 252 172 158 249 171 168 252 172 158 250 113 115 19 6 6 21 27 32 18 132 132 20 122 122 18 132 132 21 27 32 25 29 34 31 173 169 24 123 123 29 41 46 24 123 123 31 173 169 46 174 170 36 32 37 45 175 171 35 31 36 45 175 171 36 32 37 1 56 61 2 176 172 4 58 63 6 177 173 4 58 63 2 176 172 49 9 9 51 43 48 48 178 174 50 179 175 48 178 174 51 43 48 56 46 51 69 50 55 55 45 50 70 128 128 55 45 50 69 50 55 67 47 52 71 49 54 75 180 176 76 52 57 75 180 176 71 49 54 91 57 62 4 58 63 92 5 5 5 3 3 92 5 5 4 58 63 43 181 177 97 182 178 33 116 116 95 183 179 33 116 116 97 182 178 91 57 62 92 5 5 48 178 174 49 9 9 48 178 174 92 5 5 77 129 129 72 130 130 97 182 178 95 183 179 97 182 178 72 130 130 98 184 180 79 185 181 99 186 182 80 187 183 99 186 182 79 185 181 110 188 184 48 178 174 111 189 185 50 179 175 111 189 185 48 178 174 114 73 79 119 75 81 115 190 186 118 191 187 115 190 186 119 75 81 136 192 110 126 193 111 137 194 114 124 195 188 137 194 114 126 193 111 147 87 93 130 196 109 143 91 97 132 197 189 143 91 97 130 196 109 151 95 101 125 198 190 153 83 102 133 84 191 153 83 102 125 198 190 160 199 192 162 151 152 161 200 193 163 152 153 161 200 193 162 151 152 172 201 194 173 153 154 160 199 192 162 151 152 160 199 192 173 153 154 161 200 193 163 152 153 166 202 195 168 154 155 166 202 195 163 152 153 175 203 196 167 204 197 176 156 157 169 155 156 176 156 157 167 204 197 181 205 198 182 157 158 172 201 199 173 153 159 172 201 199 182 157 158 202 97 105 201 97 200 194 97 106 196 97 201 194 97 106 201 97 200 213 107 97 210 106 83 202 197 189 201 78 84 202 197 189 210 106 83 207 112 114 221 114 101 194 195 188 195 198 190 194 195 188 221 114 101 225 206 202 227 166 166 224 207 203 226 167 167 224 207 203 227 166 166 237 208 197 239 168 156 236 209 195 238 169 155 236 209 195 239 168 156 224 207 203 226 167 167 245 210 196 246 170 157 245 210 196 226 167 167 248 211 204 249 171 168 225 206 202 227 166 166 225 206 202 249 171 168 248 211 204 251 212 198 249 171 168 252 172 158 249 171 168 251 212 198 7 213 205 11 214 206 8 215 207 12 216 208 8 215 207 11 214 206 27 34 39 32 217 209 26 30 35 30 218 210 26 30 35 32 217 209 47 219 211 44 220 212 37 221 213 34 118 118 37 221 213 44 220 212 18 132 132 20 122 122 15 131 131 16 124 124 15 131 131 20 122 122 40 222 214 41 223 215 45 175 171 46 174 170 45 175 171 41 223 215 61 224 216 65 225 217 62 59 64 66 48 53 62 59 64 65 225 217 74 226 218 63 60 66 75 180 176 67 47 52 75 180 176 63 60 66 93 4 4 8 215 207 94 227 219 9 117 117 94 227 219 8 215 207 86 55 60 87 228 220 23 33 38 35 31 36 23 33 38 87 228 220 93 4 4 94 227 219 52 44 49 53 126 126 52 44 49 94 227 219 86 55 65 63 60 66 87 228 221 74 226 218 87 228 221 63 60 66 99 186 182 80 187 183 100 229 222 81 51 56 100 229 222 80 187 183 58 230 223 104 231 224 60 134 134 105 135 135 60 134 134 104 231 224 109 71 77 103 72 78 113 232 225 108 232 226 113 232 225 103 72 78 132 233 105 130 233 107 124 233 106 125 233 108 124 233 106 130 233 107 146 85 91 129 86 92 147 87 93 130 196 109 147 87 93 129 86 92 149 81 87 127 82 88 136 192 110 126 193 111 136 192 110 127 82 88 136 192 110 159 234 112 149 81 87 158 235 113 149 81 87 159 234 112 140 77 83 171 94 100 143 91 97 170 92 98 143 91 97 171 94 100 149 81 87 158 235 113 141 79 85 177 93 99 141 79 85 158 235 113 137 194 114 180 236 115 136 192 110 159 234 112 136 192 110 180 236 115 137 194 114 151 95 101 180 236 115 183 96 103 180 236 115 151 95 101 184 237 79 189 238 81 192 239 80 190 240 82 192 239 80 189 238 81 210 106 83 211 110 85 201 78 84 198 80 86 201 78 84 211 110 85 211 110 85 219 101 87 198 80 86 197 82 88 198 80 86 219 101 87 223 241 89 216 98 91 203 84 90 199 86 92 203 84 90 216 98 91 216 98 91 234 242 94 217 99 93 235 243 95 217 99 93 234 242 94 223 241 89 244 244 96 216 98 91 234 242 94 216 98 91 244 244 96 217 99 93 235 243 95 213 107 97 240 109 98 213 107 97 235 243 95 211 110 85 210 106 83 247 111 99 241 108 100 247 111 99 210 106 83 221 114 101 253 115 103 223 241 102 244 244 104 223 241 102 253 115 103 20 122 122 21 27 32 24 123 123 25 29 34 24 123 123 21 27 32 26 30 35 30 218 210 25 29 34 31 173 169 25 29 34 30 218 210 47 219 211 37 221 213 46 174 170 36 32 37 46 174 170 37 221 213 6 177 173 2 176 172 10 39 44 3 40 45 10 39 44 2 176 172 50 179 175 51 43 48 54 65 71 55 45 50 54 65 71 51 43 48 57 127 127 71 49 54 56 46 51 69 50 55 56 46 51 71 49 54 57 127 127 73 54 59 71 49 54 76 52 57 71 49 54 73 54 59 5 3 3 7 213 205 93 4 4 8 215 207 93 4 4 7 213 205 45 175 171 35 31 36 89 245 227 87 228 220 89 245 227 35 31 36 49 9 9 93 4 4 51 43 48 52 44 49 51 43 48 93 4 4 79 185 181 89 245 228 74 226 218 87 228 221 74 226 218 89 245 228 102 246 229 100 229 222 78 53 58 81 51 56 78 53 58 100 229 222 50 179 175 54 65 71 111 189 185 112 67 73 111 189 185 54 65 71 115 190 186 118 191 187 116 247 230 117 248 231 116 247 230 118 191 187 134 249 165 135 250 232 115 251 164 114 252 233 115 251 164 135 250 232 145 253 163 142 254 234 120 255 162 119 256 235 120 255 162 142 254 234 150 257 236 152 148 237 122 258 238 123 147 239 122 258 238 152 148 237 144 150 151 160 199 192 145 253 163 161 200 193 145 253 163 160 199 192 152 148 149 172 201 194 144 150 151 160 199 192 144 150 151 172 201 194 145 253 163 161 200 193 142 254 234 166 202 195 142 254 234 161 200 193 175 203 196 139 144 145 167 204 197 138 142 143 167 204 197 139 144 145 150 257 236 181 205 198 152 148 237 172 201 199 152 148 237 181 205 198 201 97 200 198 97 240 196 97 201 197 97 241 196 97 201 198 97 240 208 259 143 212 260 234 188 261 142 189 262 235 188 261 142 212 260 234 184 263 233 192 264 238 205 265 232 220 266 236 205 265 232 192 264 238 204 165 165 225 206 202 218 164 147 224 207 203 218 164 147 225 206 202 208 259 143 237 208 197 212 260 234 236 209 195 212 260 234 237 208 197 218 164 147 224 207 203 209 267 145 245 210 196 209 267 145 224 207 203 205 265 232 248 211 204 204 165 165 225 206 202 204 165 165 248 211 204 205 265 232 220 266 236 248 211 204 251 212 198 248 211 204 220 266 236 9 117 117 8 215 207 13 119 119 12 216 208 13 119 119 8 215 207 11 214 206 10 39 44 31 173 169 29 41 46 31 173 169 10 39 44 44 220 212 43 181 177 34 118 118 33 116 116 34 118 118 43 181 177 2 38 43 16 36 41 3 1 1 17 2 2 3 1 1 16 36 41 39 268 242 44 220 212 42 269 243 47 219 211 42 269 243 44 220 212 63 60 66 62 59 64 67 47 52 66 48 53 67 47 52 62 59 64 72 130 130 73 54 59 53 126 126 57 127 127 53 126 126 73 54 59 94 227 219 9 117 117 95 183 179 33 116 116 95 183 179 9 117 117 94 227 219 95 183 179 53 126 126 72 130 130 53 126 126 95 183 179 101 270 244 102 246 229 77 129 129 78 53 58 77 129 129 102 246 229 64 136 136 106 137 137 68 66 72 107 68 74 68 66 72 106 137 137 111 271 245 112 26 31 105 272 246 106 25 30 105 272 246 112 26 31 125 233 108 130 233 107 133 233 160 129 233 161 133 233 160 130 233 107 120 255 162 121 149 150 145 253 163 144 150 151 145 253 163 121 149 150 116 145 146 148 146 147 115 251 164 134 249 165 115 251 164 148 146 147 157 273 166 156 274 167 159 234 112 158 235 113 159 234 112 156 274 167 169 155 156 168 154 155 171 94 100 170 92 98 171 94 100 168 154 155 156 274 167 176 156 157 158 235 113 177 93 99 158 235 113 176 156 157 159 234 112 180 236 115 157 273 166 179 275 168 157 273 166 180 236 115 183 96 103 182 157 158 180 236 115 179 275 168 180 236 115 182 157 158 190 240 82 191 276 140 192 239 80 193 277 141 192 239 80 191 276 140 188 261 142 187 278 144 208 259 143 209 267 145 208 259 143 187 278 144 187 278 144 186 162 146 209 267 145 218 164 147 209 267 145 186 162 146 193 279 148 191 160 150 222 280 149 214 161 151 222 280 149 191 160 150 232 281 152 233 282 153 234 242 94 235 243 95 234 242 94 233 282 153 243 283 154 232 281 152 244 244 96 234 242 94 244 244 96 232 281 152 233 282 153 238 169 155 235 243 95 240 109 98 235 243 95 238 169 155 246 170 157 247 111 99 239 168 156 241 108 100 239 168 156 247 111 99 252 172 158 243 283 159 253 115 103 244 244 104 253 115 103 243 283 159 5 3 3 4 58 63 7 213 205 6 177 173 7 213 205 4 58 63 12 216 208 11 214 206 30 218 210 31 173 169 30 218 210 11 214 206 27 34 39 36 32 37 32 217 209 37 221 213 32 217 209 36 32 37 41 223 215 42 269 243 46 174 170 47 219 211 46 174 170 42 269 243 59 10 10 58 230 223 61 224 216 60 134 134 61 224 216 58 230 223 65 225 217 64 136 136 70 128 128 68 66 72 70 128 128 64 136 136 80 187 183 79 185 181 75 180 176 74 226 218 75 180 176 79 185 181 83 133 133 84 7 7 18 132 132 19 6 6 18 132 132 84 7 7 45 175 171 89 245 227 40 222 214 88 284 247 40 222 214 89 245 227 83 133 248 58 230 223 84 7 12 59 10 10 84 7 12 58 230 223 41 285 249 40 15 18 99 286 250 98 14 17 99 286 250 40 15 18 79 185 181 98 184 180 89 245 228 88 284 251 89 245 228 98 184 180 109 19 22 90 17 20 110 188 184 48 178 174 110 188 184 90 17 20 90 17 20 91 57 62 48 178 174 132 233 105 124 233 106 131 233 200 126 233 201 131 233 200 124 233 106 143 91 97 132 197 189 140 77 83 131 78 84 140 77 83 132 197 189 137 194 114 124 195 188 151 95 101 125 198 190 151 95 101 124 195 188 155 287 202 154 288 203 157 273 166 156 274 167 157 273 166 154 288 203 167 204 197 166 202 195 169 155 156 168 154 155 169 155 156 166 202 195 154 288 203 175 203 196 156 274 167 176 156 157 156 274 167 175 203 196 178 289 204 155 287 202 179 275 168 157 273 166 179 275 168 155 287 202 178 289 204 179 275 168 181 205 198 182 157 158 181 205 198 179 275 168 184 237 79 185 290 186 189 238 81 188 291 187 189 238 81 185 290 186 206 102 110 207 112 114 196 103 111 194 195 188 196 103 111 207 112 114 217 99 93 213 107 97 200 100 109 202 197 189 200 100 109 213 107 97 221 114 101 223 241 102 195 198 190 203 84 191 195 198 190 223 241 102 230 292 192 231 293 193 232 281 152 233 282 153 232 281 152 231 293 193 242 294 194 230 292 192 243 283 154 232 281 152 243 283 154 230 292 192 231 293 193 236 209 195 233 282 153 238 169 155 233 282 153 236 209 195 245 210 196 246 170 157 237 208 197 239 168 156 237 208 197 246 170 157 251 212 198 242 294 199 252 172 158 243 283 159 252 172 158 242 294 199 6 177 173 10 39 44 7 213 205 11 214 206 7 213 205 10 39 44 13 119 119 12 216 208 32 217 209 30 218 210 32 217 209 12 216 208 13 119 119 32 217 209 34 118 118 37 221 213 34 118 118 32 217 209 24 123 123 29 41 46 17 125 125 28 42 47 17 125 125 29 41 46 38 295 252 43 181 177 39 268 242 44 220 212 39 268 242 43 181 177 60 134 134 64 136 136 61 224 216 65 225 217 61 224 216 64 136 136 66 48 53 65 225 217 69 50 55 70 128 128 69 50 55 65 225 217 81 51 56 80 187 183 76 52 57 75 180 176 76 52 57 80 187 183 19 6 6 85 8 8 21 27 32 22 28 33 21 27 32 85 8 8 43 181 177 38 295 252 97 182 178 96 296 253 97 182 178 38 295 252 59 10 10 61 224 216 85 8 11 62 59 64 85 8 11 61 224 216 42 61 67 41 285 249 100 62 68 99 286 250 100 62 68 41 285 249 77 129 129 97 182 178 101 270 244 96 296 253 101 270 244 97 182 178 103 23 27 104 231 224 82 21 28 83 133 248 82 21 28 104 231 224 104 231 224 58 230 223 83 133 248 104 70 76 110 69 75 105 272 246 111 271 245 105 272 246 110 69 75 131 233 200 126 233 201 128 233 240 127 233 241 128 233 240 126 233 201 138 142 143 118 141 142 142 254 234 119 256 235 142 254 234 118 141 142 114 252 233 135 250 232 122 258 238 150 257 236 122 258 238 135 250 232 134 249 165 148 146 147 155 287 202 154 288 203 155 287 202 148 146 147 167 204 197 138 142 143 166 202 195 142 254 234 166 202 195 138 142 143 148 146 147 139 144 145 154 288 203 175 203 196 154 288 203 139 144 145 135 250 232 134 249 165 178 289 204 155 287 202 178 289 204 134 249 165 135 250 232 178 289 204 150 257 236 181 205 198 150 257 236 178 289 204 185 290 186 186 297 230 188 291 187 187 298 231 188 291 187 186 297 230 184 263 233 205 265 232 185 163 164 204 165 165 185 163 164 205 265 232 215 159 163 190 158 162 212 260 234 189 262 235 212 260 234 190 158 162 193 279 239 222 280 237 192 264 238 220 266 236 192 264 238 222 280 237 214 161 151 215 159 163 230 292 192 231 293 193 230 292 192 215 159 163 222 280 149 214 161 151 242 294 194 230 292 192 242 294 194 214 161 151 215 159 163 212 260 234 231 293 193 236 209 195 231 293 193 212 260 234 209 267 145 245 210 196 208 259 143 237 208 197 208 259 143 245 210 196 220 266 236 222 280 237 251 212 198 242 294 199 251 212 198 222 280 237</p>
                </polylist>
            </mesh>
        </geometry>
    </library_geometries>
    <library_visual_scenes>
        <visual_scene id="DefaultScene">
            <node id="groupLocator004Node" name="low" type="NODE">
                <matrix sid="transform">
        1 0 0 0
        0 1 0 0
        0 0 1 0
        0 0 0 1
    </matrix>
                <node id="Geometry-mesh031Node" name="split_y" type="NODE">
                    <matrix sid="transform">
        1 0 0 0
        0 1 0 0
        0 0 1 0
        0 0 0 1
    </matrix>
                    <instance_geometry url="#Geometry-mesh031">
                        <bind_material>
                            <technique_common>
                                <instance_material symbol="Material-pipe_lab" target="#Material-pipe_lab">
                                    <bind_vertex_input semantic="uvSet1" input_semantic="TEXCOORD" input_set="0" />
                                </instance_material>
                            </technique_common>
                        </bind_material>
                    </instance_geometry>
                </node>
            </node>
            <node id="groupLocator023Node" name="Texture_Group" type="NODE">
                <matrix sid="transform">
        1 0 0 0
        0 1 0 0
        0 0 1 0
        0 0 0 1
    </matrix>
                <node id="txtrLocator015Node" name="pipe_lab_spec__Image___Texture_" type="NODE">
                    <matrix sid="transform">
        1 0 0 0
        0 1 0 0
        0 0 1 0
        0 0 0 1
    </matrix>
                </node>
                <node id="txtrLocator008Node" name="pipe_lab__Image___Texture_" type="NODE">
                    <matrix sid="transform">
        1 0 0 0
        0 1 0 0
        0 0 1 0
        0 0 0 1
    </matrix>
                </node>
                <node id="txtrLocator002Node" name="pipe_lab_nrm__Image___Texture_" type="NODE">
                    <matrix sid="transform">
        1 0 0 0
        0 1 0 0
        0 0 1 0
        0 0 0 1
    </matrix>
                </node>
                <node id="txtrLocator019Node" name="checker_512__Image___Texture_" type="NODE">
                    <matrix sid="transform">
        1 0 0 0
        0 1 0 0
        0 0 1 0
        0 0 0 1
    </matrix>
                </node>
            </node>
            <extra>
                <technique profile="MAYA">
                    <start_time>0</start_time>
                    <end_time>5</end_time>
                </technique>
            </extra>
        </visual_scene>
    </library_visual_scenes>
    <scene>
        <instance_visual_scene url="#DefaultScene" />
    </scene>
</COLLADA>
