<?xml version="1.0" encoding="utf-8" ?>
<COLLADA xmlns="http://www.collada.org/2005/11/COLLADASchema" version="1.4.1">
    <asset>
        <contributor>
            <authoring_tool>modo 601 [Build 48460], Microsoft Windows 7 Service Pack 1 (6.1.7601 Service Pack 1)</authoring_tool>
            <comments>Plug-in: [Build 48460]; Use Absolute Path: No; Merge Reference Items: No; Save Hidden Items: No; Save Cameras: No; Save Lights: No; Save Locators: Yes; Save Triangles as Triangles: No; Bake Matrices: Yes; Save Vertex Normals: Yes; Save UV Texture Coordinates: Yes; Save Vertex Colors: Yes; Save Vertex Weights: Yes; Save Animation: No; Sample Animation: No; Sample Animation Start: 0; Sample Animation End: 235; Save modo Profile: No; Save Maya Profile: No; Save 3ds Max Profile: No; Formatted Arrays: No;</comments>
            <source_data>file:///D:/Work/Dropbox/Frictional%20Games%20-%20Team/Aaron/models/static_objects/station/pipes/pipe_lab.lxo</source_data>
        </contributor>
        <created>2013-11-19T14:03:07Z</created>
        <modified>2013-11-19T14:03:07Z</modified>
        <unit name="game" meter="1" />
        <up_axis>Y_UP</up_axis>
    </asset>
    <library_images>
        <image id="Image0001" name="Image0001">
            <init_from>file:///D:/Work/Dropbox/Frictional%20Games%20-%20Team/Aaron/models/static_objects/station/pipes/pipe_lab.psd</init_from>
        </image>
        <image id="Image0002" name="Image0002">
            <init_from>file:///D:/Work/Dropbox/Frictional%20Games%20-%20Team/Aaron/models/static_objects/station/pipes/pipe_lab_nrm.tga</init_from>
        </image>
        <image id="Image0003" name="Image0003">
            <init_from>file:///D:/Work/Dropbox/Frictional%20Games%20-%20Team/Aaron/models/static_objects/station/pipes/pipe_lab_spec.tga</init_from>
        </image>
    </library_images>
    <library_materials>
        <material id="Material-pipe_lab" name="pipe_lab">
            <instance_effect url="#Effect-pipe_lab" />
        </material>
    </library_materials>
    <library_effects>
        <effect id="Effect-pipe_lab" name="pipe_lab">
            <profile_COMMON>
                <newparam sid="Image0001-surface">
                    <surface type="2D">
                        <init_from>Image0001</init_from>
                        <format>A8R8G8B8</format>
                    </surface>
                </newparam>
                <newparam sid="Image0001-sampler">
                    <sampler2D>
                        <source>Image0001-surface</source>
                        <minfilter>LINEAR_MIPMAP_LINEAR</minfilter>
                        <magfilter>LINEAR</magfilter>
                    </sampler2D>
                </newparam>
                <newparam sid="Image0003-surface">
                    <surface type="2D">
                        <init_from>Image0003</init_from>
                        <format>A8R8G8B8</format>
                    </surface>
                </newparam>
                <newparam sid="Image0003-sampler">
                    <sampler2D>
                        <source>Image0003-surface</source>
                        <minfilter>LINEAR_MIPMAP_LINEAR</minfilter>
                        <magfilter>LINEAR</magfilter>
                    </sampler2D>
                </newparam>
                <technique sid="common">
                    <phong>
                        <diffuse>
                            <texture texture="Image0001-sampler" texcoord="uvSet1" />
                        </diffuse>
                        <specular>
                            <texture texture="Image0003-sampler" texcoord="uvSet1" />
                        </specular>
                        <shininess>
                            <float sid="specular_effect_rgb">11.3137</float>
                        </shininess>
                    </phong>
                </technique>
            </profile_COMMON>
        </effect>
    </library_effects>
    <library_geometries>
        <geometry id="Geometry-mesh001" name="bracket">
            <mesh>
                <source id="Geometry-mesh001-positions" name="positions">
                    <float_array id="Geometry-mesh001-positions-array" count="228">0.0171153 0.0789938 0.0286272 0.0171153 0.0478943 0.0692436 0.0171153 -0.0789938 0.0286272 0.0171153 -0.0485347 0.0686034 0.0171153 1.96695e-008 0.0840166 0.0222217 -0.0689159 0.023184 0.0222217 0.0689158 0.023184 0.0222217 -0.0426544 0.0589739 0.0222217 1.96695e-008 0.0728842 0.0222217 0.0420328 0.0595955 -0.00195313 -0.0789599 0.0274553 -0.00695801 -0.0688221 0.0222357 -0.00195313 0.0789599 0.0274553 -0.00695801 0.068822 0.0222357 -0.00195313 -0.0485296 0.0673956 -0.00195313 1.96695e-008 0.0827815 -0.00695801 -0.0428238 0.0577455 -0.00695801 5.48959e-009 0.0716391 -0.00195313 0.0478895 0.0680357 -0.00695801 0.0422034 0.0583658 0.0171153 0.0802002 -0.040075 0.0171153 0.0802002 -0.063492 0.0171153 0.106073 -0.0899139 0.0222217 0.106073 -0.101266 0.0222217 0.0688477 -0.063492 0.0222217 0.0688477 -0.040075 -0.00195313 0.106073 -0.0899139 -0.00695801 0.106073 -0.101266 -0.00195313 0.0802002 -0.063492 -0.00695801 0.0688477 -0.063492 -0.00195313 0.0802002 -0.040075 -0.00695801 0.0688477 -0.040075 0.0171153 -0.0797119 -0.0414377 0.0171153 -0.0797119 -0.0629373 0.0171153 -0.108626 -0.0918254 0.0222217 -0.0684204 -0.0629373 0.0222217 -0.108626 -0.103117 0.0222217 -0.0684204 -0.0414377 -0.00195313 -0.0797119 -0.0629373 -0.00195313 -0.108626 -0.0918254 -0.00695801 -0.0684204 -0.0629373 -0.00695801 -0.108626 -0.103117 -0.00195313 -0.0797119 -0.0414377 -0.00695801 -0.0684204 -0.0414377 0.0171153 -0.0797119 -0.00341797 0.0222217 -0.0684204 -0.00341797 -0.00195313 -0.0797119 -0.00341797 -0.00695801 -0.0684204 -0.00341797 0.0171153 0.0802002 -0.00244141 0.0222217 0.0689636 -0.00244141 -0.00195313 0.0802002 -0.00244141 -0.00695801 0.0689329 -0.00244141 0.0222217 0.0714559 -0.0781227 0.0171153 0.0820289 -0.0739899 0.0222217 0.0795509 -0.0904926 0.0171153 0.0876474 -0.0825356 0.0222217 0.0917655 -0.0986168 0.0171153 0.0960814 -0.0881174 -0.00195313 0.0820289 -0.0739899 -0.00195313 0.0876474 -0.0825356 -0.00195313 0.0960814 -0.0881174 -0.00695801 0.0714559 -0.0781227 -0.00695801 0.0795509 -0.0904926 -0.00695801 0.0917655 -0.0986168 0.0222217 -0.0931896 -0.100229 0.0171153 -0.0974268 -0.0897631 0.0222217 -0.0800537 -0.0915387 0.0171153 -0.0880347 -0.083551 0.0222217 -0.0713367 -0.0784061 0.0171153 -0.0817995 -0.0741601 -0.00195313 -0.0974268 -0.0897631 -0.00195313 -0.0880347 -0.083551 -0.00195313 -0.0817995 -0.0741601 -0.00695801 -0.0931896 -0.100229 -0.00695801 -0.0800537 -0.0915387 -0.00695801 -0.0713367 -0.0784061</float_array>
                    <technique_common>
                        <accessor count="76" source="#Geometry-mesh001-positions-array" stride="3">
                            <param name="X" type="float" />
                            <param name="Y" type="float" />
                            <param name="Z" type="float" />
                        </accessor>
                    </technique_common>
                </source>
                <source id="Geometry-mesh001-normals" name="normals">
                    <float_array id="Geometry-mesh001-normals-array" count="381">0.424432 -0.827629 0.36727 0.912193 -0.388891 0.129102 0.531679 -0.459347 0.71156 0.909055 -0.207288 0.361458 -0.0478219 -0.657551 0.751891 -0.0145602 -0.973712 0.227318 0.0344656 0.495921 -0.867683 0.0155985 0.913401 -0.406763 0.027942 0.669052 -0.74269 0.00852601 0.980876 -0.194445 -0.914 -0.384378 0.129839 -0.914145 -0.269431 0.302895 -0.91462 -0.383372 0.128438 -0.91149 -0.20501 0.356589 -0.915025 0.403398 -0.000456859 -0.914743 0.404036 -0.000228429 -0.914306 0.403462 0.0355358 -0.914462 0.40315 0.0350703 -0.913554 -0.404927 0.0381143 -0.913432 -0.405222 0.0379152 -0.914219 -0.405221 0 0.536184 -0.844045 0.00970513 0 -0.999967 0.00811737 -0.914217 -0.40522 -0.0021149 -0.90923 -0.416292 0.00144343 -0.914273 0.405099 0.000303309 -0.909463 0.415733 0.00662603 0.911575 0.179677 0.369793 0.90907 0.074805 0.409873 0.547829 0.333539 0.767225 0.352361 0.165623 0.921092 0 0.307576 0.951524 0 0.176973 0.984216 0 -0.437805 -0.89907 0 -0.182098 -0.98328 0 -0.311624 -0.950206 -0.912482 0.0744993 0.402277 -0.914834 0.125163 0.383944 -0.912034 0.0736279 0.403452 -0.914592 0.176086 0.364027 0.910806 -0.371081 0.180919 0.909826 -0.411796 0.0513783 0.546786 -0.766829 0.336152 0.463545 -0.882889 0.0750568 0 -0.950123 0.311877 0 -0.995775 0.0918251 0 0.898886 -0.438182 0 0.992284 -0.123987 0 0.949625 -0.313389 0 0.998077 -0.0619935 -0.914002 -0.385365 0.126866 -0.913887 -0.365057 0.177605 0.702363 -0.00306073 0.711813 0.908938 -0.00204085 0.416926 0.531938 0.455075 0.714107 -0.0639659 -0.00414895 0.997943 -0.0479946 0.654334 0.754681 0.0280941 -0.665412 -0.745948 0.034639 -0.489755 -0.871172 0.0414289 0.0045081 -0.999131 0.0426318 0.00451352 -0.999081 -0.914191 -0.00181367 0.405279 -0.912202 -0.00200011 0.409736 0.000350488 -0.999998 0.00178179 0 -1 0.000755016 0 -0.996112 -0.0880958 0 1 0 0.423983 0.824939 0.373783 0.536042 0.843968 0.0194243 -0.0149202 0.970865 0.23916 0 0.999905 0.0138196 -0.91449 0.382218 0.132732 -0.914243 0.382392 0.133928 0.00179254 -0.999998 -0.00109179 0.000700977 -1 0.000284365 0.000869336 0.999934 0.011426 0 0.999986 0.00521871 0.91158 0.310637 0.269306 0.547593 0.60905 0.57376 0 0.658377 0.752688 0 -0.756117 -0.654437 0 -0.660066 -0.751208 -0.914711 0.266474 0.3038 -0.914591 0.305342 0.265121 0.910808 -0.271304 0.311163 0.546555 -0.574999 0.608813 0 -0.752621 0.658453 0 0.65722 -0.753699 0 0.752709 -0.658353 -0.913873 -0.305587 0.267308 -0.913881 -0.266791 0.306014 0.909333 0.204525 0.362331 -0.914253 0.26788 0.303944 -0.911773 0.202275 0.357428 0.617531 0.786546 -0.000213995 0.542562 0.837663 0.0628198 0 0.99339 0.114787 0.542192 -0.840254 0 0 -1 0 0.911156 -0.412054 -0.00255805 0.911863 0.391066 0.124792 0.547717 0.786397 0.285632 0 0.902143 0.431437 0 -0.952349 -0.305011 0 -0.902206 -0.431305 -0.914705 0.364458 0.174602 -0.914983 0.384296 0.12297 0.910947 -0.128375 0.392039 0.546608 -0.291397 0.785053 0 -0.435944 0.899974 0 0.312013 -0.950078 0 0.436853 -0.899533 -0.91387 -0.177351 0.365223 -0.914068 -0.126208 0.385423 0.911968 0.387958 0.133429 0.0158518 -0.909897 -0.414532 0.00912894 -0.977882 -0.208959 0.911989 0.410213 -0.000631794 0.91172 0.410092 0.0243262 0.911159 -0.412055 0 0.910933 0.412555 -0.000164216 0.908464 -0.0768492 0.410837 0.703081 -0.129231 0.699268 0 -0.181102 0.983464 0 0.183866 -0.982951 -0.911421 -0.0750886 0.404565 -0.911684 -0.0744135 0.404098</float_array>
                    <technique_common>
                        <accessor count="127" source="#Geometry-mesh001-normals-array" stride="3">
                            <param name="X" type="float" />
                            <param name="Y" type="float" />
                            <param name="Z" type="float" />
                        </accessor>
                    </technique_common>
                </source>
                <source id="Geometry-mesh001-uvSet1" name="uvSet1">
                    <float_array id="Geometry-mesh001-uvSet1-array" count="144">0.155361 0.529717 0.153542 0.520084 0.189203 0.519667 0.187033 0.510007 0.192603 0.53468 0.158258 0.544917 0.342978 0.492029 0.342606 0.501784 0.361627 0.493335 0.360912 0.50313 0.455437 0.510752 0.453385 0.520298 0.47388 0.516396 0.472277 0.52607 0.12403 0.5365 0.127017 0.551862 0.124699 0.526966 0.3134 0.491347 0.313507 0.500561 0.502873 0.522612 0.503762 0.532129 0.396945 0.498005 0.408718 0.499562 0.395482 0.507982 0.407005 0.509599 0.39296 0.522974 0.404246 0.524506 0.443758 0.507955 0.442575 0.518309 0.454431 0.521213 0.438699 0.53273 0.450183 0.535471 0.44179 0.517623 0.220244 0.51175 0.2183 0.501754 0.250934 0.505694 0.223348 0.526588 0.253456 0.520794 0.341235 0.517147 0.359103 0.518378 0.469731 0.541333 0.284443 0.502459 0.286168 0.517783 0.31369 0.516458 0.283846 0.492714 0.3134 0.500625 0.503758 0.532134 0.501129 0.547554 0.385172 0.496448 0.383958 0.506365 0.381674 0.521442 0.432078 0.505157 0.430718 0.515406 0.427214 0.529989 0.430195 0.514949 0.249709 0.495891 0.124058 0.536487 0.373399 0.494891 0.372435 0.504747 0.370388 0.51991 0.420398 0.502359 0.418862 0.512503 0.41573 0.527248 0.4186 0.512274 0.471005 0.527543 0.501587 0.534885 0.473498 0.540267 0.493483 0.545065 0.427597 0.528151 0.43561 0.517884 0.45818 0.535493 0.455595 0.522682</float_array>
                    <technique_common>
                        <accessor count="72" source="#Geometry-mesh001-uvSet1-array" stride="2">
                            <param name="S" type="float" />
                            <param name="T" type="float" />
                        </accessor>
                    </technique_common>
                </source>
                <vertices id="Geometry-mesh001-vertices">
                    <input semantic="POSITION" source="#Geometry-mesh001-positions" />
                </vertices>
                <polylist count="148" material="Material-pipe_lab">
                    <input semantic="VERTEX" source="#Geometry-mesh001-vertices" offset="0" />
                    <input semantic="NORMAL" source="#Geometry-mesh001-normals" offset="1" />
                    <input semantic="TEXCOORD" source="#Geometry-mesh001-uvSet1" offset="2" set="0" />
                    <vcount>3 3 3 3 3 3 3 3 3 3 3 3 3 3 3 3 3 3 3 3 3 3 3 3 3 3 3 3 3 3 3 3 3 3 3 3 3 3 3 3 3 3 3 3 3 3 3 3 3 3 3 3 3 3 3 3 3 3 3 3 3 3 3 3 3 3 3 3 3 3 3 3 3 3 3 3 3 3 3 3 3 3 3 3 3 3 3 3 3 3 3 3 3 3 3 3 3 3 3 3 3 3 3 3 3 3 3 3 3 3 3 3 3 3 3 3 3 3 3 3 3 3 3 3 3 3 3 3 3 3 3 3 3 3 3 3 3 3 3 3 3 3 3 3 3 3 3 3</vcount>
                    <p>2 0 0 5 1 1 3 2 2 7 3 3 3 2 2 5 1 1 3 2 2 14 4 4 2 0 0 10 5 5 2 0 0 14 4 4 7 6 2 5 7 0 16 8 4 11 9 5 16 8 4 5 7 0 10 10 0 14 11 2 11 12 1 16 13 3 11 12 1 14 11 2 31 14 6 30 15 7 29 16 8 28 17 9 29 16 8 30 15 7 40 18 10 38 19 11 43 20 12 42 20 13 43 20 12 38 19 11 2 0 0 10 5 5 44 21 14 46 22 15 44 21 14 10 5 5 47 23 16 46 24 14 11 12 1 10 10 0 11 12 1 46 24 14 31 14 6 51 25 17 30 15 7 50 26 18 30 15 7 51 25 17 43 20 12 42 20 13 47 23 19 46 24 20 47 23 19 42 20 13 56 27 21 23 28 22 57 29 23 22 30 24 57 29 23 23 28 22 57 29 23 22 30 24 60 31 25 26 32 26 60 31 25 22 30 24 63 33 25 27 34 26 56 35 23 23 34 24 56 35 23 27 34 26 27 36 22 63 37 21 26 38 24 60 39 23 26 38 24 63 37 21 68 40 27 35 41 10 69 42 28 33 43 29 69 42 28 35 41 10 69 42 28 33 43 29 72 44 30 38 45 31 72 44 30 33 43 29 75 46 30 40 47 31 68 48 32 35 49 11 68 48 32 40 47 31 40 18 10 75 50 27 38 19 11 72 51 32 38 19 11 75 50 27 3 2 2 7 3 3 4 52 33 8 53 34 4 52 33 7 3 3 4 52 33 1 54 35 15 55 36 18 56 37 15 55 36 1 54 35 19 57 37 9 58 35 17 59 36 8 60 33 17 59 36 9 58 35 14 11 2 15 61 33 16 13 3 17 62 34 16 13 3 15 61 33 25 63 7 31 64 38 24 65 9 29 65 39 24 65 9 31 64 38 37 66 13 35 49 11 43 66 40 40 47 31 43 66 40 35 49 11 0 67 41 48 68 18 12 69 42 50 70 43 12 69 42 48 68 18 51 25 17 13 71 44 50 26 18 12 72 41 50 26 18 13 71 44 49 73 45 51 74 43 25 63 7 31 64 38 25 63 7 51 74 43 45 75 46 37 66 13 47 76 47 43 66 40 47 76 47 37 66 13 54 77 48 56 27 21 55 78 49 57 29 23 55 78 49 56 27 21 55 78 49 57 29 23 59 79 50 60 31 25 59 79 50 57 29 23 62 80 50 63 33 25 54 81 49 56 35 23 54 81 49 63 33 25 63 37 21 62 82 48 60 39 23 59 83 49 60 39 23 62 82 48 66 84 51 68 40 27 67 85 52 69 42 28 67 85 52 68 40 27 67 85 52 69 42 28 71 86 53 72 44 30 71 86 53 69 42 28 74 87 53 75 46 30 66 88 54 68 48 32 66 88 54 75 46 30 75 50 27 74 89 51 72 51 32 71 90 54 72 51 32 74 89 51 1 54 35 4 52 33 9 91 55 8 53 34 9 91 55 4 52 33 4 52 33 15 55 36 3 2 2 14 4 4 3 2 2 15 55 36 16 8 4 17 59 36 7 6 2 8 60 33 7 6 2 17 59 36 18 92 35 19 93 55 15 61 33 17 62 34 15 61 33 19 93 55 20 94 7 21 95 9 30 66 38 28 96 39 30 66 38 21 95 9 32 97 13 42 98 40 33 43 29 38 45 31 33 43 29 42 98 40 45 99 16 5 1 1 44 21 14 2 0 0 44 21 14 5 1 1 5 7 0 45 75 56 11 9 5 47 76 15 11 9 5 45 75 56 48 68 18 20 94 7 50 70 43 30 66 38 50 70 43 20 94 7 44 21 20 46 22 47 32 97 13 42 98 40 32 97 13 46 22 47 52 100 57 54 77 48 53 101 58 55 78 49 53 101 58 54 77 48 53 101 58 55 78 49 58 102 59 59 79 50 58 102 59 55 78 49 61 103 59 62 80 50 52 104 58 54 81 49 52 104 58 62 80 50 62 82 48 61 105 57 59 83 49 58 106 58 59 83 49 61 105 57 64 107 60 66 84 51 65 108 61 67 85 52 65 108 61 66 84 51 65 108 61 67 85 52 70 109 62 71 86 53 70 109 62 67 85 52 73 110 62 74 87 53 64 111 63 66 88 54 64 111 63 74 87 53 74 89 51 73 112 60 71 90 54 70 113 63 71 90 54 73 112 60 41 98 64 36 98 65 39 98 66 34 98 67 39 98 66 36 98 65 0 67 41 1 54 35 6 114 44 9 91 55 6 114 44 1 54 35 1 54 35 0 67 41 18 56 37 12 69 42 18 56 37 0 67 41 9 58 35 19 57 37 6 115 41 13 116 42 6 115 41 19 57 37 12 72 41 13 71 44 18 92 35 19 93 55 18 92 35 13 71 44 25 117 6 24 118 8 20 94 7 21 95 9 20 94 7 24 118 8 35 41 10 37 119 12 33 43 29 32 97 13 33 43 29 37 119 12 49 120 17 48 68 18 6 114 44 0 67 41 6 114 44 48 68 18 6 115 41 13 116 42 49 73 45 51 74 43 49 73 45 13 116 42 25 117 6 20 94 7 49 120 17 48 68 18 49 120 17 20 94 7 37 119 12 45 99 19 32 97 13 44 21 20 32 97 13 45 99 19 24 118 8 52 100 57 21 95 9 53 101 58 21 95 9 52 100 57 21 95 9 53 101 58 28 96 39 58 102 59 28 96 39 53 101 58 29 65 39 61 103 59 24 65 9 52 104 58 24 65 9 61 103 59 61 105 57 29 16 8 58 106 58 28 17 9 58 106 58 29 16 8 36 121 22 64 107 60 34 122 24 65 108 61 34 122 24 64 107 60 34 122 24 65 108 61 39 123 26 70 109 62 39 123 26 65 108 61 41 124 26 73 110 62 36 124 24 64 111 63 36 124 24 73 110 62 73 112 60 41 125 22 70 113 63 39 126 24 70 113 63 41 125 22 27 66 68 26 66 69 23 66 70 22 66 71 23 66 70 26 66 69</p>
                </polylist>
            </mesh>
        </geometry>
    </library_geometries>
    <library_visual_scenes>
        <visual_scene id="DefaultScene">
            <node id="groupLocator004Node" name="low" type="NODE">
                <matrix sid="transform">1 0 0 0 0 1 0 0 0 0 1 0 0 0 0 1</matrix>
                <node id="Geometry-mesh001Node" name="bracket" type="NODE">
                    <matrix sid="transform">1 0 0 0 0 1 0 0 0 0 1 0 0 0 0 1</matrix>
                    <instance_geometry url="#Geometry-mesh001">
                        <bind_material>
                            <technique_common>
                                <instance_material symbol="Material-pipe_lab" target="#Material-pipe_lab">
                                    <bind_vertex_input semantic="uvSet1" input_semantic="TEXCOORD" input_set="0" />
                                </instance_material>
                            </technique_common>
                        </bind_material>
                    </instance_geometry>
                </node>
            </node>
            <node id="groupLocator023Node" name="Texture_Group" type="NODE">
                <matrix sid="transform">1 0 0 0 0 1 0 0 0 0 1 0 0 0 0 1</matrix>
                <node id="txtrLocator015Node" name="pipe_lab_spec__Image___Texture_" type="NODE">
                    <matrix sid="transform">1 0 0 0 0 1 0 0 0 0 1 0 0 0 0 1</matrix>
                </node>
                <node id="txtrLocator008Node" name="pipe_lab__Image___Texture_" type="NODE">
                    <matrix sid="transform">1 0 0 0 0 1 0 0 0 0 1 0 0 0 0 1</matrix>
                </node>
                <node id="txtrLocator002Node" name="pipe_lab_nrm__Image___Texture_" type="NODE">
                    <matrix sid="transform">1 0 0 0 0 1 0 0 0 0 1 0 0 0 0 1</matrix>
                </node>
                <node id="txtrLocator019Node" name="_none___Image___Texture_" type="NODE">
                    <matrix sid="transform">1 0 0 0 0 1 0 0 0 0 1 0 0 0 0 1</matrix>
                </node>
            </node>
        </visual_scene>
    </library_visual_scenes>
    <scene>
        <instance_visual_scene url="#DefaultScene" />
    </scene>
</COLLADA>
