<?xml version="1.0" encoding="utf-8" ?>
<COLLADA xmlns="http://www.collada.org/2005/11/COLLADASchema" version="1.4.1">
    <asset>
        <contributor>
            <author>user</author>
            <authoring_tool>modo 601 [Build 48460], Microsoft Windows 7 Service Pack 1 (6.1.7601 Service Pack 1)</authoring_tool>
            <comments>
                Plug-in: [Build 48460];
                Use Absolute Path: No;
                Merge Reference Items: No;
                Save Hidden Items: No;
                Save Cameras: Yes;
                Save Lights: Yes;
                Save Locators: Yes;
                Save Triangles as Triangles: No;
                Bake Matrices: No;
                Save Vertex Normals: Yes;
                Save UV Texture Coordinates: Yes;
                Save Vertex Colors: Yes;
                Save Vertex Weights: Yes;
                Save Animation: Yes;
                Sample Animation: No;
                Sample Animation Start: 0;
                Sample Animation End: 120;
                Save modo Profile: Yes;
                Save Maya Profile: Yes;
                Save 3ds Max Profile: Yes;
                Formatted Arrays: Yes;
            </comments>
            <source_data>file:///D:/Work/My%20Dropbox/Frictional%20Games%20-%20Team/Aaron/models/static_objects/station/pipes/pipe_pplant.lxo</source_data>
        </contributor>
        <created>2012-10-08T15:22:39Z</created>
        <modified>2012-10-08T15:22:39Z</modified>
        <unit name="game" meter="1" />
        <up_axis>Y_UP</up_axis>
    </asset>
    <library_cameras>
        <camera id="Camera-camera020" name="Camera">
            <optics>
                <technique_common>
                    <perspective>
                        <xfov sid="HFOV">39.5978</xfov>
                        <yfov sid="YFOV">26.9915</yfov>
                        <znear sid="near_clip">0.01</znear>
                        <zfar sid="far_clip">10000</zfar>
                    </perspective>
                </technique_common>
                <technique profile="modo401">
                    <param sid="projType" name="Projection_Type" type="Name">persp</param>
                    <param sid="focalLen" name="Focal_Length" type="float">0.05</param>
                    <param sid="distort" name="Lens_Distortion" type="float">0</param>
                    <param sid="squeeze" name="Lens_Squeeze" type="float">1</param>
                    <param sid="focusDist" name="Focus_Distance" type="float">4</param>
                    <param sid="fStop" name="F-Stop" type="float">4</param>
                    <param sid="blurLen" name="Blur_Length" type="float">0.5</param>
                    <param sid="blurOff" name="Blur_Offset" type="float">0</param>
                    <param sid="ioDist" name="Interocular_Distance" type="float">0.065</param>
                    <param sid="convDist" name="Convergence_Distance" type="float">2</param>
                </technique>
            </optics>
            <imager>
                <technique profile="modo401">
                    <param sid="apertureX" name="Film_Width" type="float">0.036</param>
                    <param sid="apertureY" name="Film_Height" type="float">0.024</param>
                    <param sid="offsetX" name="Film_Offset_X" type="float">0</param>
                    <param sid="offsetY" name="Film_Offset_Y" type="float">0</param>
                    <param sid="filmFit" name="Film_Fit" type="Name">fill</param>
                </technique>
            </imager>
        </camera>
    </library_cameras>
    <library_images>
        <image id="Image0001" name="Image0001">
            <init_from>file:///D:/Work/My%20Dropbox/Frictional%20Games%20-%20Team/Aaron/models/static_objects/station/pipes/pipe_broken_large.tga</init_from>
        </image>
        <image id="Image0002" name="Image0002">
            <init_from>file:///D:/Work/My%20Dropbox/Frictional%20Games%20-%20Team/Aaron/models/static_objects/station/pipes/pipe_broken_medium.tga</init_from>
        </image>
        <image id="Image0003" name="Image0003">
            <init_from>file:///D:/Work/My%20Dropbox/Frictional%20Games%20-%20Team/Aaron/models/static_objects/station/pipes/pipe_broken_small.tga</init_from>
        </image>
        <image id="Image0004" name="Image0004">
            <init_from>file:///D:/Work/My%20Dropbox/Frictional%20Games%20-%20Team/Aaron/models/static_objects/station/pipes/pipe_turn_broken_slim.tga</init_from>
        </image>
        <image id="Image0005" name="Image0005">
            <init_from>file:///D:/Work/My%20Dropbox/Frictional%20Games%20-%20Team/Aaron/models/static_objects/station/pipes/pipe_turn_broken_thick.tga</init_from>
        </image>
    </library_images>
    <library_materials>
        <material id="Material-pipe_broken_large" name="pipe_broken_large">
            <instance_effect url="#Effect-pipe_broken_large" />
        </material>
        <material id="Material-pipe_broken_medium" name="pipe_broken_medium">
            <instance_effect url="#Effect-pipe_broken_medium" />
        </material>
        <material id="Material-pipe_broken_small" name="pipe_broken_small">
            <instance_effect url="#Effect-pipe_broken_small" />
        </material>
        <material id="Material-pipe_turn_broken_slim" name="pipe_turn_broken_slim">
            <instance_effect url="#Effect-pipe_turn_broken_slim" />
        </material>
        <material id="Material-pipe_turn_broken_thick" name="pipe_turn_broken_thick">
            <instance_effect url="#Effect-pipe_turn_broken_thick" />
        </material>
    </library_materials>
    <library_effects>
        <effect id="Effect-pipe_broken_large" name="pipe_broken_large">
            <profile_COMMON>
                <newparam sid="Image0001-surface">
                    <surface type="2D">
                        <init_from>Image0001</init_from>
                        <format>A8R8G8B8</format>
                    </surface>
                </newparam>
                <newparam sid="Image0001-sampler">
                    <sampler2D>
                        <source>Image0001-surface</source>
                        <minfilter>LINEAR_MIPMAP_LINEAR</minfilter>
                        <magfilter>LINEAR</magfilter>
                    </sampler2D>
                </newparam>
                <technique sid="common">
                    <phong>
                        <diffuse>
                            <texture texture="Image0001-sampler" texcoord="map1" />
                        </diffuse>
                        <specular>
                            <color sid="specular_effect_rgb">0.5 0.5 0.5 1</color>
                        </specular>
                        <shininess>
                            <float sid="specular_effect_rgb">256</float>
                        </shininess>
                        <reflective>
                            <color sid="reflective_effect_rgb">0 0 0 1</color>
                        </reflective>
                        <reflectivity>
                            <float sid="reflectivity_effect_float">0.5</float>
                        </reflectivity>
                        <transparent opaque="RGB_ZERO">
                            <color sid="transparent_effect_rgb">0 0 0 1</color>
                        </transparent>
                        <transparency>
                            <float sid="transparency_effect_float">1</float>
                        </transparency>
                    </phong>
                </technique>
            </profile_COMMON>
        </effect>
        <effect id="Effect-pipe_broken_medium" name="pipe_broken_medium">
            <profile_COMMON>
                <newparam sid="Image0002-surface">
                    <surface type="2D">
                        <init_from>Image0002</init_from>
                        <format>A8R8G8B8</format>
                    </surface>
                </newparam>
                <newparam sid="Image0002-sampler">
                    <sampler2D>
                        <source>Image0002-surface</source>
                        <minfilter>LINEAR_MIPMAP_LINEAR</minfilter>
                        <magfilter>LINEAR</magfilter>
                    </sampler2D>
                </newparam>
                <technique sid="common">
                    <phong>
                        <diffuse>
                            <texture texture="Image0002-sampler" texcoord="map1" />
                        </diffuse>
                        <specular>
                            <color sid="specular_effect_rgb">0.2 0.2 0.2 1</color>
                        </specular>
                        <shininess>
                            <float sid="specular_effect_rgb">256</float>
                        </shininess>
                    </phong>
                </technique>
            </profile_COMMON>
        </effect>
        <effect id="Effect-pipe_broken_small" name="pipe_broken_small">
            <profile_COMMON>
                <newparam sid="Image0003-surface">
                    <surface type="2D">
                        <init_from>Image0003</init_from>
                        <format>A8R8G8B8</format>
                    </surface>
                </newparam>
                <newparam sid="Image0003-sampler">
                    <sampler2D>
                        <source>Image0003-surface</source>
                        <minfilter>LINEAR_MIPMAP_LINEAR</minfilter>
                        <magfilter>LINEAR</magfilter>
                    </sampler2D>
                </newparam>
                <technique sid="common">
                    <phong>
                        <diffuse>
                            <texture texture="Image0003-sampler" texcoord="map1" />
                        </diffuse>
                        <specular>
                            <color sid="specular_effect_rgb">0.2 0.2 0.2 1</color>
                        </specular>
                        <shininess>
                            <float sid="specular_effect_rgb">256</float>
                        </shininess>
                    </phong>
                </technique>
            </profile_COMMON>
        </effect>
        <effect id="Effect-pipe_turn_broken_slim" name="pipe_turn_broken_slim">
            <profile_COMMON>
                <newparam sid="Image0004-surface">
                    <surface type="2D">
                        <init_from>Image0004</init_from>
                        <format>A8R8G8B8</format>
                    </surface>
                </newparam>
                <newparam sid="Image0004-sampler">
                    <sampler2D>
                        <source>Image0004-surface</source>
                        <minfilter>LINEAR_MIPMAP_LINEAR</minfilter>
                        <magfilter>LINEAR</magfilter>
                    </sampler2D>
                </newparam>
                <technique sid="common">
                    <phong>
                        <diffuse>
                            <texture texture="Image0004-sampler" texcoord="map1" />
                        </diffuse>
                        <specular>
                            <color sid="specular_effect_rgb">0.2 0.2 0.2 1</color>
                        </specular>
                        <shininess>
                            <float sid="specular_effect_rgb">256</float>
                        </shininess>
                    </phong>
                </technique>
            </profile_COMMON>
        </effect>
        <effect id="Effect-pipe_turn_broken_thick" name="pipe_turn_broken_thick">
            <profile_COMMON>
                <newparam sid="Image0005-surface">
                    <surface type="2D">
                        <init_from>Image0005</init_from>
                        <format>A8R8G8B8</format>
                    </surface>
                </newparam>
                <newparam sid="Image0005-sampler">
                    <sampler2D>
                        <source>Image0005-surface</source>
                        <minfilter>LINEAR_MIPMAP_LINEAR</minfilter>
                        <magfilter>LINEAR</magfilter>
                    </sampler2D>
                </newparam>
                <technique sid="common">
                    <phong>
                        <diffuse>
                            <texture texture="Image0005-sampler" texcoord="map1" />
                        </diffuse>
                        <specular>
                            <color sid="specular_effect_rgb">0.2 0.2 0.2 1</color>
                        </specular>
                        <shininess>
                            <float sid="specular_effect_rgb">256</float>
                        </shininess>
                    </phong>
                </technique>
            </profile_COMMON>
        </effect>
    </library_effects>
    <library_geometries>
        <geometry id="Geometry-mesh078" name="pipe_medium2_90_pplant">
            <mesh>
                <source id="Geometry-mesh078-positions" name="positions">
                    <float_array id="Geometry-mesh078-positions-array" count="432">
                        0.0621184 -0.809732 0.857543
                        0.109095 -0.809732 0.813089
                        0.124237 -0.809732 0.75
                        0.109095 -0.809732 0.686911
                        0.0621184 -0.809732 0.642458
                        0 -0.809732 0.623822
                        -0.0621184 -0.809732 0.642458
                        -0.109095 -0.809732 0.686911
                        -0.124237 -0.809732 0.75
                        -0.109095 -0.809732 0.813089
                        -0.0621184 -0.809732 0.857543
                        0 -0.809732 0.876178
                        0.0621184 -0.708013 0.857543
                        0.109095 -0.708013 0.813089
                        0.124237 -0.708013 0.75
                        0.109095 -0.708013 0.686911
                        0.0621184 -0.708013 0.642458
                        0 -0.708013 0.623822
                        -0.0621184 -0.708013 0.642458
                        -0.109095 -0.708013 0.686911
                        -0.124237 -0.708013 0.75
                        -0.109095 -0.708013 0.813089
                        -0.0621184 -0.708013 0.857543
                        0 -0.708013 0.876178
                        0.0537712 -0.708013 0.843372
                        0.0947306 -0.708013 0.804742
                        0.107542 -0.708013 0.75
                        0.0947306 -0.708013 0.695258
                        0.0537712 -0.708013 0.656628
                        0 -0.708013 0.640711
                        -0.0537712 -0.708013 0.656628
                        -0.0947306 -0.708013 0.695258
                        -0.107542 -0.708013 0.75
                        -0.0947306 -0.708013 0.804742
                        -0.0537712 -0.708013 0.843372
                        0 -0.708013 0.859484
                        0.0621184 -0.1076 0
                        0.109095 -0.0629528 0
                        0.124237 0.000136241 0
                        0.109095 0.0632252 0
                        0.0621184 0.107679 0
                        0 0.126314 0
                        -0.0621184 0.107679 0
                        -0.109095 0.0632252 0
                        -0.124237 0.000136241 0
                        -0.109095 -0.0629528 0
                        -0.0621184 -0.1076 0
                        0 -0.126042 0
                        0.0621184 -0.1076 0.0933717
                        0.109095 -0.0629528 0.0933717
                        0.124237 0.000136241 0.0933717
                        0.109095 0.0632252 0.0933717
                        0.0621184 0.107679 0.0933717
                        0 0.126314 0.0933717
                        -0.0621184 0.107679 0.0933717
                        -0.109095 0.0632252 0.0933717
                        -0.124237 0.000136241 0.0933717
                        -0.109095 -0.0629528 0.0933717
                        -0.0621184 -0.1076 0.0933717
                        0 -0.126042 0.0933717
                        0.0537712 -0.0932355 0.0933717
                        0.0947306 -0.0546056 0.0933717
                        0.107542 0.000136241 0.0933717
                        0.0947306 0.054684 0.0933717
                        0.0537712 0.0933138 0.0933717
                        0 0.109426 0.0933717
                        -0.0537712 0.0933138 0.0933717
                        -0.0947306 0.054684 0.0933717
                        -0.107542 0.000136241 0.0933717
                        -0.0947306 -0.0546056 0.0933717
                        -0.0537712 -0.0932355 0.0933717
                        0 -0.109347 0.0933717
                        0.0537712 -0.0938178 0.347395
                        0.0537712 -0.1175 0.452608
                        0.0537712 -0.167195 0.540156
                        0.0537712 -0.245426 0.609846
                        0.0537712 -0.332391 0.649446
                        0.0537712 -0.398198 0.657211
                        0.0947306 -0.055188 0.347589
                        0.0947306 -0.0802294 0.461926
                        0.0947306 -0.134389 0.560539
                        0.0947306 -0.22019 0.638769
                        0.0947306 -0.318221 0.685164
                        0.0947306 -0.392374 0.695452
                        0.107542 -0.000446114 0.347978
                        0.107542 -0.0274288 0.475126
                        0.107542 -0.0879942 0.589269
                        0.107542 -0.184472 0.679923
                        0.107542 -0.297838 0.736023
                        0.107542 -0.383833 0.749418
                        0.0947306 0.0542957 0.348366
                        0.0947306 0.0251777 0.488326
                        0.0947306 -0.0414054 0.618193
                        0.0947306 -0.148754 0.720882
                        0.0947306 -0.277455 0.786689
                        0.0947306 -0.375292 0.803577
                        0.0537712 0.0929256 0.34856
                        0.0537712 0.0624488 0.497644
                        0.0537712 -0.00859915 0.638381
                        0.0537712 -0.123518 0.749806
                        0.0537712 -0.26309 0.822601
                        0.0537712 -0.369468 0.841625
                        0 0.109038 0.34856
                        0 0.0779784 0.501527
                        0 0.00498925 0.646922
                        0 -0.113036 0.762036
                        0 -0.257073 0.837548
                        0 -0.366945 0.857543
                        -0.0537712 0.0929256 0.34856
                        -0.0537712 0.0624488 0.497644
                        -0.0537712 -0.00859915 0.638381
                        -0.0537712 -0.123518 0.749806
                        -0.0537712 -0.26309 0.822601
                        -0.0537712 -0.369468 0.841625
                        -0.0947306 0.0542957 0.348366
                        -0.0947306 0.0251777 0.488326
                        -0.0947306 -0.0414054 0.618193
                        -0.0947306 -0.148754 0.720882
                        -0.0947306 -0.277455 0.786689
                        -0.0947306 -0.375292 0.803577
                        -0.107542 -0.000446114 0.347978
                        -0.107542 -0.0274288 0.475126
                        -0.107542 -0.0879942 0.589269
                        -0.107542 -0.184472 0.679923
                        -0.107542 -0.297838 0.736023
                        -0.107542 -0.383833 0.749418
                        -0.0947306 -0.055188 0.347589
                        -0.0947306 -0.0802294 0.461926
                        -0.0947306 -0.134389 0.560539
                        -0.0947306 -0.22019 0.638769
                        -0.0947306 -0.318221 0.685164
                        -0.0947306 -0.392374 0.695452
                        -0.0537712 -0.0938178 0.347395
                        -0.0537712 -0.1175 0.452608
                        -0.0537712 -0.167195 0.540156
                        -0.0537712 -0.245426 0.609846
                        -0.0537712 -0.332391 0.649446
                        -0.0537712 -0.398198 0.657211
                        0 -0.10993 0.347395
                        0 -0.13303 0.448726
                        0 -0.180978 0.531615
                        0 -0.255908 0.59781
                        0 -0.338409 0.634499
                        0 -0.400722 0.641293
                    </float_array>
                    <technique_common>
                        <accessor count="144" source="#Geometry-mesh078-positions-array" stride="3">
                            <param name="X" type="float" />
                            <param name="Y" type="float" />
                            <param name="Z" type="float" />
                        </accessor>
                    </technique_common>
                </source>
                <source id="Geometry-mesh078-normals" name="normals">
                    <float_array id="Geometry-mesh078-normals-array" count="444">
                        0.431027 0 0.902339
                        0.812158 0 0.583437
                        0.567635 0 0.82328
                        0.910798 0 0.412851
                        0.996815 0 0.0797452
                        0.996815 0 -0.0797454
                        0.910798 0 -0.412851
                        0.812158 0 -0.583437
                        0.567635 0 -0.82328
                        0.431028 0 -0.902339
                        0.099504 0 -0.995037
                        -0.099504 0 -0.995037
                        -0.431028 0 -0.902339
                        -0.567635 0 -0.82328
                        -0.812158 0 -0.583437
                        -0.910798 0 -0.412851
                        -0.996815 0 -0.0797454
                        -0.996815 0 0.0797452
                        -0.910798 0 0.412851
                        -0.812158 0 0.583437
                        -0.567635 0 0.82328
                        -0.431027 0 0.902339
                        -0.0995037 0 0.995037
                        0.0995037 0 0.995037
                        0 1 0
                        0.429917 -0.902869 0
                        0.81302 -0.582236 0
                        0.568076 -0.822976 0
                        0.911086 -0.412216 0
                        0.996815 -0.0797453 0
                        0.996815 0.0797453 0
                        0.910798 0.412851 0
                        0.812158 0.583437 0
                        0.567635 0.82328 0
                        0.431027 0.902339 0
                        0.0995036 0.995037 0
                        -0.0995036 0.995037 0
                        -0.431027 0.902339 0
                        -0.567635 0.82328 0
                        -0.812158 0.583437 0
                        -0.910798 0.412851 0
                        -0.996815 0.0797453 0
                        -0.996815 -0.0797453 0
                        -0.911086 -0.412216 0
                        -0.81302 -0.582236 0
                        -0.568076 -0.822976 0
                        -0.429917 -0.902869 0
                        -0.0984773 -0.995139 0
                        0.0984773 -0.995139 0
                        0 0 1
                        0.911876 -0.408033 -0.0446193
                        0.528692 -0.845134 -0.0789545
                        0.812551 -0.582888 -0.00133573
                        0.500028 -0.866007 -0.00198538
                        0.865129 -0.473684 -0.164849
                        0.497712 -0.811457 -0.306299
                        0.86526 -0.401789 -0.299817
                        0.498645 -0.678058 -0.539992
                        0.864356 -0.289945 -0.410877
                        0.496125 -0.479648 -0.723739
                        0.864909 -0.155005 -0.477394
                        0.497943 -0.240091 -0.833312
                        0.865015 -0.037998 -0.500306
                        0.498062 -0.0511225 -0.865633
                        0.42829 0.00170356 -0.90364
                        0.811542 0.000678186 -0.584294
                        0.996963 0.0774607 0.00805146
                        0.996991 -0.0775207 -0.000177586
                        0.999949 -0.00398715 0.00931886
                        0.999926 -0.00852939 0.00872029
                        0.999943 -0.00932444 0.00512316
                        0.999942 -0.0106057 0.0020021
                        0.999985 -0.00538949 -0.000832602
                        0.996888 4.59931e-005 -0.0788294
                        0.812282 0.580177 0.0599478
                        0.912046 0.410087 0.000684947
                        0.86555 0.468363 0.177369
                        0.866312 0.391607 0.310076
                        0.865545 0.280129 0.415162
                        0.866638 0.145473 0.477258
                        0.866007 0.035854 0.498744
                        0.91184 0.00130255 0.410543
                        0.429508 0.898414 0.0915135
                        0.566621 0.823978 0.00125385
                        0.497398 0.817624 0.289977
                        0.498379 0.694257 0.519255
                        0.497071 0.502893 0.707121
                        0.499131 0.273789 0.822136
                        0.498211 0.0748365 0.86382
                        0.564617 0.00384691 0.825344
                        -0.0600652 0.994917 0.0808219
                        0.099385 0.995048 0.00151382
                        -2.087e-008 0.958551 0.284921
                        -1.04783e-008 0.838377 0.545092
                        -1.56754e-008 0.625287 0.780395
                        -1.04618e-008 0.372332 0.9281
                        -1.55941e-008 0.120654 0.992695
                        -3.10972e-008 0.00542607 0.999985
                        -0.499402 0.861501 0.0917282
                        -0.430336 0.902668 0.00137327
                        -0.497398 0.817624 0.289977
                        -0.498379 0.694257 0.519255
                        -0.497071 0.502893 0.707121
                        -0.499131 0.273789 0.822136
                        -0.498211 0.0748365 0.86382
                        -0.564617 0.00384691 0.825344
                        -0.866253 0.495974 0.0601314
                        -0.812404 0.583094 0.000887491
                        -0.86555 0.468363 0.177369
                        -0.866312 0.391607 0.310076
                        -0.865545 0.280129 0.415162
                        -0.866638 0.145473 0.477258
                        -0.866007 0.035854 0.498744
                        -0.91184 0.00130255 0.410543
                        -0.999968 -0.000486229 0.00792637
                        -0.99695 0.0780422 0.000118823
                        -0.999949 -0.00398715 0.00931886
                        -0.999926 -0.00852939 0.00872029
                        -0.999943 -0.00932444 0.00512316
                        -0.999942 -0.0106057 0.0020021
                        -0.999985 -0.00538948 -0.000832595
                        -0.996888 4.59929e-005 -0.0788294
                        -0.866444 -0.497238 -0.0450493
                        -0.912156 -0.409841 -0.000938591
                        -0.865129 -0.473684 -0.164849
                        -0.86526 -0.401789 -0.299817
                        -0.864356 -0.289945 -0.410877
                        -0.864909 -0.155005 -0.477394
                        -0.865015 -0.037998 -0.500306
                        -0.811542 0.000678186 -0.584294
                        -0.499244 -0.861575 -0.091893
                        -0.566621 -0.823976 -0.00188859
                        -0.497712 -0.811457 -0.306299
                        -0.498645 -0.678058 -0.539992
                        -0.496125 -0.479648 -0.723738
                        -0.497943 -0.240091 -0.833312
                        -0.498062 -0.0511226 -0.865633
                        -0.42829 0.00170356 -0.90364
                        -1.04179e-008 -0.98885 -0.148916
                        0 -0.999997 -0.00229254
                        -1.569e-008 -0.912274 -0.40958
                        -1.57184e-008 -0.739267 -0.673412
                        -1.04584e-008 -0.499212 -0.86648
                        -1.04685e-008 -0.212748 -0.977107
                        -1.55661e-008 -0.0348968 -0.999391
                        -1.55404e-008 0.00189506 -0.999998
                        0 0 -1
                        0 -1 0
                    </float_array>
                    <technique_common>
                        <accessor count="148" source="#Geometry-mesh078-normals-array" stride="3">
                            <param name="X" type="float" />
                            <param name="Y" type="float" />
                            <param name="Z" type="float" />
                        </accessor>
                    </technique_common>
                </source>
                <source id="Geometry-mesh078-map1" name="map1">
                    <float_array id="Geometry-mesh078-map1-array" count="360">
                        0.006902 0.424541
                        0.007006 0.343013
                        0.062358 0.424541
                        0.062461 0.343013
                        0.007006 0.261566
                        0.062461 0.261566
                        0.007006 0.180223
                        0.062461 0.180223
                        0.007005 0.098767
                        0.062462 0.098767
                        0.007005 0.016374
                        0.062461 0.016374
                        0.0068 0.982365
                        0.0068 0.89994
                        0.062255 0.982365
                        0.062255 0.89994
                        0.0068 0.817299
                        0.062256 0.817299
                        0.0068 0.734623
                        0.062255 0.734623
                        0.0068 0.651882
                        0.062255 0.651882
                        0.006801 0.578349
                        0.062257 0.578348
                        0.0068 0.506948
                        0.062256 0.506948
                        0.071218 0.343013
                        0.071115 0.424541
                        0.071218 0.261566
                        0.071218 0.180223
                        0.071219 0.098767
                        0.071218 0.016374
                        0.071013 0.982365
                        0.071012 0.89994
                        0.071013 0.817299
                        0.071013 0.734623
                        0.071012 0.651882
                        0.071014 0.578348
                        0.071013 0.506948
                        0.883155 0.098767
                        0.883092 0.180223
                        0.828611 0.098767
                        0.828547 0.180222
                        0.883017 0.261566
                        0.828473 0.261566
                        0.882943 0.343013
                        0.828398 0.343013
                        0.883213 0.424541
                        0.828668 0.424541
                        0.883475 0.506947
                        0.828932 0.506947
                        0.883398 0.578348
                        0.828853 0.578349
                        0.883326 0.651882
                        0.828781 0.651882
                        0.883247 0.734623
                        0.828703 0.734623
                        0.883169 0.817298
                        0.828624 0.817298
                        0.883105 0.89994
                        0.828561 0.89994
                        0.883029 0.982366
                        0.828485 0.982366
                        0.883234 0.016374
                        0.82869 0.016374
                        0.819358 0.180223
                        0.81939 0.098767
                        0.819046 0.261566
                        0.818797 0.343012
                        0.819119 0.424541
                        0.819448 0.506948
                        0.819408 0.578349
                        0.819372 0.651882
                        0.819333 0.734623
                        0.819294 0.817298
                        0.819263 0.89994
                        0.819224 0.982366
                        0.81943 0.016374
                        0.643573 0.180223
                        0.643572 0.098767
                        0.566544 0.180223
                        0.566544 0.098767
                        0.48745 0.180223
                        0.48745 0.098767
                        0.405122 0.180223
                        0.405122 0.098767
                        0.321048 0.180223
                        0.321048 0.098767
                        0.258419 0.180223
                        0.258419 0.098767
                        0.643573 0.261565
                        0.566544 0.261565
                        0.487451 0.261566
                        0.405122 0.261565
                        0.321048 0.261566
                        0.258419 0.261566
                        0.643573 0.343013
                        0.566544 0.343013
                        0.487451 0.343013
                        0.405122 0.343013
                        0.321048 0.343013
                        0.258419 0.343013
                        0.64347 0.424541
                        0.566441 0.424541
                        0.487348 0.424541
                        0.405019 0.424541
                        0.320945 0.424541
                        0.258317 0.424541
                        0.643367 0.506947
                        0.566338 0.506947
                        0.487245 0.506948
                        0.404917 0.506947
                        0.320843 0.506948
                        0.258214 0.506948
                        0.643367 0.578349
                        0.566338 0.578349
                        0.487245 0.578349
                        0.404917 0.578349
                        0.320842 0.578349
                        0.258214 0.578349
                        0.643367 0.651882
                        0.566338 0.651882
                        0.487245 0.651881
                        0.404917 0.651882
                        0.320842 0.651882
                        0.258214 0.651882
                        0.643367 0.734623
                        0.566338 0.734623
                        0.487245 0.734623
                        0.404917 0.734623
                        0.320842 0.734623
                        0.258214 0.734623
                        0.643367 0.817298
                        0.566338 0.817298
                        0.487245 0.817298
                        0.404917 0.817299
                        0.320842 0.817299
                        0.258214 0.817299
                        0.643367 0.89994
                        0.566338 0.89994
                        0.487245 0.89994
                        0.404917 0.89994
                        0.320842 0.89994
                        0.258214 0.89994
                        0.643367 0.982366
                        0.566338 0.982365
                        0.487245 0.982365
                        0.404917 0.982365
                        0.320842 0.982365
                        0.258214 0.982365
                        0.643573 0.016374
                        0.566544 0.016374
                        0.48745 0.016374
                        0.405122 0.016374
                        0.321048 0.016374
                        0.258419 0.016374
                        0.896609 0.067148
                        0.916223 0.030099
                        0.942073 0.014651
                        0.890374 0.119645
                        0.896609 0.172142
                        0.916223 0.209191
                        0.942073 0.224639
                        0.967923 0.209191
                        0.987537 0.172142
                        0.993772 0.119645
                        0.987537 0.067148
                        0.967923 0.030099
                        0.989409 0.431556
                        0.969795 0.468605
                        0.943945 0.274066
                        0.995644 0.379059
                        0.989409 0.326563
                        0.969795 0.289514
                        0.898482 0.326562
                        0.918095 0.289514
                        0.892246 0.379059
                        0.898482 0.431556
                        0.918095 0.468605
                        0.943945 0.484053
                    </float_array>
                    <technique_common>
                        <accessor count="180" source="#Geometry-mesh078-map1-array" stride="2">
                            <param name="S" type="float" />
                            <param name="T" type="float" />
                        </accessor>
                    </technique_common>
                </source>
                <vertices id="Geometry-mesh078-vertices">
                    <input semantic="POSITION" source="#Geometry-mesh078-positions" />
                </vertices>
                <polylist count="284" material="Material-pipe_turn_broken_slim">
                    <input semantic="VERTEX" source="#Geometry-mesh078-vertices" offset="0" />
                    <input semantic="NORMAL" source="#Geometry-mesh078-normals" offset="1" />
                    <input semantic="TEXCOORD" source="#Geometry-mesh078-map1" offset="2" set="0" />
                    <vcount>3 3 3 3 3 3 3 3 3 3 3 3 3 3 3 3 3 3 3 3 3 3 3 3 3 3 3 3 3 3 3 3 3 3 3 3 3 3 3 3 3 3 3 3 3 3 3 3 3 3 3 3 3 3 3 3 3 3 3 3 3 3 3 3 3 3 3 3 3 3 3 3 3 3 3 3 3 3 3 3 3 3 3 3 3 3 3 3 3 3 3 3 3 3 3 3 3 3 3 3 3 3 3 3 3 3 3 3 3 3 3 3 3 3 3 3 3 3 3 3 3 3 3 3 3 3 3 3 3 3 3 3 3 3 3 3 3 3 3 3 3 3 3 3 3 3 3 3 3 3 3 3 3 3 3 3 3 3 3 3 3 3 3 3 3 3 3 3 3 3 3 3 3 3 3 3 3 3 3 3 3 3 3 3 3 3 3 3 3 3 3 3 3 3 3 3 3 3 3 3 3 3 3 3 3 3 3 3 3 3 3 3 3 3 3 3 3 3 3 3 3 3 3 3 3 3 3 3 3 3 3 3 3 3 3 3 3 3 3 3 3 3 3 3 3 3 3 3 3 3 3 3 3 3 3 3 3 3 3 3 3 3 3 3 3 3 3 3 3 3 3 3 3 3 3 3 3 3 3 3 3 3 3 3</vcount>
                    <p>0 0 0 1 1 1 12 2 2 12 2 2 1 1 1 13 3 3 1 1 1 2 4 4 13 3 3 13 3 3 2 4 4 14 5 5 2 4 4 3 6 6 14 5 5 14 5 5 3 6 6 15 7 7 3 6 6 4 8 8 15 7 7 15 7 7 4 8 8 16 9 9 4 8 8 5 10 10 16 9 9 16 9 9 5 10 10 17 11 11 5 10 12 6 12 13 17 11 14 17 11 14 6 12 13 18 13 15 6 12 13 7 14 16 18 13 15 18 13 15 7 14 16 19 15 17 7 14 16 8 16 18 19 15 17 19 15 17 8 16 18 20 17 19 8 16 18 9 18 20 20 17 19 20 17 19 9 18 20 21 19 21 9 18 20 10 20 22 21 19 21 21 19 21 10 20 22 22 21 23 10 20 22 11 22 24 22 21 23 22 21 23 11 22 24 23 23 25 11 22 24 0 0 0 23 23 25 23 23 25 0 0 0 12 2 2 13 24 3 25 24 26 12 24 2 12 24 2 25 24 26 24 24 27 13 24 3 14 24 5 25 24 26 25 24 26 14 24 5 26 24 28 15 24 7 27 24 29 14 24 5 14 24 5 27 24 29 26 24 28 15 24 7 16 24 9 27 24 29 27 24 29 16 24 9 28 24 30 17 24 11 29 24 31 16 24 9 16 24 9 29 24 31 28 24 30 17 24 14 18 24 15 29 24 32 29 24 32 18 24 15 30 24 33 19 24 17 31 24 34 18 24 15 18 24 15 31 24 34 30 24 33 19 24 17 20 24 19 31 24 34 31 24 34 20 24 19 32 24 35 21 24 21 33 24 36 20 24 19 20 24 19 33 24 36 32 24 35 21 24 21 22 24 23 33 24 36 33 24 36 22 24 23 34 24 37 23 24 25 35 24 38 22 24 23 22 24 23 35 24 38 34 24 37 23 24 25 12 24 2 35 24 38 35 24 38 12 24 2 24 24 27 36 25 39 37 26 40 48 27 41 48 27 41 37 26 40 49 28 42 37 26 40 38 29 43 49 28 42 49 28 42 38 29 43 50 30 44 38 29 43 39 31 45 50 30 44 50 30 44 39 31 45 51 32 46 39 31 45 40 33 47 51 32 46 51 32 46 40 33 47 52 34 48 40 33 47 41 35 49 52 34 48 52 34 48 41 35 49 53 36 50 41 35 49 42 37 51 53 36 50 53 36 50 42 37 51 54 38 52 42 37 51 43 39 53 54 38 52 54 38 52 43 39 53 55 40 54 43 39 53 44 41 55 55 40 54 55 40 54 44 41 55 56 42 56 44 41 55 45 43 57 56 42 56 56 42 56 45 43 57 57 44 58 45 43 57 46 45 59 57 44 58 57 44 58 46 45 59 58 46 60 46 45 59 47 47 61 58 46 60 58 46 60 47 47 61 59 48 62 47 47 63 36 25 39 59 48 64 59 48 64 36 25 39 48 27 41 49 49 42 61 49 65 48 49 41 48 49 41 61 49 65 60 49 66 49 49 42 50 49 44 61 49 65 61 49 65 50 49 44 62 49 67 51 49 46 63 49 68 50 49 44 50 49 44 63 49 68 62 49 67 51 49 46 52 49 48 63 49 68 63 49 68 52 49 48 64 49 69 53 49 50 65 49 70 52 49 48 52 49 48 65 49 70 64 49 69 53 49 50 54 49 52 65 49 70 65 49 70 54 49 52 66 49 71 55 49 54 67 49 72 54 49 52 54 49 52 67 49 72 66 49 71 55 49 54 56 49 56 67 49 72 67 49 72 56 49 56 68 49 73 57 49 58 69 49 74 56 49 56 56 49 56 69 49 74 68 49 73 57 49 58 58 49 60 69 49 74 69 49 74 58 49 60 70 49 75 59 49 62 71 49 76 58 49 60 58 49 60 71 49 76 70 49 75 59 49 64 48 49 41 71 49 77 71 49 77 48 49 41 60 49 66 78 50 78 72 51 79 61 52 65 61 52 65 72 51 79 60 53 66 78 50 78 79 54 80 72 51 79 72 51 79 79 54 80 73 55 81 79 54 80 80 56 82 73 55 81 73 55 81 80 56 82 74 57 83 80 56 82 81 58 84 74 57 83 74 57 83 81 58 84 75 59 85 81 58 84 82 60 86 75 59 85 75 59 85 82 60 86 76 61 87 82 60 86 83 62 88 76 61 87 76 61 87 83 62 88 77 63 89 28 64 30 77 63 89 27 65 29 27 65 29 77 63 89 83 62 88 84 66 90 78 50 78 62 67 67 62 67 67 78 50 78 61 52 65 84 66 90 85 68 91 78 50 78 78 50 78 85 68 91 79 54 80 85 68 91 86 69 92 79 54 80 79 54 80 86 69 92 80 56 82 86 69 92 87 70 93 80 56 82 80 56 82 87 70 93 81 58 84 87 70 93 88 71 94 81 58 84 81 58 84 88 71 94 82 60 86 88 71 94 89 72 95 82 60 86 82 60 86 89 72 95 83 62 88 27 65 29 83 62 88 26 73 28 26 73 28 83 62 88 89 72 95 90 74 96 84 66 90 63 75 68 63 75 68 84 66 90 62 67 67 90 74 96 91 76 97 84 66 90 84 66 90 91 76 97 85 68 91 91 76 97 92 77 98 85 68 91 85 68 91 92 77 98 86 69 92 92 77 98 93 78 99 86 69 92 86 69 92 93 78 99 87 70 93 93 78 99 94 79 100 87 70 93 87 70 93 94 79 100 88 71 94 94 79 100 95 80 101 88 71 94 88 71 94 95 80 101 89 72 95 26 73 28 89 72 95 25 81 26 25 81 26 89 72 95 95 80 101 96 82 102 90 74 96 64 83 69 64 83 69 90 74 96 63 75 68 96 82 102 97 84 103 90 74 96 90 74 96 97 84 103 91 76 97 97 84 103 98 85 104 91 76 97 91 76 97 98 85 104 92 77 98 98 85 104 99 86 105 92 77 98 92 77 98 99 86 105 93 78 99 99 86 105 100 87 106 93 78 99 93 78 99 100 87 106 94 79 100 100 87 106 101 88 107 94 79 100 94 79 100 101 88 107 95 80 101 25 81 26 95 80 101 24 89 27 24 89 27 95 80 101 101 88 107 102 90 108 96 82 102 65 91 70 65 91 70 96 82 102 64 83 69 102 90 108 103 92 109 96 82 102 96 82 102 103 92 109 97 84 103 103 92 109 104 93 110 97 84 103 97 84 103 104 93 110 98 85 104 104 93 110 105 94 111 98 85 104 98 85 104 105 94 111 99 86 105 105 94 111 106 95 112 99 86 105 99 86 105 106 95 112 100 87 106 106 95 112 107 96 113 100 87 106 100 87 106 107 96 113 101 88 107 24 89 27 101 88 107 35 97 38 35 97 38 101 88 107 107 96 113 108 98 114 102 90 108 66 99 71 66 99 71 102 90 108 65 91 70 102 90 108 108 98 114 103 92 109 103 92 109 108 98 114 109 100 115 103 92 109 109 100 115 104 93 110 104 93 110 109 100 115 110 101 116 104 93 110 110 101 116 105 94 111 105 94 111 110 101 116 111 102 117 105 94 111 111 102 117 106 95 112 106 95 112 111 102 117 112 103 118 106 95 112 112 103 118 107 96 113 107 96 113 112 103 118 113 104 119 34 105 37 35 97 38 113 104 119 113 104 119 35 97 38 107 96 113 114 106 120 108 98 114 67 107 72 67 107 72 108 98 114 66 99 71 108 98 114 114 106 120 109 100 115 109 100 115 114 106 120 115 108 121 109 100 115 115 108 121 110 101 116 110 101 116 115 108 121 116 109 122 110 101 116 116 109 122 111 102 117 111 102 117 116 109 122 117 110 123 111 102 117 117 110 123 112 103 118 112 103 118 117 110 123 118 111 124 112 103 118 118 111 124 113 104 119 113 104 119 118 111 124 119 112 125 33 113 36 34 105 37 119 112 125 119 112 125 34 105 37 113 104 119 120 114 126 114 106 120 68 115 73 68 115 73 114 106 120 67 107 72 114 106 120 120 114 126 115 108 121 115 108 121 120 114 126 121 116 127 115 108 121 121 116 127 116 109 122 116 109 122 121 116 127 122 117 128 116 109 122 122 117 128 117 110 123 117 110 123 122 117 128 123 118 129 117 110 123 123 118 129 118 111 124 118 111 124 123 118 129 124 119 130 118 111 124 124 119 130 119 112 125 119 112 125 124 119 130 125 120 131 32 121 35 33 113 36 125 120 131 125 120 131 33 113 36 119 112 125 126 122 132 120 114 126 69 123 74 69 123 74 120 114 126 68 115 73 120 114 126 126 122 132 121 116 127 121 116 127 126 122 132 127 124 133 121 116 127 127 124 133 122 117 128 122 117 128 127 124 133 128 125 134 122 117 128 128 125 134 123 118 129 123 118 129 128 125 134 129 126 135 123 118 129 129 126 135 124 119 130 124 119 130 129 126 135 130 127 136 124 119 130 130 127 136 125 120 131 125 120 131 130 127 136 131 128 137 31 129 34 32 121 35 131 128 137 131 128 137 32 121 35 125 120 131 132 130 138 126 122 132 70 131 75 70 131 75 126 122 132 69 123 74 126 122 132 132 130 138 127 124 133 127 124 133 132 130 138 133 132 139 127 124 133 133 132 139 128 125 134 128 125 134 133 132 139 134 133 140 128 125 134 134 133 140 129 126 135 129 126 135 134 133 140 135 134 141 129 126 135 135 134 141 130 127 136 130 127 136 135 134 141 136 135 142 130 127 136 136 135 142 131 128 137 131 128 137 136 135 142 137 136 143 30 137 33 31 129 34 137 136 143 137 136 143 31 129 34 131 128 137 138 138 144 132 130 138 71 139 76 71 139 76 132 130 138 70 131 75 132 130 138 138 138 144 133 132 139 133 132 139 138 138 144 139 140 145 133 132 139 139 140 145 134 133 140 134 133 140 139 140 145 140 141 146 134 133 140 140 141 146 135 134 141 135 134 141 140 141 146 141 142 147 135 134 141 141 142 147 136 135 142 136 135 142 141 142 147 142 143 148 136 135 142 142 143 148 137 136 143 137 136 143 142 143 148 143 144 149 29 145 32 30 137 33 143 144 149 143 144 149 30 137 33 137 136 143 60 53 66 72 51 79 71 139 77 71 139 77 72 51 79 138 138 150 72 51 79 73 55 81 138 138 150 138 138 150 73 55 81 139 140 151 73 55 81 74 57 83 139 140 151 139 140 151 74 57 83 140 141 152 74 57 83 75 59 85 140 141 152 140 141 152 75 59 85 141 142 153 75 59 85 76 61 87 141 142 153 141 142 153 76 61 87 142 143 154 76 61 87 77 63 89 142 143 154 142 143 154 77 63 89 143 144 155 77 63 89 28 64 30 143 144 155 143 144 155 28 64 30 29 145 31 37 146 156 36 146 157 47 146 158 38 146 159 37 146 156 47 146 158 39 146 160 38 146 159 47 146 158 40 146 161 39 146 160 47 146 158 41 146 162 40 146 161 47 146 158 42 146 163 41 146 162 47 146 158 43 146 164 42 146 163 47 146 158 44 146 165 43 146 164 47 146 158 45 146 166 44 146 165 47 146 158 46 146 167 45 146 166 47 146 158 1 147 168 0 147 169 5 147 170 2 147 171 1 147 168 5 147 170 3 147 172 2 147 171 5 147 170 4 147 173 3 147 172 5 147 170 7 147 174 6 147 175 5 147 170 8 147 176 7 147 174 5 147 170 9 147 177 8 147 176 5 147 170 10 147 178 9 147 177 5 147 170 11 147 179 10 147 178 5 147 170 0 147 169 11 147 179 5 147 170</p>
                </polylist>
                <extra>
                    <technique profile="modo401">
                        <param sid="render" name="Render" type="Name">default</param>
                        <param sid="dissolve" name="Dissolve" type="float">0</param>
                        <param sid="curves" name="Render_Curves" type="bool">false</param>
                        <param sid="radius" name="Curve_Radius" type="float">0.05</param>
                    </technique>
                </extra>
            </mesh>
        </geometry>
    </library_geometries>
    <library_lights>
        <light id="Light-polyRender014" name="Render">
            <technique_common>
                <ambient>
                    <color sid="ambient_light_rgb">0.05 0.05 0.05</color>
                </ambient>
            </technique_common>
        </light>
        <light id="Light-sunLight023" name="Directional_Light">
            <technique_common>
                <directional>
                    <color sid="directional_light_rgb">1 1 1</color>
                </directional>
            </technique_common>
            <extra>
                <technique profile="modo401">
                    <param sid="lightType" name="Light_Type" type="Name">sun_light</param>
                    <param sid="render" name="Render" type="Name">default</param>
                    <param sid="visible" name="Display_Visible" type="Name">default</param>
                    <param sid="size" name="Display_Size" type="float">1</param>
                    <param sid="dissolve" name="Dissolve" type="float">0</param>
                    <param sid="radiance" name="Radiant_Intensity" type="float">3</param>
                    <param sid="samples" name="Samples" type="int">64</param>
                    <param sid="shadType" name="Shadow_Type" type="Name">raytrace</param>
                    <param sid="shadRes" name="Shadow_Resolution" type="int">1024</param>
                    <param sid="fast" name="Simple_Shading" type="bool">true</param>
                    <param sid="azimuth" name="Azimuth" type="float">0</param>
                    <param sid="clamp" name="Clamp_Intensity" type="bool">true</param>
                    <param sid="day" name="Day" type="int">2012173</param>
                    <param sid="elevation" name="Elevation" type="float">0</param>
                    <param sid="haze" name="Haze" type="float">2</param>
                    <param sid="height" name="Height" type="float">10</param>
                    <param sid="lat" name="Latitude" type="float">0.655057</param>
                    <param sid="lon" name="Longitude" type="float">-2.13456</param>
                    <param sid="mapSize" name="Map_Size" type="float">2</param>
                    <param sid="north" name="North" type="float">0</param>
                    <param sid="radius" name="Radius" type="float">0.5</param>
                    <param sid="spread" name="Spread" type="float">0</param>
                    <param sid="sunPos" name="Sun_Position" type="bool">false</param>
                    <param sid="time" name="Time" type="float">12</param>
                    <param sid="timeZone" name="Time_Zone" type="float">-8</param>
                    <param sid="volumetrics" name="Volumetrics" type="bool">false</param>
                    <param sid="vdissolve" name="Volumetrics_Dissolve" type="float">0</param>
                    <param sid="vsamples" name="Volumetric_Samples" type="int">40</param>
                </technique>
            </extra>
        </light>
    </library_lights>
    <library_nodes id="shader_tree" name="Shader_Tree">
        <node sid="shader_tree_render" name="Render">
            <extra>
                <technique profile="modo401">
                    <param sid="first" name="Frame_Range_First" type="int">1</param>
                    <param sid="last" name="Frame_Range_Last" type="int">120</param>
                    <param sid="dpi" name="Frame_DPI" type="float">300</param>
                    <param sid="resUnit" name="Resolution_Unit" type="Name">pixels</param>
                    <param sid="pAspect" name="Frame_Pixel_Aspect_Ratio" type="float">1</param>
                    <param sid="bucketX" name="Bucket_Width" type="int">32</param>
                    <param sid="bucketY" name="Bucket_Height" type="int">32</param>
                    <param sid="bktOrder" name="Bucket_Order" type="Name">hilbert</param>
                    <param sid="bktSkip" name="Skip_Existing_Buckets" type="bool">false</param>
                    <param sid="region" name="Render_Region" type="bool">false</param>
                    <param sid="regX0" name="Render_Region_Left" type="float">0</param>
                    <param sid="regX1" name="Render_Region_Right" type="float">1</param>
                    <param sid="regY0" name="Render_Region_Top" type="float">0</param>
                    <param sid="regY1" name="Render_Region_Bottom" type="float">1</param>
                    <param sid="aa" name="Render_Antialiasing" type="Name">s8</param>
                    <param sid="aaFilter" name="Render_Antialiasing_Filter" type="Name">gaussian</param>
                    <param sid="fineRate" name="Refinement_Shading_Rate" type="float">0.25</param>
                    <param sid="fineThresh" name="Refinement_Threshold" type="float">0.1</param>
                    <param sid="bktRefine" name="Refine_Bucket_Borders" type="bool">false</param>
                    <param sid="dof" name="Render_Depth_of_Field" type="bool">false</param>
                    <param sid="mBlur" name="Render_Motion_Blur" type="bool">false</param>
                    <param sid="stereo" name="Render_Stereoscopic" type="bool">false</param>
                    <param sid="rayShadow" name="Ray_Tracing_Shadows" type="bool">true</param>
                    <param sid="reflDepth" name="Reflection_Depth" type="int">8</param>
                    <param sid="refrDepth" name="Refraction_Depth" type="int">8</param>
                    <param sid="rayThresh" name="Ray_Threshold" type="float">0.001</param>
                    <param sid="subdAdapt" name="Adaptive_Subdivision" type="bool">false</param>
                    <param sid="subdRate" name="Subdivision_Rate" type="float">10</param>
                    <param sid="dispEnable" name="Micropoly_Displacement" type="bool">true</param>
                    <param sid="dispRate" name="Displacement_Rate" type="float">1</param>
                    <param sid="dispRatio" name="Displacement_Ratio" type="float">4</param>
                    <param sid="edgeMin" name="Minimum_Edge_Length" type="float">0.0001</param>
                    <param sid="dispSmooth" name="Smooth_Positions" type="bool">true</param>
                    <param sid="ambRad" name="Ambient_Intensity" type="float">0.05</param>
                    <param sid="ambColor" name="Ambient_Color" type="color">1 1 1</param>
                    <param sid="globEnable" name="Enable_Indirect_Illumination" type="bool">false</param>
                    <param sid="globScope" name="Indirect_Illumination_Scope" type="Name">all</param>
                    <param sid="globRays" name="Indirect_Rays" type="int">64</param>
                    <param sid="globLimit" name="Indirect_Bounces" type="int">1</param>
                    <param sid="globRange" name="Indirect_Range" type="float">0</param>
                    <param sid="globSubs" name="Subsurface_Scattering" type="int">0</param>
                    <param sid="globVols" name="Volumetrics_Affect_Indirect" type="bool">false</param>
                    <param sid="irrCache" name="Enable_Irradiance_Caching" type="bool">true</param>
                    <param sid="irrRays" name="Irradiance_Rays" type="int">256</param>
                    <param sid="globSuper" name="Indirect_Supersampling" type="bool">true</param>
                    <param sid="irrRate" name="Irradiance_Rate" type="float">2.5</param>
                    <param sid="irrRatio" name="Irradiance_Ratio" type="float">6</param>
                    <param sid="irrVals" name="Interpolation_Values" type="int">1</param>
                    <param sid="irrGrads" name="Irradiance_Gradients" type="Name">both</param>
                    <param sid="irrWalk" name="Walkthrough_Mode" type="bool">false</param>
                    <param sid="irrLEnable" name="Load_Irradiance_before_Render" type="bool">false</param>
                    <param sid="irrLName" name="Load_Irradiance_File" type="Name"></param>
                    <param sid="irrSEnable" name="Save_Irradiance_after_Render" type="bool">false</param>
                    <param sid="irrSName" name="Save_Irradiance_File" type="Name"></param>
                    <param sid="causEnable" name="Enable_Direct_Caustics" type="bool">false</param>
                    <param sid="causTotal" name="Caustics_Total_Photons" type="int">100000</param>
                    <param sid="causLocal" name="Caustics_Local_Photons" type="int">32</param>
                    <param sid="globCaus" name="Indirect_Caustics" type="Name">refraction</param>
                </technique>
            </extra>
        </node>
        <node sid="shader_tree_environment" name="Environment">
            <extra>
                <technique profile="modo401">
                    <param sid="radiance" name="Environment_Intensity" type="float">1</param>
                    <param sid="visCam" name="Environment_Visible_to_Camera" type="bool">true</param>
                    <param sid="visInd" name="Environment_Visible_to_Indirect_Rays" type="bool">true</param>
                    <param sid="visRefl" name="Environment_Visible_to_Reflection_Rays" type="bool">true</param>
                    <param sid="visRefr" name="Environment_Visible_to_Refraction_Rays" type="bool">true</param>
                </technique>
            </extra>
        </node>
    </library_nodes>
    <library_visual_scenes>
        <visual_scene id="DefaultScene">
            <node id="polyRender014" name="Render" type="NODE">
                <instance_light url="#Light-polyRender014" />
            </node>
            <node id="Camera-camera020Node" name="Camera" type="NODE">
                <translate sid="translation021">0 0.75 4</translate>
                <rotate sid="rotation022Y">0 1 0 0</rotate>
                <rotate sid="rotation022X">1 0 0 -5</rotate>
                <rotate sid="rotation022Z">0 0 1 0</rotate>
                <instance_camera url="#Camera-camera020" />
            </node>
            <node id="txtrLocator001Node" name="pipe_broken_large__Image___Texture_" type="NODE">
                <translate sid="translation017">0 0 0</translate>
                <rotate sid="rotation016Y">0 1 0 0</rotate>
                <rotate sid="rotation016X">1 0 0 0</rotate>
                <rotate sid="rotation016Z">0 0 1 0</rotate>
                <scale sid="scale015">1 1 1</scale>
            </node>
            <node id="groupLocator038Node" name="Texture_Group" type="NODE">
                <node id="txtrLocator063Node" name="pipe_turn_broken_thick__2___Image___Texture_" type="NODE">
                    <translate sid="translation066">0 0 0</translate>
                    <rotate sid="rotation065Y">0 1 0 0</rotate>
                    <rotate sid="rotation065X">1 0 0 0</rotate>
                    <rotate sid="rotation065Z">0 0 1 0</rotate>
                    <scale sid="scale064">1 1 1</scale>
                </node>
                <node id="txtrLocator053Node" name="pipe_turn_broken_slim__2___Image___Texture_" type="NODE">
                    <translate sid="translation056">0 0 0</translate>
                    <rotate sid="rotation055Y">0 1 0 0</rotate>
                    <rotate sid="rotation055X">1 0 0 0</rotate>
                    <rotate sid="rotation055Z">0 0 1 0</rotate>
                    <scale sid="scale054">1 1 1</scale>
                </node>
                <node id="txtrLocator043Node" name="pipe_broken_small__2___Image___Texture_" type="NODE">
                    <translate sid="translation046">0 0 0</translate>
                    <rotate sid="rotation045Y">0 1 0 0</rotate>
                    <rotate sid="rotation045X">1 0 0 0</rotate>
                    <rotate sid="rotation045Z">0 0 1 0</rotate>
                    <scale sid="scale044">1 1 1</scale>
                </node>
                <node id="txtrLocator034Node" name="pipe_broken_medium__2___Image___Texture_" type="NODE">
                    <translate sid="translation037">0 0 0</translate>
                    <rotate sid="rotation036Y">0 1 0 0</rotate>
                    <rotate sid="rotation036X">1 0 0 0</rotate>
                    <rotate sid="rotation036Z">0 0 1 0</rotate>
                    <scale sid="scale035">1 1 1</scale>
                </node>
            </node>
            <node id="groupLocator068Node" name="base" type="NODE">
                <node id="Geometry-mesh078Node" name="pipe_medium2_90_pplant" type="NODE">
                    <translate sid="translation080">0 0 0</translate>
                    <rotate sid="rotation079Y">0 1 0 0</rotate>
                    <rotate sid="rotation079X">1 0 0 0</rotate>
                    <rotate sid="rotation079Z">0 0 1 0</rotate>
                    <scale sid="scale081">1 1 1</scale>
                    <instance_geometry url="#Geometry-mesh078">
                        <bind_material>
                            <technique_common>
                                <instance_material symbol="Material-pipe_turn_broken_slim" target="#Material-pipe_turn_broken_slim">
                                    <bind_vertex_input semantic="map1" input_semantic="TEXCOORD" input_set="0" />
                                </instance_material>
                            </technique_common>
                        </bind_material>
                    </instance_geometry>
                </node>
            </node>
            <node id="Light-sunLight023Node" name="Directional_Light" type="NODE">
                <translate sid="translation024">-2 2 2</translate>
                <rotate sid="rotation025Y">0 1 0 -45</rotate>
                <rotate sid="rotation025X">1 0 0 -30</rotate>
                <rotate sid="rotation025Z">0 0 1 0</rotate>
                <instance_light url="#Light-sunLight023" />
            </node>
            <extra>
                <technique profile="modo401">
                    <param sid="fps" name="Scene_FPS" type="float">24</param>
                    <param sid="sceneS" name="Scene_Start_Time" type="float">0.041666</param>
                    <param sid="sceneE" name="Scene_End_Time" type="float">2</param>
                    <param sid="currentS" name="Scene_Current_Start_Time" type="float">0</param>
                    <param sid="currentE" name="Scene_Current_End_Time" type="float">0</param>
                    <param sid="timeSys" name="Scene_Time_System" type="Name">frames</param>
                </technique>
            </extra>
            <extra>
                <technique profile="MAX3D">
                    <frame_rate>24</frame_rate>
                </technique>
            </extra>
            <extra>
                <technique profile="MAYA">
                    <start_time>0.041666</start_time>
                    <end_time>2</end_time>
                </technique>
            </extra>
            <extra>
                <technique profile="OKINO" />
            </extra>
            <extra>
                <technique profile="XSI">
                    <SI_Scene>
                        <frame_rate>24</frame_rate>
                    </SI_Scene>
                </technique>
            </extra>
        </visual_scene>
    </library_visual_scenes>
    <scene>
        <instance_visual_scene url="#DefaultScene" />
    </scene>
</COLLADA>
