<?xml version="1.0" encoding="utf-8" ?>
<COLLADA xmlns="http://www.collada.org/2005/11/COLLADASchema" version="1.4.1">
    <asset>
        <contributor>
            <author>user</author>
            <authoring_tool>modo 601 [Build 48460], Microsoft Windows 7 Service Pack 1 (6.1.7601 Service Pack 1)</authoring_tool>
            <comments>
                Plug-in: [Build 48460];
                Use Absolute Path: No;
                Merge Reference Items: No;
                Save Hidden Items: No;
                Save Cameras: Yes;
                Save Lights: Yes;
                Save Locators: Yes;
                Save Triangles as Triangles: No;
                Bake Matrices: No;
                Save Vertex Normals: Yes;
                Save UV Texture Coordinates: Yes;
                Save Vertex Colors: Yes;
                Save Vertex Weights: Yes;
                Save Animation: Yes;
                Sample Animation: No;
                Sample Animation Start: 0;
                Sample Animation End: 120;
                Save modo Profile: Yes;
                Save Maya Profile: Yes;
                Save 3ds Max Profile: Yes;
                Formatted Arrays: Yes;
            </comments>
            <source_data>file:///D:/Work/My%20Dropbox/Frictional%20Games%20-%20Team/Aaron/models/static_objects/station/pipes/pipe_pplant.lxo</source_data>
        </contributor>
        <created>2012-10-08T15:21:32Z</created>
        <modified>2012-10-08T15:21:32Z</modified>
        <unit name="game" meter="1" />
        <up_axis>Y_UP</up_axis>
    </asset>
    <library_cameras>
        <camera id="Camera-camera020" name="Camera">
            <optics>
                <technique_common>
                    <perspective>
                        <xfov sid="HFOV">39.5978</xfov>
                        <yfov sid="YFOV">26.9915</yfov>
                        <znear sid="near_clip">0.01</znear>
                        <zfar sid="far_clip">10000</zfar>
                    </perspective>
                </technique_common>
                <technique profile="modo401">
                    <param sid="projType" name="Projection_Type" type="Name">persp</param>
                    <param sid="focalLen" name="Focal_Length" type="float">0.05</param>
                    <param sid="distort" name="Lens_Distortion" type="float">0</param>
                    <param sid="squeeze" name="Lens_Squeeze" type="float">1</param>
                    <param sid="focusDist" name="Focus_Distance" type="float">4</param>
                    <param sid="fStop" name="F-Stop" type="float">4</param>
                    <param sid="blurLen" name="Blur_Length" type="float">0.5</param>
                    <param sid="blurOff" name="Blur_Offset" type="float">0</param>
                    <param sid="ioDist" name="Interocular_Distance" type="float">0.065</param>
                    <param sid="convDist" name="Convergence_Distance" type="float">2</param>
                </technique>
            </optics>
            <imager>
                <technique profile="modo401">
                    <param sid="apertureX" name="Film_Width" type="float">0.036</param>
                    <param sid="apertureY" name="Film_Height" type="float">0.024</param>
                    <param sid="offsetX" name="Film_Offset_X" type="float">0</param>
                    <param sid="offsetY" name="Film_Offset_Y" type="float">0</param>
                    <param sid="filmFit" name="Film_Fit" type="Name">fill</param>
                </technique>
            </imager>
        </camera>
    </library_cameras>
    <library_images>
        <image id="Image0001" name="Image0001">
            <init_from>file:///D:/Work/My%20Dropbox/Frictional%20Games%20-%20Team/Aaron/models/static_objects/station/pipes/pipe_broken_large.tga</init_from>
        </image>
        <image id="Image0002" name="Image0002">
            <init_from>file:///D:/Work/My%20Dropbox/Frictional%20Games%20-%20Team/Aaron/models/static_objects/station/pipes/pipe_broken_medium.tga</init_from>
        </image>
        <image id="Image0003" name="Image0003">
            <init_from>file:///D:/Work/My%20Dropbox/Frictional%20Games%20-%20Team/Aaron/models/static_objects/station/pipes/pipe_broken_small.tga</init_from>
        </image>
        <image id="Image0004" name="Image0004">
            <init_from>file:///D:/Work/My%20Dropbox/Frictional%20Games%20-%20Team/Aaron/models/static_objects/station/pipes/pipe_turn_broken_slim.tga</init_from>
        </image>
        <image id="Image0005" name="Image0005">
            <init_from>file:///D:/Work/My%20Dropbox/Frictional%20Games%20-%20Team/Aaron/models/static_objects/station/pipes/pipe_turn_broken_thick.tga</init_from>
        </image>
    </library_images>
    <library_materials>
        <material id="Material-pipe_broken_large" name="pipe_broken_large">
            <instance_effect url="#Effect-pipe_broken_large" />
        </material>
        <material id="Material-pipe_broken_medium" name="pipe_broken_medium">
            <instance_effect url="#Effect-pipe_broken_medium" />
        </material>
        <material id="Material-pipe_broken_small" name="pipe_broken_small">
            <instance_effect url="#Effect-pipe_broken_small" />
        </material>
        <material id="Material-pipe_turn_broken_slim" name="pipe_turn_broken_slim">
            <instance_effect url="#Effect-pipe_turn_broken_slim" />
        </material>
        <material id="Material-pipe_turn_broken_thick" name="pipe_turn_broken_thick">
            <instance_effect url="#Effect-pipe_turn_broken_thick" />
        </material>
    </library_materials>
    <library_effects>
        <effect id="Effect-pipe_broken_large" name="pipe_broken_large">
            <profile_COMMON>
                <newparam sid="Image0001-surface">
                    <surface type="2D">
                        <init_from>Image0001</init_from>
                        <format>A8R8G8B8</format>
                    </surface>
                </newparam>
                <newparam sid="Image0001-sampler">
                    <sampler2D>
                        <source>Image0001-surface</source>
                        <minfilter>LINEAR_MIPMAP_LINEAR</minfilter>
                        <magfilter>LINEAR</magfilter>
                    </sampler2D>
                </newparam>
                <technique sid="common">
                    <phong>
                        <diffuse>
                            <texture texture="Image0001-sampler" texcoord="map1" />
                        </diffuse>
                        <specular>
                            <color sid="specular_effect_rgb">0.5 0.5 0.5 1</color>
                        </specular>
                        <shininess>
                            <float sid="specular_effect_rgb">256</float>
                        </shininess>
                        <reflective>
                            <color sid="reflective_effect_rgb">0 0 0 1</color>
                        </reflective>
                        <reflectivity>
                            <float sid="reflectivity_effect_float">0.5</float>
                        </reflectivity>
                        <transparent opaque="RGB_ZERO">
                            <color sid="transparent_effect_rgb">0 0 0 1</color>
                        </transparent>
                        <transparency>
                            <float sid="transparency_effect_float">1</float>
                        </transparency>
                    </phong>
                </technique>
            </profile_COMMON>
        </effect>
        <effect id="Effect-pipe_broken_medium" name="pipe_broken_medium">
            <profile_COMMON>
                <newparam sid="Image0002-surface">
                    <surface type="2D">
                        <init_from>Image0002</init_from>
                        <format>A8R8G8B8</format>
                    </surface>
                </newparam>
                <newparam sid="Image0002-sampler">
                    <sampler2D>
                        <source>Image0002-surface</source>
                        <minfilter>LINEAR_MIPMAP_LINEAR</minfilter>
                        <magfilter>LINEAR</magfilter>
                    </sampler2D>
                </newparam>
                <technique sid="common">
                    <phong>
                        <diffuse>
                            <texture texture="Image0002-sampler" texcoord="map1" />
                        </diffuse>
                        <specular>
                            <color sid="specular_effect_rgb">0.2 0.2 0.2 1</color>
                        </specular>
                        <shininess>
                            <float sid="specular_effect_rgb">256</float>
                        </shininess>
                    </phong>
                </technique>
            </profile_COMMON>
        </effect>
        <effect id="Effect-pipe_broken_small" name="pipe_broken_small">
            <profile_COMMON>
                <newparam sid="Image0003-surface">
                    <surface type="2D">
                        <init_from>Image0003</init_from>
                        <format>A8R8G8B8</format>
                    </surface>
                </newparam>
                <newparam sid="Image0003-sampler">
                    <sampler2D>
                        <source>Image0003-surface</source>
                        <minfilter>LINEAR_MIPMAP_LINEAR</minfilter>
                        <magfilter>LINEAR</magfilter>
                    </sampler2D>
                </newparam>
                <technique sid="common">
                    <phong>
                        <diffuse>
                            <texture texture="Image0003-sampler" texcoord="map1" />
                        </diffuse>
                        <specular>
                            <color sid="specular_effect_rgb">0.2 0.2 0.2 1</color>
                        </specular>
                        <shininess>
                            <float sid="specular_effect_rgb">256</float>
                        </shininess>
                    </phong>
                </technique>
            </profile_COMMON>
        </effect>
        <effect id="Effect-pipe_turn_broken_slim" name="pipe_turn_broken_slim">
            <profile_COMMON>
                <newparam sid="Image0004-surface">
                    <surface type="2D">
                        <init_from>Image0004</init_from>
                        <format>A8R8G8B8</format>
                    </surface>
                </newparam>
                <newparam sid="Image0004-sampler">
                    <sampler2D>
                        <source>Image0004-surface</source>
                        <minfilter>LINEAR_MIPMAP_LINEAR</minfilter>
                        <magfilter>LINEAR</magfilter>
                    </sampler2D>
                </newparam>
                <technique sid="common">
                    <phong>
                        <diffuse>
                            <texture texture="Image0004-sampler" texcoord="map1" />
                        </diffuse>
                        <specular>
                            <color sid="specular_effect_rgb">0.2 0.2 0.2 1</color>
                        </specular>
                        <shininess>
                            <float sid="specular_effect_rgb">256</float>
                        </shininess>
                    </phong>
                </technique>
            </profile_COMMON>
        </effect>
        <effect id="Effect-pipe_turn_broken_thick" name="pipe_turn_broken_thick">
            <profile_COMMON>
                <newparam sid="Image0005-surface">
                    <surface type="2D">
                        <init_from>Image0005</init_from>
                        <format>A8R8G8B8</format>
                    </surface>
                </newparam>
                <newparam sid="Image0005-sampler">
                    <sampler2D>
                        <source>Image0005-surface</source>
                        <minfilter>LINEAR_MIPMAP_LINEAR</minfilter>
                        <magfilter>LINEAR</magfilter>
                    </sampler2D>
                </newparam>
                <technique sid="common">
                    <phong>
                        <diffuse>
                            <texture texture="Image0005-sampler" texcoord="map1" />
                        </diffuse>
                        <specular>
                            <color sid="specular_effect_rgb">0.2 0.2 0.2 1</color>
                        </specular>
                        <shininess>
                            <float sid="specular_effect_rgb">256</float>
                        </shininess>
                    </phong>
                </technique>
            </profile_COMMON>
        </effect>
    </library_effects>
    <library_geometries>
        <geometry id="Geometry-mesh082" name="pipe_small_short_pplant">
            <mesh>
                <source id="Geometry-mesh082-positions" name="positions">
                    <float_array id="Geometry-mesh082-positions-array" count="390">
                        -0.069201 -1.49896e-006 0.117167
                        -0.063933 0.0264795 0.117167
                        -0.086106 0.0356655 0.0997784
                        -0.093201 -1.49896e-006 0.0997784
                        -0.063933 -0.0264855 0.117167
                        -0.086106 -0.0356685 0.0997784
                        -0.04893 -0.0489345 0.117167
                        -0.065901 -0.0659055 0.0997784
                        -0.026481 -0.0639375 0.117167
                        -0.035664 -0.0861075 0.0997784
                        3.72529e-009 -0.0691995 0.117167
                        3.72529e-009 -0.0931995 0.0997784
                        0.026481 -0.0639375 0.117167
                        0.035667 -0.0861075 0.0997784
                        0.048933 -0.0489345 0.117167
                        0.065904 -0.0659055 0.0997784
                        0.063933 -0.0264855 0.117167
                        0.086106 -0.0356685 0.0997784
                        0.069201 -1.49896e-006 0.117167
                        0.093201 -1.49896e-006 0.0997784
                        0.063933 0.0264795 0.117167
                        0.086106 0.0356655 0.0997784
                        0.048933 0.0489315 0.117167
                        0.065904 0.0659025 0.0997784
                        0.026481 0.0639315 0.117167
                        0.035667 0.0861045 0.0997784
                        3.72529e-009 0.0691995 0.117167
                        3.72529e-009 0.0931995 0.0997784
                        -0.026481 0.0639315 0.117167
                        -0.035664 0.0861045 0.0997784
                        -0.04893 0.0489315 0.117167
                        -0.065901 0.0659025 0.0997784
                        -0.094728 0.0392355 2.85208e-005
                        -0.102534 -1.49896e-006 2.85208e-005
                        -0.094728 -0.0392415 2.85208e-005
                        -0.072501 -0.0725025 2.85208e-005
                        -0.039237 -0.0947295 2.85208e-005
                        3.72529e-009 -0.102533 2.85208e-005
                        0.039237 -0.0947295 2.85208e-005
                        0.072501 -0.0725025 2.85208e-005
                        0.094728 -0.0392415 2.85208e-005
                        0.102534 -1.49896e-006 2.85208e-005
                        0.094728 0.0392355 2.85208e-005
                        0.072501 0.0725025 2.85208e-005
                        0.039237 0.0947265 2.85208e-005
                        3.72529e-009 0.102533 2.85208e-005
                        -0.039237 0.0947265 2.85208e-005
                        -0.072501 0.0725025 2.85208e-005
                        3.72529e-009 0.0781515 2.85208e-005
                        -0.029907 0.0722025 2.85208e-005
                        0.029907 0.0722025 2.85208e-005
                        0.055263 0.0552615 2.85208e-005
                        0.072204 0.0299055 2.85208e-005
                        0.078153 -1.49896e-006 2.85208e-005
                        0.072204 -0.0299085 2.85208e-005
                        0.055263 -0.0552645 2.85208e-005
                        0.029907 -0.0722025 2.85208e-005
                        3.72529e-009 -0.0781515 2.85208e-005
                        -0.029907 -0.0722025 2.85208e-005
                        -0.05526 -0.0552645 2.85208e-005
                        -0.072201 -0.0299085 2.85208e-005
                        -0.07815 -1.49896e-006 2.85208e-005
                        -0.072201 0.0299055 2.85208e-005
                        -0.05526 0.0552615 2.85208e-005
                        3.72529e-009 -1.49896e-006 0.112507
                        -0.093201 -1.48779e-006 1.40022
                        -0.086106 -0.0356685 1.40022
                        -0.065901 -0.0659055 1.40022
                        -0.035664 -0.0861075 1.40022
                        3.72529e-009 -0.0931995 1.40022
                        -0.102534 -1.48779e-006 1.49997
                        -0.094728 -0.0392415 1.49997
                        -0.072501 -0.0725025 1.49997
                        -0.039237 -0.0947295 1.49997
                        3.72529e-009 -0.102532 1.49997
                        3.72529e-009 -0.0781515 1.49997
                        -0.029907 -0.0722025 1.49997
                        -0.05526 -0.0552645 1.49997
                        -0.072201 -0.0299085 1.49997
                        -0.07815 -1.48779e-006 1.49997
                        3.72529e-009 -1.48779e-006 1.38749
                        0.035667 -0.0861075 1.40022
                        0.065904 -0.0659055 1.40022
                        0.086106 -0.0356685 1.40022
                        0.093201 -1.48779e-006 1.40022
                        0.039237 -0.0947295 1.49997
                        0.072501 -0.0725025 1.49997
                        0.094728 -0.0392415 1.49997
                        0.102534 -1.48779e-006 1.49997
                        0.078153 -1.48779e-006 1.49997
                        0.072204 -0.0299085 1.49997
                        0.055263 -0.0552645 1.49997
                        0.029907 -0.0722025 1.49997
                        -0.086106 0.0356655 1.40022
                        3.72529e-009 0.0931995 1.40022
                        -0.035664 0.0861045 1.40022
                        -0.065901 0.0659025 1.40022
                        -0.094728 0.0392355 1.49997
                        3.72529e-009 0.102533 1.49997
                        -0.039237 0.0947265 1.49997
                        -0.072501 0.0725025 1.49997
                        3.72529e-009 0.0781515 1.49997
                        -0.029907 0.0722025 1.49997
                        -0.072201 0.0299055 1.49997
                        -0.05526 0.0552615 1.49997
                        0.086106 0.0356655 1.40022
                        0.065904 0.0659025 1.40022
                        0.035667 0.0861045 1.40022
                        0.094728 0.0392355 1.49997
                        0.072501 0.0725025 1.49997
                        0.039237 0.0947265 1.49997
                        0.029907 0.0722025 1.49997
                        0.055263 0.0552615 1.49997
                        0.072204 0.0299055 1.49997
                        -2.58647e-005 0.0694238 1.38316
                        -0.0263635 0.0634368 1.38339
                        3.74392e-006 -0.0688034 1.38238
                        -0.0263372 -0.0642342 1.38245
                        -0.0486747 -0.0498564 1.38253
                        -0.063612 -0.0278504 1.38264
                        -0.0688678 -0.00155505 1.3828
                        -0.0636323 0.0250295 1.38302
                        -0.0487025 0.0478517 1.38327
                        0.0263086 0.0648918 1.38292
                        0.0486295 0.050506 1.38328
                        0.0635509 0.0284681 1.38361
                        0.0688205 0.00213859 1.3832
                        0.0636064 -0.0244752 1.38262
                        0.0486865 -0.0473026 1.38236
                        0.0263478 -0.0628637 1.38233
                    </float_array>
                    <technique_common>
                        <accessor count="130" source="#Geometry-mesh082-positions-array" stride="3">
                            <param name="X" type="float" />
                            <param name="Y" type="float" />
                            <param name="Z" type="float" />
                        </accessor>
                    </technique_common>
                </source>
                <source id="Geometry-mesh082-normals" name="normals">
                    <float_array id="Geometry-mesh082-normals-array" count="678">
                        -0.586266 -0.0388699 0.809186
                        -0.556504 0.18845 0.809191
                        -0.586262 0.0388757 0.809188
                        -0.526747 0.260274 0.809194
                        -0.526751 -0.260287 0.809187
                        -0.556516 -0.188451 0.809182
                        -0.387067 -0.442058 0.809175
                        -0.442015 -0.387087 0.809188
                        -0.188423 -0.556548 0.809167
                        -0.26028 -0.526794 0.809162
                        0.0388621 -0.586289 0.809169
                        -0.0388395 -0.586285 0.809173
                        0.260235 -0.526796 0.809175
                        0.188391 -0.556554 0.80917
                        0.442047 -0.387052 0.809188
                        0.387069 -0.442034 0.809187
                        0.556518 -0.188446 0.809182
                        0.526769 -0.260263 0.809183
                        0.586261 0.0388777 0.809189
                        0.586265 -0.0388721 0.809186
                        0.526763 0.260249 0.809192
                        0.556509 0.188437 0.809191
                        0.38705 0.442032 0.809197
                        0.442036 0.387048 0.809196
                        0.188433 0.556511 0.80919
                        0.260247 0.526763 0.809193
                        -0.0388772 0.586264 0.809186
                        0.0388725 0.586262 0.809188
                        -0.260264 0.526766 0.809185
                        -0.188446 0.556519 0.809181
                        -0.442022 0.387067 0.809194
                        -0.387052 0.442044 0.809189
                        -0.892651 0.44106 0.0929497
                        -0.993489 0.065881 0.0929522
                        -0.943065 0.319356 0.0929474
                        -0.993489 -0.065878 0.0929539
                        -0.943064 -0.319359 0.0929549
                        -0.892642 -0.441079 0.0929522
                        -0.749066 -0.655943 0.0929467
                        -0.655911 -0.749094 0.0929476
                        -0.44103 -0.892666 0.0929495
                        -0.319291 -0.943087 0.0929553
                        -0.0658539 -0.99349 0.0929535
                        0.0658526 -0.993491 0.0929512
                        0.319303 -0.943083 0.0929477
                        0.441023 -0.892671 0.0929357
                        0.655906 -0.749101 0.0929272
                        0.749071 -0.655939 0.0929338
                        0.892652 -0.44106 0.0929442
                        0.943074 -0.31933 0.0929548
                        0.993489 -0.0658713 0.0929541
                        0.993488 0.0658829 0.092952
                        0.943071 0.319339 0.092947
                        0.892665 0.441034 0.0929413
                        0.749087 0.65592 0.0929419
                        0.655913 0.749093 0.092942
                        0.441034 0.892665 0.0929439
                        0.319335 0.943073 0.0929472
                        0.0658762 0.993489 0.0929523
                        -0.0658884 0.993488 0.0929541
                        -0.319337 0.943071 0.0929545
                        -0.441032 0.892665 0.0929572
                        -0.655908 0.749094 0.0929617
                        -0.749073 0.655934 0.0929554
                        0 0 -1
                        0.314278 -0.75871 -0.570604
                        0 -0.821224 -0.570606
                        0.152393 -0.766058 -0.624445
                        -0.314257 -0.758718 -0.570604
                        -0.152374 -0.766058 -0.624449
                        -0.580691 -0.580692 -0.570609
                        -0.433936 -0.649433 -0.624449
                        -0.758718 -0.314257 -0.570604
                        -0.649433 -0.433936 -0.624448
                        -0.821224 -7.54933e-009 -0.570606
                        -0.766059 -0.152382 -0.624446
                        -0.758718 0.314257 -0.570604
                        -0.766054 0.152392 -0.62445
                        -0.580667 0.580716 -0.570609
                        -0.649425 0.43395 -0.624447
                        -0.314229 0.75874 -0.570591
                        -0.433925 0.649448 -0.624441
                        0 0.821234 -0.570591
                        -0.152372 0.766072 -0.624433
                        0.31425 0.758731 -0.570591
                        0.152391 0.766072 -0.624429
                        0.580689 0.580704 -0.570599
                        0.433938 0.649445 -0.624435
                        0.758727 0.31426 -0.570591
                        0.649439 0.433945 -0.624436
                        0.821235 -7.54934e-009 -0.570591
                        0.766067 0.152387 -0.624435
                        0.758727 -0.31426 -0.570591
                        0.766073 -0.152376 -0.624431
                        0.580713 -0.58068 -0.570599
                        0.649447 -0.433932 -0.624437
                        0.433949 -0.64943 -0.624442
                        -0.892651 0.44106 -0.0929497
                        -0.943065 0.319356 -0.0929474
                        -0.993489 0.065881 -0.0929522
                        -0.993489 -0.065878 -0.0929539
                        -0.943064 -0.319359 -0.0929549
                        -0.892642 -0.441079 -0.0929522
                        -0.749066 -0.655943 -0.0929467
                        -0.655911 -0.749094 -0.0929476
                        -0.44103 -0.892666 -0.0929495
                        -0.319291 -0.943087 -0.0929552
                        -0.065854 -0.99349 -0.0929534
                        0.0658526 -0.993491 -0.0929511
                        0.319303 -0.943083 -0.0929476
                        0.441023 -0.892671 -0.0929357
                        0.655906 -0.749101 -0.0929273
                        0.749071 -0.655939 -0.0929338
                        0.892652 -0.44106 -0.0929442
                        0.943074 -0.31933 -0.0929548
                        0.993489 -0.0658713 -0.0929541
                        0.993488 0.0658829 -0.092952
                        0.943071 0.319339 -0.092947
                        0.892665 0.441034 -0.0929413
                        0.749087 0.65592 -0.0929419
                        0.655913 0.749093 -0.092942
                        0.441034 0.892665 -0.092944
                        0.319335 0.943073 -0.0929473
                        0.0658762 0.993489 -0.0929523
                        -0.0658883 0.993488 -0.0929541
                        -0.319337 0.943071 -0.0929546
                        -0.441031 0.892665 -0.0929573
                        -0.655908 0.749094 -0.0929617
                        -0.749073 0.655934 -0.0929554
                        0 0 1
                        0.314278 -0.75871 0.570604
                        0.152393 -0.766058 0.624445
                        0 -0.821224 0.570606
                        -0.152374 -0.766058 0.624449
                        -0.314257 -0.758718 0.570604
                        -0.433936 -0.649433 0.624449
                        -0.580691 -0.580692 0.570609
                        -0.649433 -0.433936 0.624448
                        -0.758718 -0.314257 0.570604
                        -0.766059 -0.152382 0.624446
                        -0.821224 -7.54933e-009 0.570606
                        -0.766054 0.152392 0.62445
                        -0.758718 0.314257 0.570604
                        -0.649425 0.43395 0.624447
                        -0.580667 0.580716 0.570609
                        -0.433925 0.649448 0.624441
                        -0.314229 0.75874 0.570591
                        -0.152372 0.766072 0.624433
                        -7.54934e-009 0.821234 0.570591
                        0.152391 0.766072 0.624429
                        0.31425 0.758731 0.570591
                        0.433938 0.649445 0.624435
                        0.580689 0.580704 0.570599
                        0.649439 0.433945 0.624436
                        0.758727 0.31426 0.570591
                        0.766067 0.152387 0.624435
                        0.821235 -7.54934e-009 0.570591
                        0.766073 -0.152376 0.624431
                        0.758727 -0.31426 0.570591
                        0.649447 -0.433932 0.624437
                        0.580713 -0.58068 0.570599
                        0.433949 -0.64943 0.624442
                        -0.584647 -0.0365998 -0.810462
                        -0.57868 0.039149 -0.814614
                        -0.542459 0.185319 -0.819387
                        -0.509807 0.251795 -0.822616
                        -0.53488 -0.26398 -0.802632
                        -0.561709 -0.189687 -0.805296
                        -0.393049 -0.453681 -0.799803
                        -0.451682 -0.396611 -0.799177
                        -0.185015 -0.566572 -0.802973
                        -0.263975 -0.54003 -0.799177
                        0.0469909 -0.585294 -0.809459
                        -0.035466 -0.59303 -0.804399
                        0.26385 -0.515385 -0.815329
                        0.191658 -0.552771 -0.810994
                        0.437741 -0.371815 -0.818618
                        0.384627 -0.432823 -0.815307
                        0.545238 -0.172904 -0.820256
                        0.519519 -0.251009 -0.816759
                        0.570275 0.0491996 -0.819979
                        0.575098 -0.0311691 -0.81749
                        0.519499 0.26072 -0.813724
                        0.545657 0.190162 -0.816148
                        0.392309 0.44573 -0.804623
                        0.443976 0.387259 -0.808032
                        0.183674 0.563106 -0.805714
                        0.264879 0.536295 -0.801391
                        -0.052281 0.574604 -0.81676
                        0.0321509 0.588356 -0.807963
                        -0.259075 0.50215 -0.825061
                        -0.190151 0.5399 -0.81997
                        -0.426341 0.370292 -0.825298
                        -0.373867 0.423025 -0.825393
                        0.997719 0.0674998 0.000194157
                        0.948539 -0.316659 0.000768621
                        0.997873 -0.0651885 0.000389274
                        0.898042 -0.439908 0.000856526
                        0.923184 0.384359 -0.000298156
                        0.922477 0.386052 -0.00032789
                        -0.0495251 -0.998773 0.000136079
                        0.0746747 -0.997208 0.00049753
                        0.392971 -0.91955 0.00078789
                        0.382608 -0.92391 0.000824459
                        0.758733 -0.651401 0.00106133
                        0.663676 -0.748019 0.000953005
                        -0.404412 0.914577 0.000394841
                        -0.0837362 0.996488 1.78462e-005
                        -0.393585 0.919288 0.000358353
                        0.0574529 0.998348 -0.000361246
                        -0.312849 -0.949803 -1.21605e-005
                        -0.430567 -0.902559 -0.000287619
                        -0.666236 0.745741 0.000610323
                        -0.754486 0.656315 0.000766789
                        0.382666 0.923887 -0.000648803
                        0.372849 0.927892 -0.000601686
                        -0.898254 0.439476 0.000646054
                        -0.947373 0.320132 0.000605727
                        -0.997871 0.0652247 0.000328837
                        -0.997789 -0.0664621 0.000187756
                        -0.654432 -0.756121 -0.000296051
                        -0.746981 -0.664845 -0.000385832
                        -0.895434 -0.445194 -0.000201711
                        -0.946304 -0.323278 -0.000115357
                        0.654583 0.75599 -0.00066592
                        0.747409 0.664364 -0.000691806
                    </float_array>
                    <technique_common>
                        <accessor count="226" source="#Geometry-mesh082-normals-array" stride="3">
                            <param name="X" type="float" />
                            <param name="Y" type="float" />
                            <param name="Z" type="float" />
                        </accessor>
                    </technique_common>
                </source>
                <source id="Geometry-mesh082-map1" name="map1">
                    <float_array id="Geometry-mesh082-map1-array" count="236">
                        0.497279 0.3353
                        0.46043 0.3353
                        0.497279 0.256394
                        0.46043 0.256394
                        0.534866 0.3353
                        0.534866 0.256394
                        0.571212 0.3353
                        0.571212 0.256394
                        0.607255 0.3353
                        0.607255 0.256394
                        0.057416 0.3353
                        0.019039 0.3353
                        0.057416 0.256394
                        0.019038 0.256394
                        0.097381 0.3353
                        0.097381 0.256394
                        0.13807 0.3353
                        0.13807 0.256394
                        0.176384 0.3353
                        0.176384 0.256394
                        0.21413 0.3353
                        0.21413 0.256394
                        0.250946 0.3353
                        0.250946 0.256394
                        0.286649 0.3353
                        0.286649 0.256394
                        0.323964 0.3353
                        0.323964 0.256394
                        0.358915 0.3353
                        0.358915 0.256394
                        0.392503 0.3353
                        0.392503 0.256394
                        0.426527 0.3353
                        0.426527 0.256394
                        0.46043 0.016672
                        0.497279 0.016672
                        0.534866 0.016672
                        0.571212 0.016672
                        0.607255 0.016672
                        0.019039 0.016672
                        0.057416 0.016672
                        0.097381 0.016672
                        0.13807 0.016672
                        0.176384 0.016672
                        0.21413 0.016672
                        0.250946 0.016672
                        0.286649 0.016672
                        0.323964 0.016672
                        0.358915 0.016672
                        0.392503 0.016672
                        0.426527 0.016672
                        0.747344 0.339962
                        0.7009 0.331003
                        0.745977 0.300905
                        0.710574 0.293226
                        0.659086 0.295078
                        0.679746 0.266739
                        0.633009 0.241728
                        0.65931 0.226442
                        0.623397 0.179452
                        0.651761 0.178858
                        0.631662 0.116964
                        0.658006 0.131092
                        0.656624 0.063513
                        0.677038 0.090255
                        0.69454 0.027109
                        0.70597 0.062445
                        0.739709 0.013211
                        0.740438 0.051827
                        0.785328 0.023906
                        0.775251 0.059982
                        0.824525 0.057582
                        0.80516 0.085679
                        0.851388 0.109161
                        0.825655 0.125041
                        0.861869 0.17087
                        0.833643 0.172138
                        0.854382 0.233423
                        0.827911 0.21988
                        0.830046 0.287413
                        0.809301 0.261081
                        0.792509 0.324749
                        0.780577 0.289533
                        0.742895 0.175945
                        0.671954 0.790516
                        0.671825 0.828249
                        0.011105 0.782496
                        0.011026 0.821216
                        0.0112 0.743782
                        0.672051 0.747896
                        0.67162 0.942326
                        0.010827 0.937356
                        0.671654 0.904342
                        0.010886 0.898642
                        0.671796 0.866433
                        0.010952 0.859928
                        0.672158 0.585008
                        0.672169 0.624881
                        0.011204 0.588899
                        0.011286 0.627621
                        0.010776 0.97607
                        0.671592 0.980389
                        0.672175 0.54811
                        0.011127 0.550175
                        0.011332 0.666343
                        0.672042 0.66366
                        0.672236 0.510019
                        0.011051 0.511449
                        0.672114 0.471979
                        0.011041 0.467589
                        0.011229 0.351395
                        0.672318 0.351395
                        0.011159 0.390125
                        0.672209 0.396073
                        0.011096 0.428856
                        0.672167 0.434064
                        0.011292 0.705061
                        0.672082 0.700484
                    </float_array>
                    <technique_common>
                        <accessor count="118" source="#Geometry-mesh082-map1-array" stride="2">
                            <param name="S" type="float" />
                            <param name="T" type="float" />
                        </accessor>
                    </technique_common>
                </source>
                <vertices id="Geometry-mesh082-vertices">
                    <input semantic="POSITION" source="#Geometry-mesh082-positions" />
                </vertices>
                <polylist count="368" material="Material-pipe_broken_small">
                    <input semantic="VERTEX" source="#Geometry-mesh082-vertices" offset="0" />
                    <input semantic="NORMAL" source="#Geometry-mesh082-normals" offset="1" />
                    <input semantic="TEXCOORD" source="#Geometry-mesh082-map1" offset="2" set="0" />
                    <vcount>3 3 3 3 3 3 3 3 3 3 3 3 3 3 3 3 3 3 3 3 3 3 3 3 3 3 3 3 3 3 3 3 3 3 3 3 3 3 3 3 3 3 3 3 3 3 3 3 3 3 3 3 3 3 3 3 3 3 3 3 3 3 3 3 3 3 3 3 3 3 3 3 3 3 3 3 3 3 3 3 3 3 3 3 3 3 3 3 3 3 3 3 3 3 3 3 3 3 3 3 3 3 3 3 3 3 3 3 3 3 3 3 3 3 3 3 3 3 3 3 3 3 3 3 3 3 3 3 3 3 3 3 3 3 3 3 3 3 3 3 3 3 3 3 3 3 3 3 3 3 3 3 3 3 3 3 3 3 3 3 3 3 3 3 3 3 3 3 3 3 3 3 3 3 3 3 3 3 3 3 3 3 3 3 3 3 3 3 3 3 3 3 3 3 3 3 3 3 3 3 3 3 3 3 3 3 3 3 3 3 3 3 3 3 3 3 3 3 3 3 3 3 3 3 3 3 3 3 3 3 3 3 3 3 3 3 3 3 3 3 3 3 3 3 3 3 3 3 3 3 3 3 3 3 3 3 3 3 3 3 3 3 3 3 3 3 3 3 3 3 3 3 3 3 3 3 3 3 3 3 3 3 3 3 3 3 3 3 3 3 3 3 3 3 3 3 3 3 3 3 3 3 3 3 3 3 3 3 3 3 3 3 3 3 3 3 3 3 3 3 3 3 3 3 3 3 3 3 3 3 3 3 3 3 3 3 3 3 3 3 3 3 3 3 3 3 3 3 3 3 3 3 3 3 3 3 3 3 3 3 3 3 3 3 3 3 3 3</vcount>
                    <p>0 0 0 1 1 1 3 2 2 3 2 2 1 1 1 2 3 3 4 4 4 0 0 0 5 5 5 5 5 5 0 0 0 3 2 2 6 6 6 4 4 4 7 7 7 7 7 7 4 4 4 5 5 5 8 8 8 6 6 6 9 9 9 9 9 9 6 6 6 7 7 7 10 10 10 8 8 11 11 11 12 11 11 12 8 8 11 9 9 13 12 12 14 10 10 10 13 13 15 13 13 15 10 10 10 11 11 12 14 14 16 12 12 14 15 15 17 15 15 17 12 12 14 13 13 15 16 16 18 14 14 16 17 17 19 17 17 19 14 14 16 15 15 17 18 18 20 16 16 18 19 19 21 19 19 21 16 16 18 17 17 19 20 20 22 18 18 20 21 21 23 21 21 23 18 18 20 19 19 21 22 22 24 20 20 22 23 23 25 23 23 25 20 20 22 21 21 23 24 24 26 22 22 24 25 25 27 25 25 27 22 22 24 23 23 25 26 26 28 24 24 26 27 27 29 27 27 29 24 24 26 25 25 27 28 28 30 26 26 28 29 29 31 29 29 31 26 26 28 27 27 29 30 30 32 28 28 30 31 31 33 31 31 33 28 28 30 29 29 31 1 1 1 30 30 32 2 3 3 2 3 3 30 30 32 31 31 33 32 32 34 33 33 35 2 34 3 2 34 3 33 33 35 3 35 2 33 33 35 34 36 36 3 35 2 3 35 2 34 36 36 5 37 5 34 36 36 35 38 37 5 37 5 5 37 5 35 38 37 7 39 7 35 38 37 36 40 38 7 39 7 7 39 7 36 40 38 9 41 9 36 40 39 37 42 40 9 41 13 9 41 13 37 42 40 11 43 12 37 42 40 38 44 41 11 43 12 11 43 12 38 44 41 13 45 15 38 44 41 39 46 42 13 45 15 13 45 15 39 46 42 15 47 17 39 46 42 40 48 43 15 47 17 15 47 17 40 48 43 17 49 19 40 48 43 41 50 44 17 49 19 17 49 19 41 50 44 19 51 21 41 50 44 42 52 45 19 51 21 19 51 21 42 52 45 21 53 23 42 52 45 43 54 46 21 53 23 21 53 23 43 54 46 23 55 25 43 54 46 44 56 47 23 55 25 23 55 25 44 56 47 25 57 27 44 56 47 45 58 48 25 57 27 25 57 27 45 58 48 27 59 29 45 58 48 46 60 49 27 59 29 27 59 29 46 60 49 29 61 31 46 60 49 47 62 50 29 61 31 29 61 31 47 62 50 31 63 33 47 62 50 32 32 34 31 63 33 31 63 33 32 32 34 2 34 3 46 64 51 45 64 52 49 64 53 49 64 53 45 64 52 48 64 54 45 64 52 44 64 55 48 64 54 48 64 54 44 64 55 50 64 56 44 64 55 43 64 57 50 64 56 50 64 56 43 64 57 51 64 58 43 64 57 42 64 59 51 64 58 51 64 58 42 64 59 52 64 60 42 64 59 41 64 61 52 64 60 52 64 60 41 64 61 53 64 62 41 64 61 40 64 63 53 64 62 53 64 62 40 64 63 54 64 64 40 64 63 39 64 65 54 64 64 54 64 64 39 64 65 55 64 66 39 64 65 38 64 67 55 64 66 55 64 66 38 64 67 56 64 68 38 64 67 37 64 69 56 64 68 56 64 68 37 64 69 57 64 70 37 64 69 36 64 71 57 64 70 57 64 70 36 64 71 58 64 72 36 64 71 35 64 73 58 64 72 58 64 72 35 64 73 59 64 74 35 64 73 34 64 75 59 64 74 59 64 74 34 64 75 60 64 76 34 64 75 33 64 77 60 64 76 60 64 76 33 64 77 61 64 78 33 64 77 32 64 79 61 64 78 61 64 78 32 64 79 62 64 80 32 64 79 47 64 81 62 64 80 62 64 80 47 64 81 63 64 82 47 64 81 46 64 51 63 64 82 63 64 82 46 64 51 49 64 53 49 65 53 48 66 54 64 67 83 48 66 54 50 68 56 64 69 83 50 68 56 51 70 58 64 71 83 51 70 58 52 72 60 64 73 83 52 72 60 53 74 62 64 75 83 53 74 62 54 76 64 64 77 83 54 76 64 55 78 66 64 79 83 55 78 66 56 80 68 64 81 83 56 80 68 57 82 70 64 83 83 57 82 70 58 84 72 64 85 83 58 84 72 59 86 74 64 87 83 59 86 74 60 88 76 64 89 83 60 88 76 61 90 78 64 91 83 61 90 78 62 92 80 64 93 83 62 92 80 63 94 82 64 95 83 63 94 82 49 65 53 64 96 83 97 97 34 93 98 3 70 99 35 93 98 3 65 100 2 70 99 35 70 99 35 65 100 2 71 101 36 65 100 2 66 102 5 71 101 36 71 101 36 66 102 5 72 103 37 66 102 5 67 104 7 72 103 37 72 103 37 67 104 7 73 105 38 67 104 7 68 106 9 73 105 38 73 105 39 68 106 13 74 107 40 68 106 13 69 108 12 74 107 40 74 107 40 69 108 12 85 109 41 69 108 12 81 110 15 85 109 41 85 109 41 81 110 15 86 111 42 81 110 15 82 112 17 86 111 42 86 111 42 82 112 17 87 113 43 82 112 17 83 114 19 87 113 43 87 113 43 83 114 19 88 115 44 83 114 19 84 116 21 88 115 44 88 115 44 84 116 21 108 117 45 84 116 21 105 118 23 108 117 45 108 117 45 105 118 23 109 119 46 105 118 23 106 120 25 109 119 46 109 119 46 106 120 25 110 121 47 106 120 25 107 122 27 110 121 47 110 121 47 107 122 27 98 123 48 107 122 27 94 124 29 98 123 48 98 123 48 94 124 29 99 125 49 94 124 29 95 126 31 99 125 49 99 125 49 95 126 31 100 127 50 95 126 31 96 128 33 100 127 50 100 127 50 96 128 33 97 97 34 96 128 33 93 98 3 97 97 34 99 129 51 102 129 53 98 129 52 102 129 53 101 129 54 98 129 52 98 129 52 101 129 54 110 129 55 101 129 54 111 129 56 110 129 55 110 129 55 111 129 56 109 129 57 111 129 56 112 129 58 109 129 57 109 129 57 112 129 58 108 129 59 112 129 58 113 129 60 108 129 59 108 129 59 113 129 60 88 129 61 113 129 60 89 129 62 88 129 61 88 129 61 89 129 62 87 129 63 89 129 62 90 129 64 87 129 63 87 129 63 90 129 64 86 129 65 90 129 64 91 129 66 86 129 65 86 129 65 91 129 66 85 129 67 91 129 66 92 129 68 85 129 67 85 129 67 92 129 68 74 129 69 92 129 68 75 129 70 74 129 69 74 129 69 75 129 70 73 129 71 75 129 70 76 129 72 73 129 71 73 129 71 76 129 72 72 129 73 76 129 72 77 129 74 72 129 73 72 129 73 77 129 74 71 129 75 77 129 74 78 129 76 71 129 75 71 129 75 78 129 76 70 129 77 78 129 76 79 129 78 70 129 77 70 129 77 79 129 78 97 129 79 79 129 78 103 129 80 97 129 79 97 129 79 103 129 80 100 129 81 103 129 80 104 129 82 100 129 81 100 129 81 104 129 82 99 129 51 104 129 82 102 129 53 99 129 51 102 130 53 80 131 83 101 132 54 101 132 54 80 133 83 111 134 56 111 134 56 80 135 83 112 136 58 112 136 58 80 137 83 113 138 60 113 138 60 80 139 83 89 140 62 89 140 62 80 141 83 90 142 64 90 142 64 80 143 83 91 144 66 91 144 66 80 145 83 92 146 68 92 146 68 80 147 83 75 148 70 75 148 70 80 149 83 76 150 72 76 150 72 80 151 83 77 152 74 77 152 74 80 153 83 78 154 76 78 154 76 80 155 83 79 156 78 79 156 78 80 157 83 103 158 80 103 158 80 80 159 83 104 160 82 104 160 82 80 161 83 102 130 53 97 97 34 93 98 3 70 99 35 93 98 3 65 100 2 70 99 35 70 99 35 65 100 2 71 101 36 65 100 2 66 102 5 71 101 36 71 101 36 66 102 5 72 103 37 66 102 5 67 104 7 72 103 37 72 103 37 67 104 7 73 105 38 67 104 7 68 106 9 73 105 38 73 105 39 68 106 13 74 107 40 68 106 13 69 108 12 74 107 40 74 107 40 69 108 12 85 109 41 69 108 12 81 110 15 85 109 41 85 109 41 81 110 15 86 111 42 81 110 15 82 112 17 86 111 42 86 111 42 82 112 17 87 113 43 82 112 17 83 114 19 87 113 43 87 113 43 83 114 19 88 115 44 83 114 19 84 116 21 88 115 44 88 115 44 84 116 21 108 117 45 84 116 21 105 118 23 108 117 45 108 117 45 105 118 23 109 119 46 105 118 23 106 120 25 109 119 46 109 119 46 106 120 25 110 121 47 106 120 25 107 122 27 110 121 47 110 121 47 107 122 27 98 123 48 107 122 27 94 124 29 98 123 48 98 123 48 94 124 29 99 125 49 94 124 29 95 126 31 99 125 49 99 125 49 95 126 31 100 127 50 95 126 31 96 128 33 100 127 50 100 127 50 96 128 33 97 97 34 96 128 33 93 98 3 97 97 34 99 129 51 102 129 53 98 129 52 102 129 53 101 129 54 98 129 52 98 129 52 101 129 54 110 129 55 101 129 54 111 129 56 110 129 55 110 129 55 111 129 56 109 129 57 111 129 56 112 129 58 109 129 57 109 129 57 112 129 58 108 129 59 112 129 58 113 129 60 108 129 59 108 129 59 113 129 60 88 129 61 113 129 60 89 129 62 88 129 61 88 129 61 89 129 62 87 129 63 89 129 62 90 129 64 87 129 63 87 129 63 90 129 64 86 129 65 90 129 64 91 129 66 86 129 65 86 129 65 91 129 66 85 129 67 91 129 66 92 129 68 85 129 67 85 129 67 92 129 68 74 129 69 92 129 68 75 129 70 74 129 69 74 129 69 75 129 70 73 129 71 75 129 70 76 129 72 73 129 71 73 129 71 76 129 72 72 129 73 76 129 72 77 129 74 72 129 73 72 129 73 77 129 74 71 129 75 77 129 74 78 129 76 71 129 75 71 129 75 78 129 76 70 129 77 78 129 76 79 129 78 70 129 77 70 129 77 79 129 78 97 129 79 79 129 78 103 129 80 97 129 79 97 129 79 103 129 80 100 129 81 103 129 80 104 129 82 100 129 81 100 129 81 104 129 82 99 129 51 104 129 82 102 129 53 99 129 51 102 130 53 80 131 83 101 132 54 101 132 54 80 133 83 111 134 56 111 134 56 80 135 83 112 136 58 112 136 58 80 137 83 113 138 60 113 138 60 80 139 83 89 140 62 89 140 62 80 141 83 90 142 64 90 142 64 80 143 83 91 144 66 91 144 66 80 145 83 92 146 68 92 146 68 80 147 83 75 148 70 75 148 70 80 149 83 76 150 72 76 150 72 80 151 83 77 152 74 77 152 74 80 153 83 78 154 76 78 154 76 80 155 83 79 156 78 79 156 78 80 157 83 103 158 80 103 158 80 80 159 83 104 160 82 104 160 82 80 161 83 102 130 53 120 162 0 65 163 2 121 164 1 65 163 2 93 165 3 121 164 1 119 166 4 66 167 5 120 162 0 66 167 5 65 163 2 120 162 0 118 168 6 67 169 7 119 166 4 67 169 7 66 167 5 119 166 4 117 170 8 68 171 9 118 168 6 68 171 9 67 169 7 118 168 6 116 172 10 69 173 12 117 170 11 69 173 12 68 171 13 117 170 11 129 174 14 81 175 15 116 172 10 81 175 15 69 173 12 116 172 10 128 176 16 82 177 17 129 174 14 82 177 17 81 175 15 129 174 14 127 178 18 83 179 19 128 176 16 83 179 19 82 177 17 128 176 16 126 180 20 84 181 21 127 178 18 84 181 21 83 179 19 127 178 18 125 182 22 105 183 23 126 180 20 105 183 23 84 181 21 126 180 20 124 184 24 106 185 25 125 182 22 106 185 25 105 183 23 125 182 22 123 186 26 107 187 27 124 184 24 107 187 27 106 185 25 124 184 24 114 188 28 94 189 29 123 186 26 94 189 29 107 187 27 123 186 26 115 190 30 95 191 31 114 188 28 95 191 31 94 189 29 114 188 28 122 192 32 96 193 33 115 190 30 96 193 33 95 191 31 115 190 30 121 164 1 93 165 3 122 192 32 93 165 3 96 193 33 122 192 32 120 162 0 65 163 2 121 164 1 65 163 2 93 165 3 121 164 1 119 166 4 66 167 5 120 162 0 66 167 5 65 163 2 120 162 0 118 168 6 67 169 7 119 166 4 67 169 7 66 167 5 119 166 4 117 170 8 68 171 9 118 168 6 68 171 9 67 169 7 118 168 6 116 172 10 69 173 12 117 170 11 69 173 12 68 171 13 117 170 11 129 174 14 81 175 15 116 172 10 81 175 15 69 173 12 116 172 10 128 176 16 82 177 17 129 174 14 82 177 17 81 175 15 129 174 14 127 178 18 83 179 19 128 176 16 83 179 19 82 177 17 128 176 16 126 180 20 84 181 21 127 178 18 84 181 21 83 179 19 127 178 18 125 182 22 105 183 23 126 180 20 105 183 23 84 181 21 126 180 20 124 184 24 106 185 25 125 182 22 106 185 25 105 183 23 125 182 22 123 186 26 107 187 27 124 184 24 107 187 27 106 185 25 124 184 24 114 188 28 94 189 29 123 186 26 94 189 29 107 187 27 123 186 26 115 190 30 95 191 31 114 188 28 95 191 31 94 189 29 114 188 28 122 192 32 96 193 33 115 190 30 96 193 33 95 191 31 115 190 30 121 164 1 93 165 3 122 192 32 93 165 3 96 193 33 122 192 32 126 194 84 127 195 85 18 196 86 16 197 87 18 196 86 127 195 85 18 196 86 20 198 88 126 194 84 125 199 89 126 194 84 20 198 88 116 200 90 10 201 91 129 202 92 12 203 93 129 202 92 10 201 91 128 204 94 129 202 92 14 205 95 12 203 93 14 205 95 129 202 92 115 206 96 114 207 97 28 208 98 26 209 99 28 208 98 114 207 97 10 201 91 116 200 90 8 210 100 117 211 101 8 210 100 116 200 90 115 206 96 28 208 98 122 212 102 30 213 103 122 212 102 28 208 98 24 214 104 26 209 99 123 215 105 114 207 97 123 215 105 26 209 99 122 212 102 30 213 103 121 216 106 1 217 107 121 216 106 30 213 103 127 195 85 128 204 94 16 197 87 14 205 95 16 197 87 128 204 94 121 216 106 1 217 107 120 218 108 0 219 109 120 218 108 1 217 107 8 210 110 117 211 111 6 220 112 118 221 113 6 220 112 117 211 111 6 220 112 118 221 113 4 222 114 119 223 115 4 222 114 118 221 113 22 224 116 124 225 117 20 198 88 125 199 89 20 198 88 124 225 117 4 222 114 119 223 115 0 219 109 120 218 108 0 219 109 119 223 115 24 214 104 123 215 105 22 224 116 124 225 117 22 224 116 123 215 105</p>
                </polylist>
                <extra>
                    <technique profile="modo401">
                        <param sid="render" name="Render" type="Name">default</param>
                        <param sid="dissolve" name="Dissolve" type="float">0</param>
                        <param sid="curves" name="Render_Curves" type="bool">false</param>
                        <param sid="radius" name="Curve_Radius" type="float">0.05</param>
                    </technique>
                </extra>
            </mesh>
        </geometry>
    </library_geometries>
    <library_lights>
        <light id="Light-polyRender014" name="Render">
            <technique_common>
                <ambient>
                    <color sid="ambient_light_rgb">0.05 0.05 0.05</color>
                </ambient>
            </technique_common>
        </light>
        <light id="Light-sunLight023" name="Directional_Light">
            <technique_common>
                <directional>
                    <color sid="directional_light_rgb">1 1 1</color>
                </directional>
            </technique_common>
            <extra>
                <technique profile="modo401">
                    <param sid="lightType" name="Light_Type" type="Name">sun_light</param>
                    <param sid="render" name="Render" type="Name">default</param>
                    <param sid="visible" name="Display_Visible" type="Name">default</param>
                    <param sid="size" name="Display_Size" type="float">1</param>
                    <param sid="dissolve" name="Dissolve" type="float">0</param>
                    <param sid="radiance" name="Radiant_Intensity" type="float">3</param>
                    <param sid="samples" name="Samples" type="int">64</param>
                    <param sid="shadType" name="Shadow_Type" type="Name">raytrace</param>
                    <param sid="shadRes" name="Shadow_Resolution" type="int">1024</param>
                    <param sid="fast" name="Simple_Shading" type="bool">true</param>
                    <param sid="azimuth" name="Azimuth" type="float">0</param>
                    <param sid="clamp" name="Clamp_Intensity" type="bool">true</param>
                    <param sid="day" name="Day" type="int">2012173</param>
                    <param sid="elevation" name="Elevation" type="float">0</param>
                    <param sid="haze" name="Haze" type="float">2</param>
                    <param sid="height" name="Height" type="float">10</param>
                    <param sid="lat" name="Latitude" type="float">0.655057</param>
                    <param sid="lon" name="Longitude" type="float">-2.13456</param>
                    <param sid="mapSize" name="Map_Size" type="float">2</param>
                    <param sid="north" name="North" type="float">0</param>
                    <param sid="radius" name="Radius" type="float">0.5</param>
                    <param sid="spread" name="Spread" type="float">0</param>
                    <param sid="sunPos" name="Sun_Position" type="bool">false</param>
                    <param sid="time" name="Time" type="float">12</param>
                    <param sid="timeZone" name="Time_Zone" type="float">-8</param>
                    <param sid="volumetrics" name="Volumetrics" type="bool">false</param>
                    <param sid="vdissolve" name="Volumetrics_Dissolve" type="float">0</param>
                    <param sid="vsamples" name="Volumetric_Samples" type="int">40</param>
                </technique>
            </extra>
        </light>
    </library_lights>
    <library_nodes id="shader_tree" name="Shader_Tree">
        <node sid="shader_tree_render" name="Render">
            <extra>
                <technique profile="modo401">
                    <param sid="first" name="Frame_Range_First" type="int">1</param>
                    <param sid="last" name="Frame_Range_Last" type="int">120</param>
                    <param sid="dpi" name="Frame_DPI" type="float">300</param>
                    <param sid="resUnit" name="Resolution_Unit" type="Name">pixels</param>
                    <param sid="pAspect" name="Frame_Pixel_Aspect_Ratio" type="float">1</param>
                    <param sid="bucketX" name="Bucket_Width" type="int">32</param>
                    <param sid="bucketY" name="Bucket_Height" type="int">32</param>
                    <param sid="bktOrder" name="Bucket_Order" type="Name">hilbert</param>
                    <param sid="bktSkip" name="Skip_Existing_Buckets" type="bool">false</param>
                    <param sid="region" name="Render_Region" type="bool">false</param>
                    <param sid="regX0" name="Render_Region_Left" type="float">0</param>
                    <param sid="regX1" name="Render_Region_Right" type="float">1</param>
                    <param sid="regY0" name="Render_Region_Top" type="float">0</param>
                    <param sid="regY1" name="Render_Region_Bottom" type="float">1</param>
                    <param sid="aa" name="Render_Antialiasing" type="Name">s8</param>
                    <param sid="aaFilter" name="Render_Antialiasing_Filter" type="Name">gaussian</param>
                    <param sid="fineRate" name="Refinement_Shading_Rate" type="float">0.25</param>
                    <param sid="fineThresh" name="Refinement_Threshold" type="float">0.1</param>
                    <param sid="bktRefine" name="Refine_Bucket_Borders" type="bool">false</param>
                    <param sid="dof" name="Render_Depth_of_Field" type="bool">false</param>
                    <param sid="mBlur" name="Render_Motion_Blur" type="bool">false</param>
                    <param sid="stereo" name="Render_Stereoscopic" type="bool">false</param>
                    <param sid="rayShadow" name="Ray_Tracing_Shadows" type="bool">true</param>
                    <param sid="reflDepth" name="Reflection_Depth" type="int">8</param>
                    <param sid="refrDepth" name="Refraction_Depth" type="int">8</param>
                    <param sid="rayThresh" name="Ray_Threshold" type="float">0.001</param>
                    <param sid="subdAdapt" name="Adaptive_Subdivision" type="bool">false</param>
                    <param sid="subdRate" name="Subdivision_Rate" type="float">10</param>
                    <param sid="dispEnable" name="Micropoly_Displacement" type="bool">true</param>
                    <param sid="dispRate" name="Displacement_Rate" type="float">1</param>
                    <param sid="dispRatio" name="Displacement_Ratio" type="float">4</param>
                    <param sid="edgeMin" name="Minimum_Edge_Length" type="float">0.0001</param>
                    <param sid="dispSmooth" name="Smooth_Positions" type="bool">true</param>
                    <param sid="ambRad" name="Ambient_Intensity" type="float">0.05</param>
                    <param sid="ambColor" name="Ambient_Color" type="color">1 1 1</param>
                    <param sid="globEnable" name="Enable_Indirect_Illumination" type="bool">false</param>
                    <param sid="globScope" name="Indirect_Illumination_Scope" type="Name">all</param>
                    <param sid="globRays" name="Indirect_Rays" type="int">64</param>
                    <param sid="globLimit" name="Indirect_Bounces" type="int">1</param>
                    <param sid="globRange" name="Indirect_Range" type="float">0</param>
                    <param sid="globSubs" name="Subsurface_Scattering" type="int">0</param>
                    <param sid="globVols" name="Volumetrics_Affect_Indirect" type="bool">false</param>
                    <param sid="irrCache" name="Enable_Irradiance_Caching" type="bool">true</param>
                    <param sid="irrRays" name="Irradiance_Rays" type="int">256</param>
                    <param sid="globSuper" name="Indirect_Supersampling" type="bool">true</param>
                    <param sid="irrRate" name="Irradiance_Rate" type="float">2.5</param>
                    <param sid="irrRatio" name="Irradiance_Ratio" type="float">6</param>
                    <param sid="irrVals" name="Interpolation_Values" type="int">1</param>
                    <param sid="irrGrads" name="Irradiance_Gradients" type="Name">both</param>
                    <param sid="irrWalk" name="Walkthrough_Mode" type="bool">false</param>
                    <param sid="irrLEnable" name="Load_Irradiance_before_Render" type="bool">false</param>
                    <param sid="irrLName" name="Load_Irradiance_File" type="Name"></param>
                    <param sid="irrSEnable" name="Save_Irradiance_after_Render" type="bool">false</param>
                    <param sid="irrSName" name="Save_Irradiance_File" type="Name"></param>
                    <param sid="causEnable" name="Enable_Direct_Caustics" type="bool">false</param>
                    <param sid="causTotal" name="Caustics_Total_Photons" type="int">100000</param>
                    <param sid="causLocal" name="Caustics_Local_Photons" type="int">32</param>
                    <param sid="globCaus" name="Indirect_Caustics" type="Name">refraction</param>
                </technique>
            </extra>
        </node>
        <node sid="shader_tree_environment" name="Environment">
            <extra>
                <technique profile="modo401">
                    <param sid="radiance" name="Environment_Intensity" type="float">1</param>
                    <param sid="visCam" name="Environment_Visible_to_Camera" type="bool">true</param>
                    <param sid="visInd" name="Environment_Visible_to_Indirect_Rays" type="bool">true</param>
                    <param sid="visRefl" name="Environment_Visible_to_Reflection_Rays" type="bool">true</param>
                    <param sid="visRefr" name="Environment_Visible_to_Refraction_Rays" type="bool">true</param>
                </technique>
            </extra>
        </node>
    </library_nodes>
    <library_visual_scenes>
        <visual_scene id="DefaultScene">
            <node id="polyRender014" name="Render" type="NODE">
                <instance_light url="#Light-polyRender014" />
            </node>
            <node id="Camera-camera020Node" name="Camera" type="NODE">
                <translate sid="translation021">0 0.75 4</translate>
                <rotate sid="rotation022Y">0 1 0 0</rotate>
                <rotate sid="rotation022X">1 0 0 -5</rotate>
                <rotate sid="rotation022Z">0 0 1 0</rotate>
                <instance_camera url="#Camera-camera020" />
            </node>
            <node id="txtrLocator001Node" name="pipe_broken_large__Image___Texture_" type="NODE">
                <translate sid="translation017">0 0 0</translate>
                <rotate sid="rotation016Y">0 1 0 0</rotate>
                <rotate sid="rotation016X">1 0 0 0</rotate>
                <rotate sid="rotation016Z">0 0 1 0</rotate>
                <scale sid="scale015">1 1 1</scale>
            </node>
            <node id="groupLocator038Node" name="Texture_Group" type="NODE">
                <node id="txtrLocator063Node" name="pipe_turn_broken_thick__2___Image___Texture_" type="NODE">
                    <translate sid="translation066">0 0 0</translate>
                    <rotate sid="rotation065Y">0 1 0 0</rotate>
                    <rotate sid="rotation065X">1 0 0 0</rotate>
                    <rotate sid="rotation065Z">0 0 1 0</rotate>
                    <scale sid="scale064">1 1 1</scale>
                </node>
                <node id="txtrLocator053Node" name="pipe_turn_broken_slim__2___Image___Texture_" type="NODE">
                    <translate sid="translation056">0 0 0</translate>
                    <rotate sid="rotation055Y">0 1 0 0</rotate>
                    <rotate sid="rotation055X">1 0 0 0</rotate>
                    <rotate sid="rotation055Z">0 0 1 0</rotate>
                    <scale sid="scale054">1 1 1</scale>
                </node>
                <node id="txtrLocator043Node" name="pipe_broken_small__2___Image___Texture_" type="NODE">
                    <translate sid="translation046">0 0 0</translate>
                    <rotate sid="rotation045Y">0 1 0 0</rotate>
                    <rotate sid="rotation045X">1 0 0 0</rotate>
                    <rotate sid="rotation045Z">0 0 1 0</rotate>
                    <scale sid="scale044">1 1 1</scale>
                </node>
                <node id="txtrLocator034Node" name="pipe_broken_medium__2___Image___Texture_" type="NODE">
                    <translate sid="translation037">0 0 0</translate>
                    <rotate sid="rotation036Y">0 1 0 0</rotate>
                    <rotate sid="rotation036X">1 0 0 0</rotate>
                    <rotate sid="rotation036Z">0 0 1 0</rotate>
                    <scale sid="scale035">1 1 1</scale>
                </node>
            </node>
            <node id="groupLocator068Node" name="base" type="NODE">
                <node id="Geometry-mesh082Node" name="pipe_small_short_pplant" type="NODE">
                    <translate sid="translation084">0 0 0</translate>
                    <rotate sid="rotation083Y">0 1 0 0</rotate>
                    <rotate sid="rotation083X">1 0 0 0</rotate>
                    <rotate sid="rotation083Z">0 0 1 0</rotate>
                    <scale sid="scale085">1 1 1</scale>
                    <instance_geometry url="#Geometry-mesh082">
                        <bind_material>
                            <technique_common>
                                <instance_material symbol="Material-pipe_broken_small" target="#Material-pipe_broken_small">
                                    <bind_vertex_input semantic="map1" input_semantic="TEXCOORD" input_set="0" />
                                </instance_material>
                            </technique_common>
                        </bind_material>
                    </instance_geometry>
                </node>
            </node>
            <node id="Light-sunLight023Node" name="Directional_Light" type="NODE">
                <translate sid="translation024">-2 2 2</translate>
                <rotate sid="rotation025Y">0 1 0 -45</rotate>
                <rotate sid="rotation025X">1 0 0 -30</rotate>
                <rotate sid="rotation025Z">0 0 1 0</rotate>
                <instance_light url="#Light-sunLight023" />
            </node>
            <extra>
                <technique profile="modo401">
                    <param sid="fps" name="Scene_FPS" type="float">24</param>
                    <param sid="sceneS" name="Scene_Start_Time" type="float">0.041666</param>
                    <param sid="sceneE" name="Scene_End_Time" type="float">2</param>
                    <param sid="currentS" name="Scene_Current_Start_Time" type="float">0</param>
                    <param sid="currentE" name="Scene_Current_End_Time" type="float">0</param>
                    <param sid="timeSys" name="Scene_Time_System" type="Name">frames</param>
                </technique>
            </extra>
            <extra>
                <technique profile="MAX3D">
                    <frame_rate>24</frame_rate>
                </technique>
            </extra>
            <extra>
                <technique profile="MAYA">
                    <start_time>0.041666</start_time>
                    <end_time>2</end_time>
                </technique>
            </extra>
            <extra>
                <technique profile="OKINO" />
            </extra>
            <extra>
                <technique profile="XSI">
                    <SI_Scene>
                        <frame_rate>24</frame_rate>
                    </SI_Scene>
                </technique>
            </extra>
        </visual_scene>
    </library_visual_scenes>
    <scene>
        <instance_visual_scene url="#DefaultScene" />
    </scene>
</COLLADA>
