<?xml version="1.0" encoding="utf-8"?>
<COLLADA xmlns="http://www.collada.org/2005/11/COLLADASchema" version="1.4.1">
  <asset>
    <contributor>
      <author>Marc</author>
      <authoring_tool>OpenCOLLADA2008</authoring_tool>
      <comments>
			ColladaMaya export options: 
			bakeTransforms=1;relativePaths=1;copyTextures=0;exportTriangles=1;exportCgfxFileReferences=0;
			isSampling=0;curveConstrainSampling=0;removeStaticCurves=0;exportPolygonMeshes=1;exportLights=0;
			exportCameras=0;exportJointsAndSkin=1;exportAnimations=1;exportInvisibleNodes=0;exportDefaultCameras=0;
			exportTexCoords=1;exportNormals=1;exportNormalsPerVertex=0;exportVertexColors=0;exportVertexColorsPerVertex=0;
			exportTexTangents=0;exportTangents=0;exportReferencedMaterials=0;exportMaterialsOnly=0;
			exportXRefs=0;dereferenceXRefs=0;exportCameraAsLookat=0;cameraXFov=0;cameraYFov=1;doublePrecision=0
		</comments>
      <source_data>file:///E:/depth/redist/entities/station/utility/loadingstation/loadingstation.DAE</source_data>
    </contributor>
    <created>2014-11-25T16:47:11</created>
    <modified>2014-11-25T16:47:11</modified>
    <unit name="meter" meter="1"/>
    <up_axis>Z_UP</up_axis>
  </asset>
  <library_materials>
    <material id="lambert1" name="lambert1">
      <instance_effect url="#lambert1-fx"/>
    </material>
    <material id="lambert2" name="lambert2">
      <instance_effect url="#lambert2-fx"/>
    </material>
  </library_materials>
  <library_effects>
    <effect id="lambert1-fx">
      <profile_COMMON>
        <technique sid="common">
          <lambert>
            <emission>
              <color>0 0 0 1</color>
            </emission>
            <ambient>
              <color>0 0 0 1</color>
            </ambient>
            <diffuse>
              <color>0.4 0.4 0.4 1</color>
            </diffuse>
            <transparent opaque="RGB_ZERO">
              <color>0 0 0 1</color>
            </transparent>
            <transparency>
              <float>1</float>
            </transparency>
          </lambert>
        </technique>
      </profile_COMMON>
    </effect>
    <effect id="lambert2-fx">
      <profile_COMMON>
        <newparam sid="loadingstation_dds-surface">
          <surface type="2D">
            <init_from>loadingstation_dds</init_from>
          </surface>
        </newparam>
        <newparam sid="loadingstation_dds-sampler">
          <sampler2D>
            <source>loadingstation_dds-surface</source>
          </sampler2D>
        </newparam>
        <technique sid="common">
          <lambert>
            <emission>
              <color>0 0 0 1</color>
            </emission>
            <ambient>
              <color>0.588235 0.588235 0.588235 1</color>
            </ambient>
            <diffuse>
              <texture texture="loadingstation_dds-sampler" texcoord="TEX0">
                <extra>
                  <technique profile="OpenCOLLADAMaya">
                    <blend_mode>NONE</blend_mode>
                    <coverageU>1</coverageU>
                    <coverageV>1</coverageV>
                    <fast>0</fast>
                    <mirrorU>0</mirrorU>
                    <mirrorV>0</mirrorV>
                    <noiseU>0</noiseU>
                    <noiseV>0</noiseV>
                    <offsetU>0</offsetU>
                    <offsetV>0</offsetV>
                    <repeatU>1</repeatU>
                    <repeatV>1</repeatV>
                    <rotateFrame>0</rotateFrame>
                    <rotateUV>0</rotateUV>
                    <stagger>0</stagger>
                    <translateFrameU>0</translateFrameU>
                    <translateFrameV>0</translateFrameV>
                    <wrapU>1</wrapU>
                    <wrapV>1</wrapV>
                  </technique>
                </extra>
              </texture>
            </diffuse>
            <transparent opaque="RGB_ZERO">
              <color>0 0 0 1</color>
            </transparent>
            <transparency>
              <float>1</float>
            </transparency>
          </lambert>
        </technique>
      </profile_COMMON>
    </effect>
  </library_effects>
  <library_images>
    <image id="loadingstation_dds" name="loadingstation_dds">
      <init_from>./loadingstation.dds</init_from>
      <extra>
        <technique profile="OpenCOLLADAMaya">
          <dgnode_type>kFile</dgnode_type>
          <image_sequence>0</image_sequence>
          <originalMayaNodeId>loadingstation_dds</originalMayaNodeId>
        </technique>
      </extra>
    </image>
  </library_images>
  <library_geometries>
    <geometry id="geom-loadingstation" name="loadingstation">
      <mesh>
        <source id="geom-loadingstation-positions" name="geom-loadingstation-positions">
          <float_array id="geom-loadingstation-positions-array" count="792">0.3768021 0.006510806 -0.2907423 0.3768021 -0.01128753 -0.2907423 0.3768021 -0.01128753 0.004859452 0.3768016 -0.1016914 0.3340405 0.3734354 0.006510806 0.3373969 0 -0.1011388 0.3364083 0 0.006510859 0.3364083 0.3768021 0.006510806 0.004823181 0 -0.01128748 0.004859376 0.3768021 0.006510806 0.1898826 0.3734354 -0.1016914 0.3373966 0.3768019 0.006510806 0.3340405 0.3768021 -0.1012685 0.1361573 -0.3768021 -0.0112874 -0.2907426 -0.3768021 -0.0112874 0.004859325 0 -0.01128748 -0.2907423 -0.3768021 0.006510935 -0.2907426 -0.3768021 0.006510935 0.004823053 -0.3768021 0.006510935 0.1898825 -0.3768021 -0.1012683 0.1361572 0 -0.1012638 0.1361818 0 0.006510859 -0.2907423 -0.3734356 0.006510935 0.3373966 -0.3734354 -0.1016913 0.3373966 -0.3768019 0.006510935 0.3340402 -0.3768019 -0.1016913 0.3340402 -0.2427291 -0.01007321 -0.2739799 0.242729 -0.01007318 -0.2739799 -0.2427292 -0.01007321 -0.172215 0.242729 -0.01007318 -0.1722149 -0.2427291 -0.01546032 -0.2739799 0.242729 -0.0154603 -0.2739799 -0.2427292 -0.01546012 -0.172215 0.242729 -0.01546009 -0.1722149 0.2503724 -0.02502997 -0.1580841 0.2503723 -0.2267512 0.04530116 0.2503722 -0.2267512 0.3380875 0.250372 0.004887266 0.4721911 0 -0.2267512 0.0453011 0 -0.2267512 0.3380875 0.2503723 0.004908142 -0.1580711 0.2503721 -0.02975684 0.4721979 -0.2503722 -0.2267511 0.3380875 -0.2503721 -0.2267511 0.04530108 -0.2503722 0.004887567 0.4721908 -0.2503722 -0.02975666 0.4721979 -0.2503723 -0.02502977 -0.1580841 -0.2503723 0.004908218 -0.1580711 0 0.004908171 -0.1580711 0 -0.02502982 -0.1580841 0 0.004887419 0.4721911 0 -0.02975668 0.4721979 -0.006939 -0.02568842 -0.1630219 -0.006939153 -0.06184412 -0.1259307 -0.2469862 -0.08433588 -0.1037659 -0.2469862 -0.02568839 -0.163022 -0.006939 -0.02216226 -0.1576977 -0.04477535 -0.0818994 -0.1002405 -0.2469862 -0.08189936 -0.1002406 -0.2469862 -0.02216201 -0.1576979 -0.04477535 -0.08433596 -0.1037658 -0.006939153 -0.05940801 -0.1224055 -0.2469862 -0.01319781 -0.1631658 -0.2469862 -0.01316332 -0.1578416 -0.00693895 -0.01316335 -0.1578415 -0.006938975 -0.01319787 -0.1631657 0.01732056 -0.1699347 -0.01849798 0.05182745 -0.1699347 -0.01849798 0.01732056 -0.1797868 -0.008801024 0.05182745 -0.1797869 -0.008800998 0.01732056 -0.1749446 -0.02358809 0.05182748 -0.1749447 -0.02358809 0.01732056 -0.1847968 -0.01389113 0.05182745 -0.1847968 -0.01389111 -0.0162785 -0.1442171 -0.05383119 -0.05078542 -0.1442171 -0.05383121 -0.05078539 -0.134365 -0.06352817 -0.0162785 -0.134365 -0.06352814 -0.05078542 -0.1293552 -0.05843806 -0.0162785 -0.1293552 -0.05843803 -0.0162785 -0.1392073 -0.04874108 -0.05078542 -0.1392073 -0.0487411 -0.09028102 -0.1442171 -0.05383119 -0.1247879 -0.1442171 -0.05383121 -0.1247879 -0.1343649 -0.06352817 -0.09028102 -0.1343649 -0.06352817 -0.1247879 -0.1293551 -0.05843806 -0.09028102 -0.1293551 -0.05843806 -0.09028102 -0.1392073 -0.04874108 -0.1247879 -0.1392073 -0.0487411 -0.1619366 -0.2089253 0.009857359 -0.1964435 -0.2089251 0.009857359 -0.1964435 -0.199073 1.60401e-4 -0.1619366 -0.1990731 1.60401e-4 -0.1964435 -0.194063 0.005250485 -0.1619366 -0.1940632 0.00525051 -0.1619366 -0.2039153 0.01494747 -0.1964435 -0.2039151 0.01494747 0.07924089 -0.1197628 -0.06694998 0.08502792 -0.1956666 0.01587261 -0.1983227 -0.2169405 0.03681136 -0.1983227 -0.09439676 -0.08380181 0.05517822 -0.09439679 -0.08380181 0.05491543 -0.216721 0.02848074 -0.2281727 -0.1956666 0.01587251 -0.2281727 -0.1156707 -0.06286302 0.06429906 -0.09498772 -0.08322016 0.0717615 -0.09676062 -0.08147525 0.07756568 -0.09971535 -0.07856713 0.08171144 -0.1038519 -0.07449564 0.07849629 -0.1139256 -0.07269536 0.08419874 -0.202167 0.02227057 0.08171124 -0.2074857 0.0275053 0.0775654 -0.2116222 0.03157675 0.07176127 -0.2145769 0.03448492 0.06310589 -0.2161904 0.02795841 -0.2074436 -0.2163496 0.03622972 -0.2149061 -0.2145768 0.03448482 -0.2207102 -0.2116221 0.03157665 -0.224856 -0.2074854 0.0275052 -0.2216409 -0.2052218 0.01716255 -0.2273436 -0.1091703 -0.06926097 -0.2248561 -0.1038519 -0.07449571 -0.2207102 -0.09971519 -0.0785671 -0.2149061 -0.09676046 -0.08147532 -0.2062507 -0.1029569 -0.08349113 0.0850281 -0.1156708 -0.06286292 0.07924071 -0.1993846 0.01141727 -0.1980602 -0.216721 0.02848061 -0.1980602 -0.1024262 -0.08401342 0.05491569 -0.1024264 -0.08401344 0.05517797 -0.2169406 0.03681148 -0.2223855 -0.1993844 0.0114172 -0.2223856 -0.1197628 -0.06695001 0.06310615 -0.102957 -0.0834911 0.06910588 -0.1043823 -0.08208825 0.07341702 -0.106577 -0.07992814 0.07649642 -0.1096495 -0.07690401 0.08419891 -0.1091705 -0.06926095 0.07849616 -0.2052218 0.01716265 0.07649621 -0.2094978 0.0213713 0.0734168 -0.2125704 0.02439543 0.06910563 -0.214765 0.02655555 0.06429875 -0.2163497 0.03622982 -0.2062507 -0.2161903 0.02795831 -0.2122504 -0.214765 0.02655545 -0.2165616 -0.2125703 0.02439533 -0.219641 -0.2094978 0.02137118 -0.2273435 -0.202167 0.02227049 -0.221641 -0.1139255 -0.07269538 -0.219641 -0.1096494 -0.07690404 -0.2165617 -0.1065769 -0.07992816 -0.2122505 -0.1043822 -0.08208828 -0.2074436 -0.09498767 -0.08322018 0.08438505 -0.117861 -0.06521536 0.0843849 -0.1978153 0.01347927 -0.1982936 -0.2186517 0.03398741 -0.1982936 -0.09702442 -0.08572363 0.05514904 -0.09702455 -0.0857236 0.05514878 -0.2186518 0.03398751 -0.2275297 -0.1978152 0.01347917 -0.2275297 -0.117861 -0.06521542 0.0641665 -0.09760878 -0.0851486 0.07146643 -0.099343 -0.0834417 0.0771047 -0.1022133 -0.08061663 0.08113202 -0.1062317 -0.07666154 0.08356529 -0.1114343 -0.07154083 0.08356514 -0.204242 0.01980474 0.08113179 -0.2094447 0.02492545 0.07710444 -0.2134631 0.02888051 0.07146618 -0.2163332 0.03170557 0.06416622 -0.2180675 0.03341248 -0.2073111 -0.2180675 0.03341238 -0.214611 -0.2163331 0.03170547 -0.2202492 -0.2134629 0.02888041 -0.2242766 -0.2094445 0.02492532 -0.2267099 -0.2042419 0.01980466 -0.22671 -0.1114342 -0.07154088 -0.2242766 -0.1062316 -0.07666154 -0.2202492 -0.1022132 -0.08061666 -0.214611 -0.09934296 -0.08344172 -0.207311 -0.09760872 -0.0851486 0.01511463 -0.2330323 0.1263135 0.0151146 -0.2330323 0.3014434 -0.2218646 -0.2330323 0.3014434 -0.2218645 -0.2330323 0.07180626 0.01511465 -0.2012814 0.1263135 0.01511463 -0.2012814 0.3014434 -0.2218646 -0.2012814 0.3014434 -0.2218645 -0.2012814 0.07180628 -0.02337158 -0.2330324 0.07180634 -0.02337158 -0.2012814 0.07180634 -0.03410669 -0.2330324 0.3014434 -0.06185535 -0.2330323 0.07180634 -0.03410669 -0.2012814 0.3014434 -0.06185535 -0.2012814 0.07180634 -0.06179294 -0.2330323 0.1267843 0.0151146 -0.2330323 0.1461337 -0.2218645 -0.2330323 0.1369298 0.01511463 -0.2012814 0.1461337 -0.2218645 -0.2012814 0.1369298 -0.03410669 -0.2330324 0.1463691 0.01511463 -0.2376858 0.1263135 0.0151146 -0.2376858 0.1461337 0.0151146 -0.2376858 0.3014434 -0.03410669 -0.2376859 0.3014434 -0.03410669 -0.2376859 0.1463691 -0.06179294 -0.2376858 0.1267843 -0.06185535 -0.2376858 0.07180634 -0.02337158 -0.2376859 0.07180634 0.01432872 -0.244752 0.1816579 0.01432872 -0.244752 0.2223709 -0.02060042 -0.244752 0.2223709 -0.02060042 -0.244752 0.1818933 0.01432872 -0.2388519 0.1816579 0.01432872 -0.2388519 0.2223709 -0.02060042 -0.2388519 0.2223709 -0.02060042 -0.2388519 0.1818933 0.2142662 -0.2375733 0.1358669 0.2142662 -0.2375733 0.3014434 0.125656 -0.2375733 0.3014434 0.1256561 -0.2375733 0.1358668 0.2142662 -0.2228202 0.1358669 0.2142662 -0.2228202 0.3014434 0.125656 -0.2228202 0.3014434 0.1256561 -0.2228202 0.1358668 -0.3029107 -0.07990606 0.0431052 -0.3330301 -0.05463296 0.04310517 -0.3723478 -0.05463296 0.04310517 -0.4024668 -0.07990594 0.04310517 -0.4092943 -0.1186263 0.04310517 -0.3896355 -0.1526766 0.04310517 -0.3526889 -0.1661239 0.04310517 -0.3157423 -0.1526766 0.04310517 -0.2890794 -0.1198615 0.05071359 -0.2890896 -0.1198597 0.4445142 -0.2967607 -0.07635497 0.4445142 -0.3306011 -0.04795947 0.4445139 -0.3747765 -0.04795944 0.4445139 -0.4086172 -0.07635514 0.4445139 -0.4162882 -0.1198595 0.4445139 -0.3942006 -0.1581166 0.4445139 -0.3526886 -0.1732256 0.4445139 -0.3111777 -0.1581169 0.4445139 -0.3526889 -0.1086452 0.04224515 -0.3526889 -0.1086452 0.4602919 -0.2987921 -0.1181488 0.4548825 -0.305293 -0.08128127 0.4548825 -0.3339709 -0.05721762 0.4548825 -0.3714069 -0.05721759 0.4548825 -0.4000848 -0.08128115 0.4548825 -0.4065857 -0.1181487 0.4548825 -0.3878677 -0.1505694 0.4548825 -0.3526889 -0.1633734 0.4548825 -0.3175104 -0.1505696 0.4548825 -0.2967517 -0.07634986 0.05071374 -0.3305975 -0.04794987 0.05071389 -0.37478 -0.04794987 0.05071372 -0.408626 -0.07635004 0.05071372 -0.4162981 -0.1198612 0.05071387 -0.394207 -0.1581244 0.05071372 -0.3526886 -0.1732359 0.05071372 -0.3111708 -0.1581248 0.05071374 -0.2960835 -0.1186265 0.0431052</float_array>
          <technique_common>
            <accessor source="#geom-loadingstation-positions-array" count="264" stride="3">
              <param name="X" type="float"/>
              <param name="Y" type="float"/>
              <param name="Z" type="float"/>
            </accessor>
          </technique_common>
        </source>
        <source id="geom-loadingstation-normals" name="geom-loadingstation-normals">
          <float_array id="geom-loadingstation-normals-array" count="3690">0 -0.9552174 -0.2959048 0 -0.9552298 -0.2958649 0 -1 0 0 -1 0 0 -1 0 0 -0.9552174 -0.2959048 1 0 0 1 0 0 1 0 0 1 0 0 1 0 0 1 0 0 1 0 0 1 0 0 1 0 0 1 0 0 1 0 0 1 0 0 0 -0.9549018 -0.2969219 0 -0.9552038 -0.295949 0 -0.9552298 -0.2958649 0 -0.9552298 -0.2958649 0 -0.9552174 -0.2959048 0 -0.9549018 -0.2969219 0 0 -1 0 0 -1 0 0 -1 0 0 -1 0 0 -1 0 0 -1 -0.002646002 0 0.9999966 0 0 1 0 0 1 0 0 1 -0.002646002 0 0.9999966 -0.002646002 0 0.9999966 1 0 0 1 0 0 1 0 0 1 0 0 1 0 0 1 0 0 0.706041 0 0.708171 0.706041 0 0.708171 0.706048 0 0.708164 0.706048 0 0.708164 0.706049 0 0.708163 0.706041 0 0.708171 -7.97e-4 -0.9999987 -0.001346 -0.001476 -0.9999979 -0.00148 0 -0.9999999 6.12e-4 -7.97e-4 -0.9999987 -0.001346 0 -0.9999999 6.12e-4 0 -0.9552038 -0.295949 -7.97e-4 -0.9999987 -0.001346 0 -0.9552038 -0.295949 0 -0.9549018 -0.2969219 0 -0.9552174 -0.2959048 0 -1 0 0 -1 0 0 -1 0 0 -0.9552298 -0.2958649 0 -0.9552174 -0.2959048 -1 0 0 -1 0 0 -1 0 0 -1 0 0 -1 0 0 -1 0 0 -1 0 0 -1 0 0 -1 0 0 -1 0 0 -1 0 0 -1 0 0 0 -0.9549018 -0.2969219 0 -0.9552174 -0.2959048 0 -0.9552298 -0.2958649 0 -0.9552298 -0.2958649 0 -0.9552038 -0.295949 0 -0.9549018 -0.2969219 0 0 -1 0 0 -1 0 0 -1 0 0 -1 0 0 -1 0 0 -1 0.002646002 0 0.9999966 0.002646002 0 0.9999966 0 0 1 0 0 1 0 0 1 0.002646002 0 0.9999966 -1 0 0 -1 0 0 -1 0 0 -1 0 0 -1 0 0 -1 0 0 -0.706041 0 0.708171 -0.706049 0 0.708163 -0.706048 0 0.708164 -0.706048 0 0.708164 -0.706041 0 0.708171 -0.706041 0 0.708171 7.97e-4 -0.9999987 -0.001346 0 -0.9549018 -0.2969219 0 -0.9552038 -0.295949 7.97e-4 -0.9999987 -0.001346 0 -0.9552038 -0.295949 0 -0.9999999 6.12e-4 7.97e-4 -0.9999987 -0.001346 0 -0.9999999 6.12e-4 0.001475 -0.9999979 -0.00148 0 -1 0 0 -1 0 0 -1 0 0 -1 0 0 -1 0 0 -1 0 0 0 -1 0 0 -1 0 0 -1 0 0 -1 0 0 -1 0 0 -1 1 0 0 1 0 0 1 0 0 1 0 0 1 0 0 1 0 0 0 0 1 0 0 1 0 0 1 0 0 1 0 0 1 0 0 1 -1 0 0 -1 0 0 -1 0 0 -1 0 0 -1 0 0 -1 0 0 0 -1 0 0 -1 0 0 -1 0 0 -1 0 0 -1 0 0 -1 0 1 0 0 1 0 0 1 0 0 1 0 0 1 0 0 1 0 0 0 4.34e-4 -0.9999999 0 4.34e-4 -0.9999999 0 4.35e-4 -0.9999999 0 4.35e-4 -0.9999999 0 4.35e-4 -0.9999999 0 4.34e-4 -0.9999999 0 2.01e-4 1 0 -0.2943309 0.9557036 0 -0.2943321 0.9557033 0 -0.2943321 0.9557033 0 2e-4 1 0 2.01e-4 1 0 -0.7100048 -0.7041968 0 -0.7100048 -0.7041968 0 -0.7100048 -0.7041968 0 -0.7100048 -0.7041968 0 -0.7100053 -0.7041963 0 -0.7100048 -0.7041968 0 -0.2943321 0.9557033 0 -0.2943309 0.9557036 0 -0.5627531 0.8266251 0 -0.5627531 0.8266251 0 -0.5627531 0.8266251 0 -0.2943321 0.9557033 1 0 0 1 0 0 1 0 0 1 0 0 1 0 0 1 0 0 0 -1 0 0 -1 0 0 -1 0 0 -1 0 0 -1 0 0 -1 0 -1 0 0 -1 0 0 -1 0 0 -1 0 0 -1 0 0 -1 0 0 0 4.34e-4 -0.9999999 0 4.35e-4 -0.9999999 0 4.35e-4 -0.9999999 0 4.35e-4 -0.9999999 0 4.34e-4 -0.9999999 0 4.34e-4 -0.9999999 0 2.01e-4 1 0 2e-4 1 0 -0.2943312 0.9557036 0 -0.2943312 0.9557036 0 -0.2943309 0.9557036 0 2.01e-4 1 0 -0.7100048 -0.7041968 0 -0.7100048 -0.7041968 0 -0.7100048 -0.7041968 0 -0.7100048 -0.7041968 0 -0.7100048 -0.7041968 0 -0.7100048 -0.7041968 0 -0.2943312 0.9557036 0 -0.5627519 0.8266259 0 -0.5627531 0.8266251 0 -0.5627531 0.8266251 0 -0.2943309 0.9557036 0 -0.2943312 0.9557036 -1 0 0 -1 0 0 -1 0 0 -1 0 0 -1 0 0 -1 0 0 0.004548001 -0.71219 -0.7019721 0.01676499 -0.7159787 -0.6979207 0.003080001 -0.7117262 -0.7024502 0 -0.7107474 -0.7034474 0.004548001 -0.71219 -0.7019721 0.003080001 -0.7117262 -0.7024502 0 -0.7107474 -0.7034474 0 -0.7107474 -0.7034474 0.003080001 -0.7117262 -0.7024502 1 0 0 1 0 0 1 0 0 1 0 0 1 0 0 1 0 0 0 -0.8226329 0.5685729 0 -0.8226329 0.5685729 0.3487411 -0.7709903 0.5328732 0.3487411 -0.7709903 0.5328732 0.324935 -0.777996 0.537717 0 -0.8226329 0.5685729 -1 0 0 -1 0 0 -1 0 0 -1 0 0 -1 0 0 -1 0 0 0 0.999979 -0.006479 0 0.999979 -0.006479 0 0.999979 -0.006479 0 0.999979 -0.006479 0 0.999979 -0.006479 0 0.999979 -0.006479 0.6350402 -0.6355012 0.4391611 0.324935 -0.777996 0.537717 0.3487411 -0.7709903 0.5328732 0.3487411 -0.7709903 0.5328732 0.6350402 -0.6355032 0.4391581 0.6350402 -0.6355012 0.4391611 -1 0 0 -1 0 0 -1 0 0 -1 0 0 -1 0 0 -1 0 0 1 0 0 1 0 0 1 0 0 1 0 0 1 0 0 1 0 0 0 -0.011511 -0.9999338 0 -0.011511 -0.9999338 0 -0.01151 -0.9999338 0 -0.01151 -0.9999338 0 -0.01151 -0.9999338 0 -0.011511 -0.9999338 0 -0.701471 -0.712698 0 -0.701471 -0.712698 0 -0.701471 -0.712698 0 -0.701471 -0.712698 0 -0.701471 -0.712698 0 -0.701471 -0.712698 0 0.712693 -0.701476 0 0.712693 -0.701476 0 0.712693 -0.701476 0 0.712693 -0.701476 0 0.712693 -0.701476 0 0.712693 -0.701476 1 0 0 1 0 0 1 0 0 1 0 0 1 0 0 1 0 0 0 -0.712694 0.7014751 0 -0.712694 0.7014751 0 -0.712694 0.7014751 0 -0.712694 0.7014751 0 -0.712694 0.7014751 0 -0.712694 0.7014751 -1 0 0 -1 0 0 -1 0 0 -1 0 0 -1 0 0 -1 0 0 0 -0.7014705 -0.7126985 0 -0.70147 -0.712699 0 -0.701471 -0.712698 0 -0.701471 -0.712698 0 -0.701471 -0.712698 0 -0.7014705 -0.7126985 0 0.712709 -0.7014599 0 0.712709 -0.7014599 0 0.712709 -0.7014599 0 0.712709 -0.7014599 0 0.712709 -0.7014599 0 0.712709 -0.7014599 1 0 0 1 0 0 1 0 0 1 0 0 1 0 0 1 0 0 0 -0.712709 0.7014599 0 -0.712709 0.7014599 0 -0.712709 0.7014599 0 -0.712709 0.7014599 0 -0.712709 0.7014599 0 -0.712709 0.7014599 -1 0 0 -1 0 0 -1 0 0 -1 0 0 -1 0 0 -1 0 0 0 -0.701471 -0.712698 0 -0.701471 -0.712698 0 -0.701472 -0.712697 0 -0.701472 -0.712697 0 -0.701472 -0.712697 0 -0.701471 -0.712698 0 0.7127094 -0.7014594 0 0.71271 -0.7014589 0 0.7127094 -0.7014594 0 0.7127094 -0.7014594 0 0.71271 -0.7014589 0 0.7127094 -0.7014594 1 0 0 1 0 0 1 0 0 1 0 0 1 0 0 1 0 0 0 -0.712709 0.7014599 0 -0.712709 0.7014599 0 -0.712709 0.7014599 0 -0.712709 0.7014599 0 -0.712709 0.7014599 0 -0.712709 0.7014599 -1 0 0 -1 0 0 -1 0 0 -1 0 0 -1 0 0 -1 0 0 0 -0.701471 -0.712698 0 -0.701471 -0.712698 0 -0.7014705 -0.7126985 0 -0.7014705 -0.7126985 0 -0.701471 -0.712698 0 -0.701471 -0.712698 0 0.712694 -0.7014751 0 0.712694 -0.7014751 0 0.712694 -0.7014751 0 0.712694 -0.7014751 0 0.712694 -0.7014751 0 0.712694 -0.7014751 1 0 0 1 0 0 1 0 0 1 0 0 1 0 0 1 0 0 0 -0.712694 0.7014751 0 -0.712694 0.7014751 0 -0.7126936 0.7014756 0 -0.7126936 0.7014756 0 -0.712693 0.701476 0 -0.712694 0.7014751 -1 0 0 -1 0 0 -1 0 0 -1 0 0 -1 0 0 -1 0 0 0.010521 -0.8475401 -0.5306271 -0.01052 -0.8475451 -0.5306191 -0.010841 -0.5106421 -0.8597251 -0.010841 -0.5106421 -0.8597251 0.010843 -0.5106401 -0.8597262 0.010521 -0.8475401 -0.5306271 0.446449 -0.6132389 -0.6516299 0.4458401 -0.6422902 -0.6234501 0.235272 -0.6892641 -0.6852461 0.235272 -0.6892641 -0.6852461 0.2356261 -0.6739792 -0.7001662 0.446449 -0.6132389 -0.6516299 0.019936 -0.9432249 -0.331556 -0.01993399 -0.9432306 -0.3315399 -0.01052 -0.8475451 -0.5306191 -0.01052 -0.8475451 -0.5306191 0.010521 -0.8475401 -0.5306271 0.019936 -0.9432249 -0.331556 -0.2352981 -0.6892582 -0.6852432 -0.4458298 -0.6422938 -0.6234537 -0.4464471 -0.613239 -0.6516311 -0.4464471 -0.613239 -0.6516311 -0.2355959 -0.6739838 -0.7001718 -0.2352981 -0.6892582 -0.6852432 -0.010841 -0.5106421 -0.8597251 -0.02054699 -0.3025768 -0.9529035 0.02054801 -0.3025711 -0.9529054 0.02054801 -0.3025711 -0.9529054 0.010843 -0.5106401 -0.8597262 -0.010841 -0.5106421 -0.8597251 0.9603922 0.011582 -0.2784111 0.9614039 0.007893999 -0.275028 0.9798605 -0.1057641 -0.1693741 0.9798605 -0.1057641 -0.1693741 0.9797821 -0.10426 -0.170754 0.9603922 0.011582 -0.2784111 0.1997311 -0.8407484 0.5032392 0.198702 -0.840908 0.50338 0.04404898 -0.8546046 0.5174078 0.04404898 -0.8546046 0.5174078 0.04414101 -0.8546002 0.5174071 0.1997311 -0.8407484 0.5032392 -0.9586539 -0.28449 -0.006940999 -0.9575799 -0.288146 -0.003589 -0.9791389 -0.171302 -0.109283 -0.9791389 -0.171302 -0.109283 -0.9792455 -0.1698009 -0.1106609 -0.9586539 -0.28449 -0.006940999 -0.201463 0.5738441 -0.7937982 -0.202516 0.5736771 -0.7936511 -0.04476798 0.5894237 -0.8065826 -0.04476798 0.5894237 -0.8065826 -0.04467602 0.5894283 -0.8065844 -0.201463 0.5738441 -0.7937982 0.044673 0.5894071 -0.8066001 0.04476801 0.5894023 -0.8065983 0.202521 0.5736821 -0.7936461 0.202521 0.5736821 -0.7936461 0.201465 0.573848 -0.793795 0.044673 0.5894071 -0.8066001 0.201465 0.573848 -0.793795 0.202521 0.5736821 -0.7936461 0.448729 0.508391 -0.73497 0.448729 0.508391 -0.73497 0.445991 0.509425 -0.73592 0.201465 0.573848 -0.793795 0.445991 0.509425 -0.73592 0.448729 0.508391 -0.73497 0.6981139 0.372738 -0.6113129 0.6981139 0.372738 -0.6113129 0.6943908 0.3755079 -0.6138529 0.445991 0.509425 -0.73592 0.6943908 0.3755079 -0.6138529 0.6981139 0.372738 -0.6113129 0.8774523 0.1879881 -0.4412912 0.8774523 0.1879881 -0.4412912 0.8747575 0.1919491 -0.4449213 0.6943908 0.3755079 -0.6138529 0.8747575 0.1919491 -0.4449213 0.8774523 0.1879881 -0.4412912 0.9614039 0.007893999 -0.275028 0.9614039 0.007893999 -0.275028 0.9603922 0.011582 -0.2784111 0.8747575 0.1919491 -0.4449213 0.9792467 -0.169797 -0.110657 0.9791395 -0.1712999 -0.1092799 0.9575825 -0.2881371 -0.003591002 0.9575825 -0.2881371 -0.003591002 0.9586557 -0.2844839 -0.006943997 0.9792467 -0.169797 -0.110657 0.9586557 -0.2844839 -0.006943997 0.9575825 -0.2881371 -0.003591002 0.8691303 -0.4679472 0.1601191 0.8691303 -0.4679472 0.1601191 0.8718616 -0.4640568 0.1565529 0.9586557 -0.2844839 -0.006943997 0.8718616 -0.4640568 0.1565529 0.8691303 -0.4679472 0.1601191 0.6874882 -0.6490922 0.3256371 0.6874882 -0.6490922 0.3256371 0.6911766 -0.6464016 0.3231718 0.8718616 -0.4640568 0.1565529 0.6911766 -0.6464016 0.3231718 0.6874882 -0.6490922 0.3256371 0.440419 -0.7793281 0.4457341 0.440419 -0.7793281 0.4457341 0.4430991 -0.7783311 0.4448191 0.6911766 -0.6464016 0.3231718 0.4430991 -0.7783311 0.4448191 0.440419 -0.7793281 0.4457341 0.198702 -0.840908 0.50338 0.198702 -0.840908 0.50338 0.1997311 -0.8407484 0.5032392 0.4430991 -0.7783311 0.4448191 -0.04413301 -0.8546012 0.5174061 -0.044041 -0.854603 0.517411 -0.198703 -0.8409048 0.5033849 -0.198703 -0.8409048 0.5033849 -0.199732 -0.8407501 0.5032361 -0.04413301 -0.8546012 0.5174061 -0.199732 -0.8407501 0.5032361 -0.198703 -0.8409048 0.5033849 -0.4404247 -0.7793285 0.4457277 -0.4404247 -0.7793285 0.4457277 -0.4431061 -0.7783322 0.4448101 -0.199732 -0.8407501 0.5032361 -0.4431061 -0.7783322 0.4448101 -0.4404247 -0.7793285 0.4457277 -0.6874852 -0.6491002 0.3256271 -0.6874852 -0.6491002 0.3256271 -0.6911739 -0.6464099 0.323161 -0.4431061 -0.7783322 0.4448101 -0.6911739 -0.6464099 0.323161 -0.6874852 -0.6491002 0.3256271 -0.8691367 -0.4679348 0.1601199 -0.8691367 -0.4679348 0.1601199 -0.8718659 -0.464047 0.156558 -0.6911739 -0.6464099 0.323161 -0.8718659 -0.464047 0.156558 -0.8691367 -0.4679348 0.1601199 -0.9575799 -0.288146 -0.003589 -0.9575799 -0.288146 -0.003589 -0.9586539 -0.28449 -0.006940999 -0.8718659 -0.464047 0.156558 -0.9797851 -0.104251 -0.170742 -0.9798635 -0.1057549 -0.1693619 -0.961403 0.007894 -0.275031 -0.961403 0.007894 -0.275031 -0.9603916 0.01158 -0.2784129 -0.9797851 -0.104251 -0.170742 -0.9603916 0.01158 -0.2784129 -0.961403 0.007894 -0.275031 -0.8774472 0.187984 -0.4413031 -0.8774472 0.187984 -0.4413031 -0.874752 0.191947 -0.444933 -0.9603916 0.01158 -0.2784129 -0.874752 0.191947 -0.444933 -0.8774472 0.187984 -0.4413031 -0.6981148 0.3727479 -0.6113059 -0.6981148 0.3727479 -0.6113059 -0.6943902 0.3755181 -0.6138473 -0.874752 0.191947 -0.444933 -0.6943902 0.3755181 -0.6138473 -0.6981148 0.3727479 -0.6113059 -0.4487228 0.5083738 -0.7349858 -0.4487228 0.5083738 -0.7349858 -0.4459832 0.5094082 -0.7359363 -0.6943902 0.3755181 -0.6138473 -0.4459832 0.5094082 -0.7359363 -0.4487228 0.5083738 -0.7349858 -0.202516 0.5736771 -0.7936511 -0.202516 0.5736771 -0.7936511 -0.201463 0.5738441 -0.7937982 -0.4459832 0.5094082 -0.7359363 0.9791395 -0.1712999 -0.1092799 0.9792467 -0.169797 -0.110657 0.9797821 -0.10426 -0.170754 0.9797821 -0.10426 -0.170754 0.9798605 -0.1057641 -0.1693741 0.9791395 -0.1712999 -0.1092799 -0.044041 -0.854603 0.517411 -0.04413301 -0.8546012 0.5174061 0.04414101 -0.8546002 0.5174071 0.04414101 -0.8546002 0.5174071 0.04404898 -0.8546046 0.5174078 -0.044041 -0.854603 0.517411 -0.9798635 -0.1057549 -0.1693619 -0.9797851 -0.104251 -0.170742 -0.9792455 -0.1698009 -0.1106609 -0.9792455 -0.1698009 -0.1106609 -0.9791389 -0.171302 -0.109283 -0.9798635 -0.1057549 -0.1693619 0.04476801 0.5894023 -0.8065983 0.044673 0.5894071 -0.8066001 -0.04467602 0.5894283 -0.8065844 -0.04467602 0.5894283 -0.8065844 -0.04476798 0.5894237 -0.8065826 0.04476801 0.5894023 -0.8065983 0.446449 -0.6132389 -0.6516299 0.2356261 -0.6739792 -0.7001662 0.2396411 -0.6441513 -0.7263893 0.2396411 -0.6441513 -0.7263893 0.4365661 -0.5631361 -0.7016322 0.446449 -0.6132389 -0.6516299 0.019936 -0.9432249 -0.331556 0.010521 -0.8475401 -0.5306271 0.04930297 -0.8486335 -0.5266787 0.04930297 -0.8486335 -0.5266787 0.08964599 -0.9362649 -0.339664 0.019936 -0.9432249 -0.331556 -0.2352981 -0.6892582 -0.6852432 -0.2382579 -0.7156737 -0.6565397 -0.4337568 -0.6938096 -0.5748767 -0.4337568 -0.6938096 -0.5748767 -0.4458298 -0.6422938 -0.6234537 -0.2352981 -0.6892582 -0.6852432 -0.010841 -0.5106421 -0.8597251 -0.05067799 -0.5066659 -0.8606519 -0.092446 -0.311432 -0.945761 -0.092446 -0.311432 -0.945761 -0.02054699 -0.3025768 -0.9529035 -0.010841 -0.5106421 -0.8597251 0.09245099 -0.311431 -0.9457609 0.05068101 -0.5066801 -0.8606432 0.010843 -0.5106401 -0.8597262 0.010843 -0.5106401 -0.8597262 0.02054801 -0.3025711 -0.9529054 0.09245099 -0.311431 -0.9457609 0.203916 -0.3419019 -0.9173447 0.1137901 -0.5194093 -0.8469155 0.05068101 -0.5066801 -0.8606432 0.05068101 -0.5066801 -0.8606432 0.09245099 -0.311431 -0.9457609 0.203916 -0.3419019 -0.9173447 0.316192 -0.4027321 -0.8589701 0.1779801 -0.5516131 -0.8148902 0.1137901 -0.5194093 -0.8469155 0.1137901 -0.5194093 -0.8469155 0.203916 -0.3419019 -0.9173447 0.316192 -0.4027321 -0.8589701 0.397624 -0.484002 -0.779511 0.222149 -0.5983499 -0.7698229 0.1779801 -0.5516131 -0.8148902 0.1779801 -0.5516131 -0.8148902 0.316192 -0.4027321 -0.8589701 0.397624 -0.484002 -0.779511 0.4365661 -0.5631361 -0.7016322 0.2396411 -0.6441513 -0.7263893 0.222149 -0.5983499 -0.7698229 0.222149 -0.5983499 -0.7698229 0.397624 -0.484002 -0.779511 0.4365661 -0.5631361 -0.7016322 0.4337563 -0.6938104 -0.5748764 0.238261 -0.7156761 -0.656536 0.235272 -0.6892641 -0.6852461 0.235272 -0.6892641 -0.6852461 0.4458401 -0.6422902 -0.6234501 0.4337563 -0.6938104 -0.5748764 0.3918879 -0.7725579 -0.4995779 0.2194159 -0.7592338 -0.6127159 0.238261 -0.7156761 -0.656536 0.238261 -0.7156761 -0.656536 0.4337563 -0.6938104 -0.5748764 0.3918879 -0.7725579 -0.4995779 0.30907 -0.8514961 -0.4235921 0.174651 -0.803928 -0.568504 0.2194159 -0.7592338 -0.6127159 0.2194159 -0.7592338 -0.6127159 0.3918879 -0.7725579 -0.4995779 0.30907 -0.8514961 -0.4235921 0.198179 -0.9086508 -0.3675309 0.111071 -0.835353 -0.538376 0.174651 -0.803928 -0.568504 0.174651 -0.803928 -0.568504 0.30907 -0.8514961 -0.4235921 0.198179 -0.9086508 -0.3675309 0.08964599 -0.9362649 -0.339664 0.04930297 -0.8486335 -0.5266787 0.111071 -0.835353 -0.538376 0.111071 -0.835353 -0.538376 0.198179 -0.9086508 -0.3675309 0.08964599 -0.9362649 -0.339664 -0.08964799 -0.9362659 -0.339661 -0.04930601 -0.8486392 -0.5266691 -0.01052 -0.8475451 -0.5306191 -0.01052 -0.8475451 -0.5306191 -0.01993399 -0.9432306 -0.3315399 -0.08964799 -0.9362659 -0.339661 -0.198189 -0.908653 -0.36752 -0.1110809 -0.8353556 -0.5383698 -0.04930601 -0.8486392 -0.5266691 -0.04930601 -0.8486392 -0.5266691 -0.08964799 -0.9362659 -0.339661 -0.198189 -0.908653 -0.36752 -0.309074 -0.8514958 -0.4235899 -0.174674 -0.8039351 -0.568487 -0.1110809 -0.8353556 -0.5383698 -0.1110809 -0.8353556 -0.5383698 -0.198189 -0.908653 -0.36752 -0.309074 -0.8514958 -0.4235899 -0.3918959 -0.7725598 -0.4995689 -0.219413 -0.759237 -0.612713 -0.174674 -0.8039351 -0.568487 -0.174674 -0.8039351 -0.568487 -0.309074 -0.8514958 -0.4235899 -0.3918959 -0.7725598 -0.4995689 -0.4337568 -0.6938096 -0.5748767 -0.2382579 -0.7156737 -0.6565397 -0.219413 -0.759237 -0.612713 -0.219413 -0.759237 -0.612713 -0.3918959 -0.7725598 -0.4995689 -0.4337568 -0.6938096 -0.5748767 -0.4365652 -0.5631332 -0.7016352 -0.239621 -0.6441579 -0.7263899 -0.2355959 -0.6739838 -0.7001718 -0.2355959 -0.6739838 -0.7001718 -0.4464471 -0.613239 -0.6516311 -0.4365652 -0.5631332 -0.7016352 -0.3976301 -0.4839901 -0.7795152 -0.2221329 -0.5983559 -0.7698228 -0.239621 -0.6441579 -0.7263899 -0.239621 -0.6441579 -0.7263899 -0.4365652 -0.5631332 -0.7016352 -0.3976301 -0.4839901 -0.7795152 -0.3161971 -0.4027301 -0.8589692 -0.1780029 -0.5515966 -0.8148964 -0.2221329 -0.5983559 -0.7698228 -0.2221329 -0.5983559 -0.7698228 -0.3976301 -0.4839901 -0.7795152 -0.3161971 -0.4027301 -0.8589692 -0.203917 -0.341898 -0.917346 -0.113789 -0.5194082 -0.8469163 -0.1780029 -0.5515966 -0.8148964 -0.1780029 -0.5515966 -0.8148964 -0.3161971 -0.4027301 -0.8589692 -0.203917 -0.341898 -0.917346 -0.092446 -0.311432 -0.945761 -0.05067799 -0.5066659 -0.8606519 -0.113789 -0.5194082 -0.8469163 -0.113789 -0.5194082 -0.8469163 -0.203917 -0.341898 -0.917346 -0.092446 -0.311432 -0.945761 0 -1 0 0 -1 0 0 -1 0 0 -1 0 0 -1 0 0 -1 0 1 0 0 1 0 0 1 0 0 1 0 0 1 0 0 1 0 0 -1 0 0 -1 0 0 -1 0 0 -1 0 0 -1 0 0 -1 0 0 0 0 -1 0 0 -1 0 0 -1 0 0 -1 0 0 -1 0 0 -1 0.9531246 0 -0.3025779 0.8168932 0 -0.5767891 0.8168932 0 -0.5767891 0.8168932 0 -0.5767891 0.9531246 0 -0.3025779 0.9531246 0 -0.3025779 0 -1 0 0 -1 0 0 -1 0 0 -1 0 0 -1 0 0 -1 0 0 0 1 0 0 1 0 0 1 0 0 1 0 0 1 0 0 1 0 0 -1 0 0 -1 0 0 -1 0 0 -1 0 0 -1 0 0 -1 0 -1 0 0 -1 0 0 -1 0 0 -1 0 0 -1 0 0 -1 0 0.9531246 0 -0.3025779 0.9531246 0 -0.3025779 1 0 0 1 0 0 1 0 0 0.9531246 0 -0.3025779 -1 0 0 -1 0 0 -1 0 0 -1 0 0 -1 0 0 -1 0 0 0 -1 0 0 -1 0 0 -1 0 0 -1 0 0 -1 0 0 -1 0 0.9531246 0 -0.3025779 1 0 0 1 0 0 1 0 0 0.953125 0 -0.302577 0.9531246 0 -0.3025779 1 0 0 1 0 0 1 0 0 1 0 0 1 0 0 1 0 0 0 0 1 0 0 1 0 0 1 0 0 1 0 0 1 0 0 1 -1 0 0 -1 0 0 -1 0 0 -1 0 0 -1 0 0 -1 0 0 -0.577501 0 0.81639 -0.577501 0 0.81639 -0.577501 0 0.81639 -0.577501 0 0.81639 -0.577501 0 0.81639 -0.577501 0 0.81639 -0.9999993 0 0.001135 -0.9999993 0 0.001135 -0.9999993 0 0.001135 -0.9999993 0 0.001135 -0.9999993 0 0.001135 -0.9999993 0 0.001135 0 0 -1 0 0 -1 0 0 -1 0 0 -1 0 0 -1 0 0 -1 0.8168932 0 -0.5767891 0.9531246 0 -0.3025779 0.953125 0 -0.302577 0.953125 0 -0.302577 0.8168932 0 -0.5767891 0.8168932 0 -0.5767891 0 0 1 0 0 1 0 0 1 0 0 1 0 0 1 0 0 1 0 -1 0 0 -1 0 0 -1 0 0 -1 0 0 -1 0 0 -1 0 0 -1 0 0 -1 0 0 -1 0 0 -1 0 0 -1 0 0 -1 0 0 -1 0 0 -1 0 0 -1 0 1 0 0 1 0 0 1 0 0 1 0 0 1 0 0 1 0 0 0 0 1 0 0 1 0 0 1 0 0 1 0 0 1 0 0 1 -1 0 0 -1 0 0 -1 0 0 -1 0 0 -1 0 0 -1 0 0 -0.006740002 0 -0.9999774 -0.006740002 0 -0.9999774 -0.006740002 0 -0.9999774 -0.006740002 0 -0.9999774 -0.006740002 0 -0.9999774 -0.006740002 0 -0.9999774 0 -1 0 0 -1 0 0 -1 0 0 -1 0 0 -1 0 0 -1 0 1 0 0 1 0 0 1 0 0 1 0 0 1 0 0 1 0 0 0 0 1 0 0 1 0 0 1 0 0 1 0 0 1 0 0 1 -1 0 0 -1 0 0 -1 0 0 -1 0 0 -1 0 0 -1 0 0 0 0 -1 0 0 -1 0 0 -1 0 0 -1 0 0 -1 0 0 -1 0.9253284 -0.1631611 -0.3422661 0.8137202 0.4698031 -0.3422641 0.8126502 0.4691851 0.3456371 0.8126502 0.4691851 0.3456371 0.9241117 -0.1629459 0.3456389 0.9253284 -0.1631611 -0.3422661 0.8137202 0.4698031 -0.3422641 0.3213651 0.8829402 -0.3422591 0.320942 0.8817789 0.345633 0.320942 0.8817789 0.345633 0.8126502 0.4691851 0.3456371 0.8137202 0.4698031 -0.3422641 0.3213651 0.8829402 -0.3422591 -0.321362 0.8829401 -0.342262 -0.32094 0.8817789 0.345635 -0.32094 0.8817789 0.345635 0.320942 0.8817789 0.345633 0.3213651 0.8829402 -0.3422591 -0.321362 0.8829401 -0.342262 -0.8137212 0.4698011 -0.3422641 -0.8126522 0.4691831 0.3456351 -0.8126522 0.4691831 0.3456351 -0.32094 0.8817789 0.345635 -0.321362 0.8829401 -0.342262 -0.8137212 0.4698011 -0.3422641 -0.9253308 -0.16316 -0.3422599 -0.9241142 -0.162946 0.3456321 -0.9241142 -0.162946 0.3456321 -0.8126522 0.4691831 0.3456351 -0.8137212 0.4698011 -0.3422641 -0.9253308 -0.16316 -0.3422599 -0.6039699 -0.7197768 -0.3422599 -0.6031736 -0.7188316 0.3456338 -0.6031736 -0.7188316 0.3456338 -0.9241142 -0.162946 0.3456321 -0.9253308 -0.16316 -0.3422599 -0.6039699 -0.7197768 -0.3422599 0 -0.9396045 -0.3422622 0 -0.9383691 0.345635 0 -0.9383691 0.345635 -0.6031736 -0.7188316 0.3456338 -0.6039699 -0.7197768 -0.3422599 0 -0.9396045 -0.3422622 0.6039631 -0.719781 -0.342263 0.6031691 -0.7188352 0.3456341 0.6031691 -0.7188352 0.3456341 0 -0.9383691 0.345635 0 -0.9396045 -0.3422622 0.6039631 -0.719781 -0.342263 0.9253284 -0.1631611 -0.3422661 0.9241117 -0.1629459 0.3456389 0.9241117 -0.1629459 0.3456389 0.6031691 -0.7188352 0.3456341 0.6039631 -0.719781 -0.342263 0.4091032 0.2361931 -0.8813896 0.4652129 -0.08202999 -0.8813899 0 0 -1 0.16157 0.4439059 -0.8813868 0.4091032 0.2361931 -0.8813896 0 0 -1 -0.1615691 0.4439032 -0.8813884 0.16157 0.4439059 -0.8813868 0 0 -1 -0.4091022 0.2361951 -0.8813894 -0.1615691 0.4439032 -0.8813884 0 0 -1 -0.4652181 -0.08202902 -0.8813872 -0.4091022 0.2361951 -0.8813894 0 0 -1 -0.3036479 -0.3618779 -0.8813867 -0.4652181 -0.08202902 -0.8813872 0 0 -1 0 -0.4723911 -0.8813891 -0.3036479 -0.3618779 -0.8813867 0 0 -1 0.3036471 -0.3618721 -0.8813893 0 -0.4723911 -0.8813891 0 0 -1 0.4652129 -0.08202999 -0.8813899 0.3036471 -0.3618721 -0.8813893 0 0 -1 0.4897561 -0.08635702 0.8675722 0.4306869 0.2486559 0.8675708 0 0 1 0.4306869 0.2486559 0.8675708 0.170094 0.4673241 0.8675692 0 0 1 0.170094 0.4673241 0.8675692 -0.170093 0.467323 0.86757 0 0 1 -0.170093 0.467323 0.86757 -0.4306879 0.2486579 0.8675698 0 0 1 -0.4306879 0.2486579 0.8675698 -0.4897631 -0.08635801 0.8675681 0 0 1 -0.4897631 -0.08635801 0.8675681 -0.3196681 -0.3809671 0.8675692 0 0 1 -0.3196681 -0.3809671 0.8675692 0 -0.497315 0.8675701 0 0 1 0 -0.497315 0.8675701 0.3196669 -0.3809669 0.8675698 0 0 1 0.3196669 -0.3809669 0.8675698 0.4897561 -0.08635702 0.8675722 0 0 1 0.8126502 0.4691851 0.3456371 0.4306869 0.2486559 0.8675708 0.4897561 -0.08635702 0.8675722 0.4897561 -0.08635702 0.8675722 0.9241117 -0.1629459 0.3456389 0.8126502 0.4691851 0.3456371 0.320942 0.8817789 0.345633 0.170094 0.4673241 0.8675692 0.4306869 0.2486559 0.8675708 0.4306869 0.2486559 0.8675708 0.8126502 0.4691851 0.3456371 0.320942 0.8817789 0.345633 -0.32094 0.8817789 0.345635 -0.170093 0.467323 0.86757 0.170094 0.4673241 0.8675692 0.170094 0.4673241 0.8675692 0.320942 0.8817789 0.345633 -0.32094 0.8817789 0.345635 -0.8126522 0.4691831 0.3456351 -0.4306879 0.2486579 0.8675698 -0.170093 0.467323 0.86757 -0.170093 0.467323 0.86757 -0.32094 0.8817789 0.345635 -0.8126522 0.4691831 0.3456351 -0.9241142 -0.162946 0.3456321 -0.4897631 -0.08635801 0.8675681 -0.4306879 0.2486579 0.8675698 -0.4306879 0.2486579 0.8675698 -0.8126522 0.4691831 0.3456351 -0.9241142 -0.162946 0.3456321 -0.6031736 -0.7188316 0.3456338 -0.3196681 -0.3809671 0.8675692 -0.4897631 -0.08635801 0.8675681 -0.4897631 -0.08635801 0.8675681 -0.9241142 -0.162946 0.3456321 -0.6031736 -0.7188316 0.3456338 0 -0.9383691 0.345635 0 -0.497315 0.8675701 -0.3196681 -0.3809671 0.8675692 -0.3196681 -0.3809671 0.8675692 -0.6031736 -0.7188316 0.3456338 0 -0.9383691 0.345635 0.6031691 -0.7188352 0.3456341 0.3196669 -0.3809669 0.8675698 0 -0.497315 0.8675701 0 -0.497315 0.8675701 0 -0.9383691 0.345635 0.6031691 -0.7188352 0.3456341 0.9241117 -0.1629459 0.3456389 0.4897561 -0.08635702 0.8675722 0.3196669 -0.3809669 0.8675698 0.3196669 -0.3809669 0.8675698 0.6031691 -0.7188352 0.3456341 0.9241117 -0.1629459 0.3456389 0.4652129 -0.08202999 -0.8813899 0.4091032 0.2361931 -0.8813896 0.8137202 0.4698031 -0.3422641 0.8137202 0.4698031 -0.3422641 0.9253284 -0.1631611 -0.3422661 0.4652129 -0.08202999 -0.8813899 0.4091032 0.2361931 -0.8813896 0.16157 0.4439059 -0.8813868 0.3213651 0.8829402 -0.3422591 0.3213651 0.8829402 -0.3422591 0.8137202 0.4698031 -0.3422641 0.4091032 0.2361931 -0.8813896 0.16157 0.4439059 -0.8813868 -0.1615691 0.4439032 -0.8813884 -0.321362 0.8829401 -0.342262 -0.321362 0.8829401 -0.342262 0.3213651 0.8829402 -0.3422591 0.16157 0.4439059 -0.8813868 -0.1615691 0.4439032 -0.8813884 -0.4091022 0.2361951 -0.8813894 -0.8137212 0.4698011 -0.3422641 -0.8137212 0.4698011 -0.3422641 -0.321362 0.8829401 -0.342262 -0.1615691 0.4439032 -0.8813884 -0.4091022 0.2361951 -0.8813894 -0.4652181 -0.08202902 -0.8813872 -0.9253308 -0.16316 -0.3422599 -0.9253308 -0.16316 -0.3422599 -0.8137212 0.4698011 -0.3422641 -0.4091022 0.2361951 -0.8813894 -0.4652181 -0.08202902 -0.8813872 -0.3036479 -0.3618779 -0.8813867 -0.6039699 -0.7197768 -0.3422599 -0.6039699 -0.7197768 -0.3422599 -0.9253308 -0.16316 -0.3422599 -0.4652181 -0.08202902 -0.8813872 -0.3036479 -0.3618779 -0.8813867 0 -0.4723911 -0.8813891 0 -0.9396045 -0.3422622 0 -0.9396045 -0.3422622 -0.6039699 -0.7197768 -0.3422599 -0.3036479 -0.3618779 -0.8813867 0 -0.4723911 -0.8813891 0.3036471 -0.3618721 -0.8813893 0.6039631 -0.719781 -0.342263 0.6039631 -0.719781 -0.342263 0 -0.9396045 -0.3422622 0 -0.4723911 -0.8813891 0.6039631 -0.719781 -0.342263 0.3036471 -0.3618721 -0.8813893 0.4652129 -0.08202999 -0.8813899 0.4652129 -0.08202999 -0.8813899 0.9253284 -0.1631611 -0.3422661 0.6039631 -0.719781 -0.342263 0.05068101 -0.5066801 -0.8606432 0.1137901 -0.5194093 -0.8469155 0.111071 -0.835353 -0.538376 0.111071 -0.835353 -0.538376 0.04930297 -0.8486335 -0.5266787 0.010521 -0.8475401 -0.5306271 0.05068101 -0.5066801 -0.8606432 0.111071 -0.835353 -0.538376 0.010521 -0.8475401 -0.5306271 0.010843 -0.5106401 -0.8597262 0.05068101 -0.5066801 -0.8606432 0.010521 -0.8475401 -0.5306271 -0.04930601 -0.8486392 -0.5266691 -0.1110809 -0.8353556 -0.5383698 -0.113789 -0.5194082 -0.8469163 -0.113789 -0.5194082 -0.8469163 -0.05067799 -0.5066659 -0.8606519 -0.010841 -0.5106421 -0.8597251 -0.04930601 -0.8486392 -0.5266691 -0.113789 -0.5194082 -0.8469163 -0.010841 -0.5106421 -0.8597251 -0.01052 -0.8475451 -0.5306191 -0.04930601 -0.8486392 -0.5266691 -0.010841 -0.5106421 -0.8597251 0.1779801 -0.5516131 -0.8148902 0.222149 -0.5983499 -0.7698229 0.2396411 -0.6441513 -0.7263893 0.2396411 -0.6441513 -0.7263893 0.2356261 -0.6739792 -0.7001662 0.235272 -0.6892641 -0.6852461 0.235272 -0.6892641 -0.6852461 0.238261 -0.7156761 -0.656536 0.2194159 -0.7592338 -0.6127159 0.2194159 -0.7592338 -0.6127159 0.174651 -0.803928 -0.568504 0.111071 -0.835353 -0.538376 0.235272 -0.6892641 -0.6852461 0.2194159 -0.7592338 -0.6127159 0.111071 -0.835353 -0.538376 0.2396411 -0.6441513 -0.7263893 0.235272 -0.6892641 -0.6852461 0.111071 -0.835353 -0.538376 0.1779801 -0.5516131 -0.8148902 0.2396411 -0.6441513 -0.7263893 0.111071 -0.835353 -0.538376 0.1137901 -0.5194093 -0.8469155 0.1779801 -0.5516131 -0.8148902 0.111071 -0.835353 -0.538376 -0.174674 -0.8039351 -0.568487 -0.219413 -0.759237 -0.612713 -0.2382579 -0.7156737 -0.6565397 -0.2382579 -0.7156737 -0.6565397 -0.2352981 -0.6892582 -0.6852432 -0.2355959 -0.6739838 -0.7001718 -0.2355959 -0.6739838 -0.7001718 -0.239621 -0.6441579 -0.7263899 -0.2221329 -0.5983559 -0.7698228 -0.2221329 -0.5983559 -0.7698228 -0.1780029 -0.5515966 -0.8148964 -0.113789 -0.5194082 -0.8469163 -0.2355959 -0.6739838 -0.7001718 -0.2221329 -0.5983559 -0.7698228 -0.113789 -0.5194082 -0.8469163 -0.2382579 -0.7156737 -0.6565397 -0.2355959 -0.6739838 -0.7001718 -0.113789 -0.5194082 -0.8469163 -0.174674 -0.8039351 -0.568487 -0.2382579 -0.7156737 -0.6565397 -0.113789 -0.5194082 -0.8469163 -0.1110809 -0.8353556 -0.5383698 -0.174674 -0.8039351 -0.568487 -0.113789 -0.5194082 -0.8469163</float_array>
          <technique_common>
            <accessor source="#geom-loadingstation-normals-array" count="1230" stride="3">
              <param name="X" type="float"/>
              <param name="Y" type="float"/>
              <param name="Z" type="float"/>
            </accessor>
          </technique_common>
        </source>
        <source id="geom-loadingstation-geom-loadingstation-map1" name="geom-loadingstation-geom-loadingstation-map1">
          <float_array id="geom-loadingstation-geom-loadingstation-map1-array" count="1100">0.588594 0.47187 0.588601 0.45582 0.91547 0.583624 0.835734 0.919039 0.839572 0.924566 0.837582 0.45582 0.837575 0.47187 0.836431 0.996064 0.589674 0.996064 0.915479 0.779438 0.903653 0.77948 0.839572 0.996063 0.837569 0.67303 0.903669 0.58363 0.588588 0.672888 0.837509 0.778207 0.588528 0.778076 0.837951 0.916814 0.588976 0.919218 0.915522 0.90202 0.915597 0.997452 0.339613 0.47187 0.339607 0.672745 0.924655 0.583204 0.924646 0.779017 0.936472 0.77906 0.936456 0.58321 0.924603 0.9016 0.339547 0.777921 0.33962 0.45582 0.342917 0.996064 0.342223 0.920703 0.924528 0.997032 0.339992 0.918493 0.339776 0.924567 0.339776 0.996064 0.327114 0.610078 0.327114 0.986639 0.24823 0.986639 0.24823 0.610078 0.24823 0.602484 0.327114 0.602484 0.327114 0.992734 0.24823 0.992734 0.334544 0.609952 0.334544 0.986765 0.241686 0.986765 0.241686 0.609952 0.342584 0.187503 0.795112 0.008886 0.795112 0.187503 0.994359 0.008886 0.342584 0.008885 0.580794 0.187503 0.580793 0.008885 0.994359 0.187503 0.367559 0.008885 0.965126 0.187503 0.36756 0.187503 0.965126 0.008886 0.315039 0.401899 0.293187 0.401904 0.296168 0.004336 0.315052 0.004344 0.795112 0.366121 0.580793 0.366121 0.008233 0.400691 0.030086 0.400696 0.027105 0.003128 0.00822 0.003136 0.342584 0.366121 0.367559 0.366121 0.994359 0.366121 0.965126 0.366121 0.880763 0.40302 0.876215 0.403335 0.88082 0.535275 0.935101 0.402926 0.935154 0.559944 0.876279 0.539306 0.901402 0.560094 0.896713 0.564005 0.947787 0.560641 0.942916 0.562182 0.942905 0.40068 0.947787 0.40222 0.876112 0.534763 0.935626 0.565266 0.901249 0.564727 0.880464 0.398293 0.935566 0.39759 0.942147 0.396896 0.942196 0.565961 0.180018 0.090296 0.141972 0.090296 0.141972 0.075063 0.180018 0.075063 0.141963 0.065168 0.180027 0.065168 0.191291 0.075063 0.191291 0.090296 0.131527 0.090296 0.131527 0.075063 0.180027 0.099653 0.141963 0.099653 0.180018 0.090296 0.141972 0.090296 0.141972 0.075063 0.180018 0.075063 0.141963 0.065168 0.180027 0.065168 0.191291 0.075063 0.191291 0.090296 0.180027 0.099653 0.141963 0.099653 0.131527 0.090296 0.131527 0.075063 0.180018 0.090296 0.141972 0.090296 0.141972 0.075063 0.180018 0.075063 0.141963 0.065168 0.180027 0.065168 0.191291 0.075063 0.191291 0.090296 0.180027 0.099653 0.141963 0.099653 0.131527 0.090296 0.131527 0.075063 0.180018 0.090296 0.141972 0.090296 0.141972 0.075063 0.180018 0.075063 0.141963 0.065168 0.180027 0.065168 0.191291 0.075063 0.191291 0.090296 0.180027 0.099653 0.141963 0.099653 0.131527 0.090296 0.131527 0.075063 0.21059 0.671108 0.237364 0.688665 0.21078 0.796685 0.027334 0.660844 0.027406 0.667012 0.216514 0.671653 0.00145 0.769868 0.005819 0.769781 0.020928 0.663717 0.020678 0.661374 0.217486 0.661374 0.232347 0.688581 0.220848 0.673106 0.234927 0.682032 0.237296 0.682038 0.236983 0.676355 0.210778 0.791343 0.223959 0.675331 0.217327 0.794208 0.217405 0.796596 0.223084 0.796215 0.003883 0.776331 0.226184 0.678441 0.001513 0.776493 0.001836 0.782175 0.217236 0.663717 0.210758 0.667012 0.227637 0.682774 0.234621 0.676474 0.228188 0.688699 0.228187 0.769526 0.227637 0.775452 0.226185 0.779785 0.222881 0.793835 0.22396 0.782895 0.22085 0.78512 0.216517 0.786573 0.210591 0.787122 0.027572 0.787122 0.021647 0.786573 0.234074 0.671492 0.017314 0.78512 0.014204 0.782895 0.011979 0.779785 0.010527 0.775452 0.227848 0.793159 0.009977 0.769526 0.009976 0.688699 0.010527 0.682774 0.01198 0.678441 0.0042 0.781889 0.014205 0.675331 0.017316 0.673106 0.02165 0.671653 0.027574 0.671108 0.21083 0.660844 0.23642 0.671226 0.237291 0.776495 0.228197 0.795519 0.223137 0.66204 0.222765 0.664369 0.020758 0.796597 0.004802 0.786865 0.002457 0.787298 0.228225 0.662898 0.227708 0.665202 0.015027 0.662041 0.234921 0.77633 0.232345 0.769781 0.237362 0.769869 0.236957 0.782177 0.234594 0.781886 0.020837 0.794209 0.027386 0.791343 0.027384 0.796685 0.01508 0.796216 0.015283 0.793836 0.001508 0.68204 0.003877 0.68203 0.005816 0.688581 0.001448 0.688666 0.015399 0.664369 0.010456 0.665203 0.009939 0.662899 0.231724 0.681969 0.217387 0.79072 0.006443 0.776391 0.020782 0.667628 0.217382 0.667628 0.22276 0.669441 0.226927 0.672428 0.229913 0.676595 0.231721 0.776391 0.229909 0.781763 0.226924 0.785926 0.22276 0.78891 0.020776 0.79072 0.015404 0.78891 0.01124 0.785926 0.008255 0.781763 0.00644 0.681969 0.008251 0.676595 0.011237 0.672428 0.015404 0.669441 0.001809 0.676357 0.004172 0.676471 0.002361 0.671227 0.004708 0.671487 0.009967 0.79552 0.010316 0.793161 0.236327 0.787298 0.233982 0.786861 0.158688 0.828851 0.149431 0.976688 0.181557 0.977219 0.157668 0.826824 0.182119 0.864121 0.181281 0.998612 0.149543 0.998461 0.132331 0.827462 0.132379 0.804605 0.157293 0.804422 0.150826 0.975288 0.029032 0.827919 0.182208 0.975058 0.02931 0.804787 0.133326 0.862981 0.133985 0.828507 0.187879 0.974724 0.187993 0.875366 0.210599 0.872912 0.210676 0.974257 0.028739 0.87018 0.028708 0.998309 0.028654 0.976311 0.005637 0.870167 0.0057 0.828167 0.185197 0.862642 0.164186 0.825847 0.186723 0.817773 0.207161 0.857424 0.182518 0.875849 0.151063 0.875679 0.149118 0.876746 0.005574 0.976088 0.131409 0.863825 0.143226 0.009793 0.172355 0.055507 0.143259 0.055507 0.172322 0.009597 0.172295 0.015036 0.143319 0.04867 0.172295 0.04867 0.14332 0.015232 0.177808 0.015037 0.177808 0.04867 0.137806 0.04867 0.137806 0.015231 0.261805 0.425157 0.322486 0.562645 0.261805 0.562645 0.322486 0.425156 0.322486 0.43685 0.261805 0.550238 0.322486 0.550238 0.261805 0.43685 0.334406 0.43685 0.334406 0.550238 0.250478 0.550238 0.250478 0.43685 0.099888 0.411052 0.184657 0.431441 0.12003 0.420487 0.210299 0.431441 0.122919 0.3881 0.005161 0.431441 0.090523 0.390878 0.030803 0.431441 0.096317 0.369405 0.056446 0.431441 0.114558 0.356679 0.082088 0.431441 0.136712 0.358656 0.10773 0.431441 0.152412 0.37441 0.133372 0.431441 0.154312 0.39657 0.159014 0.431441 0.159014 0.65017 0.141523 0.414767 0.184657 0.65017 0.202882 0.420907 0.210299 0.65017 0.183704 0.411924 0.005161 0.65017 0.205634 0.390076 0.030803 0.65017 0.174788 0.392716 0.056446 0.65017 0.180304 0.37227 0.082088 0.65017 0.197673 0.360153 0.10773 0.65017 0.218766 0.362035 0.133372 0.65017 0.233715 0.377035 0.235524 0.398135 0.223347 0.415462 0.179046 0.417623 0.201677 0.428223 0.167814 0.392648 0.174324 0.368521 0.195529 0.353513 0.222373 0.355911 0.240013 0.373612 0.242503 0.400464 0.228134 0.420909 0.119139 0.426633 0.096505 0.416031 0.085094 0.390164 0.091604 0.366034 0.112813 0.351378 0.140194 0.35431 0.157837 0.372014 0.159794 0.399047 0.22953 0.431441 0.22953 0.65017 0.145423 0.419495 0.844074 0.866553 0.843961 0.99741 0.996051 0.866133 0.996165 0.996989 0.168927 0.31731 0.168927 0.132627 0.154346 0.316102 0.154346 0.131419 0.363942 0.008885 0.363943 0.187503 0.363942 0.366121 0.57192 0.187503 0.57192 0.008885 0.57192 0.366121 0.78967 0.008885 0.78967 0.187503 0.78967 0.366121 0.969643 0.187503 0.969643 0.008886 0.969643 0.366121 0.588601 0.46758 0.837582 0.46758 0.33962 0.46758 0.837575 0.667196 0.588594 0.667196 0.339613 0.667196 0.836431 0.924566 0.589674 0.924932 0.342917 0.924567 0.83751 0.786058 0.58853 0.786914 0.33955 0.787737 0.327114 0.606534 0.327114 0.988684 0.24823 0.988684 0.24823 0.606534 0.330362 0.610078 0.330362 0.986639 0.245867 0.986639 0.245867 0.610078 0.190237 0.974724 0.190352 0.875366 0.188665 0.863839 0.167654 0.827044 0.157668 0.824432 0.132331 0.825069 0.029032 0.825527 0.026298 0.827919 0.026005 0.87018 0.02592 0.976311 0.149431 0.978003 0.181557 0.978533 0.028654 0.977625 0.18343 0.090296 0.139388 0.090296 0.139388 0.075063 0.18343 0.075063 0.18343 0.090296 0.139388 0.090296 0.139388 0.075063 0.18343 0.075063 0.18343 0.090296 0.139388 0.090296 0.139388 0.075063 0.18343 0.075063 0.18343 0.090296 0.139388 0.090296 0.139388 0.075063 0.18343 0.075063 0.141972 0.073047 0.180018 0.073047 0.141972 0.073047 0.180018 0.073047 0.141972 0.073047 0.180018 0.073047 0.141972 0.073047 0.180018 0.073047 0.180018 0.091775 0.141972 0.091775 0.180018 0.091775 0.141972 0.091775 0.180018 0.091775 0.141972 0.091775 0.180018 0.091775 0.141972 0.091775 0.184546 0.864121 0.184634 0.975058 0.186307 0.863839 0.184945 0.875849 0.160004 0.827654 0.183435 0.862924 0.322486 0.43526 0.261805 0.552541 0.322486 0.552542 0.261805 0.43526 0.324303 0.43685 0.324303 0.550238 0.260581 0.550238 0.260581 0.43685 0.172295 0.014512 0.143319 0.050592 0.172295 0.050592 0.14332 0.014707 0.172994 0.015036 0.14262 0.04867 0.172994 0.04867 0.142621 0.015232 0.936464 0.402926 0.936517 0.559943 0.944279 0.560592 0.944268 0.40227 0.935154 0.561534 0.901402 0.561684 0.878776 0.537774 0.899358 0.562592 0.879174 0.40302 0.87923 0.535275 0.880763 0.40143 0.935101 0.401336 0.027406 0.663196 0.210758 0.663196 0.234994 0.688581 0.234991 0.769781 0.210778 0.794296 0.027386 0.794296 0.003821 0.769781 0.003818 0.688581 0.203592 0.422328 0.181396 0.413167 0.172479 0.393959 0.198028 0.35891 0.219121 0.360792 0.23478 0.376858 0.23659 0.397957 0.224058 0.416882 0.177448 0.41709 0.203097 0.427868 0.166926 0.394424 0.196595 0.353513 0.221485 0.355734 0.239836 0.3745 0.24197 0.399398 0.227247 0.421442 0.202172 0.422683 0.182994 0.4137 0.179594 0.371026 0.196962 0.35891 0.220009 0.360969 0.234958 0.37597 0.237123 0.399023 0.224946 0.416349 0.175034 0.367811 0.173367 0.392183 0.178884 0.371737 0.098822 0.411763 0.12074 0.422263 0.089458 0.391589 0.115091 0.355081 0.137244 0.357057 0.154365 0.374232 0.156265 0.396392 0.142233 0.416543 0.120382 0.426278 0.095973 0.414611 0.085449 0.39194 0.114056 0.351201 0.138951 0.353422 0.158014 0.372546 0.16015 0.397449 0.144535 0.419851 0.099355 0.413183 0.119497 0.422618 0.095606 0.367984 0.113848 0.355258 0.138488 0.357945 0.154188 0.3737 0.15591 0.397991 0.143121 0.416188 0.092315 0.365679 0.089102 0.389813 0.094896 0.368339</float_array>
          <technique_common>
            <accessor source="#geom-loadingstation-geom-loadingstation-map1-array" count="550" stride="2">
              <param name="S" type="float"/>
              <param name="T" type="float"/>
            </accessor>
          </technique_common>
        </source>
        <vertices id="geom-loadingstation-vertices" name="geom-loadingstation-vertices">
          <input semantic="POSITION" source="#geom-loadingstation-positions"/>
        </vertices>
        <triangles material="_3___DefaultSG" count="410">
          <input semantic="VERTEX" source="#geom-loadingstation-vertices" offset="0"/>
          <input semantic="NORMAL" source="#geom-loadingstation-normals" offset="1"/>
          <input semantic="TEXCOORD" source="#geom-loadingstation-geom-loadingstation-map1" offset="2" set="0"/>
          <p>2 0 392 8 1 393 15 2 0 15 3 0 1 4 6 2 5 392 7 6 9 2 7 10 1 8 13 1 9 13 0 10 2 7 11 9 12 12 369 2 13 10 7 14 9 7 15 9 9 16 19 12 17 369 12 18 15 20 19 16 8 20 14 8 21 14 2 22 12 12 23 15 15 24 389 21 25 1 0 26 5 0 27 5 1 28 390 15 29 389 4 30 7 6 31 8 5 32 396 5 33 396 10 34 395 4 35 7 12 36 369 9 37 19 11 38 20 11 39 20 3 40 370 12 41 369 10 42 395 3 43 4 11 44 11 11 45 11 4 46 7 10 47 395 3 48 17 10 49 3 5 50 18 3 51 17 5 52 18 20 53 399 3 54 17 20 55 399 12 56 398 14 57 394 13 58 21 15 59 0 15 60 0 8 61 393 14 62 394 17 63 24 16 64 23 13 65 26 13 66 26 14 67 25 17 68 24 19 69 371 18 70 27 17 71 24 17 72 24 14 73 25 19 74 371 19 75 28 14 76 22 8 77 14 8 78 14 20 79 16 19 80 28 15 81 389 13 82 391 16 83 29 16 84 29 21 85 1 15 86 389 22 87 30 23 88 397 5 89 396 5 90 396 6 91 8 22 92 30 19 93 371 25 94 372 24 95 32 24 96 32 18 97 27 19 98 371 23 99 397 22 100 30 24 101 35 24 102 35 25 103 34 23 104 397 25 105 33 19 106 400 20 107 399 25 108 33 20 109 399 5 110 18 25 111 33 5 112 18 23 113 31 32 114 37 30 115 38 31 116 39 31 117 39 33 118 36 32 119 37 31 120 408 30 121 407 26 122 46 26 123 46 27 124 47 31 125 408 31 126 404 27 127 40 29 128 41 29 129 41 33 130 401 31 131 404 33 132 405 29 133 44 28 134 45 28 135 45 32 136 406 33 137 405 32 138 402 28 139 42 26 140 43 26 141 43 30 142 403 32 143 402 36 144 383 39 145 384 38 146 53 38 147 53 35 148 54 36 149 383 37 150 60 41 151 61 34 152 62 34 153 62 40 154 63 37 155 60 40 156 52 34 157 377 49 158 378 49 159 378 48 160 48 40 161 52 50 162 55 51 163 386 41 164 387 41 165 387 37 166 51 50 167 55 35 168 381 38 169 380 49 170 58 49 171 58 34 172 56 35 173 381 41 174 59 51 175 57 39 176 50 39 177 50 36 178 49 41 179 59 35 180 374 34 181 62 41 182 61 41 183 61 36 184 373 35 185 374 42 186 385 43 187 65 38 188 53 38 189 53 39 190 384 42 191 385 44 192 66 47 193 69 46 194 68 46 195 68 45 196 67 44 197 66 47 198 70 48 199 48 49 200 378 49 201 378 46 202 379 47 203 70 50 204 55 44 205 72 45 206 388 45 207 388 51 208 386 50 209 55 43 210 382 46 211 71 49 212 58 49 213 58 38 214 380 43 215 382 45 216 73 42 217 64 39 218 50 39 219 50 51 220 57 45 221 73 43 222 376 42 223 375 45 224 67 45 225 67 46 226 68 43 227 376 52 228 78 53 229 80 60 230 76 55 231 77 52 232 78 60 233 76 54 234 74 55 235 77 60 236 76 61 237 88 53 238 481 52 239 480 52 240 480 56 241 87 61 242 88 58 243 75 54 244 484 60 245 485 60 246 485 57 247 86 58 248 75 59 249 90 55 250 487 54 251 486 54 252 486 58 253 89 59 254 90 65 255 478 62 256 479 63 257 85 63 258 85 64 259 82 65 260 478 61 261 81 57 262 79 60 263 482 60 264 482 53 265 483 61 266 81 59 267 90 63 268 91 62 269 84 62 270 84 55 271 487 59 272 90 65 273 83 64 274 92 56 275 87 56 276 87 52 277 480 65 278 83 55 279 476 62 280 479 65 281 478 65 282 478 52 283 477 55 284 476 72 285 94 70 286 95 71 287 96 71 288 96 73 289 93 72 290 94 70 291 438 66 292 97 67 293 98 67 294 98 71 295 439 70 296 438 71 297 425 67 298 99 69 299 100 69 300 100 73 301 422 71 302 425 73 303 446 69 304 103 68 305 104 68 306 104 72 307 447 73 308 446 72 309 423 68 310 101 66 311 102 66 312 102 70 313 424 72 314 423 75 315 106 76 316 107 77 317 108 77 318 108 74 319 105 75 320 106 76 321 440 78 322 109 79 323 110 79 324 110 77 325 441 76 326 440 77 327 429 79 328 111 80 329 112 80 330 112 74 331 426 77 332 429 74 333 448 80 334 113 81 335 114 81 336 114 75 337 449 74 338 448 75 339 427 81 340 115 78 341 116 78 342 116 76 343 428 75 344 427 83 345 118 84 346 119 85 347 120 85 348 120 82 349 117 83 350 118 84 351 442 86 352 121 87 353 122 87 354 122 85 355 443 84 356 442 85 357 433 87 358 123 88 359 124 88 360 124 82 361 430 85 362 433 82 363 450 88 364 125 89 365 126 89 366 126 83 367 451 82 368 450 83 369 431 89 370 127 86 371 128 86 372 128 84 373 432 83 374 431 91 375 130 92 376 131 93 377 132 93 378 132 90 379 129 91 380 130 92 381 444 94 382 133 95 383 134 95 384 134 93 385 445 92 386 444 93 387 437 95 388 135 96 389 136 96 390 136 90 391 434 93 392 437 90 393 452 96 394 137 97 395 138 97 396 138 91 397 453 90 398 452 91 399 435 97 400 139 94 401 140 94 402 140 92 403 436 91 404 435 103 405 178 128 406 179 129 407 195 129 408 195 130 409 141 103 410 178 154 411 152 155 412 209 127 413 171 127 414 171 98 415 170 154 416 152 159 417 157 156 418 214 128 419 179 128 420 179 103 421 178 159 422 157 132 423 187 160 424 148 161 425 220 161 426 220 133 427 188 132 428 187 129 429 195 157 430 145 158 431 167 158 432 167 130 433 141 129 434 195 166 435 154 138 436 155 126 437 142 126 438 142 154 439 490 166 440 154 171 441 159 143 442 160 131 443 143 131 444 143 159 445 492 171 446 159 176 447 162 148 448 164 104 449 147 104 450 147 160 451 494 176 452 162 181 453 149 153 454 150 101 455 144 101 456 144 157 457 488 181 458 149 158 459 489 102 460 196 106 461 151 106 462 151 162 463 166 158 464 489 162 465 166 106 466 151 107 467 200 107 468 200 163 469 201 162 470 166 163 471 201 107 472 200 108 473 205 108 474 205 164 475 206 163 476 201 164 477 181 108 478 197 109 479 156 109 480 156 165 481 169 164 482 181 165 483 169 109 484 156 138 485 155 138 486 155 166 487 154 165 488 169 155 489 491 99 490 210 111 491 198 111 492 198 167 493 208 155 494 491 167 495 208 111 496 198 112 497 211 112 498 211 168 499 212 167 500 208 168 501 212 112 502 211 113 503 251 113 504 251 169 505 252 168 506 212 169 507 186 113 508 199 114 509 161 114 510 161 170 511 174 169 512 186 170 513 174 114 514 161 143 515 160 143 516 160 171 517 159 170 518 174 156 519 493 100 520 215 116 521 202 116 522 202 172 523 213 156 524 493 172 525 213 116 526 202 117 527 216 117 528 216 173 529 217 172 530 213 173 531 217 117 532 216 118 533 249 118 534 249 174 535 250 173 536 217 174 537 203 118 538 204 119 539 165 119 540 165 175 541 191 174 542 203 175 543 191 119 544 165 148 545 164 148 546 164 176 547 162 175 548 191 161 549 495 105 550 221 121 551 218 121 552 218 177 553 219 161 554 495 177 555 219 121 556 218 122 557 245 122 558 245 178 559 246 177 560 219 178 561 246 122 562 245 123 563 247 123 564 247 179 565 248 178 566 246 179 567 223 123 568 224 124 569 207 124 570 207 180 571 222 179 572 223 180 573 222 124 574 207 153 575 150 153 576 150 181 577 149 180 578 222 99 579 210 155 580 491 154 581 490 154 582 490 126 583 142 99 584 210 100 585 215 156 586 493 159 587 492 159 588 492 131 589 143 100 590 215 105 591 221 161 592 495 160 593 494 160 594 494 104 595 147 105 596 221 102 597 196 158 598 489 157 599 488 157 600 488 101 601 144 102 602 196 154 603 152 98 604 170 110 605 168 110 606 168 166 607 225 154 608 152 159 609 157 103 610 178 115 611 177 115 612 177 171 613 226 159 614 157 132 615 187 120 616 185 176 617 227 176 618 227 160 619 148 132 620 187 129 621 195 125 622 194 181 623 228 181 624 228 157 625 145 129 626 195 162 627 229 134 628 146 130 629 141 130 630 141 158 631 167 162 632 229 163 633 230 135 634 153 134 635 146 134 636 146 162 637 229 163 638 230 164 639 231 136 640 158 135 641 153 135 642 153 163 643 230 164 644 231 165 645 232 137 646 163 136 647 158 136 648 158 164 649 231 165 650 232 166 651 225 110 652 168 137 653 163 137 654 163 165 655 232 166 656 225 167 657 233 139 658 172 127 659 171 127 660 171 155 661 209 167 662 233 168 663 234 140 664 173 139 665 172 139 666 172 167 667 233 168 668 234 169 669 235 141 670 175 140 671 173 140 672 173 168 673 234 169 674 235 170 675 236 142 676 176 141 677 175 141 678 175 169 679 235 170 680 236 171 681 226 115 682 177 142 683 176 142 684 176 170 685 236 171 686 226 172 687 237 144 688 180 128 689 179 128 690 179 156 691 214 172 692 237 173 693 238 145 694 182 144 695 180 144 696 180 172 697 237 173 698 238 174 699 239 146 700 183 145 701 182 145 702 182 173 703 238 174 704 239 175 705 240 147 706 184 146 707 183 146 708 183 174 709 239 175 710 240 176 711 227 120 712 185 147 713 184 147 714 184 175 715 240 176 716 227 177 717 241 149 718 189 133 719 188 133 720 188 161 721 220 177 722 241 178 723 242 150 724 190 149 725 189 149 726 189 177 727 241 178 728 242 179 729 243 151 730 192 150 731 190 150 732 190 178 733 242 179 734 243 180 735 244 152 736 193 151 737 192 151 738 192 179 739 243 180 740 244 181 741 228 125 742 194 152 743 193 152 744 193 180 745 244 181 746 228 209 747 253 202 748 257 207 749 267 207 750 267 208 751 268 209 752 253 197 753 410 199 754 271 187 755 272 187 756 272 183 757 409 197 758 410 198 759 417 200 760 276 189 761 277 189 762 277 185 763 416 198 764 417 193 765 414 195 766 261 191 767 262 191 768 262 190 769 413 193 770 414 182 771 411 190 772 412 191 773 280 191 774 280 186 775 281 182 776 411 203 777 282 206 778 283 207 779 267 207 780 267 202 781 257 203 782 282 183 783 420 187 784 258 194 785 259 194 786 259 192 787 419 183 788 420 185 789 415 189 790 266 195 791 261 195 792 261 193 793 414 185 794 415 184 795 275 198 796 273 201 797 284 201 798 284 192 799 254 184 800 275 182 801 411 186 802 281 199 803 271 199 804 271 197 805 410 182 806 411 184 807 418 188 808 285 200 809 276 200 810 276 198 811 417 184 812 418 204 813 265 205 814 263 206 815 283 206 816 283 203 817 282 204 818 265 182 819 456 197 820 270 203 821 457 203 822 457 202 823 454 182 824 456 183 825 269 204 826 455 203 827 457 203 828 457 197 829 270 183 830 269 183 831 255 192 832 254 205 833 263 205 834 263 204 835 265 183 836 255 201 837 284 206 838 283 205 839 263 205 840 263 192 841 254 201 842 284 201 843 284 196 844 286 207 845 267 207 846 267 206 847 283 201 848 284 196 849 286 193 850 260 208 851 268 208 852 268 207 853 267 196 854 286 193 855 260 190 856 256 209 857 253 209 858 253 208 859 268 193 860 260 190 861 279 182 862 278 202 863 459 202 864 459 209 865 458 190 866 279 192 867 419 194 868 259 188 869 274 188 870 274 184 871 421 192 872 419 198 873 273 185 874 264 193 875 260 193 876 260 196 877 286 198 878 273 198 879 273 196 880 286 201 881 284 210 882 291 211 883 293 212 884 292 212 885 292 213 886 294 210 887 291 215 888 296 211 889 474 210 890 472 210 891 472 214 892 295 215 893 296 216 894 289 212 895 469 211 896 470 211 897 470 215 898 288 216 899 289 217 900 298 213 901 475 212 902 473 212 903 473 216 904 297 217 905 298 214 906 290 210 907 468 213 908 471 213 909 471 217 910 287 214 911 290 218 912 303 219 913 305 220 914 304 220 915 304 221 916 306 218 917 303 223 918 308 219 919 465 218 920 464 218 921 464 222 922 307 223 923 308 224 924 301 220 925 461 219 926 462 219 927 462 223 928 300 224 929 301 225 930 310 221 931 467 220 932 466 220 933 466 224 934 309 225 935 310 222 936 302 218 937 460 221 938 463 221 939 463 225 940 299 222 941 302 234 942 328 255 943 312 236 944 331 236 945 331 235 946 329 234 947 328 255 948 312 256 949 314 237 950 333 237 951 333 236 952 331 255 953 312 256 954 314 257 955 366 238 956 367 238 957 367 237 958 333 256 959 314 257 960 316 258 961 318 239 962 337 239 963 337 238 964 335 257 965 316 258 966 318 259 967 320 240 968 339 240 969 339 239 970 337 258 971 318 259 972 320 260 973 322 241 974 341 241 975 341 240 976 339 259 977 320 260 978 322 261 979 324 242 980 343 242 981 343 241 982 341 260 983 322 261 984 324 262 985 326 243 986 345 243 987 345 242 988 343 261 989 324 262 990 326 234 991 328 235 992 329 235 993 329 243 994 345 262 995 326 226 996 311 263 997 313 244 998 315 227 999 317 226 1000 311 244 1001 315 228 1002 319 227 1003 317 244 1004 315 229 1005 321 228 1006 319 244 1007 315 230 1008 323 229 1009 321 244 1010 315 231 1011 325 230 1012 323 244 1013 315 232 1014 327 231 1015 325 244 1016 315 233 1017 330 232 1018 327 244 1019 315 263 1020 313 233 1021 330 244 1022 315 246 1023 332 247 1024 334 245 1025 336 247 1026 334 248 1027 338 245 1028 336 248 1029 338 249 1030 340 245 1031 336 249 1032 340 250 1033 342 245 1034 336 250 1035 342 251 1036 344 245 1037 336 251 1038 344 252 1039 346 245 1040 336 252 1041 346 253 1042 347 245 1043 336 253 1044 347 254 1045 348 245 1046 336 254 1047 348 246 1048 332 245 1049 336 236 1050 349 247 1051 513 246 1052 512 246 1053 512 235 1054 350 236 1055 349 237 1056 506 248 1057 498 247 1058 497 247 1059 497 236 1060 504 237 1061 506 238 1062 352 249 1063 522 248 1064 521 248 1065 521 237 1066 351 238 1067 352 239 1068 353 250 1069 515 249 1070 514 249 1071 514 238 1072 520 239 1073 353 240 1074 508 251 1075 500 250 1076 499 250 1077 499 239 1078 507 240 1079 508 241 1080 355 252 1081 517 251 1082 516 251 1083 516 240 1084 354 241 1085 355 242 1086 510 253 1087 502 252 1088 501 252 1089 501 241 1090 509 242 1091 510 243 1092 357 254 1093 519 253 1094 518 253 1095 518 242 1096 356 243 1097 357 235 1098 505 246 1099 496 254 1100 503 254 1101 503 243 1102 511 235 1103 505 263 1104 540 226 1105 539 255 1106 359 255 1107 359 234 1108 358 263 1109 540 226 1110 523 227 1111 525 256 1112 533 256 1113 533 255 1114 532 226 1115 523 227 1116 548 228 1117 549 257 1118 361 257 1119 361 256 1120 360 227 1121 548 228 1122 541 229 1123 542 258 1124 362 258 1125 362 257 1126 547 228 1127 541 229 1128 526 230 1129 527 259 1130 535 259 1131 535 258 1132 534 229 1133 526 230 1134 543 231 1135 544 260 1136 364 260 1137 364 259 1138 363 230 1139 543 231 1140 528 232 1141 529 261 1142 537 261 1143 537 260 1144 536 231 1145 528 232 1146 545 233 1147 546 262 1148 368 262 1149 368 261 1150 365 232 1151 545 262 1152 538 233 1153 530 263 1154 524 263 1155 524 234 1156 531 262 1157 538 134 1158 146 135 1159 153 142 1160 176 142 1161 176 115 1162 177 103 1163 178 134 1164 146 142 1165 176 103 1166 178 130 1167 141 134 1168 146 103 1169 178 144 1170 180 145 1171 182 152 1172 193 152 1173 193 125 1174 194 129 1175 195 144 1176 180 152 1177 193 129 1178 195 128 1179 179 144 1180 180 129 1181 195 136 1182 158 137 1183 163 110 1184 168 110 1185 168 98 1186 170 127 1187 171 127 1188 171 139 1189 172 140 1190 173 140 1191 173 141 1192 175 142 1193 176 127 1194 171 140 1195 173 142 1196 176 110 1197 168 127 1198 171 142 1199 176 136 1200 158 110 1201 168 142 1202 176 135 1203 153 136 1204 158 142 1205 176 146 1206 183 147 1207 184 120 1208 185 120 1209 185 132 1210 187 133 1211 188 133 1212 188 149 1213 189 150 1214 190 150 1215 190 151 1216 192 152 1217 193 133 1218 188 150 1219 190 152 1220 193 120 1221 185 133 1222 188 152 1223 193 146 1224 183 120 1225 185 152 1226 193 145 1227 182 146 1228 183 152 1229 193</p>
        </triangles>
      </mesh>
      <extra>
        <technique profile="OpenCOLLADAMaya">
          <originalMayaNodeId>loadingstation</originalMayaNodeId>
          <double_sided>1</double_sided>
        </technique>
      </extra>
    </geometry>
  </library_geometries>
  <library_visual_scenes>
    <visual_scene id="VisualSceneNode" name="loadingstation">
      <node id="node-loadingstation" name="loadingstation" type="NODE">
        <matrix sid="transform">1 0 0 0 0 1 0 0 0 0 1 0 0 0 0 1</matrix>
        <instance_geometry url="#geom-loadingstation">
          <bind_material>
            <technique_common>
              <instance_material symbol="_3___DefaultSG" target="#lambert2">
                <bind_vertex_input semantic="TEX0" input_semantic="TEXCOORD" input_set="0"/>
              </instance_material>
            </technique_common>
          </bind_material>
        </instance_geometry>
        <extra>
          <technique profile="OpenCOLLADAMaya">
            <originalMayaNodeId>loadingstation</originalMayaNodeId>
          </technique>
        </extra>
      </node>
    </visual_scene>
  </library_visual_scenes>
  <scene>
    <instance_visual_scene url="#VisualSceneNode"/>
  </scene>
</COLLADA>