<?xml version="1.0" encoding="utf-8"?>
<COLLADA xmlns="http://www.collada.org/2005/11/COLLADASchema" version="1.4.1">
  <asset>
    <contributor>
      <author>marcus</author>
      <authoring_tool>OpenCOLLADA2008 x64</authoring_tool>
      <comments>
			ColladaMaya export options: 
			bakeTransforms=0;relativePaths=0;copyTextures=0;exportTriangles=1;exportCgfxFileReferences=1;
			isSampling=0;curveConstrainSampling=0;removeStaticCurves=1;exportPolygonMeshes=1;exportLights=1;
			exportCameras=1;exportJointsAndSkin=0;exportAnimations=0;exportInvisibleNodes=0;exportDefaultCameras=0;
			exportTexCoords=1;exportNormals=1;exportNormalsPerVertex=1;exportVertexColors=1;exportVertexColorsPerVertex=1;
			exportTexTangents=0;exportTangents=0;exportReferencedMaterials=0;exportMaterialsOnly=0;
			exportXRefs=1;dereferenceXRefs=1;exportCameraAsLookat=0;cameraXFov=0;cameraYFov=1;doublePrecision=0
		</comments>
      <source_data>file:///D:/work/DropBox/Team/Depth_marcus/models/Levels/01_05/transporter_personnel/train_passenger_UVdone.ma</source_data>
    </contributor>
    <created>2012-11-26T15:29:14</created>
    <modified>2012-11-26T15:29:14</modified>
    <unit name="meter" meter="1"/>
    <up_axis>Y_UP</up_axis>
  </asset>
  <library_materials>
    <material id="MAT" name="MAT">
      <instance_effect url="#MAT-fx"/>
    </material>
    <material id="windows_MAT" name="windows_MAT">
      <instance_effect url="#windows_MAT-fx"/>
    </material>
  </library_materials>
  <library_effects>
    <effect id="MAT-fx">
      <profile_COMMON>
        <newparam sid="file10-surface">
          <surface type="2D">
            <init_from>file10</init_from>
          </surface>
        </newparam>
        <newparam sid="file10-sampler">
          <sampler2D>
            <source>file10-surface</source>
          </sampler2D>
        </newparam>
        <technique sid="common">
          <blinn>
            <emission>
              <color>0 0 0 1</color>
            </emission>
            <ambient>
              <color>0 0 0 1</color>
            </ambient>
            <diffuse>
              <texture texture="file10-sampler" texcoord="TEX0">
                <extra>
                  <technique profile="OpenCOLLADAMaya">
                    <blend_mode>NONE</blend_mode>
                    <coverageU>1</coverageU>
                    <coverageV>1</coverageV>
                    <fast>0</fast>
                    <mirrorU>0</mirrorU>
                    <mirrorV>0</mirrorV>
                    <noiseU>0</noiseU>
                    <noiseV>0</noiseV>
                    <offsetU>0</offsetU>
                    <offsetV>0</offsetV>
                    <repeatU>1</repeatU>
                    <repeatV>1</repeatV>
                    <rotateFrame>0</rotateFrame>
                    <rotateUV>0</rotateUV>
                    <stagger>0</stagger>
                    <translateFrameU>0</translateFrameU>
                    <translateFrameV>0</translateFrameV>
                    <wrapU>1</wrapU>
                    <wrapV>1</wrapV>
                  </technique>
                </extra>
              </texture>
            </diffuse>
            <specular>
              <color>0.5 0.5 0.5 1</color>
            </specular>
            <shininess>
              <float>0.3</float>
            </shininess>
            <reflective>
              <color>0 0 0 1</color>
            </reflective>
            <reflectivity>
              <float>0.5</float>
            </reflectivity>
            <transparent opaque="RGB_ZERO">
              <color>0 0 0 1</color>
            </transparent>
            <transparency>
              <float>1</float>
            </transparency>
          </blinn>
        </technique>
      </profile_COMMON>
    </effect>
    <effect id="windows_MAT-fx">
      <profile_COMMON>
        <newparam sid="file9-surface">
          <surface type="2D">
            <init_from>file9</init_from>
          </surface>
        </newparam>
        <newparam sid="file9-sampler">
          <sampler2D>
            <source>file9-surface</source>
          </sampler2D>
        </newparam>
        <technique sid="common">
          <blinn>
            <emission>
              <color>0 0 0 1</color>
            </emission>
            <ambient>
              <color>0 0 0 1</color>
            </ambient>
            <diffuse>
              <texture texture="file9-sampler" texcoord="TEX0">
                <extra>
                  <technique profile="OpenCOLLADAMaya">
                    <blend_mode>NONE</blend_mode>
                    <coverageU>1</coverageU>
                    <coverageV>1</coverageV>
                    <fast>0</fast>
                    <mirrorU>0</mirrorU>
                    <mirrorV>0</mirrorV>
                    <noiseU>0</noiseU>
                    <noiseV>0</noiseV>
                    <offsetU>0</offsetU>
                    <offsetV>0</offsetV>
                    <repeatU>1</repeatU>
                    <repeatV>1</repeatV>
                    <rotateFrame>0</rotateFrame>
                    <rotateUV>0</rotateUV>
                    <stagger>0</stagger>
                    <translateFrameU>0</translateFrameU>
                    <translateFrameV>0</translateFrameV>
                    <wrapU>1</wrapU>
                    <wrapV>1</wrapV>
                  </technique>
                </extra>
              </texture>
            </diffuse>
            <specular>
              <color>0.5 0.5 0.5 1</color>
            </specular>
            <shininess>
              <float>0.3</float>
            </shininess>
            <reflective>
              <color>0 0 0 1</color>
            </reflective>
            <reflectivity>
              <float>0.5</float>
            </reflectivity>
            <transparent opaque="A_ONE">
              <texture texture="file9-sampler" texcoord="TEX1">
                <extra>
                  <technique profile="OpenCOLLADAMaya">
                    <blend_mode>NONE</blend_mode>
                    <coverageU>1</coverageU>
                    <coverageV>1</coverageV>
                    <fast>0</fast>
                    <mirrorU>0</mirrorU>
                    <mirrorV>0</mirrorV>
                    <noiseU>0</noiseU>
                    <noiseV>0</noiseV>
                    <offsetU>0</offsetU>
                    <offsetV>0</offsetV>
                    <repeatU>1</repeatU>
                    <repeatV>1</repeatV>
                    <rotateFrame>0</rotateFrame>
                    <rotateUV>0</rotateUV>
                    <stagger>0</stagger>
                    <translateFrameU>0</translateFrameU>
                    <translateFrameV>0</translateFrameV>
                    <wrapU>1</wrapU>
                    <wrapV>1</wrapV>
                  </technique>
                </extra>
              </texture>
            </transparent>
            <transparency>
              <float>1</float>
            </transparency>
          </blinn>
        </technique>
      </profile_COMMON>
    </effect>
  </library_effects>
  <library_images>
    <image id="file10" name="file10">
      <init_from>file:///D:/work/depth/redist/entities/station/special/01_05_transporter_passenger/01_05_transporter_passenger.dds</init_from>
      <extra>
        <technique profile="OpenCOLLADAMaya">
          <dgnode_type>kFile</dgnode_type>
          <image_sequence>0</image_sequence>
          <originalMayaNodeId>file10</originalMayaNodeId>
        </technique>
      </extra>
    </image>
    <image id="file9" name="file9">
      <init_from>file:///D:/work/depth/redist/entities/station/special/01_05_transporter_passenger/01_05_transporter_passenger_windows.dds</init_from>
      <extra>
        <technique profile="OpenCOLLADAMaya">
          <dgnode_type>kFile</dgnode_type>
          <image_sequence>0</image_sequence>
          <originalMayaNodeId>file9</originalMayaNodeId>
        </technique>
      </extra>
    </image>
  </library_images>
  <library_geometries>
    <geometry id="polySurfaceShape1131" name="polySurfaceShape1131">
      <mesh>
        <source id="polySurfaceShape1131-positions" name="polySurfaceShape1131-positions">
          <float_array id="polySurfaceShape1131-positions-array" count="168">1.325181 2.243846 -4.878192 1.932967 2.83222 -3.160085 1.782859 3.194612 -3.159753 1.224309 2.750969 -4.878192 1.27075 2.770206 -4.759027 1.847422 3.009072 -3.279393 1.728396 2.95965 -3.225079 1.953357 2.476512 -3.279393 1.923013 2.321898 -3.424713 1.825679 2.450874 -3.225109 1.794187 2.296037 -3.370438 1.423108 2.321898 -4.613707 1.330564 2.476372 -4.759027 1.29428 2.296037 -4.559432 1.426311 3.531002 -3.42483 1.559038 3.44067 -3.279393 1.317083 3.458019 -3.37048 1.450803 3.368356 -3.22505 1.099724 3.026166 -4.759027 1.05729 3.197984 -4.613588 1.001941 2.959164 -4.728185 0.948064 3.125002 -4.559237 1.228257 2.290535 -4.728185 1.203491 2.450857 -4.728185 1.825679 2.450874 -3.160065 1.163955 2.710057 -4.784962 0.8896167 3.127665 -4.784948 1.228257 2.290535 -4.784962 1.133779 2.689602 -4.7967 0.8659033 3.101054 -4.796698 1.218394 2.216679 -4.7967 1.713181 3.139741 -3.160001 1.850901 2.791191 -3.160095 1.782844 3.194606 -3.077343 1.713167 3.139734 -3.077349 1.850886 2.791184 -3.077365 1.932952 2.832214 -3.077343 1.767786 3.181117 -3.055067 1.727122 3.153573 -3.057284 1.864844 2.805022 -3.057294 1.917893 2.818724 -3.055067 1.44957 3.693413 -3.160001 2.050002 2.243846 -3.160083 1.728396 2.95965 -3.160001 1.450803 3.368356 -3.160001 1.877273 2.243846 -3.160087 1.182798 2.207623 -4.751654 1.133779 2.689601 -4.878192 1.261853 3.511994 -3.370487 1.283774 3.53412 -3.160001 0.8896167 3.127665 -4.72817 1.163955 2.710057 -4.728185 1.218394 2.216679 -4.878192 0.9370459 3.180888 -4.878192 0.8659033 3.101053 -4.878192 0.911814 3.160328 -4.55923</float_array>
          <technique_common>
            <accessor source="#polySurfaceShape1131-positions-array" count="56" stride="3">
              <param name="X" type="float"/>
              <param name="Y" type="float"/>
              <param name="Z" type="float"/>
            </accessor>
          </technique_common>
        </source>
        <source id="polySurfaceShape1131-normals" name="polySurfaceShape1131-normals">
          <float_array id="polySurfaceShape1131-normals-array" count="660">0.768517 0.5134038 -0.3818353 0.8865563 0.4334621 -0.1616427 0.8834642 0.3659639 -0.2925089 0.768517 0.5134038 -0.3818353 0 0 -1 0 0 -1 0 0 -1 0 0 -1 0 0 -1 0 0 -1 0 0 -1 0 0 -1 0.8497548 0.3530508 -0.3914996 0.9036525 0.1812887 -0.3880035 0.9036525 0.1812887 -0.3880035 0.8497548 0.3530508 -0.3914996 0.7683061 0.5133631 -0.3823142 0.7683061 0.5133631 -0.3823142 0.7683061 0.5133631 -0.3823142 0.7683061 0.5133631 -0.3823142 0.9333422 0.3204108 -0.1618931 0.9061845 0.1802537 -0.382542 0.9061845 0.1802537 -0.382542 -0.3826509 -0.07464935 -0.9208723 -0.3826509 -0.07464935 -0.9208723 -0.3826509 -0.07464935 -0.9208723 -0.3826509 -0.07464935 -0.9208723 -0.1676946 0.9833145 0.07050592 -0.1676946 0.9833145 0.07050592 -0.1676946 0.9833145 0.07050592 -0.1676946 0.9833145 0.07050592 0.2400042 0.04311594 0.9698139 0.2400042 0.04311594 0.9698139 0.2400042 0.04311594 0.9698139 0.2400042 0.04311594 0.9698139 -0.3235333 -0.2178799 -0.9207903 -0.3235333 -0.2178799 -0.9207903 -0.3235333 -0.2178799 -0.9207903 -0.3235333 -0.2178799 -0.9207903 0.20718 0.1366135 0.9687173 0.20718 0.1366135 0.9687173 0.20718 0.1366135 0.9687173 0.20718 0.1366135 0.9687173 0.5724314 -0.8183306 0.05154933 0.5724314 -0.8183306 0.05154933 0.5724314 -0.8183306 0.05154933 0.5724314 -0.8183306 0.05154933 0.9083421 0.1687511 -0.3826721 0.9083421 0.1687511 -0.3826721 0.9083421 0.1687511 -0.3826721 0.9083421 0.1687511 -0.3826721 0.7683085 0.5133672 -0.3823036 0.7683085 0.5133672 -0.3823036 -0.3996198 0.6687365 -0.6269734 -0.3996198 0.6687365 -0.6269734 -0.3996198 0.6687365 -0.6269734 -0.3996198 0.6687365 -0.6269734 0.07779099 0.7326739 0.6761194 0.07779099 0.7326739 0.6761194 0.07779099 0.7326739 0.6761194 0.07779099 0.7326739 0.6761194 0.1848329 -0.7509205 -0.6339994 0.1848329 -0.7509205 -0.6339994 0.1848329 -0.7509205 -0.6339994 0.1848329 -0.7509205 -0.6339994 0.5848591 -0.4570847 0.6700846 0.5848591 -0.4570847 0.6700846 0.5848591 -0.4570847 0.6700846 0.5848591 -0.4570847 0.6700846 0.9064482 0.1808133 -0.381652 0.9064482 0.1808133 -0.381652 0.9064482 0.1808133 -0.381652 0.9046656 0.1775696 -0.3873619 0.9046656 0.1775696 -0.3873619 0.9046656 0.1775696 -0.3873619 0.7683068 0.5133658 -0.3823093 0.7683068 0.5133658 -0.3823093 0.7683068 0.5133658 -0.3823093 0.7683071 0.5133649 -0.38231 0.7683071 0.5133649 -0.38231 0.7683071 0.5133649 -0.38231 -0.6446443 -0.6603755 0.3851467 -0.6446443 -0.6603755 0.3851467 -0.6446443 -0.6603755 0.3851467 -0.6446443 -0.6603755 0.3851467 -0.7575657 -0.6499837 0.06012823 -0.9238493 -0.3827563 0 -0.9238493 -0.3827563 0 -0.7575657 -0.6499837 0.06012823 -0.9761707 -0.1736835 0.1300956 -0.9761707 -0.1736835 0.1300956 -0.9533835 -0.1565797 0.2579587 -0.9533835 -0.1565797 0.2579587 -0.9202245 -0.142152 0.3646639 -0.9202245 -0.142152 0.3646639 -0.9202245 -0.142152 0.3646639 -0.8939615 0.2405843 0.3780901 -0.8939615 0.2405843 0.3780901 -0.8939615 0.2405843 0.3780901 -0.8939615 0.2405843 0.3780901 -0.8939615 0.2405843 0.3780901 -0.6755965 -0.7275587 0.1192802 -0.6755965 -0.7275587 0.1192802 -0.6914157 -0.7074728 0.1463781 -0.6914157 -0.7074728 0.1463781 -0.6914157 -0.7074728 0.1463781 -0.8014247 -0.5342612 0.2688558 -0.8014247 -0.5342612 0.2688558 -0.8014247 -0.5342612 0.2688558 -0.6801122 -0.6979519 0.2243001 -0.6801122 -0.6979519 0.2243001 -0.6801122 -0.6979519 0.2243001 -0.9338689 -0.3575538 0.006644355 -0.8366293 -0.5475626 0.01505591 -0.8366293 -0.5475626 0.01505591 -0.9338689 -0.3575538 0.006644355 -0.8768523 0.4807601 0 -0.8768523 0.4807601 0 -0.8768523 0.4807601 0 -0.8320729 -0.5546665 0 -0.8320729 -0.5546665 0 -0.8320729 -0.5546665 0 -0.9884965 -0.1512301 -0.002070379 -0.9884965 -0.1512301 -0.002070379 -0.9882784 -0.1526628 0 -0.9882784 -0.1526628 0 -0.9882784 -0.1526628 0 -0.8380411 -0.545607 0 -0.9297441 -0.3682062 0 -0.9297441 -0.3682062 0 -0.8380411 -0.545607 0 -0.9843685 -0.1761212 0 -0.9843685 -0.1761212 0 -0.2633109 -0.1722282 0.9492127 -0.2633109 -0.1722282 0.9492127 -0.2633109 -0.1722282 0.9492127 -0.2633109 -0.1722282 0.9492127 -0.387124 -0.06459846 0.919762 -0.387124 -0.06459846 0.919762 -0.387124 -0.06459846 0.919762 -0.387124 -0.06459846 0.919762 -0.7880497 0.1978866 -0.5829397 -0.7880497 0.1978866 -0.5829397 -0.7880497 0.1978866 -0.5829397 -0.7465827 0.6652926 0 -0.7465827 0.6652926 0 -0.7465827 0.6652926 0 -0.7465827 0.6652926 0 -0.746578 0.665298 0 -0.746578 0.665298 0 -0.746578 0.665298 0 -0.7744276 0.6323304 -0.02050102 -0.7744276 0.6323304 -0.02050102 -0.7744276 0.6323304 -0.02050102 0.2465495 -0.9691302 0 0.2465495 -0.9691302 0 0.2465495 -0.9691302 0 0.1792132 -0.982224 -0.05584616 0.1792132 -0.982224 -0.05584616 0.1792132 -0.982224 -0.05584616 0.08848325 -0.9956717 -0.0284333 0.08848325 -0.9956717 -0.0284333 0.08848325 -0.9956717 -0.0284333 0.08848325 -0.9956717 -0.0284333 0 -1.11418e-4 1 0 -1.11418e-4 1 0 -1.11418e-4 1 -0.6908029 0.7229747 -0.009950723 -0.6908029 0.7229747 -0.009950723 -0.6908029 0.7229747 -0.009950723 -0.6908029 0.7229747 -0.009950723 -0.6928198 0.7211016 -0.003646346 -0.6928198 0.7211016 -0.003646346 -0.6928198 0.7211016 -0.003646346 0.3678884 0.1525843 0.9172657 -0.3965816 -0.1569326 0.9044861 -0.3965816 -0.1569326 0.9044861 0.3678884 0.1525843 0.9172657 0 0 1 0 0 1 0 0 1 0 0 1 0 0 1 0 0 1 0 0 1 -9.94608e-4 -4.73191e-4 0.9999994 -9.94608e-4 -4.73191e-4 0.9999994 -9.94608e-4 -4.73191e-4 0.9999994 -9.94608e-4 -4.73191e-4 0.9999994 8.66429e-4 0 0.9999996 8.66429e-4 0 0.9999996 8.66429e-4 0 0.9999996 -0.6186893 0.7856358 0 -0.6186893 0.7856358 0 -0.6186893 0.7856358 0 -0.6186893 0.7856358 0 -0.9300331 -0.3674757 -1.9446e-4 -0.9300331 -0.3674757 -1.9446e-4 -0.8683058 -0.3431 0.3582281 -0.8683058 -0.3431 0.3582281 0.4471863 -0.8944408 0 0.4471863 -0.8944408 0 0.4471863 -0.8944408 0 0.4471863 -0.8944408 0 0.8665401 0.3589319 0.3468085 0.8665401 0.3589319 0.3468085 -0.5979803 0.8012031 -0.0222081 -0.5979803 0.8012031 -0.0222081 -0.5979803 0.8012031 -0.0222081 -0.5979803 0.8012031 -0.0222081 0.3751366 -0.9268067 0.01737724 0.3751366 -0.9268067 0.01737724 0.3751366 -0.9268067 0.01737724 0.3751366 -0.9268067 0.01737724 8.07788e-4 0 0.9999998 8.07788e-4 0 0.9999998 8.07788e-4 0 0.9999998 0 0 1 0 0 1 0 0 1</float_array>
          <technique_common>
            <accessor source="#polySurfaceShape1131-normals-array" count="220" stride="3">
              <param name="X" type="float"/>
              <param name="Y" type="float"/>
              <param name="Z" type="float"/>
            </accessor>
          </technique_common>
        </source>
        <source id="polySurfaceShape1131-map1" name="polySurfaceShape1131-map1">
          <float_array id="polySurfaceShape1131-map1-array" count="194">0.906971 0.4369077 0.862571 0.4471898 0.8477455 0.4401082 0.8869952 0.4322096 0.8071019 0.2968994 0.8079919 0.2879791 0.8457652 0.2856218 0.8474058 0.2929503 0.8842789 0.2881718 0.8877679 0.2967267 0.8474383 0.3013421 0.8238932 0.3041216 0.8982149 0.4164685 0.8861499 0.3179657 0.8329769 0.4471071 0.7884918 0.4373357 0.8066547 0.4321664 0.8107618 0.4258339 0.8476908 0.4305108 0.8026484 0.4147803 0.795542 0.4165585 0.8090708 0.3181283 0.8160872 0.32173 0.8276972 0.310439 0.8463536 0.3099192 0.8828453 0.4258425 0.8714837 0.3041778 0.8678901 0.3101792 0.8791295 0.3215288 0.8911166 0.4146598 0.6727992 0.3682644 0.6869097 0.462953 0.6906492 0.4624992 0.6784887 0.3674459 0.6884061 0.3549348 0.7245357 0.3521715 0.7245264 0.3473448 0.6877892 0.3501319 0.7624564 0.355197 0.762933 0.3504407 0.7721876 0.3676666 0.7785666 0.3515689 0.7445852 0.4750175 0.7566924 0.4761456 0.7580448 0.4626186 0.7631986 0.4795173 0.6704641 0.3526507 0.6884363 0.4755983 0.7034607 0.4747209 0.7253339 0.4731617 0.6883919 0.4797771 0.7251465 0.4774029 0.7561696 0.4804984 0.6893114 0.4883619 0.7255588 0.4862831 0.7256321 0.4802034 0.6890221 0.4823467 0.7609833 0.488925 0.7613343 0.4829136 0.897909 0.2963616 0.8962772 0.2989152 0.8941318 0.2916169 0.8985106 0.3030303 0.9024067 0.3164396 0.7966713 0.2991238 0.7993128 0.2934237 0.7924661 0.3006375 0.7773642 0.4291015 0.8064641 0.4545508 0.7901261 0.451098 0.9156059 0.412576 0.9218016 0.4276413 0.5952102 0.5129367 0.5959005 0.5097372 0.6208277 0.5095812 0.6212998 0.5131968 0.887374 0.4546775 0.9057168 0.4549221 0.8320957 0.4532782 0.8477382 0.4600088 0.8611666 0.4535486 0.5904719 0.5024887 0.5963705 0.5024384 0.5964038 0.5079364 0.5905047 0.5079701 0.6212981 0.5022798 0.6213321 0.5077825 0.6274012 0.5022467 0.6274256 0.5077503 0.6207804 0.5206447 0.5946916 0.5203665 0.5947454 0.5148845 0.6208347 0.5151421 0.5951146 0.5092811 0.5918519 0.5094417 0.6261657 0.5092328 0.6225519 0.5091176</float_array>
          <technique_common>
            <accessor source="#polySurfaceShape1131-map1-array" count="97" stride="2">
              <param name="S" type="float"/>
              <param name="T" type="float"/>
            </accessor>
          </technique_common>
        </source>
        <vertices id="polySurfaceShape1131-vertices" name="polySurfaceShape1131-vertices">
          <input semantic="POSITION" source="#polySurfaceShape1131-positions"/>
        </vertices>
        <triangles material="blinn5SG" count="112">
          <input semantic="VERTEX" source="#polySurfaceShape1131-vertices" offset="0"/>
          <input semantic="NORMAL" source="#polySurfaceShape1131-normals" offset="1"/>
          <input semantic="TEXCOORD" source="#polySurfaceShape1131-map1" offset="2" set="0"/>
          <p>41 0 0 2 1 1 15 3 3 15 3 3 2 1 1 5 2 2 52 5 5 47 6 6 0 4 4 0 4 4 47 6 6 3 7 7 47 9 6 54 10 8 3 8 7 3 8 7 54 10 8 53 11 9 4 12 10 12 13 11 3 15 7 3 15 7 12 13 11 0 14 4 41 16 0 14 17 12 53 19 9 53 19 9 14 17 12 19 18 13 5 2 2 1 20 14 7 22 16 7 22 16 1 20 14 42 21 15 5 23 2 7 24 16 6 26 18 6 26 18 7 24 16 9 25 17 10 27 19 8 28 20 13 30 22 13 30 22 8 28 20 11 29 21 23 31 23 12 32 11 51 34 24 51 34 24 12 32 11 4 33 10 17 35 25 15 36 3 6 38 18 6 38 18 15 36 3 5 37 2 4 39 10 18 40 26 51 42 24 51 42 24 18 40 26 20 41 27 21 43 28 19 44 13 16 46 29 16 46 29 19 44 13 14 45 12 42 48 15 0 49 4 8 47 20 8 47 20 0 49 4 11 50 21 53 51 9 18 52 26 3 15 7 3 15 7 18 52 26 4 12 10 7 53 16 8 54 20 9 56 17 9 56 17 8 54 20 10 55 19 11 57 21 12 58 11 13 60 22 13 60 22 12 58 11 23 59 23 15 62 3 17 63 25 14 61 12 14 61 12 17 63 25 16 64 29 19 66 13 21 67 28 18 65 26 18 65 26 21 67 28 20 68 27 7 69 16 42 70 15 8 71 20 11 72 21 0 73 4 12 74 11 14 75 12 41 76 0 15 77 3 18 78 26 53 79 9 19 80 13 55 82 31 21 83 32 48 81 30 48 81 30 21 83 32 16 84 33 17 85 34 6 86 35 44 88 37 44 88 37 6 86 35 43 87 36 6 86 35 9 89 38 43 87 36 43 87 36 9 89 38 24 90 39 10 91 40 45 92 41 9 89 38 9 89 38 45 92 41 24 90 39 23 93 42 22 94 43 13 95 44 45 96 41 10 97 40 46 100 45 22 99 43 46 100 45 13 98 44 10 97 40 13 98 44 46 100 45 16 101 33 17 85 34 49 102 46 49 102 46 17 85 34 44 88 37 48 103 30 16 104 33 49 105 46 21 106 32 50 107 47 20 108 48 55 109 31 50 110 47 21 111 32 51 112 49 20 113 48 25 115 51 25 115 51 20 113 48 26 114 50 46 116 45 22 117 43 27 118 52 20 119 48 50 120 47 26 121 50 51 112 49 25 115 51 23 122 42 23 122 42 25 115 51 27 123 52 22 124 43 23 125 42 27 126 52 54 127 53 47 128 54 29 130 56 29 130 56 47 128 54 28 129 55 47 128 54 52 131 57 28 129 55 28 129 55 52 131 57 30 132 58 28 134 55 25 135 51 29 133 56 29 133 56 25 135 51 26 136 50 30 138 58 27 139 52 28 137 55 28 137 55 27 139 52 25 140 51 27 141 52 30 142 58 46 143 45 29 144 59 26 145 60 54 147 61 54 147 61 26 145 60 53 146 9 26 148 60 50 149 62 53 150 9 50 151 62 55 152 63 53 153 9 30 154 64 52 155 65 0 156 4 46 157 66 30 158 64 45 159 67 30 161 64 0 162 4 45 160 67 45 160 67 0 162 4 42 163 15 24 164 68 45 165 69 42 166 15 55 167 63 48 168 70 53 170 9 53 170 9 48 168 70 41 169 0 48 171 70 49 172 71 41 173 0 37 174 72 38 175 73 40 177 75 40 177 75 38 175 73 39 176 74 44 178 76 41 179 0 49 180 77 42 181 15 1 182 14 24 184 68 24 184 68 1 182 14 32 183 78 31 185 80 2 186 1 44 188 76 44 188 76 2 186 1 41 187 0 32 189 78 31 190 80 43 191 79 5 2 2 2 1 1 1 20 14 31 193 82 34 194 83 2 192 81 2 192 81 34 194 83 33 195 84 31 196 82 32 197 85 34 199 83 34 199 83 32 197 85 35 198 86 32 200 85 1 201 87 35 203 86 35 203 86 1 201 87 36 202 88 1 20 89 2 1 90 36 205 92 36 205 92 2 1 90 33 204 91 33 206 84 34 207 83 37 209 94 37 209 94 34 207 83 38 208 93 35 198 86 39 176 74 34 199 83 34 199 83 39 176 74 38 175 73 36 211 88 40 212 95 35 210 86 35 210 86 40 212 95 39 213 96 33 204 91 37 174 72 36 205 92 36 205 92 37 174 72 40 177 75 24 214 68 32 215 78 43 216 79 44 217 76 43 218 79 31 219 80</p>
        </triangles>
      </mesh>
      <extra>
        <technique profile="OpenCOLLADAMaya">
          <originalMayaNodeId>polySurfaceShape1131</originalMayaNodeId>
          <double_sided>1</double_sided>
        </technique>
      </extra>
    </geometry>
    <geometry id="window01_glassShape" name="window01_glassShape">
      <mesh>
        <source id="window01_glassShape-positions" name="window01_glassShape-positions">
          <float_array id="window01_glassShape-positions-array" count="126">1.89034 2.459883 -3.243902 1.788543 2.985079 -3.243888 1.50503 3.408885 -3.243873 1.371559 3.499665 -3.390935 1.001855 3.163751 -4.593001 1.050099 2.993456 -4.751955 1.216928 2.738727 -4.751955 1.266696 2.459805 -4.751955 1.358532 2.303813 -4.593161 1.859365 2.303813 -3.390854 1.7968 2.543105 -3.472575 1.49527 3.285017 -3.474923 1.176222 2.975424 -4.512463 1.344766 2.560594 -4.510253 1.2668 2.758919 -4.533506 1.709715 2.952204 -3.451414 1.608949 2.303813 -3.992007 1.586243 2.555188 -3.998254 1.521581 2.869234 -4.00827 1.349021 3.138876 -4.000527 1.186707 3.331708 -3.991968 1.878764 2.453893 -3.243962 1.777155 2.979817 -3.243947 1.494167 3.404211 -3.243932 1.360943 3.495116 -3.390322 0.9919229 3.158737 -4.586895 1.040078 2.988206 -4.745123 1.206598 2.733123 -4.745123 1.256273 2.453814 -4.745123 1.34794 2.297606 -4.587054 1.847845 2.297606 -3.390242 1.785397 2.53723 -3.47159 1.484425 3.280171 -3.473927 1.165967 2.970148 -4.506725 1.3342 2.554744 -4.504525 1.256377 2.753343 -4.527672 1.698473 2.946897 -3.450526 1.597893 2.297606 -3.988648 1.57523 2.54933 -3.994867 1.510688 2.863811 -4.004836 1.338446 3.133827 -3.997129 1.176433 3.326927 -3.988609</float_array>
          <technique_common>
            <accessor source="#window01_glassShape-positions-array" count="42" stride="3">
              <param name="X" type="float"/>
              <param name="Y" type="float"/>
              <param name="Z" type="float"/>
            </accessor>
          </technique_common>
        </source>
        <source id="window01_glassShape-normals" name="window01_glassShape-normals">
          <float_array id="window01_glassShape-normals-array" count="126">0.9271169 0.1618235 -0.3380345 0.8676091 0.3567128 -0.3464252 0.7722404 0.5376679 -0.3384641 0.7355257 0.5770701 -0.3549536 0.7401163 0.5556639 -0.3787683 0.7923455 0.5072982 -0.3388764 0.8798624 0.3508349 -0.3205576 0.918637 0.1991207 -0.3412581 0.9120308 0.1463776 -0.3831101 0.9280213 0.1113222 -0.3555048 0.9237285 0.153618 -0.3508949 0.7640994 0.5413429 -0.3508562 0.773319 0.5074328 -0.3801179 0.9058385 0.1848389 -0.3811706 0.8579525 0.3429824 -0.3824663 0.866558 0.3550334 -0.3507543 0.9149973 0.1091933 -0.3884028 0.9062106 0.15787 -0.3922491 0.8498189 0.3438563 -0.3994627 0.7546783 0.5260267 -0.3921182 0.7200183 0.5757591 -0.3873955 -0.9269056 -0.1612636 0.3388805 -0.8676568 -0.3556462 0.347401 -0.7727171 -0.5362654 0.3395996 -0.7360631 -0.5756251 0.3561838 -0.7405642 -0.5542027 0.3800317 -0.7927516 -0.5059239 0.3399794 -0.8799525 -0.3497718 0.3214705 -0.9184621 -0.1984422 0.3421229 -0.911728 -0.1458573 0.3840282 -0.9277384 -0.1109284 0.3563655 -0.9234877 -0.1530837 0.3517608 -0.7645617 -0.5399261 0.35203 -0.773653 -0.5060219 0.3813173 -0.9055801 -0.1841914 0.3820971 -0.8579265 -0.3418978 0.3834943 -0.8665965 -0.3539651 0.3517375 -0.9146551 -0.1087991 0.3893181 -0.905903 -0.1573074 0.3931848 -0.8497583 -0.3427677 0.4005262 -0.7550296 -0.524586 0.3933699 -0.7204937 -0.5742773 0.3887087</float_array>
          <technique_common>
            <accessor source="#window01_glassShape-normals-array" count="42" stride="3">
              <param name="X" type="float"/>
              <param name="Y" type="float"/>
              <param name="Z" type="float"/>
            </accessor>
          </technique_common>
        </source>
        <source id="window01_glassShape-map1" name="window01_glassShape-map1">
          <float_array id="window01_glassShape-map1-array" count="84">0.4857775 0.1067013 0.4841731 0.3856487 0.8679913 0.3310156 0.8686121 0.1758755 0.8751698 0.2497988 0.4681782 0.2497988 0.6773548 0.1403486 0.6714737 0.2497887 0.6762199 0.3592573 0.9522113 0.2505954 0.958072 0.3545875 0.9049955 0.416139 0.6834258 0.445663 0.4031455 0.4246629 0.3911741 0.2492756 0.461218 0.4726816 0.6861865 0.05424049 0.906856 0.09115338 0.9597861 0.1542108 0.4062252 0.06580436 0.4648027 0.01966563 0.6714737 0.2497887 0.6773548 0.1403486 0.4857775 0.1067013 0.4681782 0.2497988 0.4031455 0.4246629 0.4841731 0.3856487 0.3911741 0.2492756 0.461218 0.4726816 0.6834258 0.445663 0.6762199 0.3592573 0.958072 0.3545875 0.8679913 0.3310156 0.9049955 0.416139 0.9522113 0.2505954 0.8751698 0.2497988 0.9597861 0.1542108 0.8686121 0.1758755 0.906856 0.09115338 0.4648027 0.01966563 0.6861865 0.05424049 0.4062252 0.06580436</float_array>
          <technique_common>
            <accessor source="#window01_glassShape-map1-array" count="42" stride="2">
              <param name="S" type="float"/>
              <param name="T" type="float"/>
            </accessor>
          </technique_common>
        </source>
        <vertices id="window01_glassShape-vertices" name="window01_glassShape-vertices">
          <input semantic="POSITION" source="#window01_glassShape-positions"/>
          <input semantic="NORMAL" source="#window01_glassShape-normals"/>
        </vertices>
        <triangles material="blinn4SG" count="56">
          <input semantic="VERTEX" source="#window01_glassShape-vertices" offset="0"/>
          <input semantic="TEXCOORD" source="#window01_glassShape-map1" offset="1" set="0"/>
          <p>15 5 10 0 18 7 18 7 10 0 17 6 2 13 1 14 11 1 11 1 1 14 15 5 3 15 2 13 11 1 3 15 11 1 20 12 20 12 11 1 19 8 5 10 4 11 12 2 5 10 12 2 6 9 6 9 12 2 14 4 7 18 6 9 13 3 13 3 6 9 14 4 8 17 7 18 13 3 9 20 16 16 10 0 10 0 16 16 17 6 0 19 9 20 10 0 15 5 18 7 11 1 11 1 18 7 19 8 0 19 10 0 1 14 1 14 10 0 15 5 17 6 16 16 13 3 13 3 16 16 8 17 14 4 18 7 13 3 13 3 18 7 17 6 19 8 18 7 12 2 12 2 18 7 14 4 4 11 20 12 12 2 12 2 20 12 19 8 38 22 31 23 39 21 39 21 31 23 36 24 23 25 32 26 22 27 22 27 32 26 36 24 24 28 32 26 23 25 40 30 32 26 41 29 41 29 32 26 24 28 26 31 33 32 25 33 35 35 33 32 27 34 27 34 33 32 26 31 28 36 34 37 27 34 27 34 34 37 35 35 29 38 34 37 28 36 30 39 31 23 37 40 37 40 31 23 38 22 21 41 31 23 30 39 40 30 39 21 32 26 32 26 39 21 36 24 36 24 31 23 22 27 22 27 31 23 21 41 38 22 34 37 37 40 37 40 34 37 29 38 35 35 34 37 39 21 39 21 34 37 38 22 40 30 33 32 39 21 39 21 33 32 35 35 25 33 33 32 41 29 41 29 33 32 40 30</p>
        </triangles>
      </mesh>
      <extra>
        <technique profile="OpenCOLLADAMaya">
          <originalMayaNodeId>window01_glassShape</originalMayaNodeId>
          <double_sided>1</double_sided>
        </technique>
      </extra>
    </geometry>
  </library_geometries>
  <library_visual_scenes>
    <visual_scene id="VisualSceneNode" name="train_passenger_UVdone">
      <node id="polySurface1131" name="polySurface1131" type="NODE">
        <translate sid="translate">0 0 0</translate>
        <rotate sid="rotateZ">0 0 1 0</rotate>
        <rotate sid="rotateY">0 1 0 0</rotate>
        <rotate sid="rotateX">1 0 0 0</rotate>
        <scale sid="scale">1 1 1</scale>
        <instance_geometry url="#polySurfaceShape1131">
          <bind_material>
            <technique_common>
              <instance_material symbol="blinn5SG" target="#MAT">
                <bind_vertex_input semantic="TEX0" input_semantic="TEXCOORD" input_set="0"/>
              </instance_material>
            </technique_common>
          </bind_material>
        </instance_geometry>
        <node id="window01_glass" name="window01_glass" type="NODE">
          <translate sid="translate">0 0 0</translate>
          <scale sid="scale">1 1 1</scale>
          <instance_geometry url="#window01_glassShape">
            <bind_material>
              <technique_common>
                <instance_material symbol="blinn4SG" target="#windows_MAT">
                  <bind_vertex_input semantic="TEX0" input_semantic="TEXCOORD" input_set="0"/>
                  <bind_vertex_input semantic="TEX1" input_semantic="TEXCOORD" input_set="0"/>
                </instance_material>
              </technique_common>
            </bind_material>
          </instance_geometry>
          <extra>
            <technique profile="OpenCOLLADAMaya">
              <originalMayaNodeId>window01_glass</originalMayaNodeId>
            </technique>
          </extra>
        </node>
        <extra>
          <technique profile="OpenCOLLADAMaya">
            <originalMayaNodeId>polySurface1131</originalMayaNodeId>
          </technique>
        </extra>
      </node>
    </visual_scene>
  </library_visual_scenes>
  <scene>
    <instance_visual_scene url="#VisualSceneNode"/>
  </scene>
</COLLADA>