<?xml version="1.0" encoding="utf-8" ?>
<COLLADA xmlns="http://www.collada.org/2005/11/COLLADASchema" version="1.4.1">
    <asset>
        <contributor>
            <author>marcus</author>
            <authoring_tool>modo 701 [Build 68192], Microsoft Windows 7 Service Pack 1 (6.1.7601 Service Pack 1)</authoring_tool>
            <comments>Plug-in: [Build 68192]; Use Absolute Path: No; Merge Reference Items: No; Save Hidden Items: No; Save Cameras: No; Save Lights: No; Save Locators: Yes; Save Triangles as Triangles: Yes; Order Vertex Maps Alphabetically: Yes; Bake Matrices: No; Save Vertex Normals: Yes; Save UV Texture Coordinates: Yes; Save Vertex Colors: Yes; Save Vertex Weights: Yes; Save Animation: No; Sample Animation: Yes; Sample Animation Start: 0; Sample Animation End: 1; Save modo Profile: No; Save Maya Profile: No; Save 3ds Max Profile: No; Formatted Arrays: No;</comments>
            <source_data>file:///D:/Work/Dropbox/Frictional%20Games%20-%20Team/Aaron/models/entities/station/special/01_05_transporter_passenger/01_05_transporter_passenger_door.lxo</source_data>
        </contributor>
        <created>2014-10-24T15:56:03Z</created>
        <modified>2014-10-24T15:56:03Z</modified>
        <unit name="game" meter="1" />
        <up_axis>Y_UP</up_axis>
    </asset>
    <library_images>
        <image id="Image0001" name="Image0001">
            <init_from>file:///D:/Work/Dropbox/Frictional%20Games%20-%20Team/Aaron/models/entities/station/special/01_05_transporter_passenger/01_05_transporter_passenger_door.tga</init_from>
        </image>
    </library_images>
    <library_materials>
        <material id="Material-highres" name="highres">
            <instance_effect url="#Effect-highres" />
        </material>
    </library_materials>
    <library_effects>
        <effect id="Effect-highres" name="highres">
            <profile_COMMON>
                <newparam sid="Image0001-surface">
                    <surface type="2D">
                        <init_from>Image0001</init_from>
                        <format>A8R8G8B8</format>
                    </surface>
                </newparam>
                <newparam sid="Image0001-sampler">
                    <sampler2D>
                        <source>Image0001-surface</source>
                        <minfilter>LINEAR_MIPMAP_LINEAR</minfilter>
                        <magfilter>LINEAR</magfilter>
                    </sampler2D>
                </newparam>
                <technique sid="common">
                    <phong>
                        <diffuse>
                            <texture texture="Image0001-sampler" texcoord="uvSet1" />
                        </diffuse>
                        <specular>
                            <color sid="specular_effect_rgb">0.2 0.2 0.2 1</color>
                        </specular>
                        <shininess>
                            <float sid="specular_effect_rgb">256</float>
                        </shininess>
                    </phong>
                </technique>
            </profile_COMMON>
        </effect>
    </library_effects>
    <library_geometries>
        <geometry id="Geometry-polySurface1137" name="door">
            <mesh>
                <source id="Geometry-polySurface1137-positions" name="positions">
                    <float_array id="Geometry-polySurface1137-positions-array" count="216">0.255066 1.97967 0.788329 0.265884 1.97966 0.778283 0.369978 1.58742 0.788328 0.38022 1.58742 0.778281 0.411887 1.19517 0.788328 0.421931 1.19517 0.778283 0.376621 0.80292 0.788328 0.38686 0.80292 0.778281 0.254963 0.41067 0.788329 0.265884 0.41067 0.778283 0.048122 0.00818461 0.778286 0.0336499 0 0.788332 0.0952444 2.30271 0.778285 0.080166 2.3122 0.788331 0.23301 1.97967 0.78833 0.222192 1.97966 0.778284 0.346765 1.58742 0.788328 0.336526 1.58742 0.778281 0.388284 1.19517 0.788328 0.37824 1.19517 0.778281 0.353408 0.80292 0.788328 0.343169 0.80292 0.778281 0.233113 0.41067 0.78833 0.222192 0.41067 0.778284 0.00446425 0.00825102 0.778286 0.0100439 0 0.788332 0.0527498 2.30045 0.778286 0.0565601 2.3122 0.788331 0.265884 1.9776 -0.778289 0.255059 1.97759 -0.788332 0.369978 1.58742 -0.788333 0.38022 1.58742 -0.77829 0.336526 1.58742 -0.77829 0.346768 1.58742 -0.788333 0.233018 1.97759 -0.78833 0.222192 1.9776 -0.778287 0.421931 1.19517 -0.77829 0.411887 1.19517 -0.788333 0.376621 0.80292 -0.788333 0.38686 0.80292 -0.77829 0.343169 0.80292 -0.77829 0.353408 0.80292 -0.788333 0.388284 1.19517 -0.788333 0.37824 1.19517 -0.77829 0.265884 0.410669 -0.778289 0.254961 0.410669 -0.788332 0.0336499 0 -0.788328 0.0481197 0.00818453 -0.778285 0.0100439 0 -0.788328 0.00446425 0.00825095 -0.778285 0.233113 0.410669 -0.78833 0.222192 0.410669 -0.778287 0.080166 2.30804 -0.788329 0.0952444 2.29859 -0.778286 0.0565601 2.30804 -0.788329 0.0527498 2.29634 -0.778285 0.253737 0.55686 -0.791486 0.254255 0.558538 0.791481 0.277305 0.633276 0.791481 0.277823 0.634955 -0.791487 0.258485 0.552806 0.791481 0.258485 0.552806 -0.791485 0.349962 0.552806 -0.791485 0.349962 0.552806 0.791481 0.376549 0.639009 0.791481 0.376549 0.639009 -0.791486 0.285072 0.639009 -0.791486 0.285072 0.639009 0.791481 0.360655 0.560698 0.782969 0.360655 0.560698 -0.782973 0.382374 0.631117 -0.782974 0.382374 0.631117 0.782969</float_array>
                    <technique_common>
                        <accessor count="72" source="#Geometry-polySurface1137-positions-array" stride="3">
                            <param name="X" type="float" />
                            <param name="Y" type="float" />
                            <param name="Z" type="float" />
                        </accessor>
                    </technique_common>
                </source>
                <source id="Geometry-polySurface1137-normals" name="normals">
                    <float_array id="Geometry-polySurface1137-normals-array" count="450">0 1.01845e-006 -1 -1.98313e-005 -2.62448e-006 -1 -3.96625e-005 -1.0595e-005 -1 -3.96625e-005 -1.0411e-005 -1 0 0 -1 0 -1.01304e-006 -1 -2.00064e-005 2.99513e-006 -1 -4.00127e-005 1.07771e-005 -1 -3.00095e-005 8.77008e-006 -1 -4.00127e-005 9.85488e-006 -1 0 -5.80561e-006 -1 -2.97469e-005 -1.01521e-005 -1 0 3.60748e-006 -1 0.913289 0.40731 -0.000745046 0.974806 0.223056 -0.000123715 0.938572 0.345083 -0.000331588 0.986324 0.164818 0 -0.986401 -0.164356 0 -0.926493 -0.376311 0.000559552 -0.974806 -0.223054 0.000124313 -0.926109 -0.377255 0.000498559 0.99916 0.0409834 0 0.987378 -0.158383 1.49034e-008 0.999707 -0.024224 3.56004e-009 0.973831 -0.227275 3.44335e-008 -0.973831 0.227275 -3.40465e-008 -0.999707 0.0242222 -3.42454e-009 -0.987378 0.158384 -1.51449e-008 -0.99916 -0.0409872 0 0.934245 -0.356631 6.13532e-008 0.7773 -0.62913 -6.39716e-007 0.908781 -0.417274 -3.73674e-007 0.643613 -0.765351 -6.7117e-007 -0.879519 0.475863 -2.33468e-008 -0.90878 0.417275 -5.82257e-008 -0.879519 0.475863 -5.87496e-008 -0.934245 0.356633 -6.21209e-008 0.733066 0.680155 -0.00179802 0.732618 0.680638 -0.00163868 -0.884231 -0.467049 0.00123474 -0.883609 -0.468226 0.000927536 0 -4.30185e-006 1 3.60331e-005 8.76394e-006 1 2.70248e-005 8.11971e-006 1 3.60331e-005 9.33681e-006 1 1.80166e-005 2.48971e-006 1 0 -8.61085e-007 1 0 0 1 1.81855e-005 -2.84193e-006 1 0 8.61081e-007 1 3.6371e-005 -8.56858e-006 1 3.6371e-005 -9.69108e-006 1 0 5.95075e-006 1 2.72783e-005 -7.29835e-006 1 0.254549 -0.96706 0 0.254533 -0.967064 -1.75354e-007 0 -1 0 0.183654 0.982988 -0.00259846 0.367305 0.930098 -0.00245868 0.658378 0.294776 0.692564 0.685199 0.156998 0.711234 0.666347 0.245229 0.704163 0.697762 0.11674 0.706753 0.651216 0.343231 0.676838 0.66168 0.348013 0.664129 0.703702 0.00592743 0.71047 0.707094 0.00595685 0.707094 0.698152 -0.112638 0.707034 0.683752 -0.160225 0.711906 0.662495 -0.254116 0.704645 0.654638 -0.30258 0.692744 0.648153 -0.349968 0.676328 0.66032 -0.355846 0.661325 -0.655589 -0.267082 0.706307 -0.66603 -0.271591 0.694725 -0.651202 -0.34477 0.676069 -0.661996 -0.351273 0.662094 -0.685262 -0.15623 0.711343 -0.697892 -0.116194 0.706714 -0.703765 -0.00593129 0.710409 -0.707172 -0.00595984 0.707017 -0.698229 0.112026 0.707055 -0.683852 0.159362 0.712005 -0.662557 0.253795 0.704703 -0.654708 0.303151 0.692428 -0.648092 0.351332 0.67568 -0.660486 0.357359 0.660343 0.665641 0.246366 -0.704433 0.657597 0.296232 -0.692685 0.650379 0.344971 -0.676759 0.661167 0.349931 -0.663632 0.684847 0.157608 -0.711438 0.697638 0.117063 -0.706822 0.703617 0.00592673 -0.710555 0.707048 0.00595648 -0.70714 -0.685018 -0.15686 -0.711439 -0.697684 -0.116499 -0.70687 -0.703618 -0.00592672 -0.710554 -0.707048 -0.0059565 -0.70714 -0.665595 -0.273011 -0.694585 -0.655316 -0.268559 -0.706001 -0.65057 -0.346633 -0.675725 -0.661116 -0.353028 -0.66204 0.698056 -0.112621 -0.707132 0.683608 -0.160194 -0.712052 0.662336 -0.254063 -0.704815 0.654508 -0.302535 -0.692886 -0.698107 0.112004 -0.707179 -0.662448 0.253746 -0.704823 -0.683734 0.159329 -0.712125 -0.654607 0.303097 -0.692547 0.648053 -0.349926 -0.676446 0.660287 -0.355837 -0.661363 -0.660394 0.357302 -0.660466 -0.647998 0.351273 -0.675801 -0.955583 0.294722 2.28036e-007 -0.955585 0.294717 -2.90254e-008 -0.873811 0.486265 0.000229797 -0.815584 0.578639 0.000346644 0.312579 -0.949892 0 0 1 0 -0.282264 0.959337 0.000171875 -0.252219 0.96767 0 0.815575 -0.578651 0 0.955583 -0.294724 0 0.804598 0.59382 0 0.700737 -0.216119 0.679897 0.700726 -0.216118 0.679909 0.700716 -0.216117 0.67992 -0.804592 -0.593828 0 -0.73172 -0.681606 0.000512639 -0.649323 -0.760512 0.00101861 -0.797189 0.60373 0.000175457 -0.542062 0.840338 0.000330071 0 -7.60584e-006 -1 0 -7.60584e-006 -1 5.47036e-005 -2.44775e-005 -1 8.83827e-005 -3.64001e-005 -1 0.700739 -0.216124 -0.679894 0.700725 -0.216123 -0.679908 0.700712 -0.216122 -0.679922 0.000132574 -5.07973e-005 -1 0.000101037 -4.33738e-005 -1 -0.951053 0.309026 -0.000816972 -0.951055 0.309021 -0.000816917 -0.951056 0.309016 -0.000816863 0 0.999996 -0.00264342 -0.828368 -0.560184 0 -0.82837 -0.560182 1.37418e-008 -0.828371 -0.56018 2.74835e-008</float_array>
                    <technique_common>
                        <accessor count="150" source="#Geometry-polySurface1137-normals-array" stride="3">
                            <param name="X" type="float" />
                            <param name="Y" type="float" />
                            <param name="Z" type="float" />
                        </accessor>
                    </technique_common>
                </source>
                <source id="Geometry-polySurface1137-uvSet1" name="uvSet1">
                    <float_array id="Geometry-polySurface1137-uvSet1-array" count="224">0.00660476 0.562608 0.0135066 0.563864 0.00727389 0.695194 0.013468 0.697353 0.00635431 0.434209 0.00660797 0.306051 0.0135066 0.434238 0.0135066 0.304803 0.00741856 0.172199 0.00775893 0.0159185 0.0135178 0.170025 0.0140007 0.0146756 0.00775441 0.817421 0.0140078 0.820248 0.516458 0.698941 0.51645 0.565068 0.993542 0.698267 0.993534 0.565036 0.494762 0.564377 0.494777 0.698953 0.0177686 0.564357 0.0177511 0.69829 0.516442 0.43581 0.516434 0.306759 0.993526 0.435781 0.993518 0.306742 0.494781 0.304337 0.49477 0.434266 0.0177746 0.30431 0.0177717 0.434241 0.516433 0.172246 0.516431 0.0192523 0.993516 0.172243 0.993514 0.0192523 0.494711 0.0157944 0.494782 0.169095 0.0178746 0.0157695 0.0177863 0.169068 0.516473 0.822164 0.993556 0.820909 0.494648 0.822477 0.0178529 0.821221 0.498505 0.821526 0.499065 0.69803 0.504773 0.818714 0.505269 0.695881 0.499023 0.563887 0.505923 0.562637 0.499036 0.434264 0.50619 0.434237 0.499053 0.30483 0.505955 0.306078 0.499052 0.170051 0.505152 0.172229 0.498587 0.0147033 0.504831 0.0154664 0.996593 0.0159414 0.513352 0.0159683 0.996592 0.00820591 0.513352 0.00823307 0.996642 0.824195 0.5134 0.825461 0.509598 0.694822 0.510251 0.562099 0.508847 0.817558 0.510516 0.434228 0.510285 0.306616 0.509486 0.172995 0.508899 0.01915 0.00294428 0.694137 0.0036763 0.816274 0.00227701 0.562065 0.00202759 0.434199 0.00227913 0.306589 0.00308366 0.172621 0.00369193 0.0199538 0.597689 0.990608 0.0473924 0.990608 0.597682 0.961457 0.047385 0.962216 0.0473813 0.85715 0.597677 0.85715 0.0473813 0.890319 0.597677 0.890319 0.0473765 0.925477 0.597672 0.925358 0.047384 0.958682 0.597681 0.958491 0.0503413 0.895143 0.59472 0.895135 0.0503336 0.921881 0.594713 0.921839 0.046313 0.891273 0.0462852 0.923981 0.0473918 0.993287 0.597689 0.993287 0.598744 0.923961 0.598762 0.891253 0.629137 0.914211 0.629164 0.881503 0.631131 0.912034 0.631157 0.882402 0.0159054 0.914171 0.0139139 0.911351 0.0159381 0.881461 0.0139443 0.882993 0.516505 0.836479 0.51342 0.833195 0.99359 0.835229 0.99666 0.831929 0.993512 0.00491482 0.51643 0.0049414</float_array>
                    <technique_common>
                        <accessor count="112" source="#Geometry-polySurface1137-uvSet1-array" stride="2">
                            <param name="S" type="float" />
                            <param name="T" type="float" />
                        </accessor>
                    </technique_common>
                </source>
                <source id="Geometry-polySurface1137-UV_Distortion" name="UV_Distortion">
                    <float_array id="Geometry-polySurface1137-UV_Distortion-array" count="405">0.506759 0.54373 0.497125 0.519151 0.53007 0.484635 0.511688 0.538297 0.492157 0.514114 0.535623 0.489712 0.494236 0.540571 0.509625 0.509258 0.540976 0.494606 0.499799 0.546655 0.504106 0.513447 0.536358 0.490384 0.513593 0.536197 0.490238 0.511217 0.538815 0.492631 0.519797 0.529358 0.483984 0.505903 0.544674 0.497988 0.508077 0.542277 0.495796 0.508068 0.542288 0.495806 0.506808 0.543677 0.497076 0.506775 0.543713 0.497109 0.508059 0.542297 0.495814 0.508081 0.542273 0.495793 0.506391 0.544136 0.497496 0.506393 0.544133 0.497493 0.503033 0.547838 0.50088 0.50304 0.54783 0.500873 0.502622 0.54829 0.501294 0.502543 0.548378 0.501374 0.500838 0.547792 0.503075 0.500771 0.547718 0.503142 0.498625 0.545371 0.50527 0.498452 0.545182 0.505442 0.508069 0.542286 0.495805 0.508076 0.542279 0.495798 0.506459 0.544061 0.497428 0.506453 0.544068 0.497434 0.508058 0.542298 0.495815 0.508085 0.542269 0.495788 0.506745 0.543746 0.497139 0.506737 0.543754 0.497147 0.513228 0.536599 0.490604 0.499902 0.546768 0.504004 0.519015 0.530219 0.484772 0.506933 0.543539 0.49695 0.513688 0.536093 0.490142 0.511162 0.538877 0.492687 0.514005 0.535743 0.489822 0.511633 0.538358 0.492213 0.519791 0.529364 0.48399 0.505798 0.54479 0.498093 0.50909 0.541161 0.494776 0.493469 0.539732 0.510386 0.508059 0.542297 0.495814 0.50807 0.542285 0.495803 0.674871 0.35841 0.327689 0.675375 0.357854 0.327181 0.515379 0.534228 0.488437 0.509277 0.540954 0.494587 0.497631 0.544284 0.506256 0.511674 0.538312 0.492171 0.51313 0.536708 0.490704 0.51172 0.538261 0.492125 0.512022 0.537929 0.49182 0.513224 0.536603 0.490609 0.508056 0.5423 0.495817 0.515741 0.533829 0.488072 0.497489 0.544129 0.506397 0.504457 0.546268 0.499445 0.496479 0.543024 0.507399 0.524225 0.524477 0.479522 0.514976 0.534672 0.488843 0.510297 0.53983 0.493559 0.513629 0.536157 0.490201 0.51178 0.538195 0.492064 0.511945 0.538013 0.491898 0.513105 0.536735 0.490729 0.509039 0.541217 0.494827 0.516582 0.532902 0.487224 0.503935 0.546844 0.499971 0.516677 0.532797 0.487128 0.497583 0.544231 0.506305 0.5112 0.538835 0.492649 0.515444 0.534157 0.488372 0.509211 0.541028 0.494654 0.513088 0.536753 0.490746 0.511651 0.538337 0.492194 0.51354 0.536255 0.490291 0.511816 0.538155 0.492028 0.510159 0.539983 0.493699 0.515156 0.534473 0.488661 0.496421 0.54296 0.507458 0.524975 0.52365 0.478766 0.511949 0.538009 0.491894 0.513264 0.536559 0.490568 0.507437 0.542983 0.496442 0.515574 0.534013 0.48824 0.509235 0.541001 0.49463 0.51664 0.532838 0.487166 0.513302 0.536518 0.49053 0.51198 0.537975 0.491863 0.499287 0.546095 0.504614 0.50532 0.545316 0.498575 0.516761 0.532705 0.487044 0.503988 0.546785 0.499917 0.457284 0.500154 0.546289 0.45329 0.495786 0.550251 0.453553 0.496074 0.54999 0.453309 0.495806 0.550233 0.453801 0.496345 0.549745 0.4534 0.495906 0.550142 0.453699 0.496233 0.549846 0.45367 0.496202 0.549874 0.453303 0.4958 0.550238 0.455955 0.498701 0.547607 0.451129 0.493423 0.552395 0.453773 0.496314 0.549773 0.452709 0.495151 0.550828 0.445409 0.487166 0.558071 0.416977 0.456069 0.58628 0.451428 0.493749 0.552099 0.457053 0.499901 0.546518 0.453568 0.49609 0.549976 0.453521 0.496039 0.550022 0.453345 0.495846 0.550197 0.453885 0.496436 0.549661 0.453604 0.49613 0.54994 0.453482 0.495996 0.550061 0.453563 0.496085 0.54998 0.453469 0.495982 0.550074 0.453586 0.496109 0.549958 0.453628 0.496156 0.549916 0.562421 0.482371 0.441025 0.562485 0.482301 0.440961 0.508109 0.542242 0.495764 0.5081 0.542252 0.495773 0.653271 0.38222 0.349459 0.650611 0.385153 0.35214 0.505966 0.544605 0.497924 0.50595 0.544622 0.49794</float_array>
                    <technique_common>
                        <accessor count="135" source="#Geometry-polySurface1137-UV_Distortion-array" stride="3">
                            <param name="R" type="float" />
                            <param name="G" type="float" />
                            <param name="B" type="float" />
                        </accessor>
                    </technique_common>
                </source>
                <vertices id="Geometry-polySurface1137-vertices">
                    <input semantic="POSITION" source="#Geometry-polySurface1137-positions" />
                </vertices>
                <triangles count="136" material="Material-highres">
                    <input semantic="VERTEX" source="#Geometry-polySurface1137-vertices" offset="0" />
                    <input semantic="NORMAL" source="#Geometry-polySurface1137-normals" offset="1" />
                    <input semantic="TEXCOORD" source="#Geometry-polySurface1137-uvSet1" offset="2" set="0" />
                    <input semantic="COLOR" source="#Geometry-polySurface1137-UV_Distortion" offset="3" set="0" />
                    <p>30 0 0 0 33 1 1 0 29 2 2 0 29 2 2 1 33 1 1 1 34 3 3 1 37 4 4 2 38 5 5 2 42 4 6 2 42 4 6 3 38 5 5 3 41 6 7 3 45 7 8 4 46 8 9 4 50 9 10 4 50 9 10 5 46 8 9 5 48 10 11 5 29 2 2 6 34 3 3 6 52 11 12 6 52 11 12 7 34 3 3 7 54 12 13 7 33 1 1 8 30 0 0 8 42 4 6 8 42 4 6 9 30 0 0 9 37 4 4 9 50 9 10 10 41 6 7 10 45 7 8 10 45 7 8 11 41 6 7 11 38 5 5 11 1 13 14 12 3 14 15 12 28 15 16 12 28 15 16 13 3 14 15 13 31 16 17 13 17 17 18 14 15 18 19 14 32 19 20 14 32 19 20 15 15 18 19 15 35 20 21 15 5 21 22 16 7 22 23 16 36 23 24 16 36 23 24 17 7 22 23 17 39 24 25 17 21 25 26 18 19 26 27 18 40 27 28 18 40 27 28 19 19 26 27 19 43 28 29 19 9 29 30 20 10 30 31 20 44 31 32 20 44 31 32 21 10 30 31 21 47 32 33 21 24 33 34 22 23 34 35 22 49 35 36 22 49 35 36 23 23 34 35 23 51 36 37 23 12 37 38 24 1 13 14 24 53 38 39 24 53 38 39 25 1 13 14 25 28 15 16 25 26 39 40 26 55 40 41 26 15 18 19 26 15 18 19 27 55 40 41 27 35 20 21 27 3 14 15 28 5 21 22 28 31 16 17 28 31 16 17 29 5 21 22 29 36 23 24 29 19 26 27 30 17 17 18 30 43 28 29 30 43 28 29 31 17 17 18 31 32 19 20 31 7 22 23 32 9 29 30 32 39 24 25 32 39 24 25 33 9 29 30 33 44 31 32 33 23 34 35 34 21 25 26 34 51 36 37 34 51 36 37 35 21 25 26 35 40 27 28 35 27 41 42 36 14 42 43 36 13 43 44 36 13 43 44 37 14 42 43 37 0 44 45 37 14 42 43 38 16 45 46 38 0 44 45 38 0 44 45 39 16 45 46 39 2 46 47 39 16 45 46 40 18 47 48 40 2 46 47 40 2 46 47 41 18 47 48 41 4 47 49 41 20 48 50 42 6 49 51 42 18 47 48 42 18 47 48 43 6 49 51 43 4 47 49 43 22 50 52 44 8 51 53 44 20 48 50 44 20 48 50 45 8 51 53 45 6 49 51 45 25 52 54 46 11 53 55 46 22 50 52 46 22 50 52 47 11 53 55 47 8 51 53 47 46 54 56 48 11 55 57 48 48 56 58 48 48 56 58 49 11 55 57 49 25 56 59 49 52 57 60 50 13 58 61 50 53 38 39 50 53 38 39 51 13 58 61 51 12 37 38 51 0 59 45 52 2 60 47 52 1 61 62 52 1 61 62 53 2 60 47 53 3 62 63 53 1 61 62 54 12 63 64 54 0 59 45 54 0 59 45 55 12 63 64 55 13 64 44 55 2 60 47 56 4 65 49 56 3 62 63 56 3 62 63 57 4 65 49 57 5 66 65 57 5 66 65 58 4 65 49 58 7 67 66 58 7 67 66 59 4 65 49 59 6 68 51 59 7 67 66 60 6 68 51 60 9 69 67 60 9 69 67 61 6 68 51 61 8 70 53 61 9 69 67 62 8 70 53 62 10 71 68 62 10 71 68 63 8 70 53 63 11 72 55 63 15 73 19 64 14 74 43 64 26 75 40 64 26 75 40 65 14 74 43 65 27 76 42 65 15 73 19 66 17 77 18 66 14 74 43 66 14 74 43 67 17 77 18 67 16 78 46 67 17 77 18 68 19 79 27 68 16 78 46 68 16 78 46 69 19 79 27 69 18 80 48 69 18 80 48 70 19 79 27 70 20 81 50 70 20 81 50 71 19 79 27 71 21 82 26 71 20 81 50 72 21 82 26 72 22 83 52 72 22 83 52 73 21 82 26 73 23 84 35 73 22 83 52 74 23 84 35 74 25 85 54 74 25 85 54 75 23 84 35 75 24 86 34 75 28 87 69 76 29 88 2 76 53 89 70 76 53 89 70 77 29 88 2 77 52 90 12 77 29 88 2 78 28 87 69 78 30 91 0 78 30 91 0 79 28 87 69 79 31 92 71 79 30 91 0 80 31 92 71 80 37 93 4 80 37 93 4 81 31 92 71 81 36 94 72 81 32 95 20 82 33 96 1 82 43 97 29 82 43 97 29 83 33 96 1 83 42 98 6 83 33 96 1 84 32 95 20 84 34 99 3 84 34 99 3 85 32 95 20 85 35 100 21 85 35 100 21 86 55 101 41 86 34 99 3 86 34 99 3 87 55 101 41 87 54 102 13 87 36 94 72 88 39 103 73 88 37 93 4 88 37 93 4 89 39 103 73 89 38 104 5 89 39 103 73 90 44 105 74 90 38 104 5 90 38 104 5 91 44 105 74 91 45 106 8 91 41 107 7 92 50 108 10 92 40 109 28 92 40 109 28 93 50 108 10 93 51 110 37 93 40 109 28 94 43 97 29 94 41 107 7 94 41 107 7 95 43 97 29 95 42 98 6 95 44 105 74 96 47 111 75 96 45 106 8 96 45 106 8 97 47 111 75 97 46 112 9 97 49 113 36 98 51 110 37 98 48 114 11 98 48 114 11 99 51 110 37 99 50 108 10 99 56 115 76 100 57 116 77 100 59 117 78 100 59 117 78 101 57 116 77 101 58 118 79 101 60 56 80 102 61 56 81 102 63 119 82 102 63 119 82 102 61 56 81 102 62 119 83 102 64 120 84 103 65 120 85 103 67 121 86 103 67 121 86 104 65 120 85 104 66 122 87 104 68 123 88 105 69 123 89 105 71 124 90 105 71 124 90 106 69 123 89 106 70 124 91 106 62 119 83 107 69 123 89 107 63 119 82 107 63 119 82 108 69 123 89 108 68 123 88 108 70 125 91 109 65 125 85 109 71 125 90 109 71 125 90 110 65 125 85 110 64 125 84 110 63 126 92 111 68 127 88 111 64 127 93 111 64 127 93 112 68 127 88 112 71 128 90 112 60 129 94 113 57 130 77 113 61 130 95 113 61 130 95 114 57 130 77 114 56 131 76 114 58 118 79 115 67 121 86 115 59 132 78 115 59 133 78 116 67 121 86 116 66 122 87 116 65 134 96 117 62 135 97 117 66 136 98 117 66 136 98 118 62 135 97 118 61 137 99 118 62 138 97 119 65 139 96 119 69 139 89 119 69 139 89 120 65 139 96 120 70 140 91 120 66 136 98 121 61 137 99 121 59 141 100 121 59 141 100 122 61 137 99 122 56 142 101 122 64 47 93 123 67 47 102 123 63 47 92 123 67 47 102 124 58 47 103 124 63 47 92 124 63 47 92 125 58 47 103 125 60 47 104 125 58 47 103 126 57 47 105 126 60 47 104 126 26 143 106 127 27 144 107 127 55 144 108 127 55 144 108 128 27 144 107 128 54 145 109 128 54 146 109 129 27 146 107 129 52 57 60 129 52 57 60 130 27 146 107 130 13 58 61 130 10 30 31 131 11 55 57 131 47 32 33 131 47 32 33 132 11 55 57 132 46 54 56 132 48 147 58 133 25 148 59 133 49 148 110 133 49 148 110 134 25 148 59 134 24 149 111 134</p>
                </triangles>
            </mesh>
        </geometry>
    </library_geometries>
    <library_visual_scenes>
        <visual_scene id="DefaultScene">
            <node id="Geometry-polySurface1137Node" name="door" type="NODE">
                <translate sid="translation001">0 0 0</translate>
                <rotate sid="rotation002Z">0 0 1 0</rotate>
                <rotate sid="rotation002Y">0 1 0 0</rotate>
                <rotate sid="rotation002X">1 0 0 0</rotate>
                <scale sid="scale003">1 1 1</scale>
                <instance_geometry url="#Geometry-polySurface1137">
                    <bind_material>
                        <technique_common>
                            <instance_material symbol="Material-highres" target="#Material-highres">
                                <bind_vertex_input semantic="uvSet1" input_semantic="TEXCOORD" input_set="0" />
                            </instance_material>
                        </technique_common>
                    </bind_material>
                </instance_geometry>
            </node>
            <node id="groupLocator028Node" name="Texture_Group" type="NODE">
                <node id="txtrLocator090Node" name="01_05_transporter_passenger_door__Image___Texture_" type="NODE">
                    <translate sid="translation093">0 0 0</translate>
                    <rotate sid="rotation092Y">0 1 0 0</rotate>
                    <rotate sid="rotation092X">1 0 0 0</rotate>
                    <rotate sid="rotation092Z">0 0 1 0</rotate>
                    <scale sid="scale091">1 1 1</scale>
                </node>
            </node>
        </visual_scene>
    </library_visual_scenes>
    <scene>
        <instance_visual_scene url="#DefaultScene" />
    </scene>
</COLLADA>
