<?xml version="1.0" encoding="utf-8" ?>
<COLLADA xmlns="http://www.collada.org/2005/11/COLLADASchema" version="1.4.1">
    <asset>
        <contributor>
            <authoring_tool>modo 701 [Build 68192], Microsoft Windows 7 Service Pack 1 (6.1.7601 Service Pack 1)</authoring_tool>
            <comments>Plug-in: [Build 68192]; Use Absolute Path: No; Merge Reference Items: No; Save Hidden Items: No; Save Cameras: No; Save Lights: No; Save Locators: Yes; Save Triangles as Triangles: No; Order Vertex Maps Alphabetically: No; Bake Matrices: Yes; Save Vertex Normals: Yes; Save UV Texture Coordinates: Yes; Save Vertex Colors: No; Save Vertex Weights: Yes; Save Animation: No; Sample Animation: No; Sample Animation Start: 0; Sample Animation End: 1; Save modo Profile: No; Save Maya Profile: No; Save 3ds Max Profile: No; Formatted Arrays: No;</comments>
            <source_data>file:///D:/Work/Dropbox/Frictional%20Games%20-%20Team/Aaron/models/entities/station/special/01_05_transporter_passenger/01_05_transporter_passenger_broken_glass.lxo</source_data>
        </contributor>
        <created>2014-12-18T20:08:10Z</created>
        <modified>2014-12-18T20:08:10Z</modified>
        <unit name="game" meter="1" />
        <up_axis>Y_UP</up_axis>
    </asset>
    <library_images>
        <image id="Image0001" name="Image0001">
            <init_from>file:///D:/Work/Dropbox/Frictional%20Games%20-%20Team/Aaron/models/entities/station/special/01_05_transporter_passenger/01_05_transporter_passenger_broken_glass.psd</init_from>
        </image>
    </library_images>
    <library_materials>
        <material id="Material-broken_glass" name="broken_glass">
            <instance_effect url="#Effect-broken_glass" />
        </material>
    </library_materials>
    <library_effects>
        <effect id="Effect-broken_glass" name="broken_glass">
            <profile_COMMON>
                <newparam sid="Image0001-surface">
                    <surface type="2D">
                        <init_from>Image0001</init_from>
                        <format>A8R8G8B8</format>
                    </surface>
                </newparam>
                <newparam sid="Image0001-sampler">
                    <sampler2D>
                        <source>Image0001-surface</source>
                        <minfilter>LINEAR_MIPMAP_LINEAR</minfilter>
                        <magfilter>LINEAR</magfilter>
                    </sampler2D>
                </newparam>
                <technique sid="common">
                    <phong>
                        <diffuse>
                            <texture texture="Image0001-sampler" texcoord="uvSet1__2_" />
                        </diffuse>
                        <specular>
                            <color sid="specular_effect_rgb">0.2 0.2 0.2 1</color>
                        </specular>
                        <shininess>
                            <float sid="specular_effect_rgb">256</float>
                        </shininess>
                    </phong>
                </technique>
            </profile_COMMON>
        </effect>
    </library_effects>
    <library_geometries>
        <geometry id="Geometry-mesh023" name="fronthatch">
            <mesh>
                <source id="Geometry-mesh023-positions" name="positions">
                    <float_array id="Geometry-mesh023-positions-array" count="144">-1.10743 2.66857 -4.78948 -1.1869 2.20396 -4.78948 -0.593449 2.20396 -4.81734 -1.09286 2.08151 -4.78948 -1.83105e-006 2.08151 -4.78948 -0.553715 2.66857 -4.85152 0 2.20396 -4.83073 0 2.66857 -4.86777 0.593448 2.20396 -4.81734 0.553713 2.66857 -4.85152 1.09286 2.08151 -4.78948 1.10743 2.66857 -4.78948 1.1869 2.20396 -4.78948 -0.845106 3.07658 -4.78948 -1.83105e-006 3.42867 -4.78948 -0.422555 3.35108 -4.78948 -0.211278 3.35108 -4.80182 -0.422553 3.07658 -4.83342 0 3.07658 -4.84812 0 3.35108 -4.81179 0.422552 3.07658 -4.83342 0.211276 3.35108 -4.80182 0.422551 3.35108 -4.78948 0.845105 3.07658 -4.78948 -1.10743 2.66857 -4.78948 -1.1869 2.20396 -4.78948 -0.593449 2.20396 -4.81734 -1.09286 2.08151 -4.78948 -1.83105e-006 2.08151 -4.78948 -0.553715 2.66857 -4.85152 0 2.20396 -4.83073 0 2.66857 -4.86777 0.593448 2.20396 -4.81734 0.553713 2.66857 -4.85152 1.09286 2.08151 -4.78948 1.10743 2.66857 -4.78948 1.1869 2.20396 -4.78948 -0.845106 3.07658 -4.78948 -1.83105e-006 3.42867 -4.78948 -0.422555 3.35108 -4.78948 -0.211278 3.35108 -4.80182 -0.422553 3.07658 -4.83342 0 3.07658 -4.84812 0 3.35108 -4.81179 0.422552 3.07658 -4.83342 0.211276 3.35108 -4.80182 0.422551 3.35108 -4.78948 0.845105 3.07658 -4.78948</float_array>
                    <technique_common>
                        <accessor count="48" source="#Geometry-mesh023-positions-array" stride="3">
                            <param name="X" type="float" />
                            <param name="Y" type="float" />
                            <param name="Z" type="float" />
                        </accessor>
                    </technique_common>
                </source>
                <source id="Geometry-mesh023-normals" name="normals">
                    <float_array id="Geometry-mesh023-normals-array" count="144">0.0346617 -0.136742 -0.99 0.0235282 -0.129458 -0.991306 0 -0.270785 -0.96264 -0.0346617 -0.136741 -0.99 -0.0235282 -0.129458 -0.991306 0.060922 0.00580835 -0.998126 0.0929781 0.0236507 -0.995387 0.062469 -0.0313176 -0.997555 0.066377 0.10514 -0.99224 0.0975496 0.115767 -0.988474 0.0568294 0.218845 -0.974103 0.0716087 0.230494 -0.970435 0 0.28944 -0.957196 -0.0716083 0.230492 -0.970436 -0.0568292 0.218843 -0.974104 -0.0975495 0.115767 -0.988475 -0.066377 0.10514 -0.99224 -0.0929781 0.0236507 -0.995387 -0.060922 0.00580835 -0.998126 -0.062469 -0.0313175 -0.997555 0 -0.198802 -0.98004 0 -0.0120582 -0.999927 0 0.0944559 -0.995529 0 0.207302 -0.978277 -0.0346617 0.136742 0.99 0 0.270785 0.96264 -0.0235282 0.129458 0.991306 0.0346617 0.136741 0.99 0.0235282 0.129458 0.991306 -0.060922 -0.00580835 0.998126 -0.0929781 -0.0236507 0.995387 -0.062469 0.0313176 0.997555 -0.066377 -0.10514 0.99224 -0.0975496 -0.115767 0.988474 -0.0568294 -0.218845 0.974103 -0.0716087 -0.230494 0.970435 0 -0.28944 0.957196 0.0716083 -0.230492 0.970436 0.0568292 -0.218843 0.974104 0.0975495 -0.115767 0.988475 0.066377 -0.10514 0.99224 0.0929781 -0.0236507 0.995387 0.060922 -0.00580835 0.998126 0.062469 0.0313175 0.997555 0 0.198802 0.98004 0 0.0120582 0.999927 0 -0.0944559 0.995529 0 -0.207302 0.978277</float_array>
                    <technique_common>
                        <accessor count="48" source="#Geometry-mesh023-normals-array" stride="3">
                            <param name="X" type="float" />
                            <param name="Y" type="float" />
                            <param name="Z" type="float" />
                        </accessor>
                    </technique_common>
                </source>
                <source id="Geometry-mesh023-uvSet1__2_" name="uvSet1__2_">
                    <float_array id="Geometry-mesh023-uvSet1__2_-array" count="48">0.70278 0.0607259 0.897601 0.0134947 0.471825 0.0113628 0.240872 0.060726 0.0460513 0.0134948 0.686717 0.23919 0.903455 0.238992 0.934247 0.0605252 0.636199 0.395697 0.8018 0.396248 0.554349 0.502104 0.637165 0.502555 0.471826 0.532934 0.306486 0.502556 0.389303 0.502104 0.141852 0.396248 0.307454 0.395697 0.0401976 0.238992 0.256934 0.23919 0.009405 0.0605252 0.471826 0.0609206 0.471826 0.239296 0.471827 0.395565 0.471827 0.501775</float_array>
                    <technique_common>
                        <accessor count="24" source="#Geometry-mesh023-uvSet1__2_-array" stride="2">
                            <param name="S" type="float" />
                            <param name="T" type="float" />
                        </accessor>
                    </technique_common>
                </source>
                <vertices id="Geometry-mesh023-vertices">
                    <input semantic="POSITION" source="#Geometry-mesh023-positions" />
                </vertices>
                <polylist count="68" material="Material-broken_glass">
                    <input semantic="VERTEX" source="#Geometry-mesh023-vertices" offset="0" />
                    <input semantic="NORMAL" source="#Geometry-mesh023-normals" offset="1" />
                    <input semantic="TEXCOORD" source="#Geometry-mesh023-uvSet1__2_" offset="2" set="0" />
                    <vcount>3 3 3 3 3 3 3 3 3 3 3 3 3 3 3 3 3 3 3 3 3 3 3 3 3 3 3 3 3 3 3 3 3 3 3 3 3 3 3 3 3 3 3 3 3 3 3 3 3 3 3 3 3 3 3 3 3 3 3 3 3 3 3 3 3 3 3 3</vcount>
                    <p>8 0 0 10 1 1 4 2 2 2 3 3 4 2 2 3 4 4 9 5 5 11 6 6 8 0 0 11 6 6 12 7 7 8 0 0 20 8 8 23 9 9 9 5 5 23 9 9 11 6 6 9 5 5 21 10 10 22 11 11 20 8 8 22 11 11 23 9 9 20 8 8 14 12 12 22 11 11 21 10 10 15 13 13 14 12 12 16 14 14 13 15 15 15 13 13 17 16 16 15 13 13 16 14 14 17 16 16 0 17 17 13 15 15 5 18 18 13 15 15 17 16 16 5 18 18 1 19 19 0 17 17 2 3 3 0 17 17 5 18 18 2 3 3 2 3 3 3 4 4 1 19 19 4 2 2 6 20 20 8 0 0 4 2 2 2 3 3 6 20 20 7 21 21 9 5 5 6 20 20 5 18 18 7 21 21 6 20 20 9 5 5 8 0 0 6 20 20 2 3 3 5 18 18 6 20 20 18 22 22 20 8 8 7 21 21 17 16 16 18 22 22 7 21 21 20 8 8 9 5 5 7 21 21 5 18 18 17 16 16 7 21 21 19 23 23 21 10 10 18 22 22 16 14 14 19 23 23 18 22 22 21 10 10 20 8 8 18 22 22 17 16 16 16 14 14 18 22 22 14 12 12 21 10 10 19 23 23 16 14 14 14 12 12 19 23 23 8 0 0 12 7 7 10 1 1 32 24 0 28 25 2 34 26 1 26 27 3 27 28 4 28 25 2 33 29 5 32 24 0 35 30 6 35 30 6 32 24 0 36 31 7 44 32 8 33 29 5 47 33 9 47 33 9 33 29 5 35 30 6 45 34 10 44 32 8 46 35 11 46 35 11 44 32 8 47 33 9 38 36 12 45 34 10 46 35 11 39 37 13 40 38 14 38 36 12 37 39 15 41 40 16 39 37 13 39 37 13 41 40 16 40 38 14 24 41 17 29 42 18 37 39 15 37 39 15 29 42 18 41 40 16 25 43 19 26 27 3 24 41 17 24 41 17 26 27 3 29 42 18 26 27 3 25 43 19 27 28 4 28 25 2 32 24 0 30 44 20 28 25 2 30 44 20 26 27 3 31 45 21 30 44 20 33 29 5 29 42 18 30 44 20 31 45 21 33 29 5 30 44 20 32 24 0 26 27 3 30 44 20 29 42 18 42 46 22 31 45 21 44 32 8 41 40 16 31 45 21 42 46 22 44 32 8 31 45 21 33 29 5 29 42 18 31 45 21 41 40 16 43 47 23 42 46 22 45 34 10 40 38 14 42 46 22 43 47 23 45 34 10 42 46 22 44 32 8 41 40 16 42 46 22 40 38 14 38 36 12 43 47 23 45 34 10 40 38 14 43 47 23 38 36 12 32 24 0 34 26 1 36 31 7</p>
                </polylist>
            </mesh>
        </geometry>
    </library_geometries>
    <library_visual_scenes>
        <visual_scene id="DefaultScene">
            <node id="Geometry-mesh023Node" name="fronthatch" type="NODE">
                <matrix sid="transform">1 0 0 0 0 1 0 0 0 0 1 0 0 0 0 1</matrix>
                <instance_geometry url="#Geometry-mesh023">
                    <bind_material>
                        <technique_common>
                            <instance_material symbol="Material-broken_glass" target="#Material-broken_glass">
                                <bind_vertex_input semantic="uvSet1__2_" input_semantic="TEXCOORD" input_set="0" />
                            </instance_material>
                        </technique_common>
                    </bind_material>
                </instance_geometry>
            </node>
            <node id="Camera-camera002Node" name="Camera" type="NODE">
                <matrix sid="transform">1 0 0 0 0 0.996195 0.0871557 0.75 0 -0.0871557 0.996195 4 0 0 0 1</matrix>
                <instance_camera url="#Camera-camera002" />
            </node>
            <node id="groupLocator021Node" name="Texture_Group" type="NODE">
                <matrix sid="transform">1 0 0 0 0 1 0 0 0 0 1 0 0 0 0 1</matrix>
                <node id="txtrLocator029Node" name="01_05_transporter_passenger_broken_glass__Image___Texture_" type="NODE">
                    <matrix sid="transform">1 0 0 0 0 1 0 0 0 0 1 0 0 0 0 1</matrix>
                </node>
            </node>
            <node id="Light-sunLight011Node" name="Directional_Light" type="NODE">
                <matrix sid="transform">0.707107 0.353553 -0.612372 -2 0 0.866025 0.5 2 0.707107 -0.353553 0.612372 2 0 0 0 1</matrix>
                <instance_light url="#Light-sunLight011" />
            </node>
        </visual_scene>
    </library_visual_scenes>
    <scene>
        <instance_visual_scene url="#DefaultScene" />
    </scene>
</COLLADA>
