<?xml version="1.0" encoding="utf-8"?>
<COLLADA xmlns="http://www.collada.org/2005/11/COLLADASchema" version="1.4.1">
  <asset>
    <contributor>
      <author>Wynn</author>
      <authoring_tool>OpenCOLLADA for 3ds Max;  Version: 1.3.1;  Revision: 847M;  Platform: x64;  Configuration: Release_Max2012_static</authoring_tool>
      <source_data>file:///D:/Files/Google%20Drive/Work/ArtBully%20Productions/Frictional%20Games/Project%20Depth/slide_door_data_tunnel/slidedoor_data_tunnel_072312.max</source_data>
    </contributor>
    <created>2012-07-23T17:00:03</created>
    <modified>2012-07-23T17:00:03</modified>
    <unit name="meter" meter="0.5"/>
    <up_axis>Z_UP</up_axis>
  </asset>
  <library_effects>
    <effect id="slidedoor_data_tunnel">
      <profile_COMMON>
        <newparam sid="slide_door_data_tunnel_dds-surface">
          <surface type="2D">
            <init_from>slide_door_data_tunnel_dds</init_from>
          </surface>
        </newparam>
        <newparam sid="slide_door_data_tunnel_dds-sampler">
          <sampler2D>
            <source>slide_door_data_tunnel_dds-surface</source>
          </sampler2D>
        </newparam>
        <newparam sid="slide_door_data_tunnel_spec_dds-surface">
          <surface type="2D">
            <init_from>slide_door_data_tunnel_spec_dds</init_from>
          </surface>
        </newparam>
        <newparam sid="slide_door_data_tunnel_spec_dds-sampler">
          <sampler2D>
            <source>slide_door_data_tunnel_spec_dds-surface</source>
          </sampler2D>
        </newparam>
        <technique sid="common">
          <blinn>
            <emission>
              <color>0 0 0 1</color>
            </emission>
            <ambient>
              <color>0.5882353 0.5882353 0.5882353 1</color>
            </ambient>
            <diffuse>
              <texture texture="slide_door_data_tunnel_dds-sampler" texcoord="CHANNEL1"/>
            </diffuse>
            <specular>
              <color>0.9 0.9 0.9 1</color>
            </specular>
            <shininess>
              <float>9.999999</float>
            </shininess>
            <reflective>
              <color>0 0 0 1</color>
            </reflective>
            <transparent opaque="A_ONE">
              <color>1 1 1 1</color>
            </transparent>
            <transparency>
              <float>1</float>
            </transparency>
          </blinn>
          <extra>
            <technique profile="OpenCOLLADA3dsMax">
              <specularLevel>
                <texture texture="slide_door_data_tunnel_spec_dds-sampler" texcoord="CHANNEL1"/>
              </specularLevel>
            </technique>
          </extra>
        </technique>
      </profile_COMMON>
      <extra>
        <technique profile="OpenCOLLADA3dsMax">
          <extended_shader>
            <apply_reflection_dimming>0</apply_reflection_dimming>
            <dim_level>0</dim_level>
            <falloff_type>0</falloff_type>
            <index_of_refraction>1.5</index_of_refraction>
            <opacity_type>0</opacity_type>
            <reflection_level>3</reflection_level>
            <wire_size>1</wire_size>
            <wire_units>0</wire_units>
          </extended_shader>
          <shader>
            <ambient_diffuse_lock>1</ambient_diffuse_lock>
            <ambient_diffuse_texture_lock>1</ambient_diffuse_texture_lock>
            <diffuse_specular_lock>0</diffuse_specular_lock>
            <soften>0.1</soften>
            <use_self_illum_color>0</use_self_illum_color>
          </shader>
        </technique>
      </extra>
    </effect>
  </library_effects>
  <library_materials>
    <material id="slidedoor_data_tunnel-material" name="slidedoor_data_tunnel">
      <instance_effect url="#slidedoor_data_tunnel"/>
    </material>
  </library_materials>
  <library_geometries>
    <geometry id="geom-Circle001" name="Circle001">
      <spline closed="1">
        <source id="geom-Circle001-positions">
          <float_array id="geom-Circle001-positions-array" count="12">7.942971 0 0 -3.47198e-7 7.942971 0 -7.942971 -6.94397e-7 0 9.4719e-8 -7.942971 0</float_array>
          <technique_common>
            <accessor source="#geom-Circle001-positions-array" count="4" stride="3">
              <param name="X" type="float"/>
              <param name="Y" type="float"/>
              <param name="Z" type="float"/>
            </accessor>
          </technique_common>
        </source>
        <source id="geom-Circle001-intangents">
          <float_array id="geom-Circle001-intangents-array" count="12">7.942971 -4.382822 0 4.382821 7.942971 0 -7.942971 4.382821 0 -4.382822 -7.942971 0</float_array>
          <technique_common>
            <accessor source="#geom-Circle001-intangents-array" count="4" stride="3">
              <param name="X" type="float"/>
              <param name="Y" type="float"/>
              <param name="Z" type="float"/>
            </accessor>
          </technique_common>
        </source>
        <source id="geom-Circle001-outtangents">
          <float_array id="geom-Circle001-outtangents-array" count="12">7.942971 4.382822 0 -4.382822 7.942971 0 -7.94297 -4.382822 0 4.382822 -7.942971 0</float_array>
          <technique_common>
            <accessor source="#geom-Circle001-outtangents-array" count="4" stride="3">
              <param name="X" type="float"/>
              <param name="Y" type="float"/>
              <param name="Z" type="float"/>
            </accessor>
          </technique_common>
        </source>
        <source id="geom-Circle001-interpolations">
          <Name_array id="geom-Circle001-interpolations-array" count="4">BEZIER BEZIER BEZIER BEZIER</Name_array>
          <technique_common>
            <accessor source="#geom-Circle001-interpolations-array" count="4" stride="1">
              <param name="INTERPOLATION" type="name"/>
            </accessor>
          </technique_common>
        </source>
        <control_vertices>
          <input semantic="POSITION" source="#geom-Circle001-positions"/>
          <input semantic="IN_TANGENT" source="#geom-Circle001-intangents"/>
          <input semantic="OUT_TANGENT" source="#geom-Circle001-outtangents"/>
          <input semantic="INTERPOLATION" source="#geom-Circle001-interpolations"/>
        </control_vertices>
      </spline>
    </geometry>
    <geometry id="geom-Circle002" name="Circle002">
      <spline closed="1">
        <source id="geom-Circle002-positions">
          <float_array id="geom-Circle002-positions-array" count="12">8.265488 0 0 -3.61296e-7 8.265488 0 -8.265488 -7.22592e-7 0 9.8565e-8 -8.265488 0</float_array>
          <technique_common>
            <accessor source="#geom-Circle002-positions-array" count="4" stride="3">
              <param name="X" type="float"/>
              <param name="Y" type="float"/>
              <param name="Z" type="float"/>
            </accessor>
          </technique_common>
        </source>
        <source id="geom-Circle002-intangents">
          <float_array id="geom-Circle002-intangents-array" count="12">8.265488 -4.560782 0 4.560781 8.265488 0 -8.265488 4.560781 0 -4.560782 -8.265488 0</float_array>
          <technique_common>
            <accessor source="#geom-Circle002-intangents-array" count="4" stride="3">
              <param name="X" type="float"/>
              <param name="Y" type="float"/>
              <param name="Z" type="float"/>
            </accessor>
          </technique_common>
        </source>
        <source id="geom-Circle002-outtangents">
          <float_array id="geom-Circle002-outtangents-array" count="12">8.265488 4.560782 0 -4.560782 8.265488 0 -8.265488 -4.560783 0 4.560782 -8.265488 0</float_array>
          <technique_common>
            <accessor source="#geom-Circle002-outtangents-array" count="4" stride="3">
              <param name="X" type="float"/>
              <param name="Y" type="float"/>
              <param name="Z" type="float"/>
            </accessor>
          </technique_common>
        </source>
        <source id="geom-Circle002-interpolations">
          <Name_array id="geom-Circle002-interpolations-array" count="4">BEZIER BEZIER BEZIER BEZIER</Name_array>
          <technique_common>
            <accessor source="#geom-Circle002-interpolations-array" count="4" stride="1">
              <param name="INTERPOLATION" type="name"/>
            </accessor>
          </technique_common>
        </source>
        <control_vertices>
          <input semantic="POSITION" source="#geom-Circle002-positions"/>
          <input semantic="IN_TANGENT" source="#geom-Circle002-intangents"/>
          <input semantic="OUT_TANGENT" source="#geom-Circle002-outtangents"/>
          <input semantic="INTERPOLATION" source="#geom-Circle002-interpolations"/>
        </control_vertices>
      </spline>
    </geometry>
    <geometry id="geom-slidedoor_data_tunnel_door_LP" name="slidedoor_data_tunnel_door_LP">
      <mesh>
        <source id="geom-slidedoor_data_tunnel_door_LP-positions">
          <float_array id="geom-slidedoor_data_tunnel_door_LP-positions-array" count="1188">6.94693 -2.33068 0.3762499 6.94693 -2.426636 0.4919893 6.94693 -3.800295 0.4919894 6.881401 3.554645 0.3762499 6.874646 3.561143 0.4049461 6.389918 3.784592 0.5379739 3.018996 7.155514 0.5069164 -6.900722 3.554645 0.3762499 -6.966252 -2.33068 0.3762499 -6.966252 -2.426636 0.4919893 -6.966252 -3.800295 0.4919894 -6.893968 3.561143 0.4049461 -6.409239 3.784592 0.5379739 -3.038317 7.155514 0.5069164 5.648315 4.526195 0.5379738 -5.667636 4.526195 0.5379738 -5.562464 4.631368 0.5069165 5.543142 4.631368 0.5069165 4.859631 2.46304 0.4723575 4.859631 2.452964 0.4831434 4.766244 2.298317 0.4831434 4.766244 2.288696 0.4727437 4.766244 1.09356 0.4723575 4.766244 1.103636 0.4831434 4.766244 1.258283 0.4831434 4.766244 1.267905 0.4727437 4.857478 -1.303801 0.4723575 4.857478 -1.293725 0.4831434 4.766244 -1.139077 0.4831434 4.766244 -1.129456 0.4727437 4.766244 0.06567931 0.4723575 4.766244 0.05560327 0.4831434 4.766244 -0.09904408 0.4831434 4.766244 -0.1086652 0.4727437 4.953017 2.298317 0.4831434 4.953017 2.288696 0.4727437 4.953017 1.09356 0.4723575 4.953017 1.103636 0.4831434 4.953017 1.258283 0.4831434 4.953017 1.267905 0.4727437 6.944509 -1.303801 0.4723575 6.944509 -1.293725 0.4831434 4.953017 -1.139077 0.4831434 4.953017 -1.129456 0.4727437 4.953017 0.06567931 0.4723575 4.953017 0.05560327 0.4831434 4.953017 -0.09904408 0.4831434 4.953017 -0.1086652 0.4727437 6.944509 2.46304 0.4723575 6.944509 2.452964 0.4831434 6.944509 2.298317 0.4831434 6.944509 2.288696 0.4727437 6.944509 1.09356 0.4723575 6.944509 1.103636 0.4831434 6.944509 1.258283 0.4831434 6.944509 1.267905 0.4727438 6.944509 -1.139077 0.4831434 6.944509 -1.129456 0.4727437 6.944509 0.06567931 0.4723575 6.944509 0.05560327 0.4831434 6.944509 -0.09904408 0.4831434 6.944509 -0.1086652 0.4727437 -4.785566 2.298317 0.4831434 -4.785566 2.288696 0.4727437 -4.785566 1.09356 0.4723575 -4.785566 1.103636 0.4831434 -4.785566 1.258283 0.4831434 -4.785566 1.267905 0.4727437 -4.86937 -1.303801 0.4723575 -4.86937 -1.293725 0.4831434 -4.785566 -1.139077 0.4831434 -4.785566 -1.129456 0.4727437 -4.785566 0.06567931 0.4723575 -4.785566 0.05560327 0.4831434 -4.785566 -0.09904408 0.4831434 -4.785566 -0.1086652 0.4727437 -4.878952 2.46304 0.4723575 -4.878952 2.452964 0.4831434 -4.972339 2.298317 0.4831434 -4.972339 2.288696 0.4727437 -4.972339 1.09356 0.4723575 -4.972339 1.103636 0.4831434 -4.972339 1.258283 0.4831434 -4.972339 1.267905 0.4727437 -4.972339 -1.139077 0.4831434 -4.972339 -1.129456 0.4727437 -4.972339 0.05560327 0.4831434 -4.972339 0.06567931 0.4723575 -4.972339 -0.09904408 0.4831434 -4.972339 -0.1086652 0.4727437 -6.96383 2.46304 0.4723575 -6.96383 2.452964 0.4831434 -6.96383 2.298317 0.4831434 -6.96383 2.288696 0.4727437 -6.96383 1.09356 0.4723575 -6.96383 1.103636 0.4831434 -6.96383 1.258283 0.4831434 -6.96383 1.267905 0.4727438 -6.96383 -1.303801 0.4723575 -6.96383 -1.293725 0.4831434 -6.96383 -1.139077 0.4831434 -6.96383 -1.129456 0.4727437 -6.96383 0.06567931 0.4723575 -6.96383 0.05560327 0.4831434 -6.96383 -0.09904408 0.4831434 -6.96383 -0.1086652 0.4727437 4.766244 2.288696 0.3530576 4.766244 1.09356 0.3600863 4.766244 1.267905 0.3530576 4.857478 -1.303801 0.3600863 4.766244 -1.129456 0.3530576 4.766244 0.06567931 0.3600863 4.766244 -0.1086652 0.3530576 4.859631 2.46304 0.3600863 4.953017 2.288696 0.3530576 4.953017 1.09356 0.3600863 4.953017 1.267905 0.3530576 6.944509 -1.303801 0.3600863 4.953017 -1.129456 0.3530576 4.953017 0.06567931 0.3600863 4.953017 -0.1086652 0.3530576 6.944509 2.46304 0.3600863 6.944509 2.288696 0.3530576 6.944509 1.09356 0.3600863 6.944509 1.267905 0.3530576 6.944509 -1.129456 0.3530576 6.944509 0.06567931 0.3600863 6.944509 -0.1086652 0.3530576 -4.878952 2.46304 0.3600863 -4.785566 2.288696 0.3530576 -4.785566 1.09356 0.3600863 -4.785566 1.267905 0.3530576 -4.86937 -1.303801 0.3600863 -4.785566 -1.129456 0.3530576 -4.785566 0.06567931 0.3600863 -4.785566 -0.1086652 0.3530576 -4.972339 2.288696 0.3530576 -4.972339 1.09356 0.3600863 -4.972339 1.267905 0.3530576 -4.972339 -1.129456 0.3530576 -4.972339 0.06567931 0.3600863 -4.972339 -0.1086652 0.3530576 -6.96383 2.46304 0.3600863 -6.96383 2.288696 0.3530576 -6.96383 1.09356 0.3600863 -6.96383 1.267905 0.3530576 -6.96383 -1.303801 0.3600863 -6.96383 -1.129456 0.3530576 -6.96383 0.06567931 0.3600863 -6.96383 -0.1086652 0.3530576 4.84243 3.436936 0.3717638 4.84243 3.10825 0.3717638 5.015499 3.10825 0.3717638 5.015499 3.436936 0.3717638 4.883081 3.396284 0.4708935 4.883081 3.148901 0.4708935 4.974847 3.148902 0.4708935 4.974847 3.396284 0.4708935 4.575007 3.436936 0.3717638 4.575007 3.10825 0.3717638 4.748076 3.10825 0.3717638 4.748076 3.436936 0.3717638 4.615659 3.396284 0.4708935 4.615659 3.148901 0.4708935 4.707424 3.148902 0.4708935 4.707424 3.396284 0.4708935 4.682612 2.968565 0.3705002 4.893153 2.968565 0.3705002 4.893153 3.079425 0.3705002 4.682612 3.079425 0.3705002 4.708652 2.994605 0.4339978 4.867114 2.994605 0.4339978 4.867114 3.053385 0.4339978 4.708652 3.053385 0.4339978 -4.902403 3.148901 0.4708935 -4.994168 3.148902 0.4708935 -4.994168 3.396284 0.4708935 -4.902403 3.396284 0.4708935 -4.861751 3.10825 0.3717638 -4.861751 3.436936 0.3717638 -5.03482 3.10825 0.3717638 -5.03482 3.436936 0.3717638 -4.63498 3.148901 0.4708935 -4.726746 3.148902 0.4708935 -4.726746 3.396284 0.4708935 -4.63498 3.396284 0.4708935 -4.594328 3.10825 0.3717638 -4.594328 3.436936 0.3717638 -4.767397 3.10825 0.3717638 -4.767397 3.436936 0.3717638 -4.886435 2.994605 0.4339978 -4.886435 3.053385 0.4339978 -4.727973 3.053386 0.4339978 -4.727973 2.994605 0.4339978 -4.912475 2.968565 0.3705002 -4.701934 2.968565 0.3705002 -4.912475 3.079425 0.3705002 -4.701934 3.079425 0.3705002 6.881401 3.554645 0.2412352 -6.900722 3.554645 0.2412352 -6.966252 -2.33068 0.2412352 6.94693 -2.33068 0.2412352 6.874646 3.561143 0.212539 6.389918 3.784592 0.07951123 -6.409239 3.784592 0.07951123 -6.893968 3.561143 0.212539 -6.966252 -2.426636 0.1254958 6.94693 -2.426636 0.1254958 -6.966252 -3.800295 0.1254957 6.94693 -3.800295 0.1254957 5.648315 4.526195 0.07951128 -5.667636 4.526195 0.07951128 5.543142 4.631368 0.1105686 -5.562464 4.631368 0.1105686 3.018996 7.155514 0.1105687 -3.038317 7.155514 0.1105687 4.859631 2.46304 0.2573988 -4.878952 2.46304 0.2573988 -4.878952 2.46304 0.1451276 4.859631 2.46304 0.1451276 -4.878952 2.452964 0.1343417 4.859631 2.452964 0.1343417 -4.785566 2.298317 0.1343417 4.766244 2.298317 0.1343417 4.766244 1.09356 0.2573988 4.766244 1.09356 0.1451276 -4.785566 1.09356 0.1451276 -4.785566 1.09356 0.2573988 4.766244 1.103636 0.1343417 -4.785566 1.103636 0.1343417 4.766244 1.258283 0.1343417 -4.785566 1.258283 0.1343417 4.766244 1.267905 0.1447414 -4.785566 1.267905 0.1447414 4.766244 1.267905 0.2644275 -4.785566 1.267905 0.2644275 4.857478 -1.303801 0.2573988 4.857478 -1.303801 0.1451276 -4.86937 -1.303801 0.1451276 -4.86937 -1.303801 0.2573988 4.857478 -1.293725 0.1343417 -4.86937 -1.293725 0.1343417 4.766244 -1.139077 0.1343417 -4.785566 -1.139077 0.1343417 4.766244 -1.129456 0.1447414 -4.785566 -1.129456 0.1447414 4.766244 0.06567931 0.2573988 -4.785566 0.06567931 0.2573988 -4.785566 0.06567931 0.1451276 4.766244 0.06567931 0.1451276 -4.785566 0.05560327 0.1343417 4.766244 0.05560327 0.1343417 -4.785566 -0.09904408 0.1343417 4.766244 -0.09904408 0.1343417 -4.785566 -0.1086652 0.1447414 4.766244 -0.1086652 0.1447414 4.953017 2.298317 0.1343417 4.766244 2.288696 0.1447414 4.953017 2.288696 0.1447414 4.953017 1.09356 0.1451276 4.953017 1.103636 0.1343417 4.953017 1.258283 0.1343417 4.953017 1.267905 0.1447414 4.953017 -1.139077 0.1343417 4.953017 -1.129456 0.1447414 4.953017 0.05560327 0.1343417 4.953017 0.06567931 0.1451276 4.953017 -0.09904408 0.1343417 4.953017 -0.1086652 0.1447414 6.944509 2.46304 0.1451276 6.944509 2.46304 0.2573988 6.944509 2.452964 0.1343417 6.944509 2.298317 0.1343417 6.944509 2.288696 0.1447414 4.953017 2.288696 0.2644275 6.944509 2.288696 0.2644275 4.953017 1.09356 0.2573988 6.944509 1.09356 0.2573988 6.944509 1.09356 0.1451276 6.944509 1.103636 0.1343417 6.944509 1.258283 0.1343417 6.944509 1.267905 0.1447413 4.953017 1.267905 0.2644275 6.944509 1.267905 0.2644275 6.944509 -1.139077 0.1343417 6.944509 -1.129456 0.1447414 4.953017 -1.129456 0.2644275 6.944509 -1.129456 0.2644275 4.953017 0.06567931 0.2573988 6.944509 0.06567931 0.1451276 6.944509 0.06567931 0.2573988 6.944509 0.05560327 0.1343417 6.944509 -0.09904408 0.1343417 6.944509 -0.1086652 0.1447414 4.953017 -0.1086652 0.2644275 6.944509 -0.1086652 0.2644275 4.766244 2.288696 0.2644275 4.766244 -1.129456 0.2644275 4.766244 -0.1086652 0.2644275 -4.785566 2.288696 0.1447414 -4.785566 2.288696 0.2644275 -4.785566 -1.129456 0.2644275 -4.785566 -0.1086652 0.2644275 -4.972339 2.298317 0.1343417 -4.972339 2.288696 0.1447414 -4.972339 1.103636 0.1343417 -4.972339 1.09356 0.1451276 -4.972339 1.258283 0.1343417 -4.972339 1.267905 0.1447414 -6.96383 -1.303801 0.1451276 -6.96383 -1.303801 0.2573988 -6.96383 -1.293725 0.1343417 -4.972339 -1.139077 0.1343417 -4.972339 -1.129456 0.1447414 -4.972339 0.06567931 0.1451276 -4.972339 0.05560327 0.1343417 -4.972339 -0.09904408 0.1343417 -4.972339 -0.1086652 0.1447414 -6.96383 2.46304 0.2573988 -6.96383 2.46304 0.1451276 -6.96383 2.452964 0.1343417 -6.96383 2.298317 0.1343417 -6.96383 2.288696 0.1447414 -6.96383 2.288696 0.2644275 -4.972339 2.288696 0.2644275 -6.96383 1.09356 0.1451276 -6.96383 1.09356 0.2573988 -4.972339 1.09356 0.2573988 -6.96383 1.103636 0.1343417 -6.96383 1.258283 0.1343417 -6.96383 1.267905 0.1447413 -4.972339 1.267905 0.2644275 -6.96383 1.267905 0.2644275 -6.96383 -1.129456 0.1447414 -6.96383 -1.139077 0.1343417 -4.972339 -1.129456 0.2644275 -6.96383 -1.129456 0.2644275 -4.972339 0.06567931 0.2573988 -6.96383 0.06567931 0.2573988 -6.96383 0.06567931 0.1451276 -6.96383 0.05560327 0.1343417 -6.96383 -0.09904408 0.1343417 -6.96383 -0.1086652 0.1447414 -6.96383 -0.1086652 0.2644275 -4.972339 -0.1086652 0.2644275 6.944509 -1.303801 0.2573988 6.944509 -1.303801 0.1451276 6.944509 -1.293725 0.1343417 4.883081 3.148901 0.1465916 4.974847 3.148902 0.1465916 4.974847 3.396284 0.1465916 4.883081 3.396284 0.1465916 4.84243 3.10825 0.2457213 4.84243 3.436936 0.2457213 5.015499 3.10825 0.2457213 5.015499 3.436936 0.2457213 4.615659 3.148901 0.1465916 4.707424 3.148902 0.1465916 4.707424 3.396284 0.1465916 4.615659 3.396284 0.1465916 4.575007 3.10825 0.2457213 4.575007 3.436936 0.2457213 4.748076 3.10825 0.2457213 4.748076 3.436936 0.2457213 4.867114 2.994605 0.1834874 4.867114 3.053385 0.1834874 4.708652 3.053385 0.1834874 4.708652 2.994605 0.1834874 4.893153 2.968565 0.2469849 4.682612 2.968565 0.2469849 4.893153 3.079425 0.2469849 4.682612 3.079425 0.2469849 -4.902403 3.148901 0.1465916 -4.902403 3.396284 0.1465916 -4.994168 3.396284 0.1465916 -4.994168 3.148902 0.1465916 -4.861751 3.10825 0.2457213 -4.861751 3.436936 0.2457213 -5.03482 3.10825 0.2457213 -5.03482 3.436936 0.2457213 -4.63498 3.148901 0.1465916 -4.63498 3.396284 0.1465916 -4.726746 3.396284 0.1465916 -4.726746 3.148902 0.1465916 -4.594328 3.10825 0.2457213 -4.594328 3.436936 0.2457213 -4.767397 3.10825 0.2457213 -4.767397 3.436936 0.2457213 -4.886435 2.994605 0.1834874 -4.727973 2.994605 0.1834874 -4.727973 3.053386 0.1834874 -4.886435 3.053385 0.1834874 -4.912475 2.968565 0.2469849 -4.701934 2.968565 0.2469849 -4.912475 3.079425 0.2469849 -4.701934 3.079425 0.2469849</float_array>
          <technique_common>
            <accessor source="#geom-slidedoor_data_tunnel_door_LP-positions-array" count="396" stride="3">
              <param name="X" type="float"/>
              <param name="Y" type="float"/>
              <param name="Z" type="float"/>
            </accessor>
          </technique_common>
        </source>
        <source id="geom-slidedoor_data_tunnel_door_LP-normals">
          <float_array id="geom-slidedoor_data_tunnel_door_LP-normals-array" count="2388">0 0 1 0 0 1 0 0 1 0 0 1 0 -0.511547 0.8592553 0 -0.4047454 0.9144294 0 -0.4047454 0.9144294 0 -0.511547 0.8592554 0 0.7698328 0.6382455 0 0.7698329 0.6382455 0 0.7698328 0.6382455 0 0.7698329 0.6382455 0 4.33912e-8 1 0 4.33912e-8 1 0 4.33912e-8 1 0 4.33912e-8 1 0 -0.975309 0.220845 0 -0.9753089 0.220845 0 -0.975309 0.220845 0 -0.9753089 0.220845 0 0.07277374 0.9973485 0 0.07277345 0.9973485 0 0.2832077 0.9590586 0 0.2832076 0.9590587 0 2.36138e-8 1 0 2.36138e-8 1 0 2.36138e-8 1 0 2.36138e-8 1 0 1 0 0 1 0 1.18132e-11 0.9302539 0.3669166 -1.18133e-11 0.9302551 0.3669134 0 0.7307443 0.6826512 0 0.7307444 0.6826513 0 0 1 0 0 1 0 0 1 0 0 1 0 -1 0 0 -0.8744876 0.4850479 0 -0.8744876 0.4850479 0 -1 0 0 -0.7307444 0.6826513 0 -0.7307442 0.6826513 0 0 1 0 0 1 0 0 1 0 0 1 0 0.7340485 0.6790971 0 0.8761048 0.4821207 0 0.8761053 0.4821198 0 0.7340485 0.6790971 0 1 0 0 1 0 0 -1 0 0 -0.9302532 0.3669182 0 -0.9302537 0.3669168 0 -1 0 0 -0.7307444 0.6826512 0 -0.7307443 0.6826513 0 -1.92711e-7 1 0 -1.92711e-7 1 0 -1.92711e-7 1 0 -1.92711e-7 1 0 0.8761058 0.4821189 0 0.8761053 0.4821197 0 0.7340494 0.679096 0 0.7340494 0.679096 0 1 0 0 1 0 0 0.8744881 0.485047 0 0.8744881 0.4850471 0 0.7307453 0.6826503 0 0.7307453 0.6826503 0 0 1 0 0 1 0 0 1 0 0 1 0 -0.7340494 0.679096 0 -0.8761053 0.4821197 0 -0.8761058 0.4821188 0 -0.7340495 0.679096 0 0 1 0 -0.7340484 0.6790971 0 -0.8761053 0.4821198 0 -0.8761048 0.4821208 0 -0.7340485 0.6790971 0 -0.8744876 0.4850479 0 -0.7307443 0.6826513 0 0 1 0 0 1 0 0.7340484 0.6790971 -1.63466e-11 0.8761048 0.4821208 0 -1.92712e-7 1 0 0.7340495 0.679096 0 0.8761052 0.4821199 0 0.7307453 0.6826503 0 0.8744879 0.4850473 0 0 1 0 0 1 0 -0.8761054 0.4821198 0 -0.7340494 0.679096 -5.2449e-9 0.9302536 0.3669173 0 1 0 -9.71422e-9 0.7307433 0.6826522 0 0 1 0 0 1 0 -0.9311412 0.3646589 0 -0.7340485 0.6790971 0 -1 0 0 -1 0 0 -1 0 0 -1 0 0 -0.9302537 0.3669169 0 -0.7307443 0.6826513 0 0 1 0 0 1 -1.01165e-8 0.7340475 0.6790981 -5.45706e-9 0.9311411 0.3646591 0 1 0 0 1 0 0 0.7340494 0.679096 0 0.9311416 0.3646578 0 1 0 0 1 0 0 1 0 0 0.9302541 0.366916 0 1 0 0 0.7307453 0.6826502 0 0 1 0 0 1 0 -0.9311414 0.3646582 0 -0.7340495 0.679096 0 -1 0 0 -1 0 1 0 0 1 0 0 1 0 0 1 0 0 0 0 1 0 0 1 0 0 1 0 0 1 -1 0 0 -1 0 0 -1 0 0 -1 0 0 1 0 0 1 0 0 1 0 0 1 0 0 0 0 1 0 0 1 0 0 1 0 0 1 -1 0 0 -1 0 0 -1 0 0 -1 0 0 1 0 0 1 0 0 1 0 0 1 0 0 -1 0 0 -1 0 0 -1 0 0 -1 0 0 0 0 1 0 0 1 0 0 1 0 0 1 0 -0.7340485 0.6790971 0 -0.8761049 0.4821206 0 -1 0 0 -1 0 0 1 0 0 1 0 0 -1 0 0 -1 0 0 0 1 0 -0.7340485 0.6790971 0 -0.8761048 0.4821208 0 -0.7307443 0.6826513 0 -0.8744875 0.4850479 0 0 1 0 0 1 1.63466e-11 0.8761048 0.4821208 0 0.7340484 0.6790971 0 -0.930254 0.3669161 0 -1 0 0 -0.7307443 0.6826513 0 -1.92711e-7 1 0 0.8761052 0.4821199 0 0.7340495 0.679096 0 0.8744879 0.4850472 0 0.7307453 0.6826503 0 0 1 0 0 1 0 -0.7340494 0.679096 0 -0.8761053 0.4821198 0 1 0 5.2449e-9 0.9302536 0.3669173 9.71422e-9 0.7307433 0.6826522 0 0 1 0 0 1 0 -0.7340485 0.6790971 0 -0.9311412 0.3646589 0 -1 0 0 -1 0 0 -0.9302537 0.3669169 0 -1 0 0 -1 0 0 -0.7307443 0.6826513 0 0 1 0 0 1 5.45706e-9 0.9311411 0.3646591 1.01165e-8 0.7340475 0.6790981 0 1 0 0 1 0 0 0.9311416 0.3646578 0 0.7340494 0.679096 0 1 0 0 1 0 0 1 0 0 1 0 0 0.9302541 0.366916 0 0.7307453 0.6826502 0 0 1 0 0 1 0 -0.7340495 0.679096 0 -0.9311414 0.3646582 0 -1 0 0 -1 0 -1 0 0 -1 0 0 -1 0 0 -1 0 0 0 0 1 0 0 1 0 0 1 0 0 1 1 0 0 1 0 0 1 0 0 1 0 0 -1 0 0 -1 0 0 -1 0 0 -1 0 0 0 0 1 0 0 1 0 0 1 0 0 1 1 0 0 1 0 0 1 0 0 1 0 0 -1 0 0 -1 0 0 -1 0 0 -1 0 0 1 0 0 1 0 0 1 0 0 1 0 0 0 0 1 0 0 1 0 0 1 0 0 1 0 -1 0 0 -0.9302537 0.3669171 0 -0.7307443 0.6826513 0 -1.92712e-7 1 0 -1.92712e-7 1 0 -1.92712e-7 1 0 -1.92712e-7 1 0 0 1 0 0 1 0 0 1 0 0 1 -0.9252236 0 0.3794222 -0.9252236 0 0.3794222 -0.9252236 0 0.3794222 -0.9252236 0 0.3794222 2.10063e-6 -0.9252242 0.3794208 4.8077e-6 -0.9252229 0.3794239 1.69158e-6 -0.9252244 0.3794204 0 -0.9252252 0.3794184 0.9252236 0 0.3794222 0.9252236 0 0.3794222 0.9252236 0 0.3794222 0.9252236 0 0.3794222 0 0.9252253 0.3794184 0 0.9252252 0.3794184 0 0.9252252 0.3794184 0 0.9252252 0.3794184 0 0 1 0 0 1 0 0 1 0 0 1 -0.9252236 0 0.3794222 -0.9252236 0 0.3794222 -0.9252236 0 0.3794222 -0.9252236 0 0.3794222 2.10063e-6 -0.9252242 0.3794208 4.8077e-6 -0.9252229 0.3794239 1.69158e-6 -0.9252244 0.3794204 0 -0.9252252 0.3794184 0.9252236 0 0.3794222 0.9252236 0 0.3794222 0.9252236 0 0.3794222 0.9252236 0 0.3794222 0 0.9252253 0.3794184 0 0.9252252 0.3794184 0 0.9252252 0.3794184 0 0.9252252 0.3794184 0 0 1 0 0 1 0 0 1 0 0 1 1.96349e-6 -0.9252212 0.3794281 2.78414e-6 -0.9252204 0.3794301 5.12804e-7 -0.9252228 0.3794245 0 -0.9252232 0.3794233 0.9252232 0 0.3794232 0.9252232 0 0.3794232 0.9252232 0 0.3794232 0.9252232 0 0.3794232 1.9635e-6 0.9252228 0.3794243 2.78415e-6 0.9252236 0.3794222 5.12804e-7 0.9252213 0.3794279 0 0.9252208 0.3794292 -0.9252232 0 0.3794232 -0.9252232 0 0.3794232 -0.9252232 0 0.3794232 -0.9252232 0 0.3794232 0 0 1 0 0 1 0 0 1 0 0 1 0.9252236 0 0.3794222 0.9252236 0 0.3794222 0.9252236 0 0.3794222 0.9252236 0 0.3794222 -4.20125e-6 -0.9252232 0.3794232 0 -0.9252252 0.3794184 -3.38316e-6 -0.9252236 0.3794223 -9.61538e-6 -0.9252207 0.3794294 -0.9252236 0 0.3794222 -0.9252236 0 0.3794222 -0.9252236 0 0.3794222 -0.9252236 0 0.3794222 0 0.9252253 0.3794184 0 0.9252252 0.3794184 0 0.9252252 0.3794184 0 0.9252252 0.3794184 0 0 1 0 0 1 0 0 1 0 0 1 0.9252236 0 0.3794222 0.9252236 0 0.3794222 0.9252236 0 0.3794222 0.9252236 0 0.3794222 -4.20125e-6 -0.9252232 0.3794232 0 -0.9252252 0.3794184 -3.38316e-6 -0.9252236 0.3794223 -9.61538e-6 -0.9252207 0.3794294 -0.9252236 0 0.3794222 -0.9252236 0 0.3794222 -0.9252236 0 0.3794222 -0.9252236 0 0.3794222 0 0.9252253 0.3794184 0 0.9252252 0.3794184 0 0.9252252 0.3794184 0 0.9252252 0.3794184 0 0 1 0 0 1 0 0 1 0 0 1 0 -0.9252208 0.3794291 0 -0.9252208 0.3794292 0 -0.9252208 0.3794292 0 -0.9252208 0.3794292 -0.9252232 0 0.3794232 -0.9252232 0 0.3794232 -0.9252232 0 0.3794232 -0.9252232 0 0.3794232 -3.927e-6 0.9252248 0.3794194 0 0.9252208 0.3794292 -1.02561e-6 0.9252218 0.3794267 -5.56832e-6 0.9252264 0.3794153 0.9252232 0 0.3794232 0.9252232 0 0.3794232 0.9252232 0 0.3794232 0.9252232 0 0.3794232 0 0 -1 0 0 -1 0 0 -1 0 0 -1 0 -0.511547 -0.8592553 0 -0.511547 -0.8592554 0 -0.4047454 -0.9144294 0 -0.4047454 -0.9144294 0 0.7698328 -0.6382455 0 0.7698329 -0.6382455 0 0.7698328 -0.6382455 0 0.7698329 -0.6382455 0 4.33912e-8 -1 0 4.33912e-8 -1 0 4.33912e-8 -1 0 4.33912e-8 -1 0 -0.975309 -0.220845 0 -0.9753089 -0.220845 0 -0.975309 -0.220845 0 -0.9753089 -0.220845 0 0.07277374 -0.9973485 0 0.07277345 -0.9973485 0 0.2832077 -0.9590586 0 0.2832076 -0.9590587 0 2.36138e-8 -1 0 2.36138e-8 -1 0 2.36138e-8 -1 0 2.36138e-8 -1 0 1 0 -1.18133e-11 0.9302551 -0.3669134 1.18132e-11 0.9302539 -0.3669166 0 1 0 0 0.7307444 -0.6826513 0 0.7307443 -0.6826512 0 0 -1 0 0 -1 0 0 -1 0 0 -1 0 -1 0 0 -1 0 0 -0.8744876 -0.4850479 0 -0.8744876 -0.4850479 0 -0.7307443 -0.6826513 0 -0.7307444 -0.6826512 0 0 -1 0 0 -1 0 0 -1 0 0 -1 0 0.7340485 -0.6790971 0 0.7340485 -0.6790971 0 0.8761053 -0.4821198 0 0.8761048 -0.4821207 0 1 0 0 1 0 0 -1 0 0 -1 0 0 -0.9302537 -0.3669168 0 -0.9302532 -0.3669182 0 -0.7307443 -0.6826512 0 -0.7307443 -0.6826513 0 -1.92711e-7 -1 0 -1.92711e-7 -1 0 -1.92711e-7 -1 0 -1.92711e-7 -1 0 0.8761058 -0.4821189 0 0.7340494 -0.679096 0 0.7340494 -0.679096 0 0.8761054 -0.4821197 0 1 0 0 0.8744881 -0.4850471 0 0.8744881 -0.485047 0 1 0 0 0.7307453 -0.6826503 0 0.7307453 -0.6826503 0 0 -1 0 0 -1 0 0 -1 0 0 -1 0 -0.7340494 -0.679096 0 -0.7340495 -0.679096 0 -0.8761058 -0.4821188 0 -0.8761053 -0.4821197 0 0 -1 0 -0.7340484 -0.6790971 0 -0.7340485 -0.6790971 0 -0.8761048 -0.4821208 0 -0.8761053 -0.4821198 0 -0.7307443 -0.6826513 0 -0.8744875 -0.4850479 0 0 -1 0 0 -1 -1.63466e-11 0.8761048 -0.4821208 0 0.7340484 -0.6790971 0 -1.92711e-7 -1 0 0.8761052 -0.4821199 0 0.7340495 -0.679096 0 0.8744879 -0.4850472 0 0.7307453 -0.6826503 0 0 -1 0 0 -1 0 -0.7340494 -0.679096 0 -0.8761053 -0.4821198 0 1 0 -5.2449e-9 0.9302536 -0.3669173 -9.71422e-9 0.7307433 -0.6826522 0 0 -1 0 0 -1 0 -0.7340485 -0.6790971 0 -0.9311412 -0.3646589 0 -1 0 0 -1 0 0 -0.9302537 -0.3669169 0 -1 0 0 -1 0 0 -0.7307443 -0.6826513 0 0 -1 0 0 -1 -5.45706e-9 0.9311411 -0.3646591 -1.01165e-8 0.7340475 -0.6790981 0 1 0 0 1 0 0 0.9311416 -0.3646578 0 0.7340494 -0.679096 0 1 0 0 1 0 0 1 0 0 1 0 0 0.9302541 -0.366916 0 0.7307453 -0.6826502 0 0 -1 0 0 -1 0 -0.7340495 -0.679096 0 -0.9311414 -0.3646582 0 -1 0 0 -1 0 1 0 0 1 0 0 1 0 0 1 0 0 0 0 -1 0 0 -1 0 0 -1 0 0 -1 -1 0 0 -1 0 0 -1 0 0 -1 0 0 1 0 0 1 0 0 1 0 0 1 0 0 0 0 -1 0 0 -1 0 0 -1 0 0 -1 -1 0 0 -1 0 0 -1 0 0 -1 0 0 1 0 0 1 0 0 1 0 0 1 0 0 -1 0 0 -1 0 0 -1 0 0 -1 0 0 0 0 -1 0 0 -1 0 0 -1 0 0 -1 0 -0.7340484 -0.6790971 0 -0.8761049 -0.4821206 0 -1 0 0 -1 0 0 1 0 0 1 0 0 -1 0 0 -1 0 0 0 -1 0 -0.8761048 -0.4821208 0 -0.7340485 -0.6790971 0 -0.8744876 -0.4850479 0 -0.7307443 -0.6826513 0 0 -1 0 0 -1 0 0.7340484 -0.6790971 1.63466e-11 0.8761048 -0.4821208 0 -1 0 0 -0.930254 -0.3669161 0 -0.7307443 -0.6826513 0 -1.92711e-7 -1 0 0.7340495 -0.679096 0 0.8761052 -0.4821199 0 0.7307453 -0.6826503 0 0.8744879 -0.4850473 0 0 -1 0 0 -1 0 -0.8761054 -0.4821198 0 -0.7340494 -0.679096 5.2449e-9 0.9302536 -0.3669173 0 1 0 9.71422e-9 0.7307433 -0.6826522 0 0 -1 0 0 -1 0 -0.9311412 -0.3646589 0 -0.7340485 -0.6790971 0 -1 0 0 -1 0 0 -1 0 0 -1 0 0 -0.9302537 -0.3669169 0 -0.7307443 -0.6826513 0 0 -1 0 0 -1 1.01165e-8 0.7340475 -0.6790981 5.45706e-9 0.9311411 -0.3646591 0 1 0 0 1 0 0 0.7340494 -0.679096 0 0.9311416 -0.3646578 0 1 0 0 1 0 0 1 0 0 0.9302541 -0.366916 0 1 0 0 0.7307453 -0.6826502 0 0 -1 0 0 -1 0 -0.9311414 -0.3646582 0 -0.7340495 -0.679096 0 -1 0 0 -1 0 -1 0 0 -1 0 0 -1 0 0 -1 0 0 0 0 -1 0 0 -1 0 0 -1 0 0 -1 1 0 0 1 0 0 1 0 0 1 0 0 -1 0 0 -1 0 0 -1 0 0 -1 0 0 0 0 -1 0 0 -1 0 0 -1 0 0 -1 1 0 0 1 0 0 1 0 0 1 0 0 -1 0 0 -1 0 0 -1 0 0 -1 0 0 1 0 0 1 0 0 1 0 0 1 0 0 0 0 -1 0 0 -1 0 0 -1 0 0 -1 0 -1 0 0 -0.9302537 -0.3669171 0 -0.7307443 -0.6826513 0 -1.92712e-7 -1 0 -1.92712e-7 -1 0 -1.92712e-7 -1 0 -1.92712e-7 -1 0 0 -1 0 0 -1 0 0 -1 0 0 -1 -0.9252236 0 -0.3794222 -0.9252236 0 -0.3794222 -0.9252236 0 -0.3794222 -0.9252236 0 -0.3794222 2.10063e-6 -0.9252242 -0.3794208 0 -0.9252252 -0.3794184 1.69158e-6 -0.9252244 -0.3794204 4.8077e-6 -0.9252229 -0.3794239 0.9252236 0 -0.3794222 0.9252236 0 -0.3794222 0.9252236 0 -0.3794222 0.9252236 0 -0.3794222 0 0.9252253 -0.3794184 0 0.9252252 -0.3794184 0 0.9252252 -0.3794184 0 0.9252252 -0.3794184 0 0 -1 0 0 -1 0 0 -1 0 0 -1 -0.9252236 0 -0.3794222 -0.9252236 0 -0.3794222 -0.9252236 0 -0.3794222 -0.9252236 0 -0.3794222 2.10063e-6 -0.9252242 -0.3794208 0 -0.9252252 -0.3794184 1.69158e-6 -0.9252244 -0.3794204 4.8077e-6 -0.9252229 -0.3794239 0.9252236 0 -0.3794222 0.9252236 0 -0.3794222 0.9252236 0 -0.3794222 0.9252236 0 -0.3794222 0 0.9252253 -0.3794184 0 0.9252252 -0.3794184 0 0.9252252 -0.3794184 0 0.9252252 -0.3794184 0 0 -1 0 0 -1 0 0 -1 0 0 -1 1.96349e-6 -0.9252212 -0.3794281 0 -0.9252232 -0.3794233 5.12804e-7 -0.9252228 -0.3794245 2.78414e-6 -0.9252204 -0.3794301 0.9252232 0 -0.3794232 0.9252232 0 -0.3794232 0.9252232 0 -0.3794232 0.9252232 0 -0.3794232 1.9635e-6 0.9252228 -0.3794243 0 0.9252208 -0.3794292 5.12804e-7 0.9252213 -0.3794279 2.78415e-6 0.9252236 -0.3794222 -0.9252232 0 -0.3794232 -0.9252232 0 -0.3794232 -0.9252232 0 -0.3794232 -0.9252232 0 -0.3794232 0 0 -1 0 0 -1 0 0 -1 0 0 -1 0.9252236 0 -0.3794222 0.9252236 0 -0.3794222 0.9252236 0 -0.3794222 0.9252236 0 -0.3794222 -4.20125e-6 -0.9252232 -0.3794232 -9.61538e-6 -0.9252207 -0.3794294 -3.38316e-6 -0.9252236 -0.3794223 0 -0.9252252 -0.3794184 -0.9252236 0 -0.3794222 -0.9252236 0 -0.3794222 -0.9252236 0 -0.3794222 -0.9252236 0 -0.3794222 0 0.9252253 -0.3794184 0 0.9252252 -0.3794184 0 0.9252252 -0.3794184 0 0.9252252 -0.3794184 0 0 -1 0 0 -1 0 0 -1 0 0 -1 0.9252236 0 -0.3794222 0.9252236 0 -0.3794222 0.9252236 0 -0.3794222 0.9252236 0 -0.3794222 -4.20125e-6 -0.9252232 -0.3794232 -9.61538e-6 -0.9252207 -0.3794294 -3.38316e-6 -0.9252236 -0.3794223 0 -0.9252252 -0.3794184 -0.9252236 0 -0.3794222 -0.9252236 0 -0.3794222 -0.9252236 0 -0.3794222 -0.9252236 0 -0.3794222 0 0.9252253 -0.3794184 0 0.9252252 -0.3794184 0 0.9252252 -0.3794184 0 0.9252252 -0.3794184 0 0 -1 0 0 -1 0 0 -1 0 0 -1 0 -0.9252208 -0.3794291 0 -0.9252208 -0.3794292 0 -0.9252208 -0.3794292 0 -0.9252208 -0.3794292 -0.9252232 0 -0.3794232 -0.9252232 0 -0.3794232 -0.9252232 0 -0.3794232 -0.9252232 0 -0.3794232 -3.927e-6 0.9252248 -0.3794194 -5.56832e-6 0.9252264 -0.3794153 -1.02561e-6 0.9252218 -0.3794267 0 0.9252208 -0.3794292 0.9252232 0 -0.3794232 0.9252232 0 -0.3794232 0.9252232 0 -0.3794232 0.9252232 0 -0.3794232 0 -1 0 0 -1 0 0 -1 0 0 -1 0</float_array>
          <technique_common>
            <accessor source="#geom-slidedoor_data_tunnel_door_LP-normals-array" count="796" stride="3">
              <param name="X" type="float"/>
              <param name="Y" type="float"/>
              <param name="Z" type="float"/>
            </accessor>
          </technique_common>
        </source>
        <source id="geom-slidedoor_data_tunnel_door_LP-map1">
          <float_array id="geom-slidedoor_data_tunnel_door_LP-map1-array" count="1608">0.132284 0.03817564 0 0.5790466 0.03829497 0 0.5790434 0.05006331 0 0.1322808 0.04994428 0 0.5823485 0.60909 0 0.5830059 0.5953194 0 0.1163485 0.6110135 0 0.7006654 0.3733022 0 0.008766329 0.3733022 0 0.7003264 0.3747701 0 0.6759914 0.387815 0 0.009105047 0.3747701 0 0.005476579 0.0778507 0 0.7039554 0.0778507 0 0.03343991 0.387815 0 0.6387613 0.4250374 0 0.07066996 0.4250374 0 0.6334811 0.4305373 0 0.07594981 0.4305373 0 0.5981593 0.6343229 0 0.5981598 0.6279541 0 0.109154 0.6279541 0 0.1138429 0.6202019 0 0.5934704 0.6202015 0 0.5934678 0.559914 0 0.5934684 0.5676475 0 0.1138407 0.5676475 0 0.5990849 0.63972 0 0.1138403 0.559914 0 0.5990843 0.6453553 0 0.5990843 0.6460886 0 0.1106681 0.6460886 0 0.1106685 0.6453549 0 0.5945029 0.6538408 0 0.268088 0.6630091 0 0.1148758 0.6538408 0 0.5945023 0.7141495 0 0.1148752 0.7141495 0 0.1148752 0.7064159 0 0.5945019 0.7064163 0 0.114875 0.7057306 0 0.5934706 0.6195069 0 0.5945023 0.7057306 0 0.6028503 0.6201985 0 0.6028491 0.5599109 0 0.6028494 0.5676445 0 0.6038828 0.6538433 0 0.603882 0.7064186 0 0.268088 0.6569945 0 0.1091541 0.6343229 0 0.6038825 0.7141521 0 0.6038818 0.7057317 0 0.1178832 0.5928919 0 0.7028495 0.6201845 0 0.7028488 0.6279476 0 0.702849 0.5598879 0 0.6075938 0.5906495 0 0.702849 0.5676529 0 0.7038816 0.7064102 0 0.3681557 0.6569945 0 0.7038821 0.7141755 0 0.7038811 0.7057014 0 0.6028504 0.6195047 0 0.6055724 0.6102044 0 0.5934691 0.5683334 0 0.60285 0.5683314 0 0.5934678 0.5592112 0 0.6028485 0.5592094 0 0.6055724 0.6162197 0 0.05053317 0.6026897 0 0.05053394 0.5933113 0 0.5945027 0.654535 0 0.6038828 0.6545371 0 0.3681557 0.6630091 0 0.1091542 0.6286878 0 0.104464 0.6201989 0 0.1044615 0.5676449 0 0.1044612 0.5599109 0 0.00549852 0.6460947 0 0.005498937 0.6453612 0 0.1054971 0.6538433 0 0.1054963 0.7141521 0 0.1054963 0.7064186 0 0.1054964 0.7057317 0 0.004465572 0.627948 0 0.004465154 0.6201853 0 0.004462174 0.5676529 0 0.5831139 0.5708177 0 0.5981593 0.6286878 0 0.004462055 0.5598879 0 0.00549709 0.7141755 0 0.1177371 0.5793096 0 0.1178832 0.5874211 0 0.005497149 0.7064102 0 0.005497268 0.705701 0 0.5817192 0.6110111 0 0.1106685 0.63972 0 0.1044636 0.6195055 0 0.1044618 0.568332 0 0.5945032 0.7148525 0 0.1169765 0.60909 0 0.1138409 0.568334 0 0.1138424 0.6195075 0 0.5831139 0.57665 0 0.216979 0.6722514 0 0.5832541 0.5874211 0 0.6586078 0.5933553 0 0.6061099 0.602592 0 0.6591243 0.5737394 0 0.1169765 0.6036185 0 0.1177419 0.57665 0 0.6061099 0.6082346 0 0.5832541 0.5928922 0 0.005498759 0.6397261 0 0.6075938 0.5850068 0 0.1177419 0.5708177 0 0.1138399 0.5592111 0 0.1169111 0.6722514 0 0.5817192 0.6168439 0 0.2687006 0.6806223 0 0.702848 0.6286814 0 0.6586078 0.5993667 0 0.7038816 0.6397261 0 0.2167945 0.6630091 0 0.3687683 0.6806223 0 0.216979 0.6782665 0 0.2169253 0.6643668 0 0.7038821 0.6538577 0 0.3687683 0.6866375 0 0.7028484 0.6343166 0 0.1169111 0.6782665 0 0.2682725 0.6722514 0 0.7038811 0.6453612 0 0.1167266 0.6630091 0 0.2685723 0.6643668 0 0.2687006 0.6866375 0 0.7039554 0.001347044 0 0.005476579 0.001347044 0 0.2682725 0.6782665 0 0.1177371 0.5851382 0 0.6063728 0.6624274 0 0.6063728 0.6564161 0 0.1176351 0.5953194 0 0.5823485 0.6036185 0 0.1163485 0.616842 0 0.5550162 0.6707588 0 0.551737 0.6707588 0 0.551737 0.6604629 0 0.5550162 0.6604629 0 0.5581333 0.6738763 0 0.5581333 0.6573455 0 0.5486198 0.6738762 0 0.5486199 0.6573455 0 0.5772625 0.6711506 0 0.5739947 0.6711504 0 0.5739947 0.6608967 0 0.5772625 0.6608967 0 0.5803667 0.674255 0 0.5803667 0.6577922 0 0.5708905 0.6742549 0 0.5708905 0.6577922 0 0.5637757 0.6774027 0 0.5658755 0.6774027 0 0.5658755 0.6839967 0 0.5637757 0.6839967 0 0.561779 0.675406 0 0.561779 0.6859934 0 0.5678722 0.675406 0 0.5678722 0.6859934 0 0.5626929 0.671181 0 0.5626931 0.660885 0 0.5659719 0.660885 0 0.5659719 0.6711808 0 0.5595757 0.6742983 0 0.5595757 0.6577674 0 0.5690894 0.6742983 0 0.5690894 0.6577674 0 0.5853485 0.6717815 0 0.5853485 0.6614865 0 0.5886278 0.6614865 0 0.5886278 0.6717815 0 0.5822313 0.6748989 0 0.5822313 0.6583691 0 0.5917448 0.6748987 0 0.5917448 0.6583691 0 0.5579318 0.6795921 0 0.5513379 0.6795921 0 0.5513379 0.6774925 0 0.5579318 0.6774925 0 0.5599286 0.6815891 0 0.5493413 0.6815891 0 0.5599286 0.6754956 0 0.5493413 0.6754956 0 0.5830059 0.601152 0 0.1176351 0.601152 0 0.6038833 0.7148538 0 0.1054966 0.7148539 0 0.1148754 0.7148523 0 0.2169253 0.6700091 0 0.2685723 0.6700091 0 0.1022547 0.6151268 0 0.1022559 0.6057484 0 0.102062 0.5933101 0 0.1020627 0.6026885 0 0.6592425 0.5906491 0 0.6078318 0.5737394 0 0.6592425 0.5850068 0 0.6078318 0.5797545 0 0.6073169 0.5933557 0 0.6073169 0.5993667 0 0.2167945 0.6569945 0 0.6576652 0.6564161 0 0.656866 0.6102044 0 0.656866 0.6162197 0 0.6576652 0.6624274 0 0.004465572 0.634317 0 0.00446581 0.6286817 0 0.7028497 0.6194705 0 0.5831088 0.5793096 0 0.5831088 0.585138 0 0.2690362 0.7030979 0 0.2177438 0.7030979 0 0.2177438 0.6970827 0 0.2690362 0.6970827 0 0.3683401 0.6722514 0 0.3683401 0.6782665 0 0.117676 0.6970823 0 0.117676 0.7030979 0 0.005476579 0.07030686 0 0.7039554 0.07030686 0 0.6577592 0.602592 0 0.6577592 0.6082346 0 0.2694211 0.6945823 0 0.2177725 0.6945828 0 0.2177725 0.68894 0 0.2694211 0.68894 0 0.3686395 0.6643668 0 0.3686395 0.6700091 0 0.1177046 0.6945828 0 0.1177046 0.6889404 0 0.1168579 0.6700091 0 0.1168579 0.6643668 0 0.369489 0.68894 0 0.369489 0.6945823 0 0.5067629 0.5572531 0 0.2026686 0.5572531 0 0.6591243 0.5797545 0 0.2174082 0.6806223 0 0.2174082 0.6866375 0 0.1167266 0.6569945 0 0.1173403 0.6806223 0 0.005498162 0.6538577 0 0.1173403 0.6866375 0 0.369104 0.6970827 0 0.369104 0.7030979 0 0.1044609 0.5592093 0 0.05072748 0.6151276 0 0.05072641 0.6057491 0 0.1148755 0.6545352 0 0.1054969 0.6545371 0 0.7038814 0.6460947 0 0.702849 0.5683617 0 0.004462293 0.5683617 0 0.7028488 0.5591439 0 0.004462115 0.5591444 0 0.004465035 0.6194712 0 0.7038823 0.6545714 0 0.7038821 0.7149192 0 0.005497209 0.7149192 0 0.005498043 0.6545719 0 0.7006654 0.3733022 0 0.008766329 0.3733022 0 0.005476579 0.0778507 0 0.7039554 0.0778507 0 0.7003264 0.3747701 0 0.6759914 0.387815 0 0.03343991 0.387815 0 0.009105047 0.3747701 0 0.005476579 0.07030686 0 0.7039554 0.07030686 0 0.005476579 0.001347044 0 0.7039554 0.001347044 0 0.6387613 0.4250374 0 0.07066996 0.4250374 0 0.6334811 0.4305373 0 0.07594981 0.4305373 0 0.5067629 0.5572531 0 0.2026686 0.5572531 0 0.5981593 0.6343229 0 0.1091541 0.6343229 0 0.1091542 0.6286878 0 0.5981593 0.6286878 0 0.109154 0.6279541 0 0.5981598 0.6279541 0 0.1138429 0.6202019 0 0.5934704 0.6202015 0 0.1178832 0.5928919 0 0.1178832 0.5874211 0 0.5832541 0.5874211 0 0.5832541 0.5928922 0 0.5934678 0.5592112 0 0.5934678 0.559914 0 0.1138403 0.559914 0 0.1138399 0.5592111 0 0.5934684 0.5676475 0 0.1138407 0.5676475 0 0.5934691 0.5683334 0 0.1138409 0.568334 0 0.5817192 0.6110111 0 0.5817192 0.6168439 0 0.1163485 0.616842 0 0.1163485 0.6110135 0 0.5990849 0.63972 0 0.5990843 0.6453553 0 0.1106685 0.6453549 0 0.1106685 0.63972 0 0.5990843 0.6460886 0 0.1106681 0.6460886 0 0.5945029 0.6538408 0 0.1148758 0.6538408 0 0.5945027 0.654535 0 0.1148755 0.6545352 0 0.5823485 0.60909 0 0.1169765 0.60909 0 0.1169765 0.6036185 0 0.5823485 0.6036185 0 0.5945032 0.7148525 0 0.1148754 0.7148523 0 0.1148752 0.7141495 0 0.5945023 0.7141495 0 0.1148752 0.7064159 0 0.5945019 0.7064163 0 0.114875 0.7057306 0 0.5945023 0.7057306 0 0.6028503 0.6201985 0 0.5934706 0.6195069 0 0.6028504 0.6195047 0 0.6028485 0.5592094 0 0.6028491 0.5599109 0 0.6028494 0.5676445 0 0.60285 0.5683314 0 0.6038828 0.6538433 0 0.6038828 0.6545371 0 0.6038825 0.7141521 0 0.6038833 0.7148538 0 0.603882 0.7064186 0 0.6038818 0.7057317 0 0.702848 0.6286814 0 0.7028484 0.6343166 0 0.7028488 0.6279476 0 0.7028495 0.6201845 0 0.7028497 0.6194705 0 0.216979 0.6722514 0 0.216979 0.6782665 0 0.1169111 0.6782665 0 0.1169111 0.6722514 0 0.2169253 0.6643668 0 0.2169253 0.6700091 0 0.1168579 0.6700091 0 0.1168579 0.6643668 0 0.7028488 0.5591439 0 0.702849 0.5598879 0 0.702849 0.5676529 0 0.702849 0.5683617 0 0.2682725 0.6782665 0 0.2682725 0.6722514 0 0.3683401 0.6722514 0 0.3683401 0.6782665 0 0.7038821 0.6538577 0 0.7038823 0.6545714 0 0.2167945 0.6569945 0 0.2167945 0.6630091 0 0.1167266 0.6630091 0 0.1167266 0.6569945 0 0.2685723 0.6700091 0 0.2685723 0.6643668 0 0.3686395 0.6643668 0 0.3686395 0.6700091 0 0.7038821 0.7141755 0 0.7038821 0.7149192 0 0.7038816 0.7064102 0 0.7038811 0.7057014 0 0.268088 0.6630091 0 0.268088 0.6569945 0 0.3681557 0.6569945 0 0.3681557 0.6630091 0 0.6576652 0.6564161 0 0.6576652 0.6624274 0 0.6063728 0.6624274 0 0.6063728 0.6564161 0 0.102062 0.5933101 0 0.1020627 0.6026885 0 0.05053317 0.6026897 0 0.05053394 0.5933113 0 0.6592425 0.5850068 0 0.6592425 0.5906491 0 0.6075938 0.5906495 0 0.6075938 0.5850068 0 0.6055724 0.6162197 0 0.6055724 0.6102044 0 0.656866 0.6102044 0 0.656866 0.6162197 0 0.1138424 0.6195075 0 0.5831088 0.5793096 0 0.5831088 0.585138 0 0.1177371 0.5851382 0 0.1177371 0.5793096 0 0.1176351 0.5953194 0 0.5830059 0.5953194 0 0.5830059 0.601152 0 0.1176351 0.601152 0 0.5831139 0.5708177 0 0.5831139 0.57665 0 0.1177419 0.57665 0 0.1177419 0.5708177 0 0.104464 0.6201989 0 0.1044636 0.6195055 0 0.1044612 0.5599109 0 0.1044609 0.5592093 0 0.1044615 0.5676449 0 0.1044618 0.568332 0 0.005498937 0.6453612 0 0.005498759 0.6397261 0 0.00549852 0.6460947 0 0.1054971 0.6538433 0 0.1054969 0.6545371 0 0.1054966 0.7148539 0 0.1054963 0.7141521 0 0.1054963 0.7064186 0 0.1054964 0.7057317 0 0.004465572 0.634317 0 0.00446581 0.6286817 0 0.004465572 0.627948 0 0.004465154 0.6201853 0 0.004465035 0.6194712 0 0.2690362 0.6970827 0 0.369104 0.6970827 0 0.369104 0.7030979 0 0.2690362 0.7030979 0 0.2694211 0.68894 0 0.369489 0.68894 0 0.369489 0.6945823 0 0.2694211 0.6945823 0 0.004462055 0.5598879 0 0.004462115 0.5591444 0 0.004462174 0.5676529 0 0.004462293 0.5683617 0 0.2177438 0.7030979 0 0.117676 0.7030979 0 0.117676 0.6970823 0 0.2177438 0.6970827 0 0.005498043 0.6545719 0 0.005498162 0.6538577 0 0.2174082 0.6866375 0 0.1173403 0.6866375 0 0.1173403 0.6806223 0 0.2174082 0.6806223 0 0.2177725 0.6945828 0 0.1177046 0.6945828 0 0.1177046 0.6889404 0 0.2177725 0.68894 0 0.005497209 0.7149192 0 0.00549709 0.7141755 0 0.005497149 0.7064102 0 0.005497268 0.705701 0 0.2687006 0.6806223 0 0.3687683 0.6806223 0 0.3687683 0.6866375 0 0.2687006 0.6866375 0 0.6073169 0.5933557 0 0.6586078 0.5933553 0 0.6586078 0.5993667 0 0.6073169 0.5993667 0 0.1022547 0.6151268 0 0.05072748 0.6151276 0 0.05072641 0.6057491 0 0.1022559 0.6057484 0 0.6061099 0.602592 0 0.6577592 0.602592 0 0.6577592 0.6082346 0 0.6061099 0.6082346 0 0.6591243 0.5797545 0 0.6078318 0.5797545 0 0.6078318 0.5737394 0 0.6591243 0.5737394 0 0.7038816 0.6397261 0 0.7038811 0.6453612 0 0.7038814 0.6460947 0 0.5550162 0.6707588 0 0.551737 0.6707588 0 0.551737 0.6604629 0 0.5550162 0.6604629 0 0.5581333 0.6738763 0 0.5581333 0.6573455 0 0.5486198 0.6738762 0 0.5486199 0.6573455 0 0.5772625 0.6711506 0 0.5739947 0.6711504 0 0.5739947 0.6608967 0 0.5772625 0.6608967 0 0.5803667 0.674255 0 0.5803667 0.6577922 0 0.5708905 0.6742549 0 0.5708905 0.6577922 0 0.5637757 0.6774027 0 0.5658755 0.6774027 0 0.5658755 0.6839967 0 0.5637757 0.6839967 0 0.561779 0.675406 0 0.561779 0.6859934 0 0.5678722 0.675406 0 0.5678722 0.6859934 0 0.5626929 0.671181 0 0.5626931 0.660885 0 0.5659719 0.660885 0 0.5659719 0.6711808 0 0.5595757 0.6742983 0 0.5595757 0.6577674 0 0.5690894 0.6742983 0 0.5690894 0.6577674 0 0.5853485 0.6717815 0 0.5853485 0.6614865 0 0.5886278 0.6614865 0 0.5886278 0.6717815 0 0.5822313 0.6748989 0 0.5822313 0.6583691 0 0.5917448 0.6748987 0 0.5917448 0.6583691 0 0.5579318 0.6795921 0 0.5513379 0.6795921 0 0.5513379 0.6774925 0 0.5579318 0.6774925 0 0.5599286 0.6815891 0 0.5493413 0.6815891 0 0.5599286 0.6754956 0 0.5493413 0.6754956 0</float_array>
          <technique_common>
            <accessor source="#geom-slidedoor_data_tunnel_door_LP-map1-array" count="536" stride="3">
              <param name="S" type="float"/>
              <param name="T" type="float"/>
              <param name="P" type="float"/>
            </accessor>
          </technique_common>
        </source>
        <vertices id="geom-slidedoor_data_tunnel_door_LP-vertices">
          <input semantic="POSITION" source="#geom-slidedoor_data_tunnel_door_LP-positions"/>
        </vertices>
        <triangles material="slidedoor_data_tunnel" count="538">
          <input semantic="VERTEX" source="#geom-slidedoor_data_tunnel_door_LP-vertices" offset="0"/>
          <input semantic="NORMAL" source="#geom-slidedoor_data_tunnel_door_LP-normals" offset="1"/>
          <input semantic="TEXCOORD" source="#geom-slidedoor_data_tunnel_door_LP-map1" offset="2" set="0"/>
          <p>3 0 7 7 1 8 8 2 12 8 2 12 0 3 13 3 0 7 4 4 9 5 5 10 12 6 14 12 6 14 11 7 11 4 4 9 8 8 12 9 9 228 1 10 229 1 10 229 0 11 13 8 8 12 9 12 228 10 13 137 2 14 136 2 14 136 1 15 229 9 12 228 4 16 9 11 17 11 7 18 8 7 18 8 3 19 7 4 16 9 14 20 15 15 21 16 12 6 14 12 6 14 5 5 10 14 20 15 17 22 17 16 23 18 15 21 16 15 21 16 14 20 15 17 22 17 6 24 244 13 25 245 16 26 18 16 26 18 17 27 17 6 24 244 113 28 19 128 29 49 76 30 74 76 30 74 18 31 88 113 28 19 18 31 88 76 30 74 77 32 21 77 32 21 19 33 20 18 31 88 77 34 21 62 35 22 20 36 23 20 36 23 19 37 20 77 34 21 107 38 52 22 39 92 64 40 105 64 40 105 130 41 112 107 38 52 22 39 66 23 42 24 65 43 28 65 43 28 64 40 116 22 39 66 23 44 24 24 45 25 66 46 26 66 46 26 65 47 28 23 44 24 24 48 25 25 49 64 67 50 101 67 50 101 66 51 26 24 48 25 108 52 118 131 53 144 67 50 6 67 50 6 25 49 95 108 52 118 109 54 27 26 55 29 68 56 32 68 56 32 132 57 96 109 54 27 26 55 29 27 58 30 69 59 31 69 59 31 68 56 32 26 55 29 27 60 30 28 61 33 70 62 35 70 62 35 69 63 31 27 60 30 29 64 71 71 65 258 70 66 35 70 66 35 28 67 33 29 64 71 111 68 4 134 69 100 72 70 109 72 70 109 30 71 143 111 68 4 30 71 99 72 70 197 73 72 37 73 72 37 31 73 36 30 71 99 31 74 36 73 75 37 74 76 38 74 76 38 32 77 39 31 74 36 74 78 38 75 79 40 33 80 42 33 80 42 32 81 39 74 78 38 19 37 20 20 36 23 34 82 43 20 83 23 21 84 41 35 85 62 35 85 62 34 86 43 20 83 23 23 42 24 22 39 66 36 87 67 36 87 67 37 88 44 23 42 24 24 45 25 23 44 24 37 89 44 37 89 44 38 90 45 24 45 25 25 49 64 24 48 25 38 91 45 38 91 45 39 92 65 25 49 64 28 61 33 27 60 30 42 93 46 29 64 71 28 67 33 42 94 46 42 94 46 43 95 72 29 64 71 30 71 99 31 73 36 45 96 50 45 96 50 44 97 195 30 71 99 31 74 36 32 77 39 46 98 47 46 98 47 45 99 50 31 74 36 32 81 39 33 80 42 47 100 51 47 100 51 46 101 47 32 81 39 113 28 19 18 31 88 48 102 120 48 102 120 121 103 129 113 28 19 18 31 88 19 33 20 49 104 54 49 104 54 48 102 120 18 31 88 19 37 20 34 82 43 50 105 53 50 105 53 49 106 54 19 37 20 34 86 43 35 85 62 51 107 217 51 107 217 50 108 53 34 86 43 35 85 104 114 109 125 122 110 130 122 110 130 51 107 117 35 85 104 36 87 126 115 111 198 123 112 240 123 112 240 52 113 241 36 87 126 37 88 44 36 87 67 52 113 263 52 113 263 53 114 55 37 88 44 38 90 45 37 89 44 53 115 55 53 115 55 54 116 57 38 90 45 39 92 65 38 91 45 54 117 57 54 117 57 55 118 261 39 92 65 116 119 138 39 92 131 55 118 224 55 118 224 124 120 225 116 119 138 43 95 72 42 94 46 56 121 127 56 121 127 57 122 266 43 95 72 118 123 210 43 95 123 57 122 133 57 122 133 125 124 249 118 123 210 119 125 199 44 97 134 58 126 236 58 126 236 126 127 237 119 125 199 44 97 195 45 96 50 59 128 60 59 128 60 58 126 267 44 97 195 45 99 50 46 98 47 60 129 58 60 129 58 59 130 60 45 99 50 46 101 47 47 100 51 61 131 61 61 131 61 60 132 58 46 101 47 47 100 34 120 133 48 127 134 59 127 134 59 61 131 73 47 100 34 114 135 125 35 136 104 39 137 131 39 137 131 116 138 138 114 135 125 35 139 62 21 140 41 25 141 64 25 141 64 39 142 65 35 139 62 21 143 211 106 144 214 108 145 140 108 145 140 25 146 141 21 143 211 115 147 198 36 148 126 44 149 134 44 149 134 119 150 199 115 147 198 36 151 202 22 152 203 30 153 69 30 153 69 44 154 70 36 151 202 22 155 206 107 156 204 111 157 56 111 157 56 30 158 114 22 155 206 43 159 123 118 160 210 120 161 48 120 161 48 47 162 34 43 159 123 110 163 68 29 164 63 33 165 212 33 165 212 112 166 213 110 163 68 29 167 71 43 168 72 47 169 51 47 169 51 33 170 42 29 167 71 62 171 22 63 172 102 21 84 41 21 84 41 20 83 23 62 171 22 63 172 218 129 173 219 106 174 139 106 174 139 21 84 91 63 172 218 71 65 142 29 64 5 110 175 193 110 175 193 133 176 194 71 65 142 75 79 87 135 177 103 112 178 110 112 178 110 33 80 115 75 79 87 77 34 21 78 179 75 62 35 22 62 171 22 78 180 75 79 181 97 79 181 97 63 172 102 62 171 22 65 43 28 81 182 77 80 183 255 80 183 255 64 40 116 65 43 28 66 46 26 82 184 76 81 185 77 81 185 77 65 47 28 66 46 26 67 50 101 83 186 98 82 187 76 82 187 76 66 51 26 67 50 101 68 56 32 98 188 79 146 189 113 146 189 113 132 57 96 68 56 32 69 59 31 99 190 78 98 188 79 98 188 79 68 56 32 69 59 31 70 62 35 84 191 80 69 63 31 71 65 258 85 192 259 84 193 80 84 193 80 70 66 35 71 65 258 72 70 197 87 194 196 86 195 81 86 195 81 73 72 37 72 70 197 73 75 37 86 196 81 88 197 82 88 197 82 74 76 38 73 75 37 74 78 38 88 198 82 89 199 83 89 199 83 75 79 40 74 78 38 128 29 49 142 200 215 90 201 216 90 201 216 76 30 74 128 29 49 76 30 74 90 201 216 91 202 84 91 202 84 77 32 21 76 30 74 77 34 21 91 203 84 92 204 85 92 204 85 78 179 75 77 34 21 78 180 75 92 205 85 93 206 265 93 206 265 79 181 97 78 180 75 79 181 223 93 206 253 143 207 254 143 207 254 136 208 220 79 181 223 80 183 235 94 209 242 144 210 243 144 210 243 137 211 232 80 183 235 81 182 77 95 212 89 94 209 264 94 209 264 80 183 255 81 182 77 82 184 76 96 213 86 95 214 89 95 214 89 81 185 77 82 184 76 83 186 98 97 215 262 96 216 86 96 216 86 82 187 76 83 186 98 138 217 221 145 218 227 97 215 226 97 215 226 83 186 222 138 217 221 85 192 259 101 219 269 100 220 251 100 220 251 84 193 80 85 192 259 139 221 248 147 222 252 101 219 250 101 219 250 85 192 247 139 221 248 140 223 233 148 224 238 102 225 239 102 225 239 87 194 234 140 223 233 87 194 196 102 225 268 103 226 90 103 226 90 86 195 81 87 194 196 86 196 81 103 227 90 104 228 93 104 228 93 88 197 82 86 196 81 88 198 82 104 229 93 105 230 94 105 230 94 89 199 83 88 198 82 89 199 119 105 230 124 149 231 128 149 231 128 141 232 135 89 199 119 136 233 220 138 234 221 83 235 222 83 235 222 79 236 223 136 233 220 79 237 97 83 238 98 67 239 101 67 239 101 63 240 102 79 237 97 63 241 208 67 242 106 131 243 121 131 243 121 129 244 209 63 241 208 137 245 232 140 246 233 87 247 234 87 247 234 80 248 235 137 245 232 80 249 200 87 250 256 72 251 257 72 251 257 64 252 201 80 249 200 64 253 107 72 254 230 134 255 231 134 255 231 130 256 111 64 253 107 85 257 247 89 258 119 141 259 135 141 259 135 139 260 248 85 257 247 133 261 246 135 262 207 75 263 205 75 263 205 71 264 108 133 261 246 71 265 258 75 266 40 89 267 83 89 267 83 85 268 259 71 265 258 117 269 122 40 270 132 26 55 29 26 55 29 109 54 27 117 269 122 40 270 132 41 271 260 27 58 30 27 58 30 26 55 29 40 270 132 41 272 260 56 273 127 42 93 46 42 93 46 27 60 30 41 272 260 84 191 80 100 274 251 99 275 78 99 275 78 69 63 31 84 191 80 155 276 145 156 277 146 157 278 147 157 278 147 154 279 148 155 276 145 151 280 149 155 281 145 154 282 148 154 282 148 150 283 150 151 280 149 152 284 151 156 285 146 155 286 145 155 286 145 151 287 149 152 284 151 153 288 152 157 289 147 156 290 146 156 290 146 152 291 151 153 288 152 150 292 150 154 293 148 157 294 147 157 294 147 153 295 152 150 292 150 163 296 153 164 297 154 165 298 155 165 298 155 162 299 156 163 296 153 159 300 157 163 301 153 162 302 156 162 302 156 158 303 158 159 300 157 160 304 159 164 305 154 163 306 153 163 306 153 159 307 157 160 304 159 161 308 160 165 309 155 164 310 154 164 310 154 160 311 159 161 308 160 158 312 158 162 313 156 165 314 155 165 314 155 161 315 160 158 312 158 171 316 161 172 317 162 173 318 163 173 318 163 170 319 164 171 316 161 167 320 165 171 321 161 170 322 164 170 322 164 166 323 166 167 320 165 168 324 167 172 325 162 171 326 161 171 326 161 167 327 165 168 324 167 169 328 168 173 329 163 172 330 162 172 330 162 168 331 167 169 328 168 166 332 166 170 333 164 173 334 163 173 334 163 169 335 168 166 332 166 174 336 169 177 337 170 176 338 171 176 338 171 175 339 172 174 336 169 178 340 173 179 341 174 177 342 170 177 342 170 174 343 169 178 340 173 180 344 175 178 345 173 174 346 169 174 346 169 175 347 172 180 344 175 181 348 176 180 349 175 175 350 172 175 350 172 176 351 171 181 348 176 179 352 174 181 353 176 176 354 171 176 354 171 177 355 170 179 352 174 182 356 177 185 357 178 184 358 179 184 358 179 183 359 180 182 356 177 186 360 181 187 361 182 185 362 178 185 362 178 182 363 177 186 360 181 188 364 183 186 365 181 182 366 177 182 366 177 183 367 180 188 364 183 189 368 184 188 369 183 183 370 180 183 370 180 184 371 179 189 368 184 187 372 182 189 373 184 184 374 179 184 374 179 185 375 178 187 372 182 190 376 185 193 377 186 192 378 187 192 378 187 191 379 188 190 376 185 194 380 189 195 381 190 193 382 186 193 382 186 190 383 185 194 380 189 196 384 191 194 385 189 190 386 185 190 386 185 191 387 188 196 384 191 197 388 192 196 389 191 191 390 188 191 390 188 192 391 187 197 388 192 195 392 190 197 393 192 192 394 187 192 394 187 193 395 186 195 392 190 198 396 270 201 397 273 200 398 272 200 398 272 199 399 271 198 396 270 202 400 274 205 401 277 204 402 276 204 402 276 203 403 275 202 400 274 200 404 272 201 405 273 207 406 279 207 406 279 206 407 278 200 404 272 206 408 278 207 409 279 209 410 281 209 410 281 208 411 280 206 408 278 202 412 274 198 413 270 199 414 271 199 414 271 205 415 277 202 412 274 210 416 282 203 403 275 204 402 276 204 402 276 211 417 283 210 416 282 212 418 284 210 416 282 211 417 283 211 417 283 213 419 285 212 418 284 214 420 286 212 421 284 213 422 285 213 422 285 215 423 287 214 420 286 216 424 288 219 425 291 218 426 290 218 426 290 217 427 289 216 424 288 219 425 291 221 428 293 220 429 292 220 429 292 218 426 290 219 425 291 220 430 292 221 431 293 223 432 295 223 432 295 222 433 294 220 430 292 224 434 296 227 435 299 226 436 298 226 436 298 225 437 297 224 434 296 225 437 300 226 436 303 229 438 302 229 438 302 228 439 301 225 437 300 228 440 301 229 441 302 231 442 305 231 442 305 230 443 304 228 440 301 230 444 304 231 445 305 233 446 307 233 446 307 232 447 306 230 444 304 234 448 309 232 447 308 233 446 311 233 446 311 235 449 310 234 448 309 236 450 312 239 451 315 238 452 314 238 452 314 237 453 313 236 450 312 237 453 313 238 452 314 241 454 317 241 454 317 240 455 316 237 453 313 240 456 316 241 457 317 243 458 319 243 458 319 242 459 318 240 456 316 244 460 320 242 461 318 243 462 319 243 462 319 245 463 321 244 460 320 246 464 322 249 465 325 248 466 324 248 466 324 247 467 323 246 464 322 249 465 326 251 468 329 250 469 328 250 469 328 248 466 327 249 465 326 251 470 329 253 471 331 252 472 330 252 472 330 250 473 328 251 470 329 252 474 330 253 475 331 255 476 333 255 476 333 254 477 332 252 474 330 221 431 293 256 478 334 223 432 295 223 479 295 256 480 334 258 481 336 258 481 336 257 482 335 223 479 295 228 439 301 260 483 338 259 484 337 259 484 337 225 437 300 228 439 301 230 443 304 261 485 339 260 486 338 260 486 338 228 440 301 230 443 304 232 447 306 262 487 340 261 488 339 261 488 339 230 444 304 232 447 306 242 459 318 263 489 341 240 456 316 244 460 320 264 490 342 263 491 341 263 491 341 242 461 318 244 460 320 249 465 326 266 492 344 265 493 343 265 493 343 251 468 329 249 465 326 251 470 329 265 494 343 267 495 345 267 495 345 253 471 331 251 470 329 253 475 331 267 496 345 268 497 346 268 497 346 255 476 333 253 475 331 216 424 288 270 498 348 269 499 347 269 499 347 219 425 291 216 424 288 219 425 291 269 499 347 271 500 349 271 500 349 221 428 293 219 425 291 221 431 293 271 501 349 272 502 350 272 502 350 256 478 334 221 431 293 256 480 334 272 503 350 273 504 351 273 504 351 258 481 336 256 480 334 258 481 352 273 504 355 275 505 354 275 505 354 274 506 353 258 481 352 259 484 356 278 507 359 277 508 358 277 508 358 276 509 357 259 484 356 260 483 338 279 510 361 278 507 360 278 507 360 259 484 337 260 483 338 261 485 339 280 511 362 279 512 361 279 512 361 260 486 338 261 485 339 262 487 340 281 513 363 280 514 362 280 514 362 261 488 339 262 487 340 282 515 364 283 516 367 281 513 366 281 513 366 262 487 365 282 515 364 264 490 342 285 517 369 284 518 368 284 518 368 263 491 341 264 490 342 286 519 370 287 520 373 285 517 372 285 517 372 264 490 371 286 519 370 288 521 374 290 522 377 289 523 376 289 523 376 266 492 375 288 521 374 266 492 344 289 523 379 291 524 378 291 524 378 265 493 343 266 492 344 265 494 343 291 525 378 292 526 380 292 526 380 267 495 345 265 494 343 267 496 345 292 527 380 293 528 381 293 528 381 268 497 346 267 496 345 268 497 382 293 528 385 295 529 384 295 529 384 294 530 383 268 497 382 274 531 353 282 532 364 262 533 365 262 533 365 258 534 352 274 531 353 258 535 336 262 536 340 232 537 306 232 537 306 257 538 335 258 535 336 257 539 386 232 540 389 234 541 388 234 541 388 296 542 387 257 539 386 276 543 357 288 544 374 266 545 375 266 545 375 259 546 356 276 543 357 259 547 390 266 548 393 249 549 392 249 549 392 225 550 391 259 547 390 225 551 394 249 552 397 246 553 396 246 553 396 224 554 395 225 551 394 264 555 371 268 556 382 294 557 383 294 557 383 286 558 370 264 555 371 297 559 398 298 560 401 255 561 400 255 561 400 244 562 399 297 559 398 244 563 320 255 564 333 268 565 346 268 565 346 264 566 342 244 563 320 222 567 294 223 479 295 257 482 335 257 482 335 299 568 402 222 567 294 299 568 403 257 482 406 296 569 405 296 569 405 300 570 404 299 568 403 245 463 407 301 571 410 297 572 409 297 572 409 244 460 408 245 463 407 254 477 411 255 476 414 298 573 413 298 573 413 302 574 412 254 477 411 220 430 292 222 433 294 303 575 415 222 567 294 299 568 402 304 576 416 304 576 416 303 577 415 222 567 294 229 438 302 226 436 303 306 578 418 306 578 418 305 579 417 229 438 302 231 442 305 229 441 302 305 580 417 305 580 417 307 581 419 231 442 305 233 446 307 231 445 305 307 582 419 307 582 419 308 583 420 233 446 307 238 452 314 239 451 315 310 584 422 310 584 422 309 585 421 238 452 314 241 454 317 238 452 314 309 585 421 309 585 421 311 586 423 241 454 317 243 458 319 241 457 317 312 587 424 245 463 321 243 462 319 312 588 424 312 588 424 313 589 425 245 463 321 248 466 327 250 469 328 315 590 427 315 590 427 314 591 426 248 466 327 250 473 328 252 472 330 316 592 428 316 592 428 315 593 427 250 473 328 252 474 330 254 477 332 317 594 429 317 594 429 316 595 428 252 474 330 217 427 289 218 426 290 319 596 431 319 596 431 318 597 430 217 427 289 218 426 290 220 429 292 320 598 432 320 598 432 319 596 431 218 426 290 220 430 292 303 575 415 321 599 433 321 599 433 320 600 432 220 430 292 303 577 415 304 576 416 322 601 434 322 601 434 321 602 433 303 577 415 304 576 435 324 603 438 323 604 437 323 604 437 322 601 436 304 576 435 306 578 439 327 605 442 326 606 441 326 606 441 325 607 440 306 578 439 305 579 417 306 578 418 325 607 444 325 607 444 328 608 443 305 579 417 307 581 419 305 580 417 328 609 443 328 609 443 329 610 445 307 581 419 308 583 420 307 582 419 329 611 445 329 611 445 330 612 446 308 583 420 331 613 447 308 583 450 330 612 449 330 612 449 332 614 448 331 613 447 313 589 425 312 588 424 334 615 452 334 615 452 333 616 451 313 589 425 335 617 453 313 589 456 333 616 455 333 616 455 336 618 454 335 617 453 337 619 457 314 591 460 339 620 459 339 620 459 338 621 458 337 619 457 314 591 426 315 590 427 340 622 462 340 622 462 339 620 461 314 591 426 315 593 427 316 592 428 341 623 463 341 623 463 340 624 462 315 593 427 316 595 428 317 594 429 342 625 464 342 625 464 341 626 463 316 595 428 317 594 465 344 627 468 343 628 467 343 628 467 342 625 466 317 594 465 324 629 438 304 630 435 308 631 450 308 631 450 331 632 447 324 629 438 304 633 416 299 634 402 233 635 307 233 635 307 308 636 420 304 633 416 299 637 469 300 638 472 235 639 471 235 639 471 233 640 470 299 637 469 327 641 442 306 642 439 314 643 460 314 643 460 337 644 457 327 641 442 306 645 473 226 646 476 248 647 475 248 647 475 314 648 474 306 645 473 226 649 477 227 650 480 247 651 479 247 651 479 248 652 478 226 649 477 313 653 456 335 654 453 344 655 468 344 655 468 317 656 465 313 653 456 301 657 481 245 658 484 254 659 483 254 659 483 302 660 482 301 657 481 245 661 321 313 662 425 317 663 429 317 663 429 254 664 332 245 661 321 345 665 485 236 450 312 237 453 313 237 453 313 346 666 486 345 665 485 346 666 486 237 453 313 240 455 316 240 455 316 347 667 487 346 666 486 347 668 487 240 456 316 263 489 341 263 489 341 284 669 368 347 668 487 312 587 424 241 457 317 311 670 423 311 670 423 334 671 452 312 587 424 348 672 488 351 673 491 350 674 490 350 674 490 349 675 489 348 672 488 352 676 492 353 677 493 351 678 491 351 678 491 348 679 488 352 676 492 354 680 494 352 681 492 348 682 488 348 682 488 349 683 489 354 680 494 355 684 495 354 685 494 349 686 489 349 686 489 350 687 490 355 684 495 353 688 493 355 689 495 350 690 490 350 690 490 351 691 491 353 688 493 356 692 496 359 693 499 358 694 498 358 694 498 357 695 497 356 692 496 360 696 500 361 697 501 359 698 499 359 698 499 356 699 496 360 696 500 362 700 502 360 701 500 356 702 496 356 702 496 357 703 497 362 700 502 363 704 503 362 705 502 357 706 497 357 706 497 358 707 498 363 704 503 361 708 501 363 709 503 358 710 498 358 710 498 359 711 499 361 708 501 364 712 504 367 713 507 366 714 506 366 714 506 365 715 505 364 712 504 368 716 508 369 717 509 367 718 507 367 718 507 364 719 504 368 716 508 370 720 510 368 721 508 364 722 504 364 722 504 365 723 505 370 720 510 371 724 511 370 725 510 365 726 505 365 726 505 366 727 506 371 724 511 369 728 509 371 729 511 366 730 506 366 730 506 367 731 507 369 728 509 372 732 512 375 733 515 374 734 514 374 734 514 373 735 513 372 732 512 376 736 516 372 737 512 373 738 513 373 738 513 377 739 517 376 736 516 378 740 518 375 741 515 372 742 512 372 742 512 376 743 516 378 740 518 379 744 519 374 745 514 375 746 515 375 746 515 378 747 518 379 744 519 377 748 517 373 749 513 374 750 514 374 750 514 379 751 519 377 748 517 380 752 520 383 753 523 382 754 522 382 754 522 381 755 521 380 752 520 384 756 524 380 757 520 381 758 521 381 758 521 385 759 525 384 756 524 386 760 526 383 761 523 380 762 520 380 762 520 384 763 524 386 760 526 387 764 527 382 765 522 383 766 523 383 766 523 386 767 526 387 764 527 385 768 525 381 769 521 382 770 522 382 770 522 387 771 527 385 768 525 388 772 528 391 773 531 390 774 530 390 774 530 389 775 529 388 772 528 392 776 532 388 777 528 389 778 529 389 778 529 393 779 533 392 776 532 394 780 534 391 781 531 388 782 528 388 782 528 392 783 532 394 780 534 395 784 535 390 785 530 391 786 531 391 786 531 394 787 534 395 784 535 393 788 533 389 789 529 390 790 530 390 790 530 395 791 535 393 788 533 209 792 1 2 793 2 10 794 3 10 794 3 208 795 0 209 792 1</p>
        </triangles>
      </mesh>
    </geometry>
  </library_geometries>
  <library_lights>
    <light id="EnvironmentAmbientLight" name="EnvironmentAmbientLight">
      <technique_common>
        <ambient>
          <color>0 0 0</color>
        </ambient>
      </technique_common>
    </light>
  </library_lights>
  <library_images>
    <image id="slide_door_data_tunnel_dds">
      <init_from>file:///D:/Files/Google%20Drive/Work/ArtBully%20Productions/Frictional%20Games/Project%20Depth/slide_door_data_tunnel/slide_door_data_tunnel.dds</init_from>
    </image>
    <image id="slide_door_data_tunnel_spec_dds">
      <init_from>file:///D:/Files/Google%20Drive/Work/ArtBully%20Productions/Frictional%20Games/Project%20Depth/slide_door_data_tunnel/slide_door_data_tunnel_spec.dds</init_from>
    </image>
  </library_images>
  <library_visual_scenes>
    <visual_scene id="MaxScene">
      <node name="EnvironmentAmbientLight">
        <instance_light url="#EnvironmentAmbientLight"/>
      </node>
      <node id="node-slidedoor_data_tunnel_door_LP" name="slidedoor_data_tunnel_door_LP">
        <translate>0.009660721 1.045889 3.82618</translate>
        <rotate>-1 0 0 -90</rotate>
        <instance_geometry url="#geom-slidedoor_data_tunnel_door_LP">
          <bind_material>
            <technique_common>
              <instance_material symbol="slidedoor_data_tunnel" target="#slidedoor_data_tunnel-material">
                <bind_vertex_input semantic="CHANNEL1" input_semantic="TEXCOORD" input_set="0"/>
                <bind_vertex_input semantic="CHANNEL1" input_semantic="TEXCOORD" input_set="0"/>
              </instance_material>
            </technique_common>
          </bind_material>
        </instance_geometry>
      </node>
    </visual_scene>
  </library_visual_scenes>
  <scene>
    <instance_visual_scene url="#MaxScene"/>
  </scene>
</COLLADA>