<?xml version="1.0" encoding="utf-8" ?>
<COLLADA xmlns="http://www.collada.org/2005/11/COLLADASchema" version="1.4.1">
    <asset>
        <contributor>
            <authoring_tool>modo 701 [Build 68192], Microsoft Windows 7 Service Pack 1 (6.1.7601 Service Pack 1)</authoring_tool>
            <comments>
                Plug-in: [Build 68192];
                Use Absolute Path: No;
                Merge Reference Items: No;
                Save Hidden Items: No;
                Save Cameras: No;
                Save Lights: No;
                Save Locators: Yes;
                Save Triangles as Triangles: No;
                Order Vertex Maps Alphabetically: No;
                Bake Matrices: Yes;
                Save Vertex Normals: Yes;
                Save UV Texture Coordinates: Yes;
                Save Vertex Colors: Yes;
                Save Vertex Weights: Yes;
                Save Animation: No;
                Sample Animation: No;
                Sample Animation Start: 0;
                Sample Animation End: 1;
                Save modo Profile: No;
                Save Maya Profile: No;
                Save 3ds Max Profile: No;
                Formatted Arrays: Yes;
            </comments>
            <source_data>file:///D:/Work/studio/Frictional%20Games/Depth/redist/entities/station/utility/radiator_station/radiator_station.dae</source_data>
        </contributor>
        <created>2015-03-09T09:17:46Z</created>
        <modified>2015-03-09T09:17:46Z</modified>
        <unit name="game" meter="1" />
        <up_axis>Y_UP</up_axis>
    </asset>
    <library_images>
        <image id="Image0001" name="Image0001">
            <init_from>file:///D:/Work/Dropbox/Frictional%20Games%20-%20Team/Aaron/models/entities/station/utility/radiator_station/radiator_station.tga</init_from>
        </image>
    </library_images>
    <library_materials>
        <material id="Material-radiator" name="radiator">
            <instance_effect url="#Effect-radiator" />
        </material>
    </library_materials>
    <library_effects>
        <effect id="Effect-radiator" name="radiator">
            <profile_COMMON>
                <newparam sid="Image0001-surface">
                    <surface type="2D">
                        <init_from>Image0001</init_from>
                        <format>A8R8G8B8</format>
                    </surface>
                </newparam>
                <newparam sid="Image0001-sampler">
                    <sampler2D>
                        <source>Image0001-surface</source>
                        <minfilter>LINEAR_MIPMAP_LINEAR</minfilter>
                        <magfilter>LINEAR</magfilter>
                    </sampler2D>
                </newparam>
                <technique sid="common">
                    <phong>
                        <diffuse>
                            <texture texture="Image0001-sampler" texcoord="radiator-lib-UV0" />
                        </diffuse>
                        <specular>
                            <color sid="specular_effect_rgb">0.2 0.2 0.2 1</color>
                        </specular>
                        <shininess>
                            <float sid="specular_effect_rgb">256</float>
                        </shininess>
                        <reflective>
                            <color sid="reflective_effect_rgb">0 0 0 1</color>
                        </reflective>
                        <reflectivity>
                            <float sid="reflectivity_effect_float">1</float>
                        </reflectivity>
                    </phong>
                </technique>
            </profile_COMMON>
        </effect>
    </library_effects>
    <library_geometries>
        <geometry id="Geometry-radiatorPivot" name="radiator-Pivot">
            <mesh>
                <source id="Geometry-radiatorPivot-positions" name="positions">
                    <float_array id="Geometry-radiatorPivot-positions-array" count="678">
                        -0.524374 -0.0739577 -29.5047
                        -0.524374 -0.0739577 -29.3751
                        -0.524374 -0.0529573 -29.5314
                        -0.524374 -0.0739577 -29.9678
                        -0.524374 -0.0714152 -29.8089
                        -0.524374 -0.0512731 -29.7851
                        -0.524374 -0.0714664 -29.5111
                        -0.524374 -0.0736809 -29.5071
                        -0.524374 -0.0728505 -29.5092
                        -0.524374 -0.0739578 -29.8153
                        -0.524374 -0.0728277 -29.8108
                        -0.524374 -0.0736752 -29.8129
                        -0.524374 -0.0512731 -29.5358
                        -0.524374 -0.0529919 -29.7894
                        -0.524374 -0.0520216 -29.5327
                        -0.524374 -0.0514602 -29.5342
                        -0.524374 -0.051464 -29.7867
                        -0.524374 -0.052037 -29.7881
                        0.524372 -0.0714154 -29.8089
                        -0.524374 0.0785733 -29.3751
                        -0.524374 0.0785733 -29.5047
                        -0.524374 0.076082 -29.5111
                        -0.524374 0.0785733 -29.8153
                        -0.524374 0.0785733 -29.9678
                        0.524372 0.0760306 -29.8089
                        -0.524374 0.0576074 -29.7894
                        -0.524374 0.0760308 -29.8089
                        0.524372 0.0558884 -29.7851
                        -0.524374 0.0558886 -29.5358
                        -0.524374 0.0558886 -29.7851
                        -0.524374 0.077466 -29.5092
                        -0.524374 0.0782965 -29.5071
                        -0.524374 0.0774433 -29.8108
                        0.524372 0.0774431 -29.8108
                        -0.524374 0.0782908 -29.8129
                        0.524372 0.0782906 -29.8129
                        -0.524374 0.0560757 -29.5342
                        -0.524374 0.0560796 -29.7867
                        -0.524374 0.0566372 -29.5327
                        -0.524374 0.0566525 -29.7881
                        0.524372 0.0566524 -29.7881
                        -0.518021 -0.0677414 -29.3684
                        0.524372 -0.0739579 -29.3751
                        0.524372 -0.0739579 -29.5047
                        0.518018 -0.0677416 -29.3684
                        0.524372 -0.0714666 -29.5111
                        0.524372 -0.0529574 -29.5314
                        0.524372 -0.0739579 -29.8153
                        0.524372 -0.0739579 -29.9678
                        0.524372 -0.052992 -29.7894
                        0.524372 -0.0512732 -29.5358
                        0.524372 -0.0512732 -29.7851
                        0.524372 -0.0728507 -29.5092
                        0.524372 -0.0736811 -29.5071
                        0.524372 -0.0728279 -29.8108
                        0.524372 -0.0736754 -29.8129
                        0.524372 -0.0514604 -29.5342
                        0.524372 -0.0514642 -29.7867
                        0.524372 -0.0520218 -29.5327
                        0.524372 -0.0520371 -29.7881
                        -0.518021 0.072357 -29.3684
                        -0.524374 0.0575728 -29.5314
                        0.524372 0.0785731 -29.5047
                        0.524372 0.0785731 -29.3751
                        0.518018 0.0723568 -29.3684
                        0.524372 0.0575726 -29.5314
                        0.524372 0.0760818 -29.5111
                        0.524372 0.0785731 -29.9678
                        0.524372 0.0785731 -29.8153
                        0.524372 0.0576072 -29.7894
                        0.524372 0.0558884 -29.5358
                        0.524372 0.0774659 -29.5092
                        0.524372 0.0782963 -29.5071
                        0.524372 0.0560756 -29.5342
                        0.524372 0.0560794 -29.7867
                        0.524372 0.056637 -29.5327
                        -0.524489 -0.0303382 -29.3749
                        -0.524489 -0.0735644 -29.3749
                        -0.539028 -0.0303382 -29.3749
                        -0.539028 -0.0735644 -29.3749
                        -0.539028 -0.0303382 -29.5559
                        -0.524489 -0.0303382 -29.5559
                        -0.539028 -0.0303382 -29.5756
                        -0.524489 -0.0303382 -29.5756
                        -0.524489 0.0350003 -29.3749
                        -0.539028 0.0350003 -29.3749
                        -0.524489 0.0350003 -29.5559
                        -0.539028 0.0350003 -29.5559
                        -0.524489 0.0350003 -29.5756
                        -0.539028 0.0350003 -29.5756
                        -0.539028 -0.0303382 -29.509
                        -0.524489 -0.0303382 -29.509
                        -0.524489 0.0350003 -29.453
                        -0.539028 0.0350003 -29.453
                        -0.539028 -0.0303382 -29.5342
                        -0.524489 -0.0303382 -29.5342
                        -0.524489 0.0350003 -29.4783
                        -0.539028 0.0350003 -29.4783
                        -0.524489 0.0782266 -29.3749
                        -0.539028 0.0782266 -29.3749
                        -0.524489 0.078052 -29.6713
                        -0.524489 -0.0733992 -29.6713
                        -0.524489 -0.0303382 -29.9678
                        -0.539028 -0.0303382 -29.9678
                        -0.539028 -0.0735644 -29.9678
                        -0.524489 -0.0735644 -29.9678
                        -0.524489 -0.0303382 -29.8337
                        -0.539028 -0.0303382 -29.8337
                        -0.524489 -0.0303382 -29.7671
                        -0.539028 -0.0303382 -29.7671
                        -0.524489 0.0782266 -29.9678
                        -0.539028 0.0782266 -29.9678
                        -0.539028 0.0350003 -29.9678
                        -0.524489 0.0350003 -29.9678
                        -0.539028 0.0350003 -29.8897
                        -0.524489 0.0350003 -29.8897
                        -0.524489 0.0350003 -29.7671
                        -0.539028 0.0350003 -29.7671
                        -0.524489 0.0350003 -29.7868
                        -0.524489 0.0350003 -29.8644
                        -0.539028 0.0350003 -29.7868
                        -0.539028 -0.0303382 -29.7868
                        -0.524489 -0.0303382 -29.7868
                        -0.524489 -0.0303382 -29.8085
                        -0.539028 -0.0303382 -29.8085
                        -0.539028 0.0350003 -29.8644
                        -0.539028 -0.0734271 -29.6713
                        -0.539028 0.0781054 -29.6713
                        -0.524489 -0.0735054 -29.5023
                        -0.524489 -0.047092 -29.5343
                        -0.524489 -0.047092 -29.5933
                        -0.524489 -0.047092 -29.7494
                        -0.524489 -0.047092 -29.7875
                        -0.524489 -0.073495 -29.8179
                        -0.524489 0.0781652 -29.8177
                        -0.524489 0.0535429 -29.7878
                        -0.524489 0.0536081 -29.7313
                        -0.524489 0.0537462 -29.6117
                        -0.524489 0.0538357 -29.5342
                        -0.524489 0.0781748 -29.5016
                        -0.511903 0.0723694 -29.3684
                        -0.302362 0.0723694 -29.3684
                        -0.302362 0.0434962 -29.3684
                        -0.511903 0.0434961 -29.3684
                        -0.302362 0.0723694 -29.348
                        -0.511903 0.0723693 -29.348
                        -0.511903 0.0615625 -29.348
                        -0.302362 0.0615625 -29.348
                        0.5119 0.0723692 -29.348
                        0.5119 0.0615623 -29.348
                        0.30236 0.0615624 -29.348
                        0.30236 0.0723693 -29.348
                        0.30236 0.0723693 -29.3684
                        0.5119 0.0723692 -29.3684
                        0.5119 0.043496 -29.3684
                        0.30236 0.043496 -29.3684
                        0.524487 0.0349537 -29.3749
                        0.539026 0.0349537 -29.3749
                        0.539026 0.0781799 -29.3749
                        0.524487 0.0781799 -29.3749
                        0.524487 0.0349537 -29.509
                        0.539026 0.0349537 -29.509
                        0.524487 -0.0736111 -29.3749
                        0.539026 -0.0736111 -29.3749
                        0.539026 -0.0303848 -29.3749
                        0.524487 -0.0303849 -29.3749
                        0.539026 -0.0303848 -29.453
                        0.524487 -0.0303848 -29.453
                        0.524487 -0.0303848 -29.5756
                        0.524487 -0.0491307 -29.6117
                        0.524487 -0.0303848 -29.5559
                        0.539026 -0.0303848 -29.5559
                        0.539026 0.0349537 -29.5559
                        0.524487 0.0349537 -29.5559
                        0.524487 0.0349537 -29.5756
                        0.539026 0.0349537 -29.5756
                        0.539026 -0.0303848 -29.5756
                        0.524487 0.0349537 -29.5342
                        0.539026 0.0349537 -29.5342
                        0.539026 -0.0303848 -29.4783
                        0.524487 -0.0303848 -29.4783
                        0.539026 0.0780426 -29.6713
                        0.539026 -0.0734899 -29.6713
                        0.524487 0.0517075 -29.5933
                        0.524487 -0.0735593 -29.5016
                        0.524487 -0.0734365 -29.6713
                        0.524487 0.0517075 -29.5343
                        0.524487 0.0781209 -29.5023
                        0.524487 0.0780147 -29.6713
                        0.524487 0.0349537 -29.9678
                        0.524487 0.0781799 -29.9678
                        0.539026 0.0781799 -29.9678
                        0.539026 0.0349537 -29.9678
                        0.524487 0.0349537 -29.8337
                        0.539026 0.0349537 -29.8337
                        0.524487 0.0349537 -29.7671
                        0.539026 0.0349537 -29.7671
                        0.524487 -0.073611 -29.9678
                        0.524487 -0.0303848 -29.9678
                        0.539026 -0.0303848 -29.9678
                        0.539026 -0.073611 -29.9678
                        0.524487 -0.0303848 -29.8897
                        0.539026 -0.0303848 -29.8897
                        0.524487 -0.0303848 -29.7671
                        0.539026 -0.0303848 -29.7671
                        0.524487 -0.0303848 -29.7868
                        0.524487 -0.0489274 -29.7878
                        0.524487 -0.0489926 -29.7313
                        0.539026 -0.0303848 -29.7868
                        0.524487 0.0349537 -29.7868
                        0.539026 0.0349537 -29.7868
                        0.524487 0.0349537 -29.8085
                        0.539026 0.0349537 -29.8085
                        0.539026 -0.0303848 -29.8644
                        0.524487 -0.0303848 -29.8644
                        0.524487 0.0517075 -29.7494
                        0.524487 -0.0735497 -29.8177
                        0.524487 0.0517075 -29.7875
                        0.524487 0.0781105 -29.8179
                        0.524487 -0.0492202 -29.5342
                        -0.539028 -0.0734211 -29.6713
                        -0.539028 -0.0733632 -29.6713
                        -0.539028 0.0780253 -29.6713
                        0.539026 0.0780367 -29.6713
                        0.539026 0.0779787 -29.6713
                        0.539026 -0.0734098 -29.6713
                    </float_array>
                    <technique_common>
                        <accessor count="226" source="#Geometry-radiatorPivot-positions-array" stride="3">
                            <param name="X" type="float" />
                            <param name="Y" type="float" />
                            <param name="Z" type="float" />
                        </accessor>
                    </technique_common>
                </source>
                <source id="Geometry-radiatorPivot-normals" name="normals">
                    <float_array id="Geometry-radiatorPivot-normals-array" count="378">
                        -0 -0.998296 -0.058359
                        -0 -1 0
                        -0 -0.777227 -0.629221
                        -0 -0.777098 -0.62938
                        -0 -0.777098 -0.629379
                        -0 -0.998218 0.05968
                        -0 -0.766054 0.642777
                        -0 -0.765924 0.642931
                        -0 -0.998216 0.059711
                        -0 -0.998294 -0.058393
                        -0 -0.879666 -0.475592
                        -0 -0.970604 -0.240683
                        -0 -0.873486 0.486849
                        -0 -0.969132 0.246542
                        -0 -0.970568 -0.240829
                        -0 -0.970567 -0.240829
                        -0 -0.969093 0.246694
                        -0 -0.969094 0.246694
                        -0 -0.879513 -0.475874
                        -0 -0.879512 -0.475876
                        -0 -0.873327 0.487134
                        0 0.998296 -0.058359
                        0 1 0
                        0 0.777227 -0.62922
                        0 0.777098 -0.629379
                        0 0.777098 -0.62938
                        0 0.998218 0.05968
                        0 0.766054 0.642776
                        0 0.765924 0.642931
                        0 0.998216 0.059711
                        0 0.998294 -0.058393
                        0 0.879666 -0.475592
                        0 0.970604 -0.240683
                        0 0.873486 0.486849
                        0 0.969132 0.246542
                        0 0.970567 -0.240829
                        0 0.969093 0.246694
                        0 0.969094 0.246694
                        0 0.879512 -0.475876
                        0 0.879513 -0.475875
                        0 0.873327 0.487134
                        -0.426733 -0.424534 0.798542
                        0.426731 -0.424534 0.798544
                        0.310047 -0.315391 0.896883
                        -0.310049 -0.315392 0.896882
                        -0.310049 0.315392 0.896882
                        0.310047 0.315392 0.896883
                        -0.426733 0.424534 0.798542
                        0.426731 0.424534 0.798543
                        0 0 -1
                        1 0 0
                        1 0 -1e-006
                        1 0 6e-006
                        1 0 1.9e-005
                        1 0 3e-006
                        1 0 1e-006
                        -1 0 -0
                        -1 0 -1e-006
                        -1 0 1e-006
                        -1 0 3e-006
                        -1 0 -1.9e-005
                        -1 0 -9e-006
                        0 0 1
                        1e-006 -1 0
                        1 1e-006 -0
                        1e-006 -0.650281 0.759693
                        -0 0.650281 -0.759693
                        -1 6e-006 -2e-006
                        -1 -4e-006 2e-006
                        1 -5e-006 1e-006
                        1 -1e-006 -0
                        0.001275 0.999999 3e-006
                        9.7e-005 1 -0.000417
                        0.001288 0.999999 -0.000519
                        0.001923 -0.999998 1.3e-005
                        5.2e-005 -1 -0.000468
                        0.00181 -0.999998 1.1e-005
                        -1 -1e-006 -0
                        1 2e-006 -0
                        0 -0.650282 -0.759693
                        0 -0.650281 -0.759693
                        -0 0.650282 0.759693
                        -0 0.650281 0.759693
                        -1 1e-006 0
                        1 -2e-006 -0
                        0.001176 0.999999 0.000526
                        7.4e-005 1 0.000416
                        1 1e-006 1e-006
                        6e-005 -1 0.000469
                        -1e-006 -1 -0.000463
                        -0 1 -0.000409
                        -0 1 0.000409
                        -1e-006 -1 0.000463
                        0 -0.410508 0.911857
                        -1 0 2e-006
                        0 -0.748649 0.662967
                        1 -1e-006 2e-006
                        -1e-006 -0 1
                        -1e-006 -0.410508 0.911857
                        1 0 2e-006
                        -1e-006 -0.748649 0.662967
                        -1e-006 1 0
                        1e-006 -0 -1
                        -1e-006 0.650281 0.759694
                        0 -0.650281 -0.759694
                        1 4e-006 2e-006
                        -1 -5e-006 -1e-006
                        -0.001275 -0.999999 3e-006
                        -9.7e-005 -1 -0.000417
                        -0.001288 -0.999999 -0.000519
                        -0.001923 0.999998 1.3e-005
                        -5.2e-005 1 -0.000467
                        -0.00181 0.999998 1.1e-005
                        -1 2e-006 -0
                        -0 0.650282 -0.759693
                        0 -0.650282 0.759693
                        0 -0.650281 0.759693
                        -1 -2e-006 -0
                        -0.001176 -0.999999 0.000525
                        -7.4e-005 -1 0.000416
                        -1 1e-006 -1e-006
                        -6e-005 1 0.000469
                        0 1 -0.000463
                        1e-006 -1 -0.000409
                        1e-006 -1 0.000409
                        0 1 0.000463
                    </float_array>
                    <technique_common>
                        <accessor count="126" source="#Geometry-radiatorPivot-normals-array" stride="3">
                            <param name="X" type="float" />
                            <param name="Y" type="float" />
                            <param name="Z" type="float" />
                        </accessor>
                    </technique_common>
                </source>
                <source id="Geometry-radiatorPivot-radiator-lib-UV0" name="radiator-lib-UV0">
                    <float_array id="Geometry-radiatorPivot-radiator-lib-UV0-array" count="714">
                        0.788091 0.61817
                        0.788091 0.783181
                        0.120236 0.783301
                        0.120229 0.618289
                        0.120229 0.609185
                        0.120229 0.574193
                        0.788091 0.574194
                        0.788091 0.609189
                        0.120231 0.201383
                        0.120233 0.007124
                        0.788091 0.007143
                        0.788091 0.201401
                        0.788091 0.210366
                        0.788091 0.244496
                        0.120231 0.244481
                        0.120231 0.210348
                        0.788091 0.250577
                        0.788091 0.568126
                        0.120229 0.568111
                        0.120231 0.250562
                        0.788091 0.612215
                        0.120229 0.612279
                        0.788091 0.615144
                        0.120229 0.615196
                        0.120231 0.207324
                        0.788091 0.207342
                        0.120231 0.204407
                        0.788091 0.204426
                        0.788091 0.570171
                        0.120229 0.570174
                        0.120231 0.2485
                        0.788091 0.248515
                        0.788091 0.57215
                        0.120229 0.57213
                        0.120231 0.246543
                        0.788091 0.246558
                        1.78809 0.61817
                        1.12023 0.618289
                        1.12024 0.783301
                        1.78809 0.783181
                        1.12023 0.609185
                        1.78809 0.609189
                        1.78809 0.574194
                        1.12023 0.574193
                        1.12023 0.201383
                        1.78809 0.201401
                        1.78809 0.007143
                        1.12023 0.007124
                        1.78809 0.210366
                        1.12023 0.210348
                        1.12023 0.244481
                        1.78809 0.244496
                        1.78809 0.250577
                        1.12023 0.250562
                        1.12023 0.568111
                        1.78809 0.568126
                        1.12023 0.612279
                        1.78809 0.612215
                        1.12023 0.615196
                        1.78809 0.615144
                        1.78809 0.207342
                        1.12023 0.207324
                        1.78809 0.204426
                        1.12023 0.204407
                        1.12023 0.570174
                        1.78809 0.570171
                        1.78809 0.248515
                        1.12023 0.2485
                        1.12023 0.57213
                        1.78809 0.57215
                        1.78809 0.246558
                        1.12023 0.246543
                        0.003286 0.792544
                        0.684461 0.792534
                        0.679401 0.802532
                        0.008344 0.802547
                        0.008335 0.983953
                        0.679413 0.983937
                        0.003262 0.993953
                        0.684482 0.993938
                        0.995654 0.283318
                        0.975838 0.283319
                        0.975836 0.010831
                        0.995651 0.01083
                        1.11055 0.611119
                        1.11055 0.77943
                        1.01147 0.779436
                        1.01147 0.611124
                        1.11037 0.608054
                        1.01165 0.608059
                        1.10983 0.605267
                        1.01219 0.605271
                        1.10893 0.602759
                        1.01309 0.602764
                        1.0969 0.576382
                        1.02511 0.576386
                        1.09629 0.574688
                        1.02572 0.574691
                        1.09593 0.572805
                        1.02608 0.572808
                        1.09581 0.570734
                        1.0262 0.570738
                        1.09581 0.246836
                        1.0262 0.246839
                        1.09593 0.24477
                        1.02607 0.244772
                        1.0963 0.242901
                        1.0257 0.242904
                        1.09692 0.241231
                        1.02508 0.241232
                        1.10889 0.215951
                        1.01311 0.215953
                        1.10981 0.213477
                        1.0122 0.213478
                        1.11036 0.210711
                        1.01164 0.210712
                        1.11054 0.207653
                        1.01146 0.207653
                        1.11054 0.009506
                        1.01146 0.009506
                        0.011461 0.207659
                        0.01146 0.009509
                        0.11054 0.009506
                        0.110541 0.207657
                        0.011644 0.210718
                        0.110358 0.210715
                        0.012195 0.213484
                        0.109807 0.213481
                        0.013113 0.215958
                        0.108889 0.215956
                        0.02508 0.241238
                        0.096922 0.241236
                        0.025701 0.242909
                        0.096301 0.242907
                        0.026073 0.244778
                        0.095929 0.244776
                        0.026197 0.246844
                        0.095805 0.246842
                        0.026199 0.570744
                        0.095806 0.570743
                        0.026078 0.572815
                        0.095928 0.572813
                        0.025713 0.574698
                        0.096293 0.574695
                        0.025105 0.576393
                        0.0969 0.576389
                        0.013083 0.602771
                        0.108923 0.602766
                        0.012184 0.605279
                        0.109822 0.605274
                        0.011645 0.608066
                        0.110362 0.608061
                        0.011465 0.611131
                        0.110542 0.611125
                        0.011468 0.779441
                        0.110544 0.779434
                        0.748884 0.827024
                        0.748884 0.806219
                        0.779812 0.806219
                        0.779812 0.827025
                        0.930824 0.643199
                        0.941227 0.643199
                        0.941226 0.835061
                        0.930823 0.835061
                        0.712808 0.82747
                        0.712808 0.806664
                        0.743736 0.806665
                        0.743736 0.82747
                        0.872172 0.830262
                        0.86177 0.830262
                        0.86177 0.718431
                        0.872173 0.718431
                        1.84634 0.56213
                        1.83292 0.510411
                        1.84634 0.590274
                        0.976325 0.818662
                        0.976324 0.725164
                        0.986727 0.725164
                        0.986727 0.818662
                        1.89308 0.590275
                        1.89308 0.562131
                        0.971537 0.006941
                        0.971537 0.100439
                        0.961134 0.100439
                        0.961134 0.006941
                        0.849626 0.626095
                        0.849626 0.595037
                        0.860029 0.595037
                        0.860029 0.626095
                        0.875833 0.82733
                        0.875832 0.71624
                        0.886235 0.71624
                        0.886236 0.827329
                        1.81541 0.849304
                        1.84633 0.849305
                        1.84633 0.737475
                        1.84633 0.701364
                        0.95752 0.720463
                        0.967922 0.720463
                        0.967923 0.813961
                        0.95752 0.813961
                        1.89308 0.657444
                        1.89308 0.621333
                        0.939368 0.099271
                        0.928966 0.099271
                        0.928965 0.005773
                        0.939368 0.005773
                        0.893086 0.590275
                        0.846337 0.590275
                        0.846337 0.562131
                        0.893086 0.562131
                        0.846338 0.701365
                        0.893086 0.621333
                        0.893086 0.657444
                        0.846338 0.737477
                        0.923916 0.425081
                        0.924015 0.849306
                        0.893087 0.849306
                        0.81541 0.849307
                        0.846338 0.849306
                        1.90507 0.536726
                        1.79464 0.425086
                        1.79464 0.849311
                        1.80504 0.668038
                        1.80505 0.425086
                        1.90507 0.621213
                        1.92397 0.666955
                        0.805045 0.425086
                        0.805044 0.666959
                        0.794642 0.425086
                        0.815496 0.425082
                        0.872195 0.101626
                        0.872195 0.117819
                        0.869472 0.117819
                        0.869472 0.101626
                        0.877121 0.555366
                        0.877119 0.363504
                        0.887522 0.363503
                        0.887523 0.555366
                        0.86436 0.305987
                        0.873904 0.305987
                        0.873902 0.557454
                        0.864358 0.557454
                        0.868839 0.101784
                        0.868839 0.117977
                        0.866116 0.117977
                        0.866116 0.101784
                        0.861351 0.002251
                        0.861351 0.114082
                        0.850948 0.114082
                        0.850949 0.002251
                        0.86057 0.305987
                        0.860569 0.557454
                        0.851026 0.557454
                        0.851026 0.305987
                        1.84634 0.259887
                        1.83307 0.258451
                        1.83302 0.339259
                        1.84634 0.288031
                        0.888366 0.24052
                        0.888366 0.258124
                        0.848809 0.258125
                        0.848809 0.24052
                        1.89309 0.288032
                        1.89309 0.259888
                        0.84779 0.237996
                        0.84779 0.220392
                        0.887347 0.220391
                        0.887347 0.237996
                        0.876757 0.32246
                        0.887159 0.322459
                        0.88716 0.353517
                        0.876757 0.353518
                        0.878898 0.002161
                        0.889301 0.002161
                        0.889302 0.113251
                        0.878899 0.113251
                        1.81541 0.000855
                        1.84634 0.112685
                        1.84634 0.000855
                        1.84634 0.148797
                        0.946226 0.097811
                        0.946225 0.004313
                        0.956628 0.004313
                        0.956628 0.097811
                        1.89309 0.192719
                        1.89309 0.22883
                        0.875347 0.002225
                        0.875347 0.095722
                        0.864944 0.095723
                        0.864944 0.002225
                        0.893086 0.288032
                        0.893086 0.259888
                        0.846337 0.288032
                        0.846337 0.259888
                        0.846337 0.148798
                        0.846337 0.112687
                        0.893086 0.192719
                        0.893086 0.22883
                        0.893085 0.000856
                        0.924013 0.000856
                        0.815409 0.000857
                        0.846336 0.000857
                        1.90507 0.313437
                        1.80505 0.215678
                        1.79464 0.000861
                        1.90507 0.258813
                        0.805045 0.215436
                        0.9506 0.597099
                        0.950675 0.355225
                        0.969498 0.466869
                        0.969498 0.551357
                        0.969498 0.243581
                        0.969497 0.188957
                        0.950607 0.145575
                        0.930035 0.189469
                        0.947651 0.14669
                        0.947572 0.356098
                        0.930082 0.270278
                        0.930183 0.44143
                        1.81544 0.668032
                        1.83286 0.621339
                        0.930248 0.552358
                        0.947662 0.59905
                        1.89308 0.849306
                        1.92401 0.849307
                        1.81545 0.215671
                        1.92396 0.215432
                        1.92402 0.000857
                        1.89309 0.000856
                        0.805044 0.849311
                        0.794641 0.849311
                        1.80504 0.849311
                        1.80505 0.000861
                        0.794643 0.000861
                        0.805045 0.000861
                        0.700987 0.947878
                        0.700987 0.918183
                        0.988874 0.918183
                        0.988874 0.947879
                        0.988874 0.998968
                        0.700987 0.998968
                        0.700987 0.949863
                        0.988874 0.949864
                        0.958324 0.597948
                        0.997204 0.597948
                        0.973512 0.648178
                        0.958324 0.648178
                        0.700987 0.850677
                        0.988874 0.850677
                        0.952876 0.660705
                        0.991756 0.660705
                        0.991756 0.710936
                        0.976568 0.710936
                        0.923911 0.425081
                        0.92387 0.425081
                        0.815553 0.425082
                    </float_array>
                    <technique_common>
                        <accessor count="357" source="#Geometry-radiatorPivot-radiator-lib-UV0-array" stride="2">
                            <param name="S" type="float" />
                            <param name="T" type="float" />
                        </accessor>
                    </technique_common>
                </source>
                <source id="Geometry-radiatorPivot-UV_Distortion" name="UV_Distortion">
                    <float_array id="Geometry-radiatorPivot-UV_Distortion-array" count="1032">
                        0.503546 0.547273 0.500363
                        0.503542 0.547277 0.500368
                        0.503438 0.547391 0.500472
                        0.503417 0.547414 0.500493
                        0.503427 0.547404 0.500483
                        0.503427 0.547403 0.500483
                        0.503743 0.547055 0.500165
                        0.50372 0.54708 0.500188
                        0.503438 0.547391 0.500472
                        0.503439 0.54739 0.500471
                        0.500938 0.547901 0.502976
                        0.495402 0.541846 0.508468
                        0.498909 0.545681 0.504989
                        0.499937 0.546806 0.503969
                        0.507596 0.542808 0.496281
                        0.502111 0.548854 0.501809
                        0.502726 0.548176 0.50119
                        0.50064 0.547575 0.503272
                        0.500725 0.547668 0.503187
                        0.507833 0.542546 0.496042
                        0.507749 0.542639 0.496128
                        0.504327 0.546412 0.499576
                        0.502137 0.548825 0.501783
                        0.502031 0.548943 0.50189
                        0.502033 0.548941 0.501888
                        0.511249 0.53878 0.492599
                        0.514217 0.535509 0.489609
                        0.502826 0.548066 0.501089
                        0.500527 0.547451 0.503384
                        0.499557 0.54639 0.504346
                        0.49955 0.546383 0.504353
                        0.502643 0.548268 0.501274
                        0.502644 0.548266 0.501272
                        0.503542 0.547276 0.500367
                        0.503548 0.54727 0.500362
                        0.503418 0.547413 0.500492
                        0.503439 0.54739 0.500471
                        0.503426 0.547404 0.500484
                        0.503721 0.54708 0.500187
                        0.503743 0.547055 0.500165
                        0.503439 0.54739 0.500471
                        0.495397 0.541841 0.508473
                        0.500939 0.547902 0.502974
                        0.499942 0.546811 0.503964
                        0.498909 0.545682 0.504989
                        0.502112 0.548853 0.501809
                        0.507597 0.542807 0.496281
                        0.502726 0.548176 0.501189
                        0.500725 0.547668 0.503187
                        0.500639 0.547574 0.503272
                        0.507749 0.542639 0.496127
                        0.507832 0.542548 0.496044
                        0.502138 0.548825 0.501782
                        0.504327 0.546411 0.499575
                        0.502033 0.548941 0.501889
                        0.514223 0.535502 0.489602
                        0.51125 0.538779 0.492598
                        0.500518 0.547442 0.503392
                        0.502827 0.548065 0.501088
                        0.499557 0.54639 0.504346
                        0.49955 0.546383 0.504353
                        0.502635 0.548276 0.501281
                        0.502643 0.548268 0.501274
                        0.537615 0.509715 0.466026
                        0.538219 0.50905 0.465417
                        0.495117 0.541534 0.508751
                        0.49511 0.541527 0.508758
                        0.538297 0.508964 0.465339
                        0.537513 0.509828 0.466128
                        3.91668 0 0
                        3.91679 0 0
                        0.537539 0.5098 0.466103
                        0.532724 0.515108 0.470956
                        0.493676 0.539958 0.510181
                        0.493674 0.539956 0.510183
                        0.497777 0.544443 0.506112
                        0.497779 0.544446 0.50611
                        0.488353 0.534136 0.515462
                        0.488272 0.534047 0.515543
                        0.489886 0.535813 0.513941
                        0.489998 0.535936 0.51383
                        0.49355 0.539821 0.510305
                        0.493569 0.539841 0.510287
                        0.492662 0.538849 0.511187
                        0.492539 0.538715 0.511309
                        0.502343 0.548598 0.501575
                        0.502322 0.548621 0.501596
                        0.494552 0.540916 0.509312
                        0.494656 0.54103 0.509209
                        0.493571 0.539843 0.510285
                        0.49357 0.539842 0.510286
                        0.49484 0.541231 0.509026
                        0.494713 0.541092 0.509152
                        0.486906 0.532554 0.516898
                        0.48705 0.532711 0.516755
                        0.496537 0.543088 0.507342
                        0.496235 0.542757 0.507642
                        0.494128 0.540453 0.509732
                        0.494119 0.540442 0.509742
                        0.492986 0.539204 0.510865
                        0.492895 0.539104 0.510956
                        0.49021 0.536167 0.51362
                        0.490187 0.536142 0.513643
                        0.498329 0.545047 0.505565
                        0.498265 0.544977 0.505628
                        0.493555 0.539826 0.510301
                        0.493552 0.539822 0.510304
                        0.493551 0.539821 0.510305
                        0.498265 0.544977 0.505628
                        0.498344 0.545064 0.505549
                        0.490201 0.536157 0.513629
                        0.490206 0.536163 0.513624
                        0.492989 0.539207 0.510862
                        0.492895 0.539104 0.510955
                        0.494119 0.540443 0.509741
                        0.494123 0.540447 0.509737
                        0.496378 0.542913 0.5075
                        0.496388 0.542924 0.50749
                        0.486919 0.532567 0.516886
                        0.486922 0.532571 0.516882
                        0.494848 0.54124 0.509018
                        0.494847 0.541239 0.509019
                        0.493577 0.539849 0.51028
                        0.493579 0.539852 0.510277
                        0.494545 0.540908 0.509319
                        0.494673 0.541048 0.509192
                        0.502321 0.548622 0.501597
                        0.502442 0.548489 0.501476
                        0.492496 0.538667 0.511352
                        0.492636 0.538821 0.511213
                        0.493553 0.539823 0.510303
                        0.493551 0.539821 0.510305
                        0.489893 0.535821 0.513934
                        0.489884 0.535811 0.513943
                        0.488366 0.53415 0.515449
                        0.488361 0.534145 0.515455
                        0.497787 0.544455 0.506102
                        0.497867 0.544542 0.506023
                        0.493685 0.539968 0.510172
                        0.493689 0.539972 0.510168
                        0.532138 0.515754 0.471546
                        0.538035 0.509253 0.465603
                        0.448116 0.490126 0.555385
                        0.448105 0.490114 0.555396
                        0.448142 0.490155 0.555359
                        0.448143 0.490157 0.555358
                        0.448105 0.490115 0.555396
                        0.448116 0.490126 0.555385
                        0.447978 0.489976 0.555522
                        0.447956 0.489952 0.555544
                        0.448349 0.490382 0.555154
                        0.448106 0.490116 0.555395
                        0.448126 0.490138 0.555375
                        0.448517 0.490565 0.554987
                        0.448106 0.490116 0.555395
                        0.448063 0.490069 0.555437
                        0.448014 0.490016 0.555486
                        0.448015 0.490016 0.555485
                        0.448027 0.49003 0.555473
                        0.448757 0.490828 0.554749
                        0.514187 0.535541 0.489638
                        0.514163 0.535569 0.489663
                        0.447798 0.489779 0.5557
                        0.448695 0.490761 0.55481
                        0.513991 0.535758 0.489836
                        0.513966 0.535785 0.489861
                        0.448474 0.490518 0.55503
                        0.447807 0.489789 0.555691
                        0.448698 0.490764 0.554807
                        0.448067 0.490073 0.555434
                        0.448153 0.490167 0.555348
                        0.447972 0.489969 0.555528
                        0.4478 0.489782 0.555698
                        0.448472 0.490516 0.555032
                        0.448015 0.490017 0.555485
                        0.448694 0.490759 0.554812
                        0.448021 0.490023 0.555479
                        0.448422 0.490461 0.555081
                        0.448125 0.490137 0.555376
                        0.44785 0.489835 0.555649
                        0.448091 0.490099 0.55541
                        0.448071 0.490078 0.55543
                        0.447751 0.489727 0.555748
                        0.448476 0.49052 0.555028
                        2.41031 0 0
                        0.448143 0.490157 0.555358
                        0.448163 0.490178 0.555339
                        0.488376 0.534161 0.51544
                        2.41028 0 0
                        0.447962 0.489958 0.555538
                        0.447984 0.489982 0.555516
                        0.488402 0.534189 0.515414
                        0.448182 0.490199 0.55532
                        0.44839 0.490426 0.555113
                        0.529378 0.518795 0.474327
                        0.529363 0.518812 0.474342
                        0.448491 0.490537 0.555013
                        0.529364 0.518812 0.474342
                        0.448085 0.490093 0.555416
                        0.448013 0.490014 0.555487
                        0.447961 0.489957 0.555539
                        0.448663 0.490725 0.554843
                        0.514158 0.535574 0.489668
                        0.514182 0.535547 0.489643
                        0.448672 0.490735 0.554834
                        0.447798 0.489779 0.555701
                        0.513969 0.535782 0.489858
                        0.448059 0.490065 0.555442
                        0.448496 0.490542 0.555008
                        0.448683 0.490747 0.554822
                        0.447803 0.489784 0.555696
                        0.448152 0.490166 0.55535
                        0.44815 0.490164 0.555351
                        0.447982 0.48998 0.555518
                        0.448493 0.49054 0.55501
                        0.448024 0.490026 0.555476
                        0.448683 0.490747 0.554823
                        0.44815 0.490164 0.555351
                        0.448179 0.490196 0.555322
                        0.448209 0.490228 0.555293
                        0.448631 0.49069 0.554874
                        0.447936 0.48993 0.555563
                        0.448008 0.490008 0.555493
                        0.448046 0.49005 0.555455
                        0.447984 0.489983 0.555516
                        0.447832 0.489817 0.555666
                        0.448244 0.490266 0.555258
                        0.447938 0.489932 0.555562
                        0.448063 0.490069 0.555438
                        0.448498 0.490544 0.555006
                        0.448081 0.490089 0.555419
                        0.447963 0.489959 0.555537
                        0.448198 0.490216 0.555304
                        0.447669 0.489638 0.555828
                        0.448265 0.49029 0.555237
                        0.448214 0.490234 0.555287
                        0.448226 0.490247 0.555276
                        0.448113 0.490124 0.555388
                        0.447974 0.489972 0.555526
                        0.448069 0.490076 0.555431
                        0.447907 0.489898 0.555593
                        0.448138 0.490151 0.555363
                        0.448027 0.49003 0.555473
                        0.447984 0.489982 0.555516
                        0.448172 0.490188 0.55533
                        0.448014 0.490015 0.555487
                        0.447981 0.48998 0.555519
                        0.448141 0.490154 0.555361
                        0.448056 0.490061 0.555445
                        0.448387 0.490423 0.555116
                        0.448027 0.490029 0.555474
                        0.448212 0.490232 0.555289
                        0.448049 0.490054 0.555451
                        0.448207 0.490227 0.555294
                        0.447926 0.489919 0.555574
                        0.448053 0.490057 0.555448
                        0.448147 0.49016 0.555355
                        0.448071 0.490078 0.55543
                        0.233367 0.255245 0.768456
                        0.233364 0.255242 0.768459
                        0.249342 0.272718 0.752606
                        0.249344 0.27272 0.752604
                        0.249022 0.272368 0.752923
                        0.243754 0.266606 0.758151
                        0.245781 0.268823 0.756139
                        0.245781 0.268823 0.756139
                        0.249019 0.272364 0.752927
                        0.243752 0.266604 0.758152
                        0.233363 0.255241 0.76846
                        0.233367 0.255246 0.768456
                        0.249344 0.27272 0.752604
                        0.249341 0.272717 0.752607
                        0.243755 0.266607 0.758149
                        0.249022 0.272368 0.752924
                        0.24578 0.268822 0.75614
                        0.245781 0.268823 0.756139
                        0.243752 0.266604 0.758152
                        0.249019 0.272365 0.752926
                        0.448105 0.490115 0.555396
                        0.448115 0.490126 0.555386
                        0.448349 0.490381 0.555154
                        0.448027 0.490029 0.555474
                        0.448757 0.490828 0.554749
                        0.448067 0.490073 0.555434
                        0.447972 0.489969 0.555528
                        0.4478 0.489782 0.555698
                        0.448472 0.490516 0.555032
                        0.448015 0.490017 0.555485
                        0.448021 0.490023 0.555479
                        0.448422 0.490461 0.555081
                        0.447751 0.489727 0.555748
                        0.448476 0.49052 0.555028
                        2.41027 0 0
                        0.448182 0.490199 0.55532
                        0.44839 0.490426 0.555113
                        0.44796 0.489957 0.555539
                        0.448662 0.490724 0.554843
                        0.448059 0.490064 0.555442
                        0.447982 0.48998 0.555518
                        0.448493 0.49054 0.55501
                        0.448024 0.490026 0.555477
                        0.448682 0.490746 0.554823
                        0.44815 0.490164 0.555351
                        0.448179 0.490196 0.555322
                        0.448209 0.490228 0.555293
                        0.448631 0.49069 0.554874
                        0.447936 0.48993 0.555563
                        0.448008 0.490008 0.555493
                        0.447832 0.489817 0.555666
                        0.447938 0.489932 0.555562
                        0.448063 0.490069 0.555438
                        0.447974 0.489972 0.555526
                        0.447907 0.489898 0.555593
                        0.447984 0.489982 0.555516
                        0.448172 0.490188 0.55533
                        0.447981 0.48998 0.555519
                        0.44814 0.490154 0.555361
                        0.448055 0.490061 0.555445
                        0.448387 0.490423 0.555116
                        0.415018 0.453926 0.588224
                        0.448073 0.49008 0.555428
                        0.446906 0.488803 0.556585
                        0.4469 0.488797 0.556591
                        0.449366 0.491494 0.554145
                        0.448075 0.490082 0.555426
                        0.449331 0.491456 0.554179
                        0.415146 0.454066 0.588097
                        0.447069 0.488981 0.556424
                        0.448073 0.49008 0.555428
                        0.447094 0.489009 0.556399
                        0.448147 0.490161 0.555354
                        0.449441 0.491576 0.55407
                        0.449523 0.491666 0.553989
                        0.411139 0.449683 0.592074
                        0.44688 0.488775 0.556611
                        0.446874 0.488769 0.556617
                        0.449345 0.491471 0.554166
                        0.449311 0.491433 0.5542
                        0.411265 0.449821 0.591948
                        0.447043 0.488953 0.55645
                        0.447067 0.48898 0.556425
                        0.448147 0.49016 0.555355
                        0.44942 0.491553 0.554091
                        0.449502 0.491643 0.55401
                    </float_array>
                    <technique_common>
                        <accessor count="344" source="#Geometry-radiatorPivot-UV_Distortion-array" stride="3">
                            <param name="R" type="float" />
                            <param name="G" type="float" />
                            <param name="B" type="float" />
                        </accessor>
                    </technique_common>
                </source>
                <vertices id="Geometry-radiatorPivot-vertices">
                    <input semantic="POSITION" source="#Geometry-radiatorPivot-positions" />
                </vertices>
                <polylist count="460" material="Material-radiator">
                    <input semantic="VERTEX" source="#Geometry-radiatorPivot-vertices" offset="0" />
                    <input semantic="NORMAL" source="#Geometry-radiatorPivot-normals" offset="1" />
                    <input semantic="TEXCOORD" source="#Geometry-radiatorPivot-radiator-lib-UV0" offset="2" set="0" />
                    <input semantic="COLOR" source="#Geometry-radiatorPivot-UV_Distortion" offset="3" set="0" />
                    <vcount>3 3 3 3 3 3 3 3 3 3 3 3 3 3 3 3 3 3 3 3 3 3 3 3 3 3 3 3 3 3 3 3 3 3 3 3 3 3 3 3 3 3 3 3 3 3 3 3 3 3 3 3 3 3 3 3 3 3 3 3 3 3 3 3 3 3 3 3 3 3 3 3 3 3 3 3 3 3 3 3 3 3 3 3 3 3 3 3 3 3 3 3 3 3 3 3 3 3 3 3 3 3 3 3 3 3 3 3 3 3 3 3 3 3 3 3 3 3 3 3 3 3 3 3 3 3 3 3 3 3 3 3 3 3 3 3 3 3 3 3 3 3 3 3 3 3 3 3 3 3 3 3 3 3 3 3 3 3 3 3 3 3 3 3 3 3 3 3 3 3 3 3 3 3 3 3 3 3 3 3 3 3 3 3 3 3 3 3 3 3 3 3 3 3 3 3 3 3 3 3 3 3 3 3 3 3 3 3 3 3 3 3 3 3 3 3 3 3 3 3 3 3 3 3 3 3 3 3 3 3 3 3 3 3 3 3 3 3 3 3 3 3 3 3 3 3 3 3 3 3 3 3 3 3 3 3 3 3 3 3 3 3 3 3 3 3 3 3 3 3 3 3 3 3 3 3 3 3 3 3 3 3 3 3 3 3 3 3 3 3 3 3 3 3 3 3 3 3 3 3 3 3 3 3 3 3 3 3 3 3 3 3 3 3 3 3 3 3 3 3 3 3 3 3 3 3 3 3 3 3 3 3 3 3 3 3 3 3 3 3 3 3 3 3 3 3 3 3 3 3 3 3 3 3 3 3 3 3 3 3 3 3 3 3 3 3 3 3 3 3 3 3 3 3 3 3 3 3 3 3 3 3 3 3 3 3 3 3 3 3 3 3 3 3 3 3 3 3 3 3 3 3 3 3 3 3 3 3 3 3 3 3 3 3 3 3 3 3 3 3 3 3 3 3 3 3 3 3 3 3 3 3 3 3 3 3 3 3 3 3 3 3 3 3 3 3 3 3 3 3 3 3 3 3 3 3 3 3 3 3</vcount>
                    <p>43 0 0 0 42 1 1 0 1 1 2 0 1 1 2 1 0 0 3 1 43 0 0 1 6 2 4 2 2 3 5 2 46 4 6 2 46 4 6 3 45 2 7 3 6 2 4 3 9 5 8 4 3 1 9 4 48 1 10 4 48 1 10 5 47 5 11 5 9 5 8 5 18 6 12 6 49 7 13 6 13 7 14 6 13 7 14 7 4 6 15 7 18 6 12 7 51 8 16 8 50 9 17 8 12 9 18 8 12 9 18 9 5 8 19 9 51 8 16 9 45 2 7 10 52 10 20 10 8 10 21 10 8 10 21 11 6 2 4 11 45 2 7 11 52 10 20 12 53 11 22 12 7 11 23 12 7 11 23 13 8 10 21 13 52 10 20 13 53 11 22 14 43 0 0 14 0 0 3 14 0 0 3 15 7 11 23 15 53 11 22 15 18 6 12 16 4 6 15 16 10 12 24 16 10 12 24 16 54 12 25 16 18 6 12 16 54 12 25 17 10 12 24 17 11 13 26 17 11 13 26 18 55 13 27 18 54 12 25 18 55 13 27 19 11 13 26 19 9 5 8 19 9 5 8 20 47 5 11 20 55 13 27 20 50 9 17 21 56 14 28 21 15 15 29 21 15 15 29 22 12 9 18 22 50 9 17 22 51 8 16 23 5 8 19 23 16 16 30 23 16 16 30 24 57 17 31 24 51 8 16 24 56 14 28 25 58 18 32 25 14 19 33 25 14 19 33 26 15 15 29 26 56 14 28 26 58 18 32 27 46 4 6 27 2 3 5 27 2 3 5 28 14 19 33 28 58 18 32 28 57 17 31 29 16 16 30 29 17 20 34 29 17 20 34 30 59 20 35 30 57 17 31 30 59 20 35 31 17 20 34 31 13 7 14 31 13 7 14 32 49 7 13 32 59 20 35 32 62 21 36 33 20 21 37 33 19 22 38 33 19 22 38 34 63 22 39 34 62 21 36 34 21 23 40 35 66 23 41 35 65 24 42 35 65 24 42 36 61 25 43 36 21 23 40 36 22 26 44 5 68 26 45 5 67 22 46 5 67 22 46 37 23 22 47 37 22 26 44 37 24 27 48 38 26 27 49 38 25 28 50 38 25 28 50 39 69 28 51 39 24 27 48 39 27 29 52 9 29 29 53 9 28 30 54 9 28 30 54 9 70 30 55 40 27 29 52 9 66 23 41 41 21 23 40 41 30 31 56 41 30 31 56 42 71 31 57 42 66 23 41 42 71 31 57 43 30 31 56 43 31 32 58 43 31 32 58 44 72 32 59 44 71 31 57 44 72 32 59 45 31 32 58 45 20 21 37 45 20 21 37 46 62 21 36 46 72 32 59 46 24 27 48 47 33 33 60 47 32 33 61 47 32 33 61 47 26 27 49 47 24 27 48 47 33 33 60 48 35 34 62 48 34 34 63 48 34 34 63 49 32 33 61 49 33 33 60 49 35 34 62 50 68 26 45 50 22 26 44 50 22 26 44 51 34 34 63 51 35 34 62 51 70 30 55 52 28 30 54 52 36 35 64 52 36 35 64 53 73 35 65 53 70 30 55 53 27 29 52 54 74 36 66 54 37 37 67 54 37 37 67 54 29 29 53 54 27 29 52 54 73 35 65 55 36 35 64 55 38 38 68 55 38 38 68 56 75 39 69 56 73 35 65 56 75 39 69 57 38 38 68 57 61 25 43 57 61 25 43 58 65 24 42 58 75 39 69 58 74 36 66 59 40 40 70 59 39 40 71 59 39 40 71 60 37 37 67 60 74 36 66 60 40 40 70 61 69 28 51 61 25 28 50 61 25 28 50 62 39 40 71 62 40 40 70 62 1 41 72 63 42 42 73 63 44 43 74 63 44 43 74 64 41 44 75 64 1 41 72 64 60 45 76 65 41 44 75 65 44 43 74 65 44 43 74 66 64 46 77 66 60 45 76 66 19 47 78 67 60 45 76 67 64 46 77 67 64 46 77 68 63 48 79 68 19 47 78 68 3 49 80 69 23 49 81 69 67 49 82 69 67 49 82 70 48 49 83 70 3 49 80 70 63 48 79 71 64 46 77 71 44 43 74 71 44 43 74 72 42 42 73 72 63 48 79 72 62 50 84 73 63 50 85 73 42 50 86 73 42 50 86 74 43 50 87 74 62 50 84 74 72 50 88 75 62 50 84 75 43 50 87 75 43 50 87 76 53 50 89 76 72 50 88 76 71 50 90 77 72 50 88 77 53 50 89 77 53 50 89 78 52 50 91 78 71 50 90 78 66 51 92 79 71 50 90 79 52 50 91 79 52 50 91 80 45 51 93 80 66 51 92 80 65 52 94 81 66 51 92 81 45 51 93 81 45 51 93 82 46 52 95 82 65 52 94 82 75 53 96 83 65 52 94 83 46 52 95 83 46 52 95 84 58 53 97 84 75 53 96 84 73 50 98 85 75 53 96 85 58 53 97 85 58 53 97 86 56 50 99 86 73 50 98 86 70 50 100 87 73 50 98 87 56 50 99 87 56 50 99 88 50 50 101 88 70 50 100 88 27 50 102 89 70 50 100 89 50 50 101 89 50 50 101 90 51 50 103 90 27 50 102 90 74 50 104 91 27 50 102 91 51 50 103 91 51 50 103 92 57 50 105 92 74 50 104 92 40 50 106 93 74 50 104 93 57 50 105 93 57 50 105 94 59 50 107 94 40 50 106 94 69 54 108 95 40 50 106 95 59 50 107 95 59 50 107 96 49 54 109 96 69 54 108 96 24 55 110 97 69 54 108 97 49 54 109 97 49 54 109 98 18 55 111 98 24 55 110 98 33 50 112 99 24 55 110 99 18 55 111 99 18 55 111 100 54 50 113 100 33 50 112 100 35 50 114 101 33 50 112 101 54 50 113 101 54 50 113 102 55 50 115 102 35 50 114 102 68 50 116 103 35 50 114 103 55 50 115 103 55 50 115 104 47 50 117 104 68 50 116 104 67 51 118 105 68 50 116 105 47 50 117 105 47 50 117 105 48 51 119 105 67 51 118 105 22 56 120 106 23 57 121 106 3 57 122 106 3 57 122 107 9 56 123 107 22 56 120 107 34 56 124 108 22 56 120 108 9 56 123 108 9 56 123 109 11 56 125 109 34 56 124 109 32 56 126 110 34 56 124 110 11 56 125 110 11 56 125 111 10 56 127 111 32 56 126 111 26 58 128 112 32 56 126 112 10 56 127 112 10 56 127 113 4 58 129 113 26 58 128 113 25 59 130 114 26 58 128 114 4 58 129 114 4 58 129 115 13 59 131 115 25 59 130 115 39 56 132 116 25 59 130 116 13 59 131 116 13 59 131 117 17 56 133 117 39 56 132 117 37 56 134 118 39 56 132 118 17 56 133 118 17 56 133 119 16 56 135 119 37 56 134 119 29 56 136 120 37 56 134 120 16 56 135 120 16 56 135 121 5 56 137 121 29 56 136 121 28 56 138 122 29 56 136 122 5 56 137 122 5 56 137 123 12 56 139 123 28 56 138 123 36 56 140 124 28 56 138 124 12 56 139 124 12 56 139 125 15 56 141 125 36 56 140 125 38 60 142 126 36 56 140 126 15 56 141 126 15 56 141 127 14 60 143 127 38 60 142 127 61 61 144 128 38 60 142 128 14 60 143 128 14 60 143 129 2 61 145 129 61 61 144 129 21 56 146 130 61 61 144 130 2 61 145 130 2 61 145 131 6 56 147 131 21 56 146 131 30 56 148 132 21 56 146 132 6 56 147 132 6 56 147 133 8 56 149 133 30 56 148 133 31 56 150 134 30 56 148 134 8 56 149 134 8 56 149 135 7 56 151 135 31 56 150 135 20 56 152 136 31 56 150 136 7 56 151 136 7 56 151 137 0 56 153 137 20 56 152 137 19 56 154 138 20 56 152 138 0 56 153 138 0 56 153 139 1 56 155 139 19 56 154 139 60 45 76 140 19 47 78 140 1 41 72 140 1 41 72 141 41 44 75 141 60 45 76 141 76 62 156 142 78 62 157 142 79 62 158 142 79 62 158 143 77 62 159 143 76 62 156 143 91 22 160 144 90 22 161 144 78 22 162 144 78 22 162 145 76 22 163 145 91 22 160 145 98 62 164 146 99 62 165 146 85 62 166 146 85 62 166 147 84 62 167 147 98 62 164 147 84 63 168 148 85 63 169 148 93 63 170 148 93 63 170 149 92 63 171 149 84 63 168 149 88 50 172 150 137 64 173 150 86 50 174 150 87 62 175 151 80 62 176 151 81 62 177 151 81 62 177 152 86 62 178 152 87 62 175 152 86 50 174 153 81 50 179 153 83 50 180 153 83 50 180 153 88 50 172 153 86 50 174 153 88 49 181 154 83 49 182 154 82 49 183 154 82 49 183 154 89 49 184 154 88 49 181 154 95 22 185 155 81 22 186 155 80 22 187 155 80 22 187 155 94 22 188 155 95 22 185 155 97 63 189 156 87 63 190 156 86 63 191 156 86 63 191 157 96 63 192 157 97 63 189 157 98 50 193 158 84 50 194 158 92 50 195 158 98 50 193 159 92 50 195 159 96 50 196 159 90 65 197 160 91 65 198 160 92 65 199 160 92 65 199 161 93 65 200 161 90 65 197 161 91 55 201 162 95 55 202 162 96 55 196 162 96 55 196 163 92 55 195 163 91 55 201 163 95 66 203 164 94 66 204 164 97 66 205 164 97 66 205 165 96 66 206 165 95 66 203 165 80 58 207 166 87 58 208 166 89 58 209 166 89 58 209 166 82 58 210 166 80 58 207 166 97 57 211 167 94 57 212 167 90 57 213 167 90 57 213 168 93 57 214 168 97 57 211 168 126 56 215 169 79 56 216 169 90 56 213 169 90 56 213 170 79 56 216 170 78 56 217 170 99 56 218 171 93 56 214 171 85 56 219 171 90 67 213 172 94 67 212 172 126 67 215 172 80 68 207 173 82 68 210 173 126 68 215 173 99 56 218 174 87 56 208 174 97 56 211 174 99 56 218 175 97 56 211 175 93 56 214 175 81 50 179 176 95 69 202 176 130 70 220 176 83 50 180 177 81 50 179 177 130 70 220 177 127 71 221 178 99 72 222 178 139 73 223 178 139 73 223 179 100 71 224 179 127 71 221 179 129 50 225 180 91 55 201 180 128 50 226 180 101 74 227 181 128 75 228 181 126 76 229 181 95 69 202 182 91 55 201 182 130 70 220 182 127 77 230 183 89 77 209 183 87 77 208 183 102 49 231 184 105 49 232 184 104 49 233 184 104 49 233 184 103 49 234 184 102 49 231 184 106 22 235 185 102 22 236 185 103 22 237 185 103 22 237 186 107 22 238 186 106 22 235 186 108 22 239 187 109 22 240 187 82 22 241 187 82 22 241 187 83 22 242 187 108 22 239 187 110 49 243 188 113 49 244 188 112 49 245 188 112 49 245 188 111 49 246 188 110 49 243 188 113 63 247 189 115 63 248 189 114 63 249 189 114 63 249 190 112 63 250 190 113 63 247 190 116 63 251 191 88 63 252 191 89 63 253 191 89 63 253 187 117 63 254 187 116 63 251 187 118 50 255 192 135 50 256 192 136 50 257 192 116 78 258 193 118 50 255 193 136 50 257 193 120 49 259 194 118 49 260 194 122 49 261 194 122 49 261 195 121 49 262 195 120 49 259 195 118 50 255 196 116 50 258 196 108 50 263 196 108 50 263 196 122 50 264 196 118 50 255 196 116 62 265 194 117 62 266 194 109 62 267 194 109 62 267 197 108 62 268 197 116 62 265 197 123 22 269 198 124 22 270 198 121 22 271 198 121 22 271 155 122 22 272 155 123 22 269 155 125 63 273 156 119 63 274 156 118 63 275 156 118 63 275 199 120 63 276 199 125 63 273 199 110 50 277 200 115 64 278 200 113 50 279 200 110 50 277 201 119 50 280 201 115 64 278 201 107 79 281 202 114 79 282 202 115 80 283 202 115 80 283 203 106 80 284 203 107 79 281 203 106 50 285 204 115 50 278 204 119 50 280 204 119 50 280 205 123 50 286 205 106 50 285 205 123 81 287 206 119 81 288 206 125 82 289 206 125 82 289 165 124 82 290 165 123 81 287 165 109 56 291 207 126 56 215 207 82 56 210 207 121 56 292 208 109 56 291 208 117 56 293 208 117 56 293 208 120 56 294 208 121 56 292 208 125 56 295 209 114 56 296 209 107 56 297 209 107 56 297 210 124 56 298 210 125 56 295 210 107 83 297 211 103 83 299 211 104 83 300 211 104 83 300 212 126 83 215 212 107 83 297 212 111 56 301 213 112 56 302 213 114 56 296 213 126 83 215 172 124 83 298 172 107 83 297 172 126 83 215 214 109 83 291 214 121 83 292 214 111 77 301 215 125 77 295 215 120 77 294 215 111 77 301 216 114 77 296 216 125 77 295 216 83 50 180 217 130 70 220 217 131 50 303 217 131 50 303 218 108 84 263 218 83 50 180 218 123 84 286 219 122 84 264 219 131 50 303 219 122 84 264 220 108 84 263 220 131 50 303 220 137 64 173 221 88 50 172 221 116 78 258 221 116 78 258 222 136 50 257 222 137 64 173 222 127 71 221 223 100 71 224 223 134 85 304 223 134 85 304 224 111 86 305 224 127 71 221 224 132 87 306 225 106 50 285 225 131 50 303 225 101 74 227 226 126 76 229 226 133 88 307 226 106 50 285 227 123 84 286 227 131 50 303 227 89 77 209 228 127 77 230 228 117 77 293 228 120 77 294 229 117 77 293 229 127 77 230 229 128 50 308 230 101 70 309 230 130 70 310 230 130 70 310 231 129 50 311 231 128 50 308 231 130 70 310 232 101 70 309 232 131 50 312 232 132 87 313 233 131 50 312 233 101 70 309 233 101 70 309 234 133 50 314 234 132 87 313 234 135 50 315 235 134 50 316 235 100 64 317 235 100 64 317 236 136 50 318 236 135 50 315 236 136 50 318 237 100 64 317 237 137 64 319 237 139 64 320 238 96 50 196 238 138 64 321 238 138 64 322 239 137 64 319 239 100 64 317 239 100 64 317 176 139 64 323 176 138 64 322 176 129 50 225 240 130 70 220 240 91 55 201 240 91 55 201 241 76 50 324 241 77 50 325 241 77 50 325 242 128 50 226 242 91 55 201 242 86 50 174 243 137 64 173 243 138 64 321 243 139 64 320 244 98 50 193 244 96 50 196 244 96 50 196 245 86 50 174 245 138 64 321 245 118 50 255 246 119 50 280 246 134 50 326 246 134 50 326 247 135 50 256 247 118 50 255 247 119 50 280 248 110 50 277 248 134 50 326 248 132 87 306 249 133 50 327 249 106 50 285 249 133 50 327 250 105 50 328 250 102 50 329 250 102 50 329 251 106 50 285 251 133 50 327 251 128 75 228 252 77 89 330 252 79 89 331 252 99 72 222 253 98 90 332 253 139 73 223 253 134 85 304 254 110 91 333 254 111 86 305 254 104 92 334 255 105 92 335 255 133 88 307 255 126 76 229 256 104 92 334 256 133 88 307 256 128 75 228 257 79 89 331 257 126 76 229 257 145 62 336 258 146 93 337 258 147 93 338 258 147 93 338 259 144 62 339 259 145 62 336 259 141 22 340 260 140 22 341 260 145 22 342 260 145 22 342 261 144 22 343 261 141 22 340 261 140 94 344 262 143 94 345 262 146 94 346 262 146 94 346 263 145 94 347 263 140 94 344 263 143 95 348 264 142 95 349 264 147 93 338 264 147 93 338 265 146 93 337 265 143 95 348 265 142 96 350 266 141 96 351 266 144 96 352 266 144 96 352 267 147 96 353 267 142 96 350 267 148 97 336 268 151 97 339 268 150 98 338 268 150 98 338 269 149 98 337 269 148 97 336 269 152 22 340 270 151 22 343 270 148 22 342 270 148 22 342 271 153 22 341 271 152 22 340 271 153 99 344 272 148 99 347 272 149 99 346 272 149 99 346 273 154 99 345 273 153 99 344 273 154 100 348 274 149 98 337 274 150 98 338 274 150 98 338 275 155 100 349 275 154 100 348 275 155 58 350 276 150 58 353 276 151 58 352 276 151 58 352 277 152 58 351 277 155 58 350 277 156 62 156 142 157 62 157 142 158 62 158 142 158 62 158 143 159 62 159 143 156 62 156 143 160 1 160 144 161 1 161 144 157 1 162 144 157 1 162 145 156 1 163 145 160 1 160 145 162 62 164 278 163 62 165 278 164 62 166 278 164 62 166 279 165 62 167 279 162 62 164 279 165 101 168 148 164 101 169 148 166 101 170 148 166 101 170 149 167 101 171 149 165 101 168 149 168 56 172 280 169 56 173 280 170 56 174 280 171 62 175 151 172 62 176 151 173 62 177 151 173 62 177 152 170 62 178 152 171 62 175 152 170 56 174 153 173 56 179 153 174 56 180 153 174 56 180 153 168 56 172 153 170 56 174 153 168 102 181 154 174 102 182 154 175 102 183 154 175 102 183 154 176 102 184 154 168 102 181 154 177 1 185 155 173 1 186 155 172 1 187 155 172 1 187 155 178 1 188 155 177 1 185 155 179 101 189 156 171 101 190 156 170 101 191 156 170 101 191 157 180 101 192 157 179 101 189 157 162 56 193 281 165 56 194 281 167 56 195 281 162 56 193 282 167 56 195 282 180 56 196 282 161 103 197 160 160 103 198 160 167 103 199 160 167 103 199 161 166 103 200 161 161 103 197 161 160 57 201 162 177 57 202 162 180 57 196 162 180 57 196 163 167 57 195 163 160 57 201 163 177 104 203 164 178 104 204 164 179 104 205 164 179 104 205 165 180 104 206 165 177 104 203 165 172 55 207 166 171 55 208 166 176 55 209 166 176 55 209 166 175 55 210 166 172 55 207 166 179 55 211 167 178 55 212 167 161 55 213 167 161 55 213 168 166 55 214 168 179 55 211 168 181 70 215 283 158 70 216 283 161 70 213 283 161 70 213 170 158 70 216 170 157 70 217 170 163 50 218 284 166 50 214 284 164 50 219 284 161 105 213 285 178 105 212 285 181 105 215 285 172 105 207 286 175 105 210 286 181 105 215 286 163 50 218 287 171 50 208 287 179 50 211 287 163 50 218 175 179 50 211 175 166 50 214 175 173 56 179 288 177 106 202 288 183 77 220 288 174 56 180 289 173 56 179 289 183 77 220 289 182 107 221 178 163 108 222 178 184 109 223 178 184 109 223 179 185 107 224 179 182 107 221 179 186 83 225 180 160 57 201 180 187 56 226 180 188 110 227 181 187 111 228 181 181 112 229 181 177 106 202 290 160 57 201 290 183 77 220 290 182 64 230 291 176 64 209 291 171 64 208 291 189 49 231 184 190 49 232 184 191 49 233 184 191 49 233 184 192 49 234 184 189 49 231 184 193 1 235 185 189 1 236 185 192 1 237 185 192 1 237 186 194 1 238 186 193 1 235 186 195 1 239 187 196 1 240 187 175 1 241 187 175 1 241 187 174 1 242 187 195 1 239 187 197 49 243 292 198 49 244 292 199 49 245 292 199 49 245 292 200 49 246 292 197 49 243 292 198 101 247 189 201 101 248 189 202 101 249 189 202 101 249 190 199 101 250 190 198 101 247 190 203 101 251 191 168 101 252 191 176 101 253 191 176 101 253 187 204 101 254 187 203 101 251 187 205 56 255 293 206 56 256 293 207 56 257 293 203 113 258 294 205 56 255 294 207 56 257 294 208 49 259 194 205 49 260 194 209 49 261 194 209 49 261 195 210 49 262 195 208 49 259 195 205 56 255 196 203 56 258 196 195 56 263 196 195 56 263 196 209 56 264 196 205 56 255 196 203 62 265 194 204 62 266 194 196 62 267 194 196 62 267 197 195 62 268 197 203 62 265 197 211 1 269 198 212 1 270 198 210 1 271 198 210 1 271 155 209 1 272 155 211 1 269 155 213 101 273 156 214 101 274 156 205 101 275 156 205 101 275 199 208 101 276 199 213 101 273 199 197 56 277 295 201 77 278 295 198 56 279 295 197 56 277 296 214 56 280 296 201 77 278 296 194 114 281 202 202 114 282 202 201 66 283 202 201 66 283 203 193 114 284 203 194 114 281 203 193 56 285 204 201 56 278 204 214 56 280 204 214 56 280 205 211 56 286 205 193 56 285 205 211 115 287 206 214 116 288 206 213 116 289 206 213 116 289 165 212 116 290 165 211 115 287 165 196 50 291 297 181 50 215 297 175 50 210 297 210 50 292 208 196 50 291 208 204 50 293 208 204 50 293 208 208 50 294 208 210 50 292 208 213 50 295 209 202 50 296 209 194 50 297 209 194 50 297 210 212 50 298 210 213 50 295 210 194 50 297 211 192 50 299 211 191 50 300 211 191 50 300 212 181 50 215 212 194 50 297 212 200 50 301 298 199 50 302 298 202 50 296 298 181 64 215 285 212 64 298 285 194 64 297 285 181 64 215 299 196 64 291 299 210 64 292 299 200 50 301 300 213 50 295 300 208 50 294 300 200 64 301 301 202 64 296 301 213 64 295 301 174 56 180 302 183 77 220 302 215 56 303 302 215 56 303 303 195 117 263 303 174 56 180 303 211 117 286 304 209 117 264 304 215 56 303 304 209 117 264 305 195 117 263 305 215 56 303 305 169 56 173 306 168 56 172 306 203 113 258 306 203 113 258 307 207 56 257 307 169 56 173 307 182 107 221 223 185 107 224 223 216 118 304 223 216 118 304 224 200 119 305 224 182 107 221 224 217 120 306 308 193 56 285 308 215 56 303 308 188 110 227 226 181 112 229 226 218 121 307 226 193 56 285 309 211 117 286 309 215 56 303 309 176 50 209 310 182 50 230 310 204 50 293 310 208 70 294 229 204 70 293 229 182 70 230 229 187 56 308 230 188 83 309 230 183 77 310 230 183 77 310 231 186 83 311 231 187 56 308 231 183 77 310 232 188 83 309 232 215 56 312 232 217 120 313 233 215 56 312 233 188 83 309 233 188 83 309 234 218 56 314 234 217 120 313 234 206 56 315 235 216 56 316 235 185 77 317 235 185 77 317 236 207 56 318 236 206 56 315 236 207 56 318 237 185 77 317 237 169 56 319 237 184 56 320 311 180 56 196 311 219 56 321 311 219 56 322 239 169 56 319 239 185 77 317 239 185 77 317 176 184 56 323 176 219 56 322 176 186 83 225 312 183 77 220 312 160 57 201 312 160 57 201 241 156 56 324 241 159 56 325 241 159 56 325 242 187 56 226 242 160 57 201 242 170 56 174 313 169 56 173 313 219 56 321 313 184 56 320 314 162 56 193 314 180 56 196 314 180 56 196 245 170 56 174 245 219 56 321 245 205 56 255 315 214 56 280 315 216 56 326 315 216 56 326 316 206 56 256 316 205 56 255 316 214 56 280 317 197 56 277 317 216 56 326 317 217 120 306 318 218 56 327 318 193 56 285 318 218 56 327 250 190 56 328 250 189 56 329 250 189 56 329 251 193 56 285 251 218 56 327 251 187 111 228 252 159 122 330 252 158 122 331 252 163 108 222 253 162 123 332 253 184 109 223 253 216 118 304 254 197 124 333 254 200 119 305 254 191 125 334 255 190 125 335 255 218 121 307 255 181 112 229 256 191 125 334 256 218 121 307 256 187 111 228 257 158 122 331 257 181 112 229 257 90 56 213 319 220 56 354 319 126 56 215 319 94 83 212 320 80 83 207 320 221 83 355 320 221 83 355 321 126 83 215 321 94 83 212 321 126 68 215 322 221 68 355 322 80 68 207 322 99 56 218 323 127 56 230 323 222 56 356 323 222 56 356 324 87 56 208 324 99 56 218 324 87 77 208 325 222 77 356 325 127 77 230 325 107 83 297 326 126 83 215 326 220 83 354 326 124 83 298 327 126 83 215 327 221 83 355 327 221 83 355 320 121 83 292 328 124 83 298 328 121 83 292 329 221 83 355 329 126 83 215 329 120 77 294 330 222 77 356 330 111 77 301 330 111 77 301 331 222 77 356 331 127 77 230 331 127 77 230 332 222 77 356 332 120 77 294 332 161 70 213 333 223 70 354 333 181 70 215 333 178 70 212 320 172 70 207 320 224 70 355 320 224 70 355 334 181 70 215 334 178 70 212 334 181 105 215 335 224 105 355 335 172 105 207 335 163 50 218 336 182 50 230 336 225 50 356 336 225 50 356 324 171 50 208 324 163 50 218 324 171 64 208 337 225 64 356 337 182 64 230 337 194 50 297 338 181 50 215 338 223 50 354 338 212 64 298 339 181 64 215 339 224 64 355 339 224 64 355 320 210 64 292 328 212 64 298 328 210 64 292 340 224 64 355 340 181 64 215 340 208 50 294 341 225 50 356 341 200 50 301 341 200 50 301 342 225 50 356 342 182 50 230 342 182 70 230 343 225 70 356 343 208 70 294 343</p>
                </polylist>
            </mesh>
        </geometry>
    </library_geometries>
    <library_visual_scenes>
        <visual_scene id="DefaultScene">
            <node id="Geometry-radiatorPivotNode" name="radiator-Pivot" type="NODE">
                <matrix sid="transform">
        1 0 0 1e-006
        0 6.12323e-017 1 29.9678
        0 -1 6.12323e-017 0.002331
        0 0 0 1
    </matrix>
                <instance_geometry url="#Geometry-radiatorPivot">
                    <bind_material>
                        <technique_common>
                            <instance_material symbol="Material-radiator" target="#Material-radiator">
                                <bind_vertex_input semantic="radiator-lib-UV0" input_semantic="TEXCOORD" input_set="0" />
                            </instance_material>
                        </technique_common>
                    </bind_material>
                </instance_geometry>
            </node>
            <node id="txtrLocator001Node" name="radiator_station__Image___Texture_" type="NODE">
                <matrix sid="transform">
        1 0 0 0
        0 1 0 0
        0 0 1 0
        0 0 0 1
    </matrix>
            </node>
        </visual_scene>
    </library_visual_scenes>
    <scene>
        <instance_visual_scene url="#DefaultScene" />
    </scene>
</COLLADA>
