<?xml version="1.0" encoding="utf-8" ?>
<COLLADA xmlns="http://www.collada.org/2005/11/COLLADASchema" version="1.4.1">
    <asset>
        <contributor>
            <authoring_tool>modo 601 [Build 48460], Microsoft Windows 7 Service Pack 1 (6.1.7601 Service Pack 1)</authoring_tool>
            <comments>
                Plug-in: [Build 48460];
                Use Absolute Path: No;
                Merge Reference Items: No;
                Save Hidden Items: No;
                Save Cameras: Yes;
                Save Lights: Yes;
                Save Locators: Yes;
                Save Triangles as Triangles: No;
                Bake Matrices: No;
                Save Vertex Normals: Yes;
                Save UV Texture Coordinates: Yes;
                Save Vertex Colors: Yes;
                Save Vertex Weights: Yes;
                Save Animation: Yes;
                Sample Animation: No;
                Sample Animation Start: 0;
                Sample Animation End: 120;
                Save modo Profile: Yes;
                Save Maya Profile: Yes;
                Save 3ds Max Profile: Yes;
                Formatted Arrays: Yes;
            </comments>
            <source_data>file:///D:/Work/My%20Dropbox/Frictional%20Games%20-%20Team/Aaron/models/static_objects/station/details/railing_pplant/railing_pplant.lxo</source_data>
        </contributor>
        <created>2012-11-08T13:23:45Z</created>
        <modified>2012-11-08T13:23:45Z</modified>
        <unit name="game" meter="1" />
        <up_axis>Y_UP</up_axis>
    </asset>
    <library_images>
        <image id="Image0001" name="Image0001">
            <init_from>file:///C:/Users/Aaron/Documents/checker_512.gif</init_from>
        </image>
        <image id="Image0002" name="Image0002">
            <init_from>file:///D:/Work/My%20Dropbox/Frictional%20Games%20-%20Team/Aaron/models/static_objects/station/details/fencing/fencing_chainlink_pplant.psd</init_from>
        </image>
        <image id="Image0003" name="Image0003">
            <init_from>file:///D:/Work/My%20Dropbox/Frictional%20Games%20-%20Team/Aaron/models/static_objects/station/details/railing_pplant/railing_pplant.psd</init_from>
        </image>
        <image id="Image0004" name="Image0004">
            <init_from>file:///D:/Work/My%20Dropbox/Frictional%20Games%20-%20Team/Aaron/models/static_objects/station/details/railing_pplant/railing_pplant_nrm.tga</init_from>
        </image>
        <image id="Image0005" name="Image0005">
            <init_from>file:///D:/Work/My%20Dropbox/Frictional%20Games%20-%20Team/Aaron/models/static_objects/station/details/railing_pplant/railing_pplant_spec.tga</init_from>
        </image>
    </library_images>
    <library_materials>
        <material id="Material-Default" name="Default">
            <instance_effect url="#Effect-Default" />
        </material>
        <material id="Material-chainlink" name="chainlink">
            <instance_effect url="#Effect-chainlink" />
        </material>
        <material id="Material-railing_pplant" name="railing_pplant">
            <instance_effect url="#Effect-railing_pplant" />
        </material>
    </library_materials>
    <library_effects>
        <effect id="Effect-Default" name="Default">
            <profile_COMMON>
                <technique sid="common">
                    <phong>
                        <diffuse>
                            <color sid="diffuse_effect_rgb">0.8 0.8 0.8 1</color>
                        </diffuse>
                        <specular>
                            <color sid="specular_effect_rgb">0.2 0.2 0.2 1</color>
                        </specular>
                        <shininess>
                            <float sid="specular_effect_rgb">256</float>
                        </shininess>
                    </phong>
                </technique>
            </profile_COMMON>
        </effect>
        <effect id="Effect-chainlink" name="chainlink">
            <profile_COMMON>
                <newparam sid="Image0002-surface">
                    <surface type="2D">
                        <init_from>Image0002</init_from>
                        <format>A8R8G8B8</format>
                    </surface>
                </newparam>
                <newparam sid="Image0002-sampler">
                    <sampler2D>
                        <source>Image0002-surface</source>
                        <minfilter>LINEAR_MIPMAP_LINEAR</minfilter>
                        <magfilter>LINEAR</magfilter>
                    </sampler2D>
                </newparam>
                <technique sid="common">
                    <phong>
                        <diffuse>
                            <texture texture="Image0002-sampler" texcoord="uvSet1" />
                        </diffuse>
                        <specular>
                            <color sid="specular_effect_rgb">0.345 0.345 0.345 1</color>
                        </specular>
                        <shininess>
                            <float sid="specular_effect_rgb">256</float>
                        </shininess>
                    </phong>
                </technique>
            </profile_COMMON>
        </effect>
        <effect id="Effect-railing_pplant" name="railing_pplant">
            <profile_COMMON>
                <newparam sid="Image0003-surface">
                    <surface type="2D">
                        <init_from>Image0003</init_from>
                        <format>A8R8G8B8</format>
                    </surface>
                </newparam>
                <newparam sid="Image0003-sampler">
                    <sampler2D>
                        <source>Image0003-surface</source>
                        <minfilter>LINEAR_MIPMAP_LINEAR</minfilter>
                        <magfilter>LINEAR</magfilter>
                    </sampler2D>
                </newparam>
                <newparam sid="Image0005-surface">
                    <surface type="2D">
                        <init_from>Image0005</init_from>
                        <format>A8R8G8B8</format>
                    </surface>
                </newparam>
                <newparam sid="Image0005-sampler">
                    <sampler2D>
                        <source>Image0005-surface</source>
                        <minfilter>LINEAR_MIPMAP_LINEAR</minfilter>
                        <magfilter>LINEAR</magfilter>
                    </sampler2D>
                </newparam>
                <technique sid="common">
                    <phong>
                        <diffuse>
                            <texture texture="Image0003-sampler" texcoord="uvSet1" />
                        </diffuse>
                        <specular>
                            <texture texture="Image0005-sampler" texcoord="uvSet1" />
                        </specular>
                        <shininess>
                            <float sid="specular_effect_rgb">8.57419</float>
                        </shininess>
                    </phong>
                </technique>
            </profile_COMMON>
        </effect>
    </library_effects>
    <library_geometries>
        <geometry id="Geometry-mesh003" name="railing_pplant_short_chainlink">
            <mesh>
                <source id="Geometry-mesh003-positions" name="positions">
                    <float_array id="Geometry-mesh003-positions-array" count="645">
                        0.959222 0.768989 -0.0233227
                        0.976116 0.786422 -0.0407292
                        0.976111 0.786422 0.0407279
                        1.02505 0.786422 0.0407296
                        0.959222 0.768989 0.0233227
                        1.04194 0.768989 0.0233227
                        1.04079 0.768983 -0.0233043
                        1.02388 0.786422 -0.0407301
                        0.958547 1.40383 -0.0237188
                        0.975722 1.42155 -0.0414153
                        1.00118 1.44591 0.0479561
                        0.975717 1.42155 0.041414
                        1.02546 1.42155 0.0414157
                        0.958547 1.40383 0.0237188
                        1.04263 1.40383 0.0237188
                        1.00029 1.44591 -0.0479561
                        1.04147 1.40382 -0.0237003
                        1.02428 1.42155 -0.0414162
                        0.959222 0.851616 -0.0233227
                        0.976116 0.834181 -0.0407297
                        0.976111 0.834181 0.0407284
                        1.02505 0.834181 0.0407301
                        0.959222 0.851616 0.0233227
                        1.04194 0.851616 0.0233227
                        1.04079 0.851623 -0.0233043
                        1.02388 0.834181 -0.0407306
                        1.00029 0.810456 -0.0471625
                        1.00116 0.810456 0.0471625
                        1.03708 0.0625 0
                        1.02622 0.0625 -0.0262196
                        1 0.0625 -0.03708
                        0.97378 0.0625 -0.0262196
                        0.96292 0.0625 0
                        0.97378 0.0625 0.0262196
                        1 0.0625 0.03708
                        1.02622 0.0625 0.0262196
                        1.03708 1.375 0
                        1.02622 1.375 -0.0262196
                        1 1.375 -0.03708
                        0.97378 1.375 -0.0262196
                        0.96292 1.375 0
                        0.97378 1.375 0.0262196
                        1 1.375 0.03708
                        1.02622 1.375 0.0262196
                        0 1.40921 0
                        0 1.42007 -0.0262196
                        0 1.44629 -0.03708
                        0 1.47251 -0.0262196
                        0 1.48337 0
                        0 1.47251 0.0262196
                        0 1.44629 0.03708
                        0 1.42007 0.0262196
                        2 1.40921 0
                        2 1.42007 -0.0262196
                        2 1.44629 -0.03708
                        2 1.47251 -0.0262196
                        2 1.48337 0
                        2 1.47251 0.0262196
                        2 1.44629 0.03708
                        2 1.42007 0.0262196
                        2 0.773467 2.34291e-015
                        2 0.784327 0.0262196
                        2 0.810547 0.03708
                        2 0.836766 0.0262196
                        2 0.847627 2.34291e-015
                        2 0.836766 -0.0262196
                        2 0.810547 -0.03708
                        2 0.784327 -0.0262196
                        0 0.773467 -2.34291e-015
                        0 0.784327 0.0262196
                        0 0.810547 0.03708
                        0 0.836766 0.0262196
                        0 0.847627 -2.34291e-015
                        0 0.836766 -0.0262196
                        0 0.810547 -0.03708
                        0 0.784327 -0.0262196
                        1 0.0558472 -0.0461029
                        0.976949 0.0558472 -0.0399263
                        0.960074 0.0558472 -0.0230514
                        0.953897 0.0558472 0
                        0.960074 0.0558472 0.0230514
                        0.976949 0.0558472 0.0399263
                        1 0.0558472 0.0461029
                        1.02305 0.0558472 0.0399263
                        1.03993 0.0558472 0.0230514
                        1.0461 0.0558472 0
                        1.03993 0.0558472 -0.0230514
                        1.02305 0.0558472 -0.0399263
                        1 0.0981445 0
                        1 0 -0.086843
                        0.956578 0 -0.0752082
                        0.924792 0 -0.0434215
                        0.913157 0 0
                        0.924792 0 0.0434215
                        0.956578 0 0.0752082
                        1 0 0.086843
                        1.04342 0 0.0752082
                        1.07521 0 0.0434215
                        1.08684 0 0
                        1.07521 0 -0.0434215
                        1.04342 0 -0.0752082
                        1 0.015625 -0.0853623
                        0.957319 0.015625 -0.0739259
                        0.926074 0.015625 -0.0426812
                        0.914638 0.015625 0
                        0.926074 0.015625 0.0426812
                        0.957319 0.015625 0.0739259
                        1 0.015625 0.0853623
                        1.04268 0.015625 0.0739259
                        1.07393 0.015625 0.0426812
                        1.08536 0.015625 0
                        1.07393 0.015625 -0.0426812
                        1.04268 0.015625 -0.0739259
                        1 0.015625 -0.0461029
                        0.976949 0.015625 -0.0399263
                        0.960074 0.015625 -0.0230514
                        0.953897 0.015625 0
                        1.0461 0.015625 0
                        1.03993 0.015625 -0.0230514
                        1.02305 0.015625 -0.0399263
                        0.960074 0.015625 0.0230514
                        0.976949 0.015625 0.0399263
                        1 0.015625 0.0461029
                        1.02305 0.015625 0.0399263
                        1.03993 0.015625 0.0230514
                        0.952908 0.721409 1.71741e-009
                        0.959068 0.722149 -0.0240278
                        0.976122 0.722152 -0.0416247
                        0.976117 0.722152 0.0416232
                        0.959328 0.721911 0.0238782
                        1.04068 0.721907 -0.023851
                        1.04826 0.721414 3.74147e-005
                        1.02388 0.722152 -0.0416258
                        1.00116 0.72215 0.0480574
                        1.02504 0.722152 0.0416253
                        1.04209 0.722149 0.0240278
                        1.00029 0.722151 -0.0480585
                        0.885392 0.762399 1.72364e-009
                        0.885392 0.768838 -0.0240291
                        0.885392 0.786428 -0.0416196
                        0.885155 0.786578 0.0413602
                        0.885392 0.768838 0.0240291
                        0.952553 0.762725 1.70916e-009
                        0.885392 0.858207 1.72364e-009
                        0.885392 0.851768 -0.0240291
                        0.885155 0.834026 -0.0413611
                        0.885392 0.834176 0.0416202
                        0.885392 0.851768 0.0240291
                        0.952553 0.85788 1.70916e-009
                        0.952908 0.899196 1.71741e-009
                        0.959328 0.898695 -0.0238782
                        0.976122 0.898454 -0.0416247
                        0.976117 0.898453 0.0416232
                        0.959068 0.898457 0.0240278
                        0.884648 0.810454 -0.0473813
                        0.884648 0.810454 0.0473813
                        1.11461 0.762399 1.72364e-009
                        1.11461 0.768838 -0.0240291
                        1.11485 0.786578 -0.0413602
                        1.11461 0.786428 0.0416196
                        1.11461 0.768838 0.0240291
                        1.04861 0.76273 2.97003e-005
                        1.11461 0.858207 1.72364e-009
                        1.11461 0.851768 -0.0240291
                        1.11461 0.834176 -0.0416202
                        1.11485 0.834026 0.0413611
                        1.11461 0.851768 0.0240291
                        1.04861 0.857876 2.97003e-005
                        1.04094 0.898459 -0.024006
                        1.04826 0.899191 3.74147e-005
                        1.02388 0.898454 -0.0416258
                        1.00116 0.898455 0.0480574
                        1.02504 0.898454 0.0416253
                        1.04183 0.898695 0.0238782
                        1.00029 0.898454 -0.0480585
                        1.11535 0.810454 -0.0473813
                        1.11535 0.810454 0.0473813
                        0.88328 1.39743 1.74893e-009
                        0.883517 1.40367 -0.0244252
                        0.883517 1.42155 -0.0423057
                        0.883517 1.44598 -0.0488504
                        0.883277 1.47036 -0.0419881
                        0.882773 1.4877 -0.0240866
                        0.88328 1.49453 1.74893e-009
                        0.883517 1.48829 0.0244252
                        0.883277 1.47036 0.0419881
                        0.883517 1.44598 0.0488504
                        0.883517 1.42155 0.0423057
                        0.882773 1.40426 0.0240866
                        0.951766 1.39746 1.73668e-009
                        0.95212 1.35548 1.74507e-009
                        0.958393 1.35622 -0.0244239
                        0.975728 1.35622 -0.0423108
                        0.975724 1.35622 0.0423093
                        0.958653 1.35598 0.0242743
                        1.11672 1.39743 1.74893e-009
                        1.11723 1.40426 -0.0240866
                        1.11648 1.42155 -0.0423057
                        1.11648 1.44598 -0.0488504
                        1.11672 1.47036 -0.0419881
                        1.11648 1.48829 -0.0244252
                        1.11672 1.49453 1.74893e-009
                        1.11723 1.4877 0.0240866
                        1.11672 1.47036 0.0419881
                        1.11648 1.44598 0.0488504
                        1.11648 1.42155 0.0423057
                        1.11648 1.40367 0.0244252
                        1.04942 1.39746 2.96994e-005
                        1.04136 1.35598 -0.0242471
                        1.04906 1.35549 3.74136e-005
                        1.02427 1.35622 -0.0423119
                        1.00118 1.35622 0.0488495
                        1.02545 1.35622 0.0423113
                        1.04279 1.35622 0.0244239
                        1.00029 1.35622 -0.0488507
                    </float_array>
                    <technique_common>
                        <accessor count="215" source="#Geometry-mesh003-positions-array" stride="3">
                            <param name="X" type="float" />
                            <param name="Y" type="float" />
                            <param name="Z" type="float" />
                        </accessor>
                    </technique_common>
                </source>
                <source id="Geometry-mesh003-normals" name="normals">
                    <float_array id="Geometry-mesh003-normals-array" count="924">
                        -0.676041 0.736864 0
                        -0.585468 0.736864 0.338021
                        2.32917e-007 1 0
                        -2.27155e-007 0.736864 -0.676041
                        -0.338021 0.736864 -0.585468
                        -0.585468 0.736864 -0.338021
                        -0.338021 0.736864 0.585468
                        -2.27155e-007 0.736864 0.676041
                        0.338021 0.736865 0.585468
                        0.585469 0.736864 0.33802
                        0.676041 0.736864 0
                        0.585469 0.736864 -0.33802
                        0.338021 0.736865 -0.585468
                        -0.00831113 -0.0874047 -0.996138
                        0.000881683 0.0393974 -0.999223
                        -0.00260501 0.414984 -0.909825
                        0.00122682 0.499128 -0.866527
                        0.00828886 -0.0874621 -0.996133
                        0.00166543 0.0393232 0.999225
                        -0.00839354 -0.0874569 0.996133
                        -0.0012517 0.499128 0.866527
                        0.00257234 0.414984 0.909825
                        0.00825533 -0.0875454 0.996126
                        -0.996577 -0.0716148 0.0412885
                        -0.999331 -0.0316753 0.0182834
                        -0.998844 -0.0416357 0.0240318
                        -0.999984 -0.00493628 0.00286506
                        -0.999999 -0.00128737 -0.000205587
                        -0.999999 -0.000420699 -0.00165005
                        -0.999995 -0.00327151 -4.09499e-006
                        -0.999995 -0.00305134 0.000817602
                        -0.999979 0.00618333 -0.00165683
                        -0.999162 0.0370529 -0.0173976
                        -0.998114 0.0555729 -0.0260934
                        -0.994595 0.0924955 -0.047169
                        -0.0874601 -0.99614 0.00751271
                        -0.0359525 -0.999344 0.0043608
                        -0.0538415 -0.998528 0.00653778
                        -0.00676775 -0.999975 0.00185443
                        -2.64149e-005 -1 -4.98472e-007
                        1.48068e-005 -1 -4.92033e-006
                        -2.18573e-005 -1 -3.42368e-006
                        1.74148e-005 -1 1.95928e-006
                        0.0065047 -0.999977 -0.00165902
                        0.0386976 -0.999245 -0.00345721
                        0.0579493 -0.998306 -0.00518869
                        0.0963877 -0.995329 -0.00537874
                        0.996578 -0.0716077 -0.0412815
                        0.999331 -0.031674 -0.0182807
                        0.998844 -0.0416353 -0.0240288
                        0.999984 -0.00493813 -0.00286518
                        0.999999 -0.00128705 0.000205537
                        0.999999 -0.000420593 0.00164964
                        0.999995 -0.0032707 4.09414e-006
                        0.999995 -0.00305058 -0.000817399
                        0.999979 0.00618488 0.00165724
                        0.999162 0.0370504 0.0173952
                        0.998114 0.0555692 0.0260898
                        0.994597 0.0924834 0.0471606
                        -0.994424 -0.00553572 0.105312
                        -0.999134 -0.00354677 0.0414544
                        -0.998051 -0.00531951 0.062174
                        -0.999979 -0.00169785 0.00630665
                        -1 0 0
                        -1 0 -3.38834e-006
                        -0.999979 0.00169463 -0.00630112
                        -0.99913 0.00354174 -0.0415463
                        -0.998043 0.00531197 -0.0623069
                        -0.994393 0.00553024 -0.105604
                        -0.0889948 -0.996003 0.00764608
                        -0.0365773 -0.999321 0.00443608
                        -0.0547784 -0.998476 0.00665099
                        -0.00687865 -0.999975 0.00188485
                        -2.65823e-005 -1 -5.81794e-007
                        1.37027e-005 -1 -4.40563e-006
                        -2.36829e-005 -1 -2.63286e-006
                        1.77857e-005 -1 2.41153e-006
                        0.00661537 -0.999977 -0.00168703
                        0.0393787 -0.999218 -0.00351787
                        0.0589692 -0.998246 -0.00527971
                        0.0980945 -0.995162 -0.00547609
                        -0.0890557 0.996021 -0.00323539
                        -0.0361998 0.999341 -0.00259833
                        -0.0541395 0.998526 -0.00390026
                        -0.00646819 0.999978 -0.0015176
                        -7.3986e-005 1 2.68203e-008
                        -4.28112e-007 1 -4.34047e-006
                        -3.22081e-005 1 -2.3896e-006
                        2.69693e-005 1 2.55593e-006
                        0.00662692 0.999977 0.00169651
                        0.039372 0.999218 0.00352259
                        0.058949 0.998247 0.00527961
                        0.0980945 0.995162 0.00547609
                        0.994393 0.00553024 0.105604
                        0.99913 0.00354175 0.0415486
                        0.998043 0.00531198 0.0623086
                        0.999979 0.00169464 0.0063034
                        1 0 4.51779e-006
                        1 0 0
                        0.999979 -0.00169785 -0.00630665
                        0.999134 -0.00354678 -0.0414577
                        0.998051 -0.00531953 -0.0621791
                        0.994423 -0.00553577 -0.105322
                        0.603747 0 0.797176
                        0.797176 0 0.603747
                        0.990602 0 0.136773
                        0.990602 0 -0.136773
                        0 -0.603747 0.797176
                        0 -0.797176 0.603747
                        0 -0.990602 0.136773
                        0 -0.990602 -0.136773
                        0 -0.603747 -0.797176
                        3.20447e-016 -0.797176 -0.603747
                        0.903059 0.0939716 0.419111
                        0.54221 0.748833 0.381126
                        0.572517 0.0939723 0.814489
                        0.331181 0.617334 0.713595
                        -2.69889e-007 0.0943415 0.99554
                        -9.61722e-008 0.855777 0.517345
                        -0.0889624 0 0.996035
                        0.420975 0 0.907072
                        0.0889618 0 0.996035
                        0.575063 0 0.818109
                        0 1 0
                        0.661282 0.750138 0
                        0.895352 -0.00016308 -0.445358
                        0.58984 0.00993156 -0.807459
                        0.503467 -0.50105 -0.703896
                        0.223273 -0.217563 -0.950166
                        0.00152055 -0.908332 -0.418247
                        0.703269 -0.71056 -0.0227486
                        -0.000471566 -0.999915 -0.0130288
                        -0.00841891 -0.576138 0.817309
                        0.222091 -0.21754 0.950448
                        -0.908598 -0.00404018 0.417653
                        -0.504555 0.498288 0.705077
                        -0.582739 -0.0123645 0.812565
                        -0.218881 0.21267 0.952293
                        0.505798 0.497892 0.704466
                        0.655989 0.663351 0.360061
                        0.908199 0.000246347 0.418539
                        0.9655 0.00828924 0.260271
                        -0.50594 -0.497927 0.704339
                        -0.656147 -0.663393 0.359695
                        -0.908361 -0.000249706 0.418187
                        -0.965632 -0.00829158 0.259782
                        -0.00637237 0.569127 0.822225
                        0.22404 0.214434 0.950697
                        -0.00509454 0.00453138 0.999977
                        0.00297717 0.000798787 0.999995
                        0.00849139 -0.569079 -0.822239
                        0.00503219 0.00453088 -0.999977
                        -0.221977 -0.211613 -0.951812
                        0.0015568 0.000799355 -0.999998
                        -0.00608308 0.905526 0.424248
                        -0.00472622 0.965915 0.258818
                        -0.136773 0 0.990602
                        0.136773 0 0.990602
                        0 0.136773 0.990602
                        0 -0.136773 0.990602
                        0 0.136773 -0.990602
                        0 -0.136773 -0.990602
                        0.903059 0.0939716 -0.419111
                        0.572517 0.0939723 -0.814489
                        0.54221 0.748833 -0.381126
                        0.331181 0.617334 -0.713595
                        0.99554 0.094342 0
                        0.996035 0 0.0889636
                        0.907072 0 -0.420975
                        0.996035 0 -0.0889636
                        0.818112 0 -0.57506
                        -0.643609 0.617333 -0.452402
                        -0.208948 0.908495 -0.361909
                        -0.23623 0.827714 0.509004
                        0.999582 -0.00850178 -0.02762
                        -0.00161161 -0.908283 0.418353
                        -0.508682 -0.503444 0.698417
                        0.00526143 -0.583299 0.81224
                        -0.21802 -0.217526 0.951394
                        0.00442312 -0.908783 -0.417244
                        0.00830622 -0.576118 -0.817324
                        -0.504532 -0.498343 -0.705054
                        -0.221102 -0.217515 -0.950685
                        0.504407 -0.498279 0.705189
                        0.908439 0.00404353 0.417998
                        0.658591 -0.662705 0.356482
                        0.968454 -0.00831684 0.249055
                        -0.908586 0.00404047 -0.417678
                        -0.504528 -0.498298 -0.705089
                        -0.584954 0.0123475 -0.810973
                        0.499338 0.495908 -0.710448
                        0.895623 -0.00412298 -0.444795
                        0.646781 0.659357 -0.383305
                        0.956572 0.00831515 -0.291378
                        0.00629866 -0.568321 0.822783
                        -0.219953 -0.21331 0.951903
                        0.00503286 -0.00143551 0.999986
                        -0.00632373 -0.568429 -0.822708
                        0.22521 -0.213386 -0.950656
                        -0.00503212 -0.00143563 -0.999986
                        -0.00495916 0.965914 -0.258817
                        -0.00609211 0.907253 -0.420541
                        -0.797176 0 0.603747
                        -0.603747 0 0.797176
                        0 0.797176 0.603747
                        0 0.603747 0.797176
                        3.20447e-016 0.797176 -0.603747
                        0 0.603747 -0.797176
                        0.0885683 0.0939708 -0.991628
                        -0.49777 0.0943416 -0.862163
                        -0.0589607 0.748832 -0.660132
                        -0.99554 0.094342 0
                        -0.661281 0.750138 0
                        -0.903058 0.0939716 -0.419113
                        -0.818111 0 -0.575061
                        -0.996035 0 -0.0889628
                        -0.907072 0 -0.420975
                        -0.996035 0 0.0889628
                        -0.643609 0.617333 0.452402
                        0.585661 0.012143 0.810465
                        0.00588258 0.0118239 0.999913
                        -0.00447865 -0.908767 0.417281
                        0.504414 -0.498325 0.705152
                        0.00307035 0.0120297 -0.999923
                        -0.658745 -0.662746 -0.356121
                        -0.968574 -0.00831685 -0.248585
                        0.588987 -0.0101571 0.808079
                        0.005875 -0.0120357 0.99991
                        -0.00605287 -0.907131 0.420805
                        -0.00472622 -0.965915 0.258818
                        -0.658745 0.662746 0.356121
                        0.00597222 0.907144 0.420777
                        0.00469509 0.965915 0.258818
                        -0.00612285 -0.905658 -0.423965
                        0.500725 -0.495575 -0.709704
                        -0.990602 0 -0.136773
                        -0.990602 0 0.136773
                        0 0.990602 -0.136773
                        0 0.990602 0.136773
                        -0.903058 0.0939716 0.419113
                        -0.572517 0.093971 0.81449
                        -0.575062 0 0.81811
                        -0.420974 0 0.907073
                        -0.908527 0.00397472 -0.417808
                        -0.705817 -0.708357 0.00732022
                        -0.999948 -0.00845151 0.0056955
                        0.0014536 0.866364 0.499411
                        0.00289717 0.866378 0.499381
                        -0.0014536 0.866364 -0.499411
                        -0.00289717 0.866378 -0.499381
                        0.895406 -0.000165561 -0.445251
                        0.589924 0.0100933 -0.807396
                        -0.908349 0.000249406 -0.418213
                        -0.588254 -0.0101625 -0.808613
                        -0.505913 0.497918 -0.704365
                        -0.223033 0.214417 -0.950937
                        -0.00851921 0.569923 -0.821654
                        0.224141 0.212747 -0.951052
                        0.00849515 0.569815 0.821729
                        0.797176 0 -0.603747
                        0.603747 0 -0.797176
                        0.136773 0 -0.990602
                        -0.136773 0 -0.990602
                        0 -0.797176 -0.603747
                        -3.20447e-016 -0.797176 0.603747
                        -0.420974 0 -0.907073
                        -0.575062 0 -0.81811
                        -0.907072 0 0.420975
                        -0.818111 0 0.575061
                        -0.908305 -0.000245796 0.418309
                        -0.585959 0.010023 0.810278
                        -0.00528134 -0.583405 -0.812164
                        0.644055 -0.660031 -0.386719
                        0.953163 -0.00828775 -0.302344
                        0.00306979 -0.0120434 -0.999923
                        -0.00860703 -0.569097 0.822225
                        0.222971 -0.211634 0.951575
                        0.00597214 -0.907149 -0.420768
                        0.00469509 -0.965915 -0.258818
                        -0.603747 0 -0.797176
                        -0.797176 0 -0.603747
                        0 0.797176 -0.603747
                        -3.20447e-016 0.797176 0.603747
                        0.818112 0 0.57506
                        0.907072 0 0.420975
                        0.575063 0 -0.818109
                        0.420975 0 -0.907072
                        0.00307514 0.0118315 -0.999925
                        0.908382 0.00397773 0.418122
                        -0.000964466 0.995603 -0.0936657
                        0.000964466 0.995603 0.0936657
                        0.000393351 -0.999915 0.0130272
                        0.585689 0.0123415 0.810442
                        -0.968574 0.00831685 0.248585
                        0.00587608 0.0120221 0.99991
                        0.00600189 0.905544 -0.424211
                        -0.656147 0.663393 -0.359695
                        0.00469509 0.965915 -0.258818
                        0.00600181 -0.905548 0.424201
                        0.0889618 0 -0.996035
                        -0.0889624 0 -0.996035
                        -0.584925 0.0121488 -0.810996
                        0.586626 -0.0122769 -0.809765
                        -0.586042 0.0101862 0.810217
                        0.00628531 0.569116 -0.822233
                        0.00469509 -0.965915 0.258818
                        -0.00495916 -0.965914 -0.258817
                        -0.965632 0.00829158 -0.259782
                    </float_array>
                    <technique_common>
                        <accessor count="308" source="#Geometry-mesh003-normals-array" stride="3">
                            <param name="X" type="float" />
                            <param name="Y" type="float" />
                            <param name="Z" type="float" />
                        </accessor>
                    </technique_common>
                </source>
                <source id="Geometry-mesh003-uvSet1" name="uvSet1">
                    <float_array id="Geometry-mesh003-uvSet1-array" count="662">
                        0.133116 0.45171
                        0.113376 0.440685
                        0.133089 0.369215
                        0.17256 0.369157
                        0.167286 0.410413
                        0.152848 0.440629
                        0.0989189 0.410508
                        0.0936179 0.369266
                        0.0988933 0.328012
                        0.113331 0.297798
                        0.133062 0.286719
                        0.1528 0.297743
                        0.167258 0.327916
                        0.42517 0.494003
                        0.422336 0.26848
                        0.447344 0.491876
                        0.44931 0.0448609
                        0.427131 0.042
                        0.56904 0.272695
                        0.564195 0.496318
                        0.542065 0.49342
                        0.544067 0.0464034
                        0.56629 0.0443396
                        0.184488 0.212714
                        0.166336 0.177393
                        0.208961 0.226631
                        0.233787 0.214011
                        0.159402 0.127827
                        0.251658 0.177639
                        0.166087 0.0782138
                        0.258666 0.128113
                        0.18428 0.0419328
                        0.252053 0.078462
                        0.209106 0.0293099
                        0.233582 0.0432043
                        0.0477124 0.104766
                        0.0541489 0.0552209
                        0.0555345 0.154126
                        0.0728771 0.190877
                        0.0717854 0.0189185
                        0.0972292 0.204226
                        0.0964592 0.00569583
                        0.122195 0.191001
                        0.12231 0.0190519
                        0.13983 0.154699
                        0.139633 0.0557425
                        0.146267 0.10508
                        0.246496 0.392444
                        0.228191 0.357442
                        0.271028 0.405933
                        0.295798 0.392881
                        0.22104 0.307998
                        0.31351 0.356198
                        0.227509 0.25827
                        0.320302 0.306552
                        0.245543 0.221673
                        0.313472 0.257019
                        0.270312 0.208618
                        0.294848 0.222084
                        0.912102 0.657231
                        0.916541 0.615547
                        0.917863 0.697571
                        0.93321 0.727348
                        0.931294 0.584417
                        0.954067 0.737334
                        0.951852 0.572209
                        0.974625 0.725127
                        0.972708 0.582195
                        0.989377 0.693993
                        0.988055 0.611968
                        0.993823 0.652835
                        0.992866 0.129944
                        0.987527 0.171313
                        0.986316 0.0887619
                        0.971825 0.058115
                        0.972823 0.201651
                        0.951491 0.0470213
                        0.952234 0.212738
                        0.930658 0.0581108
                        0.930649 0.201641
                        0.915956 0.0884482
                        0.916175 0.171045
                        0.910617 0.12988
                        0.992787 0.474897
                        0.987164 0.516763
                        0.986531 0.434198
                        0.971538 0.404605
                        0.972979 0.548126
                        0.950772 0.394924
                        0.952845 0.560596
                        0.929388 0.407481
                        0.931836 0.550928
                        0.915216 0.438802
                        0.916844 0.521336
                        0.910587 0.480574
                        0.993144 0.303103
                        0.988175 0.344021
                        0.987899 0.261955
                        0.972936 0.231409
                        0.973031 0.374392
                        0.952214 0.220364
                        0.952324 0.385548
                        0.931507 0.23152
                        0.931602 0.374503
                        0.916362 0.261888
                        0.916638 0.343953
                        0.911394 0.303332
                        0.677713 0.63814
                        2.46465e-005 0.63814
                        0.677713 0.665588
                        2.46465e-005 0.665588
                        0.999996 0.807853
                        6.91414e-006 0.807853
                        0.999996 0.780405
                        6.91414e-006 0.780405
                        0.0894463 0.218564
                        0.0937558 0.232826
                        0.0585333 0.283173
                        0.0657594 0.291242
                        0.0473818 0.369379
                        0.0556472 0.369379
                        0.010523 0.169366
                        0.0105902 0.129081
                        0.0434124 0.169639
                        0.0434798 0.129349
                        0.0971315 0.326396
                        0.1122 0.294565
                        0.13295 0.210062
                        0.13295 0.282599
                        0.326772 0.3436
                        0.333381 0.306663
                        0.374035 0.364185
                        0.397295 0.319552
                        0.382317 0.509455
                        0.354316 0.398695
                        0.359122 0.515301
                        0.585655 0.50276
                        0.593658 0.325257
                        0.761511 0.368275
                        0.751359 0.283804
                        0.777842 0.355875
                        0.771413 0.241069
                        0.840377 0.283158
                        0.855122 0.319242
                        0.830539 0.368032
                        0.849889 0.381515
                        0.751074 0.107902
                        0.736381 0.0716645
                        0.760998 0.0229425
                        0.74163 0.00939759
                        0.902304 0.233304
                        0.820138 0.240763
                        0.901514 0.195151
                        0.796246 0.195817
                        0.901314 0.54425
                        0.900874 0.583085
                        0.818239 0.537963
                        0.794228 0.583798
                        0.905086 0.271941
                        0.907481 0.314102
                        0.677713 0.610692
                        2.46465e-005 0.610692
                        0.999996 0.835302
                        6.91414e-006 0.835302
                        0.176453 0.218563
                        0.207366 0.283171
                        0.172143 0.232825
                        0.20014 0.291241
                        0.132949 0.19298
                        0.00978792 0.531901
                        0.00987786 0.491608
                        0.0426781 0.532255
                        0.0427684 0.491963
                        0.172144 0.505934
                        0.1537 0.444194
                        0.200141 0.447518
                        0.168768 0.412363
                        0.0916472 0.36938
                        0.0657592 0.447517
                        0.0971313 0.412363
                        0.319433 0.387558
                        0.609115 0.0289166
                        0.617485 0.17432
                        0.587864 0.0387986
                        0.594139 0.21881
                        0.384264 0.0262705
                        0.405621 0.0356566
                        0.374739 0.170087
                        0.397683 0.215464
                        0.840099 0.10731
                        0.830031 0.0229193
                        0.854732 0.0710331
                        0.849356 0.00880739
                        0.828202 0.410724
                        0.838313 0.495232
                        0.811866 0.423088
                        0.75065 0.671604
                        0.760418 0.756
                        0.735491 0.70787
                        0.740809 0.770218
                        0.688021 0.157706
                        0.771268 0.150326
                        0.688774 0.196411
                        0.687331 0.545715
                        0.770587 0.538389
                        0.688095 0.584427
                        0.682868 0.703979
                        0.684919 0.661724
                        0.677713 0.583244
                        2.46465e-005 0.583244
                        0.999996 0.86275
                        6.91414e-006 0.86275
                        0.218518 0.369379
                        0.207367 0.455586
                        0.210253 0.369379
                        0.132949 0.54578
                        0.13295 0.528698
                        0.176453 0.520197
                        0.0102278 0.330482
                        0.0103073 0.290204
                        0.0431175 0.3308
                        0.0431974 0.290509
                        0.0937556 0.505934
                        0.1122 0.444194
                        0.13295 0.45616
                        0.657588 0.314169
                        0.655249 0.274237
                        0.606949 0.512345
                        0.616562 0.370772
                        0.79389 0.428106
                        0.852904 0.458813
                        0.847552 0.39659
                        0.814217 0.355519
                        0.796427 0.350658
                        0.904857 0.117646
                        0.907108 0.0754529
                        0.736778 0.320233
                        0.685568 0.27364
                        0.683399 0.315872
                        0.684663 0.506916
                        0.75035 0.496082
                        0.677713 0.555796
                        2.46465e-005 0.555796
                        0.999996 0.890198
                        6.91414e-006 0.890198
                        0.089446 0.520196
                        0.0585331 0.455586
                        0.0104543 0.209648
                        0.0433437 0.209928
                        0.168768 0.326396
                        0.174252 0.369379
                        0.327427 0.189796
                        0.355173 0.136179
                        0.320267 0.146151
                        0.520356 0.0467968
                        0.51851 0.493608
                        0.471046 0.491475
                        0.472874 0.0446686
                        0.75987 0.411186
                        0.776288 0.423451
                        0.828739 0.756164
                        0.812431 0.743695
                        0.838603 0.671166
                        0.818382 0.628756
                        0.687661 0.622811
                        0.77074 0.628971
                        0.688347 0.23479
                        0.677713 0.693036
                        2.46465e-005 0.693036
                        0.677713 0.720484
                        2.46465e-005 0.720485
                        0.999996 0.972542
                        6.91414e-006 0.972542
                        0.999996 0.945094
                        6.91414e-006 0.945094
                        0.0101442 0.370757
                        0.0430342 0.37109
                        0.0103831 0.249927
                        0.0432724 0.250218
                        0.1537 0.294565
                        0.637341 0.141139
                        0.664783 0.195892
                        0.672142 0.152566
                        0.658026 0.232571
                        0.636031 0.404818
                        0.630136 0.52067
                        0.4036 0.499603
                        0.735071 0.460031
                        0.740227 0.397626
                        0.794437 0.738923
                        0.90199 0.156388
                        0.820001 0.150015
                        0.9041 0.50541
                        0.906273 0.46318
                        0.677713 0.747933
                        2.46465e-005 0.747933
                        0.999996 0.917646
                        6.91414e-006 0.917646
                        0.0106567 0.0887946
                        0.0107238 0.0485049
                        0.0435465 0.0890616
                        0.0436137 0.0487703
                        0.00996822 0.451323
                        0.0428585 0.451672
                        0.335975 0.267243
                        0.663819 0.351275
                        0.496528 0.0461049
                        0.494865 0.492166
                        0.361046 0.0181514
                        0.813679 0.0353178
                        0.742168 0.38245
                        0.795908 0.0404114
                        0.904342 0.660044
                        0.853314 0.707381
                        0.906667 0.702242
                        0.685328 0.118962
                        0.677713 0.775381
                        2.46465e-005 0.775381
                        0.0100572 0.411039
                        0.0429475 0.411381
                        0.670942 0.394885
                        0.333658 0.226858
                        0.632298 0.022866
                        0.776856 0.743835
                        0.777302 0.0354506
                        0.901634 0.621311
                        0.683015 0.0767602
                        0.682459 0.464691
                        0.999996 0.99999
                        6.91414e-006 0.99999
                        0.848116 0.769654
                    </float_array>
                    <technique_common>
                        <accessor count="331" source="#Geometry-mesh003-uvSet1-array" stride="2">
                            <param name="S" type="float" />
                            <param name="T" type="float" />
                        </accessor>
                    </technique_common>
                </source>
                <vertices id="Geometry-mesh003-vertices">
                    <input semantic="POSITION" source="#Geometry-mesh003-positions" />
                </vertices>
                <polylist count="360" material="Material-railing_pplant">
                    <input semantic="VERTEX" source="#Geometry-mesh003-vertices" offset="0" />
                    <input semantic="NORMAL" source="#Geometry-mesh003-normals" offset="1" />
                    <input semantic="TEXCOORD" source="#Geometry-mesh003-uvSet1" offset="2" set="0" />
                    <vcount>3 3 3 3 3 3 3 3 3 3 3 3 3 3 3 3 3 3 3 3 3 3 3 3 3 3 3 3 3 3 3 3 3 3 3 3 3 3 3 3 3 3 3 3 3 3 3 3 3 3 3 3 3 3 3 3 3 3 3 3 3 3 3 3 3 3 3 3 3 3 3 3 3 3 3 3 3 3 3 3 3 3 3 3 3 3 3 3 3 3 3 3 3 3 3 3 3 3 3 3 3 3 3 3 3 3 3 3 3 3 3 3 3 3 3 3 3 3 3 3 3 3 3 3 3 3 3 3 3 3 3 3 3 3 3 3 3 3 3 3 3 3 3 3 3 3 3 3 3 3 3 3 3 3 3 3 3 3 3 3 3 3 3 3 3 3 3 3 3 3 3 3 3 3 3 3 3 3 3 3 3 3 3 3 3 3 3 3 3 3 3 3 3 3 3 3 3 3 3 3 3 3 3 3 3 3 3 3 3 3 3 3 3 3 3 3 3 3 3 3 3 3 3 3 3 3 3 3 3 3 3 3 3 3 3 3 3 3 3 3 3 3 3 3 3 3 3 3 3 3 3 3 3 3 3 3 3 3 3 3 3 3 3 3 3 3 3 3 3 3 3 3 3 3 3 3 3 3 3 3 3 3 3 3 3 3 3 3 3 3 3 3 3 3 3 3 3 3 3 3 3 3 3 3 3 3 3 3 3 3 3 3 3 3 3 3 3 3 3 3 3 3 3 3 3 3 3 3 3 3 3 3 3 3 3 3 3 3 3 3 3 3 3 3 3 3 3 3 3 3 3 3 3 3 3 3 3 3 3 3</vcount>
                    <p>79 0 0 80 1 1 88 2 2 76 3 3 77 4 4 88 2 2 78 5 5 79 0 0 88 2 2 81 6 6 82 7 7 88 2 2 83 8 8 84 9 9 88 2 2 78 5 5 88 2 2 77 4 4 82 7 7 83 8 8 88 2 2 85 10 10 88 2 2 84 9 9 85 10 10 86 11 11 88 2 2 81 6 6 88 2 2 80 1 1 87 12 12 88 2 2 86 11 11 87 12 12 76 3 3 88 2 2 198 13 13 15 14 14 199 15 15 181 16 16 199 15 15 15 14 14 15 14 14 180 17 17 181 16 16 10 18 18 204 19 19 203 20 20 185 21 21 186 22 22 10 18 18 185 21 21 10 18 18 203 20 20 182 23 23 181 24 24 183 25 25 184 26 26 183 25 25 181 24 24 181 24 24 180 27 27 184 26 26 185 28 28 184 26 26 180 27 27 180 27 27 179 29 29 185 28 28 186 30 30 185 28 28 179 29 29 179 29 29 178 31 31 186 30 30 187 32 32 186 30 30 178 31 31 178 31 31 177 33 33 187 32 32 188 34 34 187 32 32 177 33 33 209 35 35 213 36 36 208 37 37 210 38 38 208 37 37 213 36 36 213 36 36 212 39 39 210 38 38 214 40 40 210 38 38 212 39 39 212 39 39 211 41 41 214 40 40 192 42 42 214 40 40 211 41 41 211 41 41 193 43 43 192 42 42 191 44 44 192 42 42 193 43 43 193 43 43 194 45 45 191 44 44 190 46 46 191 44 44 194 45 45 202 47 47 203 48 48 201 49 49 200 50 50 201 49 49 203 48 48 203 48 48 204 51 51 200 50 50 199 52 52 200 50 50 204 51 51 204 51 51 205 53 53 199 52 52 198 54 54 199 52 52 205 53 53 205 53 53 206 55 55 198 54 54 197 56 56 198 54 54 206 55 55 206 55 55 195 57 57 197 56 56 196 58 58 197 56 56 195 57 57 154 59 59 139 60 60 145 61 61 144 62 62 145 61 61 139 60 60 139 60 60 138 63 63 144 62 62 143 63 64 144 62 62 138 63 63 138 63 63 137 63 65 143 63 64 147 64 66 143 63 64 137 63 65 137 63 65 141 65 67 147 64 66 146 66 68 147 64 66 141 65 67 141 65 67 140 67 69 146 66 68 155 68 70 146 66 68 140 67 69 131 69 71 135 70 72 130 71 73 132 72 74 130 71 73 135 70 72 135 70 72 134 73 75 132 72 74 136 74 76 132 72 74 134 73 75 134 73 75 133 75 77 136 74 76 127 76 78 136 74 76 133 75 77 133 75 77 128 77 79 127 76 78 126 78 80 127 76 78 128 77 79 128 77 79 129 79 81 126 78 80 125 80 82 126 78 80 129 79 81 169 81 83 168 82 84 173 83 85 172 84 86 173 83 85 168 82 84 168 82 84 170 85 87 172 84 86 171 86 88 172 84 86 170 85 87 170 85 87 174 87 89 171 86 88 152 88 90 171 86 88 174 87 89 174 87 89 151 89 91 152 88 90 153 90 92 152 88 90 151 89 91 151 89 91 150 91 93 153 90 92 149 92 94 153 90 92 150 91 93 175 93 95 164 94 96 158 95 97 157 96 98 158 95 97 164 94 96 164 94 96 163 97 99 157 96 98 156 98 100 157 96 98 163 97 99 163 97 99 162 98 101 156 98 100 160 98 102 156 98 100 162 98 101 162 98 101 166 99 103 160 98 102 159 100 104 160 98 102 166 99 103 166 99 103 165 101 105 159 100 104 176 102 106 159 100 104 165 101 105 43 103 107 35 104 108 36 105 109 28 106 110 36 105 109 35 104 108 59 107 111 51 108 112 52 109 113 44 110 114 52 109 113 51 108 112 75 111 111 67 112 112 68 110 113 60 109 114 68 110 113 67 112 112 97 113 115 109 114 116 96 115 117 108 116 118 96 115 117 109 114 116 96 115 117 108 116 118 95 117 119 107 118 120 95 117 119 108 116 118 122 119 121 123 120 122 82 121 123 83 122 124 82 121 123 123 120 122 108 116 118 109 114 116 123 123 125 124 123 126 123 123 125 109 114 116 109 114 116 110 124 127 124 123 126 117 123 128 124 123 126 110 124 127 208 125 129 210 126 130 16 127 131 17 128 132 16 127 131 210 126 130 16 127 131 196 129 133 207 130 134 195 131 135 207 130 134 196 129 133 205 132 136 204 19 19 12 133 137 10 18 18 12 133 137 204 19 19 153 134 138 22 135 139 152 136 140 20 137 141 152 136 140 22 135 139 23 138 142 167 139 143 173 140 144 169 141 145 173 140 144 167 139 143 4 142 146 142 143 147 129 144 148 125 145 149 129 144 148 142 143 147 165 146 150 21 147 151 176 148 152 27 149 153 176 148 152 21 147 151 139 150 154 154 151 155 1 152 156 26 153 157 1 152 156 154 151 155 23 138 142 166 154 158 167 139 143 162 155 159 167 139 143 166 154 158 42 156 160 34 157 161 43 103 107 35 104 108 43 103 107 34 157 161 58 158 162 50 159 163 59 107 111 51 108 112 59 107 111 50 159 163 74 160 162 66 161 163 75 111 111 67 112 112 75 111 111 66 161 163 99 162 164 100 163 165 111 164 166 112 165 167 111 164 166 100 163 165 98 166 168 99 162 164 110 124 127 111 164 166 110 124 127 99 162 164 117 167 169 118 168 170 85 169 171 86 170 172 85 169 171 118 168 170 103 171 173 115 123 174 102 172 175 114 123 176 102 172 175 115 123 174 107 118 120 122 123 177 106 173 178 121 123 179 106 173 178 122 123 177 16 127 131 207 130 134 208 125 129 209 174 180 208 125 129 207 130 134 188 175 181 13 176 182 187 177 183 11 178 184 187 177 183 13 176 182 178 179 185 179 180 186 8 181 187 9 182 188 8 181 187 179 180 186 5 183 189 135 184 190 161 185 191 131 186 192 161 185 191 135 184 190 126 187 193 0 188 194 127 189 195 1 152 156 127 189 195 0 188 194 24 190 196 168 191 197 167 192 198 169 193 199 167 192 198 168 191 197 140 194 200 2 195 201 155 196 202 27 149 153 155 196 202 2 195 201 158 197 203 7 198 204 175 199 205 26 153 157 175 199 205 7 198 204 162 200 206 163 201 207 167 192 198 24 190 196 167 192 198 163 201 207 41 202 208 33 203 209 42 156 160 34 157 161 42 156 160 33 203 209 57 204 210 49 205 211 58 158 162 50 159 163 58 158 162 49 205 211 73 206 210 65 207 211 74 160 162 66 161 163 74 160 162 65 207 211 89 208 212 90 209 213 101 210 214 102 172 175 101 210 214 90 209 213 92 211 215 104 212 216 91 213 217 103 171 173 91 213 217 104 212 216 115 214 218 116 215 219 78 216 220 79 217 221 78 216 220 116 215 219 105 218 222 106 173 178 120 123 223 121 123 179 120 123 223 106 173 178 105 218 222 120 123 223 104 212 216 116 123 224 104 212 216 120 123 223 212 219 225 12 133 137 211 220 226 10 18 18 211 220 226 12 133 137 179 180 186 180 17 17 9 182 188 15 14 14 9 182 188 180 17 17 206 221 227 205 132 136 14 222 228 12 133 137 14 222 228 205 132 136 127 189 195 1 152 156 136 223 229 26 153 157 136 223 229 1 152 156 0 188 194 126 187 193 142 224 230 125 225 231 142 224 230 126 187 193 172 226 232 171 227 233 21 147 151 27 149 153 21 147 151 171 227 233 5 183 189 161 185 191 160 228 234 156 229 235 160 228 234 161 185 191 22 135 139 148 230 236 147 231 237 143 232 238 147 231 237 148 230 236 157 233 239 6 234 240 158 197 203 7 198 204 158 197 203 6 234 240 40 235 241 32 236 242 41 202 208 33 203 209 41 202 208 32 236 242 56 237 243 48 238 244 57 204 210 49 205 211 57 204 210 48 238 244 72 238 243 64 237 244 73 206 210 65 207 211 73 206 210 64 237 244 92 211 215 93 239 245 104 212 216 105 218 222 104 212 216 93 239 245 94 240 246 95 117 119 106 173 178 107 118 120 106 173 178 95 117 119 121 241 247 122 119 121 81 242 248 82 121 123 81 242 248 122 119 121 112 165 167 101 210 214 119 123 249 113 123 250 119 123 249 101 210 214 101 210 214 102 172 175 113 123 250 114 123 176 113 123 250 102 172 175 8 181 187 191 243 251 189 244 252 190 245 253 189 244 252 191 243 251 185 21 21 203 20 20 184 246 254 202 247 255 184 246 254 203 20 20 199 15 15 181 16 16 200 248 256 182 249 257 200 248 256 181 16 16 130 250 258 132 251 259 6 234 240 7 198 204 6 234 240 132 251 259 150 252 260 151 253 261 18 254 262 19 255 263 18 254 262 151 253 261 132 251 259 136 223 229 7 198 204 26 153 157 7 198 204 136 223 229 164 256 264 175 199 205 25 257 265 26 153 157 25 257 265 175 199 205 146 258 266 155 196 202 20 137 141 27 149 153 20 137 141 155 196 202 147 231 237 146 258 266 22 135 139 20 137 141 22 135 139 146 258 266 37 259 267 29 260 268 38 261 269 30 262 270 38 261 269 29 260 268 53 263 271 45 111 272 54 161 273 46 160 274 54 161 273 45 111 272 69 264 271 61 107 272 70 159 273 62 158 274 70 159 273 61 107 272 91 213 217 103 171 173 90 209 213 102 172 175 90 209 213 103 171 173 114 265 275 115 214 218 77 266 276 78 216 220 77 266 276 115 214 218 116 215 219 120 267 277 79 217 221 80 268 278 79 217 221 120 267 277 112 165 167 119 123 249 111 164 166 118 123 279 111 164 166 119 123 249 13 176 182 189 244 280 194 269 281 190 245 282 194 269 281 189 244 280 193 270 283 211 220 226 11 178 184 10 18 18 11 178 184 211 220 226 14 222 228 207 130 284 206 221 227 195 131 285 206 221 227 207 130 284 197 271 286 17 128 132 198 13 13 15 14 14 198 13 13 17 128 132 173 140 144 172 226 232 23 138 142 21 147 151 23 138 142 172 226 232 6 234 240 161 272 287 130 250 258 131 273 288 130 250 258 161 272 287 151 253 261 174 274 289 19 255 263 26 153 157 19 255 263 174 274 289 159 275 290 176 148 152 3 276 291 27 149 153 3 276 291 176 148 152 166 154 158 23 138 142 165 146 150 21 147 151 165 146 150 23 138 142 0 188 194 142 224 230 138 277 292 137 278 293 138 277 292 142 224 230 38 261 269 30 262 270 39 279 294 31 280 295 39 279 294 30 262 270 54 161 273 46 160 274 55 207 296 47 281 297 55 207 296 46 160 274 70 159 273 62 158 274 71 205 296 63 282 297 71 205 296 62 158 274 98 166 168 110 124 127 97 113 115 109 114 116 97 113 115 110 124 127 124 283 298 117 167 299 84 284 300 85 169 301 84 284 300 117 167 299 118 168 170 119 285 302 86 170 172 87 286 303 86 170 172 119 285 302 108 116 118 123 123 125 107 118 120 122 123 177 107 118 120 123 123 125 210 126 130 214 287 304 17 128 132 15 14 14 17 128 132 214 287 304 213 288 305 14 222 228 212 219 225 12 133 137 212 219 225 14 222 228 183 289 306 184 246 254 201 290 307 202 247 255 201 290 307 184 246 254 8 181 187 189 244 252 178 179 185 177 291 308 178 179 185 189 244 252 135 184 190 5 183 189 134 292 309 3 276 291 134 292 309 5 183 189 22 135 139 153 134 138 148 230 236 149 293 310 148 230 236 153 134 138 134 292 309 3 276 291 133 294 311 27 149 153 133 294 311 3 276 291 138 277 292 139 150 154 0 188 194 1 152 156 0 188 194 139 150 154 18 254 262 144 295 312 148 296 313 143 297 314 148 296 313 144 295 312 141 298 315 4 142 146 140 194 200 2 195 201 140 194 200 4 142 146 39 279 294 31 280 295 40 235 316 32 236 317 40 235 316 31 280 295 55 207 296 47 281 297 56 237 243 48 238 244 56 237 243 47 281 297 71 205 296 63 282 297 72 238 243 64 237 244 72 238 243 63 282 297 100 163 165 89 208 212 112 165 167 101 210 214 112 165 167 89 208 212 119 285 302 113 299 318 87 286 303 76 300 319 87 286 303 113 299 318 123 120 122 124 283 298 83 122 124 84 284 300 83 122 124 124 283 298 111 164 166 118 123 279 110 124 127 117 123 128 110 124 127 118 123 279 14 222 228 213 288 305 207 130 284 209 174 320 207 130 284 213 288 305 191 243 251 8 181 187 192 301 321 9 182 188 192 301 321 8 181 187 187 177 183 11 178 184 186 22 22 10 18 18 186 22 22 11 178 184 13 176 182 188 175 181 189 244 280 177 291 322 189 244 280 188 175 181 170 302 323 25 257 265 174 274 289 26 153 157 174 274 289 25 257 265 129 144 148 128 303 324 4 142 146 2 195 201 4 142 146 128 303 324 168 191 197 24 190 196 170 302 323 25 257 265 170 302 323 24 190 196 144 295 312 18 254 262 145 304 325 19 255 263 145 304 325 18 254 262 4 142 146 141 298 315 142 143 147 137 305 326 142 143 147 141 298 315 156 306 327 161 272 287 157 233 239 6 234 240 157 233 239 161 272 287 36 105 109 28 106 110 37 259 267 29 260 268 37 259 267 28 106 110 52 109 328 44 110 329 53 263 271 45 111 272 53 263 271 44 110 329 68 110 328 60 109 329 69 264 271 61 107 272 69 264 271 60 109 329 93 239 245 94 240 246 105 218 222 106 173 178 105 218 222 94 240 246 120 267 277 121 241 247 80 268 278 81 242 248 80 268 278 121 241 247 113 299 318 114 265 275 76 300 319 77 266 276 76 300 319 114 265 275 103 171 173 104 212 216 115 123 174 116 123 224 115 123 174 104 212 216 194 269 281 193 270 283 13 176 182 11 178 184 13 176 182 193 270 283 192 301 321 9 182 188 214 287 304 15 14 14 214 287 304 9 182 188 201 290 307 200 248 256 183 289 306 182 249 257 183 289 306 200 248 256 196 129 133 16 127 131 197 271 286 17 128 132 197 271 286 16 127 131 128 303 324 133 294 311 2 195 201 27 149 153 2 195 201 133 294 311 18 254 262 148 296 313 150 252 260 149 307 330 150 252 260 148 296 313 152 136 140 20 137 141 171 227 233 27 149 153 171 227 233 20 137 141 145 304 325 19 255 263 154 151 155 26 153 157 154 151 155 19 255 263 163 201 207 164 256 264 24 190 196 25 257 265 24 190 196 164 256 264 160 228 234 159 275 290 5 183 189 3 276 291 5 183 189 159 275 290</p>
                </polylist>
                <extra>
                    <technique profile="modo401">
                        <param sid="render" name="Render" type="Name">default</param>
                        <param sid="dissolve" name="Dissolve" type="float">0</param>
                        <param sid="curves" name="Render_Curves" type="bool">false</param>
                        <param sid="radius" name="Curve_Radius" type="float">0.05</param>
                    </technique>
                </extra>
            </mesh>
        </geometry>
        <geometry id="Geometry-mesh018" name="Mesh">
            <mesh>
                <source id="Geometry-mesh018-positions" name="positions">
                    <float_array id="Geometry-mesh018-positions-array" count="24">
                        0 0.8125 0
                        0 1.4375 0
                        2 1.4375 0
                        2 0.8125 0
                        0 0.8125 0
                        0 1.4375 0
                        2 1.4375 0
                        2 0.8125 0
                    </float_array>
                    <technique_common>
                        <accessor count="8" source="#Geometry-mesh018-positions-array" stride="3">
                            <param name="X" type="float" />
                            <param name="Y" type="float" />
                            <param name="Z" type="float" />
                        </accessor>
                    </technique_common>
                </source>
                <source id="Geometry-mesh018-normals" name="normals">
                    <float_array id="Geometry-mesh018-normals-array" count="6">
                        0 0 1
                        0 0 -1
                    </float_array>
                    <technique_common>
                        <accessor count="2" source="#Geometry-mesh018-normals-array" stride="3">
                            <param name="X" type="float" />
                            <param name="Y" type="float" />
                            <param name="Z" type="float" />
                        </accessor>
                    </technique_common>
                </source>
                <source id="Geometry-mesh018-uvSet1" name="uvSet1">
                    <float_array id="Geometry-mesh018-uvSet1-array" count="8">
                        -7 0
                        1 0
                        -7 2.21875
                        1 2.21875
                    </float_array>
                    <technique_common>
                        <accessor count="4" source="#Geometry-mesh018-uvSet1-array" stride="2">
                            <param name="S" type="float" />
                            <param name="T" type="float" />
                        </accessor>
                    </technique_common>
                </source>
                <vertices id="Geometry-mesh018-vertices">
                    <input semantic="POSITION" source="#Geometry-mesh018-positions" />
                </vertices>
                <polylist count="4" material="Material-chainlink">
                    <input semantic="VERTEX" source="#Geometry-mesh018-vertices" offset="0" />
                    <input semantic="NORMAL" source="#Geometry-mesh018-normals" offset="1" />
                    <input semantic="TEXCOORD" source="#Geometry-mesh018-uvSet1" offset="2" set="0" />
                    <vcount>3 3 3 3</vcount>
                    <p>4 0 0 7 0 1 5 0 2 6 0 3 5 0 2 7 0 1 0 1 0 1 1 2 3 1 1 2 1 3 3 1 1 1 1 2</p>
                </polylist>
                <extra>
                    <technique profile="modo401">
                        <param sid="render" name="Render" type="Name">default</param>
                        <param sid="dissolve" name="Dissolve" type="float">0</param>
                        <param sid="curves" name="Render_Curves" type="bool">false</param>
                        <param sid="radius" name="Curve_Radius" type="float">0.05</param>
                    </technique>
                </extra>
            </mesh>
        </geometry>
    </library_geometries>
    <library_lights>
        <light id="Light-polyRender007" name="Render">
            <technique_common>
                <ambient>
                    <color sid="ambient_light_rgb">0.05 0.05 0.05</color>
                </ambient>
            </technique_common>
        </light>
    </library_lights>
    <library_nodes id="shader_tree" name="Shader_Tree">
        <node sid="shader_tree_render" name="Render">
            <extra>
                <technique profile="modo401">
                    <param sid="first" name="Frame_Range_First" type="int">1</param>
                    <param sid="last" name="Frame_Range_Last" type="int">120</param>
                    <param sid="dpi" name="Frame_DPI" type="float">300</param>
                    <param sid="resUnit" name="Resolution_Unit" type="Name">pixels</param>
                    <param sid="pAspect" name="Frame_Pixel_Aspect_Ratio" type="float">1</param>
                    <param sid="bucketX" name="Bucket_Width" type="int">32</param>
                    <param sid="bucketY" name="Bucket_Height" type="int">32</param>
                    <param sid="bktOrder" name="Bucket_Order" type="Name">hilbert</param>
                    <param sid="bktSkip" name="Skip_Existing_Buckets" type="bool">false</param>
                    <param sid="region" name="Render_Region" type="bool">false</param>
                    <param sid="regX0" name="Render_Region_Left" type="float">0</param>
                    <param sid="regX1" name="Render_Region_Right" type="float">1</param>
                    <param sid="regY0" name="Render_Region_Top" type="float">0</param>
                    <param sid="regY1" name="Render_Region_Bottom" type="float">1</param>
                    <param sid="aa" name="Render_Antialiasing" type="Name">s8</param>
                    <param sid="aaFilter" name="Render_Antialiasing_Filter" type="Name">gaussian</param>
                    <param sid="fineRate" name="Refinement_Shading_Rate" type="float">0.25</param>
                    <param sid="fineThresh" name="Refinement_Threshold" type="float">0.1</param>
                    <param sid="bktRefine" name="Refine_Bucket_Borders" type="bool">false</param>
                    <param sid="dof" name="Render_Depth_of_Field" type="bool">false</param>
                    <param sid="mBlur" name="Render_Motion_Blur" type="bool">false</param>
                    <param sid="stereo" name="Render_Stereoscopic" type="bool">false</param>
                    <param sid="rayShadow" name="Ray_Tracing_Shadows" type="bool">true</param>
                    <param sid="reflDepth" name="Reflection_Depth" type="int">8</param>
                    <param sid="refrDepth" name="Refraction_Depth" type="int">8</param>
                    <param sid="rayThresh" name="Ray_Threshold" type="float">0.001</param>
                    <param sid="subdAdapt" name="Adaptive_Subdivision" type="bool">false</param>
                    <param sid="subdRate" name="Subdivision_Rate" type="float">10</param>
                    <param sid="dispEnable" name="Micropoly_Displacement" type="bool">true</param>
                    <param sid="dispRate" name="Displacement_Rate" type="float">1</param>
                    <param sid="dispRatio" name="Displacement_Ratio" type="float">4</param>
                    <param sid="edgeMin" name="Minimum_Edge_Length" type="float">0.0001</param>
                    <param sid="dispSmooth" name="Smooth_Positions" type="bool">true</param>
                    <param sid="ambRad" name="Ambient_Intensity" type="float">0.05</param>
                    <param sid="ambColor" name="Ambient_Color" type="color">1 1 1</param>
                    <param sid="globEnable" name="Enable_Indirect_Illumination" type="bool">true</param>
                    <param sid="globScope" name="Indirect_Illumination_Scope" type="Name">all</param>
                    <param sid="globRays" name="Indirect_Rays" type="int">512</param>
                    <param sid="globLimit" name="Indirect_Bounces" type="int">1</param>
                    <param sid="globRange" name="Indirect_Range" type="float">0</param>
                    <param sid="globSubs" name="Subsurface_Scattering" type="int">0</param>
                    <param sid="globVols" name="Volumetrics_Affect_Indirect" type="bool">false</param>
                    <param sid="irrCache" name="Enable_Irradiance_Caching" type="bool">true</param>
                    <param sid="irrRays" name="Irradiance_Rays" type="int">512</param>
                    <param sid="globSuper" name="Indirect_Supersampling" type="bool">true</param>
                    <param sid="irrRate" name="Irradiance_Rate" type="float">2.5</param>
                    <param sid="irrRatio" name="Irradiance_Ratio" type="float">6</param>
                    <param sid="irrVals" name="Interpolation_Values" type="int">1</param>
                    <param sid="irrGrads" name="Irradiance_Gradients" type="Name">both</param>
                    <param sid="irrWalk" name="Walkthrough_Mode" type="bool">false</param>
                    <param sid="irrLEnable" name="Load_Irradiance_before_Render" type="bool">false</param>
                    <param sid="irrLName" name="Load_Irradiance_File" type="Name"></param>
                    <param sid="irrSEnable" name="Save_Irradiance_after_Render" type="bool">false</param>
                    <param sid="irrSName" name="Save_Irradiance_File" type="Name"></param>
                    <param sid="causEnable" name="Enable_Direct_Caustics" type="bool">false</param>
                    <param sid="causTotal" name="Caustics_Total_Photons" type="int">100000</param>
                    <param sid="causLocal" name="Caustics_Local_Photons" type="int">32</param>
                    <param sid="globCaus" name="Indirect_Caustics" type="Name">refraction</param>
                </technique>
            </extra>
        </node>
        <node sid="shader_tree_environment" name="Environment">
            <extra>
                <technique profile="modo401">
                    <param sid="radiance" name="Environment_Intensity" type="float">1</param>
                    <param sid="visCam" name="Environment_Visible_to_Camera" type="bool">true</param>
                    <param sid="visInd" name="Environment_Visible_to_Indirect_Rays" type="bool">true</param>
                    <param sid="visRefl" name="Environment_Visible_to_Reflection_Rays" type="bool">true</param>
                    <param sid="visRefr" name="Environment_Visible_to_Refraction_Rays" type="bool">true</param>
                </technique>
            </extra>
        </node>
    </library_nodes>
    <library_visual_scenes>
        <visual_scene id="DefaultScene">
            <node id="polyRender007" name="Render" type="NODE">
                <instance_light url="#Light-polyRender007" />
            </node>
            <node id="Geometry-mesh003Node" name="railing_pplant_short_chainlink" type="NODE">
                <instance_geometry url="#Geometry-mesh003">
                    <bind_material>
                        <technique_common>
                            <instance_material symbol="Material-railing_pplant" target="#Material-railing_pplant">
                                <bind_vertex_input semantic="uvSet1" input_semantic="TEXCOORD" input_set="0" />
                            </instance_material>
                        </technique_common>
                    </bind_material>
                </instance_geometry>
                <node id="Geometry-mesh018Node" name="Mesh" type="NODE">
                    <translate sid="translation020">0 0 0</translate>
                    <rotate sid="rotation019Y">0 1 0 0</rotate>
                    <rotate sid="rotation019X">1 0 0 0</rotate>
                    <rotate sid="rotation019Z">0 0 1 0</rotate>
                    <scale sid="scale021">1 1 1</scale>
                    <instance_geometry url="#Geometry-mesh018">
                        <bind_material>
                            <technique_common>
                                <instance_material symbol="Material-chainlink" target="#Material-chainlink">
                                    <bind_vertex_input semantic="uvSet1" input_semantic="TEXCOORD" input_set="0" />
                                </instance_material>
                            </technique_common>
                        </bind_material>
                    </instance_geometry>
                </node>
            </node>
            <node id="groupLocator011Node" name="Texture_Group" type="NODE">
                <node id="txtrLocator014Node" name="railing_pplant_spec__Image___Texture_" type="NODE">
                    <translate sid="translation017">0 0 0</translate>
                    <rotate sid="rotation016Y">0 1 0 0</rotate>
                    <rotate sid="rotation016X">1 0 0 0</rotate>
                    <rotate sid="rotation016Z">0 0 1 0</rotate>
                    <scale sid="scale015">1 1 1</scale>
                </node>
                <node id="txtrLocator037Node" name="fencing_chainlink_pplant__Image___Texture_" type="NODE">
                    <translate sid="translation040">0 0 0</translate>
                    <rotate sid="rotation039Y">0 1 0 0</rotate>
                    <rotate sid="rotation039X">1 0 0 0</rotate>
                    <rotate sid="rotation039Z">0 0 1 0</rotate>
                    <scale sid="scale038">1 1 1</scale>
                </node>
                <node id="txtrLocator018Node" name="railing_pplant__Image___Texture_" type="NODE">
                    <translate sid="translation021">0 0 0</translate>
                    <rotate sid="rotation020Y">0 1 0 0</rotate>
                    <rotate sid="rotation020X">1 0 0 0</rotate>
                    <rotate sid="rotation020Z">0 0 1 0</rotate>
                    <scale sid="scale019">1 1 1</scale>
                </node>
                <node id="txtrLocator023Node" name="_none___Texture_" type="NODE">
                    <translate sid="translation026">0 0 0</translate>
                    <rotate sid="rotation025Y">0 1 0 0</rotate>
                    <rotate sid="rotation025X">1 0 0 0</rotate>
                    <rotate sid="rotation025Z">0 0 1 0</rotate>
                    <scale sid="scale024">1 1 1</scale>
                </node>
                <node id="txtrLocator013Node" name="railing_pplant_nrm__Image___Texture_" type="NODE">
                    <translate sid="translation016">0 0 0</translate>
                    <rotate sid="rotation015Y">0 1 0 0</rotate>
                    <rotate sid="rotation015X">1 0 0 0</rotate>
                    <rotate sid="rotation015Z">0 0 1 0</rotate>
                    <scale sid="scale014">1 1 1</scale>
                </node>
                <node id="txtrLocator007Node" name="checker_512__Image___Texture_" type="NODE">
                    <translate sid="translation010">0 0 0</translate>
                    <rotate sid="rotation009Y">0 1 0 0</rotate>
                    <rotate sid="rotation009X">1 0 0 0</rotate>
                    <rotate sid="rotation009Z">0 0 1 0</rotate>
                    <scale sid="scale008">1 1 1</scale>
                </node>
            </node>
            <extra>
                <technique profile="modo401">
                    <param sid="fps" name="Scene_FPS" type="float">24</param>
                    <param sid="sceneS" name="Scene_Start_Time" type="float">0</param>
                    <param sid="sceneE" name="Scene_End_Time" type="float">5</param>
                    <param sid="currentS" name="Scene_Current_Start_Time" type="float">0</param>
                    <param sid="currentE" name="Scene_Current_End_Time" type="float">5</param>
                    <param sid="timeSys" name="Scene_Time_System" type="Name">frames</param>
                </technique>
            </extra>
            <extra>
                <technique profile="MAX3D">
                    <frame_rate>24</frame_rate>
                </technique>
            </extra>
            <extra>
                <technique profile="MAYA">
                    <start_time>0</start_time>
                    <end_time>5</end_time>
                </technique>
            </extra>
            <extra>
                <technique profile="OKINO" />
            </extra>
            <extra>
                <technique profile="XSI">
                    <SI_Scene>
                        <frame_rate>24</frame_rate>
                    </SI_Scene>
                </technique>
            </extra>
        </visual_scene>
    </library_visual_scenes>
    <scene>
        <instance_visual_scene url="#DefaultScene" />
    </scene>
</COLLADA>
