<?xml version="1.0" encoding="utf-8"?>
<COLLADA xmlns="http://www.collada.org/2005/11/COLLADASchema" version="1.4.1">
  <asset>
    <contributor>
      <author>Marc</author>
      <authoring_tool>OpenCOLLADA2008</authoring_tool>
      <comments>
			ColladaMaya export options: 
			bakeTransforms=0;relativePaths=0;copyTextures=0;exportTriangles=1;exportCgfxFileReferences=0;
			isSampling=0;curveConstrainSampling=0;removeStaticCurves=1;exportPolygonMeshes=1;exportLights=0;
			exportCameras=0;exportJointsAndSkin=1;exportAnimations=1;exportInvisibleNodes=0;exportDefaultCameras=0;
			exportTexCoords=1;exportNormals=1;exportNormalsPerVertex=1;exportVertexColors=1;exportVertexColorsPerVertex=1;
			exportTexTangents=0;exportTangents=0;exportReferencedMaterials=0;exportMaterialsOnly=0;
			exportXRefs=0;dereferenceXRefs=1;exportCameraAsLookat=0;cameraXFov=0;cameraYFov=1;doublePrecision=0
		</comments>
      <source_data>file:///E:/depth/redist/entities/station/furniture/bunkbed_medicbay/bunkbed_medicbay.dae</source_data>
    </contributor>
    <created>2014-06-11T21:08:08</created>
    <modified>2014-06-11T21:08:08</modified>
    <unit name="meter" meter="1"/>
    <up_axis>Y_UP</up_axis>
  </asset>
  <library_materials>
    <material id="lambert1" name="lambert1">
      <instance_effect url="#lambert1-fx"/>
    </material>
    <material id="Material-Default" name="Default">
      <instance_effect url="#Effect-Default"/>
    </material>
    <material id="lambert1_1" name="lambert1_1">
      <instance_effect url="#lambert1-fx_1"/>
    </material>
  </library_materials>
  <library_effects>
    <effect id="Effect-Default">
      <profile_COMMON>
        <newparam sid="Image0001-surface">
          <surface type="2D">
            <init_from>Image0001</init_from>
          </surface>
        </newparam>
        <newparam sid="Image0001-sampler">
          <sampler2D>
            <source>Image0001-surface</source>
          </sampler2D>
        </newparam>
        <technique sid="common">
          <phong>
            <emission>
              <color>0 0 0 1</color>
            </emission>
            <ambient>
              <color>0 0 0 1</color>
            </ambient>
            <diffuse>
              <texture texture="Image0001-sampler" texcoord="TEX0">
                <extra>
                  <technique profile="OpenCOLLADAMaya">
                    <blend_mode>NONE</blend_mode>
                    <coverageU>1</coverageU>
                    <coverageV>1</coverageV>
                    <fast>0</fast>
                    <mirrorU>0</mirrorU>
                    <mirrorV>0</mirrorV>
                    <noiseU>0</noiseU>
                    <noiseV>0</noiseV>
                    <offsetU>0</offsetU>
                    <offsetV>0</offsetV>
                    <repeatU>1</repeatU>
                    <repeatV>1</repeatV>
                    <rotateFrame>0</rotateFrame>
                    <rotateUV>0</rotateUV>
                    <stagger>0</stagger>
                    <translateFrameU>0</translateFrameU>
                    <translateFrameV>0</translateFrameV>
                    <wrapU>1</wrapU>
                    <wrapV>1</wrapV>
                  </technique>
                </extra>
              </texture>
            </diffuse>
            <specular>
              <color>0.2 0.2 0.2 1</color>
            </specular>
            <shininess>
              <float>20</float>
            </shininess>
            <reflective>
              <color>0 0 0 1</color>
            </reflective>
            <reflectivity>
              <float>0</float>
            </reflectivity>
            <transparent opaque="RGB_ZERO">
              <color>0 0 0 1</color>
            </transparent>
            <transparency>
              <float>1</float>
            </transparency>
          </phong>
        </technique>
      </profile_COMMON>
    </effect>
    <effect id="lambert1-fx">
      <profile_COMMON>
        <technique sid="common">
          <lambert>
            <emission>
              <color>0 0 0 1</color>
            </emission>
            <ambient>
              <color>0 0 0 1</color>
            </ambient>
            <diffuse>
              <color>0.4 0.4 0.4 1</color>
            </diffuse>
            <transparent opaque="RGB_ZERO">
              <color>0 0 0 1</color>
            </transparent>
            <transparency>
              <float>1</float>
            </transparency>
          </lambert>
        </technique>
      </profile_COMMON>
    </effect>
    <effect id="lambert1-fx_1">
      <profile_COMMON>
        <technique sid="common">
          <lambert>
            <emission>
              <color>0 0 0 1</color>
            </emission>
            <ambient>
              <color>0 0 0 1</color>
            </ambient>
            <diffuse>
              <color>0.4 0.4 0.4 1</color>
            </diffuse>
            <transparent opaque="RGB_ZERO">
              <color>0 0 0 1</color>
            </transparent>
            <transparency>
              <float>1</float>
            </transparency>
          </lambert>
        </technique>
      </profile_COMMON>
    </effect>
  </library_effects>
  <library_images>
    <image id="Image0001" name="Image0001">
      <init_from>file:///E:/depth/redist/entities/station/furniture/bunkbed_medicbay/bunkbed_medicbay.dds</init_from>
      <extra>
        <technique profile="OpenCOLLADAMaya">
          <dgnode_type>kFile</dgnode_type>
          <image_sequence>0</image_sequence>
          <originalMayaNodeId>Image0001</originalMayaNodeId>
        </technique>
      </extra>
    </image>
  </library_images>
  <library_geometries>
    <geometry id="polySurfaceShape21" name="polySurfaceShape20">
      <mesh>
        <source id="polySurfaceShape21-positions" name="polySurfaceShape21-positions">
          <float_array id="polySurfaceShape21-positions-array" count="456">1.91008 0.475628 -0.651647 -1.91008 0.475628 -0.651647 1.91008 0.475628 0.651647 -1.91008 0.475628 0.651647 1.91008 0.658066 -0.651647 -1.91008 0.658066 -0.651647 1.91008 0.658066 0.651647 -1.91008 0.658066 0.651647 -1.88343 0.656999 -0.613669 1.87926 0.656999 -0.613669 1.87926 0.656999 0.617839 -1.88343 0.656999 0.617839 -1.88708 0.703676 -0.617921 -1.88343 0.698073 -0.613669 1.87926 0.698073 -0.613669 1.88303 0.703676 -0.617812 1.87926 0.698073 0.617839 1.88314 0.703676 0.62188 -1.88343 0.698073 0.617839 -1.88719 0.703676 0.621992 -1.96429 0.436167 -0.705857 -1.95868 0.430564 -0.700254 1.96429 0.436167 -0.705857 1.95868 0.430564 -0.700254 1.96429 0.436167 0.705857 1.95868 0.430564 0.700254 -1.96429 0.436167 0.705857 -1.95868 0.430564 0.700254 1.96033 0.475628 -0.701895 1.96429 0.470025 -0.705857 -1.96033 0.475628 -0.701895 -1.96429 0.470025 -0.705857 1.96033 0.475628 0.701895 1.96429 0.470025 0.705857 -1.96033 0.475628 0.701895 -1.96429 0.470025 0.705857 -1.94813 0.703676 -0.689095 -1.95178 0.698073 -0.693347 1.94801 0.703676 -0.689204 1.95178 0.698073 -0.693347 1.9479 0.703676 0.689306 1.95178 0.698073 0.693347 -1.94802 0.703676 0.689193 -1.95178 0.698073 0.693347 1.94782 0.658066 -0.689385 1.95178 0.663669 -0.693347 -1.94782 0.658066 -0.689385 -1.95178 0.663669 -0.693347 1.94782 0.658066 0.689385 1.95178 0.663669 0.693347 -1.94782 0.658066 0.689385 -1.95178 0.663669 0.693347 -1.79753 0 0.657745 -1.88343 0 0.657745 -1.88343 0 0.634122 -1.79753 0 0.634122 -1.79753 0.026271 0.657745 -1.88343 0.065052 0.657745 -1.88343 0.065052 0.634122 -1.79753 0.026271 0.634122 -1.79753 0 -0.653575 -1.88343 0 -0.653575 -1.88343 0 -0.629951 -1.79753 0 -0.629951 -1.79753 0.026271 -0.653575 -1.88343 0.065052 -0.653575 -1.88343 0.065052 -0.629951 -1.79753 0.026271 -0.629951 1.79286 0 0.657745 1.87876 0 0.657745 1.87876 0 0.634122 1.79286 0 0.634122 1.79286 0.026271 0.657745 1.87876 0.065052 0.657745 1.87876 0.065052 0.634122 1.79286 0.026271 0.634122 1.79286 0 -0.653575 1.87876 0 -0.653575 1.87876 0 -0.629951 1.79286 0 -0.629951 1.79286 0.026271 -0.653575 1.87876 0.065052 -0.653575 1.87876 0.065052 -0.629951 1.79286 0.026271 -0.629951 -1.94046 0 0.617839 -1.88343 0 0.617839 -1.88343 0 0.674861 -1.94046 0 0.674861 -1.94046 0 -0.670691 -1.88343 0 -0.670691 -1.88343 0 -0.613669 -1.94046 0 -0.613669 1.87876 0 -0.670691 1.93578 0 -0.670691 1.93578 0 -0.613669 1.87876 0 -0.613669 1.87876 0 0.617839 1.93578 0 0.617839 1.93578 0 0.674861 1.87876 0 0.674861 -1.94046 0.687265 0.617839 -1.88343 0.687265 0.617839 -1.88343 0.687265 0.674861 -1.94046 0.687265 0.674861 -1.94046 0.687265 -0.670691 -1.88343 0.687265 -0.670691 -1.89993 0.687265 -0.613669 -1.88343 0.687265 -0.613669 -1.94046 0.687265 -0.613669 1.87876 0.687265 -0.670691 1.93578 0.687265 -0.670691 1.93578 0.687265 -0.613669 1.87876 0.687265 -0.613669 1.895257 0.687265 0.617839 1.87876 0.687265 0.617839 1.93578 0.687265 0.617839 1.93578 0.687265 0.674861 1.87876 0.687265 0.674861 -1.94046 0.834422 -0.617839 -1.88343 0.834422 -0.617839 -1.88343 0.834422 -0.674861 -1.94046 0.834422 -0.674861 -1.94046 0.834422 0.670691 -1.88343 0.834422 0.670691 -1.88343 0.834422 0.613669 -1.94046 0.834422 0.613669 1.87876 0.834422 0.670691 1.93578 0.834422 0.670691 1.93578 0.834422 0.613669 1.87876 0.834422 0.613669 1.87876 0.834422 -0.617839 1.93578 0.834422 -0.617839 1.93578 0.834422 -0.674861 1.87876 0.834422 -0.674861 -1.94046 0.67325 -0.617839 -1.88343 0.67325 -0.617839 -1.88343 0.67325 -0.674861 -1.94046 0.67325 -0.674861 -1.94046 0.67325 0.670691 -1.88343 0.67325 0.670691 -1.887299 0.67325 0.613669 -1.88343 0.67325 0.613669 -1.94046 0.67325 0.613669 1.87876 0.67325 0.670691 1.93578 0.67325 0.670691 1.93578 0.67325 0.613669 1.87876 0.67325 0.613669 1.882629 0.67325 -0.617839 1.87876 0.67325 -0.617839 1.93578 0.67325 -0.617839 1.93578 0.67325 -0.674861 1.87876 0.67325 -0.674861</float_array>
          <technique_common>
            <accessor source="#polySurfaceShape21-positions-array" count="152" stride="3">
              <param name="X" type="float"/>
              <param name="Y" type="float"/>
              <param name="Z" type="float"/>
            </accessor>
          </technique_common>
        </source>
        <source id="polySurfaceShape21-normals" name="polySurfaceShape21-normals">
          <float_array id="polySurfaceShape21-normals-array" count="2160">0 0 1 0 0 1 0 0 1 0 0 1 0 0 1 0 0 1 0 0.5773458 -0.8164997 0 0.5773458 -0.8164997 0 0.5773458 -0.8164997 0 0.5773458 -0.8164997 0 0.5773458 -0.8164997 0 0.5773458 -0.8164997 0 -0.5773499 -0.8164968 0 -0.5773499 -0.8164968 0 -0.5773499 -0.8164968 0 -0.5773499 -0.8164968 0 -0.5773499 -0.8164968 0 -0.5773499 -0.8164968 0 0.5996279 0.8002789 0 0.3189571 0.9477692 0 0.316004 0.9487579 0 0.5946372 0.8039943 0 0.5996279 0.8002789 0 0.316004 0.9487579 0 -0.5773499 0.8164968 0 -0.5773499 0.8164968 0 -0.5773499 0.8164968 0 -0.5773499 0.8164968 0 -0.5773499 0.8164968 0 -0.5773499 0.8164968 -0.8164927 -0.5773558 0 -0.8164927 -0.5773558 0 -0.8164927 -0.5773558 0 -0.8164927 -0.5773558 0 -0.8164927 -0.5773558 0 -0.8164927 -0.5773558 0 0 1 0 0 1 0 0 1 0 0 1 0 0 1 0 0 1 0 1 0 0 1 0 0 1 0 0 1 0 0 1 0 0 1 0 0 0 1 0 0 1 0 0 1 0 0 1 0 0 1 0 0 1 0 0 -1 0 0 -1 0 0 -1 0 0 -1 0 0 -1 0 0 -1 0 1 0 0 1 0 0 1 0 0 1 0 0 1 0 0 1 0 0 0.9566538 0.2912279 0 1 0 0 0.9576578 0.2879089 0 1 0 0 0.9576578 0.2879089 0 1 0 0 1 0 0 1 0 0 1 0 0 1 0 0 1 0 0 1 0 0 0.7071108 -0.7071028 0 0.7071108 -0.7071028 0 0.7071108 -0.7071028 0 0.7071108 -0.7071028 0 0.7071108 -0.7071028 0 0.7071108 -0.7071028 0 0 -0.7071068 -0.7071068 0 -0.7071068 -0.7071068 0 -0.7071068 -0.7071068 0 -0.7071068 -0.7071068 0 -0.7071068 -0.7071068 0 -0.7071068 -0.7071068 -0.9202232 0.3913941 0 -0.9802459 0.197783 0 -0.8258329 0.563915 0 -0.8258329 0.563915 0 -0.8295699 0.558403 0 -0.9202232 0.3913941 0 0 0.5902989 0.8071848 0 0.595587 0.8032909 0 0.5902989 0.8071848 0 0.5902989 0.8071848 0 0.5902989 0.8071848 0 0.5849851 0.8110441 -0.8164911 0.5773581 0 -0.8164911 0.5773581 0 -0.8164911 0.5773581 0 -0.8164911 0.5773581 0 -0.8164911 0.5773581 0 -0.8164911 0.5773581 0 0 1 0 0 1 0 0 1 0 0 1 0 0 1 0 0 1 0 0 0 -1 0 0 -1 0 0 -1 0 0 -1 0 0 -1 0 0 -1 0 1 0 0 1 0 0 1 0 0 1 0 0 1 0 0 1 0 0 -1 0 0 -1 0 0 -1 0 0 -1 0 0 -1 0 0 -1 0 0 0 -1 0 0 -1 0 0 -1 0 0 -1 0 0 -1 0 0 -1 0 0.3189571 0.9477692 0 0 1 0 0.316004 0.9487579 0 0 1 0 0.316004 0.9487579 0 0 1 0 -1 0 0 -1 0 0 -1 0 0 -1 0 0 -1 0 0 -1 0 0 0 -1 0 0 -1 0 0 -1 0 0 -1 0 0 -1 0 0 -1 0 1 0 0 1 0 0 1 0 0 1 0 0 1 0 0 1 0 0 0.4115591 -0.9113832 0 0.207817 -0.9781678 0 0.5902989 -0.8071848 0 0.5902989 -0.8071848 0 0.5849961 -0.8110362 0 0.4115591 -0.9113832 0.8342127 0.5514428 0 0.9566538 0.2912279 0 0.9576578 0.2879089 0 0.8380132 0.5456501 0 0.8342127 0.5514428 0 0.9576578 0.2879089 0 0.8258301 0.5639191 0 0.8220366 0.5694347 0 0.8258301 0.5639191 0 0.8258301 0.5639191 0 0.8258301 0.5639191 0 0.8295873 0.5583772 0 0 0.5773458 0.8164997 0 0.5773458 0.8164997 0 0.5773458 0.8164997 0 0.5773458 0.8164997 0 0.5773458 0.8164997 0 0.5773458 0.8164997 0 1 0 0 1 0 0 1 0 0 1 0 0 1 0 0 1 0 -1 0 0 -1 0 0 -1 0 0 -1 0 0 -1 0 0 -1 0 0 0 1 0 0 1 0 0 1 0 0 1 0 0 1 0 0 1 0 0 -1 0 0 -1 0 0 -1 0 0 -1 0 0 -1 0 0 -1 0 -1 0 0 -1 0 0 -1 0 0 -1 0 0 -1 0 0 -1 0 0 -0.9202232 0.3913941 0 -1 0 0 -0.9802459 0.197783 0 -1 0 0 -0.9802459 0.197783 0 -1 0 0 -1 0 0 -1 0 0 -1 0 0 -1 0 0 -1 0 0 -1 0 0 0.8164927 -0.5773558 0 0.8164927 -0.5773558 0 0.8164927 -0.5773558 0 0.8164927 -0.5773558 0 0.8164927 -0.5773558 0 0.8164927 -0.5773558 0 0 -0.7071068 0.7071068 0 -0.7071068 0.7071068 0 -0.7071068 0.7071068 0 -0.7071068 0.7071068 0 -0.7071068 0.7071068 0 -0.7071068 0.7071068 -0.7071108 -0.7071028 0 -0.7071108 -0.7071028 0 -0.7071108 -0.7071028 0 -0.7071108 -0.7071028 0 -0.7071108 -0.7071028 0 -0.7071108 -0.7071028 0 -0.834206 0.551453 0 -0.8303409 0.5572559 0 -0.834206 0.551453 0 -0.834206 0.551453 0 -0.8380313 0.5456222 0 -0.834206 0.551453 0 0 0.5996302 -0.8002773 0 0.6046093 -0.7965223 0 0.5996302 -0.8002773 0 0.5996302 -0.8002773 0 0.5946269 -0.8040018 0 0.5996302 -0.8002773 0.8164911 0.5773581 0 0.8164911 0.5773581 0 0.8164911 0.5773581 0 0.8164911 0.5773581 0 0.8164911 0.5773581 0 0.8164911 0.5773581 0 0 1 0 0 1 0 0 1 0 0 1 0 0 1 0 0 1 0 0 0 1 0 0 1 0 0 1 0 0 1 0 0 1 0 0 1 0 1 0 0 1 0 0 1 0 0 1 0 0 1 0 0 1 0 0 -1 0 0 -1 0 0 -1 0 0 -1 0 0 -1 0 0 -1 0 0 0 1 0 0 1 0 0 1 0 0 1 0 0 1 0 0 1 0 0.4115591 -0.9113832 0 0 -1 0 0.207817 -0.9781678 0 0 -1 0 0.207817 -0.9781678 0 0 -1 0 0 1 0 0 1 0 0 1 0 0 1 0 0 1 0 0 1 0 -1 0 0 -1 0 0 -1 0 0 -1 0 0 -1 0 0 -1 0 0.4114681 0.9114242 0 0.4114681 0.9114242 0 0.4114681 0.9114242 0 0.4114681 0.9114242 0 0.4114681 0.9114242 0 0.4114681 0.9114242 0 1 0 0 1 0 0 1 0 0 1 0 0 1 0 0 1 0 0 0 0 -1 0 0 -1 0 0 -1 0 0 -1 0 0 -1 0 0 -1 0 -1 0 0 -1 0 0 -1 0 0 -1 0 0 -1 0 0 -1 0 0.4114681 0.9114242 0 0.4114681 0.9114242 0 0.4114681 0.9114242 0 0.4114681 0.9114242 0 0.4114681 0.9114242 0 0.4114681 0.9114242 0 1 0 0 1 0 0 1 0 0 1 0 0 1 0 0 1 0 0 0 0 1 0 0 1 0 0 1 0 0 1 0 0 1 0 0 1 0 0 -1 0 0 -1 0 0 -1 0 0 -1 0 0 -1 0 0 -1 -1 0 0 -1 0 0 -1 0 0 -1 0 0 -1 0 0 -1 0 0 0 0 -1 0 0 -1 0 0 -1 0 0 -1 0 0 -1 0 0 -1 0 0 1 0 0 1 0 0 1 0 0 1 0 0 1 0 0 1 0 -1 0 0 -1 0 0 -1 0 0 -1 0 0 -1 0 0 -1 0 -0.4114681 0.9114242 0 -0.4114681 0.9114242 0 -0.4114681 0.9114242 0 -0.4114681 0.9114242 0 -0.4114681 0.9114242 0 -0.4114681 0.9114242 0 0 0 1 0 0 1 0 0 1 0 0 1 0 0 1 0 0 1 0 0 -1 0 0 -1 0 0 -1 0 0 -1 0 0 -1 0 0 -1 0 -1 0 0 -1 0 0 -1 0 0 -1 0 0 -1 0 0 -1 0 -0.4114681 0.9114242 0 -0.4114681 0.9114242 0 -0.4114681 0.9114242 0 -0.4114681 0.9114242 0 -0.4114681 0.9114242 0 -0.4114681 0.9114242 0 -1 0 0 -1 0 0 -1 0 0 -1 0 0 -1 0 0 -1 0 0 0 0 -1 0 0 -1 0 0 -1 0 0 -1 0 0 -1 0 0 -1 0 0 1 0 0 1 0 0 1 0 0 1 0 0 1 0 0 1 0 -1 0 0 -1 0 0 -1 0 0 -1 0 0 -1 0 0 -1 0 -1 0 0 -1 0 0 -1 0 0 -1 0 0 -1 0 0 -1 0 0 1 0 0 1 0 0 1 0 0 1 0 0 1 0 0 1 0 0 0 -1 0 0 -1 0 0 -1 0 0 -1 0 0 -1 0 0 -1 0 0 0 -1 0 0 -1 0 0 -1 0 0 -1 0 0 -1 0 0 -1 0 0 1 0 0 1 0 0 1 0 0 1 0 0 1 0 0 1 0 -1 0 0 -1 0 0 -1 0 0 -1 0 0 -1 0 0 -1 0 -1 0 0 -1 0 0 -1 0 0 -1 0 0 -1 0 0 -1 0 0 1 0 0 1 0 0 1 0 0 1 0 0 1 0 0 1 0 0 0 -1 0 0 -1 0 0 -1 0 0 -1 0 0 -1 0 0 -1 0 0 0 -1 0 0 -1 0 0 -1 0 0 -1 0 0 -1 0 0 -1 0 0 1 0 0 1 0 0 1 0 0 1 0 0 1 0 0 1 0 -1 0 0 -1 0 0 -1 0 0 -1 0 0 -1 0 0 -1 0 -1 0 0 -1 0 0 -1 0 0 -1 0 0 -1 0 0 -1 0 0 1 0 0 1 0 0 1 0 0 1 0 0 1 0 0 1 0 0 0 -1 0 0 -1 0 0 -1 0 0 -1 0 0 -1 0 0 -1 0 0 0 -1 0 0 -1 0 0 -1 0 0 -1 0 0 -1 0 0 -1 0 0 1 0 0 1 0 0 1 0 0 1 0 0 1 0 0 1 0 -1 0 0 -1 0 0 -1 0 0 -1 0 0 -1 0 0 -1 0 -1 0 0 -1 0 0 -1 0 0 -1 0 0 -1 0 0 -1 0 0 1 0 0 1 0 0 1 0 0 1 0 0 1 0 0 1 0 0 0 -1 0 0 -1 0 0 -1 0 0 -1 0 0 -1 0 0 -1 0 0 0 1 0 0 1 0 0 1 0 0 -1 0 0 -1 0 0 -1 0 0 1 0 0 1 0 0 1 0 0 1 0 0 1 0 0 1 0 0 -1 0 0 -1 0 0 -1 0 0 -1 0 0 -1 0 0 -1 0 1 0 0 1 0 0 1 0 0 1 0 0 1 0 0 1 0 -1 0 0 -1 0 0 -1 0 0 -1 0 0 -1 0 0 -1 0 0 1 0 0 1 0 0 1 0 0 1 0 0 1 0 0 1 0 0 0 1 0 0 1 0 0 1 0 0 1 0 0 1 0 0 1 0 0 0 1 0 0 1 0 0 1 0 0 1 0 0 1 0 0 1 0 0 -1 0 0 -1 0 0 -1 0 0 -1 0 0 -1 0 0 -1 0 1 0 0 1 0 0 1 0 0 1 0 0 1 0 0 1 0 -1 0 0 -1 0 0 -1 0 0 -1 0 0 -1 0 0 -1 0 0 1 0 0 1 0 0 1 0 0 1 0 0 1 0 0 1 0 0 0 1 0 0 1 0 0 1 0 0 1 0 0 1 0 0 1 0 0 0 1 0 0 1 0 0 1 0 0 1 0 0 1 0 0 1 0 0 -1 0 0 -1 0 0 -1 0 0 -1 0 0 -1 0 0 -1 0 1 0 0 1 0 0 1 0 0 1 0 0 1 0 0 1 0 -1 0 0 -1 0 0 -1 0 0 -1 0 0 -1 0 0 -1 0 0 1 0 0 1 0 0 1 0 0 1 0 0 1 0 0 1 0 0 0 1 0 0 1 0 0 1 0 0 1 0 0 1 0 0 1 0 0 0 1 0 0 1 0 0 1 0 0 1 0 0 1 0 0 1 0 0 -1 0 0 -1 0 0 -1 0 0 -1 0 0 -1 0 0 -1 0 1 0 0 1 0 0 1 0 0 1 0 0 1 0 0 1 0 -1 0 0 -1 0 0 -1 0 0 -1 0 0 -1 0 0 -1 0 0 1 0 0 1 0 0 1 0 0 1 0 0 1 0 0 1 0 0 0 1 0 0 1 0 0 1 0 0 1 0 0 1 0 0 1 0 0 0 -1 0 0 -1 0 0 -1 0 0 1 0 0 1 0 0 1</float_array>
          <technique_common>
            <accessor source="#polySurfaceShape21-normals-array" count="720" stride="3">
              <param name="X" type="float"/>
              <param name="Y" type="float"/>
              <param name="Z" type="float"/>
            </accessor>
          </technique_common>
        </source>
        <source id="polySurfaceShape21-polySurfaceShape21-map1" name="polySurfaceShape21-polySurfaceShape21-map1">
          <float_array id="polySurfaceShape21-polySurfaceShape21-map1-array" count="1146">0.002932 0.46356 0.002932 0.428744 0.731955 0.46356 0.731955 0.428744 0.924188 0.751154 0.922111 0.751154 0.922111 0.022756 0.924188 0.022756 0.007642 0.045073 0.007642 0.04285 0.782097 0.04285 0.782097 0.045073 0.005396 0.256962 0.005396 0.254594 0.800719 0.254594 0.800719 0.256962 0.007642 0.045073 0.007642 0.04285 0.782097 0.04285 0.782097 0.045073 0.007642 0.045073 0.782097 0.04285 0.715778 0.359812 0.715778 0.362576 0.373782 0.362576 0.373782 0.359812 0.777648 0.699921 0.777648 0.997113 0.76701 0.710559 0.76701 0.986475 0.76701 0.710559 0.777648 0.997113 0.370696 0.344055 0.718863 0.344055 0.370696 0.352405 0.718863 0.352405 0.827085 0.994617 0.813241 0.979405 0.827061 0.700907 0.813265 0.715273 0.827061 0.700907 0.813241 0.979405 0.842791 0.699151 0.842791 0.992917 0.83475 0.707192 0.83475 0.984877 0.83475 0.707192 0.842791 0.992917 0.373782 0.362576 0.715778 0.362576 0.373782 0.371061 0.715778 0.371061 0.715778 0.362576 0.939925 0.99588 0.931961 0.99588 0.939925 0.757099 0.931961 0.757099 0.78849 0.441678 0.823374 0.441678 0.78849 0.690886 0.823374 0.690886 0.718863 0.341291 0.370696 0.341291 0.734372 0.978531 0.736459 0.980617 0.002722 0.980617 0.002722 0.980617 0.004809 0.978531 0.734372 0.978531 0.951877 0.757099 0.951877 0.99588 0.954049 0.99588 0.954049 0.757099 0.007642 0.033801 0.782097 0.033801 0.782097 0.036024 0.007642 0.036024 0.370696 0.355168 0.370696 0.352405 0.718863 0.352405 0.718863 0.355168 0.718863 0.352405 0.780487 0.23569 0.006533 0.23569 0.770568 0.225771 0.016452 0.225771 0.770568 0.225771 0.006533 0.23569 0.915833 0.751154 0.915833 0.022756 0.779862 0.329821 0.005471 0.3298 0.766948 0.315632 0.017605 0.315653 0.766948 0.315632 0.005471 0.3298 0.989668 0.030537 0.99671 0.023495 0.99671 0.750415 0.989668 0.030537 0.99671 0.750415 0.989668 0.743373 0.782097 0.036024 0.007642 0.036024 0.782097 0.036024 0.005396 0.245912 0.800719 0.245912 0.734372 0.978531 0.004809 0.978531 0.734372 0.717702 0.004809 0.717702 0.734372 0.717702 0.004809 0.978531 0.002932 0.46356 0.002932 0.428744 0.731955 0.46356 0.731955 0.428744 0.731955 0.46356 0.002932 0.428744 0.003765 0.708745 0.003765 0.469281 0.735416 0.708745 0.735416 0.469281 0.005396 0.275015 0.800719 0.275015 0.800719 0.277383 0.005396 0.277383 0.942098 0.99588 0.942098 0.757099 0.715778 0.373825 0.373782 0.373825 0.924188 0.751154 0.922111 0.751154 0.922111 0.022756 0.924188 0.022756 0.924188 0.751154 0.922111 0.022756 0.748922 0.997113 0.748922 0.699921 0.75956 0.986475 0.75956 0.710559 0.75956 0.986475 0.748922 0.699921 0.370696 0.344055 0.718863 0.344055 0.370696 0.352405 0.718863 0.352405 0.370696 0.352405 0.718863 0.344055 0.788078 0.994593 0.788102 0.700931 0.801085 0.979429 0.801061 0.715248 0.801085 0.979429 0.788102 0.700931 0.834957 0.695772 0.834957 0.402005 0.842998 0.687731 0.842998 0.410046 0.842998 0.687731 0.834957 0.402005 0.373782 0.371061 0.715778 0.371061 0.373782 0.371061 0.943913 0.757099 0.943913 0.99588 0.78849 0.441678 0.823374 0.441678 0.78849 0.690886 0.823374 0.690886 0.78849 0.690886 0.823374 0.441678 0.715778 0.359812 0.715778 0.362576 0.373782 0.362576 0.373782 0.359812 0.715778 0.359812 0.373782 0.362576 0.004809 0.717702 0.002722 0.715616 0.736459 0.715616 0.736459 0.715616 0.734372 0.717702 0.004809 0.717702 0.718863 0.341291 0.718863 0.344055 0.370696 0.344055 0.370696 0.341291 0.718863 0.341291 0.370696 0.344055 0.715778 0.371061 0.715778 0.373825 0.373782 0.373825 0.373782 0.373825 0.373782 0.371061 0.715778 0.371061 0.007642 0.036024 0.007642 0.033801 0.782097 0.033801 0.782097 0.033801 0.782097 0.036024 0.007642 0.036024 0.370696 0.355168 0.718863 0.355168 0.370696 0.355168 0.006533 0.209253 0.780487 0.209253 0.016452 0.219172 0.770568 0.219172 0.016452 0.219172 0.780487 0.209253 0.922111 0.751154 0.915833 0.751154 0.915833 0.022756 0.915833 0.022756 0.922111 0.022756 0.922111 0.751154 0.77984 0.002114 0.76697 0.015516 0.005493 0.002137 0.017582 0.015494 0.981562 0.743373 0.974521 0.750415 0.974521 0.023495 0.981562 0.743373 0.974521 0.023495 0.981562 0.030537 0.782097 0.04285 0.007642 0.04285 0.007642 0.04285 0.005396 0.266333 0.800719 0.266333 0.005396 0.266333 0.826938 0.433721 0.826938 0.402892 0.786228 0.415342 0.786228 0.402892 0.779848 0.373745 0.779848 0.434176 0.763229 0.373745 0.763229 0.434176 0.763229 0.373745 0.779848 0.434176 0.740201 0.363549 0.75778 0.363549 0.740201 0.433679 0.75778 0.433679 0.740201 0.433679 0.75778 0.363549 0.75778 0.363549 0.740201 0.363549 0.75778 0.344001 0.740201 0.344001 0.75778 0.344001 0.740201 0.363549 0.834938 0.067721 0.794228 0.049342 0.834938 0.036892 0.794228 0.036892 0.834938 0.036892 0.794228 0.049342 0.779848 0.373745 0.763229 0.373745 0.779848 0.434176 0.763229 0.434176 0.740201 0.363549 0.740201 0.433679 0.75778 0.363549 0.75778 0.433679 0.75778 0.344001 0.740201 0.344001 0.75778 0.344001 0.834938 0.067721 0.834938 0.036892 0.794228 0.049342 0.794228 0.036892 0.794228 0.049342 0.834938 0.036892 0.826938 0.433721 0.786228 0.415342 0.826938 0.402892 0.786228 0.402892 0.826938 0.402892 0.786228 0.415342 0.75778 0.363549 0.75778 0.344001 0.740201 0.363549 0.740201 0.344001 0.740201 0.363549 0.834938 0.067721 0.834938 0.036892 0.794228 0.049342 0.794228 0.036892 0.794228 0.049342 0.834938 0.036892 0.826938 0.433721 0.786228 0.415342 0.826938 0.402892 0.786228 0.402892 0.826938 0.402892 0.786228 0.415342 0.779848 0.373745 0.763229 0.373745 0.779848 0.434176 0.763229 0.434176 0.779848 0.434176 0.763229 0.373745 0.740201 0.363549 0.740201 0.433679 0.75778 0.363549 0.75778 0.433679 0.75778 0.363549 0.740201 0.433679 0.834938 0.067721 0.794228 0.049342 0.834938 0.036892 0.794228 0.036892 0.826938 0.433721 0.826938 0.402892 0.786228 0.415342 0.786228 0.402892 0.786228 0.415342 0.826938 0.402892 0.779848 0.373745 0.779848 0.434176 0.763229 0.373745 0.763229 0.434176 0.763229 0.373745 0.779848 0.434176 0.740201 0.363549 0.75778 0.363549 0.740201 0.433679 0.75778 0.433679 0.740201 0.433679 0.75778 0.363549 0.75778 0.363549 0.740201 0.363549 0.75778 0.344001 0.740201 0.344001 0.75778 0.344001 0.740201 0.363549 0.850918 0.024014 0.850918 0.162363 0.781076 0.102057 0.556251 0.102057 0.763638 0.365405 0.782036 0.365405 0.763638 0.347006 0.782036 0.347006 0.763638 0.347006 0.782036 0.365405 0.779773 0.181223 0.555702 0.181223 0.779773 0.049839 0.555702 0.049839 0.763638 0.365405 0.782036 0.365405 0.763638 0.347006 0.782036 0.347006 0.763638 0.347006 0.782036 0.365405 0.781076 0.12767 0.556251 0.12767 0.850918 0.513555 0.862397 0.513555 0.859076 0.651904 0.850918 0.651904 0.763638 0.365426 0.782036 0.365426 0.763638 0.347028 0.782036 0.347028 0.763638 0.347028 0.782036 0.365426 0.779773 0.153942 0.555702 0.153942 0.779773 0.075365 0.555702 0.075365 0.763638 0.365426 0.782036 0.365426 0.763638 0.347028 0.782036 0.347028 0.763638 0.347028 0.782036 0.365426 0.781076 0.102057 0.781076 0.120711 0.556251 0.102057 0.850918 0.024014 0.862397 0.024014 0.850918 0.162363 0.763638 0.365426 0.782036 0.365426 0.763638 0.347028 0.782036 0.347028 0.763638 0.347028 0.782036 0.365426 0.779773 0.049839 0.779773 0.06843 0.555702 0.049839 0.779773 0.181223 0.779773 0.199814 0.555702 0.181223 0.763638 0.365426 0.782036 0.365426 0.763638 0.347028 0.782036 0.347028 0.763638 0.347028 0.782036 0.365426 0.850918 0.513555 0.862397 0.513555 0.859076 0.651904 0.850918 0.651904 0.781076 0.12767 0.781076 0.146324 0.556251 0.12767 0.763638 0.365405 0.782036 0.365405 0.763638 0.347006 0.782036 0.347006 0.763638 0.347006 0.782036 0.365405 0.779773 0.075365 0.779773 0.093957 0.555702 0.075365 0.779773 0.153942 0.779773 0.172533 0.555702 0.153942 0.763638 0.365405 0.782036 0.365405 0.763638 0.347006 0.782036 0.347006 0.763638 0.347006 0.782036 0.365405 0.862397 0.162363 0.862397 0.024014 0.556251 0.120711 0.781076 0.120711 0.555702 0.199814 0.779773 0.199814 0.555702 0.06843 0.779773 0.06843 0.556251 0.146324 0.781076 0.146324 0.862397 0.651904 0.859076 0.651904 0.862397 0.513555 0.555702 0.172533 0.779773 0.172533 0.555702 0.093957 0.779773 0.093957 0.556251 0.120711 0.862397 0.162363 0.555702 0.06843 0.555702 0.199814 0.862397 0.651904 0.556251 0.146324 0.555702 0.093957 0.555702 0.172533 0.850918 0.024014 0.850918 0.056458 0.728352 0.120711 0.728352 0.102057 0.781076 0.102057 0.781076 0.120711 0.763638 0.365405 0.782036 0.365405 0.763638 0.347006 0.782036 0.347006 0.763638 0.347006 0.782036 0.365405 0.727226 0.199814 0.727226 0.181223 0.779773 0.181223 0.779773 0.199814 0.727226 0.06843 0.727226 0.049839 0.779773 0.049839 0.779773 0.06843 0.763638 0.365405 0.782036 0.365405 0.763638 0.347006 0.782036 0.347006 0.763638 0.347006 0.782036 0.365405 0.728352 0.146324 0.728352 0.12767 0.781076 0.12767 0.781076 0.146324 0.850918 0.513555 0.862397 0.513555 0.861618 0.545999 0.850918 0.545999 0.763638 0.365426 0.782036 0.365426 0.763638 0.347028 0.782036 0.347028 0.763638 0.347028 0.782036 0.365426 0.727226 0.172533 0.727226 0.153942 0.779773 0.153942 0.779773 0.172533 0.727226 0.093957 0.727226 0.075365 0.779773 0.075365 0.779773 0.093957 0.763638 0.365426 0.782036 0.365426 0.763638 0.347028 0.782036 0.347028 0.763638 0.347028 0.782036 0.365426 0.728352 0.120711 0.728352 0.102057 0.781076 0.102057 0.781076 0.120711 0.850918 0.024014 0.862397 0.024014 0.850918 0.056458 0.763638 0.365426 0.782036 0.365426 0.763638 0.347028 0.782036 0.347028 0.763638 0.347028 0.782036 0.365426 0.727226 0.06843 0.727226 0.049839 0.779773 0.049839 0.779773 0.06843 0.727226 0.199814 0.727226 0.181223 0.779773 0.181223 0.779773 0.199814 0.763638 0.365426 0.782036 0.365426 0.763638 0.347028 0.782036 0.347028 0.763638 0.347028 0.782036 0.365426 0.850918 0.513555 0.862397 0.513555 0.861618 0.545999 0.850918 0.545999 0.728352 0.146324 0.728352 0.12767 0.781076 0.12767 0.781076 0.146324 0.763638 0.365405 0.782036 0.365405 0.763638 0.347006 0.782036 0.347006 0.763638 0.347006 0.782036 0.365405 0.727226 0.093957 0.727226 0.075365 0.779773 0.075365 0.779773 0.093957 0.727226 0.172533 0.727226 0.153942 0.779773 0.153942 0.779773 0.172533 0.763638 0.365405 0.782036 0.365405 0.763638 0.347006 0.782036 0.347006 0.763638 0.347006 0.782036 0.365405 0.862397 0.056458 0.862397 0.024014 0.862397 0.545999 0.861618 0.545999 0.862397 0.513555 0.862397 0.056458 0.862397 0.545999</float_array>
          <technique_common>
            <accessor source="#polySurfaceShape21-polySurfaceShape21-map1-array" count="573" stride="2">
              <param name="S" type="float"/>
              <param name="T" type="float"/>
            </accessor>
          </technique_common>
        </source>
        <vertices id="polySurfaceShape21-vertices" name="polySurfaceShape21-vertices">
          <input semantic="POSITION" source="#polySurfaceShape21-positions"/>
        </vertices>
        <triangles material="DefaultSG" count="240">
          <input semantic="VERTEX" source="#polySurfaceShape21-vertices" offset="0"/>
          <input semantic="NORMAL" source="#polySurfaceShape21-normals" offset="1"/>
          <input semantic="TEXCOORD" source="#polySurfaceShape21-polySurfaceShape21-map1" offset="2" set="0"/>
          <p>7 0 0 3 1 1 6 2 2 2 3 3 6 4 2 3 5 1 28 6 4 29 7 5 31 8 6 30 9 7 28 10 4 31 11 6 46 12 8 47 13 9 45 14 10 44 15 11 46 16 8 45 17 10 12 18 12 13 19 13 14 20 14 15 21 15 12 22 12 14 23 14 48 24 16 49 25 17 51 26 18 50 27 19 48 28 20 51 29 21 50 30 22 51 31 23 47 32 24 46 33 25 50 34 22 47 35 24 32 36 26 28 37 27 2 38 28 0 39 29 2 40 30 28 41 31 24 42 32 22 43 33 33 44 34 29 45 35 33 46 34 22 47 33 38 48 36 15 49 37 40 50 38 17 51 39 40 52 40 15 53 41 50 54 42 46 55 43 7 56 44 5 57 45 7 58 46 46 59 47 49 60 48 45 61 49 41 62 50 39 63 51 41 64 50 45 65 52 18 66 53 11 67 54 13 68 55 8 69 56 13 70 55 11 71 54 6 72 57 2 73 58 4 74 59 0 75 60 4 76 59 2 77 58 23 78 61 22 79 33 24 80 32 25 81 62 23 82 61 24 83 32 21 84 63 20 85 64 22 86 65 22 87 66 23 88 67 21 89 68 14 90 69 16 91 70 17 92 71 17 93 71 15 94 72 14 95 69 40 96 73 42 97 74 43 98 75 40 99 73 43 100 75 41 101 76 30 102 77 31 103 78 35 104 79 34 105 80 30 106 77 35 107 81 28 108 82 30 109 83 0 110 84 1 111 85 0 112 86 30 113 87 29 114 5 22 115 88 20 116 89 20 117 89 31 118 6 29 119 5 38 120 90 36 121 91 15 122 92 12 123 93 15 124 94 36 125 95 5 126 96 46 127 97 44 128 98 5 129 99 44 130 100 4 131 101 39 132 102 45 133 10 47 134 9 47 135 9 37 136 103 39 137 104 13 138 13 8 139 105 14 140 14 9 141 106 14 142 14 8 143 105 21 144 107 23 145 108 27 146 109 25 147 110 27 148 111 23 149 112 4 150 113 0 151 114 5 152 115 1 153 116 5 154 117 0 155 118 8 156 119 11 157 120 9 158 121 10 159 122 9 160 121 11 161 120 16 162 123 18 163 124 19 164 125 19 165 125 17 166 126 16 167 123 19 168 127 18 169 53 13 170 55 12 171 128 19 172 127 13 173 55 38 174 129 40 175 130 41 176 50 38 177 129 41 178 50 39 179 51 34 180 131 35 181 132 33 182 133 32 183 134 34 184 135 33 185 136 30 186 137 34 187 138 1 188 139 3 189 140 1 190 141 34 191 142 20 192 143 26 193 144 31 194 145 35 195 146 31 196 147 26 197 148 36 198 149 42 199 150 12 200 151 19 201 152 12 202 153 42 203 154 44 204 155 48 205 156 4 206 157 6 207 158 4 208 159 48 209 160 47 210 24 51 211 23 37 212 161 43 213 162 37 214 163 51 215 23 14 216 69 9 217 164 16 218 70 10 219 165 16 220 70 9 221 164 5 222 166 1 223 167 7 224 168 3 225 169 7 226 170 1 227 171 44 228 172 45 229 173 49 230 174 48 231 175 44 232 176 49 233 177 25 234 178 24 235 179 26 236 180 26 237 181 27 238 182 25 239 183 27 240 184 26 241 185 20 242 186 21 243 187 27 244 188 20 245 189 43 246 190 42 247 191 36 248 192 36 249 193 37 250 194 43 251 195 37 252 196 36 253 197 38 254 198 38 255 199 39 256 200 37 257 201 32 258 202 33 259 34 29 260 35 28 261 203 32 262 204 29 263 35 34 264 205 32 265 206 3 266 207 2 267 208 3 268 209 32 269 210 35 270 211 26 271 212 24 272 213 24 273 214 33 274 215 35 275 216 40 276 217 17 277 218 42 278 219 19 279 220 42 280 219 17 281 218 6 282 221 48 283 222 50 284 223 6 285 224 50 286 225 7 287 226 43 288 75 51 289 227 49 290 228 49 291 229 41 292 76 43 293 75 16 294 123 10 295 230 18 296 124 11 297 231 18 298 124 10 299 232 57 300 233 53 301 234 56 302 235 52 303 236 56 304 235 53 305 234 52 306 237 53 307 238 55 308 239 54 309 240 55 310 241 53 311 242 56 312 243 59 313 244 57 314 245 58 315 246 57 316 247 59 317 248 59 318 249 56 319 250 55 320 251 52 321 252 55 322 253 56 323 254 58 324 255 59 325 256 54 326 257 55 327 258 54 328 259 59 329 260 60 330 261 63 331 262 61 332 263 62 333 264 61 334 263 63 335 262 64 336 265 65 337 266 67 338 267 66 339 268 67 340 267 65 341 266 67 342 267 63 343 269 64 344 265 60 345 270 64 346 265 63 347 271 66 348 272 62 349 273 67 350 274 63 351 275 67 352 276 62 353 277 65 354 278 64 355 279 61 356 280 60 357 281 61 358 282 64 359 283 75 360 284 71 361 285 72 362 286 68 363 287 72 364 288 71 365 285 74 366 289 70 367 290 75 368 291 71 369 292 75 370 293 70 371 294 73 372 295 72 373 296 69 374 297 68 375 298 69 376 299 72 377 300 68 378 301 71 379 302 69 380 303 70 381 304 69 382 305 71 383 306 72 384 307 73 385 308 75 386 309 74 387 310 75 388 311 73 389 312 82 390 313 83 391 314 78 392 315 79 393 316 78 394 315 83 395 314 81 396 317 77 397 318 80 398 319 76 399 320 80 400 321 77 401 322 76 402 323 77 403 324 79 404 325 78 405 326 79 406 327 77 407 328 80 408 329 83 409 330 81 410 331 82 411 332 81 412 333 83 413 334 83 414 335 80 415 336 79 416 337 76 417 338 79 418 339 80 419 340 100 420 432 101 421 342 84 422 433 84 423 433 101 424 342 85 425 341 102 426 434 103 427 344 86 428 435 86 429 435 103 430 344 87 431 343 84 432 345 85 433 346 87 434 347 86 435 348 87 436 349 85 437 350 103 438 436 100 439 352 87 440 437 87 441 437 100 442 352 84 443 351 101 444 438 102 445 354 85 446 439 85 447 439 102 448 354 86 449 353 84 450 355 85 451 356 87 452 357 86 453 358 87 454 359 85 455 360 104 456 440 105 457 362 88 458 441 88 459 441 105 460 362 89 461 361 90 462 364 106 463 365 91 464 363 91 465 363 106 466 365 108 467 366 88 468 367 89 469 368 91 470 369 90 471 370 91 472 371 89 473 372 108 474 445 104 475 374 91 476 446 91 477 446 104 478 374 88 479 373 105 480 447 107 481 376 89 482 448 89 483 448 107 484 376 90 485 375 88 486 377 89 487 378 91 488 379 90 489 380 91 490 381 89 491 382 109 492 449 110 493 385 92 494 384 92 495 384 110 496 385 93 497 383 111 498 450 112 499 388 94 500 387 94 501 387 112 502 388 95 503 386 92 504 389 93 505 390 95 506 391 94 507 392 95 508 393 93 509 394 112 510 451 109 511 397 95 512 396 95 513 396 109 514 397 92 515 395 110 516 452 111 517 400 93 518 399 93 519 399 111 520 400 94 521 398 92 522 401 93 523 402 95 524 403 94 525 404 95 526 405 93 527 406 96 528 408 113 529 409 97 530 407 97 531 407 113 532 409 115 533 410 116 534 454 117 535 413 98 536 412 98 537 412 117 538 413 99 539 411 96 540 414 97 541 415 99 542 416 98 543 417 99 544 418 97 545 419 117 546 455 114 547 422 99 548 421 99 549 421 114 550 422 96 551 420 115 552 456 116 553 425 97 554 424 97 555 424 116 556 425 98 557 423 96 558 426 97 559 427 99 560 428 98 561 429 99 562 430 97 563 431 107 564 442 106 565 443 90 566 444 114 567 453 113 568 409 96 569 408 134 570 566 135 571 458 118 572 567 118 573 567 135 574 458 119 575 457 136 576 459 137 577 460 120 578 462 120 579 462 137 580 460 121 581 461 118 582 463 119 583 464 121 584 465 120 585 466 121 586 467 119 587 468 137 588 469 134 589 470 121 590 472 121 591 472 134 592 470 118 593 471 135 594 473 136 595 474 119 596 476 119 597 476 136 598 474 120 599 475 118 600 477 119 601 478 121 602 479 120 603 480 121 604 481 119 605 482 138 606 483 139 607 484 122 608 486 122 609 486 139 610 484 123 611 485 124 612 488 140 613 489 125 614 487 125 615 487 140 616 489 142 617 490 122 618 491 123 619 492 125 620 493 124 621 494 125 622 495 123 623 496 142 624 497 138 625 498 125 626 500 125 627 500 138 628 498 122 629 499 139 630 501 141 631 502 123 632 504 123 633 504 141 634 502 124 635 503 122 636 505 123 637 506 125 638 507 124 639 508 125 640 509 123 641 510 143 642 511 144 643 512 126 644 514 126 645 514 144 646 512 127 647 513 145 648 571 146 649 517 128 650 516 128 651 516 146 652 517 129 653 515 126 654 518 127 655 519 129 656 520 128 657 521 129 658 522 127 659 523 146 660 524 143 661 525 129 662 527 129 663 527 143 664 525 126 665 526 144 666 528 145 667 529 127 668 531 127 669 531 145 670 529 128 671 530 126 672 532 127 673 533 129 674 534 128 675 535 129 676 536 127 677 537 130 678 539 147 679 540 131 680 538 131 681 538 147 682 540 149 683 541 150 684 542 151 685 543 132 686 545 132 687 545 151 688 543 133 689 544 130 690 546 131 691 547 133 692 548 132 693 549 133 694 550 131 695 551 151 696 552 148 697 553 133 698 555 133 699 555 148 700 553 130 701 554 149 702 556 150 703 557 131 704 559 131 705 559 150 706 557 132 707 558 130 708 560 131 709 561 133 710 562 132 711 563 133 712 564 131 713 565 141 714 568 140 715 569 124 716 570 148 717 572 147 718 540 130 719 539</p>
        </triangles>
      </mesh>
      <extra>
        <technique profile="OpenCOLLADAMaya">
          <originalMayaNodeId>polySurfaceShape20</originalMayaNodeId>
          <double_sided>1</double_sided>
        </technique>
      </extra>
    </geometry>
  </library_geometries>
  <library_visual_scenes>
    <visual_scene id="VisualSceneNode" name="bunkbed_medicbay">
      <node id="polySurface20" name="polySurface20" type="NODE">
        <translate sid="translate">0 0 0</translate>
        <rotate sid="rotateZ">0 0 1 0</rotate>
        <rotate sid="rotateY">0 1 0 0</rotate>
        <rotate sid="rotateX">1 0 0 0</rotate>
        <scale sid="scale">1 1 1</scale>
        <instance_geometry url="#polySurfaceShape21">
          <bind_material>
            <technique_common>
              <instance_material symbol="DefaultSG" target="#Material-Default">
                <bind_vertex_input semantic="TEX0" input_semantic="TEXCOORD" input_set="0"/>
              </instance_material>
            </technique_common>
          </bind_material>
        </instance_geometry>
        <extra>
          <technique profile="OpenCOLLADAMaya">
            <originalMayaNodeId>polySurface20</originalMayaNodeId>
          </technique>
        </extra>
      </node>
    </visual_scene>
  </library_visual_scenes>
  <scene>
    <instance_visual_scene url="#VisualSceneNode"/>
  </scene>
</COLLADA>