<?xml version="1.0" encoding="utf-8"?>
<COLLADA xmlns="http://www.collada.org/2005/11/COLLADASchema" version="1.4.0">
  <asset>
    <contributor>
      <author></author>
      <authoring_tool>FBX COLLADA exporter</authoring_tool>
      <comments></comments>
    </contributor>
    <created>2012-07-18T15:12:21Z</created>
    <modified>2012-07-18T15:12:21Z</modified>
    <revision></revision>
    <title></title>
    <subject></subject>
    <keywords></keywords>
    <unit meter="0.010000"/>
    <up_axis>Y_UP</up_axis>
  </asset>
  <library_images>
    <image id="Map__0-image" name="Map__0">
      <init_from>file://C:\Users\Peter\Desktop\computer_\originals\computer_table_flesher_door.psd</init_from>
    </image>
  </library_images>
  <library_materials>
    <material id="_01___Default" name="_01___Default">
      <instance_effect url="#_01___Default-fx"/>
    </material>
  </library_materials>
  <library_effects>
    <effect id="_01___Default-fx" name="_01___Default">
      <profile_COMMON>
        <technique sid="standard">
          <phong>
            <emission>
              <color sid="emission">0.000000  0.000000 0.000000 1.000000</color>
            </emission>
            <ambient>
              <color sid="ambient">0.588235  0.588235 0.588235 1.000000</color>
            </ambient>
            <diffuse>
              <texture texture="Map__0-image" texcoord="CHANNEL0">
                <extra>
                  <technique profile="MAYA">
                    <wrapU sid="wrapU0">TRUE</wrapU>
                    <wrapV sid="wrapV0">TRUE</wrapV>
                    <blend_mode>ADD</blend_mode>
                  </technique>
                </extra>
              </texture>
            </diffuse>
            <specular>
              <color sid="specular">0.000000  0.000000 0.000000 1.000000</color>
            </specular>
            <shininess>
              <float sid="shininess">2.000000</float>
            </shininess>
            <reflective>
              <color sid="reflective">0.000000  0.000000 0.000000 1.000000</color>
            </reflective>
            <reflectivity>
              <float sid="reflectivity">1.000000</float>
            </reflectivity>
            <transparent>
              <color sid="transparent">1.000000  1.000000 1.000000 1.000000</color>
            </transparent>
            <transparency>
              <float sid="transparency">0.000000</float>
            </transparency>
          </phong>
        </technique>
      </profile_COMMON>
    </effect>
  </library_effects>
  <library_geometries>
    <geometry id="computer_table_flesher_face-lib" name="computer_table_flesher_faceMesh">
      <mesh>
        <source id="computer_table_flesher_face-lib-Position">
          <float_array id="computer_table_flesher_face-lib-Position-array" count="111">
100.000000 -75.000000 82.960968
-91.833336 -75.000000 82.960968
99.999992 -87.447746 82.960960
91.833336 -87.447746 82.960960
-99.999992 -87.447746 82.960960
-91.833328 -87.447746 82.960960
91.833344 -75.000000 82.960968
-99.999985 25.861221 82.960953
100.000000 -67.427139 82.960968
-100.000000 -75.000000 82.960968
-91.833336 -67.427139 82.960968
-49.677750 14.991607 82.960945
-20.472710 -67.427139 82.960968
20.472715 -67.427139 82.960968
-26.996857 -67.427139 82.960968
27.057690 15.385254 82.960930
99.999985 25.861221 82.960953
92.871834 15.455315 82.960938
-20.472713 -21.272638 82.960960
20.472710 -21.272640 82.960960
-91.833336 -67.427139 78.392853
-26.996857 -67.427139 78.392853
-26.996859 -21.272642 78.392845
-49.677750 14.991604 78.392830
92.871819 15.455313 60.308708
27.057686 15.385252 60.308701
26.996857 -67.427139 60.308739
20.472715 -67.427139 78.392853
20.472710 -21.272640 78.392845
-20.472713 -21.272638 78.392845
-20.472710 -67.427139 78.392853
-26.996859 -21.272640 82.960960
-91.833328 14.991610 82.960953
-91.833328 14.991609 78.392838
26.996861 -67.427139 82.960968
92.741051 -67.427139 82.960960
92.741035 -67.427139 60.308731
</float_array>
          <technique_common>
            <accessor source="#computer_table_flesher_face-lib-Position-array" count="37" stride="3">
              <param name="X" type="float"/>
              <param name="Y" type="float"/>
              <param name="Z" type="float"/>
            </accessor>
          </technique_common>
        </source>
        <source id="computer_table_flesher_face-lib-Normal0">
          <float_array id="computer_table_flesher_face-lib-Normal0-array" count="549">
-0.000000 0.000000 1.000000
-0.000000 0.000000 1.000000
0.000000 0.000000 1.000000
0.000000 0.000000 1.000000
-0.000000 0.000000 1.000000
-0.000000 0.000000 1.000000
-0.000000 0.000000 1.000000
0.000000 0.000000 1.000000
-0.000000 0.000001 1.000000
-0.000000 0.000001 1.000000
0.000000 0.000000 1.000000
-0.000000 0.000000 1.000000
0.000000 -0.000000 1.000000
0.000000 -0.000001 1.000000
0.000000 -0.000001 1.000000
0.000000 -0.000001 1.000000
-0.000001 -0.000001 1.000000
0.000000 -0.000000 1.000000
0.000000 0.000000 1.000000
0.000000 0.000000 1.000000
0.000000 0.000000 1.000000
-0.000000 0.000001 1.000000
-0.000000 0.000001 1.000000
-0.000001 0.000000 1.000000
-0.000001 0.000000 1.000000
-0.000001 0.000001 1.000000
-0.000000 0.000001 1.000000
0.000000 -0.000000 1.000000
0.000000 0.000000 1.000000
0.000000 -0.000001 1.000000
-0.000000 0.000001 1.000000
-0.000001 0.000001 1.000000
0.000000 0.000000 1.000000
0.000000 0.000000 1.000000
0.000000 0.000000 1.000000
-0.000000 0.000001 1.000000
0.000000 0.000000 1.000000
0.000000 0.000000 1.000000
0.000000 0.000000 1.000000
0.000000 0.000000 1.000000
0.000000 0.000000 1.000000
0.000000 0.000000 1.000000
0.000000 -0.000000 1.000000
0.000000 0.000000 1.000000
0.000000 0.000000 1.000000
0.000000 0.000000 1.000000
0.000000 0.000000 1.000000
0.000000 -0.000000 1.000000
0.000000 0.000000 1.000000
0.000000 -0.000001 1.000000
0.000001 0.000000 1.000000
0.000001 0.000000 1.000000
0.000000 0.000000 1.000000
0.000000 0.000000 1.000000
-1.000000 -0.000000 0.000000
-1.000000 -0.000000 0.000000
-1.000000 -0.000000 0.000000
-1.000000 -0.000000 0.000000
-1.000000 -0.000000 0.000000
-1.000000 -0.000000 0.000000
-0.999999 0.001578 0.000001
-0.999999 0.001578 0.000001
-0.999999 0.001578 0.000001
-0.999999 0.001578 0.000001
-0.999999 0.001578 0.000001
-0.999999 0.001578 0.000001
-1.000000 -0.000000 0.000000
-1.000000 -0.000000 0.000000
-1.000000 -0.000000 0.000000
-1.000000 -0.000000 0.000000
-1.000000 -0.000000 0.000000
-1.000000 -0.000000 0.000000
-0.000000 -1.000000 0.000000
-0.000000 -1.000000 0.000000
-0.000000 -1.000000 0.000000
-0.000000 -1.000000 0.000000
-0.000000 -1.000000 0.000000
-0.000000 -1.000000 0.000000
0.000000 1.000000 0.000000
0.000000 1.000000 0.000000
0.000000 1.000000 0.000000
0.000000 1.000000 0.000000
0.000000 1.000000 0.000000
0.000000 1.000000 0.000000
0.000000 -0.000001 1.000000
0.000000 -0.000001 1.000000
0.000000 -0.000001 1.000000
0.000000 -0.000001 1.000000
0.000000 -0.000001 1.000000
0.000000 -0.000001 1.000000
-0.000001 -0.000001 1.000000
0.000000 -0.000001 1.000000
-0.000001 -0.000001 1.000000
0.001065 -0.999999 0.000000
0.001065 -1.000000 0.000000
0.001065 -0.999999 0.000000
0.001065 -0.999999 0.000000
0.001065 -0.999999 0.000000
0.001065 -0.999999 0.000000
-0.000000 0.000000 1.000000
0.000000 0.000000 1.000000
0.000000 0.000000 1.000000
0.000000 1.000000 0.000000
0.000000 1.000000 0.000000
0.000000 1.000000 0.000000
0.000000 1.000000 0.000000
0.000000 1.000000 0.000000
0.000000 1.000000 0.000000
0.000000 -0.000001 1.000000
0.000000 0.000000 1.000000
0.000001 0.000000 1.000000
0.000001 0.000000 1.000000
0.000000 -0.000001 1.000000
0.000000 -0.000001 1.000000
-0.847833 -0.530263 0.000000
-0.847833 -0.530263 0.000000
-0.847833 -0.530264 0.000000
-0.847833 -0.530264 0.000000
-0.847833 -0.530263 0.000000
-0.847833 -0.530263 0.000000
1.000000 -0.000000 0.000000
1.000000 -0.000000 0.000000
1.000000 -0.000000 0.000000
1.000000 -0.000000 0.000000
1.000000 -0.000000 0.000000
1.000000 -0.000000 0.000000
1.000000 -0.000735 -0.000000
1.000000 -0.000735 -0.000000
1.000000 -0.000735 -0.000000
1.000000 -0.000735 -0.000000
1.000000 -0.000735 -0.000000
1.000000 -0.000735 -0.000000
1.000000 0.000000 0.000000
1.000000 0.000000 0.000000
1.000000 0.000000 0.000000
1.000000 0.000000 0.000000
1.000000 0.000000 0.000000
1.000000 0.000000 0.000000
-0.000000 -1.000000 0.000000
-0.000000 -1.000000 0.000000
-0.000000 -1.000000 0.000000
-0.000000 -1.000000 0.000000
-0.000000 -1.000000 0.000000
-0.000000 -1.000000 0.000000
-0.000000 0.000000 1.000000
0.000000 0.000000 1.000000
0.000000 0.000000 1.000000
0.000000 0.000000 1.000000
-0.000000 0.000000 1.000000
-0.000000 0.000000 1.000000
0.000000 1.000000 0.000000
0.000000 1.000000 0.000000
0.000000 1.000000 0.000000
0.000000 1.000000 0.000000
0.000000 1.000000 0.000000
0.000000 1.000000 0.000000
-0.000001 -0.000001 1.000000
-0.000001 0.000001 1.000000
-0.000001 0.000000 1.000000
-0.000001 0.000000 1.000000
-0.000001 -0.000001 1.000000
-0.000001 -0.000001 1.000000
0.000000 -0.000001 1.000000
0.000000 -0.000001 1.000000
0.000000 -0.000001 1.000000
0.000000 -0.000001 1.000000
0.000000 -0.000001 1.000000
0.000000 -0.000001 1.000000
-0.000000 0.000000 1.000000
0.000000 0.000000 1.000000
0.000000 -0.000001 1.000000
0.000000 0.000000 1.000000
0.000000 0.000001 1.000000
0.000000 0.000000 1.000000
-0.000000 0.000000 1.000000
-0.000000 0.000000 1.000000
-0.000000 0.000000 1.000000
-0.000000 0.000000 1.000000
-0.000000 0.000000 1.000000
-0.000000 0.000000 1.000000
-0.000000 0.000000 1.000000
-0.000000 0.000000 1.000000
0.000000 0.000000 1.000000
</float_array>
          <technique_common>
            <accessor source="#computer_table_flesher_face-lib-Normal0-array" count="183" stride="3">
              <param name="X" type="float"/>
              <param name="Y" type="float"/>
              <param name="Z" type="float"/>
            </accessor>
          </technique_common>
        </source>
        <source id="computer_table_flesher_face-lib-UV0">
          <float_array id="computer_table_flesher_face-lib-UV0-array" count="214">
0.367494 0.078270
0.399799 0.078270
0.399799 0.248690
0.367494 0.248690
0.046448 0.050308
0.955896 0.050308
0.758997 0.455235
0.646680 0.759487
0.046303 0.961727
0.330342 0.962321
0.437951 0.455235
0.751413 0.928930
0.602545 0.078270
0.934120 0.928908
0.014636 0.961727
0.329846 0.961832
0.437951 0.432615
0.758997 0.432615
0.777161 0.640737
0.646689 0.782107
0.934124 0.991727
0.688595 0.928930
0.751439 0.757622
0.330342 0.723733
0.329836 0.993499
0.014636 0.723138
0.046303 0.723138
0.664304 0.775235
0.437948 0.759554
0.415328 0.759554
0.751439 0.694803
0.933760 0.694803
0.933760 0.757622
0.006009 0.422726
0.255186 0.382591
0.635152 0.384045
0.996335 0.422726
0.046448 0.078270
0.006009 0.050308
0.996335 0.050308
0.996335 0.078270
0.960391 0.078270
0.046448 0.382591
0.634850 0.078270
0.602545 0.248690
0.955896 0.004346
0.996335 0.004346
0.961039 0.384303
0.046448 0.004346
0.006009 0.004346
0.934119 0.929006
0.751603 0.928860
0.751434 0.757609
0.933756 0.757609
0.933717 0.928983
0.933717 0.757587
0.996536 0.757587
0.996536 0.928983
0.751608 0.991737
0.751605 0.928918
0.688594 0.757679
0.751413 0.757679
0.330235 0.723225
0.330235 0.961814
0.046390 0.961814
0.046391 0.723225
0.046391 0.723877
0.046391 0.692210
0.330235 0.692210
0.330235 0.723877
0.362010 0.723733
0.362010 0.962321
0.045991 0.993405
0.046001 0.961738
0.759027 0.455197
0.759027 0.625617
0.437981 0.759518
0.437981 0.455197
0.646719 0.759518
0.759093 0.625606
0.759093 0.455187
0.781713 0.455187
0.781713 0.625606
0.646283 0.760114
0.759140 0.625616
0.437950 0.782184
0.437942 0.759565
0.415328 0.455232
0.437948 0.455232
0.394640 0.685887
0.196952 0.440165
0.009161 0.440270
0.205991 0.685887
0.205991 0.677089
0.009156 0.431472
0.196948 0.431367
0.394640 0.677089
0.008471 0.677105
0.009164 0.440275
0.196956 0.440146
0.197120 0.676975
0.402345 0.439972
0.403365 0.676800
0.394567 0.676839
0.393546 0.440010
0.205754 0.440140
0.205918 0.676969
</float_array>
          <technique_common>
            <accessor source="#computer_table_flesher_face-lib-UV0-array" count="107" stride="2">
              <param name="S" type="float"/>
              <param name="T" type="float"/>
            </accessor>
          </technique_common>
        </source>
        <vertices id="computer_table_flesher_face-lib-Vertex">
          <input semantic="POSITION" source="#computer_table_flesher_face-lib-Position"/>
        </vertices>
        <polygons material="_01___Default" count="61">
          <input semantic="VERTEX" offset="0" source="#computer_table_flesher_face-lib-Vertex"/>
          <input semantic="NORMAL" offset="1" source="#computer_table_flesher_face-lib-Normal0"/>
          <input semantic="TEXCOORD" offset="2" set="0" source="#computer_table_flesher_face-lib-UV0"/>
          <p>14 0 0 12 1 1 18 2 2</p>
          <p>18 3 2 31 4 3 14 5 0</p>
          <p>12 6 1 1 7 4 6 8 5</p>
          <p>6 9 5 13 10 12 12 11 1</p>
          <p>7 12 33 11 13 34 15 14 35</p>
          <p>15 15 35 16 16 36 7 17 33</p>
          <p>1 18 4 10 19 37 9 20 38</p>
          <p>6 21 5 0 22 39 8 23 40</p>
          <p>8 24 40 35 25 41 6 26 5</p>
          <p>7 27 33 32 28 42 11 29 34</p>
          <p>6 30 5 35 31 41 34 32 43</p>
          <p>34 33 43 13 34 12 6 35 5</p>
          <p>27 36 62 28 37 63 29 38 64</p>
          <p>29 39 64 30 40 65 27 41 62</p>
          <p>7 42 33 9 43 38 10 44 37</p>
          <p>10 45 37 32 46 42 7 47 33</p>
          <p>34 48 43 15 49 35 19 50 44</p>
          <p>19 51 44 13 52 12 34 53 43</p>
          <p>22 54 79 21 55 80 14 56 81</p>
          <p>14 57 81 31 58 82 22 59 79</p>
          <p>24 60 54 36 61 55 35 62 56</p>
          <p>35 63 56 17 64 57 24 65 54</p>
          <p>28 66 9 27 67 23 13 68 70</p>
          <p>13 69 70 19 70 71 28 71 9</p>
          <p>28 72 15 19 73 24 18 74 72</p>
          <p>18 75 72 29 76 73 28 77 15</p>
          <p>30 78 66 12 79 67 13 80 68</p>
          <p>13 81 68 27 82 69 30 83 66</p>
          <p>3 84 45 2 85 46 0 86 39</p>
          <p>0 87 39 6 88 5 3 89 45</p>
          <p>16 90 36 15 91 35 17 92 47</p>
          <p>24 93 13 17 94 20 15 95 58</p>
          <p>15 96 58 25 97 59 24 98 13</p>
          <p>14 99 0 10 100 37 1 101 4</p>
          <p>21 102 6 20 103 10 10 104 16</p>
          <p>10 105 16 14 106 17 21 107 6</p>
          <p>11 108 34 18 109 2 19 110 44</p>
          <p>19 111 44 15 112 35 11 113 34</p>
          <p>31 114 18 11 115 27 23 116 83</p>
          <p>23 117 83 22 118 84 31 119 18</p>
          <p>33 120 28 32 121 29 10 122 87</p>
          <p>10 123 87 20 124 88 33 125 28</p>
          <p>25 126 11 15 127 21 34 128 60</p>
          <p>34 129 60 26 130 61 25 131 11</p>
          <p>29 132 8 18 133 14 12 134 25</p>
          <p>12 135 25 30 136 26 29 137 8</p>
          <p>23 138 7 11 139 19 32 140 85</p>
          <p>32 141 85 33 142 86 23 143 7</p>
          <p>21 144 74 22 145 75 33 146 76</p>
          <p>33 147 76 20 148 77 21 149 74</p>
          <p>26 150 22 34 151 30 35 152 31</p>
          <p>35 153 31 36 154 32 26 155 22</p>
          <p>17 156 47 35 157 41 8 158 40</p>
          <p>8 159 40 16 160 36 17 161 47</p>
          <p>5 162 48 1 163 4 9 164 38</p>
          <p>9 165 38 4 166 49 5 167 48</p>
          <p>31 168 3 18 169 2 11 170 34</p>
          <p>22 171 75 23 172 78 33 173 76</p>
          <p>24 174 50 25 175 51 26 176 52</p>
          <p>26 177 52 36 178 53 24 179 50</p>
          <p>12 180 1 14 181 0 1 182 4</p>
        </polygons>
      </mesh>
    </geometry>
  </library_geometries>
  <library_visual_scenes>
    <visual_scene id="RootNode" name="RootNode">
      <node id="computer_table_flesher_face" name="computer_table_flesher_face">
        <matrix sid="matrix">1.000000 0.000000 0.000000 -0.004887 0.000000 0.745690 -0.000000 -2.826384 0.000000 0.000000 1.000000 -83.136551 0.000000 0.000000 0.000000 1.000000</matrix>
        <instance_geometry url="#computer_table_flesher_face-lib">
          <bind_material>
            <technique_common>
              <instance_material symbol="_01___Default" target="#_01___Default"/>
            </technique_common>
          </bind_material>
        </instance_geometry>
      </node>
    </visual_scene>
  </library_visual_scenes>
  <scene>
    <instance_visual_scene url="#RootNode"/>
  </scene>
</COLLADA>

