<?xml version="1.0" encoding="utf-8"?>
<COLLADA xmlns="http://www.collada.org/2005/11/COLLADASchema" version="1.4.1">
  <asset>
    <contributor>
      <author></author>
      <authoring_tool>FBX COLLADA exporter</authoring_tool>
      <comments></comments>
    </contributor>
    <created>2012-11-13T20:17:14Z</created>
    <keywords></keywords>
    <modified>2012-11-13T20:17:14Z</modified>
    <revision></revision>
    <subject></subject>
    <title></title>
    <unit meter="1.000000" name="centimeter"></unit>
    <up_axis>Y_UP</up_axis>
  </asset>
  <library_images>
    <image id="file5-image" name="file5">
      <init_from>file://D:/Work/Projects/ArtBullyProductions/Frictional Games/toy_football/export/toy_football.dds</init_from>
    </image>
    <image id="file6-image" name="file6">
      <init_from>file://D:/Work/Projects/ArtBullyProductions/Frictional Games/toy_football/export/toy_football_spec.dds</init_from>
    </image>
  </library_images>
  <library_materials>
    <material id="m_toy_football" name="m_toy_football">
      <instance_effect url="#m_toy_football-fx"/>
    </material>
  </library_materials>
  <library_effects>
    <effect id="m_toy_football-fx" name="m_toy_football">
      <profile_COMMON>
        <technique sid="standard">
          <phong>
            <emission>
              <color sid="emission">0.000000  0.000000 0.000000 1.000000</color>
            </emission>
            <ambient>
              <color sid="ambient">0.000000  0.000000 0.000000 1.000000</color>
            </ambient>
            <diffuse>
              <texture texture="file5-image" texcoord="CHANNEL0">
                <extra>
                  <technique profile="MAYA">
                    <wrapU sid="wrapU0">TRUE</wrapU>
                    <wrapV sid="wrapV0">TRUE</wrapV>
                    <blend_mode>NONE</blend_mode>
                  </technique>
                </extra>
              </texture>
            </diffuse>
            <specular>
              <texture texture="file6-image" texcoord="CHANNEL0">
                <extra>
                  <technique profile="MAYA">
                    <wrapU sid="wrapU0">TRUE</wrapU>
                    <wrapV sid="wrapV0">TRUE</wrapV>
                    <blend_mode>NONE</blend_mode>
                  </technique>
                </extra>
              </texture>
            </specular>
            <shininess>
              <float sid="shininess">1.245731</float>
            </shininess>
            <reflective>
              <color sid="reflective">0.000000  0.000000 0.000000 1.000000</color>
            </reflective>
            <reflectivity>
              <float sid="reflectivity">0.500000</float>
            </reflectivity>
            <transparent opaque="RGB_ZERO">
              <color sid="transparent">0.000000  0.000000 0.000000 1.000000</color>
            </transparent>
            <transparency>
              <float sid="transparency">1.000000</float>
            </transparency>
          </phong>
        </technique>
      </profile_COMMON>
    </effect>
  </library_effects>
  <library_geometries>
    <geometry id="toy_football-lib" name="toy_footballMesh">
      <mesh>
        <source id="toy_football-POSITION">
          <float_array id="toy_football-POSITION-array" count="552">
4.009689 -19.498558 -1.930963
2.774791 -19.498558 -3.479476
0.990312 -19.498558 -4.338837
-0.990310 -19.498558 -4.338837
-2.774789 -19.498558 -3.479477
-4.009687 -19.498558 -1.930965
-4.450418 -19.498558 -0.000001
-4.009688 -19.498558 1.930963
-2.774791 -19.498558 3.479476
-0.990312 -19.498558 4.338837
0.990311 -19.498558 4.338837
2.774790 -19.498558 3.479477
4.009688 -19.498558 1.930964
4.450418 -19.498558 0.000000
7.818316 -18.019377 -3.765100
5.410443 -18.019377 -6.784478
1.930966 -18.019377 -8.460107
-1.930962 -18.019377 -8.460107
-5.410440 -18.019377 -6.784480
-7.818314 -18.019377 -3.765103
-8.677674 -18.019377 -0.000002
-7.818315 -18.019377 3.765100
-5.410442 -18.019377 6.784478
-1.930965 -18.019377 8.460107
1.930964 -18.019377 8.460108
5.410441 -18.019377 6.784480
7.818315 -18.019377 3.765102
8.677675 -18.019377 0.000000
11.234900 -15.636629 -5.410439
7.774793 -15.636629 -9.749277
2.774793 -15.636629 -12.157151
-2.774788 -15.636629 -12.157152
-7.774788 -15.636629 -9.749280
-11.234897 -15.636629 -5.410443
-12.469795 -15.636629 -0.000002
-11.234899 -15.636629 5.410440
-7.774792 -15.636629 9.749278
-2.774792 -15.636629 12.157151
2.774790 -15.636629 12.157153
7.774791 -15.636629 9.749280
11.234899 -15.636629 5.410442
12.469797 -15.636629 0.000000
14.088118 -12.469796 -6.784475
9.749281 -12.469796 -12.225206
3.479480 -12.469796 -15.244585
-3.479474 -12.469796 -15.244586
-9.749275 -12.469796 -12.225210
-14.088114 -12.469796 -6.784481
-15.636628 -12.469796 -0.000003
-14.088117 -12.469796 6.784477
-9.749280 -12.469796 12.225207
-3.479479 -12.469796 15.244585
3.479476 -12.469796 15.244587
9.749278 -12.469796 12.225210
14.088117 -12.469796 6.784480
15.636630 -12.469796 0.000000
16.234898 -8.677675 -7.818309
11.234900 -8.677675 -14.088112
4.009692 -8.677675 -17.567591
-4.009685 -8.677675 -17.567593
-11.234893 -8.677675 -14.088117
-16.234894 -8.677675 -7.818316
-18.019375 -8.677675 -0.000003
-16.234898 -8.677675 7.818311
-11.234899 -8.677675 14.088113
-4.009690 -8.677675 17.567591
4.009686 -8.677675 17.567593
11.234897 -8.677675 14.088117
16.234898 -8.677675 7.818315
18.019377 -8.677675 0.000000
17.567595 -4.450419 -8.460102
12.157154 -4.450419 -15.244582
4.338841 -4.450419 -19.009686
-4.338833 -4.450419 -19.009687
-12.157147 -4.450419 -15.244587
-17.567591 -4.450419 -8.460110
-19.498556 -4.450419 -0.000003
-17.567593 -4.450419 8.460104
-12.157153 -4.450419 15.244583
-4.338840 -4.450419 19.009686
4.338835 -4.450419 19.009687
12.157151 -4.450419 15.244587
17.567593 -4.450419 8.460108
19.498558 -4.450419 0.000000
18.019379 0.000000 -8.677670
12.469798 0.000000 -15.636625
4.450422 0.000000 -19.498556
-4.450414 0.000000 -19.498556
-12.469791 0.000000 -15.636630
-18.019373 0.000000 -8.677677
-19.999998 0.000000 -0.000004
-18.019377 0.000000 8.677671
-12.469797 0.000000 15.636626
-4.450421 0.000000 19.498556
4.450417 0.000000 19.498558
12.469795 0.000000 15.636630
18.019377 0.000000 8.677675
20.000000 0.000000 0.000000
17.567595 4.450419 -8.460102
12.157154 4.450419 -15.244582
4.338841 4.450419 -19.009686
-4.338833 4.450419 -19.009687
-12.157147 4.450419 -15.244587
-17.567591 4.450419 -8.460110
-19.498556 4.450419 -0.000003
-17.567593 4.450419 8.460104
-12.157153 4.450419 15.244583
-4.338840 4.450419 19.009686
4.338835 4.450419 19.009687
12.157151 4.450419 15.244587
17.567593 4.450419 8.460108
19.498558 4.450419 0.000000
16.234898 8.677675 -7.818309
11.234900 8.677675 -14.088112
4.009692 8.677675 -17.567591
-4.009685 8.677675 -17.567593
-11.234893 8.677675 -14.088117
-16.234894 8.677675 -7.818316
-18.019375 8.677675 -0.000003
-16.234898 8.677675 7.818311
-11.234899 8.677675 14.088113
-4.009690 8.677675 17.567591
4.009686 8.677675 17.567593
11.234897 8.677675 14.088117
16.234898 8.677675 7.818315
18.019377 8.677675 0.000000
14.088118 12.469796 -6.784475
9.749281 12.469796 -12.225206
3.479480 12.469796 -15.244585
-3.479474 12.469796 -15.244586
-9.749275 12.469796 -12.225210
-14.088114 12.469796 -6.784481
-15.636628 12.469796 -0.000003
-14.088117 12.469796 6.784477
-9.749280 12.469796 12.225207
-3.479479 12.469796 15.244585
3.479476 12.469796 15.244587
9.749278 12.469796 12.225210
14.088117 12.469796 6.784480
15.636630 12.469796 0.000000
11.234900 15.636629 -5.410439
7.774793 15.636629 -9.749277
2.774793 15.636629 -12.157151
-2.774788 15.636629 -12.157152
-7.774788 15.636629 -9.749280
-11.234897 15.636629 -5.410443
-12.469795 15.636629 -0.000002
-11.234899 15.636629 5.410440
-7.774792 15.636629 9.749278
-2.774792 15.636629 12.157151
2.774790 15.636629 12.157153
7.774791 15.636629 9.749280
11.234899 15.636629 5.410442
12.469797 15.636629 0.000000
7.818316 18.019377 -3.765100
5.410443 18.019377 -6.784478
1.930966 18.019377 -8.460107
-1.930962 18.019377 -8.460107
-5.410440 18.019377 -6.784480
-7.818314 18.019377 -3.765103
-8.677674 18.019377 -0.000002
-7.818315 18.019377 3.765100
-5.410442 18.019377 6.784478
-1.930965 18.019377 8.460107
1.930964 18.019377 8.460108
5.410441 18.019377 6.784480
7.818315 18.019377 3.765102
8.677675 18.019377 0.000000
4.009689 19.498558 -1.930963
2.774791 19.498558 -3.479476
0.990312 19.498558 -4.338837
-0.990310 19.498558 -4.338837
-2.774789 19.498558 -3.479477
-4.009687 19.498558 -1.930965
-4.450418 19.498558 -0.000001
-4.009688 19.498558 1.930963
-2.774791 19.498558 3.479476
-0.990312 19.498558 4.338837
0.990311 19.498558 4.338837
2.774790 19.498558 3.479477
4.009688 19.498558 1.930964
4.450418 19.498558 0.000000
0.000000 -20.000000 0.000000
0.000000 20.000000 0.000000
</float_array>
          <technique_common>
            <accessor source="#toy_football-POSITION-array" count="184" stride="3">
              <param name="X" type="float"/>
              <param name="Y" type="float"/>
              <param name="Z" type="float"/>
            </accessor>
          </technique_common>
        </source>
        <source id="toy_football-Normal0">
          <float_array id="toy_football-Normal0-array" count="552">
0.226653 -0.969589 -0.092333
0.164145 -0.969589 -0.181530
0.069127 -0.969589 -0.234773
-0.039583 -0.969589 -0.241516
-0.140453 -0.969589 -0.200424
-0.213505 -0.969589 -0.119636
-0.244269 -0.969589 -0.015151
-0.226653 -0.969589 0.092333
-0.164145 -0.969589 0.181530
-0.069127 -0.969589 0.234773
0.039583 -0.969589 0.241516
0.140453 -0.969589 0.200424
0.213505 -0.969589 0.119635
0.244269 -0.969589 0.015151
0.394018 -0.901052 -0.181259
0.276353 -0.901052 -0.334267
0.103952 -0.901052 -0.421069
-0.089037 -0.901052 -0.424473
-0.264392 -0.901052 -0.343805
-0.387380 -0.901052 -0.195043
-0.433643 -0.901052 -0.007649
-0.394018 -0.901052 0.181259
-0.276353 -0.901052 0.334267
-0.103952 -0.901052 0.421069
0.089037 -0.901052 0.424473
0.264392 -0.901052 0.343805
0.387380 -0.901052 0.195042
0.433643 -0.901052 0.007649
0.564364 -0.782009 -0.264490
0.393716 -0.782009 -0.483166
0.145088 -0.782009 -0.606144
-0.132276 -0.782009 -0.609069
-0.383442 -0.782009 -0.491359
-0.558662 -0.782009 -0.276330
-0.623232 -0.782009 -0.006571
-0.564364 -0.782009 0.264490
-0.393716 -0.782009 0.483166
-0.145088 -0.782009 0.606145
0.132276 -0.782009 0.609069
0.383442 -0.782009 0.491359
0.558662 -0.782009 0.276330
0.623232 -0.782009 0.006571
0.706471 -0.623722 -0.334467
0.491389 -0.623723 -0.607871
0.178981 -0.623722 -0.760878
-0.168877 -0.623723 -0.763185
-0.483286 -0.623722 -0.614333
-0.701975 -0.623722 -0.343805
-0.781629 -0.623723 -0.005182
-0.706471 -0.623722 0.334467
-0.491389 -0.623722 0.607871
-0.178981 -0.623723 0.760878
0.168877 -0.623723 0.763185
0.483286 -0.623722 0.614333
0.701975 -0.623723 0.343805
0.781629 -0.623723 0.005182
0.813193 -0.434102 -0.387650
0.564466 -0.434102 -0.702092
0.203940 -0.434102 -0.877476
-0.196979 -0.434102 -0.879065
-0.558883 -0.434102 -0.706544
-0.810095 -0.434102 -0.394084
-0.900857 -0.434102 -0.003570
-0.813193 -0.434102 0.387650
-0.564466 -0.434102 0.702092
-0.203940 -0.434102 0.877476
0.196979 -0.434102 0.879065
0.558883 -0.434102 0.706544
0.810095 -0.434102 0.394084
0.900857 -0.434102 0.003570
0.879140 -0.222653 -0.421353
0.609260 -0.222652 -0.761071
0.218708 -0.222652 -0.950049
-0.215162 -0.222652 -0.950858
-0.606416 -0.222652 -0.763339
-0.877562 -0.222652 -0.424630
-0.974896 -0.222652 -0.001819
-0.879140 -0.222653 0.421353
-0.609260 -0.222652 0.761071
-0.218708 -0.222652 0.950049
0.215162 -0.222652 0.950858
0.606416 -0.222652 0.763338
0.877562 -0.222653 0.424630
0.974896 -0.222653 0.001819
0.900969 0.000000 -0.433884
0.623490 -0.000000 -0.781831
0.222521 0.000000 -0.974928
-0.222521 0.000000 -0.974928
-0.623490 -0.000000 -0.781832
-0.900969 0.000000 -0.433884
-1.000000 -0.000000 -0.000000
-0.900969 0.000000 0.433884
-0.623490 -0.000000 0.781831
-0.222521 -0.000000 0.974928
0.222521 0.000000 0.974928
0.623490 -0.000000 0.781832
0.900969 -0.000000 0.433884
1.000000 0.000000 0.000000
0.877562 0.222653 -0.424630
0.606416 0.222652 -0.763338
0.215162 0.222652 -0.950858
-0.218708 0.222652 -0.950049
-0.609259 0.222652 -0.761071
-0.879140 0.222652 -0.421353
-0.974896 0.222652 0.001818
-0.877562 0.222652 0.424630
-0.606416 0.222652 0.763338
-0.215162 0.222652 0.950858
0.218708 0.222652 0.950049
0.609260 0.222652 0.761071
0.879140 0.222652 0.421353
0.974896 0.222653 -0.001819
0.810095 0.434102 -0.394084
0.558884 0.434102 -0.706544
0.196979 0.434102 -0.879065
-0.203940 0.434102 -0.877476
-0.564466 0.434102 -0.702092
-0.813193 0.434102 -0.387651
-0.900857 0.434102 0.003570
-0.810095 0.434102 0.394084
-0.558884 0.434102 0.706544
-0.196979 0.434102 0.879065
0.203940 0.434102 0.877476
0.564466 0.434102 0.702092
0.813193 0.434102 0.387650
0.900857 0.434102 -0.003570
0.701975 0.623723 -0.343804
0.483286 0.623723 -0.614333
0.168877 0.623723 -0.763185
-0.178981 0.623723 -0.760879
-0.491389 0.623723 -0.607871
-0.706471 0.623722 -0.334468
-0.781629 0.623723 0.005182
-0.701975 0.623723 0.343804
-0.483286 0.623722 0.614333
-0.168877 0.623722 0.763185
0.178980 0.623723 0.760879
0.491389 0.623723 0.607871
0.706471 0.623723 0.334467
0.781629 0.623722 -0.005182
0.558662 0.782009 -0.276330
0.383442 0.782009 -0.491359
0.132277 0.782009 -0.609069
-0.145088 0.782009 -0.606145
-0.393716 0.782009 -0.483166
-0.564364 0.782009 -0.264491
-0.623232 0.782009 0.006571
-0.558662 0.782009 0.276330
-0.383442 0.782009 0.491359
-0.132277 0.782009 0.609069
0.145088 0.782009 0.606145
0.393716 0.782009 0.483166
0.564364 0.782009 0.264491
0.623232 0.782009 -0.006571
0.387380 0.901052 -0.195042
0.264392 0.901052 -0.343805
0.089038 0.901052 -0.424473
-0.103952 0.901052 -0.421069
-0.276352 0.901052 -0.334267
-0.394018 0.901052 -0.181259
-0.433643 0.901052 0.007649
-0.387380 0.901052 0.195042
-0.264392 0.901052 0.343805
-0.089038 0.901052 0.424473
0.103952 0.901052 0.421069
0.276352 0.901052 0.334267
0.394018 0.901052 0.181259
0.433643 0.901052 -0.007649
0.213505 0.969589 -0.119635
0.140453 0.969589 -0.200424
0.039583 0.969589 -0.241516
-0.069126 0.969589 -0.234773
-0.164145 0.969589 -0.181531
-0.226653 0.969589 -0.092333
-0.244269 0.969589 0.015152
-0.213505 0.969589 0.119635
-0.140453 0.969589 0.200424
-0.039583 0.969589 0.241516
0.069126 0.969589 0.234773
0.164145 0.969589 0.181530
0.226653 0.969589 0.092333
0.244269 0.969589 -0.015152
-0.000000 -1.000000 -0.000000
-0.000000 1.000000 -0.000000
</float_array>
          <technique_common>
            <accessor source="#toy_football-Normal0-array" count="184" stride="3">
              <param name="X" type="float"/>
              <param name="Y" type="float"/>
              <param name="Z" type="float"/>
            </accessor>
          </technique_common>
        </source>
        <source id="toy_football-UV0">
          <float_array id="toy_football-UV0-array" count="446">
0.000000 0.142857
0.071429 0.142857
0.142857 0.142857
0.214286 0.142857
0.285714 0.142857
0.357143 0.142857
0.428571 0.142857
0.500000 0.142857
0.571429 0.142857
0.642857 0.142857
0.714286 0.142857
0.785714 0.142857
0.857143 0.142857
0.928572 0.142857
1.000000 0.071429
0.000000 0.214286
0.071429 0.214286
0.142857 0.214286
0.214286 0.214286
0.285714 0.214286
0.357143 0.214286
0.428571 0.214286
0.500000 0.214286
0.571429 0.214286
0.642857 0.214286
0.714286 0.214286
0.785714 0.214286
0.857143 0.214286
0.928572 0.214286
1.000000 0.142857
0.000000 0.285714
0.071429 0.285714
0.142857 0.285714
0.214286 0.285714
0.285714 0.285714
0.357143 0.285714
0.428571 0.285714
0.500000 0.285714
0.571429 0.285714
0.642857 0.285714
0.714286 0.285714
0.785714 0.285714
0.857143 0.285714
0.928572 0.285714
1.000000 0.214286
-0.000000 0.357143
0.071429 0.357143
0.142857 0.357143
0.214286 0.357143
0.285714 0.357143
0.357143 0.357143
0.428571 0.357143
0.500000 0.357143
0.571429 0.357143
0.642857 0.357143
0.714286 0.357143
0.785714 0.357143
0.857143 0.357143
0.928572 0.357143
1.000000 0.285714
-0.000000 0.428571
0.071429 0.428571
0.142857 0.428571
0.214286 0.428571
0.285714 0.428571
0.357143 0.428571
0.428571 0.428571
0.500000 0.428571
0.571429 0.428571
0.642857 0.428571
0.714286 0.428571
0.785714 0.428571
0.857143 0.428571
0.928572 0.428571
1.000000 0.357143
0.000000 0.500000
0.071429 0.500000
0.142857 0.500000
0.214286 0.500000
0.285714 0.500000
0.357143 0.500000
0.428571 0.500000
0.500000 0.500000
0.571429 0.500000
0.642857 0.500000
0.714286 0.500000
0.785714 0.500000
0.857143 0.500000
0.928572 0.500000
1.000000 0.428571
0.000000 0.571429
0.071429 0.571429
0.142857 0.571429
0.214286 0.571429
0.285714 0.571429
0.357143 0.571429
0.428571 0.571429
0.500000 0.571429
0.571429 0.571429
0.642857 0.571429
0.714286 0.571429
0.785714 0.571429
0.857143 0.571429
0.928572 0.571429
1.000000 0.500000
0.000000 0.642857
0.071429 0.642857
0.142857 0.642857
0.214286 0.642857
0.285714 0.642857
0.357143 0.642857
0.428571 0.642857
0.500000 0.642857
0.571429 0.642857
0.642857 0.642857
0.714286 0.642857
0.785714 0.642857
0.857143 0.642857
0.928572 0.642857
1.000000 0.571429
0.000000 0.714286
0.071429 0.714286
0.142857 0.714286
0.214286 0.714286
0.285714 0.714286
0.357143 0.714286
0.428571 0.714286
0.500000 0.714286
0.571429 0.714286
0.642857 0.714286
0.714286 0.714286
0.785714 0.714286
0.857143 0.714286
0.928572 0.714286
1.000000 0.642857
-0.000000 0.785714
0.071429 0.785714
0.142857 0.785714
0.214286 0.785714
0.285714 0.785714
0.357143 0.785714
0.428571 0.785714
0.500000 0.785714
0.571429 0.785714
0.642857 0.785714
0.714286 0.785714
0.785714 0.785714
0.857143 0.785714
0.928572 0.785714
1.000000 0.714286
0.000000 0.857143
0.071429 0.857143
0.142857 0.857143
0.214286 0.857143
0.285714 0.857143
0.357143 0.857143
0.428571 0.857143
0.500000 0.857143
0.571429 0.857143
0.642857 0.857143
0.714286 0.857143
0.785714 0.857143
0.857143 0.857143
0.928572 0.857143
1.000000 0.785714
0.000000 0.928572
1.000000 0.857143
1.000000 0.928572
0.000000 0.071429
0.035714 0.000000
0.071429 0.071429
0.107143 0.000000
0.142857 0.071429
0.178571 0.000000
0.214286 0.071429
0.250000 0.000000
0.285714 0.071429
0.321429 0.000000
0.357143 0.071429
0.392857 0.000000
0.428571 0.071429
0.464286 0.000000
0.500000 0.071429
0.535714 0.000000
0.571429 0.071429
0.607143 0.000000
0.642857 0.071429
0.678571 0.000000
0.714286 0.071429
0.750000 0.000000
0.785714 0.071429
0.821429 0.000000
0.857143 0.071429
0.892857 0.000000
0.928571 0.071429
0.964286 0.000000
0.035714 1.000000
0.071429 0.928571
0.107143 1.000000
0.142857 0.928571
0.178571 1.000000
0.214286 0.928571
0.250000 1.000000
0.285714 0.928571
0.321429 1.000000
0.357143 0.928571
0.392857 1.000000
0.428571 0.928571
0.464286 1.000000
0.500000 0.928571
0.535714 1.000000
0.571429 0.928571
0.607143 1.000000
0.642857 0.928571
0.678571 1.000000
0.714286 0.928571
0.750000 1.000000
0.785714 0.928571
0.821429 1.000000
0.857143 0.928571
0.892857 1.000000
0.928571 0.928571
0.964286 1.000000
</float_array>
          <technique_common>
            <accessor source="#toy_football-UV0-array" count="223" stride="2">
              <param name="S" type="float"/>
              <param name="T" type="float"/>
            </accessor>
          </technique_common>
        </source>
        <vertices id="toy_football-VERTEX">
          <input semantic="POSITION" source="#toy_football-POSITION"/>
          <input semantic="NORMAL" source="#toy_football-Normal0"/>
        </vertices>
        <triangles count="364" material="m_toy_football">
          <input semantic="VERTEX" offset="0" source="#toy_football-VERTEX"/>
          <input semantic="TEXCOORD" offset="1" set="0" source="#toy_football-UV0"/>
          <p> 0 168 1 170 14 0 14 0 1 170 15 1 1 170 2 172 15 1 15 1 2 172 16 2 2 172 3 174 16 2 16 2 3 174 17 3 3 174 4 176 17 3 17 3 4 176 18 4 4 176 5 178 18 4 18 4 5 178 19 5 5 178 6 180 19 5 19 5 6 180 20 6 6 180 7 182 20 6 20 6 7 182 21 7 7 182 8 184 21 7 21 7 8 184 22 8 8 184 9 186 22 8 22 8 9 186 23 9 9 186 10 188 23 9 23 9 10 188 24 10 10 188 11 190 24 10 24 10 11 190 25 11 11 190 12 192 25 11 25 11 12 192 26 12 12 192 13 194 26 12 26 12 13 194 27 13 13 194 0 14 27 13 27 13 0 14 14 29 14 0 15 1 28 15 28 15 15 1 29 16 15 1 16 2 29 16 29 16 16 2 30 17 16 2 17 3 30 17 30 17 17 3 31 18 17 3 18 4 31 18 31 18 18 4 32 19 18 4 19 5 32 19 32 19 19 5 33 20 19 5 20 6 33 20 33 20 20 6 34 21 20 6 21 7 34 21 34 21 21 7 35 22 21 7 22 8 35 22 35 22 22 8 36 23 22 8 23 9 36 23 36 23 23 9 37 24 23 9 24 10 37 24 37 24 24 10 38 25 24 10 25 11 38 25 38 25 25 11 39 26 25 11 26 12 39 26 39 26 26 12 40 27 26 12 27 13 40 27 40 27 27 13 41 28 27 13 14 29 41 28 41 28 14 29 28 44 28 15 29 16 42 30 42 30 29 16 43 31 29 16 30 17 43 31 43 31 30 17 44 32 30 17 31 18 44 32 44 32 31 18 45 33 31 18 32 19 45 33 45 33 32 19 46 34 32 19 33 20 46 34 46 34 33 20 47 35 33 20 34 21 47 35 47 35 34 21 48 36 34 21 35 22 48 36 48 36 35 22 49 37 35 22 36 23 49 37 49 37 36 23 50 38 36 23 37 24 50 38 50 38 37 24 51 39 37 24 38 25 51 39 51 39 38 25 52 40 38 25 39 26 52 40 52 40 39 26 53 41 39 26 40 27 53 41 53 41 40 27 54 42 40 27 41 28 54 42 54 42 41 28 55 43 41 28 28 44 55 43 55 43 28 44 42 59 42 30 43 31 56 45 56 45 43 31 57 46 43 31 44 32 57 46 57 46 44 32 58 47 44 32 45 33 58 47 58 47 45 33 59 48 45 33 46 34 59 48 59 48 46 34 60 49 46 34 47 35 60 49 60 49 47 35 61 50 47 35 48 36 61 50 61 50 48 36 62 51 48 36 49 37 62 51 62 51 49 37 63 52 49 37 50 38 63 52 63 52 50 38 64 53 50 38 51 39 64 53 64 53 51 39 65 54 51 39 52 40 65 54 65 54 52 40 66 55 52 40 53 41 66 55 66 55 53 41 67 56 53 41 54 42 67 56 67 56 54 42 68 57 54 42 55 43 68 57 68 57 55 43 69 58 55 43 42 59 69 58 69 58 42 59 56 74 56 45 57 46 70 60 70 60 57 46 71 61 57 46 58 47 71 61 71 61 58 47 72 62 58 47 59 48 72 62 72 62 59 48 73 63 59 48 60 49 73 63 73 63 60 49 74 64 60 49 61 50 74 64 74 64 61 50 75 65 61 50 62 51 75 65 75 65 62 51 76 66 62 51 63 52 76 66 76 66 63 52 77 67 63 52 64 53 77 67 77 67 64 53 78 68 64 53 65 54 78 68 78 68 65 54 79 69 65 54 66 55 79 69 79 69 66 55 80 70 66 55 67 56 80 70 80 70 67 56 81 71 67 56 68 57 81 71 81 71 68 57 82 72 68 57 69 58 82 72 82 72 69 58 83 73 69 58 56 74 83 73 83 73 56 74 70 89 70 60 71 61 84 75 84 75 71 61 85 76 71 61 72 62 85 76 85 76 72 62 86 77 72 62 73 63 86 77 86 77 73 63 87 78 73 63 74 64 87 78 87 78 74 64 88 79 74 64 75 65 88 79 88 79 75 65 89 80 75 65 76 66 89 80 89 80 76 66 90 81 76 66 77 67 90 81 90 81 77 67 91 82 77 67 78 68 91 82 91 82 78 68 92 83 78 68 79 69 92 83 92 83 79 69 93 84 79 69 80 70 93 84 93 84 80 70 94 85 80 70 81 71 94 85 94 85 81 71 95 86 81 71 82 72 95 86 95 86 82 72 96 87 82 72 83 73 96 87 96 87 83 73 97 88 83 73 70 89 97 88 97 88 70 89 84 104 84 75 85 76 98 90 98 90 85 76 99 91 85 76 86 77 99 91 99 91 86 77 100 92 86 77 87 78 100 92 100 92 87 78 101 93 87 78 88 79 101 93 101 93 88 79 102 94 88 79 89 80 102 94 102 94 89 80 103 95 89 80 90 81 103 95 103 95 90 81 104 96 90 81 91 82 104 96 104 96 91 82 105 97 91 82 92 83 105 97 105 97 92 83 106 98 92 83 93 84 106 98 106 98 93 84 107 99 93 84 94 85 107 99 107 99 94 85 108 100 94 85 95 86 108 100 108 100 95 86 109 101 95 86 96 87 109 101 109 101 96 87 110 102 96 87 97 88 110 102 110 102 97 88 111 103 97 88 84 104 111 103 111 103 84 104 98 119 98 90 99 91 112 105 112 105 99 91 113 106 99 91 100 92 113 106 113 106 100 92 114 107 100 92 101 93 114 107 114 107 101 93 115 108 101 93 102 94 115 108 115 108 102 94 116 109 102 94 103 95 116 109 116 109 103 95 117 110 103 95 104 96 117 110 117 110 104 96 118 111 104 96 105 97 118 111 118 111 105 97 119 112 105 97 106 98 119 112 119 112 106 98 120 113 106 98 107 99 120 113 120 113 107 99 121 114 107 99 108 100 121 114 121 114 108 100 122 115 108 100 109 101 122 115 122 115 109 101 123 116 109 101 110 102 123 116 123 116 110 102 124 117 110 102 111 103 124 117 124 117 111 103 125 118 111 103 98 119 125 118 125 118 98 119 112 134 112 105 113 106 126 120 126 120 113 106 127 121 113 106 114 107 127 121 127 121 114 107 128 122 114 107 115 108 128 122 128 122 115 108 129 123 115 108 116 109 129 123 129 123 116 109 130 124 116 109 117 110 130 124 130 124 117 110 131 125 117 110 118 111 131 125 131 125 118 111 132 126 118 111 119 112 132 126 132 126 119 112 133 127 119 112 120 113 133 127 133 127 120 113 134 128 120 113 121 114 134 128 134 128 121 114 135 129 121 114 122 115 135 129 135 129 122 115 136 130 122 115 123 116 136 130 136 130 123 116 137 131 123 116 124 117 137 131 137 131 124 117 138 132 124 117 125 118 138 132 138 132 125 118 139 133 125 118 112 134 139 133 139 133 112 134 126 149 126 120 127 121 140 135 140 135 127 121 141 136 127 121 128 122 141 136 141 136 128 122 142 137 128 122 129 123 142 137 142 137 129 123 143 138 129 123 130 124 143 138 143 138 130 124 144 139 130 124 131 125 144 139 144 139 131 125 145 140 131 125 132 126 145 140 145 140 132 126 146 141 132 126 133 127 146 141 146 141 133 127 147 142 133 127 134 128 147 142 147 142 134 128 148 143 134 128 135 129 148 143 148 143 135 129 149 144 135 129 136 130 149 144 149 144 136 130 150 145 136 130 137 131 150 145 150 145 137 131 151 146 137 131 138 132 151 146 151 146 138 132 152 147 138 132 139 133 152 147 152 147 139 133 153 148 139 133 126 149 153 148 153 148 126 149 140 164 140 135 141 136 154 150 154 150 141 136 155 151 141 136 142 137 155 151 155 151 142 137 156 152 142 137 143 138 156 152 156 152 143 138 157 153 143 138 144 139 157 153 157 153 144 139 158 154 144 139 145 140 158 154 158 154 145 140 159 155 145 140 146 141 159 155 159 155 146 141 160 156 146 141 147 142 160 156 160 156 147 142 161 157 147 142 148 143 161 157 161 157 148 143 162 158 148 143 149 144 162 158 162 158 149 144 163 159 149 144 150 145 163 159 163 159 150 145 164 160 150 145 151 146 164 160 164 160 151 146 165 161 151 146 152 147 165 161 165 161 152 147 166 162 152 147 153 148 166 162 166 162 153 148 167 163 153 148 140 164 167 163 167 163 140 164 154 166 154 150 155 151 168 165 168 165 155 151 169 197 155 151 156 152 169 197 169 197 156 152 170 199 156 152 157 153 170 199 170 199 157 153 171 201 157 153 158 154 171 201 171 201 158 154 172 203 158 154 159 155 172 203 172 203 159 155 173 205 159 155 160 156 173 205 173 205 160 156 174 207 160 156 161 157 174 207 174 207 161 157 175 209 161 157 162 158 175 209 175 209 162 158 176 211 162 158 163 159 176 211 176 211 163 159 177 213 163 159 164 160 177 213 177 213 164 160 178 215 164 160 165 161 178 215 178 215 165 161 179 217 165 161 166 162 179 217 179 217 166 162 180 219 166 162 167 163 180 219 180 219 167 163 181 221 167 163 154 166 181 221 181 221 154 166 168 167 1 170 0 168 182 169 2 172 1 170 182 171 3 174 2 172 182 173 4 176 3 174 182 175 5 178 4 176 182 177 6 180 5 178 182 179 7 182 6 180 182 181 8 184 7 182 182 183 9 186 8 184 182 185 10 188 9 186 182 187 11 190 10 188 182 189 12 192 11 190 182 191 13 194 12 192 182 193 0 14 13 194 182 195 168 165 169 197 183 196 169 197 170 199 183 198 170 199 171 201 183 200 171 201 172 203 183 202 172 203 173 205 183 204 173 205 174 207 183 206 174 207 175 209 183 208 175 209 176 211 183 210 176 211 177 213 183 212 177 213 178 215 183 214 178 215 179 217 183 216 179 217 180 219 183 218 180 219 181 221 183 220 181 221 168 167 183 222</p>
        </triangles>
      </mesh>
    </geometry>
  </library_geometries>
  <library_visual_scenes>
    <visual_scene id="" name="">
      <node name="toy_football" id="toy_football" sid="toy_football">
        <matrix sid="matrix">0.010000 0.000000 0.000000 0.000000 0.000000 0.010000 0.000000 0.000000 0.000000 0.000000 0.010000 0.000000 0.000000 0.000000 0.000000 1.000000</matrix>
        <instance_geometry url="#toy_football-lib">
          <bind_material>
            <technique_common>
              <instance_material symbol="m_toy_football" target="#m_toy_football"/>
            </technique_common>
          </bind_material>
        </instance_geometry>
        <extra>
          <technique profile="FCOLLADA">
            <visibility>1.000000</visibility>
          </technique>
        </extra>
      </node>
      <extra>
        <technique profile="MAX3D">
          <frame_rate>24.000000</frame_rate>
        </technique>
        <technique profile="FCOLLADA">
          <start_time>0.041667</start_time>
          <end_time>2.000000</end_time>
        </technique>
      </extra>
    </visual_scene>
  </library_visual_scenes>
  <scene>
    <instance_visual_scene url="#"></instance_visual_scene>
  </scene>
</COLLADA>

